<?xml version="1.0" encoding="UTF-8" standalone="no"?>
<!DOCTYPE svg PUBLIC "-//W3C//DTD SVG 1.1//EN"
 "http://www.w3.org/Graphics/SVG/1.1/DTD/svg11.dtd">
<!-- Generated by graphviz version 2.43.0 (0)
 -->
<!-- Title: /home/runner/work/OMSim/OMSim/common/include/CADMesh.hh Pages: 1 -->
<svg width="1912pt" height="106pt"
 viewBox="0.00 0.00 1912.00 106.00" xmlns="http://www.w3.org/2000/svg" xmlns:xlink="http://www.w3.org/1999/xlink">
<g id="graph0" class="graph" transform="scale(1 1) rotate(0) translate(4 102)">
<title>/home/runner/work/OMSim/OMSim/common/include/CADMesh.hh</title>
<polygon fill="white" stroke="transparent" points="-4,4 -4,-102 1908,-102 1908,4 -4,4"/>
<!-- Node1 -->
<g id="node1" class="node">
<title>Node1</title>
<g id="a_node1"><a xlink:title=" ">
<polygon fill="#bfbfbf" stroke="black" points="832.5,-56.5 832.5,-97.5 979.5,-97.5 979.5,-56.5 832.5,-56.5"/>
<text text-anchor="start" x="840.5" y="-85.5" font-family="Helvetica,sans-Serif" font-size="10.00">/home/runner/work/OMSim</text>
<text text-anchor="start" x="840.5" y="-74.5" font-family="Helvetica,sans-Serif" font-size="10.00">/OMSim/common/include</text>
<text text-anchor="middle" x="906" y="-63.5" font-family="Helvetica,sans-Serif" font-size="10.00">/CADMesh.hh</text>
</a>
</g>
</g>
<!-- Node2 -->
<g id="node2" class="node">
<title>Node2</title>
<g id="a_node2"><a xlink:title=" ">
<polygon fill="white" stroke="#bfbfbf" points="0,-0.5 0,-19.5 74,-19.5 74,-0.5 0,-0.5"/>
<text text-anchor="middle" x="37" y="-7.5" font-family="Helvetica,sans-Serif" font-size="10.00">G4String.hh</text>
</a>
</g>
</g>
<!-- Node1&#45;&gt;Node2 -->
<g id="edge1" class="edge">
<title>Node1&#45;&gt;Node2</title>
<path fill="none" stroke="midnightblue" d="M832.48,-74.09C689.9,-69.7 365.82,-56.44 84.1,-19.98"/>
<polygon fill="midnightblue" stroke="midnightblue" points="84.46,-16.5 74.09,-18.67 83.55,-23.44 84.46,-16.5"/>
</g>
<!-- Node3 -->
<g id="node3" class="node">
<title>Node3</title>
<g id="a_node3"><a xlink:title=" ">
<polygon fill="white" stroke="#bfbfbf" points="92,-0.5 92,-19.5 156,-19.5 156,-0.5 92,-0.5"/>
<text text-anchor="middle" x="124" y="-7.5" font-family="Helvetica,sans-Serif" font-size="10.00">algorithm</text>
</a>
</g>
</g>
<!-- Node1&#45;&gt;Node3 -->
<g id="edge2" class="edge">
<title>Node1&#45;&gt;Node3</title>
<path fill="none" stroke="midnightblue" d="M832.26,-73.86C700.37,-69.28 415.33,-55.98 166.12,-19.96"/>
<polygon fill="midnightblue" stroke="midnightblue" points="166.55,-16.49 156.15,-18.51 165.54,-23.41 166.55,-16.49"/>
</g>
<!-- Node4 -->
<g id="node4" class="node">
<title>Node4</title>
<g id="a_node4"><a xlink:title=" ">
<polygon fill="white" stroke="#bfbfbf" points="174,-0.5 174,-19.5 212,-19.5 212,-0.5 174,-0.5"/>
<text text-anchor="middle" x="193" y="-7.5" font-family="Helvetica,sans-Serif" font-size="10.00">map</text>
</a>
</g>
</g>
<!-- Node1&#45;&gt;Node4 -->
<g id="edge3" class="edge">
<title>Node1&#45;&gt;Node4</title>
<path fill="none" stroke="midnightblue" d="M832.5,-75.49C708.1,-73.43 448.33,-63.95 222.19,-19.78"/>
<polygon fill="midnightblue" stroke="midnightblue" points="222.62,-16.3 212.13,-17.79 221.26,-23.16 222.62,-16.3"/>
</g>
<!-- Node5 -->
<g id="node5" class="node">
<title>Node5</title>
<g id="a_node5"><a xlink:title=" ">
<polygon fill="white" stroke="#bfbfbf" points="230.5,-0.5 230.5,-19.5 333.5,-19.5 333.5,-0.5 230.5,-0.5"/>
<text text-anchor="middle" x="282" y="-7.5" font-family="Helvetica,sans-Serif" font-size="10.00">G4ThreeVector.hh</text>
</a>
</g>
</g>
<!-- Node1&#45;&gt;Node5 -->
<g id="edge4" class="edge">
<title>Node1&#45;&gt;Node5</title>
<path fill="none" stroke="midnightblue" d="M832.41,-69.87C726.56,-60.8 524.96,-42.54 343.67,-20.16"/>
<polygon fill="midnightblue" stroke="midnightblue" points="344.04,-16.68 333.69,-18.92 343.18,-23.63 344.04,-16.68"/>
</g>
<!-- Node6 -->
<g id="node6" class="node">
<title>Node6</title>
<g id="a_node6"><a xlink:title=" ">
<polygon fill="white" stroke="#bfbfbf" points="351.5,-0.5 351.5,-19.5 470.5,-19.5 470.5,-0.5 351.5,-0.5"/>
<text text-anchor="middle" x="411" y="-7.5" font-family="Helvetica,sans-Serif" font-size="10.00">G4TriangularFacet.hh</text>
</a>
</g>
</g>
<!-- Node1&#45;&gt;Node6 -->
<g id="edge5" class="edge">
<title>Node1&#45;&gt;Node6</title>
<path fill="none" stroke="midnightblue" d="M832.43,-66.34C737.55,-53.88 573.71,-32.37 480.74,-20.16"/>
<polygon fill="midnightblue" stroke="midnightblue" points="480.96,-16.66 470.59,-18.82 480.05,-23.6 480.96,-16.66"/>
</g>
<!-- Node7 -->
<g id="node7" class="node">
<title>Node7</title>
<g id="a_node7"><a xlink:title=" ">
<polygon fill="white" stroke="#bfbfbf" points="489,-0.5 489,-19.5 547,-19.5 547,-0.5 489,-0.5"/>
<text text-anchor="middle" x="518" y="-7.5" font-family="Helvetica,sans-Serif" font-size="10.00">memory</text>
</a>
</g>
</g>
<!-- Node1&#45;&gt;Node7 -->
<g id="edge6" class="edge">
<title>Node1&#45;&gt;Node7</title>
<path fill="none" stroke="midnightblue" d="M832.31,-65.83C763.58,-55.97 657.99,-39.89 557.44,-20.17"/>
<polygon fill="midnightblue" stroke="midnightblue" points="557.9,-16.7 547.41,-18.19 556.54,-23.56 557.9,-16.7"/>
</g>
<!-- Node8 -->
<g id="node8" class="node">
<title>Node8</title>
<g id="a_node8"><a xlink:title=" ">
<polygon fill="white" stroke="#bfbfbf" points="565.5,-0.5 565.5,-19.5 612.5,-19.5 612.5,-0.5 565.5,-0.5"/>
<text text-anchor="middle" x="589" y="-7.5" font-family="Helvetica,sans-Serif" font-size="10.00">vector</text>
</a>
</g>
</g>
<!-- Node1&#45;&gt;Node8 -->
<g id="edge7" class="edge">
<title>Node1&#45;&gt;Node8</title>
<path fill="none" stroke="midnightblue" d="M832.43,-62.99C777.27,-52.89 699.74,-37.96 622.63,-20.01"/>
<polygon fill="midnightblue" stroke="midnightblue" points="623.28,-16.57 612.74,-17.69 621.68,-23.38 623.28,-16.57"/>
</g>
<!-- Node9 -->
<g id="node9" class="node">
<title>Node9</title>
<g id="a_node9"><a xlink:title=" ">
<polygon fill="white" stroke="#bfbfbf" points="631,-0.5 631,-19.5 691,-19.5 691,-0.5 631,-0.5"/>
<text text-anchor="middle" x="661" y="-7.5" font-family="Helvetica,sans-Serif" font-size="10.00">iostream</text>
</a>
</g>
</g>
<!-- Node1&#45;&gt;Node9 -->
<g id="edge8" class="edge">
<title>Node1&#45;&gt;Node9</title>
<path fill="none" stroke="midnightblue" d="M832.49,-56.5C789.39,-45.06 736.59,-31.06 701.06,-21.63"/>
<polygon fill="midnightblue" stroke="midnightblue" points="701.64,-18.16 691.07,-18.98 699.84,-24.93 701.64,-18.16"/>
</g>
<!-- Node10 -->
<g id="node10" class="node">
<title>Node10</title>
<g id="a_node10"><a xlink:title=" ">
<polygon fill="white" stroke="#bfbfbf" points="709,-0.5 709,-19.5 753,-19.5 753,-0.5 709,-0.5"/>
<text text-anchor="middle" x="731" y="-7.5" font-family="Helvetica,sans-Serif" font-size="10.00">string</text>
</a>
</g>
</g>
<!-- Node1&#45;&gt;Node10 -->
<g id="edge9" class="edge">
<title>Node1&#45;&gt;Node10</title>
<path fill="none" stroke="midnightblue" d="M853.49,-56.5C823.99,-45.54 788.12,-32.22 762.85,-22.83"/>
<polygon fill="midnightblue" stroke="midnightblue" points="763.97,-19.51 753.38,-19.31 761.54,-26.08 763.97,-19.51"/>
</g>
<!-- Node11 -->
<g id="node11" class="node">
<title>Node11</title>
<g id="a_node11"><a xlink:title=" ">
<polygon fill="white" stroke="#bfbfbf" points="771,-0.5 771,-19.5 901,-19.5 901,-0.5 771,-0.5"/>
<text text-anchor="middle" x="836" y="-7.5" font-family="Helvetica,sans-Serif" font-size="10.00">G4AssemblyVolume.hh</text>
</a>
</g>
</g>
<!-- Node1&#45;&gt;Node11 -->
<g id="edge10" class="edge">
<title>Node1&#45;&gt;Node11</title>
<path fill="none" stroke="midnightblue" d="M885,-56.5C874.68,-46.92 862.41,-35.53 852.74,-26.54"/>
<polygon fill="midnightblue" stroke="midnightblue" points="855.03,-23.89 845.32,-19.65 850.26,-29.02 855.03,-23.89"/>
</g>
<!-- Node12 -->
<g id="node12" class="node">
<title>Node12</title>
<g id="a_node12"><a xlink:title=" ">
<polygon fill="white" stroke="#bfbfbf" points="919,-0.5 919,-19.5 1035,-19.5 1035,-0.5 919,-0.5"/>
<text text-anchor="middle" x="977" y="-7.5" font-family="Helvetica,sans-Serif" font-size="10.00">G4LogicalVolume.hh</text>
</a>
</g>
</g>
<!-- Node1&#45;&gt;Node12 -->
<g id="edge11" class="edge">
<title>Node1&#45;&gt;Node12</title>
<path fill="none" stroke="midnightblue" d="M927.3,-56.5C937.77,-46.92 950.21,-35.53 960.02,-26.54"/>
<polygon fill="midnightblue" stroke="midnightblue" points="962.54,-28.99 967.55,-19.65 957.81,-23.82 962.54,-28.99"/>
</g>
<!-- Node13 -->
<g id="node13" class="node">
<title>Node13</title>
<g id="a_node13"><a xlink:title=" ">
<polygon fill="white" stroke="#bfbfbf" points="1053,-0.5 1053,-19.5 1139,-19.5 1139,-0.5 1053,-0.5"/>
<text text-anchor="middle" x="1096" y="-7.5" font-family="Helvetica,sans-Serif" font-size="10.00">G4Material.hh</text>
</a>
</g>
</g>
<!-- Node1&#45;&gt;Node13 -->
<g id="edge12" class="edge">
<title>Node1&#45;&gt;Node13</title>
<path fill="none" stroke="midnightblue" d="M963.01,-56.5C994.94,-45.57 1033.73,-32.3 1061.15,-22.92"/>
<polygon fill="midnightblue" stroke="midnightblue" points="1062.38,-26.2 1070.71,-19.65 1060.11,-19.58 1062.38,-26.2"/>
</g>
<!-- Node14 -->
<g id="node14" class="node">
<title>Node14</title>
<g id="a_node14"><a xlink:title=" ">
<polygon fill="white" stroke="#bfbfbf" points="1157,-0.5 1157,-19.5 1281,-19.5 1281,-0.5 1157,-0.5"/>
<text text-anchor="middle" x="1219" y="-7.5" font-family="Helvetica,sans-Serif" font-size="10.00">G4TessellatedSolid.hh</text>
</a>
</g>
</g>
<!-- Node1&#45;&gt;Node14 -->
<g id="edge13" class="edge">
<title>Node1&#45;&gt;Node14</title>
<path fill="none" stroke="midnightblue" d="M979.78,-60.68C1037.73,-48.64 1116.91,-32.2 1168.01,-21.59"/>
<polygon fill="midnightblue" stroke="midnightblue" points="1168.76,-25.01 1177.84,-19.55 1167.34,-18.15 1168.76,-25.01"/>
</g>
<!-- Node15 -->
<g id="node15" class="node">
<title>Node15</title>
<g id="a_node15"><a xlink:title=" ">
<polygon fill="white" stroke="#bfbfbf" points="1299.5,-0.5 1299.5,-19.5 1358.5,-19.5 1358.5,-0.5 1299.5,-0.5"/>
<text text-anchor="middle" x="1329" y="-7.5" font-family="Helvetica,sans-Serif" font-size="10.00">G4Tet.hh</text>
</a>
</g>
</g>
<!-- Node1&#45;&gt;Node15 -->
<g id="edge14" class="edge">
<title>Node1&#45;&gt;Node15</title>
<path fill="none" stroke="midnightblue" d="M979.55,-67.09C1054.87,-57.56 1175.5,-41.16 1289.31,-19.99"/>
<polygon fill="midnightblue" stroke="midnightblue" points="1290.06,-23.41 1299.24,-18.13 1288.77,-16.53 1290.06,-23.41"/>
</g>
<!-- Node16 -->
<g id="node16" class="node">
<title>Node16</title>
<g id="a_node16"><a xlink:title=" ">
<polygon fill="white" stroke="#bfbfbf" points="1377,-0.5 1377,-19.5 1481,-19.5 1481,-0.5 1377,-0.5"/>
<text text-anchor="middle" x="1429" y="-7.5" font-family="Helvetica,sans-Serif" font-size="10.00">G4UIcommand.hh</text>
</a>
</g>
</g>
<!-- Node1&#45;&gt;Node16 -->
<g id="edge15" class="edge">
<title>Node1&#45;&gt;Node16</title>
<path fill="none" stroke="midnightblue" d="M979.69,-67.66C1068.8,-57.45 1223.6,-39.27 1366.5,-20.17"/>
<polygon fill="midnightblue" stroke="midnightblue" points="1367.32,-23.59 1376.77,-18.8 1366.39,-16.66 1367.32,-23.59"/>
</g>
<!-- Node17 -->
<g id="node17" class="node">
<title>Node17</title>
<g id="a_node17"><a xlink:title=" ">
<polygon fill="white" stroke="#bfbfbf" points="1499.5,-0.5 1499.5,-19.5 1566.5,-19.5 1566.5,-0.5 1499.5,-0.5"/>
<text text-anchor="middle" x="1533" y="-7.5" font-family="Helvetica,sans-Serif" font-size="10.00">globals.hh</text>
</a>
</g>
</g>
<!-- Node1&#45;&gt;Node17 -->
<g id="edge16" class="edge">
<title>Node1&#45;&gt;Node17</title>
<path fill="none" stroke="midnightblue" d="M979.61,-71.57C1088.72,-64.41 1299.9,-48.34 1489.13,-19.96"/>
<polygon fill="midnightblue" stroke="midnightblue" points="1489.9,-23.39 1499.26,-18.43 1488.85,-16.47 1489.9,-23.39"/>
</g>
<!-- Node18 -->
<g id="node18" class="node">
<title>Node18</title>
<g id="a_node18"><a xlink:title=" ">
<polygon fill="white" stroke="#bfbfbf" points="1584.5,-0.5 1584.5,-19.5 1639.5,-19.5 1639.5,-0.5 1584.5,-0.5"/>
<text text-anchor="middle" x="1612" y="-7.5" font-family="Helvetica,sans-Serif" font-size="10.00">fstream</text>
</a>
</g>
</g>
<!-- Node1&#45;&gt;Node18 -->
<g id="edge17" class="edge">
<title>Node1&#45;&gt;Node18</title>
<path fill="none" stroke="midnightblue" d="M979.85,-73.73C1101.92,-69.11 1353.47,-55.99 1574.04,-20.1"/>
<polygon fill="midnightblue" stroke="midnightblue" points="1574.89,-23.5 1584.19,-18.43 1573.75,-16.6 1574.89,-23.5"/>
</g>
<!-- Node19 -->
<g id="node19" class="node">
<title>Node19</title>
<g id="a_node19"><a xlink:title=" ">
<polygon fill="white" stroke="#bfbfbf" points="1658,-0.5 1658,-19.5 1714,-19.5 1714,-0.5 1658,-0.5"/>
<text text-anchor="middle" x="1686" y="-7.5" font-family="Helvetica,sans-Serif" font-size="10.00">sstream</text>
</a>
</g>
</g>
<!-- Node1&#45;&gt;Node19 -->
<g id="edge18" class="edge">
<title>Node1&#45;&gt;Node19</title>
<path fill="none" stroke="midnightblue" d="M979.75,-74.43C1112.02,-70.73 1398.24,-58.78 1647.83,-19.93"/>
<polygon fill="midnightblue" stroke="midnightblue" points="1648.48,-23.37 1657.81,-18.36 1647.39,-16.46 1648.48,-23.37"/>
</g>
<!-- Node20 -->
<g id="node20" class="node">
<title>Node20</title>
<g id="a_node20"><a xlink:title=" ">
<polygon fill="white" stroke="#bfbfbf" points="1732.5,-0.5 1732.5,-19.5 1799.5,-19.5 1799.5,-0.5 1732.5,-0.5"/>
<text text-anchor="middle" x="1766" y="-7.5" font-family="Helvetica,sans-Serif" font-size="10.00">streambuf</text>
</a>
</g>
</g>
<!-- Node1&#45;&gt;Node20 -->
<g id="edge19" class="edge">
<title>Node1&#45;&gt;Node20</title>
<path fill="none" stroke="midnightblue" d="M979.58,-74.35C1121.48,-70.44 1442.84,-57.97 1722.35,-19.88"/>
<polygon fill="midnightblue" stroke="midnightblue" points="1722.85,-23.35 1732.28,-18.52 1721.89,-16.41 1722.85,-23.35"/>
</g>
<!-- Node21 -->
<g id="node21" class="node">
<title>Node21</title>
<g id="a_node21"><a xlink:title=" ">
<polygon fill="white" stroke="#bfbfbf" points="1818,-0.5 1818,-19.5 1904,-19.5 1904,-0.5 1818,-0.5"/>
<text text-anchor="middle" x="1861" y="-7.5" font-family="Helvetica,sans-Serif" font-size="10.00">Randomize.hh</text>
</a>
</g>
</g>
<!-- Node1&#45;&gt;Node21 -->
<g id="edge20" class="edge">
<title>Node1&#45;&gt;Node21</title>
<path fill="none" stroke="midnightblue" d="M979.69,-74.16C1132.35,-69.76 1494.37,-56.24 1807.73,-20.02"/>
<polygon fill="midnightblue" stroke="midnightblue" points="1808.4,-23.46 1817.92,-18.83 1807.58,-16.51 1808.4,-23.46"/>
</g>
</g>
</svg>
