<?xml version="1.0" encoding="UTF-8" standalone="no"?>
<!DOCTYPE svg PUBLIC "-//W3C//DTD SVG 1.1//EN"
 "http://www.w3.org/Graphics/SVG/1.1/DTD/svg11.dtd">
<!-- Generated by graphviz version 2.43.0 (0)
 -->
<!-- Title: /home/runner/work/OMSim/OMSim/common/include/OMSimMDOMFlasher.hh Pages: 1 -->
<svg width="1015pt" height="284pt"
 viewBox="0.00 0.00 1015.43 284.00" xmlns="http://www.w3.org/2000/svg" xmlns:xlink="http://www.w3.org/1999/xlink">
<g id="graph0" class="graph" transform="scale(1 1) rotate(0) translate(4 280)">
<title>/home/runner/work/OMSim/OMSim/common/include/OMSimMDOMFlasher.hh</title>
<polygon fill="white" stroke="transparent" points="-4,4 -4,-280 1011.43,-280 1011.43,4 -4,4"/>
<!-- Node1 -->
<g id="node1" class="node">
<title>Node1</title>
<g id="a_node1"><a xlink:title=" ">
<polygon fill="#bfbfbf" stroke="black" points="418,-234.5 418,-275.5 565,-275.5 565,-234.5 418,-234.5"/>
<text text-anchor="start" x="426" y="-263.5" font-family="Helvetica,sans-Serif" font-size="10.00">/home/runner/work/OMSim</text>
<text text-anchor="start" x="426" y="-252.5" font-family="Helvetica,sans-Serif" font-size="10.00">/OMSim/common/include</text>
<text text-anchor="middle" x="491.5" y="-241.5" font-family="Helvetica,sans-Serif" font-size="10.00">/OMSimMDOMFlasher.hh</text>
</a>
</g>
</g>
<!-- Node2 -->
<g id="node2" class="node">
<title>Node2</title>
<g id="a_node2"><a xlink:href="_o_m_sim_m_d_o_m_8hh.html" target="_top" xlink:title=" ">
<polygon fill="white" stroke="black" points="449,-156.5 449,-197.5 596,-197.5 596,-156.5 449,-156.5"/>
<text text-anchor="start" x="457" y="-185.5" font-family="Helvetica,sans-Serif" font-size="10.00">/home/runner/work/OMSim</text>
<text text-anchor="start" x="457" y="-174.5" font-family="Helvetica,sans-Serif" font-size="10.00">/OMSim/common/include</text>
<text text-anchor="middle" x="522.5" y="-163.5" font-family="Helvetica,sans-Serif" font-size="10.00">/OMSimMDOM.hh</text>
</a>
</g>
</g>
<!-- Node1&#45;&gt;Node2 -->
<g id="edge1" class="edge">
<title>Node1&#45;&gt;Node2</title>
<path fill="none" stroke="midnightblue" d="M503.38,-224.88C507.11,-215.72 511.15,-205.83 514.54,-197.51"/>
<polygon fill="midnightblue" stroke="midnightblue" points="500.02,-223.85 499.48,-234.43 506.5,-226.49 500.02,-223.85"/>
</g>
<!-- Node3 -->
<g id="node3" class="node">
<title>Node3</title>
<g id="a_node3"><a xlink:href="_o_m_sim_m_d_o_m_8cc.html" target="_top" xlink:title="Construction of mDOM.">
<polygon fill="white" stroke="black" points="0,-84 0,-114 203,-114 203,-84 0,-84"/>
<text text-anchor="start" x="8" y="-102" font-family="Helvetica,sans-Serif" font-size="10.00">/home/runner/work/OMSim</text>
<text text-anchor="middle" x="101.5" y="-91" font-family="Helvetica,sans-Serif" font-size="10.00">/OMSim/common/src/OMSimMDOM.cc</text>
</a>
</g>
</g>
<!-- Node1&#45;&gt;Node3 -->
<g id="edge9" class="edge">
<title>Node1&#45;&gt;Node3</title>
<path fill="none" stroke="midnightblue" d="M432.43,-230.67C350.38,-198.28 204.45,-140.65 137.22,-114.11"/>
<polygon fill="midnightblue" stroke="midnightblue" points="431.52,-234.08 442.11,-234.5 434.09,-227.57 431.52,-234.08"/>
</g>
<!-- Node4 -->
<g id="node4" class="node">
<title>Node4</title>
<g id="a_node4"><a xlink:href="_o_m_sim_m_d_o_m_flasher_8cc.html" target="_top" xlink:title=" ">
<polygon fill="white" stroke="black" points="221.5,-84 221.5,-114 459.5,-114 459.5,-84 221.5,-84"/>
<text text-anchor="start" x="229.5" y="-102" font-family="Helvetica,sans-Serif" font-size="10.00">/home/runner/work/OMSim</text>
<text text-anchor="middle" x="340.5" y="-91" font-family="Helvetica,sans-Serif" font-size="10.00">/OMSim/common/src/OMSimMDOMFlasher.cc</text>
</a>
</g>
</g>
<!-- Node1&#45;&gt;Node4 -->
<g id="edge10" class="edge">
<title>Node1&#45;&gt;Node4</title>
<path fill="none" stroke="midnightblue" d="M465.06,-227.04C432.88,-194.21 379.71,-139.99 354.54,-114.32"/>
<polygon fill="midnightblue" stroke="midnightblue" points="462.88,-229.81 472.38,-234.5 467.87,-224.91 462.88,-229.81"/>
</g>
<!-- Node7 -->
<g id="node7" class="node">
<title>Node7</title>
<g id="a_node7"><a xlink:href="_o_m_sim_detector_construction_8cc.html" target="_top" xlink:title="User defined detector.">
<polygon fill="white" stroke="black" points="649,-0.5 649,-41.5 838,-41.5 838,-0.5 649,-0.5"/>
<text text-anchor="start" x="657" y="-29.5" font-family="Helvetica,sans-Serif" font-size="10.00">/home/runner/work/OMSim</text>
<text text-anchor="start" x="657" y="-18.5" font-family="Helvetica,sans-Serif" font-size="10.00">/OMSim/effective_area</text>
<text text-anchor="middle" x="743.5" y="-7.5" font-family="Helvetica,sans-Serif" font-size="10.00">/src/OMSimDetectorConstruction.cc</text>
</a>
</g>
</g>
<!-- Node1&#45;&gt;Node7 -->
<g id="edge11" class="edge">
<title>Node1&#45;&gt;Node7</title>
<path fill="none" stroke="midnightblue" d="M575.08,-244.09C704.89,-226.79 945.39,-186.44 996.5,-120 1043.24,-59.24 928.3,-36.12 838.36,-27.35"/>
<polygon fill="midnightblue" stroke="midnightblue" points="574.62,-240.62 565.17,-245.39 575.54,-247.56 574.62,-240.62"/>
</g>
<!-- Node2&#45;&gt;Node3 -->
<g id="edge2" class="edge">
<title>Node2&#45;&gt;Node3</title>
<path fill="none" stroke="midnightblue" d="M438.72,-160.88C363.12,-147.23 252.8,-127.31 179.16,-114.02"/>
<polygon fill="midnightblue" stroke="midnightblue" points="438.22,-164.34 448.69,-162.67 439.47,-157.45 438.22,-164.34"/>
</g>
<!-- Node2&#45;&gt;Node4 -->
<g id="edge3" class="edge">
<title>Node2&#45;&gt;Node4</title>
<path fill="none" stroke="midnightblue" d="M466.09,-152.45C436.02,-139.89 400.01,-124.85 374.28,-114.11"/>
<polygon fill="midnightblue" stroke="midnightblue" points="465.05,-155.8 475.63,-156.43 467.75,-149.34 465.05,-155.8"/>
</g>
<!-- Node5 -->
<g id="node5" class="node">
<title>Node5</title>
<g id="a_node5"><a xlink:href="_o_m_sim_m_d_o_m_harness_8cc.html" target="_top" xlink:title="Construction of mDOM harness.">
<polygon fill="white" stroke="black" points="745.5,-84 745.5,-114 987.5,-114 987.5,-84 745.5,-84"/>
<text text-anchor="start" x="753.5" y="-102" font-family="Helvetica,sans-Serif" font-size="10.00">/home/runner/work/OMSim</text>
<text text-anchor="middle" x="866.5" y="-91" font-family="Helvetica,sans-Serif" font-size="10.00">/OMSim/common/src/OMSimMDOMHarness.cc</text>
</a>
</g>
</g>
<!-- Node2&#45;&gt;Node5 -->
<g id="edge4" class="edge">
<title>Node2&#45;&gt;Node5</title>
<path fill="none" stroke="midnightblue" d="M606.23,-157.5C666.86,-144.11 747.56,-126.28 802.94,-114.04"/>
<polygon fill="midnightblue" stroke="midnightblue" points="605.31,-154.12 596.3,-159.7 606.82,-160.96 605.31,-154.12"/>
</g>
<!-- Node6 -->
<g id="node6" class="node">
<title>Node6</title>
<g id="a_node6"><a xlink:href="_o_m_sim_detector_construction_8hh.html" target="_top" xlink:title=" ">
<polygon fill="white" stroke="black" points="477.5,-78.5 477.5,-119.5 689.5,-119.5 689.5,-78.5 477.5,-78.5"/>
<text text-anchor="start" x="485.5" y="-107.5" font-family="Helvetica,sans-Serif" font-size="10.00">/home/runner/work/OMSim</text>
<text text-anchor="start" x="485.5" y="-96.5" font-family="Helvetica,sans-Serif" font-size="10.00">/OMSim/effective_area</text>
<text text-anchor="middle" x="583.5" y="-85.5" font-family="Helvetica,sans-Serif" font-size="10.00">/include/OMSimDetectorConstruction.hh</text>
</a>
</g>
</g>
<!-- Node2&#45;&gt;Node6 -->
<g id="edge5" class="edge">
<title>Node2&#45;&gt;Node6</title>
<path fill="none" stroke="midnightblue" d="M544.47,-148.63C552.21,-138.99 560.74,-128.36 567.84,-119.51"/>
<polygon fill="midnightblue" stroke="midnightblue" points="541.74,-146.44 538.21,-156.43 547.2,-150.82 541.74,-146.44"/>
</g>
<!-- Node2&#45;&gt;Node7 -->
<g id="edge8" class="edge">
<title>Node2&#45;&gt;Node7</title>
<path fill="none" stroke="midnightblue" d="M605.9,-164.26C637.88,-156.23 672.82,-142.72 698.5,-120 721.92,-99.29 733.93,-63.89 739.46,-41.79"/>
<polygon fill="midnightblue" stroke="midnightblue" points="605.01,-160.87 596.08,-166.58 606.62,-167.68 605.01,-160.87"/>
</g>
<!-- Node6&#45;&gt;Node7 -->
<g id="edge6" class="edge">
<title>Node6&#45;&gt;Node7</title>
<path fill="none" stroke="midnightblue" d="M633.92,-74.05C655.99,-63.57 681.55,-51.42 702.44,-41.51"/>
<polygon fill="midnightblue" stroke="midnightblue" points="632.24,-70.98 624.7,-78.43 635.24,-77.3 632.24,-70.98"/>
</g>
<!-- Node8 -->
<g id="node8" class="node">
<title>Node8</title>
<g id="a_node8"><a xlink:href="_o_m_sim__effective__area_8cc.html" target="_top" xlink:title="Main for the calculation of effective areas.">
<polygon fill="white" stroke="black" points="484,-0.5 484,-41.5 631,-41.5 631,-0.5 484,-0.5"/>
<text text-anchor="start" x="492" y="-29.5" font-family="Helvetica,sans-Serif" font-size="10.00">/home/runner/work/OMSim</text>
<text text-anchor="start" x="492" y="-18.5" font-family="Helvetica,sans-Serif" font-size="10.00">/OMSim/OMSim_effective</text>
<text text-anchor="middle" x="557.5" y="-7.5" font-family="Helvetica,sans-Serif" font-size="10.00">_area.cc</text>
</a>
</g>
</g>
<!-- Node6&#45;&gt;Node8 -->
<g id="edge7" class="edge">
<title>Node6&#45;&gt;Node8</title>
<path fill="none" stroke="midnightblue" d="M573.54,-68.88C570.4,-59.72 567.02,-49.83 564.17,-41.51"/>
<polygon fill="midnightblue" stroke="midnightblue" points="570.26,-70.1 576.8,-78.43 576.88,-67.83 570.26,-70.1"/>
</g>
</g>
</svg>
