<?xml version="1.0" encoding="UTF-8" standalone="no"?>
<!DOCTYPE svg PUBLIC "-//W3C//DTD SVG 1.1//EN"
 "http://www.w3.org/Graphics/SVG/1.1/DTD/svg11.dtd">
<!-- Generated by graphviz version 2.43.0 (0)
 -->
<!-- Title: OMSim_effective_area.cc Pages: 1 -->
<svg width="4009pt" height="319pt"
 viewBox="0.00 0.00 4008.50 319.00" xmlns="http://www.w3.org/2000/svg" xmlns:xlink="http://www.w3.org/1999/xlink">
<g id="graph0" class="graph" transform="scale(1 1) rotate(0) translate(4 315)">
<title>OMSim_effective_area.cc</title>
<polygon fill="white" stroke="transparent" points="-4,4 -4,-315 4004.5,-315 4004.5,4 -4,4"/>
<!-- Node1 -->
<g id="node1" class="node">
<title>Node1</title>
<g id="a_node1"><a xlink:title="Main for the calculation of effective areas.">
<polygon fill="#bfbfbf" stroke="black" points="2266.5,-291.5 2266.5,-310.5 2406.5,-310.5 2406.5,-291.5 2266.5,-291.5"/>
<text text-anchor="middle" x="2336.5" y="-298.5" font-family="Helvetica,sans-Serif" font-size="10.00">OMSim_effective_area.cc</text>
</a>
</g>
</g>
<!-- Node2 -->
<g id="node2" class="node">
<title>Node2</title>
<g id="a_node2"><a xlink:href="_o_m_sim_detector_construction_8hh.html" target="_top" xlink:title=" ">
<polygon fill="white" stroke="black" points="353.5,-235.5 353.5,-254.5 523.5,-254.5 523.5,-235.5 353.5,-235.5"/>
<text text-anchor="middle" x="438.5" y="-242.5" font-family="Helvetica,sans-Serif" font-size="10.00">OMSimDetectorConstruction.hh</text>
</a>
</g>
</g>
<!-- Node1&#45;&gt;Node2 -->
<g id="edge1" class="edge">
<title>Node1&#45;&gt;Node2</title>
<path fill="none" stroke="midnightblue" d="M2266.41,-298.01C1976.03,-289.74 866.96,-258.19 533.73,-248.71"/>
<polygon fill="midnightblue" stroke="midnightblue" points="533.72,-245.21 523.63,-248.42 533.52,-252.21 533.72,-245.21"/>
</g>
<!-- Node8 -->
<g id="node8" class="node">
<title>Node8</title>
<g id="a_node8"><a xlink:title=" ">
<polygon fill="white" stroke="#bfbfbf" points="158,-0.5 158,-30.5 271,-30.5 271,-0.5 158,-0.5"/>
<text text-anchor="start" x="166" y="-18.5" font-family="Helvetica,sans-Serif" font-size="10.00">boost/property_tree</text>
<text text-anchor="middle" x="214.5" y="-7.5" font-family="Helvetica,sans-Serif" font-size="10.00">/ptree.hpp</text>
</a>
</g>
</g>
<!-- Node1&#45;&gt;Node8 -->
<g id="edge75" class="edge">
<title>Node1&#45;&gt;Node8</title>
<path fill="none" stroke="midnightblue" d="M2266.37,-299.34C1935.4,-296.11 537.72,-281 344.5,-255 242.8,-241.31 183.65,-279.89 120.5,-199 98.92,-171.36 61.28,-198.39 147.5,-67 155.54,-54.75 167.6,-44.33 179.29,-36.19"/>
<polygon fill="midnightblue" stroke="midnightblue" points="181.24,-39.1 187.67,-30.68 177.39,-33.25 181.24,-39.1"/>
</g>
<!-- Node9 -->
<g id="node9" class="node">
<title>Node9</title>
<g id="a_node9"><a xlink:title=" ">
<polygon fill="white" stroke="#bfbfbf" points="0,-0.5 0,-30.5 113,-30.5 113,-0.5 0,-0.5"/>
<text text-anchor="start" x="8" y="-18.5" font-family="Helvetica,sans-Serif" font-size="10.00">boost/property_tree</text>
<text text-anchor="middle" x="56.5" y="-7.5" font-family="Helvetica,sans-Serif" font-size="10.00">/json_parser.hpp</text>
</a>
</g>
</g>
<!-- Node1&#45;&gt;Node9 -->
<g id="edge76" class="edge">
<title>Node1&#45;&gt;Node9</title>
<path fill="none" stroke="midnightblue" d="M2266.39,-300.29C1916.25,-301.5 365.54,-304.04 156.5,-255 90.5,-239.52 18.5,-257.8 18.5,-190 18.5,-190 18.5,-190 18.5,-132 18.5,-98.72 32.91,-62.62 43.99,-39.8"/>
<polygon fill="midnightblue" stroke="midnightblue" points="47.25,-41.1 48.63,-30.59 41,-37.95 47.25,-41.1"/>
</g>
<!-- Node13 -->
<g id="node10" class="node">
<title>Node13</title>
<g id="a_node10"><a xlink:title=" ">
<polygon fill="white" stroke="#bfbfbf" points="614,-6 614,-25 733,-25 733,-6 614,-6"/>
<text text-anchor="middle" x="673.5" y="-13" font-family="Helvetica,sans-Serif" font-size="10.00">G4SystemOfUnits.hh</text>
</a>
</g>
</g>
<!-- Node1&#45;&gt;Node13 -->
<g id="edge74" class="edge">
<title>Node1&#45;&gt;Node13</title>
<path fill="none" stroke="midnightblue" d="M2266.28,-299.76C1975.04,-298.53 874.37,-291.47 810.5,-255 780.84,-238.07 769.5,-224.16 769.5,-190 769.5,-190 769.5,-190 769.5,-132 769.5,-86.83 725.53,-49.9 697.11,-30.74"/>
<polygon fill="midnightblue" stroke="midnightblue" points="698.79,-27.67 688.5,-25.16 694.99,-33.54 698.79,-27.67"/>
</g>
<!-- Node31 -->
<g id="node13" class="node">
<title>Node31</title>
<g id="a_node13"><a xlink:href="_o_m_sim_physics_list_8hh.html" target="_top" xlink:title=" ">
<polygon fill="white" stroke="black" points="1443,-235.5 1443,-254.5 1564,-254.5 1564,-235.5 1443,-235.5"/>
<text text-anchor="middle" x="1503.5" y="-242.5" font-family="Helvetica,sans-Serif" font-size="10.00">OMSimPhysicsList.hh</text>
</a>
</g>
</g>
<!-- Node1&#45;&gt;Node31 -->
<g id="edge20" class="edge">
<title>Node1&#45;&gt;Node31</title>
<path fill="none" stroke="midnightblue" d="M2266.33,-297.53C2133.31,-292.49 1835.16,-279.44 1574.11,-255.09"/>
<polygon fill="midnightblue" stroke="midnightblue" points="1574.34,-251.6 1564.05,-254.15 1573.68,-258.57 1574.34,-251.6"/>
</g>
<!-- Node34 -->
<g id="node16" class="node">
<title>Node34</title>
<g id="a_node16"><a xlink:href="_o_m_sim_primary_generator_action_8hh.html" target="_top" xlink:title=" ">
<polygon fill="white" stroke="black" points="1582,-235.5 1582,-254.5 1767,-254.5 1767,-235.5 1582,-235.5"/>
<text text-anchor="middle" x="1674.5" y="-242.5" font-family="Helvetica,sans-Serif" font-size="10.00">OMSimPrimaryGeneratorAction.hh</text>
</a>
</g>
</g>
<!-- Node1&#45;&gt;Node34 -->
<g id="edge23" class="edge">
<title>Node1&#45;&gt;Node34</title>
<path fill="none" stroke="midnightblue" d="M2266.28,-294.27C2149.09,-284.71 1913.11,-265.46 1777.22,-254.38"/>
<polygon fill="midnightblue" stroke="midnightblue" points="1777.46,-250.89 1767.21,-253.56 1776.89,-257.86 1777.46,-250.89"/>
</g>
<!-- Node36 -->
<g id="node18" class="node">
<title>Node36</title>
<g id="a_node18"><a xlink:href="_o_m_sim_run_action_8hh.html" target="_top" xlink:title=" ">
<polygon fill="white" stroke="black" points="1823.5,-235.5 1823.5,-254.5 1939.5,-254.5 1939.5,-235.5 1823.5,-235.5"/>
<text text-anchor="middle" x="1881.5" y="-242.5" font-family="Helvetica,sans-Serif" font-size="10.00">OMSimRunAction.hh</text>
</a>
</g>
</g>
<!-- Node1&#45;&gt;Node36 -->
<g id="edge26" class="edge">
<title>Node1&#45;&gt;Node36</title>
<path fill="none" stroke="midnightblue" d="M2266.4,-291.68C2180.29,-281.46 2035.15,-264.24 1949.85,-254.11"/>
<polygon fill="midnightblue" stroke="midnightblue" points="1950.09,-250.62 1939.75,-252.91 1949.27,-257.57 1950.09,-250.62"/>
</g>
<!-- Node38 -->
<g id="node20" class="node">
<title>Node38</title>
<g id="a_node20"><a xlink:href="_o_m_sim_event_action_8hh.html" target="_top" xlink:title=" ">
<polygon fill="white" stroke="black" points="2101,-235.5 2101,-254.5 2226,-254.5 2226,-235.5 2101,-235.5"/>
<text text-anchor="middle" x="2163.5" y="-242.5" font-family="Helvetica,sans-Serif" font-size="10.00">OMSimEventAction.hh</text>
</a>
</g>
</g>
<!-- Node1&#45;&gt;Node38 -->
<g id="edge29" class="edge">
<title>Node1&#45;&gt;Node38</title>
<path fill="none" stroke="midnightblue" d="M2309.09,-291.44C2279.73,-282.28 2232.98,-267.69 2200.4,-257.52"/>
<polygon fill="midnightblue" stroke="midnightblue" points="2201.37,-254.16 2190.78,-254.52 2199.29,-260.84 2201.37,-254.16"/>
</g>
<!-- Node40 -->
<g id="node22" class="node">
<title>Node40</title>
<g id="a_node22"><a xlink:title=" ">
<polygon fill="white" stroke="#bfbfbf" points="2427.5,-123.5 2427.5,-142.5 2471.5,-142.5 2471.5,-123.5 2427.5,-123.5"/>
<text text-anchor="middle" x="2449.5" y="-130.5" font-family="Helvetica,sans-Serif" font-size="10.00">string</text>
</a>
</g>
</g>
<!-- Node1&#45;&gt;Node40 -->
<g id="edge72" class="edge">
<title>Node1&#45;&gt;Node40</title>
<path fill="none" stroke="midnightblue" d="M2328.18,-291.1C2316.64,-277.67 2298.69,-251.98 2312.5,-235 2362.05,-174.07 2435.95,-259.93 2485.5,-199 2498,-183.63 2482.55,-163.31 2468.18,-149.51"/>
<polygon fill="midnightblue" stroke="midnightblue" points="2470.27,-146.68 2460.5,-142.59 2465.59,-151.88 2470.27,-146.68"/>
</g>
<!-- Node41 -->
<g id="node23" class="node">
<title>Node41</title>
<g id="a_node23"><a xlink:href="_o_m_sim_tracking_action_8hh.html" target="_top" xlink:title=" ">
<polygon fill="white" stroke="black" points="2536.5,-235.5 2536.5,-254.5 2674.5,-254.5 2674.5,-235.5 2536.5,-235.5"/>
<text text-anchor="middle" x="2605.5" y="-242.5" font-family="Helvetica,sans-Serif" font-size="10.00">OMSimTrackingAction.hh</text>
</a>
</g>
</g>
<!-- Node1&#45;&gt;Node41 -->
<g id="edge32" class="edge">
<title>Node1&#45;&gt;Node41</title>
<path fill="none" stroke="midnightblue" d="M2379.12,-291.44C2426.25,-281.98 2502.19,-266.74 2552.96,-256.55"/>
<polygon fill="midnightblue" stroke="midnightblue" points="2553.96,-259.92 2563.08,-254.52 2552.58,-253.05 2553.96,-259.92"/>
</g>
<!-- Node43 -->
<g id="node25" class="node">
<title>Node43</title>
<g id="a_node25"><a xlink:href="_o_m_sim_stepping_action_8hh.html" target="_top" xlink:title=" ">
<polygon fill="white" stroke="red" points="819.5,-235.5 819.5,-254.5 959.5,-254.5 959.5,-235.5 819.5,-235.5"/>
<text text-anchor="middle" x="889.5" y="-242.5" font-family="Helvetica,sans-Serif" font-size="10.00">OMSimSteppingAction.hh</text>
</a>
</g>
</g>
<!-- Node1&#45;&gt;Node43 -->
<g id="edge34" class="edge">
<title>Node1&#45;&gt;Node43</title>
<path fill="none" stroke="midnightblue" d="M2266.46,-299.15C2066.41,-296.41 1475.29,-286.09 985.5,-255 980.41,-254.68 975.17,-254.3 969.89,-253.9"/>
<polygon fill="midnightblue" stroke="midnightblue" points="969.97,-250.39 959.72,-253.07 969.4,-257.37 969.97,-250.39"/>
</g>
<!-- Node46 -->
<g id="node28" class="node">
<title>Node46</title>
<g id="a_node28"><a xlink:title=" ">
<polygon fill="white" stroke="#bfbfbf" points="836,-179.5 836,-198.5 939,-198.5 939,-179.5 836,-179.5"/>
<text text-anchor="middle" x="887.5" y="-186.5" font-family="Helvetica,sans-Serif" font-size="10.00">G4ThreeVector.hh</text>
</a>
</g>
</g>
<!-- Node1&#45;&gt;Node46 -->
<g id="edge61" class="edge">
<title>Node1&#45;&gt;Node46</title>
<path fill="none" stroke="midnightblue" d="M2266.19,-299.1C2013.13,-295.63 1157.33,-282.02 1037.5,-255 990.49,-244.4 939.85,-219.26 911.07,-203.54"/>
<polygon fill="midnightblue" stroke="midnightblue" points="912.63,-200.4 902.19,-198.6 909.23,-206.52 912.63,-200.4"/>
</g>
<!-- Node48 -->
<g id="node29" class="node">
<title>Node48</title>
<g id="a_node29"><a xlink:href="_o_m_sim_analysis_manager_8hh.html" target="_top" xlink:title=" ">
<polygon fill="white" stroke="red" points="1046.5,-235.5 1046.5,-254.5 1196.5,-254.5 1196.5,-235.5 1046.5,-235.5"/>
<text text-anchor="middle" x="1121.5" y="-242.5" font-family="Helvetica,sans-Serif" font-size="10.00">OMSimAnalysisManager.hh</text>
</a>
</g>
</g>
<!-- Node1&#45;&gt;Node48 -->
<g id="edge38" class="edge">
<title>Node1&#45;&gt;Node48</title>
<path fill="none" stroke="midnightblue" d="M2266.25,-298.4C2090.11,-294.11 1615.47,-280.9 1220.5,-255 1216.02,-254.71 1211.43,-254.38 1206.79,-254.03"/>
<polygon fill="midnightblue" stroke="midnightblue" points="1206.85,-250.52 1196.6,-253.23 1206.3,-257.5 1206.85,-250.52"/>
</g>
<!-- Node49 -->
<g id="node30" class="node">
<title>Node49</title>
<g id="a_node30"><a xlink:href="_o_m_sim_p_m_t_response_8hh.html" target="_top" xlink:title=" ">
<polygon fill="white" stroke="red" points="1088,-179.5 1088,-198.5 1223,-198.5 1223,-179.5 1088,-179.5"/>
<text text-anchor="middle" x="1155.5" y="-186.5" font-family="Helvetica,sans-Serif" font-size="10.00">OMSimPMTResponse.hh</text>
</a>
</g>
</g>
<!-- Node1&#45;&gt;Node49 -->
<g id="edge47" class="edge">
<title>Node1&#45;&gt;Node49</title>
<path fill="none" stroke="midnightblue" d="M2266.25,-298.7C2046.27,-294.37 1379.76,-279.39 1285.5,-255 1244.56,-244.41 1201.51,-219.83 1176.66,-204.11"/>
<polygon fill="midnightblue" stroke="midnightblue" points="1178.37,-201.05 1168.07,-198.57 1174.57,-206.93 1178.37,-201.05"/>
</g>
<!-- Node51 -->
<g id="node31" class="node">
<title>Node51</title>
<g id="a_node31"><a xlink:title=" ">
<polygon fill="white" stroke="#bfbfbf" points="1232,-123.5 1232,-142.5 1293,-142.5 1293,-123.5 1232,-123.5"/>
<text text-anchor="middle" x="1262.5" y="-130.5" font-family="Helvetica,sans-Serif" font-size="10.00">TGraph.h</text>
</a>
</g>
</g>
<!-- Node1&#45;&gt;Node51 -->
<g id="edge77" class="edge">
<title>Node1&#45;&gt;Node51</title>
<path fill="none" stroke="midnightblue" d="M2266.42,-298.53C2068.08,-294.09 1512.05,-279.58 1433.5,-255 1367.79,-234.44 1305.75,-178.12 1277.89,-150.17"/>
<polygon fill="midnightblue" stroke="midnightblue" points="1280.16,-147.49 1270.67,-142.78 1275.16,-152.38 1280.16,-147.49"/>
</g>
<!-- Node55 -->
<g id="node32" class="node">
<title>Node55</title>
<g id="a_node32"><a xlink:title=" ">
<polygon fill="white" stroke="#bfbfbf" points="1241,-179.5 1241,-198.5 1296,-198.5 1296,-179.5 1241,-179.5"/>
<text text-anchor="middle" x="1268.5" y="-186.5" font-family="Helvetica,sans-Serif" font-size="10.00">fstream</text>
</a>
</g>
</g>
<!-- Node1&#45;&gt;Node55 -->
<g id="edge71" class="edge">
<title>Node1&#45;&gt;Node55</title>
<path fill="none" stroke="midnightblue" d="M2266.45,-298.69C2041.84,-294.25 1351.9,-278.73 1310.5,-255 1292.69,-244.79 1281.18,-223.63 1274.8,-208.21"/>
<polygon fill="midnightblue" stroke="midnightblue" points="1277.99,-206.77 1271.18,-198.66 1271.45,-209.25 1277.99,-206.77"/>
</g>
<!-- Node56 -->
<g id="node33" class="node">
<title>Node56</title>
<g id="a_node33"><a xlink:href="_o_m_sim_command_args_table_8hh.html" target="_top" xlink:title=" ">
<polygon fill="white" stroke="red" points="2312.5,-179.5 2312.5,-198.5 2476.5,-198.5 2476.5,-179.5 2312.5,-179.5"/>
<text text-anchor="middle" x="2394.5" y="-186.5" font-family="Helvetica,sans-Serif" font-size="10.00">OMSimCommandArgsTable.hh</text>
</a>
</g>
</g>
<!-- Node1&#45;&gt;Node56 -->
<g id="edge48" class="edge">
<title>Node1&#45;&gt;Node56</title>
<path fill="none" stroke="midnightblue" d="M2318.64,-291.36C2296.52,-279.45 2263.46,-256.96 2278.5,-235 2289.67,-218.68 2307.69,-208.28 2326.22,-201.65"/>
<polygon fill="midnightblue" stroke="midnightblue" points="2327.49,-204.92 2335.93,-198.52 2325.34,-198.26 2327.49,-204.92"/>
</g>
<!-- Node60 -->
<g id="node34" class="node">
<title>Node60</title>
<g id="a_node34"><a xlink:href="_o_m_sim_u_iinterface_8hh.html" target="_top" xlink:title="The OMSimUIinterface class provides a singleton interface to Geant4&#39;s UI manager.">
<polygon fill="white" stroke="red" points="2321,-235.5 2321,-254.5 2442,-254.5 2442,-235.5 2321,-235.5"/>
<text text-anchor="middle" x="2381.5" y="-242.5" font-family="Helvetica,sans-Serif" font-size="10.00">OMSimUIinterface.hh</text>
</a>
</g>
</g>
<!-- Node1&#45;&gt;Node60 -->
<g id="edge51" class="edge">
<title>Node1&#45;&gt;Node60</title>
<path fill="none" stroke="midnightblue" d="M2343.93,-291.08C2350.35,-283.38 2359.81,-272.03 2367.62,-262.65"/>
<polygon fill="midnightblue" stroke="midnightblue" points="2370.49,-264.67 2374.21,-254.75 2365.12,-260.19 2370.49,-264.67"/>
</g>
<!-- Node21 -->
<g id="node35" class="node">
<title>Node21</title>
<g id="a_node35"><a xlink:title=" ">
<polygon fill="white" stroke="#bfbfbf" points="2570.5,-179.5 2570.5,-198.5 2626.5,-198.5 2626.5,-179.5 2570.5,-179.5"/>
<text text-anchor="middle" x="2598.5" y="-186.5" font-family="Helvetica,sans-Serif" font-size="10.00">sstream</text>
</a>
</g>
</g>
<!-- Node1&#45;&gt;Node21 -->
<g id="edge69" class="edge">
<title>Node1&#45;&gt;Node21</title>
<path fill="none" stroke="midnightblue" d="M2359.58,-291.45C2382.92,-282.7 2419.96,-268.49 2451.5,-255 2470.88,-246.71 2475.27,-243.63 2494.5,-235 2519.45,-223.8 2547.96,-211.5 2568.81,-202.59"/>
<polygon fill="midnightblue" stroke="midnightblue" points="2570.28,-205.77 2578.1,-198.63 2567.53,-199.34 2570.28,-205.77"/>
</g>
<!-- Node61 -->
<g id="node36" class="node">
<title>Node61</title>
<g id="a_node36"><a xlink:title=" ">
<polygon fill="white" stroke="#bfbfbf" points="2644.5,-179.5 2644.5,-198.5 2742.5,-198.5 2742.5,-179.5 2644.5,-179.5"/>
<text text-anchor="middle" x="2693.5" y="-186.5" font-family="Helvetica,sans-Serif" font-size="10.00">G4UImanager.hh</text>
</a>
</g>
</g>
<!-- Node1&#45;&gt;Node61 -->
<g id="edge59" class="edge">
<title>Node1&#45;&gt;Node61</title>
<path fill="none" stroke="midnightblue" d="M2370.69,-291.44C2401.44,-283.35 2447.63,-270.19 2486.5,-255 2505.38,-247.62 2508.52,-242.13 2527.5,-235 2565.75,-220.63 2610.54,-208.77 2643.95,-200.83"/>
<polygon fill="midnightblue" stroke="midnightblue" points="2644.99,-204.18 2653.93,-198.5 2643.4,-197.37 2644.99,-204.18"/>
</g>
<!-- Node65 -->
<g id="node37" class="node">
<title>Node65</title>
<g id="a_node37"><a xlink:href="_o_m_sim_simple_g_p_s_beams_8hh.html" target="_top" xlink:title=" ">
<polygon fill="white" stroke="black" points="1958.5,-179.5 1958.5,-198.5 2112.5,-198.5 2112.5,-179.5 1958.5,-179.5"/>
<text text-anchor="middle" x="2035.5" y="-186.5" font-family="Helvetica,sans-Serif" font-size="10.00">OMSimSimpleGPSBeams.hh</text>
</a>
</g>
</g>
<!-- Node1&#45;&gt;Node65 -->
<g id="edge56" class="edge">
<title>Node1&#45;&gt;Node65</title>
<path fill="none" stroke="midnightblue" d="M2266.35,-299.17C2215.18,-295.79 2145.78,-285.27 2092.5,-255 2072.4,-243.58 2055.85,-222.37 2045.86,-207.29"/>
<polygon fill="midnightblue" stroke="midnightblue" points="2048.81,-205.41 2040.51,-198.83 2042.9,-209.15 2048.81,-205.41"/>
</g>
<!-- Node66 -->
<g id="node38" class="node">
<title>Node66</title>
<g id="a_node38"><a xlink:title=" ">
<polygon fill="white" stroke="#bfbfbf" points="2692.5,-235.5 2692.5,-254.5 2798.5,-254.5 2798.5,-235.5 2692.5,-235.5"/>
<text text-anchor="middle" x="2745.5" y="-242.5" font-family="Helvetica,sans-Serif" font-size="10.00">G4RunManager.hh</text>
</a>
</g>
</g>
<!-- Node1&#45;&gt;Node66 -->
<g id="edge58" class="edge">
<title>Node1&#45;&gt;Node66</title>
<path fill="none" stroke="midnightblue" d="M2404.69,-291.47C2472.5,-282.91 2579.79,-269.18 2682.49,-255.12"/>
<polygon fill="midnightblue" stroke="midnightblue" points="2682.98,-258.59 2692.41,-253.76 2682.02,-251.65 2682.98,-258.59"/>
</g>
<!-- Node67 -->
<g id="node39" class="node">
<title>Node67</title>
<g id="a_node39"><a xlink:title=" ">
<polygon fill="white" stroke="#bfbfbf" points="2817,-235.5 2817,-254.5 2914,-254.5 2914,-235.5 2817,-235.5"/>
<text text-anchor="middle" x="2865.5" y="-242.5" font-family="Helvetica,sans-Serif" font-size="10.00">G4UIterminal.hh</text>
</a>
</g>
</g>
<!-- Node1&#45;&gt;Node67 -->
<g id="edge60" class="edge">
<title>Node1&#45;&gt;Node67</title>
<path fill="none" stroke="midnightblue" d="M2406.86,-294.57C2496.98,-287.33 2658.23,-273.41 2806.59,-255.04"/>
<polygon fill="midnightblue" stroke="midnightblue" points="2807.3,-258.48 2816.79,-253.77 2806.44,-251.53 2807.3,-258.48"/>
</g>
<!-- Node28 -->
<g id="node40" class="node">
<title>Node28</title>
<g id="a_node40"><a xlink:title=" ">
<polygon fill="white" stroke="#bfbfbf" points="2932.5,-235.5 2932.5,-254.5 3024.5,-254.5 3024.5,-235.5 2932.5,-235.5"/>
<text text-anchor="middle" x="2978.5" y="-242.5" font-family="Helvetica,sans-Serif" font-size="10.00">G4Navigator.hh</text>
</a>
</g>
</g>
<!-- Node1&#45;&gt;Node28 -->
<g id="edge62" class="edge">
<title>Node1&#45;&gt;Node28</title>
<path fill="none" stroke="midnightblue" d="M2406.72,-296.57C2515.14,-290.83 2730.03,-277.76 2922.32,-255.04"/>
<polygon fill="midnightblue" stroke="midnightblue" points="2922.81,-258.51 2932.33,-253.85 2921.98,-251.56 2922.81,-258.51"/>
</g>
<!-- Node68 -->
<g id="node41" class="node">
<title>Node68</title>
<g id="a_node41"><a xlink:title=" ">
<polygon fill="white" stroke="#bfbfbf" points="3042.5,-235.5 3042.5,-254.5 3118.5,-254.5 3118.5,-235.5 3042.5,-235.5"/>
<text text-anchor="middle" x="3080.5" y="-242.5" font-family="Helvetica,sans-Serif" font-size="10.00">G4UItcsh.hh</text>
</a>
</g>
</g>
<!-- Node1&#45;&gt;Node68 -->
<g id="edge63" class="edge">
<title>Node1&#45;&gt;Node68</title>
<path fill="none" stroke="midnightblue" d="M2406.52,-298.37C2530.66,-294.84 2797.56,-284.41 3032.25,-255"/>
<polygon fill="midnightblue" stroke="midnightblue" points="3032.86,-258.45 3042.34,-253.72 3031.98,-251.5 3032.86,-258.45"/>
</g>
<!-- Node69 -->
<g id="node42" class="node">
<title>Node69</title>
<g id="a_node42"><a xlink:title=" ">
<polygon fill="white" stroke="#bfbfbf" points="3137,-235.5 3137,-254.5 3244,-254.5 3244,-235.5 3137,-235.5"/>
<text text-anchor="middle" x="3190.5" y="-242.5" font-family="Helvetica,sans-Serif" font-size="10.00">G4VisExecutive.hh</text>
</a>
</g>
</g>
<!-- Node1&#45;&gt;Node69 -->
<g id="edge64" class="edge">
<title>Node1&#45;&gt;Node69</title>
<path fill="none" stroke="midnightblue" d="M2406.76,-298.01C2543.35,-293.7 2854.43,-281.75 3126.84,-254.97"/>
<polygon fill="midnightblue" stroke="midnightblue" points="3127.32,-258.44 3136.92,-253.97 3126.62,-251.47 3127.32,-258.44"/>
</g>
<!-- Node70 -->
<g id="node43" class="node">
<title>Node70</title>
<g id="a_node43"><a xlink:title=" ">
<polygon fill="white" stroke="#bfbfbf" points="3262,-235.5 3262,-254.5 3365,-254.5 3365,-235.5 3262,-235.5"/>
<text text-anchor="middle" x="3313.5" y="-242.5" font-family="Helvetica,sans-Serif" font-size="10.00">G4UIExecutive.hh</text>
</a>
</g>
</g>
<!-- Node1&#45;&gt;Node70 -->
<g id="edge65" class="edge">
<title>Node1&#45;&gt;Node70</title>
<path fill="none" stroke="midnightblue" d="M2406.56,-298.95C2558.68,-296.14 2930.72,-286.48 3251.87,-255.07"/>
<polygon fill="midnightblue" stroke="midnightblue" points="3252.22,-258.55 3261.83,-254.09 3251.53,-251.58 3252.22,-258.55"/>
</g>
<!-- Node71 -->
<g id="node44" class="node">
<title>Node71</title>
<g id="a_node44"><a xlink:href="argtable2_8h.html" target="_top" xlink:title=" ">
<polygon fill="white" stroke="red" points="3383.5,-235.5 3383.5,-254.5 3455.5,-254.5 3455.5,-235.5 3383.5,-235.5"/>
<text text-anchor="middle" x="3419.5" y="-242.5" font-family="Helvetica,sans-Serif" font-size="10.00">argtable2.h</text>
</a>
</g>
</g>
<!-- Node1&#45;&gt;Node71 -->
<g id="edge66" class="edge">
<title>Node1&#45;&gt;Node71</title>
<path fill="none" stroke="midnightblue" d="M2406.66,-300.67C2573.02,-301.47 3004.44,-298.85 3373.16,-254.96"/>
<polygon fill="midnightblue" stroke="midnightblue" points="3373.72,-258.42 3383.23,-253.75 3372.88,-251.47 3373.72,-258.42"/>
</g>
<!-- Node73 -->
<g id="node45" class="node">
<title>Node73</title>
<g id="a_node45"><a xlink:title=" ">
<polygon fill="white" stroke="#bfbfbf" points="3473.5,-235.5 3473.5,-254.5 3517.5,-254.5 3517.5,-235.5 3473.5,-235.5"/>
<text text-anchor="middle" x="3495.5" y="-242.5" font-family="Helvetica,sans-Serif" font-size="10.00">ctime</text>
</a>
</g>
</g>
<!-- Node1&#45;&gt;Node73 -->
<g id="edge67" class="edge">
<title>Node1&#45;&gt;Node73</title>
<path fill="none" stroke="midnightblue" d="M2406.84,-299.42C2617.21,-297.36 3240.2,-288.62 3463.3,-254.73"/>
<polygon fill="midnightblue" stroke="midnightblue" points="3463.97,-258.16 3473.3,-253.15 3462.87,-251.25 3463.97,-258.16"/>
</g>
<!-- Node74 -->
<g id="node46" class="node">
<title>Node74</title>
<g id="a_node46"><a xlink:title=" ">
<polygon fill="white" stroke="#bfbfbf" points="3535.5,-235.5 3535.5,-254.5 3603.5,-254.5 3603.5,-235.5 3535.5,-235.5"/>
<text text-anchor="middle" x="3569.5" y="-242.5" font-family="Helvetica,sans-Serif" font-size="10.00">sys/time.h</text>
</a>
</g>
</g>
<!-- Node1&#45;&gt;Node74 -->
<g id="edge68" class="edge">
<title>Node1&#45;&gt;Node74</title>
<path fill="none" stroke="midnightblue" d="M2406.67,-298.9C2624.55,-295.24 3288.53,-282.22 3525.38,-254.88"/>
<polygon fill="midnightblue" stroke="midnightblue" points="3525.8,-258.36 3535.32,-253.7 3524.97,-251.41 3525.8,-258.36"/>
</g>
<!-- Node75 -->
<g id="node47" class="node">
<title>Node75</title>
<g id="a_node47"><a xlink:title=" ">
<polygon fill="white" stroke="#bfbfbf" points="3621.5,-235.5 3621.5,-254.5 3681.5,-254.5 3681.5,-235.5 3621.5,-235.5"/>
<text text-anchor="middle" x="3651.5" y="-242.5" font-family="Helvetica,sans-Serif" font-size="10.00">iostream</text>
</a>
</g>
</g>
<!-- Node1&#45;&gt;Node75 -->
<g id="edge70" class="edge">
<title>Node1&#45;&gt;Node75</title>
<path fill="none" stroke="midnightblue" d="M2406.83,-299.29C2635.48,-296.72 3357.16,-286.37 3611.43,-254.83"/>
<polygon fill="midnightblue" stroke="midnightblue" points="3611.9,-258.3 3621.37,-253.55 3611.01,-251.36 3611.9,-258.3"/>
</g>
<!-- Node76 -->
<g id="node48" class="node">
<title>Node76</title>
<g id="a_node48"><a xlink:title=" ">
<polygon fill="white" stroke="#bfbfbf" points="3700,-235.5 3700,-254.5 3747,-254.5 3747,-235.5 3700,-235.5"/>
<text text-anchor="middle" x="3723.5" y="-242.5" font-family="Helvetica,sans-Serif" font-size="10.00">cmath</text>
</a>
</g>
</g>
<!-- Node1&#45;&gt;Node76 -->
<g id="edge73" class="edge">
<title>Node1&#45;&gt;Node76</title>
<path fill="none" stroke="midnightblue" d="M2406.53,-299.82C2644.11,-298.9 3419.16,-293.07 3689.67,-254.66"/>
<polygon fill="midnightblue" stroke="midnightblue" points="3690.46,-258.08 3699.85,-253.16 3689.45,-251.15 3690.46,-258.08"/>
</g>
<!-- Node77 -->
<g id="node49" class="node">
<title>Node77</title>
<g id="a_node49"><a xlink:title=" ">
<polygon fill="white" stroke="#bfbfbf" points="3764.5,-235.5 3764.5,-254.5 3914.5,-254.5 3914.5,-235.5 3764.5,-235.5"/>
<text text-anchor="middle" x="3839.5" y="-242.5" font-family="Helvetica,sans-Serif" font-size="10.00">boost/program_options.hpp</text>
</a>
</g>
</g>
<!-- Node1&#45;&gt;Node77 -->
<g id="edge78" class="edge">
<title>Node1&#45;&gt;Node77</title>
<path fill="none" stroke="midnightblue" d="M2406.78,-299.67C2612.47,-298.3 3231.26,-291.28 3754.41,-255.1"/>
<polygon fill="midnightblue" stroke="midnightblue" points="3754.69,-258.59 3764.42,-254.4 3754.2,-251.6 3754.69,-258.59"/>
</g>
<!-- Node78 -->
<g id="node50" class="node">
<title>Node78</title>
<g id="a_node50"><a xlink:title=" ">
<polygon fill="white" stroke="#bfbfbf" points="3932.5,-235.5 3932.5,-254.5 4000.5,-254.5 4000.5,-235.5 3932.5,-235.5"/>
<text text-anchor="middle" x="3966.5" y="-242.5" font-family="Helvetica,sans-Serif" font-size="10.00">filesystem</text>
</a>
</g>
</g>
<!-- Node1&#45;&gt;Node78 -->
<g id="edge79" class="edge">
<title>Node1&#45;&gt;Node78</title>
<path fill="none" stroke="midnightblue" d="M2406.67,-299.67C2670.42,-298.18 3603.08,-290.54 3922.15,-254.9"/>
<polygon fill="midnightblue" stroke="midnightblue" points="3922.79,-258.35 3932.32,-253.73 3921.99,-251.39 3922.79,-258.35"/>
</g>
<!-- Node3 -->
<g id="node3" class="node">
<title>Node3</title>
<g id="a_node3"><a xlink:title=" ">
<polygon fill="white" stroke="#bfbfbf" points="529.5,-67.5 529.5,-86.5 645.5,-86.5 645.5,-67.5 529.5,-67.5"/>
<text text-anchor="middle" x="587.5" y="-74.5" font-family="Helvetica,sans-Serif" font-size="10.00">G4LogicalVolume.hh</text>
</a>
</g>
</g>
<!-- Node2&#45;&gt;Node3 -->
<g id="edge2" class="edge">
<title>Node2&#45;&gt;Node3</title>
<path fill="none" stroke="midnightblue" d="M523.58,-241.7C594.81,-237.76 688.55,-227.2 712.5,-199 748.9,-156.14 666.25,-111.62 618.45,-90.53"/>
<polygon fill="midnightblue" stroke="midnightblue" points="619.69,-87.25 609.12,-86.51 616.92,-93.68 619.69,-87.25"/>
</g>
<!-- Node4 -->
<g id="node4" class="node">
<title>Node4</title>
<g id="a_node4"><a xlink:title=" ">
<polygon fill="white" stroke="#bfbfbf" points="141.5,-179.5 141.5,-198.5 203.5,-198.5 203.5,-179.5 141.5,-179.5"/>
<text text-anchor="middle" x="172.5" y="-186.5" font-family="Helvetica,sans-Serif" font-size="10.00">G4Orb.hh</text>
</a>
</g>
</g>
<!-- Node2&#45;&gt;Node4 -->
<g id="edge3" class="edge">
<title>Node2&#45;&gt;Node4</title>
<path fill="none" stroke="midnightblue" d="M393.84,-235.45C350.34,-227.04 282.09,-213.65 213.97,-199.28"/>
<polygon fill="midnightblue" stroke="midnightblue" points="214.43,-195.8 203.93,-197.15 212.98,-202.64 214.43,-195.8"/>
</g>
<!-- Node5 -->
<g id="node5" class="node">
<title>Node5</title>
<g id="a_node5"><a xlink:title=" ">
<polygon fill="white" stroke="#bfbfbf" points="222,-179.5 222,-198.5 351,-198.5 351,-179.5 222,-179.5"/>
<text text-anchor="middle" x="286.5" y="-186.5" font-family="Helvetica,sans-Serif" font-size="10.00">G4VPhysicalVolume.hh</text>
</a>
</g>
</g>
<!-- Node2&#45;&gt;Node5 -->
<g id="edge4" class="edge">
<title>Node2&#45;&gt;Node5</title>
<path fill="none" stroke="midnightblue" d="M414.42,-235.44C388.96,-226.4 348.61,-212.06 320.04,-201.92"/>
<polygon fill="midnightblue" stroke="midnightblue" points="321.07,-198.57 310.47,-198.52 318.72,-205.16 321.07,-198.57"/>
</g>
<!-- Node6 -->
<g id="node6" class="node">
<title>Node6</title>
<g id="a_node6"><a xlink:title=" ">
<polygon fill="white" stroke="#bfbfbf" points="407.5,-179.5 407.5,-198.5 585.5,-198.5 585.5,-179.5 407.5,-179.5"/>
<text text-anchor="middle" x="496.5" y="-186.5" font-family="Helvetica,sans-Serif" font-size="10.00">G4VUserDetectorConstruction.hh</text>
</a>
</g>
</g>
<!-- Node2&#45;&gt;Node6 -->
<g id="edge5" class="edge">
<title>Node2&#45;&gt;Node6</title>
<path fill="none" stroke="midnightblue" d="M447.82,-235.32C456.39,-227.34 469.31,-215.31 479.69,-205.65"/>
<polygon fill="midnightblue" stroke="midnightblue" points="482.08,-208.21 487.01,-198.83 477.31,-203.09 482.08,-208.21"/>
</g>
<!-- Node7 -->
<g id="node7" class="node">
<title>Node7</title>
<g id="a_node7"><a xlink:href="_o_m_sim_input_data_8hh.html" target="_top" xlink:title=" ">
<polygon fill="white" stroke="red" points="157,-67.5 157,-86.5 272,-86.5 272,-67.5 157,-67.5"/>
<text text-anchor="middle" x="214.5" y="-74.5" font-family="Helvetica,sans-Serif" font-size="10.00">OMSimInputData.hh</text>
</a>
</g>
</g>
<!-- Node2&#45;&gt;Node7 -->
<g id="edge6" class="edge">
<title>Node2&#45;&gt;Node7</title>
<path fill="none" stroke="midnightblue" d="M353.15,-243.47C272.74,-240.93 160.53,-231.46 132.5,-199 101.74,-163.39 158.56,-115.88 192.23,-92.4"/>
<polygon fill="midnightblue" stroke="midnightblue" points="194.31,-95.21 200.62,-86.7 190.38,-89.42 194.31,-95.21"/>
</g>
<!-- Node14 -->
<g id="node11" class="node">
<title>Node14</title>
<g id="a_node11"><a xlink:href="_o_m_sim_p_m_t_construction_8hh.html" target="_top" xlink:title=" ">
<polygon fill="white" stroke="red" points="305,-123.5 305,-142.5 454,-142.5 454,-123.5 305,-123.5"/>
<text text-anchor="middle" x="379.5" y="-130.5" font-family="Helvetica,sans-Serif" font-size="10.00">OMSimPMTConstruction.hh</text>
</a>
</g>
</g>
<!-- Node2&#45;&gt;Node14 -->
<g id="edge10" class="edge">
<title>Node2&#45;&gt;Node14</title>
<path fill="none" stroke="midnightblue" d="M428.57,-235.3C419.52,-226.86 406.4,-213.27 398.5,-199 390.49,-184.53 385.55,-166.35 382.72,-152.89"/>
<polygon fill="midnightblue" stroke="midnightblue" points="386.12,-152.06 380.82,-142.89 379.25,-153.37 386.12,-152.06"/>
</g>
<!-- Node26 -->
<g id="node12" class="node">
<title>Node26</title>
<g id="a_node12"><a xlink:href="_o_m_sim_m_d_o_m_8hh.html" target="_top" xlink:title=" ">
<polygon fill="white" stroke="red" points="603.5,-179.5 603.5,-198.5 703.5,-198.5 703.5,-179.5 603.5,-179.5"/>
<text text-anchor="middle" x="653.5" y="-186.5" font-family="Helvetica,sans-Serif" font-size="10.00">OMSimMDOM.hh</text>
</a>
</g>
</g>
<!-- Node2&#45;&gt;Node26 -->
<g id="edge16" class="edge">
<title>Node2&#45;&gt;Node26</title>
<path fill="none" stroke="midnightblue" d="M472.57,-235.44C509.68,-226.12 569.16,-211.18 609.71,-201"/>
<polygon fill="midnightblue" stroke="midnightblue" points="610.75,-204.35 619.59,-198.52 609.04,-197.56 610.75,-204.35"/>
</g>
<!-- Node7&#45;&gt;Node8 -->
<g id="edge7" class="edge">
<title>Node7&#45;&gt;Node8</title>
<path fill="none" stroke="midnightblue" d="M214.5,-67.48C214.5,-60.47 214.5,-50.19 214.5,-40.7"/>
<polygon fill="midnightblue" stroke="midnightblue" points="218,-40.52 214.5,-30.52 211,-40.52 218,-40.52"/>
</g>
<!-- Node7&#45;&gt;Node9 -->
<g id="edge8" class="edge">
<title>Node7&#45;&gt;Node9</title>
<path fill="none" stroke="midnightblue" d="M191.86,-67.48C168.86,-58.81 132.57,-45.15 103.35,-34.14"/>
<polygon fill="midnightblue" stroke="midnightblue" points="104.33,-30.77 93.74,-30.52 101.86,-37.32 104.33,-30.77"/>
</g>
<!-- Node7&#45;&gt;Node13 -->
<g id="edge9" class="edge">
<title>Node7&#45;&gt;Node13</title>
<path fill="none" stroke="midnightblue" d="M272.17,-68.52C356.44,-57.6 513.05,-37.3 603.71,-25.55"/>
<polygon fill="midnightblue" stroke="midnightblue" points="604.42,-28.98 613.89,-24.23 603.52,-22.04 604.42,-28.98"/>
</g>
<!-- Node14&#45;&gt;Node3 -->
<g id="edge13" class="edge">
<title>Node14&#45;&gt;Node3</title>
<path fill="none" stroke="midnightblue" d="M412.46,-123.44C448.29,-114.14 505.66,-99.25 544.89,-89.06"/>
<polygon fill="midnightblue" stroke="midnightblue" points="545.9,-92.42 554.7,-86.52 544.14,-85.64 545.9,-92.42"/>
</g>
<!-- Node14&#45;&gt;Node7 -->
<g id="edge15" class="edge">
<title>Node14&#45;&gt;Node7</title>
<path fill="none" stroke="midnightblue" d="M353.36,-123.44C325.48,-114.32 281.15,-99.81 250.1,-89.65"/>
<polygon fill="midnightblue" stroke="midnightblue" points="251.12,-86.3 240.52,-86.52 248.94,-92.95 251.12,-86.3"/>
</g>
<!-- Node14&#45;&gt;Node8 -->
<g id="edge11" class="edge">
<title>Node14&#45;&gt;Node8</title>
<path fill="none" stroke="midnightblue" d="M367.1,-123.32C340.87,-104.96 279.21,-61.8 242.8,-36.31"/>
<polygon fill="midnightblue" stroke="midnightblue" points="244.76,-33.41 234.56,-30.55 240.75,-39.15 244.76,-33.41"/>
</g>
<!-- Node14&#45;&gt;Node9 -->
<g id="edge12" class="edge">
<title>Node14&#45;&gt;Node9</title>
<path fill="none" stroke="midnightblue" d="M304.98,-126.44C258.11,-120.83 197.3,-109.56 147.5,-87 120.82,-74.91 94.86,-53.56 77.55,-37.51"/>
<polygon fill="midnightblue" stroke="midnightblue" points="79.89,-34.91 70.23,-30.56 75.07,-39.99 79.89,-34.91"/>
</g>
<!-- Node14&#45;&gt;Node13 -->
<g id="edge14" class="edge">
<title>Node14&#45;&gt;Node13</title>
<path fill="none" stroke="midnightblue" d="M396.59,-123.35C422.85,-110.25 474.86,-84.99 520.5,-67 558.78,-51.92 603.58,-37.5 634.77,-27.95"/>
<polygon fill="midnightblue" stroke="midnightblue" points="635.84,-31.29 644.39,-25.03 633.8,-24.59 635.84,-31.29"/>
</g>
<!-- Node26&#45;&gt;Node3 -->
<g id="edge18" class="edge">
<title>Node26&#45;&gt;Node3</title>
<path fill="none" stroke="midnightblue" d="M648.32,-179.37C637.48,-161.3 612.21,-119.18 597.88,-95.31"/>
<polygon fill="midnightblue" stroke="midnightblue" points="600.8,-93.37 592.65,-86.59 594.8,-96.97 600.8,-93.37"/>
</g>
<!-- Node26&#45;&gt;Node13 -->
<g id="edge19" class="edge">
<title>Node26&#45;&gt;Node13</title>
<path fill="none" stroke="midnightblue" d="M654.52,-179.26C657.62,-152.65 667,-72.21 671.3,-35.34"/>
<polygon fill="midnightblue" stroke="midnightblue" points="674.82,-35.36 672.51,-25.02 667.87,-34.55 674.82,-35.36"/>
</g>
<!-- Node26&#45;&gt;Node14 -->
<g id="edge17" class="edge">
<title>Node26&#45;&gt;Node14</title>
<path fill="none" stroke="midnightblue" d="M610.08,-179.44C561.98,-169.96 484.41,-154.67 432.69,-144.48"/>
<polygon fill="midnightblue" stroke="midnightblue" points="433.2,-141.02 422.71,-142.52 431.85,-147.88 433.2,-141.02"/>
</g>
<!-- Node32 -->
<g id="node14" class="node">
<title>Node32</title>
<g id="a_node14"><a xlink:title=" ">
<polygon fill="white" stroke="#bfbfbf" points="1352.5,-179.5 1352.5,-198.5 1480.5,-198.5 1480.5,-179.5 1352.5,-179.5"/>
<text text-anchor="middle" x="1416.5" y="-186.5" font-family="Helvetica,sans-Serif" font-size="10.00">G4VUserPhysicsList.hh</text>
</a>
</g>
</g>
<!-- Node31&#45;&gt;Node32 -->
<g id="edge21" class="edge">
<title>Node31&#45;&gt;Node32</title>
<path fill="none" stroke="midnightblue" d="M1489.52,-235.32C1475.95,-226.9 1455.12,-213.97 1439.18,-204.07"/>
<polygon fill="midnightblue" stroke="midnightblue" points="1440.79,-200.95 1430.44,-198.65 1437.09,-206.9 1440.79,-200.95"/>
</g>
<!-- Node33 -->
<g id="node15" class="node">
<title>Node33</title>
<g id="a_node15"><a xlink:title=" ">
<polygon fill="white" stroke="#bfbfbf" points="1761,-123.5 1761,-142.5 1828,-142.5 1828,-123.5 1761,-123.5"/>
<text text-anchor="middle" x="1794.5" y="-130.5" font-family="Helvetica,sans-Serif" font-size="10.00">globals.hh</text>
</a>
</g>
</g>
<!-- Node31&#45;&gt;Node33 -->
<g id="edge22" class="edge">
<title>Node31&#45;&gt;Node33</title>
<path fill="none" stroke="midnightblue" d="M1508,-235.18C1515.79,-220.89 1533.23,-192.85 1556.5,-179 1617.06,-142.96 1700.32,-134.82 1750.61,-133.5"/>
<polygon fill="midnightblue" stroke="midnightblue" points="1750.89,-136.99 1760.82,-133.31 1750.76,-130 1750.89,-136.99"/>
</g>
<!-- Node34&#45;&gt;Node33 -->
<g id="edge25" class="edge">
<title>Node34&#45;&gt;Node33</title>
<path fill="none" stroke="midnightblue" d="M1632.76,-235.48C1593.11,-225.5 1542.68,-206.74 1565.5,-179 1588.45,-151.11 1690.51,-140.24 1750.35,-136.21"/>
<polygon fill="midnightblue" stroke="midnightblue" points="1750.89,-139.68 1760.65,-135.56 1750.45,-132.7 1750.89,-139.68"/>
</g>
<!-- Node35 -->
<g id="node17" class="node">
<title>Node35</title>
<g id="a_node17"><a xlink:title=" ">
<polygon fill="white" stroke="#bfbfbf" points="1574.5,-179.5 1574.5,-198.5 1766.5,-198.5 1766.5,-179.5 1574.5,-179.5"/>
<text text-anchor="middle" x="1670.5" y="-186.5" font-family="Helvetica,sans-Serif" font-size="10.00">G4VUserPrimaryGeneratorAction.hh</text>
</a>
</g>
</g>
<!-- Node34&#45;&gt;Node35 -->
<g id="edge24" class="edge">
<title>Node34&#45;&gt;Node35</title>
<path fill="none" stroke="midnightblue" d="M1673.84,-235.08C1673.32,-228.01 1672.56,-217.86 1671.91,-208.99"/>
<polygon fill="midnightblue" stroke="midnightblue" points="1675.38,-208.47 1671.15,-198.75 1668.4,-208.98 1675.38,-208.47"/>
</g>
<!-- Node36&#45;&gt;Node33 -->
<g id="edge28" class="edge">
<title>Node36&#45;&gt;Node33</title>
<path fill="none" stroke="midnightblue" d="M1861.42,-235.43C1846.16,-227.93 1825.76,-215.64 1813.5,-199 1803.58,-185.54 1798.82,-166.98 1796.54,-153.14"/>
<polygon fill="midnightblue" stroke="midnightblue" points="1799.96,-152.28 1795.16,-142.84 1793.02,-153.21 1799.96,-152.28"/>
</g>
<!-- Node37 -->
<g id="node19" class="node">
<title>Node37</title>
<g id="a_node19"><a xlink:title=" ">
<polygon fill="white" stroke="#bfbfbf" points="1823,-179.5 1823,-198.5 1940,-198.5 1940,-179.5 1823,-179.5"/>
<text text-anchor="middle" x="1881.5" y="-186.5" font-family="Helvetica,sans-Serif" font-size="10.00">G4UserRunAction.hh</text>
</a>
</g>
</g>
<!-- Node36&#45;&gt;Node37 -->
<g id="edge27" class="edge">
<title>Node36&#45;&gt;Node37</title>
<path fill="none" stroke="midnightblue" d="M1881.5,-235.08C1881.5,-228.01 1881.5,-217.86 1881.5,-208.99"/>
<polygon fill="midnightblue" stroke="midnightblue" points="1885,-208.75 1881.5,-198.75 1878,-208.75 1885,-208.75"/>
</g>
<!-- Node39 -->
<g id="node21" class="node">
<title>Node39</title>
<g id="a_node21"><a xlink:title=" ">
<polygon fill="white" stroke="#bfbfbf" points="2130.5,-179.5 2130.5,-198.5 2256.5,-198.5 2256.5,-179.5 2130.5,-179.5"/>
<text text-anchor="middle" x="2193.5" y="-186.5" font-family="Helvetica,sans-Serif" font-size="10.00">G4UserEventAction.hh</text>
</a>
</g>
</g>
<!-- Node38&#45;&gt;Node39 -->
<g id="edge30" class="edge">
<title>Node38&#45;&gt;Node39</title>
<path fill="none" stroke="midnightblue" d="M2168.45,-235.08C2172.6,-227.61 2178.65,-216.72 2183.77,-207.52"/>
<polygon fill="midnightblue" stroke="midnightblue" points="2186.84,-209.19 2188.64,-198.75 2180.72,-205.79 2186.84,-209.19"/>
</g>
<!-- Node38&#45;&gt;Node40 -->
<g id="edge31" class="edge">
<title>Node38&#45;&gt;Node40</title>
<path fill="none" stroke="midnightblue" d="M2184.01,-235.44C2204.74,-226.68 2237.61,-212.47 2265.5,-199 2282.69,-190.7 2285.86,-186.29 2303.5,-179 2341.66,-163.24 2387.39,-150.01 2417.37,-142.06"/>
<polygon fill="midnightblue" stroke="midnightblue" points="2418.5,-145.38 2427.29,-139.47 2416.73,-138.61 2418.5,-145.38"/>
</g>
<!-- Node42 -->
<g id="node24" class="node">
<title>Node42</title>
<g id="a_node24"><a xlink:title=" ">
<polygon fill="white" stroke="#bfbfbf" points="2761,-179.5 2761,-198.5 2900,-198.5 2900,-179.5 2761,-179.5"/>
<text text-anchor="middle" x="2830.5" y="-186.5" font-family="Helvetica,sans-Serif" font-size="10.00">G4UserTrackingAction.hh</text>
</a>
</g>
</g>
<!-- Node41&#45;&gt;Node42 -->
<g id="edge33" class="edge">
<title>Node41&#45;&gt;Node42</title>
<path fill="none" stroke="midnightblue" d="M2641.15,-235.44C2680.16,-226.08 2742.77,-211.06 2785.22,-200.87"/>
<polygon fill="midnightblue" stroke="midnightblue" points="2786.11,-204.25 2795.01,-198.52 2784.47,-197.45 2786.11,-204.25"/>
</g>
<!-- Node44 -->
<g id="node26" class="node">
<title>Node44</title>
<g id="a_node26"><a xlink:title=" ">
<polygon fill="white" stroke="#bfbfbf" points="1023,-123.5 1023,-142.5 1096,-142.5 1096,-123.5 1023,-123.5"/>
<text text-anchor="middle" x="1059.5" y="-130.5" font-family="Helvetica,sans-Serif" font-size="10.00">G4Types.hh</text>
</a>
</g>
</g>
<!-- Node43&#45;&gt;Node44 -->
<g id="edge35" class="edge">
<title>Node43&#45;&gt;Node44</title>
<path fill="none" stroke="midnightblue" d="M870.15,-235.38C845.69,-223.31 808.79,-200.45 826.5,-179 849.62,-150.99 951.4,-140.22 1012.53,-136.22"/>
<polygon fill="midnightblue" stroke="midnightblue" points="1012.95,-139.71 1022.71,-135.6 1012.52,-132.72 1012.95,-139.71"/>
</g>
<!-- Node45 -->
<g id="node27" class="node">
<title>Node45</title>
<g id="a_node27"><a xlink:title=" ">
<polygon fill="white" stroke="#bfbfbf" points="957.5,-179.5 957.5,-198.5 1031.5,-198.5 1031.5,-179.5 957.5,-179.5"/>
<text text-anchor="middle" x="994.5" y="-186.5" font-family="Helvetica,sans-Serif" font-size="10.00">G4String.hh</text>
</a>
</g>
</g>
<!-- Node43&#45;&gt;Node45 -->
<g id="edge36" class="edge">
<title>Node43&#45;&gt;Node45</title>
<path fill="none" stroke="midnightblue" d="M906.37,-235.32C923.21,-226.66 949.31,-213.24 968.74,-203.25"/>
<polygon fill="midnightblue" stroke="midnightblue" points="970.38,-206.34 977.67,-198.65 967.18,-200.12 970.38,-206.34"/>
</g>
<!-- Node43&#45;&gt;Node46 -->
<g id="edge37" class="edge">
<title>Node43&#45;&gt;Node46</title>
<path fill="none" stroke="midnightblue" d="M889.17,-235.08C888.91,-228.01 888.53,-217.86 888.2,-208.99"/>
<polygon fill="midnightblue" stroke="midnightblue" points="891.69,-208.61 887.82,-198.75 884.7,-208.87 891.69,-208.61"/>
</g>
<!-- Node48&#45;&gt;Node44 -->
<g id="edge39" class="edge">
<title>Node48&#45;&gt;Node44</title>
<path fill="none" stroke="midnightblue" d="M1110.8,-235.45C1101.05,-227.12 1086.93,-213.6 1078.5,-199 1070.14,-184.52 1065.21,-166.07 1062.47,-152.53"/>
<polygon fill="midnightblue" stroke="midnightblue" points="1065.88,-151.73 1060.66,-142.51 1058.99,-152.97 1065.88,-151.73"/>
</g>
<!-- Node48&#45;&gt;Node45 -->
<g id="edge40" class="edge">
<title>Node48&#45;&gt;Node45</title>
<path fill="none" stroke="midnightblue" d="M1101.38,-235.44C1080.48,-226.56 1047.57,-212.56 1023.78,-202.45"/>
<polygon fill="midnightblue" stroke="midnightblue" points="1025.1,-199.21 1014.53,-198.52 1022.36,-205.65 1025.1,-199.21"/>
</g>
<!-- Node48&#45;&gt;Node46 -->
<g id="edge41" class="edge">
<title>Node48&#45;&gt;Node46</title>
<path fill="none" stroke="midnightblue" d="M1084.42,-235.44C1043.77,-226.06 978.47,-210.99 934.32,-200.8"/>
<polygon fill="midnightblue" stroke="midnightblue" points="934.94,-197.35 924.4,-198.52 933.36,-204.18 934.94,-197.35"/>
</g>
<!-- Node48&#45;&gt;Node49 -->
<g id="edge42" class="edge">
<title>Node48&#45;&gt;Node49</title>
<path fill="none" stroke="midnightblue" d="M1127.11,-235.08C1131.87,-227.53 1138.82,-216.49 1144.65,-207.23"/>
<polygon fill="midnightblue" stroke="midnightblue" points="1147.62,-209.08 1149.99,-198.75 1141.7,-205.35 1147.62,-209.08"/>
</g>
<!-- Node48&#45;&gt;Node55 -->
<g id="edge46" class="edge">
<title>Node48&#45;&gt;Node55</title>
<path fill="none" stroke="midnightblue" d="M1144.79,-235.44C1169.31,-226.44 1208.1,-212.19 1235.7,-202.05"/>
<polygon fill="midnightblue" stroke="midnightblue" points="1237.14,-205.25 1245.32,-198.52 1234.72,-198.68 1237.14,-205.25"/>
</g>
<!-- Node49&#45;&gt;Node13 -->
<g id="edge43" class="edge">
<title>Node49&#45;&gt;Node13</title>
<path fill="none" stroke="midnightblue" d="M1151.17,-179.33C1143.68,-165.23 1126.91,-137.48 1104.5,-123 992,-50.27 833.6,-27.21 743.47,-19.89"/>
<polygon fill="midnightblue" stroke="midnightblue" points="743.6,-16.39 733.36,-19.12 743.07,-23.37 743.6,-16.39"/>
</g>
<!-- Node49&#45;&gt;Node44 -->
<g id="edge44" class="edge">
<title>Node49&#45;&gt;Node44</title>
<path fill="none" stroke="midnightblue" d="M1140.08,-179.32C1124.96,-170.82 1101.68,-157.73 1084.03,-147.8"/>
<polygon fill="midnightblue" stroke="midnightblue" points="1085.32,-144.51 1074.89,-142.65 1081.89,-150.61 1085.32,-144.51"/>
</g>
<!-- Node49&#45;&gt;Node51 -->
<g id="edge45" class="edge">
<title>Node49&#45;&gt;Node51</title>
<path fill="none" stroke="midnightblue" d="M1172.69,-179.32C1189.85,-170.66 1216.45,-157.24 1236.25,-147.25"/>
<polygon fill="midnightblue" stroke="midnightblue" points="1238,-150.28 1245.35,-142.65 1234.85,-144.04 1238,-150.28"/>
</g>
<!-- Node56&#45;&gt;Node33 -->
<g id="edge50" class="edge">
<title>Node56&#45;&gt;Node33</title>
<path fill="none" stroke="midnightblue" d="M2312.33,-180.6C2183.38,-169 1937.93,-146.91 1838.23,-137.94"/>
<polygon fill="midnightblue" stroke="midnightblue" points="1838.48,-134.44 1828.21,-137.03 1837.85,-141.42 1838.48,-134.44"/>
</g>
<!-- Node56&#45;&gt;Node40 -->
<g id="edge49" class="edge">
<title>Node56&#45;&gt;Node40</title>
<path fill="none" stroke="midnightblue" d="M2403.58,-179.08C2411.67,-171.14 2423.7,-159.34 2433.41,-149.8"/>
<polygon fill="midnightblue" stroke="midnightblue" points="2435.9,-152.25 2440.59,-142.75 2431,-147.26 2435.9,-152.25"/>
</g>
<!-- Node60&#45;&gt;Node40 -->
<g id="edge53" class="edge">
<title>Node60&#45;&gt;Node40</title>
<path fill="none" stroke="midnightblue" d="M2425.08,-235.46C2460.83,-227.47 2507.3,-214.46 2518.5,-199 2533.39,-178.43 2505.27,-159.05 2480.57,-146.89"/>
<polygon fill="midnightblue" stroke="midnightblue" points="2481.91,-143.65 2471.37,-142.6 2478.95,-150 2481.91,-143.65"/>
</g>
<!-- Node60&#45;&gt;Node56 -->
<g id="edge55" class="edge">
<title>Node60&#45;&gt;Node56</title>
<path fill="none" stroke="midnightblue" d="M2383.65,-235.08C2385.37,-227.93 2387.85,-217.64 2390,-208.69"/>
<polygon fill="midnightblue" stroke="midnightblue" points="2393.46,-209.29 2392.39,-198.75 2386.65,-207.65 2393.46,-209.29"/>
</g>
<!-- Node60&#45;&gt;Node21 -->
<g id="edge52" class="edge">
<title>Node60&#45;&gt;Node21</title>
<path fill="none" stroke="midnightblue" d="M2415.88,-235.44C2455.33,-225.63 2519.8,-209.59 2560.64,-199.42"/>
<polygon fill="midnightblue" stroke="midnightblue" points="2561.63,-202.78 2570.49,-196.97 2559.94,-195.99 2561.63,-202.78"/>
</g>
<!-- Node60&#45;&gt;Node61 -->
<g id="edge54" class="edge">
<title>Node60&#45;&gt;Node61</title>
<path fill="none" stroke="midnightblue" d="M2430.94,-235.44C2486.16,-225.89 2575.52,-210.42 2634.39,-200.23"/>
<polygon fill="midnightblue" stroke="midnightblue" points="2635.04,-203.67 2644.29,-198.52 2633.84,-196.77 2635.04,-203.67"/>
</g>
<!-- Node65&#45;&gt;Node33 -->
<g id="edge57" class="edge">
<title>Node65&#45;&gt;Node33</title>
<path fill="none" stroke="midnightblue" d="M1997.31,-179.44C1954,-169.74 1883.51,-153.95 1838.09,-143.77"/>
<polygon fill="midnightblue" stroke="midnightblue" points="1838.75,-140.33 1828.23,-141.56 1837.22,-147.16 1838.75,-140.33"/>
</g>
</g>
</svg>
