<?xml version="1.0" encoding="UTF-8" standalone="no"?>
<!DOCTYPE svg PUBLIC "-//W3C//DTD SVG 1.1//EN"
 "http://www.w3.org/Graphics/SVG/1.1/DTD/svg11.dtd">
<!-- Generated by graphviz version 2.43.0 (0)
 -->
<!-- Title: OMSim.cc Pages: 1 -->
<svg width="2021pt" height="420pt"
 viewBox="0.00 0.00 2020.50 420.00" xmlns="http://www.w3.org/2000/svg" xmlns:xlink="http://www.w3.org/1999/xlink">
<g id="graph0" class="graph" transform="scale(1 1) rotate(0) translate(4 416)">
<title>OMSim.cc</title>
<polygon fill="white" stroke="transparent" points="-4,4 -4,-416 2016.5,-416 2016.5,4 -4,4"/>
<!-- Node1 -->
<g id="node1" class="node">
<title>Node1</title>
<g id="a_node1"><a xlink:title=" ">
<polygon fill="#bfbfbf" stroke="black" points="1052,-392.5 1052,-411.5 1117,-411.5 1117,-392.5 1052,-392.5"/>
<text text-anchor="middle" x="1084.5" y="-399.5" font-family="Helvetica,sans-Serif" font-size="10.00">OMSim.cc</text>
</a>
</g>
</g>
<!-- Node2 -->
<g id="node2" class="node">
<title>Node2</title>
<g id="a_node2"><a xlink:href="_o_m_sim_8hh.html" target="_top" xlink:title="Main simulation class for the Optical Module (OM) simulation.">
<polygon fill="white" stroke="black" points="1020,-336.5 1020,-355.5 1087,-355.5 1087,-336.5 1020,-336.5"/>
<text text-anchor="middle" x="1053.5" y="-343.5" font-family="Helvetica,sans-Serif" font-size="10.00">OMSim.hh</text>
</a>
</g>
</g>
<!-- Node1&#45;&gt;Node2 -->
<g id="edge1" class="edge">
<title>Node1&#45;&gt;Node2</title>
<path fill="none" stroke="midnightblue" d="M1079.38,-392.08C1075.09,-384.61 1068.84,-373.72 1063.56,-364.52"/>
<polygon fill="midnightblue" stroke="midnightblue" points="1066.54,-362.68 1058.52,-355.75 1060.47,-366.17 1066.54,-362.68"/>
</g>
<!-- Node54 -->
<g id="node50" class="node">
<title>Node54</title>
<g id="a_node50"><a xlink:title=" ">
<polygon fill="white" stroke="#bfbfbf" points="1862.5,-280.5 1862.5,-299.5 2012.5,-299.5 2012.5,-280.5 1862.5,-280.5"/>
<text text-anchor="middle" x="1937.5" y="-287.5" font-family="Helvetica,sans-Serif" font-size="10.00">boost/program_options.hpp</text>
</a>
</g>
</g>
<!-- Node1&#45;&gt;Node54 -->
<g id="edge54" class="edge">
<title>Node1&#45;&gt;Node54</title>
<path fill="none" stroke="midnightblue" d="M1117.16,-396.79C1240.82,-380.84 1682.42,-323.89 1861.37,-300.82"/>
<polygon fill="midnightblue" stroke="midnightblue" points="1862.02,-304.26 1871.49,-299.51 1861.12,-297.32 1862.02,-304.26"/>
</g>
<!-- Node3 -->
<g id="node3" class="node">
<title>Node3</title>
<g id="a_node3"><a xlink:href="_o_m_sim_detector_construction_8hh.html" target="_top" xlink:title=" ">
<polygon fill="white" stroke="black" points="1332.5,-280.5 1332.5,-299.5 1502.5,-299.5 1502.5,-280.5 1332.5,-280.5"/>
<text text-anchor="middle" x="1417.5" y="-287.5" font-family="Helvetica,sans-Serif" font-size="10.00">OMSimDetectorConstruction.hh</text>
</a>
</g>
</g>
<!-- Node2&#45;&gt;Node3 -->
<g id="edge2" class="edge">
<title>Node2&#45;&gt;Node3</title>
<path fill="none" stroke="midnightblue" d="M1087.09,-340.02C1146.63,-331.18 1271.75,-312.62 1349.78,-301.05"/>
<polygon fill="midnightblue" stroke="midnightblue" points="1350.62,-304.46 1360,-299.53 1349.59,-297.54 1350.62,-304.46"/>
</g>
<!-- Node21 -->
<g id="node17" class="node">
<title>Node21</title>
<g id="a_node17"><a xlink:href="_o_m_sim_physics_list_8hh.html" target="_top" xlink:title=" ">
<polygon fill="white" stroke="black" points="1521,-280.5 1521,-299.5 1642,-299.5 1642,-280.5 1521,-280.5"/>
<text text-anchor="middle" x="1581.5" y="-287.5" font-family="Helvetica,sans-Serif" font-size="10.00">OMSimPhysicsList.hh</text>
</a>
</g>
</g>
<!-- Node2&#45;&gt;Node21 -->
<g id="edge18" class="edge">
<title>Node2&#45;&gt;Node21</title>
<path fill="none" stroke="midnightblue" d="M1087.15,-342.04C1161.42,-335.44 1345.18,-318.69 1510.45,-300.09"/>
<polygon fill="midnightblue" stroke="midnightblue" points="1511.26,-303.52 1520.81,-298.92 1510.48,-296.56 1511.26,-303.52"/>
</g>
<!-- Node23 -->
<g id="node19" class="node">
<title>Node23</title>
<g id="a_node19"><a xlink:href="_o_m_sim_primary_generator_action_8hh.html" target="_top" xlink:title=" ">
<polygon fill="white" stroke="black" points="1660,-280.5 1660,-299.5 1845,-299.5 1845,-280.5 1660,-280.5"/>
<text text-anchor="middle" x="1752.5" y="-287.5" font-family="Helvetica,sans-Serif" font-size="10.00">OMSimPrimaryGeneratorAction.hh</text>
</a>
</g>
</g>
<!-- Node2&#45;&gt;Node23 -->
<g id="edge20" class="edge">
<title>Node2&#45;&gt;Node23</title>
<path fill="none" stroke="midnightblue" d="M1087.17,-342.61C1176.7,-336.24 1428.29,-318.1 1649.75,-300.05"/>
<polygon fill="midnightblue" stroke="midnightblue" points="1650.26,-303.52 1659.94,-299.22 1649.69,-296.54 1650.26,-303.52"/>
</g>
<!-- Node25 -->
<g id="node21" class="node">
<title>Node25</title>
<g id="a_node21"><a xlink:href="_o_m_sim_run_action_8hh.html" target="_top" xlink:title=" ">
<polygon fill="white" stroke="black" points="52.5,-280.5 52.5,-299.5 168.5,-299.5 168.5,-280.5 52.5,-280.5"/>
<text text-anchor="middle" x="110.5" y="-287.5" font-family="Helvetica,sans-Serif" font-size="10.00">OMSimRunAction.hh</text>
</a>
</g>
</g>
<!-- Node2&#45;&gt;Node25 -->
<g id="edge22" class="edge">
<title>Node2&#45;&gt;Node25</title>
<path fill="none" stroke="midnightblue" d="M1019.73,-343.41C907.42,-338.07 536.16,-319.97 229.5,-300 213.06,-298.93 195.36,-297.66 178.76,-296.41"/>
<polygon fill="midnightblue" stroke="midnightblue" points="178.82,-292.9 168.59,-295.64 178.3,-299.88 178.82,-292.9"/>
</g>
<!-- Node27 -->
<g id="node23" class="node">
<title>Node27</title>
<g id="a_node23"><a xlink:href="_o_m_sim_event_action_8hh.html" target="_top" xlink:title=" ">
<polygon fill="white" stroke="black" points="239,-280.5 239,-299.5 364,-299.5 364,-280.5 239,-280.5"/>
<text text-anchor="middle" x="301.5" y="-287.5" font-family="Helvetica,sans-Serif" font-size="10.00">OMSimEventAction.hh</text>
</a>
</g>
</g>
<!-- Node2&#45;&gt;Node27 -->
<g id="edge24" class="edge">
<title>Node2&#45;&gt;Node27</title>
<path fill="none" stroke="midnightblue" d="M1019.89,-343.45C920.88,-338.72 621.78,-323.42 374.5,-300 374.4,-299.99 374.29,-299.98 374.19,-299.97"/>
<polygon fill="midnightblue" stroke="midnightblue" points="374.69,-296.5 364.39,-298.98 373.99,-303.47 374.69,-296.5"/>
</g>
<!-- Node30 -->
<g id="node26" class="node">
<title>Node30</title>
<g id="a_node26"><a xlink:href="_o_m_sim_tracking_action_8hh.html" target="_top" xlink:title=" ">
<polygon fill="white" stroke="black" points="383.5,-280.5 383.5,-299.5 521.5,-299.5 521.5,-280.5 383.5,-280.5"/>
<text text-anchor="middle" x="452.5" y="-287.5" font-family="Helvetica,sans-Serif" font-size="10.00">OMSimTrackingAction.hh</text>
</a>
</g>
</g>
<!-- Node2&#45;&gt;Node30 -->
<g id="edge27" class="edge">
<title>Node2&#45;&gt;Node30</title>
<path fill="none" stroke="midnightblue" d="M1019.82,-342.44C938.13,-336.17 722.77,-319.19 532.03,-300.13"/>
<polygon fill="midnightblue" stroke="midnightblue" points="532.11,-296.62 521.81,-299.1 531.41,-303.58 532.11,-296.62"/>
</g>
<!-- Node32 -->
<g id="node28" class="node">
<title>Node32</title>
<g id="a_node28"><a xlink:href="_o_m_sim_stepping_action_8hh.html" target="_top" xlink:title=" ">
<polygon fill="white" stroke="black" points="539.5,-280.5 539.5,-299.5 679.5,-299.5 679.5,-280.5 539.5,-280.5"/>
<text text-anchor="middle" x="609.5" y="-287.5" font-family="Helvetica,sans-Serif" font-size="10.00">OMSimSteppingAction.hh</text>
</a>
</g>
</g>
<!-- Node2&#45;&gt;Node32 -->
<g id="edge29" class="edge">
<title>Node2&#45;&gt;Node32</title>
<path fill="none" stroke="midnightblue" d="M1019.76,-340.9C949.99,-332.41 788.13,-312.73 689.86,-300.77"/>
<polygon fill="midnightblue" stroke="midnightblue" points="690.02,-297.27 679.67,-299.53 689.17,-304.22 690.02,-297.27"/>
</g>
<!-- Node34 -->
<g id="node30" class="node">
<title>Node34</title>
<g id="a_node30"><a xlink:href="_o_m_sim_analysis_manager_8hh.html" target="_top" xlink:title=" ">
<polygon fill="white" stroke="black" points="658.5,-224.5 658.5,-243.5 808.5,-243.5 808.5,-224.5 658.5,-224.5"/>
<text text-anchor="middle" x="733.5" y="-231.5" font-family="Helvetica,sans-Serif" font-size="10.00">OMSimAnalysisManager.hh</text>
</a>
</g>
</g>
<!-- Node2&#45;&gt;Node34 -->
<g id="edge31" class="edge">
<title>Node2&#45;&gt;Node34</title>
<path fill="none" stroke="midnightblue" d="M1019.95,-345.67C944.35,-346.39 764.35,-343.41 726.5,-300 715.46,-287.33 719.53,-267.58 724.93,-253.17"/>
<polygon fill="midnightblue" stroke="midnightblue" points="728.22,-254.37 728.89,-243.8 721.77,-251.64 728.22,-254.37"/>
</g>
<!-- Node42 -->
<g id="node38" class="node">
<title>Node42</title>
<g id="a_node38"><a xlink:href="_o_m_sim_u_iinterface_8hh.html" target="_top" xlink:title="The OMSimUIinterface class provides a singleton interface to Geant4&#39;s UI manager.">
<polygon fill="white" stroke="black" points="736,-280.5 736,-299.5 857,-299.5 857,-280.5 736,-280.5"/>
<text text-anchor="middle" x="796.5" y="-287.5" font-family="Helvetica,sans-Serif" font-size="10.00">OMSimUIinterface.hh</text>
</a>
</g>
</g>
<!-- Node2&#45;&gt;Node42 -->
<g id="edge40" class="edge">
<title>Node2&#45;&gt;Node42</title>
<path fill="none" stroke="midnightblue" d="M1019.9,-337.94C975.89,-328.69 898.34,-312.4 847.18,-301.65"/>
<polygon fill="midnightblue" stroke="midnightblue" points="847.82,-298.21 837.32,-299.58 846.38,-305.06 847.82,-298.21"/>
</g>
<!-- Node50 -->
<g id="node46" class="node">
<title>Node50</title>
<g id="a_node46"><a xlink:title=" ">
<polygon fill="white" stroke="#bfbfbf" points="875.5,-280.5 875.5,-299.5 981.5,-299.5 981.5,-280.5 875.5,-280.5"/>
<text text-anchor="middle" x="928.5" y="-287.5" font-family="Helvetica,sans-Serif" font-size="10.00">G4RunManager.hh</text>
</a>
</g>
</g>
<!-- Node2&#45;&gt;Node50 -->
<g id="edge49" class="edge">
<title>Node2&#45;&gt;Node50</title>
<path fill="none" stroke="midnightblue" d="M1033.69,-336.44C1013.21,-327.6 981.02,-313.69 957.64,-303.59"/>
<polygon fill="midnightblue" stroke="midnightblue" points="958.78,-300.27 948.21,-299.52 956.01,-306.7 958.78,-300.27"/>
</g>
<!-- Node51 -->
<g id="node47" class="node">
<title>Node51</title>
<g id="a_node47"><a xlink:title=" ">
<polygon fill="white" stroke="#bfbfbf" points="1000,-280.5 1000,-299.5 1107,-299.5 1107,-280.5 1000,-280.5"/>
<text text-anchor="middle" x="1053.5" y="-287.5" font-family="Helvetica,sans-Serif" font-size="10.00">G4VisExecutive.hh</text>
</a>
</g>
</g>
<!-- Node2&#45;&gt;Node51 -->
<g id="edge50" class="edge">
<title>Node2&#45;&gt;Node51</title>
<path fill="none" stroke="midnightblue" d="M1053.5,-336.08C1053.5,-329.01 1053.5,-318.86 1053.5,-309.99"/>
<polygon fill="midnightblue" stroke="midnightblue" points="1057,-309.75 1053.5,-299.75 1050,-309.75 1057,-309.75"/>
</g>
<!-- Node52 -->
<g id="node48" class="node">
<title>Node52</title>
<g id="a_node48"><a xlink:title=" ">
<polygon fill="white" stroke="#bfbfbf" points="1125,-280.5 1125,-299.5 1228,-299.5 1228,-280.5 1125,-280.5"/>
<text text-anchor="middle" x="1176.5" y="-287.5" font-family="Helvetica,sans-Serif" font-size="10.00">G4UIExecutive.hh</text>
</a>
</g>
</g>
<!-- Node2&#45;&gt;Node52 -->
<g id="edge51" class="edge">
<title>Node2&#45;&gt;Node52</title>
<path fill="none" stroke="midnightblue" d="M1072.99,-336.44C1093.14,-327.6 1124.82,-313.69 1147.83,-303.59"/>
<polygon fill="midnightblue" stroke="midnightblue" points="1149.35,-306.74 1157.1,-299.52 1146.54,-300.33 1149.35,-306.74"/>
</g>
<!-- Node53 -->
<g id="node49" class="node">
<title>Node53</title>
<g id="a_node49"><a xlink:title=" ">
<polygon fill="white" stroke="#bfbfbf" points="1246.5,-280.5 1246.5,-299.5 1314.5,-299.5 1314.5,-280.5 1246.5,-280.5"/>
<text text-anchor="middle" x="1280.5" y="-287.5" font-family="Helvetica,sans-Serif" font-size="10.00">filesystem</text>
</a>
</g>
</g>
<!-- Node2&#45;&gt;Node53 -->
<g id="edge52" class="edge">
<title>Node2&#45;&gt;Node53</title>
<path fill="none" stroke="midnightblue" d="M1087.48,-336.92C1127.19,-327.47 1192.97,-311.82 1236.53,-301.46"/>
<polygon fill="midnightblue" stroke="midnightblue" points="1237.36,-304.86 1246.28,-299.14 1235.74,-298.05 1237.36,-304.86"/>
</g>
<!-- Node2&#45;&gt;Node54 -->
<g id="edge53" class="edge">
<title>Node2&#45;&gt;Node54</title>
<path fill="none" stroke="midnightblue" d="M1087.08,-343.72C1195.87,-339.44 1548.75,-324.56 1852.1,-300.07"/>
<polygon fill="midnightblue" stroke="midnightblue" points="1852.73,-303.53 1862.41,-299.24 1852.16,-296.56 1852.73,-303.53"/>
</g>
<!-- Node4 -->
<g id="node4" class="node">
<title>Node4</title>
<g id="a_node4"><a xlink:href="_o_m_sim_m_d_o_m_8hh.html" target="_top" xlink:title=" ">
<polygon fill="white" stroke="black" points="1400.5,-224.5 1400.5,-243.5 1500.5,-243.5 1500.5,-224.5 1400.5,-224.5"/>
<text text-anchor="middle" x="1450.5" y="-231.5" font-family="Helvetica,sans-Serif" font-size="10.00">OMSimMDOM.hh</text>
</a>
</g>
</g>
<!-- Node3&#45;&gt;Node4 -->
<g id="edge3" class="edge">
<title>Node3&#45;&gt;Node4</title>
<path fill="none" stroke="midnightblue" d="M1422.95,-280.08C1427.51,-272.61 1434.17,-261.72 1439.79,-252.52"/>
<polygon fill="midnightblue" stroke="midnightblue" points="1442.92,-254.11 1445.15,-243.75 1436.95,-250.46 1442.92,-254.11"/>
</g>
<!-- Node19 -->
<g id="node15" class="node">
<title>Node19</title>
<g id="a_node15"><a xlink:title=" ">
<polygon fill="white" stroke="#bfbfbf" points="1124.5,-224.5 1124.5,-243.5 1186.5,-243.5 1186.5,-224.5 1124.5,-224.5"/>
<text text-anchor="middle" x="1155.5" y="-231.5" font-family="Helvetica,sans-Serif" font-size="10.00">G4Orb.hh</text>
</a>
</g>
</g>
<!-- Node3&#45;&gt;Node19 -->
<g id="edge16" class="edge">
<title>Node3&#45;&gt;Node19</title>
<path fill="none" stroke="midnightblue" d="M1374.05,-280.48C1331.36,-272.04 1264.09,-258.58 1196.85,-244.26"/>
<polygon fill="midnightblue" stroke="midnightblue" points="1197.44,-240.8 1186.93,-242.14 1195.98,-247.65 1197.44,-240.8"/>
</g>
<!-- Node20 -->
<g id="node16" class="node">
<title>Node20</title>
<g id="a_node16"><a xlink:title=" ">
<polygon fill="white" stroke="#bfbfbf" points="1204.5,-224.5 1204.5,-243.5 1382.5,-243.5 1382.5,-224.5 1204.5,-224.5"/>
<text text-anchor="middle" x="1293.5" y="-231.5" font-family="Helvetica,sans-Serif" font-size="10.00">G4VUserDetectorConstruction.hh</text>
</a>
</g>
</g>
<!-- Node3&#45;&gt;Node20 -->
<g id="edge17" class="edge">
<title>Node3&#45;&gt;Node20</title>
<path fill="none" stroke="midnightblue" d="M1397.85,-280.44C1377.54,-271.6 1345.6,-257.69 1322.4,-247.59"/>
<polygon fill="midnightblue" stroke="midnightblue" points="1323.62,-244.3 1313.06,-243.52 1320.83,-250.72 1323.62,-244.3"/>
</g>
<!-- Node5 -->
<g id="node5" class="node">
<title>Node5</title>
<g id="a_node5"><a xlink:href="_o_m_sim_m_d_o_m_flasher_8hh.html" target="_top" xlink:title=" ">
<polygon fill="white" stroke="black" points="1231,-168.5 1231,-187.5 1366,-187.5 1366,-168.5 1231,-168.5"/>
<text text-anchor="middle" x="1298.5" y="-175.5" font-family="Helvetica,sans-Serif" font-size="10.00">OMSimMDOMFlasher.hh</text>
</a>
</g>
</g>
<!-- Node4&#45;&gt;Node5 -->
<g id="edge4" class="edge">
<title>Node4&#45;&gt;Node5</title>
<path fill="none" stroke="midnightblue" d="M1426.42,-224.44C1400.96,-215.4 1360.61,-201.06 1332.04,-190.92"/>
<polygon fill="midnightblue" stroke="midnightblue" points="1333.07,-187.57 1322.47,-187.52 1330.72,-194.16 1333.07,-187.57"/>
</g>
<!-- Node17 -->
<g id="node13" class="node">
<title>Node17</title>
<g id="a_node13"><a xlink:href="_o_m_sim_p_m_t_construction_8hh.html" target="_top" xlink:title=" ">
<polygon fill="white" stroke="black" points="1384,-168.5 1384,-187.5 1533,-187.5 1533,-168.5 1384,-168.5"/>
<text text-anchor="middle" x="1458.5" y="-175.5" font-family="Helvetica,sans-Serif" font-size="10.00">OMSimPMTConstruction.hh</text>
</a>
</g>
</g>
<!-- Node4&#45;&gt;Node17 -->
<g id="edge12" class="edge">
<title>Node4&#45;&gt;Node17</title>
<path fill="none" stroke="midnightblue" d="M1451.82,-224.08C1452.88,-216.93 1454.41,-206.64 1455.73,-197.69"/>
<polygon fill="midnightblue" stroke="midnightblue" points="1459.2,-198.16 1457.2,-187.75 1452.28,-197.13 1459.2,-198.16"/>
</g>
<!-- Node6 -->
<g id="node6" class="node">
<title>Node6</title>
<g id="a_node6"><a xlink:href="abc_detector_component_8hh.html" target="_top" xlink:title=" ">
<polygon fill="white" stroke="red" points="1374,-112.5 1374,-131.5 1521,-131.5 1521,-112.5 1374,-112.5"/>
<text text-anchor="middle" x="1447.5" y="-119.5" font-family="Helvetica,sans-Serif" font-size="10.00">abcDetectorComponent.hh</text>
</a>
</g>
</g>
<!-- Node5&#45;&gt;Node6 -->
<g id="edge5" class="edge">
<title>Node5&#45;&gt;Node6</title>
<path fill="none" stroke="midnightblue" d="M1322.11,-168.44C1346.96,-159.44 1386.27,-145.19 1414.25,-135.05"/>
<polygon fill="midnightblue" stroke="midnightblue" points="1415.79,-138.21 1424,-131.52 1413.41,-131.63 1415.79,-138.21"/>
</g>
<!-- Node15 -->
<g id="node11" class="node">
<title>Node15</title>
<g id="a_node11"><a xlink:title=" ">
<polygon fill="white" stroke="#bfbfbf" points="1257.5,-112.5 1257.5,-131.5 1355.5,-131.5 1355.5,-112.5 1257.5,-112.5"/>
<text text-anchor="middle" x="1306.5" y="-119.5" font-family="Helvetica,sans-Serif" font-size="10.00">G4UnionSolid.hh</text>
</a>
</g>
</g>
<!-- Node5&#45;&gt;Node15 -->
<g id="edge10" class="edge">
<title>Node5&#45;&gt;Node15</title>
<path fill="none" stroke="midnightblue" d="M1299.82,-168.08C1300.88,-160.93 1302.41,-150.64 1303.73,-141.69"/>
<polygon fill="midnightblue" stroke="midnightblue" points="1307.2,-142.16 1305.2,-131.75 1300.28,-141.13 1307.2,-142.16"/>
</g>
<!-- Node16 -->
<g id="node12" class="node">
<title>Node16</title>
<g id="a_node12"><a xlink:title=" ">
<polygon fill="white" stroke="#bfbfbf" points="1147.5,-112.5 1147.5,-131.5 1239.5,-131.5 1239.5,-112.5 1147.5,-112.5"/>
<text text-anchor="middle" x="1193.5" y="-119.5" font-family="Helvetica,sans-Serif" font-size="10.00">G4Navigator.hh</text>
</a>
</g>
</g>
<!-- Node5&#45;&gt;Node16 -->
<g id="edge11" class="edge">
<title>Node5&#45;&gt;Node16</title>
<path fill="none" stroke="midnightblue" d="M1281.63,-168.32C1264.79,-159.66 1238.69,-146.24 1219.26,-136.25"/>
<polygon fill="midnightblue" stroke="midnightblue" points="1220.82,-133.12 1210.33,-131.65 1217.62,-139.34 1220.82,-133.12"/>
</g>
<!-- Node7 -->
<g id="node7" class="node">
<title>Node7</title>
<g id="a_node7"><a xlink:href="_o_m_sim_input_data_8hh.html" target="_top" xlink:title=" ">
<polygon fill="white" stroke="red" points="1039,-56.5 1039,-75.5 1154,-75.5 1154,-56.5 1039,-56.5"/>
<text text-anchor="middle" x="1096.5" y="-63.5" font-family="Helvetica,sans-Serif" font-size="10.00">OMSimInputData.hh</text>
</a>
</g>
</g>
<!-- Node6&#45;&gt;Node7 -->
<g id="edge6" class="edge">
<title>Node6&#45;&gt;Node7</title>
<path fill="none" stroke="midnightblue" d="M1391.88,-112.44C1329.37,-102.83 1227.98,-87.23 1161.77,-77.04"/>
<polygon fill="midnightblue" stroke="midnightblue" points="1162.27,-73.58 1151.86,-75.52 1161.21,-80.5 1162.27,-73.58"/>
</g>
<!-- Node11 -->
<g id="node9" class="node">
<title>Node11</title>
<g id="a_node9"><a xlink:title=" ">
<polygon fill="white" stroke="#bfbfbf" points="1331,-56.5 1331,-75.5 1438,-75.5 1438,-56.5 1331,-56.5"/>
<text text-anchor="middle" x="1384.5" y="-63.5" font-family="Helvetica,sans-Serif" font-size="10.00">G4Transform3D.hh</text>
</a>
</g>
</g>
<!-- Node6&#45;&gt;Node11 -->
<g id="edge8" class="edge">
<title>Node6&#45;&gt;Node11</title>
<path fill="none" stroke="midnightblue" d="M1437.38,-112.32C1427.97,-104.26 1413.76,-92.08 1402.43,-82.37"/>
<polygon fill="midnightblue" stroke="midnightblue" points="1404.68,-79.68 1394.81,-75.83 1400.12,-85 1404.68,-79.68"/>
</g>
<!-- Node12 -->
<g id="node10" class="node">
<title>Node12</title>
<g id="a_node10"><a xlink:title=" ">
<polygon fill="white" stroke="#bfbfbf" points="1456.5,-56.5 1456.5,-75.5 1564.5,-75.5 1564.5,-56.5 1456.5,-56.5"/>
<text text-anchor="middle" x="1510.5" y="-63.5" font-family="Helvetica,sans-Serif" font-size="10.00">G4VisAttributes.hh</text>
</a>
</g>
</g>
<!-- Node6&#45;&gt;Node12 -->
<g id="edge9" class="edge">
<title>Node6&#45;&gt;Node12</title>
<path fill="none" stroke="midnightblue" d="M1457.62,-112.32C1467.03,-104.26 1481.24,-92.08 1492.57,-82.37"/>
<polygon fill="midnightblue" stroke="midnightblue" points="1494.88,-85 1500.19,-75.83 1490.32,-79.68 1494.88,-85"/>
</g>
<!-- Node10 -->
<g id="node8" class="node">
<title>Node10</title>
<g id="a_node8"><a xlink:title=" ">
<polygon fill="white" stroke="#bfbfbf" points="814,-0.5 814,-19.5 933,-19.5 933,-0.5 814,-0.5"/>
<text text-anchor="middle" x="873.5" y="-7.5" font-family="Helvetica,sans-Serif" font-size="10.00">G4SystemOfUnits.hh</text>
</a>
</g>
</g>
<!-- Node7&#45;&gt;Node10 -->
<g id="edge7" class="edge">
<title>Node7&#45;&gt;Node10</title>
<path fill="none" stroke="midnightblue" d="M1061.16,-56.44C1022.59,-47.1 960.72,-32.12 918.65,-21.93"/>
<polygon fill="midnightblue" stroke="midnightblue" points="919.21,-18.47 908.67,-19.52 917.57,-25.27 919.21,-18.47"/>
</g>
<!-- Node17&#45;&gt;Node6 -->
<g id="edge13" class="edge">
<title>Node17&#45;&gt;Node6</title>
<path fill="none" stroke="midnightblue" d="M1456.68,-168.08C1455.23,-160.93 1453.13,-150.64 1451.31,-141.69"/>
<polygon fill="midnightblue" stroke="midnightblue" points="1454.71,-140.85 1449.28,-131.75 1447.85,-142.25 1454.71,-140.85"/>
</g>
<!-- Node17&#45;&gt;Node15 -->
<g id="edge14" class="edge">
<title>Node17&#45;&gt;Node15</title>
<path fill="none" stroke="midnightblue" d="M1434.42,-168.44C1408.96,-159.4 1368.61,-145.06 1340.04,-134.92"/>
<polygon fill="midnightblue" stroke="midnightblue" points="1341.07,-131.57 1330.47,-131.52 1338.72,-138.16 1341.07,-131.57"/>
</g>
<!-- Node18 -->
<g id="node14" class="node">
<title>Node18</title>
<g id="a_node14"><a xlink:title=" ">
<polygon fill="white" stroke="#bfbfbf" points="1539,-112.5 1539,-131.5 1606,-131.5 1606,-112.5 1539,-112.5"/>
<text text-anchor="middle" x="1572.5" y="-119.5" font-family="Helvetica,sans-Serif" font-size="10.00">G4Tubs.hh</text>
</a>
</g>
</g>
<!-- Node17&#45;&gt;Node18 -->
<g id="edge15" class="edge">
<title>Node17&#45;&gt;Node18</title>
<path fill="none" stroke="midnightblue" d="M1476.56,-168.44C1495.07,-159.68 1524.08,-145.94 1545.36,-135.86"/>
<polygon fill="midnightblue" stroke="midnightblue" points="1546.98,-138.96 1554.52,-131.52 1543.99,-132.63 1546.98,-138.96"/>
</g>
<!-- Node22 -->
<g id="node18" class="node">
<title>Node22</title>
<g id="a_node18"><a xlink:title=" ">
<polygon fill="white" stroke="#bfbfbf" points="1518.5,-224.5 1518.5,-243.5 1646.5,-243.5 1646.5,-224.5 1518.5,-224.5"/>
<text text-anchor="middle" x="1582.5" y="-231.5" font-family="Helvetica,sans-Serif" font-size="10.00">G4VUserPhysicsList.hh</text>
</a>
</g>
</g>
<!-- Node21&#45;&gt;Node22 -->
<g id="edge19" class="edge">
<title>Node21&#45;&gt;Node22</title>
<path fill="none" stroke="midnightblue" d="M1581.67,-280.08C1581.8,-273.01 1581.98,-262.86 1582.15,-253.99"/>
<polygon fill="midnightblue" stroke="midnightblue" points="1585.65,-253.81 1582.34,-243.75 1578.65,-253.68 1585.65,-253.81"/>
</g>
<!-- Node24 -->
<g id="node20" class="node">
<title>Node24</title>
<g id="a_node20"><a xlink:title=" ">
<polygon fill="white" stroke="#bfbfbf" points="1664.5,-224.5 1664.5,-243.5 1856.5,-243.5 1856.5,-224.5 1664.5,-224.5"/>
<text text-anchor="middle" x="1760.5" y="-231.5" font-family="Helvetica,sans-Serif" font-size="10.00">G4VUserPrimaryGeneratorAction.hh</text>
</a>
</g>
</g>
<!-- Node23&#45;&gt;Node24 -->
<g id="edge21" class="edge">
<title>Node23&#45;&gt;Node24</title>
<path fill="none" stroke="midnightblue" d="M1753.82,-280.08C1754.88,-272.93 1756.41,-262.64 1757.73,-253.69"/>
<polygon fill="midnightblue" stroke="midnightblue" points="1761.2,-254.16 1759.2,-243.75 1754.28,-253.13 1761.2,-254.16"/>
</g>
<!-- Node26 -->
<g id="node22" class="node">
<title>Node26</title>
<g id="a_node22"><a xlink:title=" ">
<polygon fill="white" stroke="#bfbfbf" points="0,-224.5 0,-243.5 117,-243.5 117,-224.5 0,-224.5"/>
<text text-anchor="middle" x="58.5" y="-231.5" font-family="Helvetica,sans-Serif" font-size="10.00">G4UserRunAction.hh</text>
</a>
</g>
</g>
<!-- Node25&#45;&gt;Node26 -->
<g id="edge23" class="edge">
<title>Node25&#45;&gt;Node26</title>
<path fill="none" stroke="midnightblue" d="M101.91,-280.08C94.34,-272.22 83.12,-260.57 73.99,-251.08"/>
<polygon fill="midnightblue" stroke="midnightblue" points="76.38,-248.53 66.93,-243.75 71.34,-253.38 76.38,-248.53"/>
</g>
<!-- Node28 -->
<g id="node24" class="node">
<title>Node28</title>
<g id="a_node24"><a xlink:title=" ">
<polygon fill="white" stroke="#bfbfbf" points="135.5,-224.5 135.5,-243.5 261.5,-243.5 261.5,-224.5 135.5,-224.5"/>
<text text-anchor="middle" x="198.5" y="-231.5" font-family="Helvetica,sans-Serif" font-size="10.00">G4UserEventAction.hh</text>
</a>
</g>
</g>
<!-- Node27&#45;&gt;Node28 -->
<g id="edge25" class="edge">
<title>Node27&#45;&gt;Node28</title>
<path fill="none" stroke="midnightblue" d="M284.95,-280.32C268.51,-271.7 243.07,-258.36 224.03,-248.39"/>
<polygon fill="midnightblue" stroke="midnightblue" points="225.49,-245.2 215.01,-243.65 222.24,-251.4 225.49,-245.2"/>
</g>
<!-- Node29 -->
<g id="node25" class="node">
<title>Node29</title>
<g id="a_node25"><a xlink:title=" ">
<polygon fill="white" stroke="#bfbfbf" points="279.5,-224.5 279.5,-243.5 323.5,-243.5 323.5,-224.5 279.5,-224.5"/>
<text text-anchor="middle" x="301.5" y="-231.5" font-family="Helvetica,sans-Serif" font-size="10.00">string</text>
</a>
</g>
</g>
<!-- Node27&#45;&gt;Node29 -->
<g id="edge26" class="edge">
<title>Node27&#45;&gt;Node29</title>
<path fill="none" stroke="midnightblue" d="M301.5,-280.08C301.5,-273.01 301.5,-262.86 301.5,-253.99"/>
<polygon fill="midnightblue" stroke="midnightblue" points="305,-253.75 301.5,-243.75 298,-253.75 305,-253.75"/>
</g>
<!-- Node31 -->
<g id="node27" class="node">
<title>Node31</title>
<g id="a_node27"><a xlink:title=" ">
<polygon fill="white" stroke="#bfbfbf" points="342,-224.5 342,-243.5 481,-243.5 481,-224.5 342,-224.5"/>
<text text-anchor="middle" x="411.5" y="-231.5" font-family="Helvetica,sans-Serif" font-size="10.00">G4UserTrackingAction.hh</text>
</a>
</g>
</g>
<!-- Node30&#45;&gt;Node31 -->
<g id="edge28" class="edge">
<title>Node30&#45;&gt;Node31</title>
<path fill="none" stroke="midnightblue" d="M445.73,-280.08C439.94,-272.46 431.44,-261.26 424.36,-251.94"/>
<polygon fill="midnightblue" stroke="midnightblue" points="426.98,-249.6 418.14,-243.75 421.4,-253.83 426.98,-249.6"/>
</g>
<!-- Node33 -->
<g id="node29" class="node">
<title>Node33</title>
<g id="a_node29"><a xlink:title=" ">
<polygon fill="white" stroke="#bfbfbf" points="499,-224.5 499,-243.5 640,-243.5 640,-224.5 499,-224.5"/>
<text text-anchor="middle" x="569.5" y="-231.5" font-family="Helvetica,sans-Serif" font-size="10.00">G4UserSteppingAction.hh</text>
</a>
</g>
</g>
<!-- Node32&#45;&gt;Node33 -->
<g id="edge30" class="edge">
<title>Node32&#45;&gt;Node33</title>
<path fill="none" stroke="midnightblue" d="M602.89,-280.08C597.24,-272.46 588.96,-261.26 582.05,-251.94"/>
<polygon fill="midnightblue" stroke="midnightblue" points="584.75,-249.7 575.98,-243.75 579.12,-253.87 584.75,-249.7"/>
</g>
<!-- Node35 -->
<g id="node31" class="node">
<title>Node35</title>
<g id="a_node31"><a xlink:href="_o_m_sim_p_m_t_response_8hh.html" target="_top" xlink:title=" ">
<polygon fill="white" stroke="black" points="519,-168.5 519,-187.5 654,-187.5 654,-168.5 519,-168.5"/>
<text text-anchor="middle" x="586.5" y="-175.5" font-family="Helvetica,sans-Serif" font-size="10.00">OMSimPMTResponse.hh</text>
</a>
</g>
</g>
<!-- Node34&#45;&gt;Node35 -->
<g id="edge32" class="edge">
<title>Node34&#45;&gt;Node35</title>
<path fill="none" stroke="midnightblue" d="M710.21,-224.44C685.69,-215.44 646.9,-201.19 619.3,-191.05"/>
<polygon fill="midnightblue" stroke="midnightblue" points="620.28,-187.68 609.68,-187.52 617.86,-194.25 620.28,-187.68"/>
</g>
<!-- Node40 -->
<g id="node36" class="node">
<title>Node40</title>
<g id="a_node36"><a xlink:title=" ">
<polygon fill="white" stroke="#bfbfbf" points="672,-168.5 672,-187.5 775,-187.5 775,-168.5 672,-168.5"/>
<text text-anchor="middle" x="723.5" y="-175.5" font-family="Helvetica,sans-Serif" font-size="10.00">G4ThreeVector.hh</text>
</a>
</g>
</g>
<!-- Node34&#45;&gt;Node40 -->
<g id="edge38" class="edge">
<title>Node34&#45;&gt;Node40</title>
<path fill="none" stroke="midnightblue" d="M731.85,-224.08C730.52,-216.93 728.62,-206.64 726.96,-197.69"/>
<polygon fill="midnightblue" stroke="midnightblue" points="730.38,-196.95 725.12,-187.75 723.5,-198.22 730.38,-196.95"/>
</g>
<!-- Node41 -->
<g id="node37" class="node">
<title>Node41</title>
<g id="a_node37"><a xlink:title=" ">
<polygon fill="white" stroke="#bfbfbf" points="793,-168.5 793,-187.5 848,-187.5 848,-168.5 793,-168.5"/>
<text text-anchor="middle" x="820.5" y="-175.5" font-family="Helvetica,sans-Serif" font-size="10.00">fstream</text>
</a>
</g>
</g>
<!-- Node34&#45;&gt;Node41 -->
<g id="edge39" class="edge">
<title>Node34&#45;&gt;Node41</title>
<path fill="none" stroke="midnightblue" d="M747.48,-224.32C761.05,-215.9 781.88,-202.97 797.82,-193.07"/>
<polygon fill="midnightblue" stroke="midnightblue" points="799.91,-195.9 806.56,-187.65 796.21,-189.95 799.91,-195.9"/>
</g>
<!-- Node35&#45;&gt;Node10 -->
<g id="edge33" class="edge">
<title>Node35&#45;&gt;Node10</title>
<path fill="none" stroke="midnightblue" d="M580.81,-168.11C573.01,-154.69 561.28,-129.01 573.5,-112 625.61,-39.47 732.45,-18.33 803.54,-12.55"/>
<polygon fill="midnightblue" stroke="midnightblue" points="804.04,-16.03 813.76,-11.81 803.53,-9.04 804.04,-16.03"/>
</g>
<!-- Node36 -->
<g id="node32" class="node">
<title>Node36</title>
<g id="a_node32"><a xlink:title=" ">
<polygon fill="white" stroke="#bfbfbf" points="583,-112.5 583,-131.5 656,-131.5 656,-112.5 583,-112.5"/>
<text text-anchor="middle" x="619.5" y="-119.5" font-family="Helvetica,sans-Serif" font-size="10.00">G4Types.hh</text>
</a>
</g>
</g>
<!-- Node35&#45;&gt;Node36 -->
<g id="edge34" class="edge">
<title>Node35&#45;&gt;Node36</title>
<path fill="none" stroke="midnightblue" d="M591.95,-168.08C596.51,-160.61 603.17,-149.72 608.79,-140.52"/>
<polygon fill="midnightblue" stroke="midnightblue" points="611.92,-142.11 614.15,-131.75 605.95,-138.46 611.92,-142.11"/>
</g>
<!-- Node37 -->
<g id="node33" class="node">
<title>Node37</title>
<g id="a_node33"><a xlink:title=" ">
<polygon fill="white" stroke="#bfbfbf" points="674.5,-112.5 674.5,-131.5 712.5,-131.5 712.5,-112.5 674.5,-112.5"/>
<text text-anchor="middle" x="693.5" y="-119.5" font-family="Helvetica,sans-Serif" font-size="10.00">map</text>
</a>
</g>
</g>
<!-- Node35&#45;&gt;Node37 -->
<g id="edge35" class="edge">
<title>Node35&#45;&gt;Node37</title>
<path fill="none" stroke="midnightblue" d="M603.69,-168.32C620.85,-159.66 647.45,-146.24 667.25,-136.25"/>
<polygon fill="midnightblue" stroke="midnightblue" points="669,-139.28 676.35,-131.65 665.85,-133.04 669,-139.28"/>
</g>
<!-- Node38 -->
<g id="node34" class="node">
<title>Node38</title>
<g id="a_node34"><a xlink:title=" ">
<polygon fill="white" stroke="#bfbfbf" points="731,-112.5 731,-131.5 792,-131.5 792,-112.5 731,-112.5"/>
<text text-anchor="middle" x="761.5" y="-119.5" font-family="Helvetica,sans-Serif" font-size="10.00">TGraph.h</text>
</a>
</g>
</g>
<!-- Node35&#45;&gt;Node38 -->
<g id="edge36" class="edge">
<title>Node35&#45;&gt;Node38</title>
<path fill="none" stroke="midnightblue" d="M614.23,-168.44C643.93,-159.28 691.22,-144.69 724.17,-134.52"/>
<polygon fill="midnightblue" stroke="midnightblue" points="725.38,-137.81 733.9,-131.52 723.31,-131.12 725.38,-137.81"/>
</g>
<!-- Node39 -->
<g id="node35" class="node">
<title>Node39</title>
<g id="a_node35"><a xlink:title=" ">
<polygon fill="white" stroke="#bfbfbf" points="473,-112.5 473,-131.5 526,-131.5 526,-112.5 473,-112.5"/>
<text text-anchor="middle" x="499.5" y="-119.5" font-family="Helvetica,sans-Serif" font-size="10.00">TH2D.h</text>
</a>
</g>
</g>
<!-- Node35&#45;&gt;Node39 -->
<g id="edge37" class="edge">
<title>Node35&#45;&gt;Node39</title>
<path fill="none" stroke="midnightblue" d="M572.52,-168.32C558.95,-159.9 538.12,-146.97 522.18,-137.07"/>
<polygon fill="midnightblue" stroke="midnightblue" points="523.79,-133.95 513.44,-131.65 520.09,-139.9 523.79,-133.95"/>
</g>
<!-- Node43 -->
<g id="node39" class="node">
<title>Node43</title>
<g id="a_node39"><a xlink:href="_o_m_sim_command_args_table_8hh.html" target="_top" xlink:title="Definition of the OMSimCommandArgsTable singleton class, which controls user args.">
<polygon fill="white" stroke="black" points="826.5,-224.5 826.5,-243.5 990.5,-243.5 990.5,-224.5 826.5,-224.5"/>
<text text-anchor="middle" x="908.5" y="-231.5" font-family="Helvetica,sans-Serif" font-size="10.00">OMSimCommandArgsTable.hh</text>
</a>
</g>
</g>
<!-- Node42&#45;&gt;Node43 -->
<g id="edge41" class="edge">
<title>Node42&#45;&gt;Node43</title>
<path fill="none" stroke="midnightblue" d="M814.49,-280.32C832.54,-271.62 860.55,-258.12 881.3,-248.11"/>
<polygon fill="midnightblue" stroke="midnightblue" points="883.06,-251.15 890.55,-243.65 880.02,-244.84 883.06,-251.15"/>
</g>
<!-- Node49 -->
<g id="node45" class="node">
<title>Node49</title>
<g id="a_node45"><a xlink:title=" ">
<polygon fill="white" stroke="#bfbfbf" points="1008.5,-224.5 1008.5,-243.5 1106.5,-243.5 1106.5,-224.5 1008.5,-224.5"/>
<text text-anchor="middle" x="1057.5" y="-231.5" font-family="Helvetica,sans-Serif" font-size="10.00">G4UImanager.hh</text>
</a>
</g>
</g>
<!-- Node42&#45;&gt;Node49 -->
<g id="edge48" class="edge">
<title>Node42&#45;&gt;Node49</title>
<path fill="none" stroke="midnightblue" d="M837.86,-280.44C883.58,-270.98 957.26,-255.74 1006.52,-245.55"/>
<polygon fill="midnightblue" stroke="midnightblue" points="1007.25,-248.97 1016.34,-243.52 1005.84,-242.12 1007.25,-248.97"/>
</g>
<!-- Node43&#45;&gt;Node41 -->
<g id="edge45" class="edge">
<title>Node43&#45;&gt;Node41</title>
<path fill="none" stroke="midnightblue" d="M894.36,-224.32C880.63,-215.9 859.56,-202.97 843.44,-193.07"/>
<polygon fill="midnightblue" stroke="midnightblue" points="844.96,-189.9 834.6,-187.65 841.3,-195.87 844.96,-189.9"/>
</g>
<!-- Node44 -->
<g id="node40" class="node">
<title>Node44</title>
<g id="a_node40"><a xlink:href="_o_m_sim_logger_8hh.html" target="_top" xlink:title=" ">
<polygon fill="white" stroke="black" points="1055,-168.5 1055,-187.5 1154,-187.5 1154,-168.5 1055,-168.5"/>
<text text-anchor="middle" x="1104.5" y="-175.5" font-family="Helvetica,sans-Serif" font-size="10.00">OMSimLogger.hh</text>
</a>
</g>
</g>
<!-- Node43&#45;&gt;Node44 -->
<g id="edge42" class="edge">
<title>Node43&#45;&gt;Node44</title>
<path fill="none" stroke="midnightblue" d="M939.56,-224.44C973.1,-215.2 1026.7,-200.44 1063.64,-190.26"/>
<polygon fill="midnightblue" stroke="midnightblue" points="1064.88,-193.55 1073.59,-187.52 1063.02,-186.8 1064.88,-193.55"/>
</g>
<!-- Node47 -->
<g id="node43" class="node">
<title>Node47</title>
<g id="a_node43"><a xlink:title=" ">
<polygon fill="white" stroke="#bfbfbf" points="866.5,-168.5 866.5,-187.5 950.5,-187.5 950.5,-168.5 866.5,-168.5"/>
<text text-anchor="middle" x="908.5" y="-175.5" font-family="Helvetica,sans-Serif" font-size="10.00">boost/any.hpp</text>
</a>
</g>
</g>
<!-- Node43&#45;&gt;Node47 -->
<g id="edge46" class="edge">
<title>Node43&#45;&gt;Node47</title>
<path fill="none" stroke="midnightblue" d="M908.5,-224.08C908.5,-217.01 908.5,-206.86 908.5,-197.99"/>
<polygon fill="midnightblue" stroke="midnightblue" points="912,-197.75 908.5,-187.75 905,-197.75 912,-197.75"/>
</g>
<!-- Node48 -->
<g id="node44" class="node">
<title>Node48</title>
<g id="a_node44"><a xlink:title=" ">
<polygon fill="white" stroke="#bfbfbf" points="968.5,-168.5 968.5,-187.5 1036.5,-187.5 1036.5,-168.5 968.5,-168.5"/>
<text text-anchor="middle" x="1002.5" y="-175.5" font-family="Helvetica,sans-Serif" font-size="10.00">sys/time.h</text>
</a>
</g>
</g>
<!-- Node43&#45;&gt;Node48 -->
<g id="edge47" class="edge">
<title>Node43&#45;&gt;Node48</title>
<path fill="none" stroke="midnightblue" d="M923.6,-224.32C938.4,-215.82 961.19,-202.73 978.48,-192.8"/>
<polygon fill="midnightblue" stroke="midnightblue" points="980.51,-195.67 987.43,-187.65 977.02,-189.6 980.51,-195.67"/>
</g>
<!-- Node45 -->
<g id="node41" class="node">
<title>Node45</title>
<g id="a_node41"><a xlink:title=" ">
<polygon fill="white" stroke="#bfbfbf" points="1079.5,-112.5 1079.5,-131.5 1129.5,-131.5 1129.5,-112.5 1079.5,-112.5"/>
<text text-anchor="middle" x="1104.5" y="-119.5" font-family="Helvetica,sans-Serif" font-size="10.00">stdio.h</text>
</a>
</g>
</g>
<!-- Node44&#45;&gt;Node45 -->
<g id="edge43" class="edge">
<title>Node44&#45;&gt;Node45</title>
<path fill="none" stroke="midnightblue" d="M1104.5,-168.08C1104.5,-161.01 1104.5,-150.86 1104.5,-141.99"/>
<polygon fill="midnightblue" stroke="midnightblue" points="1108,-141.75 1104.5,-131.75 1101,-141.75 1108,-141.75"/>
</g>
<!-- Node46 -->
<g id="node42" class="node">
<title>Node46</title>
<g id="a_node42"><a xlink:title=" ">
<polygon fill="white" stroke="#bfbfbf" points="1013.5,-112.5 1013.5,-131.5 1061.5,-131.5 1061.5,-112.5 1013.5,-112.5"/>
<text text-anchor="middle" x="1037.5" y="-119.5" font-family="Helvetica,sans-Serif" font-size="10.00">time.h</text>
</a>
</g>
</g>
<!-- Node44&#45;&gt;Node46 -->
<g id="edge44" class="edge">
<title>Node44&#45;&gt;Node46</title>
<path fill="none" stroke="midnightblue" d="M1093.74,-168.32C1083.73,-160.26 1068.61,-148.08 1056.57,-138.37"/>
<polygon fill="midnightblue" stroke="midnightblue" points="1058.44,-135.38 1048.46,-131.83 1054.05,-140.83 1058.44,-135.38"/>
</g>
</g>
</svg>
