<?xml version="1.0" encoding="UTF-8" standalone="no"?>
<!DOCTYPE svg PUBLIC "-//W3C//DTD SVG 1.1//EN"
 "http://www.w3.org/Graphics/SVG/1.1/DTD/svg11.dtd">
<!-- Generated by graphviz version 2.43.0 (0)
 -->
<!-- Title: OMSimDEGG.cc Pages: 1 -->
<svg width="2897pt" height="319pt"
 viewBox="0.00 0.00 2897.11 319.00" xmlns="http://www.w3.org/2000/svg" xmlns:xlink="http://www.w3.org/1999/xlink">
<g id="graph0" class="graph" transform="scale(1 1) rotate(0) translate(4 315)">
<title>OMSimDEGG.cc</title>
<polygon fill="white" stroke="transparent" points="-4,4 -4,-315 2893.11,-315 2893.11,4 -4,4"/>
<!-- Node1 -->
<g id="node1" class="node">
<title>Node1</title>
<g id="a_node1"><a xlink:title="Construction of the DEGG class.">
<polygon fill="#bfbfbf" stroke="black" points="1360.11,-291.5 1360.11,-310.5 1454.11,-310.5 1454.11,-291.5 1360.11,-291.5"/>
<text text-anchor="middle" x="1407.11" y="-298.5" font-family="Helvetica,sans-Serif" font-size="10.00">OMSimDEGG.cc</text>
</a>
</g>
</g>
<!-- Node2 -->
<g id="node2" class="node">
<title>Node2</title>
<g id="a_node2"><a xlink:href="_o_m_sim_d_e_g_g_8hh.html" target="_top" xlink:title=" ">
<polygon fill="white" stroke="black" points="893.61,-235.5 893.61,-254.5 988.61,-254.5 988.61,-235.5 893.61,-235.5"/>
<text text-anchor="middle" x="941.11" y="-242.5" font-family="Helvetica,sans-Serif" font-size="10.00">OMSimDEGG.hh</text>
</a>
</g>
</g>
<!-- Node1&#45;&gt;Node2 -->
<g id="edge1" class="edge">
<title>Node1&#45;&gt;Node2</title>
<path fill="none" stroke="midnightblue" d="M1359.87,-294.53C1273.89,-284.56 1092.16,-263.5 998.93,-252.7"/>
<polygon fill="midnightblue" stroke="midnightblue" points="999.17,-249.2 988.83,-251.53 998.36,-256.16 999.17,-249.2"/>
</g>
<!-- Node3 -->
<g id="node3" class="node">
<title>Node3</title>
<g id="a_node3"><a xlink:href="abc_detector_component_8hh.html" target="_top" xlink:title=" ">
<polygon fill="white" stroke="black" points="518.61,-123.5 518.61,-142.5 665.61,-142.5 665.61,-123.5 518.61,-123.5"/>
<text text-anchor="middle" x="592.11" y="-130.5" font-family="Helvetica,sans-Serif" font-size="10.00">abcDetectorComponent.hh</text>
</a>
</g>
</g>
<!-- Node1&#45;&gt;Node3 -->
<g id="edge43" class="edge">
<title>Node1&#45;&gt;Node3</title>
<path fill="none" stroke="midnightblue" d="M1360.09,-297.9C1268.35,-293.37 1059.2,-280.94 885.11,-255 766.91,-237.39 715.48,-273.6 622.11,-199 607.72,-187.5 599.94,-167.53 595.94,-152.75"/>
<polygon fill="midnightblue" stroke="midnightblue" points="599.26,-151.62 593.56,-142.69 592.45,-153.22 599.26,-151.62"/>
</g>
<!-- Node4 -->
<g id="node4" class="node">
<title>Node4</title>
<g id="a_node4"><a xlink:title=" ">
<polygon fill="white" stroke="#bfbfbf" points="1010.11,-67.5 1010.11,-86.5 1126.11,-86.5 1126.11,-67.5 1010.11,-67.5"/>
<text text-anchor="middle" x="1068.11" y="-74.5" font-family="Helvetica,sans-Serif" font-size="10.00">G4LogicalVolume.hh</text>
</a>
</g>
</g>
<!-- Node1&#45;&gt;Node4 -->
<g id="edge54" class="edge">
<title>Node1&#45;&gt;Node4</title>
<path fill="none" stroke="midnightblue" d="M1405.13,-291.43C1403.15,-282.42 1400.24,-267.8 1399.11,-255 1394.71,-205.08 1408.6,-192.99 1412.11,-143 1412.74,-134.13 1417.98,-129.68 1412.11,-123 1403.11,-112.74 1234.26,-94.44 1136.54,-84.63"/>
<polygon fill="midnightblue" stroke="midnightblue" points="1136.74,-81.14 1126.44,-83.62 1136.04,-88.1 1136.74,-81.14"/>
</g>
<!-- Node5 -->
<g id="node5" class="node">
<title>Node5</title>
<g id="a_node5"><a xlink:title=" ">
<polygon fill="white" stroke="#bfbfbf" points="697.61,-6 697.61,-25 816.61,-25 816.61,-6 697.61,-6"/>
<text text-anchor="middle" x="757.11" y="-13" font-family="Helvetica,sans-Serif" font-size="10.00">G4SystemOfUnits.hh</text>
</a>
</g>
</g>
<!-- Node1&#45;&gt;Node5 -->
<g id="edge59" class="edge">
<title>Node1&#45;&gt;Node5</title>
<path fill="none" stroke="midnightblue" d="M1359.82,-299.41C1172.42,-296.87 481.72,-285.61 265.11,-255 145.46,-238.09 1.11,-310.84 1.11,-190 1.11,-190 1.11,-190 1.11,-132 1.11,-101.9 -3.34,-85.86 20.11,-67 71.37,-25.77 513.82,-18.19 687.53,-16.81"/>
<polygon fill="midnightblue" stroke="midnightblue" points="687.61,-20.31 697.59,-16.73 687.56,-13.31 687.61,-20.31"/>
</g>
<!-- Node6 -->
<g id="node6" class="node">
<title>Node6</title>
<g id="a_node6"><a xlink:title=" ">
<polygon fill="white" stroke="#bfbfbf" points="29.61,-67.5 29.61,-86.5 136.61,-86.5 136.61,-67.5 29.61,-67.5"/>
<text text-anchor="middle" x="83.11" y="-74.5" font-family="Helvetica,sans-Serif" font-size="10.00">G4Transform3D.hh</text>
</a>
</g>
</g>
<!-- Node1&#45;&gt;Node6 -->
<g id="edge60" class="edge">
<title>Node1&#45;&gt;Node6</title>
<path fill="none" stroke="midnightblue" d="M1359.88,-299.75C1162.77,-298.45 411.38,-291.18 312.11,-255 217.71,-220.59 131.06,-131.94 97.65,-94.78"/>
<polygon fill="midnightblue" stroke="midnightblue" points="99.92,-92.06 90.67,-86.89 94.68,-96.7 99.92,-92.06"/>
</g>
<!-- Node7 -->
<g id="node7" class="node">
<title>Node7</title>
<g id="a_node7"><a xlink:title=" ">
<polygon fill="white" stroke="#bfbfbf" points="427.11,-67.5 427.11,-86.5 535.11,-86.5 535.11,-67.5 427.11,-67.5"/>
<text text-anchor="middle" x="481.11" y="-74.5" font-family="Helvetica,sans-Serif" font-size="10.00">G4VisAttributes.hh</text>
</a>
</g>
</g>
<!-- Node1&#45;&gt;Node7 -->
<g id="edge64" class="edge">
<title>Node1&#45;&gt;Node7</title>
<path fill="none" stroke="midnightblue" d="M1359.98,-299.09C1210.44,-295.94 747.88,-284.03 601.11,-255 452.47,-225.6 366.91,-266.49 279.11,-143 273.96,-135.76 273.55,-129.94 279.11,-123 287.88,-112.06 361.01,-97.74 416.78,-88.22"/>
<polygon fill="midnightblue" stroke="midnightblue" points="417.69,-91.62 426.97,-86.5 416.53,-84.72 417.69,-91.62"/>
</g>
<!-- Node14 -->
<g id="node11" class="node">
<title>Node14</title>
<g id="a_node11"><a xlink:title=" ">
<polygon fill="white" stroke="#bfbfbf" points="283.61,-67.5 283.61,-86.5 408.61,-86.5 408.61,-67.5 283.61,-67.5"/>
<text text-anchor="middle" x="346.11" y="-74.5" font-family="Helvetica,sans-Serif" font-size="10.00">G4SubtractionSolid.hh</text>
</a>
</g>
</g>
<!-- Node1&#45;&gt;Node14 -->
<g id="edge58" class="edge">
<title>Node1&#45;&gt;Node14</title>
<path fill="none" stroke="midnightblue" d="M1360.05,-300.41C1189.13,-301.5 601.85,-301.7 421.11,-255 340.56,-234.19 295.06,-222.68 271.11,-143 268.55,-134.49 266.73,-130.74 271.11,-123 279.46,-108.26 294.77,-97.82 309.4,-90.73"/>
<polygon fill="midnightblue" stroke="midnightblue" points="311.11,-93.8 318.83,-86.55 308.27,-87.4 311.11,-93.8"/>
</g>
<!-- Node15 -->
<g id="node12" class="node">
<title>Node15</title>
<g id="a_node12"><a xlink:title=" ">
<polygon fill="white" stroke="#bfbfbf" points="155.11,-67.5 155.11,-86.5 265.11,-86.5 265.11,-67.5 155.11,-67.5"/>
<text text-anchor="middle" x="210.11" y="-74.5" font-family="Helvetica,sans-Serif" font-size="10.00">G4PVPlacement.hh</text>
</a>
</g>
</g>
<!-- Node1&#45;&gt;Node15 -->
<g id="edge57" class="edge">
<title>Node1&#45;&gt;Node15</title>
<path fill="none" stroke="midnightblue" d="M1359.87,-299.75C1167.02,-298.49 445.1,-291.37 350.11,-255 277.05,-227.02 232.79,-134.99 216.85,-95.86"/>
<polygon fill="midnightblue" stroke="midnightblue" points="220.09,-94.55 213.18,-86.52 213.58,-97.11 220.09,-94.55"/>
</g>
<!-- Node19 -->
<g id="node16" class="node">
<title>Node19</title>
<g id="a_node16"><a xlink:title=" ">
<polygon fill="white" stroke="#bfbfbf" points="288.11,-123.5 288.11,-142.5 386.11,-142.5 386.11,-123.5 288.11,-123.5"/>
<text text-anchor="middle" x="337.11" y="-130.5" font-family="Helvetica,sans-Serif" font-size="10.00">G4UnionSolid.hh</text>
</a>
</g>
</g>
<!-- Node1&#45;&gt;Node19 -->
<g id="edge62" class="edge">
<title>Node1&#45;&gt;Node19</title>
<path fill="none" stroke="midnightblue" d="M1359.74,-298.78C1219.95,-294.91 810.85,-281.57 680.11,-255 558.73,-230.33 421.99,-172.43 364.68,-146.7"/>
<polygon fill="midnightblue" stroke="midnightblue" points="366.11,-143.51 355.56,-142.57 363.22,-149.88 366.11,-143.51"/>
</g>
<!-- Node20 -->
<g id="node17" class="node">
<title>Node20</title>
<g id="a_node17"><a xlink:title=" ">
<polygon fill="white" stroke="#bfbfbf" points="988.61,-123.5 988.61,-142.5 1055.61,-142.5 1055.61,-123.5 988.61,-123.5"/>
<text text-anchor="middle" x="1022.11" y="-130.5" font-family="Helvetica,sans-Serif" font-size="10.00">G4Tubs.hh</text>
</a>
</g>
</g>
<!-- Node1&#45;&gt;Node20 -->
<g id="edge61" class="edge">
<title>Node1&#45;&gt;Node20</title>
<path fill="none" stroke="midnightblue" d="M1359.83,-298.17C1286.75,-292.98 1145.46,-273.29 1056.11,-199 1041.6,-186.93 1032.49,-167.05 1027.4,-152.45"/>
<polygon fill="midnightblue" stroke="midnightblue" points="1030.62,-151 1024.26,-142.52 1023.94,-153.11 1030.62,-151"/>
</g>
<!-- Node23 -->
<g id="node19" class="node">
<title>Node23</title>
<g id="a_node19"><a xlink:title=" ">
<polygon fill="white" stroke="#bfbfbf" points="1188.61,-123.5 1188.61,-142.5 1315.61,-142.5 1315.61,-123.5 1188.61,-123.5"/>
<text text-anchor="middle" x="1252.11" y="-130.5" font-family="Helvetica,sans-Serif" font-size="10.00">G4IntersectionSolid.hh</text>
</a>
</g>
</g>
<!-- Node1&#45;&gt;Node23 -->
<g id="edge51" class="edge">
<title>Node1&#45;&gt;Node23</title>
<path fill="none" stroke="midnightblue" d="M1396.58,-291.43C1385.99,-282.66 1369.39,-268.45 1356.11,-255 1321.26,-219.69 1284.26,-174.56 1265.19,-150.63"/>
<polygon fill="midnightblue" stroke="midnightblue" points="1267.75,-148.23 1258.8,-142.56 1262.26,-152.58 1267.75,-148.23"/>
</g>
<!-- Node24 -->
<g id="node20" class="node">
<title>Node24</title>
<g id="a_node20"><a xlink:title=" ">
<polygon fill="white" stroke="#bfbfbf" points="1333.61,-123.5 1333.61,-142.5 1402.61,-142.5 1402.61,-123.5 1333.61,-123.5"/>
<text text-anchor="middle" x="1368.11" y="-130.5" font-family="Helvetica,sans-Serif" font-size="10.00">G4Cons.hh</text>
</a>
</g>
</g>
<!-- Node1&#45;&gt;Node24 -->
<g id="edge47" class="edge">
<title>Node1&#45;&gt;Node24</title>
<path fill="none" stroke="midnightblue" d="M1395.57,-291.49C1385.63,-283.38 1371.99,-270.18 1366.11,-255 1352.88,-220.83 1358.6,-177.07 1363.6,-152.64"/>
<polygon fill="midnightblue" stroke="midnightblue" points="1367.08,-153.12 1365.84,-142.6 1360.24,-151.6 1367.08,-153.12"/>
</g>
<!-- Node25 -->
<g id="node21" class="node">
<title>Node25</title>
<g id="a_node21"><a xlink:href="_o_m_sim_d_e_g_g_harness_8hh.html" target="_top" xlink:title=" ">
<polygon fill="white" stroke="black" points="1064.61,-179.5 1064.61,-198.5 1199.61,-198.5 1199.61,-179.5 1064.61,-179.5"/>
<text text-anchor="middle" x="1132.11" y="-186.5" font-family="Helvetica,sans-Serif" font-size="10.00">OMSimDEGGHarness.hh</text>
</a>
</g>
</g>
<!-- Node1&#45;&gt;Node25 -->
<g id="edge34" class="edge">
<title>Node1&#45;&gt;Node25</title>
<path fill="none" stroke="midnightblue" d="M1384.18,-291.36C1360.55,-282.41 1322.67,-267.96 1290.11,-255 1245.35,-237.19 1193.79,-215.81 1162.07,-202.57"/>
<polygon fill="midnightblue" stroke="midnightblue" points="1163.08,-199.19 1152.5,-198.57 1160.38,-205.65 1163.08,-199.19"/>
</g>
<!-- Node26 -->
<g id="node22" class="node">
<title>Node26</title>
<g id="a_node22"><a xlink:title=" ">
<polygon fill="white" stroke="#bfbfbf" points="1408.11,-235.5 1408.11,-254.5 1462.11,-254.5 1462.11,-235.5 1408.11,-235.5"/>
<text text-anchor="middle" x="1435.11" y="-242.5" font-family="Helvetica,sans-Serif" font-size="10.00">dirent.h</text>
</a>
</g>
</g>
<!-- Node1&#45;&gt;Node26 -->
<g id="edge44" class="edge">
<title>Node1&#45;&gt;Node26</title>
<path fill="none" stroke="midnightblue" d="M1411.74,-291.08C1415.57,-283.69 1421.14,-272.95 1425.88,-263.81"/>
<polygon fill="midnightblue" stroke="midnightblue" points="1429.08,-265.24 1430.58,-254.75 1422.87,-262.02 1429.08,-265.24"/>
</g>
<!-- Node27 -->
<g id="node23" class="node">
<title>Node27</title>
<g id="a_node23"><a xlink:title=" ">
<polygon fill="white" stroke="#bfbfbf" points="1480.61,-235.5 1480.61,-254.5 1545.61,-254.5 1545.61,-235.5 1480.61,-235.5"/>
<text text-anchor="middle" x="1513.11" y="-242.5" font-family="Helvetica,sans-Serif" font-size="10.00">stdexcept</text>
</a>
</g>
</g>
<!-- Node1&#45;&gt;Node27 -->
<g id="edge45" class="edge">
<title>Node1&#45;&gt;Node27</title>
<path fill="none" stroke="midnightblue" d="M1424.14,-291.32C1441.14,-282.66 1467.49,-269.24 1487.11,-259.25"/>
<polygon fill="midnightblue" stroke="midnightblue" points="1488.8,-262.31 1496.12,-254.65 1485.63,-256.08 1488.8,-262.31"/>
</g>
<!-- Node28 -->
<g id="node24" class="node">
<title>Node28</title>
<g id="a_node24"><a xlink:title=" ">
<polygon fill="white" stroke="#bfbfbf" points="1563.61,-235.5 1563.61,-254.5 1612.61,-254.5 1612.61,-235.5 1563.61,-235.5"/>
<text text-anchor="middle" x="1588.11" y="-242.5" font-family="Helvetica,sans-Serif" font-size="10.00">cstdlib</text>
</a>
</g>
</g>
<!-- Node1&#45;&gt;Node28 -->
<g id="edge46" class="edge">
<title>Node1&#45;&gt;Node28</title>
<path fill="none" stroke="midnightblue" d="M1435.79,-291.44C1467.68,-281.93 1519.19,-266.56 1553.35,-256.37"/>
<polygon fill="midnightblue" stroke="midnightblue" points="1554.77,-259.6 1563.35,-253.39 1552.76,-252.89 1554.77,-259.6"/>
</g>
<!-- Node29 -->
<g id="node25" class="node">
<title>Node29</title>
<g id="a_node25"><a xlink:title=" ">
<polygon fill="white" stroke="#bfbfbf" points="1631.11,-235.5 1631.11,-254.5 1717.11,-254.5 1717.11,-235.5 1631.11,-235.5"/>
<text text-anchor="middle" x="1674.11" y="-242.5" font-family="Helvetica,sans-Serif" font-size="10.00">G4Ellipsoid.hh</text>
</a>
</g>
</g>
<!-- Node1&#45;&gt;Node29 -->
<g id="edge48" class="edge">
<title>Node1&#45;&gt;Node29</title>
<path fill="none" stroke="midnightblue" d="M1449.42,-291.44C1496.19,-281.98 1571.57,-266.74 1621.96,-256.55"/>
<polygon fill="midnightblue" stroke="midnightblue" points="1622.9,-259.93 1632,-254.52 1621.51,-253.07 1622.9,-259.93"/>
</g>
<!-- Node30 -->
<g id="node26" class="node">
<title>Node30</title>
<g id="a_node26"><a xlink:title=" ">
<polygon fill="white" stroke="#bfbfbf" points="1735.11,-235.5 1735.11,-254.5 1845.11,-254.5 1845.11,-235.5 1735.11,-235.5"/>
<text text-anchor="middle" x="1790.11" y="-242.5" font-family="Helvetica,sans-Serif" font-size="10.00">G4EllipticalTube.hh</text>
</a>
</g>
</g>
<!-- Node1&#45;&gt;Node30 -->
<g id="edge49" class="edge">
<title>Node1&#45;&gt;Node30</title>
<path fill="none" stroke="midnightblue" d="M1454.46,-293.32C1522.46,-283.74 1648.01,-266.04 1724.79,-255.21"/>
<polygon fill="midnightblue" stroke="midnightblue" points="1725.41,-258.66 1734.83,-253.79 1724.44,-251.73 1725.41,-258.66"/>
</g>
<!-- Node31 -->
<g id="node27" class="node">
<title>Node31</title>
<g id="a_node27"><a xlink:title=" ">
<polygon fill="white" stroke="#bfbfbf" points="1863.61,-235.5 1863.61,-254.5 1942.61,-254.5 1942.61,-235.5 1863.61,-235.5"/>
<text text-anchor="middle" x="1903.11" y="-242.5" font-family="Helvetica,sans-Serif" font-size="10.00">G4Sphere.hh</text>
</a>
</g>
</g>
<!-- Node1&#45;&gt;Node31 -->
<g id="edge50" class="edge">
<title>Node1&#45;&gt;Node31</title>
<path fill="none" stroke="midnightblue" d="M1454.24,-296.52C1534.16,-290.35 1701.54,-276.23 1853.59,-254.96"/>
<polygon fill="midnightblue" stroke="midnightblue" points="1854.17,-258.41 1863.58,-253.55 1853.19,-251.48 1854.17,-258.41"/>
</g>
<!-- Node32 -->
<g id="node28" class="node">
<title>Node32</title>
<g id="a_node28"><a xlink:title=" ">
<polygon fill="white" stroke="#bfbfbf" points="1960.61,-235.5 1960.61,-254.5 2109.61,-254.5 2109.61,-235.5 1960.61,-235.5"/>
<text text-anchor="middle" x="2035.11" y="-242.5" font-family="Helvetica,sans-Serif" font-size="10.00">G4LogicalBorderSurface.hh</text>
</a>
</g>
</g>
<!-- Node1&#45;&gt;Node32 -->
<g id="edge52" class="edge">
<title>Node1&#45;&gt;Node32</title>
<path fill="none" stroke="midnightblue" d="M1454.17,-296.52C1546.97,-289.58 1760.38,-273.17 1950.29,-255.15"/>
<polygon fill="midnightblue" stroke="midnightblue" points="1950.84,-258.62 1960.47,-254.19 1950.18,-251.65 1950.84,-258.62"/>
</g>
<!-- Node33 -->
<g id="node29" class="node">
<title>Node33</title>
<g id="a_node29"><a xlink:title=" ">
<polygon fill="white" stroke="#bfbfbf" points="2127.61,-235.5 2127.61,-254.5 2264.61,-254.5 2264.61,-235.5 2127.61,-235.5"/>
<text text-anchor="middle" x="2196.11" y="-242.5" font-family="Helvetica,sans-Serif" font-size="10.00">G4LogicalSkinSurface.hh</text>
</a>
</g>
</g>
<!-- Node1&#45;&gt;Node33 -->
<g id="edge53" class="edge">
<title>Node1&#45;&gt;Node33</title>
<path fill="none" stroke="midnightblue" d="M1454.25,-297.89C1566.95,-292.66 1861.11,-277.9 2117.05,-255.15"/>
<polygon fill="midnightblue" stroke="midnightblue" points="2117.64,-258.61 2127.28,-254.23 2117.01,-251.63 2117.64,-258.61"/>
</g>
<!-- Node34 -->
<g id="node30" class="node">
<title>Node34</title>
<g id="a_node30"><a xlink:title=" ">
<polygon fill="white" stroke="#bfbfbf" points="2283.11,-235.5 2283.11,-254.5 2345.11,-254.5 2345.11,-235.5 2283.11,-235.5"/>
<text text-anchor="middle" x="2314.11" y="-242.5" font-family="Helvetica,sans-Serif" font-size="10.00">G4Orb.hh</text>
</a>
</g>
</g>
<!-- Node1&#45;&gt;Node34 -->
<g id="edge55" class="edge">
<title>Node1&#45;&gt;Node34</title>
<path fill="none" stroke="midnightblue" d="M1454.37,-300.35C1583.88,-300.71 1955.43,-297.75 2272.45,-254.99"/>
<polygon fill="midnightblue" stroke="midnightblue" points="2273.33,-258.4 2282.76,-253.58 2272.38,-251.47 2273.33,-258.4"/>
</g>
<!-- Node35 -->
<g id="node31" class="node">
<title>Node35</title>
<g id="a_node31"><a xlink:title=" ">
<polygon fill="white" stroke="#bfbfbf" points="2363.61,-235.5 2363.61,-254.5 2452.61,-254.5 2452.61,-235.5 2363.61,-235.5"/>
<text text-anchor="middle" x="2408.11" y="-242.5" font-family="Helvetica,sans-Serif" font-size="10.00">G4Polycone.hh</text>
</a>
</g>
</g>
<!-- Node1&#45;&gt;Node35 -->
<g id="edge56" class="edge">
<title>Node1&#45;&gt;Node35</title>
<path fill="none" stroke="midnightblue" d="M1454.56,-299.72C1592.03,-298.47 2002.5,-291.81 2353.28,-254.94"/>
<polygon fill="midnightblue" stroke="midnightblue" points="2353.8,-258.41 2363.38,-253.87 2353.07,-251.45 2353.8,-258.41"/>
</g>
<!-- Node36 -->
<g id="node32" class="node">
<title>Node36</title>
<g id="a_node32"><a xlink:title=" ">
<polygon fill="white" stroke="#bfbfbf" points="2471.11,-235.5 2471.11,-254.5 2567.11,-254.5 2567.11,-235.5 2471.11,-235.5"/>
<text text-anchor="middle" x="2519.11" y="-242.5" font-family="Helvetica,sans-Serif" font-size="10.00">G4UnitsTable.hh</text>
</a>
</g>
</g>
<!-- Node1&#45;&gt;Node36 -->
<g id="edge63" class="edge">
<title>Node1&#45;&gt;Node36</title>
<path fill="none" stroke="midnightblue" d="M1454.31,-299.9C1601.63,-299.19 2066.22,-293.86 2460.78,-255.01"/>
<polygon fill="midnightblue" stroke="midnightblue" points="2461.36,-258.47 2470.96,-254 2460.66,-251.5 2461.36,-258.47"/>
</g>
<!-- Node37 -->
<g id="node33" class="node">
<title>Node37</title>
<g id="a_node33"><a xlink:title=" ">
<polygon fill="white" stroke="#bfbfbf" points="2585.61,-235.5 2585.61,-254.5 2656.61,-254.5 2656.61,-235.5 2585.61,-235.5"/>
<text text-anchor="middle" x="2621.11" y="-242.5" font-family="Helvetica,sans-Serif" font-size="10.00">G4Torus.hh</text>
</a>
</g>
</g>
<!-- Node1&#45;&gt;Node37 -->
<g id="edge65" class="edge">
<title>Node1&#45;&gt;Node37</title>
<path fill="none" stroke="midnightblue" d="M1454.19,-299.19C1641.28,-295.81 2333.26,-281.81 2575.19,-254.86"/>
<polygon fill="midnightblue" stroke="midnightblue" points="2575.8,-258.31 2585.33,-253.69 2575,-251.36 2575.8,-258.31"/>
</g>
<!-- Node38 -->
<g id="node34" class="node">
<title>Node38</title>
<g id="a_node34"><a xlink:href="_c_a_d_mesh_8hh.html" target="_top" xlink:title=" ">
<polygon fill="white" stroke="black" points="1899.61,-123.5 1899.61,-142.5 1978.61,-142.5 1978.61,-123.5 1899.61,-123.5"/>
<text text-anchor="middle" x="1939.11" y="-130.5" font-family="Helvetica,sans-Serif" font-size="10.00">CADMesh.hh</text>
</a>
</g>
</g>
<!-- Node1&#45;&gt;Node38 -->
<g id="edge66" class="edge">
<title>Node1&#45;&gt;Node38</title>
<path fill="none" stroke="midnightblue" d="M1454.27,-300.12C1677.99,-300.49 2623.28,-299.39 2666.11,-255 2762.91,-154.68 2168.17,-137.47 1989.04,-134.58"/>
<polygon fill="midnightblue" stroke="midnightblue" points="1988.89,-131.07 1978.84,-134.42 1988.78,-138.07 1988.89,-131.07"/>
</g>
<!-- Node2&#45;&gt;Node3 -->
<g id="edge2" class="edge">
<title>Node2&#45;&gt;Node3</title>
<path fill="none" stroke="midnightblue" d="M893.46,-240.62C821.79,-234.87 690.26,-221.58 649.11,-199 628.85,-187.88 612.33,-166.61 602.39,-151.43"/>
<polygon fill="midnightblue" stroke="midnightblue" points="605.34,-149.54 597.08,-142.91 599.4,-153.25 605.34,-149.54"/>
</g>
<!-- Node2&#45;&gt;Node4 -->
<g id="edge27" class="edge">
<title>Node2&#45;&gt;Node4</title>
<path fill="none" stroke="midnightblue" d="M941.68,-235.3C943.49,-213.77 950.94,-157.29 980.11,-123 992.85,-108.03 1011.8,-97.45 1028.86,-90.33"/>
<polygon fill="midnightblue" stroke="midnightblue" points="1030.57,-93.41 1038.62,-86.52 1028.03,-86.89 1030.57,-93.41"/>
</g>
<!-- Node2&#45;&gt;Node5 -->
<g id="edge28" class="edge">
<title>Node2&#45;&gt;Node5</title>
<path fill="none" stroke="midnightblue" d="M934.12,-235.36C906.8,-201.58 806.91,-78.07 770.5,-33.06"/>
<polygon fill="midnightblue" stroke="midnightblue" points="773.12,-30.72 764.11,-25.15 767.68,-35.13 773.12,-30.72"/>
</g>
<!-- Node8 -->
<g id="node8" class="node">
<title>Node8</title>
<g id="a_node8"><a xlink:href="_o_m_sim_input_data_8hh.html" target="_top" xlink:title=" ">
<polygon fill="white" stroke="red" points="867.61,-67.5 867.61,-86.5 982.61,-86.5 982.61,-67.5 867.61,-67.5"/>
<text text-anchor="middle" x="925.11" y="-74.5" font-family="Helvetica,sans-Serif" font-size="10.00">OMSimInputData.hh</text>
</a>
</g>
</g>
<!-- Node2&#45;&gt;Node8 -->
<g id="edge31" class="edge">
<title>Node2&#45;&gt;Node8</title>
<path fill="none" stroke="midnightblue" d="M940.25,-235.08C937.73,-208.95 930.34,-132.21 926.9,-96.58"/>
<polygon fill="midnightblue" stroke="midnightblue" points="930.38,-96.19 925.94,-86.57 923.41,-96.86 930.38,-96.19"/>
</g>
<!-- Node18 -->
<g id="node15" class="node">
<title>Node18</title>
<g id="a_node15"><a xlink:href="_o_m_sim_p_m_t_construction_8hh.html" target="_top" xlink:title=" ">
<polygon fill="white" stroke="red" points="657.61,-179.5 657.61,-198.5 806.61,-198.5 806.61,-179.5 657.61,-179.5"/>
<text text-anchor="middle" x="732.11" y="-186.5" font-family="Helvetica,sans-Serif" font-size="10.00">OMSimPMTConstruction.hh</text>
</a>
</g>
</g>
<!-- Node2&#45;&gt;Node18 -->
<g id="edge15" class="edge">
<title>Node2&#45;&gt;Node18</title>
<path fill="none" stroke="midnightblue" d="M908,-235.44C872,-226.14 814.34,-211.25 774.93,-201.06"/>
<polygon fill="midnightblue" stroke="midnightblue" points="775.63,-197.63 765.07,-198.52 773.88,-204.41 775.63,-197.63"/>
</g>
<!-- Node2&#45;&gt;Node19 -->
<g id="edge29" class="edge">
<title>Node2&#45;&gt;Node19</title>
<path fill="none" stroke="midnightblue" d="M893.35,-238.53C830.8,-231.08 717.82,-216.63 622.11,-199 535.66,-183.07 435.72,-158.94 380.12,-145"/>
<polygon fill="midnightblue" stroke="midnightblue" points="380.82,-141.57 370.27,-142.52 379.11,-148.35 380.82,-141.57"/>
</g>
<!-- Node2&#45;&gt;Node20 -->
<g id="edge33" class="edge">
<title>Node2&#45;&gt;Node20</title>
<path fill="none" stroke="midnightblue" d="M947.47,-235.37C960.9,-217.14 992.34,-174.43 1009.83,-150.68"/>
<polygon fill="midnightblue" stroke="midnightblue" points="1012.68,-152.72 1015.79,-142.59 1007.04,-148.57 1012.68,-152.72"/>
</g>
<!-- Node2&#45;&gt;Node23 -->
<g id="edge30" class="edge">
<title>Node2&#45;&gt;Node23</title>
<path fill="none" stroke="midnightblue" d="M988.81,-240.55C1055.81,-234.95 1173.56,-222.11 1209.11,-199 1226.26,-187.86 1238.15,-167.22 1245.01,-152.18"/>
<polygon fill="midnightblue" stroke="midnightblue" points="1248.28,-153.42 1248.96,-142.85 1241.84,-150.69 1248.28,-153.42"/>
</g>
<!-- Node2&#45;&gt;Node24 -->
<g id="edge32" class="edge">
<title>Node2&#45;&gt;Node24</title>
<path fill="none" stroke="midnightblue" d="M988.69,-240.92C1047.11,-236.18 1148.71,-224.77 1232.11,-199 1273.53,-186.2 1318.29,-162.75 1344.73,-147.79"/>
<polygon fill="midnightblue" stroke="midnightblue" points="1346.67,-150.71 1353.6,-142.7 1343.18,-144.64 1346.67,-150.71"/>
</g>
<!-- Node3&#45;&gt;Node4 -->
<g id="edge3" class="edge">
<title>Node3&#45;&gt;Node4</title>
<path fill="none" stroke="midnightblue" d="M665.85,-123.84C746.12,-114.92 878.26,-100.15 992.11,-87 994.65,-86.71 997.24,-86.41 999.86,-86.1"/>
<polygon fill="midnightblue" stroke="midnightblue" points="1000.5,-89.55 1010.02,-84.91 999.69,-82.6 1000.5,-89.55"/>
</g>
<!-- Node3&#45;&gt;Node5 -->
<g id="edge4" class="edge">
<title>Node3&#45;&gt;Node5</title>
<path fill="none" stroke="midnightblue" d="M605.52,-123.38C619.32,-114.44 641.39,-99.99 660.11,-87 687.26,-68.17 718.02,-45.59 737.49,-31.15"/>
<polygon fill="midnightblue" stroke="midnightblue" points="739.65,-33.91 745.58,-25.13 735.47,-28.29 739.65,-33.91"/>
</g>
<!-- Node3&#45;&gt;Node6 -->
<g id="edge5" class="edge">
<title>Node3&#45;&gt;Node6</title>
<path fill="none" stroke="midnightblue" d="M518.22,-125.49C431.83,-117.66 284.29,-103.63 147,-87.06"/>
<polygon fill="midnightblue" stroke="midnightblue" points="147.06,-83.54 136.71,-85.81 146.21,-90.49 147.06,-83.54"/>
</g>
<!-- Node3&#45;&gt;Node7 -->
<g id="edge6" class="edge">
<title>Node3&#45;&gt;Node7</title>
<path fill="none" stroke="midnightblue" d="M574.28,-123.32C556.4,-114.62 528.64,-101.12 508.07,-91.11"/>
<polygon fill="midnightblue" stroke="midnightblue" points="509.43,-87.88 498.9,-86.65 506.36,-94.18 509.43,-87.88"/>
</g>
<!-- Node3&#45;&gt;Node8 -->
<g id="edge7" class="edge">
<title>Node3&#45;&gt;Node8</title>
<path fill="none" stroke="midnightblue" d="M644.88,-123.44C703.94,-113.87 799.59,-98.36 862.42,-88.17"/>
<polygon fill="midnightblue" stroke="midnightblue" points="863.28,-91.57 872.6,-86.52 862.16,-84.66 863.28,-91.57"/>
</g>
<!-- Node3&#45;&gt;Node14 -->
<g id="edge11" class="edge">
<title>Node3&#45;&gt;Node14</title>
<path fill="none" stroke="midnightblue" d="M553.13,-123.44C510.22,-114.02 441.17,-98.87 394.74,-88.68"/>
<polygon fill="midnightblue" stroke="midnightblue" points="395.43,-85.24 384.91,-86.52 393.93,-92.08 395.43,-85.24"/>
</g>
<!-- Node3&#45;&gt;Node15 -->
<g id="edge12" class="edge">
<title>Node3&#45;&gt;Node15</title>
<path fill="none" stroke="midnightblue" d="M531.58,-123.44C461.8,-113.58 347.52,-97.42 275.68,-87.27"/>
<polygon fill="midnightblue" stroke="midnightblue" points="275.79,-83.75 265.4,-85.82 274.81,-90.68 275.79,-83.75"/>
</g>
<!-- Node16 -->
<g id="node13" class="node">
<title>Node16</title>
<g id="a_node13"><a xlink:title=" ">
<polygon fill="white" stroke="#bfbfbf" points="553.11,-67.5 553.11,-86.5 651.11,-86.5 651.11,-67.5 553.11,-67.5"/>
<text text-anchor="middle" x="602.11" y="-74.5" font-family="Helvetica,sans-Serif" font-size="10.00">G4MultiUnion.hh</text>
</a>
</g>
</g>
<!-- Node3&#45;&gt;Node16 -->
<g id="edge13" class="edge">
<title>Node3&#45;&gt;Node16</title>
<path fill="none" stroke="midnightblue" d="M593.76,-123.08C595.09,-115.93 597,-105.64 598.65,-96.69"/>
<polygon fill="midnightblue" stroke="midnightblue" points="602.11,-97.22 600.49,-86.75 595.23,-95.95 602.11,-97.22"/>
</g>
<!-- Node17 -->
<g id="node14" class="node">
<title>Node17</title>
<g id="a_node14"><a xlink:title=" ">
<polygon fill="white" stroke="#bfbfbf" points="1186.11,-67.5 1186.11,-86.5 1242.11,-86.5 1242.11,-67.5 1186.11,-67.5"/>
<text text-anchor="middle" x="1214.11" y="-74.5" font-family="Helvetica,sans-Serif" font-size="10.00">sstream</text>
</a>
</g>
</g>
<!-- Node3&#45;&gt;Node17 -->
<g id="edge14" class="edge">
<title>Node3&#45;&gt;Node17</title>
<path fill="none" stroke="midnightblue" d="M665.95,-126.6C770.48,-118.8 967.54,-103.48 1135.11,-87 1148.45,-85.69 1163.02,-84.08 1175.99,-82.58"/>
<polygon fill="midnightblue" stroke="midnightblue" points="1176.45,-86.05 1185.98,-81.42 1175.64,-79.1 1176.45,-86.05"/>
</g>
<!-- Node8&#45;&gt;Node5 -->
<g id="edge10" class="edge">
<title>Node8&#45;&gt;Node5</title>
<path fill="none" stroke="midnightblue" d="M901.04,-67.48C872.1,-57.22 823.35,-39.96 790.71,-28.4"/>
<polygon fill="midnightblue" stroke="midnightblue" points="791.73,-25.05 781.14,-25.01 789.4,-31.65 791.73,-25.05"/>
</g>
<!-- Node9 -->
<g id="node9" class="node">
<title>Node9</title>
<g id="a_node9"><a xlink:title=" ">
<polygon fill="white" stroke="#bfbfbf" points="847.61,-0.5 847.61,-30.5 960.61,-30.5 960.61,-0.5 847.61,-0.5"/>
<text text-anchor="start" x="855.61" y="-18.5" font-family="Helvetica,sans-Serif" font-size="10.00">boost/property_tree</text>
<text text-anchor="middle" x="904.11" y="-7.5" font-family="Helvetica,sans-Serif" font-size="10.00">/ptree.hpp</text>
</a>
</g>
</g>
<!-- Node8&#45;&gt;Node9 -->
<g id="edge8" class="edge">
<title>Node8&#45;&gt;Node9</title>
<path fill="none" stroke="midnightblue" d="M922.1,-67.48C919.58,-60.32 915.85,-49.75 912.44,-40.08"/>
<polygon fill="midnightblue" stroke="midnightblue" points="915.69,-38.79 909.06,-30.52 909.09,-41.12 915.69,-38.79"/>
</g>
<!-- Node11 -->
<g id="node10" class="node">
<title>Node11</title>
<g id="a_node10"><a xlink:title=" ">
<polygon fill="white" stroke="#bfbfbf" points="1401.11,-6 1401.11,-25 1487.11,-25 1487.11,-6 1401.11,-6"/>
<text text-anchor="middle" x="1444.11" y="-13" font-family="Helvetica,sans-Serif" font-size="10.00">G4Material.hh</text>
</a>
</g>
</g>
<!-- Node8&#45;&gt;Node11 -->
<g id="edge9" class="edge">
<title>Node8&#45;&gt;Node11</title>
<path fill="none" stroke="midnightblue" d="M982.79,-69.14C988.97,-68.42 995.17,-67.69 1001.11,-67 1141.91,-50.64 1307.94,-31.85 1391.07,-22.47"/>
<polygon fill="midnightblue" stroke="midnightblue" points="1391.49,-25.95 1401.03,-21.35 1390.7,-18.99 1391.49,-25.95"/>
</g>
<!-- Node18&#45;&gt;Node3 -->
<g id="edge17" class="edge">
<title>Node18&#45;&gt;Node3</title>
<path fill="none" stroke="midnightblue" d="M709.93,-179.44C686.68,-170.48 649.96,-156.31 623.7,-146.18"/>
<polygon fill="midnightblue" stroke="midnightblue" points="624.78,-142.85 614.19,-142.52 622.26,-149.38 624.78,-142.85"/>
</g>
<!-- Node18&#45;&gt;Node4 -->
<g id="edge18" class="edge">
<title>Node18&#45;&gt;Node4</title>
<path fill="none" stroke="midnightblue" d="M743.93,-179.48C766.15,-163.61 813.57,-130.46 832.11,-123 861.97,-110.99 941.59,-97.11 1000.13,-87.97"/>
<polygon fill="midnightblue" stroke="midnightblue" points="1000.72,-91.42 1010.06,-86.44 999.65,-84.51 1000.72,-91.42"/>
</g>
<!-- Node18&#45;&gt;Node5 -->
<g id="edge19" class="edge">
<title>Node18&#45;&gt;Node5</title>
<path fill="none" stroke="midnightblue" d="M728.01,-179.21C722.7,-166.75 714.53,-143.23 718.11,-123 723.88,-90.49 738.82,-54.88 748.45,-34.18"/>
<polygon fill="midnightblue" stroke="midnightblue" points="751.66,-35.58 752.8,-25.05 745.34,-32.57 751.66,-35.58"/>
</g>
<!-- Node18&#45;&gt;Node7 -->
<g id="edge21" class="edge">
<title>Node18&#45;&gt;Node7</title>
<path fill="none" stroke="midnightblue" d="M657.52,-180.42C601.84,-173.41 531.66,-161.29 509.11,-143 494.97,-131.53 487.82,-111.55 484.3,-96.76"/>
<polygon fill="midnightblue" stroke="midnightblue" points="487.68,-95.8 482.27,-86.69 480.82,-97.19 487.68,-95.8"/>
</g>
<!-- Node18&#45;&gt;Node8 -->
<g id="edge24" class="edge">
<title>Node18&#45;&gt;Node8</title>
<path fill="none" stroke="midnightblue" d="M738.33,-179.14C748.49,-165.29 769.95,-138.48 794.11,-123 818.69,-107.25 849.41,-96.32 874.93,-89.18"/>
<polygon fill="midnightblue" stroke="midnightblue" points="876.04,-92.5 884.79,-86.53 874.22,-85.74 876.04,-92.5"/>
</g>
<!-- Node18&#45;&gt;Node9 -->
<g id="edge16" class="edge">
<title>Node18&#45;&gt;Node9</title>
<path fill="none" stroke="midnightblue" d="M735.42,-179.31C740.71,-166.15 752.05,-140.81 767.11,-123 797.44,-87.14 841.62,-55.47 871.55,-36.18"/>
<polygon fill="midnightblue" stroke="midnightblue" points="873.78,-38.91 880.35,-30.59 870.03,-33 873.78,-38.91"/>
</g>
<!-- Node18&#45;&gt;Node14 -->
<g id="edge22" class="edge">
<title>Node18&#45;&gt;Node14</title>
<path fill="none" stroke="midnightblue" d="M661.92,-179.49C613.03,-172.47 546.69,-160.74 490.11,-143 446.8,-129.42 399.31,-106.23 371.14,-91.54"/>
<polygon fill="midnightblue" stroke="midnightblue" points="372.5,-88.3 362.03,-86.72 369.23,-94.49 372.5,-88.3"/>
</g>
<!-- Node18&#45;&gt;Node15 -->
<g id="edge23" class="edge">
<title>Node18&#45;&gt;Node15</title>
<path fill="none" stroke="midnightblue" d="M657.41,-183.44C596.2,-178.13 507.94,-166.8 434.11,-143 415.57,-137.02 413.37,-129.79 395.11,-123 353.91,-107.67 305.59,-96.12 268.66,-88.57"/>
<polygon fill="midnightblue" stroke="midnightblue" points="269.06,-85.07 258.57,-86.54 267.68,-91.94 269.06,-85.07"/>
</g>
<!-- Node18&#45;&gt;Node19 -->
<g id="edge20" class="edge">
<title>Node18&#45;&gt;Node19</title>
<path fill="none" stroke="midnightblue" d="M668.14,-179.47C601.27,-170.52 493.3,-155.97 400.11,-143 398.85,-142.82 397.58,-142.65 396.29,-142.47"/>
<polygon fill="midnightblue" stroke="midnightblue" points="396.68,-138.99 386.29,-141.06 395.7,-145.92 396.68,-138.99"/>
</g>
<!-- Node18&#45;&gt;Node20 -->
<g id="edge25" class="edge">
<title>Node18&#45;&gt;Node20</title>
<path fill="none" stroke="midnightblue" d="M778.06,-179.44C833.13,-169.19 924.7,-152.14 978.64,-142.09"/>
<polygon fill="midnightblue" stroke="midnightblue" points="979.39,-145.52 988.58,-140.24 978.11,-138.63 979.39,-145.52"/>
</g>
<!-- Node22 -->
<g id="node18" class="node">
<title>Node22</title>
<g id="a_node18"><a xlink:title=" ">
<polygon fill="white" stroke="#bfbfbf" points="1260.11,-67.5 1260.11,-86.5 1298.11,-86.5 1298.11,-67.5 1260.11,-67.5"/>
<text text-anchor="middle" x="1279.11" y="-74.5" font-family="Helvetica,sans-Serif" font-size="10.00">map</text>
</a>
</g>
</g>
<!-- Node18&#45;&gt;Node22 -->
<g id="edge26" class="edge">
<title>Node18&#45;&gt;Node22</title>
<path fill="none" stroke="midnightblue" d="M760.12,-179.44C805.78,-165.76 899.32,-138.89 980.11,-123 1096.19,-100.17 1130.77,-112.98 1250.08,-86.86"/>
<polygon fill="midnightblue" stroke="midnightblue" points="1250.96,-90.25 1259.96,-84.66 1249.44,-83.42 1250.96,-90.25"/>
</g>
<!-- Node25&#45;&gt;Node3 -->
<g id="edge35" class="edge">
<title>Node25&#45;&gt;Node3</title>
<path fill="none" stroke="midnightblue" d="M1064.54,-181.24C965.98,-171.39 782.92,-153.08 675.92,-142.38"/>
<polygon fill="midnightblue" stroke="midnightblue" points="676.1,-138.88 665.8,-141.37 675.41,-145.85 676.1,-138.88"/>
</g>
<!-- Node25&#45;&gt;Node4 -->
<g id="edge36" class="edge">
<title>Node25&#45;&gt;Node4</title>
<path fill="none" stroke="midnightblue" d="M1127.99,-179.43C1121.86,-166.84 1109.8,-142.72 1098.11,-123 1092.55,-113.61 1085.85,-103.47 1080.2,-95.19"/>
<polygon fill="midnightblue" stroke="midnightblue" points="1082.95,-93.01 1074.37,-86.79 1077.19,-97 1082.95,-93.01"/>
</g>
<!-- Node25&#45;&gt;Node5 -->
<g id="edge37" class="edge">
<title>Node25&#45;&gt;Node5</title>
<path fill="none" stroke="midnightblue" d="M1135.82,-179.35C1144.57,-157.44 1163.68,-99.25 1135.11,-67 1091.18,-17.4 904.65,-40.77 839.11,-31 830.69,-29.74 821.79,-28.3 813.09,-26.81"/>
<polygon fill="midnightblue" stroke="midnightblue" points="813.46,-23.33 803.01,-25.07 812.27,-30.22 813.46,-23.33"/>
</g>
<!-- Node25&#45;&gt;Node8 -->
<g id="edge40" class="edge">
<title>Node25&#45;&gt;Node8</title>
<path fill="none" stroke="midnightblue" d="M1125.26,-179.11C1114.11,-165.21 1090.68,-138.35 1065.11,-123 1038.5,-107.03 1005.59,-96.08 978.37,-88.98"/>
<polygon fill="midnightblue" stroke="midnightblue" points="979.17,-85.57 968.62,-86.54 977.47,-92.36 979.17,-85.57"/>
</g>
<!-- Node25&#45;&gt;Node19 -->
<g id="edge38" class="edge">
<title>Node25&#45;&gt;Node19</title>
<path fill="none" stroke="midnightblue" d="M1064.33,-183.4C911.24,-173 540.82,-147.84 396.28,-138.02"/>
<polygon fill="midnightblue" stroke="midnightblue" points="396.48,-134.52 386.27,-137.34 396.01,-141.51 396.48,-134.52"/>
</g>
<!-- Node25&#45;&gt;Node20 -->
<g id="edge42" class="edge">
<title>Node25&#45;&gt;Node20</title>
<path fill="none" stroke="midnightblue" d="M1114.44,-179.32C1096.72,-170.62 1069.21,-157.12 1048.82,-147.11"/>
<polygon fill="midnightblue" stroke="midnightblue" points="1050.26,-143.92 1039.74,-142.65 1047.18,-150.2 1050.26,-143.92"/>
</g>
<!-- Node25&#45;&gt;Node23 -->
<g id="edge39" class="edge">
<title>Node25&#45;&gt;Node23</title>
<path fill="none" stroke="midnightblue" d="M1151.13,-179.44C1170.7,-170.64 1201.42,-156.81 1223.84,-146.72"/>
<polygon fill="midnightblue" stroke="midnightblue" points="1225.5,-149.81 1233.19,-142.52 1222.63,-143.43 1225.5,-149.81"/>
</g>
<!-- Node25&#45;&gt;Node24 -->
<g id="edge41" class="edge">
<title>Node25&#45;&gt;Node24</title>
<path fill="none" stroke="midnightblue" d="M1169.51,-179.44C1211.35,-169.87 1279.09,-154.37 1323.62,-144.18"/>
<polygon fill="midnightblue" stroke="midnightblue" points="1324.61,-147.54 1333.58,-141.9 1323.05,-140.72 1324.61,-147.54"/>
</g>
<!-- Node38&#45;&gt;Node4 -->
<g id="edge77" class="edge">
<title>Node38&#45;&gt;Node4</title>
<path fill="none" stroke="midnightblue" d="M1899.43,-129.98C1786.45,-124.18 1453.39,-106.56 1177.11,-87 1163.98,-86.07 1149.97,-84.98 1136.51,-83.89"/>
<polygon fill="midnightblue" stroke="midnightblue" points="1136.61,-80.39 1126.36,-83.06 1136.04,-87.37 1136.61,-80.39"/>
</g>
<!-- Node38&#45;&gt;Node11 -->
<g id="edge78" class="edge">
<title>Node38&#45;&gt;Node11</title>
<path fill="none" stroke="midnightblue" d="M1931.27,-123.47C1917.45,-109.06 1887.17,-80.19 1855.11,-67 1791.53,-40.83 1593.51,-25.58 1497.45,-19.53"/>
<polygon fill="midnightblue" stroke="midnightblue" points="1497.56,-16.03 1487.36,-18.91 1497.13,-23.02 1497.56,-16.03"/>
</g>
<!-- Node38&#45;&gt;Node17 -->
<g id="edge84" class="edge">
<title>Node38&#45;&gt;Node17</title>
<path fill="none" stroke="midnightblue" d="M1899.3,-131.8C1794.66,-130.76 1503.26,-124.58 1252.33,-86.91"/>
<polygon fill="midnightblue" stroke="midnightblue" points="1252.71,-83.43 1242.29,-85.39 1251.65,-90.35 1252.71,-83.43"/>
</g>
<!-- Node38&#45;&gt;Node22 -->
<g id="edge69" class="edge">
<title>Node38&#45;&gt;Node22</title>
<path fill="none" stroke="midnightblue" d="M1899.58,-132.31C1799.58,-132.43 1528.83,-128.55 1308.11,-87 1308.01,-86.98 1307.91,-86.96 1307.81,-86.94"/>
<polygon fill="midnightblue" stroke="midnightblue" points="1308.84,-83.59 1298.3,-84.63 1307.19,-90.39 1308.84,-83.59"/>
</g>
<!-- Node39 -->
<g id="node35" class="node">
<title>Node39</title>
<g id="a_node35"><a xlink:title=" ">
<polygon fill="white" stroke="#bfbfbf" points="1902.11,-67.5 1902.11,-86.5 1976.11,-86.5 1976.11,-67.5 1902.11,-67.5"/>
<text text-anchor="middle" x="1939.11" y="-74.5" font-family="Helvetica,sans-Serif" font-size="10.00">G4String.hh</text>
</a>
</g>
</g>
<!-- Node38&#45;&gt;Node39 -->
<g id="edge67" class="edge">
<title>Node38&#45;&gt;Node39</title>
<path fill="none" stroke="midnightblue" d="M1939.11,-123.08C1939.11,-116.01 1939.11,-105.86 1939.11,-96.99"/>
<polygon fill="midnightblue" stroke="midnightblue" points="1942.61,-96.75 1939.11,-86.75 1935.61,-96.75 1942.61,-96.75"/>
</g>
<!-- Node40 -->
<g id="node36" class="node">
<title>Node40</title>
<g id="a_node36"><a xlink:title=" ">
<polygon fill="white" stroke="#bfbfbf" points="1994.11,-67.5 1994.11,-86.5 2058.11,-86.5 2058.11,-67.5 1994.11,-67.5"/>
<text text-anchor="middle" x="2026.11" y="-74.5" font-family="Helvetica,sans-Serif" font-size="10.00">algorithm</text>
</a>
</g>
</g>
<!-- Node38&#45;&gt;Node40 -->
<g id="edge68" class="edge">
<title>Node38&#45;&gt;Node40</title>
<path fill="none" stroke="midnightblue" d="M1953.09,-123.32C1966.66,-114.9 1987.49,-101.97 2003.44,-92.07"/>
<polygon fill="midnightblue" stroke="midnightblue" points="2005.52,-94.9 2012.17,-86.65 2001.83,-88.95 2005.52,-94.9"/>
</g>
<!-- Node41 -->
<g id="node37" class="node">
<title>Node41</title>
<g id="a_node37"><a xlink:title=" ">
<polygon fill="white" stroke="#bfbfbf" points="2076.61,-67.5 2076.61,-86.5 2179.61,-86.5 2179.61,-67.5 2076.61,-67.5"/>
<text text-anchor="middle" x="2128.11" y="-74.5" font-family="Helvetica,sans-Serif" font-size="10.00">G4ThreeVector.hh</text>
</a>
</g>
</g>
<!-- Node38&#45;&gt;Node41 -->
<g id="edge70" class="edge">
<title>Node38&#45;&gt;Node41</title>
<path fill="none" stroke="midnightblue" d="M1969.06,-123.44C2001.27,-114.24 2052.65,-99.56 2088.26,-89.39"/>
<polygon fill="midnightblue" stroke="midnightblue" points="2089.65,-92.63 2098.31,-86.52 2087.73,-85.9 2089.65,-92.63"/>
</g>
<!-- Node42 -->
<g id="node38" class="node">
<title>Node42</title>
<g id="a_node38"><a xlink:title=" ">
<polygon fill="white" stroke="#bfbfbf" points="2197.61,-67.5 2197.61,-86.5 2316.61,-86.5 2316.61,-67.5 2197.61,-67.5"/>
<text text-anchor="middle" x="2257.11" y="-74.5" font-family="Helvetica,sans-Serif" font-size="10.00">G4TriangularFacet.hh</text>
</a>
</g>
</g>
<!-- Node38&#45;&gt;Node42 -->
<g id="edge71" class="edge">
<title>Node38&#45;&gt;Node42</title>
<path fill="none" stroke="midnightblue" d="M1978.74,-125.27C2033.58,-115.96 2133.07,-99.06 2197.06,-88.2"/>
<polygon fill="midnightblue" stroke="midnightblue" points="2197.74,-91.63 2207.02,-86.51 2196.57,-84.73 2197.74,-91.63"/>
</g>
<!-- Node43 -->
<g id="node39" class="node">
<title>Node43</title>
<g id="a_node39"><a xlink:title=" ">
<polygon fill="white" stroke="#bfbfbf" points="2335.11,-67.5 2335.11,-86.5 2393.11,-86.5 2393.11,-67.5 2335.11,-67.5"/>
<text text-anchor="middle" x="2364.11" y="-74.5" font-family="Helvetica,sans-Serif" font-size="10.00">memory</text>
</a>
</g>
</g>
<!-- Node38&#45;&gt;Node43 -->
<g id="edge72" class="edge">
<title>Node38&#45;&gt;Node43</title>
<path fill="none" stroke="midnightblue" d="M1978.89,-128.92C2047.55,-123.26 2192.89,-109.83 2324.84,-87.05"/>
<polygon fill="midnightblue" stroke="midnightblue" points="2325.48,-90.49 2334.72,-85.32 2324.27,-83.59 2325.48,-90.49"/>
</g>
<!-- Node44 -->
<g id="node40" class="node">
<title>Node44</title>
<g id="a_node40"><a xlink:title=" ">
<polygon fill="white" stroke="#bfbfbf" points="2411.61,-67.5 2411.61,-86.5 2458.61,-86.5 2458.61,-67.5 2411.61,-67.5"/>
<text text-anchor="middle" x="2435.11" y="-74.5" font-family="Helvetica,sans-Serif" font-size="10.00">vector</text>
</a>
</g>
</g>
<!-- Node38&#45;&gt;Node44 -->
<g id="edge73" class="edge">
<title>Node38&#45;&gt;Node44</title>
<path fill="none" stroke="midnightblue" d="M1978.76,-130.41C2057.53,-126.77 2239.36,-115.93 2401.29,-86.83"/>
<polygon fill="midnightblue" stroke="midnightblue" points="2402.22,-90.21 2411.43,-84.97 2400.96,-83.33 2402.22,-90.21"/>
</g>
<!-- Node45 -->
<g id="node41" class="node">
<title>Node45</title>
<g id="a_node41"><a xlink:title=" ">
<polygon fill="white" stroke="#bfbfbf" points="2477.11,-67.5 2477.11,-86.5 2537.11,-86.5 2537.11,-67.5 2477.11,-67.5"/>
<text text-anchor="middle" x="2507.11" y="-74.5" font-family="Helvetica,sans-Serif" font-size="10.00">iostream</text>
</a>
</g>
</g>
<!-- Node38&#45;&gt;Node45 -->
<g id="edge74" class="edge">
<title>Node38&#45;&gt;Node45</title>
<path fill="none" stroke="midnightblue" d="M1978.83,-130.55C2065.66,-126.96 2279.01,-115.9 2466.9,-86.97"/>
<polygon fill="midnightblue" stroke="midnightblue" points="2467.62,-90.4 2476.96,-85.4 2466.54,-83.49 2467.62,-90.4"/>
</g>
<!-- Node46 -->
<g id="node42" class="node">
<title>Node46</title>
<g id="a_node42"><a xlink:title=" ">
<polygon fill="white" stroke="#bfbfbf" points="2555.11,-67.5 2555.11,-86.5 2599.11,-86.5 2599.11,-67.5 2555.11,-67.5"/>
<text text-anchor="middle" x="2577.11" y="-74.5" font-family="Helvetica,sans-Serif" font-size="10.00">string</text>
</a>
</g>
</g>
<!-- Node38&#45;&gt;Node46 -->
<g id="edge75" class="edge">
<title>Node38&#45;&gt;Node46</title>
<path fill="none" stroke="midnightblue" d="M1978.89,-131.91C2074.91,-131.07 2326.96,-125.27 2544.87,-86.85"/>
<polygon fill="midnightblue" stroke="midnightblue" points="2545.67,-90.26 2554.89,-85.05 2544.43,-83.37 2545.67,-90.26"/>
</g>
<!-- Node47 -->
<g id="node43" class="node">
<title>Node47</title>
<g id="a_node43"><a xlink:title=" ">
<polygon fill="white" stroke="#bfbfbf" points="2617.11,-67.5 2617.11,-86.5 2747.11,-86.5 2747.11,-67.5 2617.11,-67.5"/>
<text text-anchor="middle" x="2682.11" y="-74.5" font-family="Helvetica,sans-Serif" font-size="10.00">G4AssemblyVolume.hh</text>
</a>
</g>
</g>
<!-- Node38&#45;&gt;Node47 -->
<g id="edge76" class="edge">
<title>Node38&#45;&gt;Node47</title>
<path fill="none" stroke="midnightblue" d="M1978.76,-130.08C2080.94,-124.97 2361.84,-109.92 2606.61,-87.1"/>
<polygon fill="midnightblue" stroke="midnightblue" points="2607.13,-90.56 2616.76,-86.14 2606.48,-83.59 2607.13,-90.56"/>
</g>
<!-- Node48 -->
<g id="node44" class="node">
<title>Node48</title>
<g id="a_node44"><a xlink:title=" ">
<polygon fill="white" stroke="#bfbfbf" points="2765.11,-67.5 2765.11,-86.5 2889.11,-86.5 2889.11,-67.5 2765.11,-67.5"/>
<text text-anchor="middle" x="2827.11" y="-74.5" font-family="Helvetica,sans-Serif" font-size="10.00">G4TessellatedSolid.hh</text>
</a>
</g>
</g>
<!-- Node38&#45;&gt;Node48 -->
<g id="edge79" class="edge">
<title>Node38&#45;&gt;Node48</title>
<path fill="none" stroke="midnightblue" d="M1978.72,-130.82C2095.68,-127.11 2449.88,-114.36 2754.44,-87.09"/>
<polygon fill="midnightblue" stroke="midnightblue" points="2755.16,-90.54 2764.8,-86.15 2754.53,-83.57 2755.16,-90.54"/>
</g>
<!-- Node49 -->
<g id="node45" class="node">
<title>Node49</title>
<g id="a_node45"><a xlink:title=" ">
<polygon fill="white" stroke="#bfbfbf" points="1316.61,-67.5 1316.61,-86.5 1375.61,-86.5 1375.61,-67.5 1316.61,-67.5"/>
<text text-anchor="middle" x="1346.11" y="-74.5" font-family="Helvetica,sans-Serif" font-size="10.00">G4Tet.hh</text>
</a>
</g>
</g>
<!-- Node38&#45;&gt;Node49 -->
<g id="edge80" class="edge">
<title>Node38&#45;&gt;Node49</title>
<path fill="none" stroke="midnightblue" d="M1899.59,-130.77C1809.93,-127.55 1584.2,-117.06 1385.86,-86.87"/>
<polygon fill="midnightblue" stroke="midnightblue" points="1386.25,-83.39 1375.84,-85.33 1385.19,-90.31 1386.25,-83.39"/>
</g>
<!-- Node50 -->
<g id="node46" class="node">
<title>Node50</title>
<g id="a_node46"><a xlink:title=" ">
<polygon fill="white" stroke="#bfbfbf" points="1394.11,-67.5 1394.11,-86.5 1498.11,-86.5 1498.11,-67.5 1394.11,-67.5"/>
<text text-anchor="middle" x="1446.11" y="-74.5" font-family="Helvetica,sans-Serif" font-size="10.00">G4UIcommand.hh</text>
</a>
</g>
</g>
<!-- Node38&#45;&gt;Node50 -->
<g id="edge81" class="edge">
<title>Node38&#45;&gt;Node50</title>
<path fill="none" stroke="midnightblue" d="M1899.54,-128.4C1823.55,-121.38 1652.01,-104.95 1508.11,-87 1508.01,-86.99 1507.91,-86.97 1507.81,-86.96"/>
<polygon fill="midnightblue" stroke="midnightblue" points="1508.55,-83.53 1498.19,-85.71 1507.65,-90.47 1508.55,-83.53"/>
</g>
<!-- Node51 -->
<g id="node47" class="node">
<title>Node51</title>
<g id="a_node47"><a xlink:title=" ">
<polygon fill="white" stroke="#bfbfbf" points="1516.61,-67.5 1516.61,-86.5 1583.61,-86.5 1583.61,-67.5 1516.61,-67.5"/>
<text text-anchor="middle" x="1550.11" y="-74.5" font-family="Helvetica,sans-Serif" font-size="10.00">globals.hh</text>
</a>
</g>
</g>
<!-- Node38&#45;&gt;Node51 -->
<g id="edge82" class="edge">
<title>Node38&#45;&gt;Node51</title>
<path fill="none" stroke="midnightblue" d="M1899.53,-127.86C1836.92,-121.08 1711,-106.57 1594.07,-87.04"/>
<polygon fill="midnightblue" stroke="midnightblue" points="1594.31,-83.53 1583.87,-85.32 1593.15,-90.44 1594.31,-83.53"/>
</g>
<!-- Node52 -->
<g id="node48" class="node">
<title>Node52</title>
<g id="a_node48"><a xlink:title=" ">
<polygon fill="white" stroke="#bfbfbf" points="1601.61,-67.5 1601.61,-86.5 1656.61,-86.5 1656.61,-67.5 1601.61,-67.5"/>
<text text-anchor="middle" x="1629.11" y="-74.5" font-family="Helvetica,sans-Serif" font-size="10.00">fstream</text>
</a>
</g>
</g>
<!-- Node38&#45;&gt;Node52 -->
<g id="edge83" class="edge">
<title>Node38&#45;&gt;Node52</title>
<path fill="none" stroke="midnightblue" d="M1899.61,-126.44C1848.29,-119.01 1755.72,-104.9 1666.91,-87.03"/>
<polygon fill="midnightblue" stroke="midnightblue" points="1667.44,-83.57 1656.94,-85.01 1666.05,-90.43 1667.44,-83.57"/>
</g>
<!-- Node53 -->
<g id="node49" class="node">
<title>Node53</title>
<g id="a_node49"><a xlink:title=" ">
<polygon fill="white" stroke="#bfbfbf" points="1674.61,-67.5 1674.61,-86.5 1741.61,-86.5 1741.61,-67.5 1674.61,-67.5"/>
<text text-anchor="middle" x="1708.11" y="-74.5" font-family="Helvetica,sans-Serif" font-size="10.00">streambuf</text>
</a>
</g>
</g>
<!-- Node38&#45;&gt;Node53 -->
<g id="edge85" class="edge">
<title>Node38&#45;&gt;Node53</title>
<path fill="none" stroke="midnightblue" d="M1902.51,-123.44C1861.56,-113.87 1795.25,-98.37 1751.66,-88.18"/>
<polygon fill="midnightblue" stroke="midnightblue" points="1752.45,-84.77 1741.91,-85.9 1750.85,-91.59 1752.45,-84.77"/>
</g>
<!-- Node54 -->
<g id="node50" class="node">
<title>Node54</title>
<g id="a_node50"><a xlink:title=" ">
<polygon fill="white" stroke="#bfbfbf" points="1760.11,-67.5 1760.11,-86.5 1846.11,-86.5 1846.11,-67.5 1760.11,-67.5"/>
<text text-anchor="middle" x="1803.11" y="-74.5" font-family="Helvetica,sans-Serif" font-size="10.00">Randomize.hh</text>
</a>
</g>
</g>
<!-- Node38&#45;&gt;Node54 -->
<g id="edge86" class="edge">
<title>Node38&#45;&gt;Node54</title>
<path fill="none" stroke="midnightblue" d="M1917.56,-123.44C1895.08,-114.52 1859.63,-100.44 1834.13,-90.32"/>
<polygon fill="midnightblue" stroke="midnightblue" points="1835.15,-86.95 1824.56,-86.52 1832.56,-93.46 1835.15,-86.95"/>
</g>
</g>
</svg>
