<?xml version="1.0" encoding="UTF-8" standalone="no"?>
<!DOCTYPE svg PUBLIC "-//W3C//DTD SVG 1.1//EN"
 "http://www.w3.org/Graphics/SVG/1.1/DTD/svg11.dtd">
<!-- Generated by graphviz version 2.43.0 (0)
 -->
<!-- Title: OMSimCommandArgsTable.hh Pages: 1 -->
<svg width="1692pt" height="196pt"
 viewBox="0.00 0.00 1692.00 196.00" xmlns="http://www.w3.org/2000/svg" xmlns:xlink="http://www.w3.org/1999/xlink">
<g id="graph0" class="graph" transform="scale(1 1) rotate(0) translate(4 192)">
<title>OMSimCommandArgsTable.hh</title>
<polygon fill="white" stroke="transparent" points="-4,4 -4,-192 1688,-192 1688,4 -4,4"/>
<!-- Node1 -->
<g id="node1" class="node">
<title>Node1</title>
<g id="a_node1"><a xlink:title="Definition of the OMSimCommandArgsTable singleton class, which controls user args.">
<polygon fill="#bfbfbf" stroke="black" points="824.5,-168.5 824.5,-187.5 988.5,-187.5 988.5,-168.5 824.5,-168.5"/>
<text text-anchor="middle" x="906.5" y="-175.5" font-family="Helvetica,sans-Serif" font-size="10.00">OMSimCommandArgsTable.hh</text>
</a>
</g>
</g>
<!-- Node2 -->
<g id="node2" class="node">
<title>Node2</title>
<g id="a_node2"><a xlink:href="_o_m_sim_u_iinterface_8hh.html" target="_top" xlink:title="The OMSimUIinterface class provides a singleton interface to Geant4&#39;s UI manager.">
<polygon fill="white" stroke="black" points="286,-112.5 286,-131.5 407,-131.5 407,-112.5 286,-112.5"/>
<text text-anchor="middle" x="346.5" y="-119.5" font-family="Helvetica,sans-Serif" font-size="10.00">OMSimUIinterface.hh</text>
</a>
</g>
</g>
<!-- Node1&#45;&gt;Node2 -->
<g id="edge1" class="edge">
<title>Node1&#45;&gt;Node2</title>
<path fill="none" stroke="midnightblue" d="M814.25,-169.53C715.68,-161.32 554.89,-147.25 416.5,-132 413.46,-131.66 410.34,-131.31 407.19,-130.94"/>
<polygon fill="midnightblue" stroke="midnightblue" points="814.22,-173.04 824.48,-170.38 814.8,-166.07 814.22,-173.04"/>
</g>
<!-- Node10 -->
<g id="node10" class="node">
<title>Node10</title>
<g id="a_node10"><a xlink:href="_o_m_sim_input_data_8cc.html" target="_top" xlink:title="Input data from external files are read and saved to memory.">
<polygon fill="white" stroke="black" points="425,-112.5 425,-131.5 538,-131.5 538,-112.5 425,-112.5"/>
<text text-anchor="middle" x="481.5" y="-119.5" font-family="Helvetica,sans-Serif" font-size="10.00">OMSimInputData.cc</text>
</a>
</g>
</g>
<!-- Node1&#45;&gt;Node10 -->
<g id="edge9" class="edge">
<title>Node1&#45;&gt;Node10</title>
<path fill="none" stroke="midnightblue" d="M826.63,-167.24C753.86,-158.29 643.42,-144.55 547.5,-132 544.4,-131.59 541.23,-131.18 538.02,-130.75"/>
<polygon fill="midnightblue" stroke="midnightblue" points="826.29,-170.72 836.64,-168.47 827.14,-163.78 826.29,-170.72"/>
</g>
<!-- Node11 -->
<g id="node11" class="node">
<title>Node11</title>
<g id="a_node11"><a xlink:href="_o_m_sim_p_m_t_construction_8cc.html" target="_top" xlink:title="Construction of the PMTs.">
<polygon fill="white" stroke="black" points="556,-112.5 556,-131.5 703,-131.5 703,-112.5 556,-112.5"/>
<text text-anchor="middle" x="629.5" y="-119.5" font-family="Helvetica,sans-Serif" font-size="10.00">OMSimPMTConstruction.cc</text>
</a>
</g>
</g>
<!-- Node1&#45;&gt;Node11 -->
<g id="edge10" class="edge">
<title>Node1&#45;&gt;Node11</title>
<path fill="none" stroke="midnightblue" d="M852.5,-166.47C800.15,-156.27 721.73,-140.98 673.19,-131.52"/>
<polygon fill="midnightblue" stroke="midnightblue" points="852.12,-169.97 862.61,-168.44 853.46,-163.09 852.12,-169.97"/>
</g>
<!-- Node12 -->
<g id="node12" class="node">
<title>Node12</title>
<g id="a_node12"><a xlink:href="_o_m_sim_m_d_o_m_8cc.html" target="_top" xlink:title="Construction of mDOM.">
<polygon fill="white" stroke="black" points="721.5,-112.5 721.5,-131.5 819.5,-131.5 819.5,-112.5 721.5,-112.5"/>
<text text-anchor="middle" x="770.5" y="-119.5" font-family="Helvetica,sans-Serif" font-size="10.00">OMSimMDOM.cc</text>
</a>
</g>
</g>
<!-- Node1&#45;&gt;Node12 -->
<g id="edge11" class="edge">
<title>Node1&#45;&gt;Node12</title>
<path fill="none" stroke="midnightblue" d="M875.37,-164.64C849.84,-154.5 814.39,-140.43 791.95,-131.52"/>
<polygon fill="midnightblue" stroke="midnightblue" points="874.36,-168.01 884.95,-168.44 876.95,-161.5 874.36,-168.01"/>
</g>
<!-- Node13 -->
<g id="node13" class="node">
<title>Node13</title>
<g id="a_node13"><a xlink:href="_o_m_sim_m_d_o_m_harness_8cc.html" target="_top" xlink:title="Construction of mDOM harness.">
<polygon fill="white" stroke="black" points="837.5,-112.5 837.5,-131.5 975.5,-131.5 975.5,-112.5 837.5,-112.5"/>
<text text-anchor="middle" x="906.5" y="-119.5" font-family="Helvetica,sans-Serif" font-size="10.00">OMSimMDOMHarness.cc</text>
</a>
</g>
</g>
<!-- Node1&#45;&gt;Node13 -->
<g id="edge12" class="edge">
<title>Node1&#45;&gt;Node13</title>
<path fill="none" stroke="midnightblue" d="M906.5,-157.8C906.5,-148.91 906.5,-138.78 906.5,-131.75"/>
<polygon fill="midnightblue" stroke="midnightblue" points="903,-158.08 906.5,-168.08 910,-158.08 903,-158.08"/>
</g>
<!-- Node14 -->
<g id="node14" class="node">
<title>Node14</title>
<g id="a_node14"><a xlink:href="effective__area_2src_2_o_m_sim_analysis_manager_8cc.html" target="_top" xlink:title=" ">
<polygon fill="white" stroke="black" points="994,-112.5 994,-131.5 1143,-131.5 1143,-112.5 994,-112.5"/>
<text text-anchor="middle" x="1068.5" y="-119.5" font-family="Helvetica,sans-Serif" font-size="10.00">OMSimAnalysisManager.cc</text>
</a>
</g>
</g>
<!-- Node1&#45;&gt;Node14 -->
<g id="edge13" class="edge">
<title>Node1&#45;&gt;Node14</title>
<path fill="none" stroke="midnightblue" d="M941.98,-165.17C972.49,-155 1015.74,-140.59 1042.95,-131.52"/>
<polygon fill="midnightblue" stroke="midnightblue" points="940.55,-161.96 932.17,-168.44 942.76,-168.6 940.55,-161.96"/>
</g>
<!-- Node15 -->
<g id="node15" class="node">
<title>Node15</title>
<g id="a_node15"><a xlink:href="effective__area_2src_2_o_m_sim_detector_construction_8cc.html" target="_top" xlink:title=" ">
<polygon fill="white" stroke="black" points="1161,-112.5 1161,-131.5 1330,-131.5 1330,-112.5 1161,-112.5"/>
<text text-anchor="middle" x="1245.5" y="-119.5" font-family="Helvetica,sans-Serif" font-size="10.00">OMSimDetectorConstruction.cc</text>
</a>
</g>
</g>
<!-- Node1&#45;&gt;Node15 -->
<g id="edge14" class="edge">
<title>Node1&#45;&gt;Node15</title>
<path fill="none" stroke="midnightblue" d="M970.2,-166.85C1034.25,-156.65 1131.89,-141.1 1192.04,-131.52"/>
<polygon fill="midnightblue" stroke="midnightblue" points="969.54,-163.41 960.22,-168.44 970.64,-170.33 969.54,-163.41"/>
</g>
<!-- Node16 -->
<g id="node16" class="node">
<title>Node16</title>
<g id="a_node16"><a xlink:href="radioactive__decays_2src_2_o_m_sim_analysis_manager_8cc.html" target="_top" xlink:title=" ">
<polygon fill="white" stroke="black" points="1348,-112.5 1348,-131.5 1497,-131.5 1497,-112.5 1348,-112.5"/>
<text text-anchor="middle" x="1422.5" y="-119.5" font-family="Helvetica,sans-Serif" font-size="10.00">OMSimAnalysisManager.cc</text>
</a>
</g>
</g>
<!-- Node1&#45;&gt;Node16 -->
<g id="edge15" class="edge">
<title>Node1&#45;&gt;Node16</title>
<path fill="none" stroke="midnightblue" d="M998.9,-167.52C1086.58,-158.49 1222.02,-144.47 1339.5,-132 1342.24,-131.71 1345.03,-131.41 1347.85,-131.11"/>
<polygon fill="midnightblue" stroke="midnightblue" points="998.3,-164.06 988.71,-168.57 999.02,-171.02 998.3,-164.06"/>
</g>
<!-- Node17 -->
<g id="node17" class="node">
<title>Node17</title>
<g id="a_node17"><a xlink:href="radioactive__decays_2src_2_o_m_sim_detector_construction_8cc.html" target="_top" xlink:title=" ">
<polygon fill="white" stroke="black" points="1515,-112.5 1515,-131.5 1684,-131.5 1684,-112.5 1515,-112.5"/>
<text text-anchor="middle" x="1599.5" y="-119.5" font-family="Helvetica,sans-Serif" font-size="10.00">OMSimDetectorConstruction.cc</text>
</a>
</g>
</g>
<!-- Node1&#45;&gt;Node17 -->
<g id="edge16" class="edge">
<title>Node1&#45;&gt;Node17</title>
<path fill="none" stroke="midnightblue" d="M998.62,-170.71C1116.43,-162.53 1326.74,-147.44 1506.5,-132 1509.25,-131.76 1512.04,-131.52 1514.86,-131.27"/>
<polygon fill="midnightblue" stroke="midnightblue" points="998.29,-167.23 988.55,-171.41 998.77,-174.21 998.29,-167.23"/>
</g>
<!-- Node3 -->
<g id="node3" class="node">
<title>Node3</title>
<g id="a_node3"><a xlink:href="_o_m_sim_8hh.html" target="_top" xlink:title="Main simulation class for the Optical Module (OM) simulation.">
<polygon fill="white" stroke="black" points="120,-56.5 120,-75.5 187,-75.5 187,-56.5 120,-56.5"/>
<text text-anchor="middle" x="153.5" y="-63.5" font-family="Helvetica,sans-Serif" font-size="10.00">OMSim.hh</text>
</a>
</g>
</g>
<!-- Node2&#45;&gt;Node3 -->
<g id="edge2" class="edge">
<title>Node2&#45;&gt;Node3</title>
<path fill="none" stroke="midnightblue" d="M306.11,-109.7C269.68,-99.51 216.91,-84.74 183.94,-75.52"/>
<polygon fill="midnightblue" stroke="midnightblue" points="305.35,-113.12 315.92,-112.44 307.23,-106.38 305.35,-113.12"/>
</g>
<!-- Node7 -->
<g id="node7" class="node">
<title>Node7</title>
<g id="a_node7"><a xlink:href="_o_m_sim_m_d_o_m_flasher_8cc.html" target="_top" xlink:title=" ">
<polygon fill="white" stroke="black" points="205.5,-56.5 205.5,-75.5 339.5,-75.5 339.5,-56.5 205.5,-56.5"/>
<text text-anchor="middle" x="272.5" y="-63.5" font-family="Helvetica,sans-Serif" font-size="10.00">OMSimMDOMFlasher.cc</text>
</a>
</g>
</g>
<!-- Node2&#45;&gt;Node7 -->
<g id="edge6" class="edge">
<title>Node2&#45;&gt;Node7</title>
<path fill="none" stroke="midnightblue" d="M326.47,-106.38C313.09,-96.62 295.94,-84.11 284.61,-75.83"/>
<polygon fill="midnightblue" stroke="midnightblue" points="324.47,-109.26 334.61,-112.32 328.6,-103.6 324.47,-109.26"/>
</g>
<!-- Node8 -->
<g id="node8" class="node">
<title>Node8</title>
<g id="a_node8"><a xlink:href="_o_m_sim_angular_scan_8cc.html" target="_top" xlink:title=" ">
<polygon fill="white" stroke="black" points="357.5,-56.5 357.5,-75.5 483.5,-75.5 483.5,-56.5 357.5,-56.5"/>
<text text-anchor="middle" x="420.5" y="-63.5" font-family="Helvetica,sans-Serif" font-size="10.00">OMSimAngularScan.cc</text>
</a>
</g>
</g>
<!-- Node2&#45;&gt;Node8 -->
<g id="edge7" class="edge">
<title>Node2&#45;&gt;Node8</title>
<path fill="none" stroke="midnightblue" d="M366.53,-106.38C379.91,-96.62 397.06,-84.11 408.39,-75.83"/>
<polygon fill="midnightblue" stroke="midnightblue" points="364.4,-103.6 358.39,-112.32 368.53,-109.26 364.4,-103.6"/>
</g>
<!-- Node9 -->
<g id="node9" class="node">
<title>Node9</title>
<g id="a_node9"><a xlink:href="_o_m_sim_decays_g_p_s_8cc.html" target="_top" xlink:title=" ">
<polygon fill="white" stroke="black" points="502,-56.5 502,-75.5 623,-75.5 623,-56.5 502,-56.5"/>
<text text-anchor="middle" x="562.5" y="-63.5" font-family="Helvetica,sans-Serif" font-size="10.00">OMSimDecaysGPS.cc</text>
</a>
</g>
</g>
<!-- Node2&#45;&gt;Node9 -->
<g id="edge8" class="edge">
<title>Node2&#45;&gt;Node9</title>
<path fill="none" stroke="midnightblue" d="M390.66,-109.96C431.46,-99.76 491.21,-84.82 528.43,-75.52"/>
<polygon fill="midnightblue" stroke="midnightblue" points="389.58,-106.62 380.73,-112.44 391.28,-113.41 389.58,-106.62"/>
</g>
<!-- Node4 -->
<g id="node4" class="node">
<title>Node4</title>
<g id="a_node4"><a xlink:href="_o_m_sim_8cc.html" target="_top" xlink:title=" ">
<polygon fill="white" stroke="black" points="0,-0.5 0,-19.5 65,-19.5 65,-0.5 0,-0.5"/>
<text text-anchor="middle" x="32.5" y="-7.5" font-family="Helvetica,sans-Serif" font-size="10.00">OMSim.cc</text>
</a>
</g>
</g>
<!-- Node3&#45;&gt;Node4 -->
<g id="edge3" class="edge">
<title>Node3&#45;&gt;Node4</title>
<path fill="none" stroke="midnightblue" d="M125.19,-52.37C102.53,-42.26 71.37,-28.35 51.58,-19.52"/>
<polygon fill="midnightblue" stroke="midnightblue" points="123.77,-55.56 134.33,-56.44 126.62,-49.17 123.77,-55.56"/>
</g>
<!-- Node5 -->
<g id="node5" class="node">
<title>Node5</title>
<g id="a_node5"><a xlink:href="_o_m_sim__effective__area_8cc.html" target="_top" xlink:title="Main for the calculation of effective areas.">
<polygon fill="white" stroke="black" points="83.5,-0.5 83.5,-19.5 223.5,-19.5 223.5,-0.5 83.5,-0.5"/>
<text text-anchor="middle" x="153.5" y="-7.5" font-family="Helvetica,sans-Serif" font-size="10.00">OMSim_effective_area.cc</text>
</a>
</g>
</g>
<!-- Node3&#45;&gt;Node5 -->
<g id="edge4" class="edge">
<title>Node3&#45;&gt;Node5</title>
<path fill="none" stroke="midnightblue" d="M153.5,-45.8C153.5,-36.91 153.5,-26.78 153.5,-19.75"/>
<polygon fill="midnightblue" stroke="midnightblue" points="150,-46.08 153.5,-56.08 157,-46.08 150,-46.08"/>
</g>
<!-- Node6 -->
<g id="node6" class="node">
<title>Node6</title>
<g id="a_node6"><a xlink:href="_o_m_sim__radioactive__decays_8cc.html" target="_top" xlink:title=" ">
<polygon fill="white" stroke="black" points="242,-0.5 242,-19.5 407,-19.5 407,-0.5 242,-0.5"/>
<text text-anchor="middle" x="324.5" y="-7.5" font-family="Helvetica,sans-Serif" font-size="10.00">OMSim_radioactive_decays.cc</text>
</a>
</g>
</g>
<!-- Node3&#45;&gt;Node6 -->
<g id="edge5" class="edge">
<title>Node3&#45;&gt;Node6</title>
<path fill="none" stroke="midnightblue" d="M190.54,-53.3C222.76,-43.13 268.69,-28.62 297.53,-19.52"/>
<polygon fill="midnightblue" stroke="midnightblue" points="189.08,-50.09 180.6,-56.44 191.19,-56.77 189.08,-50.09"/>
</g>
</g>
</svg>
