<?xml version="1.0" encoding="UTF-8" standalone="no"?>
<!DOCTYPE svg PUBLIC "-//W3C//DTD SVG 1.1//EN"
 "http://www.w3.org/Graphics/SVG/1.1/DTD/svg11.dtd">
<!-- Generated by graphviz version 2.43.0 (0)
 -->
<!-- Title: OMSimDEGG.cc Pages: 1 -->
<svg width="2803pt" height="375pt"
 viewBox="0.00 0.00 2803.00 375.00" xmlns="http://www.w3.org/2000/svg" xmlns:xlink="http://www.w3.org/1999/xlink">
<g id="graph0" class="graph" transform="scale(1 1) rotate(0) translate(4 371)">
<title>OMSimDEGG.cc</title>
<polygon fill="white" stroke="transparent" points="-4,4 -4,-371 2799,-371 2799,4 -4,4"/>
<!-- Node1 -->
<g id="node1" class="node">
<title>Node1</title>
<g id="a_node1"><a xlink:title=" ">
<polygon fill="#bfbfbf" stroke="black" points="2406.5,-347.5 2406.5,-366.5 2500.5,-366.5 2500.5,-347.5 2406.5,-347.5"/>
<text text-anchor="middle" x="2453.5" y="-354.5" font-family="Helvetica,sans-Serif" font-size="10.00">OMSimDEGG.cc</text>
</a>
</g>
</g>
<!-- Node2 -->
<g id="node2" class="node">
<title>Node2</title>
<g id="a_node2"><a xlink:href="_o_m_sim_d_e_g_g_8hh.html" target="_top" xlink:title="Construction of the DEGG class.">
<polygon fill="white" stroke="black" points="403,-291.5 403,-310.5 498,-310.5 498,-291.5 403,-291.5"/>
<text text-anchor="middle" x="450.5" y="-298.5" font-family="Helvetica,sans-Serif" font-size="10.00">OMSimDEGG.hh</text>
</a>
</g>
</g>
<!-- Node1&#45;&gt;Node2 -->
<g id="edge1" class="edge">
<title>Node1&#45;&gt;Node2</title>
<path fill="none" stroke="midnightblue" d="M2406.45,-354.73C2138.13,-347.5 802.84,-311.5 508.13,-303.55"/>
<polygon fill="midnightblue" stroke="midnightblue" points="508.18,-300.05 498.09,-303.28 507.99,-307.05 508.18,-300.05"/>
</g>
<!-- Node16 -->
<g id="node16" class="node">
<title>Node16</title>
<g id="a_node16"><a xlink:href="_c_a_d_mesh_8hh.html" target="_top" xlink:title=" ">
<polygon fill="white" stroke="black" points="1438,-291.5 1438,-310.5 1517,-310.5 1517,-291.5 1438,-291.5"/>
<text text-anchor="middle" x="1477.5" y="-298.5" font-family="Helvetica,sans-Serif" font-size="10.00">CADMesh.hh</text>
</a>
</g>
</g>
<!-- Node1&#45;&gt;Node16 -->
<g id="edge17" class="edge">
<title>Node1&#45;&gt;Node16</title>
<path fill="none" stroke="midnightblue" d="M2406.43,-353.4C2242.22,-344.31 1695.68,-314.07 1527.31,-304.76"/>
<polygon fill="midnightblue" stroke="midnightblue" points="1527.42,-301.26 1517.24,-304.2 1527.03,-308.25 1527.42,-301.26"/>
</g>
<!-- Node37 -->
<g id="node37" class="node">
<title>Node37</title>
<g id="a_node37"><a xlink:href="_o_m_sim_logger_8hh.html" target="_top" xlink:title=" ">
<polygon fill="white" stroke="black" points="2459,-235.5 2459,-254.5 2558,-254.5 2558,-235.5 2459,-235.5"/>
<text text-anchor="middle" x="2508.5" y="-242.5" font-family="Helvetica,sans-Serif" font-size="10.00">OMSimLogger.hh</text>
</a>
</g>
</g>
<!-- Node1&#45;&gt;Node37 -->
<g id="edge38" class="edge">
<title>Node1&#45;&gt;Node37</title>
<path fill="none" stroke="midnightblue" d="M2442.63,-347.43C2428.02,-334.85 2405.25,-310.73 2417.5,-291 2427.22,-275.36 2444.16,-264.98 2460.82,-258.19"/>
<polygon fill="midnightblue" stroke="midnightblue" points="2462.37,-261.35 2470.53,-254.59 2459.94,-254.78 2462.37,-261.35"/>
</g>
<!-- Node40 -->
<g id="node40" class="node">
<title>Node40</title>
<g id="a_node40"><a xlink:href="_o_m_sim_command_args_table_8hh.html" target="_top" xlink:title="Definition of the OMSimCommandArgsTable singleton class, which controls user args.">
<polygon fill="white" stroke="black" points="2426.5,-291.5 2426.5,-310.5 2590.5,-310.5 2590.5,-291.5 2426.5,-291.5"/>
<text text-anchor="middle" x="2508.5" y="-298.5" font-family="Helvetica,sans-Serif" font-size="10.00">OMSimCommandArgsTable.hh</text>
</a>
</g>
</g>
<!-- Node1&#45;&gt;Node40 -->
<g id="edge41" class="edge">
<title>Node1&#45;&gt;Node40</title>
<path fill="none" stroke="midnightblue" d="M2462.58,-347.08C2470.67,-339.14 2482.7,-327.34 2492.41,-317.8"/>
<polygon fill="midnightblue" stroke="midnightblue" points="2494.9,-320.25 2499.59,-310.75 2490,-315.26 2494.9,-320.25"/>
</g>
<!-- Node43 -->
<g id="node43" class="node">
<title>Node43</title>
<g id="a_node43"><a xlink:title=" ">
<polygon fill="white" stroke="#bfbfbf" points="2609,-291.5 2609,-310.5 2688,-310.5 2688,-291.5 2609,-291.5"/>
<text text-anchor="middle" x="2648.5" y="-298.5" font-family="Helvetica,sans-Serif" font-size="10.00">G4Sphere.hh</text>
</a>
</g>
</g>
<!-- Node1&#45;&gt;Node43 -->
<g id="edge46" class="edge">
<title>Node1&#45;&gt;Node43</title>
<path fill="none" stroke="midnightblue" d="M2484.4,-347.44C2517.77,-338.2 2571.09,-323.44 2607.85,-313.26"/>
<polygon fill="midnightblue" stroke="midnightblue" points="2609.04,-316.56 2617.75,-310.52 2607.17,-309.81 2609.04,-316.56"/>
</g>
<!-- Node44 -->
<g id="node44" class="node">
<title>Node44</title>
<g id="a_node44"><a xlink:title=" ">
<polygon fill="white" stroke="#bfbfbf" points="2706,-291.5 2706,-310.5 2795,-310.5 2795,-291.5 2706,-291.5"/>
<text text-anchor="middle" x="2750.5" y="-298.5" font-family="Helvetica,sans-Serif" font-size="10.00">G4Polycone.hh</text>
</a>
</g>
</g>
<!-- Node1&#45;&gt;Node44 -->
<g id="edge47" class="edge">
<title>Node1&#45;&gt;Node44</title>
<path fill="none" stroke="midnightblue" d="M2500.56,-347.44C2553.53,-337.81 2639.48,-322.18 2695.51,-312"/>
<polygon fill="midnightblue" stroke="midnightblue" points="2696.39,-315.4 2705.6,-310.16 2695.14,-308.51 2696.39,-315.4"/>
</g>
<!-- Node3 -->
<g id="node3" class="node">
<title>Node3</title>
<g id="a_node3"><a xlink:href="_o_m_sim_p_m_t_construction_8hh.html" target="_top" xlink:title="Construction of the PMTs.">
<polygon fill="white" stroke="black" points="279,-179.5 279,-198.5 428,-198.5 428,-179.5 279,-179.5"/>
<text text-anchor="middle" x="353.5" y="-186.5" font-family="Helvetica,sans-Serif" font-size="10.00">OMSimPMTConstruction.hh</text>
</a>
</g>
</g>
<!-- Node2&#45;&gt;Node3 -->
<g id="edge2" class="edge">
<title>Node2&#45;&gt;Node3</title>
<path fill="none" stroke="midnightblue" d="M425.67,-291.41C408.4,-284.22 386.12,-272.33 372.5,-255 362.07,-241.72 357.36,-222.89 355.24,-208.91"/>
<polygon fill="midnightblue" stroke="midnightblue" points="358.71,-208.44 354.03,-198.94 351.76,-209.28 358.71,-208.44"/>
</g>
<!-- Node15 -->
<g id="node15" class="node">
<title>Node15</title>
<g id="a_node15"><a xlink:href="_o_m_sim_optical_module_8hh.html" target="_top" xlink:title=" ">
<polygon fill="white" stroke="black" points="382,-235.5 382,-254.5 519,-254.5 519,-235.5 382,-235.5"/>
<text text-anchor="middle" x="450.5" y="-242.5" font-family="Helvetica,sans-Serif" font-size="10.00">OMSimOpticalModule.hh</text>
</a>
</g>
</g>
<!-- Node2&#45;&gt;Node15 -->
<g id="edge14" class="edge">
<title>Node2&#45;&gt;Node15</title>
<path fill="none" stroke="midnightblue" d="M450.5,-291.08C450.5,-284.01 450.5,-273.86 450.5,-264.99"/>
<polygon fill="midnightblue" stroke="midnightblue" points="454,-264.75 450.5,-254.75 447,-264.75 454,-264.75"/>
</g>
<!-- Node4 -->
<g id="node4" class="node">
<title>Node4</title>
<g id="a_node4"><a xlink:href="abc_detector_component_8hh.html" target="_top" xlink:title="Provides helper base class abcDetectorComponent for constructing and managing detector components in ...">
<polygon fill="white" stroke="black" points="402,-123.5 402,-142.5 549,-142.5 549,-123.5 402,-123.5"/>
<text text-anchor="middle" x="475.5" y="-130.5" font-family="Helvetica,sans-Serif" font-size="10.00">abcDetectorComponent.hh</text>
</a>
</g>
</g>
<!-- Node3&#45;&gt;Node4 -->
<g id="edge3" class="edge">
<title>Node3&#45;&gt;Node4</title>
<path fill="none" stroke="midnightblue" d="M372.83,-179.44C392.82,-170.6 424.24,-156.69 447.06,-146.59"/>
<polygon fill="midnightblue" stroke="midnightblue" points="448.53,-149.76 456.26,-142.52 445.7,-143.36 448.53,-149.76"/>
</g>
<!-- Node13 -->
<g id="node13" class="node">
<title>Node13</title>
<g id="a_node13"><a xlink:title=" ">
<polygon fill="white" stroke="#bfbfbf" points="285.5,-123.5 285.5,-142.5 383.5,-142.5 383.5,-123.5 285.5,-123.5"/>
<text text-anchor="middle" x="334.5" y="-130.5" font-family="Helvetica,sans-Serif" font-size="10.00">G4UnionSolid.hh</text>
</a>
</g>
</g>
<!-- Node3&#45;&gt;Node13 -->
<g id="edge12" class="edge">
<title>Node3&#45;&gt;Node13</title>
<path fill="none" stroke="midnightblue" d="M350.36,-179.08C347.82,-171.85 344.14,-161.41 340.97,-152.4"/>
<polygon fill="midnightblue" stroke="midnightblue" points="344.2,-151.02 337.58,-142.75 337.6,-153.35 344.2,-151.02"/>
</g>
<!-- Node14 -->
<g id="node14" class="node">
<title>Node14</title>
<g id="a_node14"><a xlink:title=" ">
<polygon fill="white" stroke="#bfbfbf" points="200,-123.5 200,-142.5 267,-142.5 267,-123.5 200,-123.5"/>
<text text-anchor="middle" x="233.5" y="-130.5" font-family="Helvetica,sans-Serif" font-size="10.00">G4Tubs.hh</text>
</a>
</g>
</g>
<!-- Node3&#45;&gt;Node14 -->
<g id="edge13" class="edge">
<title>Node3&#45;&gt;Node14</title>
<path fill="none" stroke="midnightblue" d="M334.49,-179.44C314.91,-170.64 284.19,-156.81 261.77,-146.72"/>
<polygon fill="midnightblue" stroke="midnightblue" points="262.98,-143.43 252.43,-142.52 260.11,-149.81 262.98,-143.43"/>
</g>
<!-- Node5 -->
<g id="node5" class="node">
<title>Node5</title>
<g id="a_node5"><a xlink:href="_o_m_sim_input_data_8hh.html" target="_top" xlink:title="Definition of ParameterTable and InputDataManager.">
<polygon fill="white" stroke="black" points="163,-67.5 163,-86.5 278,-86.5 278,-67.5 163,-67.5"/>
<text text-anchor="middle" x="220.5" y="-74.5" font-family="Helvetica,sans-Serif" font-size="10.00">OMSimInputData.hh</text>
</a>
</g>
</g>
<!-- Node4&#45;&gt;Node5 -->
<g id="edge4" class="edge">
<title>Node4&#45;&gt;Node5</title>
<path fill="none" stroke="midnightblue" d="M435.09,-123.44C390.52,-114 318.73,-98.8 270.61,-88.61"/>
<polygon fill="midnightblue" stroke="midnightblue" points="271.22,-85.16 260.72,-86.52 269.77,-92.01 271.22,-85.16"/>
</g>
<!-- Node9 -->
<g id="node9" class="node">
<title>Node9</title>
<g id="a_node9"><a xlink:title=" ">
<polygon fill="white" stroke="#bfbfbf" points="296,-67.5 296,-86.5 403,-86.5 403,-67.5 296,-67.5"/>
<text text-anchor="middle" x="349.5" y="-74.5" font-family="Helvetica,sans-Serif" font-size="10.00">G4Transform3D.hh</text>
</a>
</g>
</g>
<!-- Node4&#45;&gt;Node9 -->
<g id="edge8" class="edge">
<title>Node4&#45;&gt;Node9</title>
<path fill="none" stroke="midnightblue" d="M455.53,-123.44C434.89,-114.6 402.44,-100.69 378.87,-90.59"/>
<polygon fill="midnightblue" stroke="midnightblue" points="379.94,-87.24 369.37,-86.52 377.18,-93.67 379.94,-87.24"/>
</g>
<!-- Node10 -->
<g id="node10" class="node">
<title>Node10</title>
<g id="a_node10"><a xlink:title=" ">
<polygon fill="white" stroke="#bfbfbf" points="421.5,-67.5 421.5,-86.5 529.5,-86.5 529.5,-67.5 421.5,-67.5"/>
<text text-anchor="middle" x="475.5" y="-74.5" font-family="Helvetica,sans-Serif" font-size="10.00">G4VisAttributes.hh</text>
</a>
</g>
</g>
<!-- Node4&#45;&gt;Node10 -->
<g id="edge9" class="edge">
<title>Node4&#45;&gt;Node10</title>
<path fill="none" stroke="midnightblue" d="M475.5,-123.08C475.5,-116.01 475.5,-105.86 475.5,-96.99"/>
<polygon fill="midnightblue" stroke="midnightblue" points="479,-96.75 475.5,-86.75 472,-96.75 479,-96.75"/>
</g>
<!-- Node11 -->
<g id="node11" class="node">
<title>Node11</title>
<g id="a_node11"><a xlink:title=" ">
<polygon fill="white" stroke="#bfbfbf" points="548,-67.5 548,-86.5 673,-86.5 673,-67.5 548,-67.5"/>
<text text-anchor="middle" x="610.5" y="-74.5" font-family="Helvetica,sans-Serif" font-size="10.00">G4SubtractionSolid.hh</text>
</a>
</g>
</g>
<!-- Node4&#45;&gt;Node11 -->
<g id="edge10" class="edge">
<title>Node4&#45;&gt;Node11</title>
<path fill="none" stroke="midnightblue" d="M496.89,-123.44C519.21,-114.52 554.4,-100.44 579.71,-90.32"/>
<polygon fill="midnightblue" stroke="midnightblue" points="581.22,-93.48 589.21,-86.52 578.62,-86.98 581.22,-93.48"/>
</g>
<!-- Node12 -->
<g id="node12" class="node">
<title>Node12</title>
<g id="a_node12"><a xlink:title=" ">
<polygon fill="white" stroke="#bfbfbf" points="691.5,-67.5 691.5,-86.5 801.5,-86.5 801.5,-67.5 691.5,-67.5"/>
<text text-anchor="middle" x="746.5" y="-74.5" font-family="Helvetica,sans-Serif" font-size="10.00">G4PVPlacement.hh</text>
</a>
</g>
</g>
<!-- Node4&#45;&gt;Node12 -->
<g id="edge11" class="edge">
<title>Node4&#45;&gt;Node12</title>
<path fill="none" stroke="midnightblue" d="M518.44,-123.44C566.01,-113.96 642.74,-98.67 693.89,-88.48"/>
<polygon fill="midnightblue" stroke="midnightblue" points="694.64,-91.9 703.76,-86.52 693.27,-85.04 694.64,-91.9"/>
</g>
<!-- Node6 -->
<g id="node6" class="node">
<title>Node6</title>
<g id="a_node6"><a xlink:title=" ">
<polygon fill="white" stroke="#bfbfbf" points="0,-6 0,-25 143,-25 143,-6 0,-6"/>
<text text-anchor="middle" x="71.5" y="-13" font-family="Helvetica,sans-Serif" font-size="10.00">G4OpBoundaryProcess.hh</text>
</a>
</g>
</g>
<!-- Node5&#45;&gt;Node6 -->
<g id="edge5" class="edge">
<title>Node5&#45;&gt;Node6</title>
<path fill="none" stroke="midnightblue" d="M199.15,-67.48C173.81,-57.36 131.36,-40.4 102.43,-28.85"/>
<polygon fill="midnightblue" stroke="midnightblue" points="103.39,-25.47 92.81,-25.01 100.8,-31.97 103.39,-25.47"/>
</g>
<!-- Node7 -->
<g id="node7" class="node">
<title>Node7</title>
<g id="a_node7"><a xlink:title=" ">
<polygon fill="white" stroke="#bfbfbf" points="161,-6 161,-25 280,-25 280,-6 161,-6"/>
<text text-anchor="middle" x="220.5" y="-13" font-family="Helvetica,sans-Serif" font-size="10.00">G4SystemOfUnits.hh</text>
</a>
</g>
</g>
<!-- Node5&#45;&gt;Node7 -->
<g id="edge6" class="edge">
<title>Node5&#45;&gt;Node7</title>
<path fill="none" stroke="midnightblue" d="M220.5,-67.48C220.5,-59.08 220.5,-45.98 220.5,-35.16"/>
<polygon fill="midnightblue" stroke="midnightblue" points="224,-35.01 220.5,-25.01 217,-35.01 224,-35.01"/>
</g>
<!-- Node8 -->
<g id="node8" class="node">
<title>Node8</title>
<g id="a_node8"><a xlink:title=" ">
<polygon fill="white" stroke="#bfbfbf" points="298,-0.5 298,-30.5 411,-30.5 411,-0.5 298,-0.5"/>
<text text-anchor="start" x="306" y="-18.5" font-family="Helvetica,sans-Serif" font-size="10.00">boost/property_tree</text>
<text text-anchor="middle" x="354.5" y="-7.5" font-family="Helvetica,sans-Serif" font-size="10.00">/json_parser.hpp</text>
</a>
</g>
</g>
<!-- Node5&#45;&gt;Node8 -->
<g id="edge7" class="edge">
<title>Node5&#45;&gt;Node8</title>
<path fill="none" stroke="midnightblue" d="M239.7,-67.48C258.87,-58.96 288.92,-45.62 313.47,-34.72"/>
<polygon fill="midnightblue" stroke="midnightblue" points="315.2,-37.78 322.92,-30.52 312.36,-31.38 315.2,-37.78"/>
</g>
<!-- Node15&#45;&gt;Node3 -->
<g id="edge16" class="edge">
<title>Node15&#45;&gt;Node3</title>
<path fill="none" stroke="midnightblue" d="M434.92,-235.32C419.5,-226.74 395.69,-213.49 377.79,-203.52"/>
<polygon fill="midnightblue" stroke="midnightblue" points="379.49,-200.46 369.05,-198.65 376.08,-206.58 379.49,-200.46"/>
</g>
<!-- Node15&#45;&gt;Node4 -->
<g id="edge15" class="edge">
<title>Node15&#45;&gt;Node4</title>
<path fill="none" stroke="midnightblue" d="M452.46,-235.37C456.5,-217.62 465.8,-176.67 471.27,-152.6"/>
<polygon fill="midnightblue" stroke="midnightblue" points="474.74,-153.12 473.55,-142.59 467.92,-151.57 474.74,-153.12"/>
</g>
<!-- Node17 -->
<g id="node17" class="node">
<title>Node17</title>
<g id="a_node17"><a xlink:title=" ">
<polygon fill="white" stroke="#bfbfbf" points="641.5,-235.5 641.5,-254.5 715.5,-254.5 715.5,-235.5 641.5,-235.5"/>
<text text-anchor="middle" x="678.5" y="-242.5" font-family="Helvetica,sans-Serif" font-size="10.00">G4String.hh</text>
</a>
</g>
</g>
<!-- Node16&#45;&gt;Node17 -->
<g id="edge18" class="edge">
<title>Node16&#45;&gt;Node17</title>
<path fill="none" stroke="midnightblue" d="M1437.73,-299.49C1326.67,-297.67 1003.72,-289.68 725.87,-255"/>
<polygon fill="midnightblue" stroke="midnightblue" points="725.95,-251.48 715.59,-253.7 725.07,-258.42 725.95,-251.48"/>
</g>
<!-- Node18 -->
<g id="node18" class="node">
<title>Node18</title>
<g id="a_node18"><a xlink:title=" ">
<polygon fill="white" stroke="#bfbfbf" points="733.5,-235.5 733.5,-254.5 797.5,-254.5 797.5,-235.5 733.5,-235.5"/>
<text text-anchor="middle" x="765.5" y="-242.5" font-family="Helvetica,sans-Serif" font-size="10.00">algorithm</text>
</a>
</g>
</g>
<!-- Node16&#45;&gt;Node18 -->
<g id="edge19" class="edge">
<title>Node16&#45;&gt;Node18</title>
<path fill="none" stroke="midnightblue" d="M1437.96,-299.4C1335.42,-297.42 1052.49,-289.16 807.8,-254.97"/>
<polygon fill="midnightblue" stroke="midnightblue" points="808.04,-251.47 797.65,-253.53 807.06,-258.4 808.04,-251.47"/>
</g>
<!-- Node19 -->
<g id="node19" class="node">
<title>Node19</title>
<g id="a_node19"><a xlink:title=" ">
<polygon fill="white" stroke="#bfbfbf" points="815.5,-235.5 815.5,-254.5 853.5,-254.5 853.5,-235.5 815.5,-235.5"/>
<text text-anchor="middle" x="834.5" y="-242.5" font-family="Helvetica,sans-Serif" font-size="10.00">map</text>
</a>
</g>
</g>
<!-- Node16&#45;&gt;Node19 -->
<g id="edge20" class="edge">
<title>Node16&#45;&gt;Node19</title>
<path fill="none" stroke="midnightblue" d="M1437.86,-300.34C1340.92,-300.5 1084.28,-296.74 863.45,-254.71"/>
<polygon fill="midnightblue" stroke="midnightblue" points="864.11,-251.27 853.62,-252.81 862.78,-258.14 864.11,-251.27"/>
</g>
<!-- Node20 -->
<g id="node20" class="node">
<title>Node20</title>
<g id="a_node20"><a xlink:title=" ">
<polygon fill="white" stroke="#bfbfbf" points="872,-235.5 872,-254.5 975,-254.5 975,-235.5 872,-235.5"/>
<text text-anchor="middle" x="923.5" y="-242.5" font-family="Helvetica,sans-Serif" font-size="10.00">G4ThreeVector.hh</text>
</a>
</g>
</g>
<!-- Node16&#45;&gt;Node20 -->
<g id="edge21" class="edge">
<title>Node16&#45;&gt;Node20</title>
<path fill="none" stroke="midnightblue" d="M1437.72,-297.16C1355.28,-291.12 1159.58,-275.88 985.31,-255.16"/>
<polygon fill="midnightblue" stroke="midnightblue" points="985.53,-251.66 975.18,-253.95 984.7,-258.61 985.53,-251.66"/>
</g>
<!-- Node21 -->
<g id="node21" class="node">
<title>Node21</title>
<g id="a_node21"><a xlink:title=" ">
<polygon fill="white" stroke="#bfbfbf" points="993,-235.5 993,-254.5 1112,-254.5 1112,-235.5 993,-235.5"/>
<text text-anchor="middle" x="1052.5" y="-242.5" font-family="Helvetica,sans-Serif" font-size="10.00">G4TriangularFacet.hh</text>
</a>
</g>
</g>
<!-- Node16&#45;&gt;Node21 -->
<g id="edge22" class="edge">
<title>Node16&#45;&gt;Node21</title>
<path fill="none" stroke="midnightblue" d="M1437.98,-295.06C1374.08,-287.05 1243.81,-270.69 1122.54,-255.13"/>
<polygon fill="midnightblue" stroke="midnightblue" points="1122.7,-251.62 1112.34,-253.82 1121.81,-258.56 1122.7,-251.62"/>
</g>
<!-- Node22 -->
<g id="node22" class="node">
<title>Node22</title>
<g id="a_node22"><a xlink:title=" ">
<polygon fill="white" stroke="#bfbfbf" points="1130.5,-235.5 1130.5,-254.5 1188.5,-254.5 1188.5,-235.5 1130.5,-235.5"/>
<text text-anchor="middle" x="1159.5" y="-242.5" font-family="Helvetica,sans-Serif" font-size="10.00">memory</text>
</a>
</g>
</g>
<!-- Node16&#45;&gt;Node22 -->
<g id="edge23" class="edge">
<title>Node16&#45;&gt;Node22</title>
<path fill="none" stroke="midnightblue" d="M1437.92,-294.57C1385.45,-287.17 1289.77,-272.96 1198.83,-255.15"/>
<polygon fill="midnightblue" stroke="midnightblue" points="1199.4,-251.7 1188.91,-253.19 1198.04,-258.56 1199.4,-251.7"/>
</g>
<!-- Node23 -->
<g id="node23" class="node">
<title>Node23</title>
<g id="a_node23"><a xlink:title=" ">
<polygon fill="white" stroke="#bfbfbf" points="1207,-235.5 1207,-254.5 1254,-254.5 1254,-235.5 1207,-235.5"/>
<text text-anchor="middle" x="1230.5" y="-242.5" font-family="Helvetica,sans-Serif" font-size="10.00">vector</text>
</a>
</g>
</g>
<!-- Node16&#45;&gt;Node23 -->
<g id="edge24" class="edge">
<title>Node16&#45;&gt;Node23</title>
<path fill="none" stroke="midnightblue" d="M1437.9,-292.4C1396.85,-284.36 1330.6,-270.94 1264.07,-255.02"/>
<polygon fill="midnightblue" stroke="midnightblue" points="1264.79,-251.6 1254.25,-252.66 1263.15,-258.4 1264.79,-251.6"/>
</g>
<!-- Node24 -->
<g id="node24" class="node">
<title>Node24</title>
<g id="a_node24"><a xlink:title=" ">
<polygon fill="white" stroke="#bfbfbf" points="1272.5,-235.5 1272.5,-254.5 1332.5,-254.5 1332.5,-235.5 1272.5,-235.5"/>
<text text-anchor="middle" x="1302.5" y="-242.5" font-family="Helvetica,sans-Serif" font-size="10.00">iostream</text>
</a>
</g>
</g>
<!-- Node16&#45;&gt;Node24 -->
<g id="edge25" class="edge">
<title>Node16&#45;&gt;Node24</title>
<path fill="none" stroke="midnightblue" d="M1449.77,-291.44C1420.07,-282.28 1372.78,-267.69 1339.83,-257.52"/>
<polygon fill="midnightblue" stroke="midnightblue" points="1340.69,-254.12 1330.1,-254.52 1338.62,-260.81 1340.69,-254.12"/>
</g>
<!-- Node25 -->
<g id="node25" class="node">
<title>Node25</title>
<g id="a_node25"><a xlink:title=" ">
<polygon fill="white" stroke="#bfbfbf" points="1350.5,-235.5 1350.5,-254.5 1394.5,-254.5 1394.5,-235.5 1350.5,-235.5"/>
<text text-anchor="middle" x="1372.5" y="-242.5" font-family="Helvetica,sans-Serif" font-size="10.00">string</text>
</a>
</g>
</g>
<!-- Node16&#45;&gt;Node25 -->
<g id="edge26" class="edge">
<title>Node16&#45;&gt;Node25</title>
<path fill="none" stroke="midnightblue" d="M1460.63,-291.32C1443.79,-282.66 1417.69,-269.24 1398.26,-259.25"/>
<polygon fill="midnightblue" stroke="midnightblue" points="1399.82,-256.12 1389.33,-254.65 1396.62,-262.34 1399.82,-256.12"/>
</g>
<!-- Node26 -->
<g id="node26" class="node">
<title>Node26</title>
<g id="a_node26"><a xlink:title=" ">
<polygon fill="white" stroke="#bfbfbf" points="1412.5,-235.5 1412.5,-254.5 1542.5,-254.5 1542.5,-235.5 1412.5,-235.5"/>
<text text-anchor="middle" x="1477.5" y="-242.5" font-family="Helvetica,sans-Serif" font-size="10.00">G4AssemblyVolume.hh</text>
</a>
</g>
</g>
<!-- Node16&#45;&gt;Node26 -->
<g id="edge27" class="edge">
<title>Node16&#45;&gt;Node26</title>
<path fill="none" stroke="midnightblue" d="M1477.5,-291.08C1477.5,-284.01 1477.5,-273.86 1477.5,-264.99"/>
<polygon fill="midnightblue" stroke="midnightblue" points="1481,-264.75 1477.5,-254.75 1474,-264.75 1481,-264.75"/>
</g>
<!-- Node27 -->
<g id="node27" class="node">
<title>Node27</title>
<g id="a_node27"><a xlink:title=" ">
<polygon fill="white" stroke="#bfbfbf" points="1560.5,-235.5 1560.5,-254.5 1676.5,-254.5 1676.5,-235.5 1560.5,-235.5"/>
<text text-anchor="middle" x="1618.5" y="-242.5" font-family="Helvetica,sans-Serif" font-size="10.00">G4LogicalVolume.hh</text>
</a>
</g>
</g>
<!-- Node16&#45;&gt;Node27 -->
<g id="edge28" class="edge">
<title>Node16&#45;&gt;Node27</title>
<path fill="none" stroke="midnightblue" d="M1499.84,-291.44C1523.25,-282.48 1560.24,-268.31 1586.69,-258.18"/>
<polygon fill="midnightblue" stroke="midnightblue" points="1588.18,-261.36 1596.26,-254.52 1585.67,-254.82 1588.18,-261.36"/>
</g>
<!-- Node28 -->
<g id="node28" class="node">
<title>Node28</title>
<g id="a_node28"><a xlink:title=" ">
<polygon fill="white" stroke="#bfbfbf" points="1694.5,-235.5 1694.5,-254.5 1780.5,-254.5 1780.5,-235.5 1694.5,-235.5"/>
<text text-anchor="middle" x="1737.5" y="-242.5" font-family="Helvetica,sans-Serif" font-size="10.00">G4Material.hh</text>
</a>
</g>
</g>
<!-- Node16&#45;&gt;Node28 -->
<g id="edge29" class="edge">
<title>Node16&#45;&gt;Node28</title>
<path fill="none" stroke="midnightblue" d="M1517.27,-291.74C1562.65,-282.31 1636.98,-266.88 1686.57,-256.58"/>
<polygon fill="midnightblue" stroke="midnightblue" points="1687.37,-259.99 1696.45,-254.53 1685.94,-253.13 1687.37,-259.99"/>
</g>
<!-- Node29 -->
<g id="node29" class="node">
<title>Node29</title>
<g id="a_node29"><a xlink:title=" ">
<polygon fill="white" stroke="#bfbfbf" points="1798.5,-235.5 1798.5,-254.5 1922.5,-254.5 1922.5,-235.5 1798.5,-235.5"/>
<text text-anchor="middle" x="1860.5" y="-242.5" font-family="Helvetica,sans-Serif" font-size="10.00">G4TessellatedSolid.hh</text>
</a>
</g>
</g>
<!-- Node16&#45;&gt;Node29 -->
<g id="edge30" class="edge">
<title>Node16&#45;&gt;Node29</title>
<path fill="none" stroke="midnightblue" d="M1517.05,-294.42C1581.38,-285.35 1709.57,-267.28 1789.85,-255.96"/>
<polygon fill="midnightblue" stroke="midnightblue" points="1790.46,-259.41 1799.88,-254.55 1789.48,-252.48 1790.46,-259.41"/>
</g>
<!-- Node30 -->
<g id="node30" class="node">
<title>Node30</title>
<g id="a_node30"><a xlink:title=" ">
<polygon fill="white" stroke="#bfbfbf" points="1941,-235.5 1941,-254.5 2000,-254.5 2000,-235.5 1941,-235.5"/>
<text text-anchor="middle" x="1970.5" y="-242.5" font-family="Helvetica,sans-Serif" font-size="10.00">G4Tet.hh</text>
</a>
</g>
</g>
<!-- Node16&#45;&gt;Node30 -->
<g id="edge31" class="edge">
<title>Node16&#45;&gt;Node30</title>
<path fill="none" stroke="midnightblue" d="M1517.2,-297.78C1594.77,-293.07 1772.02,-280.5 1930.82,-254.9"/>
<polygon fill="midnightblue" stroke="midnightblue" points="1931.46,-258.34 1940.77,-253.27 1930.33,-251.43 1931.46,-258.34"/>
</g>
<!-- Node31 -->
<g id="node31" class="node">
<title>Node31</title>
<g id="a_node31"><a xlink:title=" ">
<polygon fill="white" stroke="#bfbfbf" points="2018.5,-235.5 2018.5,-254.5 2122.5,-254.5 2122.5,-235.5 2018.5,-235.5"/>
<text text-anchor="middle" x="2070.5" y="-242.5" font-family="Helvetica,sans-Serif" font-size="10.00">G4UIcommand.hh</text>
</a>
</g>
</g>
<!-- Node16&#45;&gt;Node31 -->
<g id="edge32" class="edge">
<title>Node16&#45;&gt;Node31</title>
<path fill="none" stroke="midnightblue" d="M1517.21,-297.45C1605.63,-291.59 1825.36,-276.03 2008.5,-255 2008.6,-254.99 2008.7,-254.98 2008.8,-254.96"/>
<polygon fill="midnightblue" stroke="midnightblue" points="2008.93,-258.48 2018.43,-253.79 2008.08,-251.53 2008.93,-258.48"/>
</g>
<!-- Node32 -->
<g id="node32" class="node">
<title>Node32</title>
<g id="a_node32"><a xlink:title=" ">
<polygon fill="white" stroke="#bfbfbf" points="2141,-235.5 2141,-254.5 2208,-254.5 2208,-235.5 2141,-235.5"/>
<text text-anchor="middle" x="2174.5" y="-242.5" font-family="Helvetica,sans-Serif" font-size="10.00">globals.hh</text>
</a>
</g>
</g>
<!-- Node16&#45;&gt;Node32 -->
<g id="edge33" class="edge">
<title>Node16&#45;&gt;Node32</title>
<path fill="none" stroke="midnightblue" d="M1517.14,-299.17C1617.91,-296.66 1892.19,-287.29 2130.53,-254.93"/>
<polygon fill="midnightblue" stroke="midnightblue" points="2131.35,-258.35 2140.78,-253.52 2130.39,-251.41 2131.35,-258.35"/>
</g>
<!-- Node33 -->
<g id="node33" class="node">
<title>Node33</title>
<g id="a_node33"><a xlink:title=" ">
<polygon fill="white" stroke="#bfbfbf" points="2386,-235.5 2386,-254.5 2441,-254.5 2441,-235.5 2386,-235.5"/>
<text text-anchor="middle" x="2413.5" y="-242.5" font-family="Helvetica,sans-Serif" font-size="10.00">fstream</text>
</a>
</g>
</g>
<!-- Node16&#45;&gt;Node33 -->
<g id="edge34" class="edge">
<title>Node16&#45;&gt;Node33</title>
<path fill="none" stroke="midnightblue" d="M1517.02,-299.01C1665.07,-295.17 2187.52,-280.21 2375.69,-254.76"/>
<polygon fill="midnightblue" stroke="midnightblue" points="2376.32,-258.21 2385.73,-253.35 2375.34,-251.28 2376.32,-258.21"/>
</g>
<!-- Node34 -->
<g id="node34" class="node">
<title>Node34</title>
<g id="a_node34"><a xlink:title=" ">
<polygon fill="white" stroke="#bfbfbf" points="2226.5,-235.5 2226.5,-254.5 2282.5,-254.5 2282.5,-235.5 2226.5,-235.5"/>
<text text-anchor="middle" x="2254.5" y="-242.5" font-family="Helvetica,sans-Serif" font-size="10.00">sstream</text>
</a>
</g>
</g>
<!-- Node16&#45;&gt;Node34 -->
<g id="edge35" class="edge">
<title>Node16&#45;&gt;Node34</title>
<path fill="none" stroke="midnightblue" d="M1517,-299.97C1627.91,-299.39 1951.38,-294.17 2216.5,-255 2216.6,-254.99 2216.7,-254.97 2216.8,-254.96"/>
<polygon fill="midnightblue" stroke="midnightblue" points="2217.16,-258.45 2226.38,-253.23 2215.92,-251.56 2217.16,-258.45"/>
</g>
<!-- Node35 -->
<g id="node35" class="node">
<title>Node35</title>
<g id="a_node35"><a xlink:title=" ">
<polygon fill="white" stroke="#bfbfbf" points="2301,-235.5 2301,-254.5 2368,-254.5 2368,-235.5 2301,-235.5"/>
<text text-anchor="middle" x="2334.5" y="-242.5" font-family="Helvetica,sans-Serif" font-size="10.00">streambuf</text>
</a>
</g>
</g>
<!-- Node16&#45;&gt;Node35 -->
<g id="edge36" class="edge">
<title>Node16&#45;&gt;Node35</title>
<path fill="none" stroke="midnightblue" d="M1517.09,-299.93C1633.95,-299.26 1987.7,-294.02 2290.48,-254.91"/>
<polygon fill="midnightblue" stroke="midnightblue" points="2291.32,-258.33 2300.78,-253.56 2290.41,-251.39 2291.32,-258.33"/>
</g>
<!-- Node36 -->
<g id="node36" class="node">
<title>Node36</title>
<g id="a_node36"><a xlink:title=" ">
<polygon fill="white" stroke="#bfbfbf" points="537.5,-235.5 537.5,-254.5 623.5,-254.5 623.5,-235.5 537.5,-235.5"/>
<text text-anchor="middle" x="580.5" y="-242.5" font-family="Helvetica,sans-Serif" font-size="10.00">Randomize.hh</text>
</a>
</g>
</g>
<!-- Node16&#45;&gt;Node36 -->
<g id="edge37" class="edge">
<title>Node16&#45;&gt;Node36</title>
<path fill="none" stroke="midnightblue" d="M1437.77,-299.55C1317.91,-297.84 949.29,-289.99 633.83,-255.01"/>
<polygon fill="midnightblue" stroke="midnightblue" points="633.9,-251.49 623.57,-253.86 633.12,-258.45 633.9,-251.49"/>
</g>
<!-- Node38 -->
<g id="node38" class="node">
<title>Node38</title>
<g id="a_node38"><a xlink:title=" ">
<polygon fill="white" stroke="#bfbfbf" points="2449.5,-179.5 2449.5,-198.5 2499.5,-198.5 2499.5,-179.5 2449.5,-179.5"/>
<text text-anchor="middle" x="2474.5" y="-186.5" font-family="Helvetica,sans-Serif" font-size="10.00">stdio.h</text>
</a>
</g>
</g>
<!-- Node37&#45;&gt;Node38 -->
<g id="edge39" class="edge">
<title>Node37&#45;&gt;Node38</title>
<path fill="none" stroke="midnightblue" d="M2502.89,-235.08C2498.13,-227.53 2491.18,-216.49 2485.35,-207.23"/>
<polygon fill="midnightblue" stroke="midnightblue" points="2488.3,-205.35 2480.01,-198.75 2482.38,-209.08 2488.3,-205.35"/>
</g>
<!-- Node39 -->
<g id="node39" class="node">
<title>Node39</title>
<g id="a_node39"><a xlink:title=" ">
<polygon fill="white" stroke="#bfbfbf" points="2517.5,-179.5 2517.5,-198.5 2565.5,-198.5 2565.5,-179.5 2517.5,-179.5"/>
<text text-anchor="middle" x="2541.5" y="-186.5" font-family="Helvetica,sans-Serif" font-size="10.00">time.h</text>
</a>
</g>
</g>
<!-- Node37&#45;&gt;Node39 -->
<g id="edge40" class="edge">
<title>Node37&#45;&gt;Node39</title>
<path fill="none" stroke="midnightblue" d="M2513.95,-235.08C2518.51,-227.61 2525.17,-216.72 2530.79,-207.52"/>
<polygon fill="midnightblue" stroke="midnightblue" points="2533.92,-209.11 2536.15,-198.75 2527.95,-205.46 2533.92,-209.11"/>
</g>
<!-- Node40&#45;&gt;Node33 -->
<g id="edge43" class="edge">
<title>Node40&#45;&gt;Node33</title>
<path fill="none" stroke="midnightblue" d="M2493.24,-291.32C2478.28,-282.82 2455.25,-269.73 2437.77,-259.8"/>
<polygon fill="midnightblue" stroke="midnightblue" points="2439.15,-256.55 2428.73,-254.65 2435.69,-262.64 2439.15,-256.55"/>
</g>
<!-- Node40&#45;&gt;Node37 -->
<g id="edge42" class="edge">
<title>Node40&#45;&gt;Node37</title>
<path fill="none" stroke="midnightblue" d="M2508.5,-291.08C2508.5,-284.01 2508.5,-273.86 2508.5,-264.99"/>
<polygon fill="midnightblue" stroke="midnightblue" points="2512,-264.75 2508.5,-254.75 2505,-264.75 2512,-264.75"/>
</g>
<!-- Node41 -->
<g id="node41" class="node">
<title>Node41</title>
<g id="a_node41"><a xlink:title=" ">
<polygon fill="white" stroke="#bfbfbf" points="2662.5,-235.5 2662.5,-254.5 2746.5,-254.5 2746.5,-235.5 2662.5,-235.5"/>
<text text-anchor="middle" x="2704.5" y="-242.5" font-family="Helvetica,sans-Serif" font-size="10.00">boost/any.hpp</text>
</a>
</g>
</g>
<!-- Node40&#45;&gt;Node41 -->
<g id="edge44" class="edge">
<title>Node40&#45;&gt;Node41</title>
<path fill="none" stroke="midnightblue" d="M2539.56,-291.44C2573.1,-282.2 2626.7,-267.44 2663.64,-257.26"/>
<polygon fill="midnightblue" stroke="midnightblue" points="2664.88,-260.55 2673.59,-254.52 2663.02,-253.8 2664.88,-260.55"/>
</g>
<!-- Node42 -->
<g id="node42" class="node">
<title>Node42</title>
<g id="a_node42"><a xlink:title=" ">
<polygon fill="white" stroke="#bfbfbf" points="2576.5,-235.5 2576.5,-254.5 2644.5,-254.5 2644.5,-235.5 2576.5,-235.5"/>
<text text-anchor="middle" x="2610.5" y="-242.5" font-family="Helvetica,sans-Serif" font-size="10.00">sys/time.h</text>
</a>
</g>
</g>
<!-- Node40&#45;&gt;Node42 -->
<g id="edge45" class="edge">
<title>Node40&#45;&gt;Node42</title>
<path fill="none" stroke="midnightblue" d="M2524.89,-291.32C2541.17,-282.7 2566.37,-269.36 2585.22,-259.39"/>
<polygon fill="midnightblue" stroke="midnightblue" points="2586.95,-262.43 2594.15,-254.65 2583.68,-256.24 2586.95,-262.43"/>
</g>
</g>
</svg>
