<?xml version="1.0" encoding="UTF-8" standalone="no"?>
<!DOCTYPE svg PUBLIC "-//W3C//DTD SVG 1.1//EN"
 "http://www.w3.org/Graphics/SVG/1.1/DTD/svg11.dtd">
<!-- Generated by graphviz version 2.43.0 (0)
 -->
<!-- Title: OMSimTrackingAction.cc Pages: 1 -->
<svg width="532pt" height="196pt"
 viewBox="0.00 0.00 531.50 196.00" xmlns="http://www.w3.org/2000/svg" xmlns:xlink="http://www.w3.org/1999/xlink">
<g id="graph0" class="graph" transform="scale(1 1) rotate(0) translate(4 192)">
<title>OMSimTrackingAction.cc</title>
<polygon fill="white" stroke="transparent" points="-4,4 -4,-192 527.5,-192 527.5,4 -4,4"/>
<!-- Node1 -->
<g id="node1" class="node">
<title>Node1</title>
<g id="a_node1"><a xlink:title=" ">
<polygon fill="#bfbfbf" stroke="black" points="247,-168.5 247,-187.5 384,-187.5 384,-168.5 247,-168.5"/>
<text text-anchor="middle" x="315.5" y="-175.5" font-family="Helvetica,sans-Serif" font-size="10.00">OMSimTrackingAction.cc</text>
</a>
</g>
</g>
<!-- Node2 -->
<g id="node2" class="node">
<title>Node2</title>
<g id="a_node2"><a xlink:href="_o_m_sim_tracking_action_8hh.html" target="_top" xlink:title=" ">
<polygon fill="white" stroke="black" points="94.5,-112.5 94.5,-131.5 232.5,-131.5 232.5,-112.5 94.5,-112.5"/>
<text text-anchor="middle" x="163.5" y="-119.5" font-family="Helvetica,sans-Serif" font-size="10.00">OMSimTrackingAction.hh</text>
</a>
</g>
</g>
<!-- Node1&#45;&gt;Node2 -->
<g id="edge1" class="edge">
<title>Node1&#45;&gt;Node2</title>
<path fill="none" stroke="midnightblue" d="M291.42,-168.44C265.96,-159.4 225.61,-145.06 197.04,-134.92"/>
<polygon fill="midnightblue" stroke="midnightblue" points="198.07,-131.57 187.47,-131.52 195.72,-138.16 198.07,-131.57"/>
</g>
<!-- Node4 -->
<g id="node4" class="node">
<title>Node4</title>
<g id="a_node4"><a xlink:href="_o_m_sim_hit_manager_8hh.html" target="_top" xlink:title=" ">
<polygon fill="white" stroke="black" points="254,-112.5 254,-131.5 377,-131.5 377,-112.5 254,-112.5"/>
<text text-anchor="middle" x="315.5" y="-119.5" font-family="Helvetica,sans-Serif" font-size="10.00">OMSimHitManager.hh</text>
</a>
</g>
</g>
<!-- Node1&#45;&gt;Node4 -->
<g id="edge3" class="edge">
<title>Node1&#45;&gt;Node4</title>
<path fill="none" stroke="midnightblue" d="M315.5,-168.08C315.5,-161.01 315.5,-150.86 315.5,-141.99"/>
<polygon fill="midnightblue" stroke="midnightblue" points="319,-141.75 315.5,-131.75 312,-141.75 319,-141.75"/>
</g>
<!-- Node13 -->
<g id="node13" class="node">
<title>Node13</title>
<g id="a_node13"><a xlink:title=" ">
<polygon fill="white" stroke="#bfbfbf" points="395.5,-112.5 395.5,-131.5 523.5,-131.5 523.5,-112.5 395.5,-112.5"/>
<text text-anchor="middle" x="459.5" y="-119.5" font-family="Helvetica,sans-Serif" font-size="10.00">G4TrackingManager.hh</text>
</a>
</g>
</g>
<!-- Node1&#45;&gt;Node13 -->
<g id="edge12" class="edge">
<title>Node1&#45;&gt;Node13</title>
<path fill="none" stroke="midnightblue" d="M338.32,-168.44C362.33,-159.44 400.33,-145.19 427.37,-135.05"/>
<polygon fill="midnightblue" stroke="midnightblue" points="428.66,-138.3 436.79,-131.52 426.2,-131.75 428.66,-138.3"/>
</g>
<!-- Node3 -->
<g id="node3" class="node">
<title>Node3</title>
<g id="a_node3"><a xlink:title=" ">
<polygon fill="white" stroke="#bfbfbf" points="23,-56.5 23,-75.5 162,-75.5 162,-56.5 23,-56.5"/>
<text text-anchor="middle" x="92.5" y="-63.5" font-family="Helvetica,sans-Serif" font-size="10.00">G4UserTrackingAction.hh</text>
</a>
</g>
</g>
<!-- Node2&#45;&gt;Node3 -->
<g id="edge2" class="edge">
<title>Node2&#45;&gt;Node3</title>
<path fill="none" stroke="midnightblue" d="M152.09,-112.32C141.39,-104.18 125.16,-91.84 112.34,-82.09"/>
<polygon fill="midnightblue" stroke="midnightblue" points="114.19,-79.1 104.11,-75.83 109.96,-84.67 114.19,-79.1"/>
</g>
<!-- Node5 -->
<g id="node5" class="node">
<title>Node5</title>
<g id="a_node5"><a xlink:href="_o_m_sim_p_m_t_response_8hh.html" target="_top" xlink:title=" ">
<polygon fill="white" stroke="black" points="180,-56.5 180,-75.5 315,-75.5 315,-56.5 180,-56.5"/>
<text text-anchor="middle" x="247.5" y="-63.5" font-family="Helvetica,sans-Serif" font-size="10.00">OMSimPMTResponse.hh</text>
</a>
</g>
</g>
<!-- Node4&#45;&gt;Node5 -->
<g id="edge4" class="edge">
<title>Node4&#45;&gt;Node5</title>
<path fill="none" stroke="midnightblue" d="M304.57,-112.32C294.33,-104.18 278.78,-91.84 266.5,-82.09"/>
<polygon fill="midnightblue" stroke="midnightblue" points="268.63,-79.31 258.62,-75.83 264.28,-84.79 268.63,-79.31"/>
</g>
<!-- Node11 -->
<g id="node11" class="node">
<title>Node11</title>
<g id="a_node11"><a xlink:title=" ">
<polygon fill="white" stroke="#bfbfbf" points="333,-56.5 333,-75.5 436,-75.5 436,-56.5 333,-56.5"/>
<text text-anchor="middle" x="384.5" y="-63.5" font-family="Helvetica,sans-Serif" font-size="10.00">G4ThreeVector.hh</text>
</a>
</g>
</g>
<!-- Node4&#45;&gt;Node11 -->
<g id="edge10" class="edge">
<title>Node4&#45;&gt;Node11</title>
<path fill="none" stroke="midnightblue" d="M326.59,-112.32C336.99,-104.18 352.76,-91.84 365.22,-82.09"/>
<polygon fill="midnightblue" stroke="midnightblue" points="367.49,-84.75 373.21,-75.83 363.18,-79.24 367.49,-84.75"/>
</g>
<!-- Node12 -->
<g id="node12" class="node">
<title>Node12</title>
<g id="a_node12"><a xlink:title=" ">
<polygon fill="white" stroke="#bfbfbf" points="454,-56.5 454,-75.5 509,-75.5 509,-56.5 454,-56.5"/>
<text text-anchor="middle" x="481.5" y="-63.5" font-family="Helvetica,sans-Serif" font-size="10.00">fstream</text>
</a>
</g>
</g>
<!-- Node4&#45;&gt;Node12 -->
<g id="edge11" class="edge">
<title>Node4&#45;&gt;Node12</title>
<path fill="none" stroke="midnightblue" d="M341.8,-112.44C369.85,-103.32 414.44,-88.81 445.68,-78.65"/>
<polygon fill="midnightblue" stroke="midnightblue" points="446.89,-81.94 455.32,-75.52 444.73,-75.28 446.89,-81.94"/>
</g>
<!-- Node6 -->
<g id="node6" class="node">
<title>Node6</title>
<g id="a_node6"><a xlink:title=" ">
<polygon fill="white" stroke="#bfbfbf" points="0,-0.5 0,-19.5 119,-19.5 119,-0.5 0,-0.5"/>
<text text-anchor="middle" x="59.5" y="-7.5" font-family="Helvetica,sans-Serif" font-size="10.00">G4SystemOfUnits.hh</text>
</a>
</g>
</g>
<!-- Node5&#45;&gt;Node6 -->
<g id="edge5" class="edge">
<title>Node5&#45;&gt;Node6</title>
<path fill="none" stroke="midnightblue" d="M217.71,-56.44C185.67,-47.24 134.57,-32.56 99.15,-22.39"/>
<polygon fill="midnightblue" stroke="midnightblue" points="99.73,-18.91 89.15,-19.52 97.79,-25.64 99.73,-18.91"/>
</g>
<!-- Node7 -->
<g id="node7" class="node">
<title>Node7</title>
<g id="a_node7"><a xlink:title=" ">
<polygon fill="white" stroke="#bfbfbf" points="137,-0.5 137,-19.5 210,-19.5 210,-0.5 137,-0.5"/>
<text text-anchor="middle" x="173.5" y="-7.5" font-family="Helvetica,sans-Serif" font-size="10.00">G4Types.hh</text>
</a>
</g>
</g>
<!-- Node5&#45;&gt;Node7 -->
<g id="edge6" class="edge">
<title>Node5&#45;&gt;Node7</title>
<path fill="none" stroke="midnightblue" d="M235.61,-56.32C224.35,-48.11 207.21,-35.6 193.79,-25.81"/>
<polygon fill="midnightblue" stroke="midnightblue" points="195.75,-22.9 185.61,-19.83 191.62,-28.56 195.75,-22.9"/>
</g>
<!-- Node8 -->
<g id="node8" class="node">
<title>Node8</title>
<g id="a_node8"><a xlink:title=" ">
<polygon fill="white" stroke="#bfbfbf" points="228.5,-0.5 228.5,-19.5 266.5,-19.5 266.5,-0.5 228.5,-0.5"/>
<text text-anchor="middle" x="247.5" y="-7.5" font-family="Helvetica,sans-Serif" font-size="10.00">map</text>
</a>
</g>
</g>
<!-- Node5&#45;&gt;Node8 -->
<g id="edge7" class="edge">
<title>Node5&#45;&gt;Node8</title>
<path fill="none" stroke="midnightblue" d="M247.5,-56.08C247.5,-49.01 247.5,-38.86 247.5,-29.99"/>
<polygon fill="midnightblue" stroke="midnightblue" points="251,-29.75 247.5,-19.75 244,-29.75 251,-29.75"/>
</g>
<!-- Node9 -->
<g id="node9" class="node">
<title>Node9</title>
<g id="a_node9"><a xlink:title=" ">
<polygon fill="white" stroke="#bfbfbf" points="285,-0.5 285,-19.5 346,-19.5 346,-0.5 285,-0.5"/>
<text text-anchor="middle" x="315.5" y="-7.5" font-family="Helvetica,sans-Serif" font-size="10.00">TGraph.h</text>
</a>
</g>
</g>
<!-- Node5&#45;&gt;Node9 -->
<g id="edge8" class="edge">
<title>Node5&#45;&gt;Node9</title>
<path fill="none" stroke="midnightblue" d="M258.43,-56.32C268.67,-48.18 284.22,-35.84 296.5,-26.09"/>
<polygon fill="midnightblue" stroke="midnightblue" points="298.72,-28.79 304.38,-19.83 294.37,-23.31 298.72,-28.79"/>
</g>
<!-- Node10 -->
<g id="node10" class="node">
<title>Node10</title>
<g id="a_node10"><a xlink:title=" ">
<polygon fill="white" stroke="#bfbfbf" points="364,-0.5 364,-19.5 417,-19.5 417,-0.5 364,-0.5"/>
<text text-anchor="middle" x="390.5" y="-7.5" font-family="Helvetica,sans-Serif" font-size="10.00">TH2D.h</text>
</a>
</g>
</g>
<!-- Node5&#45;&gt;Node10 -->
<g id="edge9" class="edge">
<title>Node5&#45;&gt;Node10</title>
<path fill="none" stroke="midnightblue" d="M270.16,-56.44C293.9,-47.48 331.41,-33.31 358.24,-23.18"/>
<polygon fill="midnightblue" stroke="midnightblue" points="359.83,-26.32 367.95,-19.52 357.36,-19.77 359.83,-26.32"/>
</g>
</g>
</svg>
