<?xml version="1.0" encoding="UTF-8" standalone="no"?>
<!DOCTYPE svg PUBLIC "-//W3C//DTD SVG 1.1//EN"
 "http://www.w3.org/Graphics/SVG/1.1/DTD/svg11.dtd">
<!-- Generated by graphviz version 2.43.0 (0)
 -->
<!-- Title: OMSimLOM18.cc Pages: 1 -->
<svg width="2844pt" height="319pt"
 viewBox="0.00 0.00 2843.50 319.00" xmlns="http://www.w3.org/2000/svg" xmlns:xlink="http://www.w3.org/1999/xlink">
<g id="graph0" class="graph" transform="scale(1 1) rotate(0) translate(4 315)">
<title>OMSimLOM18.cc</title>
<polygon fill="white" stroke="transparent" points="-4,4 -4,-315 2839.5,-315 2839.5,4 -4,4"/>
<!-- Node1 -->
<g id="node1" class="node">
<title>Node1</title>
<g id="a_node1"><a xlink:title="Construction of LOM18.">
<polygon fill="#bfbfbf" stroke="black" points="2260,-291.5 2260,-310.5 2359,-310.5 2359,-291.5 2260,-291.5"/>
<text text-anchor="middle" x="2309.5" y="-298.5" font-family="Helvetica,sans-Serif" font-size="10.00">OMSimLOM18.cc</text>
</a>
</g>
</g>
<!-- Node2 -->
<g id="node2" class="node">
<title>Node2</title>
<g id="a_node2"><a xlink:href="_o_m_sim_l_o_m18_8hh.html" target="_top" xlink:title=" ">
<polygon fill="white" stroke="black" points="745,-235.5 745,-254.5 846,-254.5 846,-235.5 745,-235.5"/>
<text text-anchor="middle" x="795.5" y="-242.5" font-family="Helvetica,sans-Serif" font-size="10.00">OMSimLOM18.hh</text>
</a>
</g>
</g>
<!-- Node1&#45;&gt;Node2 -->
<g id="edge1" class="edge">
<title>Node1&#45;&gt;Node2</title>
<path fill="none" stroke="midnightblue" d="M2259.99,-298.23C2034.41,-290.19 1104.28,-257.01 856.42,-248.17"/>
<polygon fill="midnightblue" stroke="midnightblue" points="856.29,-244.67 846.17,-247.81 856.04,-251.66 856.29,-244.67"/>
</g>
<!-- Node17 -->
<g id="node17" class="node">
<title>Node17</title>
<g id="a_node17"><a xlink:href="_c_a_d_mesh_8hh.html" target="_top" xlink:title=" ">
<polygon fill="white" stroke="black" points="1728,-235.5 1728,-254.5 1807,-254.5 1807,-235.5 1728,-235.5"/>
<text text-anchor="middle" x="1767.5" y="-242.5" font-family="Helvetica,sans-Serif" font-size="10.00">CADMesh.hh</text>
</a>
</g>
</g>
<!-- Node1&#45;&gt;Node17 -->
<g id="edge16" class="edge">
<title>Node1&#45;&gt;Node17</title>
<path fill="none" stroke="midnightblue" d="M2259.96,-295.06C2156.88,-284.79 1920.34,-261.23 1817.15,-250.95"/>
<polygon fill="midnightblue" stroke="midnightblue" points="1817.3,-247.44 1807,-249.94 1816.61,-254.41 1817.3,-247.44"/>
</g>
<!-- Node37 -->
<g id="node37" class="node">
<title>Node37</title>
<g id="a_node37"><a xlink:href="_o_m_sim_logger_8hh.html" target="_top" xlink:title=" ">
<polygon fill="white" stroke="black" points="2260,-235.5 2260,-254.5 2359,-254.5 2359,-235.5 2260,-235.5"/>
<text text-anchor="middle" x="2309.5" y="-242.5" font-family="Helvetica,sans-Serif" font-size="10.00">OMSimLogger.hh</text>
</a>
</g>
</g>
<!-- Node1&#45;&gt;Node37 -->
<g id="edge37" class="edge">
<title>Node1&#45;&gt;Node37</title>
<path fill="none" stroke="midnightblue" d="M2309.5,-291.08C2309.5,-284.01 2309.5,-273.86 2309.5,-264.99"/>
<polygon fill="midnightblue" stroke="midnightblue" points="2313,-264.75 2309.5,-254.75 2306,-264.75 2313,-264.75"/>
</g>
<!-- Node40 -->
<g id="node40" class="node">
<title>Node40</title>
<g id="a_node40"><a xlink:title=" ">
<polygon fill="white" stroke="#bfbfbf" points="2377,-235.5 2377,-254.5 2446,-254.5 2446,-235.5 2377,-235.5"/>
<text text-anchor="middle" x="2411.5" y="-242.5" font-family="Helvetica,sans-Serif" font-size="10.00">G4Cons.hh</text>
</a>
</g>
</g>
<!-- Node1&#45;&gt;Node40 -->
<g id="edge40" class="edge">
<title>Node1&#45;&gt;Node40</title>
<path fill="none" stroke="midnightblue" d="M2325.89,-291.32C2342.17,-282.7 2367.37,-269.36 2386.22,-259.39"/>
<polygon fill="midnightblue" stroke="midnightblue" points="2387.95,-262.43 2395.15,-254.65 2384.68,-256.24 2387.95,-262.43"/>
</g>
<!-- Node41 -->
<g id="node41" class="node">
<title>Node41</title>
<g id="a_node41"><a xlink:title=" ">
<polygon fill="white" stroke="#bfbfbf" points="2464,-235.5 2464,-254.5 2591,-254.5 2591,-235.5 2464,-235.5"/>
<text text-anchor="middle" x="2527.5" y="-242.5" font-family="Helvetica,sans-Serif" font-size="10.00">G4IntersectionSolid.hh</text>
</a>
</g>
</g>
<!-- Node1&#45;&gt;Node41 -->
<g id="edge41" class="edge">
<title>Node1&#45;&gt;Node41</title>
<path fill="none" stroke="midnightblue" d="M2344.04,-291.44C2381.75,-282.1 2442.24,-267.12 2483.36,-256.93"/>
<polygon fill="midnightblue" stroke="midnightblue" points="2484.25,-260.32 2493.12,-254.52 2482.57,-253.52 2484.25,-260.32"/>
</g>
<!-- Node3 -->
<g id="node3" class="node">
<title>Node3</title>
<g id="a_node3"><a xlink:href="_o_m_sim_p_m_t_construction_8hh.html" target="_top" xlink:title=" ">
<polygon fill="white" stroke="black" points="524,-179.5 524,-198.5 673,-198.5 673,-179.5 524,-179.5"/>
<text text-anchor="middle" x="598.5" y="-186.5" font-family="Helvetica,sans-Serif" font-size="10.00">OMSimPMTConstruction.hh</text>
</a>
</g>
</g>
<!-- Node2&#45;&gt;Node3 -->
<g id="edge2" class="edge">
<title>Node2&#45;&gt;Node3</title>
<path fill="none" stroke="midnightblue" d="M764.28,-235.44C730.57,-226.2 676.7,-211.44 639.57,-201.26"/>
<polygon fill="midnightblue" stroke="midnightblue" points="640.14,-197.78 629.57,-198.52 638.29,-204.54 640.14,-197.78"/>
</g>
<!-- Node15 -->
<g id="node15" class="node">
<title>Node15</title>
<g id="a_node15"><a xlink:title=" ">
<polygon fill="white" stroke="#bfbfbf" points="797.5,-179.5 797.5,-198.5 913.5,-198.5 913.5,-179.5 797.5,-179.5"/>
<text text-anchor="middle" x="855.5" y="-186.5" font-family="Helvetica,sans-Serif" font-size="10.00">G4LogicalVolume.hh</text>
</a>
</g>
</g>
<!-- Node2&#45;&gt;Node15 -->
<g id="edge14" class="edge">
<title>Node2&#45;&gt;Node15</title>
<path fill="none" stroke="midnightblue" d="M805.14,-235.32C814.01,-227.34 827.37,-215.31 838.11,-205.65"/>
<polygon fill="midnightblue" stroke="midnightblue" points="840.59,-208.13 845.68,-198.83 835.91,-202.92 840.59,-208.13"/>
</g>
<!-- Node16 -->
<g id="node16" class="node">
<title>Node16</title>
<g id="a_node16"><a xlink:title=" ">
<polygon fill="white" stroke="#bfbfbf" points="691,-179.5 691,-198.5 780,-198.5 780,-179.5 691,-179.5"/>
<text text-anchor="middle" x="735.5" y="-186.5" font-family="Helvetica,sans-Serif" font-size="10.00">G4Polycone.hh</text>
</a>
</g>
</g>
<!-- Node2&#45;&gt;Node16 -->
<g id="edge15" class="edge">
<title>Node2&#45;&gt;Node16</title>
<path fill="none" stroke="midnightblue" d="M785.86,-235.32C776.99,-227.34 763.63,-215.31 752.89,-205.65"/>
<polygon fill="midnightblue" stroke="midnightblue" points="755.09,-202.92 745.32,-198.83 750.41,-208.13 755.09,-202.92"/>
</g>
<!-- Node4 -->
<g id="node4" class="node">
<title>Node4</title>
<g id="a_node4"><a xlink:href="abc_detector_component_8hh.html" target="_top" xlink:title=" ">
<polygon fill="white" stroke="black" points="384,-123.5 384,-142.5 531,-142.5 531,-123.5 384,-123.5"/>
<text text-anchor="middle" x="457.5" y="-130.5" font-family="Helvetica,sans-Serif" font-size="10.00">abcDetectorComponent.hh</text>
</a>
</g>
</g>
<!-- Node3&#45;&gt;Node4 -->
<g id="edge3" class="edge">
<title>Node3&#45;&gt;Node4</title>
<path fill="none" stroke="midnightblue" d="M576.16,-179.44C552.75,-170.48 515.76,-156.31 489.31,-146.18"/>
<polygon fill="midnightblue" stroke="midnightblue" points="490.33,-142.82 479.74,-142.52 487.82,-149.36 490.33,-142.82"/>
</g>
<!-- Node13 -->
<g id="node13" class="node">
<title>Node13</title>
<g id="a_node13"><a xlink:title=" ">
<polygon fill="white" stroke="#bfbfbf" points="549.5,-123.5 549.5,-142.5 647.5,-142.5 647.5,-123.5 549.5,-123.5"/>
<text text-anchor="middle" x="598.5" y="-130.5" font-family="Helvetica,sans-Serif" font-size="10.00">G4UnionSolid.hh</text>
</a>
</g>
</g>
<!-- Node3&#45;&gt;Node13 -->
<g id="edge12" class="edge">
<title>Node3&#45;&gt;Node13</title>
<path fill="none" stroke="midnightblue" d="M598.5,-179.08C598.5,-172.01 598.5,-161.86 598.5,-152.99"/>
<polygon fill="midnightblue" stroke="midnightblue" points="602,-152.75 598.5,-142.75 595,-152.75 602,-152.75"/>
</g>
<!-- Node14 -->
<g id="node14" class="node">
<title>Node14</title>
<g id="a_node14"><a xlink:title=" ">
<polygon fill="white" stroke="#bfbfbf" points="666,-123.5 666,-142.5 733,-142.5 733,-123.5 666,-123.5"/>
<text text-anchor="middle" x="699.5" y="-130.5" font-family="Helvetica,sans-Serif" font-size="10.00">G4Tubs.hh</text>
</a>
</g>
</g>
<!-- Node3&#45;&gt;Node14 -->
<g id="edge13" class="edge">
<title>Node3&#45;&gt;Node14</title>
<path fill="none" stroke="midnightblue" d="M614.73,-179.32C630.85,-170.7 655.8,-157.36 674.46,-147.39"/>
<polygon fill="midnightblue" stroke="midnightblue" points="676.14,-150.46 683.31,-142.65 672.84,-144.28 676.14,-150.46"/>
</g>
<!-- Node5 -->
<g id="node5" class="node">
<title>Node5</title>
<g id="a_node5"><a xlink:href="_o_m_sim_input_data_8hh.html" target="_top" xlink:title=" ">
<polygon fill="white" stroke="black" points="145,-67.5 145,-86.5 260,-86.5 260,-67.5 145,-67.5"/>
<text text-anchor="middle" x="202.5" y="-74.5" font-family="Helvetica,sans-Serif" font-size="10.00">OMSimInputData.hh</text>
</a>
</g>
</g>
<!-- Node4&#45;&gt;Node5 -->
<g id="edge4" class="edge">
<title>Node4&#45;&gt;Node5</title>
<path fill="none" stroke="midnightblue" d="M417.09,-123.44C372.52,-114 300.73,-98.8 252.61,-88.61"/>
<polygon fill="midnightblue" stroke="midnightblue" points="253.22,-85.16 242.72,-86.52 251.77,-92.01 253.22,-85.16"/>
</g>
<!-- Node9 -->
<g id="node9" class="node">
<title>Node9</title>
<g id="a_node9"><a xlink:title=" ">
<polygon fill="white" stroke="#bfbfbf" points="278,-67.5 278,-86.5 385,-86.5 385,-67.5 278,-67.5"/>
<text text-anchor="middle" x="331.5" y="-74.5" font-family="Helvetica,sans-Serif" font-size="10.00">G4Transform3D.hh</text>
</a>
</g>
</g>
<!-- Node4&#45;&gt;Node9 -->
<g id="edge8" class="edge">
<title>Node4&#45;&gt;Node9</title>
<path fill="none" stroke="midnightblue" d="M437.53,-123.44C416.89,-114.6 384.44,-100.69 360.87,-90.59"/>
<polygon fill="midnightblue" stroke="midnightblue" points="361.94,-87.24 351.37,-86.52 359.18,-93.67 361.94,-87.24"/>
</g>
<!-- Node10 -->
<g id="node10" class="node">
<title>Node10</title>
<g id="a_node10"><a xlink:title=" ">
<polygon fill="white" stroke="#bfbfbf" points="403.5,-67.5 403.5,-86.5 511.5,-86.5 511.5,-67.5 403.5,-67.5"/>
<text text-anchor="middle" x="457.5" y="-74.5" font-family="Helvetica,sans-Serif" font-size="10.00">G4VisAttributes.hh</text>
</a>
</g>
</g>
<!-- Node4&#45;&gt;Node10 -->
<g id="edge9" class="edge">
<title>Node4&#45;&gt;Node10</title>
<path fill="none" stroke="midnightblue" d="M457.5,-123.08C457.5,-116.01 457.5,-105.86 457.5,-96.99"/>
<polygon fill="midnightblue" stroke="midnightblue" points="461,-96.75 457.5,-86.75 454,-96.75 461,-96.75"/>
</g>
<!-- Node11 -->
<g id="node11" class="node">
<title>Node11</title>
<g id="a_node11"><a xlink:title=" ">
<polygon fill="white" stroke="#bfbfbf" points="530,-67.5 530,-86.5 655,-86.5 655,-67.5 530,-67.5"/>
<text text-anchor="middle" x="592.5" y="-74.5" font-family="Helvetica,sans-Serif" font-size="10.00">G4SubtractionSolid.hh</text>
</a>
</g>
</g>
<!-- Node4&#45;&gt;Node11 -->
<g id="edge10" class="edge">
<title>Node4&#45;&gt;Node11</title>
<path fill="none" stroke="midnightblue" d="M478.89,-123.44C501.21,-114.52 536.4,-100.44 561.71,-90.32"/>
<polygon fill="midnightblue" stroke="midnightblue" points="563.22,-93.48 571.21,-86.52 560.62,-86.98 563.22,-93.48"/>
</g>
<!-- Node12 -->
<g id="node12" class="node">
<title>Node12</title>
<g id="a_node12"><a xlink:title=" ">
<polygon fill="white" stroke="#bfbfbf" points="673.5,-67.5 673.5,-86.5 783.5,-86.5 783.5,-67.5 673.5,-67.5"/>
<text text-anchor="middle" x="728.5" y="-74.5" font-family="Helvetica,sans-Serif" font-size="10.00">G4PVPlacement.hh</text>
</a>
</g>
</g>
<!-- Node4&#45;&gt;Node12 -->
<g id="edge11" class="edge">
<title>Node4&#45;&gt;Node12</title>
<path fill="none" stroke="midnightblue" d="M500.44,-123.44C548.01,-113.96 624.74,-98.67 675.89,-88.48"/>
<polygon fill="midnightblue" stroke="midnightblue" points="676.64,-91.9 685.76,-86.52 675.27,-85.04 676.64,-91.9"/>
</g>
<!-- Node6 -->
<g id="node6" class="node">
<title>Node6</title>
<g id="a_node6"><a xlink:title=" ">
<polygon fill="white" stroke="#bfbfbf" points="0,-0.5 0,-30.5 113,-30.5 113,-0.5 0,-0.5"/>
<text text-anchor="start" x="8" y="-18.5" font-family="Helvetica,sans-Serif" font-size="10.00">boost/property_tree</text>
<text text-anchor="middle" x="56.5" y="-7.5" font-family="Helvetica,sans-Serif" font-size="10.00">/json_parser.hpp</text>
</a>
</g>
</g>
<!-- Node5&#45;&gt;Node6 -->
<g id="edge5" class="edge">
<title>Node5&#45;&gt;Node6</title>
<path fill="none" stroke="midnightblue" d="M181.58,-67.48C160.51,-58.89 127.37,-45.38 100.49,-34.43"/>
<polygon fill="midnightblue" stroke="midnightblue" points="101.49,-31.06 90.91,-30.52 98.85,-37.54 101.49,-31.06"/>
</g>
<!-- Node7 -->
<g id="node7" class="node">
<title>Node7</title>
<g id="a_node7"><a xlink:title=" ">
<polygon fill="white" stroke="#bfbfbf" points="131,-6 131,-25 274,-25 274,-6 131,-6"/>
<text text-anchor="middle" x="202.5" y="-13" font-family="Helvetica,sans-Serif" font-size="10.00">G4OpBoundaryProcess.hh</text>
</a>
</g>
</g>
<!-- Node5&#45;&gt;Node7 -->
<g id="edge6" class="edge">
<title>Node5&#45;&gt;Node7</title>
<path fill="none" stroke="midnightblue" d="M202.5,-67.48C202.5,-59.08 202.5,-45.98 202.5,-35.16"/>
<polygon fill="midnightblue" stroke="midnightblue" points="206,-35.01 202.5,-25.01 199,-35.01 206,-35.01"/>
</g>
<!-- Node8 -->
<g id="node8" class="node">
<title>Node8</title>
<g id="a_node8"><a xlink:title=" ">
<polygon fill="white" stroke="#bfbfbf" points="292,-6 292,-25 411,-25 411,-6 292,-6"/>
<text text-anchor="middle" x="351.5" y="-13" font-family="Helvetica,sans-Serif" font-size="10.00">G4SystemOfUnits.hh</text>
</a>
</g>
</g>
<!-- Node5&#45;&gt;Node8 -->
<g id="edge7" class="edge">
<title>Node5&#45;&gt;Node8</title>
<path fill="none" stroke="midnightblue" d="M223.85,-67.48C249.19,-57.36 291.64,-40.4 320.57,-28.85"/>
<polygon fill="midnightblue" stroke="midnightblue" points="322.2,-31.97 330.19,-25.01 319.61,-25.47 322.2,-31.97"/>
</g>
<!-- Node17&#45;&gt;Node15 -->
<g id="edge27" class="edge">
<title>Node17&#45;&gt;Node15</title>
<path fill="none" stroke="midnightblue" d="M1727.82,-243.02C1608.11,-239.82 1239.89,-228.22 923.85,-199.05"/>
<polygon fill="midnightblue" stroke="midnightblue" points="923.85,-195.53 913.57,-198.09 923.2,-202.5 923.85,-195.53"/>
</g>
<!-- Node18 -->
<g id="node18" class="node">
<title>Node18</title>
<g id="a_node18"><a xlink:title=" ">
<polygon fill="white" stroke="#bfbfbf" points="931.5,-179.5 931.5,-198.5 1005.5,-198.5 1005.5,-179.5 931.5,-179.5"/>
<text text-anchor="middle" x="968.5" y="-186.5" font-family="Helvetica,sans-Serif" font-size="10.00">G4String.hh</text>
</a>
</g>
</g>
<!-- Node17&#45;&gt;Node18 -->
<g id="edge17" class="edge">
<title>Node17&#45;&gt;Node18</title>
<path fill="none" stroke="midnightblue" d="M1727.73,-243.49C1616.67,-241.67 1293.72,-233.68 1015.87,-199"/>
<polygon fill="midnightblue" stroke="midnightblue" points="1015.95,-195.48 1005.59,-197.7 1015.07,-202.42 1015.95,-195.48"/>
</g>
<!-- Node19 -->
<g id="node19" class="node">
<title>Node19</title>
<g id="a_node19"><a xlink:title=" ">
<polygon fill="white" stroke="#bfbfbf" points="1023.5,-179.5 1023.5,-198.5 1087.5,-198.5 1087.5,-179.5 1023.5,-179.5"/>
<text text-anchor="middle" x="1055.5" y="-186.5" font-family="Helvetica,sans-Serif" font-size="10.00">algorithm</text>
</a>
</g>
</g>
<!-- Node17&#45;&gt;Node19 -->
<g id="edge18" class="edge">
<title>Node17&#45;&gt;Node19</title>
<path fill="none" stroke="midnightblue" d="M1727.96,-243.4C1625.42,-241.42 1342.49,-233.16 1097.8,-198.97"/>
<polygon fill="midnightblue" stroke="midnightblue" points="1098.04,-195.47 1087.65,-197.53 1097.06,-202.4 1098.04,-195.47"/>
</g>
<!-- Node20 -->
<g id="node20" class="node">
<title>Node20</title>
<g id="a_node20"><a xlink:title=" ">
<polygon fill="white" stroke="#bfbfbf" points="1105.5,-179.5 1105.5,-198.5 1143.5,-198.5 1143.5,-179.5 1105.5,-179.5"/>
<text text-anchor="middle" x="1124.5" y="-186.5" font-family="Helvetica,sans-Serif" font-size="10.00">map</text>
</a>
</g>
</g>
<!-- Node17&#45;&gt;Node20 -->
<g id="edge19" class="edge">
<title>Node17&#45;&gt;Node20</title>
<path fill="none" stroke="midnightblue" d="M1727.86,-244.34C1630.92,-244.5 1374.28,-240.74 1153.45,-198.71"/>
<polygon fill="midnightblue" stroke="midnightblue" points="1154.11,-195.27 1143.62,-196.81 1152.78,-202.14 1154.11,-195.27"/>
</g>
<!-- Node21 -->
<g id="node21" class="node">
<title>Node21</title>
<g id="a_node21"><a xlink:title=" ">
<polygon fill="white" stroke="#bfbfbf" points="1162,-179.5 1162,-198.5 1265,-198.5 1265,-179.5 1162,-179.5"/>
<text text-anchor="middle" x="1213.5" y="-186.5" font-family="Helvetica,sans-Serif" font-size="10.00">G4ThreeVector.hh</text>
</a>
</g>
</g>
<!-- Node17&#45;&gt;Node21 -->
<g id="edge20" class="edge">
<title>Node17&#45;&gt;Node21</title>
<path fill="none" stroke="midnightblue" d="M1727.72,-241.16C1645.28,-235.12 1449.58,-219.88 1275.31,-199.16"/>
<polygon fill="midnightblue" stroke="midnightblue" points="1275.53,-195.66 1265.18,-197.95 1274.7,-202.61 1275.53,-195.66"/>
</g>
<!-- Node22 -->
<g id="node22" class="node">
<title>Node22</title>
<g id="a_node22"><a xlink:title=" ">
<polygon fill="white" stroke="#bfbfbf" points="1283,-179.5 1283,-198.5 1402,-198.5 1402,-179.5 1283,-179.5"/>
<text text-anchor="middle" x="1342.5" y="-186.5" font-family="Helvetica,sans-Serif" font-size="10.00">G4TriangularFacet.hh</text>
</a>
</g>
</g>
<!-- Node17&#45;&gt;Node22 -->
<g id="edge21" class="edge">
<title>Node17&#45;&gt;Node22</title>
<path fill="none" stroke="midnightblue" d="M1727.98,-239.06C1664.08,-231.05 1533.81,-214.69 1412.54,-199.13"/>
<polygon fill="midnightblue" stroke="midnightblue" points="1412.7,-195.62 1402.34,-197.82 1411.81,-202.56 1412.7,-195.62"/>
</g>
<!-- Node23 -->
<g id="node23" class="node">
<title>Node23</title>
<g id="a_node23"><a xlink:title=" ">
<polygon fill="white" stroke="#bfbfbf" points="1420.5,-179.5 1420.5,-198.5 1478.5,-198.5 1478.5,-179.5 1420.5,-179.5"/>
<text text-anchor="middle" x="1449.5" y="-186.5" font-family="Helvetica,sans-Serif" font-size="10.00">memory</text>
</a>
</g>
</g>
<!-- Node17&#45;&gt;Node23 -->
<g id="edge22" class="edge">
<title>Node17&#45;&gt;Node23</title>
<path fill="none" stroke="midnightblue" d="M1727.92,-238.57C1675.45,-231.17 1579.77,-216.96 1488.83,-199.15"/>
<polygon fill="midnightblue" stroke="midnightblue" points="1489.4,-195.7 1478.91,-197.19 1488.04,-202.56 1489.4,-195.7"/>
</g>
<!-- Node24 -->
<g id="node24" class="node">
<title>Node24</title>
<g id="a_node24"><a xlink:title=" ">
<polygon fill="white" stroke="#bfbfbf" points="1497,-179.5 1497,-198.5 1544,-198.5 1544,-179.5 1497,-179.5"/>
<text text-anchor="middle" x="1520.5" y="-186.5" font-family="Helvetica,sans-Serif" font-size="10.00">vector</text>
</a>
</g>
</g>
<!-- Node17&#45;&gt;Node24 -->
<g id="edge23" class="edge">
<title>Node17&#45;&gt;Node24</title>
<path fill="none" stroke="midnightblue" d="M1727.9,-236.4C1686.85,-228.36 1620.6,-214.94 1554.07,-199.02"/>
<polygon fill="midnightblue" stroke="midnightblue" points="1554.79,-195.6 1544.25,-196.66 1553.15,-202.4 1554.79,-195.6"/>
</g>
<!-- Node25 -->
<g id="node25" class="node">
<title>Node25</title>
<g id="a_node25"><a xlink:title=" ">
<polygon fill="white" stroke="#bfbfbf" points="1562.5,-179.5 1562.5,-198.5 1622.5,-198.5 1622.5,-179.5 1562.5,-179.5"/>
<text text-anchor="middle" x="1592.5" y="-186.5" font-family="Helvetica,sans-Serif" font-size="10.00">iostream</text>
</a>
</g>
</g>
<!-- Node17&#45;&gt;Node25 -->
<g id="edge24" class="edge">
<title>Node17&#45;&gt;Node25</title>
<path fill="none" stroke="midnightblue" d="M1739.77,-235.44C1710.07,-226.28 1662.78,-211.69 1629.83,-201.52"/>
<polygon fill="midnightblue" stroke="midnightblue" points="1630.69,-198.12 1620.1,-198.52 1628.62,-204.81 1630.69,-198.12"/>
</g>
<!-- Node26 -->
<g id="node26" class="node">
<title>Node26</title>
<g id="a_node26"><a xlink:title=" ">
<polygon fill="white" stroke="#bfbfbf" points="1640.5,-179.5 1640.5,-198.5 1684.5,-198.5 1684.5,-179.5 1640.5,-179.5"/>
<text text-anchor="middle" x="1662.5" y="-186.5" font-family="Helvetica,sans-Serif" font-size="10.00">string</text>
</a>
</g>
</g>
<!-- Node17&#45;&gt;Node26 -->
<g id="edge25" class="edge">
<title>Node17&#45;&gt;Node26</title>
<path fill="none" stroke="midnightblue" d="M1750.63,-235.32C1733.79,-226.66 1707.69,-213.24 1688.26,-203.25"/>
<polygon fill="midnightblue" stroke="midnightblue" points="1689.82,-200.12 1679.33,-198.65 1686.62,-206.34 1689.82,-200.12"/>
</g>
<!-- Node27 -->
<g id="node27" class="node">
<title>Node27</title>
<g id="a_node27"><a xlink:title=" ">
<polygon fill="white" stroke="#bfbfbf" points="1702.5,-179.5 1702.5,-198.5 1832.5,-198.5 1832.5,-179.5 1702.5,-179.5"/>
<text text-anchor="middle" x="1767.5" y="-186.5" font-family="Helvetica,sans-Serif" font-size="10.00">G4AssemblyVolume.hh</text>
</a>
</g>
</g>
<!-- Node17&#45;&gt;Node27 -->
<g id="edge26" class="edge">
<title>Node17&#45;&gt;Node27</title>
<path fill="none" stroke="midnightblue" d="M1767.5,-235.08C1767.5,-228.01 1767.5,-217.86 1767.5,-208.99"/>
<polygon fill="midnightblue" stroke="midnightblue" points="1771,-208.75 1767.5,-198.75 1764,-208.75 1771,-208.75"/>
</g>
<!-- Node28 -->
<g id="node28" class="node">
<title>Node28</title>
<g id="a_node28"><a xlink:title=" ">
<polygon fill="white" stroke="#bfbfbf" points="1850.5,-179.5 1850.5,-198.5 1936.5,-198.5 1936.5,-179.5 1850.5,-179.5"/>
<text text-anchor="middle" x="1893.5" y="-186.5" font-family="Helvetica,sans-Serif" font-size="10.00">G4Material.hh</text>
</a>
</g>
</g>
<!-- Node17&#45;&gt;Node28 -->
<g id="edge28" class="edge">
<title>Node17&#45;&gt;Node28</title>
<path fill="none" stroke="midnightblue" d="M1787.47,-235.44C1808.11,-226.6 1840.56,-212.69 1864.13,-202.59"/>
<polygon fill="midnightblue" stroke="midnightblue" points="1865.82,-205.67 1873.63,-198.52 1863.06,-199.24 1865.82,-205.67"/>
</g>
<!-- Node29 -->
<g id="node29" class="node">
<title>Node29</title>
<g id="a_node29"><a xlink:title=" ">
<polygon fill="white" stroke="#bfbfbf" points="1954.5,-179.5 1954.5,-198.5 2078.5,-198.5 2078.5,-179.5 1954.5,-179.5"/>
<text text-anchor="middle" x="2016.5" y="-186.5" font-family="Helvetica,sans-Serif" font-size="10.00">G4TessellatedSolid.hh</text>
</a>
</g>
</g>
<!-- Node17&#45;&gt;Node29 -->
<g id="edge29" class="edge">
<title>Node17&#45;&gt;Node29</title>
<path fill="none" stroke="midnightblue" d="M1806.95,-235.44C1850.39,-226.02 1920.29,-210.87 1967.28,-200.68"/>
<polygon fill="midnightblue" stroke="midnightblue" points="1968.2,-204.06 1977.23,-198.52 1966.72,-197.22 1968.2,-204.06"/>
</g>
<!-- Node30 -->
<g id="node30" class="node">
<title>Node30</title>
<g id="a_node30"><a xlink:title=" ">
<polygon fill="white" stroke="#bfbfbf" points="2097,-179.5 2097,-198.5 2156,-198.5 2156,-179.5 2097,-179.5"/>
<text text-anchor="middle" x="2126.5" y="-186.5" font-family="Helvetica,sans-Serif" font-size="10.00">G4Tet.hh</text>
</a>
</g>
</g>
<!-- Node17&#45;&gt;Node30 -->
<g id="edge30" class="edge">
<title>Node17&#45;&gt;Node30</title>
<path fill="none" stroke="midnightblue" d="M1807.09,-239.56C1865.88,-232.72 1979.93,-218.5 2086.76,-198.99"/>
<polygon fill="midnightblue" stroke="midnightblue" points="2087.55,-202.4 2096.75,-197.15 2086.28,-195.52 2087.55,-202.4"/>
</g>
<!-- Node31 -->
<g id="node31" class="node">
<title>Node31</title>
<g id="a_node31"><a xlink:title=" ">
<polygon fill="white" stroke="#bfbfbf" points="2174.5,-179.5 2174.5,-198.5 2278.5,-198.5 2278.5,-179.5 2174.5,-179.5"/>
<text text-anchor="middle" x="2226.5" y="-186.5" font-family="Helvetica,sans-Serif" font-size="10.00">G4UIcommand.hh</text>
</a>
</g>
</g>
<!-- Node17&#45;&gt;Node31 -->
<g id="edge31" class="edge">
<title>Node17&#45;&gt;Node31</title>
<path fill="none" stroke="midnightblue" d="M1807.28,-239.91C1878.83,-232.45 2033.97,-215.87 2164.5,-199 2164.6,-198.99 2164.7,-198.97 2164.8,-198.96"/>
<polygon fill="midnightblue" stroke="midnightblue" points="2164.97,-202.47 2174.42,-197.68 2164.05,-195.53 2164.97,-202.47"/>
</g>
<!-- Node32 -->
<g id="node32" class="node">
<title>Node32</title>
<g id="a_node32"><a xlink:title=" ">
<polygon fill="white" stroke="#bfbfbf" points="2297,-179.5 2297,-198.5 2364,-198.5 2364,-179.5 2297,-179.5"/>
<text text-anchor="middle" x="2330.5" y="-186.5" font-family="Helvetica,sans-Serif" font-size="10.00">globals.hh</text>
</a>
</g>
</g>
<!-- Node17&#45;&gt;Node32 -->
<g id="edge32" class="edge">
<title>Node17&#45;&gt;Node32</title>
<path fill="none" stroke="midnightblue" d="M1807.15,-242.19C1892.85,-237.94 2101.81,-225.7 2286.86,-198.91"/>
<polygon fill="midnightblue" stroke="midnightblue" points="2287.38,-202.37 2296.77,-197.46 2286.37,-195.45 2287.38,-202.37"/>
</g>
<!-- Node33 -->
<g id="node33" class="node">
<title>Node33</title>
<g id="a_node33"><a xlink:title=" ">
<polygon fill="white" stroke="#bfbfbf" points="2382,-179.5 2382,-198.5 2437,-198.5 2437,-179.5 2382,-179.5"/>
<text text-anchor="middle" x="2409.5" y="-186.5" font-family="Helvetica,sans-Serif" font-size="10.00">fstream</text>
</a>
</g>
</g>
<!-- Node17&#45;&gt;Node33 -->
<g id="edge33" class="edge">
<title>Node17&#45;&gt;Node33</title>
<path fill="none" stroke="midnightblue" d="M1807.12,-243.39C1902.79,-241.43 2154.04,-233.32 2371.68,-199.05"/>
<polygon fill="midnightblue" stroke="midnightblue" points="2372.37,-202.48 2381.69,-197.45 2371.26,-195.57 2372.37,-202.48"/>
</g>
<!-- Node34 -->
<g id="node34" class="node">
<title>Node34</title>
<g id="a_node34"><a xlink:title=" ">
<polygon fill="white" stroke="#bfbfbf" points="2455.5,-179.5 2455.5,-198.5 2511.5,-198.5 2511.5,-179.5 2455.5,-179.5"/>
<text text-anchor="middle" x="2483.5" y="-186.5" font-family="Helvetica,sans-Serif" font-size="10.00">sstream</text>
</a>
</g>
</g>
<!-- Node17&#45;&gt;Node34 -->
<g id="edge34" class="edge">
<title>Node17&#45;&gt;Node34</title>
<path fill="none" stroke="midnightblue" d="M1807.18,-243.75C1910.77,-242.6 2197.95,-236.16 2445.42,-198.9"/>
<polygon fill="midnightblue" stroke="midnightblue" points="2445.96,-202.35 2455.32,-197.39 2444.9,-195.43 2445.96,-202.35"/>
</g>
<!-- Node35 -->
<g id="node35" class="node">
<title>Node35</title>
<g id="a_node35"><a xlink:title=" ">
<polygon fill="white" stroke="#bfbfbf" points="2530,-179.5 2530,-198.5 2597,-198.5 2597,-179.5 2530,-179.5"/>
<text text-anchor="middle" x="2563.5" y="-186.5" font-family="Helvetica,sans-Serif" font-size="10.00">streambuf</text>
</a>
</g>
</g>
<!-- Node17&#45;&gt;Node35 -->
<g id="edge35" class="edge">
<title>Node17&#45;&gt;Node35</title>
<path fill="none" stroke="midnightblue" d="M1807.29,-243.67C1918.41,-242.32 2241.51,-235.43 2519.49,-198.91"/>
<polygon fill="midnightblue" stroke="midnightblue" points="2520.33,-202.33 2529.78,-197.55 2519.41,-195.39 2520.33,-202.33"/>
</g>
<!-- Node36 -->
<g id="node36" class="node">
<title>Node36</title>
<g id="a_node36"><a xlink:title=" ">
<polygon fill="white" stroke="#bfbfbf" points="2615.5,-179.5 2615.5,-198.5 2701.5,-198.5 2701.5,-179.5 2615.5,-179.5"/>
<text text-anchor="middle" x="2658.5" y="-186.5" font-family="Helvetica,sans-Serif" font-size="10.00">Randomize.hh</text>
</a>
</g>
</g>
<!-- Node17&#45;&gt;Node36 -->
<g id="edge36" class="edge">
<title>Node17&#45;&gt;Node36</title>
<path fill="none" stroke="midnightblue" d="M1807.38,-243.53C1926.84,-241.75 2292.33,-233.76 2605.25,-199"/>
<polygon fill="midnightblue" stroke="midnightblue" points="2605.88,-202.45 2615.43,-197.86 2605.1,-195.49 2605.88,-202.45"/>
</g>
<!-- Node38 -->
<g id="node38" class="node">
<title>Node38</title>
<g id="a_node38"><a xlink:title=" ">
<polygon fill="white" stroke="#bfbfbf" points="2719.5,-179.5 2719.5,-198.5 2769.5,-198.5 2769.5,-179.5 2719.5,-179.5"/>
<text text-anchor="middle" x="2744.5" y="-186.5" font-family="Helvetica,sans-Serif" font-size="10.00">stdio.h</text>
</a>
</g>
</g>
<!-- Node37&#45;&gt;Node38 -->
<g id="edge38" class="edge">
<title>Node37&#45;&gt;Node38</title>
<path fill="none" stroke="midnightblue" d="M2359.05,-236.27C2362.25,-235.82 2365.42,-235.4 2368.5,-235 2516.83,-215.89 2558.41,-226.17 2709.25,-198.97"/>
<polygon fill="midnightblue" stroke="midnightblue" points="2710.14,-202.36 2719.35,-197.12 2708.88,-195.48 2710.14,-202.36"/>
</g>
<!-- Node39 -->
<g id="node39" class="node">
<title>Node39</title>
<g id="a_node39"><a xlink:title=" ">
<polygon fill="white" stroke="#bfbfbf" points="2787.5,-179.5 2787.5,-198.5 2835.5,-198.5 2835.5,-179.5 2787.5,-179.5"/>
<text text-anchor="middle" x="2811.5" y="-186.5" font-family="Helvetica,sans-Serif" font-size="10.00">time.h</text>
</a>
</g>
</g>
<!-- Node37&#45;&gt;Node39 -->
<g id="edge39" class="edge">
<title>Node37&#45;&gt;Node39</title>
<path fill="none" stroke="midnightblue" d="M2359.04,-236.21C2362.24,-235.78 2365.41,-235.37 2368.5,-235 2546.84,-213.59 2596.64,-230.56 2777.35,-198.89"/>
<polygon fill="midnightblue" stroke="midnightblue" points="2778.23,-202.29 2787.46,-197.09 2777,-195.39 2778.23,-202.29"/>
</g>
</g>
</svg>
