<?xml version="1.0" encoding="UTF-8" standalone="no"?>
<!DOCTYPE svg PUBLIC "-//W3C//DTD SVG 1.1//EN"
 "http://www.w3.org/Graphics/SVG/1.1/DTD/svg11.dtd">
<!-- Generated by graphviz version 2.43.0 (0)
 -->
<!-- Title: OMSimMDOMFlasher.hh Pages: 1 -->
<svg width="1359pt" height="207pt"
 viewBox="0.00 0.00 1359.00 207.00" xmlns="http://www.w3.org/2000/svg" xmlns:xlink="http://www.w3.org/1999/xlink">
<g id="graph0" class="graph" transform="scale(1 1) rotate(0) translate(4 203)">
<title>OMSimMDOMFlasher.hh</title>
<polygon fill="white" stroke="transparent" points="-4,4 -4,-203 1355,-203 1355,4 -4,4"/>
<!-- Node1 -->
<g id="node1" class="node">
<title>Node1</title>
<g id="a_node1"><a xlink:title=" ">
<polygon fill="#bfbfbf" stroke="black" points="999.5,-179.5 999.5,-198.5 1134.5,-198.5 1134.5,-179.5 999.5,-179.5"/>
<text text-anchor="middle" x="1067" y="-186.5" font-family="Helvetica,sans-Serif" font-size="10.00">OMSimMDOMFlasher.hh</text>
</a>
</g>
</g>
<!-- Node2 -->
<g id="node2" class="node">
<title>Node2</title>
<g id="a_node2"><a xlink:href="abc_detector_component_8hh.html" target="_top" xlink:title=" ">
<polygon fill="white" stroke="black" points="579.5,-123.5 579.5,-142.5 726.5,-142.5 726.5,-123.5 579.5,-123.5"/>
<text text-anchor="middle" x="653" y="-130.5" font-family="Helvetica,sans-Serif" font-size="10.00">abcDetectorComponent.hh</text>
</a>
</g>
</g>
<!-- Node1&#45;&gt;Node2 -->
<g id="edge1" class="edge">
<title>Node1&#45;&gt;Node2</title>
<path fill="none" stroke="midnightblue" d="M1001.4,-179.44C927.21,-169.77 806.6,-154.04 728.54,-143.85"/>
<polygon fill="midnightblue" stroke="midnightblue" points="728.66,-140.34 718.29,-142.52 727.76,-147.28 728.66,-140.34"/>
</g>
<!-- Node3 -->
<g id="node3" class="node">
<title>Node3</title>
<g id="a_node3"><a xlink:title=" ">
<polygon fill="white" stroke="#bfbfbf" points="0,-67.5 0,-86.5 116,-86.5 116,-67.5 0,-67.5"/>
<text text-anchor="middle" x="58" y="-74.5" font-family="Helvetica,sans-Serif" font-size="10.00">G4LogicalVolume.hh</text>
</a>
</g>
</g>
<!-- Node1&#45;&gt;Node3 -->
<g id="edge17" class="edge">
<title>Node1&#45;&gt;Node3</title>
<path fill="none" stroke="midnightblue" d="M999.13,-182.59C903.53,-174.79 723.8,-159.52 571,-143 375.68,-121.88 324.79,-113.04 126.28,-87.16"/>
<polygon fill="midnightblue" stroke="midnightblue" points="126.47,-83.66 116.1,-85.84 125.57,-90.6 126.47,-83.66"/>
</g>
<!-- Node4 -->
<g id="node4" class="node">
<title>Node4</title>
<g id="a_node4"><a xlink:title=" ">
<polygon fill="white" stroke="#bfbfbf" points="805.5,-6 805.5,-25 924.5,-25 924.5,-6 805.5,-6"/>
<text text-anchor="middle" x="865" y="-13" font-family="Helvetica,sans-Serif" font-size="10.00">G4SystemOfUnits.hh</text>
</a>
</g>
</g>
<!-- Node1&#45;&gt;Node4 -->
<g id="edge18" class="edge">
<title>Node1&#45;&gt;Node4</title>
<path fill="none" stroke="midnightblue" d="M1063.34,-179.23C1052.23,-152.81 1019.15,-75.23 1010,-67 987.85,-47.07 957.4,-34.91 930.12,-27.55"/>
<polygon fill="midnightblue" stroke="midnightblue" points="930.79,-24.1 920.24,-25.04 929.07,-30.89 930.79,-24.1"/>
</g>
<!-- Node17 -->
<g id="node17" class="node">
<title>Node17</title>
<g id="a_node17"><a xlink:title=" ">
<polygon fill="white" stroke="#bfbfbf" points="1057,-123.5 1057,-142.5 1155,-142.5 1155,-123.5 1057,-123.5"/>
<text text-anchor="middle" x="1106" y="-130.5" font-family="Helvetica,sans-Serif" font-size="10.00">G4UnionSolid.hh</text>
</a>
</g>
</g>
<!-- Node1&#45;&gt;Node17 -->
<g id="edge19" class="edge">
<title>Node1&#45;&gt;Node17</title>
<path fill="none" stroke="midnightblue" d="M1073.44,-179.08C1078.95,-171.46 1087.03,-160.26 1093.76,-150.94"/>
<polygon fill="midnightblue" stroke="midnightblue" points="1096.66,-152.91 1099.68,-142.75 1090.99,-148.81 1096.66,-152.91"/>
</g>
<!-- Node18 -->
<g id="node18" class="node">
<title>Node18</title>
<g id="a_node18"><a xlink:title=" ">
<polygon fill="white" stroke="#bfbfbf" points="1173.5,-123.5 1173.5,-142.5 1240.5,-142.5 1240.5,-123.5 1173.5,-123.5"/>
<text text-anchor="middle" x="1207" y="-130.5" font-family="Helvetica,sans-Serif" font-size="10.00">G4Tubs.hh</text>
</a>
</g>
</g>
<!-- Node1&#45;&gt;Node18 -->
<g id="edge20" class="edge">
<title>Node1&#45;&gt;Node18</title>
<path fill="none" stroke="midnightblue" d="M1089.18,-179.44C1112.43,-170.48 1149.15,-156.31 1175.42,-146.18"/>
<polygon fill="midnightblue" stroke="midnightblue" points="1176.85,-149.38 1184.92,-142.52 1174.33,-142.85 1176.85,-149.38"/>
</g>
<!-- Node19 -->
<g id="node19" class="node">
<title>Node19</title>
<g id="a_node19"><a xlink:title=" ">
<polygon fill="white" stroke="#bfbfbf" points="1259,-123.5 1259,-142.5 1351,-142.5 1351,-123.5 1259,-123.5"/>
<text text-anchor="middle" x="1305" y="-130.5" font-family="Helvetica,sans-Serif" font-size="10.00">G4Navigator.hh</text>
</a>
</g>
</g>
<!-- Node1&#45;&gt;Node19 -->
<g id="edge21" class="edge">
<title>Node1&#45;&gt;Node19</title>
<path fill="none" stroke="midnightblue" d="M1104.71,-179.44C1146.14,-170.04 1212.76,-154.93 1257.67,-144.74"/>
<polygon fill="midnightblue" stroke="midnightblue" points="1258.49,-148.14 1267.46,-142.52 1256.94,-141.32 1258.49,-148.14"/>
</g>
<!-- Node2&#45;&gt;Node3 -->
<g id="edge2" class="edge">
<title>Node2&#45;&gt;Node3</title>
<path fill="none" stroke="midnightblue" d="M579.43,-126.86C479.3,-119.62 294.27,-105.33 126.11,-87.07"/>
<polygon fill="midnightblue" stroke="midnightblue" points="126.4,-83.58 116.08,-85.98 125.64,-90.54 126.4,-83.58"/>
</g>
<!-- Node2&#45;&gt;Node4 -->
<g id="edge3" class="edge">
<title>Node2&#45;&gt;Node4</title>
<path fill="none" stroke="midnightblue" d="M722.02,-123.47C769.96,-116.18 828.28,-104.12 846,-87 859.79,-73.67 863.92,-51.48 864.99,-35.55"/>
<polygon fill="midnightblue" stroke="midnightblue" points="868.49,-35.38 865.32,-25.27 861.5,-35.16 868.49,-35.38"/>
</g>
<!-- Node5 -->
<g id="node5" class="node">
<title>Node5</title>
<g id="a_node5"><a xlink:title=" ">
<polygon fill="white" stroke="#bfbfbf" points="893.5,-67.5 893.5,-86.5 1000.5,-86.5 1000.5,-67.5 893.5,-67.5"/>
<text text-anchor="middle" x="947" y="-74.5" font-family="Helvetica,sans-Serif" font-size="10.00">G4Transform3D.hh</text>
</a>
</g>
</g>
<!-- Node2&#45;&gt;Node5 -->
<g id="edge4" class="edge">
<title>Node2&#45;&gt;Node5</title>
<path fill="none" stroke="midnightblue" d="M699.59,-123.44C751.41,-113.92 835.13,-98.55 890.62,-88.36"/>
<polygon fill="midnightblue" stroke="midnightblue" points="891.43,-91.77 900.63,-86.52 890.16,-84.88 891.43,-91.77"/>
</g>
<!-- Node6 -->
<g id="node6" class="node">
<title>Node6</title>
<g id="a_node6"><a xlink:title=" ">
<polygon fill="white" stroke="#bfbfbf" points="134,-67.5 134,-86.5 242,-86.5 242,-67.5 134,-67.5"/>
<text text-anchor="middle" x="188" y="-74.5" font-family="Helvetica,sans-Serif" font-size="10.00">G4VisAttributes.hh</text>
</a>
</g>
</g>
<!-- Node2&#45;&gt;Node6 -->
<g id="edge5" class="edge">
<title>Node2&#45;&gt;Node6</title>
<path fill="none" stroke="midnightblue" d="M579.2,-124.42C500.71,-116.2 372.66,-102.36 252.4,-87.15"/>
<polygon fill="midnightblue" stroke="midnightblue" points="252.64,-83.65 242.28,-85.86 251.76,-90.59 252.64,-83.65"/>
</g>
<!-- Node7 -->
<g id="node7" class="node">
<title>Node7</title>
<g id="a_node7"><a xlink:href="_o_m_sim_input_data_8hh.html" target="_top" xlink:title=" ">
<polygon fill="white" stroke="black" points="260.5,-67.5 260.5,-86.5 375.5,-86.5 375.5,-67.5 260.5,-67.5"/>
<text text-anchor="middle" x="318" y="-74.5" font-family="Helvetica,sans-Serif" font-size="10.00">OMSimInputData.hh</text>
</a>
</g>
</g>
<!-- Node2&#45;&gt;Node7 -->
<g id="edge6" class="edge">
<title>Node2&#45;&gt;Node7</title>
<path fill="none" stroke="midnightblue" d="M599.92,-123.44C540.5,-113.87 444.28,-98.36 381.07,-88.17"/>
<polygon fill="midnightblue" stroke="midnightblue" points="381.26,-84.65 370.83,-86.52 380.15,-91.56 381.26,-84.65"/>
</g>
<!-- Node13 -->
<g id="node13" class="node">
<title>Node13</title>
<g id="a_node13"><a xlink:title=" ">
<polygon fill="white" stroke="#bfbfbf" points="393.5,-67.5 393.5,-86.5 518.5,-86.5 518.5,-67.5 393.5,-67.5"/>
<text text-anchor="middle" x="456" y="-74.5" font-family="Helvetica,sans-Serif" font-size="10.00">G4SubtractionSolid.hh</text>
</a>
</g>
</g>
<!-- Node2&#45;&gt;Node13 -->
<g id="edge13" class="edge">
<title>Node2&#45;&gt;Node13</title>
<path fill="none" stroke="midnightblue" d="M621.78,-123.44C588.07,-114.2 534.2,-99.44 497.07,-89.26"/>
<polygon fill="midnightblue" stroke="midnightblue" points="497.64,-85.78 487.07,-86.52 495.79,-92.54 497.64,-85.78"/>
</g>
<!-- Node14 -->
<g id="node14" class="node">
<title>Node14</title>
<g id="a_node14"><a xlink:title=" ">
<polygon fill="white" stroke="#bfbfbf" points="537,-67.5 537,-86.5 647,-86.5 647,-67.5 537,-67.5"/>
<text text-anchor="middle" x="592" y="-74.5" font-family="Helvetica,sans-Serif" font-size="10.00">G4PVPlacement.hh</text>
</a>
</g>
</g>
<!-- Node2&#45;&gt;Node14 -->
<g id="edge14" class="edge">
<title>Node2&#45;&gt;Node14</title>
<path fill="none" stroke="midnightblue" d="M643.2,-123.32C634.18,-115.34 620.59,-103.31 609.68,-93.65"/>
<polygon fill="midnightblue" stroke="midnightblue" points="611.79,-90.84 601.98,-86.83 607.15,-96.08 611.79,-90.84"/>
</g>
<!-- Node15 -->
<g id="node15" class="node">
<title>Node15</title>
<g id="a_node15"><a xlink:title=" ">
<polygon fill="white" stroke="#bfbfbf" points="665,-67.5 665,-86.5 763,-86.5 763,-67.5 665,-67.5"/>
<text text-anchor="middle" x="714" y="-74.5" font-family="Helvetica,sans-Serif" font-size="10.00">G4MultiUnion.hh</text>
</a>
</g>
</g>
<!-- Node2&#45;&gt;Node15 -->
<g id="edge15" class="edge">
<title>Node2&#45;&gt;Node15</title>
<path fill="none" stroke="midnightblue" d="M662.8,-123.32C671.82,-115.34 685.41,-103.31 696.32,-93.65"/>
<polygon fill="midnightblue" stroke="midnightblue" points="698.85,-96.08 704.02,-86.83 694.21,-90.84 698.85,-96.08"/>
</g>
<!-- Node16 -->
<g id="node16" class="node">
<title>Node16</title>
<g id="a_node16"><a xlink:title=" ">
<polygon fill="white" stroke="#bfbfbf" points="781,-67.5 781,-86.5 837,-86.5 837,-67.5 781,-67.5"/>
<text text-anchor="middle" x="809" y="-74.5" font-family="Helvetica,sans-Serif" font-size="10.00">sstream</text>
</a>
</g>
</g>
<!-- Node2&#45;&gt;Node16 -->
<g id="edge16" class="edge">
<title>Node2&#45;&gt;Node16</title>
<path fill="none" stroke="midnightblue" d="M677.72,-123.44C703.85,-114.4 745.26,-100.06 774.58,-89.92"/>
<polygon fill="midnightblue" stroke="midnightblue" points="776.09,-93.1 784.4,-86.52 773.8,-86.48 776.09,-93.1"/>
</g>
<!-- Node7&#45;&gt;Node4 -->
<g id="edge12" class="edge">
<title>Node7&#45;&gt;Node4</title>
<path fill="none" stroke="midnightblue" d="M375.73,-68.14C378.86,-67.74 381.97,-67.36 385,-67 530.75,-49.55 701.8,-32.33 795.27,-23.2"/>
<polygon fill="midnightblue" stroke="midnightblue" points="795.83,-26.66 805.45,-22.21 795.16,-19.7 795.83,-26.66"/>
</g>
<!-- Node8 -->
<g id="node8" class="node">
<title>Node8</title>
<g id="a_node8"><a xlink:title=" ">
<polygon fill="white" stroke="#bfbfbf" points="12.5,-0.5 12.5,-30.5 125.5,-30.5 125.5,-0.5 12.5,-0.5"/>
<text text-anchor="start" x="20.5" y="-18.5" font-family="Helvetica,sans-Serif" font-size="10.00">boost/property_tree</text>
<text text-anchor="middle" x="69" y="-7.5" font-family="Helvetica,sans-Serif" font-size="10.00">/ptree.hpp</text>
</a>
</g>
</g>
<!-- Node7&#45;&gt;Node8 -->
<g id="edge7" class="edge">
<title>Node7&#45;&gt;Node8</title>
<path fill="none" stroke="midnightblue" d="M282.32,-67.48C244.16,-58.36 182.76,-43.68 135.61,-32.42"/>
<polygon fill="midnightblue" stroke="midnightblue" points="136.31,-28.99 125.77,-30.07 134.69,-35.79 136.31,-28.99"/>
</g>
<!-- Node9 -->
<g id="node9" class="node">
<title>Node9</title>
<g id="a_node9"><a xlink:title=" ">
<polygon fill="white" stroke="#bfbfbf" points="143.5,-0.5 143.5,-30.5 256.5,-30.5 256.5,-0.5 143.5,-0.5"/>
<text text-anchor="start" x="151.5" y="-18.5" font-family="Helvetica,sans-Serif" font-size="10.00">boost/property_tree</text>
<text text-anchor="middle" x="200" y="-7.5" font-family="Helvetica,sans-Serif" font-size="10.00">/json_parser.hpp</text>
</a>
</g>
</g>
<!-- Node7&#45;&gt;Node9 -->
<g id="edge8" class="edge">
<title>Node7&#45;&gt;Node9</title>
<path fill="none" stroke="midnightblue" d="M301.09,-67.48C284.44,-59.08 258.45,-45.97 236.99,-35.15"/>
<polygon fill="midnightblue" stroke="midnightblue" points="238.32,-31.9 227.81,-30.52 235.16,-38.15 238.32,-31.9"/>
</g>
<!-- Node10 -->
<g id="node10" class="node">
<title>Node10</title>
<g id="a_node10"><a xlink:title=" ">
<polygon fill="white" stroke="#bfbfbf" points="275,-6 275,-25 361,-25 361,-6 275,-6"/>
<text text-anchor="middle" x="318" y="-13" font-family="Helvetica,sans-Serif" font-size="10.00">G4Material.hh</text>
</a>
</g>
</g>
<!-- Node7&#45;&gt;Node10 -->
<g id="edge9" class="edge">
<title>Node7&#45;&gt;Node10</title>
<path fill="none" stroke="midnightblue" d="M318,-67.48C318,-59.08 318,-45.98 318,-35.16"/>
<polygon fill="midnightblue" stroke="midnightblue" points="321.5,-35.01 318,-25.01 314.5,-35.01 321.5,-35.01"/>
</g>
<!-- Node11 -->
<g id="node11" class="node">
<title>Node11</title>
<g id="a_node11"><a xlink:title=" ">
<polygon fill="white" stroke="#bfbfbf" points="379.5,-6 379.5,-25 486.5,-25 486.5,-6 379.5,-6"/>
<text text-anchor="middle" x="433" y="-13" font-family="Helvetica,sans-Serif" font-size="10.00">G4NistManager.hh</text>
</a>
</g>
</g>
<!-- Node7&#45;&gt;Node11 -->
<g id="edge10" class="edge">
<title>Node7&#45;&gt;Node11</title>
<path fill="none" stroke="midnightblue" d="M334.48,-67.48C353.61,-57.58 385.37,-41.14 407.65,-29.62"/>
<polygon fill="midnightblue" stroke="midnightblue" points="409.28,-32.71 416.55,-25.01 406.06,-26.5 409.28,-32.71"/>
</g>
<!-- Node12 -->
<g id="node12" class="node">
<title>Node12</title>
<g id="a_node12"><a xlink:title=" ">
<polygon fill="white" stroke="#bfbfbf" points="504.5,-6 504.5,-25 647.5,-25 647.5,-6 504.5,-6"/>
<text text-anchor="middle" x="576" y="-13" font-family="Helvetica,sans-Serif" font-size="10.00">G4OpBoundaryProcess.hh</text>
</a>
</g>
</g>
<!-- Node7&#45;&gt;Node12 -->
<g id="edge11" class="edge">
<title>Node7&#45;&gt;Node12</title>
<path fill="none" stroke="midnightblue" d="M354.97,-67.48C400.85,-56.89 479.15,-38.84 529.18,-27.3"/>
<polygon fill="midnightblue" stroke="midnightblue" points="530.15,-30.67 539.1,-25.01 528.57,-23.85 530.15,-30.67"/>
</g>
</g>
</svg>
