<?xml version="1.0" encoding="UTF-8" standalone="no"?>
<!DOCTYPE svg PUBLIC "-//W3C//DTD SVG 1.1//EN"
 "http://www.w3.org/Graphics/SVG/1.1/DTD/svg11.dtd">
<!-- Generated by graphviz version 2.43.0 (0)
 -->
<!-- Title: OMSimAnalysisManager.hh Pages: 1 -->
<svg width="925pt" height="140pt"
 viewBox="0.00 0.00 925.00 140.00" xmlns="http://www.w3.org/2000/svg" xmlns:xlink="http://www.w3.org/1999/xlink">
<g id="graph0" class="graph" transform="scale(1 1) rotate(0) translate(4 136)">
<title>OMSimAnalysisManager.hh</title>
<polygon fill="white" stroke="transparent" points="-4,4 -4,-136 921,-136 921,4 -4,4"/>
<!-- Node1 -->
<g id="node1" class="node">
<title>Node1</title>
<g id="a_node1"><a xlink:title=" ">
<polygon fill="#bfbfbf" stroke="black" points="334.5,-112.5 334.5,-131.5 484.5,-131.5 484.5,-112.5 334.5,-112.5"/>
<text text-anchor="middle" x="409.5" y="-119.5" font-family="Helvetica,sans-Serif" font-size="10.00">OMSimAnalysisManager.hh</text>
</a>
</g>
</g>
<!-- Node2 -->
<g id="node2" class="node">
<title>Node2</title>
<g id="a_node2"><a xlink:href="_o_m_sim_8h.html" target="_top" xlink:title=" ">
<polygon fill="white" stroke="black" points="64,-56.5 64,-75.5 125,-75.5 125,-56.5 64,-56.5"/>
<text text-anchor="middle" x="94.5" y="-63.5" font-family="Helvetica,sans-Serif" font-size="10.00">OMSim.h</text>
</a>
</g>
</g>
<!-- Node1&#45;&gt;Node2 -->
<g id="edge1" class="edge">
<title>Node1&#45;&gt;Node2</title>
<path fill="none" stroke="midnightblue" d="M345.19,-110.88C290.43,-102.12 209.69,-88.86 139.5,-76 134.95,-75.17 130.16,-74.25 125.46,-73.33"/>
<polygon fill="midnightblue" stroke="midnightblue" points="344.68,-114.34 355.11,-112.46 345.79,-107.43 344.68,-114.34"/>
</g>
<!-- Node4 -->
<g id="node4" class="node">
<title>Node4</title>
<g id="a_node4"><a xlink:href="_o_m_sim__effective__area_8cc.html" target="_top" xlink:title="Main for the calculation of effective areas.">
<polygon fill="white" stroke="black" points="83.5,-0.5 83.5,-19.5 223.5,-19.5 223.5,-0.5 83.5,-0.5"/>
<text text-anchor="middle" x="153.5" y="-7.5" font-family="Helvetica,sans-Serif" font-size="10.00">OMSim_effective_area.cc</text>
</a>
</g>
</g>
<!-- Node1&#45;&gt;Node4 -->
<g id="edge9" class="edge">
<title>Node1&#45;&gt;Node4</title>
<path fill="none" stroke="midnightblue" d="M324.38,-114.17C265.77,-107.77 194.63,-96.09 172.5,-76 156.31,-61.3 153.61,-33.65 153.35,-19.63"/>
<polygon fill="midnightblue" stroke="midnightblue" points="324.1,-117.66 334.41,-115.22 324.83,-110.69 324.1,-117.66"/>
</g>
<!-- Node5 -->
<g id="node5" class="node">
<title>Node5</title>
<g id="a_node5"><a xlink:href="_o_m_sim_analysis_manager_8cc.html" target="_top" xlink:title=" ">
<polygon fill="white" stroke="black" points="181,-56.5 181,-75.5 330,-75.5 330,-56.5 181,-56.5"/>
<text text-anchor="middle" x="255.5" y="-63.5" font-family="Helvetica,sans-Serif" font-size="10.00">OMSimAnalysisManager.cc</text>
</a>
</g>
</g>
<!-- Node1&#45;&gt;Node5 -->
<g id="edge4" class="edge">
<title>Node1&#45;&gt;Node5</title>
<path fill="none" stroke="midnightblue" d="M375.39,-109.04C346.41,-98.88 305.54,-84.55 279.79,-75.52"/>
<polygon fill="midnightblue" stroke="midnightblue" points="374.5,-112.44 385.1,-112.44 376.82,-105.83 374.5,-112.44"/>
</g>
<!-- Node6 -->
<g id="node6" class="node">
<title>Node6</title>
<g id="a_node6"><a xlink:href="_o_m_sim_event_action_8cc.html" target="_top" xlink:title=" ">
<polygon fill="white" stroke="black" points="347.5,-56.5 347.5,-75.5 471.5,-75.5 471.5,-56.5 347.5,-56.5"/>
<text text-anchor="middle" x="409.5" y="-63.5" font-family="Helvetica,sans-Serif" font-size="10.00">OMSimEventAction.cc</text>
</a>
</g>
</g>
<!-- Node1&#45;&gt;Node6 -->
<g id="edge5" class="edge">
<title>Node1&#45;&gt;Node6</title>
<path fill="none" stroke="midnightblue" d="M409.5,-101.8C409.5,-92.91 409.5,-82.78 409.5,-75.75"/>
<polygon fill="midnightblue" stroke="midnightblue" points="406,-102.08 409.5,-112.08 413,-102.08 406,-102.08"/>
</g>
<!-- Node7 -->
<g id="node7" class="node">
<title>Node7</title>
<g id="a_node7"><a xlink:href="_o_m_sim_run_action_8cc.html" target="_top" xlink:title=" ">
<polygon fill="white" stroke="black" points="490,-56.5 490,-75.5 605,-75.5 605,-56.5 490,-56.5"/>
<text text-anchor="middle" x="547.5" y="-63.5" font-family="Helvetica,sans-Serif" font-size="10.00">OMSimRunAction.cc</text>
</a>
</g>
</g>
<!-- Node1&#45;&gt;Node7 -->
<g id="edge6" class="edge">
<title>Node1&#45;&gt;Node7</title>
<path fill="none" stroke="midnightblue" d="M440.75,-108.77C466.67,-98.63 502.86,-84.47 525.74,-75.52"/>
<polygon fill="midnightblue" stroke="midnightblue" points="439.4,-105.54 431.37,-112.44 441.95,-112.06 439.4,-105.54"/>
</g>
<!-- Node8 -->
<g id="node8" class="node">
<title>Node8</title>
<g id="a_node8"><a xlink:href="_o_m_sim_stepping_action_8cc.html" target="_top" xlink:title=" ">
<polygon fill="white" stroke="black" points="623,-56.5 623,-75.5 762,-75.5 762,-56.5 623,-56.5"/>
<text text-anchor="middle" x="692.5" y="-63.5" font-family="Helvetica,sans-Serif" font-size="10.00">OMSimSteppingAction.cc</text>
</a>
</g>
</g>
<!-- Node1&#45;&gt;Node8 -->
<g id="edge7" class="edge">
<title>Node1&#45;&gt;Node8</title>
<path fill="none" stroke="midnightblue" d="M464.33,-110.54C517.82,-100.33 598.17,-85 647.87,-75.52"/>
<polygon fill="midnightblue" stroke="midnightblue" points="463.51,-107.13 454.34,-112.44 464.82,-114.01 463.51,-107.13"/>
</g>
<!-- Node9 -->
<g id="node9" class="node">
<title>Node9</title>
<g id="a_node9"><a xlink:href="_o_m_sim_tracking_action_8cc.html" target="_top" xlink:title=" ">
<polygon fill="white" stroke="black" points="780,-56.5 780,-75.5 917,-75.5 917,-56.5 780,-56.5"/>
<text text-anchor="middle" x="848.5" y="-63.5" font-family="Helvetica,sans-Serif" font-size="10.00">OMSimTrackingAction.cc</text>
</a>
</g>
</g>
<!-- Node1&#45;&gt;Node9 -->
<g id="edge8" class="edge">
<title>Node1&#45;&gt;Node9</title>
<path fill="none" stroke="midnightblue" d="M489.22,-111.19C572.35,-100.97 701.29,-85.11 779.99,-75.43"/>
<polygon fill="midnightblue" stroke="midnightblue" points="488.56,-107.75 479.06,-112.44 489.41,-114.7 488.56,-107.75"/>
</g>
<!-- Node3 -->
<g id="node3" class="node">
<title>Node3</title>
<g id="a_node3"><a xlink:href="_o_m_sim_8cc.html" target="_top" xlink:title=" ">
<polygon fill="white" stroke="black" points="0,-0.5 0,-19.5 65,-19.5 65,-0.5 0,-0.5"/>
<text text-anchor="middle" x="32.5" y="-7.5" font-family="Helvetica,sans-Serif" font-size="10.00">OMSim.cc</text>
</a>
</g>
</g>
<!-- Node2&#45;&gt;Node3 -->
<g id="edge2" class="edge">
<title>Node2&#45;&gt;Node3</title>
<path fill="none" stroke="midnightblue" d="M76.75,-49.54C65.69,-39.91 51.87,-27.87 42.64,-19.83"/>
<polygon fill="midnightblue" stroke="midnightblue" points="74.7,-52.4 84.54,-56.32 79.3,-47.12 74.7,-52.4"/>
</g>
<!-- Node2&#45;&gt;Node4 -->
<g id="edge3" class="edge">
<title>Node2&#45;&gt;Node4</title>
<path fill="none" stroke="midnightblue" d="M111.39,-49.54C121.91,-39.91 135.07,-27.87 143.85,-19.83"/>
<polygon fill="midnightblue" stroke="midnightblue" points="108.99,-46.99 103.98,-56.32 113.72,-52.15 108.99,-46.99"/>
</g>
</g>
</svg>
