<?xml version="1.0" encoding="UTF-8" standalone="no"?>
<!DOCTYPE svg PUBLIC "-//W3C//DTD SVG 1.1//EN"
 "http://www.w3.org/Graphics/SVG/1.1/DTD/svg11.dtd">
<!-- Generated by graphviz version 2.43.0 (0)
 -->
<!-- Title: /home/runner/work/OMSim/OMSim/common/src/OMSimDEGGHarness.cc Pages: 1 -->
<svg width="2877pt" height="330pt"
 viewBox="0.00 0.00 2876.67 330.00" xmlns="http://www.w3.org/2000/svg" xmlns:xlink="http://www.w3.org/1999/xlink">
<g id="graph0" class="graph" transform="scale(1 1) rotate(0) translate(4 326)">
<title>/home/runner/work/OMSim/OMSim/common/src/OMSimDEGGHarness.cc</title>
<polygon fill="white" stroke="transparent" points="-4,4 -4,-326 2872.67,-326 2872.67,4 -4,4"/>
<!-- Node1 -->
<g id="node1" class="node">
<title>Node1</title>
<g id="a_node1"><a xlink:title=" ">
<polygon fill="#bfbfbf" stroke="black" points="1060.67,-291.5 1060.67,-321.5 1298.67,-321.5 1298.67,-291.5 1060.67,-291.5"/>
<text text-anchor="start" x="1068.67" y="-309.5" font-family="Helvetica,sans-Serif" font-size="10.00">/home/runner/work/OMSim</text>
<text text-anchor="middle" x="1179.67" y="-298.5" font-family="Helvetica,sans-Serif" font-size="10.00">/OMSim/common/src/OMSimDEGGHarness.cc</text>
</a>
</g>
</g>
<!-- Node2 -->
<g id="node2" class="node">
<title>Node2</title>
<g id="a_node2"><a xlink:href="_o_m_sim_d_e_g_g_harness_8hh.html" target="_top" xlink:title=" ">
<polygon fill="white" stroke="black" points="534.17,-179.5 534.17,-198.5 669.17,-198.5 669.17,-179.5 534.17,-179.5"/>
<text text-anchor="middle" x="601.67" y="-186.5" font-family="Helvetica,sans-Serif" font-size="10.00">OMSimDEGGHarness.hh</text>
</a>
</g>
</g>
<!-- Node1&#45;&gt;Node2 -->
<g id="edge1" class="edge">
<title>Node1&#45;&gt;Node2</title>
<path fill="none" stroke="midnightblue" d="M1060.43,-301.04C935.9,-295.03 749.67,-281.81 683.67,-255 656.72,-244.05 631.41,-221.38 616.22,-205.92"/>
<polygon fill="midnightblue" stroke="midnightblue" points="618.68,-203.43 609.25,-198.6 613.61,-208.26 618.68,-203.43"/>
</g>
<!-- Node3 -->
<g id="node3" class="node">
<title>Node3</title>
<g id="a_node3"><a xlink:href="abc_detector_component_8hh.html" target="_top" xlink:title=" ">
<polygon fill="white" stroke="black" points="558.17,-123.5 558.17,-142.5 705.17,-142.5 705.17,-123.5 558.17,-123.5"/>
<text text-anchor="middle" x="631.67" y="-130.5" font-family="Helvetica,sans-Serif" font-size="10.00">abcDetectorComponent.hh</text>
</a>
</g>
</g>
<!-- Node1&#45;&gt;Node3 -->
<g id="edge43" class="edge">
<title>Node1&#45;&gt;Node3</title>
<path fill="none" stroke="midnightblue" d="M1060.6,-300.7C952.31,-294.69 801.57,-281.74 748.67,-255 707.41,-234.15 709.97,-212.06 677.67,-179 667.98,-169.09 656.88,-158.22 648.01,-149.65"/>
<polygon fill="midnightblue" stroke="midnightblue" points="650.23,-146.92 640.6,-142.51 645.38,-151.97 650.23,-146.92"/>
</g>
<!-- Node4 -->
<g id="node4" class="node">
<title>Node4</title>
<g id="a_node4"><a xlink:title=" ">
<polygon fill="white" stroke="#bfbfbf" points="993.67,-67.5 993.67,-86.5 1109.67,-86.5 1109.67,-67.5 993.67,-67.5"/>
<text text-anchor="middle" x="1051.67" y="-74.5" font-family="Helvetica,sans-Serif" font-size="10.00">G4LogicalVolume.hh</text>
</a>
</g>
</g>
<!-- Node1&#45;&gt;Node4 -->
<g id="edge54" class="edge">
<title>Node1&#45;&gt;Node4</title>
<path fill="none" stroke="midnightblue" d="M1163.64,-291.32C1154.4,-282.04 1143.65,-269.05 1138.67,-255 1118.64,-198.57 1199.35,-172.51 1165.67,-123 1154.56,-106.67 1136.52,-96.27 1118.03,-89.64"/>
<polygon fill="midnightblue" stroke="midnightblue" points="1118.95,-86.26 1108.36,-86.5 1116.79,-92.92 1118.95,-86.26"/>
</g>
<!-- Node5 -->
<g id="node5" class="node">
<title>Node5</title>
<g id="a_node5"><a xlink:title=" ">
<polygon fill="white" stroke="#bfbfbf" points="715.17,-6 715.17,-25 834.17,-25 834.17,-6 715.17,-6"/>
<text text-anchor="middle" x="774.67" y="-13" font-family="Helvetica,sans-Serif" font-size="10.00">G4SystemOfUnits.hh</text>
</a>
</g>
</g>
<!-- Node1&#45;&gt;Node5 -->
<g id="edge59" class="edge">
<title>Node1&#45;&gt;Node5</title>
<path fill="none" stroke="midnightblue" d="M1175.16,-291.27C1171.28,-276.9 1166.98,-254.14 1171.67,-235 1191.18,-155.22 1303.92,-127.77 1248.67,-67 1220.28,-35.78 912.54,-36.15 870.67,-31 859.97,-29.68 848.63,-28.12 837.63,-26.52"/>
<polygon fill="midnightblue" stroke="midnightblue" points="838.07,-23.04 827.66,-25.04 837.04,-29.97 838.07,-23.04"/>
</g>
<!-- Node6 -->
<g id="node6" class="node">
<title>Node6</title>
<g id="a_node6"><a xlink:title=" ">
<polygon fill="white" stroke="#bfbfbf" points="21.17,-67.5 21.17,-86.5 128.17,-86.5 128.17,-67.5 21.17,-67.5"/>
<text text-anchor="middle" x="74.67" y="-74.5" font-family="Helvetica,sans-Serif" font-size="10.00">G4Transform3D.hh</text>
</a>
</g>
</g>
<!-- Node1&#45;&gt;Node6 -->
<g id="edge60" class="edge">
<title>Node1&#45;&gt;Node6</title>
<path fill="none" stroke="midnightblue" d="M1060.29,-304.11C806.6,-300.51 230.18,-288.7 147.67,-255 112.98,-240.83 101.41,-232.51 84.67,-199 68.24,-166.12 69.55,-121.89 72.06,-97.03"/>
<polygon fill="midnightblue" stroke="midnightblue" points="75.57,-97.14 73.27,-86.8 68.62,-96.31 75.57,-97.14"/>
</g>
<!-- Node7 -->
<g id="node7" class="node">
<title>Node7</title>
<g id="a_node7"><a xlink:title=" ">
<polygon fill="white" stroke="#bfbfbf" points="619.67,-67.5 619.67,-86.5 727.67,-86.5 727.67,-67.5 619.67,-67.5"/>
<text text-anchor="middle" x="673.67" y="-74.5" font-family="Helvetica,sans-Serif" font-size="10.00">G4VisAttributes.hh</text>
</a>
</g>
</g>
<!-- Node1&#45;&gt;Node7 -->
<g id="edge64" class="edge">
<title>Node1&#45;&gt;Node7</title>
<path fill="none" stroke="midnightblue" d="M1060.58,-301.51C880.09,-294.79 545.87,-279.48 428.67,-255 284.45,-224.88 201.44,-263.5 116.67,-143 111.55,-135.73 110.61,-129.51 116.67,-123 152.53,-84.43 522.09,-92.11 609.4,-86.8"/>
<polygon fill="midnightblue" stroke="midnightblue" points="609.71,-90.28 619.4,-86 609.15,-83.3 609.71,-90.28"/>
</g>
<!-- Node14 -->
<g id="node11" class="node">
<title>Node14</title>
<g id="a_node11"><a xlink:title=" ">
<polygon fill="white" stroke="#bfbfbf" points="232.17,-67.5 232.17,-86.5 357.17,-86.5 357.17,-67.5 232.17,-67.5"/>
<text text-anchor="middle" x="294.67" y="-74.5" font-family="Helvetica,sans-Serif" font-size="10.00">G4SubtractionSolid.hh</text>
</a>
</g>
</g>
<!-- Node1&#45;&gt;Node14 -->
<g id="edge58" class="edge">
<title>Node1&#45;&gt;Node14</title>
<path fill="none" stroke="midnightblue" d="M1060.28,-303.27C815.53,-298.15 273.17,-283.69 193.67,-255 125.18,-230.29 51.25,-179.9 96.67,-123 112.35,-103.35 172.05,-91.62 221.84,-85.09"/>
<polygon fill="midnightblue" stroke="midnightblue" points="222.48,-88.54 231.97,-83.82 221.61,-81.6 222.48,-88.54"/>
</g>
<!-- Node15 -->
<g id="node12" class="node">
<title>Node15</title>
<g id="a_node12"><a xlink:title=" ">
<polygon fill="white" stroke="#bfbfbf" points="375.67,-67.5 375.67,-86.5 485.67,-86.5 485.67,-67.5 375.67,-67.5"/>
<text text-anchor="middle" x="430.67" y="-74.5" font-family="Helvetica,sans-Serif" font-size="10.00">G4PVPlacement.hh</text>
</a>
</g>
</g>
<!-- Node1&#45;&gt;Node15 -->
<g id="edge57" class="edge">
<title>Node1&#45;&gt;Node15</title>
<path fill="none" stroke="midnightblue" d="M1060.59,-304.75C847.27,-302.46 408.43,-293.1 260.67,-255 205.23,-240.71 187.53,-236.95 144.67,-199 116.68,-174.23 84.13,-151.2 108.67,-123 108.93,-122.7 271.34,-100.11 365.37,-87.06"/>
<polygon fill="midnightblue" stroke="midnightblue" points="365.95,-90.51 375.37,-85.67 364.98,-83.58 365.95,-90.51"/>
</g>
<!-- Node18 -->
<g id="node15" class="node">
<title>Node18</title>
<g id="a_node15"><a xlink:title=" ">
<polygon fill="white" stroke="#bfbfbf" points="1027.67,-123.5 1027.67,-142.5 1125.67,-142.5 1125.67,-123.5 1027.67,-123.5"/>
<text text-anchor="middle" x="1076.67" y="-130.5" font-family="Helvetica,sans-Serif" font-size="10.00">G4UnionSolid.hh</text>
</a>
</g>
</g>
<!-- Node1&#45;&gt;Node18 -->
<g id="edge62" class="edge">
<title>Node1&#45;&gt;Node18</title>
<path fill="none" stroke="midnightblue" d="M1145.39,-291.34C1129.42,-283.04 1111.59,-271 1100.67,-255 1079.41,-223.86 1076.04,-178.33 1076.01,-152.93"/>
<polygon fill="midnightblue" stroke="midnightblue" points="1079.51,-152.85 1076.17,-142.79 1072.51,-152.73 1079.51,-152.85"/>
</g>
<!-- Node19 -->
<g id="node16" class="node">
<title>Node19</title>
<g id="a_node16"><a xlink:title=" ">
<polygon fill="white" stroke="#bfbfbf" points="126.17,-123.5 126.17,-142.5 253.17,-142.5 253.17,-123.5 126.17,-123.5"/>
<text text-anchor="middle" x="189.67" y="-130.5" font-family="Helvetica,sans-Serif" font-size="10.00">G4IntersectionSolid.hh</text>
</a>
</g>
</g>
<!-- Node1&#45;&gt;Node19 -->
<g id="edge51" class="edge">
<title>Node1&#45;&gt;Node19</title>
<path fill="none" stroke="midnightblue" d="M1060.52,-300.86C895.13,-293.69 604.71,-278.28 501.67,-255 391.2,-230.05 268.06,-172.94 215.6,-147.11"/>
<polygon fill="midnightblue" stroke="midnightblue" points="216.87,-143.83 206.36,-142.52 213.76,-150.1 216.87,-143.83"/>
</g>
<!-- Node20 -->
<g id="node17" class="node">
<title>Node20</title>
<g id="a_node17"><a xlink:title=" ">
<polygon fill="white" stroke="#bfbfbf" points="271.17,-123.5 271.17,-142.5 340.17,-142.5 340.17,-123.5 271.17,-123.5"/>
<text text-anchor="middle" x="305.67" y="-130.5" font-family="Helvetica,sans-Serif" font-size="10.00">G4Cons.hh</text>
</a>
</g>
</g>
<!-- Node1&#45;&gt;Node20 -->
<g id="edge47" class="edge">
<title>Node1&#45;&gt;Node20</title>
<path fill="none" stroke="midnightblue" d="M1060.41,-300.8C908.12,-293.93 653.46,-279.24 562.67,-255 470.56,-230.41 371.01,-173.96 327.78,-147.79"/>
<polygon fill="midnightblue" stroke="midnightblue" points="329.56,-144.77 319.2,-142.54 325.9,-150.74 329.56,-144.77"/>
</g>
<!-- Node21 -->
<g id="node18" class="node">
<title>Node21</title>
<g id="a_node18"><a xlink:title=" ">
<polygon fill="white" stroke="#bfbfbf" points="358.17,-123.5 358.17,-142.5 425.17,-142.5 425.17,-123.5 358.17,-123.5"/>
<text text-anchor="middle" x="391.67" y="-130.5" font-family="Helvetica,sans-Serif" font-size="10.00">G4Tubs.hh</text>
</a>
</g>
</g>
<!-- Node1&#45;&gt;Node21 -->
<g id="edge61" class="edge">
<title>Node1&#45;&gt;Node21</title>
<path fill="none" stroke="midnightblue" d="M1060.41,-302.03C951.8,-297.03 787.52,-284.81 647.67,-255 571.51,-238.77 550.89,-234.64 481.67,-199 454.57,-185.05 426.61,-163.53 409.19,-149.12"/>
<polygon fill="midnightblue" stroke="midnightblue" points="411.44,-146.44 401.54,-142.68 406.93,-151.8 411.44,-146.44"/>
</g>
<!-- Node22 -->
<g id="node19" class="node">
<title>Node22</title>
<g id="a_node19"><a xlink:href="_o_m_sim_d_e_g_g_8hh.html" target="_top" xlink:title=" ">
<polygon fill="white" stroke="black" points="758.17,-235.5 758.17,-254.5 853.17,-254.5 853.17,-235.5 758.17,-235.5"/>
<text text-anchor="middle" x="805.67" y="-242.5" font-family="Helvetica,sans-Serif" font-size="10.00">OMSimDEGG.hh</text>
</a>
</g>
</g>
<!-- Node1&#45;&gt;Node22 -->
<g id="edge22" class="edge">
<title>Node1&#45;&gt;Node22</title>
<path fill="none" stroke="midnightblue" d="M1091.51,-291.47C1021.08,-280.27 924.39,-264.89 863.48,-255.2"/>
<polygon fill="midnightblue" stroke="midnightblue" points="863.7,-251.69 853.28,-253.57 862.6,-258.6 863.7,-251.69"/>
</g>
<!-- Node26 -->
<g id="node22" class="node">
<title>Node26</title>
<g id="a_node22"><a xlink:title=" ">
<polygon fill="white" stroke="#bfbfbf" points="1180.67,-235.5 1180.67,-254.5 1234.67,-254.5 1234.67,-235.5 1180.67,-235.5"/>
<text text-anchor="middle" x="1207.67" y="-242.5" font-family="Helvetica,sans-Serif" font-size="10.00">dirent.h</text>
</a>
</g>
</g>
<!-- Node1&#45;&gt;Node26 -->
<g id="edge44" class="edge">
<title>Node1&#45;&gt;Node26</title>
<path fill="none" stroke="midnightblue" d="M1186.3,-291.4C1190.2,-283.11 1195.17,-272.55 1199.33,-263.71"/>
<polygon fill="midnightblue" stroke="midnightblue" points="1202.5,-265.2 1203.59,-254.66 1196.17,-262.22 1202.5,-265.2"/>
</g>
<!-- Node27 -->
<g id="node23" class="node">
<title>Node27</title>
<g id="a_node23"><a xlink:title=" ">
<polygon fill="white" stroke="#bfbfbf" points="1253.17,-235.5 1253.17,-254.5 1318.17,-254.5 1318.17,-235.5 1253.17,-235.5"/>
<text text-anchor="middle" x="1285.67" y="-242.5" font-family="Helvetica,sans-Serif" font-size="10.00">stdexcept</text>
</a>
</g>
</g>
<!-- Node1&#45;&gt;Node27 -->
<g id="edge45" class="edge">
<title>Node1&#45;&gt;Node27</title>
<path fill="none" stroke="midnightblue" d="M1204.79,-291.4C1221.94,-281.77 1244.53,-269.09 1261.48,-259.58"/>
<polygon fill="midnightblue" stroke="midnightblue" points="1263.24,-262.6 1270.24,-254.66 1259.81,-256.5 1263.24,-262.6"/>
</g>
<!-- Node28 -->
<g id="node24" class="node">
<title>Node28</title>
<g id="a_node24"><a xlink:title=" ">
<polygon fill="white" stroke="#bfbfbf" points="1336.17,-235.5 1336.17,-254.5 1385.17,-254.5 1385.17,-235.5 1336.17,-235.5"/>
<text text-anchor="middle" x="1360.67" y="-242.5" font-family="Helvetica,sans-Serif" font-size="10.00">cstdlib</text>
</a>
</g>
</g>
<!-- Node1&#45;&gt;Node28 -->
<g id="edge46" class="edge">
<title>Node1&#45;&gt;Node28</title>
<path fill="none" stroke="midnightblue" d="M1222.56,-291.4C1254.26,-280.98 1296.86,-266.98 1326.32,-257.29"/>
<polygon fill="midnightblue" stroke="midnightblue" points="1327.75,-260.5 1336.16,-254.06 1325.56,-253.85 1327.75,-260.5"/>
</g>
<!-- Node29 -->
<g id="node25" class="node">
<title>Node29</title>
<g id="a_node25"><a xlink:title=" ">
<polygon fill="white" stroke="#bfbfbf" points="1403.67,-235.5 1403.67,-254.5 1489.67,-254.5 1489.67,-235.5 1403.67,-235.5"/>
<text text-anchor="middle" x="1446.67" y="-242.5" font-family="Helvetica,sans-Serif" font-size="10.00">G4Ellipsoid.hh</text>
</a>
</g>
</g>
<!-- Node1&#45;&gt;Node29 -->
<g id="edge48" class="edge">
<title>Node1&#45;&gt;Node29</title>
<path fill="none" stroke="midnightblue" d="M1242.6,-291.47C1290.38,-280.83 1355.07,-266.41 1398.7,-256.69"/>
<polygon fill="midnightblue" stroke="midnightblue" points="1399.5,-260.1 1408.49,-254.51 1397.97,-253.27 1399.5,-260.1"/>
</g>
<!-- Node30 -->
<g id="node26" class="node">
<title>Node30</title>
<g id="a_node26"><a xlink:title=" ">
<polygon fill="white" stroke="#bfbfbf" points="1507.67,-235.5 1507.67,-254.5 1617.67,-254.5 1617.67,-235.5 1507.67,-235.5"/>
<text text-anchor="middle" x="1562.67" y="-242.5" font-family="Helvetica,sans-Serif" font-size="10.00">G4EllipticalTube.hh</text>
</a>
</g>
</g>
<!-- Node1&#45;&gt;Node30 -->
<g id="edge49" class="edge">
<title>Node1&#45;&gt;Node30</title>
<path fill="none" stroke="midnightblue" d="M1269.95,-291.47C1339.92,-280.6 1435.19,-265.8 1497.77,-256.08"/>
<polygon fill="midnightblue" stroke="midnightblue" points="1498.57,-259.5 1507.91,-254.51 1497.49,-252.58 1498.57,-259.5"/>
</g>
<!-- Node31 -->
<g id="node27" class="node">
<title>Node31</title>
<g id="a_node27"><a xlink:title=" ">
<polygon fill="white" stroke="#bfbfbf" points="1636.17,-235.5 1636.17,-254.5 1715.17,-254.5 1715.17,-235.5 1636.17,-235.5"/>
<text text-anchor="middle" x="1675.67" y="-242.5" font-family="Helvetica,sans-Serif" font-size="10.00">G4Sphere.hh</text>
</a>
</g>
</g>
<!-- Node1&#45;&gt;Node31 -->
<g id="edge50" class="edge">
<title>Node1&#45;&gt;Node31</title>
<path fill="none" stroke="midnightblue" d="M1299.01,-294.28C1386.66,-285.51 1508.85,-272.18 1625.9,-255.02"/>
<polygon fill="midnightblue" stroke="midnightblue" points="1626.74,-258.43 1636.12,-253.51 1625.72,-251.5 1626.74,-258.43"/>
</g>
<!-- Node32 -->
<g id="node28" class="node">
<title>Node32</title>
<g id="a_node28"><a xlink:title=" ">
<polygon fill="white" stroke="#bfbfbf" points="1733.17,-235.5 1733.17,-254.5 1882.17,-254.5 1882.17,-235.5 1733.17,-235.5"/>
<text text-anchor="middle" x="1807.67" y="-242.5" font-family="Helvetica,sans-Serif" font-size="10.00">G4LogicalBorderSurface.hh</text>
</a>
</g>
</g>
<!-- Node1&#45;&gt;Node32 -->
<g id="edge52" class="edge">
<title>Node1&#45;&gt;Node32</title>
<path fill="none" stroke="midnightblue" d="M1298.79,-295C1406.87,-285.35 1570.89,-270.39 1723.01,-255.15"/>
<polygon fill="midnightblue" stroke="midnightblue" points="1723.41,-258.63 1733.02,-254.15 1722.72,-251.67 1723.41,-258.63"/>
</g>
<!-- Node33 -->
<g id="node29" class="node">
<title>Node33</title>
<g id="a_node29"><a xlink:title=" ">
<polygon fill="white" stroke="#bfbfbf" points="1900.17,-235.5 1900.17,-254.5 2037.17,-254.5 2037.17,-235.5 1900.17,-235.5"/>
<text text-anchor="middle" x="1968.67" y="-242.5" font-family="Helvetica,sans-Serif" font-size="10.00">G4LogicalSkinSurface.hh</text>
</a>
</g>
</g>
<!-- Node1&#45;&gt;Node33 -->
<g id="edge53" class="edge">
<title>Node1&#45;&gt;Node33</title>
<path fill="none" stroke="midnightblue" d="M1298.85,-298.71C1438.16,-290.4 1675.89,-275.03 1889.67,-255.15"/>
<polygon fill="midnightblue" stroke="midnightblue" points="1890.2,-258.62 1899.84,-254.2 1889.55,-251.65 1890.2,-258.62"/>
</g>
<!-- Node34 -->
<g id="node30" class="node">
<title>Node34</title>
<g id="a_node30"><a xlink:title=" ">
<polygon fill="white" stroke="#bfbfbf" points="2055.67,-235.5 2055.67,-254.5 2117.67,-254.5 2117.67,-235.5 2055.67,-235.5"/>
<text text-anchor="middle" x="2086.67" y="-242.5" font-family="Helvetica,sans-Serif" font-size="10.00">G4Orb.hh</text>
</a>
</g>
</g>
<!-- Node1&#45;&gt;Node34 -->
<g id="edge55" class="edge">
<title>Node1&#45;&gt;Node34</title>
<path fill="none" stroke="midnightblue" d="M1298.77,-304.69C1464.4,-302.2 1773.61,-292.57 2045.26,-254.97"/>
<polygon fill="midnightblue" stroke="midnightblue" points="2045.89,-258.41 2055.31,-253.56 2044.92,-251.48 2045.89,-258.41"/>
</g>
<!-- Node35 -->
<g id="node31" class="node">
<title>Node35</title>
<g id="a_node31"><a xlink:title=" ">
<polygon fill="white" stroke="#bfbfbf" points="2136.17,-235.5 2136.17,-254.5 2225.17,-254.5 2225.17,-235.5 2136.17,-235.5"/>
<text text-anchor="middle" x="2180.67" y="-242.5" font-family="Helvetica,sans-Serif" font-size="10.00">G4Polycone.hh</text>
</a>
</g>
</g>
<!-- Node1&#45;&gt;Node35 -->
<g id="edge56" class="edge">
<title>Node1&#45;&gt;Node35</title>
<path fill="none" stroke="midnightblue" d="M1298.86,-303.42C1476.71,-299.36 1822.16,-287.79 2125.61,-254.98"/>
<polygon fill="midnightblue" stroke="midnightblue" points="2126.37,-258.42 2135.93,-253.85 2125.61,-251.46 2126.37,-258.42"/>
</g>
<!-- Node36 -->
<g id="node32" class="node">
<title>Node36</title>
<g id="a_node32"><a xlink:title=" ">
<polygon fill="white" stroke="#bfbfbf" points="2243.67,-235.5 2243.67,-254.5 2339.67,-254.5 2339.67,-235.5 2243.67,-235.5"/>
<text text-anchor="middle" x="2291.67" y="-242.5" font-family="Helvetica,sans-Serif" font-size="10.00">G4UnitsTable.hh</text>
</a>
</g>
</g>
<!-- Node1&#45;&gt;Node36 -->
<g id="edge63" class="edge">
<title>Node1&#45;&gt;Node36</title>
<path fill="none" stroke="midnightblue" d="M1299.04,-304.01C1492.99,-300.65 1888.69,-289.9 2233.33,-255.02"/>
<polygon fill="midnightblue" stroke="midnightblue" points="2233.92,-258.48 2243.51,-253.98 2233.21,-251.51 2233.92,-258.48"/>
</g>
<!-- Node37 -->
<g id="node33" class="node">
<title>Node37</title>
<g id="a_node33"><a xlink:title=" ">
<polygon fill="white" stroke="#bfbfbf" points="2358.17,-235.5 2358.17,-254.5 2429.17,-254.5 2429.17,-235.5 2358.17,-235.5"/>
<text text-anchor="middle" x="2393.67" y="-242.5" font-family="Helvetica,sans-Serif" font-size="10.00">G4Torus.hh</text>
</a>
</g>
</g>
<!-- Node1&#45;&gt;Node37 -->
<g id="edge65" class="edge">
<title>Node1&#45;&gt;Node37</title>
<path fill="none" stroke="midnightblue" d="M1298.8,-306.4C1508.96,-306.65 1959.22,-301.22 2347.85,-254.88"/>
<polygon fill="midnightblue" stroke="midnightblue" points="2348.37,-258.34 2357.89,-253.67 2347.54,-251.39 2348.37,-258.34"/>
</g>
<!-- Node38 -->
<g id="node34" class="node">
<title>Node38</title>
<g id="a_node34"><a xlink:href="_c_a_d_mesh_8hh.html" target="_top" xlink:title=" ">
<polygon fill="white" stroke="black" points="1868.17,-123.5 1868.17,-142.5 1947.17,-142.5 1947.17,-123.5 1868.17,-123.5"/>
<text text-anchor="middle" x="1907.67" y="-130.5" font-family="Helvetica,sans-Serif" font-size="10.00">CADMesh.hh</text>
</a>
</g>
</g>
<!-- Node1&#45;&gt;Node38 -->
<g id="edge66" class="edge">
<title>Node1&#45;&gt;Node38</title>
<path fill="none" stroke="midnightblue" d="M1298.85,-305.13C1605.31,-303.6 2399.57,-295.69 2438.67,-255 2507.76,-183.08 2102.35,-147.52 1957.59,-137.24"/>
<polygon fill="midnightblue" stroke="midnightblue" points="1957.44,-133.72 1947.22,-136.51 1956.95,-140.7 1957.44,-133.72"/>
</g>
<!-- Node2&#45;&gt;Node3 -->
<g id="edge2" class="edge">
<title>Node2&#45;&gt;Node3</title>
<path fill="none" stroke="midnightblue" d="M606.62,-179.08C610.77,-171.61 616.82,-160.72 621.93,-151.52"/>
<polygon fill="midnightblue" stroke="midnightblue" points="625.01,-153.19 626.8,-142.75 618.89,-149.79 625.01,-153.19"/>
</g>
<!-- Node2&#45;&gt;Node4 -->
<g id="edge15" class="edge">
<title>Node2&#45;&gt;Node4</title>
<path fill="none" stroke="midnightblue" d="M636.6,-179.46C717.43,-159.7 917.25,-110.86 1006.89,-88.94"/>
<polygon fill="midnightblue" stroke="midnightblue" points="1007.87,-92.31 1016.75,-86.53 1006.21,-85.51 1007.87,-92.31"/>
</g>
<!-- Node2&#45;&gt;Node5 -->
<g id="edge16" class="edge">
<title>Node2&#45;&gt;Node5</title>
<path fill="none" stroke="midnightblue" d="M570.37,-179.5C542.75,-171.52 501.72,-158.53 467.67,-143 451.71,-135.73 450.13,-129.02 433.67,-123 342.54,-89.7 157.26,-138.66 222.67,-67 254.57,-32.05 563.34,-20.99 704.67,-17.75"/>
<polygon fill="midnightblue" stroke="midnightblue" points="705.04,-21.24 714.96,-17.52 704.89,-14.24 705.04,-21.24"/>
</g>
<!-- Node8 -->
<g id="node8" class="node">
<title>Node8</title>
<g id="a_node8"><a xlink:href="_o_m_sim_input_data_8hh.html" target="_top" xlink:title=" ">
<polygon fill="white" stroke="red" points="822.17,-67.5 822.17,-86.5 937.17,-86.5 937.17,-67.5 822.17,-67.5"/>
<text text-anchor="middle" x="879.67" y="-74.5" font-family="Helvetica,sans-Serif" font-size="10.00">OMSimInputData.hh</text>
</a>
</g>
</g>
<!-- Node2&#45;&gt;Node8 -->
<g id="edge19" class="edge">
<title>Node2&#45;&gt;Node8</title>
<path fill="none" stroke="midnightblue" d="M623.48,-179.37C672.5,-159.97 791.54,-112.87 848.41,-90.37"/>
<polygon fill="midnightblue" stroke="midnightblue" points="849.94,-93.53 857.95,-86.59 847.37,-87.02 849.94,-93.53"/>
</g>
<!-- Node2&#45;&gt;Node18 -->
<g id="edge17" class="edge">
<title>Node2&#45;&gt;Node18</title>
<path fill="none" stroke="midnightblue" d="M669.22,-180.32C762.35,-169.73 928.69,-150.82 1017.29,-140.75"/>
<polygon fill="midnightblue" stroke="midnightblue" points="1017.9,-144.2 1027.44,-139.6 1017.11,-137.25 1017.9,-144.2"/>
</g>
<!-- Node2&#45;&gt;Node19 -->
<g id="edge18" class="edge">
<title>Node2&#45;&gt;Node19</title>
<path fill="none" stroke="midnightblue" d="M536.38,-179.44C462.12,-169.71 341.11,-153.85 263.48,-143.67"/>
<polygon fill="midnightblue" stroke="midnightblue" points="263.66,-140.17 253.29,-142.34 262.75,-147.11 263.66,-140.17"/>
</g>
<!-- Node2&#45;&gt;Node20 -->
<g id="edge20" class="edge">
<title>Node2&#45;&gt;Node20</title>
<path fill="none" stroke="midnightblue" d="M551.18,-179.48C502.25,-171.13 425.68,-157.77 350.5,-143.31"/>
<polygon fill="midnightblue" stroke="midnightblue" points="350.86,-139.82 340.38,-141.36 349.54,-146.69 350.86,-139.82"/>
</g>
<!-- Node2&#45;&gt;Node21 -->
<g id="edge21" class="edge">
<title>Node2&#45;&gt;Node21</title>
<path fill="none" stroke="midnightblue" d="M568.39,-179.44C532.22,-170.14 474.29,-155.25 434.69,-145.06"/>
<polygon fill="midnightblue" stroke="midnightblue" points="435.34,-141.62 424.79,-142.52 433.6,-148.4 435.34,-141.62"/>
</g>
<!-- Node3&#45;&gt;Node4 -->
<g id="edge3" class="edge">
<title>Node3&#45;&gt;Node4</title>
<path fill="none" stroke="midnightblue" d="M698.22,-123.44C776.14,-113.43 904.53,-96.92 983.25,-86.8"/>
<polygon fill="midnightblue" stroke="midnightblue" points="984.07,-90.22 993.54,-85.47 983.18,-83.28 984.07,-90.22"/>
</g>
<!-- Node3&#45;&gt;Node5 -->
<g id="edge4" class="edge">
<title>Node3&#45;&gt;Node5</title>
<path fill="none" stroke="midnightblue" d="M666.62,-123.45C688.79,-116.59 716.91,-105.07 736.67,-87 752.34,-72.67 762.84,-50.34 768.76,-34.66"/>
<polygon fill="midnightblue" stroke="midnightblue" points="772.12,-35.64 772.13,-25.05 765.52,-33.32 772.12,-35.64"/>
</g>
<!-- Node3&#45;&gt;Node6 -->
<g id="edge5" class="edge">
<title>Node3&#45;&gt;Node6</title>
<path fill="none" stroke="midnightblue" d="M557.99,-124.86C447.97,-114.19 242.58,-94.28 138.55,-84.19"/>
<polygon fill="midnightblue" stroke="midnightblue" points="138.8,-80.7 128.51,-83.22 138.12,-87.67 138.8,-80.7"/>
</g>
<!-- Node3&#45;&gt;Node7 -->
<g id="edge6" class="edge">
<title>Node3&#45;&gt;Node7</title>
<path fill="none" stroke="midnightblue" d="M638.6,-123.08C644.6,-115.38 653.42,-104.03 660.71,-94.65"/>
<polygon fill="midnightblue" stroke="midnightblue" points="663.48,-96.79 666.86,-86.75 657.96,-92.5 663.48,-96.79"/>
</g>
<!-- Node3&#45;&gt;Node8 -->
<g id="edge7" class="edge">
<title>Node3&#45;&gt;Node8</title>
<path fill="none" stroke="midnightblue" d="M670.96,-123.44C714.23,-114.02 783.84,-98.87 830.64,-88.68"/>
<polygon fill="midnightblue" stroke="midnightblue" points="831.53,-92.06 840.55,-86.52 830.04,-85.22 831.53,-92.06"/>
</g>
<!-- Node3&#45;&gt;Node14 -->
<g id="edge11" class="edge">
<title>Node3&#45;&gt;Node14</title>
<path fill="none" stroke="midnightblue" d="M578.27,-123.44C518.37,-113.85 421.3,-98.29 357.72,-88.1"/>
<polygon fill="midnightblue" stroke="midnightblue" points="358.24,-84.64 347.81,-86.52 357.14,-91.55 358.24,-84.64"/>
</g>
<!-- Node3&#45;&gt;Node15 -->
<g id="edge12" class="edge">
<title>Node3&#45;&gt;Node15</title>
<path fill="none" stroke="midnightblue" d="M599.82,-123.44C565.27,-114.16 509.98,-99.31 472.08,-89.13"/>
<polygon fill="midnightblue" stroke="midnightblue" points="472.93,-85.73 462.37,-86.52 471.12,-92.49 472.93,-85.73"/>
</g>
<!-- Node16 -->
<g id="node13" class="node">
<title>Node16</title>
<g id="a_node13"><a xlink:title=" ">
<polygon fill="white" stroke="#bfbfbf" points="503.67,-67.5 503.67,-86.5 601.67,-86.5 601.67,-67.5 503.67,-67.5"/>
<text text-anchor="middle" x="552.67" y="-74.5" font-family="Helvetica,sans-Serif" font-size="10.00">G4MultiUnion.hh</text>
</a>
</g>
</g>
<!-- Node3&#45;&gt;Node16 -->
<g id="edge13" class="edge">
<title>Node3&#45;&gt;Node16</title>
<path fill="none" stroke="midnightblue" d="M618.97,-123.32C606.76,-114.98 588.09,-102.21 573.66,-92.35"/>
<polygon fill="midnightblue" stroke="midnightblue" points="575.56,-89.41 565.33,-86.65 571.61,-95.19 575.56,-89.41"/>
</g>
<!-- Node17 -->
<g id="node14" class="node">
<title>Node17</title>
<g id="a_node14"><a xlink:title=" ">
<polygon fill="white" stroke="#bfbfbf" points="1127.67,-67.5 1127.67,-86.5 1183.67,-86.5 1183.67,-67.5 1127.67,-67.5"/>
<text text-anchor="middle" x="1155.67" y="-74.5" font-family="Helvetica,sans-Serif" font-size="10.00">sstream</text>
</a>
</g>
</g>
<!-- Node3&#45;&gt;Node17 -->
<g id="edge14" class="edge">
<title>Node3&#45;&gt;Node17</title>
<path fill="none" stroke="midnightblue" d="M705.53,-128.55C799.26,-123.41 966,-111.77 1117.52,-86.96"/>
<polygon fill="midnightblue" stroke="midnightblue" points="1118.18,-90.4 1127.47,-85.31 1117.03,-83.49 1118.18,-90.4"/>
</g>
<!-- Node8&#45;&gt;Node5 -->
<g id="edge10" class="edge">
<title>Node8&#45;&gt;Node5</title>
<path fill="none" stroke="midnightblue" d="M864.62,-67.48C847.39,-57.71 818.93,-41.58 798.63,-30.08"/>
<polygon fill="midnightblue" stroke="midnightblue" points="800.11,-26.89 789.68,-25.01 796.66,-32.98 800.11,-26.89"/>
</g>
<!-- Node9 -->
<g id="node9" class="node">
<title>Node9</title>
<g id="a_node9"><a xlink:title=" ">
<polygon fill="white" stroke="#bfbfbf" points="880.17,-0.5 880.17,-30.5 993.17,-30.5 993.17,-0.5 880.17,-0.5"/>
<text text-anchor="start" x="888.17" y="-18.5" font-family="Helvetica,sans-Serif" font-size="10.00">boost/property_tree</text>
<text text-anchor="middle" x="936.67" y="-7.5" font-family="Helvetica,sans-Serif" font-size="10.00">/ptree.hpp</text>
</a>
</g>
</g>
<!-- Node8&#45;&gt;Node9 -->
<g id="edge8" class="edge">
<title>Node8&#45;&gt;Node9</title>
<path fill="none" stroke="midnightblue" d="M887.83,-67.48C895.19,-59.79 906.33,-48.17 916.1,-37.96"/>
<polygon fill="midnightblue" stroke="midnightblue" points="918.84,-40.17 923.23,-30.52 913.79,-35.32 918.84,-40.17"/>
</g>
<!-- Node11 -->
<g id="node10" class="node">
<title>Node11</title>
<g id="a_node10"><a xlink:title=" ">
<polygon fill="white" stroke="#bfbfbf" points="1310.67,-6 1310.67,-25 1396.67,-25 1396.67,-6 1310.67,-6"/>
<text text-anchor="middle" x="1353.67" y="-13" font-family="Helvetica,sans-Serif" font-size="10.00">G4Material.hh</text>
</a>
</g>
</g>
<!-- Node8&#45;&gt;Node11 -->
<g id="edge9" class="edge">
<title>Node8&#45;&gt;Node11</title>
<path fill="none" stroke="midnightblue" d="M937.31,-68.76C1029.96,-57.13 1210.68,-34.45 1300.44,-23.18"/>
<polygon fill="midnightblue" stroke="midnightblue" points="1300.92,-26.65 1310.4,-21.93 1300.04,-19.7 1300.92,-26.65"/>
</g>
<!-- Node22&#45;&gt;Node3 -->
<g id="edge23" class="edge">
<title>Node22&#45;&gt;Node3</title>
<path fill="none" stroke="midnightblue" d="M794.03,-235.43C776.5,-222.65 742.12,-198.04 711.67,-179 693.76,-167.81 672.96,-156.15 657.06,-147.5"/>
<polygon fill="midnightblue" stroke="midnightblue" points="658.32,-144.2 647.86,-142.54 655,-150.36 658.32,-144.2"/>
</g>
<!-- Node22&#45;&gt;Node4 -->
<g id="edge36" class="edge">
<title>Node22&#45;&gt;Node4</title>
<path fill="none" stroke="midnightblue" d="M853.53,-241.47C906.72,-237.35 994.37,-226.64 1064.67,-199 1107.11,-182.31 1128.93,-183.1 1150.67,-143 1164.79,-116.95 1131.65,-99.64 1099.97,-89.47"/>
<polygon fill="midnightblue" stroke="midnightblue" points="1100.83,-86.07 1090.25,-86.55 1098.81,-92.78 1100.83,-86.07"/>
</g>
<!-- Node22&#45;&gt;Node5 -->
<g id="edge37" class="edge">
<title>Node22&#45;&gt;Node5</title>
<path fill="none" stroke="midnightblue" d="M757.96,-241.29C571.21,-229.84 -94.74,-180.68 11.67,-67 58.47,-17 525.64,-14.79 705.03,-15.82"/>
<polygon fill="midnightblue" stroke="midnightblue" points="705.12,-19.32 715.15,-15.88 705.17,-12.32 705.12,-19.32"/>
</g>
<!-- Node22&#45;&gt;Node8 -->
<g id="edge40" class="edge">
<title>Node22&#45;&gt;Node8</title>
<path fill="none" stroke="midnightblue" d="M853.31,-236.46C936.16,-222.26 1101.16,-188.82 1134.67,-143 1139.91,-135.82 1140.38,-129.81 1134.67,-123 1122.67,-108.7 1018.91,-94.01 947.5,-85.46"/>
<polygon fill="midnightblue" stroke="midnightblue" points="947.56,-81.94 937.22,-84.25 946.74,-88.9 947.56,-81.94"/>
</g>
<!-- Node22&#45;&gt;Node18 -->
<g id="edge38" class="edge">
<title>Node22&#45;&gt;Node18</title>
<path fill="none" stroke="midnightblue" d="M828.2,-235.35C851.43,-226.39 888.66,-211.93 920.67,-199 964.85,-181.15 1015.77,-159.79 1047.08,-146.55"/>
<polygon fill="midnightblue" stroke="midnightblue" points="1048.68,-149.67 1056.53,-142.55 1045.96,-143.23 1048.68,-149.67"/>
</g>
<!-- Node22&#45;&gt;Node19 -->
<g id="edge39" class="edge">
<title>Node22&#45;&gt;Node19</title>
<path fill="none" stroke="midnightblue" d="M757.93,-240.01C688.4,-233.76 555.36,-220.15 443.67,-199 366.05,-184.31 276.94,-159.66 227.59,-145.31"/>
<polygon fill="midnightblue" stroke="midnightblue" points="228.55,-141.95 217.97,-142.5 226.59,-148.67 228.55,-141.95"/>
</g>
<!-- Node22&#45;&gt;Node20 -->
<g id="edge41" class="edge">
<title>Node22&#45;&gt;Node20</title>
<path fill="none" stroke="midnightblue" d="M758.12,-242.52C693.94,-239.37 576.68,-229.57 481.67,-199 463.5,-193.16 461.25,-186.43 443.67,-179 411.83,-165.55 374.49,-153.59 346.69,-145.39"/>
<polygon fill="midnightblue" stroke="midnightblue" points="347.49,-141.98 336.91,-142.54 345.53,-148.7 347.49,-141.98"/>
</g>
<!-- Node22&#45;&gt;Node21 -->
<g id="edge42" class="edge">
<title>Node22&#45;&gt;Node21</title>
<path fill="none" stroke="midnightblue" d="M757.94,-240.67C701.23,-235.74 604.27,-224.21 524.67,-199 519.14,-197.25 455.37,-165.7 418.18,-147.21"/>
<polygon fill="midnightblue" stroke="midnightblue" points="419.42,-143.91 408.91,-142.59 416.3,-150.18 419.42,-143.91"/>
</g>
<!-- Node23 -->
<g id="node20" class="node">
<title>Node23</title>
<g id="a_node20"><a xlink:href="_o_m_sim_p_m_t_construction_8hh.html" target="_top" xlink:title=" ">
<polygon fill="white" stroke="red" points="763.17,-179.5 763.17,-198.5 912.17,-198.5 912.17,-179.5 763.17,-179.5"/>
<text text-anchor="middle" x="837.67" y="-186.5" font-family="Helvetica,sans-Serif" font-size="10.00">OMSimPMTConstruction.hh</text>
</a>
</g>
</g>
<!-- Node22&#45;&gt;Node23 -->
<g id="edge24" class="edge">
<title>Node22&#45;&gt;Node23</title>
<path fill="none" stroke="midnightblue" d="M810.95,-235.08C815.38,-227.61 821.83,-216.72 827.28,-207.52"/>
<polygon fill="midnightblue" stroke="midnightblue" points="830.39,-209.14 832.48,-198.75 824.37,-205.57 830.39,-209.14"/>
</g>
<!-- Node23&#45;&gt;Node3 -->
<g id="edge26" class="edge">
<title>Node23&#45;&gt;Node3</title>
<path fill="none" stroke="midnightblue" d="M805.02,-179.44C769.62,-170.16 712.96,-155.31 674.11,-145.13"/>
<polygon fill="midnightblue" stroke="midnightblue" points="674.72,-141.67 664.15,-142.52 672.94,-148.44 674.72,-141.67"/>
</g>
<!-- Node23&#45;&gt;Node4 -->
<g id="edge27" class="edge">
<title>Node23&#45;&gt;Node4</title>
<path fill="none" stroke="midnightblue" d="M858.24,-179.42C878.64,-170.76 910.69,-156.72 937.67,-143 969.97,-126.57 1006.15,-105.46 1028.91,-91.83"/>
<polygon fill="midnightblue" stroke="midnightblue" points="1030.75,-94.81 1037.51,-86.65 1027.14,-88.81 1030.75,-94.81"/>
</g>
<!-- Node23&#45;&gt;Node5 -->
<g id="edge28" class="edge">
<title>Node23&#45;&gt;Node5</title>
<path fill="none" stroke="midnightblue" d="M834.46,-179.26C824.64,-152.54 794.88,-71.52 781.41,-34.86"/>
<polygon fill="midnightblue" stroke="midnightblue" points="784.53,-33.2 777.8,-25.02 777.96,-35.61 784.53,-33.2"/>
</g>
<!-- Node23&#45;&gt;Node7 -->
<g id="edge30" class="edge">
<title>Node23&#45;&gt;Node7</title>
<path fill="none" stroke="midnightblue" d="M824.8,-179.37C796.65,-160.49 729.4,-115.38 694.89,-92.24"/>
<polygon fill="midnightblue" stroke="midnightblue" points="696.73,-89.26 686.48,-86.59 692.83,-95.07 696.73,-89.26"/>
</g>
<!-- Node23&#45;&gt;Node8 -->
<g id="edge33" class="edge">
<title>Node23&#45;&gt;Node8</title>
<path fill="none" stroke="midnightblue" d="M840.96,-179.37C847.8,-161.46 863.66,-119.92 872.81,-95.95"/>
<polygon fill="midnightblue" stroke="midnightblue" points="876.09,-97.18 876.39,-86.59 869.55,-94.69 876.09,-97.18"/>
</g>
<!-- Node23&#45;&gt;Node9 -->
<g id="edge25" class="edge">
<title>Node23&#45;&gt;Node9</title>
<path fill="none" stroke="midnightblue" d="M853.21,-179.3C878.26,-164.27 926.66,-130.8 945.67,-87 952.01,-72.39 949.66,-54.59 945.78,-40.53"/>
<polygon fill="midnightblue" stroke="midnightblue" points="949,-39.09 942.63,-30.62 942.33,-41.21 949,-39.09"/>
</g>
<!-- Node23&#45;&gt;Node14 -->
<g id="edge31" class="edge">
<title>Node23&#45;&gt;Node14</title>
<path fill="none" stroke="midnightblue" d="M763.1,-184.8C695.22,-180.26 592.88,-169.32 507.67,-143 488.68,-137.13 486.27,-129.98 467.67,-123 428.4,-108.26 382.37,-96.54 347.67,-88.76"/>
<polygon fill="midnightblue" stroke="midnightblue" points="348.26,-85.31 337.74,-86.57 346.75,-92.14 348.26,-85.31"/>
</g>
<!-- Node23&#45;&gt;Node15 -->
<g id="edge32" class="edge">
<title>Node23&#45;&gt;Node15</title>
<path fill="none" stroke="midnightblue" d="M762.92,-183.54C703.54,-178.3 619.07,-167.03 548.67,-143 529.48,-136.45 482.15,-108.95 453.6,-91.89"/>
<polygon fill="midnightblue" stroke="midnightblue" points="455.08,-88.7 444.71,-86.55 451.48,-94.7 455.08,-88.7"/>
</g>
<!-- Node23&#45;&gt;Node18 -->
<g id="edge29" class="edge">
<title>Node23&#45;&gt;Node18</title>
<path fill="none" stroke="midnightblue" d="M875.54,-179.44C917.14,-170.04 984.04,-154.93 1029.13,-144.74"/>
<polygon fill="midnightblue" stroke="midnightblue" points="1029.99,-148.13 1038.97,-142.52 1028.45,-141.31 1029.99,-148.13"/>
</g>
<!-- Node23&#45;&gt;Node21 -->
<g id="edge34" class="edge">
<title>Node23&#45;&gt;Node21</title>
<path fill="none" stroke="midnightblue" d="M767,-179.44C673.86,-168.17 512.83,-148.67 435.54,-139.31"/>
<polygon fill="midnightblue" stroke="midnightblue" points="435.56,-135.79 425.21,-138.06 434.71,-142.74 435.56,-135.79"/>
</g>
<!-- Node25 -->
<g id="node21" class="node">
<title>Node25</title>
<g id="a_node21"><a xlink:title=" ">
<polygon fill="white" stroke="#bfbfbf" points="1201.67,-67.5 1201.67,-86.5 1239.67,-86.5 1239.67,-67.5 1201.67,-67.5"/>
<text text-anchor="middle" x="1220.67" y="-74.5" font-family="Helvetica,sans-Serif" font-size="10.00">map</text>
</a>
</g>
</g>
<!-- Node23&#45;&gt;Node25 -->
<g id="edge35" class="edge">
<title>Node23&#45;&gt;Node25</title>
<path fill="none" stroke="midnightblue" d="M864.13,-179.49C890.89,-170.76 933.38,-156.58 969.67,-143 991.7,-134.76 996.17,-129.86 1018.67,-123 1091.26,-100.88 1114.49,-106.6 1191.77,-86.99"/>
<polygon fill="midnightblue" stroke="midnightblue" points="1192.67,-90.37 1201.47,-84.47 1190.91,-83.6 1192.67,-90.37"/>
</g>
<!-- Node38&#45;&gt;Node4 -->
<g id="edge77" class="edge">
<title>Node38&#45;&gt;Node4</title>
<path fill="none" stroke="midnightblue" d="M1867.76,-130.8C1753.14,-127.14 1412.9,-114.65 1119.71,-87.02"/>
<polygon fill="midnightblue" stroke="midnightblue" points="1120.03,-83.54 1109.74,-86.08 1119.36,-90.51 1120.03,-83.54"/>
</g>
<!-- Node38&#45;&gt;Node11 -->
<g id="edge78" class="edge">
<title>Node38&#45;&gt;Node11</title>
<path fill="none" stroke="midnightblue" d="M1868.07,-128.03C1820.6,-122.45 1739.12,-110.27 1672.67,-87 1654.65,-80.69 1652.71,-73.21 1634.67,-67 1557.95,-40.62 1464.47,-27.33 1407.02,-21.18"/>
<polygon fill="midnightblue" stroke="midnightblue" points="1407.38,-17.69 1397.07,-20.14 1406.65,-24.66 1407.38,-17.69"/>
</g>
<!-- Node38&#45;&gt;Node17 -->
<g id="edge84" class="edge">
<title>Node38&#45;&gt;Node17</title>
<path fill="none" stroke="midnightblue" d="M1867.88,-131.94C1760.47,-131.26 1455.69,-125.89 1193.92,-86.92"/>
<polygon fill="midnightblue" stroke="midnightblue" points="1194.26,-83.43 1183.85,-85.4 1193.21,-90.35 1194.26,-83.43"/>
</g>
<!-- Node38&#45;&gt;Node25 -->
<g id="edge69" class="edge">
<title>Node38&#45;&gt;Node25</title>
<path fill="none" stroke="midnightblue" d="M1868.06,-129.97C1769.69,-124.73 1506.39,-109.61 1287.67,-87 1275.24,-85.72 1261.57,-83.94 1249.83,-82.31"/>
<polygon fill="midnightblue" stroke="midnightblue" points="1250.08,-78.81 1239.69,-80.87 1249.1,-85.74 1250.08,-78.81"/>
</g>
<!-- Node39 -->
<g id="node35" class="node">
<title>Node39</title>
<g id="a_node35"><a xlink:title=" ">
<polygon fill="white" stroke="#bfbfbf" points="1681.67,-67.5 1681.67,-86.5 1755.67,-86.5 1755.67,-67.5 1681.67,-67.5"/>
<text text-anchor="middle" x="1718.67" y="-74.5" font-family="Helvetica,sans-Serif" font-size="10.00">G4String.hh</text>
</a>
</g>
</g>
<!-- Node38&#45;&gt;Node39 -->
<g id="edge67" class="edge">
<title>Node38&#45;&gt;Node39</title>
<path fill="none" stroke="midnightblue" d="M1877.72,-123.44C1845.51,-114.24 1794.13,-99.56 1758.52,-89.39"/>
<polygon fill="midnightblue" stroke="midnightblue" points="1759.05,-85.9 1748.47,-86.52 1757.13,-92.63 1759.05,-85.9"/>
</g>
<!-- Node40 -->
<g id="node36" class="node">
<title>Node40</title>
<g id="a_node36"><a xlink:title=" ">
<polygon fill="white" stroke="#bfbfbf" points="1773.67,-67.5 1773.67,-86.5 1837.67,-86.5 1837.67,-67.5 1773.67,-67.5"/>
<text text-anchor="middle" x="1805.67" y="-74.5" font-family="Helvetica,sans-Serif" font-size="10.00">algorithm</text>
</a>
</g>
</g>
<!-- Node38&#45;&gt;Node40 -->
<g id="edge68" class="edge">
<title>Node38&#45;&gt;Node40</title>
<path fill="none" stroke="midnightblue" d="M1891.28,-123.32C1874.99,-114.7 1849.8,-101.36 1830.95,-91.39"/>
<polygon fill="midnightblue" stroke="midnightblue" points="1832.49,-88.24 1822.01,-86.65 1829.21,-94.43 1832.49,-88.24"/>
</g>
<!-- Node41 -->
<g id="node37" class="node">
<title>Node41</title>
<g id="a_node37"><a xlink:title=" ">
<polygon fill="white" stroke="#bfbfbf" points="1856.17,-67.5 1856.17,-86.5 1959.17,-86.5 1959.17,-67.5 1856.17,-67.5"/>
<text text-anchor="middle" x="1907.67" y="-74.5" font-family="Helvetica,sans-Serif" font-size="10.00">G4ThreeVector.hh</text>
</a>
</g>
</g>
<!-- Node38&#45;&gt;Node41 -->
<g id="edge70" class="edge">
<title>Node38&#45;&gt;Node41</title>
<path fill="none" stroke="midnightblue" d="M1907.67,-123.08C1907.67,-116.01 1907.67,-105.86 1907.67,-96.99"/>
<polygon fill="midnightblue" stroke="midnightblue" points="1911.17,-96.75 1907.67,-86.75 1904.17,-96.75 1911.17,-96.75"/>
</g>
<!-- Node42 -->
<g id="node38" class="node">
<title>Node42</title>
<g id="a_node38"><a xlink:title=" ">
<polygon fill="white" stroke="#bfbfbf" points="1977.17,-67.5 1977.17,-86.5 2096.17,-86.5 2096.17,-67.5 1977.17,-67.5"/>
<text text-anchor="middle" x="2036.67" y="-74.5" font-family="Helvetica,sans-Serif" font-size="10.00">G4TriangularFacet.hh</text>
</a>
</g>
</g>
<!-- Node38&#45;&gt;Node42 -->
<g id="edge71" class="edge">
<title>Node38&#45;&gt;Node42</title>
<path fill="none" stroke="midnightblue" d="M1928.11,-123.44C1949.34,-114.56 1982.77,-100.56 2006.92,-90.45"/>
<polygon fill="midnightblue" stroke="midnightblue" points="2008.45,-93.61 2016.32,-86.52 2005.75,-87.15 2008.45,-93.61"/>
</g>
<!-- Node43 -->
<g id="node39" class="node">
<title>Node43</title>
<g id="a_node39"><a xlink:title=" ">
<polygon fill="white" stroke="#bfbfbf" points="2114.67,-67.5 2114.67,-86.5 2172.67,-86.5 2172.67,-67.5 2114.67,-67.5"/>
<text text-anchor="middle" x="2143.67" y="-74.5" font-family="Helvetica,sans-Serif" font-size="10.00">memory</text>
</a>
</g>
</g>
<!-- Node38&#45;&gt;Node43 -->
<g id="edge72" class="edge">
<title>Node38&#45;&gt;Node43</title>
<path fill="none" stroke="midnightblue" d="M1945.65,-123.48C1983.5,-114.96 2043.55,-101.38 2104.79,-87.19"/>
<polygon fill="midnightblue" stroke="midnightblue" points="2105.68,-90.58 2114.63,-84.91 2104.09,-83.76 2105.68,-90.58"/>
</g>
<!-- Node44 -->
<g id="node40" class="node">
<title>Node44</title>
<g id="a_node40"><a xlink:title=" ">
<polygon fill="white" stroke="#bfbfbf" points="2191.17,-67.5 2191.17,-86.5 2238.17,-86.5 2238.17,-67.5 2191.17,-67.5"/>
<text text-anchor="middle" x="2214.67" y="-74.5" font-family="Helvetica,sans-Serif" font-size="10.00">vector</text>
</a>
</g>
</g>
<!-- Node38&#45;&gt;Node44 -->
<g id="edge73" class="edge">
<title>Node38&#45;&gt;Node44</title>
<path fill="none" stroke="midnightblue" d="M1947.39,-126.79C1998.97,-119.74 2091.97,-106.05 2180.96,-86.95"/>
<polygon fill="midnightblue" stroke="midnightblue" points="2181.92,-90.33 2190.95,-84.78 2180.43,-83.49 2181.92,-90.33"/>
</g>
<!-- Node45 -->
<g id="node41" class="node">
<title>Node45</title>
<g id="a_node41"><a xlink:title=" ">
<polygon fill="white" stroke="#bfbfbf" points="2256.67,-67.5 2256.67,-86.5 2316.67,-86.5 2316.67,-67.5 2256.67,-67.5"/>
<text text-anchor="middle" x="2286.67" y="-74.5" font-family="Helvetica,sans-Serif" font-size="10.00">iostream</text>
</a>
</g>
</g>
<!-- Node38&#45;&gt;Node45 -->
<g id="edge74" class="edge">
<title>Node38&#45;&gt;Node45</title>
<path fill="none" stroke="midnightblue" d="M1947.38,-127.98C2009.23,-121.46 2132.48,-107.38 2246.54,-87.06"/>
<polygon fill="midnightblue" stroke="midnightblue" points="2247.27,-90.48 2256.49,-85.26 2246.03,-83.59 2247.27,-90.48"/>
</g>
<!-- Node46 -->
<g id="node42" class="node">
<title>Node46</title>
<g id="a_node42"><a xlink:title=" ">
<polygon fill="white" stroke="#bfbfbf" points="2334.67,-67.5 2334.67,-86.5 2378.67,-86.5 2378.67,-67.5 2334.67,-67.5"/>
<text text-anchor="middle" x="2356.67" y="-74.5" font-family="Helvetica,sans-Serif" font-size="10.00">string</text>
</a>
</g>
</g>
<!-- Node38&#45;&gt;Node46 -->
<g id="edge75" class="edge">
<title>Node38&#45;&gt;Node46</title>
<path fill="none" stroke="midnightblue" d="M1947.2,-130.06C2020.12,-125.98 2180.75,-114.66 2324.55,-86.9"/>
<polygon fill="midnightblue" stroke="midnightblue" points="2325.29,-90.32 2334.43,-84.96 2323.94,-83.45 2325.29,-90.32"/>
</g>
<!-- Node47 -->
<g id="node43" class="node">
<title>Node47</title>
<g id="a_node43"><a xlink:title=" ">
<polygon fill="white" stroke="#bfbfbf" points="2396.67,-67.5 2396.67,-86.5 2526.67,-86.5 2526.67,-67.5 2396.67,-67.5"/>
<text text-anchor="middle" x="2461.67" y="-74.5" font-family="Helvetica,sans-Serif" font-size="10.00">G4AssemblyVolume.hh</text>
</a>
</g>
</g>
<!-- Node38&#45;&gt;Node47 -->
<g id="edge76" class="edge">
<title>Node38&#45;&gt;Node47</title>
<path fill="none" stroke="midnightblue" d="M1947.21,-128.66C2027.74,-121.79 2216.78,-105.25 2386.21,-87.13"/>
<polygon fill="midnightblue" stroke="midnightblue" points="2386.74,-90.6 2396.31,-86.05 2385.99,-83.64 2386.74,-90.6"/>
</g>
<!-- Node48 -->
<g id="node44" class="node">
<title>Node48</title>
<g id="a_node44"><a xlink:title=" ">
<polygon fill="white" stroke="#bfbfbf" points="2544.67,-67.5 2544.67,-86.5 2668.67,-86.5 2668.67,-67.5 2544.67,-67.5"/>
<text text-anchor="middle" x="2606.67" y="-74.5" font-family="Helvetica,sans-Serif" font-size="10.00">G4TessellatedSolid.hh</text>
</a>
</g>
</g>
<!-- Node38&#45;&gt;Node48 -->
<g id="edge79" class="edge">
<title>Node38&#45;&gt;Node48</title>
<path fill="none" stroke="midnightblue" d="M1947.41,-129.91C2045.28,-124.59 2305.98,-109.45 2534.19,-87.1"/>
<polygon fill="midnightblue" stroke="midnightblue" points="2534.74,-90.56 2544.35,-86.09 2534.05,-83.59 2534.74,-90.56"/>
</g>
<!-- Node49 -->
<g id="node45" class="node">
<title>Node49</title>
<g id="a_node45"><a xlink:title=" ">
<polygon fill="white" stroke="#bfbfbf" points="2687.17,-67.5 2687.17,-86.5 2746.17,-86.5 2746.17,-67.5 2687.17,-67.5"/>
<text text-anchor="middle" x="2716.67" y="-74.5" font-family="Helvetica,sans-Serif" font-size="10.00">G4Tet.hh</text>
</a>
</g>
</g>
<!-- Node38&#45;&gt;Node49 -->
<g id="edge80" class="edge">
<title>Node38&#45;&gt;Node49</title>
<path fill="none" stroke="midnightblue" d="M1947.57,-132.03C2060.58,-131.61 2392.41,-126.93 2676.85,-86.84"/>
<polygon fill="midnightblue" stroke="midnightblue" points="2677.55,-90.28 2686.95,-85.4 2676.56,-83.35 2677.55,-90.28"/>
</g>
<!-- Node50 -->
<g id="node46" class="node">
<title>Node50</title>
<g id="a_node46"><a xlink:title=" ">
<polygon fill="white" stroke="#bfbfbf" points="2764.67,-67.5 2764.67,-86.5 2868.67,-86.5 2868.67,-67.5 2764.67,-67.5"/>
<text text-anchor="middle" x="2816.67" y="-74.5" font-family="Helvetica,sans-Serif" font-size="10.00">G4UIcommand.hh</text>
</a>
</g>
</g>
<!-- Node38&#45;&gt;Node50 -->
<g id="edge81" class="edge">
<title>Node38&#45;&gt;Node50</title>
<path fill="none" stroke="midnightblue" d="M1947.5,-131.21C2067.69,-128.54 2437.35,-118.28 2754.16,-87.05"/>
<polygon fill="midnightblue" stroke="midnightblue" points="2754.86,-90.5 2764.46,-86.03 2754.17,-83.54 2754.86,-90.5"/>
</g>
<!-- Node51 -->
<g id="node47" class="node">
<title>Node51</title>
<g id="a_node47"><a xlink:title=" ">
<polygon fill="white" stroke="#bfbfbf" points="1296.17,-67.5 1296.17,-86.5 1363.17,-86.5 1363.17,-67.5 1296.17,-67.5"/>
<text text-anchor="middle" x="1329.67" y="-74.5" font-family="Helvetica,sans-Serif" font-size="10.00">globals.hh</text>
</a>
</g>
</g>
<!-- Node38&#45;&gt;Node51 -->
<g id="edge82" class="edge">
<title>Node38&#45;&gt;Node51</title>
<path fill="none" stroke="midnightblue" d="M1867.88,-130.32C1780.31,-126.27 1564.22,-114.31 1373.33,-86.91"/>
<polygon fill="midnightblue" stroke="midnightblue" points="1373.8,-83.44 1363.4,-85.47 1372.79,-90.37 1373.8,-83.44"/>
</g>
<!-- Node52 -->
<g id="node48" class="node">
<title>Node52</title>
<g id="a_node48"><a xlink:title=" ">
<polygon fill="white" stroke="#bfbfbf" points="1381.17,-67.5 1381.17,-86.5 1436.17,-86.5 1436.17,-67.5 1381.17,-67.5"/>
<text text-anchor="middle" x="1408.67" y="-74.5" font-family="Helvetica,sans-Serif" font-size="10.00">fstream</text>
</a>
</g>
</g>
<!-- Node38&#45;&gt;Node52 -->
<g id="edge83" class="edge">
<title>Node38&#45;&gt;Node52</title>
<path fill="none" stroke="midnightblue" d="M1867.86,-130.02C1789.21,-125.71 1608.23,-113.76 1446.59,-86.91"/>
<polygon fill="midnightblue" stroke="midnightblue" points="1446.9,-83.42 1436.46,-85.21 1445.74,-90.32 1446.9,-83.42"/>
</g>
<!-- Node53 -->
<g id="node49" class="node">
<title>Node53</title>
<g id="a_node49"><a xlink:title=" ">
<polygon fill="white" stroke="#bfbfbf" points="1454.17,-67.5 1454.17,-86.5 1521.17,-86.5 1521.17,-67.5 1454.17,-67.5"/>
<text text-anchor="middle" x="1487.67" y="-74.5" font-family="Helvetica,sans-Serif" font-size="10.00">streambuf</text>
</a>
</g>
</g>
<!-- Node38&#45;&gt;Node53 -->
<g id="edge85" class="edge">
<title>Node38&#45;&gt;Node53</title>
<path fill="none" stroke="midnightblue" d="M1868.16,-128.43C1801.09,-122.13 1660.49,-107.83 1531.47,-87"/>
<polygon fill="midnightblue" stroke="midnightblue" points="1531.85,-83.51 1521.41,-85.35 1530.72,-90.42 1531.85,-83.51"/>
</g>
<!-- Node54 -->
<g id="node50" class="node">
<title>Node54</title>
<g id="a_node50"><a xlink:title=" ">
<polygon fill="white" stroke="#bfbfbf" points="1539.67,-67.5 1539.67,-86.5 1625.67,-86.5 1625.67,-67.5 1539.67,-67.5"/>
<text text-anchor="middle" x="1582.67" y="-74.5" font-family="Helvetica,sans-Serif" font-size="10.00">Randomize.hh</text>
</a>
</g>
</g>
<!-- Node38&#45;&gt;Node54 -->
<g id="edge86" class="edge">
<title>Node38&#45;&gt;Node54</title>
<path fill="none" stroke="midnightblue" d="M1868.14,-125.43C1809.93,-115.76 1701.02,-97.67 1635.85,-86.84"/>
<polygon fill="midnightblue" stroke="midnightblue" points="1636.22,-83.35 1625.79,-85.16 1635.08,-90.26 1636.22,-83.35"/>
</g>
</g>
</svg>
