<?xml version="1.0" encoding="UTF-8" standalone="no"?>
<!DOCTYPE svg PUBLIC "-//W3C//DTD SVG 1.1//EN"
 "http://www.w3.org/Graphics/SVG/1.1/DTD/svg11.dtd">
<!-- Generated by graphviz version 2.43.0 (0)
 -->
<!-- Title: OMSimPMTConstruction.hh Pages: 1 -->
<svg width="1452pt" height="196pt"
 viewBox="0.00 0.00 1451.50 196.00" xmlns="http://www.w3.org/2000/svg" xmlns:xlink="http://www.w3.org/1999/xlink">
<g id="graph0" class="graph" transform="scale(1 1) rotate(0) translate(4 192)">
<title>OMSimPMTConstruction.hh</title>
<polygon fill="white" stroke="transparent" points="-4,4 -4,-192 1447.5,-192 1447.5,4 -4,4"/>
<!-- Node1 -->
<g id="node1" class="node">
<title>Node1</title>
<g id="a_node1"><a xlink:title=" ">
<polygon fill="#bfbfbf" stroke="black" points="836.5,-168.5 836.5,-187.5 985.5,-187.5 985.5,-168.5 836.5,-168.5"/>
<text text-anchor="middle" x="911" y="-175.5" font-family="Helvetica,sans-Serif" font-size="10.00">OMSimPMTConstruction.hh</text>
</a>
</g>
</g>
<!-- Node2 -->
<g id="node2" class="node">
<title>Node2</title>
<g id="a_node2"><a xlink:href="_o_m_sim_d_e_g_g_8hh.html" target="_top" xlink:title=" ">
<polygon fill="white" stroke="black" points="179.5,-112.5 179.5,-131.5 274.5,-131.5 274.5,-112.5 179.5,-112.5"/>
<text text-anchor="middle" x="227" y="-119.5" font-family="Helvetica,sans-Serif" font-size="10.00">OMSimDEGG.hh</text>
</a>
</g>
</g>
<!-- Node1&#45;&gt;Node2 -->
<g id="edge1" class="edge">
<title>Node1&#45;&gt;Node2</title>
<path fill="none" stroke="midnightblue" d="M826.25,-170.7C713.09,-162.23 506.42,-146.54 330,-132 311.93,-130.51 292.09,-128.8 274.68,-127.27"/>
<polygon fill="midnightblue" stroke="midnightblue" points="826,-174.19 836.23,-171.45 826.52,-167.21 826,-174.19"/>
</g>
<!-- Node5 -->
<g id="node5" class="node">
<title>Node5</title>
<g id="a_node5"><a xlink:href="_o_m_sim_detector_construction_8cc.html" target="_top" xlink:title="User defined detector.">
<polygon fill="white" stroke="black" points="538.5,-0.5 538.5,-19.5 707.5,-19.5 707.5,-0.5 538.5,-0.5"/>
<text text-anchor="middle" x="623" y="-7.5" font-family="Helvetica,sans-Serif" font-size="10.00">OMSimDetectorConstruction.cc</text>
</a>
</g>
</g>
<!-- Node1&#45;&gt;Node5 -->
<g id="edge26" class="edge">
<title>Node1&#45;&gt;Node5</title>
<path fill="none" stroke="midnightblue" d="M848.53,-166.34C791.35,-153.67 707.57,-127.43 653,-76 636.36,-60.32 628.14,-33.6 624.83,-19.81"/>
<polygon fill="midnightblue" stroke="midnightblue" points="848.02,-169.81 858.53,-168.47 849.48,-162.96 848.02,-169.81"/>
</g>
<!-- Node6 -->
<g id="node6" class="node">
<title>Node6</title>
<g id="a_node6"><a xlink:href="_o_m_sim_l_o_m16_8hh.html" target="_top" xlink:title=" ">
<polygon fill="white" stroke="black" points="339.5,-112.5 339.5,-131.5 440.5,-131.5 440.5,-112.5 339.5,-112.5"/>
<text text-anchor="middle" x="390" y="-119.5" font-family="Helvetica,sans-Serif" font-size="10.00">OMSimLOM16.hh</text>
</a>
</g>
</g>
<!-- Node1&#45;&gt;Node6 -->
<g id="edge5" class="edge">
<title>Node1&#45;&gt;Node6</title>
<path fill="none" stroke="midnightblue" d="M826.34,-168.23C716.96,-156.89 530,-137.51 440.56,-128.24"/>
<polygon fill="midnightblue" stroke="midnightblue" points="826.05,-171.71 836.35,-169.26 826.77,-164.75 826.05,-171.71"/>
</g>
<!-- Node8 -->
<g id="node8" class="node">
<title>Node8</title>
<g id="a_node8"><a xlink:href="_o_m_sim_l_o_m18_8hh.html" target="_top" xlink:title=" ">
<polygon fill="white" stroke="black" points="493.5,-112.5 493.5,-131.5 594.5,-131.5 594.5,-112.5 493.5,-112.5"/>
<text text-anchor="middle" x="544" y="-119.5" font-family="Helvetica,sans-Serif" font-size="10.00">OMSimLOM18.hh</text>
</a>
</g>
</g>
<!-- Node1&#45;&gt;Node8 -->
<g id="edge8" class="edge">
<title>Node1&#45;&gt;Node8</title>
<path fill="none" stroke="midnightblue" d="M842.52,-166.92C770.51,-156.33 658.9,-139.91 594.5,-130.43"/>
<polygon fill="midnightblue" stroke="midnightblue" points="842.44,-170.45 852.85,-168.44 843.46,-163.53 842.44,-170.45"/>
</g>
<!-- Node10 -->
<g id="node10" class="node">
<title>Node10</title>
<g id="a_node10"><a xlink:href="_o_m_sim_m_d_o_m_8hh.html" target="_top" xlink:title=" ">
<polygon fill="white" stroke="black" points="822,-112.5 822,-131.5 922,-131.5 922,-112.5 822,-112.5"/>
<text text-anchor="middle" x="872" y="-119.5" font-family="Helvetica,sans-Serif" font-size="10.00">OMSimMDOM.hh</text>
</a>
</g>
</g>
<!-- Node1&#45;&gt;Node10 -->
<g id="edge11" class="edge">
<title>Node1&#45;&gt;Node10</title>
<path fill="none" stroke="midnightblue" d="M898.62,-159.86C891.86,-150.5 883.79,-139.33 878.32,-131.75"/>
<polygon fill="midnightblue" stroke="midnightblue" points="895.87,-162.03 904.56,-168.08 901.54,-157.93 895.87,-162.03"/>
</g>
<!-- Node14 -->
<g id="node14" class="node">
<title>Node14</title>
<g id="a_node14"><a xlink:href="_o_m_sim_detector_construction_8hh.html" target="_top" xlink:title=" ">
<polygon fill="white" stroke="black" points="1113,-56.5 1113,-75.5 1283,-75.5 1283,-56.5 1113,-56.5"/>
<text text-anchor="middle" x="1198" y="-63.5" font-family="Helvetica,sans-Serif" font-size="10.00">OMSimDetectorConstruction.hh</text>
</a>
</g>
</g>
<!-- Node1&#45;&gt;Node14 -->
<g id="edge25" class="edge">
<title>Node1&#45;&gt;Node14</title>
<path fill="none" stroke="midnightblue" d="M921.9,-159.77C932.36,-144.73 949.56,-123.55 970,-112 996.96,-96.77 1073.56,-83.62 1130.58,-75.54"/>
<polygon fill="midnightblue" stroke="midnightblue" points="918.91,-157.94 916.29,-168.21 924.74,-161.82 918.91,-157.94"/>
</g>
<!-- Node16 -->
<g id="node16" class="node">
<title>Node16</title>
<g id="a_node16"><a xlink:href="_o_m_sim_p_d_o_m_8hh.html" target="_top" xlink:title=" ">
<polygon fill="white" stroke="black" points="978.5,-112.5 978.5,-131.5 1075.5,-131.5 1075.5,-112.5 978.5,-112.5"/>
<text text-anchor="middle" x="1027" y="-119.5" font-family="Helvetica,sans-Serif" font-size="10.00">OMSimPDOM.hh</text>
</a>
</g>
</g>
<!-- Node1&#45;&gt;Node16 -->
<g id="edge19" class="edge">
<title>Node1&#45;&gt;Node16</title>
<path fill="none" stroke="midnightblue" d="M938.72,-164.1C960.39,-154.01 989.9,-140.27 1008.71,-131.52"/>
<polygon fill="midnightblue" stroke="midnightblue" points="936.97,-161.05 929.38,-168.44 939.92,-167.4 936.97,-161.05"/>
</g>
<!-- Node17 -->
<g id="node17" class="node">
<title>Node17</title>
<g id="a_node17"><a xlink:href="_o_m_sim_p_d_o_m_8cc.html" target="_top" xlink:title="Implementation of the pDOM/Gen1 DOM class.">
<polygon fill="white" stroke="black" points="1339.5,-56.5 1339.5,-75.5 1434.5,-75.5 1434.5,-56.5 1339.5,-56.5"/>
<text text-anchor="middle" x="1387" y="-63.5" font-family="Helvetica,sans-Serif" font-size="10.00">OMSimPDOM.cc</text>
</a>
</g>
</g>
<!-- Node1&#45;&gt;Node17 -->
<g id="edge23" class="edge">
<title>Node1&#45;&gt;Node17</title>
<path fill="none" stroke="midnightblue" d="M964.4,-166.29C999.08,-158.57 1044.94,-146.89 1084,-132 1102.2,-125.06 1104.52,-118.15 1123,-112 1162.26,-98.93 1274.56,-82.28 1339.34,-73.35"/>
<polygon fill="midnightblue" stroke="midnightblue" points="963.5,-162.91 954.48,-168.47 964.99,-169.75 963.5,-162.91"/>
</g>
<!-- Node18 -->
<g id="node18" class="node">
<title>Node18</title>
<g id="a_node18"><a xlink:href="abc_detector_component_8cc.html" target="_top" xlink:title="Contains the implementation of the abcDetectorComponent class.">
<polygon fill="white" stroke="black" points="1132,-112.5 1132,-131.5 1278,-131.5 1278,-112.5 1132,-112.5"/>
<text text-anchor="middle" x="1205" y="-119.5" font-family="Helvetica,sans-Serif" font-size="10.00">abcDetectorComponent.cc</text>
</a>
</g>
</g>
<!-- Node1&#45;&gt;Node18 -->
<g id="edge22" class="edge">
<title>Node1&#45;&gt;Node18</title>
<path fill="none" stroke="midnightblue" d="M967.62,-166.6C1023.18,-156.4 1106.9,-141.02 1158.63,-131.52"/>
<polygon fill="midnightblue" stroke="midnightblue" points="966.79,-163.19 957.59,-168.44 968.05,-170.08 966.79,-163.19"/>
</g>
<!-- Node19 -->
<g id="node19" class="node">
<title>Node19</title>
<g id="a_node19"><a xlink:href="_o_m_sim_p_m_t_construction_8cc.html" target="_top" xlink:title="Construction of the PMTs.">
<polygon fill="white" stroke="black" points="1296.5,-112.5 1296.5,-131.5 1443.5,-131.5 1443.5,-112.5 1296.5,-112.5"/>
<text text-anchor="middle" x="1370" y="-119.5" font-family="Helvetica,sans-Serif" font-size="10.00">OMSimPMTConstruction.cc</text>
</a>
</g>
</g>
<!-- Node1&#45;&gt;Node19 -->
<g id="edge24" class="edge">
<title>Node1&#45;&gt;Node19</title>
<path fill="none" stroke="midnightblue" d="M993.53,-167.29C1080.12,-157.1 1214.91,-141.25 1297.53,-131.53"/>
<polygon fill="midnightblue" stroke="midnightblue" points="993,-163.83 983.48,-168.47 993.82,-170.78 993,-163.83"/>
</g>
<!-- Node3 -->
<g id="node3" class="node">
<title>Node3</title>
<g id="a_node3"><a xlink:href="_o_m_sim_d_e_g_g_8cc.html" target="_top" xlink:title="Construction of the DEGG class.">
<polygon fill="white" stroke="black" points="0,-56.5 0,-75.5 94,-75.5 94,-56.5 0,-56.5"/>
<text text-anchor="middle" x="47" y="-63.5" font-family="Helvetica,sans-Serif" font-size="10.00">OMSimDEGG.cc</text>
</a>
</g>
</g>
<!-- Node2&#45;&gt;Node3 -->
<g id="edge2" class="edge">
<title>Node2&#45;&gt;Node3</title>
<path fill="none" stroke="midnightblue" d="M188.89,-109.57C154.94,-99.38 106.01,-84.7 75.39,-75.52"/>
<polygon fill="midnightblue" stroke="midnightblue" points="187.89,-112.92 198.48,-112.44 189.91,-106.22 187.89,-112.92"/>
</g>
<!-- Node4 -->
<g id="node4" class="node">
<title>Node4</title>
<g id="a_node4"><a xlink:href="_o_m_sim_d_e_g_g_harness_8cc.html" target="_top" xlink:title=" ">
<polygon fill="white" stroke="black" points="112,-56.5 112,-75.5 246,-75.5 246,-56.5 112,-56.5"/>
<text text-anchor="middle" x="179" y="-63.5" font-family="Helvetica,sans-Serif" font-size="10.00">OMSimDEGGHarness.cc</text>
</a>
</g>
</g>
<!-- Node2&#45;&gt;Node4 -->
<g id="edge3" class="edge">
<title>Node2&#45;&gt;Node4</title>
<path fill="none" stroke="midnightblue" d="M212.27,-104.43C203.86,-94.97 193.65,-83.48 186.78,-75.75"/>
<polygon fill="midnightblue" stroke="midnightblue" points="209.81,-106.93 219.07,-112.08 215.05,-102.28 209.81,-106.93"/>
</g>
<!-- Node2&#45;&gt;Node5 -->
<g id="edge4" class="edge">
<title>Node2&#45;&gt;Node5</title>
<path fill="none" stroke="midnightblue" d="M244.48,-105.57C262.74,-90.37 292.87,-67.76 323,-56 392.42,-28.91 476.76,-18.02 538.31,-13.7"/>
<polygon fill="midnightblue" stroke="midnightblue" points="241.86,-103.21 236.52,-112.36 246.4,-108.53 241.86,-103.21"/>
</g>
<!-- Node6&#45;&gt;Node5 -->
<g id="edge7" class="edge">
<title>Node6&#45;&gt;Node5</title>
<path fill="none" stroke="midnightblue" d="M363.13,-107.37C340.96,-94.35 315.48,-74.1 331,-56 357.3,-25.34 461.76,-15.37 538.26,-12.24"/>
<polygon fill="midnightblue" stroke="midnightblue" points="361.55,-110.49 371.99,-112.31 364.96,-104.38 361.55,-110.49"/>
</g>
<!-- Node7 -->
<g id="node7" class="node">
<title>Node7</title>
<g id="a_node7"><a xlink:href="_o_m_sim_l_o_m16_8cc.html" target="_top" xlink:title="Construction of LOM16.">
<polygon fill="white" stroke="black" points="340.5,-56.5 340.5,-75.5 439.5,-75.5 439.5,-56.5 340.5,-56.5"/>
<text text-anchor="middle" x="390" y="-63.5" font-family="Helvetica,sans-Serif" font-size="10.00">OMSimLOM16.cc</text>
</a>
</g>
</g>
<!-- Node6&#45;&gt;Node7 -->
<g id="edge6" class="edge">
<title>Node6&#45;&gt;Node7</title>
<path fill="none" stroke="midnightblue" d="M390,-101.8C390,-92.91 390,-82.78 390,-75.75"/>
<polygon fill="midnightblue" stroke="midnightblue" points="386.5,-102.08 390,-112.08 393.5,-102.08 386.5,-102.08"/>
</g>
<!-- Node8&#45;&gt;Node5 -->
<g id="edge10" class="edge">
<title>Node8&#45;&gt;Node5</title>
<path fill="none" stroke="midnightblue" d="M556.24,-103.96C573.36,-80.12 603.82,-37.71 616.83,-19.59"/>
<polygon fill="midnightblue" stroke="midnightblue" points="553.19,-102.2 550.2,-112.37 558.88,-106.29 553.19,-102.2"/>
</g>
<!-- Node9 -->
<g id="node9" class="node">
<title>Node9</title>
<g id="a_node9"><a xlink:href="_o_m_sim_l_o_m18_8cc.html" target="_top" xlink:title="Construction of LOM18.">
<polygon fill="white" stroke="black" points="457.5,-56.5 457.5,-75.5 556.5,-75.5 556.5,-56.5 457.5,-56.5"/>
<text text-anchor="middle" x="507" y="-63.5" font-family="Helvetica,sans-Serif" font-size="10.00">OMSimLOM18.cc</text>
</a>
</g>
</g>
<!-- Node8&#45;&gt;Node9 -->
<g id="edge9" class="edge">
<title>Node8&#45;&gt;Node9</title>
<path fill="none" stroke="midnightblue" d="M532.05,-103.57C525.69,-94.27 518.13,-83.25 513,-75.75"/>
<polygon fill="midnightblue" stroke="midnightblue" points="529.35,-105.81 537.89,-112.08 535.13,-101.86 529.35,-105.81"/>
</g>
<!-- Node10&#45;&gt;Node5 -->
<g id="edge18" class="edge">
<title>Node10&#45;&gt;Node5</title>
<path fill="none" stroke="midnightblue" d="M811.84,-116.47C772.08,-111.26 720.1,-100.07 680,-76 656.06,-61.63 636.82,-33.83 628.09,-19.7"/>
<polygon fill="midnightblue" stroke="midnightblue" points="811.58,-119.97 821.93,-117.7 812.42,-113.02 811.58,-119.97"/>
</g>
<!-- Node11 -->
<g id="node11" class="node">
<title>Node11</title>
<g id="a_node11"><a xlink:href="_o_m_sim_m_d_o_m_8cc.html" target="_top" xlink:title="Construction of mDOM.">
<polygon fill="white" stroke="black" points="689,-56.5 689,-75.5 787,-75.5 787,-56.5 689,-56.5"/>
<text text-anchor="middle" x="738" y="-63.5" font-family="Helvetica,sans-Serif" font-size="10.00">OMSimMDOM.cc</text>
</a>
</g>
</g>
<!-- Node10&#45;&gt;Node11 -->
<g id="edge12" class="edge">
<title>Node10&#45;&gt;Node11</title>
<path fill="none" stroke="midnightblue" d="M841.32,-108.64C816.18,-98.5 781.25,-84.43 759.13,-75.52"/>
<polygon fill="midnightblue" stroke="midnightblue" points="840.18,-111.95 850.77,-112.44 842.8,-105.46 840.18,-111.95"/>
</g>
<!-- Node12 -->
<g id="node12" class="node">
<title>Node12</title>
<g id="a_node12"><a xlink:href="_o_m_sim_m_d_o_m_flasher_8cc.html" target="_top" xlink:title=" ">
<polygon fill="white" stroke="black" points="805,-56.5 805,-75.5 939,-75.5 939,-56.5 805,-56.5"/>
<text text-anchor="middle" x="872" y="-63.5" font-family="Helvetica,sans-Serif" font-size="10.00">OMSimMDOMFlasher.cc</text>
</a>
</g>
</g>
<!-- Node10&#45;&gt;Node12 -->
<g id="edge13" class="edge">
<title>Node10&#45;&gt;Node12</title>
<path fill="none" stroke="midnightblue" d="M872,-101.8C872,-92.91 872,-82.78 872,-75.75"/>
<polygon fill="midnightblue" stroke="midnightblue" points="868.5,-102.08 872,-112.08 875.5,-102.08 868.5,-102.08"/>
</g>
<!-- Node13 -->
<g id="node13" class="node">
<title>Node13</title>
<g id="a_node13"><a xlink:href="_o_m_sim_m_d_o_m_harness_8cc.html" target="_top" xlink:title="Construction of mDOM harness.">
<polygon fill="white" stroke="black" points="957,-56.5 957,-75.5 1095,-75.5 1095,-56.5 957,-56.5"/>
<text text-anchor="middle" x="1026" y="-63.5" font-family="Helvetica,sans-Serif" font-size="10.00">OMSimMDOMHarness.cc</text>
</a>
</g>
</g>
<!-- Node10&#45;&gt;Node13 -->
<g id="edge14" class="edge">
<title>Node10&#45;&gt;Node13</title>
<path fill="none" stroke="midnightblue" d="M906.11,-109.04C935.09,-98.88 975.96,-84.55 1001.71,-75.52"/>
<polygon fill="midnightblue" stroke="midnightblue" points="904.68,-105.83 896.4,-112.44 907,-112.44 904.68,-105.83"/>
</g>
<!-- Node10&#45;&gt;Node14 -->
<g id="edge15" class="edge">
<title>Node10&#45;&gt;Node14</title>
<path fill="none" stroke="midnightblue" d="M932.19,-111.03C993.78,-100.83 1088.47,-85.14 1146.64,-75.51"/>
<polygon fill="midnightblue" stroke="midnightblue" points="931.52,-107.59 922.22,-112.68 932.66,-114.5 931.52,-107.59"/>
</g>
<!-- Node14&#45;&gt;Node5 -->
<g id="edge16" class="edge">
<title>Node14&#45;&gt;Node5</title>
<path fill="none" stroke="midnightblue" d="M1102.97,-55.9C957.97,-42.19 801.65,-27.61 707.72,-18.87"/>
<polygon fill="midnightblue" stroke="midnightblue" points="1102.66,-59.39 1112.95,-56.85 1103.32,-52.42 1102.66,-59.39"/>
</g>
<!-- Node15 -->
<g id="node15" class="node">
<title>Node15</title>
<g id="a_node15"><a xlink:href="_o_m_sim__effective__area_8cc.html" target="_top" xlink:title="Main for the calculation of effective areas.">
<polygon fill="white" stroke="black" points="1128,-0.5 1128,-19.5 1268,-19.5 1268,-0.5 1128,-0.5"/>
<text text-anchor="middle" x="1198" y="-7.5" font-family="Helvetica,sans-Serif" font-size="10.00">OMSim_effective_area.cc</text>
</a>
</g>
</g>
<!-- Node14&#45;&gt;Node15 -->
<g id="edge17" class="edge">
<title>Node14&#45;&gt;Node15</title>
<path fill="none" stroke="midnightblue" d="M1198,-45.8C1198,-36.91 1198,-26.78 1198,-19.75"/>
<polygon fill="midnightblue" stroke="midnightblue" points="1194.5,-46.08 1198,-56.08 1201.5,-46.08 1194.5,-46.08"/>
</g>
<!-- Node16&#45;&gt;Node5 -->
<g id="edge21" class="edge">
<title>Node16&#45;&gt;Node5</title>
<path fill="none" stroke="midnightblue" d="M1085.8,-111.97C1162.85,-100.01 1288.66,-79.95 1292,-76 1297.74,-69.21 1298.07,-62.49 1292,-56 1252.89,-14.18 878.74,-10.06 707.64,-10.39"/>
<polygon fill="midnightblue" stroke="midnightblue" points="1085.08,-108.54 1075.73,-113.53 1086.15,-115.46 1085.08,-108.54"/>
</g>
<!-- Node16&#45;&gt;Node17 -->
<g id="edge20" class="edge">
<title>Node16&#45;&gt;Node17</title>
<path fill="none" stroke="midnightblue" d="M1085.63,-112.21C1156.32,-101.6 1273.77,-83.98 1339.22,-74.17"/>
<polygon fill="midnightblue" stroke="midnightblue" points="1084.92,-108.77 1075.55,-113.72 1085.96,-115.7 1084.92,-108.77"/>
</g>
</g>
</svg>
