<?xml version="1.0" encoding="UTF-8" standalone="no"?>
<!DOCTYPE svg PUBLIC "-//W3C//DTD SVG 1.1//EN"
 "http://www.w3.org/Graphics/SVG/1.1/DTD/svg11.dtd">
<!-- Generated by graphviz version 2.43.0 (0)
 -->
<!-- Title: OMSim_effective_area.cc Pages: 1 -->
<svg width="4114pt" height="319pt"
 viewBox="0.00 0.00 4113.50 319.00" xmlns="http://www.w3.org/2000/svg" xmlns:xlink="http://www.w3.org/1999/xlink">
<g id="graph0" class="graph" transform="scale(1 1) rotate(0) translate(4 315)">
<title>OMSim_effective_area.cc</title>
<polygon fill="white" stroke="transparent" points="-4,4 -4,-315 4109.5,-315 4109.5,4 -4,4"/>
<!-- Node1 -->
<g id="node1" class="node">
<title>Node1</title>
<g id="a_node1"><a xlink:title="Main for the calculation of effective areas.">
<polygon fill="#bfbfbf" stroke="black" points="2417.5,-291.5 2417.5,-310.5 2557.5,-310.5 2557.5,-291.5 2417.5,-291.5"/>
<text text-anchor="middle" x="2487.5" y="-298.5" font-family="Helvetica,sans-Serif" font-size="10.00">OMSim_effective_area.cc</text>
</a>
</g>
</g>
<!-- Node2 -->
<g id="node2" class="node">
<title>Node2</title>
<g id="a_node2"><a xlink:href="_o_m_sim_detector_construction_8hh.html" target="_top" xlink:title=" ">
<polygon fill="white" stroke="black" points="347.5,-235.5 347.5,-254.5 517.5,-254.5 517.5,-235.5 347.5,-235.5"/>
<text text-anchor="middle" x="432.5" y="-242.5" font-family="Helvetica,sans-Serif" font-size="10.00">OMSimDetectorConstruction.hh</text>
</a>
</g>
</g>
<!-- Node1&#45;&gt;Node2 -->
<g id="edge1" class="edge">
<title>Node1&#45;&gt;Node2</title>
<path fill="none" stroke="midnightblue" d="M2417.36,-298.16C2109.91,-290.08 880.99,-257.79 527.85,-248.51"/>
<polygon fill="midnightblue" stroke="midnightblue" points="527.75,-245 517.66,-248.24 527.56,-252 527.75,-245"/>
</g>
<!-- Node8 -->
<g id="node8" class="node">
<title>Node8</title>
<g id="a_node8"><a xlink:title=" ">
<polygon fill="white" stroke="#bfbfbf" points="131,-0.5 131,-30.5 244,-30.5 244,-0.5 131,-0.5"/>
<text text-anchor="start" x="139" y="-18.5" font-family="Helvetica,sans-Serif" font-size="10.00">boost/property_tree</text>
<text text-anchor="middle" x="187.5" y="-7.5" font-family="Helvetica,sans-Serif" font-size="10.00">/ptree.hpp</text>
</a>
</g>
</g>
<!-- Node1&#45;&gt;Node8 -->
<g id="edge75" class="edge">
<title>Node1&#45;&gt;Node8</title>
<path fill="none" stroke="midnightblue" d="M2417.38,-299.54C2070.65,-297.14 547.79,-284.96 338.5,-255 228.68,-239.28 97.5,-300.94 97.5,-190 97.5,-190 97.5,-190 97.5,-132 97.5,-101.64 100.72,-91.61 118.5,-67 127.32,-54.8 139.97,-44.34 152.04,-36.16"/>
<polygon fill="midnightblue" stroke="midnightblue" points="154.15,-38.97 160.67,-30.61 150.36,-33.08 154.15,-38.97"/>
</g>
<!-- Node9 -->
<g id="node9" class="node">
<title>Node9</title>
<g id="a_node9"><a xlink:title=" ">
<polygon fill="white" stroke="#bfbfbf" points="0,-0.5 0,-30.5 113,-30.5 113,-0.5 0,-0.5"/>
<text text-anchor="start" x="8" y="-18.5" font-family="Helvetica,sans-Serif" font-size="10.00">boost/property_tree</text>
<text text-anchor="middle" x="56.5" y="-7.5" font-family="Helvetica,sans-Serif" font-size="10.00">/json_parser.hpp</text>
</a>
</g>
</g>
<!-- Node1&#45;&gt;Node9 -->
<g id="edge76" class="edge">
<title>Node1&#45;&gt;Node9</title>
<path fill="none" stroke="midnightblue" d="M2417.43,-299.88C2035.74,-299.1 220.36,-293.35 108.5,-255 62.84,-239.35 21.5,-238.27 21.5,-190 21.5,-190 21.5,-190 21.5,-132 21.5,-98.96 34.78,-62.81 44.98,-39.91"/>
<polygon fill="midnightblue" stroke="midnightblue" points="48.23,-41.21 49.25,-30.67 41.87,-38.27 48.23,-41.21"/>
</g>
<!-- Node13 -->
<g id="node10" class="node">
<title>Node13</title>
<g id="a_node10"><a xlink:title=" ">
<polygon fill="white" stroke="#bfbfbf" points="694,-6 694,-25 813,-25 813,-6 694,-6"/>
<text text-anchor="middle" x="753.5" y="-13" font-family="Helvetica,sans-Serif" font-size="10.00">G4SystemOfUnits.hh</text>
</a>
</g>
</g>
<!-- Node1&#45;&gt;Node13 -->
<g id="edge74" class="edge">
<title>Node1&#45;&gt;Node13</title>
<path fill="none" stroke="midnightblue" d="M2417.17,-299.3C2136.18,-296.32 1102.35,-283.5 958.5,-255 880.37,-239.52 791.5,-269.65 791.5,-190 791.5,-190 791.5,-190 791.5,-132 791.5,-95.75 774.41,-56.17 763.15,-34.03"/>
<polygon fill="midnightblue" stroke="midnightblue" points="766.23,-32.37 758.47,-25.16 760.04,-35.64 766.23,-32.37"/>
</g>
<!-- Node31 -->
<g id="node13" class="node">
<title>Node31</title>
<g id="a_node13"><a xlink:href="_o_m_sim_physics_list_8hh.html" target="_top" xlink:title=" ">
<polygon fill="white" stroke="black" points="2157,-235.5 2157,-254.5 2278,-254.5 2278,-235.5 2157,-235.5"/>
<text text-anchor="middle" x="2217.5" y="-242.5" font-family="Helvetica,sans-Serif" font-size="10.00">OMSimPhysicsList.hh</text>
</a>
</g>
</g>
<!-- Node1&#45;&gt;Node31 -->
<g id="edge20" class="edge">
<title>Node1&#45;&gt;Node31</title>
<path fill="none" stroke="midnightblue" d="M2444.72,-291.44C2397.32,-281.96 2320.87,-266.67 2269.92,-256.48"/>
<polygon fill="midnightblue" stroke="midnightblue" points="2270.57,-253.05 2260.08,-254.52 2269.2,-259.91 2270.57,-253.05"/>
</g>
<!-- Node34 -->
<g id="node16" class="node">
<title>Node34</title>
<g id="a_node16"><a xlink:href="_o_m_sim_primary_generator_action_8hh.html" target="_top" xlink:title=" ">
<polygon fill="white" stroke="black" points="1836,-235.5 1836,-254.5 2021,-254.5 2021,-235.5 1836,-235.5"/>
<text text-anchor="middle" x="1928.5" y="-242.5" font-family="Helvetica,sans-Serif" font-size="10.00">OMSimPrimaryGeneratorAction.hh</text>
</a>
</g>
</g>
<!-- Node1&#45;&gt;Node34 -->
<g id="edge23" class="edge">
<title>Node1&#45;&gt;Node34</title>
<path fill="none" stroke="midnightblue" d="M2417.27,-293.22C2318.74,-283.7 2139.03,-266.34 2027.12,-255.53"/>
<polygon fill="midnightblue" stroke="midnightblue" points="2027.13,-252.01 2016.84,-254.53 2026.46,-258.98 2027.13,-252.01"/>
</g>
<!-- Node36 -->
<g id="node18" class="node">
<title>Node36</title>
<g id="a_node18"><a xlink:href="_o_m_sim_run_action_8hh.html" target="_top" xlink:title=" ">
<polygon fill="white" stroke="black" points="1573.5,-235.5 1573.5,-254.5 1689.5,-254.5 1689.5,-235.5 1573.5,-235.5"/>
<text text-anchor="middle" x="1631.5" y="-242.5" font-family="Helvetica,sans-Serif" font-size="10.00">OMSimRunAction.hh</text>
</a>
</g>
</g>
<!-- Node1&#45;&gt;Node36 -->
<g id="edge26" class="edge">
<title>Node1&#45;&gt;Node36</title>
<path fill="none" stroke="midnightblue" d="M2417.45,-295.58C2255.99,-285.4 1859.32,-260.37 1699.68,-250.3"/>
<polygon fill="midnightblue" stroke="midnightblue" points="1699.72,-246.8 1689.52,-249.66 1699.28,-253.78 1699.72,-246.8"/>
</g>
<!-- Node38 -->
<g id="node20" class="node">
<title>Node38</title>
<g id="a_node20"><a xlink:href="_o_m_sim_event_action_8hh.html" target="_top" xlink:title=" ">
<polygon fill="white" stroke="black" points="2296,-235.5 2296,-254.5 2421,-254.5 2421,-235.5 2296,-235.5"/>
<text text-anchor="middle" x="2358.5" y="-242.5" font-family="Helvetica,sans-Serif" font-size="10.00">OMSimEventAction.hh</text>
</a>
</g>
</g>
<!-- Node1&#45;&gt;Node38 -->
<g id="edge29" class="edge">
<title>Node1&#45;&gt;Node38</title>
<path fill="none" stroke="midnightblue" d="M2467.06,-291.44C2445.83,-282.56 2412.4,-268.56 2388.25,-258.45"/>
<polygon fill="midnightblue" stroke="midnightblue" points="2389.42,-255.15 2378.84,-254.52 2386.72,-261.61 2389.42,-255.15"/>
</g>
<!-- Node40 -->
<g id="node22" class="node">
<title>Node40</title>
<g id="a_node22"><a xlink:title=" ">
<polygon fill="white" stroke="#bfbfbf" points="2609.5,-123.5 2609.5,-142.5 2653.5,-142.5 2653.5,-123.5 2609.5,-123.5"/>
<text text-anchor="middle" x="2631.5" y="-130.5" font-family="Helvetica,sans-Serif" font-size="10.00">string</text>
</a>
</g>
</g>
<!-- Node1&#45;&gt;Node40 -->
<g id="edge72" class="edge">
<title>Node1&#45;&gt;Node40</title>
<path fill="none" stroke="midnightblue" d="M2487.55,-291.42C2488.13,-277.47 2491.38,-249.92 2507.5,-235 2560.99,-185.49 2621.97,-255.92 2667.5,-199 2679.87,-183.53 2664.45,-163.23 2650.12,-149.46"/>
<polygon fill="midnightblue" stroke="midnightblue" points="2652.23,-146.65 2642.46,-142.56 2647.55,-151.85 2652.23,-146.65"/>
</g>
<!-- Node41 -->
<g id="node23" class="node">
<title>Node41</title>
<g id="a_node23"><a xlink:href="_o_m_sim_tracking_action_8hh.html" target="_top" xlink:title=" ">
<polygon fill="white" stroke="black" points="2731.5,-235.5 2731.5,-254.5 2869.5,-254.5 2869.5,-235.5 2731.5,-235.5"/>
<text text-anchor="middle" x="2800.5" y="-242.5" font-family="Helvetica,sans-Serif" font-size="10.00">OMSimTrackingAction.hh</text>
</a>
</g>
</g>
<!-- Node1&#45;&gt;Node41 -->
<g id="edge32" class="edge">
<title>Node1&#45;&gt;Node41</title>
<path fill="none" stroke="midnightblue" d="M2537.1,-291.44C2592.5,-281.89 2682.14,-266.42 2741.21,-256.23"/>
<polygon fill="midnightblue" stroke="midnightblue" points="2741.88,-259.67 2751.14,-254.52 2740.69,-252.77 2741.88,-259.67"/>
</g>
<!-- Node43 -->
<g id="node25" class="node">
<title>Node43</title>
<g id="a_node25"><a xlink:href="_o_m_sim_stepping_action_8hh.html" target="_top" xlink:title=" ">
<polygon fill="white" stroke="black" points="1256.5,-235.5 1256.5,-254.5 1396.5,-254.5 1396.5,-235.5 1256.5,-235.5"/>
<text text-anchor="middle" x="1326.5" y="-242.5" font-family="Helvetica,sans-Serif" font-size="10.00">OMSimSteppingAction.hh</text>
</a>
</g>
</g>
<!-- Node1&#45;&gt;Node43 -->
<g id="edge34" class="edge">
<title>Node1&#45;&gt;Node43</title>
<path fill="none" stroke="midnightblue" d="M2417.22,-297.04C2254.53,-290.14 1839.42,-272.25 1492.5,-255 1464.64,-253.61 1434.15,-251.99 1407,-250.51"/>
<polygon fill="midnightblue" stroke="midnightblue" points="1406.94,-247 1396.76,-249.95 1406.56,-253.99 1406.94,-247"/>
</g>
<!-- Node46 -->
<g id="node28" class="node">
<title>Node46</title>
<g id="a_node28"><a xlink:title=" ">
<polygon fill="white" stroke="#bfbfbf" points="1177,-179.5 1177,-198.5 1280,-198.5 1280,-179.5 1177,-179.5"/>
<text text-anchor="middle" x="1228.5" y="-186.5" font-family="Helvetica,sans-Serif" font-size="10.00">G4ThreeVector.hh</text>
</a>
</g>
</g>
<!-- Node1&#45;&gt;Node46 -->
<g id="edge62" class="edge">
<title>Node1&#45;&gt;Node46</title>
<path fill="none" stroke="midnightblue" d="M2417.15,-299.71C2161.44,-298.34 1293.85,-291.07 1247.5,-255 1233.75,-244.3 1229.55,-224.2 1228.45,-209.17"/>
<polygon fill="midnightblue" stroke="midnightblue" points="1231.94,-208.79 1228.11,-198.91 1224.95,-209.02 1231.94,-208.79"/>
</g>
<!-- Node48 -->
<g id="node30" class="node">
<title>Node48</title>
<g id="a_node30"><a xlink:href="_o_m_sim_analysis_manager_8hh.html" target="_top" xlink:title=" ">
<polygon fill="white" stroke="red" points="1042.5,-235.5 1042.5,-254.5 1192.5,-254.5 1192.5,-235.5 1042.5,-235.5"/>
<text text-anchor="middle" x="1117.5" y="-242.5" font-family="Helvetica,sans-Serif" font-size="10.00">OMSimAnalysisManager.hh</text>
</a>
</g>
</g>
<!-- Node1&#45;&gt;Node48 -->
<g id="edge39" class="edge">
<title>Node1&#45;&gt;Node48</title>
<path fill="none" stroke="midnightblue" d="M2417.4,-298.93C2225.02,-295.69 1672.71,-284.33 1214.5,-255 1210.62,-254.75 1206.66,-254.48 1202.66,-254.18"/>
<polygon fill="midnightblue" stroke="midnightblue" points="1202.9,-250.69 1192.66,-253.4 1202.36,-257.67 1202.9,-250.69"/>
</g>
<!-- Node49 -->
<g id="node31" class="node">
<title>Node49</title>
<g id="a_node31"><a xlink:href="_o_m_sim_p_m_t_response_8hh.html" target="_top" xlink:title=" ">
<polygon fill="white" stroke="red" points="820,-179.5 820,-198.5 955,-198.5 955,-179.5 820,-179.5"/>
<text text-anchor="middle" x="887.5" y="-186.5" font-family="Helvetica,sans-Serif" font-size="10.00">OMSimPMTResponse.hh</text>
</a>
</g>
</g>
<!-- Node1&#45;&gt;Node49 -->
<g id="edge48" class="edge">
<title>Node1&#45;&gt;Node49</title>
<path fill="none" stroke="midnightblue" d="M2417.17,-299.71C2142.18,-298.32 1148.04,-290.83 1011.5,-255 972.27,-244.71 931.5,-220.22 907.87,-204.41"/>
<polygon fill="midnightblue" stroke="midnightblue" points="909.64,-201.38 899.4,-198.63 905.69,-207.16 909.64,-201.38"/>
</g>
<!-- Node51 -->
<g id="node32" class="node">
<title>Node51</title>
<g id="a_node32"><a xlink:title=" ">
<polygon fill="white" stroke="#bfbfbf" points="1294,-123.5 1294,-142.5 1355,-142.5 1355,-123.5 1294,-123.5"/>
<text text-anchor="middle" x="1324.5" y="-130.5" font-family="Helvetica,sans-Serif" font-size="10.00">TGraph.h</text>
</a>
</g>
</g>
<!-- Node1&#45;&gt;Node51 -->
<g id="edge77" class="edge">
<title>Node1&#45;&gt;Node51</title>
<path fill="none" stroke="midnightblue" d="M2417.37,-299.43C2215.4,-297.39 1641.87,-288.68 1564.5,-255 1520.12,-235.68 1528.46,-203.12 1486.5,-179 1448.54,-157.18 1399.46,-145.48 1365.31,-139.54"/>
<polygon fill="midnightblue" stroke="midnightblue" points="1365.66,-136.05 1355.22,-137.87 1364.52,-142.95 1365.66,-136.05"/>
</g>
<!-- Node55 -->
<g id="node33" class="node">
<title>Node55</title>
<g id="a_node33"><a xlink:title=" ">
<polygon fill="white" stroke="#bfbfbf" points="973,-179.5 973,-198.5 1028,-198.5 1028,-179.5 973,-179.5"/>
<text text-anchor="middle" x="1000.5" y="-186.5" font-family="Helvetica,sans-Serif" font-size="10.00">fstream</text>
</a>
</g>
</g>
<!-- Node1&#45;&gt;Node55 -->
<g id="edge71" class="edge">
<title>Node1&#45;&gt;Node55</title>
<path fill="none" stroke="midnightblue" d="M2417.18,-299.81C2134.38,-298.77 1092.42,-292.43 1033.5,-255 1017.34,-244.73 1008.75,-223.9 1004.44,-208.58"/>
<polygon fill="midnightblue" stroke="midnightblue" points="1007.78,-207.5 1002,-198.62 1000.98,-209.17 1007.78,-207.5"/>
</g>
<!-- Node56 -->
<g id="node34" class="node">
<title>Node56</title>
<g id="a_node34"><a xlink:href="_o_m_sim_command_args_table_8hh.html" target="_top" xlink:title="Definition of the OMSimCommandArgsTable singleton class, which controls user args.">
<polygon fill="white" stroke="red" points="2494.5,-179.5 2494.5,-198.5 2658.5,-198.5 2658.5,-179.5 2494.5,-179.5"/>
<text text-anchor="middle" x="2576.5" y="-186.5" font-family="Helvetica,sans-Serif" font-size="10.00">OMSimCommandArgsTable.hh</text>
</a>
</g>
</g>
<!-- Node1&#45;&gt;Node56 -->
<g id="edge49" class="edge">
<title>Node1&#45;&gt;Node56</title>
<path fill="none" stroke="midnightblue" d="M2481.78,-291.25C2473.93,-278.02 2462,-252.58 2473.5,-235 2484,-218.95 2501.63,-208.59 2519.35,-201.92"/>
<polygon fill="midnightblue" stroke="midnightblue" points="2520.83,-205.11 2529.17,-198.58 2518.57,-198.49 2520.83,-205.11"/>
</g>
<!-- Node60 -->
<g id="node35" class="node">
<title>Node60</title>
<g id="a_node35"><a xlink:href="_o_m_sim_u_iinterface_8hh.html" target="_top" xlink:title="The OMSimUIinterface class provides a singleton interface to Geant4&#39;s UI manager.">
<polygon fill="white" stroke="red" points="2516,-235.5 2516,-254.5 2637,-254.5 2637,-235.5 2516,-235.5"/>
<text text-anchor="middle" x="2576.5" y="-242.5" font-family="Helvetica,sans-Serif" font-size="10.00">OMSimUIinterface.hh</text>
</a>
</g>
</g>
<!-- Node1&#45;&gt;Node60 -->
<g id="edge52" class="edge">
<title>Node1&#45;&gt;Node60</title>
<path fill="none" stroke="midnightblue" d="M2501.8,-291.32C2515.68,-282.9 2536.99,-269.97 2553.3,-260.07"/>
<polygon fill="midnightblue" stroke="midnightblue" points="2555.5,-262.83 2562.24,-254.65 2551.87,-256.85 2555.5,-262.83"/>
</g>
<!-- Node21 -->
<g id="node36" class="node">
<title>Node21</title>
<g id="a_node36"><a xlink:title=" ">
<polygon fill="white" stroke="#bfbfbf" points="2752.5,-179.5 2752.5,-198.5 2808.5,-198.5 2808.5,-179.5 2752.5,-179.5"/>
<text text-anchor="middle" x="2780.5" y="-186.5" font-family="Helvetica,sans-Serif" font-size="10.00">sstream</text>
</a>
</g>
</g>
<!-- Node1&#45;&gt;Node21 -->
<g id="edge69" class="edge">
<title>Node1&#45;&gt;Node21</title>
<path fill="none" stroke="midnightblue" d="M2524.72,-291.43C2557.33,-283.47 2605.75,-270.51 2646.5,-255 2657.27,-250.9 2718,-221 2753.9,-203.21"/>
<polygon fill="midnightblue" stroke="midnightblue" points="2755.9,-206.13 2763.31,-198.55 2752.79,-199.86 2755.9,-206.13"/>
</g>
<!-- Node61 -->
<g id="node37" class="node">
<title>Node61</title>
<g id="a_node37"><a xlink:title=" ">
<polygon fill="white" stroke="#bfbfbf" points="2826.5,-179.5 2826.5,-198.5 2924.5,-198.5 2924.5,-179.5 2826.5,-179.5"/>
<text text-anchor="middle" x="2875.5" y="-186.5" font-family="Helvetica,sans-Serif" font-size="10.00">G4UImanager.hh</text>
</a>
</g>
</g>
<!-- Node1&#45;&gt;Node61 -->
<g id="edge60" class="edge">
<title>Node1&#45;&gt;Node61</title>
<path fill="none" stroke="midnightblue" d="M2536.01,-291.49C2575.3,-283.92 2631.77,-271.5 2679.5,-255 2699.42,-248.11 2702.78,-242.44 2722.5,-235 2758.34,-221.48 2800.13,-209.43 2830.97,-201.21"/>
<polygon fill="midnightblue" stroke="midnightblue" points="2832.21,-204.5 2840.99,-198.57 2830.43,-197.73 2832.21,-204.5"/>
</g>
<!-- Node65 -->
<g id="node38" class="node">
<title>Node65</title>
<g id="a_node38"><a xlink:href="_o_m_sim_simple_g_p_s_beams_8hh.html" target="_top" xlink:title=" ">
<polygon fill="white" stroke="black" points="1956.5,-179.5 1956.5,-198.5 2110.5,-198.5 2110.5,-179.5 1956.5,-179.5"/>
<text text-anchor="middle" x="2033.5" y="-186.5" font-family="Helvetica,sans-Serif" font-size="10.00">OMSimSimpleGPSBeams.hh</text>
</a>
</g>
</g>
<!-- Node1&#45;&gt;Node65 -->
<g id="edge57" class="edge">
<title>Node1&#45;&gt;Node65</title>
<path fill="none" stroke="midnightblue" d="M2417.25,-298.44C2347.45,-295.11 2238.15,-285.03 2148.5,-255 2112.76,-243.03 2075.51,-219.64 2053.42,-204.42"/>
<polygon fill="midnightblue" stroke="midnightblue" points="2055.39,-201.53 2045.2,-198.65 2051.37,-207.26 2055.39,-201.53"/>
</g>
<!-- Node66 -->
<g id="node39" class="node">
<title>Node66</title>
<g id="a_node39"><a xlink:title=" ">
<polygon fill="white" stroke="#bfbfbf" points="2887.5,-235.5 2887.5,-254.5 2993.5,-254.5 2993.5,-235.5 2887.5,-235.5"/>
<text text-anchor="middle" x="2940.5" y="-242.5" font-family="Helvetica,sans-Serif" font-size="10.00">G4RunManager.hh</text>
</a>
</g>
</g>
<!-- Node1&#45;&gt;Node66 -->
<g id="edge59" class="edge">
<title>Node1&#45;&gt;Node66</title>
<path fill="none" stroke="midnightblue" d="M2557.5,-292.57C2633.66,-284.35 2759.26,-270.38 2877.46,-255.1"/>
<polygon fill="midnightblue" stroke="midnightblue" points="2877.95,-258.57 2887.41,-253.81 2877.05,-251.63 2877.95,-258.57"/>
</g>
<!-- Node67 -->
<g id="node40" class="node">
<title>Node67</title>
<g id="a_node40"><a xlink:title=" ">
<polygon fill="white" stroke="#bfbfbf" points="3012,-235.5 3012,-254.5 3109,-254.5 3109,-235.5 3012,-235.5"/>
<text text-anchor="middle" x="3060.5" y="-242.5" font-family="Helvetica,sans-Serif" font-size="10.00">G4UIterminal.hh</text>
</a>
</g>
</g>
<!-- Node1&#45;&gt;Node67 -->
<g id="edge61" class="edge">
<title>Node1&#45;&gt;Node67</title>
<path fill="none" stroke="midnightblue" d="M2557.63,-295.36C2654.84,-288.6 2836.27,-274.79 3001.45,-255.05"/>
<polygon fill="midnightblue" stroke="midnightblue" points="3002.29,-258.47 3011.8,-253.8 3001.45,-251.52 3002.29,-258.47"/>
</g>
<!-- Node28 -->
<g id="node41" class="node">
<title>Node28</title>
<g id="a_node41"><a xlink:title=" ">
<polygon fill="white" stroke="#bfbfbf" points="3127.5,-235.5 3127.5,-254.5 3219.5,-254.5 3219.5,-235.5 3127.5,-235.5"/>
<text text-anchor="middle" x="3173.5" y="-242.5" font-family="Helvetica,sans-Serif" font-size="10.00">G4Navigator.hh</text>
</a>
</g>
</g>
<!-- Node1&#45;&gt;Node28 -->
<g id="edge63" class="edge">
<title>Node1&#45;&gt;Node28</title>
<path fill="none" stroke="midnightblue" d="M2557.73,-297.08C2672.62,-291.85 2908.11,-279.19 3117.38,-255.03"/>
<polygon fill="midnightblue" stroke="midnightblue" points="3117.8,-258.5 3127.33,-253.87 3116.99,-251.55 3117.8,-258.5"/>
</g>
<!-- Node68 -->
<g id="node42" class="node">
<title>Node68</title>
<g id="a_node42"><a xlink:title=" ">
<polygon fill="white" stroke="#bfbfbf" points="3237.5,-235.5 3237.5,-254.5 3313.5,-254.5 3313.5,-235.5 3237.5,-235.5"/>
<text text-anchor="middle" x="3275.5" y="-242.5" font-family="Helvetica,sans-Serif" font-size="10.00">G4UItcsh.hh</text>
</a>
</g>
</g>
<!-- Node1&#45;&gt;Node68 -->
<g id="edge64" class="edge">
<title>Node1&#45;&gt;Node68</title>
<path fill="none" stroke="midnightblue" d="M2557.5,-298.74C2687.57,-295.76 2975.41,-286.07 3227.27,-254.99"/>
<polygon fill="midnightblue" stroke="midnightblue" points="3227.86,-258.44 3237.35,-253.73 3226.99,-251.5 3227.86,-258.44"/>
</g>
<!-- Node69 -->
<g id="node43" class="node">
<title>Node69</title>
<g id="a_node43"><a xlink:title=" ">
<polygon fill="white" stroke="#bfbfbf" points="3332,-235.5 3332,-254.5 3439,-254.5 3439,-235.5 3332,-235.5"/>
<text text-anchor="middle" x="3385.5" y="-242.5" font-family="Helvetica,sans-Serif" font-size="10.00">G4VisExecutive.hh</text>
</a>
</g>
</g>
<!-- Node1&#45;&gt;Node69 -->
<g id="edge65" class="edge">
<title>Node1&#45;&gt;Node69</title>
<path fill="none" stroke="midnightblue" d="M2557.76,-298.3C2699.91,-294.41 3031.96,-283.02 3321.64,-254.99"/>
<polygon fill="midnightblue" stroke="midnightblue" points="3322.31,-258.44 3331.92,-253.98 3321.63,-251.47 3322.31,-258.44"/>
</g>
<!-- Node70 -->
<g id="node44" class="node">
<title>Node70</title>
<g id="a_node44"><a xlink:title=" ">
<polygon fill="white" stroke="#bfbfbf" points="3457,-235.5 3457,-254.5 3560,-254.5 3560,-235.5 3457,-235.5"/>
<text text-anchor="middle" x="3508.5" y="-242.5" font-family="Helvetica,sans-Serif" font-size="10.00">G4UIExecutive.hh</text>
</a>
</g>
</g>
<!-- Node1&#45;&gt;Node70 -->
<g id="edge66" class="edge">
<title>Node1&#45;&gt;Node70</title>
<path fill="none" stroke="midnightblue" d="M2557.61,-299.17C2714.95,-296.77 3108.27,-287.81 3446.83,-255.07"/>
<polygon fill="midnightblue" stroke="midnightblue" points="3447.22,-258.55 3456.83,-254.09 3446.54,-251.58 3447.22,-258.55"/>
</g>
<!-- Node71 -->
<g id="node45" class="node">
<title>Node71</title>
<g id="a_node45"><a xlink:title=" ">
<polygon fill="white" stroke="#bfbfbf" points="3578.5,-235.5 3578.5,-254.5 3622.5,-254.5 3622.5,-235.5 3578.5,-235.5"/>
<text text-anchor="middle" x="3600.5" y="-242.5" font-family="Helvetica,sans-Serif" font-size="10.00">ctime</text>
</a>
</g>
</g>
<!-- Node1&#45;&gt;Node71 -->
<g id="edge67" class="edge">
<title>Node1&#45;&gt;Node71</title>
<path fill="none" stroke="midnightblue" d="M2557.53,-299.29C2761.68,-296.87 3354.71,-287.33 3568.41,-254.71"/>
<polygon fill="midnightblue" stroke="midnightblue" points="3568.97,-258.17 3578.3,-253.14 3567.87,-251.25 3568.97,-258.17"/>
</g>
<!-- Node72 -->
<g id="node46" class="node">
<title>Node72</title>
<g id="a_node46"><a xlink:title=" ">
<polygon fill="white" stroke="#bfbfbf" points="3640.5,-235.5 3640.5,-254.5 3708.5,-254.5 3708.5,-235.5 3640.5,-235.5"/>
<text text-anchor="middle" x="3674.5" y="-242.5" font-family="Helvetica,sans-Serif" font-size="10.00">sys/time.h</text>
</a>
</g>
</g>
<!-- Node1&#45;&gt;Node72 -->
<g id="edge68" class="edge">
<title>Node1&#45;&gt;Node72</title>
<path fill="none" stroke="midnightblue" d="M2557.59,-298.78C2769.53,-294.84 3402.47,-281.28 3630.11,-254.92"/>
<polygon fill="midnightblue" stroke="midnightblue" points="3630.81,-258.36 3640.32,-253.69 3629.97,-251.41 3630.81,-258.36"/>
</g>
<!-- Node73 -->
<g id="node47" class="node">
<title>Node73</title>
<g id="a_node47"><a xlink:title=" ">
<polygon fill="white" stroke="#bfbfbf" points="3726.5,-235.5 3726.5,-254.5 3786.5,-254.5 3786.5,-235.5 3726.5,-235.5"/>
<text text-anchor="middle" x="3756.5" y="-242.5" font-family="Helvetica,sans-Serif" font-size="10.00">iostream</text>
</a>
</g>
</g>
<!-- Node1&#45;&gt;Node73 -->
<g id="edge70" class="edge">
<title>Node1&#45;&gt;Node73</title>
<path fill="none" stroke="midnightblue" d="M2557.66,-299.19C2780.52,-296.34 3471.59,-285.33 3716.45,-254.83"/>
<polygon fill="midnightblue" stroke="midnightblue" points="3716.9,-258.3 3726.37,-253.55 3716,-251.36 3716.9,-258.3"/>
</g>
<!-- Node74 -->
<g id="node48" class="node">
<title>Node74</title>
<g id="a_node48"><a xlink:title=" ">
<polygon fill="white" stroke="#bfbfbf" points="3805,-235.5 3805,-254.5 3852,-254.5 3852,-235.5 3805,-235.5"/>
<text text-anchor="middle" x="3828.5" y="-242.5" font-family="Helvetica,sans-Serif" font-size="10.00">cmath</text>
</a>
</g>
</g>
<!-- Node1&#45;&gt;Node74 -->
<g id="edge73" class="edge">
<title>Node1&#45;&gt;Node74</title>
<path fill="none" stroke="midnightblue" d="M2557.59,-299.73C2789.81,-298.5 3533.61,-291.82 3794.65,-254.66"/>
<polygon fill="midnightblue" stroke="midnightblue" points="3795.47,-258.08 3804.85,-253.16 3794.44,-251.15 3795.47,-258.08"/>
</g>
<!-- Node75 -->
<g id="node49" class="node">
<title>Node75</title>
<g id="a_node49"><a xlink:title=" ">
<polygon fill="white" stroke="#bfbfbf" points="3869.5,-235.5 3869.5,-254.5 4019.5,-254.5 4019.5,-235.5 3869.5,-235.5"/>
<text text-anchor="middle" x="3944.5" y="-242.5" font-family="Helvetica,sans-Serif" font-size="10.00">boost/program_options.hpp</text>
</a>
</g>
</g>
<!-- Node1&#45;&gt;Node75 -->
<g id="edge78" class="edge">
<title>Node1&#45;&gt;Node75</title>
<path fill="none" stroke="midnightblue" d="M2557.66,-299.57C2758.79,-297.92 3354.8,-290.26 3859.39,-255.1"/>
<polygon fill="midnightblue" stroke="midnightblue" points="3859.69,-258.59 3869.42,-254.4 3859.2,-251.61 3859.69,-258.59"/>
</g>
<!-- Node76 -->
<g id="node50" class="node">
<title>Node76</title>
<g id="a_node50"><a xlink:title=" ">
<polygon fill="white" stroke="#bfbfbf" points="4037.5,-235.5 4037.5,-254.5 4105.5,-254.5 4105.5,-235.5 4037.5,-235.5"/>
<text text-anchor="middle" x="4071.5" y="-242.5" font-family="Helvetica,sans-Serif" font-size="10.00">filesystem</text>
</a>
</g>
</g>
<!-- Node1&#45;&gt;Node76 -->
<g id="edge79" class="edge">
<title>Node1&#45;&gt;Node76</title>
<path fill="none" stroke="midnightblue" d="M2557.87,-299.6C2816.83,-297.88 3717.41,-289.56 4027,-254.91"/>
<polygon fill="midnightblue" stroke="midnightblue" points="4027.79,-258.35 4037.32,-253.72 4026.99,-251.39 4027.79,-258.35"/>
</g>
<!-- Node3 -->
<g id="node3" class="node">
<title>Node3</title>
<g id="a_node3"><a xlink:title=" ">
<polygon fill="white" stroke="#bfbfbf" points="609.5,-67.5 609.5,-86.5 725.5,-86.5 725.5,-67.5 609.5,-67.5"/>
<text text-anchor="middle" x="667.5" y="-74.5" font-family="Helvetica,sans-Serif" font-size="10.00">G4LogicalVolume.hh</text>
</a>
</g>
</g>
<!-- Node2&#45;&gt;Node3 -->
<g id="edge2" class="edge">
<title>Node2&#45;&gt;Node3</title>
<path fill="none" stroke="midnightblue" d="M517.87,-243.26C597.15,-240.55 706.98,-230.92 734.5,-199 763.47,-165.4 715.72,-117.27 686.91,-93.09"/>
<polygon fill="midnightblue" stroke="midnightblue" points="688.98,-90.27 679.02,-86.66 684.56,-95.69 688.98,-90.27"/>
</g>
<!-- Node4 -->
<g id="node4" class="node">
<title>Node4</title>
<g id="a_node4"><a xlink:title=" ">
<polygon fill="white" stroke="#bfbfbf" points="163.5,-179.5 163.5,-198.5 225.5,-198.5 225.5,-179.5 163.5,-179.5"/>
<text text-anchor="middle" x="194.5" y="-186.5" font-family="Helvetica,sans-Serif" font-size="10.00">G4Orb.hh</text>
</a>
</g>
</g>
<!-- Node2&#45;&gt;Node4 -->
<g id="edge3" class="edge">
<title>Node2&#45;&gt;Node4</title>
<path fill="none" stroke="midnightblue" d="M394.79,-235.44C351.38,-225.59 280.32,-209.47 235.55,-199.31"/>
<polygon fill="midnightblue" stroke="midnightblue" points="236.12,-195.85 225.59,-197.05 234.57,-202.68 236.12,-195.85"/>
</g>
<!-- Node5 -->
<g id="node5" class="node">
<title>Node5</title>
<g id="a_node5"><a xlink:title=" ">
<polygon fill="white" stroke="#bfbfbf" points="282,-179.5 282,-198.5 411,-198.5 411,-179.5 282,-179.5"/>
<text text-anchor="middle" x="346.5" y="-186.5" font-family="Helvetica,sans-Serif" font-size="10.00">G4VPhysicalVolume.hh</text>
</a>
</g>
</g>
<!-- Node2&#45;&gt;Node5 -->
<g id="edge4" class="edge">
<title>Node2&#45;&gt;Node5</title>
<path fill="none" stroke="midnightblue" d="M418.68,-235.32C405.27,-226.9 384.68,-213.97 368.91,-204.07"/>
<polygon fill="midnightblue" stroke="midnightblue" points="370.61,-201.01 360.28,-198.65 366.89,-206.94 370.61,-201.01"/>
</g>
<!-- Node6 -->
<g id="node6" class="node">
<title>Node6</title>
<g id="a_node6"><a xlink:title=" ">
<polygon fill="white" stroke="#bfbfbf" points="429.5,-179.5 429.5,-198.5 607.5,-198.5 607.5,-179.5 429.5,-179.5"/>
<text text-anchor="middle" x="518.5" y="-186.5" font-family="Helvetica,sans-Serif" font-size="10.00">G4VUserDetectorConstruction.hh</text>
</a>
</g>
</g>
<!-- Node2&#45;&gt;Node6 -->
<g id="edge5" class="edge">
<title>Node2&#45;&gt;Node6</title>
<path fill="none" stroke="midnightblue" d="M446.32,-235.32C459.73,-226.9 480.32,-213.97 496.09,-204.07"/>
<polygon fill="midnightblue" stroke="midnightblue" points="498.11,-206.94 504.72,-198.65 494.39,-201.01 498.11,-206.94"/>
</g>
<!-- Node7 -->
<g id="node7" class="node">
<title>Node7</title>
<g id="a_node7"><a xlink:href="_o_m_sim_input_data_8hh.html" target="_top" xlink:title=" ">
<polygon fill="white" stroke="red" points="128,-67.5 128,-86.5 243,-86.5 243,-67.5 128,-67.5"/>
<text text-anchor="middle" x="185.5" y="-74.5" font-family="Helvetica,sans-Serif" font-size="10.00">OMSimInputData.hh</text>
</a>
</g>
</g>
<!-- Node2&#45;&gt;Node7 -->
<g id="edge6" class="edge">
<title>Node2&#45;&gt;Node7</title>
<path fill="none" stroke="midnightblue" d="M347.24,-241.93C274.86,-238.16 178.94,-227.71 154.5,-199 128.96,-169 155.29,-120.63 172.72,-95.08"/>
<polygon fill="midnightblue" stroke="midnightblue" points="175.69,-96.96 178.63,-86.78 169.98,-92.9 175.69,-96.96"/>
</g>
<!-- Node14 -->
<g id="node11" class="node">
<title>Node14</title>
<g id="a_node11"><a xlink:href="_o_m_sim_p_m_t_construction_8hh.html" target="_top" xlink:title=" ">
<polygon fill="white" stroke="red" points="197,-123.5 197,-142.5 346,-142.5 346,-123.5 197,-123.5"/>
<text text-anchor="middle" x="271.5" y="-130.5" font-family="Helvetica,sans-Serif" font-size="10.00">OMSimPMTConstruction.hh</text>
</a>
</g>
</g>
<!-- Node2&#45;&gt;Node14 -->
<g id="edge10" class="edge">
<title>Node2&#45;&gt;Node14</title>
<path fill="none" stroke="midnightblue" d="M376.38,-235.46C335.58,-227.98 285.35,-215.69 272.5,-199 262.51,-186.02 263.53,-166.85 266.28,-152.69"/>
<polygon fill="midnightblue" stroke="midnightblue" points="269.77,-153.17 268.69,-142.63 262.96,-151.54 269.77,-153.17"/>
</g>
<!-- Node26 -->
<g id="node12" class="node">
<title>Node26</title>
<g id="a_node12"><a xlink:href="_o_m_sim_m_d_o_m_8hh.html" target="_top" xlink:title=" ">
<polygon fill="white" stroke="red" points="625.5,-179.5 625.5,-198.5 725.5,-198.5 725.5,-179.5 625.5,-179.5"/>
<text text-anchor="middle" x="675.5" y="-186.5" font-family="Helvetica,sans-Serif" font-size="10.00">OMSimMDOM.hh</text>
</a>
</g>
</g>
<!-- Node2&#45;&gt;Node26 -->
<g id="edge16" class="edge">
<title>Node2&#45;&gt;Node26</title>
<path fill="none" stroke="midnightblue" d="M471,-235.44C513.31,-226.04 581.32,-210.93 627.17,-200.74"/>
<polygon fill="midnightblue" stroke="midnightblue" points="628.17,-204.1 637.18,-198.52 626.65,-197.27 628.17,-204.1"/>
</g>
<!-- Node7&#45;&gt;Node8 -->
<g id="edge7" class="edge">
<title>Node7&#45;&gt;Node8</title>
<path fill="none" stroke="midnightblue" d="M185.79,-67.48C186.02,-60.47 186.37,-50.19 186.69,-40.7"/>
<polygon fill="midnightblue" stroke="midnightblue" points="190.19,-40.63 187.03,-30.52 183.19,-40.4 190.19,-40.63"/>
</g>
<!-- Node7&#45;&gt;Node9 -->
<g id="edge8" class="edge">
<title>Node7&#45;&gt;Node9</title>
<path fill="none" stroke="midnightblue" d="M167.02,-67.48C148.57,-58.96 119.63,-45.62 96,-34.72"/>
<polygon fill="midnightblue" stroke="midnightblue" points="97.45,-31.53 86.9,-30.52 94.52,-37.89 97.45,-31.53"/>
</g>
<!-- Node7&#45;&gt;Node13 -->
<g id="edge9" class="edge">
<title>Node7&#45;&gt;Node13</title>
<path fill="none" stroke="midnightblue" d="M243.09,-69.97C348.08,-58.97 570.22,-35.7 683.66,-23.82"/>
<polygon fill="midnightblue" stroke="midnightblue" points="684.04,-27.29 693.63,-22.77 683.32,-20.33 684.04,-27.29"/>
</g>
<!-- Node14&#45;&gt;Node3 -->
<g id="edge13" class="edge">
<title>Node14&#45;&gt;Node3</title>
<path fill="none" stroke="midnightblue" d="M334.25,-123.44C406.42,-113.6 524.52,-97.5 599.02,-87.34"/>
<polygon fill="midnightblue" stroke="midnightblue" points="599.8,-90.76 609.24,-85.94 598.86,-83.83 599.8,-90.76"/>
</g>
<!-- Node14&#45;&gt;Node7 -->
<g id="edge15" class="edge">
<title>Node14&#45;&gt;Node7</title>
<path fill="none" stroke="midnightblue" d="M257.68,-123.32C244.27,-114.9 223.68,-101.97 207.91,-92.07"/>
<polygon fill="midnightblue" stroke="midnightblue" points="209.61,-89.01 199.28,-86.65 205.89,-94.94 209.61,-89.01"/>
</g>
<!-- Node14&#45;&gt;Node8 -->
<g id="edge11" class="edge">
<title>Node14&#45;&gt;Node8</title>
<path fill="none" stroke="midnightblue" d="M270.5,-123.29C268.63,-110.1 263.64,-84.73 251.5,-67 243.34,-55.09 231.52,-44.65 220.26,-36.41"/>
<polygon fill="midnightblue" stroke="midnightblue" points="222.03,-33.38 211.82,-30.54 218.03,-39.12 222.03,-33.38"/>
</g>
<!-- Node14&#45;&gt;Node9 -->
<g id="edge12" class="edge">
<title>Node14&#45;&gt;Node9</title>
<path fill="none" stroke="midnightblue" d="M215.96,-123.49C185.44,-116.95 147.91,-105.76 118.5,-87 99.2,-74.69 82.42,-54.67 71.2,-39.1"/>
<polygon fill="midnightblue" stroke="midnightblue" points="73.83,-36.76 65.26,-30.54 68.08,-40.76 73.83,-36.76"/>
</g>
<!-- Node14&#45;&gt;Node13 -->
<g id="edge14" class="edge">
<title>Node14&#45;&gt;Node13</title>
<path fill="none" stroke="midnightblue" d="M307.33,-123.41C393.54,-102.76 612.39,-50.31 707.83,-27.44"/>
<polygon fill="midnightblue" stroke="midnightblue" points="708.85,-30.8 717.76,-25.06 707.22,-23.99 708.85,-30.8"/>
</g>
<!-- Node26&#45;&gt;Node3 -->
<g id="edge18" class="edge">
<title>Node26&#45;&gt;Node3</title>
<path fill="none" stroke="midnightblue" d="M674.87,-179.37C673.58,-161.62 670.6,-120.67 668.85,-96.6"/>
<polygon fill="midnightblue" stroke="midnightblue" points="672.34,-96.31 668.12,-86.59 665.36,-96.82 672.34,-96.31"/>
</g>
<!-- Node26&#45;&gt;Node13 -->
<g id="edge19" class="edge">
<title>Node26&#45;&gt;Node13</title>
<path fill="none" stroke="midnightblue" d="M681.53,-179.49C693.26,-162.61 719.3,-123.35 734.5,-87 741.52,-70.2 746.64,-50.07 749.79,-35.62"/>
<polygon fill="midnightblue" stroke="midnightblue" points="753.3,-35.93 751.89,-25.43 746.44,-34.52 753.3,-35.93"/>
</g>
<!-- Node26&#45;&gt;Node14 -->
<g id="edge17" class="edge">
<title>Node26&#45;&gt;Node14</title>
<path fill="none" stroke="midnightblue" d="M625.3,-180.27C622.32,-179.83 619.37,-179.41 616.5,-179 525.29,-166.1 420.32,-152.6 350.35,-143.79"/>
<polygon fill="midnightblue" stroke="midnightblue" points="350.65,-140.3 340.29,-142.53 349.78,-147.25 350.65,-140.3"/>
</g>
<!-- Node32 -->
<g id="node14" class="node">
<title>Node32</title>
<g id="a_node14"><a xlink:title=" ">
<polygon fill="white" stroke="#bfbfbf" points="2166.5,-179.5 2166.5,-198.5 2294.5,-198.5 2294.5,-179.5 2166.5,-179.5"/>
<text text-anchor="middle" x="2230.5" y="-186.5" font-family="Helvetica,sans-Serif" font-size="10.00">G4VUserPhysicsList.hh</text>
</a>
</g>
</g>
<!-- Node31&#45;&gt;Node32 -->
<g id="edge21" class="edge">
<title>Node31&#45;&gt;Node32</title>
<path fill="none" stroke="midnightblue" d="M2219.65,-235.08C2221.37,-227.93 2223.85,-217.64 2226,-208.69"/>
<polygon fill="midnightblue" stroke="midnightblue" points="2229.46,-209.29 2228.39,-198.75 2222.65,-207.65 2229.46,-209.29"/>
</g>
<!-- Node33 -->
<g id="node15" class="node">
<title>Node33</title>
<g id="a_node15"><a xlink:title=" ">
<polygon fill="white" stroke="#bfbfbf" points="2000,-123.5 2000,-142.5 2067,-142.5 2067,-123.5 2000,-123.5"/>
<text text-anchor="middle" x="2033.5" y="-130.5" font-family="Helvetica,sans-Serif" font-size="10.00">globals.hh</text>
</a>
</g>
</g>
<!-- Node31&#45;&gt;Node33 -->
<g id="edge22" class="edge">
<title>Node31&#45;&gt;Node33</title>
<path fill="none" stroke="midnightblue" d="M2205.39,-235.37C2187.13,-222.51 2151.31,-197.8 2119.5,-179 2100.22,-167.6 2077.78,-155.91 2060.65,-147.3"/>
<polygon fill="midnightblue" stroke="midnightblue" points="2061.76,-143.94 2051.25,-142.61 2058.64,-150.21 2061.76,-143.94"/>
</g>
<!-- Node34&#45;&gt;Node33 -->
<g id="edge25" class="edge">
<title>Node34&#45;&gt;Node33</title>
<path fill="none" stroke="midnightblue" d="M1928.91,-235.44C1929.97,-221.99 1933.79,-195.73 1947.5,-179 1959.73,-164.07 1978.23,-153.5 1994.94,-146.36"/>
<polygon fill="midnightblue" stroke="midnightblue" points="1996.52,-149.51 2004.51,-142.56 1993.93,-143 1996.52,-149.51"/>
</g>
<!-- Node35 -->
<g id="node17" class="node">
<title>Node35</title>
<g id="a_node17"><a xlink:title=" ">
<polygon fill="white" stroke="#bfbfbf" points="1708.5,-179.5 1708.5,-198.5 1900.5,-198.5 1900.5,-179.5 1708.5,-179.5"/>
<text text-anchor="middle" x="1804.5" y="-186.5" font-family="Helvetica,sans-Serif" font-size="10.00">G4VUserPrimaryGeneratorAction.hh</text>
</a>
</g>
</g>
<!-- Node34&#45;&gt;Node35 -->
<g id="edge24" class="edge">
<title>Node34&#45;&gt;Node35</title>
<path fill="none" stroke="midnightblue" d="M1908.85,-235.44C1888.54,-226.6 1856.6,-212.69 1833.4,-202.59"/>
<polygon fill="midnightblue" stroke="midnightblue" points="1834.62,-199.3 1824.06,-198.52 1831.83,-205.72 1834.62,-199.3"/>
</g>
<!-- Node36&#45;&gt;Node33 -->
<g id="edge28" class="edge">
<title>Node36&#45;&gt;Node33</title>
<path fill="none" stroke="midnightblue" d="M1610.52,-235.36C1584.01,-223.28 1544.06,-200.39 1563.5,-179 1591.87,-147.78 1878.53,-137.67 1989.74,-134.91"/>
<polygon fill="midnightblue" stroke="midnightblue" points="1990.02,-138.4 1999.94,-134.66 1989.86,-131.41 1990.02,-138.4"/>
</g>
<!-- Node37 -->
<g id="node19" class="node">
<title>Node37</title>
<g id="a_node19"><a xlink:title=" ">
<polygon fill="white" stroke="#bfbfbf" points="1573,-179.5 1573,-198.5 1690,-198.5 1690,-179.5 1573,-179.5"/>
<text text-anchor="middle" x="1631.5" y="-186.5" font-family="Helvetica,sans-Serif" font-size="10.00">G4UserRunAction.hh</text>
</a>
</g>
</g>
<!-- Node36&#45;&gt;Node37 -->
<g id="edge27" class="edge">
<title>Node36&#45;&gt;Node37</title>
<path fill="none" stroke="midnightblue" d="M1631.5,-235.08C1631.5,-228.01 1631.5,-217.86 1631.5,-208.99"/>
<polygon fill="midnightblue" stroke="midnightblue" points="1635,-208.75 1631.5,-198.75 1628,-208.75 1635,-208.75"/>
</g>
<!-- Node39 -->
<g id="node21" class="node">
<title>Node39</title>
<g id="a_node21"><a xlink:title=" ">
<polygon fill="white" stroke="#bfbfbf" points="2312.5,-179.5 2312.5,-198.5 2438.5,-198.5 2438.5,-179.5 2312.5,-179.5"/>
<text text-anchor="middle" x="2375.5" y="-186.5" font-family="Helvetica,sans-Serif" font-size="10.00">G4UserEventAction.hh</text>
</a>
</g>
</g>
<!-- Node38&#45;&gt;Node39 -->
<g id="edge30" class="edge">
<title>Node38&#45;&gt;Node39</title>
<path fill="none" stroke="midnightblue" d="M2361.31,-235.08C2363.58,-227.85 2366.87,-217.41 2369.71,-208.4"/>
<polygon fill="midnightblue" stroke="midnightblue" points="2373.08,-209.34 2372.75,-198.75 2366.4,-207.24 2373.08,-209.34"/>
</g>
<!-- Node38&#45;&gt;Node40 -->
<g id="edge31" class="edge">
<title>Node38&#45;&gt;Node40</title>
<path fill="none" stroke="midnightblue" d="M2375.6,-235.46C2393.55,-226.46 2422.57,-211.86 2447.5,-199 2464.46,-190.25 2467.86,-186.29 2485.5,-179 2523.66,-163.24 2569.39,-150.01 2599.37,-142.06"/>
<polygon fill="midnightblue" stroke="midnightblue" points="2600.5,-145.38 2609.29,-139.47 2598.73,-138.61 2600.5,-145.38"/>
</g>
<!-- Node42 -->
<g id="node24" class="node">
<title>Node42</title>
<g id="a_node24"><a xlink:title=" ">
<polygon fill="white" stroke="#bfbfbf" points="2943,-179.5 2943,-198.5 3082,-198.5 3082,-179.5 2943,-179.5"/>
<text text-anchor="middle" x="3012.5" y="-186.5" font-family="Helvetica,sans-Serif" font-size="10.00">G4UserTrackingAction.hh</text>
</a>
</g>
</g>
<!-- Node41&#45;&gt;Node42 -->
<g id="edge33" class="edge">
<title>Node41&#45;&gt;Node42</title>
<path fill="none" stroke="midnightblue" d="M2834.09,-235.44C2870.69,-226.12 2929.34,-211.18 2969.33,-201"/>
<polygon fill="midnightblue" stroke="midnightblue" points="2970.24,-204.38 2979.07,-198.52 2968.51,-197.59 2970.24,-204.38"/>
</g>
<!-- Node44 -->
<g id="node26" class="node">
<title>Node44</title>
<g id="a_node26"><a xlink:title=" ">
<polygon fill="white" stroke="#bfbfbf" points="1020,-123.5 1020,-142.5 1093,-142.5 1093,-123.5 1020,-123.5"/>
<text text-anchor="middle" x="1056.5" y="-130.5" font-family="Helvetica,sans-Serif" font-size="10.00">G4Types.hh</text>
</a>
</g>
</g>
<!-- Node43&#45;&gt;Node44 -->
<g id="edge35" class="edge">
<title>Node43&#45;&gt;Node44</title>
<path fill="none" stroke="midnightblue" d="M1323.98,-235.23C1319.41,-221 1308.33,-193.06 1288.5,-179 1259.37,-158.35 1162.61,-144.98 1103.65,-138.53"/>
<polygon fill="midnightblue" stroke="midnightblue" points="1103.77,-135.03 1093.46,-137.45 1103.03,-141.99 1103.77,-135.03"/>
</g>
<!-- Node45 -->
<g id="node27" class="node">
<title>Node45</title>
<g id="a_node27"><a xlink:title=" ">
<polygon fill="white" stroke="#bfbfbf" points="1084.5,-179.5 1084.5,-198.5 1158.5,-198.5 1158.5,-179.5 1084.5,-179.5"/>
<text text-anchor="middle" x="1121.5" y="-186.5" font-family="Helvetica,sans-Serif" font-size="10.00">G4String.hh</text>
</a>
</g>
</g>
<!-- Node43&#45;&gt;Node45 -->
<g id="edge36" class="edge">
<title>Node43&#45;&gt;Node45</title>
<path fill="none" stroke="midnightblue" d="M1294.02,-235.44C1258.78,-226.16 1202.4,-211.31 1163.74,-201.13"/>
<polygon fill="midnightblue" stroke="midnightblue" points="1164.39,-197.68 1153.83,-198.52 1162.61,-204.45 1164.39,-197.68"/>
</g>
<!-- Node43&#45;&gt;Node46 -->
<g id="edge37" class="edge">
<title>Node43&#45;&gt;Node46</title>
<path fill="none" stroke="midnightblue" d="M1310.75,-235.32C1295.18,-226.74 1271.12,-213.49 1253.04,-203.52"/>
<polygon fill="midnightblue" stroke="midnightblue" points="1254.65,-200.42 1244.21,-198.65 1251.28,-206.55 1254.65,-200.42"/>
</g>
<!-- Node47 -->
<g id="node29" class="node">
<title>Node47</title>
<g id="a_node29"><a xlink:title=" ">
<polygon fill="white" stroke="#bfbfbf" points="1337,-179.5 1337,-198.5 1478,-198.5 1478,-179.5 1337,-179.5"/>
<text text-anchor="middle" x="1407.5" y="-186.5" font-family="Helvetica,sans-Serif" font-size="10.00">G4UserSteppingAction.hh</text>
</a>
</g>
</g>
<!-- Node43&#45;&gt;Node47 -->
<g id="edge38" class="edge">
<title>Node43&#45;&gt;Node47</title>
<path fill="none" stroke="midnightblue" d="M1339.51,-235.32C1352.03,-226.98 1371.18,-214.21 1385.97,-204.35"/>
<polygon fill="midnightblue" stroke="midnightblue" points="1388.14,-207.11 1394.52,-198.65 1384.26,-201.29 1388.14,-207.11"/>
</g>
<!-- Node48&#45;&gt;Node44 -->
<g id="edge40" class="edge">
<title>Node48&#45;&gt;Node44</title>
<path fill="none" stroke="midnightblue" d="M1107.06,-235.4C1097.54,-227.03 1083.75,-213.49 1075.5,-199 1067.32,-184.63 1062.39,-166.44 1059.61,-152.95"/>
<polygon fill="midnightblue" stroke="midnightblue" points="1063.02,-152.12 1057.76,-142.92 1056.14,-153.39 1063.02,-152.12"/>
</g>
<!-- Node48&#45;&gt;Node45 -->
<g id="edge41" class="edge">
<title>Node48&#45;&gt;Node45</title>
<path fill="none" stroke="midnightblue" d="M1118.16,-235.08C1118.68,-228.01 1119.44,-217.86 1120.09,-208.99"/>
<polygon fill="midnightblue" stroke="midnightblue" points="1123.6,-208.98 1120.85,-198.75 1116.62,-208.47 1123.6,-208.98"/>
</g>
<!-- Node48&#45;&gt;Node46 -->
<g id="edge42" class="edge">
<title>Node48&#45;&gt;Node46</title>
<path fill="none" stroke="midnightblue" d="M1135.33,-235.32C1153.22,-226.62 1180.98,-213.12 1201.55,-203.11"/>
<polygon fill="midnightblue" stroke="midnightblue" points="1203.25,-206.18 1210.71,-198.65 1200.19,-199.88 1203.25,-206.18"/>
</g>
<!-- Node48&#45;&gt;Node49 -->
<g id="edge43" class="edge">
<title>Node48&#45;&gt;Node49</title>
<path fill="none" stroke="midnightblue" d="M1081.06,-235.44C1041.1,-226.06 976.91,-210.99 933.52,-200.8"/>
<polygon fill="midnightblue" stroke="midnightblue" points="934.31,-197.39 923.77,-198.52 932.71,-204.21 934.31,-197.39"/>
</g>
<!-- Node48&#45;&gt;Node55 -->
<g id="edge47" class="edge">
<title>Node48&#45;&gt;Node55</title>
<path fill="none" stroke="midnightblue" d="M1098.96,-235.44C1079.88,-226.64 1049.93,-212.81 1028.06,-202.72"/>
<polygon fill="midnightblue" stroke="midnightblue" points="1029.5,-199.53 1018.95,-198.52 1026.57,-205.88 1029.5,-199.53"/>
</g>
<!-- Node49&#45;&gt;Node13 -->
<g id="edge44" class="edge">
<title>Node49&#45;&gt;Node13</title>
<path fill="none" stroke="midnightblue" d="M882.49,-179.36C870.45,-158.91 838.44,-106.28 805.5,-67 795.04,-54.52 781.86,-41.75 771.4,-32.18"/>
<polygon fill="midnightblue" stroke="midnightblue" points="773.46,-29.33 763.68,-25.25 768.78,-34.54 773.46,-29.33"/>
</g>
<!-- Node49&#45;&gt;Node44 -->
<g id="edge45" class="edge">
<title>Node49&#45;&gt;Node44</title>
<path fill="none" stroke="midnightblue" d="M914.28,-179.44C942.83,-170.32 988.23,-155.81 1020.04,-145.65"/>
<polygon fill="midnightblue" stroke="midnightblue" points="1021.39,-148.89 1029.85,-142.52 1019.26,-142.23 1021.39,-148.89"/>
</g>
<!-- Node49&#45;&gt;Node51 -->
<g id="edge46" class="edge">
<title>Node49&#45;&gt;Node51</title>
<path fill="none" stroke="midnightblue" d="M955.3,-179.62C1047.23,-168.26 1208.55,-148.33 1283.76,-139.03"/>
<polygon fill="midnightblue" stroke="midnightblue" points="1284.29,-142.5 1293.78,-137.8 1283.43,-135.55 1284.29,-142.5"/>
</g>
<!-- Node56&#45;&gt;Node33 -->
<g id="edge51" class="edge">
<title>Node56&#45;&gt;Node33</title>
<path fill="none" stroke="midnightblue" d="M2494.32,-179.83C2377.68,-168.23 2168.21,-147.4 2077.43,-138.37"/>
<polygon fill="midnightblue" stroke="midnightblue" points="2077.52,-134.86 2067.22,-137.35 2076.83,-141.83 2077.52,-134.86"/>
</g>
<!-- Node56&#45;&gt;Node40 -->
<g id="edge50" class="edge">
<title>Node56&#45;&gt;Node40</title>
<path fill="none" stroke="midnightblue" d="M2585.58,-179.08C2593.67,-171.14 2605.7,-159.34 2615.41,-149.8"/>
<polygon fill="midnightblue" stroke="midnightblue" points="2617.9,-152.25 2622.59,-142.75 2613,-147.26 2617.9,-152.25"/>
</g>
<!-- Node60&#45;&gt;Node40 -->
<g id="edge54" class="edge">
<title>Node60&#45;&gt;Node40</title>
<path fill="none" stroke="midnightblue" d="M2637.06,-237C2660.89,-230.94 2685.98,-219.72 2700.5,-199 2715.07,-178.21 2687.02,-158.87 2662.42,-146.78"/>
<polygon fill="midnightblue" stroke="midnightblue" points="2663.8,-143.56 2653.26,-142.52 2660.85,-149.91 2663.8,-143.56"/>
</g>
<!-- Node60&#45;&gt;Node56 -->
<g id="edge56" class="edge">
<title>Node60&#45;&gt;Node56</title>
<path fill="none" stroke="midnightblue" d="M2576.5,-235.08C2576.5,-228.01 2576.5,-217.86 2576.5,-208.99"/>
<polygon fill="midnightblue" stroke="midnightblue" points="2580,-208.75 2576.5,-198.75 2573,-208.75 2580,-208.75"/>
</g>
<!-- Node60&#45;&gt;Node21 -->
<g id="edge53" class="edge">
<title>Node60&#45;&gt;Node21</title>
<path fill="none" stroke="midnightblue" d="M2608.82,-235.44C2645.13,-225.83 2703.99,-210.25 2742.47,-200.07"/>
<polygon fill="midnightblue" stroke="midnightblue" points="2743.5,-203.42 2752.27,-197.47 2741.71,-196.65 2743.5,-203.42"/>
</g>
<!-- Node60&#45;&gt;Node61 -->
<g id="edge55" class="edge">
<title>Node60&#45;&gt;Node61</title>
<path fill="none" stroke="midnightblue" d="M2623.88,-235.44C2676.58,-225.92 2761.73,-210.55 2818.16,-200.36"/>
<polygon fill="midnightblue" stroke="midnightblue" points="2819.13,-203.74 2828.34,-198.52 2817.88,-196.85 2819.13,-203.74"/>
</g>
<!-- Node65&#45;&gt;Node33 -->
<g id="edge58" class="edge">
<title>Node65&#45;&gt;Node33</title>
<path fill="none" stroke="midnightblue" d="M2033.5,-179.08C2033.5,-172.01 2033.5,-161.86 2033.5,-152.99"/>
<polygon fill="midnightblue" stroke="midnightblue" points="2037,-152.75 2033.5,-142.75 2030,-152.75 2037,-152.75"/>
</g>
</g>
</svg>
