<?xml version="1.0" encoding="UTF-8" standalone="no"?>
<!DOCTYPE svg PUBLIC "-//W3C//DTD SVG 1.1//EN"
 "http://www.w3.org/Graphics/SVG/1.1/DTD/svg11.dtd">
<!-- Generated by graphviz version 2.43.0 (0)
 -->
<!-- Title: OMSimLogger.hh Pages: 1 -->
<svg width="2997pt" height="252pt"
 viewBox="0.00 0.00 2997.00 252.00" xmlns="http://www.w3.org/2000/svg" xmlns:xlink="http://www.w3.org/1999/xlink">
<g id="graph0" class="graph" transform="scale(1 1) rotate(0) translate(4 248)">
<title>OMSimLogger.hh</title>
<polygon fill="white" stroke="transparent" points="-4,4 -4,-248 2993,-248 2993,4 -4,4"/>
<!-- Node1 -->
<g id="node1" class="node">
<title>Node1</title>
<g id="a_node1"><a xlink:title=" ">
<polygon fill="#bfbfbf" stroke="black" points="2413,-224.5 2413,-243.5 2512,-243.5 2512,-224.5 2413,-224.5"/>
<text text-anchor="middle" x="2462.5" y="-231.5" font-family="Helvetica,sans-Serif" font-size="10.00">OMSimLogger.hh</text>
</a>
</g>
</g>
<!-- Node2 -->
<g id="node2" class="node">
<title>Node2</title>
<g id="a_node2"><a xlink:href="_o_m_sim_command_args_table_8hh.html" target="_top" xlink:title="Definition of the OMSimCommandArgsTable singleton class, which controls user args.">
<polygon fill="white" stroke="black" points="1342.5,-168.5 1342.5,-187.5 1506.5,-187.5 1506.5,-168.5 1342.5,-168.5"/>
<text text-anchor="middle" x="1424.5" y="-175.5" font-family="Helvetica,sans-Serif" font-size="10.00">OMSimCommandArgsTable.hh</text>
</a>
</g>
</g>
<!-- Node1&#45;&gt;Node2 -->
<g id="edge1" class="edge">
<title>Node1&#45;&gt;Node2</title>
<path fill="none" stroke="midnightblue" d="M2402.66,-229.89C2226.43,-220.72 1709.03,-193.8 1506.82,-183.28"/>
<polygon fill="midnightblue" stroke="midnightblue" points="2402.62,-233.39 2412.78,-230.41 2402.98,-226.4 2402.62,-233.39"/>
</g>
<!-- Node4 -->
<g id="node4" class="node">
<title>Node4</title>
<g id="a_node4"><a xlink:href="_o_m_sim_data_file_types_8cc.html" target="_top" xlink:title=" ">
<polygon fill="white" stroke="black" points="2094.5,-56.5 2094.5,-75.5 2228.5,-75.5 2228.5,-56.5 2094.5,-56.5"/>
<text text-anchor="middle" x="2161.5" y="-63.5" font-family="Helvetica,sans-Serif" font-size="10.00">OMSimDataFileTypes.cc</text>
</a>
</g>
</g>
<!-- Node1&#45;&gt;Node4 -->
<g id="edge25" class="edge">
<title>Node1&#45;&gt;Node4</title>
<path fill="none" stroke="midnightblue" d="M2402.94,-227.89C2341.33,-221.57 2250.31,-208.98 2222.5,-188 2192.35,-165.26 2201.54,-145.7 2184.5,-112 2178.09,-99.32 2170.58,-84.66 2165.93,-75.62"/>
<polygon fill="midnightblue" stroke="midnightblue" points="2402.64,-231.38 2412.94,-228.89 2403.33,-224.42 2402.64,-231.38"/>
</g>
<!-- Node17 -->
<g id="node17" class="node">
<title>Node17</title>
<g id="a_node17"><a xlink:href="_o_m_sim_m_d_o_m_8cc.html" target="_top" xlink:title=" ">
<polygon fill="white" stroke="black" points="2077.5,-112.5 2077.5,-131.5 2175.5,-131.5 2175.5,-112.5 2077.5,-112.5"/>
<text text-anchor="middle" x="2126.5" y="-119.5" font-family="Helvetica,sans-Serif" font-size="10.00">OMSimMDOM.cc</text>
</a>
</g>
</g>
<!-- Node1&#45;&gt;Node17 -->
<g id="edge30" class="edge">
<title>Node1&#45;&gt;Node17</title>
<path fill="none" stroke="midnightblue" d="M2402.47,-227.53C2333.61,-220.49 2225.58,-206.88 2189.5,-188 2163.6,-174.45 2142.08,-146.27 2132.25,-131.88"/>
<polygon fill="midnightblue" stroke="midnightblue" points="2402.45,-231.05 2412.75,-228.56 2403.15,-224.08 2402.45,-231.05"/>
</g>
<!-- Node24 -->
<g id="node24" class="node">
<title>Node24</title>
<g id="a_node24"><a xlink:href="abc_detector_component_8cc.html" target="_top" xlink:title=" ">
<polygon fill="white" stroke="black" points="2231.5,-168.5 2231.5,-187.5 2377.5,-187.5 2377.5,-168.5 2231.5,-168.5"/>
<text text-anchor="middle" x="2304.5" y="-175.5" font-family="Helvetica,sans-Serif" font-size="10.00">abcDetectorComponent.cc</text>
</a>
</g>
</g>
<!-- Node1&#45;&gt;Node24 -->
<g id="edge24" class="edge">
<title>Node1&#45;&gt;Node24</title>
<path fill="none" stroke="midnightblue" d="M2427.89,-221.17C2398.14,-211 2355.95,-196.59 2329.42,-187.52"/>
<polygon fill="midnightblue" stroke="midnightblue" points="2426.87,-224.52 2437.46,-224.44 2429.13,-217.9 2426.87,-224.52"/>
</g>
<!-- Node25 -->
<g id="node25" class="node">
<title>Node25</title>
<g id="a_node25"><a xlink:href="_o_m_sim_p_m_t_response_8cc.html" target="_top" xlink:title=" ">
<polygon fill="white" stroke="black" points="2395.5,-168.5 2395.5,-187.5 2529.5,-187.5 2529.5,-168.5 2395.5,-168.5"/>
<text text-anchor="middle" x="2462.5" y="-175.5" font-family="Helvetica,sans-Serif" font-size="10.00">OMSimPMTResponse.cc</text>
</a>
</g>
</g>
<!-- Node1&#45;&gt;Node25 -->
<g id="edge26" class="edge">
<title>Node1&#45;&gt;Node25</title>
<path fill="none" stroke="midnightblue" d="M2462.5,-213.8C2462.5,-204.91 2462.5,-194.78 2462.5,-187.75"/>
<polygon fill="midnightblue" stroke="midnightblue" points="2459,-214.08 2462.5,-224.08 2466,-214.08 2459,-214.08"/>
</g>
<!-- Node26 -->
<g id="node26" class="node">
<title>Node26</title>
<g id="a_node26"><a xlink:href="_o_m_sim_d_e_g_g_8cc.html" target="_top" xlink:title=" ">
<polygon fill="white" stroke="black" points="2547.5,-168.5 2547.5,-187.5 2641.5,-187.5 2641.5,-168.5 2547.5,-168.5"/>
<text text-anchor="middle" x="2594.5" y="-175.5" font-family="Helvetica,sans-Serif" font-size="10.00">OMSimDEGG.cc</text>
</a>
</g>
</g>
<!-- Node1&#45;&gt;Node26 -->
<g id="edge27" class="edge">
<title>Node1&#45;&gt;Node26</title>
<path fill="none" stroke="midnightblue" d="M2492.72,-220.64C2517.49,-210.5 2551.9,-196.43 2573.68,-187.52"/>
<polygon fill="midnightblue" stroke="midnightblue" points="2491.35,-217.42 2483.42,-224.44 2494,-223.9 2491.35,-217.42"/>
</g>
<!-- Node27 -->
<g id="node27" class="node">
<title>Node27</title>
<g id="a_node27"><a xlink:href="_o_m_sim_l_o_m16_8cc.html" target="_top" xlink:title=" ">
<polygon fill="white" stroke="black" points="2660,-168.5 2660,-187.5 2759,-187.5 2759,-168.5 2660,-168.5"/>
<text text-anchor="middle" x="2709.5" y="-175.5" font-family="Helvetica,sans-Serif" font-size="10.00">OMSimLOM16.cc</text>
</a>
</g>
</g>
<!-- Node1&#45;&gt;Node27 -->
<g id="edge28" class="edge">
<title>Node1&#45;&gt;Node27</title>
<path fill="none" stroke="midnightblue" d="M2511.53,-222.28C2558.2,-212.08 2627.53,-196.92 2670.55,-187.52"/>
<polygon fill="midnightblue" stroke="midnightblue" points="2510.66,-218.89 2501.64,-224.44 2512.15,-225.73 2510.66,-218.89"/>
</g>
<!-- Node28 -->
<g id="node28" class="node">
<title>Node28</title>
<g id="a_node28"><a xlink:href="_o_m_sim_l_o_m18_8cc.html" target="_top" xlink:title=" ">
<polygon fill="white" stroke="black" points="2777,-168.5 2777,-187.5 2876,-187.5 2876,-168.5 2777,-168.5"/>
<text text-anchor="middle" x="2826.5" y="-175.5" font-family="Helvetica,sans-Serif" font-size="10.00">OMSimLOM18.cc</text>
</a>
</g>
</g>
<!-- Node1&#45;&gt;Node28 -->
<g id="edge29" class="edge">
<title>Node1&#45;&gt;Node28</title>
<path fill="none" stroke="midnightblue" d="M2522.02,-224.39C2583.69,-215.43 2682.87,-200.94 2768.5,-188 2771.22,-187.59 2774.01,-187.16 2776.83,-186.73"/>
<polygon fill="midnightblue" stroke="midnightblue" points="2521.47,-220.93 2512.07,-225.83 2522.47,-227.86 2521.47,-220.93"/>
</g>
<!-- Node29 -->
<g id="node29" class="node">
<title>Node29</title>
<g id="a_node29"><a xlink:href="_o_m_sim_p_d_o_m_8cc.html" target="_top" xlink:title=" ">
<polygon fill="white" stroke="black" points="2894,-168.5 2894,-187.5 2989,-187.5 2989,-168.5 2894,-168.5"/>
<text text-anchor="middle" x="2941.5" y="-175.5" font-family="Helvetica,sans-Serif" font-size="10.00">OMSimPDOM.cc</text>
</a>
</g>
</g>
<!-- Node1&#45;&gt;Node29 -->
<g id="edge31" class="edge">
<title>Node1&#45;&gt;Node29</title>
<path fill="none" stroke="midnightblue" d="M2522.23,-227.66C2604.26,-220.09 2756.33,-205.24 2885.5,-188 2888.23,-187.64 2891.04,-187.24 2893.87,-186.83"/>
<polygon fill="midnightblue" stroke="midnightblue" points="2521.73,-224.19 2512.1,-228.59 2522.37,-231.16 2521.73,-224.19"/>
</g>
<!-- Node3 -->
<g id="node3" class="node">
<title>Node3</title>
<g id="a_node3"><a xlink:href="_o_m_sim_data_file_types_8hh.html" target="_top" xlink:title="Collection of classes and methods to handle material creation from user data in json files.">
<polygon fill="white" stroke="black" points="1924,-112.5 1924,-131.5 2059,-131.5 2059,-112.5 1924,-112.5"/>
<text text-anchor="middle" x="1991.5" y="-119.5" font-family="Helvetica,sans-Serif" font-size="10.00">OMSimDataFileTypes.hh</text>
</a>
</g>
</g>
<!-- Node2&#45;&gt;Node3 -->
<g id="edge2" class="edge">
<title>Node2&#45;&gt;Node3</title>
<path fill="none" stroke="midnightblue" d="M1517.06,-168.88C1614.69,-160.2 1772.99,-145.82 1909.5,-132 1914.2,-131.52 1919.05,-131.02 1923.94,-130.51"/>
<polygon fill="midnightblue" stroke="midnightblue" points="1516.57,-165.41 1506.92,-169.78 1517.19,-172.38 1516.57,-165.41"/>
</g>
<!-- Node5 -->
<g id="node5" class="node">
<title>Node5</title>
<g id="a_node5"><a xlink:href="_o_m_sim_input_data_8cc.html" target="_top" xlink:title=" ">
<polygon fill="white" stroke="black" points="1880,-56.5 1880,-75.5 1993,-75.5 1993,-56.5 1880,-56.5"/>
<text text-anchor="middle" x="1936.5" y="-63.5" font-family="Helvetica,sans-Serif" font-size="10.00">OMSimInputData.cc</text>
</a>
</g>
</g>
<!-- Node2&#45;&gt;Node5 -->
<g id="edge15" class="edge">
<title>Node2&#45;&gt;Node5</title>
<path fill="none" stroke="midnightblue" d="M1516.92,-175.47C1630.43,-172.28 1815.44,-162.43 1876.5,-132 1902.34,-119.12 1922.59,-90.1 1931.52,-75.6"/>
<polygon fill="midnightblue" stroke="midnightblue" points="1516.75,-171.98 1506.85,-175.74 1516.94,-178.97 1516.75,-171.98"/>
</g>
<!-- Node6 -->
<g id="node6" class="node">
<title>Node6</title>
<g id="a_node6"><a xlink:href="_o_m_sim_u_iinterface_8hh.html" target="_top" xlink:title="The OMSimUIinterface class provides a singleton interface to Geant4&#39;s UI manager.">
<polygon fill="white" stroke="black" points="371,-112.5 371,-131.5 492,-131.5 492,-112.5 371,-112.5"/>
<text text-anchor="middle" x="431.5" y="-119.5" font-family="Helvetica,sans-Serif" font-size="10.00">OMSimUIinterface.hh</text>
</a>
</g>
</g>
<!-- Node2&#45;&gt;Node6 -->
<g id="edge5" class="edge">
<title>Node2&#45;&gt;Node6</title>
<path fill="none" stroke="midnightblue" d="M1332.04,-174.91C1165.64,-170.62 804.78,-158.85 501.5,-132 498.45,-131.73 495.33,-131.43 492.17,-131.1"/>
<polygon fill="midnightblue" stroke="midnightblue" points="1332.15,-178.42 1342.24,-175.17 1332.33,-171.42 1332.15,-178.42"/>
</g>
<!-- Node15 -->
<g id="node15" class="node">
<title>Node15</title>
<g id="a_node15"><a xlink:href="_o_m_sim_hit_manager_8cc.html" target="_top" xlink:title=" ">
<polygon fill="white" stroke="black" points="510.5,-112.5 510.5,-131.5 632.5,-131.5 632.5,-112.5 510.5,-112.5"/>
<text text-anchor="middle" x="571.5" y="-119.5" font-family="Helvetica,sans-Serif" font-size="10.00">OMSimHitManager.cc</text>
</a>
</g>
</g>
<!-- Node2&#45;&gt;Node15 -->
<g id="edge14" class="edge">
<title>Node2&#45;&gt;Node15</title>
<path fill="none" stroke="midnightblue" d="M1332.05,-173.8C1185.41,-168.24 890.58,-155.14 641.5,-132 638.57,-131.73 635.58,-131.43 632.56,-131.11"/>
<polygon fill="midnightblue" stroke="midnightblue" points="1332.22,-177.31 1342.35,-174.18 1332.49,-170.31 1332.22,-177.31"/>
</g>
<!-- Node16 -->
<g id="node16" class="node">
<title>Node16</title>
<g id="a_node16"><a xlink:href="_o_m_sim_p_m_t_construction_8cc.html" target="_top" xlink:title=" ">
<polygon fill="white" stroke="black" points="651,-112.5 651,-131.5 798,-131.5 798,-112.5 651,-112.5"/>
<text text-anchor="middle" x="724.5" y="-119.5" font-family="Helvetica,sans-Serif" font-size="10.00">OMSimPMTConstruction.cc</text>
</a>
</g>
</g>
<!-- Node2&#45;&gt;Node16 -->
<g id="edge16" class="edge">
<title>Node2&#45;&gt;Node16</title>
<path fill="none" stroke="midnightblue" d="M1331.78,-171.26C1210.99,-163.54 993.28,-148.84 807.5,-132 804.47,-131.73 801.38,-131.43 798.25,-131.13"/>
<polygon fill="midnightblue" stroke="midnightblue" points="1331.89,-174.77 1342.09,-171.92 1332.33,-167.79 1331.89,-174.77"/>
</g>
<!-- Node2&#45;&gt;Node17 -->
<g id="edge17" class="edge">
<title>Node2&#45;&gt;Node17</title>
<path fill="none" stroke="midnightblue" d="M1516.85,-172.99C1642.1,-167 1872.69,-153.99 2068.5,-132 2071.44,-131.67 2074.45,-131.3 2077.49,-130.9"/>
<polygon fill="midnightblue" stroke="midnightblue" points="1516.36,-169.51 1506.54,-173.48 1516.69,-176.51 1516.36,-169.51"/>
</g>
<!-- Node18 -->
<g id="node18" class="node">
<title>Node18</title>
<g id="a_node18"><a xlink:href="_o_m_sim_m_d_o_m_harness_8cc.html" target="_top" xlink:title=" ">
<polygon fill="white" stroke="black" points="816.5,-112.5 816.5,-131.5 954.5,-131.5 954.5,-112.5 816.5,-112.5"/>
<text text-anchor="middle" x="885.5" y="-119.5" font-family="Helvetica,sans-Serif" font-size="10.00">OMSimMDOMHarness.cc</text>
</a>
</g>
</g>
<!-- Node2&#45;&gt;Node18 -->
<g id="edge18" class="edge">
<title>Node2&#45;&gt;Node18</title>
<path fill="none" stroke="midnightblue" d="M1332.19,-168.47C1239.09,-159.75 1091.25,-145.6 963.5,-132 960.65,-131.7 957.75,-131.38 954.82,-131.06"/>
<polygon fill="midnightblue" stroke="midnightblue" points="1332.15,-171.98 1342.43,-169.43 1332.8,-165.01 1332.15,-171.98"/>
</g>
<!-- Node19 -->
<g id="node19" class="node">
<title>Node19</title>
<g id="a_node19"><a xlink:href="effective__area_2src_2_o_m_sim_detector_construction_8cc.html" target="_top" xlink:title=" ">
<polygon fill="white" stroke="black" points="973,-112.5 973,-131.5 1142,-131.5 1142,-112.5 973,-112.5"/>
<text text-anchor="middle" x="1057.5" y="-119.5" font-family="Helvetica,sans-Serif" font-size="10.00">OMSimDetectorConstruction.cc</text>
</a>
</g>
</g>
<!-- Node2&#45;&gt;Node19 -->
<g id="edge19" class="edge">
<title>Node2&#45;&gt;Node19</title>
<path fill="none" stroke="midnightblue" d="M1356.4,-166.98C1287.07,-156.78 1180.77,-141.14 1115.38,-131.52"/>
<polygon fill="midnightblue" stroke="midnightblue" points="1355.94,-170.45 1366.35,-168.44 1356.96,-163.53 1355.94,-170.45"/>
</g>
<!-- Node20 -->
<g id="node20" class="node">
<title>Node20</title>
<g id="a_node20"><a xlink:href="_o_m_sim_effective_area_analyisis_8cc.html" target="_top" xlink:title=" ">
<polygon fill="white" stroke="black" points="1160,-112.5 1160,-131.5 1335,-131.5 1335,-112.5 1160,-112.5"/>
<text text-anchor="middle" x="1247.5" y="-119.5" font-family="Helvetica,sans-Serif" font-size="10.00">OMSimEffectiveAreaAnalyisis.cc</text>
</a>
</g>
</g>
<!-- Node2&#45;&gt;Node20 -->
<g id="edge20" class="edge">
<title>Node2&#45;&gt;Node20</title>
<path fill="none" stroke="midnightblue" d="M1386.6,-165.44C1353.22,-155.26 1305.4,-140.66 1275.41,-131.52"/>
<polygon fill="midnightblue" stroke="midnightblue" points="1385.87,-168.87 1396.45,-168.44 1387.91,-162.18 1385.87,-168.87"/>
</g>
<!-- Node21 -->
<g id="node21" class="node">
<title>Node21</title>
<g id="a_node21"><a xlink:href="_o_m_sim_decays_analysis_8cc.html" target="_top" xlink:title=" ">
<polygon fill="white" stroke="black" points="1353,-112.5 1353,-131.5 1496,-131.5 1496,-112.5 1353,-112.5"/>
<text text-anchor="middle" x="1424.5" y="-119.5" font-family="Helvetica,sans-Serif" font-size="10.00">OMSimDecaysAnalysis.cc</text>
</a>
</g>
</g>
<!-- Node2&#45;&gt;Node21 -->
<g id="edge21" class="edge">
<title>Node2&#45;&gt;Node21</title>
<path fill="none" stroke="midnightblue" d="M1424.5,-157.8C1424.5,-148.91 1424.5,-138.78 1424.5,-131.75"/>
<polygon fill="midnightblue" stroke="midnightblue" points="1421,-158.08 1424.5,-168.08 1428,-158.08 1421,-158.08"/>
</g>
<!-- Node22 -->
<g id="node22" class="node">
<title>Node22</title>
<g id="a_node22"><a xlink:href="radioactive__decays_2src_2_o_m_sim_detector_construction_8cc.html" target="_top" xlink:title=" ">
<polygon fill="white" stroke="black" points="1514,-112.5 1514,-131.5 1683,-131.5 1683,-112.5 1514,-112.5"/>
<text text-anchor="middle" x="1598.5" y="-119.5" font-family="Helvetica,sans-Serif" font-size="10.00">OMSimDetectorConstruction.cc</text>
</a>
</g>
</g>
<!-- Node2&#45;&gt;Node22 -->
<g id="edge22" class="edge">
<title>Node2&#45;&gt;Node22</title>
<path fill="none" stroke="midnightblue" d="M1461.76,-165.44C1494.57,-155.26 1541.58,-140.66 1571.06,-131.52"/>
<polygon fill="midnightblue" stroke="midnightblue" points="1460.58,-162.14 1452.07,-168.44 1462.66,-168.82 1460.58,-162.14"/>
</g>
<!-- Node23 -->
<g id="node23" class="node">
<title>Node23</title>
<g id="a_node23"><a xlink:href="_o_m_sim_g4_radioactive_decay_8cc.html" target="_top" xlink:title=" ">
<polygon fill="white" stroke="black" points="1701.5,-112.5 1701.5,-131.5 1867.5,-131.5 1867.5,-112.5 1701.5,-112.5"/>
<text text-anchor="middle" x="1784.5" y="-119.5" font-family="Helvetica,sans-Serif" font-size="10.00">OMSimG4RadioactiveDecay.cc</text>
</a>
</g>
</g>
<!-- Node2&#45;&gt;Node23 -->
<g id="edge23" class="edge">
<title>Node2&#45;&gt;Node23</title>
<path fill="none" stroke="midnightblue" d="M1491.72,-166.92C1559.73,-156.71 1663.72,-141.12 1727.72,-131.52"/>
<polygon fill="midnightblue" stroke="midnightblue" points="1490.91,-163.5 1481.54,-168.44 1491.95,-170.42 1490.91,-163.5"/>
</g>
<!-- Node3&#45;&gt;Node4 -->
<g id="edge3" class="edge">
<title>Node3&#45;&gt;Node4</title>
<path fill="none" stroke="midnightblue" d="M2028.32,-109.3C2060.35,-99.13 2106.02,-84.62 2134.69,-75.52"/>
<polygon fill="midnightblue" stroke="midnightblue" points="2026.91,-106.08 2018.44,-112.44 2029.03,-112.75 2026.91,-106.08"/>
</g>
<!-- Node3&#45;&gt;Node5 -->
<g id="edge4" class="edge">
<title>Node3&#45;&gt;Node5</title>
<path fill="none" stroke="midnightblue" d="M1975.21,-105C1965.46,-95.43 1953.45,-83.64 1945.41,-75.75"/>
<polygon fill="midnightblue" stroke="midnightblue" points="1972.83,-107.57 1982.42,-112.08 1977.73,-102.58 1972.83,-107.57"/>
</g>
<!-- Node7 -->
<g id="node7" class="node">
<title>Node7</title>
<g id="a_node7"><a xlink:href="_o_m_sim_8hh.html" target="_top" xlink:title="Main simulation class for the Optical Module (OM) simulation. This file defines the OMSim class,...">
<polygon fill="white" stroke="black" points="205,-56.5 205,-75.5 272,-75.5 272,-56.5 205,-56.5"/>
<text text-anchor="middle" x="238.5" y="-63.5" font-family="Helvetica,sans-Serif" font-size="10.00">OMSim.hh</text>
</a>
</g>
</g>
<!-- Node6&#45;&gt;Node7 -->
<g id="edge6" class="edge">
<title>Node6&#45;&gt;Node7</title>
<path fill="none" stroke="midnightblue" d="M391.11,-109.7C354.68,-99.51 301.91,-84.74 268.94,-75.52"/>
<polygon fill="midnightblue" stroke="midnightblue" points="390.35,-113.12 400.92,-112.44 392.23,-106.38 390.35,-113.12"/>
</g>
<!-- Node12 -->
<g id="node12" class="node">
<title>Node12</title>
<g id="a_node12"><a xlink:href="_o_m_sim_m_d_o_m_flasher_8cc.html" target="_top" xlink:title=" ">
<polygon fill="white" stroke="black" points="290.5,-56.5 290.5,-75.5 424.5,-75.5 424.5,-56.5 290.5,-56.5"/>
<text text-anchor="middle" x="357.5" y="-63.5" font-family="Helvetica,sans-Serif" font-size="10.00">OMSimMDOMFlasher.cc</text>
</a>
</g>
</g>
<!-- Node6&#45;&gt;Node12 -->
<g id="edge11" class="edge">
<title>Node6&#45;&gt;Node12</title>
<path fill="none" stroke="midnightblue" d="M411.47,-106.38C398.09,-96.62 380.94,-84.11 369.61,-75.83"/>
<polygon fill="midnightblue" stroke="midnightblue" points="409.47,-109.26 419.61,-112.32 413.6,-103.6 409.47,-109.26"/>
</g>
<!-- Node13 -->
<g id="node13" class="node">
<title>Node13</title>
<g id="a_node13"><a xlink:href="_o_m_sim_angular_scan_8cc.html" target="_top" xlink:title=" ">
<polygon fill="white" stroke="black" points="442.5,-56.5 442.5,-75.5 568.5,-75.5 568.5,-56.5 442.5,-56.5"/>
<text text-anchor="middle" x="505.5" y="-63.5" font-family="Helvetica,sans-Serif" font-size="10.00">OMSimAngularScan.cc</text>
</a>
</g>
</g>
<!-- Node6&#45;&gt;Node13 -->
<g id="edge12" class="edge">
<title>Node6&#45;&gt;Node13</title>
<path fill="none" stroke="midnightblue" d="M451.53,-106.38C464.91,-96.62 482.06,-84.11 493.39,-75.83"/>
<polygon fill="midnightblue" stroke="midnightblue" points="449.4,-103.6 443.39,-112.32 453.53,-109.26 449.4,-103.6"/>
</g>
<!-- Node14 -->
<g id="node14" class="node">
<title>Node14</title>
<g id="a_node14"><a xlink:href="_o_m_sim_decays_g_p_s_8cc.html" target="_top" xlink:title=" ">
<polygon fill="white" stroke="black" points="587,-56.5 587,-75.5 708,-75.5 708,-56.5 587,-56.5"/>
<text text-anchor="middle" x="647.5" y="-63.5" font-family="Helvetica,sans-Serif" font-size="10.00">OMSimDecaysGPS.cc</text>
</a>
</g>
</g>
<!-- Node6&#45;&gt;Node14 -->
<g id="edge13" class="edge">
<title>Node6&#45;&gt;Node14</title>
<path fill="none" stroke="midnightblue" d="M475.66,-109.96C516.46,-99.76 576.21,-84.82 613.43,-75.52"/>
<polygon fill="midnightblue" stroke="midnightblue" points="474.58,-106.62 465.73,-112.44 476.28,-113.41 474.58,-106.62"/>
</g>
<!-- Node8 -->
<g id="node8" class="node">
<title>Node8</title>
<g id="a_node8"><a xlink:href="_o_m_sim_8cc.html" target="_top" xlink:title="Implementation of the OMSim class.">
<polygon fill="white" stroke="black" points="0,-0.5 0,-19.5 65,-19.5 65,-0.5 0,-0.5"/>
<text text-anchor="middle" x="32.5" y="-7.5" font-family="Helvetica,sans-Serif" font-size="10.00">OMSim.cc</text>
</a>
</g>
</g>
<!-- Node7&#45;&gt;Node8 -->
<g id="edge7" class="edge">
<title>Node7&#45;&gt;Node8</title>
<path fill="none" stroke="midnightblue" d="M195.88,-53.83C156.99,-43.63 100.34,-28.78 64.99,-19.52"/>
<polygon fill="midnightblue" stroke="midnightblue" points="195.3,-57.29 205.86,-56.44 197.07,-50.52 195.3,-57.29"/>
</g>
<!-- Node9 -->
<g id="node9" class="node">
<title>Node9</title>
<g id="a_node9"><a xlink:href="_o_m_sim__effective__area_8cc.html" target="_top" xlink:title="Main for the calculation of effective areas.">
<polygon fill="white" stroke="black" points="83.5,-0.5 83.5,-19.5 223.5,-19.5 223.5,-0.5 83.5,-0.5"/>
<text text-anchor="middle" x="153.5" y="-7.5" font-family="Helvetica,sans-Serif" font-size="10.00">OMSim_effective_area.cc</text>
</a>
</g>
</g>
<!-- Node7&#45;&gt;Node9 -->
<g id="edge8" class="edge">
<title>Node7&#45;&gt;Node9</title>
<path fill="none" stroke="midnightblue" d="M216.31,-50.9C200.72,-41 180.37,-28.07 167.12,-19.65"/>
<polygon fill="midnightblue" stroke="midnightblue" points="214.53,-53.92 224.84,-56.32 218.28,-48.01 214.53,-53.92"/>
</g>
<!-- Node10 -->
<g id="node10" class="node">
<title>Node10</title>
<g id="a_node10"><a xlink:href="_o_m_sim__radioactive__decays_8cc.html" target="_top" xlink:title=" ">
<polygon fill="white" stroke="black" points="242,-0.5 242,-19.5 407,-19.5 407,-0.5 242,-0.5"/>
<text text-anchor="middle" x="324.5" y="-7.5" font-family="Helvetica,sans-Serif" font-size="10.00">OMSim_radioactive_decays.cc</text>
</a>
</g>
</g>
<!-- Node7&#45;&gt;Node10 -->
<g id="edge9" class="edge">
<title>Node7&#45;&gt;Node10</title>
<path fill="none" stroke="midnightblue" d="M260.95,-50.9C276.72,-41 297.31,-28.07 310.72,-19.65"/>
<polygon fill="midnightblue" stroke="midnightblue" points="258.93,-48.04 252.32,-56.32 262.65,-53.97 258.93,-48.04"/>
</g>
<!-- Node11 -->
<g id="node11" class="node">
<title>Node11</title>
<g id="a_node11"><a xlink:href="_o_m_sim__supernova_8cc.html" target="_top" xlink:title=" ">
<polygon fill="white" stroke="black" points="425.5,-0.5 425.5,-19.5 547.5,-19.5 547.5,-0.5 425.5,-0.5"/>
<text text-anchor="middle" x="486.5" y="-7.5" font-family="Helvetica,sans-Serif" font-size="10.00">OMSim_supernova.cc</text>
</a>
</g>
</g>
<!-- Node7&#45;&gt;Node11 -->
<g id="edge10" class="edge">
<title>Node7&#45;&gt;Node11</title>
<path fill="none" stroke="midnightblue" d="M282.02,-55.52C328.69,-45.36 402.14,-29.37 447.14,-19.57"/>
<polygon fill="midnightblue" stroke="midnightblue" points="281.23,-52.11 272.2,-57.66 282.72,-58.95 281.23,-52.11"/>
</g>
</g>
</svg>
