<?xml version="1.0" encoding="UTF-8" standalone="no"?>
<!DOCTYPE svg PUBLIC "-//W3C//DTD SVG 1.1//EN"
 "http://www.w3.org/Graphics/SVG/1.1/DTD/svg11.dtd">
<!-- Generated by graphviz version 2.43.0 (0)
 -->
<!-- Title: OMSimSteppingAction.cc Pages: 1 -->
<svg width="981pt" height="196pt"
 viewBox="0.00 0.00 981.00 196.00" xmlns="http://www.w3.org/2000/svg" xmlns:xlink="http://www.w3.org/1999/xlink">
<g id="graph0" class="graph" transform="scale(1 1) rotate(0) translate(4 192)">
<title>OMSimSteppingAction.cc</title>
<polygon fill="white" stroke="transparent" points="-4,4 -4,-192 977,-192 977,4 -4,4"/>
<!-- Node1 -->
<g id="node1" class="node">
<title>Node1</title>
<g id="a_node1"><a xlink:title=" ">
<polygon fill="#bfbfbf" stroke="black" points="443,-168.5 443,-187.5 582,-187.5 582,-168.5 443,-168.5"/>
<text text-anchor="middle" x="512.5" y="-175.5" font-family="Helvetica,sans-Serif" font-size="10.00">OMSimSteppingAction.cc</text>
</a>
</g>
</g>
<!-- Node2 -->
<g id="node2" class="node">
<title>Node2</title>
<g id="a_node2"><a xlink:href="_o_m_sim_stepping_action_8hh.html" target="_top" xlink:title=" ">
<polygon fill="white" stroke="black" points="0.5,-112.5 0.5,-131.5 140.5,-131.5 140.5,-112.5 0.5,-112.5"/>
<text text-anchor="middle" x="70.5" y="-119.5" font-family="Helvetica,sans-Serif" font-size="10.00">OMSimSteppingAction.hh</text>
</a>
</g>
</g>
<!-- Node1&#45;&gt;Node2 -->
<g id="edge1" class="edge">
<title>Node1&#45;&gt;Node2</title>
<path fill="none" stroke="midnightblue" d="M442.95,-168.5C363.52,-158.8 233.8,-142.95 150.32,-132.75"/>
<polygon fill="midnightblue" stroke="midnightblue" points="150.72,-129.28 140.37,-131.54 149.87,-136.22 150.72,-129.28"/>
</g>
<!-- Node4 -->
<g id="node4" class="node">
<title>Node4</title>
<g id="a_node4"><a xlink:title=" ">
<polygon fill="white" stroke="#bfbfbf" points="159,-112.5 159,-131.5 248,-131.5 248,-112.5 159,-112.5"/>
<text text-anchor="middle" x="203.5" y="-119.5" font-family="Helvetica,sans-Serif" font-size="10.00">G4VProcess.hh</text>
</a>
</g>
</g>
<!-- Node1&#45;&gt;Node4 -->
<g id="edge3" class="edge">
<title>Node1&#45;&gt;Node4</title>
<path fill="none" stroke="midnightblue" d="M463.54,-168.44C407.67,-158.68 316.54,-142.75 258.33,-132.58"/>
<polygon fill="midnightblue" stroke="midnightblue" points="258.67,-129.09 248.22,-130.82 257.47,-135.98 258.67,-129.09"/>
</g>
<!-- Node5 -->
<g id="node5" class="node">
<title>Node5</title>
<g id="a_node5"><a xlink:title=" ">
<polygon fill="white" stroke="#bfbfbf" points="265.5,-112.5 265.5,-131.5 371.5,-131.5 371.5,-112.5 265.5,-112.5"/>
<text text-anchor="middle" x="318.5" y="-119.5" font-family="Helvetica,sans-Serif" font-size="10.00">G4RunManager.hh</text>
</a>
</g>
</g>
<!-- Node1&#45;&gt;Node5 -->
<g id="edge4" class="edge">
<title>Node1&#45;&gt;Node5</title>
<path fill="none" stroke="midnightblue" d="M481.76,-168.44C448.56,-159.2 395.51,-144.44 358.94,-134.26"/>
<polygon fill="midnightblue" stroke="midnightblue" points="359.67,-130.83 349.1,-131.52 357.79,-137.57 359.67,-130.83"/>
</g>
<!-- Node6 -->
<g id="node6" class="node">
<title>Node6</title>
<g id="a_node6"><a xlink:title=" ">
<polygon fill="white" stroke="#bfbfbf" points="389.5,-112.5 389.5,-131.5 519.5,-131.5 519.5,-112.5 389.5,-112.5"/>
<text text-anchor="middle" x="454.5" y="-119.5" font-family="Helvetica,sans-Serif" font-size="10.00">G4SteppingManager.hh</text>
</a>
</g>
</g>
<!-- Node1&#45;&gt;Node6 -->
<g id="edge5" class="edge">
<title>Node1&#45;&gt;Node6</title>
<path fill="none" stroke="midnightblue" d="M503.18,-168.32C494.61,-160.34 481.69,-148.31 471.31,-138.65"/>
<polygon fill="midnightblue" stroke="midnightblue" points="473.69,-136.09 463.99,-131.83 468.92,-141.21 473.69,-136.09"/>
</g>
<!-- Node7 -->
<g id="node7" class="node">
<title>Node7</title>
<g id="a_node7"><a xlink:title=" ">
<polygon fill="white" stroke="#bfbfbf" points="538,-112.5 538,-131.5 605,-131.5 605,-112.5 538,-112.5"/>
<text text-anchor="middle" x="571.5" y="-119.5" font-family="Helvetica,sans-Serif" font-size="10.00">G4Step.hh</text>
</a>
</g>
</g>
<!-- Node1&#45;&gt;Node7 -->
<g id="edge6" class="edge">
<title>Node1&#45;&gt;Node7</title>
<path fill="none" stroke="midnightblue" d="M521.98,-168.32C530.7,-160.34 543.84,-148.31 554.4,-138.65"/>
<polygon fill="midnightblue" stroke="midnightblue" points="556.83,-141.17 561.85,-131.83 552.11,-136 556.83,-141.17"/>
</g>
<!-- Node8 -->
<g id="node8" class="node">
<title>Node8</title>
<g id="a_node8"><a xlink:title=" ">
<polygon fill="white" stroke="#bfbfbf" points="548,-56.5 548,-75.5 651,-75.5 651,-56.5 548,-56.5"/>
<text text-anchor="middle" x="599.5" y="-63.5" font-family="Helvetica,sans-Serif" font-size="10.00">G4ThreeVector.hh</text>
</a>
</g>
</g>
<!-- Node1&#45;&gt;Node8 -->
<g id="edge7" class="edge">
<title>Node1&#45;&gt;Node8</title>
<path fill="none" stroke="midnightblue" d="M558.15,-168.43C578.74,-162.04 601.17,-151 613.5,-132 622.71,-117.82 616.8,-98.59 610.05,-84.73"/>
<polygon fill="midnightblue" stroke="midnightblue" points="613.03,-82.88 605.2,-75.74 606.87,-86.2 613.03,-82.88"/>
</g>
<!-- Node9 -->
<g id="node9" class="node">
<title>Node9</title>
<g id="a_node9"><a xlink:href="_o_m_sim_analysis_manager_8hh.html" target="_top" xlink:title=" ">
<polygon fill="white" stroke="black" points="661.5,-112.5 661.5,-131.5 811.5,-131.5 811.5,-112.5 661.5,-112.5"/>
<text text-anchor="middle" x="736.5" y="-119.5" font-family="Helvetica,sans-Serif" font-size="10.00">OMSimAnalysisManager.hh</text>
</a>
</g>
</g>
<!-- Node1&#45;&gt;Node9 -->
<g id="edge8" class="edge">
<title>Node1&#45;&gt;Node9</title>
<path fill="none" stroke="midnightblue" d="M547.99,-168.44C586.82,-159.08 649.16,-144.06 691.42,-133.87"/>
<polygon fill="midnightblue" stroke="midnightblue" points="692.27,-137.26 701.17,-131.52 690.63,-130.46 692.27,-137.26"/>
</g>
<!-- Node11 -->
<g id="node11" class="node">
<title>Node11</title>
<g id="a_node11"><a xlink:title=" ">
<polygon fill="white" stroke="#bfbfbf" points="854,-0.5 854,-19.5 973,-19.5 973,-0.5 854,-0.5"/>
<text text-anchor="middle" x="913.5" y="-7.5" font-family="Helvetica,sans-Serif" font-size="10.00">G4SystemOfUnits.hh</text>
</a>
</g>
</g>
<!-- Node1&#45;&gt;Node11 -->
<g id="edge17" class="edge">
<title>Node1&#45;&gt;Node11</title>
<path fill="none" stroke="midnightblue" d="M582.02,-171.38C659.46,-164.34 779.2,-150.85 820.5,-132 855.19,-116.17 862.94,-106.74 885.5,-76 895.94,-61.78 903.48,-43.05 908.09,-29.36"/>
<polygon fill="midnightblue" stroke="midnightblue" points="911.48,-30.22 911.15,-19.63 904.81,-28.12 911.48,-30.22"/>
</g>
<!-- Node3 -->
<g id="node3" class="node">
<title>Node3</title>
<g id="a_node3"><a xlink:title=" ">
<polygon fill="white" stroke="#bfbfbf" points="0,-56.5 0,-75.5 141,-75.5 141,-56.5 0,-56.5"/>
<text text-anchor="middle" x="70.5" y="-63.5" font-family="Helvetica,sans-Serif" font-size="10.00">G4UserSteppingAction.hh</text>
</a>
</g>
</g>
<!-- Node2&#45;&gt;Node3 -->
<g id="edge2" class="edge">
<title>Node2&#45;&gt;Node3</title>
<path fill="none" stroke="midnightblue" d="M70.5,-112.08C70.5,-105.01 70.5,-94.86 70.5,-85.99"/>
<polygon fill="midnightblue" stroke="midnightblue" points="74,-85.75 70.5,-75.75 67,-85.75 74,-85.75"/>
</g>
<!-- Node9&#45;&gt;Node8 -->
<g id="edge15" class="edge">
<title>Node9&#45;&gt;Node8</title>
<path fill="none" stroke="midnightblue" d="M714.79,-112.44C692.15,-103.52 656.43,-89.44 630.75,-79.32"/>
<polygon fill="midnightblue" stroke="midnightblue" points="631.69,-75.93 621.11,-75.52 629.13,-82.44 631.69,-75.93"/>
</g>
<!-- Node10 -->
<g id="node10" class="node">
<title>Node10</title>
<g id="a_node10"><a xlink:href="_o_m_sim_p_m_t_response_8hh.html" target="_top" xlink:title=" ">
<polygon fill="white" stroke="black" points="669,-56.5 669,-75.5 804,-75.5 804,-56.5 669,-56.5"/>
<text text-anchor="middle" x="736.5" y="-63.5" font-family="Helvetica,sans-Serif" font-size="10.00">OMSimPMTResponse.hh</text>
</a>
</g>
</g>
<!-- Node9&#45;&gt;Node10 -->
<g id="edge9" class="edge">
<title>Node9&#45;&gt;Node10</title>
<path fill="none" stroke="midnightblue" d="M736.5,-112.08C736.5,-105.01 736.5,-94.86 736.5,-85.99"/>
<polygon fill="midnightblue" stroke="midnightblue" points="740,-85.75 736.5,-75.75 733,-85.75 740,-85.75"/>
</g>
<!-- Node16 -->
<g id="node16" class="node">
<title>Node16</title>
<g id="a_node16"><a xlink:title=" ">
<polygon fill="white" stroke="#bfbfbf" points="822,-56.5 822,-75.5 877,-75.5 877,-56.5 822,-56.5"/>
<text text-anchor="middle" x="849.5" y="-63.5" font-family="Helvetica,sans-Serif" font-size="10.00">fstream</text>
</a>
</g>
</g>
<!-- Node9&#45;&gt;Node16 -->
<g id="edge16" class="edge">
<title>Node9&#45;&gt;Node16</title>
<path fill="none" stroke="midnightblue" d="M754.41,-112.44C772.75,-103.68 801.51,-89.94 822.59,-79.86"/>
<polygon fill="midnightblue" stroke="midnightblue" points="824.17,-82.99 831.68,-75.52 821.15,-76.67 824.17,-82.99"/>
</g>
<!-- Node10&#45;&gt;Node11 -->
<g id="edge10" class="edge">
<title>Node10&#45;&gt;Node11</title>
<path fill="none" stroke="midnightblue" d="M764.55,-56.44C794.58,-47.28 842.41,-32.69 875.74,-22.52"/>
<polygon fill="midnightblue" stroke="midnightblue" points="877.04,-25.78 885.59,-19.52 875,-19.09 877.04,-25.78"/>
</g>
<!-- Node12 -->
<g id="node12" class="node">
<title>Node12</title>
<g id="a_node12"><a xlink:title=" ">
<polygon fill="white" stroke="#bfbfbf" points="556,-0.5 556,-19.5 629,-19.5 629,-0.5 556,-0.5"/>
<text text-anchor="middle" x="592.5" y="-7.5" font-family="Helvetica,sans-Serif" font-size="10.00">G4Types.hh</text>
</a>
</g>
</g>
<!-- Node10&#45;&gt;Node12 -->
<g id="edge11" class="edge">
<title>Node10&#45;&gt;Node12</title>
<path fill="none" stroke="midnightblue" d="M713.68,-56.44C689.67,-47.44 651.67,-33.19 624.63,-23.05"/>
<polygon fill="midnightblue" stroke="midnightblue" points="625.8,-19.75 615.21,-19.52 623.34,-26.3 625.8,-19.75"/>
</g>
<!-- Node13 -->
<g id="node13" class="node">
<title>Node13</title>
<g id="a_node13"><a xlink:title=" ">
<polygon fill="white" stroke="#bfbfbf" points="647.5,-0.5 647.5,-19.5 685.5,-19.5 685.5,-0.5 647.5,-0.5"/>
<text text-anchor="middle" x="666.5" y="-7.5" font-family="Helvetica,sans-Serif" font-size="10.00">map</text>
</a>
</g>
</g>
<!-- Node10&#45;&gt;Node13 -->
<g id="edge12" class="edge">
<title>Node10&#45;&gt;Node13</title>
<path fill="none" stroke="midnightblue" d="M725.25,-56.32C714.7,-48.18 698.7,-35.84 686.06,-26.09"/>
<polygon fill="midnightblue" stroke="midnightblue" points="688.01,-23.17 677.95,-19.83 683.73,-28.71 688.01,-23.17"/>
</g>
<!-- Node14 -->
<g id="node14" class="node">
<title>Node14</title>
<g id="a_node14"><a xlink:title=" ">
<polygon fill="white" stroke="#bfbfbf" points="704,-0.5 704,-19.5 765,-19.5 765,-0.5 704,-0.5"/>
<text text-anchor="middle" x="734.5" y="-7.5" font-family="Helvetica,sans-Serif" font-size="10.00">TGraph.h</text>
</a>
</g>
</g>
<!-- Node10&#45;&gt;Node14 -->
<g id="edge13" class="edge">
<title>Node10&#45;&gt;Node14</title>
<path fill="none" stroke="midnightblue" d="M736.17,-56.08C735.91,-49.01 735.53,-38.86 735.2,-29.99"/>
<polygon fill="midnightblue" stroke="midnightblue" points="738.69,-29.61 734.82,-19.75 731.7,-29.87 738.69,-29.61"/>
</g>
<!-- Node15 -->
<g id="node15" class="node">
<title>Node15</title>
<g id="a_node15"><a xlink:title=" ">
<polygon fill="white" stroke="#bfbfbf" points="783,-0.5 783,-19.5 836,-19.5 836,-0.5 783,-0.5"/>
<text text-anchor="middle" x="809.5" y="-7.5" font-family="Helvetica,sans-Serif" font-size="10.00">TH2D.h</text>
</a>
</g>
</g>
<!-- Node10&#45;&gt;Node15 -->
<g id="edge14" class="edge">
<title>Node10&#45;&gt;Node15</title>
<path fill="none" stroke="midnightblue" d="M748.23,-56.32C759.34,-48.11 776.24,-35.6 789.48,-25.81"/>
<polygon fill="midnightblue" stroke="midnightblue" points="791.6,-28.59 797.56,-19.83 787.44,-22.97 791.6,-28.59"/>
</g>
</g>
</svg>
