<?xml version="1.0" encoding="UTF-8" standalone="no"?>
<!DOCTYPE svg PUBLIC "-//W3C//DTD SVG 1.1//EN"
 "http://www.w3.org/Graphics/SVG/1.1/DTD/svg11.dtd">
<!-- Generated by graphviz version 2.43.0 (0)
 -->
<!-- Title: OMSimCommandArgsTable.hh Pages: 1 -->
<svg width="1557pt" height="196pt"
 viewBox="0.00 0.00 1557.00 196.00" xmlns="http://www.w3.org/2000/svg" xmlns:xlink="http://www.w3.org/1999/xlink">
<g id="graph0" class="graph" transform="scale(1 1) rotate(0) translate(4 192)">
<title>OMSimCommandArgsTable.hh</title>
<polygon fill="white" stroke="transparent" points="-4,4 -4,-192 1553,-192 1553,4 -4,4"/>
<!-- Node1 -->
<g id="node1" class="node">
<title>Node1</title>
<g id="a_node1"><a xlink:title="Definition of the OMSimCommandArgsTable singleton class, which controls user args.">
<polygon fill="#bfbfbf" stroke="black" points="609.5,-168.5 609.5,-187.5 773.5,-187.5 773.5,-168.5 609.5,-168.5"/>
<text text-anchor="middle" x="691.5" y="-175.5" font-family="Helvetica,sans-Serif" font-size="10.00">OMSimCommandArgsTable.hh</text>
</a>
</g>
</g>
<!-- Node2 -->
<g id="node2" class="node">
<title>Node2</title>
<g id="a_node2"><a xlink:href="_o_m_sim_8h.html" target="_top" xlink:title=" ">
<polygon fill="white" stroke="black" points="33,-56.5 33,-75.5 94,-75.5 94,-56.5 33,-56.5"/>
<text text-anchor="middle" x="63.5" y="-63.5" font-family="Helvetica,sans-Serif" font-size="10.00">OMSim.h</text>
</a>
</g>
</g>
<!-- Node1&#45;&gt;Node2 -->
<g id="edge1" class="edge">
<title>Node1&#45;&gt;Node2</title>
<path fill="none" stroke="midnightblue" d="M599.29,-175.01C468.3,-171.21 235.47,-160.55 156.5,-132 121.67,-119.41 87.84,-90.26 72.33,-75.66"/>
<polygon fill="midnightblue" stroke="midnightblue" points="599.22,-178.51 609.32,-175.29 599.42,-171.51 599.22,-178.51"/>
</g>
<!-- Node4 -->
<g id="node4" class="node">
<title>Node4</title>
<g id="a_node4"><a xlink:href="_o_m_sim__effective__area_8cc.html" target="_top" xlink:title="Main for the calculation of effective areas.">
<polygon fill="white" stroke="black" points="83.5,-0.5 83.5,-19.5 223.5,-19.5 223.5,-0.5 83.5,-0.5"/>
<text text-anchor="middle" x="153.5" y="-7.5" font-family="Helvetica,sans-Serif" font-size="10.00">OMSim_effective_area.cc</text>
</a>
</g>
</g>
<!-- Node1&#45;&gt;Node4 -->
<g id="edge17" class="edge">
<title>Node1&#45;&gt;Node4</title>
<path fill="none" stroke="midnightblue" d="M599.26,-171.03C565.99,-164.99 529.92,-153.51 502.5,-132 472.63,-108.57 494.39,-78.07 463.5,-56 426.11,-29.28 302.99,-18.23 223.62,-13.8"/>
<polygon fill="midnightblue" stroke="midnightblue" points="599.04,-174.54 609.48,-172.73 600.19,-167.63 599.04,-174.54"/>
</g>
<!-- Node5 -->
<g id="node5" class="node">
<title>Node5</title>
<g id="a_node5"><a xlink:href="_o_m_sim_u_iinterface_8hh.html" target="_top" xlink:title="The OMSimUIinterface class provides a singleton interface to Geant4&#39;s UI manager.">
<polygon fill="white" stroke="black" points="166,-112.5 166,-131.5 287,-131.5 287,-112.5 166,-112.5"/>
<text text-anchor="middle" x="226.5" y="-119.5" font-family="Helvetica,sans-Serif" font-size="10.00">OMSimUIinterface.hh</text>
</a>
</g>
</g>
<!-- Node1&#45;&gt;Node5 -->
<g id="edge4" class="edge">
<title>Node1&#45;&gt;Node5</title>
<path fill="none" stroke="midnightblue" d="M607.93,-167.3C515.65,-156.58 369.31,-139.58 287.31,-130.06"/>
<polygon fill="midnightblue" stroke="midnightblue" points="607.74,-170.8 618.08,-168.47 608.55,-163.84 607.74,-170.8"/>
</g>
<!-- Node6 -->
<g id="node6" class="node">
<title>Node6</title>
<g id="a_node6"><a xlink:href="_o_m_sim_m_d_o_m_flasher_8cc.html" target="_top" xlink:title=" ">
<polygon fill="white" stroke="black" points="320.5,-56.5 320.5,-75.5 454.5,-75.5 454.5,-56.5 320.5,-56.5"/>
<text text-anchor="middle" x="387.5" y="-63.5" font-family="Helvetica,sans-Serif" font-size="10.00">OMSimMDOMFlasher.cc</text>
</a>
</g>
</g>
<!-- Node1&#45;&gt;Node6 -->
<g id="edge11" class="edge">
<title>Node1&#45;&gt;Node6</title>
<path fill="none" stroke="midnightblue" d="M599.27,-168.41C557.84,-162.07 509.23,-151.06 468.5,-132 438.12,-117.79 409.13,-89.91 395.54,-75.73"/>
<polygon fill="midnightblue" stroke="midnightblue" points="598.96,-171.91 609.36,-169.89 599.98,-164.98 598.96,-171.91"/>
</g>
<!-- Node8 -->
<g id="node8" class="node">
<title>Node8</title>
<g id="a_node8"><a xlink:href="_o_m_sim_input_data_8cc.html" target="_top" xlink:title="Input data from external files are read and saved to memory.">
<polygon fill="white" stroke="black" points="511,-112.5 511,-131.5 624,-131.5 624,-112.5 511,-112.5"/>
<text text-anchor="middle" x="567.5" y="-119.5" font-family="Helvetica,sans-Serif" font-size="10.00">OMSimInputData.cc</text>
</a>
</g>
</g>
<!-- Node1&#45;&gt;Node8 -->
<g id="edge9" class="edge">
<title>Node1&#45;&gt;Node8</title>
<path fill="none" stroke="midnightblue" d="M662.49,-164.37C639.27,-154.26 607.34,-140.35 587.06,-131.52"/>
<polygon fill="midnightblue" stroke="midnightblue" points="661.29,-167.66 671.85,-168.44 664.08,-161.24 661.29,-167.66"/>
</g>
<!-- Node9 -->
<g id="node9" class="node">
<title>Node9</title>
<g id="a_node9"><a xlink:href="_o_m_sim_m_d_o_m_8cc.html" target="_top" xlink:title="Construction of mDOM.">
<polygon fill="white" stroke="black" points="642.5,-112.5 642.5,-131.5 740.5,-131.5 740.5,-112.5 642.5,-112.5"/>
<text text-anchor="middle" x="691.5" y="-119.5" font-family="Helvetica,sans-Serif" font-size="10.00">OMSimMDOM.cc</text>
</a>
</g>
</g>
<!-- Node1&#45;&gt;Node9 -->
<g id="edge10" class="edge">
<title>Node1&#45;&gt;Node9</title>
<path fill="none" stroke="midnightblue" d="M691.5,-157.8C691.5,-148.91 691.5,-138.78 691.5,-131.75"/>
<polygon fill="midnightblue" stroke="midnightblue" points="688,-158.08 691.5,-168.08 695,-158.08 688,-158.08"/>
</g>
<!-- Node10 -->
<g id="node10" class="node">
<title>Node10</title>
<g id="a_node10"><a xlink:href="_o_m_sim_m_d_o_m_harness_8cc.html" target="_top" xlink:title="Construction of mDOM harness.">
<polygon fill="white" stroke="black" points="758.5,-112.5 758.5,-131.5 896.5,-131.5 896.5,-112.5 758.5,-112.5"/>
<text text-anchor="middle" x="827.5" y="-119.5" font-family="Helvetica,sans-Serif" font-size="10.00">OMSimMDOMHarness.cc</text>
</a>
</g>
</g>
<!-- Node1&#45;&gt;Node10 -->
<g id="edge12" class="edge">
<title>Node1&#45;&gt;Node10</title>
<path fill="none" stroke="midnightblue" d="M722.63,-164.64C748.16,-154.5 783.61,-140.43 806.05,-131.52"/>
<polygon fill="midnightblue" stroke="midnightblue" points="721.05,-161.5 713.05,-168.44 723.64,-168.01 721.05,-161.5"/>
</g>
<!-- Node11 -->
<g id="node11" class="node">
<title>Node11</title>
<g id="a_node11"><a xlink:href="_o_m_sim_p_m_t_construction_8cc.html" target="_top" xlink:title="Construction of the PMTs.">
<polygon fill="white" stroke="black" points="915,-112.5 915,-131.5 1062,-131.5 1062,-112.5 915,-112.5"/>
<text text-anchor="middle" x="988.5" y="-119.5" font-family="Helvetica,sans-Serif" font-size="10.00">OMSimPMTConstruction.cc</text>
</a>
</g>
</g>
<!-- Node1&#45;&gt;Node11 -->
<g id="edge13" class="edge">
<title>Node1&#45;&gt;Node11</title>
<path fill="none" stroke="midnightblue" d="M748.7,-166.6C804.83,-156.4 889.4,-141.02 941.66,-131.52"/>
<polygon fill="midnightblue" stroke="midnightblue" points="747.77,-163.21 738.56,-168.44 749.03,-170.1 747.77,-163.21"/>
</g>
<!-- Node12 -->
<g id="node12" class="node">
<title>Node12</title>
<g id="a_node12"><a xlink:href="_o_m_sim_analysis_manager_8cc.html" target="_top" xlink:title=" ">
<polygon fill="white" stroke="black" points="1080,-112.5 1080,-131.5 1229,-131.5 1229,-112.5 1080,-112.5"/>
<text text-anchor="middle" x="1154.5" y="-119.5" font-family="Helvetica,sans-Serif" font-size="10.00">OMSimAnalysisManager.cc</text>
</a>
</g>
</g>
<!-- Node1&#45;&gt;Node12 -->
<g id="edge14" class="edge">
<title>Node1&#45;&gt;Node12</title>
<path fill="none" stroke="midnightblue" d="M774.75,-167.29C862.1,-157.1 998.05,-141.25 1081.39,-131.53"/>
<polygon fill="midnightblue" stroke="midnightblue" points="774.14,-163.84 764.61,-168.47 774.95,-170.79 774.14,-163.84"/>
</g>
<!-- Node13 -->
<g id="node13" class="node">
<title>Node13</title>
<g id="a_node13"><a xlink:href="_o_m_sim_detector_construction_8cc.html" target="_top" xlink:title="User defined detector.">
<polygon fill="white" stroke="black" points="1247,-112.5 1247,-131.5 1416,-131.5 1416,-112.5 1247,-112.5"/>
<text text-anchor="middle" x="1331.5" y="-119.5" font-family="Helvetica,sans-Serif" font-size="10.00">OMSimDetectorConstruction.cc</text>
</a>
</g>
</g>
<!-- Node1&#45;&gt;Node13 -->
<g id="edge15" class="edge">
<title>Node1&#45;&gt;Node13</title>
<path fill="none" stroke="midnightblue" d="M783.83,-169.81C892.6,-161.25 1078.75,-146.3 1238.5,-132 1241.25,-131.75 1244.04,-131.5 1246.86,-131.24"/>
<polygon fill="midnightblue" stroke="midnightblue" points="783.24,-166.35 773.55,-170.62 783.79,-173.33 783.24,-166.35"/>
</g>
<!-- Node14 -->
<g id="node14" class="node">
<title>Node14</title>
<g id="a_node14"><a xlink:href="_o_m_sim_run_action_8cc.html" target="_top" xlink:title=" ">
<polygon fill="white" stroke="black" points="1434,-112.5 1434,-131.5 1549,-131.5 1549,-112.5 1434,-112.5"/>
<text text-anchor="middle" x="1491.5" y="-119.5" font-family="Helvetica,sans-Serif" font-size="10.00">OMSimRunAction.cc</text>
</a>
</g>
</g>
<!-- Node1&#45;&gt;Node14 -->
<g id="edge16" class="edge">
<title>Node1&#45;&gt;Node14</title>
<path fill="none" stroke="midnightblue" d="M783.87,-173.54C923.19,-167.83 1195.26,-154.72 1425.5,-132 1428.26,-131.73 1431.09,-131.43 1433.94,-131.11"/>
<polygon fill="midnightblue" stroke="midnightblue" points="783.52,-170.05 773.67,-173.96 783.8,-177.05 783.52,-170.05"/>
</g>
<!-- Node3 -->
<g id="node3" class="node">
<title>Node3</title>
<g id="a_node3"><a xlink:href="_o_m_sim_8cc.html" target="_top" xlink:title=" ">
<polygon fill="white" stroke="black" points="0,-0.5 0,-19.5 65,-19.5 65,-0.5 0,-0.5"/>
<text text-anchor="middle" x="32.5" y="-7.5" font-family="Helvetica,sans-Serif" font-size="10.00">OMSim.cc</text>
</a>
</g>
</g>
<!-- Node2&#45;&gt;Node3 -->
<g id="edge2" class="edge">
<title>Node2&#45;&gt;Node3</title>
<path fill="none" stroke="midnightblue" d="M53.32,-47.27C48.03,-38.05 41.78,-27.17 37.52,-19.75"/>
<polygon fill="midnightblue" stroke="midnightblue" points="50.37,-49.15 58.38,-56.08 56.44,-45.67 50.37,-49.15"/>
</g>
<!-- Node2&#45;&gt;Node4 -->
<g id="edge3" class="edge">
<title>Node2&#45;&gt;Node4</title>
<path fill="none" stroke="midnightblue" d="M86.54,-51.18C103.1,-41.24 124.92,-28.15 139.08,-19.65"/>
<polygon fill="midnightblue" stroke="midnightblue" points="84.73,-48.18 77.96,-56.32 88.34,-54.18 84.73,-48.18"/>
</g>
<!-- Node5&#45;&gt;Node2 -->
<g id="edge5" class="edge">
<title>Node5&#45;&gt;Node2</title>
<path fill="none" stroke="midnightblue" d="M190.8,-109.17C160.1,-99 116.58,-84.59 89.21,-75.52"/>
<polygon fill="midnightblue" stroke="midnightblue" points="190.08,-112.62 200.67,-112.44 192.28,-105.98 190.08,-112.62"/>
</g>
<!-- Node5&#45;&gt;Node4 -->
<g id="edge8" class="edge">
<title>Node5&#45;&gt;Node4</title>
<path fill="none" stroke="midnightblue" d="M183.37,-108.73C167.33,-101.84 150.79,-91.43 141.5,-76 130.73,-58.11 141.34,-32.8 148.37,-19.67"/>
<polygon fill="midnightblue" stroke="midnightblue" points="182.11,-111.99 192.7,-112.39 184.67,-105.48 182.11,-111.99"/>
</g>
<!-- Node5&#45;&gt;Node6 -->
<g id="edge6" class="edge">
<title>Node5&#45;&gt;Node6</title>
<path fill="none" stroke="midnightblue" d="M261.76,-109.17C292.08,-99 335.07,-84.59 362.11,-75.52"/>
<polygon fill="midnightblue" stroke="midnightblue" points="260.38,-105.95 252.01,-112.44 262.6,-112.58 260.38,-105.95"/>
</g>
<!-- Node7 -->
<g id="node7" class="node">
<title>Node7</title>
<g id="a_node7"><a xlink:href="_o_m_sim_simple_g_p_s_beams_8cc.html" target="_top" xlink:title="Defines the AngularScan class for simple GPS beam configurations.">
<polygon fill="white" stroke="black" points="150.5,-56.5 150.5,-75.5 302.5,-75.5 302.5,-56.5 150.5,-56.5"/>
<text text-anchor="middle" x="226.5" y="-63.5" font-family="Helvetica,sans-Serif" font-size="10.00">OMSimSimpleGPSBeams.cc</text>
</a>
</g>
</g>
<!-- Node5&#45;&gt;Node7 -->
<g id="edge7" class="edge">
<title>Node5&#45;&gt;Node7</title>
<path fill="none" stroke="midnightblue" d="M226.5,-101.8C226.5,-92.91 226.5,-82.78 226.5,-75.75"/>
<polygon fill="midnightblue" stroke="midnightblue" points="223,-102.08 226.5,-112.08 230,-102.08 223,-102.08"/>
</g>
</g>
</svg>
