<?xml version="1.0" encoding="UTF-8" standalone="no"?>
<!DOCTYPE svg PUBLIC "-//W3C//DTD SVG 1.1//EN"
 "http://www.w3.org/Graphics/SVG/1.1/DTD/svg11.dtd">
<!-- Generated by graphviz version 2.43.0 (0)
 -->
<!-- Title: OMSimDecaysAnalysis.cc Pages: 1 -->
<svg width="959pt" height="196pt"
 viewBox="0.00 0.00 958.50 196.00" xmlns="http://www.w3.org/2000/svg" xmlns:xlink="http://www.w3.org/1999/xlink">
<g id="graph0" class="graph" transform="scale(1 1) rotate(0) translate(4 192)">
<title>OMSimDecaysAnalysis.cc</title>
<polygon fill="white" stroke="transparent" points="-4,4 -4,-192 954.5,-192 954.5,4 -4,4"/>
<!-- Node1 -->
<g id="node1" class="node">
<title>Node1</title>
<g id="a_node1"><a xlink:title=" ">
<polygon fill="#bfbfbf" stroke="black" points="579,-168.5 579,-187.5 722,-187.5 722,-168.5 579,-168.5"/>
<text text-anchor="middle" x="650.5" y="-175.5" font-family="Helvetica,sans-Serif" font-size="10.00">OMSimDecaysAnalysis.cc</text>
</a>
</g>
</g>
<!-- Node2 -->
<g id="node2" class="node">
<title>Node2</title>
<g id="a_node2"><a xlink:href="_o_m_sim_decays_analysis_8hh.html" target="_top" xlink:title="Defines the OMSimDecaysAnalysis class and DecayStats struct for the radioactive decays simulation.">
<polygon fill="white" stroke="black" points="406.5,-112.5 406.5,-131.5 550.5,-131.5 550.5,-112.5 406.5,-112.5"/>
<text text-anchor="middle" x="478.5" y="-119.5" font-family="Helvetica,sans-Serif" font-size="10.00">OMSimDecaysAnalysis.hh</text>
</a>
</g>
</g>
<!-- Node1&#45;&gt;Node2 -->
<g id="edge1" class="edge">
<title>Node1&#45;&gt;Node2</title>
<path fill="none" stroke="midnightblue" d="M623.25,-168.44C594.06,-159.28 547.58,-144.69 515.19,-134.52"/>
<polygon fill="midnightblue" stroke="midnightblue" points="516.22,-131.17 505.63,-131.52 514.12,-137.85 516.22,-131.17"/>
</g>
<!-- Node5 -->
<g id="node5" class="node">
<title>Node5</title>
<g id="a_node5"><a xlink:href="_o_m_sim_command_args_table_8hh.html" target="_top" xlink:title="Definition of the OMSimCommandArgsTable singleton class, which controls user args.">
<polygon fill="white" stroke="black" points="568.5,-112.5 568.5,-131.5 732.5,-131.5 732.5,-112.5 568.5,-112.5"/>
<text text-anchor="middle" x="650.5" y="-119.5" font-family="Helvetica,sans-Serif" font-size="10.00">OMSimCommandArgsTable.hh</text>
</a>
</g>
</g>
<!-- Node1&#45;&gt;Node5 -->
<g id="edge4" class="edge">
<title>Node1&#45;&gt;Node5</title>
<path fill="none" stroke="midnightblue" d="M650.5,-168.08C650.5,-161.01 650.5,-150.86 650.5,-141.99"/>
<polygon fill="midnightblue" stroke="midnightblue" points="654,-141.75 650.5,-131.75 647,-141.75 654,-141.75"/>
</g>
<!-- Node11 -->
<g id="node11" class="node">
<title>Node11</title>
<g id="a_node11"><a xlink:title=" ">
<polygon fill="white" stroke="#bfbfbf" points="751,-112.5 751,-131.5 876,-131.5 876,-112.5 751,-112.5"/>
<text text-anchor="middle" x="813.5" y="-119.5" font-family="Helvetica,sans-Serif" font-size="10.00">OMSimEventAction.hh</text>
</a>
</g>
</g>
<!-- Node1&#45;&gt;Node11 -->
<g id="edge11" class="edge">
<title>Node1&#45;&gt;Node11</title>
<path fill="none" stroke="midnightblue" d="M676.33,-168.44C703.75,-159.36 747.28,-144.94 777.93,-134.78"/>
<polygon fill="midnightblue" stroke="midnightblue" points="779.4,-137.98 787.79,-131.52 777.2,-131.34 779.4,-137.98"/>
</g>
<!-- Node12 -->
<g id="node12" class="node">
<title>Node12</title>
<g id="a_node12"><a xlink:href="_o_m_sim_hit_manager_8hh.html" target="_top" xlink:title="Defines structures and classes related to optical module photon hit management.">
<polygon fill="white" stroke="black" points="265,-112.5 265,-131.5 388,-131.5 388,-112.5 265,-112.5"/>
<text text-anchor="middle" x="326.5" y="-119.5" font-family="Helvetica,sans-Serif" font-size="10.00">OMSimHitManager.hh</text>
</a>
</g>
</g>
<!-- Node1&#45;&gt;Node12 -->
<g id="edge12" class="edge">
<title>Node1&#45;&gt;Node12</title>
<path fill="none" stroke="midnightblue" d="M599.16,-168.44C541.69,-158.87 448.63,-143.36 387.5,-133.17"/>
<polygon fill="midnightblue" stroke="midnightblue" points="388.04,-129.71 377.6,-131.52 386.89,-136.61 388.04,-129.71"/>
</g>
<!-- Node19 -->
<g id="node19" class="node">
<title>Node19</title>
<g id="a_node19"><a xlink:title=" ">
<polygon fill="white" stroke="#bfbfbf" points="894.5,-112.5 894.5,-131.5 950.5,-131.5 950.5,-112.5 894.5,-112.5"/>
<text text-anchor="middle" x="922.5" y="-119.5" font-family="Helvetica,sans-Serif" font-size="10.00">numeric</text>
</a>
</g>
</g>
<!-- Node1&#45;&gt;Node19 -->
<g id="edge21" class="edge">
<title>Node1&#45;&gt;Node19</title>
<path fill="none" stroke="midnightblue" d="M698.8,-168.47C744.27,-160.28 814.5,-147.22 884.39,-132.16"/>
<polygon fill="midnightblue" stroke="midnightblue" points="885.22,-135.56 894.25,-130.02 883.74,-128.72 885.22,-135.56"/>
</g>
<!-- Node3 -->
<g id="node3" class="node">
<title>Node3</title>
<g id="a_node3"><a xlink:title=" ">
<polygon fill="white" stroke="#bfbfbf" points="330,-56.5 330,-75.5 433,-75.5 433,-56.5 330,-56.5"/>
<text text-anchor="middle" x="381.5" y="-63.5" font-family="Helvetica,sans-Serif" font-size="10.00">G4ThreeVector.hh</text>
</a>
</g>
</g>
<!-- Node2&#45;&gt;Node3 -->
<g id="edge2" class="edge">
<title>Node2&#45;&gt;Node3</title>
<path fill="none" stroke="midnightblue" d="M462.92,-112.32C447.5,-103.74 423.69,-90.49 405.79,-80.52"/>
<polygon fill="midnightblue" stroke="midnightblue" points="407.49,-77.46 397.05,-75.65 404.08,-83.58 407.49,-77.46"/>
</g>
<!-- Node4 -->
<g id="node4" class="node">
<title>Node4</title>
<g id="a_node4"><a xlink:title=" ">
<polygon fill="white" stroke="#bfbfbf" points="451,-56.5 451,-75.5 506,-75.5 506,-56.5 451,-56.5"/>
<text text-anchor="middle" x="478.5" y="-63.5" font-family="Helvetica,sans-Serif" font-size="10.00">fstream</text>
</a>
</g>
</g>
<!-- Node2&#45;&gt;Node4 -->
<g id="edge3" class="edge">
<title>Node2&#45;&gt;Node4</title>
<path fill="none" stroke="midnightblue" d="M478.5,-112.08C478.5,-105.01 478.5,-94.86 478.5,-85.99"/>
<polygon fill="midnightblue" stroke="midnightblue" points="482,-85.75 478.5,-75.75 475,-85.75 482,-85.75"/>
</g>
<!-- Node5&#45;&gt;Node4 -->
<g id="edge8" class="edge">
<title>Node5&#45;&gt;Node4</title>
<path fill="none" stroke="midnightblue" d="M623.25,-112.44C594.06,-103.28 547.58,-88.69 515.19,-78.52"/>
<polygon fill="midnightblue" stroke="midnightblue" points="516.22,-75.17 505.63,-75.52 514.12,-81.85 516.22,-75.17"/>
</g>
<!-- Node6 -->
<g id="node6" class="node">
<title>Node6</title>
<g id="a_node6"><a xlink:href="_o_m_sim_logger_8hh.html" target="_top" xlink:title=" ">
<polygon fill="white" stroke="black" points="524,-56.5 524,-75.5 623,-75.5 623,-56.5 524,-56.5"/>
<text text-anchor="middle" x="573.5" y="-63.5" font-family="Helvetica,sans-Serif" font-size="10.00">OMSimLogger.hh</text>
</a>
</g>
</g>
<!-- Node5&#45;&gt;Node6 -->
<g id="edge5" class="edge">
<title>Node5&#45;&gt;Node6</title>
<path fill="none" stroke="midnightblue" d="M638.13,-112.32C626.34,-104.06 608.37,-91.45 594.36,-81.63"/>
<polygon fill="midnightblue" stroke="midnightblue" points="596.04,-78.53 585.84,-75.65 592.02,-84.26 596.04,-78.53"/>
</g>
<!-- Node9 -->
<g id="node9" class="node">
<title>Node9</title>
<g id="a_node9"><a xlink:title=" ">
<polygon fill="white" stroke="#bfbfbf" points="641.5,-56.5 641.5,-75.5 725.5,-75.5 725.5,-56.5 641.5,-56.5"/>
<text text-anchor="middle" x="683.5" y="-63.5" font-family="Helvetica,sans-Serif" font-size="10.00">boost/any.hpp</text>
</a>
</g>
</g>
<!-- Node5&#45;&gt;Node9 -->
<g id="edge9" class="edge">
<title>Node5&#45;&gt;Node9</title>
<path fill="none" stroke="midnightblue" d="M655.95,-112.08C660.51,-104.61 667.17,-93.72 672.79,-84.52"/>
<polygon fill="midnightblue" stroke="midnightblue" points="675.92,-86.11 678.15,-75.75 669.95,-82.46 675.92,-86.11"/>
</g>
<!-- Node10 -->
<g id="node10" class="node">
<title>Node10</title>
<g id="a_node10"><a xlink:title=" ">
<polygon fill="white" stroke="#bfbfbf" points="743.5,-56.5 743.5,-75.5 811.5,-75.5 811.5,-56.5 743.5,-56.5"/>
<text text-anchor="middle" x="777.5" y="-63.5" font-family="Helvetica,sans-Serif" font-size="10.00">sys/time.h</text>
</a>
</g>
</g>
<!-- Node5&#45;&gt;Node10 -->
<g id="edge10" class="edge">
<title>Node5&#45;&gt;Node10</title>
<path fill="none" stroke="midnightblue" d="M670.62,-112.44C691.52,-103.56 724.43,-89.56 748.22,-79.45"/>
<polygon fill="midnightblue" stroke="midnightblue" points="749.64,-82.65 757.47,-75.52 746.9,-76.21 749.64,-82.65"/>
</g>
<!-- Node7 -->
<g id="node7" class="node">
<title>Node7</title>
<g id="a_node7"><a xlink:title=" ">
<polygon fill="white" stroke="#bfbfbf" points="582.5,-0.5 582.5,-19.5 632.5,-19.5 632.5,-0.5 582.5,-0.5"/>
<text text-anchor="middle" x="607.5" y="-7.5" font-family="Helvetica,sans-Serif" font-size="10.00">stdio.h</text>
</a>
</g>
</g>
<!-- Node6&#45;&gt;Node7 -->
<g id="edge6" class="edge">
<title>Node6&#45;&gt;Node7</title>
<path fill="none" stroke="midnightblue" d="M579.11,-56.08C583.87,-48.53 590.82,-37.49 596.65,-28.23"/>
<polygon fill="midnightblue" stroke="midnightblue" points="599.62,-30.08 601.99,-19.75 593.7,-26.35 599.62,-30.08"/>
</g>
<!-- Node8 -->
<g id="node8" class="node">
<title>Node8</title>
<g id="a_node8"><a xlink:title=" ">
<polygon fill="white" stroke="#bfbfbf" points="516.5,-0.5 516.5,-19.5 564.5,-19.5 564.5,-0.5 516.5,-0.5"/>
<text text-anchor="middle" x="540.5" y="-7.5" font-family="Helvetica,sans-Serif" font-size="10.00">time.h</text>
</a>
</g>
</g>
<!-- Node6&#45;&gt;Node8 -->
<g id="edge7" class="edge">
<title>Node6&#45;&gt;Node8</title>
<path fill="none" stroke="midnightblue" d="M568.05,-56.08C563.49,-48.61 556.83,-37.72 551.21,-28.52"/>
<polygon fill="midnightblue" stroke="midnightblue" points="554.05,-26.46 545.85,-19.75 548.08,-30.11 554.05,-26.46"/>
</g>
<!-- Node12&#45;&gt;Node3 -->
<g id="edge19" class="edge">
<title>Node12&#45;&gt;Node3</title>
<path fill="none" stroke="midnightblue" d="M335.58,-112.08C343.67,-104.14 355.7,-92.34 365.41,-82.8"/>
<polygon fill="midnightblue" stroke="midnightblue" points="367.9,-85.25 372.59,-75.75 363,-80.26 367.9,-85.25"/>
</g>
<!-- Node12&#45;&gt;Node4 -->
<g id="edge20" class="edge">
<title>Node12&#45;&gt;Node4</title>
<path fill="none" stroke="midnightblue" d="M350.58,-112.44C376.04,-103.4 416.39,-89.06 444.96,-78.92"/>
<polygon fill="midnightblue" stroke="midnightblue" points="446.28,-82.16 454.53,-75.52 443.93,-75.57 446.28,-82.16"/>
</g>
<!-- Node13 -->
<g id="node13" class="node">
<title>Node13</title>
<g id="a_node13"><a xlink:href="_o_m_sim_p_m_t_response_8hh.html" target="_top" xlink:title="Provides simulation for PMT response. This class is responsible for transforming hits on photocathode...">
<polygon fill="white" stroke="black" points="177,-56.5 177,-75.5 312,-75.5 312,-56.5 177,-56.5"/>
<text text-anchor="middle" x="244.5" y="-63.5" font-family="Helvetica,sans-Serif" font-size="10.00">OMSimPMTResponse.hh</text>
</a>
</g>
</g>
<!-- Node12&#45;&gt;Node13 -->
<g id="edge13" class="edge">
<title>Node12&#45;&gt;Node13</title>
<path fill="none" stroke="midnightblue" d="M313.33,-112.32C300.65,-103.98 281.27,-91.21 266.29,-81.35"/>
<polygon fill="midnightblue" stroke="midnightblue" points="267.92,-78.23 257.64,-75.65 264.07,-84.08 267.92,-78.23"/>
</g>
<!-- Node14 -->
<g id="node14" class="node">
<title>Node14</title>
<g id="a_node14"><a xlink:title=" ">
<polygon fill="white" stroke="#bfbfbf" points="71,-0.5 71,-19.5 190,-19.5 190,-0.5 71,-0.5"/>
<text text-anchor="middle" x="130.5" y="-7.5" font-family="Helvetica,sans-Serif" font-size="10.00">G4SystemOfUnits.hh</text>
</a>
</g>
</g>
<!-- Node13&#45;&gt;Node14 -->
<g id="edge14" class="edge">
<title>Node13&#45;&gt;Node14</title>
<path fill="none" stroke="midnightblue" d="M226.44,-56.44C207.93,-47.68 178.92,-33.94 157.64,-23.86"/>
<polygon fill="midnightblue" stroke="midnightblue" points="159.01,-20.63 148.48,-19.52 156.02,-26.96 159.01,-20.63"/>
</g>
<!-- Node15 -->
<g id="node15" class="node">
<title>Node15</title>
<g id="a_node15"><a xlink:title=" ">
<polygon fill="white" stroke="#bfbfbf" points="208,-0.5 208,-19.5 281,-19.5 281,-0.5 208,-0.5"/>
<text text-anchor="middle" x="244.5" y="-7.5" font-family="Helvetica,sans-Serif" font-size="10.00">G4Types.hh</text>
</a>
</g>
</g>
<!-- Node13&#45;&gt;Node15 -->
<g id="edge15" class="edge">
<title>Node13&#45;&gt;Node15</title>
<path fill="none" stroke="midnightblue" d="M244.5,-56.08C244.5,-49.01 244.5,-38.86 244.5,-29.99"/>
<polygon fill="midnightblue" stroke="midnightblue" points="248,-29.75 244.5,-19.75 241,-29.75 248,-29.75"/>
</g>
<!-- Node16 -->
<g id="node16" class="node">
<title>Node16</title>
<g id="a_node16"><a xlink:title=" ">
<polygon fill="white" stroke="#bfbfbf" points="299.5,-0.5 299.5,-19.5 337.5,-19.5 337.5,-0.5 299.5,-0.5"/>
<text text-anchor="middle" x="318.5" y="-7.5" font-family="Helvetica,sans-Serif" font-size="10.00">map</text>
</a>
</g>
</g>
<!-- Node13&#45;&gt;Node16 -->
<g id="edge16" class="edge">
<title>Node13&#45;&gt;Node16</title>
<path fill="none" stroke="midnightblue" d="M256.39,-56.32C267.65,-48.11 284.79,-35.6 298.21,-25.81"/>
<polygon fill="midnightblue" stroke="midnightblue" points="300.38,-28.56 306.39,-19.83 296.25,-22.9 300.38,-28.56"/>
</g>
<!-- Node17 -->
<g id="node17" class="node">
<title>Node17</title>
<g id="a_node17"><a xlink:title=" ">
<polygon fill="white" stroke="#bfbfbf" points="356,-0.5 356,-19.5 417,-19.5 417,-0.5 356,-0.5"/>
<text text-anchor="middle" x="386.5" y="-7.5" font-family="Helvetica,sans-Serif" font-size="10.00">TGraph.h</text>
</a>
</g>
</g>
<!-- Node13&#45;&gt;Node17 -->
<g id="edge17" class="edge">
<title>Node13&#45;&gt;Node17</title>
<path fill="none" stroke="midnightblue" d="M267,-56.44C290.58,-47.48 327.82,-33.31 354.46,-23.18"/>
<polygon fill="midnightblue" stroke="midnightblue" points="356,-26.34 364.1,-19.52 353.51,-19.8 356,-26.34"/>
</g>
<!-- Node18 -->
<g id="node18" class="node">
<title>Node18</title>
<g id="a_node18"><a xlink:title=" ">
<polygon fill="white" stroke="#bfbfbf" points="0,-0.5 0,-19.5 53,-19.5 53,-0.5 0,-0.5"/>
<text text-anchor="middle" x="26.5" y="-7.5" font-family="Helvetica,sans-Serif" font-size="10.00">TH2D.h</text>
</a>
</g>
</g>
<!-- Node13&#45;&gt;Node18 -->
<g id="edge18" class="edge">
<title>Node13&#45;&gt;Node18</title>
<path fill="none" stroke="midnightblue" d="M209.39,-56.48C174.55,-48 119.35,-34.51 63.03,-20.37"/>
<polygon fill="midnightblue" stroke="midnightblue" points="63.8,-16.95 53.25,-17.91 62.09,-23.74 63.8,-16.95"/>
</g>
</g>
</svg>
