<?xml version="1.0" encoding="UTF-8" standalone="no"?>
<!DOCTYPE svg PUBLIC "-//W3C//DTD SVG 1.1//EN"
 "http://www.w3.org/Graphics/SVG/1.1/DTD/svg11.dtd">
<!-- Generated by graphviz version 2.43.0 (0)
 -->
<!-- Title: OMSimIBD.cc Pages: 1 -->
<svg width="1773pt" height="140pt"
 viewBox="0.00 0.00 1773.00 140.00" xmlns="http://www.w3.org/2000/svg" xmlns:xlink="http://www.w3.org/1999/xlink">
<g id="graph0" class="graph" transform="scale(1 1) rotate(0) translate(4 136)">
<title>OMSimIBD.cc</title>
<polygon fill="white" stroke="transparent" points="-4,4 -4,-136 1769,-136 1769,4 -4,4"/>
<!-- Node1 -->
<g id="node1" class="node">
<title>Node1</title>
<g id="a_node1"><a xlink:title=" ">
<polygon fill="#bfbfbf" stroke="black" points="884.5,-112.5 884.5,-131.5 967.5,-131.5 967.5,-112.5 884.5,-112.5"/>
<text text-anchor="middle" x="926" y="-119.5" font-family="Helvetica,sans-Serif" font-size="10.00">OMSimIBD.cc</text>
</a>
</g>
</g>
<!-- Node2 -->
<g id="node2" class="node">
<title>Node2</title>
<g id="a_node2"><a xlink:href="mdom_primary_generator_action_8hh.html" target="_top" xlink:title=" ">
<polygon fill="white" stroke="black" points="19.5,-56.5 19.5,-75.5 200.5,-75.5 200.5,-56.5 19.5,-56.5"/>
<text text-anchor="middle" x="110" y="-63.5" font-family="Helvetica,sans-Serif" font-size="10.00">mdomPrimaryGeneratorAction.hh</text>
</a>
</g>
</g>
<!-- Node1&#45;&gt;Node2 -->
<g id="edge1" class="edge">
<title>Node1&#45;&gt;Node2</title>
<path fill="none" stroke="midnightblue" d="M884.41,-118.78C775.7,-112.89 473.93,-96.01 210.87,-76.05"/>
<polygon fill="midnightblue" stroke="midnightblue" points="210.98,-72.54 200.74,-75.27 210.45,-79.52 210.98,-72.54"/>
</g>
<!-- Node5 -->
<g id="node5" class="node">
<title>Node5</title>
<g id="a_node5"><a xlink:href="_o_m_sim_i_b_d_8hh.html" target="_top" xlink:title="This file contains the class in charge of generating positrons from IBD of supernova antineutrino int...">
<polygon fill="white" stroke="black" points="219,-56.5 219,-75.5 303,-75.5 303,-56.5 219,-56.5"/>
<text text-anchor="middle" x="261" y="-63.5" font-family="Helvetica,sans-Serif" font-size="10.00">OMSimIBD.hh</text>
</a>
</g>
</g>
<!-- Node1&#45;&gt;Node5 -->
<g id="edge4" class="edge">
<title>Node1&#45;&gt;Node5</title>
<path fill="none" stroke="midnightblue" d="M884.17,-119.4C786.18,-115.34 534.04,-103.06 313.4,-76.05"/>
<polygon fill="midnightblue" stroke="midnightblue" points="313.61,-72.55 303.25,-74.8 312.75,-79.5 313.61,-72.55"/>
</g>
<!-- Node8 -->
<g id="node8" class="node">
<title>Node8</title>
<g id="a_node8"><a xlink:href="mdom_analysis_manager_8hh.html" target="_top" xlink:title=" ">
<polygon fill="white" stroke="black" points="445,-56.5 445,-75.5 591,-75.5 591,-56.5 445,-56.5"/>
<text text-anchor="middle" x="518" y="-63.5" font-family="Helvetica,sans-Serif" font-size="10.00">mdomAnalysisManager.hh</text>
</a>
</g>
</g>
<!-- Node1&#45;&gt;Node8 -->
<g id="edge9" class="edge">
<title>Node1&#45;&gt;Node8</title>
<path fill="none" stroke="midnightblue" d="M884.25,-115.47C815.58,-106.39 677.89,-88.16 592.28,-76.83"/>
<polygon fill="midnightblue" stroke="midnightblue" points="592.74,-73.36 582.36,-75.52 591.82,-80.3 592.74,-73.36"/>
</g>
<!-- Node13 -->
<g id="node13" class="node">
<title>Node13</title>
<g id="a_node13"><a xlink:title=" ">
<polygon fill="white" stroke="#bfbfbf" points="609.5,-56.5 609.5,-75.5 682.5,-75.5 682.5,-56.5 609.5,-56.5"/>
<text text-anchor="middle" x="646" y="-63.5" font-family="Helvetica,sans-Serif" font-size="10.00">G4Event.hh</text>
</a>
</g>
</g>
<!-- Node1&#45;&gt;Node13 -->
<g id="edge16" class="edge">
<title>Node1&#45;&gt;Node13</title>
<path fill="none" stroke="midnightblue" d="M884.14,-112.99C839.33,-104.41 765.87,-90.31 692.53,-76.1"/>
<polygon fill="midnightblue" stroke="midnightblue" points="693.14,-72.65 682.66,-74.18 691.81,-79.52 693.14,-72.65"/>
</g>
<!-- Node14 -->
<g id="node14" class="node">
<title>Node14</title>
<g id="a_node14"><a xlink:title=" ">
<polygon fill="white" stroke="#bfbfbf" points="701,-56.5 701,-75.5 853,-75.5 853,-56.5 701,-56.5"/>
<text text-anchor="middle" x="777" y="-63.5" font-family="Helvetica,sans-Serif" font-size="10.00">G4GeneralParticleSource.hh</text>
</a>
</g>
</g>
<!-- Node1&#45;&gt;Node14 -->
<g id="edge17" class="edge">
<title>Node1&#45;&gt;Node14</title>
<path fill="none" stroke="midnightblue" d="M902.39,-112.44C877.54,-103.44 838.23,-89.19 810.25,-79.05"/>
<polygon fill="midnightblue" stroke="midnightblue" points="811.09,-75.63 800.5,-75.52 808.71,-82.21 811.09,-75.63"/>
</g>
<!-- Node15 -->
<g id="node15" class="node">
<title>Node15</title>
<g id="a_node15"><a xlink:title=" ">
<polygon fill="white" stroke="#bfbfbf" points="871.5,-56.5 871.5,-75.5 980.5,-75.5 980.5,-56.5 871.5,-56.5"/>
<text text-anchor="middle" x="926" y="-63.5" font-family="Helvetica,sans-Serif" font-size="10.00">G4ParticleTypes.hh</text>
</a>
</g>
</g>
<!-- Node1&#45;&gt;Node15 -->
<g id="edge18" class="edge">
<title>Node1&#45;&gt;Node15</title>
<path fill="none" stroke="midnightblue" d="M926,-112.08C926,-105.01 926,-94.86 926,-85.99"/>
<polygon fill="midnightblue" stroke="midnightblue" points="929.5,-85.75 926,-75.75 922.5,-85.75 929.5,-85.75"/>
</g>
<!-- Node16 -->
<g id="node16" class="node">
<title>Node16</title>
<g id="a_node16"><a xlink:title=" ">
<polygon fill="white" stroke="#bfbfbf" points="998.5,-56.5 998.5,-75.5 1099.5,-75.5 1099.5,-56.5 998.5,-56.5"/>
<text text-anchor="middle" x="1049" y="-63.5" font-family="Helvetica,sans-Serif" font-size="10.00">G4ParticleGun.hh</text>
</a>
</g>
</g>
<!-- Node1&#45;&gt;Node16 -->
<g id="edge19" class="edge">
<title>Node1&#45;&gt;Node16</title>
<path fill="none" stroke="midnightblue" d="M945.49,-112.44C965.64,-103.6 997.32,-89.69 1020.33,-79.59"/>
<polygon fill="midnightblue" stroke="midnightblue" points="1021.85,-82.74 1029.6,-75.52 1019.04,-76.33 1021.85,-82.74"/>
</g>
<!-- Node17 -->
<g id="node17" class="node">
<title>Node17</title>
<g id="a_node17"><a xlink:title=" ">
<polygon fill="white" stroke="#bfbfbf" points="1117.5,-56.5 1117.5,-75.5 1224.5,-75.5 1224.5,-56.5 1117.5,-56.5"/>
<text text-anchor="middle" x="1171" y="-63.5" font-family="Helvetica,sans-Serif" font-size="10.00">G4ParticleTable.hh</text>
</a>
</g>
</g>
<!-- Node1&#45;&gt;Node17 -->
<g id="edge20" class="edge">
<title>Node1&#45;&gt;Node17</title>
<path fill="none" stroke="midnightblue" d="M964.82,-112.44C1007.56,-103.02 1076.33,-87.87 1122.57,-77.68"/>
<polygon fill="midnightblue" stroke="midnightblue" points="1123.35,-81.09 1132.36,-75.52 1121.84,-74.25 1123.35,-81.09"/>
</g>
<!-- Node18 -->
<g id="node18" class="node">
<title>Node18</title>
<g id="a_node18"><a xlink:title=" ">
<polygon fill="white" stroke="#bfbfbf" points="1243,-56.5 1243,-75.5 1371,-75.5 1371,-56.5 1243,-56.5"/>
<text text-anchor="middle" x="1307" y="-63.5" font-family="Helvetica,sans-Serif" font-size="10.00">G4ParticleDefinition.hh</text>
</a>
</g>
</g>
<!-- Node1&#45;&gt;Node18 -->
<g id="edge21" class="edge">
<title>Node1&#45;&gt;Node18</title>
<path fill="none" stroke="midnightblue" d="M967.86,-115.07C1032.61,-105.89 1157.79,-88.15 1236.62,-76.97"/>
<polygon fill="midnightblue" stroke="midnightblue" points="1237.54,-80.38 1246.95,-75.51 1236.56,-73.45 1237.54,-80.38"/>
</g>
<!-- Node19 -->
<g id="node19" class="node">
<title>Node19</title>
<g id="a_node19"><a xlink:title=" ">
<polygon fill="white" stroke="#bfbfbf" points="1389,-56.5 1389,-75.5 1523,-75.5 1523,-56.5 1389,-56.5"/>
<text text-anchor="middle" x="1456" y="-63.5" font-family="Helvetica,sans-Serif" font-size="10.00">G4PhysicalConstants.hh</text>
</a>
</g>
</g>
<!-- Node1&#45;&gt;Node19 -->
<g id="edge22" class="edge">
<title>Node1&#45;&gt;Node19</title>
<path fill="none" stroke="midnightblue" d="M967.65,-117.14C1045.91,-109.83 1220.51,-93.24 1378.49,-76.15"/>
<polygon fill="midnightblue" stroke="midnightblue" points="1379.31,-79.58 1388.87,-75.02 1378.55,-72.62 1379.31,-79.58"/>
</g>
<!-- Node20 -->
<g id="node20" class="node">
<title>Node20</title>
<g id="a_node20"><a xlink:title=" ">
<polygon fill="white" stroke="#bfbfbf" points="1541.5,-56.5 1541.5,-75.5 1660.5,-75.5 1660.5,-56.5 1541.5,-56.5"/>
<text text-anchor="middle" x="1601" y="-63.5" font-family="Helvetica,sans-Serif" font-size="10.00">G4SystemOfUnits.hh</text>
</a>
</g>
</g>
<!-- Node1&#45;&gt;Node20 -->
<g id="edge23" class="edge">
<title>Node1&#45;&gt;Node20</title>
<path fill="none" stroke="midnightblue" d="M967.58,-118.71C1064.4,-113.21 1312.6,-98.12 1531.13,-76.03"/>
<polygon fill="midnightblue" stroke="midnightblue" points="1531.59,-79.5 1541.18,-75.01 1530.88,-72.54 1531.59,-79.5"/>
</g>
<!-- Node21 -->
<g id="node21" class="node">
<title>Node21</title>
<g id="a_node21"><a xlink:title=" ">
<polygon fill="white" stroke="#bfbfbf" points="1679,-56.5 1679,-75.5 1765,-75.5 1765,-56.5 1679,-56.5"/>
<text text-anchor="middle" x="1722" y="-63.5" font-family="Helvetica,sans-Serif" font-size="10.00">Randomize.hh</text>
</a>
</g>
</g>
<!-- Node1&#45;&gt;Node21 -->
<g id="edge24" class="edge">
<title>Node1&#45;&gt;Node21</title>
<path fill="none" stroke="midnightblue" d="M967.68,-120.1C1079.54,-117.34 1395.77,-107.26 1668.82,-76"/>
<polygon fill="midnightblue" stroke="midnightblue" points="1669.39,-79.46 1678.92,-74.83 1668.59,-72.51 1669.39,-79.46"/>
</g>
<!-- Node22 -->
<g id="node22" class="node">
<title>Node22</title>
<g id="a_node22"><a xlink:href="_o_m_sim_s_n_tools_8hh.html" target="_top" xlink:title="Provides the definition for the OMSimSNTools class, centralizing utility methods for Supernova (SN) n...">
<polygon fill="white" stroke="black" points="321.5,-56.5 321.5,-75.5 426.5,-75.5 426.5,-56.5 321.5,-56.5"/>
<text text-anchor="middle" x="374" y="-63.5" font-family="Helvetica,sans-Serif" font-size="10.00">OMSimSNTools.hh</text>
</a>
</g>
</g>
<!-- Node1&#45;&gt;Node22 -->
<g id="edge25" class="edge">
<title>Node1&#45;&gt;Node22</title>
<path fill="none" stroke="midnightblue" d="M884.3,-117.91C801.26,-111.61 609.14,-96.22 436.76,-76.03"/>
<polygon fill="midnightblue" stroke="midnightblue" points="437.08,-72.54 426.74,-74.85 436.26,-79.5 437.08,-72.54"/>
</g>
<!-- Node3 -->
<g id="node3" class="node">
<title>Node3</title>
<g id="a_node3"><a xlink:title=" ">
<polygon fill="white" stroke="#bfbfbf" points="0,-0.5 0,-19.5 192,-19.5 192,-0.5 0,-0.5"/>
<text text-anchor="middle" x="96" y="-7.5" font-family="Helvetica,sans-Serif" font-size="10.00">G4VUserPrimaryGeneratorAction.hh</text>
</a>
</g>
</g>
<!-- Node2&#45;&gt;Node3 -->
<g id="edge2" class="edge">
<title>Node2&#45;&gt;Node3</title>
<path fill="none" stroke="midnightblue" d="M107.69,-56.08C105.83,-48.93 103.16,-38.64 100.85,-29.69"/>
<polygon fill="midnightblue" stroke="midnightblue" points="104.17,-28.55 98.27,-19.75 97.39,-30.31 104.17,-28.55"/>
</g>
<!-- Node4 -->
<g id="node4" class="node">
<title>Node4</title>
<g id="a_node4"><a xlink:title=" ">
<polygon fill="white" stroke="#bfbfbf" points="210.5,-0.5 210.5,-19.5 277.5,-19.5 277.5,-0.5 210.5,-0.5"/>
<text text-anchor="middle" x="244" y="-7.5" font-family="Helvetica,sans-Serif" font-size="10.00">globals.hh</text>
</a>
</g>
</g>
<!-- Node2&#45;&gt;Node4 -->
<g id="edge3" class="edge">
<title>Node2&#45;&gt;Node4</title>
<path fill="none" stroke="midnightblue" d="M131.23,-56.44C153.38,-47.52 188.32,-33.44 213.44,-23.32"/>
<polygon fill="midnightblue" stroke="midnightblue" points="214.9,-26.5 222.87,-19.52 212.28,-20.01 214.9,-26.5"/>
</g>
<!-- Node5&#45;&gt;Node3 -->
<g id="edge5" class="edge">
<title>Node5&#45;&gt;Node3</title>
<path fill="none" stroke="midnightblue" d="M234.86,-56.44C206.98,-47.32 162.65,-32.81 131.6,-22.65"/>
<polygon fill="midnightblue" stroke="midnightblue" points="132.62,-19.3 122.02,-19.52 130.44,-25.95 132.62,-19.3"/>
</g>
<!-- Node5&#45;&gt;Node4 -->
<g id="edge6" class="edge">
<title>Node5&#45;&gt;Node4</title>
<path fill="none" stroke="midnightblue" d="M258.19,-56.08C255.92,-48.85 252.63,-38.41 249.79,-29.4"/>
<polygon fill="midnightblue" stroke="midnightblue" points="253.1,-28.24 246.75,-19.75 246.42,-30.34 253.1,-28.24"/>
</g>
<!-- Node6 -->
<g id="node6" class="node">
<title>Node6</title>
<g id="a_node6"><a xlink:title=" ">
<polygon fill="white" stroke="#bfbfbf" points="295.5,-0.5 295.5,-19.5 342.5,-19.5 342.5,-0.5 295.5,-0.5"/>
<text text-anchor="middle" x="319" y="-7.5" font-family="Helvetica,sans-Serif" font-size="10.00">vector</text>
</a>
</g>
</g>
<!-- Node5&#45;&gt;Node6 -->
<g id="edge7" class="edge">
<title>Node5&#45;&gt;Node6</title>
<path fill="none" stroke="midnightblue" d="M270.32,-56.32C278.89,-48.34 291.81,-36.31 302.19,-26.65"/>
<polygon fill="midnightblue" stroke="midnightblue" points="304.58,-29.21 309.51,-19.83 299.81,-24.09 304.58,-29.21"/>
</g>
<!-- Node7 -->
<g id="node7" class="node">
<title>Node7</title>
<g id="a_node7"><a xlink:title=" ">
<polygon fill="white" stroke="#bfbfbf" points="360.5,-0.5 360.5,-19.5 463.5,-19.5 463.5,-0.5 360.5,-0.5"/>
<text text-anchor="middle" x="412" y="-7.5" font-family="Helvetica,sans-Serif" font-size="10.00">G4ThreeVector.hh</text>
</a>
</g>
</g>
<!-- Node5&#45;&gt;Node7 -->
<g id="edge8" class="edge">
<title>Node5&#45;&gt;Node7</title>
<path fill="none" stroke="midnightblue" d="M284.93,-56.44C310.22,-47.4 350.3,-33.06 378.68,-22.92"/>
<polygon fill="midnightblue" stroke="midnightblue" points="379.95,-26.18 388.19,-19.52 377.59,-19.59 379.95,-26.18"/>
</g>
<!-- Node8&#45;&gt;Node6 -->
<g id="edge13" class="edge">
<title>Node8&#45;&gt;Node6</title>
<path fill="none" stroke="midnightblue" d="M485.96,-56.48C454.29,-48.03 404.2,-34.6 352.44,-20.38"/>
<polygon fill="midnightblue" stroke="midnightblue" points="353.33,-16.99 342.76,-17.71 351.47,-23.74 353.33,-16.99"/>
</g>
<!-- Node8&#45;&gt;Node7 -->
<g id="edge12" class="edge">
<title>Node8&#45;&gt;Node7</title>
<path fill="none" stroke="midnightblue" d="M500.97,-56.32C483.97,-47.66 457.62,-34.24 438.01,-24.25"/>
<polygon fill="midnightblue" stroke="midnightblue" points="439.49,-21.08 428.99,-19.65 436.31,-27.31 439.49,-21.08"/>
</g>
<!-- Node9 -->
<g id="node9" class="node">
<title>Node9</title>
<g id="a_node9"><a xlink:title=" ">
<polygon fill="white" stroke="#bfbfbf" points="481.5,-0.5 481.5,-19.5 554.5,-19.5 554.5,-0.5 481.5,-0.5"/>
<text text-anchor="middle" x="518" y="-7.5" font-family="Helvetica,sans-Serif" font-size="10.00">G4Types.hh</text>
</a>
</g>
</g>
<!-- Node8&#45;&gt;Node9 -->
<g id="edge10" class="edge">
<title>Node8&#45;&gt;Node9</title>
<path fill="none" stroke="midnightblue" d="M518,-56.08C518,-49.01 518,-38.86 518,-29.99"/>
<polygon fill="midnightblue" stroke="midnightblue" points="521.5,-29.75 518,-19.75 514.5,-29.75 521.5,-29.75"/>
</g>
<!-- Node10 -->
<g id="node10" class="node">
<title>Node10</title>
<g id="a_node10"><a xlink:title=" ">
<polygon fill="white" stroke="#bfbfbf" points="573,-0.5 573,-19.5 647,-19.5 647,-0.5 573,-0.5"/>
<text text-anchor="middle" x="610" y="-7.5" font-family="Helvetica,sans-Serif" font-size="10.00">G4String.hh</text>
</a>
</g>
</g>
<!-- Node8&#45;&gt;Node10 -->
<g id="edge11" class="edge">
<title>Node8&#45;&gt;Node10</title>
<path fill="none" stroke="midnightblue" d="M532.78,-56.32C547.27,-47.82 569.57,-34.73 586.49,-24.8"/>
<polygon fill="midnightblue" stroke="midnightblue" points="588.4,-27.74 595.26,-19.65 584.86,-21.7 588.4,-27.74"/>
</g>
<!-- Node11 -->
<g id="node11" class="node">
<title>Node11</title>
<g id="a_node11"><a xlink:title=" ">
<polygon fill="white" stroke="#bfbfbf" points="665.5,-0.5 665.5,-19.5 720.5,-19.5 720.5,-0.5 665.5,-0.5"/>
<text text-anchor="middle" x="693" y="-7.5" font-family="Helvetica,sans-Serif" font-size="10.00">fstream</text>
</a>
</g>
</g>
<!-- Node8&#45;&gt;Node11 -->
<g id="edge14" class="edge">
<title>Node8&#45;&gt;Node11</title>
<path fill="none" stroke="midnightblue" d="M545.73,-56.44C575.43,-47.28 622.72,-32.69 655.67,-22.52"/>
<polygon fill="midnightblue" stroke="midnightblue" points="656.88,-25.81 665.4,-19.52 654.81,-19.12 656.88,-25.81"/>
</g>
<!-- Node12 -->
<g id="node12" class="node">
<title>Node12</title>
<g id="a_node12"><a xlink:title=" ">
<polygon fill="white" stroke="#bfbfbf" points="738.5,-0.5 738.5,-19.5 779.5,-19.5 779.5,-0.5 738.5,-0.5"/>
<text text-anchor="middle" x="759" y="-7.5" font-family="Helvetica,sans-Serif" font-size="10.00">tuple</text>
</a>
</g>
</g>
<!-- Node8&#45;&gt;Node12 -->
<g id="edge15" class="edge">
<title>Node8&#45;&gt;Node12</title>
<path fill="none" stroke="midnightblue" d="M564.19,-56.46C605.14,-48.61 666.74,-36.11 728.55,-20.21"/>
<polygon fill="midnightblue" stroke="midnightblue" points="729.68,-23.53 738.47,-17.63 727.91,-16.76 729.68,-23.53"/>
</g>
<!-- Node22&#45;&gt;Node4 -->
<g id="edge26" class="edge">
<title>Node22&#45;&gt;Node4</title>
<path fill="none" stroke="midnightblue" d="M353.4,-56.44C332.01,-47.56 298.32,-33.56 273.98,-23.45"/>
<polygon fill="midnightblue" stroke="midnightblue" points="275.08,-20.12 264.5,-19.52 272.39,-26.58 275.08,-20.12"/>
</g>
<!-- Node22&#45;&gt;Node6 -->
<g id="edge27" class="edge">
<title>Node22&#45;&gt;Node6</title>
<path fill="none" stroke="midnightblue" d="M364.92,-56.08C356.83,-48.14 344.8,-36.34 335.09,-26.8"/>
<polygon fill="midnightblue" stroke="midnightblue" points="337.5,-24.26 327.91,-19.75 332.6,-29.25 337.5,-24.26"/>
</g>
<!-- Node22&#45;&gt;Node7 -->
<g id="edge28" class="edge">
<title>Node22&#45;&gt;Node7</title>
<path fill="none" stroke="midnightblue" d="M380.27,-56.08C385.64,-48.46 393.52,-37.26 400.08,-27.94"/>
<polygon fill="midnightblue" stroke="midnightblue" points="402.95,-29.94 405.84,-19.75 397.22,-25.91 402.95,-29.94"/>
</g>
</g>
</svg>
