<?xml version="1.0" encoding="UTF-8" standalone="no"?>
<!DOCTYPE svg PUBLIC "-//W3C//DTD SVG 1.1//EN"
 "http://www.w3.org/Graphics/SVG/1.1/DTD/svg11.dtd">
<!-- Generated by graphviz version 2.43.0 (0)
 -->
<!-- Title: OMSimPMTResponse.cc Pages: 1 -->
<svg width="852pt" height="151pt"
 viewBox="0.00 0.00 851.50 151.00" xmlns="http://www.w3.org/2000/svg" xmlns:xlink="http://www.w3.org/1999/xlink">
<g id="graph0" class="graph" transform="scale(1 1) rotate(0) translate(4 147)">
<title>OMSimPMTResponse.cc</title>
<polygon fill="white" stroke="transparent" points="-4,4 -4,-147 847.5,-147 847.5,4 -4,4"/>
<!-- Node1 -->
<g id="node1" class="node">
<title>Node1</title>
<g id="a_node1"><a xlink:title=" ">
<polygon fill="#bfbfbf" stroke="black" points="472.5,-123.5 472.5,-142.5 606.5,-142.5 606.5,-123.5 472.5,-123.5"/>
<text text-anchor="middle" x="539.5" y="-130.5" font-family="Helvetica,sans-Serif" font-size="10.00">OMSimPMTResponse.cc</text>
</a>
</g>
</g>
<!-- Node2 -->
<g id="node2" class="node">
<title>Node2</title>
<g id="a_node2"><a xlink:href="_o_m_sim_p_m_t_response_8hh.html" target="_top" xlink:title="Provides simulation for PMT response. This class is responsible for transforming hits on photocathode...">
<polygon fill="white" stroke="black" points="472,-67.5 472,-86.5 607,-86.5 607,-67.5 472,-67.5"/>
<text text-anchor="middle" x="539.5" y="-74.5" font-family="Helvetica,sans-Serif" font-size="10.00">OMSimPMTResponse.hh</text>
</a>
</g>
</g>
<!-- Node1&#45;&gt;Node2 -->
<g id="edge1" class="edge">
<title>Node1&#45;&gt;Node2</title>
<path fill="none" stroke="midnightblue" d="M539.5,-123.08C539.5,-116.01 539.5,-105.86 539.5,-96.99"/>
<polygon fill="midnightblue" stroke="midnightblue" points="543,-96.75 539.5,-86.75 536,-96.75 543,-96.75"/>
</g>
<!-- Node8 -->
<g id="node8" class="node">
<title>Node8</title>
<g id="a_node8"><a xlink:href="_o_m_sim_logger_8hh.html" target="_top" xlink:title=" ">
<polygon fill="white" stroke="black" points="703,-67.5 703,-86.5 802,-86.5 802,-67.5 703,-67.5"/>
<text text-anchor="middle" x="752.5" y="-74.5" font-family="Helvetica,sans-Serif" font-size="10.00">OMSimLogger.hh</text>
</a>
</g>
</g>
<!-- Node1&#45;&gt;Node8 -->
<g id="edge7" class="edge">
<title>Node1&#45;&gt;Node8</title>
<path fill="none" stroke="midnightblue" d="M573.25,-123.44C610.02,-114.12 668.95,-99.18 709.12,-89"/>
<polygon fill="midnightblue" stroke="midnightblue" points="710.07,-92.37 718.91,-86.52 708.35,-85.58 710.07,-92.37"/>
</g>
<!-- Node11 -->
<g id="node11" class="node">
<title>Node11</title>
<g id="a_node11"><a xlink:href="_o_m_sim_input_data_8hh.html" target="_top" xlink:title="Input data from external files are read and saved to memory.">
<polygon fill="white" stroke="black" points="227,-67.5 227,-86.5 342,-86.5 342,-67.5 227,-67.5"/>
<text text-anchor="middle" x="284.5" y="-74.5" font-family="Helvetica,sans-Serif" font-size="10.00">OMSimInputData.hh</text>
</a>
</g>
</g>
<!-- Node1&#45;&gt;Node11 -->
<g id="edge10" class="edge">
<title>Node1&#45;&gt;Node11</title>
<path fill="none" stroke="midnightblue" d="M499.09,-123.44C454.52,-114 382.73,-98.8 334.61,-88.61"/>
<polygon fill="midnightblue" stroke="midnightblue" points="335.22,-85.16 324.72,-86.52 333.77,-92.01 335.22,-85.16"/>
</g>
<!-- Node3 -->
<g id="node3" class="node">
<title>Node3</title>
<g id="a_node3"><a xlink:title=" ">
<polygon fill="white" stroke="#bfbfbf" points="292,-6 292,-25 411,-25 411,-6 292,-6"/>
<text text-anchor="middle" x="351.5" y="-13" font-family="Helvetica,sans-Serif" font-size="10.00">G4SystemOfUnits.hh</text>
</a>
</g>
</g>
<!-- Node2&#45;&gt;Node3 -->
<g id="edge2" class="edge">
<title>Node2&#45;&gt;Node3</title>
<path fill="none" stroke="midnightblue" d="M512.56,-67.48C479.9,-57.14 424.68,-39.66 388.16,-28.1"/>
<polygon fill="midnightblue" stroke="midnightblue" points="388.98,-24.69 378.39,-25.01 386.86,-31.36 388.98,-24.69"/>
</g>
<!-- Node4 -->
<g id="node4" class="node">
<title>Node4</title>
<g id="a_node4"><a xlink:title=" ">
<polygon fill="white" stroke="#bfbfbf" points="429,-6 429,-25 502,-25 502,-6 429,-6"/>
<text text-anchor="middle" x="465.5" y="-13" font-family="Helvetica,sans-Serif" font-size="10.00">G4Types.hh</text>
</a>
</g>
</g>
<!-- Node2&#45;&gt;Node4 -->
<g id="edge3" class="edge">
<title>Node2&#45;&gt;Node4</title>
<path fill="none" stroke="midnightblue" d="M528.9,-67.48C517.25,-58.11 498.31,-42.88 484.17,-31.51"/>
<polygon fill="midnightblue" stroke="midnightblue" points="486.07,-28.55 476.08,-25.01 481.68,-34 486.07,-28.55"/>
</g>
<!-- Node5 -->
<g id="node5" class="node">
<title>Node5</title>
<g id="a_node5"><a xlink:title=" ">
<polygon fill="white" stroke="#bfbfbf" points="520.5,-6 520.5,-25 558.5,-25 558.5,-6 520.5,-6"/>
<text text-anchor="middle" x="539.5" y="-13" font-family="Helvetica,sans-Serif" font-size="10.00">map</text>
</a>
</g>
</g>
<!-- Node2&#45;&gt;Node5 -->
<g id="edge4" class="edge">
<title>Node2&#45;&gt;Node5</title>
<path fill="none" stroke="midnightblue" d="M539.5,-67.48C539.5,-59.08 539.5,-45.98 539.5,-35.16"/>
<polygon fill="midnightblue" stroke="midnightblue" points="543,-35.01 539.5,-25.01 536,-35.01 543,-35.01"/>
</g>
<!-- Node6 -->
<g id="node6" class="node">
<title>Node6</title>
<g id="a_node6"><a xlink:title=" ">
<polygon fill="white" stroke="#bfbfbf" points="577,-6 577,-25 638,-25 638,-6 577,-6"/>
<text text-anchor="middle" x="607.5" y="-13" font-family="Helvetica,sans-Serif" font-size="10.00">TGraph.h</text>
</a>
</g>
</g>
<!-- Node2&#45;&gt;Node6 -->
<g id="edge5" class="edge">
<title>Node2&#45;&gt;Node6</title>
<path fill="none" stroke="midnightblue" d="M549.24,-67.48C559.85,-58.2 577.02,-43.17 589.98,-31.83"/>
<polygon fill="midnightblue" stroke="midnightblue" points="592.55,-34.23 597.78,-25.01 587.94,-28.96 592.55,-34.23"/>
</g>
<!-- Node7 -->
<g id="node7" class="node">
<title>Node7</title>
<g id="a_node7"><a xlink:title=" ">
<polygon fill="white" stroke="#bfbfbf" points="656,-6 656,-25 709,-25 709,-6 656,-6"/>
<text text-anchor="middle" x="682.5" y="-13" font-family="Helvetica,sans-Serif" font-size="10.00">TH2D.h</text>
</a>
</g>
</g>
<!-- Node2&#45;&gt;Node7 -->
<g id="edge6" class="edge">
<title>Node2&#45;&gt;Node7</title>
<path fill="none" stroke="midnightblue" d="M559.99,-67.48C584.31,-57.36 625.05,-40.4 652.82,-28.85"/>
<polygon fill="midnightblue" stroke="midnightblue" points="654.16,-32.08 662.05,-25.01 651.47,-25.62 654.16,-32.08"/>
</g>
<!-- Node9 -->
<g id="node9" class="node">
<title>Node9</title>
<g id="a_node9"><a xlink:title=" ">
<polygon fill="white" stroke="#bfbfbf" points="727.5,-6 727.5,-25 777.5,-25 777.5,-6 727.5,-6"/>
<text text-anchor="middle" x="752.5" y="-13" font-family="Helvetica,sans-Serif" font-size="10.00">stdio.h</text>
</a>
</g>
</g>
<!-- Node8&#45;&gt;Node9 -->
<g id="edge8" class="edge">
<title>Node8&#45;&gt;Node9</title>
<path fill="none" stroke="midnightblue" d="M752.5,-67.48C752.5,-59.08 752.5,-45.98 752.5,-35.16"/>
<polygon fill="midnightblue" stroke="midnightblue" points="756,-35.01 752.5,-25.01 749,-35.01 756,-35.01"/>
</g>
<!-- Node10 -->
<g id="node10" class="node">
<title>Node10</title>
<g id="a_node10"><a xlink:title=" ">
<polygon fill="white" stroke="#bfbfbf" points="795.5,-6 795.5,-25 843.5,-25 843.5,-6 795.5,-6"/>
<text text-anchor="middle" x="819.5" y="-13" font-family="Helvetica,sans-Serif" font-size="10.00">time.h</text>
</a>
</g>
</g>
<!-- Node8&#45;&gt;Node10 -->
<g id="edge9" class="edge">
<title>Node8&#45;&gt;Node10</title>
<path fill="none" stroke="midnightblue" d="M762.1,-67.48C772.55,-58.2 789.47,-43.17 802.24,-31.83"/>
<polygon fill="midnightblue" stroke="midnightblue" points="804.77,-34.27 809.92,-25.01 800.12,-29.03 804.77,-34.27"/>
</g>
<!-- Node11&#45;&gt;Node3 -->
<g id="edge12" class="edge">
<title>Node11&#45;&gt;Node3</title>
<path fill="none" stroke="midnightblue" d="M294.1,-67.48C304.55,-58.2 321.47,-43.17 334.24,-31.83"/>
<polygon fill="midnightblue" stroke="midnightblue" points="336.77,-34.27 341.92,-25.01 332.12,-29.03 336.77,-34.27"/>
</g>
<!-- Node12 -->
<g id="node12" class="node">
<title>Node12</title>
<g id="a_node12"><a xlink:title=" ">
<polygon fill="white" stroke="#bfbfbf" points="0,-6 0,-25 143,-25 143,-6 0,-6"/>
<text text-anchor="middle" x="71.5" y="-13" font-family="Helvetica,sans-Serif" font-size="10.00">G4OpBoundaryProcess.hh</text>
</a>
</g>
</g>
<!-- Node11&#45;&gt;Node12 -->
<g id="edge11" class="edge">
<title>Node11&#45;&gt;Node12</title>
<path fill="none" stroke="midnightblue" d="M253.98,-67.48C216.58,-57.03 153.07,-39.29 111.71,-27.73"/>
<polygon fill="midnightblue" stroke="midnightblue" points="112.53,-24.33 101.96,-25.01 110.65,-31.07 112.53,-24.33"/>
</g>
<!-- Node13 -->
<g id="node13" class="node">
<title>Node13</title>
<g id="a_node13"><a xlink:title=" ">
<polygon fill="white" stroke="#bfbfbf" points="161,-0.5 161,-30.5 274,-30.5 274,-0.5 161,-0.5"/>
<text text-anchor="start" x="169" y="-18.5" font-family="Helvetica,sans-Serif" font-size="10.00">boost/property_tree</text>
<text text-anchor="middle" x="217.5" y="-7.5" font-family="Helvetica,sans-Serif" font-size="10.00">/json_parser.hpp</text>
</a>
</g>
</g>
<!-- Node11&#45;&gt;Node13 -->
<g id="edge13" class="edge">
<title>Node11&#45;&gt;Node13</title>
<path fill="none" stroke="midnightblue" d="M274.9,-67.48C266.08,-59.64 252.65,-47.71 241,-37.37"/>
<polygon fill="midnightblue" stroke="midnightblue" points="243.09,-34.55 233.29,-30.52 238.44,-39.78 243.09,-34.55"/>
</g>
</g>
</svg>
