<?xml version="1.0" encoding="UTF-8" standalone="no"?>
<!DOCTYPE svg PUBLIC "-//W3C//DTD SVG 1.1//EN"
 "http://www.w3.org/Graphics/SVG/1.1/DTD/svg11.dtd">
<!-- Generated by graphviz version 2.43.0 (0)
 -->
<!-- Title: OMSimPMTConstruction.hh Pages: 1 -->
<svg width="1292pt" height="252pt"
 viewBox="0.00 0.00 1291.50 252.00" xmlns="http://www.w3.org/2000/svg" xmlns:xlink="http://www.w3.org/1999/xlink">
<g id="graph0" class="graph" transform="scale(1 1) rotate(0) translate(4 248)">
<title>OMSimPMTConstruction.hh</title>
<polygon fill="white" stroke="transparent" points="-4,4 -4,-248 1287.5,-248 1287.5,4 -4,4"/>
<!-- Node1 -->
<g id="node1" class="node">
<title>Node1</title>
<g id="a_node1"><a xlink:title=" ">
<polygon fill="#bfbfbf" stroke="black" points="579.5,-224.5 579.5,-243.5 728.5,-243.5 728.5,-224.5 579.5,-224.5"/>
<text text-anchor="middle" x="654" y="-231.5" font-family="Helvetica,sans-Serif" font-size="10.00">OMSimPMTConstruction.hh</text>
</a>
</g>
</g>
<!-- Node2 -->
<g id="node2" class="node">
<title>Node2</title>
<g id="a_node2"><a xlink:href="_o_m_sim_d_e_g_g_8hh.html" target="_top" xlink:title=" ">
<polygon fill="white" stroke="black" points="36.5,-168.5 36.5,-187.5 131.5,-187.5 131.5,-168.5 36.5,-168.5"/>
<text text-anchor="middle" x="84" y="-175.5" font-family="Helvetica,sans-Serif" font-size="10.00">OMSimDEGG.hh</text>
</a>
</g>
</g>
<!-- Node1&#45;&gt;Node2 -->
<g id="edge1" class="edge">
<title>Node1&#45;&gt;Node2</title>
<path fill="none" stroke="midnightblue" d="M569.27,-226.95C468.3,-219.4 294.58,-205.35 146,-188 141.35,-187.46 136.52,-186.84 131.69,-186.2"/>
<polygon fill="midnightblue" stroke="midnightblue" points="569.18,-230.45 579.41,-227.7 569.7,-223.47 569.18,-230.45"/>
</g>
<!-- Node4 -->
<g id="node4" class="node">
<title>Node4</title>
<g id="a_node4"><a xlink:href="_o_m_sim_detector_construction_8cc.html" target="_top" xlink:title="User defined detector.">
<polygon fill="white" stroke="black" points="269.5,-56.5 269.5,-75.5 438.5,-75.5 438.5,-56.5 269.5,-56.5"/>
<text text-anchor="middle" x="354" y="-63.5" font-family="Helvetica,sans-Serif" font-size="10.00">OMSimDetectorConstruction.cc</text>
</a>
</g>
</g>
<!-- Node1&#45;&gt;Node4 -->
<g id="edge26" class="edge">
<title>Node1&#45;&gt;Node4</title>
<path fill="none" stroke="midnightblue" d="M569.08,-229.88C448.82,-224.63 240.69,-212.15 216,-188 191.75,-164.28 188.88,-139.31 209,-112 223.38,-92.48 246.16,-81.17 269.43,-74.7"/>
<polygon fill="midnightblue" stroke="midnightblue" points="569.22,-233.39 579.36,-230.32 569.52,-226.4 569.22,-233.39"/>
</g>
<!-- Node5 -->
<g id="node5" class="node">
<title>Node5</title>
<g id="a_node5"><a xlink:href="_o_m_sim_l_o_m16_8hh.html" target="_top" xlink:title=" ">
<polygon fill="white" stroke="black" points="225.5,-168.5 225.5,-187.5 326.5,-187.5 326.5,-168.5 225.5,-168.5"/>
<text text-anchor="middle" x="276" y="-175.5" font-family="Helvetica,sans-Serif" font-size="10.00">OMSimLOM16.hh</text>
</a>
</g>
</g>
<!-- Node1&#45;&gt;Node5 -->
<g id="edge4" class="edge">
<title>Node1&#45;&gt;Node5</title>
<path fill="none" stroke="midnightblue" d="M583.85,-222.98C509.14,-212.31 392.74,-195.68 326.54,-186.22"/>
<polygon fill="midnightblue" stroke="midnightblue" points="583.71,-226.49 594.1,-224.44 584.7,-219.56 583.71,-226.49"/>
</g>
<!-- Node7 -->
<g id="node7" class="node">
<title>Node7</title>
<g id="a_node7"><a xlink:href="_o_m_sim_l_o_m18_8hh.html" target="_top" xlink:title=" ">
<polygon fill="white" stroke="black" points="381.5,-168.5 381.5,-187.5 482.5,-187.5 482.5,-168.5 381.5,-168.5"/>
<text text-anchor="middle" x="432" y="-175.5" font-family="Helvetica,sans-Serif" font-size="10.00">OMSimLOM18.hh</text>
</a>
</g>
</g>
<!-- Node1&#45;&gt;Node7 -->
<g id="edge7" class="edge">
<title>Node1&#45;&gt;Node7</title>
<path fill="none" stroke="midnightblue" d="M608.88,-222.02C566.94,-211.82 505.35,-196.84 467.01,-187.52"/>
<polygon fill="midnightblue" stroke="midnightblue" points="608.28,-225.48 618.82,-224.44 609.93,-218.68 608.28,-225.48"/>
</g>
<!-- Node9 -->
<g id="node9" class="node">
<title>Node9</title>
<g id="a_node9"><a xlink:href="_o_m_sim_m_d_o_m_8hh.html" target="_top" xlink:title=" ">
<polygon fill="white" stroke="black" points="604,-168.5 604,-187.5 704,-187.5 704,-168.5 604,-168.5"/>
<text text-anchor="middle" x="654" y="-175.5" font-family="Helvetica,sans-Serif" font-size="10.00">OMSimMDOM.hh</text>
</a>
</g>
</g>
<!-- Node1&#45;&gt;Node9 -->
<g id="edge10" class="edge">
<title>Node1&#45;&gt;Node9</title>
<path fill="none" stroke="midnightblue" d="M654,-213.8C654,-204.91 654,-194.78 654,-187.75"/>
<polygon fill="midnightblue" stroke="midnightblue" points="650.5,-214.08 654,-224.08 657.5,-214.08 650.5,-214.08"/>
</g>
<!-- Node13 -->
<g id="node13" class="node">
<title>Node13</title>
<g id="a_node13"><a xlink:href="_o_m_sim_detector_construction_8hh.html" target="_top" xlink:title=" ">
<polygon fill="white" stroke="black" points="962,-112.5 962,-131.5 1132,-131.5 1132,-112.5 962,-112.5"/>
<text text-anchor="middle" x="1047" y="-119.5" font-family="Helvetica,sans-Serif" font-size="10.00">OMSimDetectorConstruction.hh</text>
</a>
</g>
</g>
<!-- Node1&#45;&gt;Node13 -->
<g id="edge25" class="edge">
<title>Node1&#45;&gt;Node13</title>
<path fill="none" stroke="midnightblue" d="M671.65,-217.8C690.31,-202.62 721.25,-179.87 752,-168 789.76,-153.42 891.32,-139.87 964.74,-131.53"/>
<polygon fill="midnightblue" stroke="midnightblue" points="669.2,-215.29 663.76,-224.38 673.68,-220.67 669.2,-215.29"/>
</g>
<!-- Node17 -->
<g id="node17" class="node">
<title>Node17</title>
<g id="a_node17"><a xlink:href="_o_m_sim_p_d_o_m_8hh.html" target="_top" xlink:title=" ">
<polygon fill="white" stroke="black" points="760.5,-168.5 760.5,-187.5 857.5,-187.5 857.5,-168.5 760.5,-168.5"/>
<text text-anchor="middle" x="809" y="-175.5" font-family="Helvetica,sans-Serif" font-size="10.00">OMSimPDOM.hh</text>
</a>
</g>
</g>
<!-- Node1&#45;&gt;Node17 -->
<g id="edge20" class="edge">
<title>Node1&#45;&gt;Node17</title>
<path fill="none" stroke="midnightblue" d="M688.33,-221.04C717.5,-210.88 758.64,-196.55 784.55,-187.52"/>
<polygon fill="midnightblue" stroke="midnightblue" points="686.85,-217.85 678.56,-224.44 689.16,-224.46 686.85,-217.85"/>
</g>
<!-- Node19 -->
<g id="node19" class="node">
<title>Node19</title>
<g id="a_node19"><a xlink:href="abc_detector_component_8cc.html" target="_top" xlink:title="Contains the implementation of the abcDetectorComponent class.">
<polygon fill="white" stroke="black" points="876,-168.5 876,-187.5 1022,-187.5 1022,-168.5 876,-168.5"/>
<text text-anchor="middle" x="949" y="-175.5" font-family="Helvetica,sans-Serif" font-size="10.00">abcDetectorComponent.cc</text>
</a>
</g>
</g>
<!-- Node1&#45;&gt;Node19 -->
<g id="edge23" class="edge">
<title>Node1&#45;&gt;Node19</title>
<path fill="none" stroke="midnightblue" d="M710.81,-222.6C766.56,-212.4 850.56,-197.02 902.48,-187.52"/>
<polygon fill="midnightblue" stroke="midnightblue" points="709.95,-219.2 700.74,-224.44 711.21,-226.09 709.95,-219.2"/>
</g>
<!-- Node20 -->
<g id="node20" class="node">
<title>Node20</title>
<g id="a_node20"><a xlink:href="_o_m_sim_p_m_t_construction_8cc.html" target="_top" xlink:title="Construction of the PMTs.">
<polygon fill="white" stroke="black" points="1040.5,-168.5 1040.5,-187.5 1187.5,-187.5 1187.5,-168.5 1040.5,-168.5"/>
<text text-anchor="middle" x="1114" y="-175.5" font-family="Helvetica,sans-Serif" font-size="10.00">OMSimPMTConstruction.cc</text>
</a>
</g>
</g>
<!-- Node1&#45;&gt;Node20 -->
<g id="edge24" class="edge">
<title>Node1&#45;&gt;Node20</title>
<path fill="none" stroke="midnightblue" d="M736.71,-223.29C823.49,-213.1 958.57,-197.25 1041.37,-187.53"/>
<polygon fill="midnightblue" stroke="midnightblue" points="736.16,-219.83 726.63,-224.47 736.97,-226.78 736.16,-219.83"/>
</g>
<!-- Node3 -->
<g id="node3" class="node">
<title>Node3</title>
<g id="a_node3"><a xlink:href="_o_m_sim_d_e_g_g_8cc.html" target="_top" xlink:title="Construction of the DEGG class.">
<polygon fill="white" stroke="black" points="0,-112.5 0,-131.5 94,-131.5 94,-112.5 0,-112.5"/>
<text text-anchor="middle" x="47" y="-119.5" font-family="Helvetica,sans-Serif" font-size="10.00">OMSimDEGG.cc</text>
</a>
</g>
</g>
<!-- Node2&#45;&gt;Node3 -->
<g id="edge2" class="edge">
<title>Node2&#45;&gt;Node3</title>
<path fill="none" stroke="midnightblue" d="M72.05,-159.57C65.69,-150.27 58.13,-139.25 53,-131.75"/>
<polygon fill="midnightblue" stroke="midnightblue" points="69.35,-161.81 77.89,-168.08 75.13,-157.86 69.35,-161.81"/>
</g>
<!-- Node2&#45;&gt;Node4 -->
<g id="edge3" class="edge">
<title>Node2&#45;&gt;Node4</title>
<path fill="none" stroke="midnightblue" d="M95.7,-159.87C106.86,-144.89 125.05,-123.75 146,-112 183.54,-90.95 229.99,-79.74 269.47,-73.77"/>
<polygon fill="midnightblue" stroke="midnightblue" points="92.67,-158.09 89.7,-168.26 98.36,-162.16 92.67,-158.09"/>
</g>
<!-- Node5&#45;&gt;Node4 -->
<g id="edge6" class="edge">
<title>Node5&#45;&gt;Node4</title>
<path fill="none" stroke="midnightblue" d="M249.17,-163.53C227.66,-150.89 203.16,-131.12 217,-112 230.65,-93.14 252.47,-82.05 274.71,-75.56"/>
<polygon fill="midnightblue" stroke="midnightblue" points="247.65,-166.69 258.09,-168.49 251.05,-160.57 247.65,-166.69"/>
</g>
<!-- Node6 -->
<g id="node6" class="node">
<title>Node6</title>
<g id="a_node6"><a xlink:href="_o_m_sim_l_o_m16_8cc.html" target="_top" xlink:title="Construction of LOM16.">
<polygon fill="white" stroke="black" points="226.5,-112.5 226.5,-131.5 325.5,-131.5 325.5,-112.5 226.5,-112.5"/>
<text text-anchor="middle" x="276" y="-119.5" font-family="Helvetica,sans-Serif" font-size="10.00">OMSimLOM16.cc</text>
</a>
</g>
</g>
<!-- Node5&#45;&gt;Node6 -->
<g id="edge5" class="edge">
<title>Node5&#45;&gt;Node6</title>
<path fill="none" stroke="midnightblue" d="M276,-157.8C276,-148.91 276,-138.78 276,-131.75"/>
<polygon fill="midnightblue" stroke="midnightblue" points="272.5,-158.08 276,-168.08 279.5,-158.08 272.5,-158.08"/>
</g>
<!-- Node7&#45;&gt;Node4 -->
<g id="edge9" class="edge">
<title>Node7&#45;&gt;Node4</title>
<path fill="none" stroke="midnightblue" d="M407.01,-163.09C395.16,-155.34 381.72,-144.69 373,-132 360.89,-114.36 356.39,-88.95 354.81,-75.73"/>
<polygon fill="midnightblue" stroke="midnightblue" points="405.31,-166.16 415.66,-168.44 408.99,-160.2 405.31,-166.16"/>
</g>
<!-- Node8 -->
<g id="node8" class="node">
<title>Node8</title>
<g id="a_node8"><a xlink:href="_o_m_sim_l_o_m18_8cc.html" target="_top" xlink:title="Construction of LOM18.">
<polygon fill="white" stroke="black" points="382.5,-112.5 382.5,-131.5 481.5,-131.5 481.5,-112.5 382.5,-112.5"/>
<text text-anchor="middle" x="432" y="-119.5" font-family="Helvetica,sans-Serif" font-size="10.00">OMSimLOM18.cc</text>
</a>
</g>
</g>
<!-- Node7&#45;&gt;Node8 -->
<g id="edge8" class="edge">
<title>Node7&#45;&gt;Node8</title>
<path fill="none" stroke="midnightblue" d="M432,-157.8C432,-148.91 432,-138.78 432,-131.75"/>
<polygon fill="midnightblue" stroke="midnightblue" points="428.5,-158.08 432,-168.08 435.5,-158.08 428.5,-158.08"/>
</g>
<!-- Node9&#45;&gt;Node4 -->
<g id="edge19" class="edge">
<title>Node9&#45;&gt;Node4</title>
<path fill="none" stroke="midnightblue" d="M617.75,-165.32C592.53,-156.87 558.32,-144.73 529,-132 511.13,-124.24 507.97,-119.53 490,-112 454.45,-97.11 412.09,-83.75 384.2,-75.53"/>
<polygon fill="midnightblue" stroke="midnightblue" points="616.69,-168.66 627.28,-168.49 618.89,-162.01 616.69,-168.66"/>
</g>
<!-- Node10 -->
<g id="node10" class="node">
<title>Node10</title>
<g id="a_node10"><a xlink:href="_o_m_sim_m_d_o_m_8cc.html" target="_top" xlink:title="Construction of mDOM.">
<polygon fill="white" stroke="black" points="538,-112.5 538,-131.5 636,-131.5 636,-112.5 538,-112.5"/>
<text text-anchor="middle" x="587" y="-119.5" font-family="Helvetica,sans-Serif" font-size="10.00">OMSimMDOM.cc</text>
</a>
</g>
</g>
<!-- Node9&#45;&gt;Node10 -->
<g id="edge11" class="edge">
<title>Node9&#45;&gt;Node10</title>
<path fill="none" stroke="midnightblue" d="M635.17,-161.82C623.16,-152.15 608.03,-139.95 597.96,-131.83"/>
<polygon fill="midnightblue" stroke="midnightblue" points="633.25,-164.77 643.24,-168.32 637.65,-159.32 633.25,-164.77"/>
</g>
<!-- Node11 -->
<g id="node11" class="node">
<title>Node11</title>
<g id="a_node11"><a xlink:href="_o_m_sim_m_d_o_m_flasher_8cc.html" target="_top" xlink:title=" ">
<polygon fill="white" stroke="black" points="654,-112.5 654,-131.5 788,-131.5 788,-112.5 654,-112.5"/>
<text text-anchor="middle" x="721" y="-119.5" font-family="Helvetica,sans-Serif" font-size="10.00">OMSimMDOMFlasher.cc</text>
</a>
</g>
</g>
<!-- Node9&#45;&gt;Node11 -->
<g id="edge12" class="edge">
<title>Node9&#45;&gt;Node11</title>
<path fill="none" stroke="midnightblue" d="M672.83,-161.82C684.84,-152.15 699.97,-139.95 710.04,-131.83"/>
<polygon fill="midnightblue" stroke="midnightblue" points="670.35,-159.32 664.76,-168.32 674.75,-164.77 670.35,-159.32"/>
</g>
<!-- Node12 -->
<g id="node12" class="node">
<title>Node12</title>
<g id="a_node12"><a xlink:href="_o_m_sim_m_d_o_m_harness_8cc.html" target="_top" xlink:title="Construction of mDOM harness.">
<polygon fill="white" stroke="black" points="806,-112.5 806,-131.5 944,-131.5 944,-112.5 806,-112.5"/>
<text text-anchor="middle" x="875" y="-119.5" font-family="Helvetica,sans-Serif" font-size="10.00">OMSimMDOMHarness.cc</text>
</a>
</g>
</g>
<!-- Node9&#45;&gt;Node12 -->
<g id="edge13" class="edge">
<title>Node9&#45;&gt;Node12</title>
<path fill="none" stroke="midnightblue" d="M698.92,-166.02C740.67,-155.82 801.98,-140.84 840.15,-131.52"/>
<polygon fill="midnightblue" stroke="midnightblue" points="697.9,-162.67 689.02,-168.44 699.56,-169.47 697.9,-162.67"/>
</g>
<!-- Node9&#45;&gt;Node13 -->
<g id="edge14" class="edge">
<title>Node9&#45;&gt;Node13</title>
<path fill="none" stroke="midnightblue" d="M714.21,-168.53C715.49,-168.35 716.75,-168.17 718,-168 810.65,-155.15 918.01,-140.51 984.23,-131.51"/>
<polygon fill="midnightblue" stroke="midnightblue" points="713.73,-165.06 704.31,-169.91 714.69,-171.99 713.73,-165.06"/>
</g>
<!-- Node13&#45;&gt;Node4 -->
<g id="edge18" class="edge">
<title>Node13&#45;&gt;Node4</title>
<path fill="none" stroke="midnightblue" d="M951.8,-111.91C762.34,-95.82 552.93,-80.78 438.86,-72.83"/>
<polygon fill="midnightblue" stroke="midnightblue" points="951.69,-115.42 961.95,-112.78 952.29,-108.44 951.69,-115.42"/>
</g>
<!-- Node14 -->
<g id="node14" class="node">
<title>Node14</title>
<g id="a_node14"><a xlink:href="_o_m_sim_8hh.html" target="_top" xlink:title="Main simulation class for the Optical Module (OM) simulation.">
<polygon fill="white" stroke="black" points="1013.5,-56.5 1013.5,-75.5 1080.5,-75.5 1080.5,-56.5 1013.5,-56.5"/>
<text text-anchor="middle" x="1047" y="-63.5" font-family="Helvetica,sans-Serif" font-size="10.00">OMSim.hh</text>
</a>
</g>
</g>
<!-- Node13&#45;&gt;Node14 -->
<g id="edge15" class="edge">
<title>Node13&#45;&gt;Node14</title>
<path fill="none" stroke="midnightblue" d="M1047,-101.8C1047,-92.91 1047,-82.78 1047,-75.75"/>
<polygon fill="midnightblue" stroke="midnightblue" points="1043.5,-102.08 1047,-112.08 1050.5,-102.08 1043.5,-102.08"/>
</g>
<!-- Node15 -->
<g id="node15" class="node">
<title>Node15</title>
<g id="a_node15"><a xlink:href="_o_m_sim_8cc.html" target="_top" xlink:title=" ">
<polygon fill="white" stroke="black" points="954.5,-0.5 954.5,-19.5 1019.5,-19.5 1019.5,-0.5 954.5,-0.5"/>
<text text-anchor="middle" x="987" y="-7.5" font-family="Helvetica,sans-Serif" font-size="10.00">OMSim.cc</text>
</a>
</g>
</g>
<!-- Node14&#45;&gt;Node15 -->
<g id="edge16" class="edge">
<title>Node14&#45;&gt;Node15</title>
<path fill="none" stroke="midnightblue" d="M1029.82,-49.54C1019.12,-39.91 1005.74,-27.87 996.82,-19.83"/>
<polygon fill="midnightblue" stroke="midnightblue" points="1027.59,-52.24 1037.36,-56.32 1032.27,-47.03 1027.59,-52.24"/>
</g>
<!-- Node16 -->
<g id="node16" class="node">
<title>Node16</title>
<g id="a_node16"><a xlink:href="_o_m_sim__effective__area_8cc.html" target="_top" xlink:title="Main for the calculation of effective areas.">
<polygon fill="white" stroke="black" points="1038,-0.5 1038,-19.5 1178,-19.5 1178,-0.5 1038,-0.5"/>
<text text-anchor="middle" x="1108" y="-7.5" font-family="Helvetica,sans-Serif" font-size="10.00">OMSim_effective_area.cc</text>
</a>
</g>
</g>
<!-- Node14&#45;&gt;Node16 -->
<g id="edge17" class="edge">
<title>Node14&#45;&gt;Node16</title>
<path fill="none" stroke="midnightblue" d="M1064.47,-49.54C1075.34,-39.91 1088.94,-27.87 1098.02,-19.83"/>
<polygon fill="midnightblue" stroke="midnightblue" points="1061.97,-47.07 1056.8,-56.32 1066.61,-52.32 1061.97,-47.07"/>
</g>
<!-- Node17&#45;&gt;Node4 -->
<g id="edge22" class="edge">
<title>Node17&#45;&gt;Node4</title>
<path fill="none" stroke="midnightblue" d="M867.99,-168.04C1001.83,-152.92 1224.18,-200.07 1141,-112 1117.17,-86.77 636.85,-73.27 438.53,-68.75"/>
<polygon fill="midnightblue" stroke="midnightblue" points="867.2,-164.62 857.72,-169.36 868.08,-171.56 867.2,-164.62"/>
</g>
<!-- Node18 -->
<g id="node18" class="node">
<title>Node18</title>
<g id="a_node18"><a xlink:href="_o_m_sim_p_d_o_m_8cc.html" target="_top" xlink:title="Implementation of the pDOM/Gen1 DOM class.">
<polygon fill="white" stroke="black" points="1188.5,-112.5 1188.5,-131.5 1283.5,-131.5 1283.5,-112.5 1188.5,-112.5"/>
<text text-anchor="middle" x="1236" y="-119.5" font-family="Helvetica,sans-Serif" font-size="10.00">OMSimPDOM.cc</text>
</a>
</g>
</g>
<!-- Node17&#45;&gt;Node18 -->
<g id="edge21" class="edge">
<title>Node17&#45;&gt;Node18</title>
<path fill="none" stroke="midnightblue" d="M867.76,-167.94C1004.8,-149.47 1040.98,-149.45 1174,-132 1178.64,-131.39 1183.47,-130.73 1188.29,-130.06"/>
<polygon fill="midnightblue" stroke="midnightblue" points="867.15,-164.49 857.72,-169.31 868.09,-171.43 867.15,-164.49"/>
</g>
</g>
</svg>
