<?xml version="1.0" encoding="UTF-8" standalone="no"?>
<!DOCTYPE svg PUBLIC "-//W3C//DTD SVG 1.1//EN"
 "http://www.w3.org/Graphics/SVG/1.1/DTD/svg11.dtd">
<!-- Generated by graphviz version 2.43.0 (0)
 -->
<!-- Title: OMSimDEGG.cc Pages: 1 -->
<svg width="2681pt" height="375pt"
 viewBox="0.00 0.00 2680.50 375.00" xmlns="http://www.w3.org/2000/svg" xmlns:xlink="http://www.w3.org/1999/xlink">
<g id="graph0" class="graph" transform="scale(1 1) rotate(0) translate(4 371)">
<title>OMSimDEGG.cc</title>
<polygon fill="white" stroke="transparent" points="-4,4 -4,-371 2676.5,-371 2676.5,4 -4,4"/>
<!-- Node1 -->
<g id="node1" class="node">
<title>Node1</title>
<g id="a_node1"><a xlink:title="Construction of the DEGG class.">
<polygon fill="#bfbfbf" stroke="black" points="2102.5,-347.5 2102.5,-366.5 2196.5,-366.5 2196.5,-347.5 2102.5,-347.5"/>
<text text-anchor="middle" x="2149.5" y="-354.5" font-family="Helvetica,sans-Serif" font-size="10.00">OMSimDEGG.cc</text>
</a>
</g>
</g>
<!-- Node2 -->
<g id="node2" class="node">
<title>Node2</title>
<g id="a_node2"><a xlink:href="_o_m_sim_d_e_g_g_8hh.html" target="_top" xlink:title=" ">
<polygon fill="white" stroke="black" points="559,-291.5 559,-310.5 654,-310.5 654,-291.5 559,-291.5"/>
<text text-anchor="middle" x="606.5" y="-298.5" font-family="Helvetica,sans-Serif" font-size="10.00">OMSimDEGG.hh</text>
</a>
</g>
</g>
<!-- Node1&#45;&gt;Node2 -->
<g id="edge1" class="edge">
<title>Node1&#45;&gt;Node2</title>
<path fill="none" stroke="midnightblue" d="M2102.48,-354.35C1877.55,-346.48 912.06,-312.69 664.51,-304.03"/>
<polygon fill="midnightblue" stroke="midnightblue" points="664.41,-300.52 654.29,-303.67 664.16,-307.52 664.41,-300.52"/>
</g>
<!-- Node16 -->
<g id="node16" class="node">
<title>Node16</title>
<g id="a_node16"><a xlink:href="_c_a_d_mesh_8hh.html" target="_top" xlink:title=" ">
<polygon fill="white" stroke="black" points="1572,-291.5 1572,-310.5 1651,-310.5 1651,-291.5 1572,-291.5"/>
<text text-anchor="middle" x="1611.5" y="-298.5" font-family="Helvetica,sans-Serif" font-size="10.00">CADMesh.hh</text>
</a>
</g>
</g>
<!-- Node1&#45;&gt;Node16 -->
<g id="edge17" class="edge">
<title>Node1&#45;&gt;Node16</title>
<path fill="none" stroke="midnightblue" d="M2102.23,-351.26C2001.09,-341.1 1764.52,-317.36 1661.23,-306.99"/>
<polygon fill="midnightblue" stroke="midnightblue" points="1661.37,-303.49 1651.07,-305.97 1660.67,-310.45 1661.37,-303.49"/>
</g>
<!-- Node37 -->
<g id="node37" class="node">
<title>Node37</title>
<g id="a_node37"><a xlink:href="_o_m_sim_logger_8hh.html" target="_top" xlink:title=" ">
<polygon fill="white" stroke="black" points="2100,-291.5 2100,-310.5 2199,-310.5 2199,-291.5 2100,-291.5"/>
<text text-anchor="middle" x="2149.5" y="-298.5" font-family="Helvetica,sans-Serif" font-size="10.00">OMSimLogger.hh</text>
</a>
</g>
</g>
<!-- Node1&#45;&gt;Node37 -->
<g id="edge38" class="edge">
<title>Node1&#45;&gt;Node37</title>
<path fill="none" stroke="midnightblue" d="M2149.5,-347.08C2149.5,-340.01 2149.5,-329.86 2149.5,-320.99"/>
<polygon fill="midnightblue" stroke="midnightblue" points="2153,-320.75 2149.5,-310.75 2146,-320.75 2153,-320.75"/>
</g>
<!-- Node40 -->
<g id="node40" class="node">
<title>Node40</title>
<g id="a_node40"><a xlink:title=" ">
<polygon fill="white" stroke="#bfbfbf" points="2217,-291.5 2217,-310.5 2296,-310.5 2296,-291.5 2217,-291.5"/>
<text text-anchor="middle" x="2256.5" y="-298.5" font-family="Helvetica,sans-Serif" font-size="10.00">G4Sphere.hh</text>
</a>
</g>
</g>
<!-- Node1&#45;&gt;Node40 -->
<g id="edge41" class="edge">
<title>Node1&#45;&gt;Node40</title>
<path fill="none" stroke="midnightblue" d="M2166.69,-347.32C2183.85,-338.66 2210.45,-325.24 2230.25,-315.25"/>
<polygon fill="midnightblue" stroke="midnightblue" points="2232,-318.28 2239.35,-310.65 2228.85,-312.04 2232,-318.28"/>
</g>
<!-- Node41 -->
<g id="node41" class="node">
<title>Node41</title>
<g id="a_node41"><a xlink:title=" ">
<polygon fill="white" stroke="#bfbfbf" points="2314,-291.5 2314,-310.5 2403,-310.5 2403,-291.5 2314,-291.5"/>
<text text-anchor="middle" x="2358.5" y="-298.5" font-family="Helvetica,sans-Serif" font-size="10.00">G4Polycone.hh</text>
</a>
</g>
</g>
<!-- Node1&#45;&gt;Node41 -->
<g id="edge42" class="edge">
<title>Node1&#45;&gt;Node41</title>
<path fill="none" stroke="midnightblue" d="M2182.62,-347.44C2218.62,-338.14 2276.27,-323.25 2315.69,-313.06"/>
<polygon fill="midnightblue" stroke="midnightblue" points="2316.73,-316.41 2325.54,-310.52 2314.98,-309.63 2316.73,-316.41"/>
</g>
<!-- Node3 -->
<g id="node3" class="node">
<title>Node3</title>
<g id="a_node3"><a xlink:href="_o_m_sim_p_m_t_construction_8hh.html" target="_top" xlink:title="Construction of the PMTs.">
<polygon fill="white" stroke="black" points="532,-179.5 532,-198.5 681,-198.5 681,-179.5 532,-179.5"/>
<text text-anchor="middle" x="606.5" y="-186.5" font-family="Helvetica,sans-Serif" font-size="10.00">OMSimPMTConstruction.hh</text>
</a>
</g>
</g>
<!-- Node2&#45;&gt;Node3 -->
<g id="edge2" class="edge">
<title>Node2&#45;&gt;Node3</title>
<path fill="none" stroke="midnightblue" d="M606.5,-291.37C606.5,-273.62 606.5,-232.67 606.5,-208.6"/>
<polygon fill="midnightblue" stroke="midnightblue" points="610,-208.59 606.5,-198.59 603,-208.59 610,-208.59"/>
</g>
<!-- Node15 -->
<g id="node15" class="node">
<title>Node15</title>
<g id="a_node15"><a xlink:href="_o_m_sim_optical_module_8hh.html" target="_top" xlink:title=" ">
<polygon fill="white" stroke="black" points="441,-235.5 441,-254.5 578,-254.5 578,-235.5 441,-235.5"/>
<text text-anchor="middle" x="509.5" y="-242.5" font-family="Helvetica,sans-Serif" font-size="10.00">OMSimOpticalModule.hh</text>
</a>
</g>
</g>
<!-- Node2&#45;&gt;Node15 -->
<g id="edge14" class="edge">
<title>Node2&#45;&gt;Node15</title>
<path fill="none" stroke="midnightblue" d="M590.92,-291.32C575.5,-282.74 551.69,-269.49 533.79,-259.52"/>
<polygon fill="midnightblue" stroke="midnightblue" points="535.49,-256.46 525.05,-254.65 532.08,-262.58 535.49,-256.46"/>
</g>
<!-- Node4 -->
<g id="node4" class="node">
<title>Node4</title>
<g id="a_node4"><a xlink:href="abc_detector_component_8hh.html" target="_top" xlink:title="Provides helper base class abcDetectorComponent for constructing and managing detector components in ...">
<polygon fill="white" stroke="black" points="402,-123.5 402,-142.5 549,-142.5 549,-123.5 402,-123.5"/>
<text text-anchor="middle" x="475.5" y="-130.5" font-family="Helvetica,sans-Serif" font-size="10.00">abcDetectorComponent.hh</text>
</a>
</g>
</g>
<!-- Node3&#45;&gt;Node4 -->
<g id="edge3" class="edge">
<title>Node3&#45;&gt;Node4</title>
<path fill="none" stroke="midnightblue" d="M585.74,-179.44C564.18,-170.56 530.24,-156.56 505.71,-146.45"/>
<polygon fill="midnightblue" stroke="midnightblue" points="506.74,-143.09 496.16,-142.52 504.07,-149.56 506.74,-143.09"/>
</g>
<!-- Node13 -->
<g id="node13" class="node">
<title>Node13</title>
<g id="a_node13"><a xlink:title=" ">
<polygon fill="white" stroke="#bfbfbf" points="567.5,-123.5 567.5,-142.5 665.5,-142.5 665.5,-123.5 567.5,-123.5"/>
<text text-anchor="middle" x="616.5" y="-130.5" font-family="Helvetica,sans-Serif" font-size="10.00">G4UnionSolid.hh</text>
</a>
</g>
</g>
<!-- Node3&#45;&gt;Node13 -->
<g id="edge12" class="edge">
<title>Node3&#45;&gt;Node13</title>
<path fill="none" stroke="midnightblue" d="M608.15,-179.08C609.48,-171.93 611.38,-161.64 613.04,-152.69"/>
<polygon fill="midnightblue" stroke="midnightblue" points="616.5,-153.22 614.88,-142.75 609.62,-151.95 616.5,-153.22"/>
</g>
<!-- Node14 -->
<g id="node14" class="node">
<title>Node14</title>
<g id="a_node14"><a xlink:title=" ">
<polygon fill="white" stroke="#bfbfbf" points="684,-123.5 684,-142.5 751,-142.5 751,-123.5 684,-123.5"/>
<text text-anchor="middle" x="717.5" y="-130.5" font-family="Helvetica,sans-Serif" font-size="10.00">G4Tubs.hh</text>
</a>
</g>
</g>
<!-- Node3&#45;&gt;Node14 -->
<g id="edge13" class="edge">
<title>Node3&#45;&gt;Node14</title>
<path fill="none" stroke="midnightblue" d="M624.33,-179.32C642.22,-170.62 669.98,-157.12 690.55,-147.11"/>
<polygon fill="midnightblue" stroke="midnightblue" points="692.25,-150.18 699.71,-142.65 689.19,-143.88 692.25,-150.18"/>
</g>
<!-- Node5 -->
<g id="node5" class="node">
<title>Node5</title>
<g id="a_node5"><a xlink:href="_o_m_sim_input_data_8hh.html" target="_top" xlink:title="Input data from external files are read and saved to memory.">
<polygon fill="white" stroke="black" points="163,-67.5 163,-86.5 278,-86.5 278,-67.5 163,-67.5"/>
<text text-anchor="middle" x="220.5" y="-74.5" font-family="Helvetica,sans-Serif" font-size="10.00">OMSimInputData.hh</text>
</a>
</g>
</g>
<!-- Node4&#45;&gt;Node5 -->
<g id="edge4" class="edge">
<title>Node4&#45;&gt;Node5</title>
<path fill="none" stroke="midnightblue" d="M435.09,-123.44C390.52,-114 318.73,-98.8 270.61,-88.61"/>
<polygon fill="midnightblue" stroke="midnightblue" points="271.22,-85.16 260.72,-86.52 269.77,-92.01 271.22,-85.16"/>
</g>
<!-- Node9 -->
<g id="node9" class="node">
<title>Node9</title>
<g id="a_node9"><a xlink:title=" ">
<polygon fill="white" stroke="#bfbfbf" points="296,-67.5 296,-86.5 403,-86.5 403,-67.5 296,-67.5"/>
<text text-anchor="middle" x="349.5" y="-74.5" font-family="Helvetica,sans-Serif" font-size="10.00">G4Transform3D.hh</text>
</a>
</g>
</g>
<!-- Node4&#45;&gt;Node9 -->
<g id="edge8" class="edge">
<title>Node4&#45;&gt;Node9</title>
<path fill="none" stroke="midnightblue" d="M455.53,-123.44C434.89,-114.6 402.44,-100.69 378.87,-90.59"/>
<polygon fill="midnightblue" stroke="midnightblue" points="379.94,-87.24 369.37,-86.52 377.18,-93.67 379.94,-87.24"/>
</g>
<!-- Node10 -->
<g id="node10" class="node">
<title>Node10</title>
<g id="a_node10"><a xlink:title=" ">
<polygon fill="white" stroke="#bfbfbf" points="421.5,-67.5 421.5,-86.5 529.5,-86.5 529.5,-67.5 421.5,-67.5"/>
<text text-anchor="middle" x="475.5" y="-74.5" font-family="Helvetica,sans-Serif" font-size="10.00">G4VisAttributes.hh</text>
</a>
</g>
</g>
<!-- Node4&#45;&gt;Node10 -->
<g id="edge9" class="edge">
<title>Node4&#45;&gt;Node10</title>
<path fill="none" stroke="midnightblue" d="M475.5,-123.08C475.5,-116.01 475.5,-105.86 475.5,-96.99"/>
<polygon fill="midnightblue" stroke="midnightblue" points="479,-96.75 475.5,-86.75 472,-96.75 479,-96.75"/>
</g>
<!-- Node11 -->
<g id="node11" class="node">
<title>Node11</title>
<g id="a_node11"><a xlink:title=" ">
<polygon fill="white" stroke="#bfbfbf" points="548,-67.5 548,-86.5 673,-86.5 673,-67.5 548,-67.5"/>
<text text-anchor="middle" x="610.5" y="-74.5" font-family="Helvetica,sans-Serif" font-size="10.00">G4SubtractionSolid.hh</text>
</a>
</g>
</g>
<!-- Node4&#45;&gt;Node11 -->
<g id="edge10" class="edge">
<title>Node4&#45;&gt;Node11</title>
<path fill="none" stroke="midnightblue" d="M496.89,-123.44C519.21,-114.52 554.4,-100.44 579.71,-90.32"/>
<polygon fill="midnightblue" stroke="midnightblue" points="581.22,-93.48 589.21,-86.52 578.62,-86.98 581.22,-93.48"/>
</g>
<!-- Node12 -->
<g id="node12" class="node">
<title>Node12</title>
<g id="a_node12"><a xlink:title=" ">
<polygon fill="white" stroke="#bfbfbf" points="691.5,-67.5 691.5,-86.5 801.5,-86.5 801.5,-67.5 691.5,-67.5"/>
<text text-anchor="middle" x="746.5" y="-74.5" font-family="Helvetica,sans-Serif" font-size="10.00">G4PVPlacement.hh</text>
</a>
</g>
</g>
<!-- Node4&#45;&gt;Node12 -->
<g id="edge11" class="edge">
<title>Node4&#45;&gt;Node12</title>
<path fill="none" stroke="midnightblue" d="M518.44,-123.44C566.01,-113.96 642.74,-98.67 693.89,-88.48"/>
<polygon fill="midnightblue" stroke="midnightblue" points="694.64,-91.9 703.76,-86.52 693.27,-85.04 694.64,-91.9"/>
</g>
<!-- Node6 -->
<g id="node6" class="node">
<title>Node6</title>
<g id="a_node6"><a xlink:title=" ">
<polygon fill="white" stroke="#bfbfbf" points="0,-6 0,-25 143,-25 143,-6 0,-6"/>
<text text-anchor="middle" x="71.5" y="-13" font-family="Helvetica,sans-Serif" font-size="10.00">G4OpBoundaryProcess.hh</text>
</a>
</g>
</g>
<!-- Node5&#45;&gt;Node6 -->
<g id="edge5" class="edge">
<title>Node5&#45;&gt;Node6</title>
<path fill="none" stroke="midnightblue" d="M199.15,-67.48C173.81,-57.36 131.36,-40.4 102.43,-28.85"/>
<polygon fill="midnightblue" stroke="midnightblue" points="103.39,-25.47 92.81,-25.01 100.8,-31.97 103.39,-25.47"/>
</g>
<!-- Node7 -->
<g id="node7" class="node">
<title>Node7</title>
<g id="a_node7"><a xlink:title=" ">
<polygon fill="white" stroke="#bfbfbf" points="161,-6 161,-25 280,-25 280,-6 161,-6"/>
<text text-anchor="middle" x="220.5" y="-13" font-family="Helvetica,sans-Serif" font-size="10.00">G4SystemOfUnits.hh</text>
</a>
</g>
</g>
<!-- Node5&#45;&gt;Node7 -->
<g id="edge6" class="edge">
<title>Node5&#45;&gt;Node7</title>
<path fill="none" stroke="midnightblue" d="M220.5,-67.48C220.5,-59.08 220.5,-45.98 220.5,-35.16"/>
<polygon fill="midnightblue" stroke="midnightblue" points="224,-35.01 220.5,-25.01 217,-35.01 224,-35.01"/>
</g>
<!-- Node8 -->
<g id="node8" class="node">
<title>Node8</title>
<g id="a_node8"><a xlink:title=" ">
<polygon fill="white" stroke="#bfbfbf" points="298,-0.5 298,-30.5 411,-30.5 411,-0.5 298,-0.5"/>
<text text-anchor="start" x="306" y="-18.5" font-family="Helvetica,sans-Serif" font-size="10.00">boost/property_tree</text>
<text text-anchor="middle" x="354.5" y="-7.5" font-family="Helvetica,sans-Serif" font-size="10.00">/json_parser.hpp</text>
</a>
</g>
</g>
<!-- Node5&#45;&gt;Node8 -->
<g id="edge7" class="edge">
<title>Node5&#45;&gt;Node8</title>
<path fill="none" stroke="midnightblue" d="M239.7,-67.48C258.87,-58.96 288.92,-45.62 313.47,-34.72"/>
<polygon fill="midnightblue" stroke="midnightblue" points="315.2,-37.78 322.92,-30.52 312.36,-31.38 315.2,-37.78"/>
</g>
<!-- Node15&#45;&gt;Node3 -->
<g id="edge16" class="edge">
<title>Node15&#45;&gt;Node3</title>
<path fill="none" stroke="midnightblue" d="M525.08,-235.32C540.5,-226.74 564.31,-213.49 582.21,-203.52"/>
<polygon fill="midnightblue" stroke="midnightblue" points="583.92,-206.58 590.95,-198.65 580.51,-200.46 583.92,-206.58"/>
</g>
<!-- Node15&#45;&gt;Node4 -->
<g id="edge15" class="edge">
<title>Node15&#45;&gt;Node4</title>
<path fill="none" stroke="midnightblue" d="M506.83,-235.37C501.32,-217.54 488.57,-176.3 481.15,-152.27"/>
<polygon fill="midnightblue" stroke="midnightblue" points="484.45,-151.11 478.16,-142.59 477.76,-153.18 484.45,-151.11"/>
</g>
<!-- Node17 -->
<g id="node17" class="node">
<title>Node17</title>
<g id="a_node17"><a xlink:title=" ">
<polygon fill="white" stroke="#bfbfbf" points="634.5,-235.5 634.5,-254.5 708.5,-254.5 708.5,-235.5 634.5,-235.5"/>
<text text-anchor="middle" x="671.5" y="-242.5" font-family="Helvetica,sans-Serif" font-size="10.00">G4String.hh</text>
</a>
</g>
</g>
<!-- Node16&#45;&gt;Node17 -->
<g id="edge18" class="edge">
<title>Node16&#45;&gt;Node17</title>
<path fill="none" stroke="midnightblue" d="M1571.67,-300.02C1447.12,-299.65 1053.85,-295.25 718.97,-254.99"/>
<polygon fill="midnightblue" stroke="midnightblue" points="718.93,-251.46 708.58,-253.73 718.09,-258.41 718.93,-251.46"/>
</g>
<!-- Node18 -->
<g id="node18" class="node">
<title>Node18</title>
<g id="a_node18"><a xlink:title=" ">
<polygon fill="white" stroke="#bfbfbf" points="726.5,-235.5 726.5,-254.5 790.5,-254.5 790.5,-235.5 726.5,-235.5"/>
<text text-anchor="middle" x="758.5" y="-242.5" font-family="Helvetica,sans-Serif" font-size="10.00">algorithm</text>
</a>
</g>
</g>
<!-- Node16&#45;&gt;Node18 -->
<g id="edge19" class="edge">
<title>Node16&#45;&gt;Node18</title>
<path fill="none" stroke="midnightblue" d="M1571.99,-300.05C1455.36,-299.73 1102.37,-295.36 800.89,-254.96"/>
<polygon fill="midnightblue" stroke="midnightblue" points="801.02,-251.44 790.64,-253.57 800.08,-258.38 801.02,-251.44"/>
</g>
<!-- Node19 -->
<g id="node19" class="node">
<title>Node19</title>
<g id="a_node19"><a xlink:title=" ">
<polygon fill="white" stroke="#bfbfbf" points="808.5,-235.5 808.5,-254.5 846.5,-254.5 846.5,-235.5 808.5,-235.5"/>
<text text-anchor="middle" x="827.5" y="-242.5" font-family="Helvetica,sans-Serif" font-size="10.00">map</text>
</a>
</g>
</g>
<!-- Node16&#45;&gt;Node19 -->
<g id="edge20" class="edge">
<title>Node16&#45;&gt;Node19</title>
<path fill="none" stroke="midnightblue" d="M1571.65,-298.95C1439.21,-295.26 1013.74,-281.72 856.57,-254.65"/>
<polygon fill="midnightblue" stroke="midnightblue" points="857.08,-251.18 846.62,-252.84 855.83,-258.07 857.08,-251.18"/>
</g>
<!-- Node20 -->
<g id="node20" class="node">
<title>Node20</title>
<g id="a_node20"><a xlink:title=" ">
<polygon fill="white" stroke="#bfbfbf" points="865,-235.5 865,-254.5 968,-254.5 968,-235.5 865,-235.5"/>
<text text-anchor="middle" x="916.5" y="-242.5" font-family="Helvetica,sans-Serif" font-size="10.00">G4ThreeVector.hh</text>
</a>
</g>
</g>
<!-- Node16&#45;&gt;Node20 -->
<g id="edge21" class="edge">
<title>Node16&#45;&gt;Node20</title>
<path fill="none" stroke="midnightblue" d="M1571.65,-298.26C1472.9,-293.72 1208.77,-280.15 978.43,-255.14"/>
<polygon fill="midnightblue" stroke="midnightblue" points="978.5,-251.62 968.18,-254.01 977.74,-258.58 978.5,-251.62"/>
</g>
<!-- Node21 -->
<g id="node21" class="node">
<title>Node21</title>
<g id="a_node21"><a xlink:title=" ">
<polygon fill="white" stroke="#bfbfbf" points="986,-235.5 986,-254.5 1105,-254.5 1105,-235.5 986,-235.5"/>
<text text-anchor="middle" x="1045.5" y="-242.5" font-family="Helvetica,sans-Serif" font-size="10.00">G4TriangularFacet.hh</text>
</a>
</g>
</g>
<!-- Node16&#45;&gt;Node21 -->
<g id="edge22" class="edge">
<title>Node16&#45;&gt;Node21</title>
<path fill="none" stroke="midnightblue" d="M1571.83,-296.94C1489.09,-290.45 1291.86,-274.37 1115.31,-255.05"/>
<polygon fill="midnightblue" stroke="midnightblue" points="1115.64,-251.56 1105.32,-253.95 1114.88,-258.52 1115.64,-251.56"/>
</g>
<!-- Node22 -->
<g id="node22" class="node">
<title>Node22</title>
<g id="a_node22"><a xlink:title=" ">
<polygon fill="white" stroke="#bfbfbf" points="1123.5,-235.5 1123.5,-254.5 1181.5,-254.5 1181.5,-235.5 1123.5,-235.5"/>
<text text-anchor="middle" x="1152.5" y="-242.5" font-family="Helvetica,sans-Serif" font-size="10.00">memory</text>
</a>
</g>
</g>
<!-- Node16&#45;&gt;Node22 -->
<g id="edge23" class="edge">
<title>Node16&#45;&gt;Node22</title>
<path fill="none" stroke="midnightblue" d="M1571.8,-297.43C1498.55,-292.33 1337.08,-279.41 1191.87,-255.04"/>
<polygon fill="midnightblue" stroke="midnightblue" points="1192.33,-251.57 1181.88,-253.35 1191.15,-258.47 1192.33,-251.57"/>
</g>
<!-- Node23 -->
<g id="node23" class="node">
<title>Node23</title>
<g id="a_node23"><a xlink:title=" ">
<polygon fill="white" stroke="#bfbfbf" points="1200,-235.5 1200,-254.5 1247,-254.5 1247,-235.5 1200,-235.5"/>
<text text-anchor="middle" x="1223.5" y="-242.5" font-family="Helvetica,sans-Serif" font-size="10.00">vector</text>
</a>
</g>
</g>
<!-- Node16&#45;&gt;Node23 -->
<g id="edge24" class="edge">
<title>Node16&#45;&gt;Node23</title>
<path fill="none" stroke="midnightblue" d="M1571.81,-296.8C1507.69,-291.23 1377.22,-278.26 1257.29,-254.89"/>
<polygon fill="midnightblue" stroke="midnightblue" points="1257.69,-251.4 1247.2,-252.89 1256.33,-258.26 1257.69,-251.4"/>
</g>
<!-- Node24 -->
<g id="node24" class="node">
<title>Node24</title>
<g id="a_node24"><a xlink:title=" ">
<polygon fill="white" stroke="#bfbfbf" points="1265.5,-235.5 1265.5,-254.5 1325.5,-254.5 1325.5,-235.5 1265.5,-235.5"/>
<text text-anchor="middle" x="1295.5" y="-242.5" font-family="Helvetica,sans-Serif" font-size="10.00">iostream</text>
</a>
</g>
</g>
<!-- Node16&#45;&gt;Node24 -->
<g id="edge25" class="edge">
<title>Node16&#45;&gt;Node24</title>
<path fill="none" stroke="midnightblue" d="M1571.91,-294.4C1519.91,-286.87 1425.57,-272.58 1335.52,-255.1"/>
<polygon fill="midnightblue" stroke="midnightblue" points="1336.18,-251.66 1325.69,-253.17 1334.83,-258.53 1336.18,-251.66"/>
</g>
<!-- Node25 -->
<g id="node25" class="node">
<title>Node25</title>
<g id="a_node25"><a xlink:title=" ">
<polygon fill="white" stroke="#bfbfbf" points="1343.5,-235.5 1343.5,-254.5 1387.5,-254.5 1387.5,-235.5 1343.5,-235.5"/>
<text text-anchor="middle" x="1365.5" y="-242.5" font-family="Helvetica,sans-Serif" font-size="10.00">string</text>
</a>
</g>
</g>
<!-- Node16&#45;&gt;Node25 -->
<g id="edge26" class="edge">
<title>Node16&#45;&gt;Node25</title>
<path fill="none" stroke="midnightblue" d="M1571.67,-292.61C1530.38,-284.73 1463.79,-271.46 1397.56,-255.12"/>
<polygon fill="midnightblue" stroke="midnightblue" points="1398.35,-251.71 1387.8,-252.69 1396.65,-258.51 1398.35,-251.71"/>
</g>
<!-- Node26 -->
<g id="node26" class="node">
<title>Node26</title>
<g id="a_node26"><a xlink:title=" ">
<polygon fill="white" stroke="#bfbfbf" points="1405.5,-235.5 1405.5,-254.5 1535.5,-254.5 1535.5,-235.5 1405.5,-235.5"/>
<text text-anchor="middle" x="1470.5" y="-242.5" font-family="Helvetica,sans-Serif" font-size="10.00">G4AssemblyVolume.hh</text>
</a>
</g>
</g>
<!-- Node16&#45;&gt;Node26 -->
<g id="edge27" class="edge">
<title>Node16&#45;&gt;Node26</title>
<path fill="none" stroke="midnightblue" d="M1589.16,-291.44C1565.75,-282.48 1528.76,-268.31 1502.31,-258.18"/>
<polygon fill="midnightblue" stroke="midnightblue" points="1503.33,-254.82 1492.74,-254.52 1500.82,-261.36 1503.33,-254.82"/>
</g>
<!-- Node27 -->
<g id="node27" class="node">
<title>Node27</title>
<g id="a_node27"><a xlink:title=" ">
<polygon fill="white" stroke="#bfbfbf" points="1553.5,-235.5 1553.5,-254.5 1669.5,-254.5 1669.5,-235.5 1553.5,-235.5"/>
<text text-anchor="middle" x="1611.5" y="-242.5" font-family="Helvetica,sans-Serif" font-size="10.00">G4LogicalVolume.hh</text>
</a>
</g>
</g>
<!-- Node16&#45;&gt;Node27 -->
<g id="edge28" class="edge">
<title>Node16&#45;&gt;Node27</title>
<path fill="none" stroke="midnightblue" d="M1611.5,-291.08C1611.5,-284.01 1611.5,-273.86 1611.5,-264.99"/>
<polygon fill="midnightblue" stroke="midnightblue" points="1615,-264.75 1611.5,-254.75 1608,-264.75 1615,-264.75"/>
</g>
<!-- Node28 -->
<g id="node28" class="node">
<title>Node28</title>
<g id="a_node28"><a xlink:title=" ">
<polygon fill="white" stroke="#bfbfbf" points="1687.5,-235.5 1687.5,-254.5 1773.5,-254.5 1773.5,-235.5 1687.5,-235.5"/>
<text text-anchor="middle" x="1730.5" y="-242.5" font-family="Helvetica,sans-Serif" font-size="10.00">G4Material.hh</text>
</a>
</g>
</g>
<!-- Node16&#45;&gt;Node28 -->
<g id="edge29" class="edge">
<title>Node16&#45;&gt;Node28</title>
<path fill="none" stroke="midnightblue" d="M1630.36,-291.44C1649.77,-282.64 1680.23,-268.81 1702.46,-258.72"/>
<polygon fill="midnightblue" stroke="midnightblue" points="1704.07,-261.84 1711.73,-254.52 1701.18,-255.46 1704.07,-261.84"/>
</g>
<!-- Node29 -->
<g id="node29" class="node">
<title>Node29</title>
<g id="a_node29"><a xlink:title=" ">
<polygon fill="white" stroke="#bfbfbf" points="1791.5,-235.5 1791.5,-254.5 1915.5,-254.5 1915.5,-235.5 1791.5,-235.5"/>
<text text-anchor="middle" x="1853.5" y="-242.5" font-family="Helvetica,sans-Serif" font-size="10.00">G4TessellatedSolid.hh</text>
</a>
</g>
</g>
<!-- Node16&#45;&gt;Node29 -->
<g id="edge30" class="edge">
<title>Node16&#45;&gt;Node29</title>
<path fill="none" stroke="midnightblue" d="M1649.85,-291.44C1691.97,-282.04 1759.71,-266.93 1805.37,-256.74"/>
<polygon fill="midnightblue" stroke="midnightblue" points="1806.34,-260.11 1815.33,-254.52 1804.81,-253.28 1806.34,-260.11"/>
</g>
<!-- Node30 -->
<g id="node30" class="node">
<title>Node30</title>
<g id="a_node30"><a xlink:title=" ">
<polygon fill="white" stroke="#bfbfbf" points="1934,-235.5 1934,-254.5 1993,-254.5 1993,-235.5 1934,-235.5"/>
<text text-anchor="middle" x="1963.5" y="-242.5" font-family="Helvetica,sans-Serif" font-size="10.00">G4Tet.hh</text>
</a>
</g>
</g>
<!-- Node16&#45;&gt;Node30 -->
<g id="edge31" class="edge">
<title>Node16&#45;&gt;Node30</title>
<path fill="none" stroke="midnightblue" d="M1651.2,-295.38C1708.94,-288.42 1819.63,-274.18 1923.7,-255.01"/>
<polygon fill="midnightblue" stroke="midnightblue" points="1924.55,-258.41 1933.74,-253.14 1923.27,-251.53 1924.55,-258.41"/>
</g>
<!-- Node31 -->
<g id="node31" class="node">
<title>Node31</title>
<g id="a_node31"><a xlink:title=" ">
<polygon fill="white" stroke="#bfbfbf" points="2011.5,-235.5 2011.5,-254.5 2115.5,-254.5 2115.5,-235.5 2011.5,-235.5"/>
<text text-anchor="middle" x="2063.5" y="-242.5" font-family="Helvetica,sans-Serif" font-size="10.00">G4UIcommand.hh</text>
</a>
</g>
</g>
<!-- Node16&#45;&gt;Node31 -->
<g id="edge32" class="edge">
<title>Node16&#45;&gt;Node31</title>
<path fill="none" stroke="midnightblue" d="M1651.13,-295.82C1721.66,-288.28 1873.59,-271.66 2001.5,-255 2001.6,-254.99 2001.7,-254.97 2001.8,-254.96"/>
<polygon fill="midnightblue" stroke="midnightblue" points="2001.97,-258.47 2011.42,-253.67 2001.04,-251.53 2001.97,-258.47"/>
</g>
<!-- Node32 -->
<g id="node32" class="node">
<title>Node32</title>
<g id="a_node32"><a xlink:title=" ">
<polygon fill="white" stroke="#bfbfbf" points="2134,-235.5 2134,-254.5 2201,-254.5 2201,-235.5 2134,-235.5"/>
<text text-anchor="middle" x="2167.5" y="-242.5" font-family="Helvetica,sans-Serif" font-size="10.00">globals.hh</text>
</a>
</g>
</g>
<!-- Node16&#45;&gt;Node32 -->
<g id="edge33" class="edge">
<title>Node16&#45;&gt;Node32</title>
<path fill="none" stroke="midnightblue" d="M1651.27,-298.12C1736.18,-293.77 1941.57,-281.4 2123.74,-254.93"/>
<polygon fill="midnightblue" stroke="midnightblue" points="2124.38,-258.37 2133.77,-253.46 2123.36,-251.45 2124.38,-258.37"/>
</g>
<!-- Node33 -->
<g id="node33" class="node">
<title>Node33</title>
<g id="a_node33"><a xlink:title=" ">
<polygon fill="white" stroke="#bfbfbf" points="2219,-235.5 2219,-254.5 2274,-254.5 2274,-235.5 2219,-235.5"/>
<text text-anchor="middle" x="2246.5" y="-242.5" font-family="Helvetica,sans-Serif" font-size="10.00">fstream</text>
</a>
</g>
</g>
<!-- Node16&#45;&gt;Node33 -->
<g id="edge34" class="edge">
<title>Node16&#45;&gt;Node33</title>
<path fill="none" stroke="midnightblue" d="M1651.02,-299.35C1745.85,-297.29 1993.84,-288.98 2208.8,-255.03"/>
<polygon fill="midnightblue" stroke="midnightblue" points="2209.37,-258.49 2218.69,-253.45 2208.26,-251.57 2209.37,-258.49"/>
</g>
<!-- Node34 -->
<g id="node34" class="node">
<title>Node34</title>
<g id="a_node34"><a xlink:title=" ">
<polygon fill="white" stroke="#bfbfbf" points="2292.5,-235.5 2292.5,-254.5 2348.5,-254.5 2348.5,-235.5 2292.5,-235.5"/>
<text text-anchor="middle" x="2320.5" y="-242.5" font-family="Helvetica,sans-Serif" font-size="10.00">sstream</text>
</a>
</g>
</g>
<!-- Node16&#45;&gt;Node34 -->
<g id="edge35" class="edge">
<title>Node16&#45;&gt;Node34</title>
<path fill="none" stroke="midnightblue" d="M1651.15,-299.71C1753.95,-298.47 2037.54,-291.83 2282.17,-254.94"/>
<polygon fill="midnightblue" stroke="midnightblue" points="2282.96,-258.35 2292.32,-253.38 2281.9,-251.43 2282.96,-258.35"/>
</g>
<!-- Node35 -->
<g id="node35" class="node">
<title>Node35</title>
<g id="a_node35"><a xlink:title=" ">
<polygon fill="white" stroke="#bfbfbf" points="2367,-235.5 2367,-254.5 2434,-254.5 2434,-235.5 2367,-235.5"/>
<text text-anchor="middle" x="2400.5" y="-242.5" font-family="Helvetica,sans-Serif" font-size="10.00">streambuf</text>
</a>
</g>
</g>
<!-- Node16&#45;&gt;Node35 -->
<g id="edge36" class="edge">
<title>Node16&#45;&gt;Node35</title>
<path fill="none" stroke="midnightblue" d="M1651.33,-299.64C1761.79,-298.21 2081.44,-291.13 2356.6,-254.9"/>
<polygon fill="midnightblue" stroke="midnightblue" points="2357.33,-258.33 2366.78,-253.54 2356.4,-251.4 2357.33,-258.33"/>
</g>
<!-- Node36 -->
<g id="node36" class="node">
<title>Node36</title>
<g id="a_node36"><a xlink:title=" ">
<polygon fill="white" stroke="#bfbfbf" points="2452.5,-235.5 2452.5,-254.5 2538.5,-254.5 2538.5,-235.5 2452.5,-235.5"/>
<text text-anchor="middle" x="2495.5" y="-242.5" font-family="Helvetica,sans-Serif" font-size="10.00">Randomize.hh</text>
</a>
</g>
</g>
<!-- Node16&#45;&gt;Node36 -->
<g id="edge37" class="edge">
<title>Node16&#45;&gt;Node36</title>
<path fill="none" stroke="midnightblue" d="M1651.05,-299.51C1769.51,-297.68 2131.95,-289.55 2442.33,-254.99"/>
<polygon fill="midnightblue" stroke="midnightblue" points="2442.88,-258.45 2452.43,-253.86 2442.1,-251.5 2442.88,-258.45"/>
</g>
<!-- Node38 -->
<g id="node38" class="node">
<title>Node38</title>
<g id="a_node38"><a xlink:title=" ">
<polygon fill="white" stroke="#bfbfbf" points="2556.5,-235.5 2556.5,-254.5 2606.5,-254.5 2606.5,-235.5 2556.5,-235.5"/>
<text text-anchor="middle" x="2581.5" y="-242.5" font-family="Helvetica,sans-Serif" font-size="10.00">stdio.h</text>
</a>
</g>
</g>
<!-- Node37&#45;&gt;Node38 -->
<g id="edge39" class="edge">
<title>Node37&#45;&gt;Node38</title>
<path fill="none" stroke="midnightblue" d="M2199.05,-292.27C2202.25,-291.83 2205.42,-291.4 2208.5,-291 2355.53,-271.99 2396.74,-282.01 2546.33,-254.95"/>
<polygon fill="midnightblue" stroke="midnightblue" points="2547.14,-258.36 2556.35,-253.12 2545.88,-251.48 2547.14,-258.36"/>
</g>
<!-- Node39 -->
<g id="node39" class="node">
<title>Node39</title>
<g id="a_node39"><a xlink:title=" ">
<polygon fill="white" stroke="#bfbfbf" points="2624.5,-235.5 2624.5,-254.5 2672.5,-254.5 2672.5,-235.5 2624.5,-235.5"/>
<text text-anchor="middle" x="2648.5" y="-242.5" font-family="Helvetica,sans-Serif" font-size="10.00">time.h</text>
</a>
</g>
</g>
<!-- Node37&#45;&gt;Node39 -->
<g id="edge40" class="edge">
<title>Node37&#45;&gt;Node39</title>
<path fill="none" stroke="midnightblue" d="M2199.04,-292.21C2202.24,-291.78 2205.41,-291.37 2208.5,-291 2385.54,-269.69 2434.97,-286.39 2614.42,-254.88"/>
<polygon fill="midnightblue" stroke="midnightblue" points="2615.23,-258.29 2624.46,-253.09 2614,-251.4 2615.23,-258.29"/>
</g>
</g>
</svg>
