<?xml version="1.0" encoding="UTF-8" standalone="no"?>
<!DOCTYPE svg PUBLIC "-//W3C//DTD SVG 1.1//EN"
 "http://www.w3.org/Graphics/SVG/1.1/DTD/svg11.dtd">
<!-- Generated by graphviz version 2.43.0 (0)
 -->
<!-- Title: OMSimPMTConstruction.hh Pages: 1 -->
<svg width="1946pt" height="196pt"
 viewBox="0.00 0.00 1946.00 196.00" xmlns="http://www.w3.org/2000/svg" xmlns:xlink="http://www.w3.org/1999/xlink">
<g id="graph0" class="graph" transform="scale(1 1) rotate(0) translate(4 192)">
<title>OMSimPMTConstruction.hh</title>
<polygon fill="white" stroke="transparent" points="-4,4 -4,-192 1942,-192 1942,4 -4,4"/>
<!-- Node1 -->
<g id="node1" class="node">
<title>Node1</title>
<g id="a_node1"><a xlink:title="Construction of the PMTs.">
<polygon fill="#bfbfbf" stroke="black" points="378.5,-168.5 378.5,-187.5 527.5,-187.5 527.5,-168.5 378.5,-168.5"/>
<text text-anchor="middle" x="453" y="-175.5" font-family="Helvetica,sans-Serif" font-size="10.00">OMSimPMTConstruction.hh</text>
</a>
</g>
</g>
<!-- Node2 -->
<g id="node2" class="node">
<title>Node2</title>
<g id="a_node2"><a xlink:href="abc_detector_component_8cc.html" target="_top" xlink:title=" ">
<polygon fill="white" stroke="black" points="56,-112.5 56,-131.5 202,-131.5 202,-112.5 56,-112.5"/>
<text text-anchor="middle" x="129" y="-119.5" font-family="Helvetica,sans-Serif" font-size="10.00">abcDetectorComponent.cc</text>
</a>
</g>
</g>
<!-- Node1&#45;&gt;Node2 -->
<g id="edge1" class="edge">
<title>Node1&#45;&gt;Node2</title>
<path fill="none" stroke="midnightblue" d="M391.74,-166.79C330.52,-156.59 237.47,-141.08 180.1,-131.52"/>
<polygon fill="midnightblue" stroke="midnightblue" points="391.22,-170.25 401.66,-168.44 392.37,-163.35 391.22,-170.25"/>
</g>
<!-- Node3 -->
<g id="node3" class="node">
<title>Node3</title>
<g id="a_node3"><a xlink:href="_o_m_sim_p_m_t_construction_8cc.html" target="_top" xlink:title=" ">
<polygon fill="white" stroke="black" points="220.5,-112.5 220.5,-131.5 367.5,-131.5 367.5,-112.5 220.5,-112.5"/>
<text text-anchor="middle" x="294" y="-119.5" font-family="Helvetica,sans-Serif" font-size="10.00">OMSimPMTConstruction.cc</text>
</a>
</g>
</g>
<!-- Node1&#45;&gt;Node3 -->
<g id="edge2" class="edge">
<title>Node1&#45;&gt;Node3</title>
<path fill="none" stroke="midnightblue" d="M418.17,-165.17C388.23,-155 345.78,-140.59 319.08,-131.52"/>
<polygon fill="midnightblue" stroke="midnightblue" points="417.21,-168.54 427.81,-168.44 419.46,-161.91 417.21,-168.54"/>
</g>
<!-- Node4 -->
<g id="node4" class="node">
<title>Node4</title>
<g id="a_node4"><a xlink:href="_o_m_sim_d_e_g_g_8hh.html" target="_top" xlink:title="Construction of the DEGG class.">
<polygon fill="white" stroke="black" points="266.5,-56.5 266.5,-75.5 361.5,-75.5 361.5,-56.5 266.5,-56.5"/>
<text text-anchor="middle" x="314" y="-63.5" font-family="Helvetica,sans-Serif" font-size="10.00">OMSimDEGG.hh</text>
</a>
</g>
</g>
<!-- Node1&#45;&gt;Node4 -->
<g id="edge3" class="edge">
<title>Node1&#45;&gt;Node4</title>
<path fill="none" stroke="midnightblue" d="M435.53,-161.62C420.12,-148.21 396.92,-128.38 376,-112 359.25,-98.88 339.22,-84.58 326.55,-75.7"/>
<polygon fill="midnightblue" stroke="midnightblue" points="433.39,-164.4 443.22,-168.35 438,-159.13 433.39,-164.4"/>
</g>
<!-- Node8 -->
<g id="node8" class="node">
<title>Node8</title>
<g id="a_node8"><a xlink:href="_o_m_sim_l_o_m16_8hh.html" target="_top" xlink:title="Construction of LOM16.">
<polygon fill="white" stroke="black" points="379.5,-56.5 379.5,-75.5 480.5,-75.5 480.5,-56.5 379.5,-56.5"/>
<text text-anchor="middle" x="430" y="-63.5" font-family="Helvetica,sans-Serif" font-size="10.00">OMSimLOM16.hh</text>
</a>
</g>
</g>
<!-- Node1&#45;&gt;Node8 -->
<g id="edge7" class="edge">
<title>Node1&#45;&gt;Node8</title>
<path fill="none" stroke="midnightblue" d="M449.1,-158.35C444.06,-134.25 435.5,-93.31 431.8,-75.59"/>
<polygon fill="midnightblue" stroke="midnightblue" points="445.72,-159.3 451.2,-168.37 452.57,-157.86 445.72,-159.3"/>
</g>
<!-- Node10 -->
<g id="node10" class="node">
<title>Node10</title>
<g id="a_node10"><a xlink:href="_o_m_sim_l_o_m18_8hh.html" target="_top" xlink:title="Construction of LOM18.">
<polygon fill="white" stroke="black" points="498.5,-56.5 498.5,-75.5 599.5,-75.5 599.5,-56.5 498.5,-56.5"/>
<text text-anchor="middle" x="549" y="-63.5" font-family="Helvetica,sans-Serif" font-size="10.00">OMSimLOM18.hh</text>
</a>
</g>
</g>
<!-- Node1&#45;&gt;Node10 -->
<g id="edge11" class="edge">
<title>Node1&#45;&gt;Node10</title>
<path fill="none" stroke="midnightblue" d="M461.18,-158.98C467.97,-145.22 478.5,-126.25 491,-112 503.94,-97.24 522.3,-83.96 534.88,-75.71"/>
<polygon fill="midnightblue" stroke="midnightblue" points="457.87,-157.79 456.76,-168.33 464.2,-160.79 457.87,-157.79"/>
</g>
<!-- Node12 -->
<g id="node12" class="node">
<title>Node12</title>
<g id="a_node12"><a xlink:href="_o_m_sim_m_d_o_m_8hh.html" target="_top" xlink:title="Construction of mDOM.">
<polygon fill="white" stroke="black" points="1343,-56.5 1343,-75.5 1443,-75.5 1443,-56.5 1343,-56.5"/>
<text text-anchor="middle" x="1393" y="-63.5" font-family="Helvetica,sans-Serif" font-size="10.00">OMSimMDOM.hh</text>
</a>
</g>
</g>
<!-- Node1&#45;&gt;Node12 -->
<g id="edge15" class="edge">
<title>Node1&#45;&gt;Node12</title>
<path fill="none" stroke="midnightblue" d="M535.93,-167.3C726.2,-145.03 1189.55,-90.81 1342.84,-72.87"/>
<polygon fill="midnightblue" stroke="midnightblue" points="535.5,-163.82 525.98,-168.46 536.32,-170.77 535.5,-163.82"/>
</g>
<!-- Node18 -->
<g id="node18" class="node">
<title>Node18</title>
<g id="a_node18"><a xlink:href="_o_m_sim_optical_module_8hh.html" target="_top" xlink:title=" ">
<polygon fill="white" stroke="black" points="500.5,-112.5 500.5,-131.5 637.5,-131.5 637.5,-112.5 500.5,-112.5"/>
<text text-anchor="middle" x="569" y="-119.5" font-family="Helvetica,sans-Serif" font-size="10.00">OMSimOpticalModule.hh</text>
</a>
</g>
</g>
<!-- Node1&#45;&gt;Node18 -->
<g id="edge21" class="edge">
<title>Node1&#45;&gt;Node18</title>
<path fill="none" stroke="midnightblue" d="M480.72,-164.1C502.39,-154.01 531.9,-140.27 550.71,-131.52"/>
<polygon fill="midnightblue" stroke="midnightblue" points="478.97,-161.05 471.38,-168.44 481.92,-167.4 478.97,-161.05"/>
</g>
<!-- Node19 -->
<g id="node19" class="node">
<title>Node19</title>
<g id="a_node19"><a xlink:href="_o_m_sim_p_d_o_m_8hh.html" target="_top" xlink:title="Implementation of the pDOM/Gen1 DOM class.">
<polygon fill="white" stroke="black" points="617.5,-56.5 617.5,-75.5 714.5,-75.5 714.5,-56.5 617.5,-56.5"/>
<text text-anchor="middle" x="666" y="-63.5" font-family="Helvetica,sans-Serif" font-size="10.00">OMSimPDOM.hh</text>
</a>
</g>
</g>
<!-- Node1&#45;&gt;Node19 -->
<g id="edge33" class="edge">
<title>Node1&#45;&gt;Node19</title>
<path fill="none" stroke="midnightblue" d="M530.6,-166.9C576.57,-159.42 629.07,-147.8 646,-132 662.06,-117.02 665.34,-89.49 665.93,-75.56"/>
<polygon fill="midnightblue" stroke="midnightblue" points="529.93,-163.46 520.6,-168.48 531.02,-170.37 529.93,-163.46"/>
</g>
<!-- Node5 -->
<g id="node5" class="node">
<title>Node5</title>
<g id="a_node5"><a xlink:href="_o_m_sim_d_e_g_g_8cc.html" target="_top" xlink:title=" ">
<polygon fill="white" stroke="black" points="0,-0.5 0,-19.5 94,-19.5 94,-0.5 0,-0.5"/>
<text text-anchor="middle" x="47" y="-7.5" font-family="Helvetica,sans-Serif" font-size="10.00">OMSimDEGG.cc</text>
</a>
</g>
</g>
<!-- Node4&#45;&gt;Node5 -->
<g id="edge4" class="edge">
<title>Node4&#45;&gt;Node5</title>
<path fill="none" stroke="midnightblue" d="M261.64,-54.41C211.18,-44.2 135.8,-28.96 89.11,-19.52"/>
<polygon fill="midnightblue" stroke="midnightblue" points="261.2,-57.89 271.69,-56.44 262.59,-51.03 261.2,-57.89"/>
</g>
<!-- Node6 -->
<g id="node6" class="node">
<title>Node6</title>
<g id="a_node6"><a xlink:href="effective__area_2src_2_o_m_sim_detector_construction_8cc.html" target="_top" xlink:title=" ">
<polygon fill="white" stroke="black" points="416.5,-0.5 416.5,-19.5 585.5,-19.5 585.5,-0.5 416.5,-0.5"/>
<text text-anchor="middle" x="501" y="-7.5" font-family="Helvetica,sans-Serif" font-size="10.00">OMSimDetectorConstruction.cc</text>
</a>
</g>
</g>
<!-- Node4&#45;&gt;Node6 -->
<g id="edge5" class="edge">
<title>Node4&#45;&gt;Node6</title>
<path fill="none" stroke="midnightblue" d="M353.59,-53.57C388.87,-43.38 439.69,-28.7 471.51,-19.52"/>
<polygon fill="midnightblue" stroke="midnightblue" points="352.27,-50.31 343.63,-56.44 354.21,-57.03 352.27,-50.31"/>
</g>
<!-- Node7 -->
<g id="node7" class="node">
<title>Node7</title>
<g id="a_node7"><a xlink:href="radioactive__decays_2src_2_o_m_sim_detector_construction_8cc.html" target="_top" xlink:title=" ">
<polygon fill="white" stroke="black" points="229.5,-0.5 229.5,-19.5 398.5,-19.5 398.5,-0.5 229.5,-0.5"/>
<text text-anchor="middle" x="314" y="-7.5" font-family="Helvetica,sans-Serif" font-size="10.00">OMSimDetectorConstruction.cc</text>
</a>
</g>
</g>
<!-- Node4&#45;&gt;Node7 -->
<g id="edge6" class="edge">
<title>Node4&#45;&gt;Node7</title>
<path fill="none" stroke="midnightblue" d="M314,-45.8C314,-36.91 314,-26.78 314,-19.75"/>
<polygon fill="midnightblue" stroke="midnightblue" points="310.5,-46.08 314,-56.08 317.5,-46.08 310.5,-46.08"/>
</g>
<!-- Node8&#45;&gt;Node6 -->
<g id="edge9" class="edge">
<title>Node8&#45;&gt;Node6</title>
<path fill="none" stroke="midnightblue" d="M449.59,-50.1C462.37,-40.38 478.61,-28.03 489.39,-19.83"/>
<polygon fill="midnightblue" stroke="midnightblue" points="447.25,-47.48 441.41,-56.32 451.49,-53.06 447.25,-47.48"/>
</g>
<!-- Node8&#45;&gt;Node7 -->
<g id="edge10" class="edge">
<title>Node8&#45;&gt;Node7</title>
<path fill="none" stroke="midnightblue" d="M402.28,-52.1C380.61,-42.01 351.1,-28.27 332.29,-19.52"/>
<polygon fill="midnightblue" stroke="midnightblue" points="401.08,-55.4 411.62,-56.44 404.03,-49.05 401.08,-55.4"/>
</g>
<!-- Node9 -->
<g id="node9" class="node">
<title>Node9</title>
<g id="a_node9"><a xlink:href="_o_m_sim_l_o_m16_8cc.html" target="_top" xlink:title=" ">
<polygon fill="white" stroke="black" points="112.5,-0.5 112.5,-19.5 211.5,-19.5 211.5,-0.5 112.5,-0.5"/>
<text text-anchor="middle" x="162" y="-7.5" font-family="Helvetica,sans-Serif" font-size="10.00">OMSimLOM16.cc</text>
</a>
</g>
</g>
<!-- Node8&#45;&gt;Node9 -->
<g id="edge8" class="edge">
<title>Node8&#45;&gt;Node9</title>
<path fill="none" stroke="midnightblue" d="M377.44,-54.41C326.79,-44.2 251.13,-28.96 204.27,-19.52"/>
<polygon fill="midnightblue" stroke="midnightblue" points="377.04,-57.9 387.53,-56.44 378.42,-51.04 377.04,-57.9"/>
</g>
<!-- Node10&#45;&gt;Node6 -->
<g id="edge13" class="edge">
<title>Node10&#45;&gt;Node6</title>
<path fill="none" stroke="midnightblue" d="M534.27,-48.43C525.86,-38.97 515.65,-27.48 508.78,-19.75"/>
<polygon fill="midnightblue" stroke="midnightblue" points="531.81,-50.93 541.07,-56.08 537.05,-46.28 531.81,-50.93"/>
</g>
<!-- Node10&#45;&gt;Node7 -->
<g id="edge14" class="edge">
<title>Node10&#45;&gt;Node7</title>
<path fill="none" stroke="midnightblue" d="M501.79,-54.15C457.39,-43.95 391.81,-28.88 351.06,-19.52"/>
<polygon fill="midnightblue" stroke="midnightblue" points="501.23,-57.62 511.76,-56.44 502.8,-50.79 501.23,-57.62"/>
</g>
<!-- Node11 -->
<g id="node11" class="node">
<title>Node11</title>
<g id="a_node11"><a xlink:href="_o_m_sim_l_o_m18_8cc.html" target="_top" xlink:title=" ">
<polygon fill="white" stroke="black" points="603.5,-0.5 603.5,-19.5 702.5,-19.5 702.5,-0.5 603.5,-0.5"/>
<text text-anchor="middle" x="653" y="-7.5" font-family="Helvetica,sans-Serif" font-size="10.00">OMSimLOM18.cc</text>
</a>
</g>
</g>
<!-- Node10&#45;&gt;Node11 -->
<g id="edge12" class="edge">
<title>Node10&#45;&gt;Node11</title>
<path fill="none" stroke="midnightblue" d="M574.83,-51.59C594.06,-41.61 619.74,-28.27 636.33,-19.65"/>
<polygon fill="midnightblue" stroke="midnightblue" points="572.97,-48.61 565.71,-56.32 576.2,-54.82 572.97,-48.61"/>
</g>
<!-- Node13 -->
<g id="node13" class="node">
<title>Node13</title>
<g id="a_node13"><a xlink:href="_o_m_sim_m_d_o_m_8cc.html" target="_top" xlink:title=" ">
<polygon fill="white" stroke="black" points="1344,-0.5 1344,-19.5 1442,-19.5 1442,-0.5 1344,-0.5"/>
<text text-anchor="middle" x="1393" y="-7.5" font-family="Helvetica,sans-Serif" font-size="10.00">OMSimMDOM.cc</text>
</a>
</g>
</g>
<!-- Node12&#45;&gt;Node13 -->
<g id="edge16" class="edge">
<title>Node12&#45;&gt;Node13</title>
<path fill="none" stroke="midnightblue" d="M1393,-45.8C1393,-36.91 1393,-26.78 1393,-19.75"/>
<polygon fill="midnightblue" stroke="midnightblue" points="1389.5,-46.08 1393,-56.08 1396.5,-46.08 1389.5,-46.08"/>
</g>
<!-- Node14 -->
<g id="node14" class="node">
<title>Node14</title>
<g id="a_node14"><a xlink:href="_o_m_sim_m_d_o_m_flasher_8cc.html" target="_top" xlink:title=" ">
<polygon fill="white" stroke="black" points="1460,-0.5 1460,-19.5 1594,-19.5 1594,-0.5 1460,-0.5"/>
<text text-anchor="middle" x="1527" y="-7.5" font-family="Helvetica,sans-Serif" font-size="10.00">OMSimMDOMFlasher.cc</text>
</a>
</g>
</g>
<!-- Node12&#45;&gt;Node14 -->
<g id="edge17" class="edge">
<title>Node12&#45;&gt;Node14</title>
<path fill="none" stroke="midnightblue" d="M1423.68,-52.64C1448.82,-42.5 1483.75,-28.43 1505.87,-19.52"/>
<polygon fill="midnightblue" stroke="midnightblue" points="1422.2,-49.46 1414.23,-56.44 1424.82,-55.95 1422.2,-49.46"/>
</g>
<!-- Node15 -->
<g id="node15" class="node">
<title>Node15</title>
<g id="a_node15"><a xlink:href="_o_m_sim_m_d_o_m_harness_8cc.html" target="_top" xlink:title=" ">
<polygon fill="white" stroke="black" points="1612,-0.5 1612,-19.5 1750,-19.5 1750,-0.5 1612,-0.5"/>
<text text-anchor="middle" x="1681" y="-7.5" font-family="Helvetica,sans-Serif" font-size="10.00">OMSimMDOMHarness.cc</text>
</a>
</g>
</g>
<!-- Node12&#45;&gt;Node15 -->
<g id="edge18" class="edge">
<title>Node12&#45;&gt;Node15</title>
<path fill="none" stroke="midnightblue" d="M1448.8,-54.54C1503.23,-44.33 1585,-29 1635.58,-19.52"/>
<polygon fill="midnightblue" stroke="midnightblue" points="1447.82,-51.16 1438.63,-56.44 1449.11,-58.04 1447.82,-51.16"/>
</g>
<!-- Node16 -->
<g id="node16" class="node">
<title>Node16</title>
<g id="a_node16"><a xlink:href="effective__area_2include_2_o_m_sim_detector_construction_8hh.html" target="_top" xlink:title=" ">
<polygon fill="white" stroke="black" points="1768,-0.5 1768,-19.5 1938,-19.5 1938,-0.5 1768,-0.5"/>
<text text-anchor="middle" x="1853" y="-7.5" font-family="Helvetica,sans-Serif" font-size="10.00">OMSimDetectorConstruction.hh</text>
</a>
</g>
</g>
<!-- Node12&#45;&gt;Node16 -->
<g id="edge19" class="edge">
<title>Node12&#45;&gt;Node16</title>
<path fill="none" stroke="midnightblue" d="M1453.27,-57.92C1537.44,-48.04 1689.99,-30.14 1780.34,-19.53"/>
<polygon fill="midnightblue" stroke="midnightblue" points="1452.63,-54.48 1443.1,-59.12 1453.44,-61.43 1452.63,-54.48"/>
</g>
<!-- Node17 -->
<g id="node17" class="node">
<title>Node17</title>
<g id="a_node17"><a xlink:href="radioactive__decays_2include_2_o_m_sim_detector_construction_8hh.html" target="_top" xlink:title=" ">
<polygon fill="white" stroke="black" points="1156,-0.5 1156,-19.5 1326,-19.5 1326,-0.5 1156,-0.5"/>
<text text-anchor="middle" x="1241" y="-7.5" font-family="Helvetica,sans-Serif" font-size="10.00">OMSimDetectorConstruction.hh</text>
</a>
</g>
</g>
<!-- Node12&#45;&gt;Node17 -->
<g id="edge20" class="edge">
<title>Node12&#45;&gt;Node17</title>
<path fill="none" stroke="midnightblue" d="M1359.33,-53.04C1330.73,-42.88 1290.39,-28.55 1264.97,-19.52"/>
<polygon fill="midnightblue" stroke="midnightblue" points="1358.32,-56.39 1368.92,-56.44 1360.66,-49.8 1358.32,-56.39"/>
</g>
<!-- Node18&#45;&gt;Node4 -->
<g id="edge22" class="edge">
<title>Node18&#45;&gt;Node4</title>
<path fill="none" stroke="midnightblue" d="M518.69,-110.35C470.5,-100.14 398.72,-84.94 354.22,-75.52"/>
<polygon fill="midnightblue" stroke="midnightblue" points="518.09,-113.8 528.59,-112.44 519.54,-106.95 518.09,-113.8"/>
</g>
<!-- Node18&#45;&gt;Node8 -->
<g id="edge23" class="edge">
<title>Node18&#45;&gt;Node8</title>
<path fill="none" stroke="midnightblue" d="M537.52,-108.77C511.41,-98.63 474.96,-84.47 451.92,-75.52"/>
<polygon fill="midnightblue" stroke="midnightblue" points="536.39,-112.08 546.98,-112.44 538.92,-105.56 536.39,-112.08"/>
</g>
<!-- Node18&#45;&gt;Node10 -->
<g id="edge24" class="edge">
<title>Node18&#45;&gt;Node10</title>
<path fill="none" stroke="midnightblue" d="M562.22,-102.69C558.85,-93.59 554.93,-83.01 552.24,-75.75"/>
<polygon fill="midnightblue" stroke="midnightblue" points="558.94,-103.92 565.7,-112.08 565.51,-101.49 558.94,-103.92"/>
</g>
<!-- Node18&#45;&gt;Node12 -->
<g id="edge25" class="edge">
<title>Node18&#45;&gt;Node12</title>
<path fill="none" stroke="midnightblue" d="M647.84,-115.83C815.69,-104.83 1204.32,-79.36 1342.84,-70.29"/>
<polygon fill="midnightblue" stroke="midnightblue" points="647.59,-112.34 637.84,-116.49 648.04,-119.33 647.59,-112.34"/>
</g>
<!-- Node18&#45;&gt;Node19 -->
<g id="edge26" class="edge">
<title>Node18&#45;&gt;Node19</title>
<path fill="none" stroke="midnightblue" d="M593.34,-107.45C611.24,-97.48 635.05,-84.23 650.45,-75.65"/>
<polygon fill="midnightblue" stroke="midnightblue" points="591.62,-104.4 584.58,-112.32 595.02,-110.52 591.62,-104.4"/>
</g>
<!-- Node21 -->
<g id="node21" class="node">
<title>Node21</title>
<g id="a_node21"><a xlink:href="_o_m_sim_decays_g_p_s_8hh.html" target="_top" xlink:title=" ">
<polygon fill="white" stroke="black" points="833,-56.5 833,-75.5 955,-75.5 955,-56.5 833,-56.5"/>
<text text-anchor="middle" x="894" y="-63.5" font-family="Helvetica,sans-Serif" font-size="10.00">OMSimDecaysGPS.hh</text>
</a>
</g>
</g>
<!-- Node18&#45;&gt;Node21 -->
<g id="edge30" class="edge">
<title>Node18&#45;&gt;Node21</title>
<path fill="none" stroke="midnightblue" d="M630.44,-110.79C691.86,-100.59 785.2,-85.08 842.74,-75.52"/>
<polygon fill="midnightblue" stroke="midnightblue" points="629.79,-107.35 620.5,-112.44 630.94,-114.26 629.79,-107.35"/>
</g>
<!-- Node19&#45;&gt;Node6 -->
<g id="edge28" class="edge">
<title>Node19&#45;&gt;Node6</title>
<path fill="none" stroke="midnightblue" d="M630.26,-53.3C599.17,-43.13 554.85,-28.62 527.02,-19.52"/>
<polygon fill="midnightblue" stroke="midnightblue" points="629.26,-56.66 639.86,-56.44 631.44,-50.01 629.26,-56.66"/>
</g>
<!-- Node19&#45;&gt;Node7 -->
<g id="edge29" class="edge">
<title>Node19&#45;&gt;Node7</title>
<path fill="none" stroke="midnightblue" d="M607.26,-55.89C518.17,-42.17 426.82,-28.21 369.82,-19.51"/>
<polygon fill="midnightblue" stroke="midnightblue" points="606.85,-59.37 617.27,-57.43 607.92,-52.45 606.85,-59.37"/>
</g>
<!-- Node20 -->
<g id="node20" class="node">
<title>Node20</title>
<g id="a_node20"><a xlink:href="_o_m_sim_p_d_o_m_8cc.html" target="_top" xlink:title=" ">
<polygon fill="white" stroke="black" points="720.5,-0.5 720.5,-19.5 815.5,-19.5 815.5,-0.5 720.5,-0.5"/>
<text text-anchor="middle" x="768" y="-7.5" font-family="Helvetica,sans-Serif" font-size="10.00">OMSimPDOM.cc</text>
</a>
</g>
</g>
<!-- Node19&#45;&gt;Node20 -->
<g id="edge27" class="edge">
<title>Node19&#45;&gt;Node20</title>
<path fill="none" stroke="midnightblue" d="M691.33,-51.59C710.19,-41.61 735.38,-28.27 751.65,-19.65"/>
<polygon fill="midnightblue" stroke="midnightblue" points="689.59,-48.55 682.39,-56.32 692.86,-54.74 689.59,-48.55"/>
</g>
<!-- Node22 -->
<g id="node22" class="node">
<title>Node22</title>
<g id="a_node22"><a xlink:href="_o_m_sim__radioactive__decays_8cc.html" target="_top" xlink:title=" ">
<polygon fill="white" stroke="black" points="972.5,-0.5 972.5,-19.5 1137.5,-19.5 1137.5,-0.5 972.5,-0.5"/>
<text text-anchor="middle" x="1055" y="-7.5" font-family="Helvetica,sans-Serif" font-size="10.00">OMSim_radioactive_decays.cc</text>
</a>
</g>
</g>
<!-- Node21&#45;&gt;Node22 -->
<g id="edge31" class="edge">
<title>Node21&#45;&gt;Node22</title>
<path fill="none" stroke="midnightblue" d="M929.26,-53.17C959.58,-43 1002.57,-28.59 1029.61,-19.52"/>
<polygon fill="midnightblue" stroke="midnightblue" points="927.88,-49.95 919.51,-56.44 930.1,-56.58 927.88,-49.95"/>
</g>
<!-- Node23 -->
<g id="node23" class="node">
<title>Node23</title>
<g id="a_node23"><a xlink:href="_o_m_sim_decays_g_p_s_8cc.html" target="_top" xlink:title=" ">
<polygon fill="white" stroke="black" points="833.5,-0.5 833.5,-19.5 954.5,-19.5 954.5,-0.5 833.5,-0.5"/>
<text text-anchor="middle" x="894" y="-7.5" font-family="Helvetica,sans-Serif" font-size="10.00">OMSimDecaysGPS.cc</text>
</a>
</g>
</g>
<!-- Node21&#45;&gt;Node23 -->
<g id="edge32" class="edge">
<title>Node21&#45;&gt;Node23</title>
<path fill="none" stroke="midnightblue" d="M894,-45.8C894,-36.91 894,-26.78 894,-19.75"/>
<polygon fill="midnightblue" stroke="midnightblue" points="890.5,-46.08 894,-56.08 897.5,-46.08 890.5,-46.08"/>
</g>
</g>
</svg>
