<?xml version="1.0" encoding="UTF-8" standalone="no"?>
<!DOCTYPE svg PUBLIC "-//W3C//DTD SVG 1.1//EN"
 "http://www.w3.org/Graphics/SVG/1.1/DTD/svg11.dtd">
<!-- Generated by graphviz version 2.43.0 (0)
 -->
<!-- Title: OMSimSNAnalysis.cc Pages: 1 -->
<svg width="565pt" height="140pt"
 viewBox="0.00 0.00 565.00 140.00" xmlns="http://www.w3.org/2000/svg" xmlns:xlink="http://www.w3.org/1999/xlink">
<g id="graph0" class="graph" transform="scale(1 1) rotate(0) translate(4 136)">
<title>OMSimSNAnalysis.cc</title>
<polygon fill="white" stroke="transparent" points="-4,4 -4,-136 561,-136 561,4 -4,4"/>
<!-- Node1 -->
<g id="node1" class="node">
<title>Node1</title>
<g id="a_node1"><a xlink:title="Analyze data and write output files.">
<polygon fill="#bfbfbf" stroke="black" points="360.5,-112.5 360.5,-131.5 480.5,-131.5 480.5,-112.5 360.5,-112.5"/>
<text text-anchor="middle" x="420.5" y="-119.5" font-family="Helvetica,sans-Serif" font-size="10.00">OMSimSNAnalysis.cc</text>
</a>
</g>
</g>
<!-- Node2 -->
<g id="node2" class="node">
<title>Node2</title>
<g id="a_node2"><a xlink:href="_o_m_sim_s_n_analysis_8hh.html" target="_top" xlink:title=" ">
<polygon fill="white" stroke="black" points="220.5,-56.5 220.5,-75.5 342.5,-75.5 342.5,-56.5 220.5,-56.5"/>
<text text-anchor="middle" x="281.5" y="-63.5" font-family="Helvetica,sans-Serif" font-size="10.00">OMSimSNAnalysis.hh</text>
</a>
</g>
</g>
<!-- Node1&#45;&gt;Node2 -->
<g id="edge1" class="edge">
<title>Node1&#45;&gt;Node2</title>
<path fill="none" stroke="midnightblue" d="M398.48,-112.44C375.4,-103.48 338.94,-89.31 312.86,-79.18"/>
<polygon fill="midnightblue" stroke="midnightblue" points="314.01,-75.88 303.42,-75.52 311.48,-82.4 314.01,-75.88"/>
</g>
<!-- Node9 -->
<g id="node9" class="node">
<title>Node9</title>
<g id="a_node9"><a xlink:title=" ">
<polygon fill="white" stroke="#bfbfbf" points="361,-56.5 361,-75.5 480,-75.5 480,-56.5 361,-56.5"/>
<text text-anchor="middle" x="420.5" y="-63.5" font-family="Helvetica,sans-Serif" font-size="10.00">G4SystemOfUnits.hh</text>
</a>
</g>
</g>
<!-- Node1&#45;&gt;Node9 -->
<g id="edge8" class="edge">
<title>Node1&#45;&gt;Node9</title>
<path fill="none" stroke="midnightblue" d="M420.5,-112.08C420.5,-105.01 420.5,-94.86 420.5,-85.99"/>
<polygon fill="midnightblue" stroke="midnightblue" points="424,-85.75 420.5,-75.75 417,-85.75 424,-85.75"/>
</g>
<!-- Node10 -->
<g id="node10" class="node">
<title>Node10</title>
<g id="a_node10"><a xlink:title=" ">
<polygon fill="white" stroke="#bfbfbf" points="498,-56.5 498,-75.5 557,-75.5 557,-56.5 498,-56.5"/>
<text text-anchor="middle" x="527.5" y="-63.5" font-family="Helvetica,sans-Serif" font-size="10.00">G4ios.hh</text>
</a>
</g>
</g>
<!-- Node1&#45;&gt;Node10 -->
<g id="edge9" class="edge">
<title>Node1&#45;&gt;Node10</title>
<path fill="none" stroke="midnightblue" d="M437.69,-112.32C454.85,-103.66 481.45,-90.24 501.25,-80.25"/>
<polygon fill="midnightblue" stroke="midnightblue" points="503,-83.28 510.35,-75.65 499.85,-77.04 503,-83.28"/>
</g>
<!-- Node3 -->
<g id="node3" class="node">
<title>Node3</title>
<g id="a_node3"><a xlink:title=" ">
<polygon fill="white" stroke="#bfbfbf" points="0,-0.5 0,-19.5 73,-19.5 73,-0.5 0,-0.5"/>
<text text-anchor="middle" x="36.5" y="-7.5" font-family="Helvetica,sans-Serif" font-size="10.00">G4Types.hh</text>
</a>
</g>
</g>
<!-- Node2&#45;&gt;Node3 -->
<g id="edge2" class="edge">
<title>Node2&#45;&gt;Node3</title>
<path fill="none" stroke="midnightblue" d="M242.68,-56.44C199.31,-46.88 129.14,-31.42 82.91,-21.23"/>
<polygon fill="midnightblue" stroke="midnightblue" points="83.66,-17.81 73.14,-19.08 82.15,-24.65 83.66,-17.81"/>
</g>
<!-- Node4 -->
<g id="node4" class="node">
<title>Node4</title>
<g id="a_node4"><a xlink:title=" ">
<polygon fill="white" stroke="#bfbfbf" points="91.5,-0.5 91.5,-19.5 165.5,-19.5 165.5,-0.5 91.5,-0.5"/>
<text text-anchor="middle" x="128.5" y="-7.5" font-family="Helvetica,sans-Serif" font-size="10.00">G4String.hh</text>
</a>
</g>
</g>
<!-- Node2&#45;&gt;Node4 -->
<g id="edge3" class="edge">
<title>Node2&#45;&gt;Node4</title>
<path fill="none" stroke="midnightblue" d="M257.26,-56.44C231.63,-47.4 191.01,-33.06 162.26,-22.92"/>
<polygon fill="midnightblue" stroke="midnightblue" points="163.22,-19.54 152.63,-19.52 160.89,-26.15 163.22,-19.54"/>
</g>
<!-- Node5 -->
<g id="node5" class="node">
<title>Node5</title>
<g id="a_node5"><a xlink:title=" ">
<polygon fill="white" stroke="#bfbfbf" points="184,-0.5 184,-19.5 287,-19.5 287,-0.5 184,-0.5"/>
<text text-anchor="middle" x="235.5" y="-7.5" font-family="Helvetica,sans-Serif" font-size="10.00">G4ThreeVector.hh</text>
</a>
</g>
</g>
<!-- Node2&#45;&gt;Node5 -->
<g id="edge4" class="edge">
<title>Node2&#45;&gt;Node5</title>
<path fill="none" stroke="midnightblue" d="M273.9,-56.08C267.27,-48.3 257.48,-36.8 249.44,-27.37"/>
<polygon fill="midnightblue" stroke="midnightblue" points="252.1,-25.09 242.95,-19.75 246.77,-29.63 252.1,-25.09"/>
</g>
<!-- Node6 -->
<g id="node6" class="node">
<title>Node6</title>
<g id="a_node6"><a xlink:title=" ">
<polygon fill="white" stroke="#bfbfbf" points="305,-0.5 305,-19.5 352,-19.5 352,-0.5 305,-0.5"/>
<text text-anchor="middle" x="328.5" y="-7.5" font-family="Helvetica,sans-Serif" font-size="10.00">vector</text>
</a>
</g>
</g>
<!-- Node2&#45;&gt;Node6 -->
<g id="edge5" class="edge">
<title>Node2&#45;&gt;Node6</title>
<path fill="none" stroke="midnightblue" d="M289.26,-56.08C296.04,-48.3 306.04,-36.8 314.26,-27.37"/>
<polygon fill="midnightblue" stroke="midnightblue" points="316.96,-29.59 320.88,-19.75 311.68,-25 316.96,-29.59"/>
</g>
<!-- Node7 -->
<g id="node7" class="node">
<title>Node7</title>
<g id="a_node7"><a xlink:title=" ">
<polygon fill="white" stroke="#bfbfbf" points="370,-0.5 370,-19.5 425,-19.5 425,-0.5 370,-0.5"/>
<text text-anchor="middle" x="397.5" y="-7.5" font-family="Helvetica,sans-Serif" font-size="10.00">fstream</text>
</a>
</g>
</g>
<!-- Node2&#45;&gt;Node7 -->
<g id="edge6" class="edge">
<title>Node2&#45;&gt;Node7</title>
<path fill="none" stroke="midnightblue" d="M299.88,-56.44C318.72,-47.68 348.23,-33.94 369.88,-23.86"/>
<polygon fill="midnightblue" stroke="midnightblue" points="371.62,-26.91 379.21,-19.52 368.66,-20.56 371.62,-26.91"/>
</g>
<!-- Node8 -->
<g id="node8" class="node">
<title>Node8</title>
<g id="a_node8"><a xlink:title=" ">
<polygon fill="white" stroke="#bfbfbf" points="443,-0.5 443,-19.5 484,-19.5 484,-0.5 443,-0.5"/>
<text text-anchor="middle" x="463.5" y="-7.5" font-family="Helvetica,sans-Serif" font-size="10.00">tuple</text>
</a>
</g>
</g>
<!-- Node2&#45;&gt;Node8 -->
<g id="edge7" class="edge">
<title>Node2&#45;&gt;Node8</title>
<path fill="none" stroke="midnightblue" d="M311.16,-56.42C340.08,-48.02 385.56,-34.73 433.33,-20.32"/>
<polygon fill="midnightblue" stroke="midnightblue" points="434.36,-23.67 442.92,-17.43 432.33,-16.97 434.36,-23.67"/>
</g>
</g>
</svg>
