<?xml version="1.0" encoding="UTF-8" standalone="no"?>
<!DOCTYPE svg PUBLIC "-//W3C//DTD SVG 1.1//EN"
 "http://www.w3.org/Graphics/SVG/1.1/DTD/svg11.dtd">
<!-- Generated by graphviz version 2.43.0 (0)
 -->
<!-- Title: /home/runner/work/OMSim/OMSim/common/src/OMSimPDOM.cc Pages: 1 -->
<svg width="1753pt" height="330pt"
 viewBox="0.00 0.00 1752.50 330.00" xmlns="http://www.w3.org/2000/svg" xmlns:xlink="http://www.w3.org/1999/xlink">
<g id="graph0" class="graph" transform="scale(1 1) rotate(0) translate(4 326)">
<title>/home/runner/work/OMSim/OMSim/common/src/OMSimPDOM.cc</title>
<polygon fill="white" stroke="transparent" points="-4,4 -4,-326 1748.5,-326 1748.5,4 -4,4"/>
<!-- Node1 -->
<g id="node1" class="node">
<title>Node1</title>
<g id="a_node1"><a xlink:title="Implementation of the pDOM/Gen1 DOM class.">
<polygon fill="#bfbfbf" stroke="black" points="1042.5,-291.5 1042.5,-321.5 1242.5,-321.5 1242.5,-291.5 1042.5,-291.5"/>
<text text-anchor="start" x="1050.5" y="-309.5" font-family="Helvetica,sans-Serif" font-size="10.00">/home/runner/work/OMSim</text>
<text text-anchor="middle" x="1142.5" y="-298.5" font-family="Helvetica,sans-Serif" font-size="10.00">/OMSim/common/src/OMSimPDOM.cc</text>
</a>
</g>
</g>
<!-- Node2 -->
<g id="node2" class="node">
<title>Node2</title>
<g id="a_node2"><a xlink:href="_o_m_sim_p_d_o_m_8hh.html" target="_top" xlink:title=" ">
<polygon fill="white" stroke="black" points="710,-235.5 710,-254.5 807,-254.5 807,-235.5 710,-235.5"/>
<text text-anchor="middle" x="758.5" y="-242.5" font-family="Helvetica,sans-Serif" font-size="10.00">OMSimPDOM.hh</text>
</a>
</g>
</g>
<!-- Node1&#45;&gt;Node2 -->
<g id="edge1" class="edge">
<title>Node1&#45;&gt;Node2</title>
<path fill="none" stroke="midnightblue" d="M1051.98,-291.47C979.41,-280.23 879.7,-264.78 817.2,-255.1"/>
<polygon fill="midnightblue" stroke="midnightblue" points="817.54,-251.61 807.12,-253.53 816.47,-258.52 817.54,-251.61"/>
</g>
<!-- Node4 -->
<g id="node4" class="node">
<title>Node4</title>
<g id="a_node4"><a xlink:title=" ">
<polygon fill="white" stroke="#bfbfbf" points="985.5,-67.5 985.5,-86.5 1101.5,-86.5 1101.5,-67.5 985.5,-67.5"/>
<text text-anchor="middle" x="1043.5" y="-74.5" font-family="Helvetica,sans-Serif" font-size="10.00">G4LogicalVolume.hh</text>
</a>
</g>
</g>
<!-- Node1&#45;&gt;Node4 -->
<g id="edge35" class="edge">
<title>Node1&#45;&gt;Node4</title>
<path fill="none" stroke="midnightblue" d="M1136.31,-291.27C1119.06,-251.64 1070.51,-140.08 1051.39,-96.12"/>
<polygon fill="midnightblue" stroke="midnightblue" points="1054.58,-94.7 1047.38,-86.93 1048.17,-97.49 1054.58,-94.7"/>
</g>
<!-- Node5 -->
<g id="node5" class="node">
<title>Node5</title>
<g id="a_node5"><a xlink:title=" ">
<polygon fill="white" stroke="#bfbfbf" points="775,-6 775,-25 894,-25 894,-6 775,-6"/>
<text text-anchor="middle" x="834.5" y="-13" font-family="Helvetica,sans-Serif" font-size="10.00">G4SystemOfUnits.hh</text>
</a>
</g>
</g>
<!-- Node1&#45;&gt;Node5 -->
<g id="edge39" class="edge">
<title>Node1&#45;&gt;Node5</title>
<path fill="none" stroke="midnightblue" d="M1149.76,-291.17C1174.25,-242.42 1251.37,-85 1235.5,-67 1214,-42.63 1013.59,-27.08 904.49,-20.35"/>
<polygon fill="midnightblue" stroke="midnightblue" points="904.42,-16.84 894.22,-19.73 903.99,-23.83 904.42,-16.84"/>
</g>
<!-- Node6 -->
<g id="node6" class="node">
<title>Node6</title>
<g id="a_node6"><a xlink:title=" ">
<polygon fill="white" stroke="#bfbfbf" points="1120,-67.5 1120,-86.5 1227,-86.5 1227,-67.5 1120,-67.5"/>
<text text-anchor="middle" x="1173.5" y="-74.5" font-family="Helvetica,sans-Serif" font-size="10.00">G4Transform3D.hh</text>
</a>
</g>
</g>
<!-- Node1&#45;&gt;Node6 -->
<g id="edge40" class="edge">
<title>Node1&#45;&gt;Node6</title>
<path fill="none" stroke="midnightblue" d="M1143.13,-291.42C1143.86,-277.17 1145.25,-254.5 1147.5,-235 1153.3,-184.85 1164.07,-126.29 1169.76,-96.89"/>
<polygon fill="midnightblue" stroke="midnightblue" points="1173.24,-97.3 1171.73,-86.81 1166.37,-95.95 1173.24,-97.3"/>
</g>
<!-- Node15 -->
<g id="node15" class="node">
<title>Node15</title>
<g id="a_node15"><a xlink:title=" ">
<polygon fill="white" stroke="#bfbfbf" points="20.5,-67.5 20.5,-86.5 130.5,-86.5 130.5,-67.5 20.5,-67.5"/>
<text text-anchor="middle" x="75.5" y="-74.5" font-family="Helvetica,sans-Serif" font-size="10.00">G4PVPlacement.hh</text>
</a>
</g>
</g>
<!-- Node1&#45;&gt;Node15 -->
<g id="edge38" class="edge">
<title>Node1&#45;&gt;Node15</title>
<path fill="none" stroke="midnightblue" d="M1042.07,-299.36C934.8,-292.01 760,-277.76 610.5,-255 371.62,-218.64 235.03,-327.07 78.5,-143 67.87,-130.51 68.34,-111.28 70.73,-96.97"/>
<polygon fill="midnightblue" stroke="midnightblue" points="74.24,-97.28 72.88,-86.77 67.39,-95.83 74.24,-97.28"/>
</g>
<!-- Node18 -->
<g id="node18" class="node">
<title>Node18</title>
<g id="a_node18"><a xlink:href="_o_m_sim_p_m_t_construction_8hh.html" target="_top" xlink:title=" ">
<polygon fill="white" stroke="black" points="385,-179.5 385,-198.5 534,-198.5 534,-179.5 385,-179.5"/>
<text text-anchor="middle" x="459.5" y="-186.5" font-family="Helvetica,sans-Serif" font-size="10.00">OMSimPMTConstruction.hh</text>
</a>
</g>
</g>
<!-- Node1&#45;&gt;Node18 -->
<g id="edge32" class="edge">
<title>Node1&#45;&gt;Node18</title>
<path fill="none" stroke="midnightblue" d="M1042.23,-298.35C952.23,-290.91 816.76,-277.19 700.5,-255 626.74,-240.92 542.41,-216.12 495.62,-201.56"/>
<polygon fill="midnightblue" stroke="midnightblue" points="496.53,-198.18 485.94,-198.53 494.44,-204.86 496.53,-198.18"/>
</g>
<!-- Node20 -->
<g id="node20" class="node">
<title>Node20</title>
<g id="a_node20"><a xlink:title=" ">
<polygon fill="white" stroke="#bfbfbf" points="941,-123.5 941,-142.5 1008,-142.5 1008,-123.5 941,-123.5"/>
<text text-anchor="middle" x="974.5" y="-130.5" font-family="Helvetica,sans-Serif" font-size="10.00">G4Tubs.hh</text>
</a>
</g>
</g>
<!-- Node1&#45;&gt;Node20 -->
<g id="edge41" class="edge">
<title>Node1&#45;&gt;Node20</title>
<path fill="none" stroke="midnightblue" d="M1098.02,-291.46C1077.69,-283.33 1054.43,-271.4 1037.5,-255 1007.14,-225.58 988.49,-178.36 979.98,-152.47"/>
<polygon fill="midnightblue" stroke="midnightblue" points="983.27,-151.29 976.95,-142.79 976.59,-153.38 983.27,-151.29"/>
</g>
<!-- Node23 -->
<g id="node23" class="node">
<title>Node23</title>
<g id="a_node23"><a xlink:title=" ">
<polygon fill="white" stroke="#bfbfbf" points="1189.5,-235.5 1189.5,-254.5 1275.5,-254.5 1275.5,-235.5 1189.5,-235.5"/>
<text text-anchor="middle" x="1232.5" y="-242.5" font-family="Helvetica,sans-Serif" font-size="10.00">G4Ellipsoid.hh</text>
</a>
</g>
</g>
<!-- Node1&#45;&gt;Node23 -->
<g id="edge33" class="edge">
<title>Node1&#45;&gt;Node23</title>
<path fill="none" stroke="midnightblue" d="M1163.83,-291.4C1177.99,-282.04 1196.51,-269.79 1210.75,-260.38"/>
<polygon fill="midnightblue" stroke="midnightblue" points="1212.99,-263.09 1219.4,-254.66 1209.13,-257.25 1212.99,-263.09"/>
</g>
<!-- Node24 -->
<g id="node24" class="node">
<title>Node24</title>
<g id="a_node24"><a xlink:title=" ">
<polygon fill="white" stroke="#bfbfbf" points="1294,-235.5 1294,-254.5 1431,-254.5 1431,-235.5 1294,-235.5"/>
<text text-anchor="middle" x="1362.5" y="-242.5" font-family="Helvetica,sans-Serif" font-size="10.00">G4LogicalSkinSurface.hh</text>
</a>
</g>
</g>
<!-- Node1&#45;&gt;Node24 -->
<g id="edge34" class="edge">
<title>Node1&#45;&gt;Node24</title>
<path fill="none" stroke="midnightblue" d="M1194.36,-291.47C1233.14,-280.99 1285.46,-266.84 1321.38,-257.12"/>
<polygon fill="midnightblue" stroke="midnightblue" points="1322.31,-260.5 1331.05,-254.51 1320.48,-253.74 1322.31,-260.5"/>
</g>
<!-- Node25 -->
<g id="node25" class="node">
<title>Node25</title>
<g id="a_node25"><a xlink:title=" ">
<polygon fill="white" stroke="#bfbfbf" points="1449.5,-235.5 1449.5,-254.5 1511.5,-254.5 1511.5,-235.5 1449.5,-235.5"/>
<text text-anchor="middle" x="1480.5" y="-242.5" font-family="Helvetica,sans-Serif" font-size="10.00">G4Orb.hh</text>
</a>
</g>
</g>
<!-- Node1&#45;&gt;Node25 -->
<g id="edge36" class="edge">
<title>Node1&#45;&gt;Node25</title>
<path fill="none" stroke="midnightblue" d="M1231.72,-291.47C1288.27,-282.31 1363.17,-269.68 1438.98,-255.02"/>
<polygon fill="midnightblue" stroke="midnightblue" points="1440.05,-258.38 1449.19,-253.03 1438.71,-251.51 1440.05,-258.38"/>
</g>
<!-- Node26 -->
<g id="node26" class="node">
<title>Node26</title>
<g id="a_node26"><a xlink:title=" ">
<polygon fill="white" stroke="#bfbfbf" points="1530,-235.5 1530,-254.5 1619,-254.5 1619,-235.5 1530,-235.5"/>
<text text-anchor="middle" x="1574.5" y="-242.5" font-family="Helvetica,sans-Serif" font-size="10.00">G4Polycone.hh</text>
</a>
</g>
</g>
<!-- Node1&#45;&gt;Node26 -->
<g id="edge37" class="edge">
<title>Node1&#45;&gt;Node26</title>
<path fill="none" stroke="midnightblue" d="M1242.51,-293.03C1316.32,-283.62 1419.48,-270.04 1519.72,-255.08"/>
<polygon fill="midnightblue" stroke="midnightblue" points="1520.36,-258.52 1529.73,-253.58 1519.32,-251.6 1520.36,-258.52"/>
</g>
<!-- Node27 -->
<g id="node27" class="node">
<title>Node27</title>
<g id="a_node27"><a xlink:href="_o_m_sim_logger_8hh.html" target="_top" xlink:title=" ">
<polygon fill="white" stroke="black" points="1637,-235.5 1637,-254.5 1736,-254.5 1736,-235.5 1637,-235.5"/>
<text text-anchor="middle" x="1686.5" y="-242.5" font-family="Helvetica,sans-Serif" font-size="10.00">OMSimLogger.hh</text>
</a>
</g>
</g>
<!-- Node1&#45;&gt;Node27 -->
<g id="edge42" class="edge">
<title>Node1&#45;&gt;Node27</title>
<path fill="none" stroke="midnightblue" d="M1242.51,-296.49C1338.39,-287.53 1487.43,-272.76 1626.92,-255.02"/>
<polygon fill="midnightblue" stroke="midnightblue" points="1627.47,-258.47 1636.95,-253.73 1626.59,-251.53 1627.47,-258.47"/>
</g>
<!-- Node3 -->
<g id="node3" class="node">
<title>Node3</title>
<g id="a_node3"><a xlink:href="abc_detector_component_8hh.html" target="_top" xlink:title=" ">
<polygon fill="white" stroke="black" points="685,-123.5 685,-142.5 832,-142.5 832,-123.5 685,-123.5"/>
<text text-anchor="middle" x="758.5" y="-130.5" font-family="Helvetica,sans-Serif" font-size="10.00">abcDetectorComponent.hh</text>
</a>
</g>
</g>
<!-- Node2&#45;&gt;Node3 -->
<g id="edge2" class="edge">
<title>Node2&#45;&gt;Node3</title>
<path fill="none" stroke="midnightblue" d="M758.5,-235.37C758.5,-217.62 758.5,-176.67 758.5,-152.6"/>
<polygon fill="midnightblue" stroke="midnightblue" points="762,-152.59 758.5,-142.59 755,-152.59 762,-152.59"/>
</g>
<!-- Node2&#45;&gt;Node18 -->
<g id="edge18" class="edge">
<title>Node2&#45;&gt;Node18</title>
<path fill="none" stroke="midnightblue" d="M711.12,-235.44C658.42,-225.92 573.27,-210.55 516.84,-200.36"/>
<polygon fill="midnightblue" stroke="midnightblue" points="517.12,-196.85 506.66,-198.52 515.87,-203.74 517.12,-196.85"/>
</g>
<!-- Node3&#45;&gt;Node4 -->
<g id="edge3" class="edge">
<title>Node3&#45;&gt;Node4</title>
<path fill="none" stroke="midnightblue" d="M803.66,-123.44C853.79,-113.94 934.72,-98.61 988.51,-88.42"/>
<polygon fill="midnightblue" stroke="midnightblue" points="989.38,-91.82 998.55,-86.52 988.08,-84.94 989.38,-91.82"/>
</g>
<!-- Node3&#45;&gt;Node5 -->
<g id="edge4" class="edge">
<title>Node3&#45;&gt;Node5</title>
<path fill="none" stroke="midnightblue" d="M828.29,-123.45C872.84,-116.4 924.72,-104.65 938.5,-87 959.51,-60.09 915.96,-39.73 878.93,-27.97"/>
<polygon fill="midnightblue" stroke="midnightblue" points="879.8,-24.58 869.21,-25.03 877.77,-31.28 879.8,-24.58"/>
</g>
<!-- Node3&#45;&gt;Node6 -->
<g id="edge5" class="edge">
<title>Node3&#45;&gt;Node6</title>
<path fill="none" stroke="midnightblue" d="M827.67,-123.46C896.46,-114.9 1005.3,-101.17 1109.79,-87.08"/>
<polygon fill="midnightblue" stroke="midnightblue" points="1110.45,-90.52 1119.89,-85.71 1109.51,-83.58 1110.45,-90.52"/>
</g>
<!-- Node7 -->
<g id="node7" class="node">
<title>Node7</title>
<g id="a_node7"><a xlink:title=" ">
<polygon fill="white" stroke="#bfbfbf" points="487.5,-67.5 487.5,-86.5 595.5,-86.5 595.5,-67.5 487.5,-67.5"/>
<text text-anchor="middle" x="541.5" y="-74.5" font-family="Helvetica,sans-Serif" font-size="10.00">G4VisAttributes.hh</text>
</a>
</g>
</g>
<!-- Node3&#45;&gt;Node7 -->
<g id="edge6" class="edge">
<title>Node3&#45;&gt;Node7</title>
<path fill="none" stroke="midnightblue" d="M724.12,-123.44C686.58,-114.1 626.37,-99.12 585.43,-88.93"/>
<polygon fill="midnightblue" stroke="midnightblue" points="586.27,-85.53 575.72,-86.52 584.58,-92.33 586.27,-85.53"/>
</g>
<!-- Node8 -->
<g id="node8" class="node">
<title>Node8</title>
<g id="a_node8"><a xlink:href="_o_m_sim_input_data_8hh.html" target="_top" xlink:title=" ">
<polygon fill="white" stroke="black" points="278,-67.5 278,-86.5 393,-86.5 393,-67.5 278,-67.5"/>
<text text-anchor="middle" x="335.5" y="-74.5" font-family="Helvetica,sans-Serif" font-size="10.00">OMSimInputData.hh</text>
</a>
</g>
</g>
<!-- Node3&#45;&gt;Node8 -->
<g id="edge7" class="edge">
<title>Node3&#45;&gt;Node8</title>
<path fill="none" stroke="midnightblue" d="M691.47,-123.44C612.66,-113.38 482.58,-96.78 403.39,-86.67"/>
<polygon fill="midnightblue" stroke="midnightblue" points="403.41,-83.14 393.05,-85.35 402.52,-90.08 403.41,-83.14"/>
</g>
<!-- Node14 -->
<g id="node14" class="node">
<title>Node14</title>
<g id="a_node14"><a xlink:title=" ">
<polygon fill="white" stroke="#bfbfbf" points="614,-67.5 614,-86.5 739,-86.5 739,-67.5 614,-67.5"/>
<text text-anchor="middle" x="676.5" y="-74.5" font-family="Helvetica,sans-Serif" font-size="10.00">G4SubtractionSolid.hh</text>
</a>
</g>
</g>
<!-- Node3&#45;&gt;Node14 -->
<g id="edge14" class="edge">
<title>Node3&#45;&gt;Node14</title>
<path fill="none" stroke="midnightblue" d="M745.33,-123.32C732.65,-114.98 713.27,-102.21 698.29,-92.35"/>
<polygon fill="midnightblue" stroke="midnightblue" points="699.92,-89.23 689.64,-86.65 696.07,-95.08 699.92,-89.23"/>
</g>
<!-- Node3&#45;&gt;Node15 -->
<g id="edge15" class="edge">
<title>Node3&#45;&gt;Node15</title>
<path fill="none" stroke="midnightblue" d="M684.76,-126.17C550.59,-115.56 268.65,-93.27 140.89,-83.17"/>
<polygon fill="midnightblue" stroke="midnightblue" points="141.1,-79.68 130.86,-82.38 140.55,-86.65 141.1,-79.68"/>
</g>
<!-- Node16 -->
<g id="node16" class="node">
<title>Node16</title>
<g id="a_node16"><a xlink:title=" ">
<polygon fill="white" stroke="#bfbfbf" points="831.5,-67.5 831.5,-86.5 929.5,-86.5 929.5,-67.5 831.5,-67.5"/>
<text text-anchor="middle" x="880.5" y="-74.5" font-family="Helvetica,sans-Serif" font-size="10.00">G4MultiUnion.hh</text>
</a>
</g>
</g>
<!-- Node3&#45;&gt;Node16 -->
<g id="edge16" class="edge">
<title>Node3&#45;&gt;Node16</title>
<path fill="none" stroke="midnightblue" d="M777.83,-123.44C797.82,-114.6 829.24,-100.69 852.06,-90.59"/>
<polygon fill="midnightblue" stroke="midnightblue" points="853.53,-93.76 861.26,-86.52 850.7,-87.36 853.53,-93.76"/>
</g>
<!-- Node17 -->
<g id="node17" class="node">
<title>Node17</title>
<g id="a_node17"><a xlink:title=" ">
<polygon fill="white" stroke="#bfbfbf" points="757.5,-67.5 757.5,-86.5 813.5,-86.5 813.5,-67.5 757.5,-67.5"/>
<text text-anchor="middle" x="785.5" y="-74.5" font-family="Helvetica,sans-Serif" font-size="10.00">sstream</text>
</a>
</g>
</g>
<!-- Node3&#45;&gt;Node17 -->
<g id="edge17" class="edge">
<title>Node3&#45;&gt;Node17</title>
<path fill="none" stroke="midnightblue" d="M762.96,-123.08C766.65,-115.69 772.02,-104.95 776.59,-95.81"/>
<polygon fill="midnightblue" stroke="midnightblue" points="779.78,-97.26 781.12,-86.75 773.52,-94.13 779.78,-97.26"/>
</g>
<!-- Node8&#45;&gt;Node5 -->
<g id="edge13" class="edge">
<title>Node8&#45;&gt;Node5</title>
<path fill="none" stroke="midnightblue" d="M393.23,-69.12C485.4,-58.13 665.51,-36.65 764.75,-24.82"/>
<polygon fill="midnightblue" stroke="midnightblue" points="765.46,-28.26 774.97,-23.6 764.63,-21.31 765.46,-28.26"/>
</g>
<!-- Node9 -->
<g id="node9" class="node">
<title>Node9</title>
<g id="a_node9"><a xlink:title=" ">
<polygon fill="white" stroke="#bfbfbf" points="0,-0.5 0,-30.5 113,-30.5 113,-0.5 0,-0.5"/>
<text text-anchor="start" x="8" y="-18.5" font-family="Helvetica,sans-Serif" font-size="10.00">boost/property_tree</text>
<text text-anchor="middle" x="56.5" y="-7.5" font-family="Helvetica,sans-Serif" font-size="10.00">/ptree.hpp</text>
</a>
</g>
</g>
<!-- Node8&#45;&gt;Node9 -->
<g id="edge8" class="edge">
<title>Node8&#45;&gt;Node9</title>
<path fill="none" stroke="midnightblue" d="M294.04,-67.44C253.02,-58.93 188.15,-45.39 123.21,-31.36"/>
<polygon fill="midnightblue" stroke="midnightblue" points="123.73,-27.89 113.21,-29.19 122.24,-34.73 123.73,-27.89"/>
</g>
<!-- Node10 -->
<g id="node10" class="node">
<title>Node10</title>
<g id="a_node10"><a xlink:title=" ">
<polygon fill="white" stroke="#bfbfbf" points="522,-0.5 522,-30.5 635,-30.5 635,-0.5 522,-0.5"/>
<text text-anchor="start" x="530" y="-18.5" font-family="Helvetica,sans-Serif" font-size="10.00">boost/property_tree</text>
<text text-anchor="middle" x="578.5" y="-7.5" font-family="Helvetica,sans-Serif" font-size="10.00">/json_parser.hpp</text>
</a>
</g>
</g>
<!-- Node8&#45;&gt;Node10 -->
<g id="edge9" class="edge">
<title>Node8&#45;&gt;Node10</title>
<path fill="none" stroke="midnightblue" d="M370.32,-67.48C407.12,-58.46 466.06,-44.03 511.84,-32.82"/>
<polygon fill="midnightblue" stroke="midnightblue" points="512.82,-36.19 521.7,-30.41 511.15,-29.39 512.82,-36.19"/>
</g>
<!-- Node11 -->
<g id="node11" class="node">
<title>Node11</title>
<g id="a_node11"><a xlink:title=" ">
<polygon fill="white" stroke="#bfbfbf" points="292.5,-6 292.5,-25 378.5,-25 378.5,-6 292.5,-6"/>
<text text-anchor="middle" x="335.5" y="-13" font-family="Helvetica,sans-Serif" font-size="10.00">G4Material.hh</text>
</a>
</g>
</g>
<!-- Node8&#45;&gt;Node11 -->
<g id="edge10" class="edge">
<title>Node8&#45;&gt;Node11</title>
<path fill="none" stroke="midnightblue" d="M335.5,-67.48C335.5,-59.08 335.5,-45.98 335.5,-35.16"/>
<polygon fill="midnightblue" stroke="midnightblue" points="339,-35.01 335.5,-25.01 332,-35.01 339,-35.01"/>
</g>
<!-- Node12 -->
<g id="node12" class="node">
<title>Node12</title>
<g id="a_node12"><a xlink:title=" ">
<polygon fill="white" stroke="#bfbfbf" points="397,-6 397,-25 504,-25 504,-6 397,-6"/>
<text text-anchor="middle" x="450.5" y="-13" font-family="Helvetica,sans-Serif" font-size="10.00">G4NistManager.hh</text>
</a>
</g>
</g>
<!-- Node8&#45;&gt;Node12 -->
<g id="edge11" class="edge">
<title>Node8&#45;&gt;Node12</title>
<path fill="none" stroke="midnightblue" d="M351.98,-67.48C371.11,-57.58 402.87,-41.14 425.15,-29.62"/>
<polygon fill="midnightblue" stroke="midnightblue" points="426.78,-32.71 434.05,-25.01 423.56,-26.5 426.78,-32.71"/>
</g>
<!-- Node13 -->
<g id="node13" class="node">
<title>Node13</title>
<g id="a_node13"><a xlink:title=" ">
<polygon fill="white" stroke="#bfbfbf" points="131,-6 131,-25 274,-25 274,-6 131,-6"/>
<text text-anchor="middle" x="202.5" y="-13" font-family="Helvetica,sans-Serif" font-size="10.00">G4OpBoundaryProcess.hh</text>
</a>
</g>
</g>
<!-- Node8&#45;&gt;Node13 -->
<g id="edge12" class="edge">
<title>Node8&#45;&gt;Node13</title>
<path fill="none" stroke="midnightblue" d="M316.44,-67.48C294.03,-57.45 256.59,-40.7 230.79,-29.15"/>
<polygon fill="midnightblue" stroke="midnightblue" points="232.08,-25.9 221.52,-25.01 229.22,-32.29 232.08,-25.9"/>
</g>
<!-- Node18&#45;&gt;Node3 -->
<g id="edge21" class="edge">
<title>Node18&#45;&gt;Node3</title>
<path fill="none" stroke="midnightblue" d="M506.88,-179.44C559.58,-169.92 644.73,-154.55 701.16,-144.36"/>
<polygon fill="midnightblue" stroke="midnightblue" points="702.13,-147.74 711.34,-142.52 700.88,-140.85 702.13,-147.74"/>
</g>
<!-- Node18&#45;&gt;Node4 -->
<g id="edge22" class="edge">
<title>Node18&#45;&gt;Node4</title>
<path fill="none" stroke="midnightblue" d="M534.31,-183.43C611.64,-177.72 735.54,-165.78 840.5,-143 902.54,-129.53 972.6,-104.92 1012.07,-90.15"/>
<polygon fill="midnightblue" stroke="midnightblue" points="1013.53,-93.34 1021.65,-86.53 1011.06,-86.79 1013.53,-93.34"/>
</g>
<!-- Node18&#45;&gt;Node5 -->
<g id="edge23" class="edge">
<title>Node18&#45;&gt;Node5</title>
<path fill="none" stroke="midnightblue" d="M457.82,-179.47C454.01,-157.36 447.3,-97.74 478.5,-67 498.52,-47.27 666.62,-30.3 764.5,-21.98"/>
<polygon fill="midnightblue" stroke="midnightblue" points="764.94,-25.45 774.62,-21.13 764.36,-18.48 764.94,-25.45"/>
</g>
<!-- Node18&#45;&gt;Node7 -->
<g id="edge25" class="edge">
<title>Node18&#45;&gt;Node7</title>
<path fill="none" stroke="midnightblue" d="M465.93,-179.37C479.53,-161.14 511.36,-118.43 529.07,-94.68"/>
<polygon fill="midnightblue" stroke="midnightblue" points="531.92,-96.7 535.1,-86.59 526.31,-92.52 531.92,-96.7"/>
</g>
<!-- Node18&#45;&gt;Node8 -->
<g id="edge28" class="edge">
<title>Node18&#45;&gt;Node8</title>
<path fill="none" stroke="midnightblue" d="M449.48,-179.43C438.97,-170.43 421.99,-155.81 407.5,-143 388.73,-126.4 367.45,-107.14 352.93,-93.92"/>
<polygon fill="midnightblue" stroke="midnightblue" points="354.97,-91.05 345.22,-86.9 350.26,-96.22 354.97,-91.05"/>
</g>
<!-- Node18&#45;&gt;Node9 -->
<g id="edge19" class="edge">
<title>Node18&#45;&gt;Node9</title>
<path fill="none" stroke="midnightblue" d="M442.9,-179.36C417.93,-166.49 369.07,-141.76 326.5,-123 249.73,-89.16 158.6,-54.29 104.27,-34.04"/>
<polygon fill="midnightblue" stroke="midnightblue" points="105.49,-30.76 94.9,-30.56 103.05,-37.32 105.49,-30.76"/>
</g>
<!-- Node18&#45;&gt;Node10 -->
<g id="edge20" class="edge">
<title>Node18&#45;&gt;Node10</title>
<path fill="none" stroke="midnightblue" d="M454.97,-179.45C444.44,-158.26 421,-102.51 445.5,-67 453.97,-54.72 484.08,-42.78 513.51,-33.59"/>
<polygon fill="midnightblue" stroke="midnightblue" points="514.88,-36.84 523.44,-30.59 512.85,-30.14 514.88,-36.84"/>
</g>
<!-- Node18&#45;&gt;Node14 -->
<g id="edge26" class="edge">
<title>Node18&#45;&gt;Node14</title>
<path fill="none" stroke="midnightblue" d="M476.53,-179.37C514.32,-160.21 605.41,-114.04 650.43,-91.22"/>
<polygon fill="midnightblue" stroke="midnightblue" points="652.21,-94.23 659.55,-86.59 649.05,-87.99 652.21,-94.23"/>
</g>
<!-- Node18&#45;&gt;Node15 -->
<g id="edge27" class="edge">
<title>Node18&#45;&gt;Node15</title>
<path fill="none" stroke="midnightblue" d="M384.98,-188.19C291.12,-186.88 136.94,-179.08 94.5,-143 81.22,-131.71 76.95,-111.71 75.71,-96.86"/>
<polygon fill="midnightblue" stroke="midnightblue" points="79.2,-96.58 75.25,-86.75 72.21,-96.89 79.2,-96.58"/>
</g>
<!-- Node19 -->
<g id="node19" class="node">
<title>Node19</title>
<g id="a_node19"><a xlink:title=" ">
<polygon fill="white" stroke="#bfbfbf" points="103.5,-123.5 103.5,-142.5 201.5,-142.5 201.5,-123.5 103.5,-123.5"/>
<text text-anchor="middle" x="152.5" y="-130.5" font-family="Helvetica,sans-Serif" font-size="10.00">G4UnionSolid.hh</text>
</a>
</g>
</g>
<!-- Node18&#45;&gt;Node19 -->
<g id="edge24" class="edge">
<title>Node18&#45;&gt;Node19</title>
<path fill="none" stroke="midnightblue" d="M410.85,-179.44C356.63,-169.9 268.95,-154.48 211.02,-144.29"/>
<polygon fill="midnightblue" stroke="midnightblue" points="211.37,-140.8 200.92,-142.52 210.16,-147.7 211.37,-140.8"/>
</g>
<!-- Node18&#45;&gt;Node20 -->
<g id="edge29" class="edge">
<title>Node18&#45;&gt;Node20</title>
<path fill="none" stroke="midnightblue" d="M534.32,-180.63C621.55,-171.97 770.03,-157 897.5,-143 908.25,-141.82 919.83,-140.49 930.67,-139.23"/>
<polygon fill="midnightblue" stroke="midnightblue" points="931.25,-142.69 940.78,-138.04 930.44,-135.73 931.25,-142.69"/>
</g>
<!-- Node21 -->
<g id="node21" class="node">
<title>Node21</title>
<g id="a_node21"><a xlink:title=" ">
<polygon fill="white" stroke="#bfbfbf" points="220,-123.5 220,-142.5 261,-142.5 261,-123.5 220,-123.5"/>
<text text-anchor="middle" x="240.5" y="-130.5" font-family="Helvetica,sans-Serif" font-size="10.00">tuple</text>
</a>
</g>
</g>
<!-- Node18&#45;&gt;Node21 -->
<g id="edge30" class="edge">
<title>Node18&#45;&gt;Node21</title>
<path fill="none" stroke="midnightblue" d="M420.6,-179.43C384.37,-171.29 328.64,-158.39 271.11,-143.04"/>
<polygon fill="midnightblue" stroke="midnightblue" points="271.68,-139.57 261.11,-140.35 269.86,-146.33 271.68,-139.57"/>
</g>
<!-- Node22 -->
<g id="node22" class="node">
<title>Node22</title>
<g id="a_node22"><a xlink:title=" ">
<polygon fill="white" stroke="#bfbfbf" points="279.5,-123.5 279.5,-142.5 317.5,-142.5 317.5,-123.5 279.5,-123.5"/>
<text text-anchor="middle" x="298.5" y="-130.5" font-family="Helvetica,sans-Serif" font-size="10.00">map</text>
</a>
</g>
</g>
<!-- Node18&#45;&gt;Node22 -->
<g id="edge31" class="edge">
<title>Node18&#45;&gt;Node22</title>
<path fill="none" stroke="midnightblue" d="M433.99,-179.44C404.99,-169.72 357.76,-153.88 327.42,-143.7"/>
<polygon fill="midnightblue" stroke="midnightblue" points="328.42,-140.34 317.83,-140.48 326.2,-146.98 328.42,-140.34"/>
</g>
<!-- Node28 -->
<g id="node28" class="node">
<title>Node28</title>
<g id="a_node28"><a xlink:title=" ">
<polygon fill="white" stroke="#bfbfbf" points="1694.5,-179.5 1694.5,-198.5 1744.5,-198.5 1744.5,-179.5 1694.5,-179.5"/>
<text text-anchor="middle" x="1719.5" y="-186.5" font-family="Helvetica,sans-Serif" font-size="10.00">stdio.h</text>
</a>
</g>
</g>
<!-- Node27&#45;&gt;Node28 -->
<g id="edge43" class="edge">
<title>Node27&#45;&gt;Node28</title>
<path fill="none" stroke="midnightblue" d="M1691.95,-235.08C1696.51,-227.61 1703.17,-216.72 1708.79,-207.52"/>
<polygon fill="midnightblue" stroke="midnightblue" points="1711.92,-209.11 1714.15,-198.75 1705.95,-205.46 1711.92,-209.11"/>
</g>
<!-- Node29 -->
<g id="node29" class="node">
<title>Node29</title>
<g id="a_node29"><a xlink:title=" ">
<polygon fill="white" stroke="#bfbfbf" points="1628.5,-179.5 1628.5,-198.5 1676.5,-198.5 1676.5,-179.5 1628.5,-179.5"/>
<text text-anchor="middle" x="1652.5" y="-186.5" font-family="Helvetica,sans-Serif" font-size="10.00">time.h</text>
</a>
</g>
</g>
<!-- Node27&#45;&gt;Node29 -->
<g id="edge44" class="edge">
<title>Node27&#45;&gt;Node29</title>
<path fill="none" stroke="midnightblue" d="M1680.89,-235.08C1676.13,-227.53 1669.18,-216.49 1663.35,-207.23"/>
<polygon fill="midnightblue" stroke="midnightblue" points="1666.3,-205.35 1658.01,-198.75 1660.38,-209.08 1666.3,-205.35"/>
</g>
</g>
</svg>
