<?xml version="1.0" encoding="UTF-8" standalone="no"?>
<!DOCTYPE svg PUBLIC "-//W3C//DTD SVG 1.1//EN"
 "http://www.w3.org/Graphics/SVG/1.1/DTD/svg11.dtd">
<!-- Generated by graphviz version 2.43.0 (0)
 -->
<!-- Title: OMSimDEGG.hh Pages: 1 -->
<svg width="1610pt" height="263pt"
 viewBox="0.00 0.00 1610.00 263.00" xmlns="http://www.w3.org/2000/svg" xmlns:xlink="http://www.w3.org/1999/xlink">
<g id="graph0" class="graph" transform="scale(1 1) rotate(0) translate(4 259)">
<title>OMSimDEGG.hh</title>
<polygon fill="white" stroke="transparent" points="-4,4 -4,-259 1606,-259 1606,4 -4,4"/>
<!-- Node1 -->
<g id="node1" class="node">
<title>Node1</title>
<g id="a_node1"><a xlink:title=" ">
<polygon fill="#bfbfbf" stroke="black" points="1149,-235.5 1149,-254.5 1244,-254.5 1244,-235.5 1149,-235.5"/>
<text text-anchor="middle" x="1196.5" y="-242.5" font-family="Helvetica,sans-Serif" font-size="10.00">OMSimDEGG.hh</text>
</a>
</g>
</g>
<!-- Node2 -->
<g id="node2" class="node">
<title>Node2</title>
<g id="a_node2"><a xlink:href="abc_detector_component_8hh.html" target="_top" xlink:title=" ">
<polygon fill="white" stroke="black" points="524,-123.5 524,-142.5 671,-142.5 671,-123.5 524,-123.5"/>
<text text-anchor="middle" x="597.5" y="-130.5" font-family="Helvetica,sans-Serif" font-size="10.00">abcDetectorComponent.hh</text>
</a>
</g>
</g>
<!-- Node1&#45;&gt;Node2 -->
<g id="edge1" class="edge">
<title>Node1&#45;&gt;Node2</title>
<path fill="none" stroke="midnightblue" d="M1148.95,-239.21C1083.94,-232.29 963.82,-218.2 862.5,-199 782,-183.75 689.3,-159.43 637.64,-145.26"/>
<polygon fill="midnightblue" stroke="midnightblue" points="638.44,-141.86 627.87,-142.57 636.58,-148.6 638.44,-141.86"/>
</g>
<!-- Node3 -->
<g id="node3" class="node">
<title>Node3</title>
<g id="a_node3"><a xlink:title=" ">
<polygon fill="white" stroke="#bfbfbf" points="4.5,-67.5 4.5,-86.5 120.5,-86.5 120.5,-67.5 4.5,-67.5"/>
<text text-anchor="middle" x="62.5" y="-74.5" font-family="Helvetica,sans-Serif" font-size="10.00">G4LogicalVolume.hh</text>
</a>
</g>
</g>
<!-- Node1&#45;&gt;Node3 -->
<g id="edge31" class="edge">
<title>Node1&#45;&gt;Node3</title>
<path fill="none" stroke="midnightblue" d="M1148.68,-242.75C1011.76,-238.31 607.13,-219.19 281.5,-143 215.72,-127.61 140.51,-103.92 97.55,-89.79"/>
<polygon fill="midnightblue" stroke="midnightblue" points="98.46,-86.4 87.86,-86.59 96.26,-93.05 98.46,-86.4"/>
</g>
<!-- Node4 -->
<g id="node4" class="node">
<title>Node4</title>
<g id="a_node4"><a xlink:title=" ">
<polygon fill="white" stroke="#bfbfbf" points="874,-6 874,-25 993,-25 993,-6 874,-6"/>
<text text-anchor="middle" x="933.5" y="-13" font-family="Helvetica,sans-Serif" font-size="10.00">G4SystemOfUnits.hh</text>
</a>
</g>
</g>
<!-- Node1&#45;&gt;Node4 -->
<g id="edge32" class="edge">
<title>Node1&#45;&gt;Node4</title>
<path fill="none" stroke="midnightblue" d="M1223.57,-235.39C1274.96,-217.63 1378.29,-174.25 1340.5,-123 1300.71,-69.04 1108.69,-37.7 1003.24,-24.29"/>
<polygon fill="midnightblue" stroke="midnightblue" points="1003.67,-20.82 993.31,-23.05 1002.8,-27.76 1003.67,-20.82"/>
</g>
<!-- Node7 -->
<g id="node7" class="node">
<title>Node7</title>
<g id="a_node7"><a xlink:href="_o_m_sim_input_data_8hh.html" target="_top" xlink:title=" ">
<polygon fill="white" stroke="black" points="139,-67.5 139,-86.5 254,-86.5 254,-67.5 139,-67.5"/>
<text text-anchor="middle" x="196.5" y="-74.5" font-family="Helvetica,sans-Serif" font-size="10.00">OMSimInputData.hh</text>
</a>
</g>
</g>
<!-- Node1&#45;&gt;Node7 -->
<g id="edge35" class="edge">
<title>Node1&#45;&gt;Node7</title>
<path fill="none" stroke="midnightblue" d="M1148.6,-241.06C1025.13,-232.78 686.47,-205.69 411.5,-143 346.52,-128.19 272.48,-104.18 230.43,-89.86"/>
<polygon fill="midnightblue" stroke="midnightblue" points="231.3,-86.46 220.71,-86.53 229.03,-93.08 231.3,-86.46"/>
</g>
<!-- Node17 -->
<g id="node17" class="node">
<title>Node17</title>
<g id="a_node17"><a xlink:href="_o_m_sim_p_m_t_construction_8hh.html" target="_top" xlink:title=" ">
<polygon fill="white" stroke="black" points="872,-179.5 872,-198.5 1021,-198.5 1021,-179.5 872,-179.5"/>
<text text-anchor="middle" x="946.5" y="-186.5" font-family="Helvetica,sans-Serif" font-size="10.00">OMSimPMTConstruction.hh</text>
</a>
</g>
</g>
<!-- Node1&#45;&gt;Node17 -->
<g id="edge17" class="edge">
<title>Node1&#45;&gt;Node17</title>
<path fill="none" stroke="midnightblue" d="M1156.89,-235.44C1113.27,-226.02 1043.1,-210.87 995.92,-200.68"/>
<polygon fill="midnightblue" stroke="midnightblue" points="996.44,-197.21 985.93,-198.52 994.96,-204.05 996.44,-197.21"/>
</g>
<!-- Node18 -->
<g id="node18" class="node">
<title>Node18</title>
<g id="a_node18"><a xlink:title=" ">
<polygon fill="white" stroke="#bfbfbf" points="1147.5,-123.5 1147.5,-142.5 1245.5,-142.5 1245.5,-123.5 1147.5,-123.5"/>
<text text-anchor="middle" x="1196.5" y="-130.5" font-family="Helvetica,sans-Serif" font-size="10.00">G4UnionSolid.hh</text>
</a>
</g>
</g>
<!-- Node1&#45;&gt;Node18 -->
<g id="edge33" class="edge">
<title>Node1&#45;&gt;Node18</title>
<path fill="none" stroke="midnightblue" d="M1196.5,-235.37C1196.5,-217.62 1196.5,-176.67 1196.5,-152.6"/>
<polygon fill="midnightblue" stroke="midnightblue" points="1200,-152.59 1196.5,-142.59 1193,-152.59 1200,-152.59"/>
</g>
<!-- Node19 -->
<g id="node19" class="node">
<title>Node19</title>
<g id="a_node19"><a xlink:title=" ">
<polygon fill="white" stroke="#bfbfbf" points="1264,-123.5 1264,-142.5 1331,-142.5 1331,-123.5 1264,-123.5"/>
<text text-anchor="middle" x="1297.5" y="-130.5" font-family="Helvetica,sans-Serif" font-size="10.00">G4Tubs.hh</text>
</a>
</g>
</g>
<!-- Node1&#45;&gt;Node19 -->
<g id="edge37" class="edge">
<title>Node1&#45;&gt;Node19</title>
<path fill="none" stroke="midnightblue" d="M1204.43,-235.37C1221.31,-216.97 1261.07,-173.67 1282.76,-150.05"/>
<polygon fill="midnightblue" stroke="midnightblue" points="1285.43,-152.32 1289.61,-142.59 1280.27,-147.59 1285.43,-152.32"/>
</g>
<!-- Node22 -->
<g id="node22" class="node">
<title>Node22</title>
<g id="a_node22"><a xlink:title=" ">
<polygon fill="white" stroke="#bfbfbf" points="1388,-179.5 1388,-198.5 1515,-198.5 1515,-179.5 1388,-179.5"/>
<text text-anchor="middle" x="1451.5" y="-186.5" font-family="Helvetica,sans-Serif" font-size="10.00">G4IntersectionSolid.hh</text>
</a>
</g>
</g>
<!-- Node1&#45;&gt;Node22 -->
<g id="edge34" class="edge">
<title>Node1&#45;&gt;Node22</title>
<path fill="none" stroke="midnightblue" d="M1236.91,-235.44C1281.48,-226 1353.27,-210.8 1401.39,-200.61"/>
<polygon fill="midnightblue" stroke="midnightblue" points="1402.23,-204.01 1411.28,-198.52 1400.78,-197.16 1402.23,-204.01"/>
</g>
<!-- Node23 -->
<g id="node23" class="node">
<title>Node23</title>
<g id="a_node23"><a xlink:title=" ">
<polygon fill="white" stroke="#bfbfbf" points="1533,-179.5 1533,-198.5 1602,-198.5 1602,-179.5 1533,-179.5"/>
<text text-anchor="middle" x="1567.5" y="-186.5" font-family="Helvetica,sans-Serif" font-size="10.00">G4Cons.hh</text>
</a>
</g>
</g>
<!-- Node1&#45;&gt;Node23 -->
<g id="edge36" class="edge">
<title>Node1&#45;&gt;Node23</title>
<path fill="none" stroke="midnightblue" d="M1244.19,-238.52C1306.17,-231.16 1417.98,-217.09 1522.7,-199.22"/>
<polygon fill="midnightblue" stroke="midnightblue" points="1523.55,-202.63 1532.81,-197.48 1522.36,-195.73 1523.55,-202.63"/>
</g>
<!-- Node2&#45;&gt;Node3 -->
<g id="edge2" class="edge">
<title>Node2&#45;&gt;Node3</title>
<path fill="none" stroke="midnightblue" d="M523.65,-125.76C433.42,-117.95 275.84,-103.68 130.58,-87.09"/>
<polygon fill="midnightblue" stroke="midnightblue" points="130.92,-83.6 120.59,-85.94 130.12,-90.56 130.92,-83.6"/>
</g>
<!-- Node2&#45;&gt;Node4 -->
<g id="edge3" class="edge">
<title>Node2&#45;&gt;Node4</title>
<path fill="none" stroke="midnightblue" d="M597.3,-123.32C597.5,-109.22 600.09,-81.46 616.5,-67 621.16,-62.89 773.13,-40.01 864.93,-26.49"/>
<polygon fill="midnightblue" stroke="midnightblue" points="865.61,-29.93 874.99,-25.02 864.59,-23.01 865.61,-29.93"/>
</g>
<!-- Node5 -->
<g id="node5" class="node">
<title>Node5</title>
<g id="a_node5"><a xlink:title=" ">
<polygon fill="white" stroke="#bfbfbf" points="272,-67.5 272,-86.5 379,-86.5 379,-67.5 272,-67.5"/>
<text text-anchor="middle" x="325.5" y="-74.5" font-family="Helvetica,sans-Serif" font-size="10.00">G4Transform3D.hh</text>
</a>
</g>
</g>
<!-- Node2&#45;&gt;Node5 -->
<g id="edge4" class="edge">
<title>Node2&#45;&gt;Node5</title>
<path fill="none" stroke="midnightblue" d="M554.4,-123.44C506.65,-113.96 429.64,-98.67 378.31,-88.48"/>
<polygon fill="midnightblue" stroke="midnightblue" points="378.89,-85.03 368.4,-86.52 377.52,-91.9 378.89,-85.03"/>
</g>
<!-- Node6 -->
<g id="node6" class="node">
<title>Node6</title>
<g id="a_node6"><a xlink:title=" ">
<polygon fill="white" stroke="#bfbfbf" points="753.5,-67.5 753.5,-86.5 861.5,-86.5 861.5,-67.5 753.5,-67.5"/>
<text text-anchor="middle" x="807.5" y="-74.5" font-family="Helvetica,sans-Serif" font-size="10.00">G4VisAttributes.hh</text>
</a>
</g>
</g>
<!-- Node2&#45;&gt;Node6 -->
<g id="edge5" class="edge">
<title>Node2&#45;&gt;Node6</title>
<path fill="none" stroke="midnightblue" d="M630.78,-123.44C666.95,-114.14 724.88,-99.25 764.48,-89.06"/>
<polygon fill="midnightblue" stroke="midnightblue" points="765.57,-92.4 774.38,-86.52 763.82,-85.62 765.57,-92.4"/>
</g>
<!-- Node2&#45;&gt;Node7 -->
<g id="edge6" class="edge">
<title>Node2&#45;&gt;Node7</title>
<path fill="none" stroke="midnightblue" d="M533.9,-123.49C468.68,-114.76 364.01,-100.73 264.06,-87.21"/>
<polygon fill="midnightblue" stroke="midnightblue" points="264.47,-83.73 254.09,-85.86 263.53,-90.67 264.47,-83.73"/>
</g>
<!-- Node13 -->
<g id="node13" class="node">
<title>Node13</title>
<g id="a_node13"><a xlink:title=" ">
<polygon fill="white" stroke="#bfbfbf" points="1026,-67.5 1026,-86.5 1151,-86.5 1151,-67.5 1026,-67.5"/>
<text text-anchor="middle" x="1088.5" y="-74.5" font-family="Helvetica,sans-Serif" font-size="10.00">G4SubtractionSolid.hh</text>
</a>
</g>
</g>
<!-- Node2&#45;&gt;Node13 -->
<g id="edge13" class="edge">
<title>Node2&#45;&gt;Node13</title>
<path fill="none" stroke="midnightblue" d="M671.01,-123.92C763.97,-113.69 923.04,-96.2 1015.67,-86.01"/>
<polygon fill="midnightblue" stroke="midnightblue" points="1016.25,-89.47 1025.8,-84.9 1015.48,-82.51 1016.25,-89.47"/>
</g>
<!-- Node14 -->
<g id="node14" class="node">
<title>Node14</title>
<g id="a_node14"><a xlink:title=" ">
<polygon fill="white" stroke="#bfbfbf" points="625.5,-67.5 625.5,-86.5 735.5,-86.5 735.5,-67.5 625.5,-67.5"/>
<text text-anchor="middle" x="680.5" y="-74.5" font-family="Helvetica,sans-Serif" font-size="10.00">G4PVPlacement.hh</text>
</a>
</g>
</g>
<!-- Node2&#45;&gt;Node14 -->
<g id="edge14" class="edge">
<title>Node2&#45;&gt;Node14</title>
<path fill="none" stroke="midnightblue" d="M610.84,-123.32C623.66,-114.98 643.28,-102.21 658.44,-92.35"/>
<polygon fill="midnightblue" stroke="midnightblue" points="660.72,-95.04 667.2,-86.65 656.91,-89.17 660.72,-95.04"/>
</g>
<!-- Node15 -->
<g id="node15" class="node">
<title>Node15</title>
<g id="a_node15"><a xlink:title=" ">
<polygon fill="white" stroke="#bfbfbf" points="397.5,-67.5 397.5,-86.5 495.5,-86.5 495.5,-67.5 397.5,-67.5"/>
<text text-anchor="middle" x="446.5" y="-74.5" font-family="Helvetica,sans-Serif" font-size="10.00">G4MultiUnion.hh</text>
</a>
</g>
</g>
<!-- Node2&#45;&gt;Node15 -->
<g id="edge15" class="edge">
<title>Node2&#45;&gt;Node15</title>
<path fill="none" stroke="midnightblue" d="M573.57,-123.44C548.28,-114.4 508.2,-100.06 479.82,-89.92"/>
<polygon fill="midnightblue" stroke="midnightblue" points="480.91,-86.59 470.31,-86.52 478.55,-93.18 480.91,-86.59"/>
</g>
<!-- Node16 -->
<g id="node16" class="node">
<title>Node16</title>
<g id="a_node16"><a xlink:title=" ">
<polygon fill="white" stroke="#bfbfbf" points="513.5,-67.5 513.5,-86.5 569.5,-86.5 569.5,-67.5 513.5,-67.5"/>
<text text-anchor="middle" x="541.5" y="-74.5" font-family="Helvetica,sans-Serif" font-size="10.00">sstream</text>
</a>
</g>
</g>
<!-- Node2&#45;&gt;Node16 -->
<g id="edge16" class="edge">
<title>Node2&#45;&gt;Node16</title>
<path fill="none" stroke="midnightblue" d="M588.5,-123.32C580.31,-115.42 567.99,-103.55 558.03,-93.94"/>
<polygon fill="midnightblue" stroke="midnightblue" points="560.29,-91.26 550.66,-86.83 555.43,-96.29 560.29,-91.26"/>
</g>
<!-- Node7&#45;&gt;Node4 -->
<g id="edge12" class="edge">
<title>Node7&#45;&gt;Node4</title>
<path fill="none" stroke="midnightblue" d="M254.06,-67.9C256.91,-67.58 259.74,-67.28 262.5,-67 515.09,-41.84 580,-57.06 832.5,-31 844.55,-29.76 857.36,-28.14 869.67,-26.45"/>
<polygon fill="midnightblue" stroke="midnightblue" points="870.46,-29.87 879.87,-25.01 869.48,-22.94 870.46,-29.87"/>
</g>
<!-- Node8 -->
<g id="node8" class="node">
<title>Node8</title>
<g id="a_node8"><a xlink:title=" ">
<polygon fill="white" stroke="#bfbfbf" points="711,-0.5 711,-30.5 824,-30.5 824,-0.5 711,-0.5"/>
<text text-anchor="start" x="719" y="-18.5" font-family="Helvetica,sans-Serif" font-size="10.00">boost/property_tree</text>
<text text-anchor="middle" x="767.5" y="-7.5" font-family="Helvetica,sans-Serif" font-size="10.00">/ptree.hpp</text>
</a>
</g>
</g>
<!-- Node7&#45;&gt;Node8 -->
<g id="edge7" class="edge">
<title>Node7&#45;&gt;Node8</title>
<path fill="none" stroke="midnightblue" d="M254.08,-68.01C256.92,-67.66 259.74,-67.32 262.5,-67 429.26,-47.66 471.53,-48.38 638.5,-31 658.73,-28.89 680.73,-26.47 700.74,-24.22"/>
<polygon fill="midnightblue" stroke="midnightblue" points="701.15,-27.69 710.69,-23.09 700.36,-20.74 701.15,-27.69"/>
</g>
<!-- Node9 -->
<g id="node9" class="node">
<title>Node9</title>
<g id="a_node9"><a xlink:title=" ">
<polygon fill="white" stroke="#bfbfbf" points="517,-0.5 517,-30.5 630,-30.5 630,-0.5 517,-0.5"/>
<text text-anchor="start" x="525" y="-18.5" font-family="Helvetica,sans-Serif" font-size="10.00">boost/property_tree</text>
<text text-anchor="middle" x="573.5" y="-7.5" font-family="Helvetica,sans-Serif" font-size="10.00">/json_parser.hpp</text>
</a>
</g>
</g>
<!-- Node7&#45;&gt;Node9 -->
<g id="edge8" class="edge">
<title>Node7&#45;&gt;Node9</title>
<path fill="none" stroke="midnightblue" d="M250.51,-67.48C318.09,-56.81 433.77,-38.55 506.8,-27.03"/>
<polygon fill="midnightblue" stroke="midnightblue" points="507.48,-30.46 516.81,-25.45 506.39,-23.55 507.48,-30.46"/>
</g>
<!-- Node10 -->
<g id="node10" class="node">
<title>Node10</title>
<g id="a_node10"><a xlink:title=" ">
<polygon fill="white" stroke="#bfbfbf" points="286.5,-6 286.5,-25 372.5,-25 372.5,-6 286.5,-6"/>
<text text-anchor="middle" x="329.5" y="-13" font-family="Helvetica,sans-Serif" font-size="10.00">G4Material.hh</text>
</a>
</g>
</g>
<!-- Node7&#45;&gt;Node10 -->
<g id="edge9" class="edge">
<title>Node7&#45;&gt;Node10</title>
<path fill="none" stroke="midnightblue" d="M215.56,-67.48C237.97,-57.45 275.41,-40.7 301.21,-29.15"/>
<polygon fill="midnightblue" stroke="midnightblue" points="302.78,-32.29 310.48,-25.01 299.92,-25.9 302.78,-32.29"/>
</g>
<!-- Node11 -->
<g id="node11" class="node">
<title>Node11</title>
<g id="a_node11"><a xlink:title=" ">
<polygon fill="white" stroke="#bfbfbf" points="0,-6 0,-25 107,-25 107,-6 0,-6"/>
<text text-anchor="middle" x="53.5" y="-13" font-family="Helvetica,sans-Serif" font-size="10.00">G4NistManager.hh</text>
</a>
</g>
</g>
<!-- Node7&#45;&gt;Node11 -->
<g id="edge10" class="edge">
<title>Node7&#45;&gt;Node11</title>
<path fill="none" stroke="midnightblue" d="M176.01,-67.48C151.69,-57.36 110.95,-40.4 83.18,-28.85"/>
<polygon fill="midnightblue" stroke="midnightblue" points="84.53,-25.62 73.95,-25.01 81.84,-32.08 84.53,-25.62"/>
</g>
<!-- Node12 -->
<g id="node12" class="node">
<title>Node12</title>
<g id="a_node12"><a xlink:title=" ">
<polygon fill="white" stroke="#bfbfbf" points="125,-6 125,-25 268,-25 268,-6 125,-6"/>
<text text-anchor="middle" x="196.5" y="-13" font-family="Helvetica,sans-Serif" font-size="10.00">G4OpBoundaryProcess.hh</text>
</a>
</g>
</g>
<!-- Node7&#45;&gt;Node12 -->
<g id="edge11" class="edge">
<title>Node7&#45;&gt;Node12</title>
<path fill="none" stroke="midnightblue" d="M196.5,-67.48C196.5,-59.08 196.5,-45.98 196.5,-35.16"/>
<polygon fill="midnightblue" stroke="midnightblue" points="200,-35.01 196.5,-25.01 193,-35.01 200,-35.01"/>
</g>
<!-- Node17&#45;&gt;Node2 -->
<g id="edge20" class="edge">
<title>Node17&#45;&gt;Node2</title>
<path fill="none" stroke="midnightblue" d="M891.2,-179.44C829.17,-169.85 728.64,-154.29 662.8,-144.1"/>
<polygon fill="midnightblue" stroke="midnightblue" points="662.96,-140.59 652.54,-142.52 661.89,-147.5 662.96,-140.59"/>
</g>
<!-- Node17&#45;&gt;Node3 -->
<g id="edge21" class="edge">
<title>Node17&#45;&gt;Node3</title>
<path fill="none" stroke="midnightblue" d="M871.97,-184.15C768.04,-178.24 573.83,-165.22 409.5,-143 302.19,-128.49 177.72,-103.05 110.89,-88.67"/>
<polygon fill="midnightblue" stroke="midnightblue" points="111.58,-85.24 101.06,-86.55 110.1,-92.08 111.58,-85.24"/>
</g>
<!-- Node17&#45;&gt;Node4 -->
<g id="edge22" class="edge">
<title>Node17&#45;&gt;Node4</title>
<path fill="none" stroke="midnightblue" d="M946.49,-179.47C946.38,-159.66 945.69,-109.05 941.5,-67 940.44,-56.33 938.6,-44.49 936.95,-34.96"/>
<polygon fill="midnightblue" stroke="midnightblue" points="940.38,-34.26 935.16,-25.04 933.49,-35.5 940.38,-34.26"/>
</g>
<!-- Node17&#45;&gt;Node6 -->
<g id="edge24" class="edge">
<title>Node17&#45;&gt;Node6</title>
<path fill="none" stroke="midnightblue" d="M930.95,-179.35C916.16,-170.84 893.55,-157.12 875.5,-143 855.93,-127.69 835.6,-107.62 822.33,-93.86"/>
<polygon fill="midnightblue" stroke="midnightblue" points="824.82,-91.39 815.39,-86.56 819.75,-96.22 824.82,-91.39"/>
</g>
<!-- Node17&#45;&gt;Node7 -->
<g id="edge27" class="edge">
<title>Node17&#45;&gt;Node7</title>
<path fill="none" stroke="midnightblue" d="M871.68,-182.44C785.32,-175.51 639.15,-162.18 514.5,-143 488.4,-138.98 330.05,-106 247.1,-88.63"/>
<polygon fill="midnightblue" stroke="midnightblue" points="247.64,-85.16 237.13,-86.54 246.2,-92.01 247.64,-85.16"/>
</g>
<!-- Node17&#45;&gt;Node8 -->
<g id="edge18" class="edge">
<title>Node17&#45;&gt;Node8</title>
<path fill="none" stroke="midnightblue" d="M945.88,-179.38C943.86,-157.56 935.59,-99.54 903.5,-67 884.84,-48.08 858.47,-36.18 833.9,-28.72"/>
<polygon fill="midnightblue" stroke="midnightblue" points="834.82,-25.34 824.24,-25.98 832.91,-32.08 834.82,-25.34"/>
</g>
<!-- Node17&#45;&gt;Node9 -->
<g id="edge19" class="edge">
<title>Node17&#45;&gt;Node9</title>
<path fill="none" stroke="midnightblue" d="M943.8,-179.21C936.31,-156.44 912.99,-95.4 870.5,-67 851.66,-54.41 722.17,-35.71 640.51,-24.96"/>
<polygon fill="midnightblue" stroke="midnightblue" points="640.68,-21.45 630.31,-23.62 639.77,-28.39 640.68,-21.45"/>
</g>
<!-- Node17&#45;&gt;Node13 -->
<g id="edge25" class="edge">
<title>Node17&#45;&gt;Node13</title>
<path fill="none" stroke="midnightblue" d="M999.4,-179.46C1038.93,-171.87 1088.18,-159.44 1100.5,-143 1110.69,-129.4 1105.08,-109.79 1098.54,-95.67"/>
<polygon fill="midnightblue" stroke="midnightblue" points="1101.51,-93.81 1093.82,-86.52 1095.29,-97.02 1101.51,-93.81"/>
</g>
<!-- Node17&#45;&gt;Node14 -->
<g id="edge26" class="edge">
<title>Node17&#45;&gt;Node14</title>
<path fill="none" stroke="midnightblue" d="M925.63,-179.37C878.82,-160.01 765.29,-113.06 710.75,-90.51"/>
<polygon fill="midnightblue" stroke="midnightblue" points="711.85,-87.18 701.28,-86.59 709.18,-93.65 711.85,-87.18"/>
</g>
<!-- Node17&#45;&gt;Node18 -->
<g id="edge23" class="edge">
<title>Node17&#45;&gt;Node18</title>
<path fill="none" stroke="midnightblue" d="M986.11,-179.44C1029.73,-170.02 1099.9,-154.87 1147.08,-144.68"/>
<polygon fill="midnightblue" stroke="midnightblue" points="1148.04,-148.05 1157.07,-142.52 1146.56,-141.21 1148.04,-148.05"/>
</g>
<!-- Node17&#45;&gt;Node19 -->
<g id="edge28" class="edge">
<title>Node17&#45;&gt;Node19</title>
<path fill="none" stroke="midnightblue" d="M1013.08,-179.47C1073.33,-171.48 1164.73,-158.68 1253.74,-143.04"/>
<polygon fill="midnightblue" stroke="midnightblue" points="1254.5,-146.46 1263.74,-141.27 1253.28,-139.57 1254.5,-146.46"/>
</g>
<!-- Node20 -->
<g id="node20" class="node">
<title>Node20</title>
<g id="a_node20"><a xlink:title=" ">
<polygon fill="white" stroke="#bfbfbf" points="994,-123.5 994,-142.5 1035,-142.5 1035,-123.5 994,-123.5"/>
<text text-anchor="middle" x="1014.5" y="-130.5" font-family="Helvetica,sans-Serif" font-size="10.00">tuple</text>
</a>
</g>
</g>
<!-- Node17&#45;&gt;Node20 -->
<g id="edge29" class="edge">
<title>Node17&#45;&gt;Node20</title>
<path fill="none" stroke="midnightblue" d="M957.43,-179.32C967.67,-171.18 983.22,-158.84 995.5,-149.09"/>
<polygon fill="midnightblue" stroke="midnightblue" points="997.72,-151.79 1003.38,-142.83 993.37,-146.31 997.72,-151.79"/>
</g>
<!-- Node21 -->
<g id="node21" class="node">
<title>Node21</title>
<g id="a_node21"><a xlink:title=" ">
<polygon fill="white" stroke="#bfbfbf" points="1053.5,-123.5 1053.5,-142.5 1091.5,-142.5 1091.5,-123.5 1053.5,-123.5"/>
<text text-anchor="middle" x="1072.5" y="-130.5" font-family="Helvetica,sans-Serif" font-size="10.00">map</text>
</a>
</g>
</g>
<!-- Node17&#45;&gt;Node21 -->
<g id="edge30" class="edge">
<title>Node17&#45;&gt;Node21</title>
<path fill="none" stroke="midnightblue" d="M966.47,-179.44C987.35,-170.49 1020.33,-156.36 1043.96,-146.23"/>
<polygon fill="midnightblue" stroke="midnightblue" points="1045.64,-149.32 1053.45,-142.16 1042.88,-142.89 1045.64,-149.32"/>
</g>
</g>
</svg>
