<?xml version="1.0" encoding="UTF-8" standalone="no"?>
<!DOCTYPE svg PUBLIC "-//W3C//DTD SVG 1.1//EN"
 "http://www.w3.org/Graphics/SVG/1.1/DTD/svg11.dtd">
<!-- Generated by graphviz version 2.43.0 (0)
 -->
<!-- Title: OMSimPMTResponse.hh Pages: 1 -->
<svg width="903pt" height="140pt"
 viewBox="0.00 0.00 902.50 140.00" xmlns="http://www.w3.org/2000/svg" xmlns:xlink="http://www.w3.org/1999/xlink">
<g id="graph0" class="graph" transform="scale(1 1) rotate(0) translate(4 136)">
<title>OMSimPMTResponse.hh</title>
<polygon fill="white" stroke="transparent" points="-4,4 -4,-136 898.5,-136 898.5,4 -4,4"/>
<!-- Node1 -->
<g id="node1" class="node">
<title>Node1</title>
<g id="a_node1"><a xlink:title=" ">
<polygon fill="#bfbfbf" stroke="black" points="525,-112.5 525,-131.5 660,-131.5 660,-112.5 525,-112.5"/>
<text text-anchor="middle" x="592.5" y="-119.5" font-family="Helvetica,sans-Serif" font-size="10.00">OMSimPMTResponse.hh</text>
</a>
</g>
</g>
<!-- Node2 -->
<g id="node2" class="node">
<title>Node2</title>
<g id="a_node2"><a xlink:href="_o_m_sim_p_m_t_response_8cc.html" target="_top" xlink:title="PMT response simulator.">
<polygon fill="white" stroke="black" points="302.5,-56.5 302.5,-75.5 436.5,-75.5 436.5,-56.5 302.5,-56.5"/>
<text text-anchor="middle" x="369.5" y="-63.5" font-family="Helvetica,sans-Serif" font-size="10.00">OMSimPMTResponse.cc</text>
</a>
</g>
</g>
<!-- Node1&#45;&gt;Node2 -->
<g id="edge1" class="edge">
<title>Node1&#45;&gt;Node2</title>
<path fill="none" stroke="midnightblue" d="M547.44,-110.09C505.31,-99.89 443.26,-84.86 404.67,-75.52"/>
<polygon fill="midnightblue" stroke="midnightblue" points="546.62,-113.49 557.16,-112.44 548.27,-106.69 546.62,-113.49"/>
</g>
<!-- Node3 -->
<g id="node3" class="node">
<title>Node3</title>
<g id="a_node3"><a xlink:href="_o_m_sim_analysis_manager_8hh.html" target="_top" xlink:title=" ">
<polygon fill="white" stroke="black" points="454.5,-56.5 454.5,-75.5 604.5,-75.5 604.5,-56.5 454.5,-56.5"/>
<text text-anchor="middle" x="529.5" y="-63.5" font-family="Helvetica,sans-Serif" font-size="10.00">OMSimAnalysisManager.hh</text>
</a>
</g>
</g>
<!-- Node1&#45;&gt;Node3 -->
<g id="edge2" class="edge">
<title>Node1&#45;&gt;Node3</title>
<path fill="none" stroke="midnightblue" d="M574.46,-105.54C563.23,-95.91 549.18,-83.87 539.81,-75.83"/>
<polygon fill="midnightblue" stroke="midnightblue" points="572.51,-108.47 582.38,-112.32 577.06,-103.16 572.51,-108.47"/>
</g>
<!-- Node8 -->
<g id="node8" class="node">
<title>Node8</title>
<g id="a_node8"><a xlink:href="_o_m_sim_tracking_action_8cc.html" target="_top" xlink:title=" ">
<polygon fill="white" stroke="black" points="599,-0.5 599,-19.5 736,-19.5 736,-0.5 599,-0.5"/>
<text text-anchor="middle" x="667.5" y="-7.5" font-family="Helvetica,sans-Serif" font-size="10.00">OMSimTrackingAction.cc</text>
</a>
</g>
</g>
<!-- Node1&#45;&gt;Node8 -->
<g id="edge9" class="edge">
<title>Node1&#45;&gt;Node8</title>
<path fill="none" stroke="midnightblue" d="M604.12,-103.96C620.37,-80.12 649.29,-37.71 661.64,-19.59"/>
<polygon fill="midnightblue" stroke="midnightblue" points="601.13,-102.13 598.39,-112.37 606.91,-106.08 601.13,-102.13"/>
</g>
<!-- Node9 -->
<g id="node9" class="node">
<title>Node9</title>
<g id="a_node9"><a xlink:href="_o_m_sim__effective__area_8cc.html" target="_top" xlink:title="Main for the calculation of effective areas.">
<polygon fill="white" stroke="black" points="754.5,-0.5 754.5,-19.5 894.5,-19.5 894.5,-0.5 754.5,-0.5"/>
<text text-anchor="middle" x="824.5" y="-7.5" font-family="Helvetica,sans-Serif" font-size="10.00">OMSim_effective_area.cc</text>
</a>
</g>
</g>
<!-- Node1&#45;&gt;Node9 -->
<g id="edge10" class="edge">
<title>Node1&#45;&gt;Node9</title>
<path fill="none" stroke="midnightblue" d="M619.87,-108.02C667.85,-85.27 765.89,-38.79 806.38,-19.59"/>
<polygon fill="midnightblue" stroke="midnightblue" points="618.24,-104.92 610.7,-112.37 621.24,-111.25 618.24,-104.92"/>
</g>
<!-- Node4 -->
<g id="node4" class="node">
<title>Node4</title>
<g id="a_node4"><a xlink:href="_o_m_sim_analysis_manager_8cc.html" target="_top" xlink:title=" ">
<polygon fill="white" stroke="black" points="290,-0.5 290,-19.5 439,-19.5 439,-0.5 290,-0.5"/>
<text text-anchor="middle" x="364.5" y="-7.5" font-family="Helvetica,sans-Serif" font-size="10.00">OMSimAnalysisManager.cc</text>
</a>
</g>
</g>
<!-- Node3&#45;&gt;Node4 -->
<g id="edge3" class="edge">
<title>Node3&#45;&gt;Node4</title>
<path fill="none" stroke="midnightblue" d="M493.76,-53.3C462.67,-43.13 418.35,-28.62 390.52,-19.52"/>
<polygon fill="midnightblue" stroke="midnightblue" points="492.76,-56.66 503.36,-56.44 494.94,-50.01 492.76,-56.66"/>
</g>
<!-- Node5 -->
<g id="node5" class="node">
<title>Node5</title>
<g id="a_node5"><a xlink:href="_o_m_sim_event_action_8cc.html" target="_top" xlink:title=" ">
<polygon fill="white" stroke="black" points="456.5,-0.5 456.5,-19.5 580.5,-19.5 580.5,-0.5 456.5,-0.5"/>
<text text-anchor="middle" x="518.5" y="-7.5" font-family="Helvetica,sans-Serif" font-size="10.00">OMSimEventAction.cc</text>
</a>
</g>
</g>
<!-- Node3&#45;&gt;Node5 -->
<g id="edge4" class="edge">
<title>Node3&#45;&gt;Node5</title>
<path fill="none" stroke="midnightblue" d="M525.65,-46.1C523.82,-37.14 521.73,-26.86 520.28,-19.75"/>
<polygon fill="midnightblue" stroke="midnightblue" points="522.26,-46.98 527.68,-56.08 529.12,-45.59 522.26,-46.98"/>
</g>
<!-- Node6 -->
<g id="node6" class="node">
<title>Node6</title>
<g id="a_node6"><a xlink:href="_o_m_sim_run_action_8cc.html" target="_top" xlink:title=" ">
<polygon fill="white" stroke="black" points="0,-0.5 0,-19.5 115,-19.5 115,-0.5 0,-0.5"/>
<text text-anchor="middle" x="57.5" y="-7.5" font-family="Helvetica,sans-Serif" font-size="10.00">OMSimRunAction.cc</text>
</a>
</g>
</g>
<!-- Node3&#45;&gt;Node6 -->
<g id="edge5" class="edge">
<title>Node3&#45;&gt;Node6</title>
<path fill="none" stroke="midnightblue" d="M444.21,-55.8C343.93,-44.94 183.55,-27.42 123.5,-20 120.75,-19.66 117.93,-19.3 115.08,-18.94"/>
<polygon fill="midnightblue" stroke="midnightblue" points="444.01,-59.3 454.33,-56.9 444.76,-52.34 444.01,-59.3"/>
</g>
<!-- Node7 -->
<g id="node7" class="node">
<title>Node7</title>
<g id="a_node7"><a xlink:href="_o_m_sim_stepping_action_8cc.html" target="_top" xlink:title=" ">
<polygon fill="white" stroke="black" points="133,-0.5 133,-19.5 272,-19.5 272,-0.5 133,-0.5"/>
<text text-anchor="middle" x="202.5" y="-7.5" font-family="Helvetica,sans-Serif" font-size="10.00">OMSimSteppingAction.cc</text>
</a>
</g>
</g>
<!-- Node3&#45;&gt;Node7 -->
<g id="edge6" class="edge">
<title>Node3&#45;&gt;Node7</title>
<path fill="none" stroke="midnightblue" d="M467.68,-54.79C405.89,-44.59 311.97,-29.08 254.07,-19.52"/>
<polygon fill="midnightblue" stroke="midnightblue" points="467.25,-58.27 477.69,-56.44 468.39,-51.36 467.25,-58.27"/>
</g>
<!-- Node3&#45;&gt;Node8 -->
<g id="edge7" class="edge">
<title>Node3&#45;&gt;Node8</title>
<path fill="none" stroke="midnightblue" d="M560.75,-52.77C586.67,-42.63 622.86,-28.47 645.74,-19.52"/>
<polygon fill="midnightblue" stroke="midnightblue" points="559.4,-49.54 551.37,-56.44 561.95,-56.06 559.4,-49.54"/>
</g>
<!-- Node3&#45;&gt;Node9 -->
<g id="edge8" class="edge">
<title>Node3&#45;&gt;Node9</title>
<path fill="none" stroke="midnightblue" d="M586.31,-54.6C642.06,-44.4 726.06,-29.02 777.98,-19.52"/>
<polygon fill="midnightblue" stroke="midnightblue" points="585.45,-51.2 576.24,-56.44 586.71,-58.09 585.45,-51.2"/>
</g>
</g>
</svg>
