<?xml version="1.0" encoding="UTF-8" standalone="no"?>
<!DOCTYPE svg PUBLIC "-//W3C//DTD SVG 1.1//EN"
 "http://www.w3.org/Graphics/SVG/1.1/DTD/svg11.dtd">
<!-- Generated by graphviz version 2.43.0 (0)
 -->
<!-- Title: OMSimLogger.hh Pages: 1 -->
<svg width="1782pt" height="252pt"
 viewBox="0.00 0.00 1781.50 252.00" xmlns="http://www.w3.org/2000/svg" xmlns:xlink="http://www.w3.org/1999/xlink">
<g id="graph0" class="graph" transform="scale(1 1) rotate(0) translate(4 248)">
<title>OMSimLogger.hh</title>
<polygon fill="white" stroke="transparent" points="-4,4 -4,-248 1777.5,-248 1777.5,4 -4,4"/>
<!-- Node1 -->
<g id="node1" class="node">
<title>Node1</title>
<g id="a_node1"><a xlink:title=" ">
<polygon fill="#bfbfbf" stroke="black" points="1270,-224.5 1270,-243.5 1369,-243.5 1369,-224.5 1270,-224.5"/>
<text text-anchor="middle" x="1319.5" y="-231.5" font-family="Helvetica,sans-Serif" font-size="10.00">OMSimLogger.hh</text>
</a>
</g>
</g>
<!-- Node2 -->
<g id="node2" class="node">
<title>Node2</title>
<g id="a_node2"><a xlink:href="_o_m_sim_command_args_table_8hh.html" target="_top" xlink:title="Definition of the OMSimCommandArgsTable singleton class, which controls user args.">
<polygon fill="white" stroke="black" points="685.5,-168.5 685.5,-187.5 849.5,-187.5 849.5,-168.5 685.5,-168.5"/>
<text text-anchor="middle" x="767.5" y="-175.5" font-family="Helvetica,sans-Serif" font-size="10.00">OMSimCommandArgsTable.hh</text>
</a>
</g>
</g>
<!-- Node1&#45;&gt;Node2 -->
<g id="edge1" class="edge">
<title>Node1&#45;&gt;Node2</title>
<path fill="none" stroke="midnightblue" d="M1259.38,-227.12C1160.12,-217.41 961.81,-198.01 849.68,-187.04"/>
<polygon fill="midnightblue" stroke="midnightblue" points="1259.25,-230.62 1269.54,-228.11 1259.93,-223.66 1259.25,-230.62"/>
</g>
<!-- Node14 -->
<g id="node14" class="node">
<title>Node14</title>
<g id="a_node14"><a xlink:href="_o_m_sim_detector_construction_8cc.html" target="_top" xlink:title="User defined detector.">
<polygon fill="white" stroke="black" points="1159,-112.5 1159,-131.5 1328,-131.5 1328,-112.5 1159,-112.5"/>
<text text-anchor="middle" x="1243.5" y="-119.5" font-family="Helvetica,sans-Serif" font-size="10.00">OMSimDetectorConstruction.cc</text>
</a>
</g>
</g>
<!-- Node1&#45;&gt;Node14 -->
<g id="edge20" class="edge">
<title>Node1&#45;&gt;Node14</title>
<path fill="none" stroke="midnightblue" d="M1259.44,-230.25C1195.95,-225.93 1101.94,-215.04 1079.5,-188 1073.82,-181.16 1074.11,-175.07 1079.5,-168 1092.43,-151.04 1143.02,-138.89 1184.63,-131.52"/>
<polygon fill="midnightblue" stroke="midnightblue" points="1259.53,-233.76 1269.74,-230.91 1259.98,-226.77 1259.53,-233.76"/>
</g>
<!-- Node16 -->
<g id="node16" class="node">
<title>Node16</title>
<g id="a_node16"><a xlink:href="abc_detector_component_8cc.html" target="_top" xlink:title="Contains the implementation of the abcDetectorComponent class.">
<polygon fill="white" stroke="black" points="1088.5,-168.5 1088.5,-187.5 1234.5,-187.5 1234.5,-168.5 1088.5,-168.5"/>
<text text-anchor="middle" x="1161.5" y="-175.5" font-family="Helvetica,sans-Serif" font-size="10.00">abcDetectorComponent.cc</text>
</a>
</g>
</g>
<!-- Node1&#45;&gt;Node16 -->
<g id="edge15" class="edge">
<title>Node1&#45;&gt;Node16</title>
<path fill="none" stroke="midnightblue" d="M1284.89,-221.17C1255.14,-211 1212.95,-196.59 1186.42,-187.52"/>
<polygon fill="midnightblue" stroke="midnightblue" points="1283.87,-224.52 1294.46,-224.44 1286.13,-217.9 1283.87,-224.52"/>
</g>
<!-- Node17 -->
<g id="node17" class="node">
<title>Node17</title>
<g id="a_node17"><a xlink:href="_o_m_sim_data_file_types_8cc.html" target="_top" xlink:title="Collection of classes and methods to handle material creation from user data in json files.">
<polygon fill="white" stroke="black" points="1252.5,-168.5 1252.5,-187.5 1386.5,-187.5 1386.5,-168.5 1252.5,-168.5"/>
<text text-anchor="middle" x="1319.5" y="-175.5" font-family="Helvetica,sans-Serif" font-size="10.00">OMSimDataFileTypes.cc</text>
</a>
</g>
</g>
<!-- Node1&#45;&gt;Node17 -->
<g id="edge16" class="edge">
<title>Node1&#45;&gt;Node17</title>
<path fill="none" stroke="midnightblue" d="M1319.5,-213.8C1319.5,-204.91 1319.5,-194.78 1319.5,-187.75"/>
<polygon fill="midnightblue" stroke="midnightblue" points="1316,-214.08 1319.5,-224.08 1323,-214.08 1316,-214.08"/>
</g>
<!-- Node18 -->
<g id="node18" class="node">
<title>Node18</title>
<g id="a_node18"><a xlink:href="_o_m_sim_l_o_m16_8cc.html" target="_top" xlink:title="Construction of LOM16.">
<polygon fill="white" stroke="black" points="1405,-168.5 1405,-187.5 1504,-187.5 1504,-168.5 1405,-168.5"/>
<text text-anchor="middle" x="1454.5" y="-175.5" font-family="Helvetica,sans-Serif" font-size="10.00">OMSimLOM16.cc</text>
</a>
</g>
</g>
<!-- Node1&#45;&gt;Node18 -->
<g id="edge17" class="edge">
<title>Node1&#45;&gt;Node18</title>
<path fill="none" stroke="midnightblue" d="M1350.41,-220.64C1375.74,-210.5 1410.93,-196.43 1433.21,-187.52"/>
<polygon fill="midnightblue" stroke="midnightblue" points="1348.88,-217.48 1340.89,-224.44 1351.48,-223.98 1348.88,-217.48"/>
</g>
<!-- Node19 -->
<g id="node19" class="node">
<title>Node19</title>
<g id="a_node19"><a xlink:href="_o_m_sim_l_o_m18_8cc.html" target="_top" xlink:title="Construction of LOM18.">
<polygon fill="white" stroke="black" points="1522,-168.5 1522,-187.5 1621,-187.5 1621,-168.5 1522,-168.5"/>
<text text-anchor="middle" x="1571.5" y="-175.5" font-family="Helvetica,sans-Serif" font-size="10.00">OMSimLOM18.cc</text>
</a>
</g>
</g>
<!-- Node1&#45;&gt;Node19 -->
<g id="edge18" class="edge">
<title>Node1&#45;&gt;Node19</title>
<path fill="none" stroke="midnightblue" d="M1369.22,-222.35C1416.84,-212.14 1487.78,-196.94 1531.76,-187.52"/>
<polygon fill="midnightblue" stroke="midnightblue" points="1368.47,-218.93 1359.43,-224.44 1369.94,-225.77 1368.47,-218.93"/>
</g>
<!-- Node20 -->
<g id="node20" class="node">
<title>Node20</title>
<g id="a_node20"><a xlink:href="_o_m_sim_p_m_t_response_8cc.html" target="_top" xlink:title="PMT response simulator.">
<polygon fill="white" stroke="black" points="1639.5,-168.5 1639.5,-187.5 1773.5,-187.5 1773.5,-168.5 1639.5,-168.5"/>
<text text-anchor="middle" x="1706.5" y="-175.5" font-family="Helvetica,sans-Serif" font-size="10.00">OMSimPMTResponse.cc</text>
</a>
</g>
</g>
<!-- Node1&#45;&gt;Node20 -->
<g id="edge19" class="edge">
<title>Node1&#45;&gt;Node20</title>
<path fill="none" stroke="midnightblue" d="M1379.61,-224.61C1451.93,-214.52 1572.67,-197.67 1645.42,-187.52"/>
<polygon fill="midnightblue" stroke="midnightblue" points="1378.72,-221.2 1369.3,-226.05 1379.69,-228.14 1378.72,-221.2"/>
</g>
<!-- Node3 -->
<g id="node3" class="node">
<title>Node3</title>
<g id="a_node3"><a xlink:href="_o_m_sim_u_iinterface_8hh.html" target="_top" xlink:title="The OMSimUIinterface class provides a singleton interface to Geant4&#39;s UI manager.">
<polygon fill="white" stroke="black" points="151,-112.5 151,-131.5 272,-131.5 272,-112.5 151,-112.5"/>
<text text-anchor="middle" x="211.5" y="-119.5" font-family="Helvetica,sans-Serif" font-size="10.00">OMSimUIinterface.hh</text>
</a>
</g>
</g>
<!-- Node2&#45;&gt;Node3 -->
<g id="edge2" class="edge">
<title>Node2&#45;&gt;Node3</title>
<path fill="none" stroke="midnightblue" d="M674.94,-169.49C576.89,-161.29 417.63,-147.27 280.5,-132 277.74,-131.69 274.92,-131.37 272.07,-131.03"/>
<polygon fill="midnightblue" stroke="midnightblue" points="674.86,-172.99 685.11,-170.34 675.44,-166.02 674.86,-172.99"/>
</g>
<!-- Node9 -->
<g id="node9" class="node">
<title>Node9</title>
<g id="a_node9"><a xlink:href="_o_m_sim_input_data_8cc.html" target="_top" xlink:title="Input data from external files are read and saved to memory.">
<polygon fill="white" stroke="black" points="290,-112.5 290,-131.5 403,-131.5 403,-112.5 290,-112.5"/>
<text text-anchor="middle" x="346.5" y="-119.5" font-family="Helvetica,sans-Serif" font-size="10.00">OMSimInputData.cc</text>
</a>
</g>
</g>
<!-- Node2&#45;&gt;Node9 -->
<g id="edge8" class="edge">
<title>Node2&#45;&gt;Node9</title>
<path fill="none" stroke="midnightblue" d="M688.42,-167.19C616.45,-158.22 507.31,-144.47 412.5,-132 409.4,-131.59 406.23,-131.17 403.02,-130.74"/>
<polygon fill="midnightblue" stroke="midnightblue" points="688.4,-170.72 698.76,-168.48 689.27,-163.77 688.4,-170.72"/>
</g>
<!-- Node10 -->
<g id="node10" class="node">
<title>Node10</title>
<g id="a_node10"><a xlink:href="_o_m_sim_m_d_o_m_8cc.html" target="_top" xlink:title="Construction of mDOM.">
<polygon fill="white" stroke="black" points="421.5,-112.5 421.5,-131.5 519.5,-131.5 519.5,-112.5 421.5,-112.5"/>
<text text-anchor="middle" x="470.5" y="-119.5" font-family="Helvetica,sans-Serif" font-size="10.00">OMSimMDOM.cc</text>
</a>
</g>
</g>
<!-- Node2&#45;&gt;Node10 -->
<g id="edge9" class="edge">
<title>Node2&#45;&gt;Node10</title>
<path fill="none" stroke="midnightblue" d="M710.3,-166.6C654.17,-156.4 569.6,-141.02 517.34,-131.52"/>
<polygon fill="midnightblue" stroke="midnightblue" points="709.97,-170.1 720.44,-168.44 711.23,-163.21 709.97,-170.1"/>
</g>
<!-- Node11 -->
<g id="node11" class="node">
<title>Node11</title>
<g id="a_node11"><a xlink:href="_o_m_sim_m_d_o_m_harness_8cc.html" target="_top" xlink:title="Construction of mDOM harness.">
<polygon fill="white" stroke="black" points="537.5,-112.5 537.5,-131.5 675.5,-131.5 675.5,-112.5 537.5,-112.5"/>
<text text-anchor="middle" x="606.5" y="-119.5" font-family="Helvetica,sans-Serif" font-size="10.00">OMSimMDOMHarness.cc</text>
</a>
</g>
</g>
<!-- Node2&#45;&gt;Node11 -->
<g id="edge10" class="edge">
<title>Node2&#45;&gt;Node11</title>
<path fill="none" stroke="midnightblue" d="M732.24,-165.17C701.92,-155 658.93,-140.59 631.89,-131.52"/>
<polygon fill="midnightblue" stroke="midnightblue" points="731.4,-168.58 741.99,-168.44 733.62,-161.95 731.4,-168.58"/>
</g>
<!-- Node12 -->
<g id="node12" class="node">
<title>Node12</title>
<g id="a_node12"><a xlink:href="_o_m_sim_p_m_t_construction_8cc.html" target="_top" xlink:title="Construction of the PMTs.">
<polygon fill="white" stroke="black" points="694,-112.5 694,-131.5 841,-131.5 841,-112.5 694,-112.5"/>
<text text-anchor="middle" x="767.5" y="-119.5" font-family="Helvetica,sans-Serif" font-size="10.00">OMSimPMTConstruction.cc</text>
</a>
</g>
</g>
<!-- Node2&#45;&gt;Node12 -->
<g id="edge11" class="edge">
<title>Node2&#45;&gt;Node12</title>
<path fill="none" stroke="midnightblue" d="M767.5,-157.8C767.5,-148.91 767.5,-138.78 767.5,-131.75"/>
<polygon fill="midnightblue" stroke="midnightblue" points="764,-158.08 767.5,-168.08 771,-158.08 764,-158.08"/>
</g>
<!-- Node13 -->
<g id="node13" class="node">
<title>Node13</title>
<g id="a_node13"><a xlink:href="_o_m_sim_analysis_manager_8cc.html" target="_top" xlink:title=" ">
<polygon fill="white" stroke="black" points="859,-112.5 859,-131.5 1008,-131.5 1008,-112.5 859,-112.5"/>
<text text-anchor="middle" x="933.5" y="-119.5" font-family="Helvetica,sans-Serif" font-size="10.00">OMSimAnalysisManager.cc</text>
</a>
</g>
</g>
<!-- Node2&#45;&gt;Node13 -->
<g id="edge12" class="edge">
<title>Node2&#45;&gt;Node13</title>
<path fill="none" stroke="midnightblue" d="M803.45,-165.3C834.73,-155.13 879.32,-140.62 907.32,-131.52"/>
<polygon fill="midnightblue" stroke="midnightblue" points="802.23,-162.02 793.8,-168.44 804.4,-168.68 802.23,-162.02"/>
</g>
<!-- Node2&#45;&gt;Node14 -->
<g id="edge13" class="edge">
<title>Node2&#45;&gt;Node14</title>
<path fill="none" stroke="midnightblue" d="M852.81,-167.32C942.6,-157.14 1082.57,-141.26 1168.34,-131.53"/>
<polygon fill="midnightblue" stroke="midnightblue" points="852.2,-163.87 842.66,-168.47 852.99,-170.82 852.2,-163.87"/>
</g>
<!-- Node15 -->
<g id="node15" class="node">
<title>Node15</title>
<g id="a_node15"><a xlink:href="_o_m_sim_run_action_8cc.html" target="_top" xlink:title=" ">
<polygon fill="white" stroke="black" points="1026,-112.5 1026,-131.5 1141,-131.5 1141,-112.5 1026,-112.5"/>
<text text-anchor="middle" x="1083.5" y="-119.5" font-family="Helvetica,sans-Serif" font-size="10.00">OMSimRunAction.cc</text>
</a>
</g>
</g>
<!-- Node2&#45;&gt;Node15 -->
<g id="edge14" class="edge">
<title>Node2&#45;&gt;Node15</title>
<path fill="none" stroke="midnightblue" d="M827.61,-166.73C887.33,-156.52 977.83,-141.06 1033.66,-131.52"/>
<polygon fill="midnightblue" stroke="midnightblue" points="826.84,-163.31 817.57,-168.44 828.02,-170.21 826.84,-163.31"/>
</g>
<!-- Node4 -->
<g id="node4" class="node">
<title>Node4</title>
<g id="a_node4"><a xlink:href="_o_m_sim_8hh.html" target="_top" xlink:title="Main simulation class for the Optical Module (OM) simulation.">
<polygon fill="white" stroke="black" points="59,-56.5 59,-75.5 126,-75.5 126,-56.5 59,-56.5"/>
<text text-anchor="middle" x="92.5" y="-63.5" font-family="Helvetica,sans-Serif" font-size="10.00">OMSim.hh</text>
</a>
</g>
</g>
<!-- Node3&#45;&gt;Node4 -->
<g id="edge3" class="edge">
<title>Node3&#45;&gt;Node4</title>
<path fill="none" stroke="midnightblue" d="M183.36,-108.23C161.1,-98.13 130.64,-84.31 111.27,-75.52"/>
<polygon fill="midnightblue" stroke="midnightblue" points="182.09,-111.5 192.64,-112.44 184.98,-105.12 182.09,-111.5"/>
</g>
<!-- Node7 -->
<g id="node7" class="node">
<title>Node7</title>
<g id="a_node7"><a xlink:href="_o_m_sim_m_d_o_m_flasher_8cc.html" target="_top" xlink:title=" ">
<polygon fill="white" stroke="black" points="144.5,-56.5 144.5,-75.5 278.5,-75.5 278.5,-56.5 144.5,-56.5"/>
<text text-anchor="middle" x="211.5" y="-63.5" font-family="Helvetica,sans-Serif" font-size="10.00">OMSimMDOMFlasher.cc</text>
</a>
</g>
</g>
<!-- Node3&#45;&gt;Node7 -->
<g id="edge6" class="edge">
<title>Node3&#45;&gt;Node7</title>
<path fill="none" stroke="midnightblue" d="M211.5,-101.8C211.5,-92.91 211.5,-82.78 211.5,-75.75"/>
<polygon fill="midnightblue" stroke="midnightblue" points="208,-102.08 211.5,-112.08 215,-102.08 208,-102.08"/>
</g>
<!-- Node8 -->
<g id="node8" class="node">
<title>Node8</title>
<g id="a_node8"><a xlink:href="_o_m_sim_simple_g_p_s_beams_8cc.html" target="_top" xlink:title="Defines the AngularScan class for simple GPS beam configurations.">
<polygon fill="white" stroke="black" points="296.5,-56.5 296.5,-75.5 448.5,-75.5 448.5,-56.5 296.5,-56.5"/>
<text text-anchor="middle" x="372.5" y="-63.5" font-family="Helvetica,sans-Serif" font-size="10.00">OMSimSimpleGPSBeams.cc</text>
</a>
</g>
</g>
<!-- Node3&#45;&gt;Node8 -->
<g id="edge7" class="edge">
<title>Node3&#45;&gt;Node8</title>
<path fill="none" stroke="midnightblue" d="M246.76,-109.17C277.08,-99 320.07,-84.59 347.11,-75.52"/>
<polygon fill="midnightblue" stroke="midnightblue" points="245.38,-105.95 237.01,-112.44 247.6,-112.58 245.38,-105.95"/>
</g>
<!-- Node5 -->
<g id="node5" class="node">
<title>Node5</title>
<g id="a_node5"><a xlink:href="_o_m_sim_8cc.html" target="_top" xlink:title=" ">
<polygon fill="white" stroke="black" points="0,-0.5 0,-19.5 65,-19.5 65,-0.5 0,-0.5"/>
<text text-anchor="middle" x="32.5" y="-7.5" font-family="Helvetica,sans-Serif" font-size="10.00">OMSim.cc</text>
</a>
</g>
</g>
<!-- Node4&#45;&gt;Node5 -->
<g id="edge4" class="edge">
<title>Node4&#45;&gt;Node5</title>
<path fill="none" stroke="midnightblue" d="M75.32,-49.54C64.62,-39.91 51.24,-27.87 42.32,-19.83"/>
<polygon fill="midnightblue" stroke="midnightblue" points="73.09,-52.24 82.86,-56.32 77.77,-47.03 73.09,-52.24"/>
</g>
<!-- Node6 -->
<g id="node6" class="node">
<title>Node6</title>
<g id="a_node6"><a xlink:href="_o_m_sim__effective__area_8cc.html" target="_top" xlink:title="Main for the calculation of effective areas.">
<polygon fill="white" stroke="black" points="83.5,-0.5 83.5,-19.5 223.5,-19.5 223.5,-0.5 83.5,-0.5"/>
<text text-anchor="middle" x="153.5" y="-7.5" font-family="Helvetica,sans-Serif" font-size="10.00">OMSim_effective_area.cc</text>
</a>
</g>
</g>
<!-- Node4&#45;&gt;Node6 -->
<g id="edge5" class="edge">
<title>Node4&#45;&gt;Node6</title>
<path fill="none" stroke="midnightblue" d="M109.97,-49.54C120.84,-39.91 134.44,-27.87 143.52,-19.83"/>
<polygon fill="midnightblue" stroke="midnightblue" points="107.47,-47.07 102.3,-56.32 112.11,-52.32 107.47,-47.07"/>
</g>
</g>
</svg>
