<?xml version="1.0" encoding="UTF-8" standalone="no"?>
<!DOCTYPE svg PUBLIC "-//W3C//DTD SVG 1.1//EN"
 "http://www.w3.org/Graphics/SVG/1.1/DTD/svg11.dtd">
<!-- Generated by graphviz version 2.43.0 (0)
 -->
<!-- Title: OMSimDecaysGPS.cc Pages: 1 -->
<svg width="1136pt" height="263pt"
 viewBox="0.00 0.00 1135.50 263.00" xmlns="http://www.w3.org/2000/svg" xmlns:xlink="http://www.w3.org/1999/xlink">
<g id="graph0" class="graph" transform="scale(1 1) rotate(0) translate(4 259)">
<title>OMSimDecaysGPS.cc</title>
<polygon fill="white" stroke="transparent" points="-4,4 -4,-259 1131.5,-259 1131.5,4 -4,4"/>
<!-- Node1 -->
<g id="node1" class="node">
<title>Node1</title>
<g id="a_node1"><a xlink:title=" ">
<polygon fill="#bfbfbf" stroke="black" points="722,-235.5 722,-254.5 843,-254.5 843,-235.5 722,-235.5"/>
<text text-anchor="middle" x="782.5" y="-242.5" font-family="Helvetica,sans-Serif" font-size="10.00">OMSimDecaysGPS.cc</text>
</a>
</g>
</g>
<!-- Node2 -->
<g id="node2" class="node">
<title>Node2</title>
<g id="a_node2"><a xlink:href="_o_m_sim_decays_g_p_s_8hh.html" target="_top" xlink:title=" ">
<polygon fill="white" stroke="black" points="586.5,-179.5 586.5,-198.5 708.5,-198.5 708.5,-179.5 586.5,-179.5"/>
<text text-anchor="middle" x="647.5" y="-186.5" font-family="Helvetica,sans-Serif" font-size="10.00">OMSimDecaysGPS.hh</text>
</a>
</g>
</g>
<!-- Node1&#45;&gt;Node2 -->
<g id="edge1" class="edge">
<title>Node1&#45;&gt;Node2</title>
<path fill="none" stroke="midnightblue" d="M761.11,-235.44C738.79,-226.52 703.6,-212.44 678.29,-202.32"/>
<polygon fill="midnightblue" stroke="midnightblue" points="679.38,-198.98 668.79,-198.52 676.78,-205.48 679.38,-198.98"/>
</g>
<!-- Node7 -->
<g id="node7" class="node">
<title>Node7</title>
<g id="a_node7"><a xlink:title=" ">
<polygon fill="white" stroke="#bfbfbf" points="473,-6 473,-25 592,-25 592,-6 473,-6"/>
<text text-anchor="middle" x="532.5" y="-13" font-family="Helvetica,sans-Serif" font-size="10.00">G4SystemOfUnits.hh</text>
</a>
</g>
</g>
<!-- Node1&#45;&gt;Node7 -->
<g id="edge21" class="edge">
<title>Node1&#45;&gt;Node7</title>
<path fill="none" stroke="midnightblue" d="M779.66,-235.32C768.26,-200.58 726.12,-73.12 719.5,-67 687.88,-37.76 641.11,-25.14 602.25,-19.82"/>
<polygon fill="midnightblue" stroke="midnightblue" points="602.39,-16.32 592.03,-18.57 601.53,-23.26 602.39,-16.32"/>
</g>
<!-- Node13 -->
<g id="node13" class="node">
<title>Node13</title>
<g id="a_node13"><a xlink:href="_o_m_sim_u_iinterface_8hh.html" target="_top" xlink:title="The OMSimUIinterface class provides a singleton interface to Geant4&#39;s UI manager.">
<polygon fill="white" stroke="black" points="777,-179.5 777,-198.5 898,-198.5 898,-179.5 777,-179.5"/>
<text text-anchor="middle" x="837.5" y="-186.5" font-family="Helvetica,sans-Serif" font-size="10.00">OMSimUIinterface.hh</text>
</a>
</g>
</g>
<!-- Node1&#45;&gt;Node13 -->
<g id="edge12" class="edge">
<title>Node1&#45;&gt;Node13</title>
<path fill="none" stroke="midnightblue" d="M791.58,-235.08C799.67,-227.14 811.7,-215.34 821.41,-205.8"/>
<polygon fill="midnightblue" stroke="midnightblue" points="823.9,-208.25 828.59,-198.75 819,-203.26 823.9,-208.25"/>
</g>
<!-- Node22 -->
<g id="node22" class="node">
<title>Node22</title>
<g id="a_node22"><a xlink:title=" ">
<polygon fill="white" stroke="#bfbfbf" points="916,-179.5 916,-198.5 999,-198.5 999,-179.5 916,-179.5"/>
<text text-anchor="middle" x="957.5" y="-186.5" font-family="Helvetica,sans-Serif" font-size="10.00">G4Poisson.hh</text>
</a>
</g>
</g>
<!-- Node1&#45;&gt;Node22 -->
<g id="edge22" class="edge">
<title>Node1&#45;&gt;Node22</title>
<path fill="none" stroke="midnightblue" d="M810.23,-235.44C839.93,-226.28 887.22,-211.69 920.17,-201.52"/>
<polygon fill="midnightblue" stroke="midnightblue" points="921.38,-204.81 929.9,-198.52 919.31,-198.12 921.38,-204.81"/>
</g>
<!-- Node3 -->
<g id="node3" class="node">
<title>Node3</title>
<g id="a_node3"><a xlink:href="abc_detector_component_8hh.html" target="_top" xlink:title=" ">
<polygon fill="white" stroke="black" points="379,-123.5 379,-142.5 526,-142.5 526,-123.5 379,-123.5"/>
<text text-anchor="middle" x="452.5" y="-130.5" font-family="Helvetica,sans-Serif" font-size="10.00">abcDetectorComponent.hh</text>
</a>
</g>
</g>
<!-- Node2&#45;&gt;Node3 -->
<g id="edge2" class="edge">
<title>Node2&#45;&gt;Node3</title>
<path fill="none" stroke="midnightblue" d="M616.6,-179.44C583.23,-170.2 529.91,-155.44 493.15,-145.26"/>
<polygon fill="midnightblue" stroke="midnightblue" points="493.83,-141.81 483.25,-142.52 491.96,-148.56 493.83,-141.81"/>
</g>
<!-- Node12 -->
<g id="node12" class="node">
<title>Node12</title>
<g id="a_node12"><a xlink:title=" ">
<polygon fill="white" stroke="#bfbfbf" points="614,-123.5 614,-142.5 681,-142.5 681,-123.5 614,-123.5"/>
<text text-anchor="middle" x="647.5" y="-130.5" font-family="Helvetica,sans-Serif" font-size="10.00">globals.hh</text>
</a>
</g>
</g>
<!-- Node2&#45;&gt;Node12 -->
<g id="edge11" class="edge">
<title>Node2&#45;&gt;Node12</title>
<path fill="none" stroke="midnightblue" d="M647.5,-179.08C647.5,-172.01 647.5,-161.86 647.5,-152.99"/>
<polygon fill="midnightblue" stroke="midnightblue" points="651,-152.75 647.5,-142.75 644,-152.75 651,-152.75"/>
</g>
<!-- Node4 -->
<g id="node4" class="node">
<title>Node4</title>
<g id="a_node4"><a xlink:href="_o_m_sim_input_data_8hh.html" target="_top" xlink:title=" ">
<polygon fill="white" stroke="black" points="72,-67.5 72,-86.5 187,-86.5 187,-67.5 72,-67.5"/>
<text text-anchor="middle" x="129.5" y="-74.5" font-family="Helvetica,sans-Serif" font-size="10.00">OMSimInputData.hh</text>
</a>
</g>
</g>
<!-- Node3&#45;&gt;Node4 -->
<g id="edge3" class="edge">
<title>Node3&#45;&gt;Node4</title>
<path fill="none" stroke="midnightblue" d="M401.32,-123.44C344.03,-113.87 251.26,-98.36 190.31,-88.17"/>
<polygon fill="midnightblue" stroke="midnightblue" points="190.88,-84.71 180.44,-86.52 189.73,-91.62 190.88,-84.71"/>
</g>
<!-- Node8 -->
<g id="node8" class="node">
<title>Node8</title>
<g id="a_node8"><a xlink:title=" ">
<polygon fill="white" stroke="#bfbfbf" points="205,-67.5 205,-86.5 312,-86.5 312,-67.5 205,-67.5"/>
<text text-anchor="middle" x="258.5" y="-74.5" font-family="Helvetica,sans-Serif" font-size="10.00">G4Transform3D.hh</text>
</a>
</g>
</g>
<!-- Node3&#45;&gt;Node8 -->
<g id="edge7" class="edge">
<title>Node3&#45;&gt;Node8</title>
<path fill="none" stroke="midnightblue" d="M421.76,-123.44C388.56,-114.2 335.51,-99.44 298.94,-89.26"/>
<polygon fill="midnightblue" stroke="midnightblue" points="299.67,-85.83 289.1,-86.52 297.79,-92.57 299.67,-85.83"/>
</g>
<!-- Node9 -->
<g id="node9" class="node">
<title>Node9</title>
<g id="a_node9"><a xlink:title=" ">
<polygon fill="white" stroke="#bfbfbf" points="330.5,-67.5 330.5,-86.5 438.5,-86.5 438.5,-67.5 330.5,-67.5"/>
<text text-anchor="middle" x="384.5" y="-74.5" font-family="Helvetica,sans-Serif" font-size="10.00">G4VisAttributes.hh</text>
</a>
</g>
</g>
<!-- Node3&#45;&gt;Node9 -->
<g id="edge8" class="edge">
<title>Node3&#45;&gt;Node9</title>
<path fill="none" stroke="midnightblue" d="M441.57,-123.32C431.33,-115.18 415.78,-102.84 403.5,-93.09"/>
<polygon fill="midnightblue" stroke="midnightblue" points="405.63,-90.31 395.62,-86.83 401.28,-95.79 405.63,-90.31"/>
</g>
<!-- Node10 -->
<g id="node10" class="node">
<title>Node10</title>
<g id="a_node10"><a xlink:title=" ">
<polygon fill="white" stroke="#bfbfbf" points="457,-67.5 457,-86.5 582,-86.5 582,-67.5 457,-67.5"/>
<text text-anchor="middle" x="519.5" y="-74.5" font-family="Helvetica,sans-Serif" font-size="10.00">G4SubtractionSolid.hh</text>
</a>
</g>
</g>
<!-- Node3&#45;&gt;Node10 -->
<g id="edge9" class="edge">
<title>Node3&#45;&gt;Node10</title>
<path fill="none" stroke="midnightblue" d="M463.26,-123.32C473.27,-115.26 488.39,-103.08 500.43,-93.37"/>
<polygon fill="midnightblue" stroke="midnightblue" points="502.95,-95.83 508.54,-86.83 498.56,-90.38 502.95,-95.83"/>
</g>
<!-- Node11 -->
<g id="node11" class="node">
<title>Node11</title>
<g id="a_node11"><a xlink:title=" ">
<polygon fill="white" stroke="#bfbfbf" points="600.5,-67.5 600.5,-86.5 710.5,-86.5 710.5,-67.5 600.5,-67.5"/>
<text text-anchor="middle" x="655.5" y="-74.5" font-family="Helvetica,sans-Serif" font-size="10.00">G4PVPlacement.hh</text>
</a>
</g>
</g>
<!-- Node3&#45;&gt;Node11 -->
<g id="edge10" class="edge">
<title>Node3&#45;&gt;Node11</title>
<path fill="none" stroke="midnightblue" d="M484.67,-123.44C519.56,-114.16 575.39,-99.31 613.67,-89.13"/>
<polygon fill="midnightblue" stroke="midnightblue" points="614.72,-92.47 623.48,-86.52 612.92,-85.7 614.72,-92.47"/>
</g>
<!-- Node5 -->
<g id="node5" class="node">
<title>Node5</title>
<g id="a_node5"><a xlink:title=" ">
<polygon fill="white" stroke="#bfbfbf" points="0,-0.5 0,-30.5 113,-30.5 113,-0.5 0,-0.5"/>
<text text-anchor="start" x="8" y="-18.5" font-family="Helvetica,sans-Serif" font-size="10.00">boost/property_tree</text>
<text text-anchor="middle" x="56.5" y="-7.5" font-family="Helvetica,sans-Serif" font-size="10.00">/json_parser.hpp</text>
</a>
</g>
</g>
<!-- Node4&#45;&gt;Node5 -->
<g id="edge4" class="edge">
<title>Node4&#45;&gt;Node5</title>
<path fill="none" stroke="midnightblue" d="M119.04,-67.48C109.34,-59.57 94.51,-47.48 81.73,-37.07"/>
<polygon fill="midnightblue" stroke="midnightblue" points="83.67,-34.13 73.7,-30.52 79.24,-39.55 83.67,-34.13"/>
</g>
<!-- Node6 -->
<g id="node6" class="node">
<title>Node6</title>
<g id="a_node6"><a xlink:title=" ">
<polygon fill="white" stroke="#bfbfbf" points="131,-6 131,-25 274,-25 274,-6 131,-6"/>
<text text-anchor="middle" x="202.5" y="-13" font-family="Helvetica,sans-Serif" font-size="10.00">G4OpBoundaryProcess.hh</text>
</a>
</g>
</g>
<!-- Node4&#45;&gt;Node6 -->
<g id="edge5" class="edge">
<title>Node4&#45;&gt;Node6</title>
<path fill="none" stroke="midnightblue" d="M139.96,-67.48C151.45,-58.11 170.13,-42.88 184.09,-31.51"/>
<polygon fill="midnightblue" stroke="midnightblue" points="186.52,-34.04 192.06,-25.01 182.1,-28.61 186.52,-34.04"/>
</g>
<!-- Node4&#45;&gt;Node7 -->
<g id="edge6" class="edge">
<title>Node4&#45;&gt;Node7</title>
<path fill="none" stroke="midnightblue" d="M187.24,-67.48C260.56,-56.65 386.86,-38 464.69,-26.51"/>
<polygon fill="midnightblue" stroke="midnightblue" points="465.49,-29.93 474.87,-25.01 464.46,-23.01 465.49,-29.93"/>
</g>
<!-- Node14 -->
<g id="node14" class="node">
<title>Node14</title>
<g id="a_node14"><a xlink:href="_o_m_sim_command_args_table_8hh.html" target="_top" xlink:title="Definition of the OMSimCommandArgsTable singleton class, which controls user args.">
<polygon fill="white" stroke="black" points="797.5,-123.5 797.5,-142.5 961.5,-142.5 961.5,-123.5 797.5,-123.5"/>
<text text-anchor="middle" x="879.5" y="-130.5" font-family="Helvetica,sans-Serif" font-size="10.00">OMSimCommandArgsTable.hh</text>
</a>
</g>
</g>
<!-- Node13&#45;&gt;Node14 -->
<g id="edge13" class="edge">
<title>Node13&#45;&gt;Node14</title>
<path fill="none" stroke="midnightblue" d="M844.44,-179.08C850.43,-171.38 859.25,-160.03 866.55,-150.65"/>
<polygon fill="midnightblue" stroke="midnightblue" points="869.32,-152.79 872.69,-142.75 863.79,-148.5 869.32,-152.79"/>
</g>
<!-- Node21 -->
<g id="node21" class="node">
<title>Node21</title>
<g id="a_node21"><a xlink:title=" ">
<polygon fill="white" stroke="#bfbfbf" points="979.5,-123.5 979.5,-142.5 1077.5,-142.5 1077.5,-123.5 979.5,-123.5"/>
<text text-anchor="middle" x="1028.5" y="-130.5" font-family="Helvetica,sans-Serif" font-size="10.00">G4UImanager.hh</text>
</a>
</g>
</g>
<!-- Node13&#45;&gt;Node21 -->
<g id="edge20" class="edge">
<title>Node13&#45;&gt;Node21</title>
<path fill="none" stroke="midnightblue" d="M867.76,-179.44C900.46,-170.2 952.68,-155.44 988.68,-145.26"/>
<polygon fill="midnightblue" stroke="midnightblue" points="989.71,-148.61 998.38,-142.52 987.8,-141.87 989.71,-148.61"/>
</g>
<!-- Node15 -->
<g id="node15" class="node">
<title>Node15</title>
<g id="a_node15"><a xlink:href="_o_m_sim_logger_8hh.html" target="_top" xlink:title=" ">
<polygon fill="white" stroke="black" points="767,-67.5 767,-86.5 866,-86.5 866,-67.5 767,-67.5"/>
<text text-anchor="middle" x="816.5" y="-74.5" font-family="Helvetica,sans-Serif" font-size="10.00">OMSimLogger.hh</text>
</a>
</g>
</g>
<!-- Node14&#45;&gt;Node15 -->
<g id="edge14" class="edge">
<title>Node14&#45;&gt;Node15</title>
<path fill="none" stroke="midnightblue" d="M869.38,-123.32C859.97,-115.26 845.76,-103.08 834.43,-93.37"/>
<polygon fill="midnightblue" stroke="midnightblue" points="836.68,-90.68 826.81,-86.83 832.12,-96 836.68,-90.68"/>
</g>
<!-- Node18 -->
<g id="node18" class="node">
<title>Node18</title>
<g id="a_node18"><a xlink:title=" ">
<polygon fill="white" stroke="#bfbfbf" points="884,-67.5 884,-86.5 939,-86.5 939,-67.5 884,-67.5"/>
<text text-anchor="middle" x="911.5" y="-74.5" font-family="Helvetica,sans-Serif" font-size="10.00">fstream</text>
</a>
</g>
</g>
<!-- Node14&#45;&gt;Node18 -->
<g id="edge17" class="edge">
<title>Node14&#45;&gt;Node18</title>
<path fill="none" stroke="midnightblue" d="M884.78,-123.08C889.21,-115.61 895.66,-104.72 901.12,-95.52"/>
<polygon fill="midnightblue" stroke="midnightblue" points="904.23,-97.14 906.31,-86.75 898.21,-93.57 904.23,-97.14"/>
</g>
<!-- Node19 -->
<g id="node19" class="node">
<title>Node19</title>
<g id="a_node19"><a xlink:title=" ">
<polygon fill="white" stroke="#bfbfbf" points="957.5,-67.5 957.5,-86.5 1041.5,-86.5 1041.5,-67.5 957.5,-67.5"/>
<text text-anchor="middle" x="999.5" y="-74.5" font-family="Helvetica,sans-Serif" font-size="10.00">boost/any.hpp</text>
</a>
</g>
</g>
<!-- Node14&#45;&gt;Node19 -->
<g id="edge18" class="edge">
<title>Node14&#45;&gt;Node19</title>
<path fill="none" stroke="midnightblue" d="M898.51,-123.44C918.09,-114.64 948.81,-100.81 971.23,-90.72"/>
<polygon fill="midnightblue" stroke="midnightblue" points="972.89,-93.81 980.57,-86.52 970.02,-87.43 972.89,-93.81"/>
</g>
<!-- Node20 -->
<g id="node20" class="node">
<title>Node20</title>
<g id="a_node20"><a xlink:title=" ">
<polygon fill="white" stroke="#bfbfbf" points="1059.5,-67.5 1059.5,-86.5 1127.5,-86.5 1127.5,-67.5 1059.5,-67.5"/>
<text text-anchor="middle" x="1093.5" y="-74.5" font-family="Helvetica,sans-Serif" font-size="10.00">sys/time.h</text>
</a>
</g>
</g>
<!-- Node14&#45;&gt;Node20 -->
<g id="edge19" class="edge">
<title>Node14&#45;&gt;Node20</title>
<path fill="none" stroke="midnightblue" d="M913.41,-123.44C950.35,-114.12 1009.55,-99.18 1049.92,-89"/>
<polygon fill="midnightblue" stroke="midnightblue" points="1050.91,-92.36 1059.75,-86.52 1049.2,-85.57 1050.91,-92.36"/>
</g>
<!-- Node16 -->
<g id="node16" class="node">
<title>Node16</title>
<g id="a_node16"><a xlink:title=" ">
<polygon fill="white" stroke="#bfbfbf" points="757.5,-6 757.5,-25 807.5,-25 807.5,-6 757.5,-6"/>
<text text-anchor="middle" x="782.5" y="-13" font-family="Helvetica,sans-Serif" font-size="10.00">stdio.h</text>
</a>
</g>
</g>
<!-- Node15&#45;&gt;Node16 -->
<g id="edge15" class="edge">
<title>Node15&#45;&gt;Node16</title>
<path fill="none" stroke="midnightblue" d="M811.63,-67.48C806.63,-58.73 798.71,-44.87 792.39,-33.81"/>
<polygon fill="midnightblue" stroke="midnightblue" points="795.36,-31.96 787.36,-25.01 789.28,-35.43 795.36,-31.96"/>
</g>
<!-- Node17 -->
<g id="node17" class="node">
<title>Node17</title>
<g id="a_node17"><a xlink:title=" ">
<polygon fill="white" stroke="#bfbfbf" points="825.5,-6 825.5,-25 873.5,-25 873.5,-6 825.5,-6"/>
<text text-anchor="middle" x="849.5" y="-13" font-family="Helvetica,sans-Serif" font-size="10.00">time.h</text>
</a>
</g>
</g>
<!-- Node15&#45;&gt;Node17 -->
<g id="edge16" class="edge">
<title>Node15&#45;&gt;Node17</title>
<path fill="none" stroke="midnightblue" d="M821.23,-67.48C826.08,-58.73 833.77,-44.87 839.9,-33.81"/>
<polygon fill="midnightblue" stroke="midnightblue" points="842.99,-35.45 844.78,-25.01 836.87,-32.06 842.99,-35.45"/>
</g>
</g>
</svg>
