<?xml version="1.0" encoding="UTF-8" standalone="no"?>
<!DOCTYPE svg PUBLIC "-//W3C//DTD SVG 1.1//EN"
 "http://www.w3.org/Graphics/SVG/1.1/DTD/svg11.dtd">
<!-- Generated by graphviz version 2.43.0 (0)
 -->
<!-- Title: OMSimHitManager.hh Pages: 1 -->
<svg width="1705pt" height="140pt"
 viewBox="0.00 0.00 1704.50 140.00" xmlns="http://www.w3.org/2000/svg" xmlns:xlink="http://www.w3.org/1999/xlink">
<g id="graph0" class="graph" transform="scale(1 1) rotate(0) translate(4 136)">
<title>OMSimHitManager.hh</title>
<polygon fill="white" stroke="transparent" points="-4,4 -4,-136 1700.5,-136 1700.5,4 -4,4"/>
<!-- Node1 -->
<g id="node1" class="node">
<title>Node1</title>
<g id="a_node1"><a xlink:title="Defines structures and classes related to optical module photon hit management.">
<polygon fill="#bfbfbf" stroke="black" points="735.5,-112.5 735.5,-131.5 858.5,-131.5 858.5,-112.5 735.5,-112.5"/>
<text text-anchor="middle" x="797" y="-119.5" font-family="Helvetica,sans-Serif" font-size="10.00">OMSimHitManager.hh</text>
</a>
</g>
</g>
<!-- Node2 -->
<g id="node2" class="node">
<title>Node2</title>
<g id="a_node2"><a xlink:href="_o_m_sim_hit_manager_8cc.html" target="_top" xlink:title=" ">
<polygon fill="white" stroke="black" points="0,-56.5 0,-75.5 122,-75.5 122,-56.5 0,-56.5"/>
<text text-anchor="middle" x="61" y="-63.5" font-family="Helvetica,sans-Serif" font-size="10.00">OMSimHitManager.cc</text>
</a>
</g>
</g>
<!-- Node1&#45;&gt;Node2 -->
<g id="edge1" class="edge">
<title>Node1&#45;&gt;Node2</title>
<path fill="none" stroke="midnightblue" d="M725.03,-117.57C602.76,-111.41 346.73,-97.14 131,-76 128.07,-75.71 125.08,-75.4 122.06,-75.07"/>
<polygon fill="midnightblue" stroke="midnightblue" points="725.22,-121.08 735.38,-118.08 725.57,-114.09 725.22,-121.08"/>
</g>
<!-- Node3 -->
<g id="node3" class="node">
<title>Node3</title>
<g id="a_node3"><a xlink:href="_o_m_sim_tracking_action_8cc.html" target="_top" xlink:title=" ">
<polygon fill="white" stroke="black" points="140.5,-56.5 140.5,-75.5 277.5,-75.5 277.5,-56.5 140.5,-56.5"/>
<text text-anchor="middle" x="209" y="-63.5" font-family="Helvetica,sans-Serif" font-size="10.00">OMSimTrackingAction.cc</text>
</a>
</g>
</g>
<!-- Node1&#45;&gt;Node3 -->
<g id="edge2" class="edge">
<title>Node1&#45;&gt;Node3</title>
<path fill="none" stroke="midnightblue" d="M725.16,-115.27C626.37,-107.26 443.08,-91.89 287,-76 284.02,-75.7 280.97,-75.38 277.89,-75.05"/>
<polygon fill="midnightblue" stroke="midnightblue" points="725.07,-118.78 735.32,-116.1 725.64,-111.8 725.07,-118.78"/>
</g>
<!-- Node4 -->
<g id="node4" class="node">
<title>Node4</title>
<g id="a_node4"><a xlink:href="_o_m_sim_effective_area_analyisis_8hh.html" target="_top" xlink:title=" ">
<polygon fill="white" stroke="black" points="296,-56.5 296,-75.5 472,-75.5 472,-56.5 296,-56.5"/>
<text text-anchor="middle" x="384" y="-63.5" font-family="Helvetica,sans-Serif" font-size="10.00">OMSimEffectiveAreaAnalyisis.hh</text>
</a>
</g>
</g>
<!-- Node1&#45;&gt;Node4 -->
<g id="edge3" class="edge">
<title>Node1&#45;&gt;Node4</title>
<path fill="none" stroke="midnightblue" d="M724.97,-111.58C647.2,-101.41 524.39,-85.36 449.33,-75.54"/>
<polygon fill="midnightblue" stroke="midnightblue" points="724.8,-115.09 735.17,-112.92 725.71,-108.15 724.8,-115.09"/>
</g>
<!-- Node6 -->
<g id="node6" class="node">
<title>Node6</title>
<g id="a_node6"><a xlink:href="_o_m_sim_effective_area_analyisis_8cc.html" target="_top" xlink:title=" ">
<polygon fill="white" stroke="black" points="412.5,-0.5 412.5,-19.5 587.5,-19.5 587.5,-0.5 412.5,-0.5"/>
<text text-anchor="middle" x="500" y="-7.5" font-family="Helvetica,sans-Serif" font-size="10.00">OMSimEffectiveAreaAnalyisis.cc</text>
</a>
</g>
</g>
<!-- Node1&#45;&gt;Node6 -->
<g id="edge7" class="edge">
<title>Node1&#45;&gt;Node6</title>
<path fill="none" stroke="midnightblue" d="M725.08,-117.92C653.08,-113.37 548.82,-102.34 519,-76 502.61,-61.52 500.01,-33.77 499.81,-19.67"/>
<polygon fill="midnightblue" stroke="midnightblue" points="725.26,-121.44 735.46,-118.55 725.68,-114.45 725.26,-121.44"/>
</g>
<!-- Node7 -->
<g id="node7" class="node">
<title>Node7</title>
<g id="a_node7"><a xlink:href="effective__area_2src_2_o_m_sim_detector_construction_8cc.html" target="_top" xlink:title=" ">
<polygon fill="white" stroke="black" points="527.5,-56.5 527.5,-75.5 696.5,-75.5 696.5,-56.5 527.5,-56.5"/>
<text text-anchor="middle" x="612" y="-63.5" font-family="Helvetica,sans-Serif" font-size="10.00">OMSimDetectorConstruction.cc</text>
</a>
</g>
</g>
<!-- Node1&#45;&gt;Node7 -->
<g id="edge6" class="edge">
<title>Node1&#45;&gt;Node7</title>
<path fill="none" stroke="midnightblue" d="M757.83,-109.57C722.93,-99.38 672.65,-84.7 641.18,-75.52"/>
<polygon fill="midnightblue" stroke="midnightblue" points="757.11,-113 767.69,-112.44 759.07,-106.28 757.11,-113"/>
</g>
<!-- Node8 -->
<g id="node8" class="node">
<title>Node8</title>
<g id="a_node8"><a xlink:href="_o_m_sim__radioactive__decays_8cc.html" target="_top" xlink:title=" ">
<polygon fill="white" stroke="black" points="714.5,-56.5 714.5,-75.5 879.5,-75.5 879.5,-56.5 714.5,-56.5"/>
<text text-anchor="middle" x="797" y="-63.5" font-family="Helvetica,sans-Serif" font-size="10.00">OMSim_radioactive_decays.cc</text>
</a>
</g>
</g>
<!-- Node1&#45;&gt;Node8 -->
<g id="edge8" class="edge">
<title>Node1&#45;&gt;Node8</title>
<path fill="none" stroke="midnightblue" d="M797,-101.8C797,-92.91 797,-82.78 797,-75.75"/>
<polygon fill="midnightblue" stroke="midnightblue" points="793.5,-102.08 797,-112.08 800.5,-102.08 793.5,-102.08"/>
</g>
<!-- Node9 -->
<g id="node9" class="node">
<title>Node9</title>
<g id="a_node9"><a xlink:href="_o_m_sim_decays_analysis_8cc.html" target="_top" xlink:title=" ">
<polygon fill="white" stroke="black" points="897.5,-56.5 897.5,-75.5 1040.5,-75.5 1040.5,-56.5 897.5,-56.5"/>
<text text-anchor="middle" x="969" y="-63.5" font-family="Helvetica,sans-Serif" font-size="10.00">OMSimDecaysAnalysis.cc</text>
</a>
</g>
</g>
<!-- Node1&#45;&gt;Node9 -->
<g id="edge9" class="edge">
<title>Node1&#45;&gt;Node9</title>
<path fill="none" stroke="midnightblue" d="M833.83,-109.44C866.26,-99.26 912.74,-84.66 941.87,-75.52"/>
<polygon fill="midnightblue" stroke="midnightblue" points="832.75,-106.11 824.25,-112.44 834.84,-112.79 832.75,-106.11"/>
</g>
<!-- Node10 -->
<g id="node10" class="node">
<title>Node10</title>
<g id="a_node10"><a xlink:href="radioactive__decays_2src_2_o_m_sim_detector_construction_8cc.html" target="_top" xlink:title=" ">
<polygon fill="white" stroke="black" points="1058.5,-56.5 1058.5,-75.5 1227.5,-75.5 1227.5,-56.5 1058.5,-56.5"/>
<text text-anchor="middle" x="1143" y="-63.5" font-family="Helvetica,sans-Serif" font-size="10.00">OMSimDetectorConstruction.cc</text>
</a>
</g>
</g>
<!-- Node1&#45;&gt;Node10 -->
<g id="edge10" class="edge">
<title>Node1&#45;&gt;Node10</title>
<path fill="none" stroke="midnightblue" d="M862.01,-110.85C927.38,-100.65 1027.04,-85.1 1088.43,-75.52"/>
<polygon fill="midnightblue" stroke="midnightblue" points="861.17,-107.44 851.82,-112.44 862.24,-114.36 861.17,-107.44"/>
</g>
<!-- Node11 -->
<g id="node11" class="node">
<title>Node11</title>
<g id="a_node11"><a xlink:href="radioactive__decays_2src_2_o_m_sim_event_action_8cc.html" target="_top" xlink:title=" ">
<polygon fill="white" stroke="black" points="1245,-56.5 1245,-75.5 1369,-75.5 1369,-56.5 1245,-56.5"/>
<text text-anchor="middle" x="1307" y="-63.5" font-family="Helvetica,sans-Serif" font-size="10.00">OMSimEventAction.cc</text>
</a>
</g>
</g>
<!-- Node1&#45;&gt;Node11 -->
<g id="edge11" class="edge">
<title>Node1&#45;&gt;Node11</title>
<path fill="none" stroke="midnightblue" d="M868.67,-114.25C955.81,-105.9 1107.31,-90.97 1237,-76 1239.56,-75.71 1242.16,-75.4 1244.8,-75.08"/>
<polygon fill="midnightblue" stroke="midnightblue" points="868.25,-110.77 858.63,-115.21 868.92,-117.74 868.25,-110.77"/>
</g>
<!-- Node12 -->
<g id="node12" class="node">
<title>Node12</title>
<g id="a_node12"><a xlink:href="_o_m_sim__supernova_8cc.html" target="_top" xlink:title=" ">
<polygon fill="white" stroke="black" points="1387,-56.5 1387,-75.5 1509,-75.5 1509,-56.5 1387,-56.5"/>
<text text-anchor="middle" x="1448" y="-63.5" font-family="Helvetica,sans-Serif" font-size="10.00">OMSim_supernova.cc</text>
</a>
</g>
</g>
<!-- Node1&#45;&gt;Node12 -->
<g id="edge12" class="edge">
<title>Node1&#45;&gt;Node12</title>
<path fill="none" stroke="midnightblue" d="M868.87,-116.61C978.73,-109.63 1194.96,-94.84 1378,-76 1380.93,-75.7 1383.92,-75.38 1386.94,-75.04"/>
<polygon fill="midnightblue" stroke="midnightblue" points="868.34,-113.13 858.58,-117.26 868.78,-120.12 868.34,-113.13"/>
</g>
<!-- Node13 -->
<g id="node13" class="node">
<title>Node13</title>
<g id="a_node13"><a xlink:href="supernova_2src_2_o_m_sim_detector_construction_8cc.html" target="_top" xlink:title=" ">
<polygon fill="white" stroke="black" points="1527.5,-56.5 1527.5,-75.5 1696.5,-75.5 1696.5,-56.5 1527.5,-56.5"/>
<text text-anchor="middle" x="1612" y="-63.5" font-family="Helvetica,sans-Serif" font-size="10.00">OMSimDetectorConstruction.cc</text>
</a>
</g>
</g>
<!-- Node1&#45;&gt;Node13 -->
<g id="edge13" class="edge">
<title>Node1&#45;&gt;Node13</title>
<path fill="none" stroke="midnightblue" d="M868.98,-117.3C998.78,-110.45 1280.63,-94.77 1518,-76 1521.11,-75.75 1524.27,-75.5 1527.46,-75.23"/>
<polygon fill="midnightblue" stroke="midnightblue" points="868.58,-113.81 858.77,-117.84 868.94,-120.81 868.58,-113.81"/>
</g>
<!-- Node5 -->
<g id="node5" class="node">
<title>Node5</title>
<g id="a_node5"><a xlink:href="_o_m_sim__effective__area_8cc.html" target="_top" xlink:title="Main for the calculation of effective areas.">
<polygon fill="white" stroke="black" points="254,-0.5 254,-19.5 394,-19.5 394,-0.5 254,-0.5"/>
<text text-anchor="middle" x="324" y="-7.5" font-family="Helvetica,sans-Serif" font-size="10.00">OMSim_effective_area.cc</text>
</a>
</g>
</g>
<!-- Node4&#45;&gt;Node5 -->
<g id="edge4" class="edge">
<title>Node4&#45;&gt;Node5</title>
<path fill="none" stroke="midnightblue" d="M366.82,-49.54C356.12,-39.91 342.74,-27.87 333.82,-19.83"/>
<polygon fill="midnightblue" stroke="midnightblue" points="364.59,-52.24 374.36,-56.32 369.27,-47.03 364.59,-52.24"/>
</g>
<!-- Node4&#45;&gt;Node6 -->
<g id="edge5" class="edge">
<title>Node4&#45;&gt;Node6</title>
<path fill="none" stroke="midnightblue" d="M411.72,-52.1C433.39,-42.01 462.9,-28.27 481.71,-19.52"/>
<polygon fill="midnightblue" stroke="midnightblue" points="409.97,-49.05 402.38,-56.44 412.92,-55.4 409.97,-49.05"/>
</g>
</g>
</svg>
