<?xml version="1.0" encoding="UTF-8" standalone="no"?>
<!DOCTYPE svg PUBLIC "-//W3C//DTD SVG 1.1//EN"
 "http://www.w3.org/Graphics/SVG/1.1/DTD/svg11.dtd">
<!-- Generated by graphviz version 2.43.0 (0)
 -->
<!-- Title: OMSimDetectorConstruction.cc Pages: 1 -->
<svg width="1677pt" height="375pt"
 viewBox="0.00 0.00 1677.00 375.00" xmlns="http://www.w3.org/2000/svg" xmlns:xlink="http://www.w3.org/1999/xlink">
<g id="graph0" class="graph" transform="scale(1 1) rotate(0) translate(4 371)">
<title>OMSimDetectorConstruction.cc</title>
<polygon fill="white" stroke="transparent" points="-4,4 -4,-371 1673,-371 1673,4 -4,4"/>
<!-- Node1 -->
<g id="node1" class="node">
<title>Node1</title>
<g id="a_node1"><a xlink:title="User defined detector.">
<polygon fill="#bfbfbf" stroke="black" points="1023.5,-347.5 1023.5,-366.5 1192.5,-366.5 1192.5,-347.5 1023.5,-347.5"/>
<text text-anchor="middle" x="1108" y="-354.5" font-family="Helvetica,sans-Serif" font-size="10.00">OMSimDetectorConstruction.cc</text>
</a>
</g>
</g>
<!-- Node2 -->
<g id="node2" class="node">
<title>Node2</title>
<g id="a_node2"><a xlink:href="_o_m_sim_detector_construction_8hh.html" target="_top" xlink:title=" ">
<polygon fill="white" stroke="black" points="559,-291.5 559,-310.5 729,-310.5 729,-291.5 559,-291.5"/>
<text text-anchor="middle" x="644" y="-298.5" font-family="Helvetica,sans-Serif" font-size="10.00">OMSimDetectorConstruction.hh</text>
</a>
</g>
</g>
<!-- Node1&#45;&gt;Node2 -->
<g id="edge1" class="edge">
<title>Node1&#45;&gt;Node2</title>
<path fill="none" stroke="midnightblue" d="M1034.73,-347.47C951.21,-337.75 814.96,-321.9 727.43,-311.71"/>
<polygon fill="midnightblue" stroke="midnightblue" points="727.6,-308.21 717.26,-310.53 726.79,-315.16 727.6,-308.21"/>
</g>
<!-- Node3 -->
<g id="node3" class="node">
<title>Node3</title>
<g id="a_node3"><a xlink:title=" ">
<polygon fill="white" stroke="#bfbfbf" points="174,-235.5 174,-254.5 290,-254.5 290,-235.5 174,-235.5"/>
<text text-anchor="middle" x="232" y="-242.5" font-family="Helvetica,sans-Serif" font-size="10.00">G4LogicalVolume.hh</text>
</a>
</g>
</g>
<!-- Node1&#45;&gt;Node3 -->
<g id="edge46" class="edge">
<title>Node1&#45;&gt;Node3</title>
<path fill="none" stroke="midnightblue" d="M1023.04,-352.35C913.34,-346.91 716.71,-334.67 550,-311 451.64,-297.03 337.94,-271.48 276.67,-256.92"/>
<polygon fill="midnightblue" stroke="midnightblue" points="277.12,-253.42 266.58,-254.5 275.49,-260.23 277.12,-253.42"/>
</g>
<!-- Node7 -->
<g id="node7" class="node">
<title>Node7</title>
<g id="a_node7"><a xlink:href="_o_m_sim_input_data_8hh.html" target="_top" xlink:title=" ">
<polygon fill="white" stroke="black" points="436.5,-67.5 436.5,-86.5 551.5,-86.5 551.5,-67.5 436.5,-67.5"/>
<text text-anchor="middle" x="494" y="-74.5" font-family="Helvetica,sans-Serif" font-size="10.00">OMSimInputData.hh</text>
</a>
</g>
</g>
<!-- Node1&#45;&gt;Node7 -->
<g id="edge28" class="edge">
<title>Node1&#45;&gt;Node7</title>
<path fill="none" stroke="midnightblue" d="M1023.25,-356.63C817.6,-357.44 296.67,-354.95 129,-311 66.9,-294.72 0,-310.2 0,-246 0,-246 0,-246 0,-188 0,-101.72 290.71,-83.08 426.11,-79.08"/>
<polygon fill="midnightblue" stroke="midnightblue" points="426.47,-82.57 436.37,-78.8 426.27,-75.58 426.47,-82.57"/>
</g>
<!-- Node10 -->
<g id="node10" class="node">
<title>Node10</title>
<g id="a_node10"><a xlink:title=" ">
<polygon fill="white" stroke="#bfbfbf" points="930.5,-6 930.5,-25 1049.5,-25 1049.5,-6 930.5,-6"/>
<text text-anchor="middle" x="990" y="-13" font-family="Helvetica,sans-Serif" font-size="10.00">G4SystemOfUnits.hh</text>
</a>
</g>
</g>
<!-- Node1&#45;&gt;Node10 -->
<g id="edge26" class="edge">
<title>Node1&#45;&gt;Node10</title>
<path fill="none" stroke="midnightblue" d="M1153.19,-347.5C1204.15,-334.99 1280,-306.26 1280,-246 1280,-246 1280,-246 1280,-132 1280,-101.9 1283.32,-87.19 1261,-67 1232.08,-40.84 1130.14,-27.52 1059.88,-21.29"/>
<polygon fill="midnightblue" stroke="midnightblue" points="1060.02,-17.79 1049.75,-20.43 1059.42,-24.77 1060.02,-17.79"/>
</g>
<!-- Node11 -->
<g id="node11" class="node">
<title>Node11</title>
<g id="a_node11"><a xlink:href="_o_m_sim_p_m_t_construction_8hh.html" target="_top" xlink:title=" ">
<polygon fill="white" stroke="black" points="768.5,-179.5 768.5,-198.5 917.5,-198.5 917.5,-179.5 768.5,-179.5"/>
<text text-anchor="middle" x="843" y="-186.5" font-family="Helvetica,sans-Serif" font-size="10.00">OMSimPMTConstruction.hh</text>
</a>
</g>
</g>
<!-- Node1&#45;&gt;Node11 -->
<g id="edge29" class="edge">
<title>Node1&#45;&gt;Node11</title>
<path fill="none" stroke="midnightblue" d="M1023.49,-353.54C953.08,-349.5 860.63,-338.88 837,-311 812.5,-282.09 825.46,-233.94 835.28,-207.95"/>
<polygon fill="midnightblue" stroke="midnightblue" points="838.57,-209.16 839.06,-198.58 832.08,-206.54 838.57,-209.16"/>
</g>
<!-- Node13 -->
<g id="node13" class="node">
<title>Node13</title>
<g id="a_node13"><a xlink:title=" ">
<polygon fill="white" stroke="#bfbfbf" points="1016.5,-67.5 1016.5,-86.5 1123.5,-86.5 1123.5,-67.5 1016.5,-67.5"/>
<text text-anchor="middle" x="1070" y="-74.5" font-family="Helvetica,sans-Serif" font-size="10.00">G4Transform3D.hh</text>
</a>
</g>
</g>
<!-- Node1&#45;&gt;Node13 -->
<g id="edge27" class="edge">
<title>Node1&#45;&gt;Node13</title>
<path fill="none" stroke="midnightblue" d="M1123.85,-347.44C1151.12,-331.43 1204,-294.16 1204,-246 1204,-246 1204,-246 1204,-188 1204,-156.37 1197.53,-145.2 1175,-123 1158.97,-107.21 1136.53,-96.58 1116.51,-89.63"/>
<polygon fill="midnightblue" stroke="midnightblue" points="1117.51,-86.28 1106.91,-86.51 1115.34,-92.93 1117.51,-86.28"/>
</g>
<!-- Node16 -->
<g id="node16" class="node">
<title>Node16</title>
<g id="a_node16"><a xlink:title=" ">
<polygon fill="white" stroke="#bfbfbf" points="1142,-67.5 1142,-86.5 1252,-86.5 1252,-67.5 1142,-67.5"/>
<text text-anchor="middle" x="1197" y="-74.5" font-family="Helvetica,sans-Serif" font-size="10.00">G4PVPlacement.hh</text>
</a>
</g>
</g>
<!-- Node1&#45;&gt;Node16 -->
<g id="edge25" class="edge">
<title>Node1&#45;&gt;Node16</title>
<path fill="none" stroke="midnightblue" d="M1135.12,-347.47C1174.27,-333.27 1242,-300.78 1242,-246 1242,-246 1242,-246 1242,-188 1242,-152.93 1222.16,-115.94 1208.83,-95.04"/>
<polygon fill="midnightblue" stroke="midnightblue" points="1211.7,-93.03 1203.26,-86.63 1205.87,-96.9 1211.7,-93.03"/>
</g>
<!-- Node19 -->
<g id="node19" class="node">
<title>Node19</title>
<g id="a_node19"><a xlink:href="_o_m_sim_m_d_o_m_8hh.html" target="_top" xlink:title=" ">
<polygon fill="white" stroke="black" points="1038,-235.5 1038,-254.5 1138,-254.5 1138,-235.5 1038,-235.5"/>
<text text-anchor="middle" x="1088" y="-242.5" font-family="Helvetica,sans-Serif" font-size="10.00">OMSimMDOM.hh</text>
</a>
</g>
</g>
<!-- Node1&#45;&gt;Node19 -->
<g id="edge30" class="edge">
<title>Node1&#45;&gt;Node19</title>
<path fill="none" stroke="midnightblue" d="M1108.01,-347.5C1107.87,-334.99 1107.03,-310.97 1103,-291 1101.19,-282.02 1098.12,-272.35 1095.22,-264.28"/>
<polygon fill="midnightblue" stroke="midnightblue" points="1098.45,-262.91 1091.65,-254.79 1091.9,-265.38 1098.45,-262.91"/>
</g>
<!-- Node20 -->
<g id="node20" class="node">
<title>Node20</title>
<g id="a_node20"><a xlink:href="_o_m_sim_m_d_o_m_flasher_8hh.html" target="_top" xlink:title=" ">
<polygon fill="white" stroke="black" points="1020.5,-179.5 1020.5,-198.5 1155.5,-198.5 1155.5,-179.5 1020.5,-179.5"/>
<text text-anchor="middle" x="1088" y="-186.5" font-family="Helvetica,sans-Serif" font-size="10.00">OMSimMDOMFlasher.hh</text>
</a>
</g>
</g>
<!-- Node1&#45;&gt;Node20 -->
<g id="edge52" class="edge">
<title>Node1&#45;&gt;Node20</title>
<path fill="none" stroke="midnightblue" d="M1115.11,-347.45C1131.06,-327.19 1166.78,-274.96 1147,-235 1140.4,-221.66 1127.74,-211.19 1115.83,-203.73"/>
<polygon fill="midnightblue" stroke="midnightblue" points="1117.39,-200.59 1106.98,-198.6 1113.88,-206.64 1117.39,-200.59"/>
</g>
<!-- Node22 -->
<g id="node22" class="node">
<title>Node22</title>
<g id="a_node22"><a xlink:href="_o_m_sim_p_d_o_m_8hh.html" target="_top" xlink:title=" ">
<polygon fill="white" stroke="black" points="922.5,-235.5 922.5,-254.5 1019.5,-254.5 1019.5,-235.5 922.5,-235.5"/>
<text text-anchor="middle" x="971" y="-242.5" font-family="Helvetica,sans-Serif" font-size="10.00">OMSimPDOM.hh</text>
</a>
</g>
</g>
<!-- Node1&#45;&gt;Node22 -->
<g id="edge31" class="edge">
<title>Node1&#45;&gt;Node22</title>
<path fill="none" stroke="midnightblue" d="M1104.76,-347.3C1099.29,-333.67 1087.04,-307.16 1069,-291 1052.3,-276.04 1029.77,-265.23 1010.53,-257.96"/>
<polygon fill="midnightblue" stroke="midnightblue" points="1011.7,-254.66 1001.1,-254.57 1009.33,-261.25 1011.7,-254.66"/>
</g>
<!-- Node23 -->
<g id="node23" class="node">
<title>Node23</title>
<g id="a_node23"><a xlink:href="_o_m_sim_l_o_m16_8hh.html" target="_top" xlink:title=" ">
<polygon fill="white" stroke="black" points="846.5,-291.5 846.5,-310.5 947.5,-310.5 947.5,-291.5 846.5,-291.5"/>
<text text-anchor="middle" x="897" y="-298.5" font-family="Helvetica,sans-Serif" font-size="10.00">OMSimLOM16.hh</text>
</a>
</g>
</g>
<!-- Node1&#45;&gt;Node23 -->
<g id="edge34" class="edge">
<title>Node1&#45;&gt;Node23</title>
<path fill="none" stroke="midnightblue" d="M1074.57,-347.44C1038.14,-338.12 979.77,-323.18 939.97,-313"/>
<polygon fill="midnightblue" stroke="midnightblue" points="940.83,-309.61 930.28,-310.52 939.1,-316.39 940.83,-309.61"/>
</g>
<!-- Node24 -->
<g id="node24" class="node">
<title>Node24</title>
<g id="a_node24"><a xlink:href="_o_m_sim_l_o_m18_8hh.html" target="_top" xlink:title=" ">
<polygon fill="white" stroke="black" points="138.5,-291.5 138.5,-310.5 239.5,-310.5 239.5,-291.5 138.5,-291.5"/>
<text text-anchor="middle" x="189" y="-298.5" font-family="Helvetica,sans-Serif" font-size="10.00">OMSimLOM18.hh</text>
</a>
</g>
</g>
<!-- Node1&#45;&gt;Node24 -->
<g id="edge36" class="edge">
<title>Node1&#45;&gt;Node24</title>
<path fill="none" stroke="midnightblue" d="M1023.29,-351.12C881.34,-342.94 586.45,-325.86 337,-311 308.29,-309.29 276.45,-307.36 249.68,-305.72"/>
<polygon fill="midnightblue" stroke="midnightblue" points="249.88,-302.23 239.69,-305.11 249.45,-309.22 249.88,-302.23"/>
</g>
<!-- Node26 -->
<g id="node26" class="node">
<title>Node26</title>
<g id="a_node26"><a xlink:href="_o_m_sim_d_e_g_g_8hh.html" target="_top" xlink:title=" ">
<polygon fill="white" stroke="black" points="965.5,-291.5 965.5,-310.5 1060.5,-310.5 1060.5,-291.5 965.5,-291.5"/>
<text text-anchor="middle" x="1013" y="-298.5" font-family="Helvetica,sans-Serif" font-size="10.00">OMSimDEGG.hh</text>
</a>
</g>
</g>
<!-- Node1&#45;&gt;Node26 -->
<g id="edge40" class="edge">
<title>Node1&#45;&gt;Node26</title>
<path fill="none" stroke="midnightblue" d="M1092.74,-347.32C1077.78,-338.82 1054.75,-325.73 1037.27,-315.8"/>
<polygon fill="midnightblue" stroke="midnightblue" points="1038.65,-312.55 1028.23,-310.65 1035.19,-318.64 1038.65,-312.55"/>
</g>
<!-- Node27 -->
<g id="node27" class="node">
<title>Node27</title>
<g id="a_node27"><a xlink:href="_o_m_sim_logger_8hh.html" target="_top" xlink:title=" ">
<polygon fill="white" stroke="black" points="1308.5,-235.5 1308.5,-254.5 1407.5,-254.5 1407.5,-235.5 1308.5,-235.5"/>
<text text-anchor="middle" x="1358" y="-242.5" font-family="Helvetica,sans-Serif" font-size="10.00">OMSimLogger.hh</text>
</a>
</g>
</g>
<!-- Node1&#45;&gt;Node27 -->
<g id="edge42" class="edge">
<title>Node1&#45;&gt;Node27</title>
<path fill="none" stroke="midnightblue" d="M1183.5,-347.47C1218.77,-341.11 1260.32,-330.07 1294,-311 1315.23,-298.98 1334.08,-277.89 1345.73,-263"/>
<polygon fill="midnightblue" stroke="midnightblue" points="1348.79,-264.76 1352.01,-254.67 1343.2,-260.55 1348.79,-264.76"/>
</g>
<!-- Node30 -->
<g id="node30" class="node">
<title>Node30</title>
<g id="a_node30"><a xlink:title=" ">
<polygon fill="white" stroke="#bfbfbf" points="1546,-291.5 1546,-310.5 1610,-310.5 1610,-291.5 1546,-291.5"/>
<text text-anchor="middle" x="1578" y="-298.5" font-family="Helvetica,sans-Serif" font-size="10.00">G4Box.hh</text>
</a>
</g>
</g>
<!-- Node1&#45;&gt;Node30 -->
<g id="edge45" class="edge">
<title>Node1&#45;&gt;Node30</title>
<path fill="none" stroke="midnightblue" d="M1192.62,-349.93C1277.13,-343.22 1410.88,-330.89 1535.71,-311.04"/>
<polygon fill="midnightblue" stroke="midnightblue" points="1536.52,-314.46 1545.84,-309.42 1535.41,-307.55 1536.52,-314.46"/>
</g>
<!-- Node31 -->
<g id="node31" class="node">
<title>Node31</title>
<g id="a_node31"><a xlink:href="_o_m_sim_command_args_table_8hh.html" target="_top" xlink:title="Definition of the OMSimCommandArgsTable singleton class, which controls user args.">
<polygon fill="white" stroke="black" points="1364,-291.5 1364,-310.5 1528,-310.5 1528,-291.5 1364,-291.5"/>
<text text-anchor="middle" x="1446" y="-298.5" font-family="Helvetica,sans-Serif" font-size="10.00">OMSimCommandArgsTable.hh</text>
</a>
</g>
</g>
<!-- Node1&#45;&gt;Node31 -->
<g id="edge47" class="edge">
<title>Node1&#45;&gt;Node31</title>
<path fill="none" stroke="midnightblue" d="M1161.56,-347.44C1221.63,-337.85 1318.99,-322.29 1382.76,-312.1"/>
<polygon fill="midnightblue" stroke="midnightblue" points="1383.37,-315.55 1392.69,-310.52 1382.27,-308.64 1383.37,-315.55"/>
</g>
<!-- Node2&#45;&gt;Node3 -->
<g id="edge2" class="edge">
<title>Node2&#45;&gt;Node3</title>
<path fill="none" stroke="midnightblue" d="M578.72,-291.44C502.71,-281.48 377.76,-265.1 300.43,-254.97"/>
<polygon fill="midnightblue" stroke="midnightblue" points="300.69,-251.47 290.32,-253.64 299.78,-258.41 300.69,-251.47"/>
</g>
<!-- Node4 -->
<g id="node4" class="node">
<title>Node4</title>
<g id="a_node4"><a xlink:title=" ">
<polygon fill="white" stroke="#bfbfbf" points="690,-235.5 690,-254.5 752,-254.5 752,-235.5 690,-235.5"/>
<text text-anchor="middle" x="721" y="-242.5" font-family="Helvetica,sans-Serif" font-size="10.00">G4Orb.hh</text>
</a>
</g>
</g>
<!-- Node2&#45;&gt;Node4 -->
<g id="edge3" class="edge">
<title>Node2&#45;&gt;Node4</title>
<path fill="none" stroke="midnightblue" d="M656.37,-291.32C668.16,-283.06 686.13,-270.45 700.14,-260.63"/>
<polygon fill="midnightblue" stroke="midnightblue" points="702.48,-263.26 708.66,-254.65 698.46,-257.53 702.48,-263.26"/>
</g>
<!-- Node5 -->
<g id="node5" class="node">
<title>Node5</title>
<g id="a_node5"><a xlink:title=" ">
<polygon fill="white" stroke="#bfbfbf" points="346.5,-235.5 346.5,-254.5 475.5,-254.5 475.5,-235.5 346.5,-235.5"/>
<text text-anchor="middle" x="411" y="-242.5" font-family="Helvetica,sans-Serif" font-size="10.00">G4VPhysicalVolume.hh</text>
</a>
</g>
</g>
<!-- Node2&#45;&gt;Node5 -->
<g id="edge4" class="edge">
<title>Node2&#45;&gt;Node5</title>
<path fill="none" stroke="midnightblue" d="M607.08,-291.44C566.6,-282.06 501.58,-266.99 457.62,-256.8"/>
<polygon fill="midnightblue" stroke="midnightblue" points="458.28,-253.36 447.75,-254.52 456.7,-260.18 458.28,-253.36"/>
</g>
<!-- Node6 -->
<g id="node6" class="node">
<title>Node6</title>
<g id="a_node6"><a xlink:title=" ">
<polygon fill="white" stroke="#bfbfbf" points="494,-235.5 494,-254.5 672,-254.5 672,-235.5 494,-235.5"/>
<text text-anchor="middle" x="583" y="-242.5" font-family="Helvetica,sans-Serif" font-size="10.00">G4VUserDetectorConstruction.hh</text>
</a>
</g>
</g>
<!-- Node2&#45;&gt;Node6 -->
<g id="edge5" class="edge">
<title>Node2&#45;&gt;Node6</title>
<path fill="none" stroke="midnightblue" d="M634.2,-291.32C625.18,-283.34 611.59,-271.31 600.68,-261.65"/>
<polygon fill="midnightblue" stroke="midnightblue" points="602.79,-258.84 592.98,-254.83 598.15,-264.08 602.79,-258.84"/>
</g>
<!-- Node2&#45;&gt;Node7 -->
<g id="edge6" class="edge">
<title>Node2&#45;&gt;Node7</title>
<path fill="none" stroke="midnightblue" d="M558.75,-293.18C473,-285.44 351.42,-271.69 337,-255 283.45,-193.03 408.57,-120.21 466.52,-91.04"/>
<polygon fill="midnightblue" stroke="midnightblue" points="468.11,-94.16 475.53,-86.59 465.01,-87.88 468.11,-94.16"/>
</g>
<!-- Node2&#45;&gt;Node11 -->
<g id="edge10" class="edge">
<title>Node2&#45;&gt;Node11</title>
<path fill="none" stroke="midnightblue" d="M673.47,-291.41C697.82,-283.68 732.84,-271.08 761,-255 785.72,-240.89 810.9,-219.7 826.71,-205.39"/>
<polygon fill="midnightblue" stroke="midnightblue" points="829.1,-207.95 834.08,-198.6 824.35,-202.8 829.1,-207.95"/>
</g>
<!-- Node2&#45;&gt;Node19 -->
<g id="edge19" class="edge">
<title>Node2&#45;&gt;Node19</title>
<path fill="none" stroke="midnightblue" d="M723.15,-291.48C800.86,-282.93 922.71,-269.06 1028,-255 1028.1,-254.99 1028.2,-254.97 1028.3,-254.96"/>
<polygon fill="midnightblue" stroke="midnightblue" points="1028.5,-258.47 1037.93,-253.63 1027.54,-251.53 1028.5,-258.47"/>
</g>
<!-- Node8 -->
<g id="node8" class="node">
<title>Node8</title>
<g id="a_node8"><a xlink:title=" ">
<polygon fill="white" stroke="#bfbfbf" points="510.5,-0.5 510.5,-30.5 623.5,-30.5 623.5,-0.5 510.5,-0.5"/>
<text text-anchor="start" x="518.5" y="-18.5" font-family="Helvetica,sans-Serif" font-size="10.00">boost/property_tree</text>
<text text-anchor="middle" x="567" y="-7.5" font-family="Helvetica,sans-Serif" font-size="10.00">/json_parser.hpp</text>
</a>
</g>
</g>
<!-- Node7&#45;&gt;Node8 -->
<g id="edge7" class="edge">
<title>Node7&#45;&gt;Node8</title>
<path fill="none" stroke="midnightblue" d="M504.46,-67.48C514.16,-59.57 528.99,-47.48 541.77,-37.07"/>
<polygon fill="midnightblue" stroke="midnightblue" points="544.26,-39.55 549.8,-30.52 539.83,-34.13 544.26,-39.55"/>
</g>
<!-- Node9 -->
<g id="node9" class="node">
<title>Node9</title>
<g id="a_node9"><a xlink:title=" ">
<polygon fill="white" stroke="#bfbfbf" points="349.5,-6 349.5,-25 492.5,-25 492.5,-6 349.5,-6"/>
<text text-anchor="middle" x="421" y="-13" font-family="Helvetica,sans-Serif" font-size="10.00">G4OpBoundaryProcess.hh</text>
</a>
</g>
</g>
<!-- Node7&#45;&gt;Node9 -->
<g id="edge8" class="edge">
<title>Node7&#45;&gt;Node9</title>
<path fill="none" stroke="midnightblue" d="M483.54,-67.48C472.05,-58.11 453.37,-42.88 439.41,-31.51"/>
<polygon fill="midnightblue" stroke="midnightblue" points="441.4,-28.61 431.44,-25.01 436.98,-34.04 441.4,-28.61"/>
</g>
<!-- Node7&#45;&gt;Node10 -->
<g id="edge9" class="edge">
<title>Node7&#45;&gt;Node10</title>
<path fill="none" stroke="midnightblue" d="M551.87,-69.06C643.44,-58.07 821.43,-36.72 920.03,-24.89"/>
<polygon fill="midnightblue" stroke="midnightblue" points="920.68,-28.34 930.19,-23.68 919.84,-21.39 920.68,-28.34"/>
</g>
<!-- Node12 -->
<g id="node12" class="node">
<title>Node12</title>
<g id="a_node12"><a xlink:href="abc_detector_component_8hh.html" target="_top" xlink:title=" ">
<polygon fill="white" stroke="black" points="908.5,-123.5 908.5,-142.5 1055.5,-142.5 1055.5,-123.5 908.5,-123.5"/>
<text text-anchor="middle" x="982" y="-130.5" font-family="Helvetica,sans-Serif" font-size="10.00">abcDetectorComponent.hh</text>
</a>
</g>
</g>
<!-- Node11&#45;&gt;Node12 -->
<g id="edge11" class="edge">
<title>Node11&#45;&gt;Node12</title>
<path fill="none" stroke="midnightblue" d="M865.02,-179.44C888.1,-170.48 924.56,-156.31 950.64,-146.18"/>
<polygon fill="midnightblue" stroke="midnightblue" points="952.02,-149.4 960.08,-142.52 949.49,-142.88 952.02,-149.4"/>
</g>
<!-- Node17 -->
<g id="node17" class="node">
<title>Node17</title>
<g id="a_node17"><a xlink:title=" ">
<polygon fill="white" stroke="#bfbfbf" points="792,-123.5 792,-142.5 890,-142.5 890,-123.5 792,-123.5"/>
<text text-anchor="middle" x="841" y="-130.5" font-family="Helvetica,sans-Serif" font-size="10.00">G4UnionSolid.hh</text>
</a>
</g>
</g>
<!-- Node11&#45;&gt;Node17 -->
<g id="edge17" class="edge">
<title>Node11&#45;&gt;Node17</title>
<path fill="none" stroke="midnightblue" d="M842.67,-179.08C842.41,-172.01 842.03,-161.86 841.7,-152.99"/>
<polygon fill="midnightblue" stroke="midnightblue" points="845.19,-152.61 841.32,-142.75 838.2,-152.87 845.19,-152.61"/>
</g>
<!-- Node18 -->
<g id="node18" class="node">
<title>Node18</title>
<g id="a_node18"><a xlink:title=" ">
<polygon fill="white" stroke="#bfbfbf" points="706.5,-123.5 706.5,-142.5 773.5,-142.5 773.5,-123.5 706.5,-123.5"/>
<text text-anchor="middle" x="740" y="-130.5" font-family="Helvetica,sans-Serif" font-size="10.00">G4Tubs.hh</text>
</a>
</g>
</g>
<!-- Node11&#45;&gt;Node18 -->
<g id="edge18" class="edge">
<title>Node11&#45;&gt;Node18</title>
<path fill="none" stroke="midnightblue" d="M826.45,-179.32C810.01,-170.7 784.57,-157.36 765.53,-147.39"/>
<polygon fill="midnightblue" stroke="midnightblue" points="766.99,-144.2 756.51,-142.65 763.74,-150.4 766.99,-144.2"/>
</g>
<!-- Node12&#45;&gt;Node7 -->
<g id="edge12" class="edge">
<title>Node12&#45;&gt;Node7</title>
<path fill="none" stroke="midnightblue" d="M908.41,-123.86C814.35,-113.45 652.81,-95.57 561.68,-85.49"/>
<polygon fill="midnightblue" stroke="midnightblue" points="562.06,-82.01 551.74,-84.39 561.29,-88.97 562.06,-82.01"/>
</g>
<!-- Node12&#45;&gt;Node13 -->
<g id="edge13" class="edge">
<title>Node12&#45;&gt;Node13</title>
<path fill="none" stroke="midnightblue" d="M996.14,-123.32C1009.87,-114.9 1030.94,-101.97 1047.06,-92.07"/>
<polygon fill="midnightblue" stroke="midnightblue" points="1049.2,-94.87 1055.9,-86.65 1045.54,-88.9 1049.2,-94.87"/>
</g>
<!-- Node14 -->
<g id="node14" class="node">
<title>Node14</title>
<g id="a_node14"><a xlink:title=" ">
<polygon fill="white" stroke="#bfbfbf" points="747,-67.5 747,-86.5 855,-86.5 855,-67.5 747,-67.5"/>
<text text-anchor="middle" x="801" y="-74.5" font-family="Helvetica,sans-Serif" font-size="10.00">G4VisAttributes.hh</text>
</a>
</g>
</g>
<!-- Node12&#45;&gt;Node14 -->
<g id="edge14" class="edge">
<title>Node12&#45;&gt;Node14</title>
<path fill="none" stroke="midnightblue" d="M953.32,-123.44C922.47,-114.24 873.27,-99.56 839.17,-89.39"/>
<polygon fill="midnightblue" stroke="midnightblue" points="840.13,-86.02 829.55,-86.52 838.13,-92.73 840.13,-86.02"/>
</g>
<!-- Node15 -->
<g id="node15" class="node">
<title>Node15</title>
<g id="a_node15"><a xlink:title=" ">
<polygon fill="white" stroke="#bfbfbf" points="873.5,-67.5 873.5,-86.5 998.5,-86.5 998.5,-67.5 873.5,-67.5"/>
<text text-anchor="middle" x="936" y="-74.5" font-family="Helvetica,sans-Serif" font-size="10.00">G4SubtractionSolid.hh</text>
</a>
</g>
</g>
<!-- Node12&#45;&gt;Node15 -->
<g id="edge15" class="edge">
<title>Node12&#45;&gt;Node15</title>
<path fill="none" stroke="midnightblue" d="M974.4,-123.08C967.77,-115.3 957.98,-103.8 949.94,-94.37"/>
<polygon fill="midnightblue" stroke="midnightblue" points="952.6,-92.09 943.45,-86.75 947.27,-96.63 952.6,-92.09"/>
</g>
<!-- Node12&#45;&gt;Node16 -->
<g id="edge16" class="edge">
<title>Node12&#45;&gt;Node16</title>
<path fill="none" stroke="midnightblue" d="M1016.07,-123.44C1053.18,-114.12 1112.66,-99.18 1153.21,-89"/>
<polygon fill="midnightblue" stroke="midnightblue" points="1154.25,-92.35 1163.09,-86.52 1152.54,-85.56 1154.25,-92.35"/>
</g>
<!-- Node19&#45;&gt;Node11 -->
<g id="edge24" class="edge">
<title>Node19&#45;&gt;Node11</title>
<path fill="none" stroke="midnightblue" d="M1049.18,-235.44C1006.44,-226.02 937.67,-210.87 891.43,-200.68"/>
<polygon fill="midnightblue" stroke="midnightblue" points="892.16,-197.25 881.64,-198.52 890.65,-204.09 892.16,-197.25"/>
</g>
<!-- Node19&#45;&gt;Node20 -->
<g id="edge20" class="edge">
<title>Node19&#45;&gt;Node20</title>
<path fill="none" stroke="midnightblue" d="M1088,-235.08C1088,-228.01 1088,-217.86 1088,-208.99"/>
<polygon fill="midnightblue" stroke="midnightblue" points="1091.5,-208.75 1088,-198.75 1084.5,-208.75 1091.5,-208.75"/>
</g>
<!-- Node20&#45;&gt;Node12 -->
<g id="edge21" class="edge">
<title>Node20&#45;&gt;Node12</title>
<path fill="none" stroke="midnightblue" d="M1070.97,-179.32C1053.97,-170.66 1027.62,-157.24 1008.01,-147.25"/>
<polygon fill="midnightblue" stroke="midnightblue" points="1009.49,-144.08 998.99,-142.65 1006.31,-150.31 1009.49,-144.08"/>
</g>
<!-- Node20&#45;&gt;Node17 -->
<g id="edge22" class="edge">
<title>Node20&#45;&gt;Node17</title>
<path fill="none" stroke="midnightblue" d="M1048.86,-179.44C1005.77,-170.02 936.44,-154.87 889.83,-144.68"/>
<polygon fill="midnightblue" stroke="midnightblue" points="890.47,-141.23 879.95,-142.52 888.98,-148.07 890.47,-141.23"/>
</g>
<!-- Node21 -->
<g id="node21" class="node">
<title>Node21</title>
<g id="a_node21"><a xlink:title=" ">
<polygon fill="white" stroke="#bfbfbf" points="1074,-123.5 1074,-142.5 1166,-142.5 1166,-123.5 1074,-123.5"/>
<text text-anchor="middle" x="1120" y="-130.5" font-family="Helvetica,sans-Serif" font-size="10.00">G4Navigator.hh</text>
</a>
</g>
</g>
<!-- Node20&#45;&gt;Node21 -->
<g id="edge23" class="edge">
<title>Node20&#45;&gt;Node21</title>
<path fill="none" stroke="midnightblue" d="M1093.28,-179.08C1097.71,-171.61 1104.16,-160.72 1109.62,-151.52"/>
<polygon fill="midnightblue" stroke="midnightblue" points="1112.73,-153.14 1114.81,-142.75 1106.71,-149.57 1112.73,-153.14"/>
</g>
<!-- Node22&#45;&gt;Node11 -->
<g id="edge33" class="edge">
<title>Node22&#45;&gt;Node11</title>
<path fill="none" stroke="midnightblue" d="M950.72,-235.44C929.65,-226.56 896.48,-212.56 872.51,-202.45"/>
<polygon fill="midnightblue" stroke="midnightblue" points="873.76,-199.18 863.19,-198.52 871.04,-205.63 873.76,-199.18"/>
</g>
<!-- Node22&#45;&gt;Node12 -->
<g id="edge32" class="edge">
<title>Node22&#45;&gt;Node12</title>
<path fill="none" stroke="midnightblue" d="M971.86,-235.37C973.64,-217.62 977.73,-176.67 980.14,-152.6"/>
<polygon fill="midnightblue" stroke="midnightblue" points="983.63,-152.89 981.14,-142.59 976.66,-152.19 983.63,-152.89"/>
</g>
<!-- Node23&#45;&gt;Node11 -->
<g id="edge35" class="edge">
<title>Node23&#45;&gt;Node11</title>
<path fill="none" stroke="midnightblue" d="M892.76,-291.37C883.93,-273.38 863.4,-231.55 851.65,-207.63"/>
<polygon fill="midnightblue" stroke="midnightblue" points="854.77,-206.03 847.22,-198.59 848.48,-209.11 854.77,-206.03"/>
</g>
<!-- Node24&#45;&gt;Node3 -->
<g id="edge38" class="edge">
<title>Node24&#45;&gt;Node3</title>
<path fill="none" stroke="midnightblue" d="M196.1,-291.08C202.24,-283.38 211.27,-272.03 218.74,-262.65"/>
<polygon fill="midnightblue" stroke="midnightblue" points="221.54,-264.75 225.03,-254.75 216.06,-260.39 221.54,-264.75"/>
</g>
<!-- Node24&#45;&gt;Node11 -->
<g id="edge37" class="edge">
<title>Node24&#45;&gt;Node11</title>
<path fill="none" stroke="midnightblue" d="M180.78,-291.3C168.89,-277.67 149.88,-251.16 165,-235 204.74,-192.54 585.56,-188.79 758.41,-189.31"/>
<polygon fill="midnightblue" stroke="midnightblue" points="758.47,-192.81 768.48,-189.35 758.5,-185.81 758.47,-192.81"/>
</g>
<!-- Node25 -->
<g id="node25" class="node">
<title>Node25</title>
<g id="a_node25"><a xlink:title=" ">
<polygon fill="white" stroke="#bfbfbf" points="28.5,-235.5 28.5,-254.5 117.5,-254.5 117.5,-235.5 28.5,-235.5"/>
<text text-anchor="middle" x="73" y="-242.5" font-family="Helvetica,sans-Serif" font-size="10.00">G4Polycone.hh</text>
</a>
</g>
</g>
<!-- Node24&#45;&gt;Node25 -->
<g id="edge39" class="edge">
<title>Node24&#45;&gt;Node25</title>
<path fill="none" stroke="midnightblue" d="M170.62,-291.44C151.78,-282.68 122.27,-268.94 100.62,-258.86"/>
<polygon fill="midnightblue" stroke="midnightblue" points="101.84,-255.56 91.29,-254.52 98.88,-261.91 101.84,-255.56"/>
</g>
<!-- Node26&#45;&gt;Node11 -->
<g id="edge41" class="edge">
<title>Node26&#45;&gt;Node11</title>
<path fill="none" stroke="midnightblue" d="M988,-291.36C967.04,-283.52 936.8,-270.78 913,-255 891.74,-240.9 870.76,-220.28 857.39,-206.06"/>
<polygon fill="midnightblue" stroke="midnightblue" points="859.81,-203.52 850.46,-198.53 854.66,-208.26 859.81,-203.52"/>
</g>
<!-- Node28 -->
<g id="node28" class="node">
<title>Node28</title>
<g id="a_node28"><a xlink:title=" ">
<polygon fill="white" stroke="#bfbfbf" points="1320,-179.5 1320,-198.5 1370,-198.5 1370,-179.5 1320,-179.5"/>
<text text-anchor="middle" x="1345" y="-186.5" font-family="Helvetica,sans-Serif" font-size="10.00">stdio.h</text>
</a>
</g>
</g>
<!-- Node27&#45;&gt;Node28 -->
<g id="edge43" class="edge">
<title>Node27&#45;&gt;Node28</title>
<path fill="none" stroke="midnightblue" d="M1355.85,-235.08C1354.13,-227.93 1351.65,-217.64 1349.5,-208.69"/>
<polygon fill="midnightblue" stroke="midnightblue" points="1352.85,-207.65 1347.11,-198.75 1346.04,-209.29 1352.85,-207.65"/>
</g>
<!-- Node29 -->
<g id="node29" class="node">
<title>Node29</title>
<g id="a_node29"><a xlink:title=" ">
<polygon fill="white" stroke="#bfbfbf" points="1388,-179.5 1388,-198.5 1436,-198.5 1436,-179.5 1388,-179.5"/>
<text text-anchor="middle" x="1412" y="-186.5" font-family="Helvetica,sans-Serif" font-size="10.00">time.h</text>
</a>
</g>
</g>
<!-- Node27&#45;&gt;Node29 -->
<g id="edge44" class="edge">
<title>Node27&#45;&gt;Node29</title>
<path fill="none" stroke="midnightblue" d="M1366.92,-235.08C1374.78,-227.22 1386.43,-215.57 1395.92,-206.08"/>
<polygon fill="midnightblue" stroke="midnightblue" points="1398.65,-208.3 1403.25,-198.75 1393.7,-203.35 1398.65,-208.3"/>
</g>
<!-- Node31&#45;&gt;Node27 -->
<g id="edge48" class="edge">
<title>Node31&#45;&gt;Node27</title>
<path fill="none" stroke="midnightblue" d="M1431.86,-291.32C1418.13,-282.9 1397.06,-269.97 1380.94,-260.07"/>
<polygon fill="midnightblue" stroke="midnightblue" points="1382.46,-256.9 1372.1,-254.65 1378.8,-262.87 1382.46,-256.9"/>
</g>
<!-- Node32 -->
<g id="node32" class="node">
<title>Node32</title>
<g id="a_node32"><a xlink:title=" ">
<polygon fill="white" stroke="#bfbfbf" points="1425.5,-235.5 1425.5,-254.5 1480.5,-254.5 1480.5,-235.5 1425.5,-235.5"/>
<text text-anchor="middle" x="1453" y="-242.5" font-family="Helvetica,sans-Serif" font-size="10.00">fstream</text>
</a>
</g>
</g>
<!-- Node31&#45;&gt;Node32 -->
<g id="edge49" class="edge">
<title>Node31&#45;&gt;Node32</title>
<path fill="none" stroke="midnightblue" d="M1447.16,-291.08C1448.08,-283.93 1449.42,-273.64 1450.58,-264.69"/>
<polygon fill="midnightblue" stroke="midnightblue" points="1454.05,-265.12 1451.87,-254.75 1447.11,-264.22 1454.05,-265.12"/>
</g>
<!-- Node33 -->
<g id="node33" class="node">
<title>Node33</title>
<g id="a_node33"><a xlink:title=" ">
<polygon fill="white" stroke="#bfbfbf" points="1499,-235.5 1499,-254.5 1583,-254.5 1583,-235.5 1499,-235.5"/>
<text text-anchor="middle" x="1541" y="-242.5" font-family="Helvetica,sans-Serif" font-size="10.00">boost/any.hpp</text>
</a>
</g>
</g>
<!-- Node31&#45;&gt;Node33 -->
<g id="edge50" class="edge">
<title>Node31&#45;&gt;Node33</title>
<path fill="none" stroke="midnightblue" d="M1461.26,-291.32C1476.22,-282.82 1499.25,-269.73 1516.73,-259.8"/>
<polygon fill="midnightblue" stroke="midnightblue" points="1518.81,-262.64 1525.77,-254.65 1515.35,-256.55 1518.81,-262.64"/>
</g>
<!-- Node34 -->
<g id="node34" class="node">
<title>Node34</title>
<g id="a_node34"><a xlink:title=" ">
<polygon fill="white" stroke="#bfbfbf" points="1601,-235.5 1601,-254.5 1669,-254.5 1669,-235.5 1601,-235.5"/>
<text text-anchor="middle" x="1635" y="-242.5" font-family="Helvetica,sans-Serif" font-size="10.00">sys/time.h</text>
</a>
</g>
</g>
<!-- Node31&#45;&gt;Node34 -->
<g id="edge51" class="edge">
<title>Node31&#45;&gt;Node34</title>
<path fill="none" stroke="midnightblue" d="M1475.95,-291.44C1508.16,-282.24 1559.53,-267.56 1595.14,-257.39"/>
<polygon fill="midnightblue" stroke="midnightblue" points="1596.54,-260.63 1605.19,-254.52 1594.62,-253.9 1596.54,-260.63"/>
</g>
</g>
</svg>
