<?xml version="1.0" encoding="UTF-8" standalone="no"?>
<!DOCTYPE svg PUBLIC "-//W3C//DTD SVG 1.1//EN"
 "http://www.w3.org/Graphics/SVG/1.1/DTD/svg11.dtd">
<!-- Generated by graphviz version 2.43.0 (0)
 -->
<!-- Title: OMSimAnalysisManager.cc Pages: 1 -->
<svg width="949pt" height="196pt"
 viewBox="0.00 0.00 948.79 196.00" xmlns="http://www.w3.org/2000/svg" xmlns:xlink="http://www.w3.org/1999/xlink">
<g id="graph0" class="graph" transform="scale(1 1) rotate(0) translate(4 192)">
<title>OMSimAnalysisManager.cc</title>
<polygon fill="white" stroke="transparent" points="-4,4 -4,-192 944.79,-192 944.79,4 -4,4"/>
<!-- Node1 -->
<g id="node1" class="node">
<title>Node1</title>
<g id="a_node1"><a xlink:title=" ">
<polygon fill="#bfbfbf" stroke="black" points="340,-168.5 340,-187.5 489,-187.5 489,-168.5 340,-168.5"/>
<text text-anchor="middle" x="414.5" y="-175.5" font-family="Helvetica,sans-Serif" font-size="10.00">OMSimAnalysisManager.cc</text>
</a>
</g>
</g>
<!-- Node2 -->
<g id="node2" class="node">
<title>Node2</title>
<g id="a_node2"><a xlink:href="_o_m_sim_analysis_manager_8hh.html" target="_top" xlink:title=" ">
<polygon fill="white" stroke="black" points="607.5,-112.5 607.5,-131.5 757.5,-131.5 757.5,-112.5 607.5,-112.5"/>
<text text-anchor="middle" x="682.5" y="-119.5" font-family="Helvetica,sans-Serif" font-size="10.00">OMSimAnalysisManager.hh</text>
</a>
</g>
</g>
<!-- Node1&#45;&gt;Node2 -->
<g id="edge1" class="edge">
<title>Node1&#45;&gt;Node2</title>
<path fill="none" stroke="midnightblue" d="M456.97,-168.44C503.91,-158.98 579.58,-143.74 630.15,-133.55"/>
<polygon fill="midnightblue" stroke="midnightblue" points="631.12,-136.92 640.23,-131.52 629.74,-130.06 631.12,-136.92"/>
</g>
<!-- Node7 -->
<g id="node7" class="node">
<title>Node7</title>
<g id="a_node7"><a xlink:title=" ">
<polygon fill="white" stroke="#bfbfbf" points="0,-0.5 0,-19.5 119,-19.5 119,-0.5 0,-0.5"/>
<text text-anchor="middle" x="59.5" y="-7.5" font-family="Helvetica,sans-Serif" font-size="10.00">G4SystemOfUnits.hh</text>
</a>
</g>
</g>
<!-- Node1&#45;&gt;Node7 -->
<g id="edge16" class="edge">
<title>Node1&#45;&gt;Node7</title>
<path fill="none" stroke="midnightblue" d="M339.83,-174.09C276.85,-169.74 185.14,-158.92 109.5,-132 63.68,-115.7 39.53,-118.28 15.5,-76 5.29,-58.04 22.6,-38.56 38.42,-25.66"/>
<polygon fill="midnightblue" stroke="midnightblue" points="40.58,-28.41 46.4,-19.55 36.33,-22.85 40.58,-28.41"/>
</g>
<!-- Node15 -->
<g id="node15" class="node">
<title>Node15</title>
<g id="a_node15"><a xlink:title=" ">
<polygon fill="white" stroke="#bfbfbf" points="775,-112.5 775,-131.5 834,-131.5 834,-112.5 775,-112.5"/>
<text text-anchor="middle" x="804.5" y="-119.5" font-family="Helvetica,sans-Serif" font-size="10.00">G4ios.hh</text>
</a>
</g>
</g>
<!-- Node1&#45;&gt;Node15 -->
<g id="edge15" class="edge">
<title>Node1&#45;&gt;Node15</title>
<path fill="none" stroke="midnightblue" d="M489.01,-169.78C558.2,-162.55 664.23,-150.14 764.68,-132.19"/>
<polygon fill="midnightblue" stroke="midnightblue" points="765.47,-135.6 774.69,-130.37 764.23,-128.71 765.47,-135.6"/>
</g>
<!-- Node16 -->
<g id="node16" class="node">
<title>Node16</title>
<g id="a_node16"><a xlink:href="_o_m_sim_command_args_table_8hh.html" target="_top" xlink:title=" ">
<polygon fill="white" stroke="black" points="118.5,-112.5 118.5,-131.5 282.5,-131.5 282.5,-112.5 118.5,-112.5"/>
<text text-anchor="middle" x="200.5" y="-119.5" font-family="Helvetica,sans-Serif" font-size="10.00">OMSimCommandArgsTable.hh</text>
</a>
</g>
</g>
<!-- Node1&#45;&gt;Node16 -->
<g id="edge17" class="edge">
<title>Node1&#45;&gt;Node16</title>
<path fill="none" stroke="midnightblue" d="M380.59,-168.44C343.65,-159.12 284.45,-144.18 244.08,-134"/>
<polygon fill="midnightblue" stroke="midnightblue" points="244.8,-130.57 234.25,-131.52 243.09,-137.36 244.8,-130.57"/>
</g>
<!-- Node3 -->
<g id="node3" class="node">
<title>Node3</title>
<g id="a_node3"><a xlink:title=" ">
<polygon fill="white" stroke="#bfbfbf" points="815,-0.5 815,-19.5 888,-19.5 888,-0.5 815,-0.5"/>
<text text-anchor="middle" x="851.5" y="-7.5" font-family="Helvetica,sans-Serif" font-size="10.00">G4Types.hh</text>
</a>
</g>
</g>
<!-- Node2&#45;&gt;Node3 -->
<g id="edge2" class="edge">
<title>Node2&#45;&gt;Node3</title>
<path fill="none" stroke="midnightblue" d="M757.72,-112.53C828.08,-103.84 924.04,-89.68 935.5,-76 953.88,-54.06 919.1,-34.83 888.86,-23.09"/>
<polygon fill="midnightblue" stroke="midnightblue" points="889.87,-19.73 879.28,-19.55 887.44,-26.3 889.87,-19.73"/>
</g>
<!-- Node4 -->
<g id="node4" class="node">
<title>Node4</title>
<g id="a_node4"><a xlink:title=" ">
<polygon fill="white" stroke="#bfbfbf" points="592.5,-56.5 592.5,-75.5 666.5,-75.5 666.5,-56.5 592.5,-56.5"/>
<text text-anchor="middle" x="629.5" y="-63.5" font-family="Helvetica,sans-Serif" font-size="10.00">G4String.hh</text>
</a>
</g>
</g>
<!-- Node2&#45;&gt;Node4 -->
<g id="edge3" class="edge">
<title>Node2&#45;&gt;Node4</title>
<path fill="none" stroke="midnightblue" d="M673.75,-112.08C666.03,-104.22 654.6,-92.57 645.28,-83.08"/>
<polygon fill="midnightblue" stroke="midnightblue" points="647.59,-80.44 638.09,-75.75 642.6,-85.34 647.59,-80.44"/>
</g>
<!-- Node5 -->
<g id="node5" class="node">
<title>Node5</title>
<g id="a_node5"><a xlink:title=" ">
<polygon fill="white" stroke="#bfbfbf" points="685,-56.5 685,-75.5 788,-75.5 788,-56.5 685,-56.5"/>
<text text-anchor="middle" x="736.5" y="-63.5" font-family="Helvetica,sans-Serif" font-size="10.00">G4ThreeVector.hh</text>
</a>
</g>
</g>
<!-- Node2&#45;&gt;Node5 -->
<g id="edge4" class="edge">
<title>Node2&#45;&gt;Node5</title>
<path fill="none" stroke="midnightblue" d="M691.42,-112.08C699.28,-104.22 710.93,-92.57 720.42,-83.08"/>
<polygon fill="midnightblue" stroke="midnightblue" points="723.15,-85.3 727.75,-75.75 718.2,-80.35 723.15,-85.3"/>
</g>
<!-- Node6 -->
<g id="node6" class="node">
<title>Node6</title>
<g id="a_node6"><a xlink:href="_o_m_sim_p_m_t_response_8hh.html" target="_top" xlink:title=" ">
<polygon fill="white" stroke="black" points="439,-56.5 439,-75.5 574,-75.5 574,-56.5 439,-56.5"/>
<text text-anchor="middle" x="506.5" y="-63.5" font-family="Helvetica,sans-Serif" font-size="10.00">OMSimPMTResponse.hh</text>
</a>
</g>
</g>
<!-- Node2&#45;&gt;Node6 -->
<g id="edge5" class="edge">
<title>Node2&#45;&gt;Node6</title>
<path fill="none" stroke="midnightblue" d="M654.61,-112.44C624.75,-103.28 577.19,-88.69 544.04,-78.52"/>
<polygon fill="midnightblue" stroke="midnightblue" points="544.84,-75.1 534.26,-75.52 542.79,-81.8 544.84,-75.1"/>
</g>
<!-- Node13 -->
<g id="node13" class="node">
<title>Node13</title>
<g id="a_node13"><a xlink:title=" ">
<polygon fill="white" stroke="#bfbfbf" points="806,-56.5 806,-75.5 853,-75.5 853,-56.5 806,-56.5"/>
<text text-anchor="middle" x="829.5" y="-63.5" font-family="Helvetica,sans-Serif" font-size="10.00">vector</text>
</a>
</g>
</g>
<!-- Node2&#45;&gt;Node13 -->
<g id="edge13" class="edge">
<title>Node2&#45;&gt;Node13</title>
<path fill="none" stroke="midnightblue" d="M705.79,-112.44C730.31,-103.44 769.1,-89.19 796.7,-79.05"/>
<polygon fill="midnightblue" stroke="midnightblue" points="798.14,-82.25 806.32,-75.52 795.72,-75.68 798.14,-82.25"/>
</g>
<!-- Node14 -->
<g id="node14" class="node">
<title>Node14</title>
<g id="a_node14"><a xlink:title=" ">
<polygon fill="white" stroke="#bfbfbf" points="871,-56.5 871,-75.5 926,-75.5 926,-56.5 871,-56.5"/>
<text text-anchor="middle" x="898.5" y="-63.5" font-family="Helvetica,sans-Serif" font-size="10.00">fstream</text>
</a>
</g>
</g>
<!-- Node2&#45;&gt;Node14 -->
<g id="edge14" class="edge">
<title>Node2&#45;&gt;Node14</title>
<path fill="none" stroke="midnightblue" d="M716.73,-112.44C756.1,-102.6 820.52,-86.5 861.16,-76.34"/>
<polygon fill="midnightblue" stroke="midnightblue" points="862.09,-79.71 870.95,-73.89 860.4,-72.92 862.09,-79.71"/>
</g>
<!-- Node6&#45;&gt;Node3 -->
<g id="edge7" class="edge">
<title>Node6&#45;&gt;Node3</title>
<path fill="none" stroke="midnightblue" d="M561.17,-56.44C628.3,-45.94 741.04,-28.29 804.47,-18.36"/>
<polygon fill="midnightblue" stroke="midnightblue" points="805.25,-21.78 814.59,-16.78 804.17,-14.87 805.25,-21.78"/>
</g>
<!-- Node6&#45;&gt;Node7 -->
<g id="edge6" class="edge">
<title>Node6&#45;&gt;Node7</title>
<path fill="none" stroke="midnightblue" d="M438.61,-56.8C354.94,-46.69 213.52,-29.61 129.08,-19.41"/>
<polygon fill="midnightblue" stroke="midnightblue" points="129.42,-15.92 119.07,-18.2 128.58,-22.87 129.42,-15.92"/>
</g>
<!-- Node8 -->
<g id="node8" class="node">
<title>Node8</title>
<g id="a_node8"><a xlink:title=" ">
<polygon fill="white" stroke="#bfbfbf" points="512,-0.5 512,-19.5 577,-19.5 577,-0.5 512,-0.5"/>
<text text-anchor="middle" x="544.5" y="-7.5" font-family="Helvetica,sans-Serif" font-size="10.00">functional</text>
</a>
</g>
</g>
<!-- Node6&#45;&gt;Node8 -->
<g id="edge8" class="edge">
<title>Node6&#45;&gt;Node8</title>
<path fill="none" stroke="midnightblue" d="M512.77,-56.08C518.14,-48.46 526.02,-37.26 532.58,-27.94"/>
<polygon fill="midnightblue" stroke="midnightblue" points="535.45,-29.94 538.34,-19.75 529.72,-25.91 535.45,-29.94"/>
</g>
<!-- Node9 -->
<g id="node9" class="node">
<title>Node9</title>
<g id="a_node9"><a xlink:title=" ">
<polygon fill="white" stroke="#bfbfbf" points="240.5,-0.5 240.5,-19.5 278.5,-19.5 278.5,-0.5 240.5,-0.5"/>
<text text-anchor="middle" x="259.5" y="-7.5" font-family="Helvetica,sans-Serif" font-size="10.00">map</text>
</a>
</g>
</g>
<!-- Node6&#45;&gt;Node9 -->
<g id="edge9" class="edge">
<title>Node6&#45;&gt;Node9</title>
<path fill="none" stroke="midnightblue" d="M467.36,-56.44C417.62,-45.57 332.9,-27.05 288.54,-17.35"/>
<polygon fill="midnightblue" stroke="midnightblue" points="289.2,-13.91 278.68,-15.19 287.71,-20.75 289.2,-13.91"/>
</g>
<!-- Node10 -->
<g id="node10" class="node">
<title>Node10</title>
<g id="a_node10"><a xlink:title=" ">
<polygon fill="white" stroke="#bfbfbf" points="595,-0.5 595,-19.5 656,-19.5 656,-0.5 595,-0.5"/>
<text text-anchor="middle" x="625.5" y="-7.5" font-family="Helvetica,sans-Serif" font-size="10.00">TGraph.h</text>
</a>
</g>
</g>
<!-- Node6&#45;&gt;Node10 -->
<g id="edge10" class="edge">
<title>Node6&#45;&gt;Node10</title>
<path fill="none" stroke="midnightblue" d="M525.36,-56.44C544.77,-47.64 575.23,-33.81 597.46,-23.72"/>
<polygon fill="midnightblue" stroke="midnightblue" points="599.07,-26.84 606.73,-19.52 596.18,-20.46 599.07,-26.84"/>
</g>
<!-- Node11 -->
<g id="node11" class="node">
<title>Node11</title>
<g id="a_node11"><a xlink:title=" ">
<polygon fill="white" stroke="#bfbfbf" points="348.5,-0.5 348.5,-19.5 422.5,-19.5 422.5,-0.5 348.5,-0.5"/>
<text text-anchor="middle" x="385.5" y="-7.5" font-family="Helvetica,sans-Serif" font-size="10.00">TGraph2D.h</text>
</a>
</g>
</g>
<!-- Node6&#45;&gt;Node11 -->
<g id="edge11" class="edge">
<title>Node6&#45;&gt;Node11</title>
<path fill="none" stroke="midnightblue" d="M487.33,-56.44C467.59,-47.64 436.61,-33.81 414.01,-23.72"/>
<polygon fill="midnightblue" stroke="midnightblue" points="415.14,-20.4 404.58,-19.52 412.29,-26.79 415.14,-20.4"/>
</g>
<!-- Node12 -->
<g id="node12" class="node">
<title>Node12</title>
<g id="a_node12"><a xlink:title=" ">
<polygon fill="white" stroke="#bfbfbf" points="441,-0.5 441,-19.5 494,-19.5 494,-0.5 441,-0.5"/>
<text text-anchor="middle" x="467.5" y="-7.5" font-family="Helvetica,sans-Serif" font-size="10.00">TH2D.h</text>
</a>
</g>
</g>
<!-- Node6&#45;&gt;Node12 -->
<g id="edge12" class="edge">
<title>Node6&#45;&gt;Node12</title>
<path fill="none" stroke="midnightblue" d="M500.06,-56.08C494.55,-48.46 486.47,-37.26 479.74,-27.94"/>
<polygon fill="midnightblue" stroke="midnightblue" points="482.51,-25.81 473.82,-19.75 476.84,-29.91 482.51,-25.81"/>
</g>
<!-- Node16&#45;&gt;Node9 -->
<g id="edge18" class="edge">
<title>Node16&#45;&gt;Node9</title>
<path fill="none" stroke="midnightblue" d="M118.39,-115.81C59.66,-108.94 -4.03,-92.99 26.5,-56 52,-25.1 173.21,-15.18 230.01,-12.19"/>
<polygon fill="midnightblue" stroke="midnightblue" points="230.32,-15.68 240.14,-11.7 229.98,-8.69 230.32,-15.68"/>
</g>
<!-- Node17 -->
<g id="node17" class="node">
<title>Node17</title>
<g id="a_node17"><a xlink:title=" ">
<polygon fill="white" stroke="#bfbfbf" points="36,-56.5 36,-75.5 87,-75.5 87,-56.5 36,-56.5"/>
<text text-anchor="middle" x="61.5" y="-63.5" font-family="Helvetica,sans-Serif" font-size="10.00">variant</text>
</a>
</g>
</g>
<!-- Node16&#45;&gt;Node17 -->
<g id="edge19" class="edge">
<title>Node16&#45;&gt;Node17</title>
<path fill="none" stroke="midnightblue" d="M178.48,-112.44C155.4,-103.48 118.94,-89.31 92.86,-79.18"/>
<polygon fill="midnightblue" stroke="midnightblue" points="94.01,-75.88 83.42,-75.52 91.48,-82.4 94.01,-75.88"/>
</g>
<!-- Node18 -->
<g id="node18" class="node">
<title>Node18</title>
<g id="a_node18"><a xlink:title=" ">
<polygon fill="white" stroke="#bfbfbf" points="105.5,-56.5 105.5,-75.5 149.5,-75.5 149.5,-56.5 105.5,-56.5"/>
<text text-anchor="middle" x="127.5" y="-63.5" font-family="Helvetica,sans-Serif" font-size="10.00">string</text>
</a>
</g>
</g>
<!-- Node16&#45;&gt;Node18 -->
<g id="edge20" class="edge">
<title>Node16&#45;&gt;Node18</title>
<path fill="none" stroke="midnightblue" d="M188.77,-112.32C177.66,-104.11 160.76,-91.6 147.52,-81.81"/>
<polygon fill="midnightblue" stroke="midnightblue" points="149.56,-78.97 139.44,-75.83 145.4,-84.59 149.56,-78.97"/>
</g>
<!-- Node19 -->
<g id="node19" class="node">
<title>Node19</title>
<g id="a_node19"><a xlink:title=" ">
<polygon fill="white" stroke="#bfbfbf" points="168,-56.5 168,-75.5 233,-75.5 233,-56.5 168,-56.5"/>
<text text-anchor="middle" x="200.5" y="-63.5" font-family="Helvetica,sans-Serif" font-size="10.00">stdexcept</text>
</a>
</g>
</g>
<!-- Node16&#45;&gt;Node19 -->
<g id="edge21" class="edge">
<title>Node16&#45;&gt;Node19</title>
<path fill="none" stroke="midnightblue" d="M200.5,-112.08C200.5,-105.01 200.5,-94.86 200.5,-85.99"/>
<polygon fill="midnightblue" stroke="midnightblue" points="204,-85.75 200.5,-75.75 197,-85.75 204,-85.75"/>
</g>
<!-- Node20 -->
<g id="node20" class="node">
<title>Node20</title>
<g id="a_node20"><a xlink:title=" ">
<polygon fill="white" stroke="#bfbfbf" points="251,-56.5 251,-75.5 318,-75.5 318,-56.5 251,-56.5"/>
<text text-anchor="middle" x="284.5" y="-63.5" font-family="Helvetica,sans-Serif" font-size="10.00">globals.hh</text>
</a>
</g>
</g>
<!-- Node16&#45;&gt;Node20 -->
<g id="edge22" class="edge">
<title>Node16&#45;&gt;Node20</title>
<path fill="none" stroke="midnightblue" d="M214,-112.32C227.1,-103.9 247.21,-90.97 262.61,-81.07"/>
<polygon fill="midnightblue" stroke="midnightblue" points="264.52,-84.01 271.04,-75.65 260.73,-78.12 264.52,-84.01"/>
</g>
<!-- Node21 -->
<g id="node21" class="node">
<title>Node21</title>
<g id="a_node21"><a xlink:title=" ">
<polygon fill="white" stroke="#bfbfbf" points="336.5,-56.5 336.5,-75.5 420.5,-75.5 420.5,-56.5 336.5,-56.5"/>
<text text-anchor="middle" x="378.5" y="-63.5" font-family="Helvetica,sans-Serif" font-size="10.00">boost/any.hpp</text>
</a>
</g>
</g>
<!-- Node16&#45;&gt;Node21 -->
<g id="edge23" class="edge">
<title>Node16&#45;&gt;Node21</title>
<path fill="none" stroke="midnightblue" d="M228.7,-112.44C258.91,-103.28 307.01,-88.69 340.53,-78.52"/>
<polygon fill="midnightblue" stroke="midnightblue" points="341.87,-81.77 350.43,-75.52 339.84,-75.07 341.87,-81.77"/>
</g>
</g>
</svg>
