<?xml version="1.0" encoding="UTF-8" standalone="no"?>
<!DOCTYPE svg PUBLIC "-//W3C//DTD SVG 1.1//EN"
 "http://www.w3.org/Graphics/SVG/1.1/DTD/svg11.dtd">
<!-- Generated by graphviz version 2.43.0 (0)
 -->
<!-- Title: OMSimPrimaryGeneratorAction.hh Pages: 1 -->
<svg width="656pt" height="140pt"
 viewBox="0.00 0.00 656.00 140.00" xmlns="http://www.w3.org/2000/svg" xmlns:xlink="http://www.w3.org/1999/xlink">
<g id="graph0" class="graph" transform="scale(1 1) rotate(0) translate(4 136)">
<title>OMSimPrimaryGeneratorAction.hh</title>
<polygon fill="white" stroke="transparent" points="-4,4 -4,-136 652,-136 652,4 -4,4"/>
<!-- Node1 -->
<g id="node1" class="node">
<title>Node1</title>
<g id="a_node1"><a xlink:title=" ">
<polygon fill="#bfbfbf" stroke="black" points="344,-112.5 344,-131.5 529,-131.5 529,-112.5 344,-112.5"/>
<text text-anchor="middle" x="436.5" y="-119.5" font-family="Helvetica,sans-Serif" font-size="10.00">OMSimPrimaryGeneratorAction.hh</text>
</a>
</g>
</g>
<!-- Node2 -->
<g id="node2" class="node">
<title>Node2</title>
<g id="a_node2"><a xlink:href="_o_m_sim_8hh.html" target="_top" xlink:title="Main simulation class for the Optical Module (OM) simulation. This file defines the OMSim class,...">
<polygon fill="white" stroke="black" points="291,-56.5 291,-75.5 358,-75.5 358,-56.5 291,-56.5"/>
<text text-anchor="middle" x="324.5" y="-63.5" font-family="Helvetica,sans-Serif" font-size="10.00">OMSim.hh</text>
</a>
</g>
</g>
<!-- Node1&#45;&gt;Node2 -->
<g id="edge1" class="edge">
<title>Node1&#45;&gt;Node2</title>
<path fill="none" stroke="midnightblue" d="M409.25,-107.86C388.48,-97.85 360.48,-84.35 342.45,-75.65"/>
<polygon fill="midnightblue" stroke="midnightblue" points="407.98,-111.13 418.51,-112.32 411.02,-104.83 407.98,-111.13"/>
</g>
<!-- Node6 -->
<g id="node6" class="node">
<title>Node6</title>
<g id="a_node6"><a xlink:href="_o_m_sim__supernova_8cc.html" target="_top" xlink:title=" ">
<polygon fill="white" stroke="black" points="425.5,-0.5 425.5,-19.5 547.5,-19.5 547.5,-0.5 425.5,-0.5"/>
<text text-anchor="middle" x="486.5" y="-7.5" font-family="Helvetica,sans-Serif" font-size="10.00">OMSim_supernova.cc</text>
</a>
</g>
</g>
<!-- Node1&#45;&gt;Node6 -->
<g id="edge7" class="edge">
<title>Node1&#45;&gt;Node6</title>
<path fill="none" stroke="midnightblue" d="M440.69,-102.43C444.05,-89.13 449.38,-71 456.5,-56 462.94,-42.43 473.05,-28.24 479.73,-19.51"/>
<polygon fill="midnightblue" stroke="midnightblue" points="437.25,-101.75 438.33,-112.29 444.06,-103.38 437.25,-101.75"/>
</g>
<!-- Node7 -->
<g id="node7" class="node">
<title>Node7</title>
<g id="a_node7"><a xlink:href="_o_m_sim_primary_generator_action_8cc.html" target="_top" xlink:title=" ">
<polygon fill="white" stroke="black" points="465,-56.5 465,-75.5 648,-75.5 648,-56.5 465,-56.5"/>
<text text-anchor="middle" x="556.5" y="-63.5" font-family="Helvetica,sans-Serif" font-size="10.00">OMSimPrimaryGeneratorAction.cc</text>
</a>
</g>
</g>
<!-- Node1&#45;&gt;Node7 -->
<g id="edge6" class="edge">
<title>Node1&#45;&gt;Node7</title>
<path fill="none" stroke="midnightblue" d="M464.87,-108.23C487.32,-98.13 518.04,-84.31 537.57,-75.52"/>
<polygon fill="midnightblue" stroke="midnightblue" points="463.2,-105.15 455.51,-112.44 466.07,-111.53 463.2,-105.15"/>
</g>
<!-- Node3 -->
<g id="node3" class="node">
<title>Node3</title>
<g id="a_node3"><a xlink:href="_o_m_sim_8cc.html" target="_top" xlink:title="Implementation of the OMSim class.">
<polygon fill="white" stroke="black" points="0,-0.5 0,-19.5 65,-19.5 65,-0.5 0,-0.5"/>
<text text-anchor="middle" x="32.5" y="-7.5" font-family="Helvetica,sans-Serif" font-size="10.00">OMSim.cc</text>
</a>
</g>
</g>
<!-- Node2&#45;&gt;Node3 -->
<g id="edge2" class="edge">
<title>Node2&#45;&gt;Node3</title>
<path fill="none" stroke="midnightblue" d="M280.74,-57.57C230.77,-48.99 146.6,-34.21 74.5,-20 71.43,-19.39 68.23,-18.75 65.04,-18.08"/>
<polygon fill="midnightblue" stroke="midnightblue" points="280.42,-61.07 290.87,-59.31 281.61,-54.17 280.42,-61.07"/>
</g>
<!-- Node4 -->
<g id="node4" class="node">
<title>Node4</title>
<g id="a_node4"><a xlink:href="_o_m_sim__effective__area_8cc.html" target="_top" xlink:title="Main for the calculation of effective areas.">
<polygon fill="white" stroke="black" points="83.5,-0.5 83.5,-19.5 223.5,-19.5 223.5,-0.5 83.5,-0.5"/>
<text text-anchor="middle" x="153.5" y="-7.5" font-family="Helvetica,sans-Serif" font-size="10.00">OMSim_effective_area.cc</text>
</a>
</g>
</g>
<!-- Node2&#45;&gt;Node4 -->
<g id="edge3" class="edge">
<title>Node2&#45;&gt;Node4</title>
<path fill="none" stroke="midnightblue" d="M287.46,-53.3C255.24,-43.13 209.31,-28.62 180.47,-19.52"/>
<polygon fill="midnightblue" stroke="midnightblue" points="286.81,-56.77 297.4,-56.44 288.92,-50.09 286.81,-56.77"/>
</g>
<!-- Node5 -->
<g id="node5" class="node">
<title>Node5</title>
<g id="a_node5"><a xlink:href="_o_m_sim__radioactive__decays_8cc.html" target="_top" xlink:title=" ">
<polygon fill="white" stroke="black" points="242,-0.5 242,-19.5 407,-19.5 407,-0.5 242,-0.5"/>
<text text-anchor="middle" x="324.5" y="-7.5" font-family="Helvetica,sans-Serif" font-size="10.00">OMSim_radioactive_decays.cc</text>
</a>
</g>
</g>
<!-- Node2&#45;&gt;Node5 -->
<g id="edge4" class="edge">
<title>Node2&#45;&gt;Node5</title>
<path fill="none" stroke="midnightblue" d="M324.5,-45.8C324.5,-36.91 324.5,-26.78 324.5,-19.75"/>
<polygon fill="midnightblue" stroke="midnightblue" points="321,-46.08 324.5,-56.08 328,-46.08 321,-46.08"/>
</g>
<!-- Node2&#45;&gt;Node6 -->
<g id="edge5" class="edge">
<title>Node2&#45;&gt;Node6</title>
<path fill="none" stroke="midnightblue" d="M359.98,-53.17C390.49,-43 433.74,-28.59 460.95,-19.52"/>
<polygon fill="midnightblue" stroke="midnightblue" points="358.55,-49.96 350.17,-56.44 360.76,-56.6 358.55,-49.96"/>
</g>
</g>
</svg>
