<?xml version="1.0" encoding="UTF-8" standalone="no"?>
<!DOCTYPE svg PUBLIC "-//W3C//DTD SVG 1.1//EN"
 "http://www.w3.org/Graphics/SVG/1.1/DTD/svg11.dtd">
<!-- Generated by graphviz version 2.43.0 (0)
 -->
<!-- Title: OMSimSNAnalysis.cc Pages: 1 -->
<svg width="798pt" height="196pt"
 viewBox="0.00 0.00 797.50 196.00" xmlns="http://www.w3.org/2000/svg" xmlns:xlink="http://www.w3.org/1999/xlink">
<g id="graph0" class="graph" transform="scale(1 1) rotate(0) translate(4 192)">
<title>OMSimSNAnalysis.cc</title>
<polygon fill="white" stroke="transparent" points="-4,4 -4,-192 793.5,-192 793.5,4 -4,4"/>
<!-- Node1 -->
<g id="node1" class="node">
<title>Node1</title>
<g id="a_node1"><a xlink:title="Analyze data and write output files.">
<polygon fill="#bfbfbf" stroke="black" points="392.5,-168.5 392.5,-187.5 512.5,-187.5 512.5,-168.5 392.5,-168.5"/>
<text text-anchor="middle" x="452.5" y="-175.5" font-family="Helvetica,sans-Serif" font-size="10.00">OMSimSNAnalysis.cc</text>
</a>
</g>
</g>
<!-- Node2 -->
<g id="node2" class="node">
<title>Node2</title>
<g id="a_node2"><a xlink:href="_o_m_sim_s_n_analysis_8hh.html" target="_top" xlink:title=" ">
<polygon fill="white" stroke="black" points="199.5,-112.5 199.5,-131.5 321.5,-131.5 321.5,-112.5 199.5,-112.5"/>
<text text-anchor="middle" x="260.5" y="-119.5" font-family="Helvetica,sans-Serif" font-size="10.00">OMSimSNAnalysis.hh</text>
</a>
</g>
</g>
<!-- Node1&#45;&gt;Node2 -->
<g id="edge1" class="edge">
<title>Node1&#45;&gt;Node2</title>
<path fill="none" stroke="midnightblue" d="M422.08,-168.44C389.22,-159.2 336.72,-144.44 300.53,-134.26"/>
<polygon fill="midnightblue" stroke="midnightblue" points="301.35,-130.85 290.78,-131.52 299.46,-137.59 301.35,-130.85"/>
</g>
<!-- Node9 -->
<g id="node9" class="node">
<title>Node9</title>
<g id="a_node9"><a xlink:title=" ">
<polygon fill="white" stroke="#bfbfbf" points="340,-112.5 340,-131.5 459,-131.5 459,-112.5 340,-112.5"/>
<text text-anchor="middle" x="399.5" y="-119.5" font-family="Helvetica,sans-Serif" font-size="10.00">G4SystemOfUnits.hh</text>
</a>
</g>
</g>
<!-- Node1&#45;&gt;Node9 -->
<g id="edge8" class="edge">
<title>Node1&#45;&gt;Node9</title>
<path fill="none" stroke="midnightblue" d="M443.75,-168.08C436.03,-160.22 424.6,-148.57 415.28,-139.08"/>
<polygon fill="midnightblue" stroke="midnightblue" points="417.59,-136.44 408.09,-131.75 412.6,-141.34 417.59,-136.44"/>
</g>
<!-- Node10 -->
<g id="node10" class="node">
<title>Node10</title>
<g id="a_node10"><a xlink:title=" ">
<polygon fill="white" stroke="#bfbfbf" points="477,-112.5 477,-131.5 536,-131.5 536,-112.5 477,-112.5"/>
<text text-anchor="middle" x="506.5" y="-119.5" font-family="Helvetica,sans-Serif" font-size="10.00">G4ios.hh</text>
</a>
</g>
</g>
<!-- Node1&#45;&gt;Node10 -->
<g id="edge9" class="edge">
<title>Node1&#45;&gt;Node10</title>
<path fill="none" stroke="midnightblue" d="M461.42,-168.08C469.28,-160.22 480.93,-148.57 490.42,-139.08"/>
<polygon fill="midnightblue" stroke="midnightblue" points="493.15,-141.3 497.75,-131.75 488.2,-136.35 493.15,-141.3"/>
</g>
<!-- Node11 -->
<g id="node11" class="node">
<title>Node11</title>
<g id="a_node11"><a xlink:href="_o_m_sim_command_args_table_8hh.html" target="_top" xlink:title="Definition of the OMSimCommandArgsTable singleton class, which controls user args.">
<polygon fill="white" stroke="black" points="554.5,-112.5 554.5,-131.5 718.5,-131.5 718.5,-112.5 554.5,-112.5"/>
<text text-anchor="middle" x="636.5" y="-119.5" font-family="Helvetica,sans-Serif" font-size="10.00">OMSimCommandArgsTable.hh</text>
</a>
</g>
</g>
<!-- Node1&#45;&gt;Node11 -->
<g id="edge10" class="edge">
<title>Node1&#45;&gt;Node11</title>
<path fill="none" stroke="midnightblue" d="M481.66,-168.44C513.01,-159.24 563.03,-144.56 597.7,-134.39"/>
<polygon fill="midnightblue" stroke="midnightblue" points="598.87,-137.69 607.48,-131.52 596.9,-130.97 598.87,-137.69"/>
</g>
<!-- Node3 -->
<g id="node3" class="node">
<title>Node3</title>
<g id="a_node3"><a xlink:title=" ">
<polygon fill="white" stroke="#bfbfbf" points="0,-56.5 0,-75.5 73,-75.5 73,-56.5 0,-56.5"/>
<text text-anchor="middle" x="36.5" y="-63.5" font-family="Helvetica,sans-Serif" font-size="10.00">G4Types.hh</text>
</a>
</g>
</g>
<!-- Node2&#45;&gt;Node3 -->
<g id="edge2" class="edge">
<title>Node2&#45;&gt;Node3</title>
<path fill="none" stroke="midnightblue" d="M225.01,-112.44C186.18,-103.08 123.84,-88.06 81.58,-77.87"/>
<polygon fill="midnightblue" stroke="midnightblue" points="82.37,-74.46 71.83,-75.52 80.73,-81.26 82.37,-74.46"/>
</g>
<!-- Node4 -->
<g id="node4" class="node">
<title>Node4</title>
<g id="a_node4"><a xlink:title=" ">
<polygon fill="white" stroke="#bfbfbf" points="91.5,-56.5 91.5,-75.5 165.5,-75.5 165.5,-56.5 91.5,-56.5"/>
<text text-anchor="middle" x="128.5" y="-63.5" font-family="Helvetica,sans-Serif" font-size="10.00">G4String.hh</text>
</a>
</g>
</g>
<!-- Node2&#45;&gt;Node4 -->
<g id="edge3" class="edge">
<title>Node2&#45;&gt;Node4</title>
<path fill="none" stroke="midnightblue" d="M239.58,-112.44C217.76,-103.52 183.35,-89.44 158.61,-79.32"/>
<polygon fill="midnightblue" stroke="midnightblue" points="159.9,-76.06 149.32,-75.52 157.25,-82.54 159.9,-76.06"/>
</g>
<!-- Node5 -->
<g id="node5" class="node">
<title>Node5</title>
<g id="a_node5"><a xlink:title=" ">
<polygon fill="white" stroke="#bfbfbf" points="184,-56.5 184,-75.5 287,-75.5 287,-56.5 184,-56.5"/>
<text text-anchor="middle" x="235.5" y="-63.5" font-family="Helvetica,sans-Serif" font-size="10.00">G4ThreeVector.hh</text>
</a>
</g>
</g>
<!-- Node2&#45;&gt;Node5 -->
<g id="edge4" class="edge">
<title>Node2&#45;&gt;Node5</title>
<path fill="none" stroke="midnightblue" d="M256.37,-112.08C252.99,-104.77 248.08,-94.18 243.88,-85.1"/>
<polygon fill="midnightblue" stroke="midnightblue" points="246.93,-83.36 239.55,-75.75 240.58,-86.3 246.93,-83.36"/>
</g>
<!-- Node6 -->
<g id="node6" class="node">
<title>Node6</title>
<g id="a_node6"><a xlink:title=" ">
<polygon fill="white" stroke="#bfbfbf" points="305,-56.5 305,-75.5 352,-75.5 352,-56.5 305,-56.5"/>
<text text-anchor="middle" x="328.5" y="-63.5" font-family="Helvetica,sans-Serif" font-size="10.00">vector</text>
</a>
</g>
</g>
<!-- Node2&#45;&gt;Node6 -->
<g id="edge5" class="edge">
<title>Node2&#45;&gt;Node6</title>
<path fill="none" stroke="midnightblue" d="M271.43,-112.32C281.67,-104.18 297.22,-91.84 309.5,-82.09"/>
<polygon fill="midnightblue" stroke="midnightblue" points="311.72,-84.79 317.38,-75.83 307.37,-79.31 311.72,-84.79"/>
</g>
<!-- Node7 -->
<g id="node7" class="node">
<title>Node7</title>
<g id="a_node7"><a xlink:title=" ">
<polygon fill="white" stroke="#bfbfbf" points="429,-56.5 429,-75.5 484,-75.5 484,-56.5 429,-56.5"/>
<text text-anchor="middle" x="456.5" y="-63.5" font-family="Helvetica,sans-Serif" font-size="10.00">fstream</text>
</a>
</g>
</g>
<!-- Node2&#45;&gt;Node7 -->
<g id="edge6" class="edge">
<title>Node2&#45;&gt;Node7</title>
<path fill="none" stroke="midnightblue" d="M291.56,-112.44C326.09,-102.93 381.87,-87.56 418.86,-77.37"/>
<polygon fill="midnightblue" stroke="midnightblue" points="420.05,-80.67 428.76,-74.64 418.19,-73.93 420.05,-80.67"/>
</g>
<!-- Node8 -->
<g id="node8" class="node">
<title>Node8</title>
<g id="a_node8"><a xlink:title=" ">
<polygon fill="white" stroke="#bfbfbf" points="370,-56.5 370,-75.5 411,-75.5 411,-56.5 370,-56.5"/>
<text text-anchor="middle" x="390.5" y="-63.5" font-family="Helvetica,sans-Serif" font-size="10.00">tuple</text>
</a>
</g>
</g>
<!-- Node2&#45;&gt;Node8 -->
<g id="edge7" class="edge">
<title>Node2&#45;&gt;Node8</title>
<path fill="none" stroke="midnightblue" d="M281.1,-112.44C302.49,-103.56 336.18,-89.56 360.52,-79.45"/>
<polygon fill="midnightblue" stroke="midnightblue" points="362.11,-82.58 370,-75.52 359.42,-76.12 362.11,-82.58"/>
</g>
<!-- Node11&#45;&gt;Node7 -->
<g id="edge14" class="edge">
<title>Node11&#45;&gt;Node7</title>
<path fill="none" stroke="midnightblue" d="M607.98,-112.44C577.16,-103.2 527.93,-88.43 494,-78.25"/>
<polygon fill="midnightblue" stroke="midnightblue" points="494.59,-74.77 484,-75.25 492.58,-81.48 494.59,-74.77"/>
</g>
<!-- Node12 -->
<g id="node12" class="node">
<title>Node12</title>
<g id="a_node12"><a xlink:href="_o_m_sim_logger_8hh.html" target="_top" xlink:title=" ">
<polygon fill="white" stroke="black" points="502,-56.5 502,-75.5 601,-75.5 601,-56.5 502,-56.5"/>
<text text-anchor="middle" x="551.5" y="-63.5" font-family="Helvetica,sans-Serif" font-size="10.00">OMSimLogger.hh</text>
</a>
</g>
</g>
<!-- Node11&#45;&gt;Node12 -->
<g id="edge11" class="edge">
<title>Node11&#45;&gt;Node12</title>
<path fill="none" stroke="midnightblue" d="M622.84,-112.32C609.58,-103.9 589.23,-90.97 573.65,-81.07"/>
<polygon fill="midnightblue" stroke="midnightblue" points="575.44,-78.06 565.12,-75.65 571.69,-83.97 575.44,-78.06"/>
</g>
<!-- Node15 -->
<g id="node15" class="node">
<title>Node15</title>
<g id="a_node15"><a xlink:title=" ">
<polygon fill="white" stroke="#bfbfbf" points="619.5,-56.5 619.5,-75.5 703.5,-75.5 703.5,-56.5 619.5,-56.5"/>
<text text-anchor="middle" x="661.5" y="-63.5" font-family="Helvetica,sans-Serif" font-size="10.00">boost/any.hpp</text>
</a>
</g>
</g>
<!-- Node11&#45;&gt;Node15 -->
<g id="edge15" class="edge">
<title>Node11&#45;&gt;Node15</title>
<path fill="none" stroke="midnightblue" d="M640.63,-112.08C644.01,-104.77 648.92,-94.18 653.12,-85.1"/>
<polygon fill="midnightblue" stroke="midnightblue" points="656.42,-86.3 657.45,-75.75 650.07,-83.36 656.42,-86.3"/>
</g>
<!-- Node16 -->
<g id="node16" class="node">
<title>Node16</title>
<g id="a_node16"><a xlink:title=" ">
<polygon fill="white" stroke="#bfbfbf" points="721.5,-56.5 721.5,-75.5 789.5,-75.5 789.5,-56.5 721.5,-56.5"/>
<text text-anchor="middle" x="755.5" y="-63.5" font-family="Helvetica,sans-Serif" font-size="10.00">sys/time.h</text>
</a>
</g>
</g>
<!-- Node11&#45;&gt;Node16 -->
<g id="edge16" class="edge">
<title>Node11&#45;&gt;Node16</title>
<path fill="none" stroke="midnightblue" d="M655.36,-112.44C674.77,-103.64 705.23,-89.81 727.46,-79.72"/>
<polygon fill="midnightblue" stroke="midnightblue" points="729.07,-82.84 736.73,-75.52 726.18,-76.46 729.07,-82.84"/>
</g>
<!-- Node13 -->
<g id="node13" class="node">
<title>Node13</title>
<g id="a_node13"><a xlink:title=" ">
<polygon fill="white" stroke="#bfbfbf" points="492.5,-0.5 492.5,-19.5 542.5,-19.5 542.5,-0.5 492.5,-0.5"/>
<text text-anchor="middle" x="517.5" y="-7.5" font-family="Helvetica,sans-Serif" font-size="10.00">stdio.h</text>
</a>
</g>
</g>
<!-- Node12&#45;&gt;Node13 -->
<g id="edge12" class="edge">
<title>Node12&#45;&gt;Node13</title>
<path fill="none" stroke="midnightblue" d="M545.89,-56.08C541.13,-48.53 534.18,-37.49 528.35,-28.23"/>
<polygon fill="midnightblue" stroke="midnightblue" points="531.3,-26.35 523.01,-19.75 525.38,-30.08 531.3,-26.35"/>
</g>
<!-- Node14 -->
<g id="node14" class="node">
<title>Node14</title>
<g id="a_node14"><a xlink:title=" ">
<polygon fill="white" stroke="#bfbfbf" points="560.5,-0.5 560.5,-19.5 608.5,-19.5 608.5,-0.5 560.5,-0.5"/>
<text text-anchor="middle" x="584.5" y="-7.5" font-family="Helvetica,sans-Serif" font-size="10.00">time.h</text>
</a>
</g>
</g>
<!-- Node12&#45;&gt;Node14 -->
<g id="edge13" class="edge">
<title>Node12&#45;&gt;Node14</title>
<path fill="none" stroke="midnightblue" d="M556.95,-56.08C561.51,-48.61 568.17,-37.72 573.79,-28.52"/>
<polygon fill="midnightblue" stroke="midnightblue" points="576.92,-30.11 579.15,-19.75 570.95,-26.46 576.92,-30.11"/>
</g>
</g>
</svg>
