<?xml version="1.0" encoding="UTF-8" standalone="no"?>
<!DOCTYPE svg PUBLIC "-//W3C//DTD SVG 1.1//EN"
 "http://www.w3.org/Graphics/SVG/1.1/DTD/svg11.dtd">
<!-- Generated by graphviz version 2.43.0 (0)
 -->
<!-- Title: OMSimDetectorConstruction.hh Pages: 1 -->
<svg width="1192pt" height="319pt"
 viewBox="0.00 0.00 1191.50 319.00" xmlns="http://www.w3.org/2000/svg" xmlns:xlink="http://www.w3.org/1999/xlink">
<g id="graph0" class="graph" transform="scale(1 1) rotate(0) translate(4 315)">
<title>OMSimDetectorConstruction.hh</title>
<polygon fill="white" stroke="transparent" points="-4,4 -4,-315 1187.5,-315 1187.5,4 -4,4"/>
<!-- Node1 -->
<g id="node1" class="node">
<title>Node1</title>
<g id="a_node1"><a xlink:title=" ">
<polygon fill="#bfbfbf" stroke="black" points="366,-291.5 366,-310.5 536,-310.5 536,-291.5 366,-291.5"/>
<text text-anchor="middle" x="451" y="-298.5" font-family="Helvetica,sans-Serif" font-size="10.00">OMSimDetectorConstruction.hh</text>
</a>
</g>
</g>
<!-- Node2 -->
<g id="node2" class="node">
<title>Node2</title>
<g id="a_node2"><a xlink:title=" ">
<polygon fill="white" stroke="#bfbfbf" points="0,-235.5 0,-254.5 116,-254.5 116,-235.5 0,-235.5"/>
<text text-anchor="middle" x="58" y="-242.5" font-family="Helvetica,sans-Serif" font-size="10.00">G4LogicalVolume.hh</text>
</a>
</g>
</g>
<!-- Node1&#45;&gt;Node2 -->
<g id="edge1" class="edge">
<title>Node1&#45;&gt;Node2</title>
<path fill="none" stroke="midnightblue" d="M388.73,-291.44C317.21,-281.62 200.24,-265.54 126.28,-255.38"/>
<polygon fill="midnightblue" stroke="midnightblue" points="126.52,-251.88 116.14,-253.99 125.57,-258.82 126.52,-251.88"/>
</g>
<!-- Node3 -->
<g id="node3" class="node">
<title>Node3</title>
<g id="a_node3"><a xlink:title=" ">
<polygon fill="white" stroke="#bfbfbf" points="134,-235.5 134,-254.5 196,-254.5 196,-235.5 134,-235.5"/>
<text text-anchor="middle" x="165" y="-242.5" font-family="Helvetica,sans-Serif" font-size="10.00">G4Orb.hh</text>
</a>
</g>
</g>
<!-- Node1&#45;&gt;Node3 -->
<g id="edge2" class="edge">
<title>Node1&#45;&gt;Node3</title>
<path fill="none" stroke="midnightblue" d="M400.94,-291.45C353.3,-283.18 279.34,-269.99 206.25,-255.2"/>
<polygon fill="midnightblue" stroke="midnightblue" points="206.91,-251.76 196.42,-253.19 205.52,-258.62 206.91,-251.76"/>
</g>
<!-- Node4 -->
<g id="node4" class="node">
<title>Node4</title>
<g id="a_node4"><a xlink:title=" ">
<polygon fill="white" stroke="#bfbfbf" points="214.5,-235.5 214.5,-254.5 343.5,-254.5 343.5,-235.5 214.5,-235.5"/>
<text text-anchor="middle" x="279" y="-242.5" font-family="Helvetica,sans-Serif" font-size="10.00">G4VPhysicalVolume.hh</text>
</a>
</g>
</g>
<!-- Node1&#45;&gt;Node4 -->
<g id="edge3" class="edge">
<title>Node1&#45;&gt;Node4</title>
<path fill="none" stroke="midnightblue" d="M423.75,-291.44C394.56,-282.28 348.08,-267.69 315.69,-257.52"/>
<polygon fill="midnightblue" stroke="midnightblue" points="316.72,-254.17 306.13,-254.52 314.62,-260.85 316.72,-254.17"/>
</g>
<!-- Node5 -->
<g id="node5" class="node">
<title>Node5</title>
<g id="a_node5"><a xlink:title=" ">
<polygon fill="white" stroke="#bfbfbf" points="362,-235.5 362,-254.5 540,-254.5 540,-235.5 362,-235.5"/>
<text text-anchor="middle" x="451" y="-242.5" font-family="Helvetica,sans-Serif" font-size="10.00">G4VUserDetectorConstruction.hh</text>
</a>
</g>
</g>
<!-- Node1&#45;&gt;Node5 -->
<g id="edge4" class="edge">
<title>Node1&#45;&gt;Node5</title>
<path fill="none" stroke="midnightblue" d="M451,-291.08C451,-284.01 451,-273.86 451,-264.99"/>
<polygon fill="midnightblue" stroke="midnightblue" points="454.5,-264.75 451,-254.75 447.5,-264.75 454.5,-264.75"/>
</g>
<!-- Node6 -->
<g id="node6" class="node">
<title>Node6</title>
<g id="a_node6"><a xlink:href="_o_m_sim_input_data_8hh.html" target="_top" xlink:title=" ">
<polygon fill="white" stroke="black" points="533.5,-67.5 533.5,-86.5 648.5,-86.5 648.5,-67.5 533.5,-67.5"/>
<text text-anchor="middle" x="591" y="-74.5" font-family="Helvetica,sans-Serif" font-size="10.00">OMSimInputData.hh</text>
</a>
</g>
</g>
<!-- Node1&#45;&gt;Node6 -->
<g id="edge5" class="edge">
<title>Node1&#45;&gt;Node6</title>
<path fill="none" stroke="midnightblue" d="M488.61,-291.4C509.31,-284.78 533.81,-273.53 549,-255 568.91,-230.72 583.23,-137.37 588.63,-96.9"/>
<polygon fill="midnightblue" stroke="midnightblue" points="592.13,-97.15 589.94,-86.78 585.19,-96.25 592.13,-97.15"/>
</g>
<!-- Node10 -->
<g id="node10" class="node">
<title>Node10</title>
<g id="a_node10"><a xlink:href="_o_m_sim_p_m_t_construction_8hh.html" target="_top" xlink:title=" ">
<polygon fill="white" stroke="black" points="619.5,-179.5 619.5,-198.5 768.5,-198.5 768.5,-179.5 619.5,-179.5"/>
<text text-anchor="middle" x="694" y="-186.5" font-family="Helvetica,sans-Serif" font-size="10.00">OMSimPMTConstruction.hh</text>
</a>
</g>
</g>
<!-- Node1&#45;&gt;Node10 -->
<g id="edge9" class="edge">
<title>Node1&#45;&gt;Node10</title>
<path fill="none" stroke="midnightblue" d="M481.3,-291.43C508.28,-283.37 548.53,-270.28 582,-255 614.75,-240.05 650.35,-218.37 672.42,-204.23"/>
<polygon fill="midnightblue" stroke="midnightblue" points="674.51,-207.05 681,-198.67 670.71,-201.17 674.51,-207.05"/>
</g>
<!-- Node18 -->
<g id="node18" class="node">
<title>Node18</title>
<g id="a_node18"><a xlink:href="_o_m_sim_m_d_o_m_8hh.html" target="_top" xlink:title=" ">
<polygon fill="white" stroke="black" points="644,-235.5 644,-254.5 744,-254.5 744,-235.5 644,-235.5"/>
<text text-anchor="middle" x="694" y="-242.5" font-family="Helvetica,sans-Serif" font-size="10.00">OMSimMDOM.hh</text>
</a>
</g>
</g>
<!-- Node1&#45;&gt;Node18 -->
<g id="edge18" class="edge">
<title>Node1&#45;&gt;Node18</title>
<path fill="none" stroke="midnightblue" d="M489.5,-291.44C531.81,-282.04 599.82,-266.93 645.67,-256.74"/>
<polygon fill="midnightblue" stroke="midnightblue" points="646.67,-260.1 655.68,-254.52 645.15,-253.27 646.67,-260.1"/>
</g>
<!-- Node7 -->
<g id="node7" class="node">
<title>Node7</title>
<g id="a_node7"><a xlink:title=" ">
<polygon fill="white" stroke="#bfbfbf" points="388.5,-0.5 388.5,-30.5 501.5,-30.5 501.5,-0.5 388.5,-0.5"/>
<text text-anchor="start" x="396.5" y="-18.5" font-family="Helvetica,sans-Serif" font-size="10.00">boost/property_tree</text>
<text text-anchor="middle" x="445" y="-7.5" font-family="Helvetica,sans-Serif" font-size="10.00">/json_parser.hpp</text>
</a>
</g>
</g>
<!-- Node6&#45;&gt;Node7 -->
<g id="edge6" class="edge">
<title>Node6&#45;&gt;Node7</title>
<path fill="none" stroke="midnightblue" d="M570.08,-67.48C549.01,-58.89 515.87,-45.38 488.99,-34.43"/>
<polygon fill="midnightblue" stroke="midnightblue" points="489.99,-31.06 479.41,-30.52 487.35,-37.54 489.99,-31.06"/>
</g>
<!-- Node8 -->
<g id="node8" class="node">
<title>Node8</title>
<g id="a_node8"><a xlink:title=" ">
<polygon fill="white" stroke="#bfbfbf" points="519.5,-6 519.5,-25 662.5,-25 662.5,-6 519.5,-6"/>
<text text-anchor="middle" x="591" y="-13" font-family="Helvetica,sans-Serif" font-size="10.00">G4OpBoundaryProcess.hh</text>
</a>
</g>
</g>
<!-- Node6&#45;&gt;Node8 -->
<g id="edge7" class="edge">
<title>Node6&#45;&gt;Node8</title>
<path fill="none" stroke="midnightblue" d="M591,-67.48C591,-59.08 591,-45.98 591,-35.16"/>
<polygon fill="midnightblue" stroke="midnightblue" points="594.5,-35.01 591,-25.01 587.5,-35.01 594.5,-35.01"/>
</g>
<!-- Node9 -->
<g id="node9" class="node">
<title>Node9</title>
<g id="a_node9"><a xlink:title=" ">
<polygon fill="white" stroke="#bfbfbf" points="680.5,-6 680.5,-25 799.5,-25 799.5,-6 680.5,-6"/>
<text text-anchor="middle" x="740" y="-13" font-family="Helvetica,sans-Serif" font-size="10.00">G4SystemOfUnits.hh</text>
</a>
</g>
</g>
<!-- Node6&#45;&gt;Node9 -->
<g id="edge8" class="edge">
<title>Node6&#45;&gt;Node9</title>
<path fill="none" stroke="midnightblue" d="M612.35,-67.48C637.69,-57.36 680.14,-40.4 709.07,-28.85"/>
<polygon fill="midnightblue" stroke="midnightblue" points="710.7,-31.97 718.69,-25.01 708.11,-25.47 710.7,-31.97"/>
</g>
<!-- Node11 -->
<g id="node11" class="node">
<title>Node11</title>
<g id="a_node11"><a xlink:href="abc_detector_component_8hh.html" target="_top" xlink:title=" ">
<polygon fill="white" stroke="black" points="798.5,-123.5 798.5,-142.5 945.5,-142.5 945.5,-123.5 798.5,-123.5"/>
<text text-anchor="middle" x="872" y="-130.5" font-family="Helvetica,sans-Serif" font-size="10.00">abcDetectorComponent.hh</text>
</a>
</g>
</g>
<!-- Node10&#45;&gt;Node11 -->
<g id="edge10" class="edge">
<title>Node10&#45;&gt;Node11</title>
<path fill="none" stroke="midnightblue" d="M722.2,-179.44C752.41,-170.28 800.51,-155.69 834.03,-145.52"/>
<polygon fill="midnightblue" stroke="midnightblue" points="835.37,-148.77 843.93,-142.52 833.34,-142.07 835.37,-148.77"/>
</g>
<!-- Node16 -->
<g id="node16" class="node">
<title>Node16</title>
<g id="a_node16"><a xlink:title=" ">
<polygon fill="white" stroke="#bfbfbf" points="682,-123.5 682,-142.5 780,-142.5 780,-123.5 682,-123.5"/>
<text text-anchor="middle" x="731" y="-130.5" font-family="Helvetica,sans-Serif" font-size="10.00">G4UnionSolid.hh</text>
</a>
</g>
</g>
<!-- Node10&#45;&gt;Node16 -->
<g id="edge16" class="edge">
<title>Node10&#45;&gt;Node16</title>
<path fill="none" stroke="midnightblue" d="M700.11,-179.08C705.28,-171.53 712.85,-160.49 719.19,-151.23"/>
<polygon fill="midnightblue" stroke="midnightblue" points="722.24,-152.98 725,-142.75 716.46,-149.02 722.24,-152.98"/>
</g>
<!-- Node17 -->
<g id="node17" class="node">
<title>Node17</title>
<g id="a_node17"><a xlink:title=" ">
<polygon fill="white" stroke="#bfbfbf" points="596.5,-123.5 596.5,-142.5 663.5,-142.5 663.5,-123.5 596.5,-123.5"/>
<text text-anchor="middle" x="630" y="-130.5" font-family="Helvetica,sans-Serif" font-size="10.00">G4Tubs.hh</text>
</a>
</g>
</g>
<!-- Node10&#45;&gt;Node17 -->
<g id="edge17" class="edge">
<title>Node10&#45;&gt;Node17</title>
<path fill="none" stroke="midnightblue" d="M683.72,-179.32C674.16,-171.26 659.72,-159.08 648.22,-149.37"/>
<polygon fill="midnightblue" stroke="midnightblue" points="650.37,-146.61 640.47,-142.83 645.86,-151.96 650.37,-146.61"/>
</g>
<!-- Node11&#45;&gt;Node6 -->
<g id="edge11" class="edge">
<title>Node11&#45;&gt;Node6</title>
<path fill="none" stroke="midnightblue" d="M827.47,-123.44C778.04,-113.94 698.25,-98.61 645.22,-88.42"/>
<polygon fill="midnightblue" stroke="midnightblue" points="645.8,-84.97 635.32,-86.52 644.48,-91.84 645.8,-84.97"/>
</g>
<!-- Node12 -->
<g id="node12" class="node">
<title>Node12</title>
<g id="a_node12"><a xlink:title=" ">
<polygon fill="white" stroke="#bfbfbf" points="806.5,-67.5 806.5,-86.5 913.5,-86.5 913.5,-67.5 806.5,-67.5"/>
<text text-anchor="middle" x="860" y="-74.5" font-family="Helvetica,sans-Serif" font-size="10.00">G4Transform3D.hh</text>
</a>
</g>
</g>
<!-- Node11&#45;&gt;Node12 -->
<g id="edge12" class="edge">
<title>Node11&#45;&gt;Node12</title>
<path fill="none" stroke="midnightblue" d="M870.02,-123.08C868.43,-115.93 866.14,-105.64 864.15,-96.69"/>
<polygon fill="midnightblue" stroke="midnightblue" points="867.53,-95.75 861.94,-86.75 860.7,-97.27 867.53,-95.75"/>
</g>
<!-- Node13 -->
<g id="node13" class="node">
<title>Node13</title>
<g id="a_node13"><a xlink:title=" ">
<polygon fill="white" stroke="#bfbfbf" points="932,-67.5 932,-86.5 1040,-86.5 1040,-67.5 932,-67.5"/>
<text text-anchor="middle" x="986" y="-74.5" font-family="Helvetica,sans-Serif" font-size="10.00">G4VisAttributes.hh</text>
</a>
</g>
</g>
<!-- Node11&#45;&gt;Node13 -->
<g id="edge13" class="edge">
<title>Node11&#45;&gt;Node13</title>
<path fill="none" stroke="midnightblue" d="M890.06,-123.44C908.57,-114.68 937.58,-100.94 958.86,-90.86"/>
<polygon fill="midnightblue" stroke="midnightblue" points="960.48,-93.96 968.02,-86.52 957.49,-87.63 960.48,-93.96"/>
</g>
<!-- Node14 -->
<g id="node14" class="node">
<title>Node14</title>
<g id="a_node14"><a xlink:title=" ">
<polygon fill="white" stroke="#bfbfbf" points="1058.5,-67.5 1058.5,-86.5 1183.5,-86.5 1183.5,-67.5 1058.5,-67.5"/>
<text text-anchor="middle" x="1121" y="-74.5" font-family="Helvetica,sans-Serif" font-size="10.00">G4SubtractionSolid.hh</text>
</a>
</g>
</g>
<!-- Node11&#45;&gt;Node14 -->
<g id="edge14" class="edge">
<title>Node11&#45;&gt;Node14</title>
<path fill="none" stroke="midnightblue" d="M911.45,-123.44C954.89,-114.02 1024.79,-98.87 1071.78,-88.68"/>
<polygon fill="midnightblue" stroke="midnightblue" points="1072.7,-92.06 1081.73,-86.52 1071.22,-85.22 1072.7,-92.06"/>
</g>
<!-- Node15 -->
<g id="node15" class="node">
<title>Node15</title>
<g id="a_node15"><a xlink:title=" ">
<polygon fill="white" stroke="#bfbfbf" points="678,-67.5 678,-86.5 788,-86.5 788,-67.5 678,-67.5"/>
<text text-anchor="middle" x="733" y="-74.5" font-family="Helvetica,sans-Serif" font-size="10.00">G4PVPlacement.hh</text>
</a>
</g>
</g>
<!-- Node11&#45;&gt;Node15 -->
<g id="edge15" class="edge">
<title>Node11&#45;&gt;Node15</title>
<path fill="none" stroke="midnightblue" d="M849.98,-123.44C826.9,-114.48 790.44,-100.31 764.36,-90.18"/>
<polygon fill="midnightblue" stroke="midnightblue" points="765.51,-86.88 754.92,-86.52 762.98,-93.4 765.51,-86.88"/>
</g>
<!-- Node18&#45;&gt;Node10 -->
<g id="edge23" class="edge">
<title>Node18&#45;&gt;Node10</title>
<path fill="none" stroke="midnightblue" d="M694,-235.08C694,-228.01 694,-217.86 694,-208.99"/>
<polygon fill="midnightblue" stroke="midnightblue" points="697.5,-208.75 694,-198.75 690.5,-208.75 697.5,-208.75"/>
</g>
<!-- Node19 -->
<g id="node19" class="node">
<title>Node19</title>
<g id="a_node19"><a xlink:href="_o_m_sim_m_d_o_m_flasher_8hh.html" target="_top" xlink:title=" ">
<polygon fill="white" stroke="black" points="800.5,-179.5 800.5,-198.5 935.5,-198.5 935.5,-179.5 800.5,-179.5"/>
<text text-anchor="middle" x="868" y="-186.5" font-family="Helvetica,sans-Serif" font-size="10.00">OMSimMDOMFlasher.hh</text>
</a>
</g>
</g>
<!-- Node18&#45;&gt;Node19 -->
<g id="edge19" class="edge">
<title>Node18&#45;&gt;Node19</title>
<path fill="none" stroke="midnightblue" d="M721.57,-235.44C751.1,-226.28 798.12,-211.69 830.88,-201.52"/>
<polygon fill="midnightblue" stroke="midnightblue" points="832.04,-204.82 840.56,-198.52 829.97,-198.14 832.04,-204.82"/>
</g>
<!-- Node19&#45;&gt;Node11 -->
<g id="edge20" class="edge">
<title>Node19&#45;&gt;Node11</title>
<path fill="none" stroke="midnightblue" d="M868.66,-179.08C869.18,-172.01 869.94,-161.86 870.59,-152.99"/>
<polygon fill="midnightblue" stroke="midnightblue" points="874.1,-152.98 871.35,-142.75 867.12,-152.47 874.1,-152.98"/>
</g>
<!-- Node19&#45;&gt;Node16 -->
<g id="edge21" class="edge">
<title>Node19&#45;&gt;Node16</title>
<path fill="none" stroke="midnightblue" d="M846.29,-179.44C823.65,-170.52 787.93,-156.44 762.25,-146.32"/>
<polygon fill="midnightblue" stroke="midnightblue" points="763.19,-142.93 752.61,-142.52 760.63,-149.44 763.19,-142.93"/>
</g>
<!-- Node20 -->
<g id="node20" class="node">
<title>Node20</title>
<g id="a_node20"><a xlink:title=" ">
<polygon fill="white" stroke="#bfbfbf" points="964,-123.5 964,-142.5 1056,-142.5 1056,-123.5 964,-123.5"/>
<text text-anchor="middle" x="1010" y="-130.5" font-family="Helvetica,sans-Serif" font-size="10.00">G4Navigator.hh</text>
</a>
</g>
</g>
<!-- Node19&#45;&gt;Node20 -->
<g id="edge22" class="edge">
<title>Node19&#45;&gt;Node20</title>
<path fill="none" stroke="midnightblue" d="M890.5,-179.44C914.08,-170.48 951.32,-156.31 977.96,-146.18"/>
<polygon fill="midnightblue" stroke="midnightblue" points="979.5,-149.34 987.6,-142.52 977.01,-142.8 979.5,-149.34"/>
</g>
</g>
</svg>
