<?xml version="1.0" encoding="UTF-8" standalone="no"?>
<!DOCTYPE svg PUBLIC "-//W3C//DTD SVG 1.1//EN"
 "http://www.w3.org/Graphics/SVG/1.1/DTD/svg11.dtd">
<!-- Generated by graphviz version 2.43.0 (0)
 -->
<!-- Title: OMSimDEGG.cc Pages: 1 -->
<svg width="2529pt" height="375pt"
 viewBox="0.00 0.00 2528.50 375.00" xmlns="http://www.w3.org/2000/svg" xmlns:xlink="http://www.w3.org/1999/xlink">
<g id="graph0" class="graph" transform="scale(1 1) rotate(0) translate(4 371)">
<title>OMSimDEGG.cc</title>
<polygon fill="white" stroke="transparent" points="-4,4 -4,-371 2524.5,-371 2524.5,4 -4,4"/>
<!-- Node1 -->
<g id="node1" class="node">
<title>Node1</title>
<g id="a_node1"><a xlink:title="Construction of the DEGG class.">
<polygon fill="#bfbfbf" stroke="black" points="1453.5,-347.5 1453.5,-366.5 1547.5,-366.5 1547.5,-347.5 1453.5,-347.5"/>
<text text-anchor="middle" x="1500.5" y="-354.5" font-family="Helvetica,sans-Serif" font-size="10.00">OMSimDEGG.cc</text>
</a>
</g>
</g>
<!-- Node2 -->
<g id="node2" class="node">
<title>Node2</title>
<g id="a_node2"><a xlink:href="_o_m_sim_d_e_g_g_8hh.html" target="_top" xlink:title=" ">
<polygon fill="white" stroke="black" points="541,-291.5 541,-310.5 636,-310.5 636,-291.5 541,-291.5"/>
<text text-anchor="middle" x="588.5" y="-298.5" font-family="Helvetica,sans-Serif" font-size="10.00">OMSimDEGG.hh</text>
</a>
</g>
</g>
<!-- Node1&#45;&gt;Node2 -->
<g id="edge1" class="edge">
<title>Node1&#45;&gt;Node2</title>
<path fill="none" stroke="midnightblue" d="M1453.39,-353.21C1299.85,-344.12 814.18,-315.36 646.28,-305.42"/>
<polygon fill="midnightblue" stroke="midnightblue" points="646.34,-301.92 636.15,-304.82 645.93,-308.91 646.34,-301.92"/>
</g>
<!-- Node16 -->
<g id="node16" class="node">
<title>Node16</title>
<g id="a_node16"><a xlink:href="_c_a_d_mesh_8hh.html" target="_top" xlink:title=" ">
<polygon fill="white" stroke="black" points="1413,-291.5 1413,-310.5 1492,-310.5 1492,-291.5 1413,-291.5"/>
<text text-anchor="middle" x="1452.5" y="-298.5" font-family="Helvetica,sans-Serif" font-size="10.00">CADMesh.hh</text>
</a>
</g>
</g>
<!-- Node1&#45;&gt;Node16 -->
<g id="edge17" class="edge">
<title>Node1&#45;&gt;Node16</title>
<path fill="none" stroke="midnightblue" d="M1492.57,-347.08C1485.65,-339.3 1475.43,-327.8 1467.05,-318.37"/>
<polygon fill="midnightblue" stroke="midnightblue" points="1469.54,-315.9 1460.28,-310.75 1464.31,-320.55 1469.54,-315.9"/>
</g>
<!-- Node37 -->
<g id="node37" class="node">
<title>Node37</title>
<g id="a_node37"><a xlink:title=" ">
<polygon fill="white" stroke="#bfbfbf" points="1510,-291.5 1510,-310.5 1589,-310.5 1589,-291.5 1510,-291.5"/>
<text text-anchor="middle" x="1549.5" y="-298.5" font-family="Helvetica,sans-Serif" font-size="10.00">G4Sphere.hh</text>
</a>
</g>
</g>
<!-- Node1&#45;&gt;Node37 -->
<g id="edge38" class="edge">
<title>Node1&#45;&gt;Node37</title>
<path fill="none" stroke="midnightblue" d="M1508.59,-347.08C1515.66,-339.3 1526.09,-327.8 1534.65,-318.37"/>
<polygon fill="midnightblue" stroke="midnightblue" points="1537.43,-320.51 1541.56,-310.75 1532.25,-315.8 1537.43,-320.51"/>
</g>
<!-- Node38 -->
<g id="node38" class="node">
<title>Node38</title>
<g id="a_node38"><a xlink:title=" ">
<polygon fill="white" stroke="#bfbfbf" points="1607,-291.5 1607,-310.5 1696,-310.5 1696,-291.5 1607,-291.5"/>
<text text-anchor="middle" x="1651.5" y="-298.5" font-family="Helvetica,sans-Serif" font-size="10.00">G4Polycone.hh</text>
</a>
</g>
</g>
<!-- Node1&#45;&gt;Node38 -->
<g id="edge39" class="edge">
<title>Node1&#45;&gt;Node38</title>
<path fill="none" stroke="midnightblue" d="M1524.43,-347.44C1549.72,-338.4 1589.8,-324.06 1618.18,-313.92"/>
<polygon fill="midnightblue" stroke="midnightblue" points="1619.45,-317.18 1627.69,-310.52 1617.09,-310.59 1619.45,-317.18"/>
</g>
<!-- Node3 -->
<g id="node3" class="node">
<title>Node3</title>
<g id="a_node3"><a xlink:href="_o_m_sim_p_m_t_construction_8hh.html" target="_top" xlink:title=" ">
<polygon fill="white" stroke="black" points="514,-179.5 514,-198.5 663,-198.5 663,-179.5 514,-179.5"/>
<text text-anchor="middle" x="588.5" y="-186.5" font-family="Helvetica,sans-Serif" font-size="10.00">OMSimPMTConstruction.hh</text>
</a>
</g>
</g>
<!-- Node2&#45;&gt;Node3 -->
<g id="edge2" class="edge">
<title>Node2&#45;&gt;Node3</title>
<path fill="none" stroke="midnightblue" d="M588.5,-291.37C588.5,-273.62 588.5,-232.67 588.5,-208.6"/>
<polygon fill="midnightblue" stroke="midnightblue" points="592,-208.59 588.5,-198.59 585,-208.59 592,-208.59"/>
</g>
<!-- Node15 -->
<g id="node15" class="node">
<title>Node15</title>
<g id="a_node15"><a xlink:href="_o_m_sim_optical_module_8hh.html" target="_top" xlink:title=" ">
<polygon fill="white" stroke="black" points="423,-235.5 423,-254.5 560,-254.5 560,-235.5 423,-235.5"/>
<text text-anchor="middle" x="491.5" y="-242.5" font-family="Helvetica,sans-Serif" font-size="10.00">OMSimOpticalModule.hh</text>
</a>
</g>
</g>
<!-- Node2&#45;&gt;Node15 -->
<g id="edge14" class="edge">
<title>Node2&#45;&gt;Node15</title>
<path fill="none" stroke="midnightblue" d="M572.92,-291.32C557.5,-282.74 533.69,-269.49 515.79,-259.52"/>
<polygon fill="midnightblue" stroke="midnightblue" points="517.49,-256.46 507.05,-254.65 514.08,-262.58 517.49,-256.46"/>
</g>
<!-- Node4 -->
<g id="node4" class="node">
<title>Node4</title>
<g id="a_node4"><a xlink:href="abc_detector_component_8hh.html" target="_top" xlink:title=" ">
<polygon fill="white" stroke="black" points="384,-123.5 384,-142.5 531,-142.5 531,-123.5 384,-123.5"/>
<text text-anchor="middle" x="457.5" y="-130.5" font-family="Helvetica,sans-Serif" font-size="10.00">abcDetectorComponent.hh</text>
</a>
</g>
</g>
<!-- Node3&#45;&gt;Node4 -->
<g id="edge3" class="edge">
<title>Node3&#45;&gt;Node4</title>
<path fill="none" stroke="midnightblue" d="M567.74,-179.44C546.18,-170.56 512.24,-156.56 487.71,-146.45"/>
<polygon fill="midnightblue" stroke="midnightblue" points="488.74,-143.09 478.16,-142.52 486.07,-149.56 488.74,-143.09"/>
</g>
<!-- Node13 -->
<g id="node13" class="node">
<title>Node13</title>
<g id="a_node13"><a xlink:title=" ">
<polygon fill="white" stroke="#bfbfbf" points="549.5,-123.5 549.5,-142.5 647.5,-142.5 647.5,-123.5 549.5,-123.5"/>
<text text-anchor="middle" x="598.5" y="-130.5" font-family="Helvetica,sans-Serif" font-size="10.00">G4UnionSolid.hh</text>
</a>
</g>
</g>
<!-- Node3&#45;&gt;Node13 -->
<g id="edge12" class="edge">
<title>Node3&#45;&gt;Node13</title>
<path fill="none" stroke="midnightblue" d="M590.15,-179.08C591.48,-171.93 593.38,-161.64 595.04,-152.69"/>
<polygon fill="midnightblue" stroke="midnightblue" points="598.5,-153.22 596.88,-142.75 591.62,-151.95 598.5,-153.22"/>
</g>
<!-- Node14 -->
<g id="node14" class="node">
<title>Node14</title>
<g id="a_node14"><a xlink:title=" ">
<polygon fill="white" stroke="#bfbfbf" points="666,-123.5 666,-142.5 733,-142.5 733,-123.5 666,-123.5"/>
<text text-anchor="middle" x="699.5" y="-130.5" font-family="Helvetica,sans-Serif" font-size="10.00">G4Tubs.hh</text>
</a>
</g>
</g>
<!-- Node3&#45;&gt;Node14 -->
<g id="edge13" class="edge">
<title>Node3&#45;&gt;Node14</title>
<path fill="none" stroke="midnightblue" d="M606.33,-179.32C624.22,-170.62 651.98,-157.12 672.55,-147.11"/>
<polygon fill="midnightblue" stroke="midnightblue" points="674.25,-150.18 681.71,-142.65 671.19,-143.88 674.25,-150.18"/>
</g>
<!-- Node5 -->
<g id="node5" class="node">
<title>Node5</title>
<g id="a_node5"><a xlink:href="_o_m_sim_input_data_8hh.html" target="_top" xlink:title=" ">
<polygon fill="white" stroke="black" points="145,-67.5 145,-86.5 260,-86.5 260,-67.5 145,-67.5"/>
<text text-anchor="middle" x="202.5" y="-74.5" font-family="Helvetica,sans-Serif" font-size="10.00">OMSimInputData.hh</text>
</a>
</g>
</g>
<!-- Node4&#45;&gt;Node5 -->
<g id="edge4" class="edge">
<title>Node4&#45;&gt;Node5</title>
<path fill="none" stroke="midnightblue" d="M417.09,-123.44C372.52,-114 300.73,-98.8 252.61,-88.61"/>
<polygon fill="midnightblue" stroke="midnightblue" points="253.22,-85.16 242.72,-86.52 251.77,-92.01 253.22,-85.16"/>
</g>
<!-- Node9 -->
<g id="node9" class="node">
<title>Node9</title>
<g id="a_node9"><a xlink:title=" ">
<polygon fill="white" stroke="#bfbfbf" points="278,-67.5 278,-86.5 385,-86.5 385,-67.5 278,-67.5"/>
<text text-anchor="middle" x="331.5" y="-74.5" font-family="Helvetica,sans-Serif" font-size="10.00">G4Transform3D.hh</text>
</a>
</g>
</g>
<!-- Node4&#45;&gt;Node9 -->
<g id="edge8" class="edge">
<title>Node4&#45;&gt;Node9</title>
<path fill="none" stroke="midnightblue" d="M437.53,-123.44C416.89,-114.6 384.44,-100.69 360.87,-90.59"/>
<polygon fill="midnightblue" stroke="midnightblue" points="361.94,-87.24 351.37,-86.52 359.18,-93.67 361.94,-87.24"/>
</g>
<!-- Node10 -->
<g id="node10" class="node">
<title>Node10</title>
<g id="a_node10"><a xlink:title=" ">
<polygon fill="white" stroke="#bfbfbf" points="403.5,-67.5 403.5,-86.5 511.5,-86.5 511.5,-67.5 403.5,-67.5"/>
<text text-anchor="middle" x="457.5" y="-74.5" font-family="Helvetica,sans-Serif" font-size="10.00">G4VisAttributes.hh</text>
</a>
</g>
</g>
<!-- Node4&#45;&gt;Node10 -->
<g id="edge9" class="edge">
<title>Node4&#45;&gt;Node10</title>
<path fill="none" stroke="midnightblue" d="M457.5,-123.08C457.5,-116.01 457.5,-105.86 457.5,-96.99"/>
<polygon fill="midnightblue" stroke="midnightblue" points="461,-96.75 457.5,-86.75 454,-96.75 461,-96.75"/>
</g>
<!-- Node11 -->
<g id="node11" class="node">
<title>Node11</title>
<g id="a_node11"><a xlink:title=" ">
<polygon fill="white" stroke="#bfbfbf" points="530,-67.5 530,-86.5 655,-86.5 655,-67.5 530,-67.5"/>
<text text-anchor="middle" x="592.5" y="-74.5" font-family="Helvetica,sans-Serif" font-size="10.00">G4SubtractionSolid.hh</text>
</a>
</g>
</g>
<!-- Node4&#45;&gt;Node11 -->
<g id="edge10" class="edge">
<title>Node4&#45;&gt;Node11</title>
<path fill="none" stroke="midnightblue" d="M478.89,-123.44C501.21,-114.52 536.4,-100.44 561.71,-90.32"/>
<polygon fill="midnightblue" stroke="midnightblue" points="563.22,-93.48 571.21,-86.52 560.62,-86.98 563.22,-93.48"/>
</g>
<!-- Node12 -->
<g id="node12" class="node">
<title>Node12</title>
<g id="a_node12"><a xlink:title=" ">
<polygon fill="white" stroke="#bfbfbf" points="673.5,-67.5 673.5,-86.5 783.5,-86.5 783.5,-67.5 673.5,-67.5"/>
<text text-anchor="middle" x="728.5" y="-74.5" font-family="Helvetica,sans-Serif" font-size="10.00">G4PVPlacement.hh</text>
</a>
</g>
</g>
<!-- Node4&#45;&gt;Node12 -->
<g id="edge11" class="edge">
<title>Node4&#45;&gt;Node12</title>
<path fill="none" stroke="midnightblue" d="M500.44,-123.44C548.01,-113.96 624.74,-98.67 675.89,-88.48"/>
<polygon fill="midnightblue" stroke="midnightblue" points="676.64,-91.9 685.76,-86.52 675.27,-85.04 676.64,-91.9"/>
</g>
<!-- Node6 -->
<g id="node6" class="node">
<title>Node6</title>
<g id="a_node6"><a xlink:title=" ">
<polygon fill="white" stroke="#bfbfbf" points="0,-0.5 0,-30.5 113,-30.5 113,-0.5 0,-0.5"/>
<text text-anchor="start" x="8" y="-18.5" font-family="Helvetica,sans-Serif" font-size="10.00">boost/property_tree</text>
<text text-anchor="middle" x="56.5" y="-7.5" font-family="Helvetica,sans-Serif" font-size="10.00">/json_parser.hpp</text>
</a>
</g>
</g>
<!-- Node5&#45;&gt;Node6 -->
<g id="edge5" class="edge">
<title>Node5&#45;&gt;Node6</title>
<path fill="none" stroke="midnightblue" d="M181.58,-67.48C160.51,-58.89 127.37,-45.38 100.49,-34.43"/>
<polygon fill="midnightblue" stroke="midnightblue" points="101.49,-31.06 90.91,-30.52 98.85,-37.54 101.49,-31.06"/>
</g>
<!-- Node7 -->
<g id="node7" class="node">
<title>Node7</title>
<g id="a_node7"><a xlink:title=" ">
<polygon fill="white" stroke="#bfbfbf" points="131,-6 131,-25 274,-25 274,-6 131,-6"/>
<text text-anchor="middle" x="202.5" y="-13" font-family="Helvetica,sans-Serif" font-size="10.00">G4OpBoundaryProcess.hh</text>
</a>
</g>
</g>
<!-- Node5&#45;&gt;Node7 -->
<g id="edge6" class="edge">
<title>Node5&#45;&gt;Node7</title>
<path fill="none" stroke="midnightblue" d="M202.5,-67.48C202.5,-59.08 202.5,-45.98 202.5,-35.16"/>
<polygon fill="midnightblue" stroke="midnightblue" points="206,-35.01 202.5,-25.01 199,-35.01 206,-35.01"/>
</g>
<!-- Node8 -->
<g id="node8" class="node">
<title>Node8</title>
<g id="a_node8"><a xlink:title=" ">
<polygon fill="white" stroke="#bfbfbf" points="292,-6 292,-25 411,-25 411,-6 292,-6"/>
<text text-anchor="middle" x="351.5" y="-13" font-family="Helvetica,sans-Serif" font-size="10.00">G4SystemOfUnits.hh</text>
</a>
</g>
</g>
<!-- Node5&#45;&gt;Node8 -->
<g id="edge7" class="edge">
<title>Node5&#45;&gt;Node8</title>
<path fill="none" stroke="midnightblue" d="M223.85,-67.48C249.19,-57.36 291.64,-40.4 320.57,-28.85"/>
<polygon fill="midnightblue" stroke="midnightblue" points="322.2,-31.97 330.19,-25.01 319.61,-25.47 322.2,-31.97"/>
</g>
<!-- Node15&#45;&gt;Node3 -->
<g id="edge16" class="edge">
<title>Node15&#45;&gt;Node3</title>
<path fill="none" stroke="midnightblue" d="M507.08,-235.32C522.5,-226.74 546.31,-213.49 564.21,-203.52"/>
<polygon fill="midnightblue" stroke="midnightblue" points="565.92,-206.58 572.95,-198.65 562.51,-200.46 565.92,-206.58"/>
</g>
<!-- Node15&#45;&gt;Node4 -->
<g id="edge15" class="edge">
<title>Node15&#45;&gt;Node4</title>
<path fill="none" stroke="midnightblue" d="M488.83,-235.37C483.32,-217.54 470.57,-176.3 463.15,-152.27"/>
<polygon fill="midnightblue" stroke="midnightblue" points="466.45,-151.11 460.16,-142.59 459.76,-153.18 466.45,-151.11"/>
</g>
<!-- Node17 -->
<g id="node17" class="node">
<title>Node17</title>
<g id="a_node17"><a xlink:title=" ">
<polygon fill="white" stroke="#bfbfbf" points="616.5,-235.5 616.5,-254.5 690.5,-254.5 690.5,-235.5 616.5,-235.5"/>
<text text-anchor="middle" x="653.5" y="-242.5" font-family="Helvetica,sans-Serif" font-size="10.00">G4String.hh</text>
</a>
</g>
</g>
<!-- Node16&#45;&gt;Node17 -->
<g id="edge18" class="edge">
<title>Node16&#45;&gt;Node17</title>
<path fill="none" stroke="midnightblue" d="M1412.73,-299.49C1301.67,-297.67 978.72,-289.68 700.87,-255"/>
<polygon fill="midnightblue" stroke="midnightblue" points="700.95,-251.48 690.59,-253.7 700.07,-258.42 700.95,-251.48"/>
</g>
<!-- Node18 -->
<g id="node18" class="node">
<title>Node18</title>
<g id="a_node18"><a xlink:title=" ">
<polygon fill="white" stroke="#bfbfbf" points="708.5,-235.5 708.5,-254.5 772.5,-254.5 772.5,-235.5 708.5,-235.5"/>
<text text-anchor="middle" x="740.5" y="-242.5" font-family="Helvetica,sans-Serif" font-size="10.00">algorithm</text>
</a>
</g>
</g>
<!-- Node16&#45;&gt;Node18 -->
<g id="edge19" class="edge">
<title>Node16&#45;&gt;Node18</title>
<path fill="none" stroke="midnightblue" d="M1412.96,-299.4C1310.42,-297.42 1027.49,-289.16 782.8,-254.97"/>
<polygon fill="midnightblue" stroke="midnightblue" points="783.04,-251.47 772.65,-253.53 782.06,-258.4 783.04,-251.47"/>
</g>
<!-- Node19 -->
<g id="node19" class="node">
<title>Node19</title>
<g id="a_node19"><a xlink:title=" ">
<polygon fill="white" stroke="#bfbfbf" points="790.5,-235.5 790.5,-254.5 828.5,-254.5 828.5,-235.5 790.5,-235.5"/>
<text text-anchor="middle" x="809.5" y="-242.5" font-family="Helvetica,sans-Serif" font-size="10.00">map</text>
</a>
</g>
</g>
<!-- Node16&#45;&gt;Node19 -->
<g id="edge20" class="edge">
<title>Node16&#45;&gt;Node19</title>
<path fill="none" stroke="midnightblue" d="M1412.86,-300.34C1315.92,-300.5 1059.28,-296.74 838.45,-254.71"/>
<polygon fill="midnightblue" stroke="midnightblue" points="839.11,-251.27 828.62,-252.81 837.78,-258.14 839.11,-251.27"/>
</g>
<!-- Node20 -->
<g id="node20" class="node">
<title>Node20</title>
<g id="a_node20"><a xlink:title=" ">
<polygon fill="white" stroke="#bfbfbf" points="847,-235.5 847,-254.5 950,-254.5 950,-235.5 847,-235.5"/>
<text text-anchor="middle" x="898.5" y="-242.5" font-family="Helvetica,sans-Serif" font-size="10.00">G4ThreeVector.hh</text>
</a>
</g>
</g>
<!-- Node16&#45;&gt;Node20 -->
<g id="edge21" class="edge">
<title>Node16&#45;&gt;Node20</title>
<path fill="none" stroke="midnightblue" d="M1412.72,-297.16C1330.28,-291.12 1134.58,-275.88 960.31,-255.16"/>
<polygon fill="midnightblue" stroke="midnightblue" points="960.53,-251.66 950.18,-253.95 959.7,-258.61 960.53,-251.66"/>
</g>
<!-- Node21 -->
<g id="node21" class="node">
<title>Node21</title>
<g id="a_node21"><a xlink:title=" ">
<polygon fill="white" stroke="#bfbfbf" points="968,-235.5 968,-254.5 1087,-254.5 1087,-235.5 968,-235.5"/>
<text text-anchor="middle" x="1027.5" y="-242.5" font-family="Helvetica,sans-Serif" font-size="10.00">G4TriangularFacet.hh</text>
</a>
</g>
</g>
<!-- Node16&#45;&gt;Node21 -->
<g id="edge22" class="edge">
<title>Node16&#45;&gt;Node21</title>
<path fill="none" stroke="midnightblue" d="M1412.98,-295.06C1349.08,-287.05 1218.81,-270.69 1097.54,-255.13"/>
<polygon fill="midnightblue" stroke="midnightblue" points="1097.7,-251.62 1087.34,-253.82 1096.81,-258.56 1097.7,-251.62"/>
</g>
<!-- Node22 -->
<g id="node22" class="node">
<title>Node22</title>
<g id="a_node22"><a xlink:title=" ">
<polygon fill="white" stroke="#bfbfbf" points="1105.5,-235.5 1105.5,-254.5 1163.5,-254.5 1163.5,-235.5 1105.5,-235.5"/>
<text text-anchor="middle" x="1134.5" y="-242.5" font-family="Helvetica,sans-Serif" font-size="10.00">memory</text>
</a>
</g>
</g>
<!-- Node16&#45;&gt;Node22 -->
<g id="edge23" class="edge">
<title>Node16&#45;&gt;Node22</title>
<path fill="none" stroke="midnightblue" d="M1412.92,-294.57C1360.45,-287.17 1264.77,-272.96 1173.83,-255.15"/>
<polygon fill="midnightblue" stroke="midnightblue" points="1174.4,-251.7 1163.91,-253.19 1173.04,-258.56 1174.4,-251.7"/>
</g>
<!-- Node23 -->
<g id="node23" class="node">
<title>Node23</title>
<g id="a_node23"><a xlink:title=" ">
<polygon fill="white" stroke="#bfbfbf" points="1182,-235.5 1182,-254.5 1229,-254.5 1229,-235.5 1182,-235.5"/>
<text text-anchor="middle" x="1205.5" y="-242.5" font-family="Helvetica,sans-Serif" font-size="10.00">vector</text>
</a>
</g>
</g>
<!-- Node16&#45;&gt;Node23 -->
<g id="edge24" class="edge">
<title>Node16&#45;&gt;Node23</title>
<path fill="none" stroke="midnightblue" d="M1412.9,-292.4C1371.85,-284.36 1305.6,-270.94 1239.07,-255.02"/>
<polygon fill="midnightblue" stroke="midnightblue" points="1239.79,-251.6 1229.25,-252.66 1238.15,-258.4 1239.79,-251.6"/>
</g>
<!-- Node24 -->
<g id="node24" class="node">
<title>Node24</title>
<g id="a_node24"><a xlink:title=" ">
<polygon fill="white" stroke="#bfbfbf" points="1247.5,-235.5 1247.5,-254.5 1307.5,-254.5 1307.5,-235.5 1247.5,-235.5"/>
<text text-anchor="middle" x="1277.5" y="-242.5" font-family="Helvetica,sans-Serif" font-size="10.00">iostream</text>
</a>
</g>
</g>
<!-- Node16&#45;&gt;Node24 -->
<g id="edge25" class="edge">
<title>Node16&#45;&gt;Node24</title>
<path fill="none" stroke="midnightblue" d="M1424.77,-291.44C1395.07,-282.28 1347.78,-267.69 1314.83,-257.52"/>
<polygon fill="midnightblue" stroke="midnightblue" points="1315.69,-254.12 1305.1,-254.52 1313.62,-260.81 1315.69,-254.12"/>
</g>
<!-- Node25 -->
<g id="node25" class="node">
<title>Node25</title>
<g id="a_node25"><a xlink:title=" ">
<polygon fill="white" stroke="#bfbfbf" points="1325.5,-235.5 1325.5,-254.5 1369.5,-254.5 1369.5,-235.5 1325.5,-235.5"/>
<text text-anchor="middle" x="1347.5" y="-242.5" font-family="Helvetica,sans-Serif" font-size="10.00">string</text>
</a>
</g>
</g>
<!-- Node16&#45;&gt;Node25 -->
<g id="edge26" class="edge">
<title>Node16&#45;&gt;Node25</title>
<path fill="none" stroke="midnightblue" d="M1435.63,-291.32C1418.79,-282.66 1392.69,-269.24 1373.26,-259.25"/>
<polygon fill="midnightblue" stroke="midnightblue" points="1374.82,-256.12 1364.33,-254.65 1371.62,-262.34 1374.82,-256.12"/>
</g>
<!-- Node26 -->
<g id="node26" class="node">
<title>Node26</title>
<g id="a_node26"><a xlink:title=" ">
<polygon fill="white" stroke="#bfbfbf" points="1387.5,-235.5 1387.5,-254.5 1517.5,-254.5 1517.5,-235.5 1387.5,-235.5"/>
<text text-anchor="middle" x="1452.5" y="-242.5" font-family="Helvetica,sans-Serif" font-size="10.00">G4AssemblyVolume.hh</text>
</a>
</g>
</g>
<!-- Node16&#45;&gt;Node26 -->
<g id="edge27" class="edge">
<title>Node16&#45;&gt;Node26</title>
<path fill="none" stroke="midnightblue" d="M1452.5,-291.08C1452.5,-284.01 1452.5,-273.86 1452.5,-264.99"/>
<polygon fill="midnightblue" stroke="midnightblue" points="1456,-264.75 1452.5,-254.75 1449,-264.75 1456,-264.75"/>
</g>
<!-- Node27 -->
<g id="node27" class="node">
<title>Node27</title>
<g id="a_node27"><a xlink:title=" ">
<polygon fill="white" stroke="#bfbfbf" points="1535.5,-235.5 1535.5,-254.5 1651.5,-254.5 1651.5,-235.5 1535.5,-235.5"/>
<text text-anchor="middle" x="1593.5" y="-242.5" font-family="Helvetica,sans-Serif" font-size="10.00">G4LogicalVolume.hh</text>
</a>
</g>
</g>
<!-- Node16&#45;&gt;Node27 -->
<g id="edge28" class="edge">
<title>Node16&#45;&gt;Node27</title>
<path fill="none" stroke="midnightblue" d="M1474.84,-291.44C1498.25,-282.48 1535.24,-268.31 1561.69,-258.18"/>
<polygon fill="midnightblue" stroke="midnightblue" points="1563.18,-261.36 1571.26,-254.52 1560.67,-254.82 1563.18,-261.36"/>
</g>
<!-- Node28 -->
<g id="node28" class="node">
<title>Node28</title>
<g id="a_node28"><a xlink:title=" ">
<polygon fill="white" stroke="#bfbfbf" points="1669.5,-235.5 1669.5,-254.5 1755.5,-254.5 1755.5,-235.5 1669.5,-235.5"/>
<text text-anchor="middle" x="1712.5" y="-242.5" font-family="Helvetica,sans-Serif" font-size="10.00">G4Material.hh</text>
</a>
</g>
</g>
<!-- Node16&#45;&gt;Node28 -->
<g id="edge29" class="edge">
<title>Node16&#45;&gt;Node28</title>
<path fill="none" stroke="midnightblue" d="M1492.27,-291.74C1537.65,-282.31 1611.98,-266.88 1661.57,-256.58"/>
<polygon fill="midnightblue" stroke="midnightblue" points="1662.37,-259.99 1671.45,-254.53 1660.94,-253.13 1662.37,-259.99"/>
</g>
<!-- Node29 -->
<g id="node29" class="node">
<title>Node29</title>
<g id="a_node29"><a xlink:title=" ">
<polygon fill="white" stroke="#bfbfbf" points="1773.5,-235.5 1773.5,-254.5 1897.5,-254.5 1897.5,-235.5 1773.5,-235.5"/>
<text text-anchor="middle" x="1835.5" y="-242.5" font-family="Helvetica,sans-Serif" font-size="10.00">G4TessellatedSolid.hh</text>
</a>
</g>
</g>
<!-- Node16&#45;&gt;Node29 -->
<g id="edge30" class="edge">
<title>Node16&#45;&gt;Node29</title>
<path fill="none" stroke="midnightblue" d="M1492.05,-292.57C1495.25,-292.02 1498.42,-291.49 1501.5,-291 1550.38,-283.22 1680.54,-266.07 1763.19,-255.33"/>
<polygon fill="midnightblue" stroke="midnightblue" points="1763.81,-258.78 1773.28,-254.02 1762.91,-251.84 1763.81,-258.78"/>
</g>
<!-- Node30 -->
<g id="node30" class="node">
<title>Node30</title>
<g id="a_node30"><a xlink:title=" ">
<polygon fill="white" stroke="#bfbfbf" points="1916,-235.5 1916,-254.5 1975,-254.5 1975,-235.5 1916,-235.5"/>
<text text-anchor="middle" x="1945.5" y="-242.5" font-family="Helvetica,sans-Serif" font-size="10.00">G4Tet.hh</text>
</a>
</g>
</g>
<!-- Node16&#45;&gt;Node30 -->
<g id="edge31" class="edge">
<title>Node16&#45;&gt;Node30</title>
<path fill="none" stroke="midnightblue" d="M1492.03,-292.41C1495.23,-291.9 1498.41,-291.42 1501.5,-291 1677.33,-267.09 1726.28,-282.79 1905.73,-254.89"/>
<polygon fill="midnightblue" stroke="midnightblue" points="1906.44,-258.32 1915.77,-253.31 1905.35,-251.41 1906.44,-258.32"/>
</g>
<!-- Node31 -->
<g id="node31" class="node">
<title>Node31</title>
<g id="a_node31"><a xlink:title=" ">
<polygon fill="white" stroke="#bfbfbf" points="1993.5,-235.5 1993.5,-254.5 2097.5,-254.5 2097.5,-235.5 1993.5,-235.5"/>
<text text-anchor="middle" x="2045.5" y="-242.5" font-family="Helvetica,sans-Serif" font-size="10.00">G4UIcommand.hh</text>
</a>
</g>
</g>
<!-- Node16&#45;&gt;Node31 -->
<g id="edge32" class="edge">
<title>Node16&#45;&gt;Node31</title>
<path fill="none" stroke="midnightblue" d="M1492.02,-292.36C1495.22,-291.86 1498.41,-291.4 1501.5,-291 1711.77,-263.93 1768.83,-278.27 1983.29,-255.05"/>
<polygon fill="midnightblue" stroke="midnightblue" points="1983.73,-258.53 1993.29,-253.96 1982.97,-251.57 1983.73,-258.53"/>
</g>
<!-- Node32 -->
<g id="node32" class="node">
<title>Node32</title>
<g id="a_node32"><a xlink:title=" ">
<polygon fill="white" stroke="#bfbfbf" points="2116,-235.5 2116,-254.5 2183,-254.5 2183,-235.5 2116,-235.5"/>
<text text-anchor="middle" x="2149.5" y="-242.5" font-family="Helvetica,sans-Serif" font-size="10.00">globals.hh</text>
</a>
</g>
</g>
<!-- Node16&#45;&gt;Node32 -->
<g id="edge33" class="edge">
<title>Node16&#45;&gt;Node32</title>
<path fill="none" stroke="midnightblue" d="M1492.02,-292.31C1495.22,-291.82 1498.41,-291.37 1501.5,-291 1765.65,-259 1837.76,-289.91 2105.75,-254.88"/>
<polygon fill="midnightblue" stroke="midnightblue" points="2106.33,-258.33 2115.78,-253.55 2105.41,-251.39 2106.33,-258.33"/>
</g>
<!-- Node33 -->
<g id="node33" class="node">
<title>Node33</title>
<g id="a_node33"><a xlink:title=" ">
<polygon fill="white" stroke="#bfbfbf" points="2201,-235.5 2201,-254.5 2256,-254.5 2256,-235.5 2201,-235.5"/>
<text text-anchor="middle" x="2228.5" y="-242.5" font-family="Helvetica,sans-Serif" font-size="10.00">fstream</text>
</a>
</g>
</g>
<!-- Node16&#45;&gt;Node33 -->
<g id="edge34" class="edge">
<title>Node16&#45;&gt;Node33</title>
<path fill="none" stroke="midnightblue" d="M1492.01,-292.29C1495.22,-291.8 1498.41,-291.36 1501.5,-291 1803.65,-255.53 1886.58,-299.54 2190.71,-255"/>
<polygon fill="midnightblue" stroke="midnightblue" points="2191.32,-258.44 2200.7,-253.51 2190.29,-251.52 2191.32,-258.44"/>
</g>
<!-- Node34 -->
<g id="node34" class="node">
<title>Node34</title>
<g id="a_node34"><a xlink:title=" ">
<polygon fill="white" stroke="#bfbfbf" points="2274.5,-235.5 2274.5,-254.5 2330.5,-254.5 2330.5,-235.5 2274.5,-235.5"/>
<text text-anchor="middle" x="2302.5" y="-242.5" font-family="Helvetica,sans-Serif" font-size="10.00">sstream</text>
</a>
</g>
</g>
<!-- Node16&#45;&gt;Node34 -->
<g id="edge35" class="edge">
<title>Node16&#45;&gt;Node34</title>
<path fill="none" stroke="midnightblue" d="M1492.01,-292.27C1495.21,-291.79 1498.41,-291.36 1501.5,-291 1835.91,-252.59 1927.25,-302.4 2264.28,-254.88"/>
<polygon fill="midnightblue" stroke="midnightblue" points="2264.92,-258.32 2274.33,-253.44 2263.93,-251.39 2264.92,-258.32"/>
</g>
<!-- Node35 -->
<g id="node35" class="node">
<title>Node35</title>
<g id="a_node35"><a xlink:title=" ">
<polygon fill="white" stroke="#bfbfbf" points="2349,-235.5 2349,-254.5 2416,-254.5 2416,-235.5 2349,-235.5"/>
<text text-anchor="middle" x="2382.5" y="-242.5" font-family="Helvetica,sans-Serif" font-size="10.00">streambuf</text>
</a>
</g>
</g>
<!-- Node16&#45;&gt;Node35 -->
<g id="edge36" class="edge">
<title>Node16&#45;&gt;Node35</title>
<path fill="none" stroke="midnightblue" d="M1492.01,-292.26C1495.21,-291.78 1498.41,-291.35 1501.5,-291 1868.68,-249.59 1967.87,-300.43 2338.85,-254.84"/>
<polygon fill="midnightblue" stroke="midnightblue" points="2339.3,-258.31 2348.79,-253.6 2338.43,-251.36 2339.3,-258.31"/>
</g>
<!-- Node36 -->
<g id="node36" class="node">
<title>Node36</title>
<g id="a_node36"><a xlink:title=" ">
<polygon fill="white" stroke="#bfbfbf" points="2434.5,-235.5 2434.5,-254.5 2520.5,-254.5 2520.5,-235.5 2434.5,-235.5"/>
<text text-anchor="middle" x="2477.5" y="-242.5" font-family="Helvetica,sans-Serif" font-size="10.00">Randomize.hh</text>
</a>
</g>
</g>
<!-- Node16&#45;&gt;Node36 -->
<g id="edge37" class="edge">
<title>Node16&#45;&gt;Node36</title>
<path fill="none" stroke="midnightblue" d="M1492.01,-292.24C1495.21,-291.77 1498.41,-291.34 1501.5,-291 1906.69,-246.13 2015.05,-297.3 2424.4,-254.96"/>
<polygon fill="midnightblue" stroke="midnightblue" points="2424.85,-258.43 2434.43,-253.91 2424.12,-251.47 2424.85,-258.43"/>
</g>
</g>
</svg>
