<?xml version="1.0" encoding="UTF-8" standalone="no"?>
<!DOCTYPE svg PUBLIC "-//W3C//DTD SVG 1.1//EN"
 "http://www.w3.org/Graphics/SVG/1.1/DTD/svg11.dtd">
<!-- Generated by graphviz version 2.43.0 (0)
 -->
<!-- Title: OMSimMDOMHarness.hh Pages: 1 -->
<svg width="1298pt" height="207pt"
 viewBox="0.00 0.00 1298.05 207.00" xmlns="http://www.w3.org/2000/svg" xmlns:xlink="http://www.w3.org/1999/xlink">
<g id="graph0" class="graph" transform="scale(1 1) rotate(0) translate(4 203)">
<title>OMSimMDOMHarness.hh</title>
<polygon fill="white" stroke="transparent" points="-4,4 -4,-203 1294.05,-203 1294.05,4 -4,4"/>
<!-- Node1 -->
<g id="node1" class="node">
<title>Node1</title>
<g id="a_node1"><a xlink:title=" ">
<polygon fill="#bfbfbf" stroke="black" points="518.55,-179.5 518.55,-198.5 658.55,-198.5 658.55,-179.5 518.55,-179.5"/>
<text text-anchor="middle" x="588.55" y="-186.5" font-family="Helvetica,sans-Serif" font-size="10.00">OMSimMDOMHarness.hh</text>
</a>
</g>
</g>
<!-- Node2 -->
<g id="node2" class="node">
<title>Node2</title>
<g id="a_node2"><a xlink:href="abc_detector_component_8hh.html" target="_top" xlink:title=" ">
<polygon fill="white" stroke="black" points="375.05,-123.5 375.05,-142.5 522.05,-142.5 522.05,-123.5 375.05,-123.5"/>
<text text-anchor="middle" x="448.55" y="-130.5" font-family="Helvetica,sans-Serif" font-size="10.00">abcDetectorComponent.hh</text>
</a>
</g>
</g>
<!-- Node1&#45;&gt;Node2 -->
<g id="edge1" class="edge">
<title>Node1&#45;&gt;Node2</title>
<path fill="none" stroke="midnightblue" d="M566.37,-179.44C543.12,-170.48 506.4,-156.31 480.14,-146.18"/>
<polygon fill="midnightblue" stroke="midnightblue" points="481.22,-142.85 470.63,-142.52 478.7,-149.38 481.22,-142.85"/>
</g>
<!-- Node3 -->
<g id="node3" class="node">
<title>Node3</title>
<g id="a_node3"><a xlink:title=" ">
<polygon fill="white" stroke="#bfbfbf" points="16.55,-67.5 16.55,-86.5 132.55,-86.5 132.55,-67.5 16.55,-67.5"/>
<text text-anchor="middle" x="74.55" y="-74.5" font-family="Helvetica,sans-Serif" font-size="10.00">G4LogicalVolume.hh</text>
</a>
</g>
</g>
<!-- Node1&#45;&gt;Node3 -->
<g id="edge17" class="edge">
<title>Node1&#45;&gt;Node3</title>
<path fill="none" stroke="midnightblue" d="M544.91,-179.47C499.92,-170.61 427.75,-156.22 365.55,-143 279.33,-124.67 179.07,-101.97 121.59,-88.82"/>
<polygon fill="midnightblue" stroke="midnightblue" points="122.24,-85.38 111.71,-86.56 120.67,-92.2 122.24,-85.38"/>
</g>
<!-- Node4 -->
<g id="node4" class="node">
<title>Node4</title>
<g id="a_node4"><a xlink:title=" ">
<polygon fill="white" stroke="#bfbfbf" points="101.05,-6 101.05,-25 220.05,-25 220.05,-6 101.05,-6"/>
<text text-anchor="middle" x="160.55" y="-13" font-family="Helvetica,sans-Serif" font-size="10.00">G4SystemOfUnits.hh</text>
</a>
</g>
</g>
<!-- Node1&#45;&gt;Node4 -->
<g id="edge18" class="edge">
<title>Node1&#45;&gt;Node4</title>
<path fill="none" stroke="midnightblue" d="M518.45,-186.8C378.15,-182.75 70.81,-164.96 7.55,-87 -20.36,-52.6 38.33,-34.22 90.91,-24.95"/>
<polygon fill="midnightblue" stroke="midnightblue" points="91.69,-28.37 100.98,-23.27 90.54,-21.47 91.69,-28.37"/>
</g>
<!-- Node7 -->
<g id="node7" class="node">
<title>Node7</title>
<g id="a_node7"><a xlink:href="_o_m_sim_input_data_8hh.html" target="_top" xlink:title=" ">
<polygon fill="white" stroke="black" points="903.05,-67.5 903.05,-86.5 1018.05,-86.5 1018.05,-67.5 903.05,-67.5"/>
<text text-anchor="middle" x="960.55" y="-74.5" font-family="Helvetica,sans-Serif" font-size="10.00">OMSimInputData.hh</text>
</a>
</g>
</g>
<!-- Node1&#45;&gt;Node7 -->
<g id="edge21" class="edge">
<title>Node1&#45;&gt;Node7</title>
<path fill="none" stroke="midnightblue" d="M581.47,-179.29C571.25,-165.65 555.13,-139.12 569.55,-123 615.98,-71.13 805.97,-93.85 892.76,-86.85"/>
<polygon fill="midnightblue" stroke="midnightblue" points="893.22,-90.32 902.82,-85.84 892.52,-83.36 893.22,-90.32"/>
</g>
<!-- Node17 -->
<g id="node17" class="node">
<title>Node17</title>
<g id="a_node17"><a xlink:title=" ">
<polygon fill="white" stroke="#bfbfbf" points="578.55,-123.5 578.55,-142.5 676.55,-142.5 676.55,-123.5 578.55,-123.5"/>
<text text-anchor="middle" x="627.55" y="-130.5" font-family="Helvetica,sans-Serif" font-size="10.00">G4UnionSolid.hh</text>
</a>
</g>
</g>
<!-- Node1&#45;&gt;Node17 -->
<g id="edge19" class="edge">
<title>Node1&#45;&gt;Node17</title>
<path fill="none" stroke="midnightblue" d="M594.99,-179.08C600.5,-171.46 608.58,-160.26 615.32,-150.94"/>
<polygon fill="midnightblue" stroke="midnightblue" points="618.22,-152.91 621.23,-142.75 612.54,-148.81 618.22,-152.91"/>
</g>
<!-- Node18 -->
<g id="node18" class="node">
<title>Node18</title>
<g id="a_node18"><a xlink:title=" ">
<polygon fill="white" stroke="#bfbfbf" points="695.05,-123.5 695.05,-142.5 822.05,-142.5 822.05,-123.5 695.05,-123.5"/>
<text text-anchor="middle" x="758.55" y="-130.5" font-family="Helvetica,sans-Serif" font-size="10.00">G4IntersectionSolid.hh</text>
</a>
</g>
</g>
<!-- Node1&#45;&gt;Node18 -->
<g id="edge20" class="edge">
<title>Node1&#45;&gt;Node18</title>
<path fill="none" stroke="midnightblue" d="M615.49,-179.44C644.21,-170.32 689.88,-155.81 721.87,-145.65"/>
<polygon fill="midnightblue" stroke="midnightblue" points="723.27,-148.88 731.74,-142.52 721.15,-142.21 723.27,-148.88"/>
</g>
<!-- Node19 -->
<g id="node19" class="node">
<title>Node19</title>
<g id="a_node19"><a xlink:title=" ">
<polygon fill="white" stroke="#bfbfbf" points="840.05,-123.5 840.05,-142.5 909.05,-142.5 909.05,-123.5 840.05,-123.5"/>
<text text-anchor="middle" x="874.55" y="-130.5" font-family="Helvetica,sans-Serif" font-size="10.00">G4Cons.hh</text>
</a>
</g>
</g>
<!-- Node1&#45;&gt;Node19 -->
<g id="edge22" class="edge">
<title>Node1&#45;&gt;Node19</title>
<path fill="none" stroke="midnightblue" d="M635.9,-179.45C682.62,-170.96 756.35,-157.41 830.05,-143.07"/>
<polygon fill="midnightblue" stroke="midnightblue" points="830.83,-146.48 839.98,-141.13 829.49,-139.61 830.83,-146.48"/>
</g>
<!-- Node20 -->
<g id="node20" class="node">
<title>Node20</title>
<g id="a_node20"><a xlink:title=" ">
<polygon fill="white" stroke="#bfbfbf" points="927.05,-123.5 927.05,-142.5 994.05,-142.5 994.05,-123.5 927.05,-123.5"/>
<text text-anchor="middle" x="960.55" y="-130.5" font-family="Helvetica,sans-Serif" font-size="10.00">G4Tubs.hh</text>
</a>
</g>
</g>
<!-- Node1&#45;&gt;Node20 -->
<g id="edge23" class="edge">
<title>Node1&#45;&gt;Node20</title>
<path fill="none" stroke="midnightblue" d="M658.73,-179.85C723.21,-172.04 821.64,-159.27 916.72,-143.04"/>
<polygon fill="midnightblue" stroke="midnightblue" points="917.53,-146.45 926.8,-141.3 916.35,-139.55 917.53,-146.45"/>
</g>
<!-- Node2&#45;&gt;Node3 -->
<g id="edge2" class="edge">
<title>Node2&#45;&gt;Node3</title>
<path fill="none" stroke="midnightblue" d="M389.29,-123.44C322.25,-113.76 213.25,-98.03 142.73,-87.84"/>
<polygon fill="midnightblue" stroke="midnightblue" points="143.01,-84.35 132.61,-86.38 142.01,-91.28 143.01,-84.35"/>
</g>
<!-- Node2&#45;&gt;Node4 -->
<g id="edge3" class="edge">
<title>Node2&#45;&gt;Node4</title>
<path fill="none" stroke="midnightblue" d="M374.95,-128.48C305.37,-123.63 207.57,-112.41 179.55,-87 165.35,-74.12 161.3,-51.84 160.36,-35.77"/>
<polygon fill="midnightblue" stroke="midnightblue" points="163.85,-35.31 160.13,-25.39 156.85,-35.47 163.85,-35.31"/>
</g>
<!-- Node5 -->
<g id="node5" class="node">
<title>Node5</title>
<g id="a_node5"><a xlink:title=" ">
<polygon fill="white" stroke="#bfbfbf" points="651.05,-67.5 651.05,-86.5 758.05,-86.5 758.05,-67.5 651.05,-67.5"/>
<text text-anchor="middle" x="704.55" y="-74.5" font-family="Helvetica,sans-Serif" font-size="10.00">G4Transform3D.hh</text>
</a>
</g>
</g>
<!-- Node2&#45;&gt;Node5 -->
<g id="edge4" class="edge">
<title>Node2&#45;&gt;Node5</title>
<path fill="none" stroke="midnightblue" d="M489.12,-123.44C533.87,-114 605.94,-98.8 654.25,-88.61"/>
<polygon fill="midnightblue" stroke="midnightblue" points="655.12,-92.01 664.18,-86.52 653.67,-85.16 655.12,-92.01"/>
</g>
<!-- Node6 -->
<g id="node6" class="node">
<title>Node6</title>
<g id="a_node6"><a xlink:title=" ">
<polygon fill="white" stroke="#bfbfbf" points="776.55,-67.5 776.55,-86.5 884.55,-86.5 884.55,-67.5 776.55,-67.5"/>
<text text-anchor="middle" x="830.55" y="-74.5" font-family="Helvetica,sans-Serif" font-size="10.00">G4VisAttributes.hh</text>
</a>
</g>
</g>
<!-- Node2&#45;&gt;Node6 -->
<g id="edge5" class="edge">
<title>Node2&#45;&gt;Node6</title>
<path fill="none" stroke="midnightblue" d="M509.08,-123.44C579.26,-113.52 694.46,-97.24 766.22,-87.09"/>
<polygon fill="midnightblue" stroke="midnightblue" points="767.07,-90.51 776.48,-85.64 766.09,-83.58 767.07,-90.51"/>
</g>
<!-- Node2&#45;&gt;Node7 -->
<g id="edge6" class="edge">
<title>Node2&#45;&gt;Node7</title>
<path fill="none" stroke="midnightblue" d="M522.49,-124.43C527.25,-123.95 531.97,-123.47 536.55,-123 691.95,-107.22 733.48,-105.68 892.67,-87.07"/>
<polygon fill="midnightblue" stroke="midnightblue" points="893.3,-90.52 902.83,-85.88 892.49,-83.57 893.3,-90.52"/>
</g>
<!-- Node13 -->
<g id="node13" class="node">
<title>Node13</title>
<g id="a_node13"><a xlink:title=" ">
<polygon fill="white" stroke="#bfbfbf" points="189.05,-67.5 189.05,-86.5 314.05,-86.5 314.05,-67.5 189.05,-67.5"/>
<text text-anchor="middle" x="251.55" y="-74.5" font-family="Helvetica,sans-Serif" font-size="10.00">G4SubtractionSolid.hh</text>
</a>
</g>
</g>
<!-- Node2&#45;&gt;Node13 -->
<g id="edge13" class="edge">
<title>Node2&#45;&gt;Node13</title>
<path fill="none" stroke="midnightblue" d="M417.34,-123.44C383.62,-114.2 329.75,-99.44 292.62,-89.26"/>
<polygon fill="midnightblue" stroke="midnightblue" points="293.19,-85.78 282.62,-86.52 291.34,-92.54 293.19,-85.78"/>
</g>
<!-- Node14 -->
<g id="node14" class="node">
<title>Node14</title>
<g id="a_node14"><a xlink:title=" ">
<polygon fill="white" stroke="#bfbfbf" points="332.55,-67.5 332.55,-86.5 442.55,-86.5 442.55,-67.5 332.55,-67.5"/>
<text text-anchor="middle" x="387.55" y="-74.5" font-family="Helvetica,sans-Serif" font-size="10.00">G4PVPlacement.hh</text>
</a>
</g>
</g>
<!-- Node2&#45;&gt;Node14 -->
<g id="edge14" class="edge">
<title>Node2&#45;&gt;Node14</title>
<path fill="none" stroke="midnightblue" d="M438.75,-123.32C429.74,-115.34 416.15,-103.31 405.24,-93.65"/>
<polygon fill="midnightblue" stroke="midnightblue" points="407.34,-90.84 397.53,-86.83 402.7,-96.08 407.34,-90.84"/>
</g>
<!-- Node15 -->
<g id="node15" class="node">
<title>Node15</title>
<g id="a_node15"><a xlink:title=" ">
<polygon fill="white" stroke="#bfbfbf" points="460.55,-67.5 460.55,-86.5 558.55,-86.5 558.55,-67.5 460.55,-67.5"/>
<text text-anchor="middle" x="509.55" y="-74.5" font-family="Helvetica,sans-Serif" font-size="10.00">G4MultiUnion.hh</text>
</a>
</g>
</g>
<!-- Node2&#45;&gt;Node15 -->
<g id="edge15" class="edge">
<title>Node2&#45;&gt;Node15</title>
<path fill="none" stroke="midnightblue" d="M458.35,-123.32C467.37,-115.34 480.96,-103.31 491.87,-93.65"/>
<polygon fill="midnightblue" stroke="midnightblue" points="494.41,-96.08 499.57,-86.83 489.77,-90.84 494.41,-96.08"/>
</g>
<!-- Node16 -->
<g id="node16" class="node">
<title>Node16</title>
<g id="a_node16"><a xlink:title=" ">
<polygon fill="white" stroke="#bfbfbf" points="576.55,-67.5 576.55,-86.5 632.55,-86.5 632.55,-67.5 576.55,-67.5"/>
<text text-anchor="middle" x="604.55" y="-74.5" font-family="Helvetica,sans-Serif" font-size="10.00">sstream</text>
</a>
</g>
</g>
<!-- Node2&#45;&gt;Node16 -->
<g id="edge16" class="edge">
<title>Node2&#45;&gt;Node16</title>
<path fill="none" stroke="midnightblue" d="M473.27,-123.44C499.4,-114.4 540.81,-100.06 570.13,-89.92"/>
<polygon fill="midnightblue" stroke="midnightblue" points="571.65,-93.1 579.95,-86.52 569.36,-86.48 571.65,-93.1"/>
</g>
<!-- Node7&#45;&gt;Node4 -->
<g id="edge12" class="edge">
<title>Node7&#45;&gt;Node4</title>
<path fill="none" stroke="midnightblue" d="M902.84,-68.01C899.7,-67.65 896.59,-67.31 893.55,-67 650.76,-42.36 361.47,-26.34 230.79,-19.82"/>
<polygon fill="midnightblue" stroke="midnightblue" points="230.68,-16.31 220.52,-19.31 230.34,-23.3 230.68,-16.31"/>
</g>
<!-- Node8 -->
<g id="node8" class="node">
<title>Node8</title>
<g id="a_node8"><a xlink:title=" ">
<polygon fill="white" stroke="#bfbfbf" points="655.05,-0.5 655.05,-30.5 768.05,-30.5 768.05,-0.5 655.05,-0.5"/>
<text text-anchor="start" x="663.05" y="-18.5" font-family="Helvetica,sans-Serif" font-size="10.00">boost/property_tree</text>
<text text-anchor="middle" x="711.55" y="-7.5" font-family="Helvetica,sans-Serif" font-size="10.00">/ptree.hpp</text>
</a>
</g>
</g>
<!-- Node7&#45;&gt;Node8 -->
<g id="edge7" class="edge">
<title>Node7&#45;&gt;Node8</title>
<path fill="none" stroke="midnightblue" d="M924.88,-67.48C886.71,-58.36 825.31,-43.68 778.16,-32.42"/>
<polygon fill="midnightblue" stroke="midnightblue" points="778.87,-28.99 768.33,-30.07 777.24,-35.79 778.87,-28.99"/>
</g>
<!-- Node9 -->
<g id="node9" class="node">
<title>Node9</title>
<g id="a_node9"><a xlink:title=" ">
<polygon fill="white" stroke="#bfbfbf" points="786.05,-0.5 786.05,-30.5 899.05,-30.5 899.05,-0.5 786.05,-0.5"/>
<text text-anchor="start" x="794.05" y="-18.5" font-family="Helvetica,sans-Serif" font-size="10.00">boost/property_tree</text>
<text text-anchor="middle" x="842.55" y="-7.5" font-family="Helvetica,sans-Serif" font-size="10.00">/json_parser.hpp</text>
</a>
</g>
</g>
<!-- Node7&#45;&gt;Node9 -->
<g id="edge8" class="edge">
<title>Node7&#45;&gt;Node9</title>
<path fill="none" stroke="midnightblue" d="M943.65,-67.48C926.99,-59.08 901,-45.97 879.55,-35.15"/>
<polygon fill="midnightblue" stroke="midnightblue" points="880.87,-31.9 870.36,-30.52 877.72,-38.15 880.87,-31.9"/>
</g>
<!-- Node10 -->
<g id="node10" class="node">
<title>Node10</title>
<g id="a_node10"><a xlink:title=" ">
<polygon fill="white" stroke="#bfbfbf" points="917.55,-6 917.55,-25 1003.55,-25 1003.55,-6 917.55,-6"/>
<text text-anchor="middle" x="960.55" y="-13" font-family="Helvetica,sans-Serif" font-size="10.00">G4Material.hh</text>
</a>
</g>
</g>
<!-- Node7&#45;&gt;Node10 -->
<g id="edge9" class="edge">
<title>Node7&#45;&gt;Node10</title>
<path fill="none" stroke="midnightblue" d="M960.55,-67.48C960.55,-59.08 960.55,-45.98 960.55,-35.16"/>
<polygon fill="midnightblue" stroke="midnightblue" points="964.05,-35.01 960.55,-25.01 957.05,-35.01 964.05,-35.01"/>
</g>
<!-- Node11 -->
<g id="node11" class="node">
<title>Node11</title>
<g id="a_node11"><a xlink:title=" ">
<polygon fill="white" stroke="#bfbfbf" points="1022.05,-6 1022.05,-25 1129.05,-25 1129.05,-6 1022.05,-6"/>
<text text-anchor="middle" x="1075.55" y="-13" font-family="Helvetica,sans-Serif" font-size="10.00">G4NistManager.hh</text>
</a>
</g>
</g>
<!-- Node7&#45;&gt;Node11 -->
<g id="edge10" class="edge">
<title>Node7&#45;&gt;Node11</title>
<path fill="none" stroke="midnightblue" d="M977.03,-67.48C996.16,-57.58 1027.93,-41.14 1050.2,-29.62"/>
<polygon fill="midnightblue" stroke="midnightblue" points="1051.83,-32.71 1059.11,-25.01 1048.62,-26.5 1051.83,-32.71"/>
</g>
<!-- Node12 -->
<g id="node12" class="node">
<title>Node12</title>
<g id="a_node12"><a xlink:title=" ">
<polygon fill="white" stroke="#bfbfbf" points="1147.05,-6 1147.05,-25 1290.05,-25 1290.05,-6 1147.05,-6"/>
<text text-anchor="middle" x="1218.55" y="-13" font-family="Helvetica,sans-Serif" font-size="10.00">G4OpBoundaryProcess.hh</text>
</a>
</g>
</g>
<!-- Node7&#45;&gt;Node12 -->
<g id="edge11" class="edge">
<title>Node7&#45;&gt;Node12</title>
<path fill="none" stroke="midnightblue" d="M997.52,-67.48C1043.4,-56.89 1121.7,-38.84 1171.74,-27.3"/>
<polygon fill="midnightblue" stroke="midnightblue" points="1172.7,-30.67 1181.66,-25.01 1171.13,-23.85 1172.7,-30.67"/>
</g>
</g>
</svg>
