<?xml version="1.0" encoding="UTF-8" standalone="no"?>
<!DOCTYPE svg PUBLIC "-//W3C//DTD SVG 1.1//EN"
 "http://www.w3.org/Graphics/SVG/1.1/DTD/svg11.dtd">
<!-- Generated by graphviz version 2.43.0 (0)
 -->
<!-- Title: OMSimLOM18.cc Pages: 1 -->
<svg width="2770pt" height="375pt"
 viewBox="0.00 0.00 2769.50 375.00" xmlns="http://www.w3.org/2000/svg" xmlns:xlink="http://www.w3.org/1999/xlink">
<g id="graph0" class="graph" transform="scale(1 1) rotate(0) translate(4 371)">
<title>OMSimLOM18.cc</title>
<polygon fill="white" stroke="transparent" points="-4,4 -4,-371 2765.5,-371 2765.5,4 -4,4"/>
<!-- Node1 -->
<g id="node1" class="node">
<title>Node1</title>
<g id="a_node1"><a xlink:title="Construction of LOM18.">
<polygon fill="#bfbfbf" stroke="black" points="2186,-347.5 2186,-366.5 2285,-366.5 2285,-347.5 2186,-347.5"/>
<text text-anchor="middle" x="2235.5" y="-354.5" font-family="Helvetica,sans-Serif" font-size="10.00">OMSimLOM18.cc</text>
</a>
</g>
</g>
<!-- Node2 -->
<g id="node2" class="node">
<title>Node2</title>
<g id="a_node2"><a xlink:href="_o_m_sim_l_o_m18_8hh.html" target="_top" xlink:title=" ">
<polygon fill="white" stroke="black" points="611,-291.5 611,-310.5 712,-310.5 712,-291.5 611,-291.5"/>
<text text-anchor="middle" x="661.5" y="-298.5" font-family="Helvetica,sans-Serif" font-size="10.00">OMSimLOM18.hh</text>
</a>
</g>
</g>
<!-- Node1&#45;&gt;Node2 -->
<g id="edge1" class="edge">
<title>Node1&#45;&gt;Node2</title>
<path fill="none" stroke="midnightblue" d="M2185.79,-354.29C1953.6,-346.33 976.38,-312.8 722.16,-304.08"/>
<polygon fill="midnightblue" stroke="midnightblue" points="722.12,-300.58 712.01,-303.73 721.88,-307.57 722.12,-300.58"/>
</g>
<!-- Node18 -->
<g id="node18" class="node">
<title>Node18</title>
<g id="a_node18"><a xlink:href="_c_a_d_mesh_8hh.html" target="_top" xlink:title=" ">
<polygon fill="white" stroke="black" points="1654,-291.5 1654,-310.5 1733,-310.5 1733,-291.5 1654,-291.5"/>
<text text-anchor="middle" x="1693.5" y="-298.5" font-family="Helvetica,sans-Serif" font-size="10.00">CADMesh.hh</text>
</a>
</g>
</g>
<!-- Node1&#45;&gt;Node18 -->
<g id="edge19" class="edge">
<title>Node1&#45;&gt;Node18</title>
<path fill="none" stroke="midnightblue" d="M2185.96,-351.06C2082.88,-340.79 1846.34,-317.23 1743.15,-306.95"/>
<polygon fill="midnightblue" stroke="midnightblue" points="1743.3,-303.44 1733,-305.94 1742.61,-310.41 1743.3,-303.44"/>
</g>
<!-- Node38 -->
<g id="node38" class="node">
<title>Node38</title>
<g id="a_node38"><a xlink:href="_o_m_sim_logger_8hh.html" target="_top" xlink:title=" ">
<polygon fill="white" stroke="black" points="2186,-291.5 2186,-310.5 2285,-310.5 2285,-291.5 2186,-291.5"/>
<text text-anchor="middle" x="2235.5" y="-298.5" font-family="Helvetica,sans-Serif" font-size="10.00">OMSimLogger.hh</text>
</a>
</g>
</g>
<!-- Node1&#45;&gt;Node38 -->
<g id="edge40" class="edge">
<title>Node1&#45;&gt;Node38</title>
<path fill="none" stroke="midnightblue" d="M2235.5,-347.08C2235.5,-340.01 2235.5,-329.86 2235.5,-320.99"/>
<polygon fill="midnightblue" stroke="midnightblue" points="2239,-320.75 2235.5,-310.75 2232,-320.75 2239,-320.75"/>
</g>
<!-- Node41 -->
<g id="node41" class="node">
<title>Node41</title>
<g id="a_node41"><a xlink:title=" ">
<polygon fill="white" stroke="#bfbfbf" points="2303,-291.5 2303,-310.5 2372,-310.5 2372,-291.5 2303,-291.5"/>
<text text-anchor="middle" x="2337.5" y="-298.5" font-family="Helvetica,sans-Serif" font-size="10.00">G4Cons.hh</text>
</a>
</g>
</g>
<!-- Node1&#45;&gt;Node41 -->
<g id="edge43" class="edge">
<title>Node1&#45;&gt;Node41</title>
<path fill="none" stroke="midnightblue" d="M2251.89,-347.32C2268.17,-338.7 2293.37,-325.36 2312.22,-315.39"/>
<polygon fill="midnightblue" stroke="midnightblue" points="2313.95,-318.43 2321.15,-310.65 2310.68,-312.24 2313.95,-318.43"/>
</g>
<!-- Node42 -->
<g id="node42" class="node">
<title>Node42</title>
<g id="a_node42"><a xlink:title=" ">
<polygon fill="white" stroke="#bfbfbf" points="2390,-291.5 2390,-310.5 2517,-310.5 2517,-291.5 2390,-291.5"/>
<text text-anchor="middle" x="2453.5" y="-298.5" font-family="Helvetica,sans-Serif" font-size="10.00">G4IntersectionSolid.hh</text>
</a>
</g>
</g>
<!-- Node1&#45;&gt;Node42 -->
<g id="edge44" class="edge">
<title>Node1&#45;&gt;Node42</title>
<path fill="none" stroke="midnightblue" d="M2270.04,-347.44C2307.75,-338.1 2368.24,-323.12 2409.36,-312.93"/>
<polygon fill="midnightblue" stroke="midnightblue" points="2410.25,-316.32 2419.12,-310.52 2408.57,-309.52 2410.25,-316.32"/>
</g>
<!-- Node3 -->
<g id="node3" class="node">
<title>Node3</title>
<g id="a_node3"><a xlink:href="_o_m_sim_p_m_t_construction_8hh.html" target="_top" xlink:title=" ">
<polygon fill="white" stroke="black" points="514,-179.5 514,-198.5 663,-198.5 663,-179.5 514,-179.5"/>
<text text-anchor="middle" x="588.5" y="-186.5" font-family="Helvetica,sans-Serif" font-size="10.00">OMSimPMTConstruction.hh</text>
</a>
</g>
</g>
<!-- Node2&#45;&gt;Node3 -->
<g id="edge2" class="edge">
<title>Node2&#45;&gt;Node3</title>
<path fill="none" stroke="midnightblue" d="M647.04,-291.44C634.8,-283.47 617.67,-270.51 607.5,-255 598.34,-241.02 593.49,-222.52 590.99,-208.83"/>
<polygon fill="midnightblue" stroke="midnightblue" points="594.41,-208.01 589.4,-198.67 587.49,-209.09 594.41,-208.01"/>
</g>
<!-- Node15 -->
<g id="node15" class="node">
<title>Node15</title>
<g id="a_node15"><a xlink:href="_o_m_sim_optical_module_8hh.html" target="_top" xlink:title=" ">
<polygon fill="white" stroke="black" points="423,-235.5 423,-254.5 560,-254.5 560,-235.5 423,-235.5"/>
<text text-anchor="middle" x="491.5" y="-242.5" font-family="Helvetica,sans-Serif" font-size="10.00">OMSimOpticalModule.hh</text>
</a>
</g>
</g>
<!-- Node2&#45;&gt;Node15 -->
<g id="edge14" class="edge">
<title>Node2&#45;&gt;Node15</title>
<path fill="none" stroke="midnightblue" d="M634.56,-291.44C605.84,-282.32 560.17,-267.81 528.18,-257.65"/>
<polygon fill="midnightblue" stroke="midnightblue" points="528.9,-254.21 518.31,-254.52 526.78,-260.88 528.9,-254.21"/>
</g>
<!-- Node16 -->
<g id="node16" class="node">
<title>Node16</title>
<g id="a_node16"><a xlink:title=" ">
<polygon fill="white" stroke="#bfbfbf" points="723.5,-235.5 723.5,-254.5 839.5,-254.5 839.5,-235.5 723.5,-235.5"/>
<text text-anchor="middle" x="781.5" y="-242.5" font-family="Helvetica,sans-Serif" font-size="10.00">G4LogicalVolume.hh</text>
</a>
</g>
</g>
<!-- Node2&#45;&gt;Node16 -->
<g id="edge17" class="edge">
<title>Node2&#45;&gt;Node16</title>
<path fill="none" stroke="midnightblue" d="M680.51,-291.44C700.09,-282.64 730.81,-268.81 753.23,-258.72"/>
<polygon fill="midnightblue" stroke="midnightblue" points="754.89,-261.81 762.57,-254.52 752.02,-255.43 754.89,-261.81"/>
</g>
<!-- Node17 -->
<g id="node17" class="node">
<title>Node17</title>
<g id="a_node17"><a xlink:title=" ">
<polygon fill="white" stroke="#bfbfbf" points="617,-235.5 617,-254.5 706,-254.5 706,-235.5 617,-235.5"/>
<text text-anchor="middle" x="661.5" y="-242.5" font-family="Helvetica,sans-Serif" font-size="10.00">G4Polycone.hh</text>
</a>
</g>
</g>
<!-- Node2&#45;&gt;Node17 -->
<g id="edge18" class="edge">
<title>Node2&#45;&gt;Node17</title>
<path fill="none" stroke="midnightblue" d="M661.5,-291.08C661.5,-284.01 661.5,-273.86 661.5,-264.99"/>
<polygon fill="midnightblue" stroke="midnightblue" points="665,-264.75 661.5,-254.75 658,-264.75 665,-264.75"/>
</g>
<!-- Node4 -->
<g id="node4" class="node">
<title>Node4</title>
<g id="a_node4"><a xlink:href="abc_detector_component_8hh.html" target="_top" xlink:title=" ">
<polygon fill="white" stroke="black" points="384,-123.5 384,-142.5 531,-142.5 531,-123.5 384,-123.5"/>
<text text-anchor="middle" x="457.5" y="-130.5" font-family="Helvetica,sans-Serif" font-size="10.00">abcDetectorComponent.hh</text>
</a>
</g>
</g>
<!-- Node3&#45;&gt;Node4 -->
<g id="edge3" class="edge">
<title>Node3&#45;&gt;Node4</title>
<path fill="none" stroke="midnightblue" d="M567.74,-179.44C546.18,-170.56 512.24,-156.56 487.71,-146.45"/>
<polygon fill="midnightblue" stroke="midnightblue" points="488.74,-143.09 478.16,-142.52 486.07,-149.56 488.74,-143.09"/>
</g>
<!-- Node13 -->
<g id="node13" class="node">
<title>Node13</title>
<g id="a_node13"><a xlink:title=" ">
<polygon fill="white" stroke="#bfbfbf" points="549.5,-123.5 549.5,-142.5 647.5,-142.5 647.5,-123.5 549.5,-123.5"/>
<text text-anchor="middle" x="598.5" y="-130.5" font-family="Helvetica,sans-Serif" font-size="10.00">G4UnionSolid.hh</text>
</a>
</g>
</g>
<!-- Node3&#45;&gt;Node13 -->
<g id="edge12" class="edge">
<title>Node3&#45;&gt;Node13</title>
<path fill="none" stroke="midnightblue" d="M590.15,-179.08C591.48,-171.93 593.38,-161.64 595.04,-152.69"/>
<polygon fill="midnightblue" stroke="midnightblue" points="598.5,-153.22 596.88,-142.75 591.62,-151.95 598.5,-153.22"/>
</g>
<!-- Node14 -->
<g id="node14" class="node">
<title>Node14</title>
<g id="a_node14"><a xlink:title=" ">
<polygon fill="white" stroke="#bfbfbf" points="666,-123.5 666,-142.5 733,-142.5 733,-123.5 666,-123.5"/>
<text text-anchor="middle" x="699.5" y="-130.5" font-family="Helvetica,sans-Serif" font-size="10.00">G4Tubs.hh</text>
</a>
</g>
</g>
<!-- Node3&#45;&gt;Node14 -->
<g id="edge13" class="edge">
<title>Node3&#45;&gt;Node14</title>
<path fill="none" stroke="midnightblue" d="M606.33,-179.32C624.22,-170.62 651.98,-157.12 672.55,-147.11"/>
<polygon fill="midnightblue" stroke="midnightblue" points="674.25,-150.18 681.71,-142.65 671.19,-143.88 674.25,-150.18"/>
</g>
<!-- Node5 -->
<g id="node5" class="node">
<title>Node5</title>
<g id="a_node5"><a xlink:href="_o_m_sim_input_data_8hh.html" target="_top" xlink:title=" ">
<polygon fill="white" stroke="black" points="145,-67.5 145,-86.5 260,-86.5 260,-67.5 145,-67.5"/>
<text text-anchor="middle" x="202.5" y="-74.5" font-family="Helvetica,sans-Serif" font-size="10.00">OMSimInputData.hh</text>
</a>
</g>
</g>
<!-- Node4&#45;&gt;Node5 -->
<g id="edge4" class="edge">
<title>Node4&#45;&gt;Node5</title>
<path fill="none" stroke="midnightblue" d="M417.09,-123.44C372.52,-114 300.73,-98.8 252.61,-88.61"/>
<polygon fill="midnightblue" stroke="midnightblue" points="253.22,-85.16 242.72,-86.52 251.77,-92.01 253.22,-85.16"/>
</g>
<!-- Node9 -->
<g id="node9" class="node">
<title>Node9</title>
<g id="a_node9"><a xlink:title=" ">
<polygon fill="white" stroke="#bfbfbf" points="278,-67.5 278,-86.5 385,-86.5 385,-67.5 278,-67.5"/>
<text text-anchor="middle" x="331.5" y="-74.5" font-family="Helvetica,sans-Serif" font-size="10.00">G4Transform3D.hh</text>
</a>
</g>
</g>
<!-- Node4&#45;&gt;Node9 -->
<g id="edge8" class="edge">
<title>Node4&#45;&gt;Node9</title>
<path fill="none" stroke="midnightblue" d="M437.53,-123.44C416.89,-114.6 384.44,-100.69 360.87,-90.59"/>
<polygon fill="midnightblue" stroke="midnightblue" points="361.94,-87.24 351.37,-86.52 359.18,-93.67 361.94,-87.24"/>
</g>
<!-- Node10 -->
<g id="node10" class="node">
<title>Node10</title>
<g id="a_node10"><a xlink:title=" ">
<polygon fill="white" stroke="#bfbfbf" points="403.5,-67.5 403.5,-86.5 511.5,-86.5 511.5,-67.5 403.5,-67.5"/>
<text text-anchor="middle" x="457.5" y="-74.5" font-family="Helvetica,sans-Serif" font-size="10.00">G4VisAttributes.hh</text>
</a>
</g>
</g>
<!-- Node4&#45;&gt;Node10 -->
<g id="edge9" class="edge">
<title>Node4&#45;&gt;Node10</title>
<path fill="none" stroke="midnightblue" d="M457.5,-123.08C457.5,-116.01 457.5,-105.86 457.5,-96.99"/>
<polygon fill="midnightblue" stroke="midnightblue" points="461,-96.75 457.5,-86.75 454,-96.75 461,-96.75"/>
</g>
<!-- Node11 -->
<g id="node11" class="node">
<title>Node11</title>
<g id="a_node11"><a xlink:title=" ">
<polygon fill="white" stroke="#bfbfbf" points="530,-67.5 530,-86.5 655,-86.5 655,-67.5 530,-67.5"/>
<text text-anchor="middle" x="592.5" y="-74.5" font-family="Helvetica,sans-Serif" font-size="10.00">G4SubtractionSolid.hh</text>
</a>
</g>
</g>
<!-- Node4&#45;&gt;Node11 -->
<g id="edge10" class="edge">
<title>Node4&#45;&gt;Node11</title>
<path fill="none" stroke="midnightblue" d="M478.89,-123.44C501.21,-114.52 536.4,-100.44 561.71,-90.32"/>
<polygon fill="midnightblue" stroke="midnightblue" points="563.22,-93.48 571.21,-86.52 560.62,-86.98 563.22,-93.48"/>
</g>
<!-- Node12 -->
<g id="node12" class="node">
<title>Node12</title>
<g id="a_node12"><a xlink:title=" ">
<polygon fill="white" stroke="#bfbfbf" points="673.5,-67.5 673.5,-86.5 783.5,-86.5 783.5,-67.5 673.5,-67.5"/>
<text text-anchor="middle" x="728.5" y="-74.5" font-family="Helvetica,sans-Serif" font-size="10.00">G4PVPlacement.hh</text>
</a>
</g>
</g>
<!-- Node4&#45;&gt;Node12 -->
<g id="edge11" class="edge">
<title>Node4&#45;&gt;Node12</title>
<path fill="none" stroke="midnightblue" d="M500.44,-123.44C548.01,-113.96 624.74,-98.67 675.89,-88.48"/>
<polygon fill="midnightblue" stroke="midnightblue" points="676.64,-91.9 685.76,-86.52 675.27,-85.04 676.64,-91.9"/>
</g>
<!-- Node6 -->
<g id="node6" class="node">
<title>Node6</title>
<g id="a_node6"><a xlink:title=" ">
<polygon fill="white" stroke="#bfbfbf" points="0,-0.5 0,-30.5 113,-30.5 113,-0.5 0,-0.5"/>
<text text-anchor="start" x="8" y="-18.5" font-family="Helvetica,sans-Serif" font-size="10.00">boost/property_tree</text>
<text text-anchor="middle" x="56.5" y="-7.5" font-family="Helvetica,sans-Serif" font-size="10.00">/json_parser.hpp</text>
</a>
</g>
</g>
<!-- Node5&#45;&gt;Node6 -->
<g id="edge5" class="edge">
<title>Node5&#45;&gt;Node6</title>
<path fill="none" stroke="midnightblue" d="M181.58,-67.48C160.51,-58.89 127.37,-45.38 100.49,-34.43"/>
<polygon fill="midnightblue" stroke="midnightblue" points="101.49,-31.06 90.91,-30.52 98.85,-37.54 101.49,-31.06"/>
</g>
<!-- Node7 -->
<g id="node7" class="node">
<title>Node7</title>
<g id="a_node7"><a xlink:title=" ">
<polygon fill="white" stroke="#bfbfbf" points="131,-6 131,-25 274,-25 274,-6 131,-6"/>
<text text-anchor="middle" x="202.5" y="-13" font-family="Helvetica,sans-Serif" font-size="10.00">G4OpBoundaryProcess.hh</text>
</a>
</g>
</g>
<!-- Node5&#45;&gt;Node7 -->
<g id="edge6" class="edge">
<title>Node5&#45;&gt;Node7</title>
<path fill="none" stroke="midnightblue" d="M202.5,-67.48C202.5,-59.08 202.5,-45.98 202.5,-35.16"/>
<polygon fill="midnightblue" stroke="midnightblue" points="206,-35.01 202.5,-25.01 199,-35.01 206,-35.01"/>
</g>
<!-- Node8 -->
<g id="node8" class="node">
<title>Node8</title>
<g id="a_node8"><a xlink:title=" ">
<polygon fill="white" stroke="#bfbfbf" points="292,-6 292,-25 411,-25 411,-6 292,-6"/>
<text text-anchor="middle" x="351.5" y="-13" font-family="Helvetica,sans-Serif" font-size="10.00">G4SystemOfUnits.hh</text>
</a>
</g>
</g>
<!-- Node5&#45;&gt;Node8 -->
<g id="edge7" class="edge">
<title>Node5&#45;&gt;Node8</title>
<path fill="none" stroke="midnightblue" d="M223.85,-67.48C249.19,-57.36 291.64,-40.4 320.57,-28.85"/>
<polygon fill="midnightblue" stroke="midnightblue" points="322.2,-31.97 330.19,-25.01 319.61,-25.47 322.2,-31.97"/>
</g>
<!-- Node15&#45;&gt;Node3 -->
<g id="edge16" class="edge">
<title>Node15&#45;&gt;Node3</title>
<path fill="none" stroke="midnightblue" d="M507.08,-235.32C522.5,-226.74 546.31,-213.49 564.21,-203.52"/>
<polygon fill="midnightblue" stroke="midnightblue" points="565.92,-206.58 572.95,-198.65 562.51,-200.46 565.92,-206.58"/>
</g>
<!-- Node15&#45;&gt;Node4 -->
<g id="edge15" class="edge">
<title>Node15&#45;&gt;Node4</title>
<path fill="none" stroke="midnightblue" d="M488.83,-235.37C483.32,-217.54 470.57,-176.3 463.15,-152.27"/>
<polygon fill="midnightblue" stroke="midnightblue" points="466.45,-151.11 460.16,-142.59 459.76,-153.18 466.45,-151.11"/>
</g>
<!-- Node18&#45;&gt;Node16 -->
<g id="edge30" class="edge">
<title>Node18&#45;&gt;Node16</title>
<path fill="none" stroke="midnightblue" d="M1653.82,-299.02C1534.11,-295.82 1165.89,-284.22 849.85,-255.05"/>
<polygon fill="midnightblue" stroke="midnightblue" points="849.85,-251.53 839.57,-254.09 849.2,-258.5 849.85,-251.53"/>
</g>
<!-- Node19 -->
<g id="node19" class="node">
<title>Node19</title>
<g id="a_node19"><a xlink:title=" ">
<polygon fill="white" stroke="#bfbfbf" points="857.5,-235.5 857.5,-254.5 931.5,-254.5 931.5,-235.5 857.5,-235.5"/>
<text text-anchor="middle" x="894.5" y="-242.5" font-family="Helvetica,sans-Serif" font-size="10.00">G4String.hh</text>
</a>
</g>
</g>
<!-- Node18&#45;&gt;Node19 -->
<g id="edge20" class="edge">
<title>Node18&#45;&gt;Node19</title>
<path fill="none" stroke="midnightblue" d="M1653.73,-299.49C1542.67,-297.67 1219.72,-289.68 941.87,-255"/>
<polygon fill="midnightblue" stroke="midnightblue" points="941.95,-251.48 931.59,-253.7 941.07,-258.42 941.95,-251.48"/>
</g>
<!-- Node20 -->
<g id="node20" class="node">
<title>Node20</title>
<g id="a_node20"><a xlink:title=" ">
<polygon fill="white" stroke="#bfbfbf" points="949.5,-235.5 949.5,-254.5 1013.5,-254.5 1013.5,-235.5 949.5,-235.5"/>
<text text-anchor="middle" x="981.5" y="-242.5" font-family="Helvetica,sans-Serif" font-size="10.00">algorithm</text>
</a>
</g>
</g>
<!-- Node18&#45;&gt;Node20 -->
<g id="edge21" class="edge">
<title>Node18&#45;&gt;Node20</title>
<path fill="none" stroke="midnightblue" d="M1653.96,-299.4C1551.42,-297.42 1268.49,-289.16 1023.8,-254.97"/>
<polygon fill="midnightblue" stroke="midnightblue" points="1024.04,-251.47 1013.65,-253.53 1023.06,-258.4 1024.04,-251.47"/>
</g>
<!-- Node21 -->
<g id="node21" class="node">
<title>Node21</title>
<g id="a_node21"><a xlink:title=" ">
<polygon fill="white" stroke="#bfbfbf" points="1031.5,-235.5 1031.5,-254.5 1069.5,-254.5 1069.5,-235.5 1031.5,-235.5"/>
<text text-anchor="middle" x="1050.5" y="-242.5" font-family="Helvetica,sans-Serif" font-size="10.00">map</text>
</a>
</g>
</g>
<!-- Node18&#45;&gt;Node21 -->
<g id="edge22" class="edge">
<title>Node18&#45;&gt;Node21</title>
<path fill="none" stroke="midnightblue" d="M1653.86,-300.34C1556.92,-300.5 1300.28,-296.74 1079.45,-254.71"/>
<polygon fill="midnightblue" stroke="midnightblue" points="1080.11,-251.27 1069.62,-252.81 1078.78,-258.14 1080.11,-251.27"/>
</g>
<!-- Node22 -->
<g id="node22" class="node">
<title>Node22</title>
<g id="a_node22"><a xlink:title=" ">
<polygon fill="white" stroke="#bfbfbf" points="1088,-235.5 1088,-254.5 1191,-254.5 1191,-235.5 1088,-235.5"/>
<text text-anchor="middle" x="1139.5" y="-242.5" font-family="Helvetica,sans-Serif" font-size="10.00">G4ThreeVector.hh</text>
</a>
</g>
</g>
<!-- Node18&#45;&gt;Node22 -->
<g id="edge23" class="edge">
<title>Node18&#45;&gt;Node22</title>
<path fill="none" stroke="midnightblue" d="M1653.72,-297.16C1571.28,-291.12 1375.58,-275.88 1201.31,-255.16"/>
<polygon fill="midnightblue" stroke="midnightblue" points="1201.53,-251.66 1191.18,-253.95 1200.7,-258.61 1201.53,-251.66"/>
</g>
<!-- Node23 -->
<g id="node23" class="node">
<title>Node23</title>
<g id="a_node23"><a xlink:title=" ">
<polygon fill="white" stroke="#bfbfbf" points="1209,-235.5 1209,-254.5 1328,-254.5 1328,-235.5 1209,-235.5"/>
<text text-anchor="middle" x="1268.5" y="-242.5" font-family="Helvetica,sans-Serif" font-size="10.00">G4TriangularFacet.hh</text>
</a>
</g>
</g>
<!-- Node18&#45;&gt;Node23 -->
<g id="edge24" class="edge">
<title>Node18&#45;&gt;Node23</title>
<path fill="none" stroke="midnightblue" d="M1653.98,-295.06C1590.08,-287.05 1459.81,-270.69 1338.54,-255.13"/>
<polygon fill="midnightblue" stroke="midnightblue" points="1338.7,-251.62 1328.34,-253.82 1337.81,-258.56 1338.7,-251.62"/>
</g>
<!-- Node24 -->
<g id="node24" class="node">
<title>Node24</title>
<g id="a_node24"><a xlink:title=" ">
<polygon fill="white" stroke="#bfbfbf" points="1346.5,-235.5 1346.5,-254.5 1404.5,-254.5 1404.5,-235.5 1346.5,-235.5"/>
<text text-anchor="middle" x="1375.5" y="-242.5" font-family="Helvetica,sans-Serif" font-size="10.00">memory</text>
</a>
</g>
</g>
<!-- Node18&#45;&gt;Node24 -->
<g id="edge25" class="edge">
<title>Node18&#45;&gt;Node24</title>
<path fill="none" stroke="midnightblue" d="M1653.92,-294.57C1601.45,-287.17 1505.77,-272.96 1414.83,-255.15"/>
<polygon fill="midnightblue" stroke="midnightblue" points="1415.4,-251.7 1404.91,-253.19 1414.04,-258.56 1415.4,-251.7"/>
</g>
<!-- Node25 -->
<g id="node25" class="node">
<title>Node25</title>
<g id="a_node25"><a xlink:title=" ">
<polygon fill="white" stroke="#bfbfbf" points="1423,-235.5 1423,-254.5 1470,-254.5 1470,-235.5 1423,-235.5"/>
<text text-anchor="middle" x="1446.5" y="-242.5" font-family="Helvetica,sans-Serif" font-size="10.00">vector</text>
</a>
</g>
</g>
<!-- Node18&#45;&gt;Node25 -->
<g id="edge26" class="edge">
<title>Node18&#45;&gt;Node25</title>
<path fill="none" stroke="midnightblue" d="M1653.9,-292.4C1612.85,-284.36 1546.6,-270.94 1480.07,-255.02"/>
<polygon fill="midnightblue" stroke="midnightblue" points="1480.79,-251.6 1470.25,-252.66 1479.15,-258.4 1480.79,-251.6"/>
</g>
<!-- Node26 -->
<g id="node26" class="node">
<title>Node26</title>
<g id="a_node26"><a xlink:title=" ">
<polygon fill="white" stroke="#bfbfbf" points="1488.5,-235.5 1488.5,-254.5 1548.5,-254.5 1548.5,-235.5 1488.5,-235.5"/>
<text text-anchor="middle" x="1518.5" y="-242.5" font-family="Helvetica,sans-Serif" font-size="10.00">iostream</text>
</a>
</g>
</g>
<!-- Node18&#45;&gt;Node26 -->
<g id="edge27" class="edge">
<title>Node18&#45;&gt;Node26</title>
<path fill="none" stroke="midnightblue" d="M1665.77,-291.44C1636.07,-282.28 1588.78,-267.69 1555.83,-257.52"/>
<polygon fill="midnightblue" stroke="midnightblue" points="1556.69,-254.12 1546.1,-254.52 1554.62,-260.81 1556.69,-254.12"/>
</g>
<!-- Node27 -->
<g id="node27" class="node">
<title>Node27</title>
<g id="a_node27"><a xlink:title=" ">
<polygon fill="white" stroke="#bfbfbf" points="1566.5,-235.5 1566.5,-254.5 1610.5,-254.5 1610.5,-235.5 1566.5,-235.5"/>
<text text-anchor="middle" x="1588.5" y="-242.5" font-family="Helvetica,sans-Serif" font-size="10.00">string</text>
</a>
</g>
</g>
<!-- Node18&#45;&gt;Node27 -->
<g id="edge28" class="edge">
<title>Node18&#45;&gt;Node27</title>
<path fill="none" stroke="midnightblue" d="M1676.63,-291.32C1659.79,-282.66 1633.69,-269.24 1614.26,-259.25"/>
<polygon fill="midnightblue" stroke="midnightblue" points="1615.82,-256.12 1605.33,-254.65 1612.62,-262.34 1615.82,-256.12"/>
</g>
<!-- Node28 -->
<g id="node28" class="node">
<title>Node28</title>
<g id="a_node28"><a xlink:title=" ">
<polygon fill="white" stroke="#bfbfbf" points="1628.5,-235.5 1628.5,-254.5 1758.5,-254.5 1758.5,-235.5 1628.5,-235.5"/>
<text text-anchor="middle" x="1693.5" y="-242.5" font-family="Helvetica,sans-Serif" font-size="10.00">G4AssemblyVolume.hh</text>
</a>
</g>
</g>
<!-- Node18&#45;&gt;Node28 -->
<g id="edge29" class="edge">
<title>Node18&#45;&gt;Node28</title>
<path fill="none" stroke="midnightblue" d="M1693.5,-291.08C1693.5,-284.01 1693.5,-273.86 1693.5,-264.99"/>
<polygon fill="midnightblue" stroke="midnightblue" points="1697,-264.75 1693.5,-254.75 1690,-264.75 1697,-264.75"/>
</g>
<!-- Node29 -->
<g id="node29" class="node">
<title>Node29</title>
<g id="a_node29"><a xlink:title=" ">
<polygon fill="white" stroke="#bfbfbf" points="1776.5,-235.5 1776.5,-254.5 1862.5,-254.5 1862.5,-235.5 1776.5,-235.5"/>
<text text-anchor="middle" x="1819.5" y="-242.5" font-family="Helvetica,sans-Serif" font-size="10.00">G4Material.hh</text>
</a>
</g>
</g>
<!-- Node18&#45;&gt;Node29 -->
<g id="edge31" class="edge">
<title>Node18&#45;&gt;Node29</title>
<path fill="none" stroke="midnightblue" d="M1713.47,-291.44C1734.11,-282.6 1766.56,-268.69 1790.13,-258.59"/>
<polygon fill="midnightblue" stroke="midnightblue" points="1791.82,-261.67 1799.63,-254.52 1789.06,-255.24 1791.82,-261.67"/>
</g>
<!-- Node30 -->
<g id="node30" class="node">
<title>Node30</title>
<g id="a_node30"><a xlink:title=" ">
<polygon fill="white" stroke="#bfbfbf" points="1880.5,-235.5 1880.5,-254.5 2004.5,-254.5 2004.5,-235.5 1880.5,-235.5"/>
<text text-anchor="middle" x="1942.5" y="-242.5" font-family="Helvetica,sans-Serif" font-size="10.00">G4TessellatedSolid.hh</text>
</a>
</g>
</g>
<!-- Node18&#45;&gt;Node30 -->
<g id="edge32" class="edge">
<title>Node18&#45;&gt;Node30</title>
<path fill="none" stroke="midnightblue" d="M1732.95,-291.44C1776.39,-282.02 1846.29,-266.87 1893.28,-256.68"/>
<polygon fill="midnightblue" stroke="midnightblue" points="1894.2,-260.06 1903.23,-254.52 1892.72,-253.22 1894.2,-260.06"/>
</g>
<!-- Node31 -->
<g id="node31" class="node">
<title>Node31</title>
<g id="a_node31"><a xlink:title=" ">
<polygon fill="white" stroke="#bfbfbf" points="2023,-235.5 2023,-254.5 2082,-254.5 2082,-235.5 2023,-235.5"/>
<text text-anchor="middle" x="2052.5" y="-242.5" font-family="Helvetica,sans-Serif" font-size="10.00">G4Tet.hh</text>
</a>
</g>
</g>
<!-- Node18&#45;&gt;Node31 -->
<g id="edge33" class="edge">
<title>Node18&#45;&gt;Node31</title>
<path fill="none" stroke="midnightblue" d="M1733.09,-295.56C1791.88,-288.72 1905.93,-274.5 2012.76,-254.99"/>
<polygon fill="midnightblue" stroke="midnightblue" points="2013.55,-258.4 2022.75,-253.15 2012.28,-251.52 2013.55,-258.4"/>
</g>
<!-- Node32 -->
<g id="node32" class="node">
<title>Node32</title>
<g id="a_node32"><a xlink:title=" ">
<polygon fill="white" stroke="#bfbfbf" points="2100.5,-235.5 2100.5,-254.5 2204.5,-254.5 2204.5,-235.5 2100.5,-235.5"/>
<text text-anchor="middle" x="2152.5" y="-242.5" font-family="Helvetica,sans-Serif" font-size="10.00">G4UIcommand.hh</text>
</a>
</g>
</g>
<!-- Node18&#45;&gt;Node32 -->
<g id="edge34" class="edge">
<title>Node18&#45;&gt;Node32</title>
<path fill="none" stroke="midnightblue" d="M1733.28,-295.91C1804.83,-288.45 1959.97,-271.87 2090.5,-255 2090.6,-254.99 2090.7,-254.97 2090.8,-254.96"/>
<polygon fill="midnightblue" stroke="midnightblue" points="2090.97,-258.47 2100.42,-253.68 2090.05,-251.53 2090.97,-258.47"/>
</g>
<!-- Node33 -->
<g id="node33" class="node">
<title>Node33</title>
<g id="a_node33"><a xlink:title=" ">
<polygon fill="white" stroke="#bfbfbf" points="2223,-235.5 2223,-254.5 2290,-254.5 2290,-235.5 2223,-235.5"/>
<text text-anchor="middle" x="2256.5" y="-242.5" font-family="Helvetica,sans-Serif" font-size="10.00">globals.hh</text>
</a>
</g>
</g>
<!-- Node18&#45;&gt;Node33 -->
<g id="edge35" class="edge">
<title>Node18&#45;&gt;Node33</title>
<path fill="none" stroke="midnightblue" d="M1733.15,-298.19C1818.85,-293.94 2027.81,-281.7 2212.86,-254.91"/>
<polygon fill="midnightblue" stroke="midnightblue" points="2213.38,-258.37 2222.77,-253.46 2212.37,-251.45 2213.38,-258.37"/>
</g>
<!-- Node34 -->
<g id="node34" class="node">
<title>Node34</title>
<g id="a_node34"><a xlink:title=" ">
<polygon fill="white" stroke="#bfbfbf" points="2308,-235.5 2308,-254.5 2363,-254.5 2363,-235.5 2308,-235.5"/>
<text text-anchor="middle" x="2335.5" y="-242.5" font-family="Helvetica,sans-Serif" font-size="10.00">fstream</text>
</a>
</g>
</g>
<!-- Node18&#45;&gt;Node34 -->
<g id="edge36" class="edge">
<title>Node18&#45;&gt;Node34</title>
<path fill="none" stroke="midnightblue" d="M1733.12,-299.39C1828.79,-297.43 2080.04,-289.32 2297.68,-255.05"/>
<polygon fill="midnightblue" stroke="midnightblue" points="2298.37,-258.48 2307.69,-253.45 2297.26,-251.57 2298.37,-258.48"/>
</g>
<!-- Node35 -->
<g id="node35" class="node">
<title>Node35</title>
<g id="a_node35"><a xlink:title=" ">
<polygon fill="white" stroke="#bfbfbf" points="2381.5,-235.5 2381.5,-254.5 2437.5,-254.5 2437.5,-235.5 2381.5,-235.5"/>
<text text-anchor="middle" x="2409.5" y="-242.5" font-family="Helvetica,sans-Serif" font-size="10.00">sstream</text>
</a>
</g>
</g>
<!-- Node18&#45;&gt;Node35 -->
<g id="edge37" class="edge">
<title>Node18&#45;&gt;Node35</title>
<path fill="none" stroke="midnightblue" d="M1733.18,-299.75C1836.77,-298.6 2123.95,-292.16 2371.42,-254.9"/>
<polygon fill="midnightblue" stroke="midnightblue" points="2371.96,-258.35 2381.32,-253.39 2370.9,-251.43 2371.96,-258.35"/>
</g>
<!-- Node36 -->
<g id="node36" class="node">
<title>Node36</title>
<g id="a_node36"><a xlink:title=" ">
<polygon fill="white" stroke="#bfbfbf" points="2456,-235.5 2456,-254.5 2523,-254.5 2523,-235.5 2456,-235.5"/>
<text text-anchor="middle" x="2489.5" y="-242.5" font-family="Helvetica,sans-Serif" font-size="10.00">streambuf</text>
</a>
</g>
</g>
<!-- Node18&#45;&gt;Node36 -->
<g id="edge38" class="edge">
<title>Node18&#45;&gt;Node36</title>
<path fill="none" stroke="midnightblue" d="M1733.29,-299.67C1844.41,-298.32 2167.51,-291.43 2445.49,-254.91"/>
<polygon fill="midnightblue" stroke="midnightblue" points="2446.33,-258.33 2455.78,-253.55 2445.41,-251.39 2446.33,-258.33"/>
</g>
<!-- Node37 -->
<g id="node37" class="node">
<title>Node37</title>
<g id="a_node37"><a xlink:title=" ">
<polygon fill="white" stroke="#bfbfbf" points="2541.5,-235.5 2541.5,-254.5 2627.5,-254.5 2627.5,-235.5 2541.5,-235.5"/>
<text text-anchor="middle" x="2584.5" y="-242.5" font-family="Helvetica,sans-Serif" font-size="10.00">Randomize.hh</text>
</a>
</g>
</g>
<!-- Node18&#45;&gt;Node37 -->
<g id="edge39" class="edge">
<title>Node18&#45;&gt;Node37</title>
<path fill="none" stroke="midnightblue" d="M1733.38,-299.53C1852.84,-297.75 2218.33,-289.76 2531.25,-255"/>
<polygon fill="midnightblue" stroke="midnightblue" points="2531.88,-258.45 2541.43,-253.86 2531.1,-251.49 2531.88,-258.45"/>
</g>
<!-- Node39 -->
<g id="node39" class="node">
<title>Node39</title>
<g id="a_node39"><a xlink:title=" ">
<polygon fill="white" stroke="#bfbfbf" points="2645.5,-235.5 2645.5,-254.5 2695.5,-254.5 2695.5,-235.5 2645.5,-235.5"/>
<text text-anchor="middle" x="2670.5" y="-242.5" font-family="Helvetica,sans-Serif" font-size="10.00">stdio.h</text>
</a>
</g>
</g>
<!-- Node38&#45;&gt;Node39 -->
<g id="edge41" class="edge">
<title>Node38&#45;&gt;Node39</title>
<path fill="none" stroke="midnightblue" d="M2285.05,-292.27C2288.25,-291.82 2291.42,-291.4 2294.5,-291 2442.83,-271.89 2484.41,-282.17 2635.25,-254.97"/>
<polygon fill="midnightblue" stroke="midnightblue" points="2636.14,-258.36 2645.35,-253.12 2634.88,-251.48 2636.14,-258.36"/>
</g>
<!-- Node40 -->
<g id="node40" class="node">
<title>Node40</title>
<g id="a_node40"><a xlink:title=" ">
<polygon fill="white" stroke="#bfbfbf" points="2713.5,-235.5 2713.5,-254.5 2761.5,-254.5 2761.5,-235.5 2713.5,-235.5"/>
<text text-anchor="middle" x="2737.5" y="-242.5" font-family="Helvetica,sans-Serif" font-size="10.00">time.h</text>
</a>
</g>
</g>
<!-- Node38&#45;&gt;Node40 -->
<g id="edge42" class="edge">
<title>Node38&#45;&gt;Node40</title>
<path fill="none" stroke="midnightblue" d="M2285.04,-292.21C2288.24,-291.78 2291.41,-291.37 2294.5,-291 2472.84,-269.59 2522.64,-286.56 2703.35,-254.89"/>
<polygon fill="midnightblue" stroke="midnightblue" points="2704.23,-258.29 2713.46,-253.09 2703,-251.39 2704.23,-258.29"/>
</g>
</g>
</svg>
