<?xml version="1.0" encoding="UTF-8" standalone="no"?>
<!DOCTYPE svg PUBLIC "-//W3C//DTD SVG 1.1//EN"
 "http://www.w3.org/Graphics/SVG/1.1/DTD/svg11.dtd">
<!-- Generated by graphviz version 2.43.0 (0)
 -->
<!-- Title: OMSim_supernova.cc Pages: 1 -->
<svg width="2444pt" height="308pt"
 viewBox="0.00 0.00 2443.59 308.00" xmlns="http://www.w3.org/2000/svg" xmlns:xlink="http://www.w3.org/1999/xlink">
<g id="graph0" class="graph" transform="scale(1 1) rotate(0) translate(4 304)">
<title>OMSim_supernova.cc</title>
<polygon fill="white" stroke="transparent" points="-4,4 -4,-304 2439.59,-304 2439.59,4 -4,4"/>
<!-- Node1 -->
<g id="node1" class="node">
<title>Node1</title>
<g id="a_node1"><a xlink:title=" ">
<polygon fill="#bfbfbf" stroke="black" points="1777.5,-280.5 1777.5,-299.5 1899.5,-299.5 1899.5,-280.5 1777.5,-280.5"/>
<text text-anchor="middle" x="1838.5" y="-287.5" font-family="Helvetica,sans-Serif" font-size="10.00">OMSim_supernova.cc</text>
</a>
</g>
</g>
<!-- Node2 -->
<g id="node2" class="node">
<title>Node2</title>
<g id="a_node2"><a xlink:href="_o_m_sim_8hh.html" target="_top" xlink:title="Main simulation class for the Optical Module (OM) simulation. This file defines the OMSim class,...">
<polygon fill="white" stroke="black" points="955,-224.5 955,-243.5 1022,-243.5 1022,-224.5 955,-224.5"/>
<text text-anchor="middle" x="988.5" y="-231.5" font-family="Helvetica,sans-Serif" font-size="10.00">OMSim.hh</text>
</a>
</g>
</g>
<!-- Node1&#45;&gt;Node2 -->
<g id="edge1" class="edge">
<title>Node1&#45;&gt;Node2</title>
<path fill="none" stroke="midnightblue" d="M1777.37,-285.12C1614.53,-274.77 1173.08,-246.73 1032.28,-237.78"/>
<polygon fill="midnightblue" stroke="midnightblue" points="1032.49,-234.29 1022.28,-237.15 1032.04,-241.27 1032.49,-234.29"/>
</g>
<!-- Node5 -->
<g id="node5" class="node">
<title>Node5</title>
<g id="a_node5"><a xlink:href="_o_m_sim_primary_generator_action_8hh.html" target="_top" xlink:title=" ">
<polygon fill="white" stroke="black" points="1686,-168.5 1686,-187.5 1871,-187.5 1871,-168.5 1686,-168.5"/>
<text text-anchor="middle" x="1778.5" y="-175.5" font-family="Helvetica,sans-Serif" font-size="10.00">OMSimPrimaryGeneratorAction.hh</text>
</a>
</g>
</g>
<!-- Node1&#45;&gt;Node5 -->
<g id="edge32" class="edge">
<title>Node1&#45;&gt;Node5</title>
<path fill="none" stroke="midnightblue" d="M1828.62,-280.27C1819.6,-271.81 1806.5,-258.21 1798.5,-244 1790.36,-229.53 1785.13,-211.34 1782.06,-197.89"/>
<polygon fill="midnightblue" stroke="midnightblue" points="1785.45,-196.97 1779.99,-187.89 1778.59,-198.39 1785.45,-196.97"/>
</g>
<!-- Node26 -->
<g id="node26" class="node">
<title>Node26</title>
<g id="a_node26"><a xlink:href="mdom_analysis_manager_8hh.html" target="_top" xlink:title=" ">
<polygon fill="white" stroke="black" points="2145.5,-224.5 2145.5,-243.5 2291.5,-243.5 2291.5,-224.5 2145.5,-224.5"/>
<text text-anchor="middle" x="2218.5" y="-231.5" font-family="Helvetica,sans-Serif" font-size="10.00">mdomAnalysisManager.hh</text>
</a>
</g>
</g>
<!-- Node1&#45;&gt;Node26 -->
<g id="edge25" class="edge">
<title>Node1&#45;&gt;Node26</title>
<path fill="none" stroke="midnightblue" d="M1898.71,-280.44C1966.53,-270.81 2076.61,-255.16 2148.28,-244.98"/>
<polygon fill="midnightblue" stroke="midnightblue" points="2149.16,-248.39 2158.57,-243.52 2148.18,-241.46 2149.16,-248.39"/>
</g>
<!-- Node32 -->
<g id="node32" class="node">
<title>Node32</title>
<g id="a_node32"><a xlink:href="mdom_primary_generator_action_8hh.html" target="_top" xlink:title=" ">
<polygon fill="white" stroke="black" points="1808,-224.5 1808,-243.5 1989,-243.5 1989,-224.5 1808,-224.5"/>
<text text-anchor="middle" x="1898.5" y="-231.5" font-family="Helvetica,sans-Serif" font-size="10.00">mdomPrimaryGeneratorAction.hh</text>
</a>
</g>
</g>
<!-- Node1&#45;&gt;Node32 -->
<g id="edge33" class="edge">
<title>Node1&#45;&gt;Node32</title>
<path fill="none" stroke="midnightblue" d="M1848.14,-280.32C1857.01,-272.34 1870.37,-260.31 1881.11,-250.65"/>
<polygon fill="midnightblue" stroke="midnightblue" points="1883.59,-253.13 1888.68,-243.83 1878.91,-247.92 1883.59,-253.13"/>
</g>
<!-- Node3 -->
<g id="node3" class="node">
<title>Node3</title>
<g id="a_node3"><a xlink:title=" ">
<polygon fill="white" stroke="#bfbfbf" points="532.5,-168.5 532.5,-187.5 702.5,-187.5 702.5,-168.5 532.5,-168.5"/>
<text text-anchor="middle" x="617.5" y="-175.5" font-family="Helvetica,sans-Serif" font-size="10.00">OMSimDetectorConstruction.hh</text>
</a>
</g>
</g>
<!-- Node2&#45;&gt;Node3 -->
<g id="edge2" class="edge">
<title>Node2&#45;&gt;Node3</title>
<path fill="none" stroke="midnightblue" d="M954.92,-228.11C894.37,-219.3 765.77,-200.58 685.99,-188.97"/>
<polygon fill="midnightblue" stroke="midnightblue" points="686.43,-185.5 676.03,-187.52 685.42,-192.42 686.43,-185.5"/>
</g>
<!-- Node4 -->
<g id="node4" class="node">
<title>Node4</title>
<g id="a_node4"><a xlink:title=" ">
<polygon fill="white" stroke="#bfbfbf" points="721,-168.5 721,-187.5 842,-187.5 842,-168.5 721,-168.5"/>
<text text-anchor="middle" x="781.5" y="-175.5" font-family="Helvetica,sans-Serif" font-size="10.00">OMSimPhysicsList.hh</text>
</a>
</g>
</g>
<!-- Node2&#45;&gt;Node4 -->
<g id="edge3" class="edge">
<title>Node2&#45;&gt;Node4</title>
<path fill="none" stroke="midnightblue" d="M955.7,-224.44C920.12,-215.16 863.19,-200.31 824.15,-190.13"/>
<polygon fill="midnightblue" stroke="midnightblue" points="824.71,-186.65 814.15,-187.52 822.94,-193.43 824.71,-186.65"/>
</g>
<!-- Node2&#45;&gt;Node5 -->
<g id="edge4" class="edge">
<title>Node2&#45;&gt;Node5</title>
<path fill="none" stroke="midnightblue" d="M1022.17,-231.07C1120.71,-225.36 1417.31,-207.77 1675.61,-188.05"/>
<polygon fill="midnightblue" stroke="midnightblue" points="1676.24,-191.51 1685.94,-187.26 1675.7,-184.53 1676.24,-191.51"/>
</g>
<!-- Node7 -->
<g id="node7" class="node">
<title>Node7</title>
<g id="a_node7"><a xlink:title=" ">
<polygon fill="white" stroke="#bfbfbf" points="860.5,-168.5 860.5,-187.5 976.5,-187.5 976.5,-168.5 860.5,-168.5"/>
<text text-anchor="middle" x="918.5" y="-175.5" font-family="Helvetica,sans-Serif" font-size="10.00">OMSimRunAction.hh</text>
</a>
</g>
</g>
<!-- Node2&#45;&gt;Node7 -->
<g id="edge6" class="edge">
<title>Node2&#45;&gt;Node7</title>
<path fill="none" stroke="midnightblue" d="M977.25,-224.32C966.7,-216.18 950.7,-203.84 938.06,-194.09"/>
<polygon fill="midnightblue" stroke="midnightblue" points="940.01,-191.17 929.95,-187.83 935.73,-196.71 940.01,-191.17"/>
</g>
<!-- Node8 -->
<g id="node8" class="node">
<title>Node8</title>
<g id="a_node8"><a xlink:title=" ">
<polygon fill="white" stroke="#bfbfbf" points="995,-168.5 995,-187.5 1120,-187.5 1120,-168.5 995,-168.5"/>
<text text-anchor="middle" x="1057.5" y="-175.5" font-family="Helvetica,sans-Serif" font-size="10.00">OMSimEventAction.hh</text>
</a>
</g>
</g>
<!-- Node2&#45;&gt;Node8 -->
<g id="edge7" class="edge">
<title>Node2&#45;&gt;Node8</title>
<path fill="none" stroke="midnightblue" d="M999.59,-224.32C1009.99,-216.18 1025.76,-203.84 1038.22,-194.09"/>
<polygon fill="midnightblue" stroke="midnightblue" points="1040.49,-196.75 1046.21,-187.83 1036.18,-191.24 1040.49,-196.75"/>
</g>
<!-- Node9 -->
<g id="node9" class="node">
<title>Node9</title>
<g id="a_node9"><a xlink:href="_o_m_sim_tracking_action_8hh.html" target="_top" xlink:title=" ">
<polygon fill="white" stroke="black" points="0.5,-168.5 0.5,-187.5 138.5,-187.5 138.5,-168.5 0.5,-168.5"/>
<text text-anchor="middle" x="69.5" y="-175.5" font-family="Helvetica,sans-Serif" font-size="10.00">OMSimTrackingAction.hh</text>
</a>
</g>
</g>
<!-- Node2&#45;&gt;Node9 -->
<g id="edge8" class="edge">
<title>Node2&#45;&gt;Node9</title>
<path fill="none" stroke="midnightblue" d="M954.8,-231.94C842.25,-228.25 468.89,-214.72 149.2,-188.09"/>
<polygon fill="midnightblue" stroke="midnightblue" points="149.06,-184.57 138.8,-187.22 148.47,-191.54 149.06,-184.57"/>
</g>
<!-- Node11 -->
<g id="node11" class="node">
<title>Node11</title>
<g id="a_node11"><a xlink:title=" ">
<polygon fill="white" stroke="#bfbfbf" points="1138.5,-168.5 1138.5,-187.5 1278.5,-187.5 1278.5,-168.5 1138.5,-168.5"/>
<text text-anchor="middle" x="1208.5" y="-175.5" font-family="Helvetica,sans-Serif" font-size="10.00">OMSimSteppingAction.hh</text>
</a>
</g>
</g>
<!-- Node2&#45;&gt;Node11 -->
<g id="edge10" class="edge">
<title>Node2&#45;&gt;Node11</title>
<path fill="none" stroke="midnightblue" d="M1022.39,-224.68C1060.36,-215.36 1122.06,-200.22 1163.92,-189.94"/>
<polygon fill="midnightblue" stroke="midnightblue" points="1164.96,-193.29 1173.84,-187.51 1163.3,-186.49 1164.96,-193.29"/>
</g>
<!-- Node12 -->
<g id="node12" class="node">
<title>Node12</title>
<g id="a_node12"><a xlink:href="_o_m_sim_u_iinterface_8hh.html" target="_top" xlink:title="The OMSimUIinterface class provides a singleton interface to Geant4&#39;s UI manager.">
<polygon fill="white" stroke="black" points="1297,-168.5 1297,-187.5 1418,-187.5 1418,-168.5 1297,-168.5"/>
<text text-anchor="middle" x="1357.5" y="-175.5" font-family="Helvetica,sans-Serif" font-size="10.00">OMSimUIinterface.hh</text>
</a>
</g>
</g>
<!-- Node2&#45;&gt;Node12 -->
<g id="edge11" class="edge">
<title>Node2&#45;&gt;Node12</title>
<path fill="none" stroke="midnightblue" d="M1022.22,-228.06C1082.5,-219.24 1209.81,-200.61 1289.04,-189.02"/>
<polygon fill="midnightblue" stroke="midnightblue" points="1290.03,-192.41 1299.41,-187.5 1289.01,-185.49 1290.03,-192.41"/>
</g>
<!-- Node21 -->
<g id="node21" class="node">
<title>Node21</title>
<g id="a_node21"><a xlink:title=" ">
<polygon fill="white" stroke="#bfbfbf" points="1436.5,-168.5 1436.5,-187.5 1542.5,-187.5 1542.5,-168.5 1436.5,-168.5"/>
<text text-anchor="middle" x="1489.5" y="-175.5" font-family="Helvetica,sans-Serif" font-size="10.00">G4RunManager.hh</text>
</a>
</g>
</g>
<!-- Node2&#45;&gt;Node21 -->
<g id="edge20" class="edge">
<title>Node2&#45;&gt;Node21</title>
<path fill="none" stroke="midnightblue" d="M1022.07,-230.01C1093.93,-223.5 1268.19,-207.21 1425.88,-188.03"/>
<polygon fill="midnightblue" stroke="midnightblue" points="1426.74,-191.45 1436.24,-186.76 1425.89,-184.5 1426.74,-191.45"/>
</g>
<!-- Node22 -->
<g id="node22" class="node">
<title>Node22</title>
<g id="a_node22"><a xlink:title=" ">
<polygon fill="white" stroke="#bfbfbf" points="1561,-168.5 1561,-187.5 1668,-187.5 1668,-168.5 1561,-168.5"/>
<text text-anchor="middle" x="1614.5" y="-175.5" font-family="Helvetica,sans-Serif" font-size="10.00">G4VisExecutive.hh</text>
</a>
</g>
</g>
<!-- Node2&#45;&gt;Node22 -->
<g id="edge21" class="edge">
<title>Node2&#45;&gt;Node22</title>
<path fill="none" stroke="midnightblue" d="M1022.2,-231.04C1108.29,-225.87 1343.49,-210.78 1550.75,-188.01"/>
<polygon fill="midnightblue" stroke="midnightblue" points="1551.36,-191.47 1560.91,-186.89 1550.59,-184.51 1551.36,-191.47"/>
</g>
<!-- Node23 -->
<g id="node23" class="node">
<title>Node23</title>
<g id="a_node23"><a xlink:title=" ">
<polygon fill="white" stroke="#bfbfbf" points="157,-168.5 157,-187.5 260,-187.5 260,-168.5 157,-168.5"/>
<text text-anchor="middle" x="208.5" y="-175.5" font-family="Helvetica,sans-Serif" font-size="10.00">G4UIExecutive.hh</text>
</a>
</g>
</g>
<!-- Node2&#45;&gt;Node23 -->
<g id="edge22" class="edge">
<title>Node2&#45;&gt;Node23</title>
<path fill="none" stroke="midnightblue" d="M954.72,-231.89C852.98,-228.35 540.34,-215.9 270.05,-187.96"/>
<polygon fill="midnightblue" stroke="midnightblue" points="270.36,-184.47 260.05,-186.92 269.63,-191.43 270.36,-184.47"/>
</g>
<!-- Node24 -->
<g id="node24" class="node">
<title>Node24</title>
<g id="a_node24"><a xlink:title=" ">
<polygon fill="white" stroke="#bfbfbf" points="278.5,-168.5 278.5,-187.5 346.5,-187.5 346.5,-168.5 278.5,-168.5"/>
<text text-anchor="middle" x="312.5" y="-175.5" font-family="Helvetica,sans-Serif" font-size="10.00">filesystem</text>
</a>
</g>
</g>
<!-- Node2&#45;&gt;Node24 -->
<g id="edge23" class="edge">
<title>Node2&#45;&gt;Node24</title>
<path fill="none" stroke="midnightblue" d="M954.71,-232.21C861.16,-229.67 590.81,-220.03 356.76,-187.99"/>
<polygon fill="midnightblue" stroke="midnightblue" points="357.08,-184.5 346.69,-186.59 356.12,-191.43 357.08,-184.5"/>
</g>
<!-- Node25 -->
<g id="node25" class="node">
<title>Node25</title>
<g id="a_node25"><a xlink:title=" ">
<polygon fill="white" stroke="#bfbfbf" points="364.5,-168.5 364.5,-187.5 514.5,-187.5 514.5,-168.5 364.5,-168.5"/>
<text text-anchor="middle" x="439.5" y="-175.5" font-family="Helvetica,sans-Serif" font-size="10.00">boost/program_options.hpp</text>
</a>
</g>
</g>
<!-- Node2&#45;&gt;Node25 -->
<g id="edge24" class="edge">
<title>Node2&#45;&gt;Node25</title>
<path fill="none" stroke="midnightblue" d="M954.94,-229.87C879.89,-222.85 692.58,-205.18 524.62,-188.1"/>
<polygon fill="midnightblue" stroke="midnightblue" points="524.9,-184.62 514.6,-187.09 524.2,-191.58 524.9,-184.62"/>
</g>
<!-- Node6 -->
<g id="node6" class="node">
<title>Node6</title>
<g id="a_node6"><a xlink:title=" ">
<polygon fill="white" stroke="#bfbfbf" points="1742.5,-112.5 1742.5,-131.5 1934.5,-131.5 1934.5,-112.5 1742.5,-112.5"/>
<text text-anchor="middle" x="1838.5" y="-119.5" font-family="Helvetica,sans-Serif" font-size="10.00">G4VUserPrimaryGeneratorAction.hh</text>
</a>
</g>
</g>
<!-- Node5&#45;&gt;Node6 -->
<g id="edge5" class="edge">
<title>Node5&#45;&gt;Node6</title>
<path fill="none" stroke="midnightblue" d="M1788.14,-168.32C1797.01,-160.34 1810.37,-148.31 1821.11,-138.65"/>
<polygon fill="midnightblue" stroke="midnightblue" points="1823.59,-141.13 1828.68,-131.83 1818.91,-135.92 1823.59,-141.13"/>
</g>
<!-- Node10 -->
<g id="node10" class="node">
<title>Node10</title>
<g id="a_node10"><a xlink:title=" ">
<polygon fill="white" stroke="#bfbfbf" points="0,-112.5 0,-131.5 139,-131.5 139,-112.5 0,-112.5"/>
<text text-anchor="middle" x="69.5" y="-119.5" font-family="Helvetica,sans-Serif" font-size="10.00">G4UserTrackingAction.hh</text>
</a>
</g>
</g>
<!-- Node9&#45;&gt;Node10 -->
<g id="edge9" class="edge">
<title>Node9&#45;&gt;Node10</title>
<path fill="none" stroke="midnightblue" d="M69.5,-168.08C69.5,-161.01 69.5,-150.86 69.5,-141.99"/>
<polygon fill="midnightblue" stroke="midnightblue" points="73,-141.75 69.5,-131.75 66,-141.75 73,-141.75"/>
</g>
<!-- Node13 -->
<g id="node13" class="node">
<title>Node13</title>
<g id="a_node13"><a xlink:href="_o_m_sim_command_args_table_8hh.html" target="_top" xlink:title="Definition of the OMSimCommandArgsTable singleton class, which controls user args.">
<polygon fill="white" stroke="black" points="1522.5,-112.5 1522.5,-131.5 1686.5,-131.5 1686.5,-112.5 1522.5,-112.5"/>
<text text-anchor="middle" x="1604.5" y="-119.5" font-family="Helvetica,sans-Serif" font-size="10.00">OMSimCommandArgsTable.hh</text>
</a>
</g>
</g>
<!-- Node12&#45;&gt;Node13 -->
<g id="edge12" class="edge">
<title>Node12&#45;&gt;Node13</title>
<path fill="none" stroke="midnightblue" d="M1396.64,-168.44C1439.73,-159.02 1509.06,-143.87 1555.67,-133.68"/>
<polygon fill="midnightblue" stroke="midnightblue" points="1556.52,-137.07 1565.55,-131.52 1555.03,-130.23 1556.52,-137.07"/>
</g>
<!-- Node20 -->
<g id="node20" class="node">
<title>Node20</title>
<g id="a_node20"><a xlink:title=" ">
<polygon fill="white" stroke="#bfbfbf" points="1308.5,-112.5 1308.5,-131.5 1406.5,-131.5 1406.5,-112.5 1308.5,-112.5"/>
<text text-anchor="middle" x="1357.5" y="-119.5" font-family="Helvetica,sans-Serif" font-size="10.00">G4UImanager.hh</text>
</a>
</g>
</g>
<!-- Node12&#45;&gt;Node20 -->
<g id="edge19" class="edge">
<title>Node12&#45;&gt;Node20</title>
<path fill="none" stroke="midnightblue" d="M1357.5,-168.08C1357.5,-161.01 1357.5,-150.86 1357.5,-141.99"/>
<polygon fill="midnightblue" stroke="midnightblue" points="1361,-141.75 1357.5,-131.75 1354,-141.75 1361,-141.75"/>
</g>
<!-- Node14 -->
<g id="node14" class="node">
<title>Node14</title>
<g id="a_node14"><a xlink:href="_o_m_sim_logger_8hh.html" target="_top" xlink:title=" ">
<polygon fill="white" stroke="black" points="1657,-56.5 1657,-75.5 1756,-75.5 1756,-56.5 1657,-56.5"/>
<text text-anchor="middle" x="1706.5" y="-63.5" font-family="Helvetica,sans-Serif" font-size="10.00">OMSimLogger.hh</text>
</a>
</g>
</g>
<!-- Node13&#45;&gt;Node14 -->
<g id="edge13" class="edge">
<title>Node13&#45;&gt;Node14</title>
<path fill="none" stroke="midnightblue" d="M1620.89,-112.32C1637.17,-103.7 1662.37,-90.36 1681.22,-80.39"/>
<polygon fill="midnightblue" stroke="midnightblue" points="1682.95,-83.43 1690.15,-75.65 1679.68,-77.24 1682.95,-83.43"/>
</g>
<!-- Node17 -->
<g id="node17" class="node">
<title>Node17</title>
<g id="a_node17"><a xlink:title=" ">
<polygon fill="white" stroke="#bfbfbf" points="2109,-56.5 2109,-75.5 2164,-75.5 2164,-56.5 2109,-56.5"/>
<text text-anchor="middle" x="2136.5" y="-63.5" font-family="Helvetica,sans-Serif" font-size="10.00">fstream</text>
</a>
</g>
</g>
<!-- Node13&#45;&gt;Node17 -->
<g id="edge16" class="edge">
<title>Node13&#45;&gt;Node17</title>
<path fill="none" stroke="midnightblue" d="M1686.75,-112.65C1803.78,-100.77 2013.62,-79.47 2098.91,-70.82"/>
<polygon fill="midnightblue" stroke="midnightblue" points="2099.32,-74.29 2108.92,-69.8 2098.61,-67.33 2099.32,-74.29"/>
</g>
<!-- Node18 -->
<g id="node18" class="node">
<title>Node18</title>
<g id="a_node18"><a xlink:title=" ">
<polygon fill="white" stroke="#bfbfbf" points="1468.5,-56.5 1468.5,-75.5 1552.5,-75.5 1552.5,-56.5 1468.5,-56.5"/>
<text text-anchor="middle" x="1510.5" y="-63.5" font-family="Helvetica,sans-Serif" font-size="10.00">boost/any.hpp</text>
</a>
</g>
</g>
<!-- Node13&#45;&gt;Node18 -->
<g id="edge17" class="edge">
<title>Node13&#45;&gt;Node18</title>
<path fill="none" stroke="midnightblue" d="M1589.4,-112.32C1574.6,-103.82 1551.81,-90.73 1534.52,-80.8"/>
<polygon fill="midnightblue" stroke="midnightblue" points="1535.98,-77.6 1525.57,-75.65 1532.49,-83.67 1535.98,-77.6"/>
</g>
<!-- Node19 -->
<g id="node19" class="node">
<title>Node19</title>
<g id="a_node19"><a xlink:title=" ">
<polygon fill="white" stroke="#bfbfbf" points="1570.5,-56.5 1570.5,-75.5 1638.5,-75.5 1638.5,-56.5 1570.5,-56.5"/>
<text text-anchor="middle" x="1604.5" y="-63.5" font-family="Helvetica,sans-Serif" font-size="10.00">sys/time.h</text>
</a>
</g>
</g>
<!-- Node13&#45;&gt;Node19 -->
<g id="edge18" class="edge">
<title>Node13&#45;&gt;Node19</title>
<path fill="none" stroke="midnightblue" d="M1604.5,-112.08C1604.5,-105.01 1604.5,-94.86 1604.5,-85.99"/>
<polygon fill="midnightblue" stroke="midnightblue" points="1608,-85.75 1604.5,-75.75 1601,-85.75 1608,-85.75"/>
</g>
<!-- Node15 -->
<g id="node15" class="node">
<title>Node15</title>
<g id="a_node15"><a xlink:title=" ">
<polygon fill="white" stroke="#bfbfbf" points="1647.5,-0.5 1647.5,-19.5 1697.5,-19.5 1697.5,-0.5 1647.5,-0.5"/>
<text text-anchor="middle" x="1672.5" y="-7.5" font-family="Helvetica,sans-Serif" font-size="10.00">stdio.h</text>
</a>
</g>
</g>
<!-- Node14&#45;&gt;Node15 -->
<g id="edge14" class="edge">
<title>Node14&#45;&gt;Node15</title>
<path fill="none" stroke="midnightblue" d="M1700.89,-56.08C1696.13,-48.53 1689.18,-37.49 1683.35,-28.23"/>
<polygon fill="midnightblue" stroke="midnightblue" points="1686.3,-26.35 1678.01,-19.75 1680.38,-30.08 1686.3,-26.35"/>
</g>
<!-- Node16 -->
<g id="node16" class="node">
<title>Node16</title>
<g id="a_node16"><a xlink:title=" ">
<polygon fill="white" stroke="#bfbfbf" points="1715.5,-0.5 1715.5,-19.5 1763.5,-19.5 1763.5,-0.5 1715.5,-0.5"/>
<text text-anchor="middle" x="1739.5" y="-7.5" font-family="Helvetica,sans-Serif" font-size="10.00">time.h</text>
</a>
</g>
</g>
<!-- Node14&#45;&gt;Node16 -->
<g id="edge15" class="edge">
<title>Node14&#45;&gt;Node16</title>
<path fill="none" stroke="midnightblue" d="M1711.95,-56.08C1716.51,-48.61 1723.17,-37.72 1728.79,-28.52"/>
<polygon fill="midnightblue" stroke="midnightblue" points="1731.92,-30.11 1734.15,-19.75 1725.95,-26.46 1731.92,-30.11"/>
</g>
<!-- Node26&#45;&gt;Node17 -->
<g id="edge30" class="edge">
<title>Node26&#45;&gt;Node17</title>
<path fill="none" stroke="midnightblue" d="M2291.67,-227.24C2346.14,-221.25 2413.97,-209.61 2431.5,-188 2437.1,-181.1 2436.67,-175.23 2431.5,-168 2372.02,-84.77 2239.6,-69.38 2174.34,-67.03"/>
<polygon fill="midnightblue" stroke="midnightblue" points="2174.18,-63.52 2164.09,-66.75 2173.99,-70.52 2174.18,-63.52"/>
</g>
<!-- Node27 -->
<g id="node27" class="node">
<title>Node27</title>
<g id="a_node27"><a xlink:title=" ">
<polygon fill="white" stroke="#bfbfbf" points="2257,-168.5 2257,-187.5 2330,-187.5 2330,-168.5 2257,-168.5"/>
<text text-anchor="middle" x="2293.5" y="-175.5" font-family="Helvetica,sans-Serif" font-size="10.00">G4Types.hh</text>
</a>
</g>
</g>
<!-- Node26&#45;&gt;Node27 -->
<g id="edge26" class="edge">
<title>Node26&#45;&gt;Node27</title>
<path fill="none" stroke="midnightblue" d="M2230.55,-224.32C2241.96,-216.11 2259.33,-203.6 2272.93,-193.81"/>
<polygon fill="midnightblue" stroke="midnightblue" points="2275.16,-196.52 2281.23,-187.83 2271.07,-190.84 2275.16,-196.52"/>
</g>
<!-- Node28 -->
<g id="node28" class="node">
<title>Node28</title>
<g id="a_node28"><a xlink:title=" ">
<polygon fill="white" stroke="#bfbfbf" points="2348.5,-168.5 2348.5,-187.5 2422.5,-187.5 2422.5,-168.5 2348.5,-168.5"/>
<text text-anchor="middle" x="2385.5" y="-175.5" font-family="Helvetica,sans-Serif" font-size="10.00">G4String.hh</text>
</a>
</g>
</g>
<!-- Node26&#45;&gt;Node28 -->
<g id="edge27" class="edge">
<title>Node26&#45;&gt;Node28</title>
<path fill="none" stroke="midnightblue" d="M2244.96,-224.44C2273.18,-215.32 2318.04,-200.81 2349.47,-190.65"/>
<polygon fill="midnightblue" stroke="midnightblue" points="2350.72,-193.92 2359.16,-187.52 2348.57,-187.26 2350.72,-193.92"/>
</g>
<!-- Node29 -->
<g id="node29" class="node">
<title>Node29</title>
<g id="a_node29"><a xlink:title=" ">
<polygon fill="white" stroke="#bfbfbf" points="2012,-168.5 2012,-187.5 2115,-187.5 2115,-168.5 2012,-168.5"/>
<text text-anchor="middle" x="2063.5" y="-175.5" font-family="Helvetica,sans-Serif" font-size="10.00">G4ThreeVector.hh</text>
</a>
</g>
</g>
<!-- Node26&#45;&gt;Node29 -->
<g id="edge28" class="edge">
<title>Node26&#45;&gt;Node29</title>
<path fill="none" stroke="midnightblue" d="M2193.94,-224.44C2167.98,-215.4 2126.83,-201.06 2097.7,-190.92"/>
<polygon fill="midnightblue" stroke="midnightblue" points="2098.54,-187.5 2087.95,-187.52 2096.24,-194.11 2098.54,-187.5"/>
</g>
<!-- Node30 -->
<g id="node30" class="node">
<title>Node30</title>
<g id="a_node30"><a xlink:title=" ">
<polygon fill="white" stroke="#bfbfbf" points="2133,-168.5 2133,-187.5 2180,-187.5 2180,-168.5 2133,-168.5"/>
<text text-anchor="middle" x="2156.5" y="-175.5" font-family="Helvetica,sans-Serif" font-size="10.00">vector</text>
</a>
</g>
</g>
<!-- Node26&#45;&gt;Node30 -->
<g id="edge29" class="edge">
<title>Node26&#45;&gt;Node30</title>
<path fill="none" stroke="midnightblue" d="M2208.54,-224.32C2199.37,-216.34 2185.56,-204.31 2174.47,-194.65"/>
<polygon fill="midnightblue" stroke="midnightblue" points="2176.48,-191.76 2166.64,-187.83 2171.88,-197.04 2176.48,-191.76"/>
</g>
<!-- Node31 -->
<g id="node31" class="node">
<title>Node31</title>
<g id="a_node31"><a xlink:title=" ">
<polygon fill="white" stroke="#bfbfbf" points="2198,-168.5 2198,-187.5 2239,-187.5 2239,-168.5 2198,-168.5"/>
<text text-anchor="middle" x="2218.5" y="-175.5" font-family="Helvetica,sans-Serif" font-size="10.00">tuple</text>
</a>
</g>
</g>
<!-- Node26&#45;&gt;Node31 -->
<g id="edge31" class="edge">
<title>Node26&#45;&gt;Node31</title>
<path fill="none" stroke="midnightblue" d="M2218.5,-224.08C2218.5,-217.01 2218.5,-206.86 2218.5,-197.99"/>
<polygon fill="midnightblue" stroke="midnightblue" points="2222,-197.75 2218.5,-187.75 2215,-197.75 2222,-197.75"/>
</g>
<!-- Node32&#45;&gt;Node6 -->
<g id="edge34" class="edge">
<title>Node32&#45;&gt;Node6</title>
<path fill="none" stroke="midnightblue" d="M1897.21,-224.09C1895.05,-211.09 1889.86,-186.45 1879.5,-168 1873.38,-157.11 1864.17,-146.68 1856.03,-138.61"/>
<polygon fill="midnightblue" stroke="midnightblue" points="1858.35,-135.99 1848.69,-131.65 1853.54,-141.07 1858.35,-135.99"/>
</g>
<!-- Node33 -->
<g id="node33" class="node">
<title>Node33</title>
<g id="a_node33"><a xlink:title=" ">
<polygon fill="white" stroke="#bfbfbf" points="1927,-168.5 1927,-187.5 1994,-187.5 1994,-168.5 1927,-168.5"/>
<text text-anchor="middle" x="1960.5" y="-175.5" font-family="Helvetica,sans-Serif" font-size="10.00">globals.hh</text>
</a>
</g>
</g>
<!-- Node32&#45;&gt;Node33 -->
<g id="edge35" class="edge">
<title>Node32&#45;&gt;Node33</title>
<path fill="none" stroke="midnightblue" d="M1908.46,-224.32C1917.63,-216.34 1931.44,-204.31 1942.53,-194.65"/>
<polygon fill="midnightblue" stroke="midnightblue" points="1945.12,-197.04 1950.36,-187.83 1940.52,-191.76 1945.12,-197.04"/>
</g>
</g>
</svg>
