<?xml version="1.0" encoding="UTF-8" standalone="no"?>
<!DOCTYPE svg PUBLIC "-//W3C//DTD SVG 1.1//EN"
 "http://www.w3.org/Graphics/SVG/1.1/DTD/svg11.dtd">
<!-- Generated by graphviz version 2.43.0 (0)
 -->
<!-- Title: OMSim_radioactive_decays.cc Pages: 1 -->
<svg width="2694pt" height="375pt"
 viewBox="0.00 0.00 2693.50 375.00" xmlns="http://www.w3.org/2000/svg" xmlns:xlink="http://www.w3.org/1999/xlink">
<g id="graph0" class="graph" transform="scale(1 1) rotate(0) translate(4 371)">
<title>OMSim_radioactive_decays.cc</title>
<polygon fill="white" stroke="transparent" points="-4,4 -4,-371 2689.5,-371 2689.5,4 -4,4"/>
<!-- Node1 -->
<g id="node1" class="node">
<title>Node1</title>
<g id="a_node1"><a xlink:title=" ">
<polygon fill="#bfbfbf" stroke="black" points="488,-347.5 488,-366.5 653,-366.5 653,-347.5 488,-347.5"/>
<text text-anchor="middle" x="570.5" y="-354.5" font-family="Helvetica,sans-Serif" font-size="10.00">OMSim_radioactive_decays.cc</text>
</a>
</g>
</g>
<!-- Node2 -->
<g id="node2" class="node">
<title>Node2</title>
<g id="a_node2"><a xlink:href="_o_m_sim_8hh.html" target="_top" xlink:title="Main simulation class for the Optical Module (OM) simulation.">
<polygon fill="white" stroke="black" points="1749,-291.5 1749,-310.5 1816,-310.5 1816,-291.5 1749,-291.5"/>
<text text-anchor="middle" x="1782.5" y="-298.5" font-family="Helvetica,sans-Serif" font-size="10.00">OMSim.hh</text>
</a>
</g>
</g>
<!-- Node1&#45;&gt;Node2 -->
<g id="edge1" class="edge">
<title>Node1&#45;&gt;Node2</title>
<path fill="none" stroke="midnightblue" d="M653.33,-352.31C889.5,-341.79 1560.69,-311.88 1738.71,-303.95"/>
<polygon fill="midnightblue" stroke="midnightblue" points="1738.92,-307.45 1748.76,-303.5 1738.61,-300.45 1738.92,-307.45"/>
</g>
<!-- Node29 -->
<g id="node29" class="node">
<title>Node29</title>
<g id="a_node29"><a xlink:href="_o_m_sim_decays_g_p_s_8hh.html" target="_top" xlink:title=" ">
<polygon fill="white" stroke="black" points="282.5,-291.5 282.5,-310.5 404.5,-310.5 404.5,-291.5 282.5,-291.5"/>
<text text-anchor="middle" x="343.5" y="-298.5" font-family="Helvetica,sans-Serif" font-size="10.00">OMSimDecaysGPS.hh</text>
</a>
</g>
</g>
<!-- Node1&#45;&gt;Node29 -->
<g id="edge28" class="edge">
<title>Node1&#45;&gt;Node29</title>
<path fill="none" stroke="midnightblue" d="M534.53,-347.44C495.18,-338.08 432.01,-323.06 389.19,-312.87"/>
<polygon fill="midnightblue" stroke="midnightblue" points="389.84,-309.43 379.3,-310.52 388.22,-316.24 389.84,-309.43"/>
</g>
<!-- Node44 -->
<g id="node44" class="node">
<title>Node44</title>
<g id="a_node44"><a xlink:href="_o_m_sim_hit_manager_8hh.html" target="_top" xlink:title=" ">
<polygon fill="white" stroke="black" points="585,-291.5 585,-310.5 708,-310.5 708,-291.5 585,-291.5"/>
<text text-anchor="middle" x="646.5" y="-298.5" font-family="Helvetica,sans-Serif" font-size="10.00">OMSimHitManager.hh</text>
</a>
</g>
</g>
<!-- Node1&#45;&gt;Node44 -->
<g id="edge44" class="edge">
<title>Node1&#45;&gt;Node44</title>
<path fill="none" stroke="midnightblue" d="M582.71,-347.32C594.28,-339.11 611.88,-326.6 625.66,-316.81"/>
<polygon fill="midnightblue" stroke="midnightblue" points="627.94,-319.48 634.07,-310.83 623.89,-313.77 627.94,-319.48"/>
</g>
<!-- Node50 -->
<g id="node50" class="node">
<title>Node50</title>
<g id="a_node50"><a xlink:href="_o_m_sim_decays_analysis_8hh.html" target="_top" xlink:title=" ">
<polygon fill="white" stroke="black" points="422.5,-291.5 422.5,-310.5 566.5,-310.5 566.5,-291.5 422.5,-291.5"/>
<text text-anchor="middle" x="494.5" y="-298.5" font-family="Helvetica,sans-Serif" font-size="10.00">OMSimDecaysAnalysis.hh</text>
</a>
</g>
</g>
<!-- Node1&#45;&gt;Node50 -->
<g id="edge53" class="edge">
<title>Node1&#45;&gt;Node50</title>
<path fill="none" stroke="midnightblue" d="M558.29,-347.32C546.72,-339.11 529.12,-326.6 515.34,-316.81"/>
<polygon fill="midnightblue" stroke="midnightblue" points="517.11,-313.77 506.93,-310.83 513.06,-319.48 517.11,-313.77"/>
</g>
<!-- Node3 -->
<g id="node3" class="node">
<title>Node3</title>
<g id="a_node3"><a xlink:title=" ">
<polygon fill="white" stroke="#bfbfbf" points="985.5,-235.5 985.5,-254.5 1155.5,-254.5 1155.5,-235.5 985.5,-235.5"/>
<text text-anchor="middle" x="1070.5" y="-242.5" font-family="Helvetica,sans-Serif" font-size="10.00">OMSimDetectorConstruction.hh</text>
</a>
</g>
</g>
<!-- Node2&#45;&gt;Node3 -->
<g id="edge2" class="edge">
<title>Node2&#45;&gt;Node3</title>
<path fill="none" stroke="midnightblue" d="M1748.7,-297.79C1657.02,-291.75 1395.66,-274.16 1165.91,-255.02"/>
<polygon fill="midnightblue" stroke="midnightblue" points="1165.94,-251.51 1155.69,-254.16 1165.36,-258.48 1165.94,-251.51"/>
</g>
<!-- Node4 -->
<g id="node4" class="node">
<title>Node4</title>
<g id="a_node4"><a xlink:title=" ">
<polygon fill="white" stroke="#bfbfbf" points="1174,-235.5 1174,-254.5 1295,-254.5 1295,-235.5 1174,-235.5"/>
<text text-anchor="middle" x="1234.5" y="-242.5" font-family="Helvetica,sans-Serif" font-size="10.00">OMSimPhysicsList.hh</text>
</a>
</g>
</g>
<!-- Node2&#45;&gt;Node4 -->
<g id="edge3" class="edge">
<title>Node2&#45;&gt;Node4</title>
<path fill="none" stroke="midnightblue" d="M1748.85,-297.23C1672.21,-290.83 1478.57,-274.19 1305.26,-255.05"/>
<polygon fill="midnightblue" stroke="midnightblue" points="1305.52,-251.56 1295.19,-253.93 1304.74,-258.51 1305.52,-251.56"/>
</g>
<!-- Node5 -->
<g id="node5" class="node">
<title>Node5</title>
<g id="a_node5"><a xlink:href="_o_m_sim_primary_generator_action_8hh.html" target="_top" xlink:title=" ">
<polygon fill="white" stroke="black" points="1313,-235.5 1313,-254.5 1498,-254.5 1498,-235.5 1313,-235.5"/>
<text text-anchor="middle" x="1405.5" y="-242.5" font-family="Helvetica,sans-Serif" font-size="10.00">OMSimPrimaryGeneratorAction.hh</text>
</a>
</g>
</g>
<!-- Node2&#45;&gt;Node5 -->
<g id="edge4" class="edge">
<title>Node2&#45;&gt;Node5</title>
<path fill="none" stroke="midnightblue" d="M1748.71,-295.16C1687.36,-286.37 1556.48,-267.63 1475.24,-255.99"/>
<polygon fill="midnightblue" stroke="midnightblue" points="1475.5,-252.49 1465.1,-254.54 1474.5,-259.42 1475.5,-252.49"/>
</g>
<!-- Node7 -->
<g id="node7" class="node">
<title>Node7</title>
<g id="a_node7"><a xlink:title=" ">
<polygon fill="white" stroke="#bfbfbf" points="1515.5,-235.5 1515.5,-254.5 1631.5,-254.5 1631.5,-235.5 1515.5,-235.5"/>
<text text-anchor="middle" x="1573.5" y="-242.5" font-family="Helvetica,sans-Serif" font-size="10.00">OMSimRunAction.hh</text>
</a>
</g>
</g>
<!-- Node2&#45;&gt;Node7 -->
<g id="edge6" class="edge">
<title>Node2&#45;&gt;Node7</title>
<path fill="none" stroke="midnightblue" d="M1749.38,-291.44C1713.38,-282.14 1655.73,-267.25 1616.31,-257.06"/>
<polygon fill="midnightblue" stroke="midnightblue" points="1617.02,-253.63 1606.46,-254.52 1615.27,-260.41 1617.02,-253.63"/>
</g>
<!-- Node8 -->
<g id="node8" class="node">
<title>Node8</title>
<g id="a_node8"><a xlink:href="common_2framework_2include_2_o_m_sim_event_action_8hh.html" target="_top" xlink:title=" ">
<polygon fill="white" stroke="black" points="1650,-235.5 1650,-254.5 1775,-254.5 1775,-235.5 1650,-235.5"/>
<text text-anchor="middle" x="1712.5" y="-242.5" font-family="Helvetica,sans-Serif" font-size="10.00">OMSimEventAction.hh</text>
</a>
</g>
</g>
<!-- Node2&#45;&gt;Node8 -->
<g id="edge7" class="edge">
<title>Node2&#45;&gt;Node8</title>
<path fill="none" stroke="midnightblue" d="M1771.25,-291.32C1760.7,-283.18 1744.7,-270.84 1732.06,-261.09"/>
<polygon fill="midnightblue" stroke="midnightblue" points="1734.01,-258.17 1723.95,-254.83 1729.73,-263.71 1734.01,-258.17"/>
</g>
<!-- Node12 -->
<g id="node12" class="node">
<title>Node12</title>
<g id="a_node12"><a xlink:href="_o_m_sim_tracking_action_8hh.html" target="_top" xlink:title=" ">
<polygon fill="white" stroke="black" points="1932.5,-235.5 1932.5,-254.5 2070.5,-254.5 2070.5,-235.5 1932.5,-235.5"/>
<text text-anchor="middle" x="2001.5" y="-242.5" font-family="Helvetica,sans-Serif" font-size="10.00">OMSimTrackingAction.hh</text>
</a>
</g>
</g>
<!-- Node2&#45;&gt;Node12 -->
<g id="edge11" class="edge">
<title>Node2&#45;&gt;Node12</title>
<path fill="none" stroke="midnightblue" d="M1816.24,-291.68C1854.04,-282.36 1915.46,-267.22 1957.12,-256.94"/>
<polygon fill="midnightblue" stroke="midnightblue" points="1958.13,-260.3 1967,-254.51 1956.45,-253.5 1958.13,-260.3"/>
</g>
<!-- Node14 -->
<g id="node14" class="node">
<title>Node14</title>
<g id="a_node14"><a xlink:title=" ">
<polygon fill="white" stroke="#bfbfbf" points="2088.5,-235.5 2088.5,-254.5 2228.5,-254.5 2228.5,-235.5 2088.5,-235.5"/>
<text text-anchor="middle" x="2158.5" y="-242.5" font-family="Helvetica,sans-Serif" font-size="10.00">OMSimSteppingAction.hh</text>
</a>
</g>
</g>
<!-- Node2&#45;&gt;Node14 -->
<g id="edge13" class="edge">
<title>Node2&#45;&gt;Node14</title>
<path fill="none" stroke="midnightblue" d="M1816.2,-295.16C1877.39,-286.37 2007.92,-267.63 2088.94,-255.99"/>
<polygon fill="midnightblue" stroke="midnightblue" points="2089.66,-259.42 2099.06,-254.54 2088.66,-252.49 2089.66,-259.42"/>
</g>
<!-- Node15 -->
<g id="node15" class="node">
<title>Node15</title>
<g id="a_node15"><a xlink:href="_o_m_sim_u_iinterface_8hh.html" target="_top" xlink:title="The OMSimUIinterface class provides a singleton interface to Geant4&#39;s UI manager.">
<polygon fill="white" stroke="black" points="1793,-235.5 1793,-254.5 1914,-254.5 1914,-235.5 1793,-235.5"/>
<text text-anchor="middle" x="1853.5" y="-242.5" font-family="Helvetica,sans-Serif" font-size="10.00">OMSimUIinterface.hh</text>
</a>
</g>
</g>
<!-- Node2&#45;&gt;Node15 -->
<g id="edge14" class="edge">
<title>Node2&#45;&gt;Node15</title>
<path fill="none" stroke="midnightblue" d="M1793.91,-291.32C1804.61,-283.18 1820.84,-270.84 1833.66,-261.09"/>
<polygon fill="midnightblue" stroke="midnightblue" points="1836.04,-263.67 1841.89,-254.83 1831.81,-258.1 1836.04,-263.67"/>
</g>
<!-- Node24 -->
<g id="node24" class="node">
<title>Node24</title>
<g id="a_node24"><a xlink:title=" ">
<polygon fill="white" stroke="#bfbfbf" points="2246.5,-235.5 2246.5,-254.5 2352.5,-254.5 2352.5,-235.5 2246.5,-235.5"/>
<text text-anchor="middle" x="2299.5" y="-242.5" font-family="Helvetica,sans-Serif" font-size="10.00">G4RunManager.hh</text>
</a>
</g>
</g>
<!-- Node2&#45;&gt;Node24 -->
<g id="edge23" class="edge">
<title>Node2&#45;&gt;Node24</title>
<path fill="none" stroke="midnightblue" d="M1816.24,-297.19C1890.24,-290.92 2072.62,-274.85 2236.17,-255.11"/>
<polygon fill="midnightblue" stroke="midnightblue" points="2236.92,-258.55 2246.42,-253.87 2236.07,-251.6 2236.92,-258.55"/>
</g>
<!-- Node25 -->
<g id="node25" class="node">
<title>Node25</title>
<g id="a_node25"><a xlink:title=" ">
<polygon fill="white" stroke="#bfbfbf" points="2371,-235.5 2371,-254.5 2478,-254.5 2478,-235.5 2371,-235.5"/>
<text text-anchor="middle" x="2424.5" y="-242.5" font-family="Helvetica,sans-Serif" font-size="10.00">G4VisExecutive.hh</text>
</a>
</g>
</g>
<!-- Node2&#45;&gt;Node25 -->
<g id="edge24" class="edge">
<title>Node2&#45;&gt;Node25</title>
<path fill="none" stroke="midnightblue" d="M1816.18,-298.14C1903.94,-293.14 2147.04,-278.25 2360.76,-255.01"/>
<polygon fill="midnightblue" stroke="midnightblue" points="2361.35,-258.46 2370.91,-253.89 2360.59,-251.5 2361.35,-258.46"/>
</g>
<!-- Node26 -->
<g id="node26" class="node">
<title>Node26</title>
<g id="a_node26"><a xlink:title=" ">
<polygon fill="white" stroke="#bfbfbf" points="2496,-235.5 2496,-254.5 2599,-254.5 2599,-235.5 2496,-235.5"/>
<text text-anchor="middle" x="2547.5" y="-242.5" font-family="Helvetica,sans-Serif" font-size="10.00">G4UIExecutive.hh</text>
</a>
</g>
</g>
<!-- Node2&#45;&gt;Node26 -->
<g id="edge25" class="edge">
<title>Node2&#45;&gt;Node26</title>
<path fill="none" stroke="midnightblue" d="M1816.34,-298.86C1916.81,-295.27 2222.29,-282.78 2485.69,-255.11"/>
<polygon fill="midnightblue" stroke="midnightblue" points="2486.25,-258.57 2495.83,-254.04 2485.51,-251.61 2486.25,-258.57"/>
</g>
<!-- Node27 -->
<g id="node27" class="node">
<title>Node27</title>
<g id="a_node27"><a xlink:title=" ">
<polygon fill="white" stroke="#bfbfbf" points="2617.5,-235.5 2617.5,-254.5 2685.5,-254.5 2685.5,-235.5 2617.5,-235.5"/>
<text text-anchor="middle" x="2651.5" y="-242.5" font-family="Helvetica,sans-Serif" font-size="10.00">filesystem</text>
</a>
</g>
</g>
<!-- Node2&#45;&gt;Node27 -->
<g id="edge26" class="edge">
<title>Node2&#45;&gt;Node27</title>
<path fill="none" stroke="midnightblue" d="M1816.11,-299.99C1927.49,-299.59 2294.7,-295.19 2607.15,-254.97"/>
<polygon fill="midnightblue" stroke="midnightblue" points="2607.85,-258.41 2617.31,-253.64 2606.94,-251.47 2607.85,-258.41"/>
</g>
<!-- Node28 -->
<g id="node28" class="node">
<title>Node28</title>
<g id="a_node28"><a xlink:title=" ">
<polygon fill="white" stroke="#bfbfbf" points="817.5,-235.5 817.5,-254.5 967.5,-254.5 967.5,-235.5 817.5,-235.5"/>
<text text-anchor="middle" x="892.5" y="-242.5" font-family="Helvetica,sans-Serif" font-size="10.00">boost/program_options.hpp</text>
</a>
</g>
</g>
<!-- Node2&#45;&gt;Node28 -->
<g id="edge27" class="edge">
<title>Node2&#45;&gt;Node28</title>
<path fill="none" stroke="midnightblue" d="M1748.67,-298.73C1639.06,-294.48 1283.54,-279.68 977.98,-255.08"/>
<polygon fill="midnightblue" stroke="midnightblue" points="977.84,-251.56 967.59,-254.24 977.27,-258.53 977.84,-251.56"/>
</g>
<!-- Node6 -->
<g id="node6" class="node">
<title>Node6</title>
<g id="a_node6"><a xlink:title=" ">
<polygon fill="white" stroke="#bfbfbf" points="1309.5,-179.5 1309.5,-198.5 1501.5,-198.5 1501.5,-179.5 1309.5,-179.5"/>
<text text-anchor="middle" x="1405.5" y="-186.5" font-family="Helvetica,sans-Serif" font-size="10.00">G4VUserPrimaryGeneratorAction.hh</text>
</a>
</g>
</g>
<!-- Node5&#45;&gt;Node6 -->
<g id="edge5" class="edge">
<title>Node5&#45;&gt;Node6</title>
<path fill="none" stroke="midnightblue" d="M1405.5,-235.08C1405.5,-228.01 1405.5,-217.86 1405.5,-208.99"/>
<polygon fill="midnightblue" stroke="midnightblue" points="1409,-208.75 1405.5,-198.75 1402,-208.75 1409,-208.75"/>
</g>
<!-- Node9 -->
<g id="node9" class="node">
<title>Node9</title>
<g id="a_node9"><a xlink:title=" ">
<polygon fill="white" stroke="#bfbfbf" points="1615.5,-179.5 1615.5,-198.5 1741.5,-198.5 1741.5,-179.5 1615.5,-179.5"/>
<text text-anchor="middle" x="1678.5" y="-186.5" font-family="Helvetica,sans-Serif" font-size="10.00">G4UserEventAction.hh</text>
</a>
</g>
</g>
<!-- Node8&#45;&gt;Node9 -->
<g id="edge8" class="edge">
<title>Node8&#45;&gt;Node9</title>
<path fill="none" stroke="midnightblue" d="M1706.89,-235.08C1702.13,-227.53 1695.18,-216.49 1689.35,-207.23"/>
<polygon fill="midnightblue" stroke="midnightblue" points="1692.3,-205.35 1684.01,-198.75 1686.38,-209.08 1692.3,-205.35"/>
</g>
<!-- Node10 -->
<g id="node10" class="node">
<title>Node10</title>
<g id="a_node10"><a xlink:title=" ">
<polygon fill="white" stroke="#bfbfbf" points="1553.5,-179.5 1553.5,-198.5 1597.5,-198.5 1597.5,-179.5 1553.5,-179.5"/>
<text text-anchor="middle" x="1575.5" y="-186.5" font-family="Helvetica,sans-Serif" font-size="10.00">string</text>
</a>
</g>
</g>
<!-- Node8&#45;&gt;Node10 -->
<g id="edge9" class="edge">
<title>Node8&#45;&gt;Node10</title>
<path fill="none" stroke="midnightblue" d="M1690.79,-235.44C1668.15,-226.52 1632.43,-212.44 1606.75,-202.32"/>
<polygon fill="midnightblue" stroke="midnightblue" points="1607.69,-198.93 1597.11,-198.52 1605.13,-205.44 1607.69,-198.93"/>
</g>
<!-- Node11 -->
<g id="node11" class="node">
<title>Node11</title>
<g id="a_node11"><a xlink:title=" ">
<polygon fill="white" stroke="#bfbfbf" points="1064,-179.5 1064,-198.5 1137,-198.5 1137,-179.5 1064,-179.5"/>
<text text-anchor="middle" x="1100.5" y="-186.5" font-family="Helvetica,sans-Serif" font-size="10.00">G4Types.hh</text>
</a>
</g>
</g>
<!-- Node8&#45;&gt;Node11 -->
<g id="edge10" class="edge">
<title>Node8&#45;&gt;Node11</title>
<path fill="none" stroke="midnightblue" d="M1649.69,-235.99C1646.58,-235.65 1643.51,-235.31 1640.5,-235 1458.32,-216.03 1240.9,-199.89 1147.22,-193.24"/>
<polygon fill="midnightblue" stroke="midnightblue" points="1147.44,-189.75 1137.22,-192.54 1146.94,-196.73 1147.44,-189.75"/>
</g>
<!-- Node13 -->
<g id="node13" class="node">
<title>Node13</title>
<g id="a_node13"><a xlink:title=" ">
<polygon fill="white" stroke="#bfbfbf" points="2058,-179.5 2058,-198.5 2197,-198.5 2197,-179.5 2058,-179.5"/>
<text text-anchor="middle" x="2127.5" y="-186.5" font-family="Helvetica,sans-Serif" font-size="10.00">G4UserTrackingAction.hh</text>
</a>
</g>
</g>
<!-- Node12&#45;&gt;Node13 -->
<g id="edge12" class="edge">
<title>Node12&#45;&gt;Node13</title>
<path fill="none" stroke="midnightblue" d="M2021.47,-235.44C2042.11,-226.6 2074.56,-212.69 2098.13,-202.59"/>
<polygon fill="midnightblue" stroke="midnightblue" points="2099.82,-205.67 2107.63,-198.52 2097.06,-199.24 2099.82,-205.67"/>
</g>
<!-- Node16 -->
<g id="node16" class="node">
<title>Node16</title>
<g id="a_node16"><a xlink:href="_o_m_sim_command_args_table_8hh.html" target="_top" xlink:title="Definition of the OMSimCommandArgsTable singleton class, which controls user args.">
<polygon fill="white" stroke="black" points="1875.5,-179.5 1875.5,-198.5 2039.5,-198.5 2039.5,-179.5 1875.5,-179.5"/>
<text text-anchor="middle" x="1957.5" y="-186.5" font-family="Helvetica,sans-Serif" font-size="10.00">OMSimCommandArgsTable.hh</text>
</a>
</g>
</g>
<!-- Node15&#45;&gt;Node16 -->
<g id="edge15" class="edge">
<title>Node15&#45;&gt;Node16</title>
<path fill="none" stroke="midnightblue" d="M1870.21,-235.32C1886.81,-226.7 1912.5,-213.36 1931.72,-203.39"/>
<polygon fill="midnightblue" stroke="midnightblue" points="1933.57,-206.37 1940.83,-198.65 1930.34,-200.16 1933.57,-206.37"/>
</g>
<!-- Node23 -->
<g id="node23" class="node">
<title>Node23</title>
<g id="a_node23"><a xlink:title=" ">
<polygon fill="white" stroke="#bfbfbf" points="1759.5,-179.5 1759.5,-198.5 1857.5,-198.5 1857.5,-179.5 1759.5,-179.5"/>
<text text-anchor="middle" x="1808.5" y="-186.5" font-family="Helvetica,sans-Serif" font-size="10.00">G4UImanager.hh</text>
</a>
</g>
</g>
<!-- Node15&#45;&gt;Node23 -->
<g id="edge22" class="edge">
<title>Node15&#45;&gt;Node23</title>
<path fill="none" stroke="midnightblue" d="M1846.07,-235.08C1839.65,-227.38 1830.19,-216.03 1822.38,-206.65"/>
<polygon fill="midnightblue" stroke="midnightblue" points="1824.88,-204.19 1815.79,-198.75 1819.51,-208.67 1824.88,-204.19"/>
</g>
<!-- Node17 -->
<g id="node17" class="node">
<title>Node17</title>
<g id="a_node17"><a xlink:href="_o_m_sim_logger_8hh.html" target="_top" xlink:title=" ">
<polygon fill="white" stroke="black" points="2010,-123.5 2010,-142.5 2109,-142.5 2109,-123.5 2010,-123.5"/>
<text text-anchor="middle" x="2059.5" y="-130.5" font-family="Helvetica,sans-Serif" font-size="10.00">OMSimLogger.hh</text>
</a>
</g>
</g>
<!-- Node16&#45;&gt;Node17 -->
<g id="edge16" class="edge">
<title>Node16&#45;&gt;Node17</title>
<path fill="none" stroke="midnightblue" d="M1973.89,-179.32C1990.17,-170.7 2015.37,-157.36 2034.22,-147.39"/>
<polygon fill="midnightblue" stroke="midnightblue" points="2035.95,-150.43 2043.15,-142.65 2032.68,-144.24 2035.95,-150.43"/>
</g>
<!-- Node20 -->
<g id="node20" class="node">
<title>Node20</title>
<g id="a_node20"><a xlink:title=" ">
<polygon fill="white" stroke="#bfbfbf" points="608,-123.5 608,-142.5 663,-142.5 663,-123.5 608,-123.5"/>
<text text-anchor="middle" x="635.5" y="-130.5" font-family="Helvetica,sans-Serif" font-size="10.00">fstream</text>
</a>
</g>
</g>
<!-- Node16&#45;&gt;Node20 -->
<g id="edge19" class="edge">
<title>Node16&#45;&gt;Node20</title>
<path fill="none" stroke="midnightblue" d="M1875.18,-179.63C1872.25,-179.4 1869.35,-179.19 1866.5,-179 1396.63,-147.21 824.24,-136.81 673.39,-134.53"/>
<polygon fill="midnightblue" stroke="midnightblue" points="673.32,-131.03 663.27,-134.38 673.21,-138.03 673.32,-131.03"/>
</g>
<!-- Node21 -->
<g id="node21" class="node">
<title>Node21</title>
<g id="a_node21"><a xlink:title=" ">
<polygon fill="white" stroke="#bfbfbf" points="1821.5,-123.5 1821.5,-142.5 1905.5,-142.5 1905.5,-123.5 1821.5,-123.5"/>
<text text-anchor="middle" x="1863.5" y="-130.5" font-family="Helvetica,sans-Serif" font-size="10.00">boost/any.hpp</text>
</a>
</g>
</g>
<!-- Node16&#45;&gt;Node21 -->
<g id="edge20" class="edge">
<title>Node16&#45;&gt;Node21</title>
<path fill="none" stroke="midnightblue" d="M1942.4,-179.32C1927.6,-170.82 1904.81,-157.73 1887.52,-147.8"/>
<polygon fill="midnightblue" stroke="midnightblue" points="1888.98,-144.6 1878.57,-142.65 1885.49,-150.67 1888.98,-144.6"/>
</g>
<!-- Node22 -->
<g id="node22" class="node">
<title>Node22</title>
<g id="a_node22"><a xlink:title=" ">
<polygon fill="white" stroke="#bfbfbf" points="1923.5,-123.5 1923.5,-142.5 1991.5,-142.5 1991.5,-123.5 1923.5,-123.5"/>
<text text-anchor="middle" x="1957.5" y="-130.5" font-family="Helvetica,sans-Serif" font-size="10.00">sys/time.h</text>
</a>
</g>
</g>
<!-- Node16&#45;&gt;Node22 -->
<g id="edge21" class="edge">
<title>Node16&#45;&gt;Node22</title>
<path fill="none" stroke="midnightblue" d="M1957.5,-179.08C1957.5,-172.01 1957.5,-161.86 1957.5,-152.99"/>
<polygon fill="midnightblue" stroke="midnightblue" points="1961,-152.75 1957.5,-142.75 1954,-152.75 1961,-152.75"/>
</g>
<!-- Node18 -->
<g id="node18" class="node">
<title>Node18</title>
<g id="a_node18"><a xlink:title=" ">
<polygon fill="white" stroke="#bfbfbf" points="2000.5,-67.5 2000.5,-86.5 2050.5,-86.5 2050.5,-67.5 2000.5,-67.5"/>
<text text-anchor="middle" x="2025.5" y="-74.5" font-family="Helvetica,sans-Serif" font-size="10.00">stdio.h</text>
</a>
</g>
</g>
<!-- Node17&#45;&gt;Node18 -->
<g id="edge17" class="edge">
<title>Node17&#45;&gt;Node18</title>
<path fill="none" stroke="midnightblue" d="M2053.89,-123.08C2049.13,-115.53 2042.18,-104.49 2036.35,-95.23"/>
<polygon fill="midnightblue" stroke="midnightblue" points="2039.3,-93.35 2031.01,-86.75 2033.38,-97.08 2039.3,-93.35"/>
</g>
<!-- Node19 -->
<g id="node19" class="node">
<title>Node19</title>
<g id="a_node19"><a xlink:title=" ">
<polygon fill="white" stroke="#bfbfbf" points="2068.5,-67.5 2068.5,-86.5 2116.5,-86.5 2116.5,-67.5 2068.5,-67.5"/>
<text text-anchor="middle" x="2092.5" y="-74.5" font-family="Helvetica,sans-Serif" font-size="10.00">time.h</text>
</a>
</g>
</g>
<!-- Node17&#45;&gt;Node19 -->
<g id="edge18" class="edge">
<title>Node17&#45;&gt;Node19</title>
<path fill="none" stroke="midnightblue" d="M2064.95,-123.08C2069.51,-115.61 2076.17,-104.72 2081.79,-95.52"/>
<polygon fill="midnightblue" stroke="midnightblue" points="2084.92,-97.11 2087.15,-86.75 2078.95,-93.46 2084.92,-97.11"/>
</g>
<!-- Node30 -->
<g id="node30" class="node">
<title>Node30</title>
<g id="a_node30"><a xlink:href="_o_m_sim_optical_module_8hh.html" target="_top" xlink:title=" ">
<polygon fill="white" stroke="black" points="287,-235.5 287,-254.5 424,-254.5 424,-235.5 287,-235.5"/>
<text text-anchor="middle" x="355.5" y="-242.5" font-family="Helvetica,sans-Serif" font-size="10.00">OMSimOpticalModule.hh</text>
</a>
</g>
</g>
<!-- Node29&#45;&gt;Node30 -->
<g id="edge29" class="edge">
<title>Node29&#45;&gt;Node30</title>
<path fill="none" stroke="midnightblue" d="M345.48,-291.08C347.07,-283.93 349.36,-273.64 351.35,-264.69"/>
<polygon fill="midnightblue" stroke="midnightblue" points="354.8,-265.27 353.56,-254.75 347.97,-263.75 354.8,-265.27"/>
</g>
<!-- Node43 -->
<g id="node43" class="node">
<title>Node43</title>
<g id="a_node43"><a xlink:title=" ">
<polygon fill="white" stroke="#bfbfbf" points="202,-235.5 202,-254.5 269,-254.5 269,-235.5 202,-235.5"/>
<text text-anchor="middle" x="235.5" y="-242.5" font-family="Helvetica,sans-Serif" font-size="10.00">globals.hh</text>
</a>
</g>
</g>
<!-- Node29&#45;&gt;Node43 -->
<g id="edge43" class="edge">
<title>Node29&#45;&gt;Node43</title>
<path fill="none" stroke="midnightblue" d="M326.15,-291.32C308.83,-282.66 281.98,-269.24 262,-259.25"/>
<polygon fill="midnightblue" stroke="midnightblue" points="263.32,-256 252.81,-254.65 260.19,-262.26 263.32,-256"/>
</g>
<!-- Node31 -->
<g id="node31" class="node">
<title>Node31</title>
<g id="a_node31"><a xlink:href="abc_detector_component_8hh.html" target="_top" xlink:title=" ">
<polygon fill="white" stroke="black" points="326,-123.5 326,-142.5 473,-142.5 473,-123.5 326,-123.5"/>
<text text-anchor="middle" x="399.5" y="-130.5" font-family="Helvetica,sans-Serif" font-size="10.00">abcDetectorComponent.hh</text>
</a>
</g>
</g>
<!-- Node30&#45;&gt;Node31 -->
<g id="edge30" class="edge">
<title>Node30&#45;&gt;Node31</title>
<path fill="none" stroke="midnightblue" d="M358.95,-235.37C366.12,-217.46 382.73,-175.92 392.32,-151.95"/>
<polygon fill="midnightblue" stroke="midnightblue" points="395.6,-153.18 396.06,-142.59 389.1,-150.58 395.6,-153.18"/>
</g>
<!-- Node40 -->
<g id="node40" class="node">
<title>Node40</title>
<g id="a_node40"><a xlink:href="_o_m_sim_p_m_t_construction_8hh.html" target="_top" xlink:title=" ">
<polygon fill="white" stroke="black" points="201,-179.5 201,-198.5 350,-198.5 350,-179.5 201,-179.5"/>
<text text-anchor="middle" x="275.5" y="-186.5" font-family="Helvetica,sans-Serif" font-size="10.00">OMSimPMTConstruction.hh</text>
</a>
</g>
</g>
<!-- Node30&#45;&gt;Node40 -->
<g id="edge39" class="edge">
<title>Node30&#45;&gt;Node40</title>
<path fill="none" stroke="midnightblue" d="M342.65,-235.32C330.28,-226.98 311.37,-214.21 296.76,-204.35"/>
<polygon fill="midnightblue" stroke="midnightblue" points="298.57,-201.35 288.32,-198.65 294.65,-207.15 298.57,-201.35"/>
</g>
<!-- Node32 -->
<g id="node32" class="node">
<title>Node32</title>
<g id="a_node32"><a xlink:href="_o_m_sim_input_data_8hh.html" target="_top" xlink:title=" ">
<polygon fill="white" stroke="black" points="87,-67.5 87,-86.5 202,-86.5 202,-67.5 87,-67.5"/>
<text text-anchor="middle" x="144.5" y="-74.5" font-family="Helvetica,sans-Serif" font-size="10.00">OMSimInputData.hh</text>
</a>
</g>
</g>
<!-- Node31&#45;&gt;Node32 -->
<g id="edge31" class="edge">
<title>Node31&#45;&gt;Node32</title>
<path fill="none" stroke="midnightblue" d="M359.09,-123.44C314.52,-114 242.73,-98.8 194.61,-88.61"/>
<polygon fill="midnightblue" stroke="midnightblue" points="195.22,-85.16 184.72,-86.52 193.77,-92.01 195.22,-85.16"/>
</g>
<!-- Node36 -->
<g id="node36" class="node">
<title>Node36</title>
<g id="a_node36"><a xlink:title=" ">
<polygon fill="white" stroke="#bfbfbf" points="220,-67.5 220,-86.5 327,-86.5 327,-67.5 220,-67.5"/>
<text text-anchor="middle" x="273.5" y="-74.5" font-family="Helvetica,sans-Serif" font-size="10.00">G4Transform3D.hh</text>
</a>
</g>
</g>
<!-- Node31&#45;&gt;Node36 -->
<g id="edge35" class="edge">
<title>Node31&#45;&gt;Node36</title>
<path fill="none" stroke="midnightblue" d="M379.53,-123.44C358.89,-114.6 326.44,-100.69 302.87,-90.59"/>
<polygon fill="midnightblue" stroke="midnightblue" points="303.94,-87.24 293.37,-86.52 301.18,-93.67 303.94,-87.24"/>
</g>
<!-- Node37 -->
<g id="node37" class="node">
<title>Node37</title>
<g id="a_node37"><a xlink:title=" ">
<polygon fill="white" stroke="#bfbfbf" points="345.5,-67.5 345.5,-86.5 453.5,-86.5 453.5,-67.5 345.5,-67.5"/>
<text text-anchor="middle" x="399.5" y="-74.5" font-family="Helvetica,sans-Serif" font-size="10.00">G4VisAttributes.hh</text>
</a>
</g>
</g>
<!-- Node31&#45;&gt;Node37 -->
<g id="edge36" class="edge">
<title>Node31&#45;&gt;Node37</title>
<path fill="none" stroke="midnightblue" d="M399.5,-123.08C399.5,-116.01 399.5,-105.86 399.5,-96.99"/>
<polygon fill="midnightblue" stroke="midnightblue" points="403,-96.75 399.5,-86.75 396,-96.75 403,-96.75"/>
</g>
<!-- Node38 -->
<g id="node38" class="node">
<title>Node38</title>
<g id="a_node38"><a xlink:title=" ">
<polygon fill="white" stroke="#bfbfbf" points="472,-67.5 472,-86.5 597,-86.5 597,-67.5 472,-67.5"/>
<text text-anchor="middle" x="534.5" y="-74.5" font-family="Helvetica,sans-Serif" font-size="10.00">G4SubtractionSolid.hh</text>
</a>
</g>
</g>
<!-- Node31&#45;&gt;Node38 -->
<g id="edge37" class="edge">
<title>Node31&#45;&gt;Node38</title>
<path fill="none" stroke="midnightblue" d="M420.89,-123.44C443.21,-114.52 478.4,-100.44 503.71,-90.32"/>
<polygon fill="midnightblue" stroke="midnightblue" points="505.22,-93.48 513.21,-86.52 502.62,-86.98 505.22,-93.48"/>
</g>
<!-- Node39 -->
<g id="node39" class="node">
<title>Node39</title>
<g id="a_node39"><a xlink:title=" ">
<polygon fill="white" stroke="#bfbfbf" points="615.5,-67.5 615.5,-86.5 725.5,-86.5 725.5,-67.5 615.5,-67.5"/>
<text text-anchor="middle" x="670.5" y="-74.5" font-family="Helvetica,sans-Serif" font-size="10.00">G4PVPlacement.hh</text>
</a>
</g>
</g>
<!-- Node31&#45;&gt;Node39 -->
<g id="edge38" class="edge">
<title>Node31&#45;&gt;Node39</title>
<path fill="none" stroke="midnightblue" d="M442.44,-123.44C490.01,-113.96 566.74,-98.67 617.89,-88.48"/>
<polygon fill="midnightblue" stroke="midnightblue" points="618.64,-91.9 627.76,-86.52 617.27,-85.04 618.64,-91.9"/>
</g>
<!-- Node33 -->
<g id="node33" class="node">
<title>Node33</title>
<g id="a_node33"><a xlink:title=" ">
<polygon fill="white" stroke="#bfbfbf" points="161,-0.5 161,-30.5 274,-30.5 274,-0.5 161,-0.5"/>
<text text-anchor="start" x="169" y="-18.5" font-family="Helvetica,sans-Serif" font-size="10.00">boost/property_tree</text>
<text text-anchor="middle" x="217.5" y="-7.5" font-family="Helvetica,sans-Serif" font-size="10.00">/json_parser.hpp</text>
</a>
</g>
</g>
<!-- Node32&#45;&gt;Node33 -->
<g id="edge32" class="edge">
<title>Node32&#45;&gt;Node33</title>
<path fill="none" stroke="midnightblue" d="M154.96,-67.48C164.66,-59.57 179.49,-47.48 192.27,-37.07"/>
<polygon fill="midnightblue" stroke="midnightblue" points="194.76,-39.55 200.3,-30.52 190.33,-34.13 194.76,-39.55"/>
</g>
<!-- Node34 -->
<g id="node34" class="node">
<title>Node34</title>
<g id="a_node34"><a xlink:title=" ">
<polygon fill="white" stroke="#bfbfbf" points="0,-6 0,-25 143,-25 143,-6 0,-6"/>
<text text-anchor="middle" x="71.5" y="-13" font-family="Helvetica,sans-Serif" font-size="10.00">G4OpBoundaryProcess.hh</text>
</a>
</g>
</g>
<!-- Node32&#45;&gt;Node34 -->
<g id="edge33" class="edge">
<title>Node32&#45;&gt;Node34</title>
<path fill="none" stroke="midnightblue" d="M134.04,-67.48C122.55,-58.11 103.87,-42.88 89.91,-31.51"/>
<polygon fill="midnightblue" stroke="midnightblue" points="91.9,-28.61 81.94,-25.01 87.48,-34.04 91.9,-28.61"/>
</g>
<!-- Node35 -->
<g id="node35" class="node">
<title>Node35</title>
<g id="a_node35"><a xlink:title=" ">
<polygon fill="white" stroke="#bfbfbf" points="493,-6 493,-25 612,-25 612,-6 493,-6"/>
<text text-anchor="middle" x="552.5" y="-13" font-family="Helvetica,sans-Serif" font-size="10.00">G4SystemOfUnits.hh</text>
</a>
</g>
</g>
<!-- Node32&#45;&gt;Node35 -->
<g id="edge34" class="edge">
<title>Node32&#45;&gt;Node35</title>
<path fill="none" stroke="midnightblue" d="M202.09,-67.6C276.19,-56.79 404.77,-38.04 483.87,-26.51"/>
<polygon fill="midnightblue" stroke="midnightblue" points="484.82,-29.91 494.21,-25 483.81,-22.98 484.82,-29.91"/>
</g>
<!-- Node40&#45;&gt;Node31 -->
<g id="edge40" class="edge">
<title>Node40&#45;&gt;Node31</title>
<path fill="none" stroke="midnightblue" d="M295.15,-179.44C315.46,-170.6 347.4,-156.69 370.6,-146.59"/>
<polygon fill="midnightblue" stroke="midnightblue" points="372.17,-149.72 379.94,-142.52 369.38,-143.3 372.17,-149.72"/>
</g>
<!-- Node41 -->
<g id="node41" class="node">
<title>Node41</title>
<g id="a_node41"><a xlink:title=" ">
<polygon fill="white" stroke="#bfbfbf" points="124.5,-123.5 124.5,-142.5 222.5,-142.5 222.5,-123.5 124.5,-123.5"/>
<text text-anchor="middle" x="173.5" y="-130.5" font-family="Helvetica,sans-Serif" font-size="10.00">G4UnionSolid.hh</text>
</a>
</g>
</g>
<!-- Node40&#45;&gt;Node41 -->
<g id="edge41" class="edge">
<title>Node40&#45;&gt;Node41</title>
<path fill="none" stroke="midnightblue" d="M259.11,-179.32C242.83,-170.7 217.63,-157.36 198.78,-147.39"/>
<polygon fill="midnightblue" stroke="midnightblue" points="200.32,-144.24 189.85,-142.65 197.05,-150.43 200.32,-144.24"/>
</g>
<!-- Node42 -->
<g id="node42" class="node">
<title>Node42</title>
<g id="a_node42"><a xlink:title=" ">
<polygon fill="white" stroke="#bfbfbf" points="241,-123.5 241,-142.5 308,-142.5 308,-123.5 241,-123.5"/>
<text text-anchor="middle" x="274.5" y="-130.5" font-family="Helvetica,sans-Serif" font-size="10.00">G4Tubs.hh</text>
</a>
</g>
</g>
<!-- Node40&#45;&gt;Node42 -->
<g id="edge42" class="edge">
<title>Node40&#45;&gt;Node42</title>
<path fill="none" stroke="midnightblue" d="M275.33,-179.08C275.2,-172.01 275.02,-161.86 274.85,-152.99"/>
<polygon fill="midnightblue" stroke="midnightblue" points="278.35,-152.68 274.66,-142.75 271.35,-152.81 278.35,-152.68"/>
</g>
<!-- Node44&#45;&gt;Node20 -->
<g id="edge52" class="edge">
<title>Node44&#45;&gt;Node20</title>
<path fill="none" stroke="midnightblue" d="M645.91,-291.08C644.18,-264.95 639.09,-188.21 636.73,-152.58"/>
<polygon fill="midnightblue" stroke="midnightblue" points="640.22,-152.31 636.07,-142.57 633.24,-152.78 640.22,-152.31"/>
</g>
<!-- Node45 -->
<g id="node45" class="node">
<title>Node45</title>
<g id="a_node45"><a xlink:href="_o_m_sim_p_m_t_response_8hh.html" target="_top" xlink:title=" ">
<polygon fill="white" stroke="black" points="664,-235.5 664,-254.5 799,-254.5 799,-235.5 664,-235.5"/>
<text text-anchor="middle" x="731.5" y="-242.5" font-family="Helvetica,sans-Serif" font-size="10.00">OMSimPMTResponse.hh</text>
</a>
</g>
</g>
<!-- Node44&#45;&gt;Node45 -->
<g id="edge45" class="edge">
<title>Node44&#45;&gt;Node45</title>
<path fill="none" stroke="midnightblue" d="M660.16,-291.32C673.42,-282.9 693.77,-269.97 709.35,-260.07"/>
<polygon fill="midnightblue" stroke="midnightblue" points="711.31,-262.97 717.88,-254.65 707.56,-257.06 711.31,-262.97"/>
</g>
<!-- Node49 -->
<g id="node49" class="node">
<title>Node49</title>
<g id="a_node49"><a xlink:title=" ">
<polygon fill="white" stroke="#bfbfbf" points="504,-235.5 504,-254.5 607,-254.5 607,-235.5 504,-235.5"/>
<text text-anchor="middle" x="555.5" y="-242.5" font-family="Helvetica,sans-Serif" font-size="10.00">G4ThreeVector.hh</text>
</a>
</g>
</g>
<!-- Node44&#45;&gt;Node49 -->
<g id="edge51" class="edge">
<title>Node44&#45;&gt;Node49</title>
<path fill="none" stroke="midnightblue" d="M631.88,-291.32C617.55,-282.82 595.49,-269.73 578.75,-259.8"/>
<polygon fill="midnightblue" stroke="midnightblue" points="580.47,-256.75 570.08,-254.65 576.9,-262.77 580.47,-256.75"/>
</g>
<!-- Node45&#45;&gt;Node11 -->
<g id="edge47" class="edge">
<title>Node45&#45;&gt;Node11</title>
<path fill="none" stroke="midnightblue" d="M789.97,-235.44C862.98,-224.76 986.43,-206.69 1053.58,-196.87"/>
<polygon fill="midnightblue" stroke="midnightblue" points="1054.47,-200.27 1063.86,-195.36 1053.46,-193.35 1054.47,-200.27"/>
</g>
<!-- Node45&#45;&gt;Node35 -->
<g id="edge46" class="edge">
<title>Node45&#45;&gt;Node35</title>
<path fill="none" stroke="midnightblue" d="M734.93,-235.5C745.47,-207.87 774.31,-119.36 734.5,-67 720.54,-48.64 666.96,-35.21 621.53,-26.83"/>
<polygon fill="midnightblue" stroke="midnightblue" points="622.13,-23.39 611.67,-25.07 620.9,-30.28 622.13,-23.39"/>
</g>
<!-- Node46 -->
<g id="node46" class="node">
<title>Node46</title>
<g id="a_node46"><a xlink:title=" ">
<polygon fill="white" stroke="#bfbfbf" points="853.5,-179.5 853.5,-198.5 891.5,-198.5 891.5,-179.5 853.5,-179.5"/>
<text text-anchor="middle" x="872.5" y="-186.5" font-family="Helvetica,sans-Serif" font-size="10.00">map</text>
</a>
</g>
</g>
<!-- Node45&#45;&gt;Node46 -->
<g id="edge48" class="edge">
<title>Node45&#45;&gt;Node46</title>
<path fill="none" stroke="midnightblue" d="M753.84,-235.44C778.22,-226.11 817.3,-211.14 843.9,-200.95"/>
<polygon fill="midnightblue" stroke="midnightblue" points="845.34,-204.15 853.43,-197.3 842.84,-197.61 845.34,-204.15"/>
</g>
<!-- Node47 -->
<g id="node47" class="node">
<title>Node47</title>
<g id="a_node47"><a xlink:title=" ">
<polygon fill="white" stroke="#bfbfbf" points="664,-179.5 664,-198.5 725,-198.5 725,-179.5 664,-179.5"/>
<text text-anchor="middle" x="694.5" y="-186.5" font-family="Helvetica,sans-Serif" font-size="10.00">TGraph.h</text>
</a>
</g>
</g>
<!-- Node45&#45;&gt;Node47 -->
<g id="edge49" class="edge">
<title>Node45&#45;&gt;Node47</title>
<path fill="none" stroke="midnightblue" d="M725.39,-235.08C720.22,-227.53 712.65,-216.49 706.31,-207.23"/>
<polygon fill="midnightblue" stroke="midnightblue" points="709.04,-205.02 700.5,-198.75 703.26,-208.98 709.04,-205.02"/>
</g>
<!-- Node48 -->
<g id="node48" class="node">
<title>Node48</title>
<g id="a_node48"><a xlink:title=" ">
<polygon fill="white" stroke="#bfbfbf" points="782,-179.5 782,-198.5 835,-198.5 835,-179.5 782,-179.5"/>
<text text-anchor="middle" x="808.5" y="-186.5" font-family="Helvetica,sans-Serif" font-size="10.00">TH2D.h</text>
</a>
</g>
</g>
<!-- Node45&#45;&gt;Node48 -->
<g id="edge50" class="edge">
<title>Node45&#45;&gt;Node48</title>
<path fill="none" stroke="midnightblue" d="M743.87,-235.32C755.66,-227.06 773.63,-214.45 787.64,-204.63"/>
<polygon fill="midnightblue" stroke="midnightblue" points="789.98,-207.26 796.16,-198.65 785.96,-201.53 789.98,-207.26"/>
</g>
<!-- Node50&#45;&gt;Node20 -->
<g id="edge55" class="edge">
<title>Node50&#45;&gt;Node20</title>
<path fill="none" stroke="midnightblue" d="M492.15,-291.43C489.07,-278.41 485.11,-253.27 494.5,-235 517.11,-191 568.76,-161.88 602.88,-146.66"/>
<polygon fill="midnightblue" stroke="midnightblue" points="604.62,-149.72 612.42,-142.56 601.85,-143.29 604.62,-149.72"/>
</g>
<!-- Node50&#45;&gt;Node49 -->
<g id="edge54" class="edge">
<title>Node50&#45;&gt;Node49</title>
<path fill="none" stroke="midnightblue" d="M504.3,-291.32C513.32,-283.34 526.91,-271.31 537.82,-261.65"/>
<polygon fill="midnightblue" stroke="midnightblue" points="540.35,-264.08 545.52,-254.83 535.71,-258.84 540.35,-264.08"/>
</g>
</g>
</svg>
