<?xml version="1.0" encoding="UTF-8" standalone="no"?>
<!DOCTYPE svg PUBLIC "-//W3C//DTD SVG 1.1//EN"
 "http://www.w3.org/Graphics/SVG/1.1/DTD/svg11.dtd">
<!-- Generated by graphviz version 2.43.0 (0)
 -->
<!-- Title: OMSimInputData.hh Pages: 1 -->
<svg width="2322pt" height="308pt"
 viewBox="0.00 0.00 2322.00 308.00" xmlns="http://www.w3.org/2000/svg" xmlns:xlink="http://www.w3.org/1999/xlink">
<g id="graph0" class="graph" transform="scale(1 1) rotate(0) translate(4 304)">
<title>OMSimInputData.hh</title>
<polygon fill="white" stroke="transparent" points="-4,4 -4,-304 2318,-304 2318,4 -4,4"/>
<!-- Node1 -->
<g id="node1" class="node">
<title>Node1</title>
<g id="a_node1"><a xlink:title="Input data from external files are read and saved to memory.">
<polygon fill="#bfbfbf" stroke="black" points="1132,-280.5 1132,-299.5 1247,-299.5 1247,-280.5 1132,-280.5"/>
<text text-anchor="middle" x="1189.5" y="-287.5" font-family="Helvetica,sans-Serif" font-size="10.00">OMSimInputData.hh</text>
</a>
</g>
</g>
<!-- Node2 -->
<g id="node2" class="node">
<title>Node2</title>
<g id="a_node2"><a xlink:href="abc_detector_component_8hh.html" target="_top" xlink:title="Provides helper base class abcDetectorComponent for constructing and managing detector components in ...">
<polygon fill="white" stroke="black" points="886,-224.5 886,-243.5 1033,-243.5 1033,-224.5 886,-224.5"/>
<text text-anchor="middle" x="959.5" y="-231.5" font-family="Helvetica,sans-Serif" font-size="10.00">abcDetectorComponent.hh</text>
</a>
</g>
</g>
<!-- Node1&#45;&gt;Node2 -->
<g id="edge1" class="edge">
<title>Node1&#45;&gt;Node2</title>
<path fill="none" stroke="midnightblue" d="M1143.3,-278.15C1099.84,-267.95 1035.66,-252.88 995.77,-243.52"/>
<polygon fill="midnightblue" stroke="midnightblue" points="1142.52,-281.57 1153.06,-280.44 1144.12,-274.75 1142.52,-281.57"/>
</g>
<!-- Node32 -->
<g id="node32" class="node">
<title>Node32</title>
<g id="a_node32"><a xlink:href="_o_m_sim_data_file_types_8cc.html" target="_top" xlink:title=" ">
<polygon fill="white" stroke="black" points="1051.5,-224.5 1051.5,-243.5 1185.5,-243.5 1185.5,-224.5 1051.5,-224.5"/>
<text text-anchor="middle" x="1118.5" y="-231.5" font-family="Helvetica,sans-Serif" font-size="10.00">OMSimDataFileTypes.cc</text>
</a>
</g>
</g>
<!-- Node1&#45;&gt;Node32 -->
<g id="edge50" class="edge">
<title>Node1&#45;&gt;Node32</title>
<path fill="none" stroke="midnightblue" d="M1169.91,-274.1C1157.13,-264.38 1140.89,-252.03 1130.11,-243.83"/>
<polygon fill="midnightblue" stroke="midnightblue" points="1168.01,-277.06 1178.09,-280.32 1172.25,-271.48 1168.01,-277.06"/>
</g>
<!-- Node33 -->
<g id="node33" class="node">
<title>Node33</title>
<g id="a_node33"><a xlink:href="_o_m_sim_input_data_8cc.html" target="_top" xlink:title=" ">
<polygon fill="white" stroke="black" points="1204,-224.5 1204,-243.5 1317,-243.5 1317,-224.5 1204,-224.5"/>
<text text-anchor="middle" x="1260.5" y="-231.5" font-family="Helvetica,sans-Serif" font-size="10.00">OMSimInputData.cc</text>
</a>
</g>
</g>
<!-- Node1&#45;&gt;Node33 -->
<g id="edge51" class="edge">
<title>Node1&#45;&gt;Node33</title>
<path fill="none" stroke="midnightblue" d="M1209.09,-274.1C1221.87,-264.38 1238.11,-252.03 1248.89,-243.83"/>
<polygon fill="midnightblue" stroke="midnightblue" points="1206.75,-271.48 1200.91,-280.32 1210.99,-277.06 1206.75,-271.48"/>
</g>
<!-- Node34 -->
<g id="node34" class="node">
<title>Node34</title>
<g id="a_node34"><a xlink:href="_o_m_sim_p_m_t_response_8cc.html" target="_top" xlink:title=" ">
<polygon fill="white" stroke="black" points="1335.5,-224.5 1335.5,-243.5 1469.5,-243.5 1469.5,-224.5 1335.5,-224.5"/>
<text text-anchor="middle" x="1402.5" y="-231.5" font-family="Helvetica,sans-Serif" font-size="10.00">OMSimPMTResponse.cc</text>
</a>
</g>
</g>
<!-- Node1&#45;&gt;Node34 -->
<g id="edge52" class="edge">
<title>Node1&#45;&gt;Node34</title>
<path fill="none" stroke="midnightblue" d="M1233.05,-277.96C1273.28,-267.76 1332.2,-252.82 1368.91,-243.52"/>
<polygon fill="midnightblue" stroke="midnightblue" points="1232.08,-274.59 1223.25,-280.44 1233.8,-281.38 1232.08,-274.59"/>
</g>
<!-- Node3 -->
<g id="node3" class="node">
<title>Node3</title>
<g id="a_node3"><a xlink:href="_o_m_sim_p_m_t_construction_8hh.html" target="_top" xlink:title="Construction of the PMTs.">
<polygon fill="white" stroke="black" points="638,-168.5 638,-187.5 787,-187.5 787,-168.5 638,-168.5"/>
<text text-anchor="middle" x="712.5" y="-175.5" font-family="Helvetica,sans-Serif" font-size="10.00">OMSimPMTConstruction.hh</text>
</a>
</g>
</g>
<!-- Node2&#45;&gt;Node3 -->
<g id="edge2" class="edge">
<title>Node2&#45;&gt;Node3</title>
<path fill="none" stroke="midnightblue" d="M910.47,-222.28C863.8,-212.08 794.47,-196.92 751.45,-187.52"/>
<polygon fill="midnightblue" stroke="midnightblue" points="909.85,-225.73 920.36,-224.44 911.34,-218.89 909.85,-225.73"/>
</g>
<!-- Node4 -->
<g id="node4" class="node">
<title>Node4</title>
<g id="a_node4"><a xlink:href="abc_detector_component_8cc.html" target="_top" xlink:title=" ">
<polygon fill="white" stroke="black" points="360.5,-112.5 360.5,-131.5 506.5,-131.5 506.5,-112.5 360.5,-112.5"/>
<text text-anchor="middle" x="433.5" y="-119.5" font-family="Helvetica,sans-Serif" font-size="10.00">abcDetectorComponent.cc</text>
</a>
</g>
</g>
<!-- Node2&#45;&gt;Node4 -->
<g id="edge41" class="edge">
<title>Node2&#45;&gt;Node4</title>
<path fill="none" stroke="midnightblue" d="M875.68,-225.97C808.29,-219.27 711.51,-207.3 628.5,-188 563.85,-172.97 490.21,-145.47 454.76,-131.55"/>
<polygon fill="midnightblue" stroke="midnightblue" points="875.53,-229.47 885.82,-226.96 876.21,-222.5 875.53,-229.47"/>
</g>
<!-- Node22 -->
<g id="node22" class="node">
<title>Node22</title>
<g id="a_node22"><a xlink:href="_o_m_sim_optical_module_8hh.html" target="_top" xlink:title=" ">
<polygon fill="white" stroke="black" points="843,-112.5 843,-131.5 980,-131.5 980,-112.5 843,-112.5"/>
<text text-anchor="middle" x="911.5" y="-119.5" font-family="Helvetica,sans-Serif" font-size="10.00">OMSimOpticalModule.hh</text>
</a>
</g>
</g>
<!-- Node2&#45;&gt;Node22 -->
<g id="edge49" class="edge">
<title>Node2&#45;&gt;Node22</title>
<path fill="none" stroke="midnightblue" d="M947.02,-216.2C941.38,-208.01 934.99,-197.83 930.5,-188 921.71,-168.75 915.89,-144.44 913.2,-131.7"/>
<polygon fill="midnightblue" stroke="midnightblue" points="944.27,-218.37 952.93,-224.47 949.97,-214.3 944.27,-218.37"/>
</g>
<!-- Node28 -->
<g id="node28" class="node">
<title>Node28</title>
<g id="a_node28"><a xlink:href="_o_m_sim_d_e_g_g_harness_8hh.html" target="_top" xlink:title="Construction of the DEGG harness.">
<polygon fill="white" stroke="black" points="1132,-168.5 1132,-187.5 1267,-187.5 1267,-168.5 1132,-168.5"/>
<text text-anchor="middle" x="1199.5" y="-175.5" font-family="Helvetica,sans-Serif" font-size="10.00">OMSimDEGGHarness.hh</text>
</a>
</g>
</g>
<!-- Node2&#45;&gt;Node28 -->
<g id="edge42" class="edge">
<title>Node2&#45;&gt;Node28</title>
<path fill="none" stroke="midnightblue" d="M1007.42,-222.22C1052.77,-212.01 1119.94,-196.9 1161.65,-187.52"/>
<polygon fill="midnightblue" stroke="midnightblue" points="1006.52,-218.83 997.53,-224.44 1008.05,-225.66 1006.52,-218.83"/>
</g>
<!-- Node30 -->
<g id="node30" class="node">
<title>Node30</title>
<g id="a_node30"><a xlink:href="_o_m_sim_m_d_o_m_flasher_8hh.html" target="_top" xlink:title="Defines the mDOMFlasher class for simulating the 10 flashers in an mDOM optical module.">
<polygon fill="white" stroke="black" points="940,-168.5 940,-187.5 1075,-187.5 1075,-168.5 940,-168.5"/>
<text text-anchor="middle" x="1007.5" y="-175.5" font-family="Helvetica,sans-Serif" font-size="10.00">OMSimMDOMFlasher.hh</text>
</a>
</g>
</g>
<!-- Node2&#45;&gt;Node30 -->
<g id="edge44" class="edge">
<title>Node2&#45;&gt;Node30</title>
<path fill="none" stroke="midnightblue" d="M974.23,-216.43C982.64,-206.97 992.85,-195.48 999.72,-187.75"/>
<polygon fill="midnightblue" stroke="midnightblue" points="971.45,-214.28 967.43,-224.08 976.69,-218.93 971.45,-214.28"/>
</g>
<!-- Node31 -->
<g id="node31" class="node">
<title>Node31</title>
<g id="a_node31"><a xlink:href="_o_m_sim_m_d_o_m_harness_8hh.html" target="_top" xlink:title="Construction of mDOM harness.">
<polygon fill="white" stroke="black" points="1716.5,-56.5 1716.5,-75.5 1856.5,-75.5 1856.5,-56.5 1716.5,-56.5"/>
<text text-anchor="middle" x="1786.5" y="-63.5" font-family="Helvetica,sans-Serif" font-size="10.00">OMSimMDOMHarness.hh</text>
</a>
</g>
</g>
<!-- Node2&#45;&gt;Node31 -->
<g id="edge46" class="edge">
<title>Node2&#45;&gt;Node31</title>
<path fill="none" stroke="midnightblue" d="M1016.67,-221.74C1039.47,-214.98 1064.71,-204.39 1083.5,-188 1112.27,-162.91 1091.51,-132.82 1123.5,-112 1172.27,-80.25 1555.94,-70.6 1716.37,-67.93"/>
<polygon fill="midnightblue" stroke="midnightblue" points="1015.43,-218.45 1006.73,-224.49 1017.3,-225.19 1015.43,-218.45"/>
</g>
<!-- Node3&#45;&gt;Node4 -->
<g id="edge3" class="edge">
<title>Node3&#45;&gt;Node4</title>
<path fill="none" stroke="midnightblue" d="M658.44,-166.54C605.71,-156.33 526.5,-141 477.5,-131.52"/>
<polygon fill="midnightblue" stroke="midnightblue" points="657.81,-169.98 668.29,-168.44 659.14,-163.11 657.81,-169.98"/>
</g>
<!-- Node5 -->
<g id="node5" class="node">
<title>Node5</title>
<g id="a_node5"><a xlink:href="_o_m_sim_p_m_t_construction_8cc.html" target="_top" xlink:title=" ">
<polygon fill="white" stroke="black" points="639,-112.5 639,-131.5 786,-131.5 786,-112.5 639,-112.5"/>
<text text-anchor="middle" x="712.5" y="-119.5" font-family="Helvetica,sans-Serif" font-size="10.00">OMSimPMTConstruction.cc</text>
</a>
</g>
</g>
<!-- Node3&#45;&gt;Node5 -->
<g id="edge4" class="edge">
<title>Node3&#45;&gt;Node5</title>
<path fill="none" stroke="midnightblue" d="M712.5,-157.8C712.5,-148.91 712.5,-138.78 712.5,-131.75"/>
<polygon fill="midnightblue" stroke="midnightblue" points="709,-158.08 712.5,-168.08 716,-158.08 709,-158.08"/>
</g>
<!-- Node6 -->
<g id="node6" class="node">
<title>Node6</title>
<g id="a_node6"><a xlink:href="_o_m_sim_d_e_g_g_8hh.html" target="_top" xlink:title="Construction of the DEGG class.">
<polygon fill="white" stroke="black" points="641,-56.5 641,-75.5 736,-75.5 736,-56.5 641,-56.5"/>
<text text-anchor="middle" x="688.5" y="-63.5" font-family="Helvetica,sans-Serif" font-size="10.00">OMSimDEGG.hh</text>
</a>
</g>
</g>
<!-- Node3&#45;&gt;Node6 -->
<g id="edge5" class="edge">
<title>Node3&#45;&gt;Node6</title>
<path fill="none" stroke="midnightblue" d="M670.64,-164.61C654.89,-157.69 638.6,-147.28 629.5,-132 615.86,-109.08 648.44,-87.12 670.42,-75.52"/>
<polygon fill="midnightblue" stroke="midnightblue" points="669.73,-168.02 680.32,-168.49 672.33,-161.52 669.73,-168.02"/>
</g>
<!-- Node11 -->
<g id="node11" class="node">
<title>Node11</title>
<g id="a_node11"><a xlink:href="_o_m_sim_l_o_m16_8hh.html" target="_top" xlink:title="Construction of LOM16.">
<polygon fill="white" stroke="black" points="759,-56.5 759,-75.5 860,-75.5 860,-56.5 759,-56.5"/>
<text text-anchor="middle" x="809.5" y="-63.5" font-family="Helvetica,sans-Serif" font-size="10.00">OMSimLOM16.hh</text>
</a>
</g>
</g>
<!-- Node3&#45;&gt;Node11 -->
<g id="edge10" class="edge">
<title>Node3&#45;&gt;Node11</title>
<path fill="none" stroke="midnightblue" d="M750.12,-164.35C766.01,-157.2 783.38,-146.69 794.5,-132 807.36,-115.01 809.48,-88.86 809.66,-75.5"/>
<polygon fill="midnightblue" stroke="midnightblue" points="748.36,-161.29 740.48,-168.37 751.06,-167.75 748.36,-161.29"/>
</g>
<!-- Node13 -->
<g id="node13" class="node">
<title>Node13</title>
<g id="a_node13"><a xlink:href="_o_m_sim_l_o_m18_8hh.html" target="_top" xlink:title="Construction of LOM18.">
<polygon fill="white" stroke="black" points="522,-56.5 522,-75.5 623,-75.5 623,-56.5 522,-56.5"/>
<text text-anchor="middle" x="572.5" y="-63.5" font-family="Helvetica,sans-Serif" font-size="10.00">OMSimLOM18.hh</text>
</a>
</g>
</g>
<!-- Node3&#45;&gt;Node13 -->
<g id="edge15" class="edge">
<title>Node3&#45;&gt;Node13</title>
<path fill="none" stroke="midnightblue" d="M678.74,-164.44C660.86,-156.77 639.22,-145.78 622.5,-132 602.29,-115.34 585.3,-89.05 577.34,-75.58"/>
<polygon fill="midnightblue" stroke="midnightblue" points="677.64,-167.78 688.22,-168.36 680.31,-161.31 677.64,-167.78"/>
</g>
<!-- Node15 -->
<g id="node15" class="node">
<title>Node15</title>
<g id="a_node15"><a xlink:href="_o_m_sim_m_d_o_m_8hh.html" target="_top" xlink:title="Construction of mDOM.">
<polygon fill="white" stroke="black" points="1226.5,-56.5 1226.5,-75.5 1326.5,-75.5 1326.5,-56.5 1226.5,-56.5"/>
<text text-anchor="middle" x="1276.5" y="-63.5" font-family="Helvetica,sans-Serif" font-size="10.00">OMSimMDOM.hh</text>
</a>
</g>
</g>
<!-- Node3&#45;&gt;Node15 -->
<g id="edge20" class="edge">
<title>Node3&#45;&gt;Node15</title>
<path fill="none" stroke="midnightblue" d="M790.61,-167.08C846.17,-159.34 922.38,-147.34 988.5,-132 1018.36,-125.07 1024.78,-119.5 1054.5,-112 1113.6,-97.09 1182.52,-83.74 1227.7,-75.52"/>
<polygon fill="midnightblue" stroke="midnightblue" points="789.91,-163.64 780.48,-168.48 790.86,-170.58 789.91,-163.64"/>
</g>
<!-- Node3&#45;&gt;Node22 -->
<g id="edge27" class="edge">
<title>Node3&#45;&gt;Node22</title>
<path fill="none" stroke="midnightblue" d="M754.15,-165.7C791.71,-155.51 846.11,-140.74 880.12,-131.52"/>
<polygon fill="midnightblue" stroke="midnightblue" points="752.77,-162.45 744.03,-168.44 754.6,-169.2 752.77,-162.45"/>
</g>
<!-- Node23 -->
<g id="node23" class="node">
<title>Node23</title>
<g id="a_node23"><a xlink:href="_o_m_sim_p_d_o_m_8hh.html" target="_top" xlink:title="Implementation of the pDOM/Gen1 DOM class.">
<polygon fill="white" stroke="black" points="407,-56.5 407,-75.5 504,-75.5 504,-56.5 407,-56.5"/>
<text text-anchor="middle" x="455.5" y="-63.5" font-family="Helvetica,sans-Serif" font-size="10.00">OMSimPDOM.hh</text>
</a>
</g>
</g>
<!-- Node3&#45;&gt;Node23 -->
<g id="edge40" class="edge">
<title>Node3&#45;&gt;Node23</title>
<path fill="none" stroke="midnightblue" d="M681.1,-164.77C658.58,-155.9 627.55,-143.49 600.5,-132 554.8,-112.58 501.68,-88.34 474.17,-75.65"/>
<polygon fill="midnightblue" stroke="midnightblue" points="679.92,-168.06 690.5,-168.46 682.48,-161.55 679.92,-168.06"/>
</g>
<!-- Node7 -->
<g id="node7" class="node">
<title>Node7</title>
<g id="a_node7"><a xlink:href="_o_m_sim_d_e_g_g_8cc.html" target="_top" xlink:title=" ">
<polygon fill="white" stroke="black" points="791.5,-0.5 791.5,-19.5 885.5,-19.5 885.5,-0.5 791.5,-0.5"/>
<text text-anchor="middle" x="838.5" y="-7.5" font-family="Helvetica,sans-Serif" font-size="10.00">OMSimDEGG.cc</text>
</a>
</g>
</g>
<!-- Node6&#45;&gt;Node7 -->
<g id="edge6" class="edge">
<title>Node6&#45;&gt;Node7</title>
<path fill="none" stroke="midnightblue" d="M721.72,-53.04C749.95,-42.88 789.76,-28.55 814.84,-19.52"/>
<polygon fill="midnightblue" stroke="midnightblue" points="720.49,-49.76 712.27,-56.44 722.86,-56.35 720.49,-49.76"/>
</g>
<!-- Node8 -->
<g id="node8" class="node">
<title>Node8</title>
<g id="a_node8"><a xlink:href="effective__area_2src_2_o_m_sim_detector_construction_8cc.html" target="_top" xlink:title=" ">
<polygon fill="white" stroke="black" points="417,-0.5 417,-19.5 586,-19.5 586,-0.5 417,-0.5"/>
<text text-anchor="middle" x="501.5" y="-7.5" font-family="Helvetica,sans-Serif" font-size="10.00">OMSimDetectorConstruction.cc</text>
</a>
</g>
</g>
<!-- Node6&#45;&gt;Node8 -->
<g id="edge7" class="edge">
<title>Node6&#45;&gt;Node8</title>
<path fill="none" stroke="midnightblue" d="M648.91,-53.57C613.63,-43.38 562.81,-28.7 530.99,-19.52"/>
<polygon fill="midnightblue" stroke="midnightblue" points="648.29,-57.03 658.87,-56.44 650.23,-50.31 648.29,-57.03"/>
</g>
<!-- Node9 -->
<g id="node9" class="node">
<title>Node9</title>
<g id="a_node9"><a xlink:href="radioactive__decays_2src_2_o_m_sim_detector_construction_8cc.html" target="_top" xlink:title=" ">
<polygon fill="white" stroke="black" points="604,-0.5 604,-19.5 773,-19.5 773,-0.5 604,-0.5"/>
<text text-anchor="middle" x="688.5" y="-7.5" font-family="Helvetica,sans-Serif" font-size="10.00">OMSimDetectorConstruction.cc</text>
</a>
</g>
</g>
<!-- Node6&#45;&gt;Node9 -->
<g id="edge8" class="edge">
<title>Node6&#45;&gt;Node9</title>
<path fill="none" stroke="midnightblue" d="M688.5,-45.8C688.5,-36.91 688.5,-26.78 688.5,-19.75"/>
<polygon fill="midnightblue" stroke="midnightblue" points="685,-46.08 688.5,-56.08 692,-46.08 685,-46.08"/>
</g>
<!-- Node10 -->
<g id="node10" class="node">
<title>Node10</title>
<g id="a_node10"><a xlink:href="supernova_2src_2_o_m_sim_detector_construction_8cc.html" target="_top" xlink:title=" ">
<polygon fill="white" stroke="black" points="230,-0.5 230,-19.5 399,-19.5 399,-0.5 230,-0.5"/>
<text text-anchor="middle" x="314.5" y="-7.5" font-family="Helvetica,sans-Serif" font-size="10.00">OMSimDetectorConstruction.cc</text>
</a>
</g>
</g>
<!-- Node6&#45;&gt;Node10 -->
<g id="edge9" class="edge">
<title>Node6&#45;&gt;Node10</title>
<path fill="none" stroke="midnightblue" d="M630.87,-55.93C536.03,-41.76 438.25,-28.05 376.5,-19.51"/>
<polygon fill="midnightblue" stroke="midnightblue" points="630.51,-59.41 640.92,-57.43 631.55,-52.49 630.51,-59.41"/>
</g>
<!-- Node11&#45;&gt;Node8 -->
<g id="edge12" class="edge">
<title>Node11&#45;&gt;Node8</title>
<path fill="none" stroke="midnightblue" d="M750.55,-54.66C692.34,-44.46 604.39,-29.04 550.08,-19.52"/>
<polygon fill="midnightblue" stroke="midnightblue" points="750.24,-58.16 760.7,-56.44 751.45,-51.27 750.24,-58.16"/>
</g>
<!-- Node11&#45;&gt;Node9 -->
<g id="edge13" class="edge">
<title>Node11&#45;&gt;Node9</title>
<path fill="none" stroke="midnightblue" d="M781.19,-52.37C758.53,-42.26 727.37,-28.35 707.58,-19.52"/>
<polygon fill="midnightblue" stroke="midnightblue" points="779.77,-55.56 790.33,-56.44 782.62,-49.17 779.77,-55.56"/>
</g>
<!-- Node11&#45;&gt;Node10 -->
<g id="edge14" class="edge">
<title>Node11&#45;&gt;Node10</title>
<path fill="none" stroke="midnightblue" d="M748.45,-56.49C747.12,-56.32 745.8,-56.16 744.5,-56 679.77,-48.13 504.83,-30.22 399.09,-19.51"/>
<polygon fill="midnightblue" stroke="midnightblue" points="748.42,-60.01 758.78,-57.81 749.31,-53.07 748.42,-60.01"/>
</g>
<!-- Node12 -->
<g id="node12" class="node">
<title>Node12</title>
<g id="a_node12"><a xlink:href="_o_m_sim_l_o_m16_8cc.html" target="_top" xlink:title=" ">
<polygon fill="white" stroke="black" points="904,-0.5 904,-19.5 1003,-19.5 1003,-0.5 904,-0.5"/>
<text text-anchor="middle" x="953.5" y="-7.5" font-family="Helvetica,sans-Serif" font-size="10.00">OMSimLOM16.cc</text>
</a>
</g>
</g>
<!-- Node11&#45;&gt;Node12 -->
<g id="edge11" class="edge">
<title>Node11&#45;&gt;Node12</title>
<path fill="none" stroke="midnightblue" d="M841.75,-52.91C868.82,-42.75 906.82,-28.51 930.79,-19.52"/>
<polygon fill="midnightblue" stroke="midnightblue" points="840.45,-49.66 832.32,-56.44 842.91,-56.21 840.45,-49.66"/>
</g>
<!-- Node13&#45;&gt;Node8 -->
<g id="edge17" class="edge">
<title>Node13&#45;&gt;Node8</title>
<path fill="none" stroke="midnightblue" d="M552.91,-50.1C540.13,-40.38 523.89,-28.03 513.11,-19.83"/>
<polygon fill="midnightblue" stroke="midnightblue" points="551.01,-53.06 561.09,-56.32 555.25,-47.48 551.01,-53.06"/>
</g>
<!-- Node13&#45;&gt;Node9 -->
<g id="edge18" class="edge">
<title>Node13&#45;&gt;Node9</title>
<path fill="none" stroke="midnightblue" d="M600.22,-52.1C621.89,-42.01 651.4,-28.27 670.21,-19.52"/>
<polygon fill="midnightblue" stroke="midnightblue" points="598.47,-49.05 590.88,-56.44 601.42,-55.4 598.47,-49.05"/>
</g>
<!-- Node13&#45;&gt;Node10 -->
<g id="edge19" class="edge">
<title>Node13&#45;&gt;Node10</title>
<path fill="none" stroke="midnightblue" d="M521.6,-54.35C472.84,-44.14 400.21,-28.94 355.19,-19.52"/>
<polygon fill="midnightblue" stroke="midnightblue" points="521.11,-57.82 531.62,-56.44 522.55,-50.97 521.11,-57.82"/>
</g>
<!-- Node14 -->
<g id="node14" class="node">
<title>Node14</title>
<g id="a_node14"><a xlink:href="_o_m_sim_l_o_m18_8cc.html" target="_top" xlink:title=" ">
<polygon fill="white" stroke="black" points="113,-0.5 113,-19.5 212,-19.5 212,-0.5 113,-0.5"/>
<text text-anchor="middle" x="162.5" y="-7.5" font-family="Helvetica,sans-Serif" font-size="10.00">OMSimLOM18.cc</text>
</a>
</g>
</g>
<!-- Node13&#45;&gt;Node14 -->
<g id="edge16" class="edge">
<title>Node13&#45;&gt;Node14</title>
<path fill="none" stroke="midnightblue" d="M511.79,-55.94C381.28,-38.28 346.85,-37.59 220.5,-20 217.77,-19.62 214.98,-19.22 212.16,-18.81"/>
<polygon fill="midnightblue" stroke="midnightblue" points="511.39,-59.42 521.77,-57.3 512.34,-52.48 511.39,-59.42"/>
</g>
<!-- Node16 -->
<g id="node16" class="node">
<title>Node16</title>
<g id="a_node16"><a xlink:href="_o_m_sim_m_d_o_m_8cc.html" target="_top" xlink:title=" ">
<polygon fill="white" stroke="black" points="1737.5,-0.5 1737.5,-19.5 1835.5,-19.5 1835.5,-0.5 1737.5,-0.5"/>
<text text-anchor="middle" x="1786.5" y="-7.5" font-family="Helvetica,sans-Serif" font-size="10.00">OMSimMDOM.cc</text>
</a>
</g>
</g>
<!-- Node15&#45;&gt;Node16 -->
<g id="edge21" class="edge">
<title>Node15&#45;&gt;Node16</title>
<path fill="none" stroke="midnightblue" d="M1336.96,-60.04C1423.77,-52.68 1588.68,-37.79 1728.5,-20 1731.43,-19.63 1734.44,-19.22 1737.48,-18.8"/>
<polygon fill="midnightblue" stroke="midnightblue" points="1336.44,-56.57 1326.77,-60.9 1337.03,-63.55 1336.44,-56.57"/>
</g>
<!-- Node17 -->
<g id="node17" class="node">
<title>Node17</title>
<g id="a_node17"><a xlink:href="_o_m_sim_m_d_o_m_flasher_8cc.html" target="_top" xlink:title=" ">
<polygon fill="white" stroke="black" points="1209.5,-0.5 1209.5,-19.5 1343.5,-19.5 1343.5,-0.5 1209.5,-0.5"/>
<text text-anchor="middle" x="1276.5" y="-7.5" font-family="Helvetica,sans-Serif" font-size="10.00">OMSimMDOMFlasher.cc</text>
</a>
</g>
</g>
<!-- Node15&#45;&gt;Node17 -->
<g id="edge22" class="edge">
<title>Node15&#45;&gt;Node17</title>
<path fill="none" stroke="midnightblue" d="M1276.5,-45.8C1276.5,-36.91 1276.5,-26.78 1276.5,-19.75"/>
<polygon fill="midnightblue" stroke="midnightblue" points="1273,-46.08 1276.5,-56.08 1280,-46.08 1273,-46.08"/>
</g>
<!-- Node18 -->
<g id="node18" class="node">
<title>Node18</title>
<g id="a_node18"><a xlink:href="_o_m_sim_m_d_o_m_harness_8cc.html" target="_top" xlink:title=" ">
<polygon fill="white" stroke="black" points="1853.5,-0.5 1853.5,-19.5 1991.5,-19.5 1991.5,-0.5 1853.5,-0.5"/>
<text text-anchor="middle" x="1922.5" y="-7.5" font-family="Helvetica,sans-Serif" font-size="10.00">OMSimMDOMHarness.cc</text>
</a>
</g>
</g>
<!-- Node15&#45;&gt;Node18 -->
<g id="edge23" class="edge">
<title>Node15&#45;&gt;Node18</title>
<path fill="none" stroke="midnightblue" d="M1336.99,-60.92C1440.87,-53.76 1659.84,-37.96 1844.5,-20 1847.35,-19.72 1850.26,-19.43 1853.19,-19.13"/>
<polygon fill="midnightblue" stroke="midnightblue" points="1336.44,-57.45 1326.7,-61.63 1336.92,-64.44 1336.44,-57.45"/>
</g>
<!-- Node19 -->
<g id="node19" class="node">
<title>Node19</title>
<g id="a_node19"><a xlink:href="effective__area_2include_2_o_m_sim_detector_construction_8hh.html" target="_top" xlink:title=" ">
<polygon fill="white" stroke="black" points="1361.5,-0.5 1361.5,-19.5 1531.5,-19.5 1531.5,-0.5 1361.5,-0.5"/>
<text text-anchor="middle" x="1446.5" y="-7.5" font-family="Helvetica,sans-Serif" font-size="10.00">OMSimDetectorConstruction.hh</text>
</a>
</g>
</g>
<!-- Node15&#45;&gt;Node19 -->
<g id="edge24" class="edge">
<title>Node15&#45;&gt;Node19</title>
<path fill="none" stroke="midnightblue" d="M1313.32,-53.3C1345.35,-43.13 1391.02,-28.62 1419.69,-19.52"/>
<polygon fill="midnightblue" stroke="midnightblue" points="1311.91,-50.08 1303.44,-56.44 1314.03,-56.75 1311.91,-50.08"/>
</g>
<!-- Node20 -->
<g id="node20" class="node">
<title>Node20</title>
<g id="a_node20"><a xlink:href="radioactive__decays_2include_2_o_m_sim_detector_construction_8hh.html" target="_top" xlink:title=" ">
<polygon fill="white" stroke="black" points="1549.5,-0.5 1549.5,-19.5 1719.5,-19.5 1719.5,-0.5 1549.5,-0.5"/>
<text text-anchor="middle" x="1634.5" y="-7.5" font-family="Helvetica,sans-Serif" font-size="10.00">OMSimDetectorConstruction.hh</text>
</a>
</g>
</g>
<!-- Node15&#45;&gt;Node20 -->
<g id="edge25" class="edge">
<title>Node15&#45;&gt;Node20</title>
<path fill="none" stroke="midnightblue" d="M1336.68,-55.92C1403.97,-45.77 1512.1,-29.46 1577.9,-19.54"/>
<polygon fill="midnightblue" stroke="midnightblue" points="1336.02,-52.48 1326.66,-57.43 1337.07,-59.4 1336.02,-52.48"/>
</g>
<!-- Node21 -->
<g id="node21" class="node">
<title>Node21</title>
<g id="a_node21"><a xlink:href="supernova_2include_2_o_m_sim_detector_construction_8hh.html" target="_top" xlink:title=" ">
<polygon fill="white" stroke="black" points="1021.5,-0.5 1021.5,-19.5 1191.5,-19.5 1191.5,-0.5 1021.5,-0.5"/>
<text text-anchor="middle" x="1106.5" y="-7.5" font-family="Helvetica,sans-Serif" font-size="10.00">OMSimDetectorConstruction.hh</text>
</a>
</g>
</g>
<!-- Node15&#45;&gt;Node21 -->
<g id="edge26" class="edge">
<title>Node15&#45;&gt;Node21</title>
<path fill="none" stroke="midnightblue" d="M1239.68,-53.3C1207.65,-43.13 1161.98,-28.62 1133.31,-19.52"/>
<polygon fill="midnightblue" stroke="midnightblue" points="1238.97,-56.75 1249.56,-56.44 1241.09,-50.08 1238.97,-56.75"/>
</g>
<!-- Node22&#45;&gt;Node6 -->
<g id="edge28" class="edge">
<title>Node22&#45;&gt;Node6</title>
<path fill="none" stroke="midnightblue" d="M866.44,-110.09C824.31,-99.89 762.26,-84.86 723.67,-75.52"/>
<polygon fill="midnightblue" stroke="midnightblue" points="865.62,-113.49 876.16,-112.44 867.27,-106.69 865.62,-113.49"/>
</g>
<!-- Node22&#45;&gt;Node11 -->
<g id="edge29" class="edge">
<title>Node22&#45;&gt;Node11</title>
<path fill="none" stroke="midnightblue" d="M886.17,-107.59C867.31,-97.61 842.12,-84.27 825.85,-75.65"/>
<polygon fill="midnightblue" stroke="midnightblue" points="884.64,-110.74 895.11,-112.32 887.91,-104.55 884.64,-110.74"/>
</g>
<!-- Node22&#45;&gt;Node13 -->
<g id="edge30" class="edge">
<title>Node22&#45;&gt;Node13</title>
<path fill="none" stroke="midnightblue" d="M847.65,-110.83C782.61,-100.47 683.03,-84.61 623.2,-75.08"/>
<polygon fill="midnightblue" stroke="midnightblue" points="847.36,-114.33 857.78,-112.44 848.46,-107.41 847.36,-114.33"/>
</g>
<!-- Node22&#45;&gt;Node15 -->
<g id="edge31" class="edge">
<title>Node22&#45;&gt;Node15</title>
<path fill="none" stroke="midnightblue" d="M979.61,-110.92C1051.23,-100.33 1162.23,-83.91 1226.27,-74.43"/>
<polygon fill="midnightblue" stroke="midnightblue" points="978.72,-107.52 969.34,-112.44 979.74,-114.44 978.72,-107.52"/>
</g>
<!-- Node22&#45;&gt;Node23 -->
<g id="edge32" class="edge">
<title>Node22&#45;&gt;Node23</title>
<path fill="none" stroke="midnightblue" d="M832.83,-113.17C752.27,-104.9 623.46,-91.01 512.5,-76 509.82,-75.64 507.07,-75.25 504.3,-74.85"/>
<polygon fill="midnightblue" stroke="midnightblue" points="832.6,-116.66 842.9,-114.2 833.31,-109.7 832.6,-116.66"/>
</g>
<!-- Node25 -->
<g id="node25" class="node">
<title>Node25</title>
<g id="a_node25"><a xlink:href="_o_m_sim_decays_g_p_s_8hh.html" target="_top" xlink:title=" ">
<polygon fill="white" stroke="black" points="2009.5,-56.5 2009.5,-75.5 2131.5,-75.5 2131.5,-56.5 2009.5,-56.5"/>
<text text-anchor="middle" x="2070.5" y="-63.5" font-family="Helvetica,sans-Serif" font-size="10.00">OMSimDecaysGPS.hh</text>
</a>
</g>
</g>
<!-- Node22&#45;&gt;Node25 -->
<g id="edge37" class="edge">
<title>Node22&#45;&gt;Node25</title>
<path fill="none" stroke="midnightblue" d="M990.16,-117.33C1207.71,-107.2 1814.18,-78.94 2009.23,-69.85"/>
<polygon fill="midnightblue" stroke="midnightblue" points="989.93,-113.84 980.1,-117.8 990.25,-120.83 989.93,-113.84"/>
</g>
<!-- Node23&#45;&gt;Node8 -->
<g id="edge34" class="edge">
<title>Node23&#45;&gt;Node8</title>
<path fill="none" stroke="midnightblue" d="M469.61,-48.43C477.68,-38.97 487.46,-27.48 494.05,-19.75"/>
<polygon fill="midnightblue" stroke="midnightblue" points="466.92,-46.2 463.1,-56.08 472.25,-50.74 466.92,-46.2"/>
</g>
<!-- Node23&#45;&gt;Node9 -->
<g id="edge35" class="edge">
<title>Node23&#45;&gt;Node9</title>
<path fill="none" stroke="midnightblue" d="M502.3,-54.15C546.33,-43.95 611.35,-28.88 651.75,-19.52"/>
<polygon fill="midnightblue" stroke="midnightblue" points="501.37,-50.78 492.42,-56.44 502.95,-57.6 501.37,-50.78"/>
</g>
<!-- Node23&#45;&gt;Node10 -->
<g id="edge36" class="edge">
<title>Node23&#45;&gt;Node10</title>
<path fill="none" stroke="midnightblue" d="M423.57,-52.77C397.09,-42.63 360.11,-28.47 336.74,-19.52"/>
<polygon fill="midnightblue" stroke="midnightblue" points="422.57,-56.14 433.16,-56.44 425.07,-49.6 422.57,-56.14"/>
</g>
<!-- Node24 -->
<g id="node24" class="node">
<title>Node24</title>
<g id="a_node24"><a xlink:href="_o_m_sim_p_d_o_m_8cc.html" target="_top" xlink:title=" ">
<polygon fill="white" stroke="black" points="0,-0.5 0,-19.5 95,-19.5 95,-0.5 0,-0.5"/>
<text text-anchor="middle" x="47.5" y="-7.5" font-family="Helvetica,sans-Serif" font-size="10.00">OMSimPDOM.cc</text>
</a>
</g>
</g>
<!-- Node23&#45;&gt;Node24 -->
<g id="edge33" class="edge">
<title>Node23&#45;&gt;Node24</title>
<path fill="none" stroke="midnightblue" d="M396.8,-58.08C326.86,-49.7 206.52,-34.86 103.5,-20 100.77,-19.61 97.97,-19.19 95.14,-18.76"/>
<polygon fill="midnightblue" stroke="midnightblue" points="396.4,-61.56 406.75,-59.27 397.23,-54.61 396.4,-61.56"/>
</g>
<!-- Node26 -->
<g id="node26" class="node">
<title>Node26</title>
<g id="a_node26"><a xlink:href="_o_m_sim__radioactive__decays_8cc.html" target="_top" xlink:title=" ">
<polygon fill="white" stroke="black" points="2149,-0.5 2149,-19.5 2314,-19.5 2314,-0.5 2149,-0.5"/>
<text text-anchor="middle" x="2231.5" y="-7.5" font-family="Helvetica,sans-Serif" font-size="10.00">OMSim_radioactive_decays.cc</text>
</a>
</g>
</g>
<!-- Node25&#45;&gt;Node26 -->
<g id="edge38" class="edge">
<title>Node25&#45;&gt;Node26</title>
<path fill="none" stroke="midnightblue" d="M2105.76,-53.17C2136.08,-43 2179.07,-28.59 2206.11,-19.52"/>
<polygon fill="midnightblue" stroke="midnightblue" points="2104.38,-49.95 2096.01,-56.44 2106.6,-56.58 2104.38,-49.95"/>
</g>
<!-- Node27 -->
<g id="node27" class="node">
<title>Node27</title>
<g id="a_node27"><a xlink:href="_o_m_sim_decays_g_p_s_8cc.html" target="_top" xlink:title=" ">
<polygon fill="white" stroke="black" points="2010,-0.5 2010,-19.5 2131,-19.5 2131,-0.5 2010,-0.5"/>
<text text-anchor="middle" x="2070.5" y="-7.5" font-family="Helvetica,sans-Serif" font-size="10.00">OMSimDecaysGPS.cc</text>
</a>
</g>
</g>
<!-- Node25&#45;&gt;Node27 -->
<g id="edge39" class="edge">
<title>Node25&#45;&gt;Node27</title>
<path fill="none" stroke="midnightblue" d="M2070.5,-45.8C2070.5,-36.91 2070.5,-26.78 2070.5,-19.75"/>
<polygon fill="midnightblue" stroke="midnightblue" points="2067,-46.08 2070.5,-56.08 2074,-46.08 2067,-46.08"/>
</g>
<!-- Node29 -->
<g id="node29" class="node">
<title>Node29</title>
<g id="a_node29"><a xlink:href="_o_m_sim_d_e_g_g_harness_8cc.html" target="_top" xlink:title=" ">
<polygon fill="white" stroke="black" points="1132.5,-112.5 1132.5,-131.5 1266.5,-131.5 1266.5,-112.5 1132.5,-112.5"/>
<text text-anchor="middle" x="1199.5" y="-119.5" font-family="Helvetica,sans-Serif" font-size="10.00">OMSimDEGGHarness.cc</text>
</a>
</g>
</g>
<!-- Node28&#45;&gt;Node29 -->
<g id="edge43" class="edge">
<title>Node28&#45;&gt;Node29</title>
<path fill="none" stroke="midnightblue" d="M1199.5,-157.8C1199.5,-148.91 1199.5,-138.78 1199.5,-131.75"/>
<polygon fill="midnightblue" stroke="midnightblue" points="1196,-158.08 1199.5,-168.08 1203,-158.08 1196,-158.08"/>
</g>
<!-- Node30&#45;&gt;Node15 -->
<g id="edge45" class="edge">
<title>Node30&#45;&gt;Node15</title>
<path fill="none" stroke="midnightblue" d="M1022.89,-161.35C1038.38,-146.49 1063.63,-124.6 1089.5,-112 1133.18,-90.73 1187.62,-79.1 1226.47,-73.02"/>
<polygon fill="midnightblue" stroke="midnightblue" points="1020.4,-158.89 1015.73,-168.4 1025.31,-163.88 1020.4,-158.89"/>
</g>
<!-- Node31&#45;&gt;Node16 -->
<g id="edge47" class="edge">
<title>Node31&#45;&gt;Node16</title>
<path fill="none" stroke="midnightblue" d="M1786.5,-45.8C1786.5,-36.91 1786.5,-26.78 1786.5,-19.75"/>
<polygon fill="midnightblue" stroke="midnightblue" points="1783,-46.08 1786.5,-56.08 1790,-46.08 1783,-46.08"/>
</g>
<!-- Node31&#45;&gt;Node18 -->
<g id="edge48" class="edge">
<title>Node31&#45;&gt;Node18</title>
<path fill="none" stroke="midnightblue" d="M1817.63,-52.64C1843.16,-42.5 1878.61,-28.43 1901.05,-19.52"/>
<polygon fill="midnightblue" stroke="midnightblue" points="1816.05,-49.5 1808.05,-56.44 1818.64,-56.01 1816.05,-49.5"/>
</g>
</g>
</svg>
