<?xml version="1.0" encoding="UTF-8" standalone="no"?>
<!DOCTYPE svg PUBLIC "-//W3C//DTD SVG 1.1//EN"
 "http://www.w3.org/Graphics/SVG/1.1/DTD/svg11.dtd">
<!-- Generated by graphviz version 2.43.0 (0)
 -->
<!-- Title: OMSimDataFileTypes.cc Pages: 1 -->
<svg width="712pt" height="151pt"
 viewBox="0.00 0.00 711.50 151.00" xmlns="http://www.w3.org/2000/svg" xmlns:xlink="http://www.w3.org/1999/xlink">
<g id="graph0" class="graph" transform="scale(1 1) rotate(0) translate(4 147)">
<title>OMSimDataFileTypes.cc</title>
<polygon fill="white" stroke="transparent" points="-4,4 -4,-147 707.5,-147 707.5,4 -4,4"/>
<!-- Node1 -->
<g id="node1" class="node">
<title>Node1</title>
<g id="a_node1"><a xlink:title="Collection of classes and methods to handle material creation from user data in json files.">
<polygon fill="#bfbfbf" stroke="black" points="449.5,-123.5 449.5,-142.5 583.5,-142.5 583.5,-123.5 449.5,-123.5"/>
<text text-anchor="middle" x="516.5" y="-130.5" font-family="Helvetica,sans-Serif" font-size="10.00">OMSimDataFileTypes.cc</text>
</a>
</g>
</g>
<!-- Node2 -->
<g id="node2" class="node">
<title>Node2</title>
<g id="a_node2"><a xlink:href="_o_m_sim_data_file_types_8hh.html" target="_top" xlink:title=" ">
<polygon fill="white" stroke="black" points="244,-67.5 244,-86.5 379,-86.5 379,-67.5 244,-67.5"/>
<text text-anchor="middle" x="311.5" y="-74.5" font-family="Helvetica,sans-Serif" font-size="10.00">OMSimDataFileTypes.hh</text>
</a>
</g>
</g>
<!-- Node1&#45;&gt;Node2 -->
<g id="edge1" class="edge">
<title>Node1&#45;&gt;Node2</title>
<path fill="none" stroke="midnightblue" d="M484.02,-123.44C448.78,-114.16 392.4,-99.31 353.74,-89.13"/>
<polygon fill="midnightblue" stroke="midnightblue" points="354.39,-85.68 343.83,-86.52 352.61,-92.45 354.39,-85.68"/>
</g>
<!-- Node7 -->
<g id="node7" class="node">
<title>Node7</title>
<g id="a_node7"><a xlink:href="_o_m_sim_input_data_8hh.html" target="_top" xlink:title=" ">
<polygon fill="white" stroke="black" points="397,-67.5 397,-86.5 512,-86.5 512,-67.5 397,-67.5"/>
<text text-anchor="middle" x="454.5" y="-74.5" font-family="Helvetica,sans-Serif" font-size="10.00">OMSimInputData.hh</text>
</a>
</g>
</g>
<!-- Node1&#45;&gt;Node7 -->
<g id="edge6" class="edge">
<title>Node1&#45;&gt;Node7</title>
<path fill="none" stroke="midnightblue" d="M506.54,-123.32C497.37,-115.34 483.56,-103.31 472.47,-93.65"/>
<polygon fill="midnightblue" stroke="midnightblue" points="474.48,-90.76 464.64,-86.83 469.88,-96.04 474.48,-90.76"/>
</g>
<!-- Node8 -->
<g id="node8" class="node">
<title>Node8</title>
<g id="a_node8"><a xlink:href="_o_m_sim_logger_8hh.html" target="_top" xlink:title=" ">
<polygon fill="white" stroke="black" points="530,-67.5 530,-86.5 629,-86.5 629,-67.5 530,-67.5"/>
<text text-anchor="middle" x="579.5" y="-74.5" font-family="Helvetica,sans-Serif" font-size="10.00">OMSimLogger.hh</text>
</a>
</g>
</g>
<!-- Node1&#45;&gt;Node8 -->
<g id="edge10" class="edge">
<title>Node1&#45;&gt;Node8</title>
<path fill="none" stroke="midnightblue" d="M526.62,-123.32C536.03,-115.26 550.24,-103.08 561.57,-93.37"/>
<polygon fill="midnightblue" stroke="midnightblue" points="563.88,-96 569.19,-86.83 559.32,-90.68 563.88,-96"/>
</g>
<!-- Node11 -->
<g id="node11" class="node">
<title>Node11</title>
<g id="a_node11"><a xlink:title=" ">
<polygon fill="white" stroke="#bfbfbf" points="647.5,-67.5 647.5,-86.5 703.5,-86.5 703.5,-67.5 647.5,-67.5"/>
<text text-anchor="middle" x="675.5" y="-74.5" font-family="Helvetica,sans-Serif" font-size="10.00">numeric</text>
</a>
</g>
</g>
<!-- Node1&#45;&gt;Node11 -->
<g id="edge13" class="edge">
<title>Node1&#45;&gt;Node11</title>
<path fill="none" stroke="midnightblue" d="M541.69,-123.44C568.44,-114.36 610.9,-99.94 640.81,-89.78"/>
<polygon fill="midnightblue" stroke="midnightblue" points="642.08,-93.05 650.42,-86.52 639.83,-86.42 642.08,-93.05"/>
</g>
<!-- Node3 -->
<g id="node3" class="node">
<title>Node3</title>
<g id="a_node3"><a xlink:title=" ">
<polygon fill="white" stroke="#bfbfbf" points="0,-6 0,-25 107,-25 107,-6 0,-6"/>
<text text-anchor="middle" x="53.5" y="-13" font-family="Helvetica,sans-Serif" font-size="10.00">G4NistManager.hh</text>
</a>
</g>
</g>
<!-- Node2&#45;&gt;Node3 -->
<g id="edge2" class="edge">
<title>Node2&#45;&gt;Node3</title>
<path fill="none" stroke="midnightblue" d="M273.92,-67.42C234.45,-58.4 170.6,-43.77 115.5,-31 110.45,-29.83 105.16,-28.6 99.9,-27.37"/>
<polygon fill="midnightblue" stroke="midnightblue" points="100.42,-23.9 89.88,-25.04 98.83,-30.72 100.42,-23.9"/>
</g>
<!-- Node4 -->
<g id="node4" class="node">
<title>Node4</title>
<g id="a_node4"><a xlink:title=" ">
<polygon fill="white" stroke="#bfbfbf" points="125,-6 125,-25 268,-25 268,-6 125,-6"/>
<text text-anchor="middle" x="196.5" y="-13" font-family="Helvetica,sans-Serif" font-size="10.00">G4OpBoundaryProcess.hh</text>
</a>
</g>
</g>
<!-- Node2&#45;&gt;Node4 -->
<g id="edge3" class="edge">
<title>Node2&#45;&gt;Node4</title>
<path fill="none" stroke="midnightblue" d="M295.02,-67.48C275.89,-57.58 244.13,-41.14 221.85,-29.62"/>
<polygon fill="midnightblue" stroke="midnightblue" points="223.44,-26.5 212.95,-25.01 220.22,-32.71 223.44,-26.5"/>
</g>
<!-- Node5 -->
<g id="node5" class="node">
<title>Node5</title>
<g id="a_node5"><a xlink:title=" ">
<polygon fill="white" stroke="#bfbfbf" points="286,-6 286,-25 405,-25 405,-6 286,-6"/>
<text text-anchor="middle" x="345.5" y="-13" font-family="Helvetica,sans-Serif" font-size="10.00">G4SystemOfUnits.hh</text>
</a>
</g>
</g>
<!-- Node2&#45;&gt;Node5 -->
<g id="edge4" class="edge">
<title>Node2&#45;&gt;Node5</title>
<path fill="none" stroke="midnightblue" d="M316.37,-67.48C321.37,-58.73 329.29,-44.87 335.61,-33.81"/>
<polygon fill="midnightblue" stroke="midnightblue" points="338.72,-35.43 340.64,-25.01 332.64,-31.96 338.72,-35.43"/>
</g>
<!-- Node6 -->
<g id="node6" class="node">
<title>Node6</title>
<g id="a_node6"><a xlink:title=" ">
<polygon fill="white" stroke="#bfbfbf" points="423,-0.5 423,-30.5 536,-30.5 536,-0.5 423,-0.5"/>
<text text-anchor="start" x="431" y="-18.5" font-family="Helvetica,sans-Serif" font-size="10.00">boost/property_tree</text>
<text text-anchor="middle" x="479.5" y="-7.5" font-family="Helvetica,sans-Serif" font-size="10.00">/json_parser.hpp</text>
</a>
</g>
</g>
<!-- Node2&#45;&gt;Node6 -->
<g id="edge5" class="edge">
<title>Node2&#45;&gt;Node6</title>
<path fill="none" stroke="midnightblue" d="M335.57,-67.48C360.13,-58.78 398.95,-45.03 430.09,-34"/>
<polygon fill="midnightblue" stroke="midnightblue" points="431.65,-37.16 439.91,-30.52 429.31,-30.56 431.65,-37.16"/>
</g>
<!-- Node7&#45;&gt;Node4 -->
<g id="edge8" class="edge">
<title>Node7&#45;&gt;Node4</title>
<path fill="none" stroke="midnightblue" d="M417.53,-67.48C371.65,-56.89 293.35,-38.84 243.32,-27.3"/>
<polygon fill="midnightblue" stroke="midnightblue" points="243.93,-23.85 233.4,-25.01 242.35,-30.67 243.93,-23.85"/>
</g>
<!-- Node7&#45;&gt;Node5 -->
<g id="edge9" class="edge">
<title>Node7&#45;&gt;Node5</title>
<path fill="none" stroke="midnightblue" d="M438.88,-67.48C420.91,-57.67 391.18,-41.43 370.09,-29.92"/>
<polygon fill="midnightblue" stroke="midnightblue" points="371.54,-26.73 361.09,-25.01 368.19,-32.87 371.54,-26.73"/>
</g>
<!-- Node7&#45;&gt;Node6 -->
<g id="edge7" class="edge">
<title>Node7&#45;&gt;Node6</title>
<path fill="none" stroke="midnightblue" d="M458.08,-67.48C461.12,-60.25 465.62,-49.53 469.72,-39.78"/>
<polygon fill="midnightblue" stroke="midnightblue" points="472.96,-41.1 473.61,-30.52 466.51,-38.39 472.96,-41.1"/>
</g>
<!-- Node9 -->
<g id="node9" class="node">
<title>Node9</title>
<g id="a_node9"><a xlink:title=" ">
<polygon fill="white" stroke="#bfbfbf" points="554.5,-6 554.5,-25 604.5,-25 604.5,-6 554.5,-6"/>
<text text-anchor="middle" x="579.5" y="-13" font-family="Helvetica,sans-Serif" font-size="10.00">stdio.h</text>
</a>
</g>
</g>
<!-- Node8&#45;&gt;Node9 -->
<g id="edge11" class="edge">
<title>Node8&#45;&gt;Node9</title>
<path fill="none" stroke="midnightblue" d="M579.5,-67.48C579.5,-59.08 579.5,-45.98 579.5,-35.16"/>
<polygon fill="midnightblue" stroke="midnightblue" points="583,-35.01 579.5,-25.01 576,-35.01 583,-35.01"/>
</g>
<!-- Node10 -->
<g id="node10" class="node">
<title>Node10</title>
<g id="a_node10"><a xlink:title=" ">
<polygon fill="white" stroke="#bfbfbf" points="622.5,-6 622.5,-25 670.5,-25 670.5,-6 622.5,-6"/>
<text text-anchor="middle" x="646.5" y="-13" font-family="Helvetica,sans-Serif" font-size="10.00">time.h</text>
</a>
</g>
</g>
<!-- Node8&#45;&gt;Node10 -->
<g id="edge12" class="edge">
<title>Node8&#45;&gt;Node10</title>
<path fill="none" stroke="midnightblue" d="M589.1,-67.48C599.55,-58.2 616.47,-43.17 629.24,-31.83"/>
<polygon fill="midnightblue" stroke="midnightblue" points="631.77,-34.27 636.92,-25.01 627.12,-29.03 631.77,-34.27"/>
</g>
</g>
</svg>
