<?xml version="1.0" encoding="UTF-8" standalone="no"?>
<!DOCTYPE svg PUBLIC "-//W3C//DTD SVG 1.1//EN"
 "http://www.w3.org/Graphics/SVG/1.1/DTD/svg11.dtd">
<!-- Generated by graphviz version 2.43.0 (0)
 -->
<!-- Title: OMSimDEGGHarness.cc Pages: 1 -->
<svg width="2919pt" height="263pt"
 viewBox="0.00 0.00 2919.00 263.00" xmlns="http://www.w3.org/2000/svg" xmlns:xlink="http://www.w3.org/1999/xlink">
<g id="graph0" class="graph" transform="scale(1 1) rotate(0) translate(4 259)">
<title>OMSimDEGGHarness.cc</title>
<polygon fill="white" stroke="transparent" points="-4,4 -4,-259 2915,-259 2915,4 -4,4"/>
<!-- Node1 -->
<g id="node1" class="node">
<title>Node1</title>
<g id="a_node1"><a xlink:title=" ">
<polygon fill="#bfbfbf" stroke="black" points="2494.5,-235.5 2494.5,-254.5 2628.5,-254.5 2628.5,-235.5 2494.5,-235.5"/>
<text text-anchor="middle" x="2561.5" y="-242.5" font-family="Helvetica,sans-Serif" font-size="10.00">OMSimDEGGHarness.cc</text>
</a>
</g>
</g>
<!-- Node2 -->
<g id="node2" class="node">
<title>Node2</title>
<g id="a_node2"><a xlink:href="_o_m_sim_d_e_g_g_harness_8hh.html" target="_top" xlink:title="Construction of the DEGG harness.">
<polygon fill="white" stroke="black" points="880,-179.5 880,-198.5 1015,-198.5 1015,-179.5 880,-179.5"/>
<text text-anchor="middle" x="947.5" y="-186.5" font-family="Helvetica,sans-Serif" font-size="10.00">OMSimDEGGHarness.hh</text>
</a>
</g>
</g>
<!-- Node1&#45;&gt;Node2 -->
<g id="edge1" class="edge">
<title>Node1&#45;&gt;Node2</title>
<path fill="none" stroke="midnightblue" d="M2494.46,-241.76C2235.65,-233.1 1302.38,-201.87 1025.47,-192.61"/>
<polygon fill="midnightblue" stroke="midnightblue" points="1025.23,-189.1 1015.12,-192.26 1025,-196.09 1025.23,-189.1"/>
</g>
<!-- Node12 -->
<g id="node12" class="node">
<title>Node12</title>
<g id="a_node12"><a xlink:href="_c_a_d_mesh_8hh.html" target="_top" xlink:title=" ">
<polygon fill="white" stroke="black" points="1505,-179.5 1505,-198.5 1584,-198.5 1584,-179.5 1505,-179.5"/>
<text text-anchor="middle" x="1544.5" y="-186.5" font-family="Helvetica,sans-Serif" font-size="10.00">CADMesh.hh</text>
</a>
</g>
</g>
<!-- Node1&#45;&gt;Node12 -->
<g id="edge11" class="edge">
<title>Node1&#45;&gt;Node12</title>
<path fill="none" stroke="midnightblue" d="M2494.38,-240.44C2303.55,-230.3 1760.95,-201.49 1594,-192.63"/>
<polygon fill="midnightblue" stroke="midnightblue" points="1594.18,-189.13 1584.01,-192.1 1593.81,-196.12 1594.18,-189.13"/>
</g>
<!-- Node33 -->
<g id="node33" class="node">
<title>Node33</title>
<g id="a_node33"><a xlink:href="_o_m_sim_command_args_table_8hh.html" target="_top" xlink:title="Definition of the OMSimCommandArgsTable singleton class, which controls user args.">
<polygon fill="white" stroke="black" points="2409.5,-179.5 2409.5,-198.5 2573.5,-198.5 2573.5,-179.5 2409.5,-179.5"/>
<text text-anchor="middle" x="2491.5" y="-186.5" font-family="Helvetica,sans-Serif" font-size="10.00">OMSimCommandArgsTable.hh</text>
</a>
</g>
</g>
<!-- Node1&#45;&gt;Node33 -->
<g id="edge32" class="edge">
<title>Node1&#45;&gt;Node33</title>
<path fill="none" stroke="midnightblue" d="M2550.25,-235.32C2539.7,-227.18 2523.7,-214.84 2511.06,-205.09"/>
<polygon fill="midnightblue" stroke="midnightblue" points="2513.01,-202.17 2502.95,-198.83 2508.73,-207.71 2513.01,-202.17"/>
</g>
<!-- Node39 -->
<g id="node39" class="node">
<title>Node39</title>
<g id="a_node39"><a xlink:title=" ">
<polygon fill="white" stroke="#bfbfbf" points="2592,-179.5 2592,-198.5 2671,-198.5 2671,-179.5 2592,-179.5"/>
<text text-anchor="middle" x="2631.5" y="-186.5" font-family="Helvetica,sans-Serif" font-size="10.00">G4Sphere.hh</text>
</a>
</g>
</g>
<!-- Node1&#45;&gt;Node39 -->
<g id="edge39" class="edge">
<title>Node1&#45;&gt;Node39</title>
<path fill="none" stroke="midnightblue" d="M2572.75,-235.32C2583.3,-227.18 2599.3,-214.84 2611.94,-205.09"/>
<polygon fill="midnightblue" stroke="midnightblue" points="2614.27,-207.71 2620.05,-198.83 2609.99,-202.17 2614.27,-207.71"/>
</g>
<!-- Node40 -->
<g id="node40" class="node">
<title>Node40</title>
<g id="a_node40"><a xlink:title=" ">
<polygon fill="white" stroke="#bfbfbf" points="2689,-179.5 2689,-198.5 2826,-198.5 2826,-179.5 2689,-179.5"/>
<text text-anchor="middle" x="2757.5" y="-186.5" font-family="Helvetica,sans-Serif" font-size="10.00">G4LogicalSkinSurface.hh</text>
</a>
</g>
</g>
<!-- Node1&#45;&gt;Node40 -->
<g id="edge40" class="edge">
<title>Node1&#45;&gt;Node40</title>
<path fill="none" stroke="midnightblue" d="M2592.56,-235.44C2626.1,-226.2 2679.7,-211.44 2716.64,-201.26"/>
<polygon fill="midnightblue" stroke="midnightblue" points="2717.88,-204.55 2726.59,-198.52 2716.02,-197.8 2717.88,-204.55"/>
</g>
<!-- Node41 -->
<g id="node41" class="node">
<title>Node41</title>
<g id="a_node41"><a xlink:title=" ">
<polygon fill="white" stroke="#bfbfbf" points="2844,-179.5 2844,-198.5 2911,-198.5 2911,-179.5 2844,-179.5"/>
<text text-anchor="middle" x="2877.5" y="-186.5" font-family="Helvetica,sans-Serif" font-size="10.00">G4Tubs.hh</text>
</a>
</g>
</g>
<!-- Node1&#45;&gt;Node41 -->
<g id="edge41" class="edge">
<title>Node1&#45;&gt;Node41</title>
<path fill="none" stroke="midnightblue" d="M2618.32,-235.49C2671.55,-227.33 2753.59,-214.28 2833.38,-199.34"/>
<polygon fill="midnightblue" stroke="midnightblue" points="2834.42,-202.7 2843.6,-197.41 2833.13,-195.82 2834.42,-202.7"/>
</g>
<!-- Node3 -->
<g id="node3" class="node">
<title>Node3</title>
<g id="a_node3"><a xlink:href="abc_detector_component_8hh.html" target="_top" xlink:title="Provides helper base class abcDetectorComponent for constructing and managing detector components in ...">
<polygon fill="white" stroke="black" points="402,-123.5 402,-142.5 549,-142.5 549,-123.5 402,-123.5"/>
<text text-anchor="middle" x="475.5" y="-130.5" font-family="Helvetica,sans-Serif" font-size="10.00">abcDetectorComponent.hh</text>
</a>
</g>
</g>
<!-- Node2&#45;&gt;Node3 -->
<g id="edge2" class="edge">
<title>Node2&#45;&gt;Node3</title>
<path fill="none" stroke="midnightblue" d="M879.87,-180.26C795.35,-170.59 650.72,-154.05 559.27,-143.58"/>
<polygon fill="midnightblue" stroke="midnightblue" points="559.55,-140.09 549.22,-142.43 558.75,-147.05 559.55,-140.09"/>
</g>
<!-- Node4 -->
<g id="node4" class="node">
<title>Node4</title>
<g id="a_node4"><a xlink:href="_o_m_sim_input_data_8hh.html" target="_top" xlink:title="Definition of ParameterTable and InputDataManager.">
<polygon fill="white" stroke="black" points="163,-67.5 163,-86.5 278,-86.5 278,-67.5 163,-67.5"/>
<text text-anchor="middle" x="220.5" y="-74.5" font-family="Helvetica,sans-Serif" font-size="10.00">OMSimInputData.hh</text>
</a>
</g>
</g>
<!-- Node3&#45;&gt;Node4 -->
<g id="edge3" class="edge">
<title>Node3&#45;&gt;Node4</title>
<path fill="none" stroke="midnightblue" d="M435.09,-123.44C390.52,-114 318.73,-98.8 270.61,-88.61"/>
<polygon fill="midnightblue" stroke="midnightblue" points="271.22,-85.16 260.72,-86.52 269.77,-92.01 271.22,-85.16"/>
</g>
<!-- Node8 -->
<g id="node8" class="node">
<title>Node8</title>
<g id="a_node8"><a xlink:title=" ">
<polygon fill="white" stroke="#bfbfbf" points="296,-67.5 296,-86.5 403,-86.5 403,-67.5 296,-67.5"/>
<text text-anchor="middle" x="349.5" y="-74.5" font-family="Helvetica,sans-Serif" font-size="10.00">G4Transform3D.hh</text>
</a>
</g>
</g>
<!-- Node3&#45;&gt;Node8 -->
<g id="edge7" class="edge">
<title>Node3&#45;&gt;Node8</title>
<path fill="none" stroke="midnightblue" d="M455.53,-123.44C434.89,-114.6 402.44,-100.69 378.87,-90.59"/>
<polygon fill="midnightblue" stroke="midnightblue" points="379.94,-87.24 369.37,-86.52 377.18,-93.67 379.94,-87.24"/>
</g>
<!-- Node9 -->
<g id="node9" class="node">
<title>Node9</title>
<g id="a_node9"><a xlink:title=" ">
<polygon fill="white" stroke="#bfbfbf" points="421.5,-67.5 421.5,-86.5 529.5,-86.5 529.5,-67.5 421.5,-67.5"/>
<text text-anchor="middle" x="475.5" y="-74.5" font-family="Helvetica,sans-Serif" font-size="10.00">G4VisAttributes.hh</text>
</a>
</g>
</g>
<!-- Node3&#45;&gt;Node9 -->
<g id="edge8" class="edge">
<title>Node3&#45;&gt;Node9</title>
<path fill="none" stroke="midnightblue" d="M475.5,-123.08C475.5,-116.01 475.5,-105.86 475.5,-96.99"/>
<polygon fill="midnightblue" stroke="midnightblue" points="479,-96.75 475.5,-86.75 472,-96.75 479,-96.75"/>
</g>
<!-- Node10 -->
<g id="node10" class="node">
<title>Node10</title>
<g id="a_node10"><a xlink:title=" ">
<polygon fill="white" stroke="#bfbfbf" points="548,-67.5 548,-86.5 673,-86.5 673,-67.5 548,-67.5"/>
<text text-anchor="middle" x="610.5" y="-74.5" font-family="Helvetica,sans-Serif" font-size="10.00">G4SubtractionSolid.hh</text>
</a>
</g>
</g>
<!-- Node3&#45;&gt;Node10 -->
<g id="edge9" class="edge">
<title>Node3&#45;&gt;Node10</title>
<path fill="none" stroke="midnightblue" d="M496.89,-123.44C519.21,-114.52 554.4,-100.44 579.71,-90.32"/>
<polygon fill="midnightblue" stroke="midnightblue" points="581.22,-93.48 589.21,-86.52 578.62,-86.98 581.22,-93.48"/>
</g>
<!-- Node11 -->
<g id="node11" class="node">
<title>Node11</title>
<g id="a_node11"><a xlink:title=" ">
<polygon fill="white" stroke="#bfbfbf" points="691.5,-67.5 691.5,-86.5 801.5,-86.5 801.5,-67.5 691.5,-67.5"/>
<text text-anchor="middle" x="746.5" y="-74.5" font-family="Helvetica,sans-Serif" font-size="10.00">G4PVPlacement.hh</text>
</a>
</g>
</g>
<!-- Node3&#45;&gt;Node11 -->
<g id="edge10" class="edge">
<title>Node3&#45;&gt;Node11</title>
<path fill="none" stroke="midnightblue" d="M518.44,-123.44C566.01,-113.96 642.74,-98.67 693.89,-88.48"/>
<polygon fill="midnightblue" stroke="midnightblue" points="694.64,-91.9 703.76,-86.52 693.27,-85.04 694.64,-91.9"/>
</g>
<!-- Node5 -->
<g id="node5" class="node">
<title>Node5</title>
<g id="a_node5"><a xlink:title=" ">
<polygon fill="white" stroke="#bfbfbf" points="0,-6 0,-25 143,-25 143,-6 0,-6"/>
<text text-anchor="middle" x="71.5" y="-13" font-family="Helvetica,sans-Serif" font-size="10.00">G4OpBoundaryProcess.hh</text>
</a>
</g>
</g>
<!-- Node4&#45;&gt;Node5 -->
<g id="edge4" class="edge">
<title>Node4&#45;&gt;Node5</title>
<path fill="none" stroke="midnightblue" d="M199.15,-67.48C173.81,-57.36 131.36,-40.4 102.43,-28.85"/>
<polygon fill="midnightblue" stroke="midnightblue" points="103.39,-25.47 92.81,-25.01 100.8,-31.97 103.39,-25.47"/>
</g>
<!-- Node6 -->
<g id="node6" class="node">
<title>Node6</title>
<g id="a_node6"><a xlink:title=" ">
<polygon fill="white" stroke="#bfbfbf" points="161,-6 161,-25 280,-25 280,-6 161,-6"/>
<text text-anchor="middle" x="220.5" y="-13" font-family="Helvetica,sans-Serif" font-size="10.00">G4SystemOfUnits.hh</text>
</a>
</g>
</g>
<!-- Node4&#45;&gt;Node6 -->
<g id="edge5" class="edge">
<title>Node4&#45;&gt;Node6</title>
<path fill="none" stroke="midnightblue" d="M220.5,-67.48C220.5,-59.08 220.5,-45.98 220.5,-35.16"/>
<polygon fill="midnightblue" stroke="midnightblue" points="224,-35.01 220.5,-25.01 217,-35.01 224,-35.01"/>
</g>
<!-- Node7 -->
<g id="node7" class="node">
<title>Node7</title>
<g id="a_node7"><a xlink:title=" ">
<polygon fill="white" stroke="#bfbfbf" points="298,-0.5 298,-30.5 411,-30.5 411,-0.5 298,-0.5"/>
<text text-anchor="start" x="306" y="-18.5" font-family="Helvetica,sans-Serif" font-size="10.00">boost/property_tree</text>
<text text-anchor="middle" x="354.5" y="-7.5" font-family="Helvetica,sans-Serif" font-size="10.00">/json_parser.hpp</text>
</a>
</g>
</g>
<!-- Node4&#45;&gt;Node7 -->
<g id="edge6" class="edge">
<title>Node4&#45;&gt;Node7</title>
<path fill="none" stroke="midnightblue" d="M239.7,-67.48C258.87,-58.96 288.92,-45.62 313.47,-34.72"/>
<polygon fill="midnightblue" stroke="midnightblue" points="315.2,-37.78 322.92,-30.52 312.36,-31.38 315.2,-37.78"/>
</g>
<!-- Node13 -->
<g id="node13" class="node">
<title>Node13</title>
<g id="a_node13"><a xlink:title=" ">
<polygon fill="white" stroke="#bfbfbf" points="567.5,-123.5 567.5,-142.5 641.5,-142.5 641.5,-123.5 567.5,-123.5"/>
<text text-anchor="middle" x="604.5" y="-130.5" font-family="Helvetica,sans-Serif" font-size="10.00">G4String.hh</text>
</a>
</g>
</g>
<!-- Node12&#45;&gt;Node13 -->
<g id="edge12" class="edge">
<title>Node12&#45;&gt;Node13</title>
<path fill="none" stroke="midnightblue" d="M1504.67,-188.02C1380.12,-187.65 986.85,-183.25 651.97,-142.99"/>
<polygon fill="midnightblue" stroke="midnightblue" points="651.93,-139.46 641.58,-141.73 651.09,-146.41 651.93,-139.46"/>
</g>
<!-- Node14 -->
<g id="node14" class="node">
<title>Node14</title>
<g id="a_node14"><a xlink:title=" ">
<polygon fill="white" stroke="#bfbfbf" points="659.5,-123.5 659.5,-142.5 723.5,-142.5 723.5,-123.5 659.5,-123.5"/>
<text text-anchor="middle" x="691.5" y="-130.5" font-family="Helvetica,sans-Serif" font-size="10.00">algorithm</text>
</a>
</g>
</g>
<!-- Node12&#45;&gt;Node14 -->
<g id="edge13" class="edge">
<title>Node12&#45;&gt;Node14</title>
<path fill="none" stroke="midnightblue" d="M1504.99,-188.05C1388.36,-187.73 1035.37,-183.36 733.89,-142.96"/>
<polygon fill="midnightblue" stroke="midnightblue" points="734.02,-139.44 723.64,-141.57 733.08,-146.38 734.02,-139.44"/>
</g>
<!-- Node15 -->
<g id="node15" class="node">
<title>Node15</title>
<g id="a_node15"><a xlink:title=" ">
<polygon fill="white" stroke="#bfbfbf" points="741.5,-123.5 741.5,-142.5 779.5,-142.5 779.5,-123.5 741.5,-123.5"/>
<text text-anchor="middle" x="760.5" y="-130.5" font-family="Helvetica,sans-Serif" font-size="10.00">map</text>
</a>
</g>
</g>
<!-- Node12&#45;&gt;Node15 -->
<g id="edge14" class="edge">
<title>Node12&#45;&gt;Node15</title>
<path fill="none" stroke="midnightblue" d="M1504.65,-186.95C1372.21,-183.26 946.74,-169.72 789.57,-142.65"/>
<polygon fill="midnightblue" stroke="midnightblue" points="790.08,-139.18 779.62,-140.84 788.83,-146.07 790.08,-139.18"/>
</g>
<!-- Node16 -->
<g id="node16" class="node">
<title>Node16</title>
<g id="a_node16"><a xlink:title=" ">
<polygon fill="white" stroke="#bfbfbf" points="798,-123.5 798,-142.5 901,-142.5 901,-123.5 798,-123.5"/>
<text text-anchor="middle" x="849.5" y="-130.5" font-family="Helvetica,sans-Serif" font-size="10.00">G4ThreeVector.hh</text>
</a>
</g>
</g>
<!-- Node12&#45;&gt;Node16 -->
<g id="edge15" class="edge">
<title>Node12&#45;&gt;Node16</title>
<path fill="none" stroke="midnightblue" d="M1504.65,-186.26C1405.9,-181.72 1141.77,-168.15 911.43,-143.14"/>
<polygon fill="midnightblue" stroke="midnightblue" points="911.5,-139.62 901.18,-142.01 910.74,-146.58 911.5,-139.62"/>
</g>
<!-- Node17 -->
<g id="node17" class="node">
<title>Node17</title>
<g id="a_node17"><a xlink:title=" ">
<polygon fill="white" stroke="#bfbfbf" points="919,-123.5 919,-142.5 1038,-142.5 1038,-123.5 919,-123.5"/>
<text text-anchor="middle" x="978.5" y="-130.5" font-family="Helvetica,sans-Serif" font-size="10.00">G4TriangularFacet.hh</text>
</a>
</g>
</g>
<!-- Node12&#45;&gt;Node17 -->
<g id="edge16" class="edge">
<title>Node12&#45;&gt;Node17</title>
<path fill="none" stroke="midnightblue" d="M1504.83,-184.94C1422.09,-178.45 1224.86,-162.37 1048.31,-143.05"/>
<polygon fill="midnightblue" stroke="midnightblue" points="1048.64,-139.56 1038.32,-141.95 1047.88,-146.52 1048.64,-139.56"/>
</g>
<!-- Node18 -->
<g id="node18" class="node">
<title>Node18</title>
<g id="a_node18"><a xlink:title=" ">
<polygon fill="white" stroke="#bfbfbf" points="1056.5,-123.5 1056.5,-142.5 1114.5,-142.5 1114.5,-123.5 1056.5,-123.5"/>
<text text-anchor="middle" x="1085.5" y="-130.5" font-family="Helvetica,sans-Serif" font-size="10.00">memory</text>
</a>
</g>
</g>
<!-- Node12&#45;&gt;Node18 -->
<g id="edge17" class="edge">
<title>Node12&#45;&gt;Node18</title>
<path fill="none" stroke="midnightblue" d="M1504.8,-185.43C1431.55,-180.33 1270.08,-167.41 1124.87,-143.04"/>
<polygon fill="midnightblue" stroke="midnightblue" points="1125.33,-139.57 1114.88,-141.35 1124.15,-146.47 1125.33,-139.57"/>
</g>
<!-- Node19 -->
<g id="node19" class="node">
<title>Node19</title>
<g id="a_node19"><a xlink:title=" ">
<polygon fill="white" stroke="#bfbfbf" points="1133,-123.5 1133,-142.5 1180,-142.5 1180,-123.5 1133,-123.5"/>
<text text-anchor="middle" x="1156.5" y="-130.5" font-family="Helvetica,sans-Serif" font-size="10.00">vector</text>
</a>
</g>
</g>
<!-- Node12&#45;&gt;Node19 -->
<g id="edge18" class="edge">
<title>Node12&#45;&gt;Node19</title>
<path fill="none" stroke="midnightblue" d="M1504.81,-184.8C1440.69,-179.23 1310.22,-166.26 1190.29,-142.89"/>
<polygon fill="midnightblue" stroke="midnightblue" points="1190.69,-139.4 1180.2,-140.89 1189.33,-146.26 1190.69,-139.4"/>
</g>
<!-- Node20 -->
<g id="node20" class="node">
<title>Node20</title>
<g id="a_node20"><a xlink:title=" ">
<polygon fill="white" stroke="#bfbfbf" points="1198.5,-123.5 1198.5,-142.5 1258.5,-142.5 1258.5,-123.5 1198.5,-123.5"/>
<text text-anchor="middle" x="1228.5" y="-130.5" font-family="Helvetica,sans-Serif" font-size="10.00">iostream</text>
</a>
</g>
</g>
<!-- Node12&#45;&gt;Node20 -->
<g id="edge19" class="edge">
<title>Node12&#45;&gt;Node20</title>
<path fill="none" stroke="midnightblue" d="M1504.91,-182.4C1452.91,-174.87 1358.57,-160.58 1268.52,-143.1"/>
<polygon fill="midnightblue" stroke="midnightblue" points="1269.18,-139.66 1258.69,-141.17 1267.83,-146.53 1269.18,-139.66"/>
</g>
<!-- Node21 -->
<g id="node21" class="node">
<title>Node21</title>
<g id="a_node21"><a xlink:title=" ">
<polygon fill="white" stroke="#bfbfbf" points="1276.5,-123.5 1276.5,-142.5 1320.5,-142.5 1320.5,-123.5 1276.5,-123.5"/>
<text text-anchor="middle" x="1298.5" y="-130.5" font-family="Helvetica,sans-Serif" font-size="10.00">string</text>
</a>
</g>
</g>
<!-- Node12&#45;&gt;Node21 -->
<g id="edge20" class="edge">
<title>Node12&#45;&gt;Node21</title>
<path fill="none" stroke="midnightblue" d="M1504.67,-180.61C1463.38,-172.73 1396.79,-159.46 1330.56,-143.12"/>
<polygon fill="midnightblue" stroke="midnightblue" points="1331.35,-139.71 1320.8,-140.69 1329.65,-146.51 1331.35,-139.71"/>
</g>
<!-- Node22 -->
<g id="node22" class="node">
<title>Node22</title>
<g id="a_node22"><a xlink:title=" ">
<polygon fill="white" stroke="#bfbfbf" points="1338.5,-123.5 1338.5,-142.5 1468.5,-142.5 1468.5,-123.5 1338.5,-123.5"/>
<text text-anchor="middle" x="1403.5" y="-130.5" font-family="Helvetica,sans-Serif" font-size="10.00">G4AssemblyVolume.hh</text>
</a>
</g>
</g>
<!-- Node12&#45;&gt;Node22 -->
<g id="edge21" class="edge">
<title>Node12&#45;&gt;Node22</title>
<path fill="none" stroke="midnightblue" d="M1522.16,-179.44C1498.75,-170.48 1461.76,-156.31 1435.31,-146.18"/>
<polygon fill="midnightblue" stroke="midnightblue" points="1436.33,-142.82 1425.74,-142.52 1433.82,-149.36 1436.33,-142.82"/>
</g>
<!-- Node23 -->
<g id="node23" class="node">
<title>Node23</title>
<g id="a_node23"><a xlink:title=" ">
<polygon fill="white" stroke="#bfbfbf" points="1486.5,-123.5 1486.5,-142.5 1602.5,-142.5 1602.5,-123.5 1486.5,-123.5"/>
<text text-anchor="middle" x="1544.5" y="-130.5" font-family="Helvetica,sans-Serif" font-size="10.00">G4LogicalVolume.hh</text>
</a>
</g>
</g>
<!-- Node12&#45;&gt;Node23 -->
<g id="edge22" class="edge">
<title>Node12&#45;&gt;Node23</title>
<path fill="none" stroke="midnightblue" d="M1544.5,-179.08C1544.5,-172.01 1544.5,-161.86 1544.5,-152.99"/>
<polygon fill="midnightblue" stroke="midnightblue" points="1548,-152.75 1544.5,-142.75 1541,-152.75 1548,-152.75"/>
</g>
<!-- Node24 -->
<g id="node24" class="node">
<title>Node24</title>
<g id="a_node24"><a xlink:title=" ">
<polygon fill="white" stroke="#bfbfbf" points="1620.5,-123.5 1620.5,-142.5 1706.5,-142.5 1706.5,-123.5 1620.5,-123.5"/>
<text text-anchor="middle" x="1663.5" y="-130.5" font-family="Helvetica,sans-Serif" font-size="10.00">G4Material.hh</text>
</a>
</g>
</g>
<!-- Node12&#45;&gt;Node24 -->
<g id="edge23" class="edge">
<title>Node12&#45;&gt;Node24</title>
<path fill="none" stroke="midnightblue" d="M1563.36,-179.44C1582.77,-170.64 1613.23,-156.81 1635.46,-146.72"/>
<polygon fill="midnightblue" stroke="midnightblue" points="1637.07,-149.84 1644.73,-142.52 1634.18,-143.46 1637.07,-149.84"/>
</g>
<!-- Node25 -->
<g id="node25" class="node">
<title>Node25</title>
<g id="a_node25"><a xlink:title=" ">
<polygon fill="white" stroke="#bfbfbf" points="1724.5,-123.5 1724.5,-142.5 1848.5,-142.5 1848.5,-123.5 1724.5,-123.5"/>
<text text-anchor="middle" x="1786.5" y="-130.5" font-family="Helvetica,sans-Serif" font-size="10.00">G4TessellatedSolid.hh</text>
</a>
</g>
</g>
<!-- Node12&#45;&gt;Node25 -->
<g id="edge24" class="edge">
<title>Node12&#45;&gt;Node25</title>
<path fill="none" stroke="midnightblue" d="M1582.85,-179.44C1624.97,-170.04 1692.71,-154.93 1738.37,-144.74"/>
<polygon fill="midnightblue" stroke="midnightblue" points="1739.34,-148.11 1748.33,-142.52 1737.81,-141.28 1739.34,-148.11"/>
</g>
<!-- Node26 -->
<g id="node26" class="node">
<title>Node26</title>
<g id="a_node26"><a xlink:title=" ">
<polygon fill="white" stroke="#bfbfbf" points="1867,-123.5 1867,-142.5 1926,-142.5 1926,-123.5 1867,-123.5"/>
<text text-anchor="middle" x="1896.5" y="-130.5" font-family="Helvetica,sans-Serif" font-size="10.00">G4Tet.hh</text>
</a>
</g>
</g>
<!-- Node12&#45;&gt;Node26 -->
<g id="edge25" class="edge">
<title>Node12&#45;&gt;Node26</title>
<path fill="none" stroke="midnightblue" d="M1584.2,-183.38C1641.94,-176.42 1752.63,-162.18 1856.7,-143.01"/>
<polygon fill="midnightblue" stroke="midnightblue" points="1857.55,-146.41 1866.74,-141.14 1856.27,-139.53 1857.55,-146.41"/>
</g>
<!-- Node27 -->
<g id="node27" class="node">
<title>Node27</title>
<g id="a_node27"><a xlink:title=" ">
<polygon fill="white" stroke="#bfbfbf" points="1944.5,-123.5 1944.5,-142.5 2048.5,-142.5 2048.5,-123.5 1944.5,-123.5"/>
<text text-anchor="middle" x="1996.5" y="-130.5" font-family="Helvetica,sans-Serif" font-size="10.00">G4UIcommand.hh</text>
</a>
</g>
</g>
<!-- Node12&#45;&gt;Node27 -->
<g id="edge26" class="edge">
<title>Node12&#45;&gt;Node27</title>
<path fill="none" stroke="midnightblue" d="M1584.13,-183.82C1654.66,-176.28 1806.59,-159.66 1934.5,-143 1934.6,-142.99 1934.7,-142.97 1934.8,-142.96"/>
<polygon fill="midnightblue" stroke="midnightblue" points="1934.97,-146.47 1944.42,-141.67 1934.04,-139.53 1934.97,-146.47"/>
</g>
<!-- Node28 -->
<g id="node28" class="node">
<title>Node28</title>
<g id="a_node28"><a xlink:title=" ">
<polygon fill="white" stroke="#bfbfbf" points="2067,-123.5 2067,-142.5 2134,-142.5 2134,-123.5 2067,-123.5"/>
<text text-anchor="middle" x="2100.5" y="-130.5" font-family="Helvetica,sans-Serif" font-size="10.00">globals.hh</text>
</a>
</g>
</g>
<!-- Node12&#45;&gt;Node28 -->
<g id="edge27" class="edge">
<title>Node12&#45;&gt;Node28</title>
<path fill="none" stroke="midnightblue" d="M1584.27,-186.12C1669.18,-181.77 1874.57,-169.4 2056.74,-142.93"/>
<polygon fill="midnightblue" stroke="midnightblue" points="2057.38,-146.37 2066.77,-141.46 2056.36,-139.45 2057.38,-146.37"/>
</g>
<!-- Node29 -->
<g id="node29" class="node">
<title>Node29</title>
<g id="a_node29"><a xlink:title=" ">
<polygon fill="white" stroke="#bfbfbf" points="2417,-123.5 2417,-142.5 2472,-142.5 2472,-123.5 2417,-123.5"/>
<text text-anchor="middle" x="2444.5" y="-130.5" font-family="Helvetica,sans-Serif" font-size="10.00">fstream</text>
</a>
</g>
</g>
<!-- Node12&#45;&gt;Node29 -->
<g id="edge28" class="edge">
<title>Node12&#45;&gt;Node29</title>
<path fill="none" stroke="midnightblue" d="M1584.33,-188.55C1706.22,-189.69 2084.92,-189.08 2406.74,-142.8"/>
<polygon fill="midnightblue" stroke="midnightblue" points="2407.34,-146.25 2416.73,-141.34 2406.33,-139.32 2407.34,-146.25"/>
</g>
<!-- Node30 -->
<g id="node30" class="node">
<title>Node30</title>
<g id="a_node30"><a xlink:title=" ">
<polygon fill="white" stroke="#bfbfbf" points="2152.5,-123.5 2152.5,-142.5 2208.5,-142.5 2208.5,-123.5 2152.5,-123.5"/>
<text text-anchor="middle" x="2180.5" y="-130.5" font-family="Helvetica,sans-Serif" font-size="10.00">sstream</text>
</a>
</g>
</g>
<!-- Node12&#45;&gt;Node30 -->
<g id="edge29" class="edge">
<title>Node12&#45;&gt;Node30</title>
<path fill="none" stroke="midnightblue" d="M1584.28,-187.17C1680.62,-184.68 1933.9,-175.34 2142.5,-143 2142.6,-142.98 2142.7,-142.97 2142.8,-142.95"/>
<polygon fill="midnightblue" stroke="midnightblue" points="2143.18,-146.44 2152.38,-141.18 2141.91,-139.56 2143.18,-146.44"/>
</g>
<!-- Node31 -->
<g id="node31" class="node">
<title>Node31</title>
<g id="a_node31"><a xlink:title=" ">
<polygon fill="white" stroke="#bfbfbf" points="2227,-123.5 2227,-142.5 2294,-142.5 2294,-123.5 2227,-123.5"/>
<text text-anchor="middle" x="2260.5" y="-130.5" font-family="Helvetica,sans-Serif" font-size="10.00">streambuf</text>
</a>
</g>
</g>
<!-- Node12&#45;&gt;Node31 -->
<g id="edge30" class="edge">
<title>Node12&#45;&gt;Node31</title>
<path fill="none" stroke="midnightblue" d="M1584.14,-187.28C1686.94,-185 1970.62,-176.08 2216.57,-142.92"/>
<polygon fill="midnightblue" stroke="midnightblue" points="2217.34,-146.34 2226.78,-141.52 2216.39,-139.41 2217.34,-146.34"/>
</g>
<!-- Node32 -->
<g id="node32" class="node">
<title>Node32</title>
<g id="a_node32"><a xlink:title=" ">
<polygon fill="white" stroke="#bfbfbf" points="2312.5,-123.5 2312.5,-142.5 2398.5,-142.5 2398.5,-123.5 2312.5,-123.5"/>
<text text-anchor="middle" x="2355.5" y="-130.5" font-family="Helvetica,sans-Serif" font-size="10.00">Randomize.hh</text>
</a>
</g>
</g>
<!-- Node12&#45;&gt;Node32 -->
<g id="edge31" class="edge">
<title>Node12&#45;&gt;Node32</title>
<path fill="none" stroke="midnightblue" d="M1584.09,-187.17C1696.76,-184.48 2028.76,-174.27 2302.5,-143 2302.6,-142.99 2302.7,-142.98 2302.8,-142.97"/>
<polygon fill="midnightblue" stroke="midnightblue" points="2302.99,-146.47 2312.46,-141.71 2302.09,-139.53 2302.99,-146.47"/>
</g>
<!-- Node33&#45;&gt;Node29 -->
<g id="edge36" class="edge">
<title>Node33&#45;&gt;Node29</title>
<path fill="none" stroke="midnightblue" d="M2483.74,-179.08C2476.96,-171.3 2466.96,-159.8 2458.74,-150.37"/>
<polygon fill="midnightblue" stroke="midnightblue" points="2461.32,-148 2452.12,-142.75 2456.04,-152.59 2461.32,-148"/>
</g>
<!-- Node34 -->
<g id="node34" class="node">
<title>Node34</title>
<g id="a_node34"><a xlink:href="_o_m_sim_logger_8hh.html" target="_top" xlink:title=" ">
<polygon fill="white" stroke="black" points="2490,-123.5 2490,-142.5 2589,-142.5 2589,-123.5 2490,-123.5"/>
<text text-anchor="middle" x="2539.5" y="-130.5" font-family="Helvetica,sans-Serif" font-size="10.00">OMSimLogger.hh</text>
</a>
</g>
</g>
<!-- Node33&#45;&gt;Node34 -->
<g id="edge33" class="edge">
<title>Node33&#45;&gt;Node34</title>
<path fill="none" stroke="midnightblue" d="M2499.43,-179.08C2506.35,-171.3 2516.57,-159.8 2524.95,-150.37"/>
<polygon fill="midnightblue" stroke="midnightblue" points="2527.69,-152.55 2531.72,-142.75 2522.46,-147.9 2527.69,-152.55"/>
</g>
<!-- Node37 -->
<g id="node37" class="node">
<title>Node37</title>
<g id="a_node37"><a xlink:title=" ">
<polygon fill="white" stroke="#bfbfbf" points="2607.5,-123.5 2607.5,-142.5 2691.5,-142.5 2691.5,-123.5 2607.5,-123.5"/>
<text text-anchor="middle" x="2649.5" y="-130.5" font-family="Helvetica,sans-Serif" font-size="10.00">boost/any.hpp</text>
</a>
</g>
</g>
<!-- Node33&#45;&gt;Node37 -->
<g id="edge37" class="edge">
<title>Node33&#45;&gt;Node37</title>
<path fill="none" stroke="midnightblue" d="M2516.54,-179.44C2543.12,-170.36 2585.31,-155.94 2615.02,-145.78"/>
<polygon fill="midnightblue" stroke="midnightblue" points="2616.25,-149.06 2624.58,-142.52 2613.99,-142.44 2616.25,-149.06"/>
</g>
<!-- Node38 -->
<g id="node38" class="node">
<title>Node38</title>
<g id="a_node38"><a xlink:title=" ">
<polygon fill="white" stroke="#bfbfbf" points="2709.5,-123.5 2709.5,-142.5 2777.5,-142.5 2777.5,-123.5 2709.5,-123.5"/>
<text text-anchor="middle" x="2743.5" y="-130.5" font-family="Helvetica,sans-Serif" font-size="10.00">sys/time.h</text>
</a>
</g>
</g>
<!-- Node33&#45;&gt;Node38 -->
<g id="edge38" class="edge">
<title>Node33&#45;&gt;Node38</title>
<path fill="none" stroke="midnightblue" d="M2531.43,-179.44C2577.2,-169.64 2652,-153.61 2699.44,-143.44"/>
<polygon fill="midnightblue" stroke="midnightblue" points="2700.37,-146.82 2709.41,-141.3 2698.9,-139.98 2700.37,-146.82"/>
</g>
<!-- Node35 -->
<g id="node35" class="node">
<title>Node35</title>
<g id="a_node35"><a xlink:title=" ">
<polygon fill="white" stroke="#bfbfbf" points="2480.5,-67.5 2480.5,-86.5 2530.5,-86.5 2530.5,-67.5 2480.5,-67.5"/>
<text text-anchor="middle" x="2505.5" y="-74.5" font-family="Helvetica,sans-Serif" font-size="10.00">stdio.h</text>
</a>
</g>
</g>
<!-- Node34&#45;&gt;Node35 -->
<g id="edge34" class="edge">
<title>Node34&#45;&gt;Node35</title>
<path fill="none" stroke="midnightblue" d="M2533.89,-123.08C2529.13,-115.53 2522.18,-104.49 2516.35,-95.23"/>
<polygon fill="midnightblue" stroke="midnightblue" points="2519.3,-93.35 2511.01,-86.75 2513.38,-97.08 2519.3,-93.35"/>
</g>
<!-- Node36 -->
<g id="node36" class="node">
<title>Node36</title>
<g id="a_node36"><a xlink:title=" ">
<polygon fill="white" stroke="#bfbfbf" points="2548.5,-67.5 2548.5,-86.5 2596.5,-86.5 2596.5,-67.5 2548.5,-67.5"/>
<text text-anchor="middle" x="2572.5" y="-74.5" font-family="Helvetica,sans-Serif" font-size="10.00">time.h</text>
</a>
</g>
</g>
<!-- Node34&#45;&gt;Node36 -->
<g id="edge35" class="edge">
<title>Node34&#45;&gt;Node36</title>
<path fill="none" stroke="midnightblue" d="M2544.95,-123.08C2549.51,-115.61 2556.17,-104.72 2561.79,-95.52"/>
<polygon fill="midnightblue" stroke="midnightblue" points="2564.92,-97.11 2567.15,-86.75 2558.95,-93.46 2564.92,-97.11"/>
</g>
</g>
</svg>
