<?xml version="1.0" encoding="UTF-8" standalone="no"?>
<!DOCTYPE svg PUBLIC "-//W3C//DTD SVG 1.1//EN"
 "http://www.w3.org/Graphics/SVG/1.1/DTD/svg11.dtd">
<!-- Generated by graphviz version 2.43.0 (0)
 -->
<!-- Title: /home/runner/work/OMSim/OMSim/common/include/OMSimPDOM.hh Pages: 1 -->
<svg width="1240pt" height="285pt"
 viewBox="0.00 0.00 1240.49 285.00" xmlns="http://www.w3.org/2000/svg" xmlns:xlink="http://www.w3.org/1999/xlink">
<g id="graph0" class="graph" transform="scale(1 1) rotate(0) translate(4 281)">
<title>/home/runner/work/OMSim/OMSim/common/include/OMSimPDOM.hh</title>
<polygon fill="white" stroke="transparent" points="-4,4 -4,-281 1236.49,-281 1236.49,4 -4,4"/>
<!-- Node1 -->
<g id="node1" class="node">
<title>Node1</title>
<g id="a_node1"><a xlink:title=" ">
<polygon fill="#bfbfbf" stroke="black" points="520.49,-235.5 520.49,-276.5 667.49,-276.5 667.49,-235.5 520.49,-235.5"/>
<text text-anchor="start" x="528.49" y="-264.5" font-family="Helvetica,sans-Serif" font-size="10.00">/home/runner/work/OMSim</text>
<text text-anchor="start" x="528.49" y="-253.5" font-family="Helvetica,sans-Serif" font-size="10.00">/OMSim/common/include</text>
<text text-anchor="middle" x="593.99" y="-242.5" font-family="Helvetica,sans-Serif" font-size="10.00">/OMSimPDOM.hh</text>
</a>
</g>
</g>
<!-- Node2 -->
<g id="node2" class="node">
<title>Node2</title>
<g id="a_node2"><a xlink:href="abc_detector_component_8hh.html" target="_top" xlink:title=" ">
<polygon fill="white" stroke="black" points="393.49,-123.5 393.49,-142.5 540.49,-142.5 540.49,-123.5 393.49,-123.5"/>
<text text-anchor="middle" x="466.99" y="-130.5" font-family="Helvetica,sans-Serif" font-size="10.00">abcDetectorComponent.hh</text>
</a>
</g>
</g>
<!-- Node1&#45;&gt;Node2 -->
<g id="edge1" class="edge">
<title>Node1&#45;&gt;Node2</title>
<path fill="none" stroke="midnightblue" d="M573.3,-235.29C548.15,-211.33 506.23,-171.39 483.26,-149.51"/>
<polygon fill="midnightblue" stroke="midnightblue" points="485.64,-146.94 475.99,-142.57 480.81,-152.01 485.64,-146.94"/>
</g>
<!-- Node17 -->
<g id="node17" class="node">
<title>Node17</title>
<g id="a_node17"><a xlink:href="_o_m_sim_p_m_t_construction_8hh.html" target="_top" xlink:title=" ">
<polygon fill="white" stroke="black" points="608.49,-179.5 608.49,-198.5 757.49,-198.5 757.49,-179.5 608.49,-179.5"/>
<text text-anchor="middle" x="682.99" y="-186.5" font-family="Helvetica,sans-Serif" font-size="10.00">OMSimPMTConstruction.hh</text>
</a>
</g>
</g>
<!-- Node1&#45;&gt;Node17 -->
<g id="edge17" class="edge">
<title>Node1&#45;&gt;Node17</title>
<path fill="none" stroke="midnightblue" d="M620.69,-235.5C634.21,-225.63 650.34,-213.84 662.81,-204.74"/>
<polygon fill="midnightblue" stroke="midnightblue" points="665.13,-207.38 671.14,-198.65 661,-201.72 665.13,-207.38"/>
</g>
<!-- Node3 -->
<g id="node3" class="node">
<title>Node3</title>
<g id="a_node3"><a xlink:title=" ">
<polygon fill="white" stroke="#bfbfbf" points="766.99,-67.5 766.99,-86.5 882.99,-86.5 882.99,-67.5 766.99,-67.5"/>
<text text-anchor="middle" x="824.99" y="-74.5" font-family="Helvetica,sans-Serif" font-size="10.00">G4LogicalVolume.hh</text>
</a>
</g>
</g>
<!-- Node2&#45;&gt;Node3 -->
<g id="edge2" class="edge">
<title>Node2&#45;&gt;Node3</title>
<path fill="none" stroke="midnightblue" d="M523.71,-123.44C587.48,-113.83 690.89,-98.23 758.42,-88.04"/>
<polygon fill="midnightblue" stroke="midnightblue" points="759.16,-91.47 768.53,-86.52 758.12,-84.55 759.16,-91.47"/>
</g>
<!-- Node4 -->
<g id="node4" class="node">
<title>Node4</title>
<g id="a_node4"><a xlink:title=" ">
<polygon fill="white" stroke="#bfbfbf" points="407.49,-6 407.49,-25 526.49,-25 526.49,-6 407.49,-6"/>
<text text-anchor="middle" x="466.99" y="-13" font-family="Helvetica,sans-Serif" font-size="10.00">G4SystemOfUnits.hh</text>
</a>
</g>
</g>
<!-- Node2&#45;&gt;Node4 -->
<g id="edge3" class="edge">
<title>Node2&#45;&gt;Node4</title>
<path fill="none" stroke="midnightblue" d="M466.99,-123.32C466.99,-104.76 466.99,-60.84 466.99,-35.47"/>
<polygon fill="midnightblue" stroke="midnightblue" points="470.49,-35.28 466.99,-25.28 463.49,-35.28 470.49,-35.28"/>
</g>
<!-- Node5 -->
<g id="node5" class="node">
<title>Node5</title>
<g id="a_node5"><a xlink:title=" ">
<polygon fill="white" stroke="#bfbfbf" points="141.49,-67.5 141.49,-86.5 248.49,-86.5 248.49,-67.5 141.49,-67.5"/>
<text text-anchor="middle" x="194.99" y="-74.5" font-family="Helvetica,sans-Serif" font-size="10.00">G4Transform3D.hh</text>
</a>
</g>
</g>
<!-- Node2&#45;&gt;Node5 -->
<g id="edge4" class="edge">
<title>Node2&#45;&gt;Node5</title>
<path fill="none" stroke="midnightblue" d="M423.89,-123.44C376.14,-113.96 299.13,-98.67 247.79,-88.48"/>
<polygon fill="midnightblue" stroke="midnightblue" points="248.38,-85.03 237.89,-86.52 247.01,-91.9 248.38,-85.03"/>
</g>
<!-- Node6 -->
<g id="node6" class="node">
<title>Node6</title>
<g id="a_node6"><a xlink:title=" ">
<polygon fill="white" stroke="#bfbfbf" points="14.99,-67.5 14.99,-86.5 122.99,-86.5 122.99,-67.5 14.99,-67.5"/>
<text text-anchor="middle" x="68.99" y="-74.5" font-family="Helvetica,sans-Serif" font-size="10.00">G4VisAttributes.hh</text>
</a>
</g>
</g>
<!-- Node2&#45;&gt;Node6 -->
<g id="edge5" class="edge">
<title>Node2&#45;&gt;Node6</title>
<path fill="none" stroke="midnightblue" d="M402.43,-123.49C337.13,-114.85 232.99,-100.96 133.23,-87.16"/>
<polygon fill="midnightblue" stroke="midnightblue" points="133.67,-83.69 123.28,-85.79 132.71,-90.62 133.67,-83.69"/>
</g>
<!-- Node7 -->
<g id="node7" class="node">
<title>Node7</title>
<g id="a_node7"><a xlink:href="_o_m_sim_input_data_8hh.html" target="_top" xlink:title=" ">
<polygon fill="white" stroke="black" points="901.49,-67.5 901.49,-86.5 1016.49,-86.5 1016.49,-67.5 901.49,-67.5"/>
<text text-anchor="middle" x="958.99" y="-74.5" font-family="Helvetica,sans-Serif" font-size="10.00">OMSimInputData.hh</text>
</a>
</g>
</g>
<!-- Node2&#45;&gt;Node7 -->
<g id="edge6" class="edge">
<title>Node2&#45;&gt;Node7</title>
<path fill="none" stroke="midnightblue" d="M540.77,-124.82C623.43,-116.64 761.72,-102.51 891.16,-87.07"/>
<polygon fill="midnightblue" stroke="midnightblue" points="891.75,-90.52 901.26,-85.86 890.91,-83.57 891.75,-90.52"/>
</g>
<!-- Node13 -->
<g id="node13" class="node">
<title>Node13</title>
<g id="a_node13"><a xlink:title=" ">
<polygon fill="white" stroke="#bfbfbf" points="495.49,-67.5 495.49,-86.5 620.49,-86.5 620.49,-67.5 495.49,-67.5"/>
<text text-anchor="middle" x="557.99" y="-74.5" font-family="Helvetica,sans-Serif" font-size="10.00">G4SubtractionSolid.hh</text>
</a>
</g>
</g>
<!-- Node2&#45;&gt;Node13 -->
<g id="edge13" class="edge">
<title>Node2&#45;&gt;Node13</title>
<path fill="none" stroke="midnightblue" d="M481.61,-123.32C495.94,-114.82 518,-101.73 534.74,-91.8"/>
<polygon fill="midnightblue" stroke="midnightblue" points="536.59,-94.77 543.4,-86.65 533.02,-88.75 536.59,-94.77"/>
</g>
<!-- Node14 -->
<g id="node14" class="node">
<title>Node14</title>
<g id="a_node14"><a xlink:title=" ">
<polygon fill="white" stroke="#bfbfbf" points="638.99,-67.5 638.99,-86.5 748.99,-86.5 748.99,-67.5 638.99,-67.5"/>
<text text-anchor="middle" x="693.99" y="-74.5" font-family="Helvetica,sans-Serif" font-size="10.00">G4PVPlacement.hh</text>
</a>
</g>
</g>
<!-- Node2&#45;&gt;Node14 -->
<g id="edge14" class="edge">
<title>Node2&#45;&gt;Node14</title>
<path fill="none" stroke="midnightblue" d="M502.96,-123.44C542.31,-114.08 605.48,-99.06 648.3,-88.87"/>
<polygon fill="midnightblue" stroke="midnightblue" points="649.27,-92.24 658.19,-86.52 647.65,-85.43 649.27,-92.24"/>
</g>
<!-- Node15 -->
<g id="node15" class="node">
<title>Node15</title>
<g id="a_node15"><a xlink:title=" ">
<polygon fill="white" stroke="#bfbfbf" points="266.99,-67.5 266.99,-86.5 364.99,-86.5 364.99,-67.5 266.99,-67.5"/>
<text text-anchor="middle" x="315.99" y="-74.5" font-family="Helvetica,sans-Serif" font-size="10.00">G4MultiUnion.hh</text>
</a>
</g>
</g>
<!-- Node2&#45;&gt;Node15 -->
<g id="edge15" class="edge">
<title>Node2&#45;&gt;Node15</title>
<path fill="none" stroke="midnightblue" d="M443.06,-123.44C417.77,-114.4 377.69,-100.06 349.31,-89.92"/>
<polygon fill="midnightblue" stroke="midnightblue" points="350.4,-86.59 339.8,-86.52 348.04,-93.18 350.4,-86.59"/>
</g>
<!-- Node16 -->
<g id="node16" class="node">
<title>Node16</title>
<g id="a_node16"><a xlink:title=" ">
<polygon fill="white" stroke="#bfbfbf" points="382.99,-67.5 382.99,-86.5 438.99,-86.5 438.99,-67.5 382.99,-67.5"/>
<text text-anchor="middle" x="410.99" y="-74.5" font-family="Helvetica,sans-Serif" font-size="10.00">sstream</text>
</a>
</g>
</g>
<!-- Node2&#45;&gt;Node16 -->
<g id="edge16" class="edge">
<title>Node2&#45;&gt;Node16</title>
<path fill="none" stroke="midnightblue" d="M457.99,-123.32C449.79,-115.42 437.48,-103.55 427.52,-93.94"/>
<polygon fill="midnightblue" stroke="midnightblue" points="429.78,-91.26 420.15,-86.83 424.92,-96.29 429.78,-91.26"/>
</g>
<!-- Node7&#45;&gt;Node4 -->
<g id="edge12" class="edge">
<title>Node7&#45;&gt;Node4</title>
<path fill="none" stroke="midnightblue" d="M901.25,-68.19C898.12,-67.78 895.02,-67.38 891.99,-67 757.45,-49.97 723.66,-47 588.99,-31 571.99,-28.98 553.66,-26.8 536.51,-24.76"/>
<polygon fill="midnightblue" stroke="midnightblue" points="536.9,-21.29 526.56,-23.58 536.08,-28.24 536.9,-21.29"/>
</g>
<!-- Node8 -->
<g id="node8" class="node">
<title>Node8</title>
<g id="a_node8"><a xlink:title=" ">
<polygon fill="white" stroke="#bfbfbf" points="988.49,-0.5 988.49,-30.5 1101.49,-30.5 1101.49,-0.5 988.49,-0.5"/>
<text text-anchor="start" x="996.49" y="-18.5" font-family="Helvetica,sans-Serif" font-size="10.00">boost/property_tree</text>
<text text-anchor="middle" x="1044.99" y="-7.5" font-family="Helvetica,sans-Serif" font-size="10.00">/ptree.hpp</text>
</a>
</g>
</g>
<!-- Node7&#45;&gt;Node8 -->
<g id="edge7" class="edge">
<title>Node7&#45;&gt;Node8</title>
<path fill="none" stroke="midnightblue" d="M971.31,-67.48C982.96,-59.42 1000.87,-47.02 1016.12,-36.47"/>
<polygon fill="midnightblue" stroke="midnightblue" points="1018.49,-39.09 1024.72,-30.52 1014.51,-33.33 1018.49,-39.09"/>
</g>
<!-- Node9 -->
<g id="node9" class="node">
<title>Node9</title>
<g id="a_node9"><a xlink:title=" ">
<polygon fill="white" stroke="#bfbfbf" points="1119.49,-0.5 1119.49,-30.5 1232.49,-30.5 1232.49,-0.5 1119.49,-0.5"/>
<text text-anchor="start" x="1127.49" y="-18.5" font-family="Helvetica,sans-Serif" font-size="10.00">boost/property_tree</text>
<text text-anchor="middle" x="1175.99" y="-7.5" font-family="Helvetica,sans-Serif" font-size="10.00">/json_parser.hpp</text>
</a>
</g>
</g>
<!-- Node7&#45;&gt;Node9 -->
<g id="edge8" class="edge">
<title>Node7&#45;&gt;Node9</title>
<path fill="none" stroke="midnightblue" d="M990.08,-67.48C1022.56,-58.57 1074.35,-44.37 1115.03,-33.22"/>
<polygon fill="midnightblue" stroke="midnightblue" points="1116.13,-36.54 1124.85,-30.52 1114.28,-29.79 1116.13,-36.54"/>
</g>
<!-- Node10 -->
<g id="node10" class="node">
<title>Node10</title>
<g id="a_node10"><a xlink:title=" ">
<polygon fill="white" stroke="#bfbfbf" points="597.99,-6 597.99,-25 683.99,-25 683.99,-6 597.99,-6"/>
<text text-anchor="middle" x="640.99" y="-13" font-family="Helvetica,sans-Serif" font-size="10.00">G4Material.hh</text>
</a>
</g>
</g>
<!-- Node7&#45;&gt;Node10 -->
<g id="edge9" class="edge">
<title>Node7&#45;&gt;Node10</title>
<path fill="none" stroke="midnightblue" d="M901.29,-67.88C847.39,-59.9 764.84,-46.67 693.99,-31 689.52,-30.01 684.86,-28.88 680.25,-27.7"/>
<polygon fill="midnightblue" stroke="midnightblue" points="680.86,-24.25 670.3,-25.07 679.07,-31.01 680.86,-24.25"/>
</g>
<!-- Node11 -->
<g id="node11" class="node">
<title>Node11</title>
<g id="a_node11"><a xlink:title=" ">
<polygon fill="white" stroke="#bfbfbf" points="702.49,-6 702.49,-25 809.49,-25 809.49,-6 702.49,-6"/>
<text text-anchor="middle" x="755.99" y="-13" font-family="Helvetica,sans-Serif" font-size="10.00">G4NistManager.hh</text>
</a>
</g>
</g>
<!-- Node7&#45;&gt;Node11 -->
<g id="edge10" class="edge">
<title>Node7&#45;&gt;Node11</title>
<path fill="none" stroke="midnightblue" d="M929.9,-67.48C894.4,-57.07 834.24,-39.44 794.82,-27.88"/>
<polygon fill="midnightblue" stroke="midnightblue" points="795.6,-24.46 785.02,-25.01 793.63,-31.18 795.6,-24.46"/>
</g>
<!-- Node12 -->
<g id="node12" class="node">
<title>Node12</title>
<g id="a_node12"><a xlink:title=" ">
<polygon fill="white" stroke="#bfbfbf" points="827.49,-6 827.49,-25 970.49,-25 970.49,-6 827.49,-6"/>
<text text-anchor="middle" x="898.99" y="-13" font-family="Helvetica,sans-Serif" font-size="10.00">G4OpBoundaryProcess.hh</text>
</a>
</g>
</g>
<!-- Node7&#45;&gt;Node12 -->
<g id="edge11" class="edge">
<title>Node7&#45;&gt;Node12</title>
<path fill="none" stroke="midnightblue" d="M950.39,-67.48C941.12,-58.28 926.17,-43.46 914.78,-32.16"/>
<polygon fill="midnightblue" stroke="midnightblue" points="917.13,-29.57 907.57,-25.01 912.21,-34.54 917.13,-29.57"/>
</g>
<!-- Node17&#45;&gt;Node2 -->
<g id="edge20" class="edge">
<title>Node17&#45;&gt;Node2</title>
<path fill="none" stroke="midnightblue" d="M648.76,-179.44C611.48,-170.12 551.72,-155.18 510.98,-145"/>
<polygon fill="midnightblue" stroke="midnightblue" points="511.6,-141.55 501.05,-142.52 509.91,-148.34 511.6,-141.55"/>
</g>
<!-- Node17&#45;&gt;Node3 -->
<g id="edge21" class="edge">
<title>Node17&#45;&gt;Node3</title>
<path fill="none" stroke="midnightblue" d="M675.9,-179.12C666.11,-165.71 651.05,-140.05 663.99,-123 675.7,-107.56 719.02,-95.98 757.77,-88.44"/>
<polygon fill="midnightblue" stroke="midnightblue" points="758.85,-91.8 768.03,-86.51 757.55,-84.92 758.85,-91.8"/>
</g>
<!-- Node17&#45;&gt;Node4 -->
<g id="edge22" class="edge">
<title>Node17&#45;&gt;Node4</title>
<path fill="none" stroke="midnightblue" d="M608.35,-188.85C448.31,-188.87 80.63,-178.71 5.99,-87 -44.4,-25.09 256.36,-16.72 397.2,-16.15"/>
<polygon fill="midnightblue" stroke="midnightblue" points="397.48,-19.65 407.47,-16.12 397.46,-12.65 397.48,-19.65"/>
</g>
<!-- Node17&#45;&gt;Node6 -->
<g id="edge24" class="edge">
<title>Node17&#45;&gt;Node6</title>
<path fill="none" stroke="midnightblue" d="M619.54,-179.47C558.9,-171.07 465,-157.44 383.99,-143 288.95,-126.06 178.62,-102.35 117,-88.75"/>
<polygon fill="midnightblue" stroke="midnightblue" points="117.69,-85.32 107.17,-86.57 116.17,-92.15 117.69,-85.32"/>
</g>
<!-- Node17&#45;&gt;Node7 -->
<g id="edge27" class="edge">
<title>Node17&#45;&gt;Node7</title>
<path fill="none" stroke="midnightblue" d="M757.8,-187.41C836.48,-185.01 952.75,-175.82 980.99,-143 992.83,-129.24 982.78,-108.83 972.7,-94.56"/>
<polygon fill="midnightblue" stroke="midnightblue" points="975.47,-92.42 966.62,-86.59 969.9,-96.66 975.47,-92.42"/>
</g>
<!-- Node17&#45;&gt;Node8 -->
<g id="edge18" class="edge">
<title>Node17&#45;&gt;Node8</title>
<path fill="none" stroke="midnightblue" d="M757.59,-185.08C838.03,-180.6 959.61,-169.55 996.99,-143 1029.93,-119.6 1040.27,-70.53 1043.52,-40.85"/>
<polygon fill="midnightblue" stroke="midnightblue" points="1047.04,-40.79 1044.44,-30.52 1040.06,-40.17 1047.04,-40.79"/>
</g>
<!-- Node17&#45;&gt;Node9 -->
<g id="edge19" class="edge">
<title>Node17&#45;&gt;Node9</title>
<path fill="none" stroke="midnightblue" d="M757.8,-182.75C842.38,-175.99 974.25,-162.72 1019.99,-143 1076.48,-118.65 1129.19,-67.79 1156.51,-38.52"/>
<polygon fill="midnightblue" stroke="midnightblue" points="1159.34,-40.61 1163.52,-30.87 1154.18,-35.87 1159.34,-40.61"/>
</g>
<!-- Node17&#45;&gt;Node13 -->
<g id="edge25" class="edge">
<title>Node17&#45;&gt;Node13</title>
<path fill="none" stroke="midnightblue" d="M670.89,-179.46C658.71,-170.71 639.56,-156.51 623.99,-143 605.88,-127.29 586.48,-107.84 573.44,-94.33"/>
<polygon fill="midnightblue" stroke="midnightblue" points="575.65,-91.57 566.2,-86.77 570.59,-96.41 575.65,-91.57"/>
</g>
<!-- Node17&#45;&gt;Node14 -->
<g id="edge26" class="edge">
<title>Node17&#45;&gt;Node14</title>
<path fill="none" stroke="midnightblue" d="M667.19,-179.35C647.97,-167.6 619.42,-145.49 630.99,-123 638.07,-109.25 651.51,-98.77 664.17,-91.39"/>
<polygon fill="midnightblue" stroke="midnightblue" points="665.99,-94.39 673.14,-86.57 662.68,-88.22 665.99,-94.39"/>
</g>
<!-- Node18 -->
<g id="node18" class="node">
<title>Node18</title>
<g id="a_node18"><a xlink:title=" ">
<polygon fill="white" stroke="#bfbfbf" points="672.99,-123.5 672.99,-142.5 770.99,-142.5 770.99,-123.5 672.99,-123.5"/>
<text text-anchor="middle" x="721.99" y="-130.5" font-family="Helvetica,sans-Serif" font-size="10.00">G4UnionSolid.hh</text>
</a>
</g>
</g>
<!-- Node17&#45;&gt;Node18 -->
<g id="edge23" class="edge">
<title>Node17&#45;&gt;Node18</title>
<path fill="none" stroke="midnightblue" d="M689.43,-179.08C694.94,-171.46 703.02,-160.26 709.75,-150.94"/>
<polygon fill="midnightblue" stroke="midnightblue" points="712.65,-152.91 715.67,-142.75 706.98,-148.81 712.65,-152.91"/>
</g>
<!-- Node19 -->
<g id="node19" class="node">
<title>Node19</title>
<g id="a_node19"><a xlink:title=" ">
<polygon fill="white" stroke="#bfbfbf" points="789.49,-123.5 789.49,-142.5 856.49,-142.5 856.49,-123.5 789.49,-123.5"/>
<text text-anchor="middle" x="822.99" y="-130.5" font-family="Helvetica,sans-Serif" font-size="10.00">G4Tubs.hh</text>
</a>
</g>
</g>
<!-- Node17&#45;&gt;Node19 -->
<g id="edge28" class="edge">
<title>Node17&#45;&gt;Node19</title>
<path fill="none" stroke="midnightblue" d="M705.17,-179.44C728.42,-170.48 765.14,-156.31 791.4,-146.18"/>
<polygon fill="midnightblue" stroke="midnightblue" points="792.84,-149.38 800.91,-142.52 790.32,-142.85 792.84,-149.38"/>
</g>
<!-- Node20 -->
<g id="node20" class="node">
<title>Node20</title>
<g id="a_node20"><a xlink:title=" ">
<polygon fill="white" stroke="#bfbfbf" points="874.49,-123.5 874.49,-142.5 915.49,-142.5 915.49,-123.5 874.49,-123.5"/>
<text text-anchor="middle" x="894.99" y="-130.5" font-family="Helvetica,sans-Serif" font-size="10.00">tuple</text>
</a>
</g>
</g>
<!-- Node17&#45;&gt;Node20 -->
<g id="edge29" class="edge">
<title>Node17&#45;&gt;Node20</title>
<path fill="none" stroke="midnightblue" d="M720.66,-179.43C755.68,-171.31 809.49,-158.45 864.52,-143.3"/>
<polygon fill="midnightblue" stroke="midnightblue" points="865.74,-146.59 874.44,-140.54 863.87,-139.85 865.74,-146.59"/>
</g>
<!-- Node21 -->
<g id="node21" class="node">
<title>Node21</title>
<g id="a_node21"><a xlink:title=" ">
<polygon fill="white" stroke="#bfbfbf" points="933.99,-123.5 933.99,-142.5 971.99,-142.5 971.99,-123.5 933.99,-123.5"/>
<text text-anchor="middle" x="952.99" y="-130.5" font-family="Helvetica,sans-Serif" font-size="10.00">map</text>
</a>
</g>
</g>
<!-- Node17&#45;&gt;Node21 -->
<g id="edge30" class="edge">
<title>Node17&#45;&gt;Node21</title>
<path fill="none" stroke="midnightblue" d="M740.15,-179.47C787.16,-171.99 855.64,-159.99 923.76,-143.06"/>
<polygon fill="midnightblue" stroke="midnightblue" points="924.96,-146.36 933.8,-140.52 923.25,-139.58 924.96,-146.36"/>
</g>
</g>
</svg>
