<?xml version="1.0" encoding="UTF-8" standalone="no"?>
<!DOCTYPE svg PUBLIC "-//W3C//DTD SVG 1.1//EN"
 "http://www.w3.org/Graphics/SVG/1.1/DTD/svg11.dtd">
<!-- Generated by graphviz version 2.43.0 (0)
 -->
<!-- Title: OMSimLogger.hh Pages: 1 -->
<svg width="1922pt" height="252pt"
 viewBox="0.00 0.00 1921.50 252.00" xmlns="http://www.w3.org/2000/svg" xmlns:xlink="http://www.w3.org/1999/xlink">
<g id="graph0" class="graph" transform="scale(1 1) rotate(0) translate(4 248)">
<title>OMSimLogger.hh</title>
<polygon fill="white" stroke="transparent" points="-4,4 -4,-248 1917.5,-248 1917.5,4 -4,4"/>
<!-- Node1 -->
<g id="node1" class="node">
<title>Node1</title>
<g id="a_node1"><a xlink:title=" ">
<polygon fill="#bfbfbf" stroke="black" points="1284,-224.5 1284,-243.5 1383,-243.5 1383,-224.5 1284,-224.5"/>
<text text-anchor="middle" x="1333.5" y="-231.5" font-family="Helvetica,sans-Serif" font-size="10.00">OMSimLogger.hh</text>
</a>
</g>
</g>
<!-- Node2 -->
<g id="node2" class="node">
<title>Node2</title>
<g id="a_node2"><a xlink:href="_o_m_sim_command_args_table_8hh.html" target="_top" xlink:title="Definition of the OMSimCommandArgsTable singleton class, which controls user args.">
<polygon fill="white" stroke="black" points="768.5,-168.5 768.5,-187.5 932.5,-187.5 932.5,-168.5 768.5,-168.5"/>
<text text-anchor="middle" x="850.5" y="-175.5" font-family="Helvetica,sans-Serif" font-size="10.00">OMSimCommandArgsTable.hh</text>
</a>
</g>
</g>
<!-- Node1&#45;&gt;Node2 -->
<g id="edge1" class="edge">
<title>Node1&#45;&gt;Node2</title>
<path fill="none" stroke="midnightblue" d="M1273.59,-226.3C1186.02,-216.51 1023.06,-198.29 926.95,-187.55"/>
<polygon fill="midnightblue" stroke="midnightblue" points="1273.3,-229.79 1283.63,-227.42 1274.08,-222.83 1273.3,-229.79"/>
</g>
<!-- Node14 -->
<g id="node14" class="node">
<title>Node14</title>
<g id="a_node14"><a xlink:href="_o_m_sim_m_d_o_m_8cc.html" target="_top" xlink:title="Construction of mDOM.">
<polygon fill="white" stroke="black" points="169.5,-112.5 169.5,-131.5 267.5,-131.5 267.5,-112.5 169.5,-112.5"/>
<text text-anchor="middle" x="218.5" y="-119.5" font-family="Helvetica,sans-Serif" font-size="10.00">OMSimMDOM.cc</text>
</a>
</g>
</g>
<!-- Node1&#45;&gt;Node14 -->
<g id="edge26" class="edge">
<title>Node1&#45;&gt;Node14</title>
<path fill="none" stroke="midnightblue" d="M1273.9,-229.07C1169.55,-222.01 947.01,-206.24 759.5,-188 544.85,-167.12 491.24,-160.71 277.5,-132 274.32,-131.57 271.04,-131.12 267.74,-130.65"/>
<polygon fill="midnightblue" stroke="midnightblue" points="1273.71,-232.56 1283.92,-229.74 1274.18,-225.58 1273.71,-232.56"/>
</g>
<!-- Node21 -->
<g id="node21" class="node">
<title>Node21</title>
<g id="a_node21"><a xlink:href="abc_detector_component_8cc.html" target="_top" xlink:title="Contains the implementation of the abcDetectorComponent class.">
<polygon fill="white" stroke="black" points="950.5,-168.5 950.5,-187.5 1096.5,-187.5 1096.5,-168.5 950.5,-168.5"/>
<text text-anchor="middle" x="1023.5" y="-175.5" font-family="Helvetica,sans-Serif" font-size="10.00">abcDetectorComponent.cc</text>
</a>
</g>
</g>
<!-- Node1&#45;&gt;Node21 -->
<g id="edge20" class="edge">
<title>Node1&#45;&gt;Node21</title>
<path fill="none" stroke="midnightblue" d="M1274.16,-222.66C1215.58,-212.46 1127.05,-197.04 1072.39,-187.52"/>
<polygon fill="midnightblue" stroke="midnightblue" points="1273.93,-226.18 1284.38,-224.44 1275.13,-219.28 1273.93,-226.18"/>
</g>
<!-- Node22 -->
<g id="node22" class="node">
<title>Node22</title>
<g id="a_node22"><a xlink:href="_o_m_sim_data_file_types_8cc.html" target="_top" xlink:title="Collection of classes and methods to handle material creation from user data in json files.">
<polygon fill="white" stroke="black" points="1114.5,-168.5 1114.5,-187.5 1248.5,-187.5 1248.5,-168.5 1114.5,-168.5"/>
<text text-anchor="middle" x="1181.5" y="-175.5" font-family="Helvetica,sans-Serif" font-size="10.00">OMSimDataFileTypes.cc</text>
</a>
</g>
</g>
<!-- Node1&#45;&gt;Node22 -->
<g id="edge21" class="edge">
<title>Node1&#45;&gt;Node22</title>
<path fill="none" stroke="midnightblue" d="M1299.83,-221.04C1271.23,-210.88 1230.89,-196.55 1205.47,-187.52"/>
<polygon fill="midnightblue" stroke="midnightblue" points="1298.82,-224.39 1309.42,-224.44 1301.16,-217.8 1298.82,-224.39"/>
</g>
<!-- Node23 -->
<g id="node23" class="node">
<title>Node23</title>
<g id="a_node23"><a xlink:href="_o_m_sim_p_m_t_response_8cc.html" target="_top" xlink:title="PMT response simulator.">
<polygon fill="white" stroke="black" points="1266.5,-168.5 1266.5,-187.5 1400.5,-187.5 1400.5,-168.5 1266.5,-168.5"/>
<text text-anchor="middle" x="1333.5" y="-175.5" font-family="Helvetica,sans-Serif" font-size="10.00">OMSimPMTResponse.cc</text>
</a>
</g>
</g>
<!-- Node1&#45;&gt;Node23 -->
<g id="edge22" class="edge">
<title>Node1&#45;&gt;Node23</title>
<path fill="none" stroke="midnightblue" d="M1333.5,-213.8C1333.5,-204.91 1333.5,-194.78 1333.5,-187.75"/>
<polygon fill="midnightblue" stroke="midnightblue" points="1330,-214.08 1333.5,-224.08 1337,-214.08 1330,-214.08"/>
</g>
<!-- Node24 -->
<g id="node24" class="node">
<title>Node24</title>
<g id="a_node24"><a xlink:href="_o_m_sim_d_e_g_g_8cc.html" target="_top" xlink:title="Construction of the DEGG class.">
<polygon fill="white" stroke="black" points="1418.5,-168.5 1418.5,-187.5 1512.5,-187.5 1512.5,-168.5 1418.5,-168.5"/>
<text text-anchor="middle" x="1465.5" y="-175.5" font-family="Helvetica,sans-Serif" font-size="10.00">OMSimDEGG.cc</text>
</a>
</g>
</g>
<!-- Node1&#45;&gt;Node24 -->
<g id="edge23" class="edge">
<title>Node1&#45;&gt;Node24</title>
<path fill="none" stroke="midnightblue" d="M1363.72,-220.64C1388.49,-210.5 1422.9,-196.43 1444.68,-187.52"/>
<polygon fill="midnightblue" stroke="midnightblue" points="1362.35,-217.42 1354.42,-224.44 1365,-223.9 1362.35,-217.42"/>
</g>
<!-- Node25 -->
<g id="node25" class="node">
<title>Node25</title>
<g id="a_node25"><a xlink:href="_o_m_sim_l_o_m16_8cc.html" target="_top" xlink:title="Construction of LOM16.">
<polygon fill="white" stroke="black" points="1531,-168.5 1531,-187.5 1630,-187.5 1630,-168.5 1531,-168.5"/>
<text text-anchor="middle" x="1580.5" y="-175.5" font-family="Helvetica,sans-Serif" font-size="10.00">OMSimLOM16.cc</text>
</a>
</g>
</g>
<!-- Node1&#45;&gt;Node25 -->
<g id="edge24" class="edge">
<title>Node1&#45;&gt;Node25</title>
<path fill="none" stroke="midnightblue" d="M1382.53,-222.28C1429.2,-212.08 1498.53,-196.92 1541.55,-187.52"/>
<polygon fill="midnightblue" stroke="midnightblue" points="1381.66,-218.89 1372.64,-224.44 1383.15,-225.73 1381.66,-218.89"/>
</g>
<!-- Node26 -->
<g id="node26" class="node">
<title>Node26</title>
<g id="a_node26"><a xlink:href="_o_m_sim_l_o_m18_8cc.html" target="_top" xlink:title="Construction of LOM18.">
<polygon fill="white" stroke="black" points="1648,-168.5 1648,-187.5 1747,-187.5 1747,-168.5 1648,-168.5"/>
<text text-anchor="middle" x="1697.5" y="-175.5" font-family="Helvetica,sans-Serif" font-size="10.00">OMSimLOM18.cc</text>
</a>
</g>
</g>
<!-- Node1&#45;&gt;Node26 -->
<g id="edge25" class="edge">
<title>Node1&#45;&gt;Node26</title>
<path fill="none" stroke="midnightblue" d="M1393.02,-224.39C1454.69,-215.43 1553.87,-200.94 1639.5,-188 1642.22,-187.59 1645.01,-187.16 1647.83,-186.73"/>
<polygon fill="midnightblue" stroke="midnightblue" points="1392.47,-220.93 1383.07,-225.83 1393.47,-227.86 1392.47,-220.93"/>
</g>
<!-- Node27 -->
<g id="node27" class="node">
<title>Node27</title>
<g id="a_node27"><a xlink:href="_o_m_sim_p_d_o_m_8cc.html" target="_top" xlink:title="Implementation of the pDOM/Gen1 DOM class.">
<polygon fill="white" stroke="black" points="1765,-168.5 1765,-187.5 1860,-187.5 1860,-168.5 1765,-168.5"/>
<text text-anchor="middle" x="1812.5" y="-175.5" font-family="Helvetica,sans-Serif" font-size="10.00">OMSimPDOM.cc</text>
</a>
</g>
</g>
<!-- Node1&#45;&gt;Node27 -->
<g id="edge27" class="edge">
<title>Node1&#45;&gt;Node27</title>
<path fill="none" stroke="midnightblue" d="M1393.23,-227.66C1475.26,-220.09 1627.33,-205.24 1756.5,-188 1759.23,-187.64 1762.04,-187.24 1764.87,-186.83"/>
<polygon fill="midnightblue" stroke="midnightblue" points="1392.73,-224.19 1383.1,-228.59 1393.37,-231.16 1392.73,-224.19"/>
</g>
<!-- Node3 -->
<g id="node3" class="node">
<title>Node3</title>
<g id="a_node3"><a xlink:href="_o_m_sim_u_iinterface_8hh.html" target="_top" xlink:title="The OMSimUIinterface class provides a singleton interface to Geant4&#39;s UI manager.">
<polygon fill="white" stroke="black" points="286,-112.5 286,-131.5 407,-131.5 407,-112.5 286,-112.5"/>
<text text-anchor="middle" x="346.5" y="-119.5" font-family="Helvetica,sans-Serif" font-size="10.00">OMSimUIinterface.hh</text>
</a>
</g>
</g>
<!-- Node2&#45;&gt;Node3 -->
<g id="edge2" class="edge">
<title>Node2&#45;&gt;Node3</title>
<path fill="none" stroke="midnightblue" d="M758.23,-168.1C670.32,-159.46 534.3,-145.68 416.5,-132 413.46,-131.65 410.34,-131.28 407.2,-130.9"/>
<polygon fill="midnightblue" stroke="midnightblue" points="758.15,-171.6 768.44,-169.1 758.83,-164.64 758.15,-171.6"/>
</g>
<!-- Node11 -->
<g id="node11" class="node">
<title>Node11</title>
<g id="a_node11"><a xlink:href="_o_m_sim_hit_manager_8cc.html" target="_top" xlink:title=" ">
<polygon fill="white" stroke="black" points="425.5,-112.5 425.5,-131.5 547.5,-131.5 547.5,-112.5 425.5,-112.5"/>
<text text-anchor="middle" x="486.5" y="-119.5" font-family="Helvetica,sans-Serif" font-size="10.00">OMSimHitManager.cc</text>
</a>
</g>
</g>
<!-- Node2&#45;&gt;Node11 -->
<g id="edge10" class="edge">
<title>Node2&#45;&gt;Node11</title>
<path fill="none" stroke="midnightblue" d="M782.53,-166.92C713.76,-156.71 608.63,-141.12 543.91,-131.52"/>
<polygon fill="midnightblue" stroke="midnightblue" points="782.42,-170.44 792.82,-168.44 783.45,-163.51 782.42,-170.44"/>
</g>
<!-- Node12 -->
<g id="node12" class="node">
<title>Node12</title>
<g id="a_node12"><a xlink:href="_o_m_sim_input_data_8cc.html" target="_top" xlink:title="Input data from external files are read and saved to memory.">
<polygon fill="white" stroke="black" points="566,-112.5 566,-131.5 679,-131.5 679,-112.5 566,-112.5"/>
<text text-anchor="middle" x="622.5" y="-119.5" font-family="Helvetica,sans-Serif" font-size="10.00">OMSimInputData.cc</text>
</a>
</g>
</g>
<!-- Node2&#45;&gt;Node12 -->
<g id="edge11" class="edge">
<title>Node2&#45;&gt;Node12</title>
<path fill="none" stroke="midnightblue" d="M804.43,-166.09C761.35,-155.89 697.91,-140.86 658.46,-131.52"/>
<polygon fill="midnightblue" stroke="midnightblue" points="803.84,-169.54 814.37,-168.44 805.45,-162.73 803.84,-169.54"/>
</g>
<!-- Node13 -->
<g id="node13" class="node">
<title>Node13</title>
<g id="a_node13"><a xlink:href="_o_m_sim_p_m_t_construction_8cc.html" target="_top" xlink:title="Construction of the PMTs.">
<polygon fill="white" stroke="black" points="697,-112.5 697,-131.5 844,-131.5 844,-112.5 697,-112.5"/>
<text text-anchor="middle" x="770.5" y="-119.5" font-family="Helvetica,sans-Serif" font-size="10.00">OMSimPMTConstruction.cc</text>
</a>
</g>
</g>
<!-- Node2&#45;&gt;Node13 -->
<g id="edge12" class="edge">
<title>Node2&#45;&gt;Node13</title>
<path fill="none" stroke="midnightblue" d="M829.2,-162.62C814.58,-152.76 795.67,-139.99 783.32,-131.65"/>
<polygon fill="midnightblue" stroke="midnightblue" points="827.4,-165.63 837.65,-168.32 831.32,-159.83 827.4,-165.63"/>
</g>
<!-- Node2&#45;&gt;Node14 -->
<g id="edge13" class="edge">
<title>Node2&#45;&gt;Node14</title>
<path fill="none" stroke="midnightblue" d="M758.21,-171.83C644.8,-165 446.61,-151.51 277.5,-132 274.31,-131.63 271.03,-131.22 267.72,-130.78"/>
<polygon fill="midnightblue" stroke="midnightblue" points="758.05,-175.33 768.24,-172.43 758.47,-168.34 758.05,-175.33"/>
</g>
<!-- Node15 -->
<g id="node15" class="node">
<title>Node15</title>
<g id="a_node15"><a xlink:href="_o_m_sim_m_d_o_m_harness_8cc.html" target="_top" xlink:title="Construction of mDOM harness.">
<polygon fill="white" stroke="black" points="862.5,-112.5 862.5,-131.5 1000.5,-131.5 1000.5,-112.5 862.5,-112.5"/>
<text text-anchor="middle" x="931.5" y="-119.5" font-family="Helvetica,sans-Serif" font-size="10.00">OMSimMDOMHarness.cc</text>
</a>
</g>
</g>
<!-- Node2&#45;&gt;Node15 -->
<g id="edge14" class="edge">
<title>Node2&#45;&gt;Node15</title>
<path fill="none" stroke="midnightblue" d="M872.07,-162.62C886.86,-152.76 906.01,-139.99 918.52,-131.65"/>
<polygon fill="midnightblue" stroke="midnightblue" points="869.89,-159.86 863.51,-168.32 873.78,-165.69 869.89,-159.86"/>
</g>
<!-- Node16 -->
<g id="node16" class="node">
<title>Node16</title>
<g id="a_node16"><a xlink:href="effective__area_2src_2_o_m_sim_detector_construction_8cc.html" target="_top" xlink:title=" ">
<polygon fill="white" stroke="black" points="1019,-112.5 1019,-131.5 1188,-131.5 1188,-112.5 1019,-112.5"/>
<text text-anchor="middle" x="1103.5" y="-119.5" font-family="Helvetica,sans-Serif" font-size="10.00">OMSimDetectorConstruction.cc</text>
</a>
</g>
</g>
<!-- Node2&#45;&gt;Node16 -->
<g id="edge15" class="edge">
<title>Node2&#45;&gt;Node16</title>
<path fill="none" stroke="midnightblue" d="M900.42,-166.35C948.23,-156.14 1019.45,-140.94 1063.6,-131.52"/>
<polygon fill="midnightblue" stroke="midnightblue" points="899.64,-162.93 890.59,-168.44 901.1,-169.78 899.64,-162.93"/>
</g>
<!-- Node17 -->
<g id="node17" class="node">
<title>Node17</title>
<g id="a_node17"><a xlink:href="_o_m_sim_effective_area_analyisis_8cc.html" target="_top" xlink:title=" ">
<polygon fill="white" stroke="black" points="1206,-112.5 1206,-131.5 1381,-131.5 1381,-112.5 1206,-112.5"/>
<text text-anchor="middle" x="1293.5" y="-119.5" font-family="Helvetica,sans-Serif" font-size="10.00">OMSimEffectiveAreaAnalyisis.cc</text>
</a>
</g>
</g>
<!-- Node2&#45;&gt;Node17 -->
<g id="edge16" class="edge">
<title>Node2&#45;&gt;Node17</title>
<path fill="none" stroke="midnightblue" d="M930.66,-167.23C1014.28,-157.04 1144.06,-141.22 1223.63,-131.52"/>
<polygon fill="midnightblue" stroke="midnightblue" points="930.2,-163.76 920.69,-168.44 931.04,-170.71 930.2,-163.76"/>
</g>
<!-- Node18 -->
<g id="node18" class="node">
<title>Node18</title>
<g id="a_node18"><a xlink:href="_o_m_sim_decays_analysis_8cc.html" target="_top" xlink:title=" ">
<polygon fill="white" stroke="black" points="1399,-112.5 1399,-131.5 1542,-131.5 1542,-112.5 1399,-112.5"/>
<text text-anchor="middle" x="1470.5" y="-119.5" font-family="Helvetica,sans-Serif" font-size="10.00">OMSimDecaysAnalysis.cc</text>
</a>
</g>
</g>
<!-- Node2&#45;&gt;Node18 -->
<g id="edge17" class="edge">
<title>Node2&#45;&gt;Node18</title>
<path fill="none" stroke="midnightblue" d="M943.07,-167.88C1142.61,-150.18 1194.53,-150.87 1390.5,-132 1393.28,-131.73 1396.12,-131.45 1398.98,-131.16"/>
<polygon fill="midnightblue" stroke="midnightblue" points="942.48,-164.41 932.83,-168.79 943.1,-171.39 942.48,-164.41"/>
</g>
<!-- Node19 -->
<g id="node19" class="node">
<title>Node19</title>
<g id="a_node19"><a xlink:href="radioactive__decays_2src_2_o_m_sim_detector_construction_8cc.html" target="_top" xlink:title=" ">
<polygon fill="white" stroke="black" points="1560,-112.5 1560,-131.5 1729,-131.5 1729,-112.5 1560,-112.5"/>
<text text-anchor="middle" x="1644.5" y="-119.5" font-family="Helvetica,sans-Serif" font-size="10.00">OMSimDetectorConstruction.cc</text>
</a>
</g>
</g>
<!-- Node2&#45;&gt;Node19 -->
<g id="edge18" class="edge">
<title>Node2&#45;&gt;Node19</title>
<path fill="none" stroke="midnightblue" d="M942.97,-167.91C1213.94,-146.78 1284.04,-152.83 1551.5,-132 1554.25,-131.79 1557.04,-131.56 1559.86,-131.33"/>
<polygon fill="midnightblue" stroke="midnightblue" points="942.52,-164.44 932.83,-168.71 943.07,-171.42 942.52,-164.44"/>
</g>
<!-- Node20 -->
<g id="node20" class="node">
<title>Node20</title>
<g id="a_node20"><a xlink:href="_o_m_sim_g4_radioactive_decay_8cc.html" target="_top" xlink:title=" ">
<polygon fill="white" stroke="black" points="1747.5,-112.5 1747.5,-131.5 1913.5,-131.5 1913.5,-112.5 1747.5,-112.5"/>
<text text-anchor="middle" x="1830.5" y="-119.5" font-family="Helvetica,sans-Serif" font-size="10.00">OMSimG4RadioactiveDecay.cc</text>
</a>
</g>
</g>
<!-- Node2&#45;&gt;Node20 -->
<g id="edge19" class="edge">
<title>Node2&#45;&gt;Node20</title>
<path fill="none" stroke="midnightblue" d="M942.84,-167.94C1296.85,-142.81 1388.1,-157.04 1738.5,-132 1741.38,-131.79 1744.31,-131.57 1747.27,-131.34"/>
<polygon fill="midnightblue" stroke="midnightblue" points="942.55,-164.45 932.82,-168.66 943.05,-171.44 942.55,-164.45"/>
</g>
<!-- Node4 -->
<g id="node4" class="node">
<title>Node4</title>
<g id="a_node4"><a xlink:href="_o_m_sim_8hh.html" target="_top" xlink:title="Main simulation class for the Optical Module (OM) simulation.">
<polygon fill="white" stroke="black" points="120,-56.5 120,-75.5 187,-75.5 187,-56.5 120,-56.5"/>
<text text-anchor="middle" x="153.5" y="-63.5" font-family="Helvetica,sans-Serif" font-size="10.00">OMSim.hh</text>
</a>
</g>
</g>
<!-- Node3&#45;&gt;Node4 -->
<g id="edge3" class="edge">
<title>Node3&#45;&gt;Node4</title>
<path fill="none" stroke="midnightblue" d="M306.11,-109.7C269.68,-99.51 216.91,-84.74 183.94,-75.52"/>
<polygon fill="midnightblue" stroke="midnightblue" points="305.35,-113.12 315.92,-112.44 307.23,-106.38 305.35,-113.12"/>
</g>
<!-- Node8 -->
<g id="node8" class="node">
<title>Node8</title>
<g id="a_node8"><a xlink:href="_o_m_sim_m_d_o_m_flasher_8cc.html" target="_top" xlink:title=" ">
<polygon fill="white" stroke="black" points="205.5,-56.5 205.5,-75.5 339.5,-75.5 339.5,-56.5 205.5,-56.5"/>
<text text-anchor="middle" x="272.5" y="-63.5" font-family="Helvetica,sans-Serif" font-size="10.00">OMSimMDOMFlasher.cc</text>
</a>
</g>
</g>
<!-- Node3&#45;&gt;Node8 -->
<g id="edge7" class="edge">
<title>Node3&#45;&gt;Node8</title>
<path fill="none" stroke="midnightblue" d="M326.47,-106.38C313.09,-96.62 295.94,-84.11 284.61,-75.83"/>
<polygon fill="midnightblue" stroke="midnightblue" points="324.47,-109.26 334.61,-112.32 328.6,-103.6 324.47,-109.26"/>
</g>
<!-- Node9 -->
<g id="node9" class="node">
<title>Node9</title>
<g id="a_node9"><a xlink:href="_o_m_sim_angular_scan_8cc.html" target="_top" xlink:title=" ">
<polygon fill="white" stroke="black" points="357.5,-56.5 357.5,-75.5 483.5,-75.5 483.5,-56.5 357.5,-56.5"/>
<text text-anchor="middle" x="420.5" y="-63.5" font-family="Helvetica,sans-Serif" font-size="10.00">OMSimAngularScan.cc</text>
</a>
</g>
</g>
<!-- Node3&#45;&gt;Node9 -->
<g id="edge8" class="edge">
<title>Node3&#45;&gt;Node9</title>
<path fill="none" stroke="midnightblue" d="M366.53,-106.38C379.91,-96.62 397.06,-84.11 408.39,-75.83"/>
<polygon fill="midnightblue" stroke="midnightblue" points="364.4,-103.6 358.39,-112.32 368.53,-109.26 364.4,-103.6"/>
</g>
<!-- Node10 -->
<g id="node10" class="node">
<title>Node10</title>
<g id="a_node10"><a xlink:href="_o_m_sim_decays_g_p_s_8cc.html" target="_top" xlink:title=" ">
<polygon fill="white" stroke="black" points="502,-56.5 502,-75.5 623,-75.5 623,-56.5 502,-56.5"/>
<text text-anchor="middle" x="562.5" y="-63.5" font-family="Helvetica,sans-Serif" font-size="10.00">OMSimDecaysGPS.cc</text>
</a>
</g>
</g>
<!-- Node3&#45;&gt;Node10 -->
<g id="edge9" class="edge">
<title>Node3&#45;&gt;Node10</title>
<path fill="none" stroke="midnightblue" d="M390.66,-109.96C431.46,-99.76 491.21,-84.82 528.43,-75.52"/>
<polygon fill="midnightblue" stroke="midnightblue" points="389.58,-106.62 380.73,-112.44 391.28,-113.41 389.58,-106.62"/>
</g>
<!-- Node5 -->
<g id="node5" class="node">
<title>Node5</title>
<g id="a_node5"><a xlink:href="_o_m_sim_8cc.html" target="_top" xlink:title=" ">
<polygon fill="white" stroke="black" points="0,-0.5 0,-19.5 65,-19.5 65,-0.5 0,-0.5"/>
<text text-anchor="middle" x="32.5" y="-7.5" font-family="Helvetica,sans-Serif" font-size="10.00">OMSim.cc</text>
</a>
</g>
</g>
<!-- Node4&#45;&gt;Node5 -->
<g id="edge4" class="edge">
<title>Node4&#45;&gt;Node5</title>
<path fill="none" stroke="midnightblue" d="M125.19,-52.37C102.53,-42.26 71.37,-28.35 51.58,-19.52"/>
<polygon fill="midnightblue" stroke="midnightblue" points="123.77,-55.56 134.33,-56.44 126.62,-49.17 123.77,-55.56"/>
</g>
<!-- Node6 -->
<g id="node6" class="node">
<title>Node6</title>
<g id="a_node6"><a xlink:href="_o_m_sim__effective__area_8cc.html" target="_top" xlink:title="Main for the calculation of effective areas.">
<polygon fill="white" stroke="black" points="83.5,-0.5 83.5,-19.5 223.5,-19.5 223.5,-0.5 83.5,-0.5"/>
<text text-anchor="middle" x="153.5" y="-7.5" font-family="Helvetica,sans-Serif" font-size="10.00">OMSim_effective_area.cc</text>
</a>
</g>
</g>
<!-- Node4&#45;&gt;Node6 -->
<g id="edge5" class="edge">
<title>Node4&#45;&gt;Node6</title>
<path fill="none" stroke="midnightblue" d="M153.5,-45.8C153.5,-36.91 153.5,-26.78 153.5,-19.75"/>
<polygon fill="midnightblue" stroke="midnightblue" points="150,-46.08 153.5,-56.08 157,-46.08 150,-46.08"/>
</g>
<!-- Node7 -->
<g id="node7" class="node">
<title>Node7</title>
<g id="a_node7"><a xlink:href="_o_m_sim__radioactive__decays_8cc.html" target="_top" xlink:title=" ">
<polygon fill="white" stroke="black" points="242,-0.5 242,-19.5 407,-19.5 407,-0.5 242,-0.5"/>
<text text-anchor="middle" x="324.5" y="-7.5" font-family="Helvetica,sans-Serif" font-size="10.00">OMSim_radioactive_decays.cc</text>
</a>
</g>
</g>
<!-- Node4&#45;&gt;Node7 -->
<g id="edge6" class="edge">
<title>Node4&#45;&gt;Node7</title>
<path fill="none" stroke="midnightblue" d="M190.54,-53.3C222.76,-43.13 268.69,-28.62 297.53,-19.52"/>
<polygon fill="midnightblue" stroke="midnightblue" points="189.08,-50.09 180.6,-56.44 191.19,-56.77 189.08,-50.09"/>
</g>
</g>
</svg>
