<?xml version="1.0" encoding="UTF-8" standalone="no"?>
<!DOCTYPE svg PUBLIC "-//W3C//DTD SVG 1.1//EN"
 "http://www.w3.org/Graphics/SVG/1.1/DTD/svg11.dtd">
<!-- Generated by graphviz version 2.43.0 (0)
 -->
<!-- Title: OMSimTrackingAction.cc Pages: 1 -->
<svg width="2041pt" height="196pt"
 viewBox="0.00 0.00 2040.50 196.00" xmlns="http://www.w3.org/2000/svg" xmlns:xlink="http://www.w3.org/1999/xlink">
<g id="graph0" class="graph" transform="scale(1 1) rotate(0) translate(4 192)">
<title>OMSimTrackingAction.cc</title>
<polygon fill="white" stroke="transparent" points="-4,4 -4,-192 2036.5,-192 2036.5,4 -4,4"/>
<!-- Node1 -->
<g id="node1" class="node">
<title>Node1</title>
<g id="a_node1"><a xlink:title=" ">
<polygon fill="#bfbfbf" stroke="black" points="1087.5,-168.5 1087.5,-187.5 1224.5,-187.5 1224.5,-168.5 1087.5,-168.5"/>
<text text-anchor="middle" x="1156" y="-175.5" font-family="Helvetica,sans-Serif" font-size="10.00">OMSimTrackingAction.cc</text>
</a>
</g>
</g>
<!-- Node2 -->
<g id="node2" class="node">
<title>Node2</title>
<g id="a_node2"><a xlink:href="_o_m_sim_event_action_8hh.html" target="_top" xlink:title=" ">
<polygon fill="white" stroke="black" points="62.5,-112.5 62.5,-131.5 187.5,-131.5 187.5,-112.5 62.5,-112.5"/>
<text text-anchor="middle" x="125" y="-119.5" font-family="Helvetica,sans-Serif" font-size="10.00">OMSimEventAction.hh</text>
</a>
</g>
</g>
<!-- Node1&#45;&gt;Node2 -->
<g id="edge1" class="edge">
<title>Node1&#45;&gt;Node2</title>
<path fill="none" stroke="midnightblue" d="M1087.38,-174.29C935.04,-168.13 557.07,-152.03 241,-132 227.05,-131.12 212.16,-130.05 197.87,-128.97"/>
<polygon fill="midnightblue" stroke="midnightblue" points="197.83,-125.46 187.59,-128.18 197.29,-132.44 197.83,-125.46"/>
</g>
<!-- Node5 -->
<g id="node5" class="node">
<title>Node5</title>
<g id="a_node5"><a xlink:href="_o_m_sim_tracking_action_8hh.html" target="_top" xlink:title=" ">
<polygon fill="white" stroke="black" points="250,-112.5 250,-131.5 388,-131.5 388,-112.5 250,-112.5"/>
<text text-anchor="middle" x="319" y="-119.5" font-family="Helvetica,sans-Serif" font-size="10.00">OMSimTrackingAction.hh</text>
</a>
</g>
</g>
<!-- Node1&#45;&gt;Node5 -->
<g id="edge4" class="edge">
<title>Node1&#45;&gt;Node5</title>
<path fill="none" stroke="midnightblue" d="M1087.36,-172.95C959.82,-165.36 677.64,-148.31 440,-132 426.47,-131.07 412.1,-130.04 398.15,-129.02"/>
<polygon fill="midnightblue" stroke="midnightblue" points="398.33,-125.52 388.1,-128.28 397.81,-132.5 398.33,-125.52"/>
</g>
<!-- Node7 -->
<g id="node7" class="node">
<title>Node7</title>
<g id="a_node7"><a xlink:href="_o_m_sim_run_action_8hh.html" target="_top" xlink:title=" ">
<polygon fill="white" stroke="black" points="449,-112.5 449,-131.5 565,-131.5 565,-112.5 449,-112.5"/>
<text text-anchor="middle" x="507" y="-119.5" font-family="Helvetica,sans-Serif" font-size="10.00">OMSimRunAction.hh</text>
</a>
</g>
</g>
<!-- Node1&#45;&gt;Node7 -->
<g id="edge6" class="edge">
<title>Node1&#45;&gt;Node7</title>
<path fill="none" stroke="midnightblue" d="M1087.47,-171.3C962.76,-160.92 700.12,-139.07 575.46,-128.7"/>
<polygon fill="midnightblue" stroke="midnightblue" points="575.54,-125.19 565.28,-127.85 574.96,-132.17 575.54,-125.19"/>
</g>
<!-- Node10 -->
<g id="node10" class="node">
<title>Node10</title>
<g id="a_node10"><a xlink:href="_o_m_sim_analysis_manager_8hh.html" target="_top" xlink:title=" ">
<polygon fill="white" stroke="black" points="778,-112.5 778,-131.5 928,-131.5 928,-112.5 778,-112.5"/>
<text text-anchor="middle" x="853" y="-119.5" font-family="Helvetica,sans-Serif" font-size="10.00">OMSimAnalysisManager.hh</text>
</a>
</g>
</g>
<!-- Node1&#45;&gt;Node10 -->
<g id="edge9" class="edge">
<title>Node1&#45;&gt;Node10</title>
<path fill="none" stroke="midnightblue" d="M1107.99,-168.44C1054.47,-158.9 967.93,-143.48 910.76,-133.29"/>
<polygon fill="midnightblue" stroke="midnightblue" points="911.25,-129.83 900.79,-131.52 910.02,-136.72 911.25,-129.83"/>
</g>
<!-- Node13 -->
<g id="node13" class="node">
<title>Node13</title>
<g id="a_node13"><a xlink:title=" ">
<polygon fill="white" stroke="#bfbfbf" points="583.5,-56.5 583.5,-75.5 686.5,-75.5 686.5,-56.5 583.5,-56.5"/>
<text text-anchor="middle" x="635" y="-63.5" font-family="Helvetica,sans-Serif" font-size="10.00">G4ThreeVector.hh</text>
</a>
</g>
</g>
<!-- Node1&#45;&gt;Node13 -->
<g id="edge25" class="edge">
<title>Node1&#45;&gt;Node13</title>
<path fill="none" stroke="midnightblue" d="M1087.17,-175.92C1008.7,-173.11 877.28,-163.57 769,-132 727.66,-119.95 683.39,-96.07 657.51,-80.85"/>
<polygon fill="midnightblue" stroke="midnightblue" points="659.22,-77.79 648.84,-75.67 655.63,-83.8 659.22,-77.79"/>
</g>
<!-- Node14 -->
<g id="node14" class="node">
<title>Node14</title>
<g id="a_node14"><a xlink:href="_o_m_sim_p_m_t_response_8hh.html" target="_top" xlink:title=" ">
<polygon fill="white" stroke="black" points="973.5,-56.5 973.5,-75.5 1108.5,-75.5 1108.5,-56.5 973.5,-56.5"/>
<text text-anchor="middle" x="1041" y="-63.5" font-family="Helvetica,sans-Serif" font-size="10.00">OMSimPMTResponse.hh</text>
</a>
</g>
</g>
<!-- Node1&#45;&gt;Node14 -->
<g id="edge27" class="edge">
<title>Node1&#45;&gt;Node14</title>
<path fill="none" stroke="midnightblue" d="M1146.98,-168.37C1127.66,-149.89 1082.08,-106.29 1057.46,-82.74"/>
<polygon fill="midnightblue" stroke="midnightblue" points="1059.63,-79.97 1049.98,-75.59 1054.79,-85.03 1059.63,-79.97"/>
</g>
<!-- Node15 -->
<g id="node15" class="node">
<title>Node15</title>
<g id="a_node15"><a xlink:title=" ">
<polygon fill="white" stroke="#bfbfbf" points="1115.5,-0.5 1115.5,-19.5 1234.5,-19.5 1234.5,-0.5 1115.5,-0.5"/>
<text text-anchor="middle" x="1175" y="-7.5" font-family="Helvetica,sans-Serif" font-size="10.00">G4SystemOfUnits.hh</text>
</a>
</g>
</g>
<!-- Node1&#45;&gt;Node15 -->
<g id="edge26" class="edge">
<title>Node1&#45;&gt;Node15</title>
<path fill="none" stroke="midnightblue" d="M1155.59,-168.41C1154.82,-148.49 1153.79,-97.64 1161,-56 1162.55,-47.03 1165.4,-37.36 1168.12,-29.29"/>
<polygon fill="midnightblue" stroke="midnightblue" points="1171.45,-30.39 1171.51,-19.8 1164.85,-28.04 1171.45,-30.39"/>
</g>
<!-- Node18 -->
<g id="node18" class="node">
<title>Node18</title>
<g id="a_node18"><a xlink:title=" ">
<polygon fill="white" stroke="#bfbfbf" points="1252.5,-0.5 1252.5,-19.5 1313.5,-19.5 1313.5,-0.5 1252.5,-0.5"/>
<text text-anchor="middle" x="1283" y="-7.5" font-family="Helvetica,sans-Serif" font-size="10.00">TGraph.h</text>
</a>
</g>
</g>
<!-- Node1&#45;&gt;Node18 -->
<g id="edge28" class="edge">
<title>Node1&#45;&gt;Node18</title>
<path fill="none" stroke="midnightblue" d="M1160.42,-168.26C1167.03,-155.46 1180.22,-131.07 1194,-112 1217.11,-80.01 1248.46,-46.27 1267.12,-27.02"/>
<polygon fill="midnightblue" stroke="midnightblue" points="1269.79,-29.29 1274.28,-19.7 1264.79,-24.4 1269.79,-29.29"/>
</g>
<!-- Node23 -->
<g id="node23" class="node">
<title>Node23</title>
<g id="a_node23"><a xlink:title=" ">
<polygon fill="white" stroke="#bfbfbf" points="1203,-112.5 1203,-131.5 1331,-131.5 1331,-112.5 1203,-112.5"/>
<text text-anchor="middle" x="1267" y="-119.5" font-family="Helvetica,sans-Serif" font-size="10.00">G4TrackingManager.hh</text>
</a>
</g>
</g>
<!-- Node1&#45;&gt;Node23 -->
<g id="edge23" class="edge">
<title>Node1&#45;&gt;Node23</title>
<path fill="none" stroke="midnightblue" d="M1173.83,-168.32C1191.72,-159.62 1219.48,-146.12 1240.05,-136.11"/>
<polygon fill="midnightblue" stroke="midnightblue" points="1241.75,-139.18 1249.21,-131.65 1238.69,-132.88 1241.75,-139.18"/>
</g>
<!-- Node24 -->
<g id="node24" class="node">
<title>Node24</title>
<g id="a_node24"><a xlink:title=" ">
<polygon fill="white" stroke="#bfbfbf" points="1349.5,-112.5 1349.5,-131.5 1420.5,-131.5 1420.5,-112.5 1349.5,-112.5"/>
<text text-anchor="middle" x="1385" y="-119.5" font-family="Helvetica,sans-Serif" font-size="10.00">G4Track.hh</text>
</a>
</g>
</g>
<!-- Node1&#45;&gt;Node24 -->
<g id="edge24" class="edge">
<title>Node1&#45;&gt;Node24</title>
<path fill="none" stroke="midnightblue" d="M1192.29,-168.44C1232.1,-159.06 1296.08,-143.97 1339.29,-133.78"/>
<polygon fill="midnightblue" stroke="midnightblue" points="1340.33,-137.13 1349.26,-131.43 1338.72,-130.32 1340.33,-137.13"/>
</g>
<!-- Node25 -->
<g id="node25" class="node">
<title>Node25</title>
<g id="a_node25"><a xlink:title=" ">
<polygon fill="white" stroke="#bfbfbf" points="1439,-112.5 1439,-131.5 1525,-131.5 1525,-112.5 1439,-112.5"/>
<text text-anchor="middle" x="1482" y="-119.5" font-family="Helvetica,sans-Serif" font-size="10.00">G4Material.hh</text>
</a>
</g>
</g>
<!-- Node1&#45;&gt;Node25 -->
<g id="edge29" class="edge">
<title>Node1&#45;&gt;Node25</title>
<path fill="none" stroke="midnightblue" d="M1208.81,-168.47C1261.84,-159.86 1346.2,-146.1 1428.81,-132.19"/>
<polygon fill="midnightblue" stroke="midnightblue" points="1429.6,-135.61 1438.87,-130.49 1428.43,-128.7 1429.6,-135.61"/>
</g>
<!-- Node26 -->
<g id="node26" class="node">
<title>Node26</title>
<g id="a_node26"><a xlink:title=" ">
<polygon fill="white" stroke="#bfbfbf" points="1543.5,-112.5 1543.5,-131.5 1704.5,-131.5 1704.5,-112.5 1543.5,-112.5"/>
<text text-anchor="middle" x="1624" y="-119.5" font-family="Helvetica,sans-Serif" font-size="10.00">G4MaterialPropertiesTable.hh</text>
</a>
</g>
</g>
<!-- Node1&#45;&gt;Node26 -->
<g id="edge30" class="edge">
<title>Node1&#45;&gt;Node26</title>
<path fill="none" stroke="midnightblue" d="M1224.55,-169.09C1308.28,-159.43 1449.88,-143.09 1540.05,-132.69"/>
<polygon fill="midnightblue" stroke="midnightblue" points="1540.71,-136.13 1550.24,-131.51 1539.91,-129.18 1540.71,-136.13"/>
</g>
<!-- Node27 -->
<g id="node27" class="node">
<title>Node27</title>
<g id="a_node27"><a xlink:title=" ">
<polygon fill="white" stroke="#bfbfbf" points="1722.5,-112.5 1722.5,-131.5 1857.5,-131.5 1857.5,-112.5 1722.5,-112.5"/>
<text text-anchor="middle" x="1790" y="-119.5" font-family="Helvetica,sans-Serif" font-size="10.00">G4OpticalParameters.hh</text>
</a>
</g>
</g>
<!-- Node1&#45;&gt;Node27 -->
<g id="edge31" class="edge">
<title>Node1&#45;&gt;Node27</title>
<path fill="none" stroke="midnightblue" d="M1224.8,-172.28C1328.31,-165 1530.51,-150.07 1712.45,-132.12"/>
<polygon fill="midnightblue" stroke="midnightblue" points="1712.86,-135.6 1722.47,-131.13 1712.17,-128.63 1712.86,-135.6"/>
</g>
<!-- Node28 -->
<g id="node28" class="node">
<title>Node28</title>
<g id="a_node28"><a xlink:title=" ">
<polygon fill="white" stroke="#bfbfbf" points="1875.5,-112.5 1875.5,-131.5 2032.5,-131.5 2032.5,-112.5 1875.5,-112.5"/>
<text text-anchor="middle" x="1954" y="-119.5" font-family="Helvetica,sans-Serif" font-size="10.00">G4MaterialPropertyVector.hh</text>
</a>
</g>
</g>
<!-- Node1&#45;&gt;Node28 -->
<g id="edge32" class="edge">
<title>Node1&#45;&gt;Node28</title>
<path fill="none" stroke="midnightblue" d="M1224.7,-173.56C1349.93,-167.1 1623.95,-152.04 1865.28,-132.12"/>
<polygon fill="midnightblue" stroke="midnightblue" points="1865.62,-135.6 1875.29,-131.28 1865.04,-128.62 1865.62,-135.6"/>
</g>
<!-- Node3 -->
<g id="node3" class="node">
<title>Node3</title>
<g id="a_node3"><a xlink:title=" ">
<polygon fill="white" stroke="#bfbfbf" points="62,-56.5 62,-75.5 188,-75.5 188,-56.5 62,-56.5"/>
<text text-anchor="middle" x="125" y="-63.5" font-family="Helvetica,sans-Serif" font-size="10.00">G4UserEventAction.hh</text>
</a>
</g>
</g>
<!-- Node2&#45;&gt;Node3 -->
<g id="edge2" class="edge">
<title>Node2&#45;&gt;Node3</title>
<path fill="none" stroke="midnightblue" d="M125,-112.08C125,-105.01 125,-94.86 125,-85.99"/>
<polygon fill="midnightblue" stroke="midnightblue" points="128.5,-85.75 125,-75.75 121.5,-85.75 128.5,-85.75"/>
</g>
<!-- Node4 -->
<g id="node4" class="node">
<title>Node4</title>
<g id="a_node4"><a xlink:title=" ">
<polygon fill="white" stroke="#bfbfbf" points="0,-56.5 0,-75.5 44,-75.5 44,-56.5 0,-56.5"/>
<text text-anchor="middle" x="22" y="-63.5" font-family="Helvetica,sans-Serif" font-size="10.00">string</text>
</a>
</g>
</g>
<!-- Node2&#45;&gt;Node4 -->
<g id="edge3" class="edge">
<title>Node2&#45;&gt;Node4</title>
<path fill="none" stroke="midnightblue" d="M108.45,-112.32C92.01,-103.7 66.57,-90.36 47.53,-80.39"/>
<polygon fill="midnightblue" stroke="midnightblue" points="48.99,-77.2 38.51,-75.65 45.74,-83.4 48.99,-77.2"/>
</g>
<!-- Node6 -->
<g id="node6" class="node">
<title>Node6</title>
<g id="a_node6"><a xlink:title=" ">
<polygon fill="white" stroke="#bfbfbf" points="206.5,-56.5 206.5,-75.5 345.5,-75.5 345.5,-56.5 206.5,-56.5"/>
<text text-anchor="middle" x="276" y="-63.5" font-family="Helvetica,sans-Serif" font-size="10.00">G4UserTrackingAction.hh</text>
</a>
</g>
</g>
<!-- Node5&#45;&gt;Node6 -->
<g id="edge5" class="edge">
<title>Node5&#45;&gt;Node6</title>
<path fill="none" stroke="midnightblue" d="M311.9,-112.08C305.76,-104.38 296.73,-93.03 289.26,-83.65"/>
<polygon fill="midnightblue" stroke="midnightblue" points="291.94,-81.39 282.97,-75.75 286.46,-85.75 291.94,-81.39"/>
</g>
<!-- Node8 -->
<g id="node8" class="node">
<title>Node8</title>
<g id="a_node8"><a xlink:title=" ">
<polygon fill="white" stroke="#bfbfbf" points="448.5,-56.5 448.5,-75.5 565.5,-75.5 565.5,-56.5 448.5,-56.5"/>
<text text-anchor="middle" x="507" y="-63.5" font-family="Helvetica,sans-Serif" font-size="10.00">G4UserRunAction.hh</text>
</a>
</g>
</g>
<!-- Node7&#45;&gt;Node8 -->
<g id="edge7" class="edge">
<title>Node7&#45;&gt;Node8</title>
<path fill="none" stroke="midnightblue" d="M507,-112.08C507,-105.01 507,-94.86 507,-85.99"/>
<polygon fill="midnightblue" stroke="midnightblue" points="510.5,-85.75 507,-75.75 503.5,-85.75 510.5,-85.75"/>
</g>
<!-- Node9 -->
<g id="node9" class="node">
<title>Node9</title>
<g id="a_node9"><a xlink:title=" ">
<polygon fill="white" stroke="#bfbfbf" points="363.5,-56.5 363.5,-75.5 430.5,-75.5 430.5,-56.5 363.5,-56.5"/>
<text text-anchor="middle" x="397" y="-63.5" font-family="Helvetica,sans-Serif" font-size="10.00">globals.hh</text>
</a>
</g>
</g>
<!-- Node7&#45;&gt;Node9 -->
<g id="edge8" class="edge">
<title>Node7&#45;&gt;Node9</title>
<path fill="none" stroke="midnightblue" d="M489.33,-112.32C471.61,-103.62 444.1,-90.12 423.71,-80.11"/>
<polygon fill="midnightblue" stroke="midnightblue" points="425.15,-76.92 414.63,-75.65 422.06,-83.2 425.15,-76.92"/>
</g>
<!-- Node11 -->
<g id="node11" class="node">
<title>Node11</title>
<g id="a_node11"><a xlink:title=" ">
<polygon fill="white" stroke="#bfbfbf" points="721.5,-0.5 721.5,-19.5 794.5,-19.5 794.5,-0.5 721.5,-0.5"/>
<text text-anchor="middle" x="758" y="-7.5" font-family="Helvetica,sans-Serif" font-size="10.00">G4Types.hh</text>
</a>
</g>
</g>
<!-- Node10&#45;&gt;Node11 -->
<g id="edge10" class="edge">
<title>Node10&#45;&gt;Node11</title>
<path fill="none" stroke="midnightblue" d="M843.42,-112.43C833.82,-103.65 818.8,-89.42 807,-76 793.35,-60.48 779.31,-41.48 769.77,-28.04"/>
<polygon fill="midnightblue" stroke="midnightblue" points="772.56,-25.91 763.95,-19.73 766.82,-29.93 772.56,-25.91"/>
</g>
<!-- Node12 -->
<g id="node12" class="node">
<title>Node12</title>
<g id="a_node12"><a xlink:title=" ">
<polygon fill="white" stroke="#bfbfbf" points="816,-56.5 816,-75.5 890,-75.5 890,-56.5 816,-56.5"/>
<text text-anchor="middle" x="853" y="-63.5" font-family="Helvetica,sans-Serif" font-size="10.00">G4String.hh</text>
</a>
</g>
</g>
<!-- Node10&#45;&gt;Node12 -->
<g id="edge11" class="edge">
<title>Node10&#45;&gt;Node12</title>
<path fill="none" stroke="midnightblue" d="M853,-112.08C853,-105.01 853,-94.86 853,-85.99"/>
<polygon fill="midnightblue" stroke="midnightblue" points="856.5,-85.75 853,-75.75 849.5,-85.75 856.5,-85.75"/>
</g>
<!-- Node10&#45;&gt;Node13 -->
<g id="edge12" class="edge">
<title>Node10&#45;&gt;Node13</title>
<path fill="none" stroke="midnightblue" d="M818.46,-112.44C780.75,-103.1 720.26,-88.12 679.14,-77.93"/>
<polygon fill="midnightblue" stroke="midnightblue" points="679.93,-74.52 669.38,-75.52 678.25,-81.32 679.93,-74.52"/>
</g>
<!-- Node10&#45;&gt;Node14 -->
<g id="edge13" class="edge">
<title>Node10&#45;&gt;Node14</title>
<path fill="none" stroke="midnightblue" d="M882.79,-112.44C914.83,-103.24 965.93,-88.56 1001.35,-78.39"/>
<polygon fill="midnightblue" stroke="midnightblue" points="1002.71,-81.64 1011.35,-75.52 1000.77,-74.91 1002.71,-81.64"/>
</g>
<!-- Node21 -->
<g id="node21" class="node">
<title>Node21</title>
<g id="a_node21"><a xlink:title=" ">
<polygon fill="white" stroke="#bfbfbf" points="908.5,-56.5 908.5,-75.5 955.5,-75.5 955.5,-56.5 908.5,-56.5"/>
<text text-anchor="middle" x="932" y="-63.5" font-family="Helvetica,sans-Serif" font-size="10.00">vector</text>
</a>
</g>
</g>
<!-- Node10&#45;&gt;Node21 -->
<g id="edge21" class="edge">
<title>Node10&#45;&gt;Node21</title>
<path fill="none" stroke="midnightblue" d="M865.69,-112.32C877.9,-103.98 896.58,-91.21 911,-81.35"/>
<polygon fill="midnightblue" stroke="midnightblue" points="913.06,-84.19 919.34,-75.65 909.11,-78.41 913.06,-84.19"/>
</g>
<!-- Node22 -->
<g id="node22" class="node">
<title>Node22</title>
<g id="a_node22"><a xlink:title=" ">
<polygon fill="white" stroke="#bfbfbf" points="704.5,-56.5 704.5,-75.5 759.5,-75.5 759.5,-56.5 704.5,-56.5"/>
<text text-anchor="middle" x="732" y="-63.5" font-family="Helvetica,sans-Serif" font-size="10.00">fstream</text>
</a>
</g>
</g>
<!-- Node10&#45;&gt;Node22 -->
<g id="edge22" class="edge">
<title>Node10&#45;&gt;Node22</title>
<path fill="none" stroke="midnightblue" d="M833.83,-112.44C814.09,-103.64 783.11,-89.81 760.51,-79.72"/>
<polygon fill="midnightblue" stroke="midnightblue" points="761.64,-76.4 751.08,-75.52 758.79,-82.79 761.64,-76.4"/>
</g>
<!-- Node14&#45;&gt;Node11 -->
<g id="edge15" class="edge">
<title>Node14&#45;&gt;Node11</title>
<path fill="none" stroke="midnightblue" d="M994.9,-56.43C949.09,-47.89 876.55,-34.26 804.93,-20.36"/>
<polygon fill="midnightblue" stroke="midnightblue" points="805.31,-16.87 794.83,-18.4 803.98,-23.74 805.31,-16.87"/>
</g>
<!-- Node14&#45;&gt;Node15 -->
<g id="edge14" class="edge">
<title>Node14&#45;&gt;Node15</title>
<path fill="none" stroke="midnightblue" d="M1062.23,-56.44C1084.38,-47.52 1119.32,-33.44 1144.44,-23.32"/>
<polygon fill="midnightblue" stroke="midnightblue" points="1145.9,-26.5 1153.87,-19.52 1143.28,-20.01 1145.9,-26.5"/>
</g>
<!-- Node16 -->
<g id="node16" class="node">
<title>Node16</title>
<g id="a_node16"><a xlink:title=" ">
<polygon fill="white" stroke="#bfbfbf" points="812.5,-0.5 812.5,-19.5 877.5,-19.5 877.5,-0.5 812.5,-0.5"/>
<text text-anchor="middle" x="845" y="-7.5" font-family="Helvetica,sans-Serif" font-size="10.00">functional</text>
</a>
</g>
</g>
<!-- Node14&#45;&gt;Node16 -->
<g id="edge16" class="edge">
<title>Node14&#45;&gt;Node16</title>
<path fill="none" stroke="midnightblue" d="M1009.94,-56.44C976.4,-47.2 922.8,-32.44 885.86,-22.26"/>
<polygon fill="midnightblue" stroke="midnightblue" points="886.48,-18.8 875.91,-19.52 884.62,-25.55 886.48,-18.8"/>
</g>
<!-- Node17 -->
<g id="node17" class="node">
<title>Node17</title>
<g id="a_node17"><a xlink:title=" ">
<polygon fill="white" stroke="#bfbfbf" points="896,-0.5 896,-19.5 934,-19.5 934,-0.5 896,-0.5"/>
<text text-anchor="middle" x="915" y="-7.5" font-family="Helvetica,sans-Serif" font-size="10.00">map</text>
</a>
</g>
</g>
<!-- Node14&#45;&gt;Node17 -->
<g id="edge17" class="edge">
<title>Node14&#45;&gt;Node17</title>
<path fill="none" stroke="midnightblue" d="M1021.03,-56.44C1000.15,-47.49 967.17,-33.36 943.54,-23.23"/>
<polygon fill="midnightblue" stroke="midnightblue" points="944.62,-19.89 934.05,-19.16 941.86,-26.32 944.62,-19.89"/>
</g>
<!-- Node14&#45;&gt;Node18 -->
<g id="edge18" class="edge">
<title>Node14&#45;&gt;Node18</title>
<path fill="none" stroke="midnightblue" d="M1079.94,-56.47C1118.74,-47.95 1180.31,-34.37 1242.39,-20.35"/>
<polygon fill="midnightblue" stroke="midnightblue" points="1243.37,-23.72 1252.35,-18.1 1241.82,-16.89 1243.37,-23.72"/>
</g>
<!-- Node19 -->
<g id="node19" class="node">
<title>Node19</title>
<g id="a_node19"><a xlink:title=" ">
<polygon fill="white" stroke="#bfbfbf" points="952,-0.5 952,-19.5 1026,-19.5 1026,-0.5 952,-0.5"/>
<text text-anchor="middle" x="989" y="-7.5" font-family="Helvetica,sans-Serif" font-size="10.00">TGraph2D.h</text>
</a>
</g>
</g>
<!-- Node14&#45;&gt;Node19 -->
<g id="edge19" class="edge">
<title>Node14&#45;&gt;Node19</title>
<path fill="none" stroke="midnightblue" d="M1032.41,-56.08C1024.84,-48.22 1013.62,-36.57 1004.49,-27.08"/>
<polygon fill="midnightblue" stroke="midnightblue" points="1006.88,-24.53 997.43,-19.75 1001.84,-29.38 1006.88,-24.53"/>
</g>
<!-- Node20 -->
<g id="node20" class="node">
<title>Node20</title>
<g id="a_node20"><a xlink:title=" ">
<polygon fill="white" stroke="#bfbfbf" points="1044.5,-0.5 1044.5,-19.5 1097.5,-19.5 1097.5,-0.5 1044.5,-0.5"/>
<text text-anchor="middle" x="1071" y="-7.5" font-family="Helvetica,sans-Serif" font-size="10.00">TH2D.h</text>
</a>
</g>
</g>
<!-- Node14&#45;&gt;Node20 -->
<g id="edge20" class="edge">
<title>Node14&#45;&gt;Node20</title>
<path fill="none" stroke="midnightblue" d="M1045.95,-56.08C1050.1,-48.61 1056.15,-37.72 1061.27,-28.52"/>
<polygon fill="midnightblue" stroke="midnightblue" points="1064.34,-30.19 1066.14,-19.75 1058.22,-26.79 1064.34,-30.19"/>
</g>
</g>
</svg>
