<?xml version="1.0" encoding="UTF-8" standalone="no"?>
<!DOCTYPE svg PUBLIC "-//W3C//DTD SVG 1.1//EN"
 "http://www.w3.org/Graphics/SVG/1.1/DTD/svg11.dtd">
<!-- Generated by graphviz version 2.43.0 (0)
 -->
<!-- Title: OMSimMDOM.hh Pages: 1 -->
<svg width="715pt" height="196pt"
 viewBox="0.00 0.00 714.50 196.00" xmlns="http://www.w3.org/2000/svg" xmlns:xlink="http://www.w3.org/1999/xlink">
<g id="graph0" class="graph" transform="scale(1 1) rotate(0) translate(4 192)">
<title>OMSimMDOM.hh</title>
<polygon fill="white" stroke="transparent" points="-4,4 -4,-192 710.5,-192 710.5,4 -4,4"/>
<!-- Node1 -->
<g id="node1" class="node">
<title>Node1</title>
<g id="a_node1"><a xlink:title=" ">
<polygon fill="#bfbfbf" stroke="black" points="287,-168.5 287,-187.5 387,-187.5 387,-168.5 287,-168.5"/>
<text text-anchor="middle" x="337" y="-175.5" font-family="Helvetica,sans-Serif" font-size="10.00">OMSimMDOM.hh</text>
</a>
</g>
</g>
<!-- Node2 -->
<g id="node2" class="node">
<title>Node2</title>
<g id="a_node2"><a xlink:href="_o_m_sim_m_d_o_m_8cc.html" target="_top" xlink:title="Construction of mDOM.">
<polygon fill="white" stroke="black" points="0,-112.5 0,-131.5 98,-131.5 98,-112.5 0,-112.5"/>
<text text-anchor="middle" x="49" y="-119.5" font-family="Helvetica,sans-Serif" font-size="10.00">OMSimMDOM.cc</text>
</a>
</g>
</g>
<!-- Node1&#45;&gt;Node2 -->
<g id="edge1" class="edge">
<title>Node1&#45;&gt;Node2</title>
<path fill="none" stroke="midnightblue" d="M281.2,-166.54C226.77,-156.33 145,-141 94.42,-131.52"/>
<polygon fill="midnightblue" stroke="midnightblue" points="280.89,-170.04 291.37,-168.44 282.18,-163.16 280.89,-170.04"/>
</g>
<!-- Node3 -->
<g id="node3" class="node">
<title>Node3</title>
<g id="a_node3"><a xlink:href="_o_m_sim_m_d_o_m_flasher_8cc.html" target="_top" xlink:title=" ">
<polygon fill="white" stroke="black" points="116,-112.5 116,-131.5 250,-131.5 250,-112.5 116,-112.5"/>
<text text-anchor="middle" x="183" y="-119.5" font-family="Helvetica,sans-Serif" font-size="10.00">OMSimMDOMFlasher.cc</text>
</a>
</g>
</g>
<!-- Node1&#45;&gt;Node3 -->
<g id="edge2" class="edge">
<title>Node1&#45;&gt;Node3</title>
<path fill="none" stroke="midnightblue" d="M302.89,-165.04C273.91,-154.88 233.04,-140.55 207.29,-131.52"/>
<polygon fill="midnightblue" stroke="midnightblue" points="302,-168.44 312.6,-168.44 304.32,-161.83 302,-168.44"/>
</g>
<!-- Node4 -->
<g id="node4" class="node">
<title>Node4</title>
<g id="a_node4"><a xlink:href="_o_m_sim_m_d_o_m_harness_8cc.html" target="_top" xlink:title="Construction of mDOM harness.">
<polygon fill="white" stroke="black" points="268,-112.5 268,-131.5 406,-131.5 406,-112.5 268,-112.5"/>
<text text-anchor="middle" x="337" y="-119.5" font-family="Helvetica,sans-Serif" font-size="10.00">OMSimMDOMHarness.cc</text>
</a>
</g>
</g>
<!-- Node1&#45;&gt;Node4 -->
<g id="edge3" class="edge">
<title>Node1&#45;&gt;Node4</title>
<path fill="none" stroke="midnightblue" d="M337,-157.8C337,-148.91 337,-138.78 337,-131.75"/>
<polygon fill="midnightblue" stroke="midnightblue" points="333.5,-158.08 337,-168.08 340.5,-158.08 333.5,-158.08"/>
</g>
<!-- Node5 -->
<g id="node5" class="node">
<title>Node5</title>
<g id="a_node5"><a xlink:href="_o_m_sim_detector_construction_8hh.html" target="_top" xlink:title=" ">
<polygon fill="white" stroke="black" points="424,-112.5 424,-131.5 594,-131.5 594,-112.5 424,-112.5"/>
<text text-anchor="middle" x="509" y="-119.5" font-family="Helvetica,sans-Serif" font-size="10.00">OMSimDetectorConstruction.hh</text>
</a>
</g>
</g>
<!-- Node1&#45;&gt;Node5 -->
<g id="edge4" class="edge">
<title>Node1&#45;&gt;Node5</title>
<path fill="none" stroke="midnightblue" d="M373.83,-165.44C406.26,-155.26 452.74,-140.66 481.87,-131.52"/>
<polygon fill="midnightblue" stroke="midnightblue" points="372.75,-162.11 364.25,-168.44 374.84,-168.79 372.75,-162.11"/>
</g>
<!-- Node9 -->
<g id="node9" class="node">
<title>Node9</title>
<g id="a_node9"><a xlink:href="_o_m_sim_detector_construction_8cc.html" target="_top" xlink:title="User defined detector.">
<polygon fill="white" stroke="black" points="537.5,-56.5 537.5,-75.5 706.5,-75.5 706.5,-56.5 537.5,-56.5"/>
<text text-anchor="middle" x="622" y="-63.5" font-family="Helvetica,sans-Serif" font-size="10.00">OMSimDetectorConstruction.cc</text>
</a>
</g>
</g>
<!-- Node1&#45;&gt;Node9 -->
<g id="edge9" class="edge">
<title>Node1&#45;&gt;Node9</title>
<path fill="none" stroke="midnightblue" d="M397.37,-174.1C466.29,-169.56 573.33,-158.39 603,-132 619.34,-117.47 621.97,-89.74 622.18,-75.66"/>
<polygon fill="midnightblue" stroke="midnightblue" points="396.83,-170.63 387.07,-174.75 397.27,-177.61 396.83,-170.63"/>
</g>
<!-- Node6 -->
<g id="node6" class="node">
<title>Node6</title>
<g id="a_node6"><a xlink:href="_o_m_sim_8hh.html" target="_top" xlink:title="Main simulation class for the Optical Module (OM) simulation.">
<polygon fill="white" stroke="black" points="452.5,-56.5 452.5,-75.5 519.5,-75.5 519.5,-56.5 452.5,-56.5"/>
<text text-anchor="middle" x="486" y="-63.5" font-family="Helvetica,sans-Serif" font-size="10.00">OMSim.hh</text>
</a>
</g>
</g>
<!-- Node5&#45;&gt;Node6 -->
<g id="edge5" class="edge">
<title>Node5&#45;&gt;Node6</title>
<path fill="none" stroke="midnightblue" d="M501.2,-102.69C497.32,-93.59 492.82,-83.01 489.73,-75.75"/>
<polygon fill="midnightblue" stroke="midnightblue" points="498.06,-104.25 505.2,-112.08 504.5,-101.51 498.06,-104.25"/>
</g>
<!-- Node5&#45;&gt;Node9 -->
<g id="edge8" class="edge">
<title>Node5&#45;&gt;Node9</title>
<path fill="none" stroke="midnightblue" d="M536,-108.1C557.11,-98.01 585.86,-84.27 604.18,-75.52"/>
<polygon fill="midnightblue" stroke="midnightblue" points="534.42,-104.97 526.91,-112.44 537.44,-111.29 534.42,-104.97"/>
</g>
<!-- Node7 -->
<g id="node7" class="node">
<title>Node7</title>
<g id="a_node7"><a xlink:href="_o_m_sim_8cc.html" target="_top" xlink:title=" ">
<polygon fill="white" stroke="black" points="393.5,-0.5 393.5,-19.5 458.5,-19.5 458.5,-0.5 393.5,-0.5"/>
<text text-anchor="middle" x="426" y="-7.5" font-family="Helvetica,sans-Serif" font-size="10.00">OMSim.cc</text>
</a>
</g>
</g>
<!-- Node6&#45;&gt;Node7 -->
<g id="edge6" class="edge">
<title>Node6&#45;&gt;Node7</title>
<path fill="none" stroke="midnightblue" d="M468.82,-49.54C458.12,-39.91 444.74,-27.87 435.82,-19.83"/>
<polygon fill="midnightblue" stroke="midnightblue" points="466.59,-52.24 476.36,-56.32 471.27,-47.03 466.59,-52.24"/>
</g>
<!-- Node8 -->
<g id="node8" class="node">
<title>Node8</title>
<g id="a_node8"><a xlink:href="_o_m_sim__effective__area_8cc.html" target="_top" xlink:title="Main for the calculation of effective areas.">
<polygon fill="white" stroke="black" points="477,-0.5 477,-19.5 617,-19.5 617,-0.5 477,-0.5"/>
<text text-anchor="middle" x="547" y="-7.5" font-family="Helvetica,sans-Serif" font-size="10.00">OMSim_effective_area.cc</text>
</a>
</g>
</g>
<!-- Node6&#45;&gt;Node8 -->
<g id="edge7" class="edge">
<title>Node6&#45;&gt;Node8</title>
<path fill="none" stroke="midnightblue" d="M503.47,-49.54C514.34,-39.91 527.94,-27.87 537.02,-19.83"/>
<polygon fill="midnightblue" stroke="midnightblue" points="500.97,-47.07 495.8,-56.32 505.61,-52.32 500.97,-47.07"/>
</g>
</g>
</svg>
