<?xml version="1.0" encoding="UTF-8" standalone="no"?>
<!DOCTYPE svg PUBLIC "-//W3C//DTD SVG 1.1//EN"
 "http://www.w3.org/Graphics/SVG/1.1/DTD/svg11.dtd">
<!-- Generated by graphviz version 2.43.0 (0)
 -->
<!-- Title: OMSimDEGGHarness.cc Pages: 1 -->
<svg width="2462pt" height="263pt"
 viewBox="0.00 0.00 2461.50 263.00" xmlns="http://www.w3.org/2000/svg" xmlns:xlink="http://www.w3.org/1999/xlink">
<g id="graph0" class="graph" transform="scale(1 1) rotate(0) translate(4 259)">
<title>OMSimDEGGHarness.cc</title>
<polygon fill="white" stroke="transparent" points="-4,4 -4,-259 2457.5,-259 2457.5,4 -4,4"/>
<!-- Node1 -->
<g id="node1" class="node">
<title>Node1</title>
<g id="a_node1"><a xlink:title=" ">
<polygon fill="#bfbfbf" stroke="black" points="1415.5,-235.5 1415.5,-254.5 1549.5,-254.5 1549.5,-235.5 1415.5,-235.5"/>
<text text-anchor="middle" x="1482.5" y="-242.5" font-family="Helvetica,sans-Serif" font-size="10.00">OMSimDEGGHarness.cc</text>
</a>
</g>
</g>
<!-- Node2 -->
<g id="node2" class="node">
<title>Node2</title>
<g id="a_node2"><a xlink:href="_o_m_sim_d_e_g_g_harness_8hh.html" target="_top" xlink:title=" ">
<polygon fill="white" stroke="black" points="792,-179.5 792,-198.5 927,-198.5 927,-179.5 792,-179.5"/>
<text text-anchor="middle" x="859.5" y="-186.5" font-family="Helvetica,sans-Serif" font-size="10.00">OMSimDEGGHarness.hh</text>
</a>
</g>
</g>
<!-- Node1&#45;&gt;Node2 -->
<g id="edge1" class="edge">
<title>Node1&#45;&gt;Node2</title>
<path fill="none" stroke="midnightblue" d="M1415.24,-238.17C1298.94,-228.09 1060.94,-207.46 937.56,-196.77"/>
<polygon fill="midnightblue" stroke="midnightblue" points="937.69,-193.26 927.43,-195.89 937.09,-200.24 937.69,-193.26"/>
</g>
<!-- Node12 -->
<g id="node12" class="node">
<title>Node12</title>
<g id="a_node12"><a xlink:href="_c_a_d_mesh_8hh.html" target="_top" xlink:title=" ">
<polygon fill="white" stroke="black" points="1346,-179.5 1346,-198.5 1425,-198.5 1425,-179.5 1346,-179.5"/>
<text text-anchor="middle" x="1385.5" y="-186.5" font-family="Helvetica,sans-Serif" font-size="10.00">CADMesh.hh</text>
</a>
</g>
</g>
<!-- Node1&#45;&gt;Node12 -->
<g id="edge11" class="edge">
<title>Node1&#45;&gt;Node12</title>
<path fill="none" stroke="midnightblue" d="M1466.92,-235.32C1451.5,-226.74 1427.69,-213.49 1409.79,-203.52"/>
<polygon fill="midnightblue" stroke="midnightblue" points="1411.49,-200.46 1401.05,-198.65 1408.08,-206.58 1411.49,-200.46"/>
</g>
<!-- Node33 -->
<g id="node33" class="node">
<title>Node33</title>
<g id="a_node33"><a xlink:title=" ">
<polygon fill="white" stroke="#bfbfbf" points="1443,-179.5 1443,-198.5 1522,-198.5 1522,-179.5 1443,-179.5"/>
<text text-anchor="middle" x="1482.5" y="-186.5" font-family="Helvetica,sans-Serif" font-size="10.00">G4Sphere.hh</text>
</a>
</g>
</g>
<!-- Node1&#45;&gt;Node33 -->
<g id="edge32" class="edge">
<title>Node1&#45;&gt;Node33</title>
<path fill="none" stroke="midnightblue" d="M1482.5,-235.08C1482.5,-228.01 1482.5,-217.86 1482.5,-208.99"/>
<polygon fill="midnightblue" stroke="midnightblue" points="1486,-208.75 1482.5,-198.75 1479,-208.75 1486,-208.75"/>
</g>
<!-- Node34 -->
<g id="node34" class="node">
<title>Node34</title>
<g id="a_node34"><a xlink:title=" ">
<polygon fill="white" stroke="#bfbfbf" points="1540,-179.5 1540,-198.5 1677,-198.5 1677,-179.5 1540,-179.5"/>
<text text-anchor="middle" x="1608.5" y="-186.5" font-family="Helvetica,sans-Serif" font-size="10.00">G4LogicalSkinSurface.hh</text>
</a>
</g>
</g>
<!-- Node1&#45;&gt;Node34 -->
<g id="edge33" class="edge">
<title>Node1&#45;&gt;Node34</title>
<path fill="none" stroke="midnightblue" d="M1502.47,-235.44C1523.11,-226.6 1555.56,-212.69 1579.13,-202.59"/>
<polygon fill="midnightblue" stroke="midnightblue" points="1580.82,-205.67 1588.63,-198.52 1578.06,-199.24 1580.82,-205.67"/>
</g>
<!-- Node35 -->
<g id="node35" class="node">
<title>Node35</title>
<g id="a_node35"><a xlink:title=" ">
<polygon fill="white" stroke="#bfbfbf" points="1695,-179.5 1695,-198.5 1762,-198.5 1762,-179.5 1695,-179.5"/>
<text text-anchor="middle" x="1728.5" y="-186.5" font-family="Helvetica,sans-Serif" font-size="10.00">G4Tubs.hh</text>
</a>
</g>
</g>
<!-- Node1&#45;&gt;Node35 -->
<g id="edge34" class="edge">
<title>Node1&#45;&gt;Node35</title>
<path fill="none" stroke="midnightblue" d="M1521.48,-235.44C1565.94,-225.68 1638.46,-209.77 1684.8,-199.59"/>
<polygon fill="midnightblue" stroke="midnightblue" points="1685.82,-202.95 1694.84,-197.39 1684.32,-196.11 1685.82,-202.95"/>
</g>
<!-- Node3 -->
<g id="node3" class="node">
<title>Node3</title>
<g id="a_node3"><a xlink:href="abc_detector_component_8hh.html" target="_top" xlink:title=" ">
<polygon fill="white" stroke="black" points="384,-123.5 384,-142.5 531,-142.5 531,-123.5 384,-123.5"/>
<text text-anchor="middle" x="457.5" y="-130.5" font-family="Helvetica,sans-Serif" font-size="10.00">abcDetectorComponent.hh</text>
</a>
</g>
</g>
<!-- Node2&#45;&gt;Node3 -->
<g id="edge2" class="edge">
<title>Node2&#45;&gt;Node3</title>
<path fill="none" stroke="midnightblue" d="M795.8,-179.44C723.76,-169.77 606.65,-154.04 530.85,-143.85"/>
<polygon fill="midnightblue" stroke="midnightblue" points="531.28,-140.38 520.9,-142.52 530.35,-147.32 531.28,-140.38"/>
</g>
<!-- Node4 -->
<g id="node4" class="node">
<title>Node4</title>
<g id="a_node4"><a xlink:href="_o_m_sim_input_data_8hh.html" target="_top" xlink:title=" ">
<polygon fill="white" stroke="black" points="145,-67.5 145,-86.5 260,-86.5 260,-67.5 145,-67.5"/>
<text text-anchor="middle" x="202.5" y="-74.5" font-family="Helvetica,sans-Serif" font-size="10.00">OMSimInputData.hh</text>
</a>
</g>
</g>
<!-- Node3&#45;&gt;Node4 -->
<g id="edge3" class="edge">
<title>Node3&#45;&gt;Node4</title>
<path fill="none" stroke="midnightblue" d="M417.09,-123.44C372.52,-114 300.73,-98.8 252.61,-88.61"/>
<polygon fill="midnightblue" stroke="midnightblue" points="253.22,-85.16 242.72,-86.52 251.77,-92.01 253.22,-85.16"/>
</g>
<!-- Node8 -->
<g id="node8" class="node">
<title>Node8</title>
<g id="a_node8"><a xlink:title=" ">
<polygon fill="white" stroke="#bfbfbf" points="278,-67.5 278,-86.5 385,-86.5 385,-67.5 278,-67.5"/>
<text text-anchor="middle" x="331.5" y="-74.5" font-family="Helvetica,sans-Serif" font-size="10.00">G4Transform3D.hh</text>
</a>
</g>
</g>
<!-- Node3&#45;&gt;Node8 -->
<g id="edge7" class="edge">
<title>Node3&#45;&gt;Node8</title>
<path fill="none" stroke="midnightblue" d="M437.53,-123.44C416.89,-114.6 384.44,-100.69 360.87,-90.59"/>
<polygon fill="midnightblue" stroke="midnightblue" points="361.94,-87.24 351.37,-86.52 359.18,-93.67 361.94,-87.24"/>
</g>
<!-- Node9 -->
<g id="node9" class="node">
<title>Node9</title>
<g id="a_node9"><a xlink:title=" ">
<polygon fill="white" stroke="#bfbfbf" points="403.5,-67.5 403.5,-86.5 511.5,-86.5 511.5,-67.5 403.5,-67.5"/>
<text text-anchor="middle" x="457.5" y="-74.5" font-family="Helvetica,sans-Serif" font-size="10.00">G4VisAttributes.hh</text>
</a>
</g>
</g>
<!-- Node3&#45;&gt;Node9 -->
<g id="edge8" class="edge">
<title>Node3&#45;&gt;Node9</title>
<path fill="none" stroke="midnightblue" d="M457.5,-123.08C457.5,-116.01 457.5,-105.86 457.5,-96.99"/>
<polygon fill="midnightblue" stroke="midnightblue" points="461,-96.75 457.5,-86.75 454,-96.75 461,-96.75"/>
</g>
<!-- Node10 -->
<g id="node10" class="node">
<title>Node10</title>
<g id="a_node10"><a xlink:title=" ">
<polygon fill="white" stroke="#bfbfbf" points="530,-67.5 530,-86.5 655,-86.5 655,-67.5 530,-67.5"/>
<text text-anchor="middle" x="592.5" y="-74.5" font-family="Helvetica,sans-Serif" font-size="10.00">G4SubtractionSolid.hh</text>
</a>
</g>
</g>
<!-- Node3&#45;&gt;Node10 -->
<g id="edge9" class="edge">
<title>Node3&#45;&gt;Node10</title>
<path fill="none" stroke="midnightblue" d="M478.89,-123.44C501.21,-114.52 536.4,-100.44 561.71,-90.32"/>
<polygon fill="midnightblue" stroke="midnightblue" points="563.22,-93.48 571.21,-86.52 560.62,-86.98 563.22,-93.48"/>
</g>
<!-- Node11 -->
<g id="node11" class="node">
<title>Node11</title>
<g id="a_node11"><a xlink:title=" ">
<polygon fill="white" stroke="#bfbfbf" points="673.5,-67.5 673.5,-86.5 783.5,-86.5 783.5,-67.5 673.5,-67.5"/>
<text text-anchor="middle" x="728.5" y="-74.5" font-family="Helvetica,sans-Serif" font-size="10.00">G4PVPlacement.hh</text>
</a>
</g>
</g>
<!-- Node3&#45;&gt;Node11 -->
<g id="edge10" class="edge">
<title>Node3&#45;&gt;Node11</title>
<path fill="none" stroke="midnightblue" d="M500.44,-123.44C548.01,-113.96 624.74,-98.67 675.89,-88.48"/>
<polygon fill="midnightblue" stroke="midnightblue" points="676.64,-91.9 685.76,-86.52 675.27,-85.04 676.64,-91.9"/>
</g>
<!-- Node5 -->
<g id="node5" class="node">
<title>Node5</title>
<g id="a_node5"><a xlink:title=" ">
<polygon fill="white" stroke="#bfbfbf" points="0,-0.5 0,-30.5 113,-30.5 113,-0.5 0,-0.5"/>
<text text-anchor="start" x="8" y="-18.5" font-family="Helvetica,sans-Serif" font-size="10.00">boost/property_tree</text>
<text text-anchor="middle" x="56.5" y="-7.5" font-family="Helvetica,sans-Serif" font-size="10.00">/json_parser.hpp</text>
</a>
</g>
</g>
<!-- Node4&#45;&gt;Node5 -->
<g id="edge4" class="edge">
<title>Node4&#45;&gt;Node5</title>
<path fill="none" stroke="midnightblue" d="M181.58,-67.48C160.51,-58.89 127.37,-45.38 100.49,-34.43"/>
<polygon fill="midnightblue" stroke="midnightblue" points="101.49,-31.06 90.91,-30.52 98.85,-37.54 101.49,-31.06"/>
</g>
<!-- Node6 -->
<g id="node6" class="node">
<title>Node6</title>
<g id="a_node6"><a xlink:title=" ">
<polygon fill="white" stroke="#bfbfbf" points="131,-6 131,-25 274,-25 274,-6 131,-6"/>
<text text-anchor="middle" x="202.5" y="-13" font-family="Helvetica,sans-Serif" font-size="10.00">G4OpBoundaryProcess.hh</text>
</a>
</g>
</g>
<!-- Node4&#45;&gt;Node6 -->
<g id="edge5" class="edge">
<title>Node4&#45;&gt;Node6</title>
<path fill="none" stroke="midnightblue" d="M202.5,-67.48C202.5,-59.08 202.5,-45.98 202.5,-35.16"/>
<polygon fill="midnightblue" stroke="midnightblue" points="206,-35.01 202.5,-25.01 199,-35.01 206,-35.01"/>
</g>
<!-- Node7 -->
<g id="node7" class="node">
<title>Node7</title>
<g id="a_node7"><a xlink:title=" ">
<polygon fill="white" stroke="#bfbfbf" points="292,-6 292,-25 411,-25 411,-6 292,-6"/>
<text text-anchor="middle" x="351.5" y="-13" font-family="Helvetica,sans-Serif" font-size="10.00">G4SystemOfUnits.hh</text>
</a>
</g>
</g>
<!-- Node4&#45;&gt;Node7 -->
<g id="edge6" class="edge">
<title>Node4&#45;&gt;Node7</title>
<path fill="none" stroke="midnightblue" d="M223.85,-67.48C249.19,-57.36 291.64,-40.4 320.57,-28.85"/>
<polygon fill="midnightblue" stroke="midnightblue" points="322.2,-31.97 330.19,-25.01 319.61,-25.47 322.2,-31.97"/>
</g>
<!-- Node13 -->
<g id="node13" class="node">
<title>Node13</title>
<g id="a_node13"><a xlink:title=" ">
<polygon fill="white" stroke="#bfbfbf" points="549.5,-123.5 549.5,-142.5 623.5,-142.5 623.5,-123.5 549.5,-123.5"/>
<text text-anchor="middle" x="586.5" y="-130.5" font-family="Helvetica,sans-Serif" font-size="10.00">G4String.hh</text>
</a>
</g>
</g>
<!-- Node12&#45;&gt;Node13 -->
<g id="edge12" class="edge">
<title>Node12&#45;&gt;Node13</title>
<path fill="none" stroke="midnightblue" d="M1345.73,-187.49C1234.67,-185.67 911.72,-177.68 633.87,-143"/>
<polygon fill="midnightblue" stroke="midnightblue" points="633.95,-139.48 623.59,-141.7 633.07,-146.42 633.95,-139.48"/>
</g>
<!-- Node14 -->
<g id="node14" class="node">
<title>Node14</title>
<g id="a_node14"><a xlink:title=" ">
<polygon fill="white" stroke="#bfbfbf" points="641.5,-123.5 641.5,-142.5 705.5,-142.5 705.5,-123.5 641.5,-123.5"/>
<text text-anchor="middle" x="673.5" y="-130.5" font-family="Helvetica,sans-Serif" font-size="10.00">algorithm</text>
</a>
</g>
</g>
<!-- Node12&#45;&gt;Node14 -->
<g id="edge13" class="edge">
<title>Node12&#45;&gt;Node14</title>
<path fill="none" stroke="midnightblue" d="M1345.96,-187.4C1243.42,-185.42 960.49,-177.16 715.8,-142.97"/>
<polygon fill="midnightblue" stroke="midnightblue" points="716.04,-139.47 705.65,-141.53 715.06,-146.4 716.04,-139.47"/>
</g>
<!-- Node15 -->
<g id="node15" class="node">
<title>Node15</title>
<g id="a_node15"><a xlink:title=" ">
<polygon fill="white" stroke="#bfbfbf" points="723.5,-123.5 723.5,-142.5 761.5,-142.5 761.5,-123.5 723.5,-123.5"/>
<text text-anchor="middle" x="742.5" y="-130.5" font-family="Helvetica,sans-Serif" font-size="10.00">map</text>
</a>
</g>
</g>
<!-- Node12&#45;&gt;Node15 -->
<g id="edge14" class="edge">
<title>Node12&#45;&gt;Node15</title>
<path fill="none" stroke="midnightblue" d="M1345.86,-188.34C1248.92,-188.5 992.28,-184.74 771.45,-142.71"/>
<polygon fill="midnightblue" stroke="midnightblue" points="772.11,-139.27 761.62,-140.81 770.78,-146.14 772.11,-139.27"/>
</g>
<!-- Node16 -->
<g id="node16" class="node">
<title>Node16</title>
<g id="a_node16"><a xlink:title=" ">
<polygon fill="white" stroke="#bfbfbf" points="780,-123.5 780,-142.5 883,-142.5 883,-123.5 780,-123.5"/>
<text text-anchor="middle" x="831.5" y="-130.5" font-family="Helvetica,sans-Serif" font-size="10.00">G4ThreeVector.hh</text>
</a>
</g>
</g>
<!-- Node12&#45;&gt;Node16 -->
<g id="edge15" class="edge">
<title>Node12&#45;&gt;Node16</title>
<path fill="none" stroke="midnightblue" d="M1345.72,-185.16C1263.28,-179.12 1067.58,-163.88 893.31,-143.16"/>
<polygon fill="midnightblue" stroke="midnightblue" points="893.53,-139.66 883.18,-141.95 892.7,-146.61 893.53,-139.66"/>
</g>
<!-- Node17 -->
<g id="node17" class="node">
<title>Node17</title>
<g id="a_node17"><a xlink:title=" ">
<polygon fill="white" stroke="#bfbfbf" points="901,-123.5 901,-142.5 1020,-142.5 1020,-123.5 901,-123.5"/>
<text text-anchor="middle" x="960.5" y="-130.5" font-family="Helvetica,sans-Serif" font-size="10.00">G4TriangularFacet.hh</text>
</a>
</g>
</g>
<!-- Node12&#45;&gt;Node17 -->
<g id="edge16" class="edge">
<title>Node12&#45;&gt;Node17</title>
<path fill="none" stroke="midnightblue" d="M1345.98,-183.06C1282.08,-175.05 1151.81,-158.69 1030.54,-143.13"/>
<polygon fill="midnightblue" stroke="midnightblue" points="1030.7,-139.62 1020.34,-141.82 1029.81,-146.56 1030.7,-139.62"/>
</g>
<!-- Node18 -->
<g id="node18" class="node">
<title>Node18</title>
<g id="a_node18"><a xlink:title=" ">
<polygon fill="white" stroke="#bfbfbf" points="1038.5,-123.5 1038.5,-142.5 1096.5,-142.5 1096.5,-123.5 1038.5,-123.5"/>
<text text-anchor="middle" x="1067.5" y="-130.5" font-family="Helvetica,sans-Serif" font-size="10.00">memory</text>
</a>
</g>
</g>
<!-- Node12&#45;&gt;Node18 -->
<g id="edge17" class="edge">
<title>Node12&#45;&gt;Node18</title>
<path fill="none" stroke="midnightblue" d="M1345.92,-182.57C1293.45,-175.17 1197.77,-160.96 1106.83,-143.15"/>
<polygon fill="midnightblue" stroke="midnightblue" points="1107.4,-139.7 1096.91,-141.19 1106.04,-146.56 1107.4,-139.7"/>
</g>
<!-- Node19 -->
<g id="node19" class="node">
<title>Node19</title>
<g id="a_node19"><a xlink:title=" ">
<polygon fill="white" stroke="#bfbfbf" points="1115,-123.5 1115,-142.5 1162,-142.5 1162,-123.5 1115,-123.5"/>
<text text-anchor="middle" x="1138.5" y="-130.5" font-family="Helvetica,sans-Serif" font-size="10.00">vector</text>
</a>
</g>
</g>
<!-- Node12&#45;&gt;Node19 -->
<g id="edge18" class="edge">
<title>Node12&#45;&gt;Node19</title>
<path fill="none" stroke="midnightblue" d="M1345.9,-180.4C1304.85,-172.36 1238.6,-158.94 1172.07,-143.02"/>
<polygon fill="midnightblue" stroke="midnightblue" points="1172.79,-139.6 1162.25,-140.66 1171.15,-146.4 1172.79,-139.6"/>
</g>
<!-- Node20 -->
<g id="node20" class="node">
<title>Node20</title>
<g id="a_node20"><a xlink:title=" ">
<polygon fill="white" stroke="#bfbfbf" points="1180.5,-123.5 1180.5,-142.5 1240.5,-142.5 1240.5,-123.5 1180.5,-123.5"/>
<text text-anchor="middle" x="1210.5" y="-130.5" font-family="Helvetica,sans-Serif" font-size="10.00">iostream</text>
</a>
</g>
</g>
<!-- Node12&#45;&gt;Node20 -->
<g id="edge19" class="edge">
<title>Node12&#45;&gt;Node20</title>
<path fill="none" stroke="midnightblue" d="M1357.77,-179.44C1328.07,-170.28 1280.78,-155.69 1247.83,-145.52"/>
<polygon fill="midnightblue" stroke="midnightblue" points="1248.69,-142.12 1238.1,-142.52 1246.62,-148.81 1248.69,-142.12"/>
</g>
<!-- Node21 -->
<g id="node21" class="node">
<title>Node21</title>
<g id="a_node21"><a xlink:title=" ">
<polygon fill="white" stroke="#bfbfbf" points="1258.5,-123.5 1258.5,-142.5 1302.5,-142.5 1302.5,-123.5 1258.5,-123.5"/>
<text text-anchor="middle" x="1280.5" y="-130.5" font-family="Helvetica,sans-Serif" font-size="10.00">string</text>
</a>
</g>
</g>
<!-- Node12&#45;&gt;Node21 -->
<g id="edge20" class="edge">
<title>Node12&#45;&gt;Node21</title>
<path fill="none" stroke="midnightblue" d="M1368.63,-179.32C1351.79,-170.66 1325.69,-157.24 1306.26,-147.25"/>
<polygon fill="midnightblue" stroke="midnightblue" points="1307.82,-144.12 1297.33,-142.65 1304.62,-150.34 1307.82,-144.12"/>
</g>
<!-- Node22 -->
<g id="node22" class="node">
<title>Node22</title>
<g id="a_node22"><a xlink:title=" ">
<polygon fill="white" stroke="#bfbfbf" points="1320.5,-123.5 1320.5,-142.5 1450.5,-142.5 1450.5,-123.5 1320.5,-123.5"/>
<text text-anchor="middle" x="1385.5" y="-130.5" font-family="Helvetica,sans-Serif" font-size="10.00">G4AssemblyVolume.hh</text>
</a>
</g>
</g>
<!-- Node12&#45;&gt;Node22 -->
<g id="edge21" class="edge">
<title>Node12&#45;&gt;Node22</title>
<path fill="none" stroke="midnightblue" d="M1385.5,-179.08C1385.5,-172.01 1385.5,-161.86 1385.5,-152.99"/>
<polygon fill="midnightblue" stroke="midnightblue" points="1389,-152.75 1385.5,-142.75 1382,-152.75 1389,-152.75"/>
</g>
<!-- Node23 -->
<g id="node23" class="node">
<title>Node23</title>
<g id="a_node23"><a xlink:title=" ">
<polygon fill="white" stroke="#bfbfbf" points="1468.5,-123.5 1468.5,-142.5 1584.5,-142.5 1584.5,-123.5 1468.5,-123.5"/>
<text text-anchor="middle" x="1526.5" y="-130.5" font-family="Helvetica,sans-Serif" font-size="10.00">G4LogicalVolume.hh</text>
</a>
</g>
</g>
<!-- Node12&#45;&gt;Node23 -->
<g id="edge22" class="edge">
<title>Node12&#45;&gt;Node23</title>
<path fill="none" stroke="midnightblue" d="M1407.84,-179.44C1431.25,-170.48 1468.24,-156.31 1494.69,-146.18"/>
<polygon fill="midnightblue" stroke="midnightblue" points="1496.18,-149.36 1504.26,-142.52 1493.67,-142.82 1496.18,-149.36"/>
</g>
<!-- Node24 -->
<g id="node24" class="node">
<title>Node24</title>
<g id="a_node24"><a xlink:title=" ">
<polygon fill="white" stroke="#bfbfbf" points="1602.5,-123.5 1602.5,-142.5 1688.5,-142.5 1688.5,-123.5 1602.5,-123.5"/>
<text text-anchor="middle" x="1645.5" y="-130.5" font-family="Helvetica,sans-Serif" font-size="10.00">G4Material.hh</text>
</a>
</g>
</g>
<!-- Node12&#45;&gt;Node24 -->
<g id="edge23" class="edge">
<title>Node12&#45;&gt;Node24</title>
<path fill="none" stroke="midnightblue" d="M1425.27,-179.74C1470.65,-170.31 1544.98,-154.88 1594.57,-144.58"/>
<polygon fill="midnightblue" stroke="midnightblue" points="1595.37,-147.99 1604.45,-142.53 1593.94,-141.13 1595.37,-147.99"/>
</g>
<!-- Node25 -->
<g id="node25" class="node">
<title>Node25</title>
<g id="a_node25"><a xlink:title=" ">
<polygon fill="white" stroke="#bfbfbf" points="1706.5,-123.5 1706.5,-142.5 1830.5,-142.5 1830.5,-123.5 1706.5,-123.5"/>
<text text-anchor="middle" x="1768.5" y="-130.5" font-family="Helvetica,sans-Serif" font-size="10.00">G4TessellatedSolid.hh</text>
</a>
</g>
</g>
<!-- Node12&#45;&gt;Node25 -->
<g id="edge24" class="edge">
<title>Node12&#45;&gt;Node25</title>
<path fill="none" stroke="midnightblue" d="M1425.05,-180.57C1428.25,-180.02 1431.42,-179.49 1434.5,-179 1483.38,-171.22 1613.54,-154.07 1696.19,-143.33"/>
<polygon fill="midnightblue" stroke="midnightblue" points="1696.81,-146.78 1706.28,-142.02 1695.91,-139.84 1696.81,-146.78"/>
</g>
<!-- Node26 -->
<g id="node26" class="node">
<title>Node26</title>
<g id="a_node26"><a xlink:title=" ">
<polygon fill="white" stroke="#bfbfbf" points="1849,-123.5 1849,-142.5 1908,-142.5 1908,-123.5 1849,-123.5"/>
<text text-anchor="middle" x="1878.5" y="-130.5" font-family="Helvetica,sans-Serif" font-size="10.00">G4Tet.hh</text>
</a>
</g>
</g>
<!-- Node12&#45;&gt;Node26 -->
<g id="edge25" class="edge">
<title>Node12&#45;&gt;Node26</title>
<path fill="none" stroke="midnightblue" d="M1425.03,-180.41C1428.23,-179.9 1431.41,-179.42 1434.5,-179 1610.33,-155.09 1659.28,-170.79 1838.73,-142.89"/>
<polygon fill="midnightblue" stroke="midnightblue" points="1839.44,-146.32 1848.77,-141.31 1838.35,-139.41 1839.44,-146.32"/>
</g>
<!-- Node27 -->
<g id="node27" class="node">
<title>Node27</title>
<g id="a_node27"><a xlink:title=" ">
<polygon fill="white" stroke="#bfbfbf" points="1926.5,-123.5 1926.5,-142.5 2030.5,-142.5 2030.5,-123.5 1926.5,-123.5"/>
<text text-anchor="middle" x="1978.5" y="-130.5" font-family="Helvetica,sans-Serif" font-size="10.00">G4UIcommand.hh</text>
</a>
</g>
</g>
<!-- Node12&#45;&gt;Node27 -->
<g id="edge26" class="edge">
<title>Node12&#45;&gt;Node27</title>
<path fill="none" stroke="midnightblue" d="M1425.02,-180.36C1428.22,-179.86 1431.41,-179.4 1434.5,-179 1644.77,-151.93 1701.83,-166.27 1916.29,-143.05"/>
<polygon fill="midnightblue" stroke="midnightblue" points="1916.73,-146.53 1926.29,-141.96 1915.97,-139.57 1916.73,-146.53"/>
</g>
<!-- Node28 -->
<g id="node28" class="node">
<title>Node28</title>
<g id="a_node28"><a xlink:title=" ">
<polygon fill="white" stroke="#bfbfbf" points="2049,-123.5 2049,-142.5 2116,-142.5 2116,-123.5 2049,-123.5"/>
<text text-anchor="middle" x="2082.5" y="-130.5" font-family="Helvetica,sans-Serif" font-size="10.00">globals.hh</text>
</a>
</g>
</g>
<!-- Node12&#45;&gt;Node28 -->
<g id="edge27" class="edge">
<title>Node12&#45;&gt;Node28</title>
<path fill="none" stroke="midnightblue" d="M1425.02,-180.31C1428.22,-179.82 1431.41,-179.37 1434.5,-179 1698.65,-147 1770.76,-177.91 2038.75,-142.88"/>
<polygon fill="midnightblue" stroke="midnightblue" points="2039.33,-146.33 2048.78,-141.55 2038.41,-139.39 2039.33,-146.33"/>
</g>
<!-- Node29 -->
<g id="node29" class="node">
<title>Node29</title>
<g id="a_node29"><a xlink:title=" ">
<polygon fill="white" stroke="#bfbfbf" points="2134,-123.5 2134,-142.5 2189,-142.5 2189,-123.5 2134,-123.5"/>
<text text-anchor="middle" x="2161.5" y="-130.5" font-family="Helvetica,sans-Serif" font-size="10.00">fstream</text>
</a>
</g>
</g>
<!-- Node12&#45;&gt;Node29 -->
<g id="edge28" class="edge">
<title>Node12&#45;&gt;Node29</title>
<path fill="none" stroke="midnightblue" d="M1425.01,-180.29C1428.22,-179.8 1431.41,-179.36 1434.5,-179 1736.65,-143.53 1819.58,-187.54 2123.71,-143"/>
<polygon fill="midnightblue" stroke="midnightblue" points="2124.32,-146.44 2133.7,-141.51 2123.29,-139.52 2124.32,-146.44"/>
</g>
<!-- Node30 -->
<g id="node30" class="node">
<title>Node30</title>
<g id="a_node30"><a xlink:title=" ">
<polygon fill="white" stroke="#bfbfbf" points="2207.5,-123.5 2207.5,-142.5 2263.5,-142.5 2263.5,-123.5 2207.5,-123.5"/>
<text text-anchor="middle" x="2235.5" y="-130.5" font-family="Helvetica,sans-Serif" font-size="10.00">sstream</text>
</a>
</g>
</g>
<!-- Node12&#45;&gt;Node30 -->
<g id="edge29" class="edge">
<title>Node12&#45;&gt;Node30</title>
<path fill="none" stroke="midnightblue" d="M1425.01,-180.27C1428.21,-179.79 1431.41,-179.36 1434.5,-179 1768.91,-140.59 1860.25,-190.4 2197.28,-142.88"/>
<polygon fill="midnightblue" stroke="midnightblue" points="2197.92,-146.32 2207.33,-141.44 2196.93,-139.39 2197.92,-146.32"/>
</g>
<!-- Node31 -->
<g id="node31" class="node">
<title>Node31</title>
<g id="a_node31"><a xlink:title=" ">
<polygon fill="white" stroke="#bfbfbf" points="2282,-123.5 2282,-142.5 2349,-142.5 2349,-123.5 2282,-123.5"/>
<text text-anchor="middle" x="2315.5" y="-130.5" font-family="Helvetica,sans-Serif" font-size="10.00">streambuf</text>
</a>
</g>
</g>
<!-- Node12&#45;&gt;Node31 -->
<g id="edge30" class="edge">
<title>Node12&#45;&gt;Node31</title>
<path fill="none" stroke="midnightblue" d="M1425.01,-180.26C1428.21,-179.78 1431.41,-179.35 1434.5,-179 1801.68,-137.59 1900.87,-188.43 2271.85,-142.84"/>
<polygon fill="midnightblue" stroke="midnightblue" points="2272.3,-146.31 2281.79,-141.6 2271.43,-139.36 2272.3,-146.31"/>
</g>
<!-- Node32 -->
<g id="node32" class="node">
<title>Node32</title>
<g id="a_node32"><a xlink:title=" ">
<polygon fill="white" stroke="#bfbfbf" points="2367.5,-123.5 2367.5,-142.5 2453.5,-142.5 2453.5,-123.5 2367.5,-123.5"/>
<text text-anchor="middle" x="2410.5" y="-130.5" font-family="Helvetica,sans-Serif" font-size="10.00">Randomize.hh</text>
</a>
</g>
</g>
<!-- Node12&#45;&gt;Node32 -->
<g id="edge31" class="edge">
<title>Node12&#45;&gt;Node32</title>
<path fill="none" stroke="midnightblue" d="M1425.01,-180.24C1428.21,-179.77 1431.41,-179.34 1434.5,-179 1839.69,-134.13 1948.05,-185.3 2357.4,-142.96"/>
<polygon fill="midnightblue" stroke="midnightblue" points="2357.85,-146.43 2367.43,-141.91 2357.12,-139.47 2357.85,-146.43"/>
</g>
</g>
</svg>
