<?xml version="1.0" encoding="UTF-8" standalone="no"?>
<!DOCTYPE svg PUBLIC "-//W3C//DTD SVG 1.1//EN"
 "http://www.w3.org/Graphics/SVG/1.1/DTD/svg11.dtd">
<!-- Generated by graphviz version 2.43.0 (0)
 -->
<!-- Title: OMSimMDOM.hh Pages: 1 -->
<svg width="670pt" height="196pt"
 viewBox="0.00 0.00 669.50 196.00" xmlns="http://www.w3.org/2000/svg" xmlns:xlink="http://www.w3.org/1999/xlink">
<g id="graph0" class="graph" transform="scale(1 1) rotate(0) translate(4 192)">
<title>OMSimMDOM.hh</title>
<polygon fill="white" stroke="transparent" points="-4,4 -4,-192 665.5,-192 665.5,4 -4,4"/>
<!-- Node1 -->
<g id="node1" class="node">
<title>Node1</title>
<g id="a_node1"><a xlink:title=" ">
<polygon fill="#bfbfbf" stroke="black" points="210,-168.5 210,-187.5 310,-187.5 310,-168.5 210,-168.5"/>
<text text-anchor="middle" x="260" y="-175.5" font-family="Helvetica,sans-Serif" font-size="10.00">OMSimMDOM.hh</text>
</a>
</g>
</g>
<!-- Node2 -->
<g id="node2" class="node">
<title>Node2</title>
<g id="a_node2"><a xlink:href="_o_m_sim_m_d_o_m_8cc.html" target="_top" xlink:title="Construction of mDOM.">
<polygon fill="white" stroke="black" points="0,-112.5 0,-131.5 98,-131.5 98,-112.5 0,-112.5"/>
<text text-anchor="middle" x="49" y="-119.5" font-family="Helvetica,sans-Serif" font-size="10.00">OMSimMDOM.cc</text>
</a>
</g>
</g>
<!-- Node1&#45;&gt;Node2 -->
<g id="edge1" class="edge">
<title>Node1&#45;&gt;Node2</title>
<path fill="none" stroke="midnightblue" d="M216.86,-165.96C177.01,-155.76 118.64,-140.82 82.28,-131.52"/>
<polygon fill="midnightblue" stroke="midnightblue" points="216.01,-169.35 226.57,-168.44 217.75,-162.57 216.01,-169.35"/>
</g>
<!-- Node3 -->
<g id="node3" class="node">
<title>Node3</title>
<g id="a_node3"><a xlink:href="_o_m_sim_m_d_o_m_flasher_8cc.html" target="_top" xlink:title=" ">
<polygon fill="white" stroke="black" points="116,-112.5 116,-131.5 250,-131.5 250,-112.5 116,-112.5"/>
<text text-anchor="middle" x="183" y="-119.5" font-family="Helvetica,sans-Serif" font-size="10.00">OMSimMDOMFlasher.cc</text>
</a>
</g>
</g>
<!-- Node1&#45;&gt;Node3 -->
<g id="edge2" class="edge">
<title>Node1&#45;&gt;Node3</title>
<path fill="none" stroke="midnightblue" d="M239.1,-162.34C225.09,-152.52 207.12,-139.91 195.34,-131.65"/>
<polygon fill="midnightblue" stroke="midnightblue" points="237.43,-165.45 247.63,-168.32 241.45,-159.72 237.43,-165.45"/>
</g>
<!-- Node4 -->
<g id="node4" class="node">
<title>Node4</title>
<g id="a_node4"><a xlink:href="_o_m_sim_m_d_o_m_harness_8cc.html" target="_top" xlink:title="Construction of mDOM harness.">
<polygon fill="white" stroke="black" points="268,-112.5 268,-131.5 406,-131.5 406,-112.5 268,-112.5"/>
<text text-anchor="middle" x="337" y="-119.5" font-family="Helvetica,sans-Serif" font-size="10.00">OMSimMDOMHarness.cc</text>
</a>
</g>
</g>
<!-- Node1&#45;&gt;Node4 -->
<g id="edge3" class="edge">
<title>Node1&#45;&gt;Node4</title>
<path fill="none" stroke="midnightblue" d="M280.9,-162.34C294.91,-152.52 312.88,-139.91 324.66,-131.65"/>
<polygon fill="midnightblue" stroke="midnightblue" points="278.55,-159.72 272.37,-168.32 282.57,-165.45 278.55,-159.72"/>
</g>
<!-- Node5 -->
<g id="node5" class="node">
<title>Node5</title>
<g id="a_node5"><a xlink:href="_o_m_sim_detector_construction_8hh.html" target="_top" xlink:title=" ">
<polygon fill="white" stroke="black" points="424,-112.5 424,-131.5 594,-131.5 594,-112.5 424,-112.5"/>
<text text-anchor="middle" x="509" y="-119.5" font-family="Helvetica,sans-Serif" font-size="10.00">OMSimDetectorConstruction.hh</text>
</a>
</g>
</g>
<!-- Node1&#45;&gt;Node5 -->
<g id="edge4" class="edge">
<title>Node1&#45;&gt;Node5</title>
<path fill="none" stroke="midnightblue" d="M309.42,-166.28C356.48,-156.08 426.37,-140.92 469.73,-131.52"/>
<polygon fill="midnightblue" stroke="midnightblue" points="308.49,-162.9 299.45,-168.44 309.97,-169.74 308.49,-162.9"/>
</g>
<!-- Node6 -->
<g id="node6" class="node">
<title>Node6</title>
<g id="a_node6"><a xlink:href="_o_m_sim_8hh.html" target="_top" xlink:title="Main simulation class for the Optical Module (OM) simulation.">
<polygon fill="white" stroke="black" points="407.5,-56.5 407.5,-75.5 474.5,-75.5 474.5,-56.5 407.5,-56.5"/>
<text text-anchor="middle" x="441" y="-63.5" font-family="Helvetica,sans-Serif" font-size="10.00">OMSim.hh</text>
</a>
</g>
</g>
<!-- Node5&#45;&gt;Node6 -->
<g id="edge5" class="edge">
<title>Node5&#45;&gt;Node6</title>
<path fill="none" stroke="midnightblue" d="M490.24,-106.1C478,-96.38 462.44,-84.03 452.12,-75.83"/>
<polygon fill="midnightblue" stroke="midnightblue" points="488.07,-108.85 498.07,-112.32 492.42,-103.36 488.07,-108.85"/>
</g>
<!-- Node9 -->
<g id="node9" class="node">
<title>Node9</title>
<g id="a_node9"><a xlink:href="_o_m_sim_detector_construction_8cc.html" target="_top" xlink:title=" ">
<polygon fill="white" stroke="black" points="492.5,-56.5 492.5,-75.5 661.5,-75.5 661.5,-56.5 492.5,-56.5"/>
<text text-anchor="middle" x="577" y="-63.5" font-family="Helvetica,sans-Serif" font-size="10.00">OMSimDetectorConstruction.cc</text>
</a>
</g>
</g>
<!-- Node5&#45;&gt;Node9 -->
<g id="edge8" class="edge">
<title>Node5&#45;&gt;Node9</title>
<path fill="none" stroke="midnightblue" d="M527.76,-106.1C540,-96.38 555.56,-84.03 565.88,-75.83"/>
<polygon fill="midnightblue" stroke="midnightblue" points="525.58,-103.36 519.93,-112.32 529.93,-108.85 525.58,-103.36"/>
</g>
<!-- Node7 -->
<g id="node7" class="node">
<title>Node7</title>
<g id="a_node7"><a xlink:href="_o_m_sim_8cc.html" target="_top" xlink:title=" ">
<polygon fill="white" stroke="black" points="348.5,-0.5 348.5,-19.5 413.5,-19.5 413.5,-0.5 348.5,-0.5"/>
<text text-anchor="middle" x="381" y="-7.5" font-family="Helvetica,sans-Serif" font-size="10.00">OMSim.cc</text>
</a>
</g>
</g>
<!-- Node6&#45;&gt;Node7 -->
<g id="edge6" class="edge">
<title>Node6&#45;&gt;Node7</title>
<path fill="none" stroke="midnightblue" d="M423.82,-49.54C413.12,-39.91 399.74,-27.87 390.82,-19.83"/>
<polygon fill="midnightblue" stroke="midnightblue" points="421.59,-52.24 431.36,-56.32 426.27,-47.03 421.59,-52.24"/>
</g>
<!-- Node8 -->
<g id="node8" class="node">
<title>Node8</title>
<g id="a_node8"><a xlink:href="_o_m_sim__effective__area_8cc.html" target="_top" xlink:title="Main for the calculation of effective areas.">
<polygon fill="white" stroke="black" points="432,-0.5 432,-19.5 572,-19.5 572,-0.5 432,-0.5"/>
<text text-anchor="middle" x="502" y="-7.5" font-family="Helvetica,sans-Serif" font-size="10.00">OMSim_effective_area.cc</text>
</a>
</g>
</g>
<!-- Node6&#45;&gt;Node8 -->
<g id="edge7" class="edge">
<title>Node6&#45;&gt;Node8</title>
<path fill="none" stroke="midnightblue" d="M458.47,-49.54C469.34,-39.91 482.94,-27.87 492.02,-19.83"/>
<polygon fill="midnightblue" stroke="midnightblue" points="455.97,-47.07 450.8,-56.32 460.61,-52.32 455.97,-47.07"/>
</g>
</g>
</svg>
