<?xml version="1.0" encoding="UTF-8" standalone="no"?>
<!DOCTYPE svg PUBLIC "-//W3C//DTD SVG 1.1//EN"
 "http://www.w3.org/Graphics/SVG/1.1/DTD/svg11.dtd">
<!-- Generated by graphviz version 2.43.0 (0)
 -->
<!-- Title: OMSimIBD.cc Pages: 1 -->
<svg width="2327pt" height="263pt"
 viewBox="0.00 0.00 2327.00 263.00" xmlns="http://www.w3.org/2000/svg" xmlns:xlink="http://www.w3.org/1999/xlink">
<g id="graph0" class="graph" transform="scale(1 1) rotate(0) translate(4 259)">
<title>OMSimIBD.cc</title>
<polygon fill="white" stroke="transparent" points="-4,4 -4,-259 2323,-259 2323,4 -4,4"/>
<!-- Node1 -->
<g id="node1" class="node">
<title>Node1</title>
<g id="a_node1"><a xlink:title=" ">
<polygon fill="#bfbfbf" stroke="black" points="1296,-235.5 1296,-254.5 1379,-254.5 1379,-235.5 1296,-235.5"/>
<text text-anchor="middle" x="1337.5" y="-242.5" font-family="Helvetica,sans-Serif" font-size="10.00">OMSimIBD.cc</text>
</a>
</g>
</g>
<!-- Node2 -->
<g id="node2" class="node">
<title>Node2</title>
<g id="a_node2"><a xlink:href="_o_m_sim_i_b_d_8hh.html" target="_top" xlink:title="This file contains the class in charge of generating positrons from IBD of supernova antineutrino int...">
<polygon fill="white" stroke="black" points="267.5,-179.5 267.5,-198.5 351.5,-198.5 351.5,-179.5 267.5,-179.5"/>
<text text-anchor="middle" x="309.5" y="-186.5" font-family="Helvetica,sans-Serif" font-size="10.00">OMSimIBD.hh</text>
</a>
</g>
</g>
<!-- Node1&#45;&gt;Node2 -->
<g id="edge1" class="edge">
<title>Node1&#45;&gt;Node2</title>
<path fill="none" stroke="midnightblue" d="M1295.93,-241.82C1133.43,-233.28 541.32,-202.18 361.58,-192.74"/>
<polygon fill="midnightblue" stroke="midnightblue" points="361.76,-189.24 351.59,-192.21 361.39,-196.23 361.76,-189.24"/>
</g>
<!-- Node7 -->
<g id="node7" class="node">
<title>Node7</title>
<g id="a_node7"><a xlink:href="_o_m_sim_s_n_tools_8hh.html" target="_top" xlink:title="Provides the definition for the OMSimSNTools class, centralizing utility methods for Supernova (SN) n...">
<polygon fill="white" stroke="black" points="21,-118 21,-137 126,-137 126,-118 21,-118"/>
<text text-anchor="middle" x="73.5" y="-125" font-family="Helvetica,sans-Serif" font-size="10.00">OMSimSNTools.hh</text>
</a>
</g>
</g>
<!-- Node1&#45;&gt;Node7 -->
<g id="edge42" class="edge">
<title>Node1&#45;&gt;Node7</title>
<path fill="none" stroke="midnightblue" d="M1295.95,-244.05C1123.32,-243.98 462.23,-240.91 258.5,-199 199.42,-186.85 134.4,-158.22 99.35,-141.42"/>
<polygon fill="midnightblue" stroke="midnightblue" points="100.81,-138.24 90.29,-137.02 97.75,-144.54 100.81,-138.24"/>
</g>
<!-- Node8 -->
<g id="node8" class="node">
<title>Node8</title>
<g id="a_node8"><a xlink:href="_o_m_sim_s_n_analysis_8hh.html" target="_top" xlink:title=" ">
<polygon fill="white" stroke="black" points="554.5,-179.5 554.5,-198.5 676.5,-198.5 676.5,-179.5 554.5,-179.5"/>
<text text-anchor="middle" x="615.5" y="-186.5" font-family="Helvetica,sans-Serif" font-size="10.00">OMSimSNAnalysis.hh</text>
</a>
</g>
</g>
<!-- Node1&#45;&gt;Node8 -->
<g id="edge10" class="edge">
<title>Node1&#45;&gt;Node8</title>
<path fill="none" stroke="midnightblue" d="M1295.83,-240.88C1177.13,-232.01 836.24,-206.51 686.96,-195.34"/>
<polygon fill="midnightblue" stroke="midnightblue" points="686.78,-191.82 676.55,-194.57 686.26,-198.8 686.78,-191.82"/>
</g>
<!-- Node13 -->
<g id="node13" class="node">
<title>Node13</title>
<g id="a_node13"><a xlink:title=" ">
<polygon fill="white" stroke="#bfbfbf" points="826,-0.5 826,-19.5 945,-19.5 945,-0.5 826,-0.5"/>
<text text-anchor="middle" x="885.5" y="-7.5" font-family="Helvetica,sans-Serif" font-size="10.00">G4SystemOfUnits.hh</text>
</a>
</g>
</g>
<!-- Node1&#45;&gt;Node13 -->
<g id="edge40" class="edge">
<title>Node1&#45;&gt;Node13</title>
<path fill="none" stroke="midnightblue" d="M1295.67,-242.61C1192.42,-238.75 931.82,-226.39 904.5,-199 859.16,-153.53 872.05,-67.68 880.63,-29.78"/>
<polygon fill="midnightblue" stroke="midnightblue" points="884.13,-30.2 883.08,-19.66 877.32,-28.55 884.13,-30.2"/>
</g>
<!-- Node19 -->
<g id="node19" class="node">
<title>Node19</title>
<g id="a_node19"><a xlink:href="_o_m_sim_command_args_table_8hh.html" target="_top" xlink:title="Definition of the OMSimCommandArgsTable singleton class, which controls user args.">
<polygon fill="white" stroke="black" points="913.5,-179.5 913.5,-198.5 1077.5,-198.5 1077.5,-179.5 913.5,-179.5"/>
<text text-anchor="middle" x="995.5" y="-186.5" font-family="Helvetica,sans-Serif" font-size="10.00">OMSimCommandArgsTable.hh</text>
</a>
</g>
</g>
<!-- Node1&#45;&gt;Node19 -->
<g id="edge26" class="edge">
<title>Node1&#45;&gt;Node19</title>
<path fill="none" stroke="midnightblue" d="M1295.91,-237.43C1236.95,-228.12 1128.56,-211.01 1059.36,-200.08"/>
<polygon fill="midnightblue" stroke="midnightblue" points="1059.87,-196.62 1049.45,-198.52 1058.78,-203.53 1059.87,-196.62"/>
</g>
<!-- Node25 -->
<g id="node25" class="node">
<title>Node25</title>
<g id="a_node25"><a xlink:title=" ">
<polygon fill="white" stroke="#bfbfbf" points="1096,-179.5 1096,-198.5 1169,-198.5 1169,-179.5 1096,-179.5"/>
<text text-anchor="middle" x="1132.5" y="-186.5" font-family="Helvetica,sans-Serif" font-size="10.00">G4Event.hh</text>
</a>
</g>
</g>
<!-- Node1&#45;&gt;Node25 -->
<g id="edge33" class="edge">
<title>Node1&#45;&gt;Node25</title>
<path fill="none" stroke="midnightblue" d="M1305.02,-235.44C1269.78,-226.16 1213.4,-211.31 1174.74,-201.13"/>
<polygon fill="midnightblue" stroke="midnightblue" points="1175.39,-197.68 1164.83,-198.52 1173.61,-204.45 1175.39,-197.68"/>
</g>
<!-- Node26 -->
<g id="node26" class="node">
<title>Node26</title>
<g id="a_node26"><a xlink:title=" ">
<polygon fill="white" stroke="#bfbfbf" points="1187.5,-179.5 1187.5,-198.5 1339.5,-198.5 1339.5,-179.5 1187.5,-179.5"/>
<text text-anchor="middle" x="1263.5" y="-186.5" font-family="Helvetica,sans-Serif" font-size="10.00">G4GeneralParticleSource.hh</text>
</a>
</g>
</g>
<!-- Node1&#45;&gt;Node26 -->
<g id="edge34" class="edge">
<title>Node1&#45;&gt;Node26</title>
<path fill="none" stroke="midnightblue" d="M1325.61,-235.32C1314.35,-227.11 1297.21,-214.6 1283.79,-204.81"/>
<polygon fill="midnightblue" stroke="midnightblue" points="1285.75,-201.9 1275.61,-198.83 1281.62,-207.56 1285.75,-201.9"/>
</g>
<!-- Node27 -->
<g id="node27" class="node">
<title>Node27</title>
<g id="a_node27"><a xlink:title=" ">
<polygon fill="white" stroke="#bfbfbf" points="1358,-179.5 1358,-198.5 1467,-198.5 1467,-179.5 1358,-179.5"/>
<text text-anchor="middle" x="1412.5" y="-186.5" font-family="Helvetica,sans-Serif" font-size="10.00">G4ParticleTypes.hh</text>
</a>
</g>
</g>
<!-- Node1&#45;&gt;Node27 -->
<g id="edge35" class="edge">
<title>Node1&#45;&gt;Node27</title>
<path fill="none" stroke="midnightblue" d="M1349.55,-235.32C1360.96,-227.11 1378.33,-214.6 1391.93,-204.81"/>
<polygon fill="midnightblue" stroke="midnightblue" points="1394.16,-207.52 1400.23,-198.83 1390.07,-201.84 1394.16,-207.52"/>
</g>
<!-- Node28 -->
<g id="node28" class="node">
<title>Node28</title>
<g id="a_node28"><a xlink:title=" ">
<polygon fill="white" stroke="#bfbfbf" points="1485,-179.5 1485,-198.5 1586,-198.5 1586,-179.5 1485,-179.5"/>
<text text-anchor="middle" x="1535.5" y="-186.5" font-family="Helvetica,sans-Serif" font-size="10.00">G4ParticleGun.hh</text>
</a>
</g>
</g>
<!-- Node1&#45;&gt;Node28 -->
<g id="edge36" class="edge">
<title>Node1&#45;&gt;Node28</title>
<path fill="none" stroke="midnightblue" d="M1368.87,-235.44C1402.76,-226.2 1456.9,-211.44 1494.22,-201.26"/>
<polygon fill="midnightblue" stroke="midnightblue" points="1495.55,-204.52 1504.27,-198.52 1493.7,-197.77 1495.55,-204.52"/>
</g>
<!-- Node29 -->
<g id="node29" class="node">
<title>Node29</title>
<g id="a_node29"><a xlink:title=" ">
<polygon fill="white" stroke="#bfbfbf" points="1604,-179.5 1604,-198.5 1711,-198.5 1711,-179.5 1604,-179.5"/>
<text text-anchor="middle" x="1657.5" y="-186.5" font-family="Helvetica,sans-Serif" font-size="10.00">G4ParticleTable.hh</text>
</a>
</g>
</g>
<!-- Node1&#45;&gt;Node29 -->
<g id="edge37" class="edge">
<title>Node1&#45;&gt;Node29</title>
<path fill="none" stroke="midnightblue" d="M1379.01,-237C1434.55,-227.62 1533.43,-210.94 1597.19,-200.18"/>
<polygon fill="midnightblue" stroke="midnightblue" points="1597.83,-203.62 1607.11,-198.5 1596.67,-196.72 1597.83,-203.62"/>
</g>
<!-- Node30 -->
<g id="node30" class="node">
<title>Node30</title>
<g id="a_node30"><a xlink:title=" ">
<polygon fill="white" stroke="#bfbfbf" points="1729.5,-179.5 1729.5,-198.5 1857.5,-198.5 1857.5,-179.5 1729.5,-179.5"/>
<text text-anchor="middle" x="1793.5" y="-186.5" font-family="Helvetica,sans-Serif" font-size="10.00">G4ParticleDefinition.hh</text>
</a>
</g>
</g>
<!-- Node1&#45;&gt;Node30 -->
<g id="edge38" class="edge">
<title>Node1&#45;&gt;Node30</title>
<path fill="none" stroke="midnightblue" d="M1379.16,-239.18C1447.74,-231.24 1588.96,-214.81 1719.25,-199.15"/>
<polygon fill="midnightblue" stroke="midnightblue" points="1719.9,-202.59 1729.41,-197.92 1719.06,-195.64 1719.9,-202.59"/>
</g>
<!-- Node31 -->
<g id="node31" class="node">
<title>Node31</title>
<g id="a_node31"><a xlink:title=" ">
<polygon fill="white" stroke="#bfbfbf" points="1875.5,-179.5 1875.5,-198.5 2009.5,-198.5 2009.5,-179.5 1875.5,-179.5"/>
<text text-anchor="middle" x="1942.5" y="-186.5" font-family="Helvetica,sans-Serif" font-size="10.00">G4PhysicalConstants.hh</text>
</a>
</g>
</g>
<!-- Node1&#45;&gt;Node31 -->
<g id="edge39" class="edge">
<title>Node1&#45;&gt;Node31</title>
<path fill="none" stroke="midnightblue" d="M1379.04,-240.94C1466.76,-234.36 1677.58,-218.03 1865.32,-199.09"/>
<polygon fill="midnightblue" stroke="midnightblue" points="1865.78,-202.56 1875.38,-198.07 1865.07,-195.6 1865.78,-202.56"/>
</g>
<!-- Node32 -->
<g id="node32" class="node">
<title>Node32</title>
<g id="a_node32"><a xlink:title=" ">
<polygon fill="white" stroke="#bfbfbf" points="2027.5,-179.5 2027.5,-198.5 2113.5,-198.5 2113.5,-179.5 2027.5,-179.5"/>
<text text-anchor="middle" x="2070.5" y="-186.5" font-family="Helvetica,sans-Serif" font-size="10.00">Randomize.hh</text>
</a>
</g>
</g>
<!-- Node1&#45;&gt;Node32 -->
<g id="edge41" class="edge">
<title>Node1&#45;&gt;Node32</title>
<path fill="none" stroke="midnightblue" d="M1379.1,-242.78C1484.25,-239.36 1769.37,-228.07 2017.14,-199.03"/>
<polygon fill="midnightblue" stroke="midnightblue" points="2017.9,-202.47 2027.42,-197.82 2017.08,-195.52 2017.9,-202.47"/>
</g>
<!-- Node33 -->
<g id="node33" class="node">
<title>Node33</title>
<g id="a_node33"><a xlink:href="_o_m_sim_input_data_8hh.html" target="_top" xlink:title="Input data from external files are read and saved to memory.">
<polygon fill="white" stroke="black" points="2132,-179.5 2132,-198.5 2247,-198.5 2247,-179.5 2132,-179.5"/>
<text text-anchor="middle" x="2189.5" y="-186.5" font-family="Helvetica,sans-Serif" font-size="10.00">OMSimInputData.hh</text>
</a>
</g>
</g>
<!-- Node1&#45;&gt;Node33 -->
<g id="edge43" class="edge">
<title>Node1&#45;&gt;Node33</title>
<path fill="none" stroke="midnightblue" d="M1379.29,-242.73C1495.27,-238.96 1831.18,-226.41 2121.48,-199.02"/>
<polygon fill="midnightblue" stroke="midnightblue" points="2122.17,-202.47 2131.79,-198.04 2121.5,-195.5 2122.17,-202.47"/>
</g>
<!-- Node3 -->
<g id="node3" class="node">
<title>Node3</title>
<g id="a_node3"><a xlink:title=" ">
<polygon fill="white" stroke="#bfbfbf" points="144.5,-118 144.5,-137 336.5,-137 336.5,-118 144.5,-118"/>
<text text-anchor="middle" x="240.5" y="-125" font-family="Helvetica,sans-Serif" font-size="10.00">G4VUserPrimaryGeneratorAction.hh</text>
</a>
</g>
</g>
<!-- Node2&#45;&gt;Node3 -->
<g id="edge2" class="edge">
<title>Node2&#45;&gt;Node3</title>
<path fill="none" stroke="midnightblue" d="M299.61,-179.48C288.85,-170.2 271.43,-155.17 258.28,-143.83"/>
<polygon fill="midnightblue" stroke="midnightblue" points="260.23,-140.89 250.37,-137.01 255.66,-146.19 260.23,-140.89"/>
</g>
<!-- Node4 -->
<g id="node4" class="node">
<title>Node4</title>
<g id="a_node4"><a xlink:title=" ">
<polygon fill="white" stroke="#bfbfbf" points="0,-56.5 0,-75.5 67,-75.5 67,-56.5 0,-56.5"/>
<text text-anchor="middle" x="33.5" y="-63.5" font-family="Helvetica,sans-Serif" font-size="10.00">globals.hh</text>
</a>
</g>
</g>
<!-- Node2&#45;&gt;Node4 -->
<g id="edge3" class="edge">
<title>Node2&#45;&gt;Node4</title>
<path fill="none" stroke="midnightblue" d="M267.34,-188.09C193.15,-187.25 44,-180.78 11.5,-143 -2.86,-126.31 9.39,-100.72 20.56,-83.92"/>
<polygon fill="midnightblue" stroke="midnightblue" points="23.53,-85.78 26.47,-75.6 17.82,-81.72 23.53,-85.78"/>
</g>
<!-- Node5 -->
<g id="node5" class="node">
<title>Node5</title>
<g id="a_node5"><a xlink:title=" ">
<polygon fill="white" stroke="#bfbfbf" points="320,-56.5 320,-75.5 367,-75.5 367,-56.5 320,-56.5"/>
<text text-anchor="middle" x="343.5" y="-63.5" font-family="Helvetica,sans-Serif" font-size="10.00">vector</text>
</a>
</g>
</g>
<!-- Node2&#45;&gt;Node5 -->
<g id="edge4" class="edge">
<title>Node2&#45;&gt;Node5</title>
<path fill="none" stroke="midnightblue" d="M319.66,-179.19C328.41,-170.87 340.4,-157.54 345.5,-143 352.04,-124.36 350.25,-101.54 347.63,-85.79"/>
<polygon fill="midnightblue" stroke="midnightblue" points="351.02,-84.9 345.69,-75.74 344.15,-86.23 351.02,-84.9"/>
</g>
<!-- Node6 -->
<g id="node6" class="node">
<title>Node6</title>
<g id="a_node6"><a xlink:title=" ">
<polygon fill="white" stroke="#bfbfbf" points="385,-56.5 385,-75.5 488,-75.5 488,-56.5 385,-56.5"/>
<text text-anchor="middle" x="436.5" y="-63.5" font-family="Helvetica,sans-Serif" font-size="10.00">G4ThreeVector.hh</text>
</a>
</g>
</g>
<!-- Node2&#45;&gt;Node6 -->
<g id="edge5" class="edge">
<title>Node2&#45;&gt;Node6</title>
<path fill="none" stroke="midnightblue" d="M320.32,-179.32C331.21,-170.47 348.39,-156.18 362.5,-143 383.82,-123.09 407.08,-98.72 421.73,-83.04"/>
<polygon fill="midnightblue" stroke="midnightblue" points="424.3,-85.41 428.54,-75.69 419.17,-80.64 424.3,-85.41"/>
</g>
<!-- Node2&#45;&gt;Node7 -->
<g id="edge6" class="edge">
<title>Node2&#45;&gt;Node7</title>
<path fill="none" stroke="midnightblue" d="M275.69,-179.48C233.98,-168.96 162.99,-151.06 117.19,-139.51"/>
<polygon fill="midnightblue" stroke="midnightblue" points="117.8,-136.06 107.25,-137.01 116.09,-142.85 117.8,-136.06"/>
</g>
<!-- Node7&#45;&gt;Node4 -->
<g id="edge7" class="edge">
<title>Node7&#45;&gt;Node4</title>
<path fill="none" stroke="midnightblue" d="M67.77,-117.98C61.83,-109.14 52.38,-95.09 44.91,-83.98"/>
<polygon fill="midnightblue" stroke="midnightblue" points="47.7,-81.86 39.22,-75.51 41.89,-85.76 47.7,-81.86"/>
</g>
<!-- Node7&#45;&gt;Node5 -->
<g id="edge8" class="edge">
<title>Node7&#45;&gt;Node5</title>
<path fill="none" stroke="midnightblue" d="M109.54,-117.96C118.05,-115.98 127.09,-113.89 135.5,-112 196.84,-98.19 268.55,-82.86 309.73,-74.12"/>
<polygon fill="midnightblue" stroke="midnightblue" points="310.71,-77.5 319.76,-72 309.26,-70.65 310.71,-77.5"/>
</g>
<!-- Node7&#45;&gt;Node6 -->
<g id="edge9" class="edge">
<title>Node7&#45;&gt;Node6</title>
<path fill="none" stroke="midnightblue" d="M107.83,-117.95C116.8,-115.85 126.49,-113.72 135.5,-112 141.35,-110.88 288.36,-89 374.73,-76.17"/>
<polygon fill="midnightblue" stroke="midnightblue" points="375.31,-79.62 384.69,-74.69 374.28,-72.7 375.31,-79.62"/>
</g>
<!-- Node8&#45;&gt;Node5 -->
<g id="edge23" class="edge">
<title>Node8&#45;&gt;Node5</title>
<path fill="none" stroke="midnightblue" d="M577.48,-179.43C546.77,-171.82 502.84,-159.38 466.5,-143 427.94,-125.63 386.86,-98.2 363.28,-81.48"/>
<polygon fill="midnightblue" stroke="midnightblue" points="365.31,-78.63 355.14,-75.64 361.22,-84.32 365.31,-78.63"/>
</g>
<!-- Node8&#45;&gt;Node6 -->
<g id="edge13" class="edge">
<title>Node8&#45;&gt;Node6</title>
<path fill="none" stroke="midnightblue" d="M582.53,-179.43C558.82,-172.22 526.86,-160.3 502.5,-143 479.66,-126.78 459.54,-101.07 447.69,-84.12"/>
<polygon fill="midnightblue" stroke="midnightblue" points="450.51,-82.03 442,-75.72 444.71,-85.96 450.51,-82.03"/>
</g>
<!-- Node9 -->
<g id="node9" class="node">
<title>Node9</title>
<g id="a_node9"><a xlink:title=" ">
<polygon fill="white" stroke="#bfbfbf" points="484,-0.5 484,-19.5 557,-19.5 557,-0.5 484,-0.5"/>
<text text-anchor="middle" x="520.5" y="-7.5" font-family="Helvetica,sans-Serif" font-size="10.00">G4Types.hh</text>
</a>
</g>
</g>
<!-- Node8&#45;&gt;Node9 -->
<g id="edge11" class="edge">
<title>Node8&#45;&gt;Node9</title>
<path fill="none" stroke="midnightblue" d="M586.75,-179.36C568.99,-172.46 547.39,-160.93 535.5,-143 512.52,-108.36 514.46,-57.06 517.63,-29.73"/>
<polygon fill="midnightblue" stroke="midnightblue" points="521.12,-29.99 518.99,-19.61 514.19,-29.05 521.12,-29.99"/>
</g>
<!-- Node10 -->
<g id="node10" class="node">
<title>Node10</title>
<g id="a_node10"><a xlink:title=" ">
<polygon fill="white" stroke="#bfbfbf" points="745.5,-118 745.5,-137 819.5,-137 819.5,-118 745.5,-118"/>
<text text-anchor="middle" x="782.5" y="-125" font-family="Helvetica,sans-Serif" font-size="10.00">G4String.hh</text>
</a>
</g>
</g>
<!-- Node8&#45;&gt;Node10 -->
<g id="edge12" class="edge">
<title>Node8&#45;&gt;Node10</title>
<path fill="none" stroke="midnightblue" d="M639.43,-179.48C668.2,-169.22 716.66,-151.96 749.1,-140.4"/>
<polygon fill="midnightblue" stroke="midnightblue" points="750.37,-143.66 758.62,-137.01 748.02,-137.07 750.37,-143.66"/>
</g>
<!-- Node11 -->
<g id="node11" class="node">
<title>Node11</title>
<g id="a_node11"><a xlink:href="_o_m_sim_hit_manager_8hh.html" target="_top" xlink:title="Defines structures and classes related to optical module photon hit management.">
<polygon fill="white" stroke="black" points="604,-118 604,-137 727,-137 727,-118 604,-118"/>
<text text-anchor="middle" x="665.5" y="-125" font-family="Helvetica,sans-Serif" font-size="10.00">OMSimHitManager.hh</text>
</a>
</g>
</g>
<!-- Node8&#45;&gt;Node11 -->
<g id="edge14" class="edge">
<title>Node8&#45;&gt;Node11</title>
<path fill="none" stroke="midnightblue" d="M622.66,-179.48C630.24,-170.46 642.37,-156.02 651.79,-144.81"/>
<polygon fill="midnightblue" stroke="midnightblue" points="654.6,-146.92 658.35,-137.01 649.24,-142.41 654.6,-146.92"/>
</g>
<!-- Node17 -->
<g id="node17" class="node">
<title>Node17</title>
<g id="a_node17"><a xlink:title=" ">
<polygon fill="white" stroke="#bfbfbf" points="802,-56.5 802,-75.5 857,-75.5 857,-56.5 802,-56.5"/>
<text text-anchor="middle" x="829.5" y="-63.5" font-family="Helvetica,sans-Serif" font-size="10.00">fstream</text>
</a>
</g>
</g>
<!-- Node8&#45;&gt;Node17 -->
<g id="edge24" class="edge">
<title>Node8&#45;&gt;Node17</title>
<path fill="none" stroke="midnightblue" d="M676.64,-183.43C732.61,-177.84 809.51,-166.11 828.5,-143 841.56,-127.11 839.09,-102.4 835.15,-85.5"/>
<polygon fill="midnightblue" stroke="midnightblue" points="838.49,-84.43 832.51,-75.69 831.73,-86.25 838.49,-84.43"/>
</g>
<!-- Node18 -->
<g id="node18" class="node">
<title>Node18</title>
<g id="a_node18"><a xlink:title=" ">
<polygon fill="white" stroke="#bfbfbf" points="545,-118 545,-137 586,-137 586,-118 545,-118"/>
<text text-anchor="middle" x="565.5" y="-125" font-family="Helvetica,sans-Serif" font-size="10.00">tuple</text>
</a>
</g>
</g>
<!-- Node8&#45;&gt;Node18 -->
<g id="edge25" class="edge">
<title>Node8&#45;&gt;Node18</title>
<path fill="none" stroke="midnightblue" d="M608.34,-179.48C600.76,-170.46 588.63,-156.02 579.21,-144.81"/>
<polygon fill="midnightblue" stroke="midnightblue" points="581.76,-142.41 572.65,-137.01 576.4,-146.92 581.76,-142.41"/>
</g>
<!-- Node11&#45;&gt;Node6 -->
<g id="edge21" class="edge">
<title>Node11&#45;&gt;Node6</title>
<path fill="none" stroke="midnightblue" d="M632.69,-117.98C592.3,-107.48 523.62,-89.64 479.17,-78.09"/>
<polygon fill="midnightblue" stroke="midnightblue" points="479.81,-74.64 469.25,-75.51 478.05,-81.41 479.81,-74.64"/>
</g>
<!-- Node12 -->
<g id="node12" class="node">
<title>Node12</title>
<g id="a_node12"><a xlink:href="_o_m_sim_p_m_t_response_8hh.html" target="_top" xlink:title="Provides simulation for PMT response. This class is responsible for transforming hits on photocathode...">
<polygon fill="white" stroke="black" points="598,-56.5 598,-75.5 733,-75.5 733,-56.5 598,-56.5"/>
<text text-anchor="middle" x="665.5" y="-63.5" font-family="Helvetica,sans-Serif" font-size="10.00">OMSimPMTResponse.hh</text>
</a>
</g>
</g>
<!-- Node11&#45;&gt;Node12 -->
<g id="edge15" class="edge">
<title>Node11&#45;&gt;Node12</title>
<path fill="none" stroke="midnightblue" d="M665.5,-117.98C665.5,-109.58 665.5,-96.48 665.5,-85.66"/>
<polygon fill="midnightblue" stroke="midnightblue" points="669,-85.51 665.5,-75.51 662,-85.51 669,-85.51"/>
</g>
<!-- Node11&#45;&gt;Node17 -->
<g id="edge22" class="edge">
<title>Node11&#45;&gt;Node17</title>
<path fill="none" stroke="midnightblue" d="M689,-117.98C717.13,-107.77 764.43,-90.61 796.29,-79.05"/>
<polygon fill="midnightblue" stroke="midnightblue" points="797.84,-82.21 806.05,-75.51 795.45,-75.63 797.84,-82.21"/>
</g>
<!-- Node12&#45;&gt;Node9 -->
<g id="edge17" class="edge">
<title>Node12&#45;&gt;Node9</title>
<path fill="none" stroke="midnightblue" d="M642.52,-56.44C618.34,-47.44 580.08,-33.19 552.85,-23.05"/>
<polygon fill="midnightblue" stroke="midnightblue" points="553.96,-19.73 543.37,-19.52 551.52,-26.29 553.96,-19.73"/>
</g>
<!-- Node12&#45;&gt;Node13 -->
<g id="edge16" class="edge">
<title>Node12&#45;&gt;Node13</title>
<path fill="none" stroke="midnightblue" d="M700.36,-56.44C738.42,-47.1 799.46,-32.12 840.96,-21.93"/>
<polygon fill="midnightblue" stroke="midnightblue" points="841.93,-25.3 850.8,-19.52 840.26,-18.5 841.93,-25.3"/>
</g>
<!-- Node14 -->
<g id="node14" class="node">
<title>Node14</title>
<g id="a_node14"><a xlink:title=" ">
<polygon fill="white" stroke="#bfbfbf" points="578.5,-0.5 578.5,-19.5 616.5,-19.5 616.5,-0.5 578.5,-0.5"/>
<text text-anchor="middle" x="597.5" y="-7.5" font-family="Helvetica,sans-Serif" font-size="10.00">map</text>
</a>
</g>
</g>
<!-- Node12&#45;&gt;Node14 -->
<g id="edge18" class="edge">
<title>Node12&#45;&gt;Node14</title>
<path fill="none" stroke="midnightblue" d="M654.57,-56.32C644.33,-48.18 628.78,-35.84 616.5,-26.09"/>
<polygon fill="midnightblue" stroke="midnightblue" points="618.63,-23.31 608.62,-19.83 614.28,-28.79 618.63,-23.31"/>
</g>
<!-- Node15 -->
<g id="node15" class="node">
<title>Node15</title>
<g id="a_node15"><a xlink:title=" ">
<polygon fill="white" stroke="#bfbfbf" points="635,-0.5 635,-19.5 696,-19.5 696,-0.5 635,-0.5"/>
<text text-anchor="middle" x="665.5" y="-7.5" font-family="Helvetica,sans-Serif" font-size="10.00">TGraph.h</text>
</a>
</g>
</g>
<!-- Node12&#45;&gt;Node15 -->
<g id="edge19" class="edge">
<title>Node12&#45;&gt;Node15</title>
<path fill="none" stroke="midnightblue" d="M665.5,-56.08C665.5,-49.01 665.5,-38.86 665.5,-29.99"/>
<polygon fill="midnightblue" stroke="midnightblue" points="669,-29.75 665.5,-19.75 662,-29.75 669,-29.75"/>
</g>
<!-- Node16 -->
<g id="node16" class="node">
<title>Node16</title>
<g id="a_node16"><a xlink:title=" ">
<polygon fill="white" stroke="#bfbfbf" points="714,-0.5 714,-19.5 767,-19.5 767,-0.5 714,-0.5"/>
<text text-anchor="middle" x="740.5" y="-7.5" font-family="Helvetica,sans-Serif" font-size="10.00">TH2D.h</text>
</a>
</g>
</g>
<!-- Node12&#45;&gt;Node16 -->
<g id="edge20" class="edge">
<title>Node12&#45;&gt;Node16</title>
<path fill="none" stroke="midnightblue" d="M677.55,-56.32C688.96,-48.11 706.33,-35.6 719.93,-25.81"/>
<polygon fill="midnightblue" stroke="midnightblue" points="722.16,-28.52 728.23,-19.83 718.07,-22.84 722.16,-28.52"/>
</g>
<!-- Node19&#45;&gt;Node17 -->
<g id="edge30" class="edge">
<title>Node19&#45;&gt;Node17</title>
<path fill="none" stroke="midnightblue" d="M983.83,-179.49C955.92,-159.15 885.03,-107.48 849.89,-81.86"/>
<polygon fill="midnightblue" stroke="midnightblue" points="851.52,-78.72 841.38,-75.66 847.4,-84.38 851.52,-78.72"/>
</g>
<!-- Node20 -->
<g id="node20" class="node">
<title>Node20</title>
<g id="a_node20"><a xlink:href="_o_m_sim_logger_8hh.html" target="_top" xlink:title=" ">
<polygon fill="white" stroke="black" points="952,-118 952,-137 1051,-137 1051,-118 952,-118"/>
<text text-anchor="middle" x="1001.5" y="-125" font-family="Helvetica,sans-Serif" font-size="10.00">OMSimLogger.hh</text>
</a>
</g>
</g>
<!-- Node19&#45;&gt;Node20 -->
<g id="edge27" class="edge">
<title>Node19&#45;&gt;Node20</title>
<path fill="none" stroke="midnightblue" d="M996.36,-179.48C997.21,-171.08 998.53,-157.98 999.62,-147.16"/>
<polygon fill="midnightblue" stroke="midnightblue" points="1003.12,-147.31 1000.64,-137.01 996.16,-146.61 1003.12,-147.31"/>
</g>
<!-- Node23 -->
<g id="node23" class="node">
<title>Node23</title>
<g id="a_node23"><a xlink:title=" ">
<polygon fill="white" stroke="#bfbfbf" points="1069.5,-118 1069.5,-137 1153.5,-137 1153.5,-118 1069.5,-118"/>
<text text-anchor="middle" x="1111.5" y="-125" font-family="Helvetica,sans-Serif" font-size="10.00">boost/any.hpp</text>
</a>
</g>
</g>
<!-- Node19&#45;&gt;Node23 -->
<g id="edge31" class="edge">
<title>Node19&#45;&gt;Node23</title>
<path fill="none" stroke="midnightblue" d="M1012.12,-179.48C1031.42,-169.58 1063.46,-153.14 1085.93,-141.62"/>
<polygon fill="midnightblue" stroke="midnightblue" points="1087.61,-144.69 1094.91,-137.01 1084.42,-138.46 1087.61,-144.69"/>
</g>
<!-- Node24 -->
<g id="node24" class="node">
<title>Node24</title>
<g id="a_node24"><a xlink:title=" ">
<polygon fill="white" stroke="#bfbfbf" points="1171.5,-118 1171.5,-137 1239.5,-137 1239.5,-118 1171.5,-118"/>
<text text-anchor="middle" x="1205.5" y="-125" font-family="Helvetica,sans-Serif" font-size="10.00">sys/time.h</text>
</a>
</g>
</g>
<!-- Node19&#45;&gt;Node24 -->
<g id="edge32" class="edge">
<title>Node19&#45;&gt;Node24</title>
<path fill="none" stroke="midnightblue" d="M1029.58,-179.48C1063.45,-170.85 1116.81,-156.85 1162.5,-143 1165.42,-142.11 1168.44,-141.17 1171.47,-140.19"/>
<polygon fill="midnightblue" stroke="midnightblue" points="1172.62,-143.5 1181.03,-137.05 1170.43,-136.85 1172.62,-143.5"/>
</g>
<!-- Node21 -->
<g id="node21" class="node">
<title>Node21</title>
<g id="a_node21"><a xlink:title=" ">
<polygon fill="white" stroke="#bfbfbf" points="945.5,-56.5 945.5,-75.5 995.5,-75.5 995.5,-56.5 945.5,-56.5"/>
<text text-anchor="middle" x="970.5" y="-63.5" font-family="Helvetica,sans-Serif" font-size="10.00">stdio.h</text>
</a>
</g>
</g>
<!-- Node20&#45;&gt;Node21 -->
<g id="edge28" class="edge">
<title>Node20&#45;&gt;Node21</title>
<path fill="none" stroke="midnightblue" d="M997.06,-117.98C992.55,-109.32 985.43,-95.65 979.69,-84.65"/>
<polygon fill="midnightblue" stroke="midnightblue" points="982.66,-82.76 974.93,-75.51 976.45,-85.99 982.66,-82.76"/>
</g>
<!-- Node22 -->
<g id="node22" class="node">
<title>Node22</title>
<g id="a_node22"><a xlink:title=" ">
<polygon fill="white" stroke="#bfbfbf" points="1013.5,-56.5 1013.5,-75.5 1061.5,-75.5 1061.5,-56.5 1013.5,-56.5"/>
<text text-anchor="middle" x="1037.5" y="-63.5" font-family="Helvetica,sans-Serif" font-size="10.00">time.h</text>
</a>
</g>
</g>
<!-- Node20&#45;&gt;Node22 -->
<g id="edge29" class="edge">
<title>Node20&#45;&gt;Node22</title>
<path fill="none" stroke="midnightblue" d="M1006.66,-117.98C1011.95,-109.23 1020.34,-95.37 1027.03,-84.31"/>
<polygon fill="midnightblue" stroke="midnightblue" points="1030.17,-85.88 1032.35,-75.51 1024.18,-82.25 1030.17,-85.88"/>
</g>
<!-- Node33&#45;&gt;Node13 -->
<g id="edge45" class="edge">
<title>Node33&#45;&gt;Node13</title>
<path fill="none" stroke="midnightblue" d="M2131.79,-180.17C1919.91,-151.41 1185.32,-51.7 955.08,-20.44"/>
<polygon fill="midnightblue" stroke="midnightblue" points="955.53,-16.97 945.15,-19.1 954.59,-23.91 955.53,-16.97"/>
</g>
<!-- Node34 -->
<g id="node34" class="node">
<title>Node34</title>
<g id="a_node34"><a xlink:title=" ">
<polygon fill="white" stroke="#bfbfbf" points="2045,-118 2045,-137 2188,-137 2188,-118 2045,-118"/>
<text text-anchor="middle" x="2116.5" y="-125" font-family="Helvetica,sans-Serif" font-size="10.00">G4OpBoundaryProcess.hh</text>
</a>
</g>
</g>
<!-- Node33&#45;&gt;Node34 -->
<g id="edge44" class="edge">
<title>Node33&#45;&gt;Node34</title>
<path fill="none" stroke="midnightblue" d="M2179.04,-179.48C2167.55,-170.11 2148.87,-154.88 2134.91,-143.51"/>
<polygon fill="midnightblue" stroke="midnightblue" points="2136.9,-140.61 2126.94,-137.01 2132.48,-146.04 2136.9,-140.61"/>
</g>
<!-- Node35 -->
<g id="node35" class="node">
<title>Node35</title>
<g id="a_node35"><a xlink:title=" ">
<polygon fill="white" stroke="#bfbfbf" points="2206,-112.5 2206,-142.5 2319,-142.5 2319,-112.5 2206,-112.5"/>
<text text-anchor="start" x="2214" y="-130.5" font-family="Helvetica,sans-Serif" font-size="10.00">boost/property_tree</text>
<text text-anchor="middle" x="2262.5" y="-119.5" font-family="Helvetica,sans-Serif" font-size="10.00">/json_parser.hpp</text>
</a>
</g>
</g>
<!-- Node33&#45;&gt;Node35 -->
<g id="edge46" class="edge">
<title>Node33&#45;&gt;Node35</title>
<path fill="none" stroke="midnightblue" d="M2199.96,-179.48C2209.66,-171.57 2224.49,-159.48 2237.27,-149.07"/>
<polygon fill="midnightblue" stroke="midnightblue" points="2239.76,-151.55 2245.3,-142.52 2235.33,-146.13 2239.76,-151.55"/>
</g>
</g>
</svg>
