<?xml version="1.0" encoding="UTF-8" standalone="no"?>
<!DOCTYPE svg PUBLIC "-//W3C//DTD SVG 1.1//EN"
 "http://www.w3.org/Graphics/SVG/1.1/DTD/svg11.dtd">
<!-- Generated by graphviz version 2.43.0 (0)
 -->
<!-- Title: OMSimMDOMFlasher.hh Pages: 1 -->
<svg width="735pt" height="252pt"
 viewBox="0.00 0.00 734.50 252.00" xmlns="http://www.w3.org/2000/svg" xmlns:xlink="http://www.w3.org/1999/xlink">
<g id="graph0" class="graph" transform="scale(1 1) rotate(0) translate(4 248)">
<title>OMSimMDOMFlasher.hh</title>
<polygon fill="white" stroke="transparent" points="-4,4 -4,-248 730.5,-248 730.5,4 -4,4"/>
<!-- Node1 -->
<g id="node1" class="node">
<title>Node1</title>
<g id="a_node1"><a xlink:title=" ">
<polygon fill="#bfbfbf" stroke="black" points="211.5,-224.5 211.5,-243.5 346.5,-243.5 346.5,-224.5 211.5,-224.5"/>
<text text-anchor="middle" x="279" y="-231.5" font-family="Helvetica,sans-Serif" font-size="10.00">OMSimMDOMFlasher.hh</text>
</a>
</g>
</g>
<!-- Node2 -->
<g id="node2" class="node">
<title>Node2</title>
<g id="a_node2"><a xlink:href="_o_m_sim_m_d_o_m_8hh.html" target="_top" xlink:title=" ">
<polygon fill="white" stroke="black" points="249,-168.5 249,-187.5 349,-187.5 349,-168.5 249,-168.5"/>
<text text-anchor="middle" x="299" y="-175.5" font-family="Helvetica,sans-Serif" font-size="10.00">OMSimMDOM.hh</text>
</a>
</g>
</g>
<!-- Node1&#45;&gt;Node2 -->
<g id="edge1" class="edge">
<title>Node1&#45;&gt;Node2</title>
<path fill="none" stroke="midnightblue" d="M285.78,-214.69C289.15,-205.59 293.07,-195.01 295.76,-187.75"/>
<polygon fill="midnightblue" stroke="midnightblue" points="282.49,-213.49 282.3,-224.08 289.06,-215.92 282.49,-213.49"/>
</g>
<!-- Node3 -->
<g id="node3" class="node">
<title>Node3</title>
<g id="a_node3"><a xlink:href="_o_m_sim_m_d_o_m_8cc.html" target="_top" xlink:title="Construction of mDOM.">
<polygon fill="white" stroke="black" points="0,-112.5 0,-131.5 98,-131.5 98,-112.5 0,-112.5"/>
<text text-anchor="middle" x="49" y="-119.5" font-family="Helvetica,sans-Serif" font-size="10.00">OMSimMDOM.cc</text>
</a>
</g>
</g>
<!-- Node1&#45;&gt;Node3 -->
<g id="edge12" class="edge">
<title>Node1&#45;&gt;Node3</title>
<path fill="none" stroke="midnightblue" d="M251.86,-220.02C204.3,-197.27 107.11,-150.79 66.96,-131.59"/>
<polygon fill="midnightblue" stroke="midnightblue" points="250.42,-223.21 260.95,-224.37 253.44,-216.9 250.42,-223.21"/>
</g>
<!-- Node4 -->
<g id="node4" class="node">
<title>Node4</title>
<g id="a_node4"><a xlink:href="_o_m_sim_m_d_o_m_flasher_8cc.html" target="_top" xlink:title=" ">
<polygon fill="white" stroke="black" points="116,-112.5 116,-131.5 250,-131.5 250,-112.5 116,-112.5"/>
<text text-anchor="middle" x="183" y="-119.5" font-family="Helvetica,sans-Serif" font-size="10.00">OMSimMDOMFlasher.cc</text>
</a>
</g>
</g>
<!-- Node1&#45;&gt;Node4 -->
<g id="edge13" class="edge">
<title>Node1&#45;&gt;Node4</title>
<path fill="none" stroke="midnightblue" d="M264.67,-216.59C243.98,-192.87 206.45,-149.87 190.5,-131.59"/>
<polygon fill="midnightblue" stroke="midnightblue" points="262.25,-219.14 271.47,-224.37 267.53,-214.53 262.25,-219.14"/>
</g>
<!-- Node10 -->
<g id="node10" class="node">
<title>Node10</title>
<g id="a_node10"><a xlink:href="_o_m_sim_detector_construction_8cc.html" target="_top" xlink:title="User defined detector.">
<polygon fill="white" stroke="black" points="557.5,-56.5 557.5,-75.5 726.5,-75.5 726.5,-56.5 557.5,-56.5"/>
<text text-anchor="middle" x="642" y="-63.5" font-family="Helvetica,sans-Serif" font-size="10.00">OMSimDetectorConstruction.cc</text>
</a>
</g>
</g>
<!-- Node1&#45;&gt;Node10 -->
<g id="edge14" class="edge">
<title>Node1&#45;&gt;Node10</title>
<path fill="none" stroke="midnightblue" d="M356.92,-231.79C435.77,-226.25 555.76,-205.24 626,-132 640.8,-116.57 642.59,-89.74 642.43,-75.87"/>
<polygon fill="midnightblue" stroke="midnightblue" points="356.32,-228.33 346.56,-232.45 356.76,-235.31 356.32,-228.33"/>
</g>
<!-- Node2&#45;&gt;Node3 -->
<g id="edge2" class="edge">
<title>Node2&#45;&gt;Node3</title>
<path fill="none" stroke="midnightblue" d="M249.38,-166.28C202.13,-156.08 131.96,-140.92 88.43,-131.52"/>
<polygon fill="midnightblue" stroke="midnightblue" points="248.87,-169.75 259.39,-168.44 250.35,-162.91 248.87,-169.75"/>
</g>
<!-- Node2&#45;&gt;Node4 -->
<g id="edge3" class="edge">
<title>Node2&#45;&gt;Node4</title>
<path fill="none" stroke="midnightblue" d="M271.28,-164.1C249.61,-154.01 220.1,-140.27 201.29,-131.52"/>
<polygon fill="midnightblue" stroke="midnightblue" points="270.08,-167.4 280.62,-168.44 273.03,-161.05 270.08,-167.4"/>
</g>
<!-- Node5 -->
<g id="node5" class="node">
<title>Node5</title>
<g id="a_node5"><a xlink:href="_o_m_sim_m_d_o_m_harness_8cc.html" target="_top" xlink:title="Construction of mDOM harness.">
<polygon fill="white" stroke="black" points="268,-112.5 268,-131.5 406,-131.5 406,-112.5 268,-112.5"/>
<text text-anchor="middle" x="337" y="-119.5" font-family="Helvetica,sans-Serif" font-size="10.00">OMSimMDOMHarness.cc</text>
</a>
</g>
</g>
<!-- Node2&#45;&gt;Node5 -->
<g id="edge4" class="edge">
<title>Node2&#45;&gt;Node5</title>
<path fill="none" stroke="midnightblue" d="M311.06,-159.86C317.64,-150.5 325.51,-139.33 330.84,-131.75"/>
<polygon fill="midnightblue" stroke="midnightblue" points="308.17,-157.89 305.27,-168.08 313.89,-161.92 308.17,-157.89"/>
</g>
<!-- Node6 -->
<g id="node6" class="node">
<title>Node6</title>
<g id="a_node6"><a xlink:href="_o_m_sim_detector_construction_8hh.html" target="_top" xlink:title=" ">
<polygon fill="white" stroke="black" points="424,-112.5 424,-131.5 594,-131.5 594,-112.5 424,-112.5"/>
<text text-anchor="middle" x="509" y="-119.5" font-family="Helvetica,sans-Serif" font-size="10.00">OMSimDetectorConstruction.hh</text>
</a>
</g>
</g>
<!-- Node2&#45;&gt;Node6 -->
<g id="edge5" class="edge">
<title>Node2&#45;&gt;Node6</title>
<path fill="none" stroke="midnightblue" d="M342.19,-165.89C381.85,-155.7 439.77,-140.8 475.88,-131.52"/>
<polygon fill="midnightblue" stroke="midnightblue" points="341.09,-162.56 332.28,-168.44 342.83,-169.34 341.09,-162.56"/>
</g>
<!-- Node2&#45;&gt;Node10 -->
<g id="edge11" class="edge">
<title>Node2&#45;&gt;Node10</title>
<path fill="none" stroke="midnightblue" d="M359.2,-174.13C436.17,-169.45 564.14,-157.94 603,-132 623.36,-118.41 634.72,-90.25 639.41,-75.87"/>
<polygon fill="midnightblue" stroke="midnightblue" points="358.93,-170.64 349.16,-174.72 359.34,-177.63 358.93,-170.64"/>
</g>
<!-- Node7 -->
<g id="node7" class="node">
<title>Node7</title>
<g id="a_node7"><a xlink:href="_o_m_sim_8h.html" target="_top" xlink:title=" ">
<polygon fill="white" stroke="black" points="478.5,-56.5 478.5,-75.5 539.5,-75.5 539.5,-56.5 478.5,-56.5"/>
<text text-anchor="middle" x="509" y="-63.5" font-family="Helvetica,sans-Serif" font-size="10.00">OMSim.h</text>
</a>
</g>
</g>
<!-- Node6&#45;&gt;Node7 -->
<g id="edge6" class="edge">
<title>Node6&#45;&gt;Node7</title>
<path fill="none" stroke="midnightblue" d="M509,-101.8C509,-92.91 509,-82.78 509,-75.75"/>
<polygon fill="midnightblue" stroke="midnightblue" points="505.5,-102.08 509,-112.08 512.5,-102.08 505.5,-102.08"/>
</g>
<!-- Node9 -->
<g id="node9" class="node">
<title>Node9</title>
<g id="a_node9"><a xlink:href="_o_m_sim__effective__area_8cc.html" target="_top" xlink:title="Main for the calculation of effective areas.">
<polygon fill="white" stroke="black" points="380,-0.5 380,-19.5 520,-19.5 520,-0.5 380,-0.5"/>
<text text-anchor="middle" x="450" y="-7.5" font-family="Helvetica,sans-Serif" font-size="10.00">OMSim_effective_area.cc</text>
</a>
</g>
</g>
<!-- Node6&#45;&gt;Node9 -->
<g id="edge10" class="edge">
<title>Node6&#45;&gt;Node9</title>
<path fill="none" stroke="midnightblue" d="M491.67,-105.07C483.79,-97.02 474.92,-86.7 469,-76 458.75,-57.48 453.52,-32.87 451.32,-19.89"/>
<polygon fill="midnightblue" stroke="midnightblue" points="489.47,-107.82 499.07,-112.3 494.36,-102.81 489.47,-107.82"/>
</g>
<!-- Node6&#45;&gt;Node10 -->
<g id="edge9" class="edge">
<title>Node6&#45;&gt;Node10</title>
<path fill="none" stroke="midnightblue" d="M539.45,-108.64C564.41,-98.5 599.08,-84.43 621.02,-75.52"/>
<polygon fill="midnightblue" stroke="midnightblue" points="538.02,-105.44 530.07,-112.44 540.66,-111.92 538.02,-105.44"/>
</g>
<!-- Node8 -->
<g id="node8" class="node">
<title>Node8</title>
<g id="a_node8"><a xlink:href="_o_m_sim_8cc.html" target="_top" xlink:title=" ">
<polygon fill="white" stroke="black" points="538.5,-0.5 538.5,-19.5 603.5,-19.5 603.5,-0.5 538.5,-0.5"/>
<text text-anchor="middle" x="571" y="-7.5" font-family="Helvetica,sans-Serif" font-size="10.00">OMSim.cc</text>
</a>
</g>
</g>
<!-- Node7&#45;&gt;Node8 -->
<g id="edge7" class="edge">
<title>Node7&#45;&gt;Node8</title>
<path fill="none" stroke="midnightblue" d="M526.75,-49.54C537.81,-39.91 551.63,-27.87 560.86,-19.83"/>
<polygon fill="midnightblue" stroke="midnightblue" points="524.2,-47.12 518.96,-56.32 528.8,-52.4 524.2,-47.12"/>
</g>
<!-- Node7&#45;&gt;Node9 -->
<g id="edge8" class="edge">
<title>Node7&#45;&gt;Node9</title>
<path fill="none" stroke="midnightblue" d="M492.11,-49.54C481.59,-39.91 468.43,-27.87 459.65,-19.83"/>
<polygon fill="midnightblue" stroke="midnightblue" points="489.78,-52.15 499.52,-56.32 494.51,-46.99 489.78,-52.15"/>
</g>
</g>
</svg>
