<?xml version="1.0" encoding="UTF-8" standalone="no"?>
<!DOCTYPE svg PUBLIC "-//W3C//DTD SVG 1.1//EN"
 "http://www.w3.org/Graphics/SVG/1.1/DTD/svg11.dtd">
<!-- Generated by graphviz version 2.43.0 (0)
 -->
<!-- Title: OMSimLOM16.cc Pages: 1 -->
<svg width="2681pt" height="375pt"
 viewBox="0.00 0.00 2680.50 375.00" xmlns="http://www.w3.org/2000/svg" xmlns:xlink="http://www.w3.org/1999/xlink">
<g id="graph0" class="graph" transform="scale(1 1) rotate(0) translate(4 371)">
<title>OMSimLOM16.cc</title>
<polygon fill="white" stroke="transparent" points="-4,4 -4,-371 2676.5,-371 2676.5,4 -4,4"/>
<!-- Node1 -->
<g id="node1" class="node">
<title>Node1</title>
<g id="a_node1"><a xlink:title=" ">
<polygon fill="#bfbfbf" stroke="black" points="1642,-347.5 1642,-366.5 1741,-366.5 1741,-347.5 1642,-347.5"/>
<text text-anchor="middle" x="1691.5" y="-354.5" font-family="Helvetica,sans-Serif" font-size="10.00">OMSimLOM16.cc</text>
</a>
</g>
</g>
<!-- Node2 -->
<g id="node2" class="node">
<title>Node2</title>
<g id="a_node2"><a xlink:href="_o_m_sim_l_o_m16_8hh.html" target="_top" xlink:title="Construction of LOM16.">
<polygon fill="white" stroke="black" points="556,-291.5 556,-310.5 657,-310.5 657,-291.5 556,-291.5"/>
<text text-anchor="middle" x="606.5" y="-298.5" font-family="Helvetica,sans-Serif" font-size="10.00">OMSimLOM16.hh</text>
</a>
</g>
</g>
<!-- Node1&#45;&gt;Node2 -->
<g id="edge1" class="edge">
<title>Node1&#45;&gt;Node2</title>
<path fill="none" stroke="midnightblue" d="M1641.82,-355.62C1493.47,-354.1 1040.83,-346.65 667.5,-311 667.39,-310.99 667.29,-310.98 667.18,-310.97"/>
<polygon fill="midnightblue" stroke="midnightblue" points="667.37,-307.47 657.05,-309.87 666.61,-314.43 667.37,-307.47"/>
</g>
<!-- Node16 -->
<g id="node16" class="node">
<title>Node16</title>
<g id="a_node16"><a xlink:href="_o_m_sim_logger_8hh.html" target="_top" xlink:title=" ">
<polygon fill="white" stroke="black" points="677,-291.5 677,-310.5 776,-310.5 776,-291.5 677,-291.5"/>
<text text-anchor="middle" x="726.5" y="-298.5" font-family="Helvetica,sans-Serif" font-size="10.00">OMSimLogger.hh</text>
</a>
</g>
</g>
<!-- Node1&#45;&gt;Node16 -->
<g id="edge17" class="edge">
<title>Node1&#45;&gt;Node16</title>
<path fill="none" stroke="midnightblue" d="M1641.98,-353.23C1479.47,-344.14 962.72,-315.22 786.24,-305.34"/>
<polygon fill="midnightblue" stroke="midnightblue" points="786.29,-301.84 776.11,-304.78 785.89,-308.83 786.29,-301.84"/>
</g>
<!-- Node19 -->
<g id="node19" class="node">
<title>Node19</title>
<g id="a_node19"><a xlink:href="_c_a_d_mesh_8hh.html" target="_top" xlink:title=" ">
<polygon fill="white" stroke="black" points="1512,-291.5 1512,-310.5 1591,-310.5 1591,-291.5 1512,-291.5"/>
<text text-anchor="middle" x="1551.5" y="-298.5" font-family="Helvetica,sans-Serif" font-size="10.00">CADMesh.hh</text>
</a>
</g>
</g>
<!-- Node1&#45;&gt;Node19 -->
<g id="edge20" class="edge">
<title>Node1&#45;&gt;Node19</title>
<path fill="none" stroke="midnightblue" d="M1669.32,-347.44C1646.07,-338.48 1609.35,-324.31 1583.08,-314.18"/>
<polygon fill="midnightblue" stroke="midnightblue" points="1584.17,-310.85 1573.58,-310.52 1581.65,-317.38 1584.17,-310.85"/>
</g>
<!-- Node40 -->
<g id="node40" class="node">
<title>Node40</title>
<g id="a_node40"><a xlink:title=" ">
<polygon fill="white" stroke="#bfbfbf" points="1609,-291.5 1609,-310.5 1678,-310.5 1678,-291.5 1609,-291.5"/>
<text text-anchor="middle" x="1643.5" y="-298.5" font-family="Helvetica,sans-Serif" font-size="10.00">G4Cons.hh</text>
</a>
</g>
</g>
<!-- Node1&#45;&gt;Node40 -->
<g id="edge41" class="edge">
<title>Node1&#45;&gt;Node40</title>
<path fill="none" stroke="midnightblue" d="M1683.57,-347.08C1676.65,-339.3 1666.43,-327.8 1658.05,-318.37"/>
<polygon fill="midnightblue" stroke="midnightblue" points="1660.54,-315.9 1651.28,-310.75 1655.31,-320.55 1660.54,-315.9"/>
</g>
<!-- Node41 -->
<g id="node41" class="node">
<title>Node41</title>
<g id="a_node41"><a xlink:title=" ">
<polygon fill="white" stroke="#bfbfbf" points="1696.5,-291.5 1696.5,-310.5 1782.5,-310.5 1782.5,-291.5 1696.5,-291.5"/>
<text text-anchor="middle" x="1739.5" y="-298.5" font-family="Helvetica,sans-Serif" font-size="10.00">G4Ellipsoid.hh</text>
</a>
</g>
</g>
<!-- Node1&#45;&gt;Node41 -->
<g id="edge42" class="edge">
<title>Node1&#45;&gt;Node41</title>
<path fill="none" stroke="midnightblue" d="M1699.43,-347.08C1706.35,-339.3 1716.57,-327.8 1724.95,-318.37"/>
<polygon fill="midnightblue" stroke="midnightblue" points="1727.69,-320.55 1731.72,-310.75 1722.46,-315.9 1727.69,-320.55"/>
</g>
<!-- Node42 -->
<g id="node42" class="node">
<title>Node42</title>
<g id="a_node42"><a xlink:title=" ">
<polygon fill="white" stroke="#bfbfbf" points="1801,-291.5 1801,-310.5 1928,-310.5 1928,-291.5 1801,-291.5"/>
<text text-anchor="middle" x="1864.5" y="-298.5" font-family="Helvetica,sans-Serif" font-size="10.00">G4IntersectionSolid.hh</text>
</a>
</g>
</g>
<!-- Node1&#45;&gt;Node42 -->
<g id="edge43" class="edge">
<title>Node1&#45;&gt;Node42</title>
<path fill="none" stroke="midnightblue" d="M1718.91,-347.44C1748.27,-338.28 1795.02,-323.69 1827.6,-313.52"/>
<polygon fill="midnightblue" stroke="midnightblue" points="1828.71,-316.84 1837.22,-310.52 1826.63,-310.16 1828.71,-316.84"/>
</g>
<!-- Node43 -->
<g id="node43" class="node">
<title>Node43</title>
<g id="a_node43"><a xlink:title=" ">
<polygon fill="white" stroke="#bfbfbf" points="1946,-291.5 1946,-310.5 2035,-310.5 2035,-291.5 1946,-291.5"/>
<text text-anchor="middle" x="1990.5" y="-298.5" font-family="Helvetica,sans-Serif" font-size="10.00">G4Polycone.hh</text>
</a>
</g>
</g>
<!-- Node1&#45;&gt;Node43 -->
<g id="edge44" class="edge">
<title>Node1&#45;&gt;Node43</title>
<path fill="none" stroke="midnightblue" d="M1738.88,-347.44C1792.36,-337.78 1879.24,-322.09 1935.63,-311.91"/>
<polygon fill="midnightblue" stroke="midnightblue" points="1936.57,-315.3 1945.79,-310.08 1935.32,-308.41 1936.57,-315.3"/>
</g>
<!-- Node44 -->
<g id="node44" class="node">
<title>Node44</title>
<g id="a_node44"><a xlink:title=" ">
<polygon fill="white" stroke="#bfbfbf" points="2052.5,-291.5 2052.5,-310.5 2164.5,-310.5 2164.5,-291.5 2052.5,-291.5"/>
<text text-anchor="middle" x="2108.5" y="-298.5" font-family="Helvetica,sans-Serif" font-size="10.00">G4EllipticalCone.hh</text>
</a>
</g>
</g>
<!-- Node1&#45;&gt;Node44 -->
<g id="edge45" class="edge">
<title>Node1&#45;&gt;Node44</title>
<path fill="none" stroke="midnightblue" d="M1741.22,-349.87C1807.57,-341.64 1929.04,-326.41 2042.1,-311.31"/>
<polygon fill="midnightblue" stroke="midnightblue" points="2042.87,-314.74 2052.31,-309.94 2041.94,-307.8 2042.87,-314.74"/>
</g>
<!-- Node3 -->
<g id="node3" class="node">
<title>Node3</title>
<g id="a_node3"><a xlink:href="_o_m_sim_p_m_t_construction_8hh.html" target="_top" xlink:title="Construction of the PMTs.">
<polygon fill="white" stroke="black" points="532,-179.5 532,-198.5 681,-198.5 681,-179.5 532,-179.5"/>
<text text-anchor="middle" x="606.5" y="-186.5" font-family="Helvetica,sans-Serif" font-size="10.00">OMSimPMTConstruction.hh</text>
</a>
</g>
</g>
<!-- Node2&#45;&gt;Node3 -->
<g id="edge2" class="edge">
<title>Node2&#45;&gt;Node3</title>
<path fill="none" stroke="midnightblue" d="M606.5,-291.37C606.5,-273.62 606.5,-232.67 606.5,-208.6"/>
<polygon fill="midnightblue" stroke="midnightblue" points="610,-208.59 606.5,-198.59 603,-208.59 610,-208.59"/>
</g>
<!-- Node15 -->
<g id="node15" class="node">
<title>Node15</title>
<g id="a_node15"><a xlink:href="_o_m_sim_optical_module_8hh.html" target="_top" xlink:title=" ">
<polygon fill="white" stroke="black" points="441,-235.5 441,-254.5 578,-254.5 578,-235.5 441,-235.5"/>
<text text-anchor="middle" x="509.5" y="-242.5" font-family="Helvetica,sans-Serif" font-size="10.00">OMSimOpticalModule.hh</text>
</a>
</g>
</g>
<!-- Node2&#45;&gt;Node15 -->
<g id="edge14" class="edge">
<title>Node2&#45;&gt;Node15</title>
<path fill="none" stroke="midnightblue" d="M590.92,-291.32C575.5,-282.74 551.69,-269.49 533.79,-259.52"/>
<polygon fill="midnightblue" stroke="midnightblue" points="535.49,-256.46 525.05,-254.65 532.08,-262.58 535.49,-256.46"/>
</g>
<!-- Node4 -->
<g id="node4" class="node">
<title>Node4</title>
<g id="a_node4"><a xlink:href="abc_detector_component_8hh.html" target="_top" xlink:title="Provides helper base class abcDetectorComponent for constructing and managing detector components in ...">
<polygon fill="white" stroke="black" points="402,-123.5 402,-142.5 549,-142.5 549,-123.5 402,-123.5"/>
<text text-anchor="middle" x="475.5" y="-130.5" font-family="Helvetica,sans-Serif" font-size="10.00">abcDetectorComponent.hh</text>
</a>
</g>
</g>
<!-- Node3&#45;&gt;Node4 -->
<g id="edge3" class="edge">
<title>Node3&#45;&gt;Node4</title>
<path fill="none" stroke="midnightblue" d="M585.74,-179.44C564.18,-170.56 530.24,-156.56 505.71,-146.45"/>
<polygon fill="midnightblue" stroke="midnightblue" points="506.74,-143.09 496.16,-142.52 504.07,-149.56 506.74,-143.09"/>
</g>
<!-- Node13 -->
<g id="node13" class="node">
<title>Node13</title>
<g id="a_node13"><a xlink:title=" ">
<polygon fill="white" stroke="#bfbfbf" points="567.5,-123.5 567.5,-142.5 665.5,-142.5 665.5,-123.5 567.5,-123.5"/>
<text text-anchor="middle" x="616.5" y="-130.5" font-family="Helvetica,sans-Serif" font-size="10.00">G4UnionSolid.hh</text>
</a>
</g>
</g>
<!-- Node3&#45;&gt;Node13 -->
<g id="edge12" class="edge">
<title>Node3&#45;&gt;Node13</title>
<path fill="none" stroke="midnightblue" d="M608.15,-179.08C609.48,-171.93 611.38,-161.64 613.04,-152.69"/>
<polygon fill="midnightblue" stroke="midnightblue" points="616.5,-153.22 614.88,-142.75 609.62,-151.95 616.5,-153.22"/>
</g>
<!-- Node14 -->
<g id="node14" class="node">
<title>Node14</title>
<g id="a_node14"><a xlink:title=" ">
<polygon fill="white" stroke="#bfbfbf" points="684,-123.5 684,-142.5 751,-142.5 751,-123.5 684,-123.5"/>
<text text-anchor="middle" x="717.5" y="-130.5" font-family="Helvetica,sans-Serif" font-size="10.00">G4Tubs.hh</text>
</a>
</g>
</g>
<!-- Node3&#45;&gt;Node14 -->
<g id="edge13" class="edge">
<title>Node3&#45;&gt;Node14</title>
<path fill="none" stroke="midnightblue" d="M624.33,-179.32C642.22,-170.62 669.98,-157.12 690.55,-147.11"/>
<polygon fill="midnightblue" stroke="midnightblue" points="692.25,-150.18 699.71,-142.65 689.19,-143.88 692.25,-150.18"/>
</g>
<!-- Node5 -->
<g id="node5" class="node">
<title>Node5</title>
<g id="a_node5"><a xlink:href="_o_m_sim_input_data_8hh.html" target="_top" xlink:title="Input data from external files are read and saved to memory.">
<polygon fill="white" stroke="black" points="163,-67.5 163,-86.5 278,-86.5 278,-67.5 163,-67.5"/>
<text text-anchor="middle" x="220.5" y="-74.5" font-family="Helvetica,sans-Serif" font-size="10.00">OMSimInputData.hh</text>
</a>
</g>
</g>
<!-- Node4&#45;&gt;Node5 -->
<g id="edge4" class="edge">
<title>Node4&#45;&gt;Node5</title>
<path fill="none" stroke="midnightblue" d="M435.09,-123.44C390.52,-114 318.73,-98.8 270.61,-88.61"/>
<polygon fill="midnightblue" stroke="midnightblue" points="271.22,-85.16 260.72,-86.52 269.77,-92.01 271.22,-85.16"/>
</g>
<!-- Node9 -->
<g id="node9" class="node">
<title>Node9</title>
<g id="a_node9"><a xlink:title=" ">
<polygon fill="white" stroke="#bfbfbf" points="296,-67.5 296,-86.5 403,-86.5 403,-67.5 296,-67.5"/>
<text text-anchor="middle" x="349.5" y="-74.5" font-family="Helvetica,sans-Serif" font-size="10.00">G4Transform3D.hh</text>
</a>
</g>
</g>
<!-- Node4&#45;&gt;Node9 -->
<g id="edge8" class="edge">
<title>Node4&#45;&gt;Node9</title>
<path fill="none" stroke="midnightblue" d="M455.53,-123.44C434.89,-114.6 402.44,-100.69 378.87,-90.59"/>
<polygon fill="midnightblue" stroke="midnightblue" points="379.94,-87.24 369.37,-86.52 377.18,-93.67 379.94,-87.24"/>
</g>
<!-- Node10 -->
<g id="node10" class="node">
<title>Node10</title>
<g id="a_node10"><a xlink:title=" ">
<polygon fill="white" stroke="#bfbfbf" points="421.5,-67.5 421.5,-86.5 529.5,-86.5 529.5,-67.5 421.5,-67.5"/>
<text text-anchor="middle" x="475.5" y="-74.5" font-family="Helvetica,sans-Serif" font-size="10.00">G4VisAttributes.hh</text>
</a>
</g>
</g>
<!-- Node4&#45;&gt;Node10 -->
<g id="edge9" class="edge">
<title>Node4&#45;&gt;Node10</title>
<path fill="none" stroke="midnightblue" d="M475.5,-123.08C475.5,-116.01 475.5,-105.86 475.5,-96.99"/>
<polygon fill="midnightblue" stroke="midnightblue" points="479,-96.75 475.5,-86.75 472,-96.75 479,-96.75"/>
</g>
<!-- Node11 -->
<g id="node11" class="node">
<title>Node11</title>
<g id="a_node11"><a xlink:title=" ">
<polygon fill="white" stroke="#bfbfbf" points="548,-67.5 548,-86.5 673,-86.5 673,-67.5 548,-67.5"/>
<text text-anchor="middle" x="610.5" y="-74.5" font-family="Helvetica,sans-Serif" font-size="10.00">G4SubtractionSolid.hh</text>
</a>
</g>
</g>
<!-- Node4&#45;&gt;Node11 -->
<g id="edge10" class="edge">
<title>Node4&#45;&gt;Node11</title>
<path fill="none" stroke="midnightblue" d="M496.89,-123.44C519.21,-114.52 554.4,-100.44 579.71,-90.32"/>
<polygon fill="midnightblue" stroke="midnightblue" points="581.22,-93.48 589.21,-86.52 578.62,-86.98 581.22,-93.48"/>
</g>
<!-- Node12 -->
<g id="node12" class="node">
<title>Node12</title>
<g id="a_node12"><a xlink:title=" ">
<polygon fill="white" stroke="#bfbfbf" points="691.5,-67.5 691.5,-86.5 801.5,-86.5 801.5,-67.5 691.5,-67.5"/>
<text text-anchor="middle" x="746.5" y="-74.5" font-family="Helvetica,sans-Serif" font-size="10.00">G4PVPlacement.hh</text>
</a>
</g>
</g>
<!-- Node4&#45;&gt;Node12 -->
<g id="edge11" class="edge">
<title>Node4&#45;&gt;Node12</title>
<path fill="none" stroke="midnightblue" d="M518.44,-123.44C566.01,-113.96 642.74,-98.67 693.89,-88.48"/>
<polygon fill="midnightblue" stroke="midnightblue" points="694.64,-91.9 703.76,-86.52 693.27,-85.04 694.64,-91.9"/>
</g>
<!-- Node6 -->
<g id="node6" class="node">
<title>Node6</title>
<g id="a_node6"><a xlink:title=" ">
<polygon fill="white" stroke="#bfbfbf" points="0,-6 0,-25 143,-25 143,-6 0,-6"/>
<text text-anchor="middle" x="71.5" y="-13" font-family="Helvetica,sans-Serif" font-size="10.00">G4OpBoundaryProcess.hh</text>
</a>
</g>
</g>
<!-- Node5&#45;&gt;Node6 -->
<g id="edge5" class="edge">
<title>Node5&#45;&gt;Node6</title>
<path fill="none" stroke="midnightblue" d="M199.15,-67.48C173.81,-57.36 131.36,-40.4 102.43,-28.85"/>
<polygon fill="midnightblue" stroke="midnightblue" points="103.39,-25.47 92.81,-25.01 100.8,-31.97 103.39,-25.47"/>
</g>
<!-- Node7 -->
<g id="node7" class="node">
<title>Node7</title>
<g id="a_node7"><a xlink:title=" ">
<polygon fill="white" stroke="#bfbfbf" points="161,-6 161,-25 280,-25 280,-6 161,-6"/>
<text text-anchor="middle" x="220.5" y="-13" font-family="Helvetica,sans-Serif" font-size="10.00">G4SystemOfUnits.hh</text>
</a>
</g>
</g>
<!-- Node5&#45;&gt;Node7 -->
<g id="edge6" class="edge">
<title>Node5&#45;&gt;Node7</title>
<path fill="none" stroke="midnightblue" d="M220.5,-67.48C220.5,-59.08 220.5,-45.98 220.5,-35.16"/>
<polygon fill="midnightblue" stroke="midnightblue" points="224,-35.01 220.5,-25.01 217,-35.01 224,-35.01"/>
</g>
<!-- Node8 -->
<g id="node8" class="node">
<title>Node8</title>
<g id="a_node8"><a xlink:title=" ">
<polygon fill="white" stroke="#bfbfbf" points="298,-0.5 298,-30.5 411,-30.5 411,-0.5 298,-0.5"/>
<text text-anchor="start" x="306" y="-18.5" font-family="Helvetica,sans-Serif" font-size="10.00">boost/property_tree</text>
<text text-anchor="middle" x="354.5" y="-7.5" font-family="Helvetica,sans-Serif" font-size="10.00">/json_parser.hpp</text>
</a>
</g>
</g>
<!-- Node5&#45;&gt;Node8 -->
<g id="edge7" class="edge">
<title>Node5&#45;&gt;Node8</title>
<path fill="none" stroke="midnightblue" d="M239.7,-67.48C258.87,-58.96 288.92,-45.62 313.47,-34.72"/>
<polygon fill="midnightblue" stroke="midnightblue" points="315.2,-37.78 322.92,-30.52 312.36,-31.38 315.2,-37.78"/>
</g>
<!-- Node15&#45;&gt;Node3 -->
<g id="edge16" class="edge">
<title>Node15&#45;&gt;Node3</title>
<path fill="none" stroke="midnightblue" d="M525.08,-235.32C540.5,-226.74 564.31,-213.49 582.21,-203.52"/>
<polygon fill="midnightblue" stroke="midnightblue" points="583.92,-206.58 590.95,-198.65 580.51,-200.46 583.92,-206.58"/>
</g>
<!-- Node15&#45;&gt;Node4 -->
<g id="edge15" class="edge">
<title>Node15&#45;&gt;Node4</title>
<path fill="none" stroke="midnightblue" d="M506.83,-235.37C501.32,-217.54 488.57,-176.3 481.15,-152.27"/>
<polygon fill="midnightblue" stroke="midnightblue" points="484.45,-151.11 478.16,-142.59 477.76,-153.18 484.45,-151.11"/>
</g>
<!-- Node17 -->
<g id="node17" class="node">
<title>Node17</title>
<g id="a_node17"><a xlink:title=" ">
<polygon fill="white" stroke="#bfbfbf" points="634.5,-235.5 634.5,-254.5 684.5,-254.5 684.5,-235.5 634.5,-235.5"/>
<text text-anchor="middle" x="659.5" y="-242.5" font-family="Helvetica,sans-Serif" font-size="10.00">stdio.h</text>
</a>
</g>
</g>
<!-- Node16&#45;&gt;Node17 -->
<g id="edge18" class="edge">
<title>Node16&#45;&gt;Node17</title>
<path fill="none" stroke="midnightblue" d="M715.74,-291.32C705.73,-283.26 690.61,-271.08 678.57,-261.37"/>
<polygon fill="midnightblue" stroke="midnightblue" points="680.44,-258.38 670.46,-254.83 676.05,-263.83 680.44,-258.38"/>
</g>
<!-- Node18 -->
<g id="node18" class="node">
<title>Node18</title>
<g id="a_node18"><a xlink:title=" ">
<polygon fill="white" stroke="#bfbfbf" points="702.5,-235.5 702.5,-254.5 750.5,-254.5 750.5,-235.5 702.5,-235.5"/>
<text text-anchor="middle" x="726.5" y="-242.5" font-family="Helvetica,sans-Serif" font-size="10.00">time.h</text>
</a>
</g>
</g>
<!-- Node16&#45;&gt;Node18 -->
<g id="edge19" class="edge">
<title>Node16&#45;&gt;Node18</title>
<path fill="none" stroke="midnightblue" d="M726.5,-291.08C726.5,-284.01 726.5,-273.86 726.5,-264.99"/>
<polygon fill="midnightblue" stroke="midnightblue" points="730,-264.75 726.5,-254.75 723,-264.75 730,-264.75"/>
</g>
<!-- Node20 -->
<g id="node20" class="node">
<title>Node20</title>
<g id="a_node20"><a xlink:title=" ">
<polygon fill="white" stroke="#bfbfbf" points="768.5,-235.5 768.5,-254.5 842.5,-254.5 842.5,-235.5 768.5,-235.5"/>
<text text-anchor="middle" x="805.5" y="-242.5" font-family="Helvetica,sans-Serif" font-size="10.00">G4String.hh</text>
</a>
</g>
</g>
<!-- Node19&#45;&gt;Node20 -->
<g id="edge21" class="edge">
<title>Node19&#45;&gt;Node20</title>
<path fill="none" stroke="midnightblue" d="M1511.86,-299.24C1406.29,-296.84 1109.46,-287.6 852.85,-255"/>
<polygon fill="midnightblue" stroke="midnightblue" points="852.95,-251.49 842.59,-253.68 852.06,-258.43 852.95,-251.49"/>
</g>
<!-- Node21 -->
<g id="node21" class="node">
<title>Node21</title>
<g id="a_node21"><a xlink:title=" ">
<polygon fill="white" stroke="#bfbfbf" points="860.5,-235.5 860.5,-254.5 924.5,-254.5 924.5,-235.5 860.5,-235.5"/>
<text text-anchor="middle" x="892.5" y="-242.5" font-family="Helvetica,sans-Serif" font-size="10.00">algorithm</text>
</a>
</g>
</g>
<!-- Node19&#45;&gt;Node21 -->
<g id="edge22" class="edge">
<title>Node19&#45;&gt;Node21</title>
<path fill="none" stroke="midnightblue" d="M1511.88,-299.08C1414.96,-296.42 1158.08,-286.82 934.59,-254.95"/>
<polygon fill="midnightblue" stroke="midnightblue" points="935.05,-251.48 924.65,-253.51 934.05,-258.41 935.05,-251.48"/>
</g>
<!-- Node22 -->
<g id="node22" class="node">
<title>Node22</title>
<g id="a_node22"><a xlink:title=" ">
<polygon fill="white" stroke="#bfbfbf" points="942.5,-235.5 942.5,-254.5 980.5,-254.5 980.5,-235.5 942.5,-235.5"/>
<text text-anchor="middle" x="961.5" y="-242.5" font-family="Helvetica,sans-Serif" font-size="10.00">map</text>
</a>
</g>
</g>
<!-- Node19&#45;&gt;Node22 -->
<g id="edge23" class="edge">
<title>Node19&#45;&gt;Node22</title>
<path fill="none" stroke="midnightblue" d="M1511.89,-299.96C1421.01,-299.19 1190.56,-293.45 990.72,-254.78"/>
<polygon fill="midnightblue" stroke="midnightblue" points="991.11,-251.29 980.63,-252.79 989.76,-258.16 991.11,-251.29"/>
</g>
<!-- Node23 -->
<g id="node23" class="node">
<title>Node23</title>
<g id="a_node23"><a xlink:title=" ">
<polygon fill="white" stroke="#bfbfbf" points="999,-235.5 999,-254.5 1102,-254.5 1102,-235.5 999,-235.5"/>
<text text-anchor="middle" x="1050.5" y="-242.5" font-family="Helvetica,sans-Serif" font-size="10.00">G4ThreeVector.hh</text>
</a>
</g>
</g>
<!-- Node19&#45;&gt;Node23 -->
<g id="edge24" class="edge">
<title>Node19&#45;&gt;Node23</title>
<path fill="none" stroke="midnightblue" d="M1511.9,-296.59C1436.26,-289.94 1265.78,-274.3 1112.27,-255.18"/>
<polygon fill="midnightblue" stroke="midnightblue" points="1112.55,-251.68 1102.19,-253.91 1111.68,-258.63 1112.55,-251.68"/>
</g>
<!-- Node24 -->
<g id="node24" class="node">
<title>Node24</title>
<g id="a_node24"><a xlink:title=" ">
<polygon fill="white" stroke="#bfbfbf" points="1120,-235.5 1120,-254.5 1239,-254.5 1239,-235.5 1120,-235.5"/>
<text text-anchor="middle" x="1179.5" y="-242.5" font-family="Helvetica,sans-Serif" font-size="10.00">G4TriangularFacet.hh</text>
</a>
</g>
</g>
<!-- Node19&#45;&gt;Node24 -->
<g id="edge25" class="edge">
<title>Node19&#45;&gt;Node24</title>
<path fill="none" stroke="midnightblue" d="M1511.69,-294.22C1448.82,-285.09 1325.74,-267.23 1248.33,-255.99"/>
<polygon fill="midnightblue" stroke="midnightblue" points="1248.59,-252.49 1238.19,-254.52 1247.59,-259.42 1248.59,-252.49"/>
</g>
<!-- Node25 -->
<g id="node25" class="node">
<title>Node25</title>
<g id="a_node25"><a xlink:title=" ">
<polygon fill="white" stroke="#bfbfbf" points="1257.5,-235.5 1257.5,-254.5 1315.5,-254.5 1315.5,-235.5 1257.5,-235.5"/>
<text text-anchor="middle" x="1286.5" y="-242.5" font-family="Helvetica,sans-Serif" font-size="10.00">memory</text>
</a>
</g>
</g>
<!-- Node19&#45;&gt;Node25 -->
<g id="edge26" class="edge">
<title>Node19&#45;&gt;Node25</title>
<path fill="none" stroke="midnightblue" d="M1511.63,-292.56C1468.27,-284.36 1396.66,-270.53 1325.55,-255.17"/>
<polygon fill="midnightblue" stroke="midnightblue" points="1326.04,-251.69 1315.52,-252.99 1324.55,-258.53 1326.04,-251.69"/>
</g>
<!-- Node26 -->
<g id="node26" class="node">
<title>Node26</title>
<g id="a_node26"><a xlink:title=" ">
<polygon fill="white" stroke="#bfbfbf" points="1334,-235.5 1334,-254.5 1381,-254.5 1381,-235.5 1334,-235.5"/>
<text text-anchor="middle" x="1357.5" y="-242.5" font-family="Helvetica,sans-Serif" font-size="10.00">vector</text>
</a>
</g>
</g>
<!-- Node19&#45;&gt;Node26 -->
<g id="edge27" class="edge">
<title>Node19&#45;&gt;Node26</title>
<path fill="none" stroke="midnightblue" d="M1520.76,-291.44C1485.31,-281.58 1427.24,-265.41 1390.76,-255.26"/>
<polygon fill="midnightblue" stroke="midnightblue" points="1391.65,-251.87 1381.08,-252.56 1389.77,-258.62 1391.65,-251.87"/>
</g>
<!-- Node27 -->
<g id="node27" class="node">
<title>Node27</title>
<g id="a_node27"><a xlink:title=" ">
<polygon fill="white" stroke="#bfbfbf" points="1399.5,-235.5 1399.5,-254.5 1459.5,-254.5 1459.5,-235.5 1399.5,-235.5"/>
<text text-anchor="middle" x="1429.5" y="-242.5" font-family="Helvetica,sans-Serif" font-size="10.00">iostream</text>
</a>
</g>
</g>
<!-- Node19&#45;&gt;Node27 -->
<g id="edge28" class="edge">
<title>Node19&#45;&gt;Node27</title>
<path fill="none" stroke="midnightblue" d="M1532.17,-291.44C1512.18,-282.6 1480.76,-268.69 1457.94,-258.59"/>
<polygon fill="midnightblue" stroke="midnightblue" points="1459.3,-255.36 1448.74,-254.52 1456.47,-261.76 1459.3,-255.36"/>
</g>
<!-- Node28 -->
<g id="node28" class="node">
<title>Node28</title>
<g id="a_node28"><a xlink:title=" ">
<polygon fill="white" stroke="#bfbfbf" points="1477.5,-235.5 1477.5,-254.5 1521.5,-254.5 1521.5,-235.5 1477.5,-235.5"/>
<text text-anchor="middle" x="1499.5" y="-242.5" font-family="Helvetica,sans-Serif" font-size="10.00">string</text>
</a>
</g>
</g>
<!-- Node19&#45;&gt;Node28 -->
<g id="edge29" class="edge">
<title>Node19&#45;&gt;Node28</title>
<path fill="none" stroke="midnightblue" d="M1542.91,-291.08C1535.34,-283.22 1524.12,-271.57 1514.99,-262.08"/>
<polygon fill="midnightblue" stroke="midnightblue" points="1517.38,-259.53 1507.93,-254.75 1512.34,-264.38 1517.38,-259.53"/>
</g>
<!-- Node29 -->
<g id="node29" class="node">
<title>Node29</title>
<g id="a_node29"><a xlink:title=" ">
<polygon fill="white" stroke="#bfbfbf" points="1539.5,-235.5 1539.5,-254.5 1669.5,-254.5 1669.5,-235.5 1539.5,-235.5"/>
<text text-anchor="middle" x="1604.5" y="-242.5" font-family="Helvetica,sans-Serif" font-size="10.00">G4AssemblyVolume.hh</text>
</a>
</g>
</g>
<!-- Node19&#45;&gt;Node29 -->
<g id="edge30" class="edge">
<title>Node19&#45;&gt;Node29</title>
<path fill="none" stroke="midnightblue" d="M1560.25,-291.08C1567.97,-283.22 1579.4,-271.57 1588.72,-262.08"/>
<polygon fill="midnightblue" stroke="midnightblue" points="1591.4,-264.34 1595.91,-254.75 1586.41,-259.44 1591.4,-264.34"/>
</g>
<!-- Node30 -->
<g id="node30" class="node">
<title>Node30</title>
<g id="a_node30"><a xlink:title=" ">
<polygon fill="white" stroke="#bfbfbf" points="1687.5,-235.5 1687.5,-254.5 1803.5,-254.5 1803.5,-235.5 1687.5,-235.5"/>
<text text-anchor="middle" x="1745.5" y="-242.5" font-family="Helvetica,sans-Serif" font-size="10.00">G4LogicalVolume.hh</text>
</a>
</g>
</g>
<!-- Node19&#45;&gt;Node30 -->
<g id="edge31" class="edge">
<title>Node19&#45;&gt;Node30</title>
<path fill="none" stroke="midnightblue" d="M1582.24,-291.44C1615.44,-282.2 1668.49,-267.44 1705.06,-257.26"/>
<polygon fill="midnightblue" stroke="midnightblue" points="1706.21,-260.57 1714.9,-254.52 1704.33,-253.83 1706.21,-260.57"/>
</g>
<!-- Node31 -->
<g id="node31" class="node">
<title>Node31</title>
<g id="a_node31"><a xlink:title=" ">
<polygon fill="white" stroke="#bfbfbf" points="1821.5,-235.5 1821.5,-254.5 1907.5,-254.5 1907.5,-235.5 1821.5,-235.5"/>
<text text-anchor="middle" x="1864.5" y="-242.5" font-family="Helvetica,sans-Serif" font-size="10.00">G4Material.hh</text>
</a>
</g>
</g>
<!-- Node19&#45;&gt;Node31 -->
<g id="edge32" class="edge">
<title>Node19&#45;&gt;Node31</title>
<path fill="none" stroke="midnightblue" d="M1591.07,-292.68C1594.26,-292.11 1597.43,-291.54 1600.5,-291 1691.49,-274.92 1716.65,-271.38 1811.36,-255.19"/>
<polygon fill="midnightblue" stroke="midnightblue" points="1812.11,-258.61 1821.37,-253.48 1810.92,-251.71 1812.11,-258.61"/>
</g>
<!-- Node32 -->
<g id="node32" class="node">
<title>Node32</title>
<g id="a_node32"><a xlink:title=" ">
<polygon fill="white" stroke="#bfbfbf" points="1925.5,-235.5 1925.5,-254.5 2049.5,-254.5 2049.5,-235.5 1925.5,-235.5"/>
<text text-anchor="middle" x="1987.5" y="-242.5" font-family="Helvetica,sans-Serif" font-size="10.00">G4TessellatedSolid.hh</text>
</a>
</g>
</g>
<!-- Node19&#45;&gt;Node32 -->
<g id="edge33" class="edge">
<title>Node19&#45;&gt;Node32</title>
<path fill="none" stroke="midnightblue" d="M1591.04,-292.5C1594.24,-291.96 1597.42,-291.46 1600.5,-291 1737.04,-270.71 1774.42,-271.82 1914.87,-255.18"/>
<polygon fill="midnightblue" stroke="midnightblue" points="1915.65,-258.61 1925.17,-253.95 1914.82,-251.66 1915.65,-258.61"/>
</g>
<!-- Node33 -->
<g id="node33" class="node">
<title>Node33</title>
<g id="a_node33"><a xlink:title=" ">
<polygon fill="white" stroke="#bfbfbf" points="2068,-235.5 2068,-254.5 2127,-254.5 2127,-235.5 2068,-235.5"/>
<text text-anchor="middle" x="2097.5" y="-242.5" font-family="Helvetica,sans-Serif" font-size="10.00">G4Tet.hh</text>
</a>
</g>
</g>
<!-- Node19&#45;&gt;Node33 -->
<g id="edge34" class="edge">
<title>Node19&#45;&gt;Node33</title>
<path fill="none" stroke="midnightblue" d="M1591.03,-292.38C1594.22,-291.87 1597.41,-291.4 1600.5,-291 1799.7,-264.95 1854.92,-285.36 2057.69,-254.88"/>
<polygon fill="midnightblue" stroke="midnightblue" points="2058.42,-258.31 2067.78,-253.34 2057.36,-251.39 2058.42,-258.31"/>
</g>
<!-- Node34 -->
<g id="node34" class="node">
<title>Node34</title>
<g id="a_node34"><a xlink:title=" ">
<polygon fill="white" stroke="#bfbfbf" points="2145.5,-235.5 2145.5,-254.5 2249.5,-254.5 2249.5,-235.5 2145.5,-235.5"/>
<text text-anchor="middle" x="2197.5" y="-242.5" font-family="Helvetica,sans-Serif" font-size="10.00">G4UIcommand.hh</text>
</a>
</g>
</g>
<!-- Node19&#45;&gt;Node34 -->
<g id="edge35" class="edge">
<title>Node19&#45;&gt;Node34</title>
<path fill="none" stroke="midnightblue" d="M1591.02,-292.34C1594.22,-291.84 1597.41,-291.39 1600.5,-291 1834.18,-261.79 1897.38,-279.93 2135.3,-255.04"/>
<polygon fill="midnightblue" stroke="midnightblue" points="2135.72,-258.52 2145.29,-253.98 2134.98,-251.56 2135.72,-258.52"/>
</g>
<!-- Node35 -->
<g id="node35" class="node">
<title>Node35</title>
<g id="a_node35"><a xlink:title=" ">
<polygon fill="white" stroke="#bfbfbf" points="2268,-235.5 2268,-254.5 2335,-254.5 2335,-235.5 2268,-235.5"/>
<text text-anchor="middle" x="2301.5" y="-242.5" font-family="Helvetica,sans-Serif" font-size="10.00">globals.hh</text>
</a>
</g>
</g>
<!-- Node19&#45;&gt;Node35 -->
<g id="edge36" class="edge">
<title>Node19&#45;&gt;Node35</title>
<path fill="none" stroke="midnightblue" d="M1591.01,-292.3C1594.22,-291.81 1597.41,-291.37 1600.5,-291 1888.07,-256.86 1966.36,-292.3 2257.77,-254.87"/>
<polygon fill="midnightblue" stroke="midnightblue" points="2258.32,-258.32 2267.78,-253.56 2257.41,-251.38 2258.32,-258.32"/>
</g>
<!-- Node36 -->
<g id="node36" class="node">
<title>Node36</title>
<g id="a_node36"><a xlink:title=" ">
<polygon fill="white" stroke="#bfbfbf" points="2353,-235.5 2353,-254.5 2408,-254.5 2408,-235.5 2353,-235.5"/>
<text text-anchor="middle" x="2380.5" y="-242.5" font-family="Helvetica,sans-Serif" font-size="10.00">fstream</text>
</a>
</g>
</g>
<!-- Node19&#45;&gt;Node36 -->
<g id="edge37" class="edge">
<title>Node19&#45;&gt;Node36</title>
<path fill="none" stroke="midnightblue" d="M1591.01,-292.28C1594.21,-291.79 1597.41,-291.36 1600.5,-291 1925.99,-253.4 2015.18,-302.36 2342.45,-255.03"/>
<polygon fill="midnightblue" stroke="midnightblue" points="2343.31,-258.44 2352.7,-253.52 2342.3,-251.51 2343.31,-258.44"/>
</g>
<!-- Node37 -->
<g id="node37" class="node">
<title>Node37</title>
<g id="a_node37"><a xlink:title=" ">
<polygon fill="white" stroke="#bfbfbf" points="2426.5,-235.5 2426.5,-254.5 2482.5,-254.5 2482.5,-235.5 2426.5,-235.5"/>
<text text-anchor="middle" x="2454.5" y="-242.5" font-family="Helvetica,sans-Serif" font-size="10.00">sstream</text>
</a>
</g>
</g>
<!-- Node19&#45;&gt;Node37 -->
<g id="edge38" class="edge">
<title>Node19&#45;&gt;Node37</title>
<path fill="none" stroke="midnightblue" d="M1591.01,-292.26C1594.21,-291.78 1597.41,-291.35 1600.5,-291 1958.39,-250.44 2055.9,-305.19 2416.4,-254.85"/>
<polygon fill="midnightblue" stroke="midnightblue" points="2416.92,-258.32 2426.33,-253.45 2415.94,-251.39 2416.92,-258.32"/>
</g>
<!-- Node38 -->
<g id="node38" class="node">
<title>Node38</title>
<g id="a_node38"><a xlink:title=" ">
<polygon fill="white" stroke="#bfbfbf" points="2501,-235.5 2501,-254.5 2568,-254.5 2568,-235.5 2501,-235.5"/>
<text text-anchor="middle" x="2534.5" y="-242.5" font-family="Helvetica,sans-Serif" font-size="10.00">streambuf</text>
</a>
</g>
</g>
<!-- Node19&#45;&gt;Node38 -->
<g id="edge39" class="edge">
<title>Node19&#45;&gt;Node38</title>
<path fill="none" stroke="midnightblue" d="M1591.01,-292.25C1594.21,-291.77 1597.41,-291.34 1600.5,-291 1991.11,-247.46 2096.44,-302.83 2490.82,-254.83"/>
<polygon fill="midnightblue" stroke="midnightblue" points="2491.29,-258.3 2500.79,-253.61 2490.43,-251.36 2491.29,-258.3"/>
</g>
<!-- Node39 -->
<g id="node39" class="node">
<title>Node39</title>
<g id="a_node39"><a xlink:title=" ">
<polygon fill="white" stroke="#bfbfbf" points="2586.5,-235.5 2586.5,-254.5 2672.5,-254.5 2672.5,-235.5 2586.5,-235.5"/>
<text text-anchor="middle" x="2629.5" y="-242.5" font-family="Helvetica,sans-Serif" font-size="10.00">Randomize.hh</text>
</a>
</g>
</g>
<!-- Node19&#45;&gt;Node39 -->
<g id="edge40" class="edge">
<title>Node19&#45;&gt;Node39</title>
<path fill="none" stroke="midnightblue" d="M1591.01,-292.24C1594.21,-291.76 1597.4,-291.34 1600.5,-291 2029.16,-243.99 2143.61,-299.3 2576.47,-254.95"/>
<polygon fill="midnightblue" stroke="midnightblue" points="2576.85,-258.43 2586.43,-253.91 2576.12,-251.46 2576.85,-258.43"/>
</g>
</g>
</svg>
