<?xml version="1.0" encoding="UTF-8" standalone="no"?>
<!DOCTYPE svg PUBLIC "-//W3C//DTD SVG 1.1//EN"
 "http://www.w3.org/Graphics/SVG/1.1/DTD/svg11.dtd">
<!-- Generated by graphviz version 2.43.0 (0)
 -->
<!-- Title: OMSimCommandArgsTable.hh Pages: 1 -->
<svg width="1392pt" height="140pt"
 viewBox="0.00 0.00 1391.50 140.00" xmlns="http://www.w3.org/2000/svg" xmlns:xlink="http://www.w3.org/1999/xlink">
<g id="graph0" class="graph" transform="scale(1 1) rotate(0) translate(4 136)">
<title>OMSimCommandArgsTable.hh</title>
<polygon fill="white" stroke="transparent" points="-4,4 -4,-136 1387.5,-136 1387.5,4 -4,4"/>
<!-- Node1 -->
<g id="node1" class="node">
<title>Node1</title>
<g id="a_node1"><a xlink:title=" ">
<polygon fill="#bfbfbf" stroke="black" points="512,-112.5 512,-131.5 676,-131.5 676,-112.5 512,-112.5"/>
<text text-anchor="middle" x="594" y="-119.5" font-family="Helvetica,sans-Serif" font-size="10.00">OMSimCommandArgsTable.hh</text>
</a>
</g>
</g>
<!-- Node2 -->
<g id="node2" class="node">
<title>Node2</title>
<g id="a_node2"><a xlink:href="_o_m_sim_u_iinterface_8hh.html" target="_top" xlink:title="The OMSimUIinterface class provides a singleton interface to Geant4&#39;s UI manager.">
<polygon fill="white" stroke="black" points="167.5,-56.5 167.5,-75.5 288.5,-75.5 288.5,-56.5 167.5,-56.5"/>
<text text-anchor="middle" x="228" y="-63.5" font-family="Helvetica,sans-Serif" font-size="10.00">OMSimUIinterface.hh</text>
</a>
</g>
</g>
<!-- Node1&#45;&gt;Node2 -->
<g id="edge1" class="edge">
<title>Node1&#45;&gt;Node2</title>
<path fill="none" stroke="midnightblue" d="M526.08,-110.98C456.95,-100.78 350.93,-85.14 285.72,-75.52"/>
<polygon fill="midnightblue" stroke="midnightblue" points="525.6,-114.45 536.01,-112.44 526.62,-107.52 525.6,-114.45"/>
</g>
<!-- Node3 -->
<g id="node3" class="node">
<title>Node3</title>
<g id="a_node3"><a xlink:href="_o_m_sim_m_d_o_m_flasher_8cc.html" target="_top" xlink:title=" ">
<polygon fill="white" stroke="black" points="0,-0.5 0,-19.5 134,-19.5 134,-0.5 0,-0.5"/>
<text text-anchor="middle" x="67" y="-7.5" font-family="Helvetica,sans-Serif" font-size="10.00">OMSimMDOMFlasher.cc</text>
</a>
</g>
</g>
<!-- Node1&#45;&gt;Node3 -->
<g id="edge7" class="edge">
<title>Node1&#45;&gt;Node3</title>
<path fill="none" stroke="midnightblue" d="M501.59,-116.93C392.92,-111.19 219.68,-98.78 159,-76 124.58,-63.08 91.1,-34.08 75.74,-19.59"/>
<polygon fill="midnightblue" stroke="midnightblue" points="501.73,-120.44 511.89,-117.47 502.09,-113.45 501.73,-120.44"/>
</g>
<!-- Node5 -->
<g id="node5" class="node">
<title>Node5</title>
<g id="a_node5"><a xlink:href="_o_m_sim__effective__area_8cc.html" target="_top" xlink:title="Main for the calculation of effective areas.">
<polygon fill="white" stroke="black" points="322,-0.5 322,-19.5 462,-19.5 462,-0.5 322,-0.5"/>
<text text-anchor="middle" x="392" y="-7.5" font-family="Helvetica,sans-Serif" font-size="10.00">OMSim_effective_area.cc</text>
</a>
</g>
</g>
<!-- Node1&#45;&gt;Node5 -->
<g id="edge13" class="edge">
<title>Node1&#45;&gt;Node5</title>
<path fill="none" stroke="midnightblue" d="M501.57,-117.04C436.72,-112.09 357.99,-100.98 337,-76 319.98,-55.74 353.65,-32.03 375.45,-19.61"/>
<polygon fill="midnightblue" stroke="midnightblue" points="501.63,-120.55 511.85,-117.78 502.13,-113.57 501.63,-120.55"/>
</g>
<!-- Node6 -->
<g id="node6" class="node">
<title>Node6</title>
<g id="a_node6"><a xlink:href="_o_m_sim_input_data_8cc.html" target="_top" xlink:title="Input data from external files are read and saved to memory.">
<polygon fill="white" stroke="black" points="345.5,-56.5 345.5,-75.5 458.5,-75.5 458.5,-56.5 345.5,-56.5"/>
<text text-anchor="middle" x="402" y="-63.5" font-family="Helvetica,sans-Serif" font-size="10.00">OMSimInputData.cc</text>
</a>
</g>
</g>
<!-- Node1&#45;&gt;Node6 -->
<g id="edge5" class="edge">
<title>Node1&#45;&gt;Node6</title>
<path fill="none" stroke="midnightblue" d="M553.82,-109.7C517.58,-99.51 465.09,-84.74 432.28,-75.52"/>
<polygon fill="midnightblue" stroke="midnightblue" points="553,-113.11 563.58,-112.44 554.9,-106.37 553,-113.11"/>
</g>
<!-- Node7 -->
<g id="node7" class="node">
<title>Node7</title>
<g id="a_node7"><a xlink:href="_o_m_sim_m_d_o_m_8cc.html" target="_top" xlink:title="Construction of mDOM.">
<polygon fill="white" stroke="black" points="477,-56.5 477,-75.5 575,-75.5 575,-56.5 477,-56.5"/>
<text text-anchor="middle" x="526" y="-63.5" font-family="Helvetica,sans-Serif" font-size="10.00">OMSimMDOM.cc</text>
</a>
</g>
</g>
<!-- Node1&#45;&gt;Node7 -->
<g id="edge6" class="edge">
<title>Node1&#45;&gt;Node7</title>
<path fill="none" stroke="midnightblue" d="M575.24,-106.1C563,-96.38 547.44,-84.03 537.12,-75.83"/>
<polygon fill="midnightblue" stroke="midnightblue" points="573.07,-108.85 583.07,-112.32 577.42,-103.36 573.07,-108.85"/>
</g>
<!-- Node8 -->
<g id="node8" class="node">
<title>Node8</title>
<g id="a_node8"><a xlink:href="_o_m_sim_m_d_o_m_harness_8cc.html" target="_top" xlink:title="Construction of mDOM harness.">
<polygon fill="white" stroke="black" points="593,-56.5 593,-75.5 731,-75.5 731,-56.5 593,-56.5"/>
<text text-anchor="middle" x="662" y="-63.5" font-family="Helvetica,sans-Serif" font-size="10.00">OMSimMDOMHarness.cc</text>
</a>
</g>
</g>
<!-- Node1&#45;&gt;Node8 -->
<g id="edge8" class="edge">
<title>Node1&#45;&gt;Node8</title>
<path fill="none" stroke="midnightblue" d="M612.76,-106.1C625,-96.38 640.56,-84.03 650.88,-75.83"/>
<polygon fill="midnightblue" stroke="midnightblue" points="610.58,-103.36 604.93,-112.32 614.93,-108.85 610.58,-103.36"/>
</g>
<!-- Node9 -->
<g id="node9" class="node">
<title>Node9</title>
<g id="a_node9"><a xlink:href="_o_m_sim_p_m_t_construction_8cc.html" target="_top" xlink:title="Construction of the PMTs.">
<polygon fill="white" stroke="black" points="749.5,-56.5 749.5,-75.5 896.5,-75.5 896.5,-56.5 749.5,-56.5"/>
<text text-anchor="middle" x="823" y="-63.5" font-family="Helvetica,sans-Serif" font-size="10.00">OMSimPMTConstruction.cc</text>
</a>
</g>
</g>
<!-- Node1&#45;&gt;Node9 -->
<g id="edge9" class="edge">
<title>Node1&#45;&gt;Node9</title>
<path fill="none" stroke="midnightblue" d="M640.27,-110.09C683.54,-99.89 747.26,-84.86 786.88,-75.52"/>
<polygon fill="midnightblue" stroke="midnightblue" points="639.22,-106.74 630.29,-112.44 640.82,-113.55 639.22,-106.74"/>
</g>
<!-- Node10 -->
<g id="node10" class="node">
<title>Node10</title>
<g id="a_node10"><a xlink:href="_o_m_sim_analysis_manager_8cc.html" target="_top" xlink:title=" ">
<polygon fill="white" stroke="black" points="914.5,-56.5 914.5,-75.5 1063.5,-75.5 1063.5,-56.5 914.5,-56.5"/>
<text text-anchor="middle" x="989" y="-63.5" font-family="Helvetica,sans-Serif" font-size="10.00">OMSimAnalysisManager.cc</text>
</a>
</g>
</g>
<!-- Node1&#45;&gt;Node10 -->
<g id="edge10" class="edge">
<title>Node1&#45;&gt;Node10</title>
<path fill="none" stroke="midnightblue" d="M666.84,-111.04C741.44,-100.84 856.19,-85.16 926.7,-75.52"/>
<polygon fill="midnightblue" stroke="midnightblue" points="666.02,-107.62 656.59,-112.44 666.97,-114.56 666.02,-107.62"/>
</g>
<!-- Node11 -->
<g id="node11" class="node">
<title>Node11</title>
<g id="a_node11"><a xlink:href="_o_m_sim_detector_construction_8cc.html" target="_top" xlink:title="User defined detector.">
<polygon fill="white" stroke="black" points="1081.5,-56.5 1081.5,-75.5 1250.5,-75.5 1250.5,-56.5 1081.5,-56.5"/>
<text text-anchor="middle" x="1166" y="-63.5" font-family="Helvetica,sans-Serif" font-size="10.00">OMSimDetectorConstruction.cc</text>
</a>
</g>
</g>
<!-- Node1&#45;&gt;Node11 -->
<g id="edge11" class="edge">
<title>Node1&#45;&gt;Node11</title>
<path fill="none" stroke="midnightblue" d="M686.24,-112.41C782.7,-103.41 938.49,-88.83 1073,-76 1075.75,-75.74 1078.54,-75.47 1081.35,-75.2"/>
<polygon fill="midnightblue" stroke="midnightblue" points="685.85,-108.93 676.22,-113.35 686.5,-115.9 685.85,-108.93"/>
</g>
<!-- Node12 -->
<g id="node12" class="node">
<title>Node12</title>
<g id="a_node12"><a xlink:href="_o_m_sim_run_action_8cc.html" target="_top" xlink:title=" ">
<polygon fill="white" stroke="black" points="1268.5,-56.5 1268.5,-75.5 1383.5,-75.5 1383.5,-56.5 1268.5,-56.5"/>
<text text-anchor="middle" x="1326" y="-63.5" font-family="Helvetica,sans-Serif" font-size="10.00">OMSimRunAction.cc</text>
</a>
</g>
</g>
<!-- Node1&#45;&gt;Node12 -->
<g id="edge12" class="edge">
<title>Node1&#45;&gt;Node12</title>
<path fill="none" stroke="midnightblue" d="M686.39,-116.75C815.13,-110.37 1055.7,-96.81 1260,-76 1262.76,-75.72 1265.58,-75.41 1268.43,-75.08"/>
<polygon fill="midnightblue" stroke="midnightblue" points="685.99,-113.26 676.18,-117.25 686.34,-120.25 685.99,-113.26"/>
</g>
<!-- Node2&#45;&gt;Node3 -->
<g id="edge2" class="edge">
<title>Node2&#45;&gt;Node3</title>
<path fill="none" stroke="midnightblue" d="M192.74,-53.17C162.42,-43 119.43,-28.59 92.39,-19.52"/>
<polygon fill="midnightblue" stroke="midnightblue" points="191.9,-56.58 202.49,-56.44 194.12,-49.95 191.9,-56.58"/>
</g>
<!-- Node4 -->
<g id="node4" class="node">
<title>Node4</title>
<g id="a_node4"><a xlink:href="_o_m_sim_simple_g_p_s_beams_8cc.html" target="_top" xlink:title="Defines the AngularScan class for simple GPS beam configurations.">
<polygon fill="white" stroke="black" points="152,-0.5 152,-19.5 304,-19.5 304,-0.5 152,-0.5"/>
<text text-anchor="middle" x="228" y="-7.5" font-family="Helvetica,sans-Serif" font-size="10.00">OMSimSimpleGPSBeams.cc</text>
</a>
</g>
</g>
<!-- Node2&#45;&gt;Node4 -->
<g id="edge3" class="edge">
<title>Node2&#45;&gt;Node4</title>
<path fill="none" stroke="midnightblue" d="M228,-45.8C228,-36.91 228,-26.78 228,-19.75"/>
<polygon fill="midnightblue" stroke="midnightblue" points="224.5,-46.08 228,-56.08 231.5,-46.08 224.5,-46.08"/>
</g>
<!-- Node2&#45;&gt;Node5 -->
<g id="edge4" class="edge">
<title>Node2&#45;&gt;Node5</title>
<path fill="none" stroke="midnightblue" d="M263.52,-53.3C294.42,-43.13 338.47,-28.62 366.14,-19.52"/>
<polygon fill="midnightblue" stroke="midnightblue" points="262.39,-49.99 253.99,-56.44 264.58,-56.64 262.39,-49.99"/>
</g>
</g>
</svg>
