<?xml version="1.0" encoding="UTF-8" standalone="no"?>
<!DOCTYPE svg PUBLIC "-//W3C//DTD SVG 1.1//EN"
 "http://www.w3.org/Graphics/SVG/1.1/DTD/svg11.dtd">
<!-- Generated by graphviz version 2.43.0 (0)
 -->
<!-- Title: OMSimPrimaryGeneratorAction.cc Pages: 1 -->
<svg width="660pt" height="140pt"
 viewBox="0.00 0.00 659.50 140.00" xmlns="http://www.w3.org/2000/svg" xmlns:xlink="http://www.w3.org/1999/xlink">
<g id="graph0" class="graph" transform="scale(1 1) rotate(0) translate(4 136)">
<title>OMSimPrimaryGeneratorAction.cc</title>
<polygon fill="white" stroke="transparent" points="-4,4 -4,-136 655.5,-136 655.5,4 -4,4"/>
<!-- Node1 -->
<g id="node1" class="node">
<title>Node1</title>
<g id="a_node1"><a xlink:title=" ">
<polygon fill="#bfbfbf" stroke="black" points="290.5,-112.5 290.5,-131.5 473.5,-131.5 473.5,-112.5 290.5,-112.5"/>
<text text-anchor="middle" x="382" y="-119.5" font-family="Helvetica,sans-Serif" font-size="10.00">OMSimPrimaryGeneratorAction.cc</text>
</a>
</g>
</g>
<!-- Node2 -->
<g id="node2" class="node">
<title>Node2</title>
<g id="a_node2"><a xlink:href="_o_m_sim_primary_generator_action_8hh.html" target="_top" xlink:title=" ">
<polygon fill="white" stroke="black" points="77.5,-56.5 77.5,-75.5 262.5,-75.5 262.5,-56.5 77.5,-56.5"/>
<text text-anchor="middle" x="170" y="-63.5" font-family="Helvetica,sans-Serif" font-size="10.00">OMSimPrimaryGeneratorAction.hh</text>
</a>
</g>
</g>
<!-- Node1&#45;&gt;Node2 -->
<g id="edge1" class="edge">
<title>Node1&#45;&gt;Node2</title>
<path fill="none" stroke="midnightblue" d="M348.41,-112.44C311.81,-103.12 253.16,-88.18 213.17,-78"/>
<polygon fill="midnightblue" stroke="midnightblue" points="213.99,-74.59 203.43,-75.52 212.26,-81.38 213.99,-74.59"/>
</g>
<!-- Node5 -->
<g id="node5" class="node">
<title>Node5</title>
<g id="a_node5"><a xlink:title=" ">
<polygon fill="white" stroke="#bfbfbf" points="280.5,-56.5 280.5,-75.5 353.5,-75.5 353.5,-56.5 280.5,-56.5"/>
<text text-anchor="middle" x="317" y="-63.5" font-family="Helvetica,sans-Serif" font-size="10.00">G4Event.hh</text>
</a>
</g>
</g>
<!-- Node1&#45;&gt;Node5 -->
<g id="edge4" class="edge">
<title>Node1&#45;&gt;Node5</title>
<path fill="none" stroke="midnightblue" d="M371.56,-112.32C361.85,-104.26 347.18,-92.08 335.5,-82.37"/>
<polygon fill="midnightblue" stroke="midnightblue" points="337.56,-79.53 327.63,-75.83 333.09,-84.92 337.56,-79.53"/>
</g>
<!-- Node6 -->
<g id="node6" class="node">
<title>Node6</title>
<g id="a_node6"><a xlink:title=" ">
<polygon fill="white" stroke="#bfbfbf" points="372,-56.5 372,-75.5 524,-75.5 524,-56.5 372,-56.5"/>
<text text-anchor="middle" x="448" y="-63.5" font-family="Helvetica,sans-Serif" font-size="10.00">G4GeneralParticleSource.hh</text>
</a>
</g>
</g>
<!-- Node1&#45;&gt;Node6 -->
<g id="edge5" class="edge">
<title>Node1&#45;&gt;Node6</title>
<path fill="none" stroke="midnightblue" d="M392.6,-112.32C402.46,-104.26 417.35,-92.08 429.22,-82.37"/>
<polygon fill="midnightblue" stroke="midnightblue" points="431.68,-84.88 437.2,-75.83 427.25,-79.46 431.68,-84.88"/>
</g>
<!-- Node7 -->
<g id="node7" class="node">
<title>Node7</title>
<g id="a_node7"><a xlink:title=" ">
<polygon fill="white" stroke="#bfbfbf" points="542.5,-56.5 542.5,-75.5 651.5,-75.5 651.5,-56.5 542.5,-56.5"/>
<text text-anchor="middle" x="597" y="-63.5" font-family="Helvetica,sans-Serif" font-size="10.00">G4ParticleTypes.hh</text>
</a>
</g>
</g>
<!-- Node1&#45;&gt;Node7 -->
<g id="edge6" class="edge">
<title>Node1&#45;&gt;Node7</title>
<path fill="none" stroke="midnightblue" d="M416.07,-112.44C453.18,-103.12 512.66,-88.18 553.21,-78"/>
<polygon fill="midnightblue" stroke="midnightblue" points="554.25,-81.35 563.09,-75.52 552.54,-74.56 554.25,-81.35"/>
</g>
<!-- Node3 -->
<g id="node3" class="node">
<title>Node3</title>
<g id="a_node3"><a xlink:title=" ">
<polygon fill="white" stroke="#bfbfbf" points="0,-0.5 0,-19.5 192,-19.5 192,-0.5 0,-0.5"/>
<text text-anchor="middle" x="96" y="-7.5" font-family="Helvetica,sans-Serif" font-size="10.00">G4VUserPrimaryGeneratorAction.hh</text>
</a>
</g>
</g>
<!-- Node2&#45;&gt;Node3 -->
<g id="edge2" class="edge">
<title>Node2&#45;&gt;Node3</title>
<path fill="none" stroke="midnightblue" d="M158.11,-56.32C146.85,-48.11 129.71,-35.6 116.29,-25.81"/>
<polygon fill="midnightblue" stroke="midnightblue" points="118.25,-22.9 108.11,-19.83 114.12,-28.56 118.25,-22.9"/>
</g>
<!-- Node4 -->
<g id="node4" class="node">
<title>Node4</title>
<g id="a_node4"><a xlink:title=" ">
<polygon fill="white" stroke="#bfbfbf" points="210.5,-0.5 210.5,-19.5 277.5,-19.5 277.5,-0.5 210.5,-0.5"/>
<text text-anchor="middle" x="244" y="-7.5" font-family="Helvetica,sans-Serif" font-size="10.00">globals.hh</text>
</a>
</g>
</g>
<!-- Node2&#45;&gt;Node4 -->
<g id="edge3" class="edge">
<title>Node2&#45;&gt;Node4</title>
<path fill="none" stroke="midnightblue" d="M181.89,-56.32C193.15,-48.11 210.29,-35.6 223.71,-25.81"/>
<polygon fill="midnightblue" stroke="midnightblue" points="225.88,-28.56 231.89,-19.83 221.75,-22.9 225.88,-28.56"/>
</g>
</g>
</svg>
