<?xml version="1.0" encoding="UTF-8" standalone="no"?>
<!DOCTYPE svg PUBLIC "-//W3C//DTD SVG 1.1//EN"
 "http://www.w3.org/Graphics/SVG/1.1/DTD/svg11.dtd">
<!-- Generated by graphviz version 2.43.0 (0)
 -->
<!-- Title: OMSimEffectiveAreaAnalyisis.hh Pages: 1 -->
<svg width="342pt" height="84pt"
 viewBox="0.00 0.00 341.50 84.00" xmlns="http://www.w3.org/2000/svg" xmlns:xlink="http://www.w3.org/1999/xlink">
<g id="graph0" class="graph" transform="scale(1 1) rotate(0) translate(4 80)">
<title>OMSimEffectiveAreaAnalyisis.hh</title>
<polygon fill="white" stroke="transparent" points="-4,4 -4,-80 337.5,-80 337.5,4 -4,4"/>
<!-- Node1 -->
<g id="node1" class="node">
<title>Node1</title>
<g id="a_node1"><a xlink:title=" ">
<polygon fill="#bfbfbf" stroke="black" points="70,-56.5 70,-75.5 246,-75.5 246,-56.5 70,-56.5"/>
<text text-anchor="middle" x="158" y="-63.5" font-family="Helvetica,sans-Serif" font-size="10.00">OMSimEffectiveAreaAnalyisis.hh</text>
</a>
</g>
</g>
<!-- Node2 -->
<g id="node2" class="node">
<title>Node2</title>
<g id="a_node2"><a xlink:href="_o_m_sim__effective__area_8cc.html" target="_top" xlink:title="Main for the calculation of effective areas.">
<polygon fill="white" stroke="black" points="0,-0.5 0,-19.5 140,-19.5 140,-0.5 0,-0.5"/>
<text text-anchor="middle" x="70" y="-7.5" font-family="Helvetica,sans-Serif" font-size="10.00">OMSim_effective_area.cc</text>
</a>
</g>
</g>
<!-- Node1&#45;&gt;Node2 -->
<g id="edge1" class="edge">
<title>Node1&#45;&gt;Node2</title>
<path fill="none" stroke="midnightblue" d="M135.02,-50.9C118.89,-41 97.82,-28.07 84.1,-19.65"/>
<polygon fill="midnightblue" stroke="midnightblue" points="133.51,-54.08 143.86,-56.32 137.17,-48.11 133.51,-54.08"/>
</g>
<!-- Node3 -->
<g id="node3" class="node">
<title>Node3</title>
<g id="a_node3"><a xlink:href="_o_m_sim_effective_area_analyisis_8cc.html" target="_top" xlink:title=" ">
<polygon fill="white" stroke="black" points="158.5,-0.5 158.5,-19.5 333.5,-19.5 333.5,-0.5 158.5,-0.5"/>
<text text-anchor="middle" x="246" y="-7.5" font-family="Helvetica,sans-Serif" font-size="10.00">OMSimEffectiveAreaAnalyisis.cc</text>
</a>
</g>
</g>
<!-- Node1&#45;&gt;Node3 -->
<g id="edge2" class="edge">
<title>Node1&#45;&gt;Node3</title>
<path fill="none" stroke="midnightblue" d="M180.98,-50.9C197.11,-41 218.18,-28.07 231.9,-19.65"/>
<polygon fill="midnightblue" stroke="midnightblue" points="178.83,-48.11 172.14,-56.32 182.49,-54.08 178.83,-48.11"/>
</g>
</g>
</svg>
