<?xml version="1.0" encoding="UTF-8" standalone="no"?>
<!DOCTYPE svg PUBLIC "-//W3C//DTD SVG 1.1//EN"
 "http://www.w3.org/Graphics/SVG/1.1/DTD/svg11.dtd">
<!-- Generated by graphviz version 2.43.0 (0)
 -->
<!-- Title: OMSimMDOMFlasher.cc Pages: 1 -->
<svg width="1909pt" height="319pt"
 viewBox="0.00 0.00 1909.00 319.00" xmlns="http://www.w3.org/2000/svg" xmlns:xlink="http://www.w3.org/1999/xlink">
<g id="graph0" class="graph" transform="scale(1 1) rotate(0) translate(4 315)">
<title>OMSimMDOMFlasher.cc</title>
<polygon fill="white" stroke="transparent" points="-4,4 -4,-315 1905,-315 1905,4 -4,4"/>
<!-- Node1 -->
<g id="node1" class="node">
<title>Node1</title>
<g id="a_node1"><a xlink:title=" ">
<polygon fill="#bfbfbf" stroke="black" points="469,-291.5 469,-310.5 603,-310.5 603,-291.5 469,-291.5"/>
<text text-anchor="middle" x="536" y="-298.5" font-family="Helvetica,sans-Serif" font-size="10.00">OMSimMDOMFlasher.cc</text>
</a>
</g>
</g>
<!-- Node2 -->
<g id="node2" class="node">
<title>Node2</title>
<g id="a_node2"><a xlink:href="_o_m_sim_m_d_o_m_flasher_8hh.html" target="_top" xlink:title=" ">
<polygon fill="white" stroke="black" points="296.5,-179.5 296.5,-198.5 431.5,-198.5 431.5,-179.5 296.5,-179.5"/>
<text text-anchor="middle" x="364" y="-186.5" font-family="Helvetica,sans-Serif" font-size="10.00">OMSimMDOMFlasher.hh</text>
</a>
</g>
</g>
<!-- Node1&#45;&gt;Node2 -->
<g id="edge1" class="edge">
<title>Node1&#45;&gt;Node2</title>
<path fill="none" stroke="midnightblue" d="M522.5,-291.37C492.99,-272.49 422.46,-227.38 386.26,-204.24"/>
<polygon fill="midnightblue" stroke="midnightblue" points="387.74,-201.03 377.43,-198.59 383.97,-206.93 387.74,-201.03"/>
</g>
<!-- Node3 -->
<g id="node3" class="node">
<title>Node3</title>
<g id="a_node3"><a xlink:href="abc_detector_component_8hh.html" target="_top" xlink:title=" ">
<polygon fill="white" stroke="black" points="682.5,-123.5 682.5,-142.5 829.5,-142.5 829.5,-123.5 682.5,-123.5"/>
<text text-anchor="middle" x="756" y="-130.5" font-family="Helvetica,sans-Serif" font-size="10.00">abcDetectorComponent.hh</text>
</a>
</g>
</g>
<!-- Node1&#45;&gt;Node3 -->
<g id="edge46" class="edge">
<title>Node1&#45;&gt;Node3</title>
<path fill="none" stroke="midnightblue" d="M542.81,-291.17C552.93,-278.27 572.83,-253.75 592,-235 619.99,-207.63 626.9,-199.92 660,-179 680.5,-166.04 705.32,-154.51 724.59,-146.36"/>
<polygon fill="midnightblue" stroke="midnightblue" points="725.94,-149.59 733.84,-142.53 723.26,-143.12 725.94,-149.59"/>
</g>
<!-- Node4 -->
<g id="node4" class="node">
<title>Node4</title>
<g id="a_node4"><a xlink:title=" ">
<polygon fill="white" stroke="#bfbfbf" points="306,-67.5 306,-86.5 422,-86.5 422,-67.5 306,-67.5"/>
<text text-anchor="middle" x="364" y="-74.5" font-family="Helvetica,sans-Serif" font-size="10.00">G4LogicalVolume.hh</text>
</a>
</g>
</g>
<!-- Node1&#45;&gt;Node4 -->
<g id="edge49" class="edge">
<title>Node1&#45;&gt;Node4</title>
<path fill="none" stroke="midnightblue" d="M468.58,-296.84C357.56,-291.03 145.89,-277.18 120,-255 75.45,-216.83 76.9,-162.81 120,-123 126.64,-116.86 229.64,-99.4 299.67,-88.12"/>
<polygon fill="midnightblue" stroke="midnightblue" points="300.43,-91.55 309.74,-86.51 299.32,-84.63 300.43,-91.55"/>
</g>
<!-- Node5 -->
<g id="node5" class="node">
<title>Node5</title>
<g id="a_node5"><a xlink:title=" ">
<polygon fill="white" stroke="#bfbfbf" points="626.5,-6 626.5,-25 745.5,-25 745.5,-6 626.5,-6"/>
<text text-anchor="middle" x="686" y="-13" font-family="Helvetica,sans-Serif" font-size="10.00">G4SystemOfUnits.hh</text>
</a>
</g>
</g>
<!-- Node1&#45;&gt;Node5 -->
<g id="edge51" class="edge">
<title>Node1&#45;&gt;Node5</title>
<path fill="none" stroke="midnightblue" d="M468.93,-300.13C325.11,-298.61 0,-284.7 0,-190 0,-190 0,-190 0,-132 0,-56.07 84.3,-85.26 158,-67 318.73,-27.18 514.18,-18.39 616.27,-16.68"/>
<polygon fill="midnightblue" stroke="midnightblue" points="616.5,-20.17 626.45,-16.53 616.4,-13.17 616.5,-20.17"/>
</g>
<!-- Node6 -->
<g id="node6" class="node">
<title>Node6</title>
<g id="a_node6"><a xlink:title=" ">
<polygon fill="white" stroke="#bfbfbf" points="180.5,-67.5 180.5,-86.5 287.5,-86.5 287.5,-67.5 180.5,-67.5"/>
<text text-anchor="middle" x="234" y="-74.5" font-family="Helvetica,sans-Serif" font-size="10.00">G4Transform3D.hh</text>
</a>
</g>
</g>
<!-- Node1&#45;&gt;Node6 -->
<g id="edge52" class="edge">
<title>Node1&#45;&gt;Node6</title>
<path fill="none" stroke="midnightblue" d="M468.88,-297.23C353.34,-291.87 126.54,-278.47 99,-255 54.35,-216.94 58.78,-165.71 99,-123 117.62,-103.23 145.13,-92.14 170.47,-85.93"/>
<polygon fill="midnightblue" stroke="midnightblue" points="171.43,-89.3 180.42,-83.7 169.9,-82.47 171.43,-89.3"/>
</g>
<!-- Node7 -->
<g id="node7" class="node">
<title>Node7</title>
<g id="a_node7"><a xlink:title=" ">
<polygon fill="white" stroke="#bfbfbf" points="568,-67.5 568,-86.5 676,-86.5 676,-67.5 568,-67.5"/>
<text text-anchor="middle" x="622" y="-74.5" font-family="Helvetica,sans-Serif" font-size="10.00">G4VisAttributes.hh</text>
</a>
</g>
</g>
<!-- Node1&#45;&gt;Node7 -->
<g id="edge55" class="edge">
<title>Node1&#45;&gt;Node7</title>
<path fill="none" stroke="midnightblue" d="M468.58,-296.36C423.6,-291.54 364.43,-280.44 318,-255 251.28,-218.44 158.03,-179.48 209,-123 233.71,-95.62 488.74,-92.1 557.45,-86.86"/>
<polygon fill="midnightblue" stroke="midnightblue" points="558.09,-90.32 567.72,-85.89 557.44,-83.35 558.09,-90.32"/>
</g>
<!-- Node15 -->
<g id="node15" class="node">
<title>Node15</title>
<g id="a_node15"><a xlink:title=" ">
<polygon fill="white" stroke="#bfbfbf" points="440,-67.5 440,-86.5 550,-86.5 550,-67.5 440,-67.5"/>
<text text-anchor="middle" x="495" y="-74.5" font-family="Helvetica,sans-Serif" font-size="10.00">G4PVPlacement.hh</text>
</a>
</g>
</g>
<!-- Node1&#45;&gt;Node15 -->
<g id="edge50" class="edge">
<title>Node1&#45;&gt;Node15</title>
<path fill="none" stroke="midnightblue" d="M468.7,-297.2C360.96,-292.01 159.6,-279.18 138,-255 98.92,-211.25 99.13,-166.94 138,-123 179.6,-75.98 350.37,-93.83 429.73,-86.91"/>
<polygon fill="midnightblue" stroke="midnightblue" points="430.28,-90.37 439.85,-85.82 429.53,-83.41 430.28,-90.37"/>
</g>
<!-- Node18 -->
<g id="node18" class="node">
<title>Node18</title>
<g id="a_node18"><a xlink:title=" ">
<polygon fill="white" stroke="#bfbfbf" points="452,-123.5 452,-142.5 550,-142.5 550,-123.5 452,-123.5"/>
<text text-anchor="middle" x="501" y="-130.5" font-family="Helvetica,sans-Serif" font-size="10.00">G4UnionSolid.hh</text>
</a>
</g>
</g>
<!-- Node1&#45;&gt;Node18 -->
<g id="edge54" class="edge">
<title>Node1&#45;&gt;Node18</title>
<path fill="none" stroke="midnightblue" d="M534.12,-291.08C528.61,-264.95 512.43,-188.21 504.92,-152.58"/>
<polygon fill="midnightblue" stroke="midnightblue" points="508.29,-151.63 502.81,-142.57 501.44,-153.08 508.29,-151.63"/>
</g>
<!-- Node19 -->
<g id="node19" class="node">
<title>Node19</title>
<g id="a_node19"><a xlink:title=" ">
<polygon fill="white" stroke="#bfbfbf" points="366.5,-123.5 366.5,-142.5 433.5,-142.5 433.5,-123.5 366.5,-123.5"/>
<text text-anchor="middle" x="400" y="-130.5" font-family="Helvetica,sans-Serif" font-size="10.00">G4Tubs.hh</text>
</a>
</g>
</g>
<!-- Node1&#45;&gt;Node19 -->
<g id="edge53" class="edge">
<title>Node1&#45;&gt;Node19</title>
<path fill="none" stroke="midnightblue" d="M468.88,-293.2C409.89,-283.27 327.33,-258.88 287,-199 266.66,-168.8 316.5,-150.89 356.36,-141.75"/>
<polygon fill="midnightblue" stroke="midnightblue" points="357.19,-145.15 366.23,-139.61 355.71,-138.31 357.19,-145.15"/>
</g>
<!-- Node21 -->
<g id="node21" class="node">
<title>Node21</title>
<g id="a_node21"><a xlink:href="_o_m_sim_m_d_o_m_8hh.html" target="_top" xlink:title=" ">
<polygon fill="white" stroke="black" points="601,-235.5 601,-254.5 701,-254.5 701,-235.5 601,-235.5"/>
<text text-anchor="middle" x="651" y="-242.5" font-family="Helvetica,sans-Serif" font-size="10.00">OMSimMDOM.hh</text>
</a>
</g>
</g>
<!-- Node1&#45;&gt;Node21 -->
<g id="edge23" class="edge">
<title>Node1&#45;&gt;Node21</title>
<path fill="none" stroke="midnightblue" d="M554.22,-291.44C572.9,-282.68 602.16,-268.94 623.62,-258.86"/>
<polygon fill="midnightblue" stroke="midnightblue" points="625.3,-261.93 632.86,-254.52 622.32,-255.6 625.3,-261.93"/>
</g>
<!-- Node26 -->
<g id="node26" class="node">
<title>Node26</title>
<g id="a_node26"><a xlink:title=" ">
<polygon fill="white" stroke="#bfbfbf" points="1029.5,-179.5 1029.5,-198.5 1098.5,-198.5 1098.5,-179.5 1029.5,-179.5"/>
<text text-anchor="middle" x="1064" y="-186.5" font-family="Helvetica,sans-Serif" font-size="10.00">G4Cons.hh</text>
</a>
</g>
</g>
<!-- Node1&#45;&gt;Node26 -->
<g id="edge47" class="edge">
<title>Node1&#45;&gt;Node26</title>
<path fill="none" stroke="midnightblue" d="M580.5,-291.47C616.19,-283.92 667.22,-271.53 710,-255 727.8,-248.12 729.81,-240.78 748,-235 861.56,-198.9 898.41,-218.45 1019.3,-199.15"/>
<polygon fill="midnightblue" stroke="midnightblue" points="1020.01,-202.58 1029.31,-197.49 1018.87,-195.67 1020.01,-202.58"/>
</g>
<!-- Node27 -->
<g id="node27" class="node">
<title>Node27</title>
<g id="a_node27"><a xlink:title=" ">
<polygon fill="white" stroke="#bfbfbf" points="757,-235.5 757,-254.5 843,-254.5 843,-235.5 757,-235.5"/>
<text text-anchor="middle" x="800" y="-242.5" font-family="Helvetica,sans-Serif" font-size="10.00">G4Ellipsoid.hh</text>
</a>
</g>
</g>
<!-- Node1&#45;&gt;Node27 -->
<g id="edge48" class="edge">
<title>Node1&#45;&gt;Node27</title>
<path fill="none" stroke="midnightblue" d="M577.83,-291.44C624.08,-281.98 698.61,-266.74 748.44,-256.55"/>
<polygon fill="midnightblue" stroke="midnightblue" points="749.27,-259.95 758.36,-254.52 747.87,-253.09 749.27,-259.95"/>
</g>
<!-- Node28 -->
<g id="node28" class="node">
<title>Node28</title>
<g id="a_node28"><a xlink:href="_o_m_sim_logger_8hh.html" target="_top" xlink:title=" ">
<polygon fill="white" stroke="black" points="1302.5,-179.5 1302.5,-198.5 1401.5,-198.5 1401.5,-179.5 1302.5,-179.5"/>
<text text-anchor="middle" x="1352" y="-186.5" font-family="Helvetica,sans-Serif" font-size="10.00">OMSimLogger.hh</text>
</a>
</g>
</g>
<!-- Node1&#45;&gt;Node28 -->
<g id="edge56" class="edge">
<title>Node1&#45;&gt;Node28</title>
<path fill="none" stroke="midnightblue" d="M599.35,-291.46C752.82,-270.77 1142.84,-218.2 1292.39,-198.04"/>
<polygon fill="midnightblue" stroke="midnightblue" points="1292.86,-201.5 1302.31,-196.7 1291.93,-194.57 1292.86,-201.5"/>
</g>
<!-- Node31 -->
<g id="node31" class="node">
<title>Node31</title>
<g id="a_node31"><a xlink:href="_o_m_sim_command_args_table_8hh.html" target="_top" xlink:title="Definition of the OMSimCommandArgsTable singleton class, which controls user args.">
<polygon fill="white" stroke="black" points="1473,-179.5 1473,-198.5 1637,-198.5 1637,-179.5 1473,-179.5"/>
<text text-anchor="middle" x="1555" y="-186.5" font-family="Helvetica,sans-Serif" font-size="10.00">OMSimCommandArgsTable.hh</text>
</a>
</g>
</g>
<!-- Node1&#45;&gt;Node31 -->
<g id="edge59" class="edge">
<title>Node1&#45;&gt;Node31</title>
<path fill="none" stroke="midnightblue" d="M603.25,-292.88C686.53,-284.04 832.73,-268.5 958,-255 1138.87,-235.51 1350.52,-212.39 1466.97,-199.65"/>
<polygon fill="midnightblue" stroke="midnightblue" points="1467.69,-203.09 1477.25,-198.52 1466.93,-196.13 1467.69,-203.09"/>
</g>
<!-- Node37 -->
<g id="node37" class="node">
<title>Node37</title>
<g id="a_node37"><a xlink:href="_o_m_sim_u_iinterface_8hh.html" target="_top" xlink:title="The OMSimUIinterface class provides a singleton interface to Geant4&#39;s UI manager.">
<polygon fill="white" stroke="black" points="1494.5,-235.5 1494.5,-254.5 1615.5,-254.5 1615.5,-235.5 1494.5,-235.5"/>
<text text-anchor="middle" x="1555" y="-242.5" font-family="Helvetica,sans-Serif" font-size="10.00">OMSimUIinterface.hh</text>
</a>
</g>
</g>
<!-- Node1&#45;&gt;Node37 -->
<g id="edge66" class="edge">
<title>Node1&#45;&gt;Node37</title>
<path fill="none" stroke="midnightblue" d="M603.23,-297.75C755.62,-292.44 1138.94,-277.79 1459,-255 1467.22,-254.41 1475.83,-253.72 1484.38,-252.98"/>
<polygon fill="midnightblue" stroke="midnightblue" points="1484.7,-256.47 1494.35,-252.1 1484.08,-249.5 1484.7,-256.47"/>
</g>
<!-- Node39 -->
<g id="node39" class="node">
<title>Node39</title>
<g id="a_node39"><a xlink:title=" ">
<polygon fill="white" stroke="#bfbfbf" points="1634,-235.5 1634,-254.5 1798,-254.5 1798,-235.5 1634,-235.5"/>
<text text-anchor="middle" x="1716" y="-242.5" font-family="Helvetica,sans-Serif" font-size="10.00">G4TouchableHistoryHandle.hh</text>
</a>
</g>
</g>
<!-- Node1&#45;&gt;Node39 -->
<g id="edge72" class="edge">
<title>Node1&#45;&gt;Node39</title>
<path fill="none" stroke="midnightblue" d="M603.3,-298.56C772.74,-294.64 1230.83,-282.27 1623.54,-255.06"/>
<polygon fill="midnightblue" stroke="midnightblue" points="1623.95,-258.54 1633.68,-254.35 1623.46,-251.56 1623.95,-258.54"/>
</g>
<!-- Node2&#45;&gt;Node3 -->
<g id="edge2" class="edge">
<title>Node2&#45;&gt;Node3</title>
<path fill="none" stroke="midnightblue" d="M426.11,-179.44C496.22,-169.79 610.09,-154.1 684.02,-143.92"/>
<polygon fill="midnightblue" stroke="midnightblue" points="684.75,-147.35 694.18,-142.52 683.79,-140.41 684.75,-147.35"/>
</g>
<!-- Node2&#45;&gt;Node4 -->
<g id="edge18" class="edge">
<title>Node2&#45;&gt;Node4</title>
<path fill="none" stroke="midnightblue" d="M362.01,-179.18C359.44,-166.7 355.44,-143.14 357,-123 357.68,-114.22 359.09,-104.56 360.47,-96.45"/>
<polygon fill="midnightblue" stroke="midnightblue" points="363.92,-97.04 362.26,-86.58 357.03,-95.8 363.92,-97.04"/>
</g>
<!-- Node2&#45;&gt;Node5 -->
<g id="edge19" class="edge">
<title>Node2&#45;&gt;Node5</title>
<path fill="none" stroke="midnightblue" d="M299.22,-179.49C269.58,-173.14 235.29,-162.11 209,-143 178.45,-120.79 145.63,-94.98 171,-67 200.33,-34.65 482.19,-22.31 616.06,-18.24"/>
<polygon fill="midnightblue" stroke="midnightblue" points="616.32,-21.74 626.21,-17.94 616.11,-14.74 616.32,-21.74"/>
</g>
<!-- Node2&#45;&gt;Node18 -->
<g id="edge20" class="edge">
<title>Node2&#45;&gt;Node18</title>
<path fill="none" stroke="midnightblue" d="M385.71,-179.44C408.35,-170.52 444.07,-156.44 469.75,-146.32"/>
<polygon fill="midnightblue" stroke="midnightblue" points="471.37,-149.44 479.39,-142.52 468.81,-142.93 471.37,-149.44"/>
</g>
<!-- Node2&#45;&gt;Node19 -->
<g id="edge21" class="edge">
<title>Node2&#45;&gt;Node19</title>
<path fill="none" stroke="midnightblue" d="M369.94,-179.08C374.98,-171.53 382.34,-160.49 388.51,-151.23"/>
<polygon fill="midnightblue" stroke="midnightblue" points="391.53,-153.01 394.17,-142.75 385.71,-149.13 391.53,-153.01"/>
</g>
<!-- Node20 -->
<g id="node20" class="node">
<title>Node20</title>
<g id="a_node20"><a xlink:title=" ">
<polygon fill="white" stroke="#bfbfbf" points="218,-123.5 218,-142.5 310,-142.5 310,-123.5 218,-123.5"/>
<text text-anchor="middle" x="264" y="-130.5" font-family="Helvetica,sans-Serif" font-size="10.00">G4Navigator.hh</text>
</a>
</g>
</g>
<!-- Node2&#45;&gt;Node20 -->
<g id="edge22" class="edge">
<title>Node2&#45;&gt;Node20</title>
<path fill="none" stroke="midnightblue" d="M347.93,-179.32C332.04,-170.74 307.49,-157.49 289.04,-147.52"/>
<polygon fill="midnightblue" stroke="midnightblue" points="290.49,-144.33 280.03,-142.65 287.16,-150.49 290.49,-144.33"/>
</g>
<!-- Node3&#45;&gt;Node4 -->
<g id="edge3" class="edge">
<title>Node3&#45;&gt;Node4</title>
<path fill="none" stroke="midnightblue" d="M693.89,-123.44C622.65,-113.63 506.21,-97.59 432.42,-87.43"/>
<polygon fill="midnightblue" stroke="midnightblue" points="432.69,-83.93 422.31,-86.03 431.73,-90.86 432.69,-83.93"/>
</g>
<!-- Node3&#45;&gt;Node5 -->
<g id="edge4" class="edge">
<title>Node3&#45;&gt;Node5</title>
<path fill="none" stroke="midnightblue" d="M769.41,-123.48C787.08,-111.15 814.43,-87.57 801,-67 788.28,-47.53 766.2,-35.51 744.76,-28.12"/>
<polygon fill="midnightblue" stroke="midnightblue" points="745.58,-24.71 734.99,-25.04 743.48,-31.39 745.58,-24.71"/>
</g>
<!-- Node3&#45;&gt;Node6 -->
<g id="edge5" class="edge">
<title>Node3&#45;&gt;Node6</title>
<path fill="none" stroke="midnightblue" d="M682.36,-125.79C593.73,-118.09 440.15,-104.02 297.82,-87.05"/>
<polygon fill="midnightblue" stroke="midnightblue" points="297.94,-83.54 287.6,-85.82 297.11,-90.49 297.94,-83.54"/>
</g>
<!-- Node3&#45;&gt;Node7 -->
<g id="edge6" class="edge">
<title>Node3&#45;&gt;Node7</title>
<path fill="none" stroke="midnightblue" d="M734.77,-123.44C712.62,-114.52 677.68,-100.44 652.56,-90.32"/>
<polygon fill="midnightblue" stroke="midnightblue" points="653.72,-87.01 643.13,-86.52 651.1,-93.5 653.72,-87.01"/>
</g>
<!-- Node8 -->
<g id="node8" class="node">
<title>Node8</title>
<g id="a_node8"><a xlink:href="_o_m_sim_input_data_8hh.html" target="_top" xlink:title=" ">
<polygon fill="white" stroke="black" points="924.5,-67.5 924.5,-86.5 1039.5,-86.5 1039.5,-67.5 924.5,-67.5"/>
<text text-anchor="middle" x="982" y="-74.5" font-family="Helvetica,sans-Serif" font-size="10.00">OMSimInputData.hh</text>
</a>
</g>
</g>
<!-- Node3&#45;&gt;Node8 -->
<g id="edge7" class="edge">
<title>Node3&#45;&gt;Node8</title>
<path fill="none" stroke="midnightblue" d="M791.81,-123.44C830.99,-114.08 893.88,-99.06 936.52,-88.87"/>
<polygon fill="midnightblue" stroke="midnightblue" points="937.44,-92.24 946.36,-86.52 935.82,-85.44 937.44,-92.24"/>
</g>
<!-- Node14 -->
<g id="node14" class="node">
<title>Node14</title>
<g id="a_node14"><a xlink:title=" ">
<polygon fill="white" stroke="#bfbfbf" points="1057.5,-67.5 1057.5,-86.5 1182.5,-86.5 1182.5,-67.5 1057.5,-67.5"/>
<text text-anchor="middle" x="1120" y="-74.5" font-family="Helvetica,sans-Serif" font-size="10.00">G4SubtractionSolid.hh</text>
</a>
</g>
</g>
<!-- Node3&#45;&gt;Node14 -->
<g id="edge14" class="edge">
<title>Node3&#45;&gt;Node14</title>
<path fill="none" stroke="midnightblue" d="M813.68,-123.44C878.51,-113.83 983.65,-98.23 1052.32,-88.04"/>
<polygon fill="midnightblue" stroke="midnightblue" points="1053.21,-91.45 1062.59,-86.52 1052.19,-84.52 1053.21,-91.45"/>
</g>
<!-- Node3&#45;&gt;Node15 -->
<g id="edge15" class="edge">
<title>Node3&#45;&gt;Node15</title>
<path fill="none" stroke="midnightblue" d="M714.64,-123.44C668.92,-113.98 595.24,-98.74 545.98,-88.55"/>
<polygon fill="midnightblue" stroke="midnightblue" points="546.66,-85.12 536.16,-86.52 545.25,-91.97 546.66,-85.12"/>
</g>
<!-- Node16 -->
<g id="node16" class="node">
<title>Node16</title>
<g id="a_node16"><a xlink:title=" ">
<polygon fill="white" stroke="#bfbfbf" points="694,-67.5 694,-86.5 792,-86.5 792,-67.5 694,-67.5"/>
<text text-anchor="middle" x="743" y="-74.5" font-family="Helvetica,sans-Serif" font-size="10.00">G4MultiUnion.hh</text>
</a>
</g>
</g>
<!-- Node3&#45;&gt;Node16 -->
<g id="edge16" class="edge">
<title>Node3&#45;&gt;Node16</title>
<path fill="none" stroke="midnightblue" d="M753.85,-123.08C752.13,-115.93 749.65,-105.64 747.5,-96.69"/>
<polygon fill="midnightblue" stroke="midnightblue" points="750.85,-95.65 745.11,-86.75 744.04,-97.29 750.85,-95.65"/>
</g>
<!-- Node17 -->
<g id="node17" class="node">
<title>Node17</title>
<g id="a_node17"><a xlink:title=" ">
<polygon fill="white" stroke="#bfbfbf" points="1239,-67.5 1239,-86.5 1295,-86.5 1295,-67.5 1239,-67.5"/>
<text text-anchor="middle" x="1267" y="-74.5" font-family="Helvetica,sans-Serif" font-size="10.00">sstream</text>
</a>
</g>
</g>
<!-- Node3&#45;&gt;Node17 -->
<g id="edge17" class="edge">
<title>Node3&#45;&gt;Node17</title>
<path fill="none" stroke="midnightblue" d="M829.71,-124.77C916.44,-116.17 1064.76,-101.2 1192,-87 1204,-85.66 1217.06,-84.12 1228.87,-82.7"/>
<polygon fill="midnightblue" stroke="midnightblue" points="1229.37,-86.16 1238.88,-81.49 1228.53,-79.22 1229.37,-86.16"/>
</g>
<!-- Node8&#45;&gt;Node5 -->
<g id="edge13" class="edge">
<title>Node8&#45;&gt;Node5</title>
<path fill="none" stroke="midnightblue" d="M938.03,-67.44C892.28,-58.49 818.57,-43.98 755,-31 748.86,-29.75 742.42,-28.41 736.04,-27.09"/>
<polygon fill="midnightblue" stroke="midnightblue" points="736.62,-23.63 726.12,-25.01 735.19,-30.48 736.62,-23.63"/>
</g>
<!-- Node9 -->
<g id="node9" class="node">
<title>Node9</title>
<g id="a_node9"><a xlink:title=" ">
<polygon fill="white" stroke="#bfbfbf" points="1154.5,-0.5 1154.5,-30.5 1267.5,-30.5 1267.5,-0.5 1154.5,-0.5"/>
<text text-anchor="start" x="1162.5" y="-18.5" font-family="Helvetica,sans-Serif" font-size="10.00">boost/property_tree</text>
<text text-anchor="middle" x="1211" y="-7.5" font-family="Helvetica,sans-Serif" font-size="10.00">/ptree.hpp</text>
</a>
</g>
</g>
<!-- Node8&#45;&gt;Node9 -->
<g id="edge8" class="edge">
<title>Node8&#45;&gt;Node9</title>
<path fill="none" stroke="midnightblue" d="M1014.81,-67.48C1049.23,-58.53 1104.2,-44.25 1147.21,-33.07"/>
<polygon fill="midnightblue" stroke="midnightblue" points="1148.23,-36.43 1157.03,-30.52 1146.47,-29.65 1148.23,-36.43"/>
</g>
<!-- Node10 -->
<g id="node10" class="node">
<title>Node10</title>
<g id="a_node10"><a xlink:title=" ">
<polygon fill="white" stroke="#bfbfbf" points="1285.5,-0.5 1285.5,-30.5 1398.5,-30.5 1398.5,-0.5 1285.5,-0.5"/>
<text text-anchor="start" x="1293.5" y="-18.5" font-family="Helvetica,sans-Serif" font-size="10.00">boost/property_tree</text>
<text text-anchor="middle" x="1342" y="-7.5" font-family="Helvetica,sans-Serif" font-size="10.00">/json_parser.hpp</text>
</a>
</g>
</g>
<!-- Node8&#45;&gt;Node10 -->
<g id="edge9" class="edge">
<title>Node8&#45;&gt;Node10</title>
<path fill="none" stroke="midnightblue" d="M1039.78,-67.66C1108.09,-57.73 1218.76,-41.37 1275.4,-31.2"/>
<polygon fill="midnightblue" stroke="midnightblue" points="1276.12,-34.63 1285.33,-29.38 1274.86,-27.75 1276.12,-34.63"/>
</g>
<!-- Node11 -->
<g id="node11" class="node">
<title>Node11</title>
<g id="a_node11"><a xlink:title=" ">
<polygon fill="white" stroke="#bfbfbf" points="764,-6 764,-25 850,-25 850,-6 764,-6"/>
<text text-anchor="middle" x="807" y="-13" font-family="Helvetica,sans-Serif" font-size="10.00">G4Material.hh</text>
</a>
</g>
</g>
<!-- Node8&#45;&gt;Node11 -->
<g id="edge10" class="edge">
<title>Node8&#45;&gt;Node11</title>
<path fill="none" stroke="midnightblue" d="M956.93,-67.48C926.65,-57.18 875.56,-39.81 841.56,-28.25"/>
<polygon fill="midnightblue" stroke="midnightblue" points="842.62,-24.91 832.03,-25.01 840.37,-31.54 842.62,-24.91"/>
</g>
<!-- Node12 -->
<g id="node12" class="node">
<title>Node12</title>
<g id="a_node12"><a xlink:title=" ">
<polygon fill="white" stroke="#bfbfbf" points="868.5,-6 868.5,-25 975.5,-25 975.5,-6 868.5,-6"/>
<text text-anchor="middle" x="922" y="-13" font-family="Helvetica,sans-Serif" font-size="10.00">G4NistManager.hh</text>
</a>
</g>
</g>
<!-- Node8&#45;&gt;Node12 -->
<g id="edge11" class="edge">
<title>Node8&#45;&gt;Node12</title>
<path fill="none" stroke="midnightblue" d="M973.4,-67.48C964.14,-58.28 949.18,-43.46 937.79,-32.16"/>
<polygon fill="midnightblue" stroke="midnightblue" points="940.15,-29.57 930.58,-25.01 935.22,-34.54 940.15,-29.57"/>
</g>
<!-- Node13 -->
<g id="node13" class="node">
<title>Node13</title>
<g id="a_node13"><a xlink:title=" ">
<polygon fill="white" stroke="#bfbfbf" points="993.5,-6 993.5,-25 1136.5,-25 1136.5,-6 993.5,-6"/>
<text text-anchor="middle" x="1065" y="-13" font-family="Helvetica,sans-Serif" font-size="10.00">G4OpBoundaryProcess.hh</text>
</a>
</g>
</g>
<!-- Node8&#45;&gt;Node13 -->
<g id="edge12" class="edge">
<title>Node8&#45;&gt;Node13</title>
<path fill="none" stroke="midnightblue" d="M993.89,-67.48C1007.2,-57.93 1029,-42.31 1044.96,-30.87"/>
<polygon fill="midnightblue" stroke="midnightblue" points="1047.04,-33.68 1053.13,-25.01 1042.96,-27.99 1047.04,-33.68"/>
</g>
<!-- Node21&#45;&gt;Node2 -->
<g id="edge25" class="edge">
<title>Node21&#45;&gt;Node2</title>
<path fill="none" stroke="midnightblue" d="M605.52,-235.44C555.04,-225.94 473.54,-210.61 419.38,-200.42"/>
<polygon fill="midnightblue" stroke="midnightblue" points="419.74,-196.93 409.26,-198.52 418.44,-203.81 419.74,-196.93"/>
</g>
<!-- Node21&#45;&gt;Node3 -->
<g id="edge24" class="edge">
<title>Node21&#45;&gt;Node3</title>
<path fill="none" stroke="midnightblue" d="M652.21,-235.46C654.5,-222.03 660.59,-195.8 675,-179 687.31,-164.64 705.4,-153.98 721.37,-146.64"/>
<polygon fill="midnightblue" stroke="midnightblue" points="723.17,-149.68 730.96,-142.51 720.39,-143.25 723.17,-149.68"/>
</g>
<!-- Node21&#45;&gt;Node4 -->
<g id="edge40" class="edge">
<title>Node21&#45;&gt;Node4</title>
<path fill="none" stroke="midnightblue" d="M647.07,-235.33C636.41,-212.88 604.66,-152.51 559,-123 537.75,-109.27 477.57,-96.6 429.62,-88.22"/>
<polygon fill="midnightblue" stroke="midnightblue" points="430.05,-84.74 419.6,-86.5 428.86,-91.64 430.05,-84.74"/>
</g>
<!-- Node21&#45;&gt;Node5 -->
<g id="edge41" class="edge">
<title>Node21&#45;&gt;Node5</title>
<path fill="none" stroke="midnightblue" d="M656.15,-235.4C664.97,-221.42 684.34,-193.82 708,-179 759.17,-146.95 802.4,-191.02 839,-143 855.23,-121.7 831.1,-81.81 816,-67 796.09,-47.47 767.77,-35.29 742.64,-27.8"/>
<polygon fill="midnightblue" stroke="midnightblue" points="743.41,-24.38 732.83,-25.06 741.52,-31.12 743.41,-24.38"/>
</g>
<!-- Node21&#45;&gt;Node18 -->
<g id="edge42" class="edge">
<title>Node21&#45;&gt;Node18</title>
<path fill="none" stroke="midnightblue" d="M639.23,-235.37C613.6,-216.57 552.5,-171.77 520.82,-148.53"/>
<polygon fill="midnightblue" stroke="midnightblue" points="522.85,-145.68 512.72,-142.59 518.71,-151.33 522.85,-145.68"/>
</g>
<!-- Node21&#45;&gt;Node19 -->
<g id="edge45" class="edge">
<title>Node21&#45;&gt;Node19</title>
<path fill="none" stroke="midnightblue" d="M631.3,-235.37C587.22,-216.05 480.46,-169.26 428.86,-146.65"/>
<polygon fill="midnightblue" stroke="midnightblue" points="430.17,-143.4 419.6,-142.59 427.36,-149.81 430.17,-143.4"/>
</g>
<!-- Node22 -->
<g id="node22" class="node">
<title>Node22</title>
<g id="a_node22"><a xlink:href="_o_m_sim_p_m_t_construction_8hh.html" target="_top" xlink:title=" ">
<polygon fill="white" stroke="black" points="862.5,-179.5 862.5,-198.5 1011.5,-198.5 1011.5,-179.5 862.5,-179.5"/>
<text text-anchor="middle" x="937" y="-186.5" font-family="Helvetica,sans-Serif" font-size="10.00">OMSimPMTConstruction.hh</text>
</a>
</g>
</g>
<!-- Node21&#45;&gt;Node22 -->
<g id="edge26" class="edge">
<title>Node21&#45;&gt;Node22</title>
<path fill="none" stroke="midnightblue" d="M696.32,-235.44C746.63,-225.94 827.84,-210.61 881.81,-200.42"/>
<polygon fill="midnightblue" stroke="midnightblue" points="882.72,-203.81 891.89,-198.52 881.42,-196.93 882.72,-203.81"/>
</g>
<!-- Node25 -->
<g id="node25" class="node">
<title>Node25</title>
<g id="a_node25"><a xlink:title=" ">
<polygon fill="white" stroke="#bfbfbf" points="717.5,-179.5 717.5,-198.5 844.5,-198.5 844.5,-179.5 717.5,-179.5"/>
<text text-anchor="middle" x="781" y="-186.5" font-family="Helvetica,sans-Serif" font-size="10.00">G4IntersectionSolid.hh</text>
</a>
</g>
</g>
<!-- Node21&#45;&gt;Node25 -->
<g id="edge43" class="edge">
<title>Node21&#45;&gt;Node25</title>
<path fill="none" stroke="midnightblue" d="M671.6,-235.44C692.99,-226.56 726.68,-212.56 751.02,-202.45"/>
<polygon fill="midnightblue" stroke="midnightblue" points="752.61,-205.58 760.5,-198.52 749.92,-199.12 752.61,-205.58"/>
</g>
<!-- Node21&#45;&gt;Node26 -->
<g id="edge44" class="edge">
<title>Node21&#45;&gt;Node26</title>
<path fill="none" stroke="midnightblue" d="M701.29,-236.82C705.93,-236.19 710.55,-235.57 715,-235 847.63,-217.88 884.15,-220.89 1019.4,-199.15"/>
<polygon fill="midnightblue" stroke="midnightblue" points="1020.01,-202.59 1029.32,-197.54 1018.88,-195.68 1020.01,-202.59"/>
</g>
<!-- Node22&#45;&gt;Node3 -->
<g id="edge29" class="edge">
<title>Node22&#45;&gt;Node3</title>
<path fill="none" stroke="midnightblue" d="M908.32,-179.44C877.47,-170.24 828.27,-155.56 794.17,-145.39"/>
<polygon fill="midnightblue" stroke="midnightblue" points="795.13,-142.02 784.55,-142.52 793.13,-148.73 795.13,-142.02"/>
</g>
<!-- Node22&#45;&gt;Node4 -->
<g id="edge30" class="edge">
<title>Node22&#45;&gt;Node4</title>
<path fill="none" stroke="midnightblue" d="M870.62,-179.48C787.25,-168.6 652.38,-150.29 630,-143 611.85,-137.09 609.99,-129.36 592,-123 562.08,-112.43 482.84,-97.86 426.19,-88.19"/>
<polygon fill="midnightblue" stroke="midnightblue" points="426.69,-84.73 416.25,-86.51 425.52,-91.63 426.69,-84.73"/>
</g>
<!-- Node22&#45;&gt;Node5 -->
<g id="edge31" class="edge">
<title>Node22&#45;&gt;Node5</title>
<path fill="none" stroke="midnightblue" d="M934.93,-179.45C929.11,-157.29 910.46,-97.56 872,-67 861.04,-58.29 784.93,-39.39 733.53,-27.34"/>
<polygon fill="midnightblue" stroke="midnightblue" points="734.14,-23.89 723.6,-25.03 732.55,-30.71 734.14,-23.89"/>
</g>
<!-- Node22&#45;&gt;Node7 -->
<g id="edge33" class="edge">
<title>Node22&#45;&gt;Node7</title>
<path fill="none" stroke="midnightblue" d="M926.89,-179.36C909.9,-165.31 874.05,-137.61 839,-123 811.64,-111.59 738.62,-97.62 684.8,-88.3"/>
<polygon fill="midnightblue" stroke="midnightblue" points="685.1,-84.8 674.65,-86.55 683.91,-91.7 685.1,-84.8"/>
</g>
<!-- Node22&#45;&gt;Node8 -->
<g id="edge36" class="edge">
<title>Node22&#45;&gt;Node8</title>
<path fill="none" stroke="midnightblue" d="M965.02,-179.4C982.17,-172.51 1002.75,-160.98 1013,-143 1022.23,-126.81 1010.2,-107.44 998.54,-94.08"/>
<polygon fill="midnightblue" stroke="midnightblue" points="1000.92,-91.5 991.52,-86.62 995.82,-96.3 1000.92,-91.5"/>
</g>
<!-- Node22&#45;&gt;Node9 -->
<g id="edge27" class="edge">
<title>Node22&#45;&gt;Node9</title>
<path fill="none" stroke="midnightblue" d="M1000.03,-179.49C1058.16,-168.31 1142.69,-143.03 1192,-87 1203.19,-74.29 1207.87,-55.65 1209.8,-40.73"/>
<polygon fill="midnightblue" stroke="midnightblue" points="1213.29,-40.95 1210.76,-30.66 1206.32,-40.28 1213.29,-40.95"/>
</g>
<!-- Node22&#45;&gt;Node10 -->
<g id="edge28" class="edge">
<title>Node22&#45;&gt;Node10</title>
<path fill="none" stroke="midnightblue" d="M988.09,-179.46C1077.24,-163.67 1256.29,-127.8 1304,-87 1318.34,-74.74 1328.15,-55.67 1334.21,-40.45"/>
<polygon fill="midnightblue" stroke="midnightblue" points="1337.64,-41.26 1337.81,-30.67 1331.07,-38.84 1337.64,-41.26"/>
</g>
<!-- Node22&#45;&gt;Node14 -->
<g id="edge34" class="edge">
<title>Node22&#45;&gt;Node14</title>
<path fill="none" stroke="midnightblue" d="M956.64,-179.37C975.39,-170.88 1004.23,-157.16 1028,-143 1054.28,-127.35 1082.79,-106.56 1100.99,-92.75"/>
<polygon fill="midnightblue" stroke="midnightblue" points="1103.23,-95.45 1109.05,-86.59 1098.98,-89.89 1103.23,-95.45"/>
</g>
<!-- Node22&#45;&gt;Node15 -->
<g id="edge35" class="edge">
<title>Node22&#45;&gt;Node15</title>
<path fill="none" stroke="midnightblue" d="M875.72,-179.48C809.91,-169.99 709.84,-154.48 673,-143 652.88,-136.73 649.58,-130.79 630,-123 597.9,-110.23 560.59,-97.99 533.34,-89.5"/>
<polygon fill="midnightblue" stroke="midnightblue" points="534.37,-86.16 523.78,-86.55 532.31,-92.85 534.37,-86.16"/>
</g>
<!-- Node22&#45;&gt;Node18 -->
<g id="edge32" class="edge">
<title>Node22&#45;&gt;Node18</title>
<path fill="none" stroke="midnightblue" d="M867.91,-179.44C783.12,-168.94 640.74,-151.31 560.56,-141.38"/>
<polygon fill="midnightblue" stroke="midnightblue" points="560.5,-137.84 550.14,-140.09 559.64,-144.79 560.5,-137.84"/>
</g>
<!-- Node22&#45;&gt;Node19 -->
<g id="edge37" class="edge">
<title>Node22&#45;&gt;Node19</title>
<path fill="none" stroke="midnightblue" d="M862.35,-179.83C859.53,-179.55 856.74,-179.27 854,-179 674.72,-161.43 626.09,-169.53 443.66,-142.92"/>
<polygon fill="midnightblue" stroke="midnightblue" points="444.14,-139.45 433.73,-141.46 443.12,-146.38 444.14,-139.45"/>
</g>
<!-- Node23 -->
<g id="node23" class="node">
<title>Node23</title>
<g id="a_node23"><a xlink:title=" ">
<polygon fill="white" stroke="#bfbfbf" points="962.5,-123.5 962.5,-142.5 1003.5,-142.5 1003.5,-123.5 962.5,-123.5"/>
<text text-anchor="middle" x="983" y="-130.5" font-family="Helvetica,sans-Serif" font-size="10.00">tuple</text>
</a>
</g>
</g>
<!-- Node22&#45;&gt;Node23 -->
<g id="edge38" class="edge">
<title>Node22&#45;&gt;Node23</title>
<path fill="none" stroke="midnightblue" d="M944.6,-179.08C951.23,-171.3 961.02,-159.8 969.06,-150.37"/>
<polygon fill="midnightblue" stroke="midnightblue" points="971.73,-152.63 975.55,-142.75 966.4,-148.09 971.73,-152.63"/>
</g>
<!-- Node24 -->
<g id="node24" class="node">
<title>Node24</title>
<g id="a_node24"><a xlink:title=" ">
<polygon fill="white" stroke="#bfbfbf" points="1238,-123.5 1238,-142.5 1276,-142.5 1276,-123.5 1238,-123.5"/>
<text text-anchor="middle" x="1257" y="-130.5" font-family="Helvetica,sans-Serif" font-size="10.00">map</text>
</a>
</g>
</g>
<!-- Node22&#45;&gt;Node24 -->
<g id="edge39" class="edge">
<title>Node22&#45;&gt;Node24</title>
<path fill="none" stroke="midnightblue" d="M1005.24,-179.47C1063.63,-171.65 1149.78,-158.89 1224,-143 1225.27,-142.73 1226.57,-142.44 1227.88,-142.13"/>
<polygon fill="midnightblue" stroke="midnightblue" points="1229.06,-145.44 1237.89,-139.6 1227.34,-138.66 1229.06,-145.44"/>
</g>
<!-- Node29 -->
<g id="node29" class="node">
<title>Node29</title>
<g id="a_node29"><a xlink:title=" ">
<polygon fill="white" stroke="#bfbfbf" points="1360,-123.5 1360,-142.5 1410,-142.5 1410,-123.5 1360,-123.5"/>
<text text-anchor="middle" x="1385" y="-130.5" font-family="Helvetica,sans-Serif" font-size="10.00">stdio.h</text>
</a>
</g>
</g>
<!-- Node28&#45;&gt;Node29 -->
<g id="edge57" class="edge">
<title>Node28&#45;&gt;Node29</title>
<path fill="none" stroke="midnightblue" d="M1357.45,-179.08C1362.01,-171.61 1368.67,-160.72 1374.29,-151.52"/>
<polygon fill="midnightblue" stroke="midnightblue" points="1377.42,-153.11 1379.65,-142.75 1371.45,-149.46 1377.42,-153.11"/>
</g>
<!-- Node30 -->
<g id="node30" class="node">
<title>Node30</title>
<g id="a_node30"><a xlink:title=" ">
<polygon fill="white" stroke="#bfbfbf" points="1294,-123.5 1294,-142.5 1342,-142.5 1342,-123.5 1294,-123.5"/>
<text text-anchor="middle" x="1318" y="-130.5" font-family="Helvetica,sans-Serif" font-size="10.00">time.h</text>
</a>
</g>
</g>
<!-- Node28&#45;&gt;Node30 -->
<g id="edge58" class="edge">
<title>Node28&#45;&gt;Node30</title>
<path fill="none" stroke="midnightblue" d="M1346.39,-179.08C1341.63,-171.53 1334.68,-160.49 1328.85,-151.23"/>
<polygon fill="midnightblue" stroke="midnightblue" points="1331.8,-149.35 1323.51,-142.75 1325.88,-153.08 1331.8,-149.35"/>
</g>
<!-- Node31&#45;&gt;Node24 -->
<g id="edge60" class="edge">
<title>Node31&#45;&gt;Node24</title>
<path fill="none" stroke="midnightblue" d="M1487.04,-179.47C1434.46,-172.23 1359.76,-160.56 1286.09,-142.97"/>
<polygon fill="midnightblue" stroke="midnightblue" points="1286.72,-139.53 1276.17,-140.57 1285.07,-146.33 1286.72,-139.53"/>
</g>
<!-- Node32 -->
<g id="node32" class="node">
<title>Node32</title>
<g id="a_node32"><a xlink:title=" ">
<polygon fill="white" stroke="#bfbfbf" points="1529.5,-123.5 1529.5,-142.5 1580.5,-142.5 1580.5,-123.5 1529.5,-123.5"/>
<text text-anchor="middle" x="1555" y="-130.5" font-family="Helvetica,sans-Serif" font-size="10.00">variant</text>
</a>
</g>
</g>
<!-- Node31&#45;&gt;Node32 -->
<g id="edge61" class="edge">
<title>Node31&#45;&gt;Node32</title>
<path fill="none" stroke="midnightblue" d="M1555,-179.08C1555,-172.01 1555,-161.86 1555,-152.99"/>
<polygon fill="midnightblue" stroke="midnightblue" points="1558.5,-152.75 1555,-142.75 1551.5,-152.75 1558.5,-152.75"/>
</g>
<!-- Node33 -->
<g id="node33" class="node">
<title>Node33</title>
<g id="a_node33"><a xlink:title=" ">
<polygon fill="white" stroke="#bfbfbf" points="1857,-123.5 1857,-142.5 1901,-142.5 1901,-123.5 1857,-123.5"/>
<text text-anchor="middle" x="1879" y="-130.5" font-family="Helvetica,sans-Serif" font-size="10.00">string</text>
</a>
</g>
</g>
<!-- Node31&#45;&gt;Node33 -->
<g id="edge62" class="edge">
<title>Node31&#45;&gt;Node33</title>
<path fill="none" stroke="midnightblue" d="M1606.34,-179.44C1673.89,-168.18 1790.63,-148.73 1846.87,-139.35"/>
<polygon fill="midnightblue" stroke="midnightblue" points="1847.68,-142.77 1856.97,-137.67 1846.53,-135.86 1847.68,-142.77"/>
</g>
<!-- Node34 -->
<g id="node34" class="node">
<title>Node34</title>
<g id="a_node34"><a xlink:title=" ">
<polygon fill="white" stroke="#bfbfbf" points="1598.5,-123.5 1598.5,-142.5 1663.5,-142.5 1663.5,-123.5 1598.5,-123.5"/>
<text text-anchor="middle" x="1631" y="-130.5" font-family="Helvetica,sans-Serif" font-size="10.00">stdexcept</text>
</a>
</g>
</g>
<!-- Node31&#45;&gt;Node34 -->
<g id="edge63" class="edge">
<title>Node31&#45;&gt;Node34</title>
<path fill="none" stroke="midnightblue" d="M1567.21,-179.32C1578.78,-171.11 1596.38,-158.6 1610.16,-148.81"/>
<polygon fill="midnightblue" stroke="midnightblue" points="1612.44,-151.48 1618.57,-142.83 1608.39,-145.77 1612.44,-151.48"/>
</g>
<!-- Node35 -->
<g id="node35" class="node">
<title>Node35</title>
<g id="a_node35"><a xlink:title=" ">
<polygon fill="white" stroke="#bfbfbf" points="1681.5,-123.5 1681.5,-142.5 1748.5,-142.5 1748.5,-123.5 1681.5,-123.5"/>
<text text-anchor="middle" x="1715" y="-130.5" font-family="Helvetica,sans-Serif" font-size="10.00">globals.hh</text>
</a>
</g>
</g>
<!-- Node31&#45;&gt;Node35 -->
<g id="edge64" class="edge">
<title>Node31&#45;&gt;Node35</title>
<path fill="none" stroke="midnightblue" d="M1580.35,-179.44C1607.27,-170.36 1650,-155.94 1680.09,-145.78"/>
<polygon fill="midnightblue" stroke="midnightblue" points="1681.41,-149.03 1689.77,-142.52 1679.17,-142.4 1681.41,-149.03"/>
</g>
<!-- Node36 -->
<g id="node36" class="node">
<title>Node36</title>
<g id="a_node36"><a xlink:title=" ">
<polygon fill="white" stroke="#bfbfbf" points="1428,-123.5 1428,-142.5 1512,-142.5 1512,-123.5 1428,-123.5"/>
<text text-anchor="middle" x="1470" y="-130.5" font-family="Helvetica,sans-Serif" font-size="10.00">boost/any.hpp</text>
</a>
</g>
</g>
<!-- Node31&#45;&gt;Node36 -->
<g id="edge65" class="edge">
<title>Node31&#45;&gt;Node36</title>
<path fill="none" stroke="midnightblue" d="M1541.34,-179.32C1528.08,-170.9 1507.73,-157.97 1492.15,-148.07"/>
<polygon fill="midnightblue" stroke="midnightblue" points="1493.94,-145.06 1483.62,-142.65 1490.19,-150.97 1493.94,-145.06"/>
</g>
<!-- Node37&#45;&gt;Node17 -->
<g id="edge67" class="edge">
<title>Node37&#45;&gt;Node17</title>
<path fill="none" stroke="midnightblue" d="M1599.29,-235.44C1673.63,-219.24 1810.48,-180.51 1758,-123 1727.64,-89.73 1415.35,-80.75 1305.2,-78.61"/>
<polygon fill="midnightblue" stroke="midnightblue" points="1305.25,-75.11 1295.19,-78.42 1305.12,-82.11 1305.25,-75.11"/>
</g>
<!-- Node37&#45;&gt;Node28 -->
<g id="edge70" class="edge">
<title>Node37&#45;&gt;Node28</title>
<path fill="none" stroke="midnightblue" d="M1522.83,-235.44C1487.94,-226.16 1432.11,-211.31 1393.83,-201.13"/>
<polygon fill="midnightblue" stroke="midnightblue" points="1394.58,-197.7 1384.02,-198.52 1392.78,-204.47 1394.58,-197.7"/>
</g>
<!-- Node37&#45;&gt;Node31 -->
<g id="edge71" class="edge">
<title>Node37&#45;&gt;Node31</title>
<path fill="none" stroke="midnightblue" d="M1555,-235.08C1555,-228.01 1555,-217.86 1555,-208.99"/>
<polygon fill="midnightblue" stroke="midnightblue" points="1558.5,-208.75 1555,-198.75 1551.5,-208.75 1558.5,-208.75"/>
</g>
<!-- Node37&#45;&gt;Node33 -->
<g id="edge68" class="edge">
<title>Node37&#45;&gt;Node33</title>
<path fill="none" stroke="midnightblue" d="M1615.85,-235.98C1711.13,-223.39 1884.89,-200.27 1886,-199 1897.05,-186.34 1892.98,-166.58 1887.58,-152.17"/>
<polygon fill="midnightblue" stroke="midnightblue" points="1890.73,-150.64 1883.61,-142.8 1884.29,-153.37 1890.73,-150.64"/>
</g>
<!-- Node38 -->
<g id="node38" class="node">
<title>Node38</title>
<g id="a_node38"><a xlink:title=" ">
<polygon fill="white" stroke="#bfbfbf" points="1779,-179.5 1779,-198.5 1877,-198.5 1877,-179.5 1779,-179.5"/>
<text text-anchor="middle" x="1828" y="-186.5" font-family="Helvetica,sans-Serif" font-size="10.00">G4UImanager.hh</text>
</a>
</g>
</g>
<!-- Node37&#45;&gt;Node38 -->
<g id="edge69" class="edge">
<title>Node37&#45;&gt;Node38</title>
<path fill="none" stroke="midnightblue" d="M1598.26,-235.44C1646.18,-225.96 1723.48,-210.67 1775,-200.48"/>
<polygon fill="midnightblue" stroke="midnightblue" points="1775.81,-203.89 1784.94,-198.52 1774.46,-197.02 1775.81,-203.89"/>
</g>
</g>
</svg>
