<?xml version="1.0" encoding="UTF-8" standalone="no"?>
<!DOCTYPE svg PUBLIC "-//W3C//DTD SVG 1.1//EN"
 "http://www.w3.org/Graphics/SVG/1.1/DTD/svg11.dtd">
<!-- Generated by graphviz version 2.43.0 (0)
 -->
<!-- Title: OMSimDecaysGPS.cc Pages: 1 -->
<svg width="1151pt" height="375pt"
 viewBox="0.00 0.00 1150.50 375.00" xmlns="http://www.w3.org/2000/svg" xmlns:xlink="http://www.w3.org/1999/xlink">
<g id="graph0" class="graph" transform="scale(1 1) rotate(0) translate(4 371)">
<title>OMSimDecaysGPS.cc</title>
<polygon fill="white" stroke="transparent" points="-4,4 -4,-371 1146.5,-371 1146.5,4 -4,4"/>
<!-- Node1 -->
<g id="node1" class="node">
<title>Node1</title>
<g id="a_node1"><a xlink:title=" ">
<polygon fill="#bfbfbf" stroke="black" points="737,-347.5 737,-366.5 858,-366.5 858,-347.5 737,-347.5"/>
<text text-anchor="middle" x="797.5" y="-354.5" font-family="Helvetica,sans-Serif" font-size="10.00">OMSimDecaysGPS.cc</text>
</a>
</g>
</g>
<!-- Node2 -->
<g id="node2" class="node">
<title>Node2</title>
<g id="a_node2"><a xlink:href="_o_m_sim_decays_g_p_s_8hh.html" target="_top" xlink:title="Defines the IsotopeDecays class for the radioactive decays simulation.">
<polygon fill="white" stroke="black" points="601.5,-291.5 601.5,-310.5 723.5,-310.5 723.5,-291.5 601.5,-291.5"/>
<text text-anchor="middle" x="662.5" y="-298.5" font-family="Helvetica,sans-Serif" font-size="10.00">OMSimDecaysGPS.hh</text>
</a>
</g>
</g>
<!-- Node1&#45;&gt;Node2 -->
<g id="edge1" class="edge">
<title>Node1&#45;&gt;Node2</title>
<path fill="none" stroke="midnightblue" d="M776.11,-347.44C753.79,-338.52 718.6,-324.44 693.29,-314.32"/>
<polygon fill="midnightblue" stroke="midnightblue" points="694.38,-310.98 683.79,-310.52 691.78,-317.48 694.38,-310.98"/>
</g>
<!-- Node7 -->
<g id="node7" class="node">
<title>Node7</title>
<g id="a_node7"><a xlink:title=" ">
<polygon fill="white" stroke="#bfbfbf" points="493,-6 493,-25 612,-25 612,-6 493,-6"/>
<text text-anchor="middle" x="552.5" y="-13" font-family="Helvetica,sans-Serif" font-size="10.00">G4SystemOfUnits.hh</text>
</a>
</g>
</g>
<!-- Node1&#45;&gt;Node7 -->
<g id="edge26" class="edge">
<title>Node1&#45;&gt;Node7</title>
<path fill="none" stroke="midnightblue" d="M791.38,-347.35C779.29,-329.38 753.5,-286.31 753.5,-246 753.5,-246 753.5,-246 753.5,-132 753.5,-101.9 755.93,-88.14 734.5,-67 704.93,-37.83 660.06,-25.16 622.27,-19.81"/>
<polygon fill="midnightblue" stroke="midnightblue" points="622.69,-16.33 612.32,-18.54 621.8,-23.28 622.69,-16.33"/>
</g>
<!-- Node17 -->
<g id="node17" class="node">
<title>Node17</title>
<g id="a_node17"><a xlink:href="_o_m_sim_u_iinterface_8hh.html" target="_top" xlink:title="The OMSimUIinterface class provides a singleton interface to Geant4&#39;s UI manager.">
<polygon fill="white" stroke="black" points="792,-291.5 792,-310.5 913,-310.5 913,-291.5 792,-291.5"/>
<text text-anchor="middle" x="852.5" y="-298.5" font-family="Helvetica,sans-Serif" font-size="10.00">OMSimUIinterface.hh</text>
</a>
</g>
</g>
<!-- Node1&#45;&gt;Node17 -->
<g id="edge17" class="edge">
<title>Node1&#45;&gt;Node17</title>
<path fill="none" stroke="midnightblue" d="M806.58,-347.08C814.67,-339.14 826.7,-327.34 836.41,-317.8"/>
<polygon fill="midnightblue" stroke="midnightblue" points="838.9,-320.25 843.59,-310.75 834,-315.26 838.9,-320.25"/>
</g>
<!-- Node26 -->
<g id="node26" class="node">
<title>Node26</title>
<g id="a_node26"><a xlink:title=" ">
<polygon fill="white" stroke="#bfbfbf" points="931,-291.5 931,-310.5 1014,-310.5 1014,-291.5 931,-291.5"/>
<text text-anchor="middle" x="972.5" y="-298.5" font-family="Helvetica,sans-Serif" font-size="10.00">G4Poisson.hh</text>
</a>
</g>
</g>
<!-- Node1&#45;&gt;Node26 -->
<g id="edge27" class="edge">
<title>Node1&#45;&gt;Node26</title>
<path fill="none" stroke="midnightblue" d="M825.23,-347.44C854.93,-338.28 902.22,-323.69 935.17,-313.52"/>
<polygon fill="midnightblue" stroke="midnightblue" points="936.38,-316.81 944.9,-310.52 934.31,-310.12 936.38,-316.81"/>
</g>
<!-- Node3 -->
<g id="node3" class="node">
<title>Node3</title>
<g id="a_node3"><a xlink:href="_o_m_sim_optical_module_8hh.html" target="_top" xlink:title=" ">
<polygon fill="white" stroke="black" points="473,-235.5 473,-254.5 610,-254.5 610,-235.5 473,-235.5"/>
<text text-anchor="middle" x="541.5" y="-242.5" font-family="Helvetica,sans-Serif" font-size="10.00">OMSimOpticalModule.hh</text>
</a>
</g>
</g>
<!-- Node2&#45;&gt;Node3 -->
<g id="edge2" class="edge">
<title>Node2&#45;&gt;Node3</title>
<path fill="none" stroke="midnightblue" d="M643.33,-291.44C623.59,-282.64 592.61,-268.81 570.01,-258.72"/>
<polygon fill="midnightblue" stroke="midnightblue" points="571.14,-255.4 560.58,-254.52 568.29,-261.79 571.14,-255.4"/>
</g>
<!-- Node16 -->
<g id="node16" class="node">
<title>Node16</title>
<g id="a_node16"><a xlink:title=" ">
<polygon fill="white" stroke="#bfbfbf" points="629,-235.5 629,-254.5 696,-254.5 696,-235.5 629,-235.5"/>
<text text-anchor="middle" x="662.5" y="-242.5" font-family="Helvetica,sans-Serif" font-size="10.00">globals.hh</text>
</a>
</g>
</g>
<!-- Node2&#45;&gt;Node16 -->
<g id="edge16" class="edge">
<title>Node2&#45;&gt;Node16</title>
<path fill="none" stroke="midnightblue" d="M662.5,-291.08C662.5,-284.01 662.5,-273.86 662.5,-264.99"/>
<polygon fill="midnightblue" stroke="midnightblue" points="666,-264.75 662.5,-254.75 659,-264.75 666,-264.75"/>
</g>
<!-- Node4 -->
<g id="node4" class="node">
<title>Node4</title>
<g id="a_node4"><a xlink:href="abc_detector_component_8hh.html" target="_top" xlink:title="Provides helper base class abcDetectorComponent for constructing and managing detector components in ...">
<polygon fill="white" stroke="black" points="327,-123.5 327,-142.5 474,-142.5 474,-123.5 327,-123.5"/>
<text text-anchor="middle" x="400.5" y="-130.5" font-family="Helvetica,sans-Serif" font-size="10.00">abcDetectorComponent.hh</text>
</a>
</g>
</g>
<!-- Node3&#45;&gt;Node4 -->
<g id="edge3" class="edge">
<title>Node3&#45;&gt;Node4</title>
<path fill="none" stroke="midnightblue" d="M520.92,-235.5C503.11,-227.57 477.19,-214.64 457.5,-199 439.95,-185.06 423.49,-165.27 412.81,-151.2"/>
<polygon fill="midnightblue" stroke="midnightblue" points="415.43,-148.86 406.67,-142.89 409.8,-153.02 415.43,-148.86"/>
</g>
<!-- Node13 -->
<g id="node13" class="node">
<title>Node13</title>
<g id="a_node13"><a xlink:href="_o_m_sim_p_m_t_construction_8hh.html" target="_top" xlink:title="Construction of the PMTs.">
<polygon fill="white" stroke="black" points="467,-179.5 467,-198.5 616,-198.5 616,-179.5 467,-179.5"/>
<text text-anchor="middle" x="541.5" y="-186.5" font-family="Helvetica,sans-Serif" font-size="10.00">OMSimPMTConstruction.hh</text>
</a>
</g>
</g>
<!-- Node3&#45;&gt;Node13 -->
<g id="edge12" class="edge">
<title>Node3&#45;&gt;Node13</title>
<path fill="none" stroke="midnightblue" d="M541.5,-235.08C541.5,-228.01 541.5,-217.86 541.5,-208.99"/>
<polygon fill="midnightblue" stroke="midnightblue" points="545,-208.75 541.5,-198.75 538,-208.75 545,-208.75"/>
</g>
<!-- Node5 -->
<g id="node5" class="node">
<title>Node5</title>
<g id="a_node5"><a xlink:href="_o_m_sim_input_data_8hh.html" target="_top" xlink:title="Definition of ParameterTable and InputDataManager.">
<polygon fill="white" stroke="black" points="87,-67.5 87,-86.5 202,-86.5 202,-67.5 87,-67.5"/>
<text text-anchor="middle" x="144.5" y="-74.5" font-family="Helvetica,sans-Serif" font-size="10.00">OMSimInputData.hh</text>
</a>
</g>
</g>
<!-- Node4&#45;&gt;Node5 -->
<g id="edge4" class="edge">
<title>Node4&#45;&gt;Node5</title>
<path fill="none" stroke="midnightblue" d="M359.94,-123.44C315.18,-114 243.12,-98.8 194.8,-88.61"/>
<polygon fill="midnightblue" stroke="midnightblue" points="195.38,-85.16 184.87,-86.52 193.94,-92.01 195.38,-85.16"/>
</g>
<!-- Node9 -->
<g id="node9" class="node">
<title>Node9</title>
<g id="a_node9"><a xlink:title=" ">
<polygon fill="white" stroke="#bfbfbf" points="220,-67.5 220,-86.5 327,-86.5 327,-67.5 220,-67.5"/>
<text text-anchor="middle" x="273.5" y="-74.5" font-family="Helvetica,sans-Serif" font-size="10.00">G4Transform3D.hh</text>
</a>
</g>
</g>
<!-- Node4&#45;&gt;Node9 -->
<g id="edge8" class="edge">
<title>Node4&#45;&gt;Node9</title>
<path fill="none" stroke="midnightblue" d="M380.38,-123.44C359.48,-114.56 326.57,-100.56 302.78,-90.45"/>
<polygon fill="midnightblue" stroke="midnightblue" points="304.1,-87.21 293.53,-86.52 301.36,-93.65 304.1,-87.21"/>
</g>
<!-- Node10 -->
<g id="node10" class="node">
<title>Node10</title>
<g id="a_node10"><a xlink:title=" ">
<polygon fill="white" stroke="#bfbfbf" points="345.5,-67.5 345.5,-86.5 453.5,-86.5 453.5,-67.5 345.5,-67.5"/>
<text text-anchor="middle" x="399.5" y="-74.5" font-family="Helvetica,sans-Serif" font-size="10.00">G4VisAttributes.hh</text>
</a>
</g>
</g>
<!-- Node4&#45;&gt;Node10 -->
<g id="edge9" class="edge">
<title>Node4&#45;&gt;Node10</title>
<path fill="none" stroke="midnightblue" d="M400.33,-123.08C400.2,-116.01 400.02,-105.86 399.85,-96.99"/>
<polygon fill="midnightblue" stroke="midnightblue" points="403.35,-96.68 399.66,-86.75 396.35,-96.81 403.35,-96.68"/>
</g>
<!-- Node11 -->
<g id="node11" class="node">
<title>Node11</title>
<g id="a_node11"><a xlink:title=" ">
<polygon fill="white" stroke="#bfbfbf" points="472,-67.5 472,-86.5 597,-86.5 597,-67.5 472,-67.5"/>
<text text-anchor="middle" x="534.5" y="-74.5" font-family="Helvetica,sans-Serif" font-size="10.00">G4SubtractionSolid.hh</text>
</a>
</g>
</g>
<!-- Node4&#45;&gt;Node11 -->
<g id="edge10" class="edge">
<title>Node4&#45;&gt;Node11</title>
<path fill="none" stroke="midnightblue" d="M421.73,-123.44C443.88,-114.52 478.82,-100.44 503.94,-90.32"/>
<polygon fill="midnightblue" stroke="midnightblue" points="505.4,-93.5 513.37,-86.52 502.78,-87.01 505.4,-93.5"/>
</g>
<!-- Node12 -->
<g id="node12" class="node">
<title>Node12</title>
<g id="a_node12"><a xlink:title=" ">
<polygon fill="white" stroke="#bfbfbf" points="615.5,-67.5 615.5,-86.5 725.5,-86.5 725.5,-67.5 615.5,-67.5"/>
<text text-anchor="middle" x="670.5" y="-74.5" font-family="Helvetica,sans-Serif" font-size="10.00">G4PVPlacement.hh</text>
</a>
</g>
</g>
<!-- Node4&#45;&gt;Node12 -->
<g id="edge11" class="edge">
<title>Node4&#45;&gt;Node12</title>
<path fill="none" stroke="midnightblue" d="M443.28,-123.44C490.68,-113.96 567.13,-98.67 618.08,-88.48"/>
<polygon fill="midnightblue" stroke="midnightblue" points="618.8,-91.91 627.92,-86.52 617.43,-85.05 618.8,-91.91"/>
</g>
<!-- Node6 -->
<g id="node6" class="node">
<title>Node6</title>
<g id="a_node6"><a xlink:title=" ">
<polygon fill="white" stroke="#bfbfbf" points="0,-6 0,-25 143,-25 143,-6 0,-6"/>
<text text-anchor="middle" x="71.5" y="-13" font-family="Helvetica,sans-Serif" font-size="10.00">G4OpBoundaryProcess.hh</text>
</a>
</g>
</g>
<!-- Node5&#45;&gt;Node6 -->
<g id="edge5" class="edge">
<title>Node5&#45;&gt;Node6</title>
<path fill="none" stroke="midnightblue" d="M134.04,-67.48C122.55,-58.11 103.87,-42.88 89.91,-31.51"/>
<polygon fill="midnightblue" stroke="midnightblue" points="91.9,-28.61 81.94,-25.01 87.48,-34.04 91.9,-28.61"/>
</g>
<!-- Node5&#45;&gt;Node7 -->
<g id="edge6" class="edge">
<title>Node5&#45;&gt;Node7</title>
<path fill="none" stroke="midnightblue" d="M202.09,-67.6C276.19,-56.79 404.77,-38.04 483.87,-26.51"/>
<polygon fill="midnightblue" stroke="midnightblue" points="484.82,-29.91 494.21,-25 483.81,-22.98 484.82,-29.91"/>
</g>
<!-- Node8 -->
<g id="node8" class="node">
<title>Node8</title>
<g id="a_node8"><a xlink:title=" ">
<polygon fill="white" stroke="#bfbfbf" points="161,-0.5 161,-30.5 274,-30.5 274,-0.5 161,-0.5"/>
<text text-anchor="start" x="169" y="-18.5" font-family="Helvetica,sans-Serif" font-size="10.00">boost/property_tree</text>
<text text-anchor="middle" x="217.5" y="-7.5" font-family="Helvetica,sans-Serif" font-size="10.00">/json_parser.hpp</text>
</a>
</g>
</g>
<!-- Node5&#45;&gt;Node8 -->
<g id="edge7" class="edge">
<title>Node5&#45;&gt;Node8</title>
<path fill="none" stroke="midnightblue" d="M154.96,-67.48C164.66,-59.57 179.49,-47.48 192.27,-37.07"/>
<polygon fill="midnightblue" stroke="midnightblue" points="194.76,-39.55 200.3,-30.52 190.33,-34.13 194.76,-39.55"/>
</g>
<!-- Node13&#45;&gt;Node4 -->
<g id="edge13" class="edge">
<title>Node13&#45;&gt;Node4</title>
<path fill="none" stroke="midnightblue" d="M519.16,-179.44C495.75,-170.48 458.76,-156.31 432.31,-146.18"/>
<polygon fill="midnightblue" stroke="midnightblue" points="433.33,-142.82 422.74,-142.52 430.82,-149.36 433.33,-142.82"/>
</g>
<!-- Node14 -->
<g id="node14" class="node">
<title>Node14</title>
<g id="a_node14"><a xlink:title=" ">
<polygon fill="white" stroke="#bfbfbf" points="492.5,-123.5 492.5,-142.5 590.5,-142.5 590.5,-123.5 492.5,-123.5"/>
<text text-anchor="middle" x="541.5" y="-130.5" font-family="Helvetica,sans-Serif" font-size="10.00">G4UnionSolid.hh</text>
</a>
</g>
</g>
<!-- Node13&#45;&gt;Node14 -->
<g id="edge14" class="edge">
<title>Node13&#45;&gt;Node14</title>
<path fill="none" stroke="midnightblue" d="M541.5,-179.08C541.5,-172.01 541.5,-161.86 541.5,-152.99"/>
<polygon fill="midnightblue" stroke="midnightblue" points="545,-152.75 541.5,-142.75 538,-152.75 545,-152.75"/>
</g>
<!-- Node15 -->
<g id="node15" class="node">
<title>Node15</title>
<g id="a_node15"><a xlink:title=" ">
<polygon fill="white" stroke="#bfbfbf" points="609,-123.5 609,-142.5 676,-142.5 676,-123.5 609,-123.5"/>
<text text-anchor="middle" x="642.5" y="-130.5" font-family="Helvetica,sans-Serif" font-size="10.00">G4Tubs.hh</text>
</a>
</g>
</g>
<!-- Node13&#45;&gt;Node15 -->
<g id="edge15" class="edge">
<title>Node13&#45;&gt;Node15</title>
<path fill="none" stroke="midnightblue" d="M557.73,-179.32C573.85,-170.7 598.8,-157.36 617.46,-147.39"/>
<polygon fill="midnightblue" stroke="midnightblue" points="619.14,-150.46 626.31,-142.65 615.84,-144.28 619.14,-150.46"/>
</g>
<!-- Node18 -->
<g id="node18" class="node">
<title>Node18</title>
<g id="a_node18"><a xlink:href="_o_m_sim_command_args_table_8hh.html" target="_top" xlink:title="Definition of the OMSimCommandArgsTable singleton class, which controls user args.">
<polygon fill="white" stroke="black" points="812.5,-235.5 812.5,-254.5 976.5,-254.5 976.5,-235.5 812.5,-235.5"/>
<text text-anchor="middle" x="894.5" y="-242.5" font-family="Helvetica,sans-Serif" font-size="10.00">OMSimCommandArgsTable.hh</text>
</a>
</g>
</g>
<!-- Node17&#45;&gt;Node18 -->
<g id="edge18" class="edge">
<title>Node17&#45;&gt;Node18</title>
<path fill="none" stroke="midnightblue" d="M859.44,-291.08C865.43,-283.38 874.25,-272.03 881.55,-262.65"/>
<polygon fill="midnightblue" stroke="midnightblue" points="884.32,-264.79 887.69,-254.75 878.79,-260.5 884.32,-264.79"/>
</g>
<!-- Node25 -->
<g id="node25" class="node">
<title>Node25</title>
<g id="a_node25"><a xlink:title=" ">
<polygon fill="white" stroke="#bfbfbf" points="994.5,-235.5 994.5,-254.5 1092.5,-254.5 1092.5,-235.5 994.5,-235.5"/>
<text text-anchor="middle" x="1043.5" y="-242.5" font-family="Helvetica,sans-Serif" font-size="10.00">G4UImanager.hh</text>
</a>
</g>
</g>
<!-- Node17&#45;&gt;Node25 -->
<g id="edge25" class="edge">
<title>Node17&#45;&gt;Node25</title>
<path fill="none" stroke="midnightblue" d="M882.76,-291.44C915.46,-282.2 967.68,-267.44 1003.68,-257.26"/>
<polygon fill="midnightblue" stroke="midnightblue" points="1004.71,-260.61 1013.38,-254.52 1002.8,-253.87 1004.71,-260.61"/>
</g>
<!-- Node19 -->
<g id="node19" class="node">
<title>Node19</title>
<g id="a_node19"><a xlink:href="_o_m_sim_logger_8hh.html" target="_top" xlink:title=" ">
<polygon fill="white" stroke="black" points="782,-179.5 782,-198.5 881,-198.5 881,-179.5 782,-179.5"/>
<text text-anchor="middle" x="831.5" y="-186.5" font-family="Helvetica,sans-Serif" font-size="10.00">OMSimLogger.hh</text>
</a>
</g>
</g>
<!-- Node18&#45;&gt;Node19 -->
<g id="edge19" class="edge">
<title>Node18&#45;&gt;Node19</title>
<path fill="none" stroke="midnightblue" d="M884.38,-235.32C874.97,-227.26 860.76,-215.08 849.43,-205.37"/>
<polygon fill="midnightblue" stroke="midnightblue" points="851.68,-202.68 841.81,-198.83 847.12,-208 851.68,-202.68"/>
</g>
<!-- Node22 -->
<g id="node22" class="node">
<title>Node22</title>
<g id="a_node22"><a xlink:title=" ">
<polygon fill="white" stroke="#bfbfbf" points="899,-179.5 899,-198.5 954,-198.5 954,-179.5 899,-179.5"/>
<text text-anchor="middle" x="926.5" y="-186.5" font-family="Helvetica,sans-Serif" font-size="10.00">fstream</text>
</a>
</g>
</g>
<!-- Node18&#45;&gt;Node22 -->
<g id="edge22" class="edge">
<title>Node18&#45;&gt;Node22</title>
<path fill="none" stroke="midnightblue" d="M899.78,-235.08C904.21,-227.61 910.66,-216.72 916.12,-207.52"/>
<polygon fill="midnightblue" stroke="midnightblue" points="919.23,-209.14 921.31,-198.75 913.21,-205.57 919.23,-209.14"/>
</g>
<!-- Node23 -->
<g id="node23" class="node">
<title>Node23</title>
<g id="a_node23"><a xlink:title=" ">
<polygon fill="white" stroke="#bfbfbf" points="972.5,-179.5 972.5,-198.5 1056.5,-198.5 1056.5,-179.5 972.5,-179.5"/>
<text text-anchor="middle" x="1014.5" y="-186.5" font-family="Helvetica,sans-Serif" font-size="10.00">boost/any.hpp</text>
</a>
</g>
</g>
<!-- Node18&#45;&gt;Node23 -->
<g id="edge23" class="edge">
<title>Node18&#45;&gt;Node23</title>
<path fill="none" stroke="midnightblue" d="M913.51,-235.44C933.09,-226.64 963.81,-212.81 986.23,-202.72"/>
<polygon fill="midnightblue" stroke="midnightblue" points="987.89,-205.81 995.57,-198.52 985.02,-199.43 987.89,-205.81"/>
</g>
<!-- Node24 -->
<g id="node24" class="node">
<title>Node24</title>
<g id="a_node24"><a xlink:title=" ">
<polygon fill="white" stroke="#bfbfbf" points="1074.5,-179.5 1074.5,-198.5 1142.5,-198.5 1142.5,-179.5 1074.5,-179.5"/>
<text text-anchor="middle" x="1108.5" y="-186.5" font-family="Helvetica,sans-Serif" font-size="10.00">sys/time.h</text>
</a>
</g>
</g>
<!-- Node18&#45;&gt;Node24 -->
<g id="edge24" class="edge">
<title>Node18&#45;&gt;Node24</title>
<path fill="none" stroke="midnightblue" d="M928.41,-235.44C965.35,-226.12 1024.55,-211.18 1064.92,-201"/>
<polygon fill="midnightblue" stroke="midnightblue" points="1065.91,-204.36 1074.75,-198.52 1064.2,-197.57 1065.91,-204.36"/>
</g>
<!-- Node20 -->
<g id="node20" class="node">
<title>Node20</title>
<g id="a_node20"><a xlink:title=" ">
<polygon fill="white" stroke="#bfbfbf" points="794.5,-123.5 794.5,-142.5 844.5,-142.5 844.5,-123.5 794.5,-123.5"/>
<text text-anchor="middle" x="819.5" y="-130.5" font-family="Helvetica,sans-Serif" font-size="10.00">stdio.h</text>
</a>
</g>
</g>
<!-- Node19&#45;&gt;Node20 -->
<g id="edge20" class="edge">
<title>Node19&#45;&gt;Node20</title>
<path fill="none" stroke="midnightblue" d="M829.52,-179.08C827.93,-171.93 825.64,-161.64 823.65,-152.69"/>
<polygon fill="midnightblue" stroke="midnightblue" points="827.03,-151.75 821.44,-142.75 820.2,-153.27 827.03,-151.75"/>
</g>
<!-- Node21 -->
<g id="node21" class="node">
<title>Node21</title>
<g id="a_node21"><a xlink:title=" ">
<polygon fill="white" stroke="#bfbfbf" points="862.5,-123.5 862.5,-142.5 910.5,-142.5 910.5,-123.5 862.5,-123.5"/>
<text text-anchor="middle" x="886.5" y="-130.5" font-family="Helvetica,sans-Serif" font-size="10.00">time.h</text>
</a>
</g>
</g>
<!-- Node19&#45;&gt;Node21 -->
<g id="edge21" class="edge">
<title>Node19&#45;&gt;Node21</title>
<path fill="none" stroke="midnightblue" d="M840.58,-179.08C848.67,-171.14 860.7,-159.34 870.41,-149.8"/>
<polygon fill="midnightblue" stroke="midnightblue" points="872.9,-152.25 877.59,-142.75 868,-147.26 872.9,-152.25"/>
</g>
</g>
</svg>
