<?xml version="1.0" encoding="UTF-8" standalone="no"?>
<!DOCTYPE svg PUBLIC "-//W3C//DTD SVG 1.1//EN"
 "http://www.w3.org/Graphics/SVG/1.1/DTD/svg11.dtd">
<!-- Generated by graphviz version 2.43.0 (0)
 -->
<!-- Title: OMSim.h Pages: 1 -->
<svg width="3956pt" height="319pt"
 viewBox="0.00 0.00 3956.00 319.00" xmlns="http://www.w3.org/2000/svg" xmlns:xlink="http://www.w3.org/1999/xlink">
<g id="graph0" class="graph" transform="scale(1 1) rotate(0) translate(4 315)">
<title>OMSim.h</title>
<polygon fill="white" stroke="transparent" points="-4,4 -4,-315 3952,-315 3952,4 -4,4"/>
<!-- Node1 -->
<g id="node1" class="node">
<title>Node1</title>
<g id="a_node1"><a xlink:title=" ">
<polygon fill="#bfbfbf" stroke="black" points="2435.5,-291.5 2435.5,-310.5 2496.5,-310.5 2496.5,-291.5 2435.5,-291.5"/>
<text text-anchor="middle" x="2466" y="-298.5" font-family="Helvetica,sans-Serif" font-size="10.00">OMSim.h</text>
</a>
</g>
</g>
<!-- Node2 -->
<g id="node2" class="node">
<title>Node2</title>
<g id="a_node2"><a xlink:href="_o_m_sim_detector_construction_8hh.html" target="_top" xlink:title=" ">
<polygon fill="white" stroke="black" points="396,-235.5 396,-254.5 566,-254.5 566,-235.5 396,-235.5"/>
<text text-anchor="middle" x="481" y="-242.5" font-family="Helvetica,sans-Serif" font-size="10.00">OMSimDetectorConstruction.hh</text>
</a>
</g>
</g>
<!-- Node1&#45;&gt;Node2 -->
<g id="edge1" class="edge">
<title>Node1&#45;&gt;Node2</title>
<path fill="none" stroke="midnightblue" d="M2435.25,-299.35C2264.34,-295.68 1413.81,-277.09 719,-255 671.94,-253.5 619.65,-251.56 576.1,-249.86"/>
<polygon fill="midnightblue" stroke="midnightblue" points="576.21,-246.36 566.08,-249.47 575.94,-253.36 576.21,-246.36"/>
</g>
<!-- Node8 -->
<g id="node8" class="node">
<title>Node8</title>
<g id="a_node8"><a xlink:title=" ">
<polygon fill="white" stroke="#bfbfbf" points="424.5,-0.5 424.5,-30.5 537.5,-30.5 537.5,-0.5 424.5,-0.5"/>
<text text-anchor="start" x="432.5" y="-18.5" font-family="Helvetica,sans-Serif" font-size="10.00">boost/property_tree</text>
<text text-anchor="middle" x="481" y="-7.5" font-family="Helvetica,sans-Serif" font-size="10.00">/ptree.hpp</text>
</a>
</g>
</g>
<!-- Node1&#45;&gt;Node8 -->
<g id="edge75" class="edge">
<title>Node1&#45;&gt;Node8</title>
<path fill="none" stroke="midnightblue" d="M2435.22,-299.88C2209.73,-298.93 809.85,-291.59 387,-255 213.24,-239.96 0,-364.41 0,-190 0,-190 0,-190 0,-132 0,-47.78 282.36,-24.81 414.4,-18.68"/>
<polygon fill="midnightblue" stroke="midnightblue" points="414.57,-22.17 424.41,-18.23 414.26,-15.18 414.57,-22.17"/>
</g>
<!-- Node9 -->
<g id="node9" class="node">
<title>Node9</title>
<g id="a_node9"><a xlink:title=" ">
<polygon fill="white" stroke="#bfbfbf" points="555.5,-0.5 555.5,-30.5 668.5,-30.5 668.5,-0.5 555.5,-0.5"/>
<text text-anchor="start" x="563.5" y="-18.5" font-family="Helvetica,sans-Serif" font-size="10.00">boost/property_tree</text>
<text text-anchor="middle" x="612" y="-7.5" font-family="Helvetica,sans-Serif" font-size="10.00">/json_parser.hpp</text>
</a>
</g>
</g>
<!-- Node1&#45;&gt;Node9 -->
<g id="edge76" class="edge">
<title>Node1&#45;&gt;Node9</title>
<path fill="none" stroke="midnightblue" d="M2435.22,-299.71C2229.73,-297.67 1060.34,-284.85 905,-255 824.75,-239.58 733,-271.72 733,-190 733,-190 733,-190 733,-132 733,-87.08 688.83,-54.28 653.86,-35.35"/>
<polygon fill="midnightblue" stroke="midnightblue" points="655.23,-32.12 644.74,-30.61 652,-38.33 655.23,-32.12"/>
</g>
<!-- Node31 -->
<g id="node13" class="node">
<title>Node31</title>
<g id="a_node13"><a xlink:href="_o_m_sim_physics_list_8hh.html" target="_top" xlink:title=" ">
<polygon fill="white" stroke="black" points="1582.5,-235.5 1582.5,-254.5 1703.5,-254.5 1703.5,-235.5 1582.5,-235.5"/>
<text text-anchor="middle" x="1643" y="-242.5" font-family="Helvetica,sans-Serif" font-size="10.00">OMSimPhysicsList.hh</text>
</a>
</g>
</g>
<!-- Node1&#45;&gt;Node31 -->
<g id="edge20" class="edge">
<title>Node1&#45;&gt;Node31</title>
<path fill="none" stroke="midnightblue" d="M2435.24,-297.98C2316.35,-290.18 1885.01,-261.88 1713.77,-250.64"/>
<polygon fill="midnightblue" stroke="midnightblue" points="1713.81,-247.14 1703.6,-249.98 1713.35,-254.12 1713.81,-247.14"/>
</g>
<!-- Node34 -->
<g id="node16" class="node">
<title>Node34</title>
<g id="a_node16"><a xlink:href="_o_m_sim_primary_generator_action_8hh.html" target="_top" xlink:title=" ">
<polygon fill="white" stroke="black" points="1848.5,-235.5 1848.5,-254.5 2033.5,-254.5 2033.5,-235.5 1848.5,-235.5"/>
<text text-anchor="middle" x="1941" y="-242.5" font-family="Helvetica,sans-Serif" font-size="10.00">OMSimPrimaryGeneratorAction.hh</text>
</a>
</g>
</g>
<!-- Node1&#45;&gt;Node34 -->
<g id="edge23" class="edge">
<title>Node1&#45;&gt;Node34</title>
<path fill="none" stroke="midnightblue" d="M2435.12,-296.82C2357.94,-288.89 2154.23,-267.93 2033.83,-255.55"/>
<polygon fill="midnightblue" stroke="midnightblue" points="2034.18,-252.07 2023.88,-254.52 2033.47,-259.03 2034.18,-252.07"/>
</g>
<!-- Node36 -->
<g id="node18" class="node">
<title>Node36</title>
<g id="a_node18"><a xlink:href="_o_m_sim_run_action_8hh.html" target="_top" xlink:title=" ">
<polygon fill="white" stroke="black" points="2051,-235.5 2051,-254.5 2167,-254.5 2167,-235.5 2051,-235.5"/>
<text text-anchor="middle" x="2109" y="-242.5" font-family="Helvetica,sans-Serif" font-size="10.00">OMSimRunAction.hh</text>
</a>
</g>
</g>
<!-- Node1&#45;&gt;Node36 -->
<g id="edge26" class="edge">
<title>Node1&#45;&gt;Node36</title>
<path fill="none" stroke="midnightblue" d="M2435.25,-295.35C2377.79,-286.66 2252.93,-267.77 2175.42,-256.05"/>
<polygon fill="midnightblue" stroke="midnightblue" points="2175.69,-252.55 2165.28,-254.51 2174.64,-259.47 2175.69,-252.55"/>
</g>
<!-- Node38 -->
<g id="node20" class="node">
<title>Node38</title>
<g id="a_node20"><a xlink:href="_o_m_sim_event_action_8hh.html" target="_top" xlink:title=" ">
<polygon fill="white" stroke="black" points="2185.5,-235.5 2185.5,-254.5 2310.5,-254.5 2310.5,-235.5 2185.5,-235.5"/>
<text text-anchor="middle" x="2248" y="-242.5" font-family="Helvetica,sans-Serif" font-size="10.00">OMSimEventAction.hh</text>
</a>
</g>
</g>
<!-- Node1&#45;&gt;Node38 -->
<g id="edge29" class="edge">
<title>Node1&#45;&gt;Node38</title>
<path fill="none" stroke="midnightblue" d="M2435.23,-292.38C2397.96,-283.15 2334.9,-267.53 2292.38,-256.99"/>
<polygon fill="midnightblue" stroke="midnightblue" points="2293.12,-253.57 2282.57,-254.56 2291.44,-260.37 2293.12,-253.57"/>
</g>
<!-- Node40 -->
<g id="node22" class="node">
<title>Node40</title>
<g id="a_node22"><a xlink:title=" ">
<polygon fill="white" stroke="#bfbfbf" points="2381,-123.5 2381,-142.5 2425,-142.5 2425,-123.5 2381,-123.5"/>
<text text-anchor="middle" x="2403" y="-130.5" font-family="Helvetica,sans-Serif" font-size="10.00">string</text>
</a>
</g>
</g>
<!-- Node1&#45;&gt;Node40 -->
<g id="edge72" class="edge">
<title>Node1&#45;&gt;Node40</title>
<path fill="none" stroke="midnightblue" d="M2445.34,-291.36C2428.84,-283.68 2405.92,-271.17 2390,-255 2369.89,-234.57 2365.36,-226.71 2358,-199 2355.72,-190.41 2354.6,-187.21 2358,-179 2362.92,-167.12 2372.67,-156.74 2381.83,-148.96"/>
<polygon fill="midnightblue" stroke="midnightblue" points="2384.25,-151.51 2389.94,-142.56 2379.92,-146.01 2384.25,-151.51"/>
</g>
<!-- Node41 -->
<g id="node23" class="node">
<title>Node41</title>
<g id="a_node23"><a xlink:href="_o_m_sim_tracking_action_8hh.html" target="_top" xlink:title=" ">
<polygon fill="white" stroke="black" points="2659,-235.5 2659,-254.5 2797,-254.5 2797,-235.5 2659,-235.5"/>
<text text-anchor="middle" x="2728" y="-242.5" font-family="Helvetica,sans-Serif" font-size="10.00">OMSimTrackingAction.hh</text>
</a>
</g>
</g>
<!-- Node1&#45;&gt;Node41 -->
<g id="edge32" class="edge">
<title>Node1&#45;&gt;Node41</title>
<path fill="none" stroke="midnightblue" d="M2496.57,-293.7C2540.7,-284.6 2622.83,-267.68 2676.44,-256.63"/>
<polygon fill="midnightblue" stroke="midnightblue" points="2677.35,-260.01 2686.44,-254.57 2675.93,-253.16 2677.35,-260.01"/>
</g>
<!-- Node43 -->
<g id="node25" class="node">
<title>Node43</title>
<g id="a_node25"><a xlink:href="_o_m_sim_stepping_action_8hh.html" target="_top" xlink:title=" ">
<polygon fill="white" stroke="black" points="1306,-235.5 1306,-254.5 1446,-254.5 1446,-235.5 1306,-235.5"/>
<text text-anchor="middle" x="1376" y="-242.5" font-family="Helvetica,sans-Serif" font-size="10.00">OMSimSteppingAction.hh</text>
</a>
</g>
</g>
<!-- Node1&#45;&gt;Node43 -->
<g id="edge34" class="edge">
<title>Node1&#45;&gt;Node43</title>
<path fill="none" stroke="midnightblue" d="M2435.5,-298.88C2315.94,-294.41 1867.66,-277.06 1499,-255 1485.24,-254.18 1470.62,-253.2 1456.45,-252.19"/>
<polygon fill="midnightblue" stroke="midnightblue" points="1456.45,-248.69 1446.23,-251.46 1455.95,-255.67 1456.45,-248.69"/>
</g>
<!-- Node46 -->
<g id="node28" class="node">
<title>Node46</title>
<g id="a_node28"><a xlink:title=" ">
<polygon fill="white" stroke="#bfbfbf" points="1091.5,-179.5 1091.5,-198.5 1194.5,-198.5 1194.5,-179.5 1091.5,-179.5"/>
<text text-anchor="middle" x="1143" y="-186.5" font-family="Helvetica,sans-Serif" font-size="10.00">G4ThreeVector.hh</text>
</a>
</g>
</g>
<!-- Node1&#45;&gt;Node46 -->
<g id="edge62" class="edge">
<title>Node1&#45;&gt;Node46</title>
<path fill="none" stroke="midnightblue" d="M2435.48,-300.31C2274.53,-301.69 1523.13,-305.31 1297,-255 1248.9,-244.3 1196.85,-219.2 1167.26,-203.5"/>
<polygon fill="midnightblue" stroke="midnightblue" points="1168.59,-200.24 1158.12,-198.58 1165.26,-206.4 1168.59,-200.24"/>
</g>
<!-- Node48 -->
<g id="node30" class="node">
<title>Node48</title>
<g id="a_node30"><a xlink:href="_o_m_sim_analysis_manager_8hh.html" target="_top" xlink:title=" ">
<polygon fill="white" stroke="black" points="971,-235.5 971,-254.5 1121,-254.5 1121,-235.5 971,-235.5"/>
<text text-anchor="middle" x="1046" y="-242.5" font-family="Helvetica,sans-Serif" font-size="10.00">OMSimAnalysisManager.hh</text>
</a>
</g>
</g>
<!-- Node1&#45;&gt;Node48 -->
<g id="edge39" class="edge">
<title>Node1&#45;&gt;Node48</title>
<path fill="none" stroke="midnightblue" d="M2435.08,-299.46C2290.63,-296.82 1667.83,-284.24 1158,-255 1149.37,-254.5 1140.37,-253.91 1131.39,-253.27"/>
<polygon fill="midnightblue" stroke="midnightblue" points="1131.5,-249.77 1121.27,-252.52 1130.99,-256.75 1131.5,-249.77"/>
</g>
<!-- Node49 -->
<g id="node31" class="node">
<title>Node49</title>
<g id="a_node31"><a xlink:href="_o_m_sim_p_m_t_response_8hh.html" target="_top" xlink:title=" ">
<polygon fill="white" stroke="red" points="761.5,-179.5 761.5,-198.5 896.5,-198.5 896.5,-179.5 761.5,-179.5"/>
<text text-anchor="middle" x="829" y="-186.5" font-family="Helvetica,sans-Serif" font-size="10.00">OMSimPMTResponse.hh</text>
</a>
</g>
</g>
<!-- Node1&#45;&gt;Node49 -->
<g id="edge49" class="edge">
<title>Node1&#45;&gt;Node49</title>
<path fill="none" stroke="midnightblue" d="M2435.34,-299.86C2234.43,-298.84 1109.72,-291.5 962,-255 920,-244.62 875.73,-219.79 850.34,-204"/>
<polygon fill="midnightblue" stroke="midnightblue" points="852.19,-201.03 841.87,-198.63 848.44,-206.94 852.19,-201.03"/>
</g>
<!-- Node51 -->
<g id="node32" class="node">
<title>Node51</title>
<g id="a_node32"><a xlink:title=" ">
<polygon fill="white" stroke="#bfbfbf" points="1263.5,-123.5 1263.5,-142.5 1324.5,-142.5 1324.5,-123.5 1263.5,-123.5"/>
<text text-anchor="middle" x="1294" y="-130.5" font-family="Helvetica,sans-Serif" font-size="10.00">TGraph.h</text>
</a>
</g>
</g>
<!-- Node1&#45;&gt;Node51 -->
<g id="edge77" class="edge">
<title>Node1&#45;&gt;Node51</title>
<path fill="none" stroke="midnightblue" d="M2435.48,-299.52C2288.29,-297.08 1655.46,-284.89 1573,-255 1520.18,-235.86 1522.67,-203.25 1472,-179 1427.45,-157.68 1371.63,-145.68 1334.49,-139.54"/>
<polygon fill="midnightblue" stroke="midnightblue" points="1334.97,-136.07 1324.54,-137.95 1333.87,-142.98 1334.97,-136.07"/>
</g>
<!-- Node55 -->
<g id="node34" class="node">
<title>Node55</title>
<g id="a_node34"><a xlink:title=" ">
<polygon fill="white" stroke="#bfbfbf" points="1018.5,-179.5 1018.5,-198.5 1073.5,-198.5 1073.5,-179.5 1018.5,-179.5"/>
<text text-anchor="middle" x="1046" y="-186.5" font-family="Helvetica,sans-Serif" font-size="10.00">fstream</text>
</a>
</g>
</g>
<!-- Node1&#45;&gt;Node55 -->
<g id="edge71" class="edge">
<title>Node1&#45;&gt;Node55</title>
<path fill="none" stroke="midnightblue" d="M2435.49,-300.12C2269.44,-300.6 1473.08,-300.45 1232,-255 1173.93,-244.05 1109.53,-218.28 1073.79,-202.68"/>
<polygon fill="midnightblue" stroke="midnightblue" points="1075.06,-199.41 1064.5,-198.57 1072.23,-205.81 1075.06,-199.41"/>
</g>
<!-- Node56 -->
<g id="node35" class="node">
<title>Node56</title>
<g id="a_node35"><a xlink:href="_o_m_sim_command_args_table_8hh.html" target="_top" xlink:title="Definition of the OMSimCommandArgsTable singleton class, which controls user args.">
<polygon fill="white" stroke="red" points="2367,-179.5 2367,-198.5 2531,-198.5 2531,-179.5 2367,-179.5"/>
<text text-anchor="middle" x="2449" y="-186.5" font-family="Helvetica,sans-Serif" font-size="10.00">OMSimCommandArgsTable.hh</text>
</a>
</g>
</g>
<!-- Node1&#45;&gt;Node56 -->
<g id="edge50" class="edge">
<title>Node1&#45;&gt;Node56</title>
<path fill="none" stroke="midnightblue" d="M2442.21,-291.5C2426.28,-284.41 2406.54,-272.61 2397,-255 2386.59,-235.78 2406.63,-216.58 2424.78,-204.09"/>
<polygon fill="midnightblue" stroke="midnightblue" points="2426.89,-206.89 2433.39,-198.52 2423.09,-201.01 2426.89,-206.89"/>
</g>
<!-- Node60 -->
<g id="node36" class="node">
<title>Node60</title>
<g id="a_node36"><a xlink:title=" ">
<polygon fill="white" stroke="#bfbfbf" points="2461,-123.5 2461,-142.5 2529,-142.5 2529,-123.5 2461,-123.5"/>
<text text-anchor="middle" x="2495" y="-130.5" font-family="Helvetica,sans-Serif" font-size="10.00">sys/time.h</text>
</a>
</g>
</g>
<!-- Node1&#45;&gt;Node60 -->
<g id="edge68" class="edge">
<title>Node1&#45;&gt;Node60</title>
<path fill="none" stroke="midnightblue" d="M2493.82,-291.47C2521.46,-282.84 2564.95,-268.83 2602,-255 2623.65,-246.92 2628.25,-242.83 2650,-235 2701.59,-216.43 2735.37,-243.07 2768,-199 2773.29,-191.86 2773.75,-185.78 2768,-179 2739.21,-145.08 2609.15,-136.69 2539.44,-134.64"/>
<polygon fill="midnightblue" stroke="midnightblue" points="2539.3,-131.13 2529.21,-134.37 2539.11,-138.13 2539.3,-131.13"/>
</g>
<!-- Node64 -->
<g id="node37" class="node">
<title>Node64</title>
<g id="a_node37"><a xlink:href="_o_m_sim_u_iinterface_8hh.html" target="_top" xlink:title="The OMSimUIinterface class provides a singleton interface to Geant4&#39;s UI manager.">
<polygon fill="white" stroke="red" points="2405.5,-235.5 2405.5,-254.5 2526.5,-254.5 2526.5,-235.5 2405.5,-235.5"/>
<text text-anchor="middle" x="2466" y="-242.5" font-family="Helvetica,sans-Serif" font-size="10.00">OMSimUIinterface.hh</text>
</a>
</g>
</g>
<!-- Node1&#45;&gt;Node64 -->
<g id="edge54" class="edge">
<title>Node1&#45;&gt;Node64</title>
<path fill="none" stroke="midnightblue" d="M2466,-291.08C2466,-284.01 2466,-273.86 2466,-264.99"/>
<polygon fill="midnightblue" stroke="midnightblue" points="2469.5,-264.75 2466,-254.75 2462.5,-264.75 2469.5,-264.75"/>
</g>
<!-- Node21 -->
<g id="node38" class="node">
<title>Node21</title>
<g id="a_node38"><a xlink:title=" ">
<polygon fill="white" stroke="#bfbfbf" points="2587,-179.5 2587,-198.5 2643,-198.5 2643,-179.5 2587,-179.5"/>
<text text-anchor="middle" x="2615" y="-186.5" font-family="Helvetica,sans-Serif" font-size="10.00">sstream</text>
</a>
</g>
</g>
<!-- Node1&#45;&gt;Node21 -->
<g id="edge69" class="edge">
<title>Node1&#45;&gt;Node21</title>
<path fill="none" stroke="midnightblue" d="M2480.54,-291.34C2494.93,-282.61 2517.44,-268.53 2536,-255 2557.8,-239.11 2581.54,-219.2 2597.24,-205.63"/>
<polygon fill="midnightblue" stroke="midnightblue" points="2599.83,-208.01 2605.08,-198.81 2595.24,-202.73 2599.83,-208.01"/>
</g>
<!-- Node65 -->
<g id="node39" class="node">
<title>Node65</title>
<g id="a_node39"><a xlink:title=" ">
<polygon fill="white" stroke="#bfbfbf" points="2661,-179.5 2661,-198.5 2759,-198.5 2759,-179.5 2661,-179.5"/>
<text text-anchor="middle" x="2710" y="-186.5" font-family="Helvetica,sans-Serif" font-size="10.00">G4UImanager.hh</text>
</a>
</g>
</g>
<!-- Node1&#45;&gt;Node65 -->
<g id="edge60" class="edge">
<title>Node1&#45;&gt;Node65</title>
<path fill="none" stroke="midnightblue" d="M2485.15,-291.37C2527.91,-272.09 2631.36,-225.45 2681.63,-202.79"/>
<polygon fill="midnightblue" stroke="midnightblue" points="2683.26,-205.89 2690.94,-198.59 2680.39,-199.51 2683.26,-205.89"/>
</g>
<!-- Node66 -->
<g id="node40" class="node">
<title>Node66</title>
<g id="a_node40"><a xlink:title=" ">
<polygon fill="white" stroke="#bfbfbf" points="2815,-235.5 2815,-254.5 2921,-254.5 2921,-235.5 2815,-235.5"/>
<text text-anchor="middle" x="2868" y="-242.5" font-family="Helvetica,sans-Serif" font-size="10.00">G4RunManager.hh</text>
</a>
</g>
</g>
<!-- Node1&#45;&gt;Node66 -->
<g id="edge59" class="edge">
<title>Node1&#45;&gt;Node66</title>
<path fill="none" stroke="midnightblue" d="M2496.96,-296.03C2555.09,-288.56 2684.82,-271.75 2804.81,-255.15"/>
<polygon fill="midnightblue" stroke="midnightblue" points="2805.48,-258.59 2814.91,-253.75 2804.52,-251.66 2805.48,-258.59"/>
</g>
<!-- Node67 -->
<g id="node41" class="node">
<title>Node67</title>
<g id="a_node41"><a xlink:title=" ">
<polygon fill="white" stroke="#bfbfbf" points="2939.5,-235.5 2939.5,-254.5 3036.5,-254.5 3036.5,-235.5 2939.5,-235.5"/>
<text text-anchor="middle" x="2988" y="-242.5" font-family="Helvetica,sans-Serif" font-size="10.00">G4UIterminal.hh</text>
</a>
</g>
</g>
<!-- Node1&#45;&gt;Node67 -->
<g id="edge61" class="edge">
<title>Node1&#45;&gt;Node67</title>
<path fill="none" stroke="midnightblue" d="M2496.74,-297.63C2569.77,-291.87 2759.59,-276.14 2929.18,-255.03"/>
<polygon fill="midnightblue" stroke="midnightblue" points="2929.81,-258.48 2939.29,-253.76 2928.94,-251.54 2929.81,-258.48"/>
</g>
<!-- Node28 -->
<g id="node42" class="node">
<title>Node28</title>
<g id="a_node42"><a xlink:title=" ">
<polygon fill="white" stroke="#bfbfbf" points="3055,-235.5 3055,-254.5 3147,-254.5 3147,-235.5 3055,-235.5"/>
<text text-anchor="middle" x="3101" y="-242.5" font-family="Helvetica,sans-Serif" font-size="10.00">G4Navigator.hh</text>
</a>
</g>
</g>
<!-- Node1&#45;&gt;Node28 -->
<g id="edge63" class="edge">
<title>Node1&#45;&gt;Node28</title>
<path fill="none" stroke="midnightblue" d="M2496.59,-298.54C2581.77,-294.29 2829.04,-280.62 3044.9,-255.04"/>
<polygon fill="midnightblue" stroke="midnightblue" points="3045.31,-258.51 3054.83,-253.85 3044.48,-251.56 3045.31,-258.51"/>
</g>
<!-- Node68 -->
<g id="node43" class="node">
<title>Node68</title>
<g id="a_node43"><a xlink:title=" ">
<polygon fill="white" stroke="#bfbfbf" points="3165,-235.5 3165,-254.5 3241,-254.5 3241,-235.5 3165,-235.5"/>
<text text-anchor="middle" x="3203" y="-242.5" font-family="Helvetica,sans-Serif" font-size="10.00">G4UItcsh.hh</text>
</a>
</g>
</g>
<!-- Node1&#45;&gt;Node68 -->
<g id="edge64" class="edge">
<title>Node1&#45;&gt;Node68</title>
<path fill="none" stroke="midnightblue" d="M2496.74,-299.35C2592.62,-297.05 2894.86,-287.63 3154.84,-254.99"/>
<polygon fill="midnightblue" stroke="midnightblue" points="3155.36,-258.45 3164.84,-253.72 3154.48,-251.5 3155.36,-258.45"/>
</g>
<!-- Node69 -->
<g id="node44" class="node">
<title>Node69</title>
<g id="a_node44"><a xlink:title=" ">
<polygon fill="white" stroke="#bfbfbf" points="3259.5,-235.5 3259.5,-254.5 3366.5,-254.5 3366.5,-235.5 3259.5,-235.5"/>
<text text-anchor="middle" x="3313" y="-242.5" font-family="Helvetica,sans-Serif" font-size="10.00">G4VisExecutive.hh</text>
</a>
</g>
</g>
<!-- Node1&#45;&gt;Node69 -->
<g id="edge65" class="edge">
<title>Node1&#45;&gt;Node69</title>
<path fill="none" stroke="midnightblue" d="M2496.71,-299.17C2600.76,-296.17 2949.7,-284.49 3249.23,-254.98"/>
<polygon fill="midnightblue" stroke="midnightblue" points="3249.82,-258.44 3259.42,-253.97 3249.12,-251.47 3249.82,-258.44"/>
</g>
<!-- Node70 -->
<g id="node45" class="node">
<title>Node70</title>
<g id="a_node45"><a xlink:title=" ">
<polygon fill="white" stroke="#bfbfbf" points="3384.5,-235.5 3384.5,-254.5 3487.5,-254.5 3487.5,-235.5 3384.5,-235.5"/>
<text text-anchor="middle" x="3436" y="-242.5" font-family="Helvetica,sans-Serif" font-size="10.00">G4UIExecutive.hh</text>
</a>
</g>
</g>
<!-- Node1&#45;&gt;Node70 -->
<g id="edge66" class="edge">
<title>Node1&#45;&gt;Node70</title>
<path fill="none" stroke="midnightblue" d="M2496.72,-299.59C2611.22,-297.82 3024.11,-289.38 3374.25,-255.08"/>
<polygon fill="midnightblue" stroke="midnightblue" points="3374.72,-258.55 3384.33,-254.08 3374.03,-251.58 3374.72,-258.55"/>
</g>
<!-- Node71 -->
<g id="node46" class="node">
<title>Node71</title>
<g id="a_node46"><a xlink:title=" ">
<polygon fill="white" stroke="#bfbfbf" points="3506,-235.5 3506,-254.5 3550,-254.5 3550,-235.5 3506,-235.5"/>
<text text-anchor="middle" x="3528" y="-242.5" font-family="Helvetica,sans-Serif" font-size="10.00">ctime</text>
</a>
</g>
</g>
<!-- Node1&#45;&gt;Node71 -->
<g id="edge67" class="edge">
<title>Node1&#45;&gt;Node71</title>
<path fill="none" stroke="midnightblue" d="M2496.93,-299.65C2644.32,-297.8 3277.02,-288.18 3495.7,-254.75"/>
<polygon fill="midnightblue" stroke="midnightblue" points="3496.47,-258.17 3505.8,-253.14 3495.37,-251.25 3496.47,-258.17"/>
</g>
<!-- Node72 -->
<g id="node47" class="node">
<title>Node72</title>
<g id="a_node47"><a xlink:title=" ">
<polygon fill="white" stroke="#bfbfbf" points="3568,-235.5 3568,-254.5 3628,-254.5 3628,-235.5 3568,-235.5"/>
<text text-anchor="middle" x="3598" y="-242.5" font-family="Helvetica,sans-Serif" font-size="10.00">iostream</text>
</a>
</g>
</g>
<!-- Node1&#45;&gt;Node72 -->
<g id="edge70" class="edge">
<title>Node1&#45;&gt;Node72</title>
<path fill="none" stroke="midnightblue" d="M2496.68,-299.51C2648.94,-296.94 3325.15,-284.17 3557.79,-254.85"/>
<polygon fill="midnightblue" stroke="midnightblue" points="3558.41,-258.3 3567.87,-253.54 3557.5,-251.36 3558.41,-258.3"/>
</g>
<!-- Node73 -->
<g id="node48" class="node">
<title>Node73</title>
<g id="a_node48"><a xlink:title=" ">
<polygon fill="white" stroke="#bfbfbf" points="3646.5,-235.5 3646.5,-254.5 3693.5,-254.5 3693.5,-235.5 3646.5,-235.5"/>
<text text-anchor="middle" x="3670" y="-242.5" font-family="Helvetica,sans-Serif" font-size="10.00">cmath</text>
</a>
</g>
</g>
<!-- Node1&#45;&gt;Node73 -->
<g id="edge73" class="edge">
<title>Node1&#45;&gt;Node73</title>
<path fill="none" stroke="midnightblue" d="M2496.73,-299.77C2655.8,-298.41 3387.36,-290.42 3636.28,-254.65"/>
<polygon fill="midnightblue" stroke="midnightblue" points="3636.97,-258.08 3646.35,-253.14 3635.94,-251.16 3636.97,-258.08"/>
</g>
<!-- Node74 -->
<g id="node49" class="node">
<title>Node74</title>
<g id="a_node49"><a xlink:title=" ">
<polygon fill="white" stroke="#bfbfbf" points="3712,-235.5 3712,-254.5 3780,-254.5 3780,-235.5 3712,-235.5"/>
<text text-anchor="middle" x="3746" y="-242.5" font-family="Helvetica,sans-Serif" font-size="10.00">filesystem</text>
</a>
</g>
</g>
<!-- Node1&#45;&gt;Node74 -->
<g id="edge74" class="edge">
<title>Node1&#45;&gt;Node74</title>
<path fill="none" stroke="midnightblue" d="M2496.77,-299.59C2661.19,-297.29 3438.15,-285.08 3701.54,-254.92"/>
<polygon fill="midnightblue" stroke="midnightblue" points="3702.3,-258.35 3711.82,-253.7 3701.48,-251.4 3702.3,-258.35"/>
</g>
<!-- Node75 -->
<g id="node50" class="node">
<title>Node75</title>
<g id="a_node50"><a xlink:title=" ">
<polygon fill="white" stroke="#bfbfbf" points="3798,-235.5 3798,-254.5 3948,-254.5 3948,-235.5 3798,-235.5"/>
<text text-anchor="middle" x="3873" y="-242.5" font-family="Helvetica,sans-Serif" font-size="10.00">boost/program_options.hpp</text>
</a>
</g>
</g>
<!-- Node1&#45;&gt;Node75 -->
<g id="edge78" class="edge">
<title>Node1&#45;&gt;Node75</title>
<path fill="none" stroke="midnightblue" d="M2496.81,-299.78C2641.17,-298.57 3265.19,-291.45 3787.91,-255.02"/>
<polygon fill="midnightblue" stroke="midnightblue" points="3788.19,-258.51 3797.92,-254.32 3787.7,-251.53 3788.19,-258.51"/>
</g>
<!-- Node3 -->
<g id="node3" class="node">
<title>Node3</title>
<g id="a_node3"><a xlink:title=" ">
<polygon fill="white" stroke="#bfbfbf" points="341,-67.5 341,-86.5 457,-86.5 457,-67.5 341,-67.5"/>
<text text-anchor="middle" x="399" y="-74.5" font-family="Helvetica,sans-Serif" font-size="10.00">G4LogicalVolume.hh</text>
</a>
</g>
</g>
<!-- Node2&#45;&gt;Node3 -->
<g id="edge2" class="edge">
<title>Node2&#45;&gt;Node3</title>
<path fill="none" stroke="midnightblue" d="M476.59,-235.08C463.57,-208.72 425.12,-130.88 407.72,-95.66"/>
<polygon fill="midnightblue" stroke="midnightblue" points="410.8,-93.98 403.23,-86.57 404.52,-97.08 410.8,-93.98"/>
</g>
<!-- Node4 -->
<g id="node4" class="node">
<title>Node4</title>
<g id="a_node4"><a xlink:title=" ">
<polygon fill="white" stroke="#bfbfbf" points="28,-179.5 28,-198.5 90,-198.5 90,-179.5 28,-179.5"/>
<text text-anchor="middle" x="59" y="-186.5" font-family="Helvetica,sans-Serif" font-size="10.00">G4Orb.hh</text>
</a>
</g>
</g>
<!-- Node2&#45;&gt;Node4 -->
<g id="edge3" class="edge">
<title>Node2&#45;&gt;Node4</title>
<path fill="none" stroke="midnightblue" d="M395.67,-236.51C320.37,-229.32 207.45,-217.09 100.39,-199.09"/>
<polygon fill="midnightblue" stroke="midnightblue" points="100.83,-195.61 90.38,-197.38 99.65,-202.51 100.83,-195.61"/>
</g>
<!-- Node5 -->
<g id="node5" class="node">
<title>Node5</title>
<g id="a_node5"><a xlink:title=" ">
<polygon fill="white" stroke="#bfbfbf" points="108.5,-179.5 108.5,-198.5 237.5,-198.5 237.5,-179.5 108.5,-179.5"/>
<text text-anchor="middle" x="173" y="-186.5" font-family="Helvetica,sans-Serif" font-size="10.00">G4VPhysicalVolume.hh</text>
</a>
</g>
</g>
<!-- Node2&#45;&gt;Node5 -->
<g id="edge4" class="edge">
<title>Node2&#45;&gt;Node5</title>
<path fill="none" stroke="midnightblue" d="M432.2,-235.44C377.79,-225.9 289.83,-210.48 231.71,-200.29"/>
<polygon fill="midnightblue" stroke="midnightblue" points="232.03,-196.8 221.58,-198.52 230.82,-203.69 232.03,-196.8"/>
</g>
<!-- Node6 -->
<g id="node6" class="node">
<title>Node6</title>
<g id="a_node6"><a xlink:title=" ">
<polygon fill="white" stroke="#bfbfbf" points="256,-179.5 256,-198.5 434,-198.5 434,-179.5 256,-179.5"/>
<text text-anchor="middle" x="345" y="-186.5" font-family="Helvetica,sans-Serif" font-size="10.00">G4VUserDetectorConstruction.hh</text>
</a>
</g>
</g>
<!-- Node2&#45;&gt;Node6 -->
<g id="edge5" class="edge">
<title>Node2&#45;&gt;Node6</title>
<path fill="none" stroke="midnightblue" d="M459.45,-235.44C436.97,-226.52 401.51,-212.44 376.02,-202.32"/>
<polygon fill="midnightblue" stroke="midnightblue" points="377.03,-198.95 366.45,-198.52 374.45,-205.46 377.03,-198.95"/>
</g>
<!-- Node7 -->
<g id="node7" class="node">
<title>Node7</title>
<g id="a_node7"><a xlink:href="_o_m_sim_input_data_8hh.html" target="_top" xlink:title=" ">
<polygon fill="white" stroke="red" points="551.5,-67.5 551.5,-86.5 666.5,-86.5 666.5,-67.5 551.5,-67.5"/>
<text text-anchor="middle" x="609" y="-74.5" font-family="Helvetica,sans-Serif" font-size="10.00">OMSimInputData.hh</text>
</a>
</g>
</g>
<!-- Node2&#45;&gt;Node7 -->
<g id="edge6" class="edge">
<title>Node2&#45;&gt;Node7</title>
<path fill="none" stroke="midnightblue" d="M566.01,-236.43C591.99,-230.07 618.54,-218.79 637,-199 660.32,-173.99 661.15,-154.96 649,-123 644.66,-111.6 635.97,-101.24 627.79,-93.34"/>
<polygon fill="midnightblue" stroke="midnightblue" points="630.04,-90.66 620.27,-86.57 625.36,-95.86 630.04,-90.66"/>
</g>
<!-- Node14 -->
<g id="node11" class="node">
<title>Node14</title>
<g id="a_node11"><a xlink:href="_o_m_sim_p_m_t_construction_8hh.html" target="_top" xlink:title=" ">
<polygon fill="white" stroke="red" points="491.5,-123.5 491.5,-142.5 640.5,-142.5 640.5,-123.5 491.5,-123.5"/>
<text text-anchor="middle" x="566" y="-130.5" font-family="Helvetica,sans-Serif" font-size="10.00">OMSimPMTConstruction.hh</text>
</a>
</g>
</g>
<!-- Node2&#45;&gt;Node14 -->
<g id="edge10" class="edge">
<title>Node2&#45;&gt;Node14</title>
<path fill="none" stroke="midnightblue" d="M485.2,-235.1C491.56,-222.1 504.42,-197.47 519,-179 527.55,-168.16 538.65,-157.42 547.91,-149.15"/>
<polygon fill="midnightblue" stroke="midnightblue" points="550.22,-151.78 555.47,-142.57 545.63,-146.49 550.22,-151.78"/>
</g>
<!-- Node26 -->
<g id="node12" class="node">
<title>Node26</title>
<g id="a_node12"><a xlink:href="_o_m_sim_m_d_o_m_8hh.html" target="_top" xlink:title=" ">
<polygon fill="white" stroke="red" points="528,-179.5 528,-198.5 628,-198.5 628,-179.5 528,-179.5"/>
<text text-anchor="middle" x="578" y="-186.5" font-family="Helvetica,sans-Serif" font-size="10.00">OMSimMDOM.hh</text>
</a>
</g>
</g>
<!-- Node2&#45;&gt;Node26 -->
<g id="edge16" class="edge">
<title>Node2&#45;&gt;Node26</title>
<path fill="none" stroke="midnightblue" d="M496.58,-235.32C512,-226.74 535.81,-213.49 553.71,-203.52"/>
<polygon fill="midnightblue" stroke="midnightblue" points="555.42,-206.58 562.45,-198.65 552.01,-200.46 555.42,-206.58"/>
</g>
<!-- Node7&#45;&gt;Node8 -->
<g id="edge7" class="edge">
<title>Node7&#45;&gt;Node8</title>
<path fill="none" stroke="midnightblue" d="M590.66,-67.48C572.43,-59 543.9,-45.74 520.5,-34.86"/>
<polygon fill="midnightblue" stroke="midnightblue" points="521.71,-31.56 511.17,-30.52 518.76,-37.91 521.71,-31.56"/>
</g>
<!-- Node7&#45;&gt;Node9 -->
<g id="edge8" class="edge">
<title>Node7&#45;&gt;Node9</title>
<path fill="none" stroke="midnightblue" d="M609.43,-67.48C609.78,-60.47 610.3,-50.19 610.78,-40.7"/>
<polygon fill="midnightblue" stroke="midnightblue" points="614.28,-40.69 611.29,-30.52 607.29,-40.33 614.28,-40.69"/>
</g>
<!-- Node13 -->
<g id="node10" class="node">
<title>Node13</title>
<g id="a_node10"><a xlink:title=" ">
<polygon fill="white" stroke="#bfbfbf" points="700.5,-6 700.5,-25 819.5,-25 819.5,-6 700.5,-6"/>
<text text-anchor="middle" x="760" y="-13" font-family="Helvetica,sans-Serif" font-size="10.00">G4SystemOfUnits.hh</text>
</a>
</g>
</g>
<!-- Node7&#45;&gt;Node13 -->
<g id="edge9" class="edge">
<title>Node7&#45;&gt;Node13</title>
<path fill="none" stroke="midnightblue" d="M630.63,-67.48C656.42,-57.31 699.71,-40.26 729.04,-28.7"/>
<polygon fill="midnightblue" stroke="midnightblue" points="730.38,-31.93 738.41,-25.01 727.82,-25.42 730.38,-31.93"/>
</g>
<!-- Node14&#45;&gt;Node3 -->
<g id="edge13" class="edge">
<title>Node14&#45;&gt;Node3</title>
<path fill="none" stroke="midnightblue" d="M539.54,-123.44C511.32,-114.32 466.46,-99.81 435.03,-89.65"/>
<polygon fill="midnightblue" stroke="midnightblue" points="435.93,-86.26 425.34,-86.52 433.78,-92.92 435.93,-86.26"/>
</g>
<!-- Node14&#45;&gt;Node7 -->
<g id="edge15" class="edge">
<title>Node14&#45;&gt;Node7</title>
<path fill="none" stroke="midnightblue" d="M573.1,-123.08C579.24,-115.38 588.27,-104.03 595.74,-94.65"/>
<polygon fill="midnightblue" stroke="midnightblue" points="598.54,-96.75 602.03,-86.75 593.06,-92.39 598.54,-96.75"/>
</g>
<!-- Node14&#45;&gt;Node8 -->
<g id="edge11" class="edge">
<title>Node14&#45;&gt;Node8</title>
<path fill="none" stroke="midnightblue" d="M559.61,-123.32C546.5,-105.5 516.2,-64.32 497.28,-38.61"/>
<polygon fill="midnightblue" stroke="midnightblue" points="500.08,-36.52 491.34,-30.55 494.44,-40.67 500.08,-36.52"/>
</g>
<!-- Node14&#45;&gt;Node9 -->
<g id="edge12" class="edge">
<title>Node14&#45;&gt;Node9</title>
<path fill="none" stroke="midnightblue" d="M558.3,-123.31C548.01,-110.58 532.14,-86.28 542,-67 548.59,-54.12 560.17,-43.77 572.03,-35.88"/>
<polygon fill="midnightblue" stroke="midnightblue" points="573.98,-38.79 580.66,-30.56 570.31,-32.83 573.98,-38.79"/>
</g>
<!-- Node14&#45;&gt;Node13 -->
<g id="edge14" class="edge">
<title>Node14&#45;&gt;Node13</title>
<path fill="none" stroke="midnightblue" d="M593.06,-123.39C615.79,-115.57 648.69,-102.84 675,-87 701.02,-71.34 727.38,-48.07 743.7,-32.6"/>
<polygon fill="midnightblue" stroke="midnightblue" points="746.49,-34.77 751.26,-25.3 741.63,-29.73 746.49,-34.77"/>
</g>
<!-- Node26&#45;&gt;Node3 -->
<g id="edge18" class="edge">
<title>Node26&#45;&gt;Node3</title>
<path fill="none" stroke="midnightblue" d="M556.31,-179.49C536.37,-171.29 506.3,-157.95 482,-143 457.84,-128.14 432.51,-107.45 416.28,-93.43"/>
<polygon fill="midnightblue" stroke="midnightblue" points="418.51,-90.73 408.68,-86.78 413.9,-96 418.51,-90.73"/>
</g>
<!-- Node26&#45;&gt;Node13 -->
<g id="edge19" class="edge">
<title>Node26&#45;&gt;Node13</title>
<path fill="none" stroke="midnightblue" d="M593.96,-179.35C608.85,-170.95 631.36,-157.39 649,-143 690.34,-109.28 729.17,-59.31 748.05,-33.43"/>
<polygon fill="midnightblue" stroke="midnightblue" points="751.07,-35.22 754.07,-25.05 745.39,-31.13 751.07,-35.22"/>
</g>
<!-- Node26&#45;&gt;Node14 -->
<g id="edge17" class="edge">
<title>Node26&#45;&gt;Node14</title>
<path fill="none" stroke="midnightblue" d="M576.02,-179.08C574.43,-171.93 572.14,-161.64 570.15,-152.69"/>
<polygon fill="midnightblue" stroke="midnightblue" points="573.53,-151.75 567.94,-142.75 566.7,-153.27 573.53,-151.75"/>
</g>
<!-- Node32 -->
<g id="node14" class="node">
<title>Node32</title>
<g id="a_node14"><a xlink:title=" ">
<polygon fill="white" stroke="#bfbfbf" points="1579,-179.5 1579,-198.5 1707,-198.5 1707,-179.5 1579,-179.5"/>
<text text-anchor="middle" x="1643" y="-186.5" font-family="Helvetica,sans-Serif" font-size="10.00">G4VUserPhysicsList.hh</text>
</a>
</g>
</g>
<!-- Node31&#45;&gt;Node32 -->
<g id="edge21" class="edge">
<title>Node31&#45;&gt;Node32</title>
<path fill="none" stroke="midnightblue" d="M1643,-235.08C1643,-228.01 1643,-217.86 1643,-208.99"/>
<polygon fill="midnightblue" stroke="midnightblue" points="1646.5,-208.75 1643,-198.75 1639.5,-208.75 1646.5,-208.75"/>
</g>
<!-- Node33 -->
<g id="node15" class="node">
<title>Node33</title>
<g id="a_node15"><a xlink:title=" ">
<polygon fill="white" stroke="#bfbfbf" points="1998.5,-123.5 1998.5,-142.5 2065.5,-142.5 2065.5,-123.5 1998.5,-123.5"/>
<text text-anchor="middle" x="2032" y="-130.5" font-family="Helvetica,sans-Serif" font-size="10.00">globals.hh</text>
</a>
</g>
</g>
<!-- Node31&#45;&gt;Node33 -->
<g id="edge22" class="edge">
<title>Node31&#45;&gt;Node33</title>
<path fill="none" stroke="midnightblue" d="M1620.19,-235.4C1591.96,-223.55 1549.93,-201.12 1570,-179 1597.8,-148.36 1878.34,-137.92 1988.21,-134.99"/>
<polygon fill="midnightblue" stroke="midnightblue" points="1988.38,-138.48 1998.29,-134.73 1988.2,-131.49 1988.38,-138.48"/>
</g>
<!-- Node34&#45;&gt;Node33 -->
<g id="edge25" class="edge">
<title>Node34&#45;&gt;Node33</title>
<path fill="none" stroke="midnightblue" d="M1942.29,-235.15C1944.62,-221.78 1950.59,-196.17 1964,-179 1974.41,-165.68 1989.91,-154.99 2003.48,-147.38"/>
<polygon fill="midnightblue" stroke="midnightblue" points="2005.29,-150.38 2012.48,-142.61 2002.01,-144.2 2005.29,-150.38"/>
</g>
<!-- Node35 -->
<g id="node17" class="node">
<title>Node35</title>
<g id="a_node17"><a xlink:title=" ">
<polygon fill="white" stroke="#bfbfbf" points="1725,-179.5 1725,-198.5 1917,-198.5 1917,-179.5 1725,-179.5"/>
<text text-anchor="middle" x="1821" y="-186.5" font-family="Helvetica,sans-Serif" font-size="10.00">G4VUserPrimaryGeneratorAction.hh</text>
</a>
</g>
</g>
<!-- Node34&#45;&gt;Node35 -->
<g id="edge24" class="edge">
<title>Node34&#45;&gt;Node35</title>
<path fill="none" stroke="midnightblue" d="M1921.99,-235.44C1902.41,-226.64 1871.69,-212.81 1849.27,-202.72"/>
<polygon fill="midnightblue" stroke="midnightblue" points="1850.48,-199.43 1839.93,-198.52 1847.61,-205.81 1850.48,-199.43"/>
</g>
<!-- Node36&#45;&gt;Node33 -->
<g id="edge28" class="edge">
<title>Node36&#45;&gt;Node33</title>
<path fill="none" stroke="midnightblue" d="M2109.77,-235.24C2110.5,-221.99 2110.14,-196.54 2099,-179 2090.21,-165.16 2075.46,-154.57 2062.03,-147.15"/>
<polygon fill="midnightblue" stroke="midnightblue" points="2063.53,-143.99 2053.04,-142.52 2060.33,-150.21 2063.53,-143.99"/>
</g>
<!-- Node37 -->
<g id="node19" class="node">
<title>Node37</title>
<g id="a_node19"><a xlink:title=" ">
<polygon fill="white" stroke="#bfbfbf" points="1973.5,-179.5 1973.5,-198.5 2090.5,-198.5 2090.5,-179.5 1973.5,-179.5"/>
<text text-anchor="middle" x="2032" y="-186.5" font-family="Helvetica,sans-Serif" font-size="10.00">G4UserRunAction.hh</text>
</a>
</g>
</g>
<!-- Node36&#45;&gt;Node37 -->
<g id="edge27" class="edge">
<title>Node36&#45;&gt;Node37</title>
<path fill="none" stroke="midnightblue" d="M2096.63,-235.32C2084.84,-227.06 2066.87,-214.45 2052.86,-204.63"/>
<polygon fill="midnightblue" stroke="midnightblue" points="2054.54,-201.53 2044.34,-198.65 2050.52,-207.26 2054.54,-201.53"/>
</g>
<!-- Node39 -->
<g id="node21" class="node">
<title>Node39</title>
<g id="a_node21"><a xlink:title=" ">
<polygon fill="white" stroke="#bfbfbf" points="2185,-179.5 2185,-198.5 2311,-198.5 2311,-179.5 2185,-179.5"/>
<text text-anchor="middle" x="2248" y="-186.5" font-family="Helvetica,sans-Serif" font-size="10.00">G4UserEventAction.hh</text>
</a>
</g>
</g>
<!-- Node38&#45;&gt;Node39 -->
<g id="edge30" class="edge">
<title>Node38&#45;&gt;Node39</title>
<path fill="none" stroke="midnightblue" d="M2248,-235.08C2248,-228.01 2248,-217.86 2248,-208.99"/>
<polygon fill="midnightblue" stroke="midnightblue" points="2251.5,-208.75 2248,-198.75 2244.5,-208.75 2251.5,-208.75"/>
</g>
<!-- Node38&#45;&gt;Node40 -->
<g id="edge31" class="edge">
<title>Node38&#45;&gt;Node40</title>
<path fill="none" stroke="midnightblue" d="M2225.32,-235.44C2197.81,-223.79 2157.3,-201.77 2176,-179 2200.25,-149.47 2313.82,-138.98 2370.56,-135.54"/>
<polygon fill="midnightblue" stroke="midnightblue" points="2371,-139.02 2380.78,-134.96 2370.6,-132.03 2371,-139.02"/>
</g>
<!-- Node42 -->
<g id="node24" class="node">
<title>Node42</title>
<g id="a_node24"><a xlink:title=" ">
<polygon fill="white" stroke="#bfbfbf" points="2815.5,-179.5 2815.5,-198.5 2954.5,-198.5 2954.5,-179.5 2815.5,-179.5"/>
<text text-anchor="middle" x="2885" y="-186.5" font-family="Helvetica,sans-Serif" font-size="10.00">G4UserTrackingAction.hh</text>
</a>
</g>
</g>
<!-- Node41&#45;&gt;Node42 -->
<g id="edge33" class="edge">
<title>Node41&#45;&gt;Node42</title>
<path fill="none" stroke="midnightblue" d="M2752.88,-235.44C2779.29,-226.36 2821.22,-211.94 2850.74,-201.78"/>
<polygon fill="midnightblue" stroke="midnightblue" points="2851.92,-205.08 2860.24,-198.52 2849.64,-198.46 2851.92,-205.08"/>
</g>
<!-- Node44 -->
<g id="node26" class="node">
<title>Node44</title>
<g id="a_node26"><a xlink:title=" ">
<polygon fill="white" stroke="#bfbfbf" points="953.5,-123.5 953.5,-142.5 1026.5,-142.5 1026.5,-123.5 953.5,-123.5"/>
<text text-anchor="middle" x="990" y="-130.5" font-family="Helvetica,sans-Serif" font-size="10.00">G4Types.hh</text>
</a>
</g>
</g>
<!-- Node43&#45;&gt;Node44 -->
<g id="edge35" class="edge">
<title>Node43&#45;&gt;Node44</title>
<path fill="none" stroke="midnightblue" d="M1401.26,-235.41C1431.56,-223.81 1475.83,-201.95 1455,-179 1427.24,-148.43 1149.4,-138.02 1036.91,-135.04"/>
<polygon fill="midnightblue" stroke="midnightblue" points="1036.96,-131.54 1026.87,-134.78 1036.78,-138.54 1036.96,-131.54"/>
</g>
<!-- Node45 -->
<g id="node27" class="node">
<title>Node45</title>
<g id="a_node27"><a xlink:title=" ">
<polygon fill="white" stroke="#bfbfbf" points="1213,-179.5 1213,-198.5 1287,-198.5 1287,-179.5 1213,-179.5"/>
<text text-anchor="middle" x="1250" y="-186.5" font-family="Helvetica,sans-Serif" font-size="10.00">G4String.hh</text>
</a>
</g>
</g>
<!-- Node43&#45;&gt;Node45 -->
<g id="edge36" class="edge">
<title>Node43&#45;&gt;Node45</title>
<path fill="none" stroke="midnightblue" d="M1356.03,-235.44C1335.39,-226.6 1302.94,-212.69 1279.37,-202.59"/>
<polygon fill="midnightblue" stroke="midnightblue" points="1280.44,-199.24 1269.87,-198.52 1277.68,-205.67 1280.44,-199.24"/>
</g>
<!-- Node43&#45;&gt;Node46 -->
<g id="edge37" class="edge">
<title>Node43&#45;&gt;Node46</title>
<path fill="none" stroke="midnightblue" d="M1339.08,-235.44C1298.6,-226.06 1233.58,-210.99 1189.62,-200.8"/>
<polygon fill="midnightblue" stroke="midnightblue" points="1190.28,-197.36 1179.75,-198.52 1188.7,-204.18 1190.28,-197.36"/>
</g>
<!-- Node47 -->
<g id="node29" class="node">
<title>Node47</title>
<g id="a_node29"><a xlink:title=" ">
<polygon fill="white" stroke="#bfbfbf" points="1305.5,-179.5 1305.5,-198.5 1446.5,-198.5 1446.5,-179.5 1305.5,-179.5"/>
<text text-anchor="middle" x="1376" y="-186.5" font-family="Helvetica,sans-Serif" font-size="10.00">G4UserSteppingAction.hh</text>
</a>
</g>
</g>
<!-- Node43&#45;&gt;Node47 -->
<g id="edge38" class="edge">
<title>Node43&#45;&gt;Node47</title>
<path fill="none" stroke="midnightblue" d="M1376,-235.08C1376,-228.01 1376,-217.86 1376,-208.99"/>
<polygon fill="midnightblue" stroke="midnightblue" points="1379.5,-208.75 1376,-198.75 1372.5,-208.75 1379.5,-208.75"/>
</g>
<!-- Node48&#45;&gt;Node44 -->
<g id="edge40" class="edge">
<title>Node48&#45;&gt;Node44</title>
<path fill="none" stroke="midnightblue" d="M1037.17,-235.48C1028.81,-226.96 1016.47,-213.13 1009,-199 1001.27,-184.38 996.3,-166.21 993.39,-152.8"/>
<polygon fill="midnightblue" stroke="midnightblue" points="996.79,-151.97 991.41,-142.84 989.93,-153.33 996.79,-151.97"/>
</g>
<!-- Node48&#45;&gt;Node45 -->
<g id="edge41" class="edge">
<title>Node48&#45;&gt;Node45</title>
<path fill="none" stroke="midnightblue" d="M1078.32,-235.44C1113.39,-226.16 1169.5,-211.31 1207.96,-201.13"/>
<polygon fill="midnightblue" stroke="midnightblue" points="1209.06,-204.46 1217.83,-198.52 1207.26,-197.69 1209.06,-204.46"/>
</g>
<!-- Node48&#45;&gt;Node46 -->
<g id="edge42" class="edge">
<title>Node48&#45;&gt;Node46</title>
<path fill="none" stroke="midnightblue" d="M1061.58,-235.32C1077,-226.74 1100.81,-213.49 1118.71,-203.52"/>
<polygon fill="midnightblue" stroke="midnightblue" points="1120.42,-206.58 1127.45,-198.65 1117.01,-200.46 1120.42,-206.58"/>
</g>
<!-- Node48&#45;&gt;Node49 -->
<g id="edge43" class="edge">
<title>Node48&#45;&gt;Node49</title>
<path fill="none" stroke="midnightblue" d="M1011.62,-235.44C974.08,-226.1 913.87,-211.12 872.93,-200.93"/>
<polygon fill="midnightblue" stroke="midnightblue" points="873.77,-197.53 863.22,-198.52 872.08,-204.33 873.77,-197.53"/>
</g>
<!-- Node54 -->
<g id="node33" class="node">
<title>Node54</title>
<g id="a_node33"><a xlink:title=" ">
<polygon fill="white" stroke="#bfbfbf" points="914.5,-179.5 914.5,-198.5 961.5,-198.5 961.5,-179.5 914.5,-179.5"/>
<text text-anchor="middle" x="938" y="-186.5" font-family="Helvetica,sans-Serif" font-size="10.00">vector</text>
</a>
</g>
</g>
<!-- Node48&#45;&gt;Node54 -->
<g id="edge47" class="edge">
<title>Node48&#45;&gt;Node54</title>
<path fill="none" stroke="midnightblue" d="M1028.65,-235.32C1011.33,-226.66 984.48,-213.24 964.5,-203.25"/>
<polygon fill="midnightblue" stroke="midnightblue" points="965.82,-200 955.31,-198.65 962.69,-206.26 965.82,-200"/>
</g>
<!-- Node48&#45;&gt;Node55 -->
<g id="edge48" class="edge">
<title>Node48&#45;&gt;Node55</title>
<path fill="none" stroke="midnightblue" d="M1046,-235.08C1046,-228.01 1046,-217.86 1046,-208.99"/>
<polygon fill="midnightblue" stroke="midnightblue" points="1049.5,-208.75 1046,-198.75 1042.5,-208.75 1049.5,-208.75"/>
</g>
<!-- Node49&#45;&gt;Node13 -->
<g id="edge44" class="edge">
<title>Node49&#45;&gt;Node13</title>
<path fill="none" stroke="midnightblue" d="M826.23,-179.36C819.72,-159.34 802.67,-108.31 785,-67 780.26,-55.92 774.29,-43.81 769.38,-34.22"/>
<polygon fill="midnightblue" stroke="midnightblue" points="772.45,-32.55 764.73,-25.3 766.24,-35.79 772.45,-32.55"/>
</g>
<!-- Node49&#45;&gt;Node44 -->
<g id="edge45" class="edge">
<title>Node49&#45;&gt;Node44</title>
<path fill="none" stroke="midnightblue" d="M854.51,-179.44C881.6,-170.36 924.59,-155.94 954.87,-145.78"/>
<polygon fill="midnightblue" stroke="midnightblue" points="956.24,-149.01 964.61,-142.52 954.01,-142.38 956.24,-149.01"/>
</g>
<!-- Node49&#45;&gt;Node51 -->
<g id="edge46" class="edge">
<title>Node49&#45;&gt;Node51</title>
<path fill="none" stroke="midnightblue" d="M896.54,-179.99C899.4,-179.66 902.23,-179.32 905,-179 1032.01,-164.13 1182.38,-146.82 1253.22,-138.68"/>
<polygon fill="midnightblue" stroke="midnightblue" points="1253.95,-142.12 1263.49,-137.5 1253.15,-135.17 1253.95,-142.12"/>
</g>
<!-- Node56&#45;&gt;Node33 -->
<g id="edge52" class="edge">
<title>Node56&#45;&gt;Node33</title>
<path fill="none" stroke="midnightblue" d="M2382.93,-179.44C2297.01,-168.32 2149.3,-149.19 2075.96,-139.69"/>
<polygon fill="midnightblue" stroke="midnightblue" points="2076.06,-136.18 2065.7,-138.36 2075.16,-143.12 2076.06,-136.18"/>
</g>
<!-- Node56&#45;&gt;Node40 -->
<g id="edge51" class="edge">
<title>Node56&#45;&gt;Node40</title>
<path fill="none" stroke="midnightblue" d="M2441.4,-179.08C2434.77,-171.3 2424.98,-159.8 2416.94,-150.37"/>
<polygon fill="midnightblue" stroke="midnightblue" points="2419.6,-148.09 2410.45,-142.75 2414.27,-152.63 2419.6,-148.09"/>
</g>
<!-- Node56&#45;&gt;Node60 -->
<g id="edge53" class="edge">
<title>Node56&#45;&gt;Node60</title>
<path fill="none" stroke="midnightblue" d="M2456.6,-179.08C2463.23,-171.3 2473.02,-159.8 2481.06,-150.37"/>
<polygon fill="midnightblue" stroke="midnightblue" points="2483.73,-152.63 2487.55,-142.75 2478.4,-148.09 2483.73,-152.63"/>
</g>
<!-- Node64&#45;&gt;Node40 -->
<g id="edge56" class="edge">
<title>Node64&#45;&gt;Node40</title>
<path fill="none" stroke="midnightblue" d="M2489.76,-235.49C2517.46,-224.22 2557.35,-202.96 2540,-179 2527.57,-161.84 2471.67,-147.69 2435.23,-140.08"/>
<polygon fill="midnightblue" stroke="midnightblue" points="2435.56,-136.58 2425.07,-138.02 2434.17,-143.44 2435.56,-136.58"/>
</g>
<!-- Node64&#45;&gt;Node56 -->
<g id="edge58" class="edge">
<title>Node64&#45;&gt;Node56</title>
<path fill="none" stroke="midnightblue" d="M2463.19,-235.08C2460.92,-227.85 2457.63,-217.41 2454.79,-208.4"/>
<polygon fill="midnightblue" stroke="midnightblue" points="2458.1,-207.24 2451.75,-198.75 2451.42,-209.34 2458.1,-207.24"/>
</g>
<!-- Node64&#45;&gt;Node21 -->
<g id="edge55" class="edge">
<title>Node64&#45;&gt;Node21</title>
<path fill="none" stroke="midnightblue" d="M2489.61,-235.44C2514.46,-226.44 2553.77,-212.19 2581.75,-202.05"/>
<polygon fill="midnightblue" stroke="midnightblue" points="2583.29,-205.21 2591.5,-198.52 2580.91,-198.63 2583.29,-205.21"/>
</g>
<!-- Node64&#45;&gt;Node65 -->
<g id="edge57" class="edge">
<title>Node64&#45;&gt;Node65</title>
<path fill="none" stroke="midnightblue" d="M2504.66,-235.44C2547.14,-226.04 2615.43,-210.93 2661.47,-200.74"/>
<polygon fill="midnightblue" stroke="midnightblue" points="2662.51,-204.09 2671.52,-198.52 2661,-197.26 2662.51,-204.09"/>
</g>
</g>
</svg>
