<?xml version="1.0" encoding="UTF-8" standalone="no"?>
<!DOCTYPE svg PUBLIC "-//W3C//DTD SVG 1.1//EN"
 "http://www.w3.org/Graphics/SVG/1.1/DTD/svg11.dtd">
<!-- Generated by graphviz version 2.43.0 (0)
 -->
<!-- Title: OMSimDataFileTypes.hh Pages: 1 -->
<svg width="274pt" height="84pt"
 viewBox="0.00 0.00 273.50 84.00" xmlns="http://www.w3.org/2000/svg" xmlns:xlink="http://www.w3.org/1999/xlink">
<g id="graph0" class="graph" transform="scale(1 1) rotate(0) translate(4 80)">
<title>OMSimDataFileTypes.hh</title>
<polygon fill="white" stroke="transparent" points="-4,4 -4,-80 269.5,-80 269.5,4 -4,4"/>
<!-- Node1 -->
<g id="node1" class="node">
<title>Node1</title>
<g id="a_node1"><a xlink:title="Collection of classes and methods to handle material creation from user data in json files.">
<polygon fill="#bfbfbf" stroke="black" points="70.5,-56.5 70.5,-75.5 205.5,-75.5 205.5,-56.5 70.5,-56.5"/>
<text text-anchor="middle" x="138" y="-63.5" font-family="Helvetica,sans-Serif" font-size="10.00">OMSimDataFileTypes.hh</text>
</a>
</g>
</g>
<!-- Node2 -->
<g id="node2" class="node">
<title>Node2</title>
<g id="a_node2"><a xlink:href="_o_m_sim_data_file_types_8cc.html" target="_top" xlink:title=" ">
<polygon fill="white" stroke="black" points="0,-0.5 0,-19.5 134,-19.5 134,-0.5 0,-0.5"/>
<text text-anchor="middle" x="67" y="-7.5" font-family="Helvetica,sans-Serif" font-size="10.00">OMSimDataFileTypes.cc</text>
</a>
</g>
</g>
<!-- Node1&#45;&gt;Node2 -->
<g id="edge1" class="edge">
<title>Node1&#45;&gt;Node2</title>
<path fill="none" stroke="midnightblue" d="M118.41,-50.1C105.63,-40.38 89.39,-28.03 78.61,-19.83"/>
<polygon fill="midnightblue" stroke="midnightblue" points="116.51,-53.06 126.59,-56.32 120.75,-47.48 116.51,-53.06"/>
</g>
<!-- Node3 -->
<g id="node3" class="node">
<title>Node3</title>
<g id="a_node3"><a xlink:href="_o_m_sim_input_data_8cc.html" target="_top" xlink:title=" ">
<polygon fill="white" stroke="black" points="152.5,-0.5 152.5,-19.5 265.5,-19.5 265.5,-0.5 152.5,-0.5"/>
<text text-anchor="middle" x="209" y="-7.5" font-family="Helvetica,sans-Serif" font-size="10.00">OMSimInputData.cc</text>
</a>
</g>
</g>
<!-- Node1&#45;&gt;Node3 -->
<g id="edge2" class="edge">
<title>Node1&#45;&gt;Node3</title>
<path fill="none" stroke="midnightblue" d="M157.59,-50.1C170.37,-40.38 186.61,-28.03 197.39,-19.83"/>
<polygon fill="midnightblue" stroke="midnightblue" points="155.25,-47.48 149.41,-56.32 159.49,-53.06 155.25,-47.48"/>
</g>
</g>
</svg>
