<?xml version="1.0" encoding="UTF-8" standalone="no"?>
<!DOCTYPE svg PUBLIC "-//W3C//DTD SVG 1.1//EN"
 "http://www.w3.org/Graphics/SVG/1.1/DTD/svg11.dtd">
<!-- Generated by graphviz version 2.43.0 (0)
 -->
<!-- Title: OMSim_effective_area.cc Pages: 1 -->
<svg width="2177pt" height="308pt"
 viewBox="0.00 0.00 2176.50 308.00" xmlns="http://www.w3.org/2000/svg" xmlns:xlink="http://www.w3.org/1999/xlink">
<g id="graph0" class="graph" transform="scale(1 1) rotate(0) translate(4 304)">
<title>OMSim_effective_area.cc</title>
<polygon fill="white" stroke="transparent" points="-4,4 -4,-304 2172.5,-304 2172.5,4 -4,4"/>
<!-- Node1 -->
<g id="node1" class="node">
<title>Node1</title>
<g id="a_node1"><a xlink:title="Main for the calculation of effective areas.">
<polygon fill="#bfbfbf" stroke="black" points="1905,-280.5 1905,-299.5 2045,-299.5 2045,-280.5 1905,-280.5"/>
<text text-anchor="middle" x="1975" y="-287.5" font-family="Helvetica,sans-Serif" font-size="10.00">OMSim_effective_area.cc</text>
</a>
</g>
</g>
<!-- Node2 -->
<g id="node2" class="node">
<title>Node2</title>
<g id="a_node2"><a xlink:href="_o_m_sim_8hh.html" target="_top" xlink:title="Main simulation class for the Optical Module (OM) simulation. This file defines the OMSim class,...">
<polygon fill="white" stroke="black" points="885.5,-224.5 885.5,-243.5 952.5,-243.5 952.5,-224.5 885.5,-224.5"/>
<text text-anchor="middle" x="919" y="-231.5" font-family="Helvetica,sans-Serif" font-size="10.00">OMSim.hh</text>
</a>
</g>
</g>
<!-- Node1&#45;&gt;Node2 -->
<g id="edge1" class="edge">
<title>Node1&#45;&gt;Node2</title>
<path fill="none" stroke="midnightblue" d="M1904.9,-285.42C1703.41,-275.11 1126.66,-245.62 962.86,-237.24"/>
<polygon fill="midnightblue" stroke="midnightblue" points="962.84,-233.74 952.68,-236.72 962.49,-240.73 962.84,-233.74"/>
</g>
<!-- Node26 -->
<g id="node26" class="node">
<title>Node26</title>
<g id="a_node26"><a xlink:href="_o_m_sim_angular_scan_8hh.html" target="_top" xlink:title="Defines the AngularScan class for configuring and running GPS beam with angular scans.">
<polygon fill="white" stroke="black" points="2027,-224.5 2027,-243.5 2155,-243.5 2155,-224.5 2027,-224.5"/>
<text text-anchor="middle" x="2091" y="-231.5" font-family="Helvetica,sans-Serif" font-size="10.00">OMSimAngularScan.hh</text>
</a>
</g>
</g>
<!-- Node1&#45;&gt;Node26 -->
<g id="edge25" class="edge">
<title>Node1&#45;&gt;Node26</title>
<path fill="none" stroke="midnightblue" d="M1993.38,-280.44C2012.22,-271.68 2041.73,-257.94 2063.38,-247.86"/>
<polygon fill="midnightblue" stroke="midnightblue" points="2065.12,-250.91 2072.71,-243.52 2062.16,-244.56 2065.12,-250.91"/>
</g>
<!-- Node28 -->
<g id="node28" class="node">
<title>Node28</title>
<g id="a_node28"><a xlink:href="_o_m_sim_effective_area_analyisis_8hh.html" target="_top" xlink:title=" ">
<polygon fill="white" stroke="black" points="1887,-168.5 1887,-187.5 2063,-187.5 2063,-168.5 1887,-168.5"/>
<text text-anchor="middle" x="1975" y="-175.5" font-family="Helvetica,sans-Serif" font-size="10.00">OMSimEffectiveAreaAnalyisis.hh</text>
</a>
</g>
</g>
<!-- Node1&#45;&gt;Node28 -->
<g id="edge27" class="edge">
<title>Node1&#45;&gt;Node28</title>
<path fill="none" stroke="midnightblue" d="M1975,-280.37C1975,-262.62 1975,-221.67 1975,-197.6"/>
<polygon fill="midnightblue" stroke="midnightblue" points="1978.5,-197.59 1975,-187.59 1971.5,-197.59 1978.5,-197.59"/>
</g>
<!-- Node3 -->
<g id="node3" class="node">
<title>Node3</title>
<g id="a_node3"><a xlink:title=" ">
<polygon fill="white" stroke="#bfbfbf" points="923,-168.5 923,-187.5 1093,-187.5 1093,-168.5 923,-168.5"/>
<text text-anchor="middle" x="1008" y="-175.5" font-family="Helvetica,sans-Serif" font-size="10.00">OMSimDetectorConstruction.hh</text>
</a>
</g>
</g>
<!-- Node2&#45;&gt;Node3 -->
<g id="edge2" class="edge">
<title>Node2&#45;&gt;Node3</title>
<path fill="none" stroke="midnightblue" d="M933.3,-224.32C947.18,-215.9 968.49,-202.97 984.8,-193.07"/>
<polygon fill="midnightblue" stroke="midnightblue" points="987,-195.83 993.74,-187.65 983.37,-189.85 987,-195.83"/>
</g>
<!-- Node4 -->
<g id="node4" class="node">
<title>Node4</title>
<g id="a_node4"><a xlink:title=" ">
<polygon fill="white" stroke="#bfbfbf" points="1111.5,-168.5 1111.5,-187.5 1232.5,-187.5 1232.5,-168.5 1111.5,-168.5"/>
<text text-anchor="middle" x="1172" y="-175.5" font-family="Helvetica,sans-Serif" font-size="10.00">OMSimPhysicsList.hh</text>
</a>
</g>
</g>
<!-- Node2&#45;&gt;Node4 -->
<g id="edge3" class="edge">
<title>Node2&#45;&gt;Node4</title>
<path fill="none" stroke="midnightblue" d="M952.6,-225.83C995.98,-216.57 1071.86,-200.37 1122.02,-189.67"/>
<polygon fill="midnightblue" stroke="midnightblue" points="1122.95,-193.05 1132,-187.54 1121.49,-186.2 1122.95,-193.05"/>
</g>
<!-- Node5 -->
<g id="node5" class="node">
<title>Node5</title>
<g id="a_node5"><a xlink:href="_o_m_sim_primary_generator_action_8hh.html" target="_top" xlink:title=" ">
<polygon fill="white" stroke="black" points="1250.5,-168.5 1250.5,-187.5 1435.5,-187.5 1435.5,-168.5 1250.5,-168.5"/>
<text text-anchor="middle" x="1343" y="-175.5" font-family="Helvetica,sans-Serif" font-size="10.00">OMSimPrimaryGeneratorAction.hh</text>
</a>
</g>
</g>
<!-- Node2&#45;&gt;Node5 -->
<g id="edge4" class="edge">
<title>Node2&#45;&gt;Node5</title>
<path fill="none" stroke="midnightblue" d="M952.62,-228.72C1020,-220.14 1173.03,-200.65 1266.23,-188.78"/>
<polygon fill="midnightblue" stroke="midnightblue" points="1266.69,-192.25 1276.17,-187.51 1265.81,-185.3 1266.69,-192.25"/>
</g>
<!-- Node7 -->
<g id="node7" class="node">
<title>Node7</title>
<g id="a_node7"><a xlink:title=" ">
<polygon fill="white" stroke="#bfbfbf" points="1453,-168.5 1453,-187.5 1569,-187.5 1569,-168.5 1453,-168.5"/>
<text text-anchor="middle" x="1511" y="-175.5" font-family="Helvetica,sans-Serif" font-size="10.00">OMSimRunAction.hh</text>
</a>
</g>
</g>
<!-- Node2&#45;&gt;Node7 -->
<g id="edge6" class="edge">
<title>Node2&#45;&gt;Node7</title>
<path fill="none" stroke="midnightblue" d="M952.53,-230.69C1034.38,-224.92 1251.15,-208.93 1442.94,-188.07"/>
<polygon fill="midnightblue" stroke="midnightblue" points="1443.36,-191.54 1452.92,-186.98 1442.59,-184.59 1443.36,-191.54"/>
</g>
<!-- Node8 -->
<g id="node8" class="node">
<title>Node8</title>
<g id="a_node8"><a xlink:title=" ">
<polygon fill="white" stroke="#bfbfbf" points="1587.5,-168.5 1587.5,-187.5 1712.5,-187.5 1712.5,-168.5 1587.5,-168.5"/>
<text text-anchor="middle" x="1650" y="-175.5" font-family="Helvetica,sans-Serif" font-size="10.00">OMSimEventAction.hh</text>
</a>
</g>
</g>
<!-- Node2&#45;&gt;Node8 -->
<g id="edge7" class="edge">
<title>Node2&#45;&gt;Node8</title>
<path fill="none" stroke="midnightblue" d="M952.66,-231.37C1048.46,-226.59 1331,-211.51 1576.99,-188.04"/>
<polygon fill="midnightblue" stroke="midnightblue" points="1577.58,-191.5 1587.19,-187.06 1576.91,-184.53 1577.58,-191.5"/>
</g>
<!-- Node9 -->
<g id="node9" class="node">
<title>Node9</title>
<g id="a_node9"><a xlink:href="_o_m_sim_tracking_action_8hh.html" target="_top" xlink:title=" ">
<polygon fill="white" stroke="black" points="1731,-168.5 1731,-187.5 1869,-187.5 1869,-168.5 1731,-168.5"/>
<text text-anchor="middle" x="1800" y="-175.5" font-family="Helvetica,sans-Serif" font-size="10.00">OMSimTrackingAction.hh</text>
</a>
</g>
</g>
<!-- Node2&#45;&gt;Node9 -->
<g id="edge8" class="edge">
<title>Node2&#45;&gt;Node9</title>
<path fill="none" stroke="midnightblue" d="M952.67,-231.8C1061.76,-227.78 1415.57,-213.58 1720.3,-188"/>
<polygon fill="midnightblue" stroke="midnightblue" points="1720.99,-191.46 1730.66,-187.13 1720.4,-184.48 1720.99,-191.46"/>
</g>
<!-- Node11 -->
<g id="node11" class="node">
<title>Node11</title>
<g id="a_node11"><a xlink:title=" ">
<polygon fill="white" stroke="#bfbfbf" points="0,-168.5 0,-187.5 140,-187.5 140,-168.5 0,-168.5"/>
<text text-anchor="middle" x="70" y="-175.5" font-family="Helvetica,sans-Serif" font-size="10.00">OMSimSteppingAction.hh</text>
</a>
</g>
</g>
<!-- Node2&#45;&gt;Node11 -->
<g id="edge10" class="edge">
<title>Node2&#45;&gt;Node11</title>
<path fill="none" stroke="midnightblue" d="M885.18,-231.69C778.78,-227.42 441.21,-212.82 150.51,-188.08"/>
<polygon fill="midnightblue" stroke="midnightblue" points="150.45,-184.57 140.19,-187.2 149.86,-191.54 150.45,-184.57"/>
</g>
<!-- Node12 -->
<g id="node12" class="node">
<title>Node12</title>
<g id="a_node12"><a xlink:href="_o_m_sim_u_iinterface_8hh.html" target="_top" xlink:title="The OMSimUIinterface class provides a singleton interface to Geant4&#39;s UI manager.">
<polygon fill="white" stroke="black" points="158.5,-168.5 158.5,-187.5 279.5,-187.5 279.5,-168.5 158.5,-168.5"/>
<text text-anchor="middle" x="219" y="-175.5" font-family="Helvetica,sans-Serif" font-size="10.00">OMSimUIinterface.hh</text>
</a>
</g>
</g>
<!-- Node2&#45;&gt;Node12 -->
<g id="edge11" class="edge">
<title>Node2&#45;&gt;Node12</title>
<path fill="none" stroke="midnightblue" d="M885.48,-231.27C792.66,-226.36 524.24,-211.17 289.76,-188.02"/>
<polygon fill="midnightblue" stroke="midnightblue" points="289.98,-184.52 279.68,-187.02 289.29,-191.49 289.98,-184.52"/>
</g>
<!-- Node21 -->
<g id="node21" class="node">
<title>Node21</title>
<g id="a_node21"><a xlink:title=" ">
<polygon fill="white" stroke="#bfbfbf" points="298,-168.5 298,-187.5 404,-187.5 404,-168.5 298,-168.5"/>
<text text-anchor="middle" x="351" y="-175.5" font-family="Helvetica,sans-Serif" font-size="10.00">G4RunManager.hh</text>
</a>
</g>
</g>
<!-- Node2&#45;&gt;Node21 -->
<g id="edge20" class="edge">
<title>Node2&#45;&gt;Node21</title>
<path fill="none" stroke="midnightblue" d="M885.48,-230.67C805.74,-224.97 598.28,-209.35 414.21,-188.08"/>
<polygon fill="midnightblue" stroke="midnightblue" points="414.41,-184.58 404.07,-186.9 413.6,-191.53 414.41,-184.58"/>
</g>
<!-- Node22 -->
<g id="node22" class="node">
<title>Node22</title>
<g id="a_node22"><a xlink:title=" ">
<polygon fill="white" stroke="#bfbfbf" points="422.5,-168.5 422.5,-187.5 529.5,-187.5 529.5,-168.5 422.5,-168.5"/>
<text text-anchor="middle" x="476" y="-175.5" font-family="Helvetica,sans-Serif" font-size="10.00">G4VisExecutive.hh</text>
</a>
</g>
</g>
<!-- Node2&#45;&gt;Node22 -->
<g id="edge21" class="edge">
<title>Node2&#45;&gt;Node22</title>
<path fill="none" stroke="midnightblue" d="M885.32,-229.33C820.48,-222.19 673.52,-205.69 539.77,-188.21"/>
<polygon fill="midnightblue" stroke="midnightblue" points="540.13,-184.72 529.76,-186.89 539.22,-191.66 540.13,-184.72"/>
</g>
<!-- Node23 -->
<g id="node23" class="node">
<title>Node23</title>
<g id="a_node23"><a xlink:title=" ">
<polygon fill="white" stroke="#bfbfbf" points="547.5,-168.5 547.5,-187.5 650.5,-187.5 650.5,-168.5 547.5,-168.5"/>
<text text-anchor="middle" x="599" y="-175.5" font-family="Helvetica,sans-Serif" font-size="10.00">G4UIExecutive.hh</text>
</a>
</g>
</g>
<!-- Node2&#45;&gt;Node23 -->
<g id="edge22" class="edge">
<title>Node2&#45;&gt;Node23</title>
<path fill="none" stroke="midnightblue" d="M885.36,-227.32C831.79,-218.28 726.32,-200.49 659.42,-189.2"/>
<polygon fill="midnightblue" stroke="midnightblue" points="659.87,-185.72 649.43,-187.51 658.71,-192.63 659.87,-185.72"/>
</g>
<!-- Node24 -->
<g id="node24" class="node">
<title>Node24</title>
<g id="a_node24"><a xlink:title=" ">
<polygon fill="white" stroke="#bfbfbf" points="669,-168.5 669,-187.5 737,-187.5 737,-168.5 669,-168.5"/>
<text text-anchor="middle" x="703" y="-175.5" font-family="Helvetica,sans-Serif" font-size="10.00">filesystem</text>
</a>
</g>
</g>
<!-- Node2&#45;&gt;Node24 -->
<g id="edge23" class="edge">
<title>Node2&#45;&gt;Node24</title>
<path fill="none" stroke="midnightblue" d="M885.25,-224.56C847.98,-215.25 787.85,-200.21 746.93,-189.98"/>
<polygon fill="midnightblue" stroke="midnightblue" points="747.78,-186.59 737.23,-187.56 746.08,-193.38 747.78,-186.59"/>
</g>
<!-- Node25 -->
<g id="node25" class="node">
<title>Node25</title>
<g id="a_node25"><a xlink:title=" ">
<polygon fill="white" stroke="#bfbfbf" points="755,-168.5 755,-187.5 905,-187.5 905,-168.5 755,-168.5"/>
<text text-anchor="middle" x="830" y="-175.5" font-family="Helvetica,sans-Serif" font-size="10.00">boost/program_options.hpp</text>
</a>
</g>
</g>
<!-- Node2&#45;&gt;Node25 -->
<g id="edge24" class="edge">
<title>Node2&#45;&gt;Node25</title>
<path fill="none" stroke="midnightblue" d="M904.7,-224.32C890.82,-215.9 869.51,-202.97 853.2,-193.07"/>
<polygon fill="midnightblue" stroke="midnightblue" points="854.63,-189.85 844.26,-187.65 851,-195.83 854.63,-189.85"/>
</g>
<!-- Node6 -->
<g id="node6" class="node">
<title>Node6</title>
<g id="a_node6"><a xlink:title=" ">
<polygon fill="white" stroke="#bfbfbf" points="1247,-112.5 1247,-131.5 1439,-131.5 1439,-112.5 1247,-112.5"/>
<text text-anchor="middle" x="1343" y="-119.5" font-family="Helvetica,sans-Serif" font-size="10.00">G4VUserPrimaryGeneratorAction.hh</text>
</a>
</g>
</g>
<!-- Node5&#45;&gt;Node6 -->
<g id="edge5" class="edge">
<title>Node5&#45;&gt;Node6</title>
<path fill="none" stroke="midnightblue" d="M1343,-168.08C1343,-161.01 1343,-150.86 1343,-141.99"/>
<polygon fill="midnightblue" stroke="midnightblue" points="1346.5,-141.75 1343,-131.75 1339.5,-141.75 1346.5,-141.75"/>
</g>
<!-- Node10 -->
<g id="node10" class="node">
<title>Node10</title>
<g id="a_node10"><a xlink:title=" ">
<polygon fill="white" stroke="#bfbfbf" points="1672.5,-112.5 1672.5,-131.5 1811.5,-131.5 1811.5,-112.5 1672.5,-112.5"/>
<text text-anchor="middle" x="1742" y="-119.5" font-family="Helvetica,sans-Serif" font-size="10.00">G4UserTrackingAction.hh</text>
</a>
</g>
</g>
<!-- Node9&#45;&gt;Node10 -->
<g id="edge9" class="edge">
<title>Node9&#45;&gt;Node10</title>
<path fill="none" stroke="midnightblue" d="M1790.68,-168.32C1782.11,-160.34 1769.19,-148.31 1758.81,-138.65"/>
<polygon fill="midnightblue" stroke="midnightblue" points="1761.19,-136.09 1751.49,-131.83 1756.42,-141.21 1761.19,-136.09"/>
</g>
<!-- Node13 -->
<g id="node13" class="node">
<title>Node13</title>
<g id="a_node13"><a xlink:href="_o_m_sim_command_args_table_8hh.html" target="_top" xlink:title="Definition of the OMSimCommandArgsTable singleton class, which controls user args.">
<polygon fill="white" stroke="black" points="137,-112.5 137,-131.5 301,-131.5 301,-112.5 137,-112.5"/>
<text text-anchor="middle" x="219" y="-119.5" font-family="Helvetica,sans-Serif" font-size="10.00">OMSimCommandArgsTable.hh</text>
</a>
</g>
</g>
<!-- Node12&#45;&gt;Node13 -->
<g id="edge12" class="edge">
<title>Node12&#45;&gt;Node13</title>
<path fill="none" stroke="midnightblue" d="M219,-168.08C219,-161.01 219,-150.86 219,-141.99"/>
<polygon fill="midnightblue" stroke="midnightblue" points="222.5,-141.75 219,-131.75 215.5,-141.75 222.5,-141.75"/>
</g>
<!-- Node20 -->
<g id="node20" class="node">
<title>Node20</title>
<g id="a_node20"><a xlink:title=" ">
<polygon fill="white" stroke="#bfbfbf" points="319,-112.5 319,-131.5 417,-131.5 417,-112.5 319,-112.5"/>
<text text-anchor="middle" x="368" y="-119.5" font-family="Helvetica,sans-Serif" font-size="10.00">G4UImanager.hh</text>
</a>
</g>
</g>
<!-- Node12&#45;&gt;Node20 -->
<g id="edge19" class="edge">
<title>Node12&#45;&gt;Node20</title>
<path fill="none" stroke="midnightblue" d="M242.61,-168.44C267.46,-159.44 306.77,-145.19 334.75,-135.05"/>
<polygon fill="midnightblue" stroke="midnightblue" points="336.29,-138.21 344.5,-131.52 333.91,-131.63 336.29,-138.21"/>
</g>
<!-- Node14 -->
<g id="node14" class="node">
<title>Node14</title>
<g id="a_node14"><a xlink:href="_o_m_sim_logger_8hh.html" target="_top" xlink:title=" ">
<polygon fill="white" stroke="black" points="59.5,-56.5 59.5,-75.5 158.5,-75.5 158.5,-56.5 59.5,-56.5"/>
<text text-anchor="middle" x="109" y="-63.5" font-family="Helvetica,sans-Serif" font-size="10.00">OMSimLogger.hh</text>
</a>
</g>
</g>
<!-- Node13&#45;&gt;Node14 -->
<g id="edge13" class="edge">
<title>Node13&#45;&gt;Node14</title>
<path fill="none" stroke="midnightblue" d="M201.33,-112.32C183.61,-103.62 156.1,-90.12 135.71,-80.11"/>
<polygon fill="midnightblue" stroke="midnightblue" points="137.15,-76.92 126.63,-75.65 134.06,-83.2 137.15,-76.92"/>
</g>
<!-- Node17 -->
<g id="node17" class="node">
<title>Node17</title>
<g id="a_node17"><a xlink:title=" ">
<polygon fill="white" stroke="#bfbfbf" points="1789.5,-56.5 1789.5,-75.5 1844.5,-75.5 1844.5,-56.5 1789.5,-56.5"/>
<text text-anchor="middle" x="1817" y="-63.5" font-family="Helvetica,sans-Serif" font-size="10.00">fstream</text>
</a>
</g>
</g>
<!-- Node13&#45;&gt;Node17 -->
<g id="edge16" class="edge">
<title>Node13&#45;&gt;Node17</title>
<path fill="none" stroke="midnightblue" d="M301.32,-112.6C304.25,-112.39 307.15,-112.18 310,-112 894.33,-74.42 1608.17,-68.16 1778.99,-67.17"/>
<polygon fill="midnightblue" stroke="midnightblue" points="1779.25,-70.67 1789.23,-67.12 1779.21,-63.67 1779.25,-70.67"/>
</g>
<!-- Node18 -->
<g id="node18" class="node">
<title>Node18</title>
<g id="a_node18"><a xlink:title=" ">
<polygon fill="white" stroke="#bfbfbf" points="177,-56.5 177,-75.5 261,-75.5 261,-56.5 177,-56.5"/>
<text text-anchor="middle" x="219" y="-63.5" font-family="Helvetica,sans-Serif" font-size="10.00">boost/any.hpp</text>
</a>
</g>
</g>
<!-- Node13&#45;&gt;Node18 -->
<g id="edge17" class="edge">
<title>Node13&#45;&gt;Node18</title>
<path fill="none" stroke="midnightblue" d="M219,-112.08C219,-105.01 219,-94.86 219,-85.99"/>
<polygon fill="midnightblue" stroke="midnightblue" points="222.5,-85.75 219,-75.75 215.5,-85.75 222.5,-85.75"/>
</g>
<!-- Node19 -->
<g id="node19" class="node">
<title>Node19</title>
<g id="a_node19"><a xlink:title=" ">
<polygon fill="white" stroke="#bfbfbf" points="279,-56.5 279,-75.5 347,-75.5 347,-56.5 279,-56.5"/>
<text text-anchor="middle" x="313" y="-63.5" font-family="Helvetica,sans-Serif" font-size="10.00">sys/time.h</text>
</a>
</g>
</g>
<!-- Node13&#45;&gt;Node19 -->
<g id="edge18" class="edge">
<title>Node13&#45;&gt;Node19</title>
<path fill="none" stroke="midnightblue" d="M234.1,-112.32C248.9,-103.82 271.69,-90.73 288.98,-80.8"/>
<polygon fill="midnightblue" stroke="midnightblue" points="291.01,-83.67 297.93,-75.65 287.52,-77.6 291.01,-83.67"/>
</g>
<!-- Node15 -->
<g id="node15" class="node">
<title>Node15</title>
<g id="a_node15"><a xlink:title=" ">
<polygon fill="white" stroke="#bfbfbf" points="118,-0.5 118,-19.5 168,-19.5 168,-0.5 118,-0.5"/>
<text text-anchor="middle" x="143" y="-7.5" font-family="Helvetica,sans-Serif" font-size="10.00">stdio.h</text>
</a>
</g>
</g>
<!-- Node14&#45;&gt;Node15 -->
<g id="edge14" class="edge">
<title>Node14&#45;&gt;Node15</title>
<path fill="none" stroke="midnightblue" d="M114.61,-56.08C119.37,-48.53 126.32,-37.49 132.15,-28.23"/>
<polygon fill="midnightblue" stroke="midnightblue" points="135.12,-30.08 137.49,-19.75 129.2,-26.35 135.12,-30.08"/>
</g>
<!-- Node16 -->
<g id="node16" class="node">
<title>Node16</title>
<g id="a_node16"><a xlink:title=" ">
<polygon fill="white" stroke="#bfbfbf" points="52,-0.5 52,-19.5 100,-19.5 100,-0.5 52,-0.5"/>
<text text-anchor="middle" x="76" y="-7.5" font-family="Helvetica,sans-Serif" font-size="10.00">time.h</text>
</a>
</g>
</g>
<!-- Node14&#45;&gt;Node16 -->
<g id="edge15" class="edge">
<title>Node14&#45;&gt;Node16</title>
<path fill="none" stroke="midnightblue" d="M103.55,-56.08C98.99,-48.61 92.33,-37.72 86.71,-28.52"/>
<polygon fill="midnightblue" stroke="midnightblue" points="89.55,-26.46 81.35,-19.75 83.58,-30.11 89.55,-26.46"/>
</g>
<!-- Node27 -->
<g id="node27" class="node">
<title>Node27</title>
<g id="a_node27"><a xlink:title=" ">
<polygon fill="white" stroke="#bfbfbf" points="2081.5,-168.5 2081.5,-187.5 2148.5,-187.5 2148.5,-168.5 2081.5,-168.5"/>
<text text-anchor="middle" x="2115" y="-175.5" font-family="Helvetica,sans-Serif" font-size="10.00">globals.hh</text>
</a>
</g>
</g>
<!-- Node26&#45;&gt;Node27 -->
<g id="edge26" class="edge">
<title>Node26&#45;&gt;Node27</title>
<path fill="none" stroke="midnightblue" d="M2094.96,-224.08C2098.21,-216.77 2102.92,-206.18 2106.95,-197.1"/>
<polygon fill="midnightblue" stroke="midnightblue" points="2110.25,-198.31 2111.11,-187.75 2103.85,-195.47 2110.25,-198.31"/>
</g>
<!-- Node28&#45;&gt;Node17 -->
<g id="edge39" class="edge">
<title>Node28&#45;&gt;Node17</title>
<path fill="none" stroke="midnightblue" d="M1936.09,-168.46C1911.94,-161.67 1881.36,-150.21 1859,-132 1843.58,-119.44 1831.94,-99.66 1824.88,-85.22"/>
<polygon fill="midnightblue" stroke="midnightblue" points="1827.91,-83.45 1820.55,-75.83 1821.56,-86.37 1827.91,-83.45"/>
</g>
<!-- Node29 -->
<g id="node29" class="node">
<title>Node29</title>
<g id="a_node29"><a xlink:href="_o_m_sim_p_m_t_response_8hh.html" target="_top" xlink:title="Provides simulation for PMT response. This class is responsible for transforming hits on photocathode...">
<polygon fill="white" stroke="black" points="1862.5,-56.5 1862.5,-75.5 1997.5,-75.5 1997.5,-56.5 1862.5,-56.5"/>
<text text-anchor="middle" x="1930" y="-63.5" font-family="Helvetica,sans-Serif" font-size="10.00">OMSimPMTResponse.hh</text>
</a>
</g>
</g>
<!-- Node28&#45;&gt;Node29 -->
<g id="edge28" class="edge">
<title>Node28&#45;&gt;Node29</title>
<path fill="none" stroke="midnightblue" d="M1983.3,-168.28C1994.41,-155.52 2011.55,-131.17 2001,-112 1993.11,-97.66 1978.51,-87.25 1964.6,-80.08"/>
<polygon fill="midnightblue" stroke="midnightblue" points="1965.7,-76.73 1955.16,-75.62 1962.71,-83.06 1965.7,-76.73"/>
</g>
<!-- Node35 -->
<g id="node35" class="node">
<title>Node35</title>
<g id="a_node35"><a xlink:href="_o_m_sim_hit_manager_8hh.html" target="_top" xlink:title="Defines structures and classes related to optical module photon hit management.">
<polygon fill="white" stroke="black" points="1868.5,-112.5 1868.5,-131.5 1991.5,-131.5 1991.5,-112.5 1868.5,-112.5"/>
<text text-anchor="middle" x="1930" y="-119.5" font-family="Helvetica,sans-Serif" font-size="10.00">OMSimHitManager.hh</text>
</a>
</g>
</g>
<!-- Node28&#45;&gt;Node35 -->
<g id="edge34" class="edge">
<title>Node28&#45;&gt;Node35</title>
<path fill="none" stroke="midnightblue" d="M1967.57,-168.08C1961.15,-160.38 1951.69,-149.03 1943.88,-139.65"/>
<polygon fill="midnightblue" stroke="midnightblue" points="1946.38,-137.19 1937.29,-131.75 1941.01,-141.67 1946.38,-137.19"/>
</g>
<!-- Node36 -->
<g id="node36" class="node">
<title>Node36</title>
<g id="a_node36"><a xlink:title=" ">
<polygon fill="white" stroke="#bfbfbf" points="2015.5,-56.5 2015.5,-75.5 2118.5,-75.5 2118.5,-56.5 2015.5,-56.5"/>
<text text-anchor="middle" x="2067" y="-63.5" font-family="Helvetica,sans-Serif" font-size="10.00">G4ThreeVector.hh</text>
</a>
</g>
</g>
<!-- Node28&#45;&gt;Node36 -->
<g id="edge38" class="edge">
<title>Node28&#45;&gt;Node36</title>
<path fill="none" stroke="midnightblue" d="M1983.37,-168.21C1991.79,-159.26 2005.08,-144.91 2016,-132 2029.55,-115.98 2044.26,-97.05 2054.39,-83.77"/>
<polygon fill="midnightblue" stroke="midnightblue" points="2057.34,-85.66 2060.59,-75.57 2051.76,-81.43 2057.34,-85.66"/>
</g>
<!-- Node30 -->
<g id="node30" class="node">
<title>Node30</title>
<g id="a_node30"><a xlink:title=" ">
<polygon fill="white" stroke="#bfbfbf" points="2049.5,-0.5 2049.5,-19.5 2168.5,-19.5 2168.5,-0.5 2049.5,-0.5"/>
<text text-anchor="middle" x="2109" y="-7.5" font-family="Helvetica,sans-Serif" font-size="10.00">G4SystemOfUnits.hh</text>
</a>
</g>
</g>
<!-- Node29&#45;&gt;Node30 -->
<g id="edge29" class="edge">
<title>Node29&#45;&gt;Node30</title>
<path fill="none" stroke="midnightblue" d="M1958.36,-56.44C1988.74,-47.28 2037.11,-32.69 2070.82,-22.52"/>
<polygon fill="midnightblue" stroke="midnightblue" points="2072.21,-25.76 2080.77,-19.52 2070.18,-19.05 2072.21,-25.76"/>
</g>
<!-- Node31 -->
<g id="node31" class="node">
<title>Node31</title>
<g id="a_node31"><a xlink:title=" ">
<polygon fill="white" stroke="#bfbfbf" points="1751.5,-0.5 1751.5,-19.5 1824.5,-19.5 1824.5,-0.5 1751.5,-0.5"/>
<text text-anchor="middle" x="1788" y="-7.5" font-family="Helvetica,sans-Serif" font-size="10.00">G4Types.hh</text>
</a>
</g>
</g>
<!-- Node29&#45;&gt;Node31 -->
<g id="edge30" class="edge">
<title>Node29&#45;&gt;Node31</title>
<path fill="none" stroke="midnightblue" d="M1907.5,-56.44C1883.92,-47.48 1846.68,-33.31 1820.04,-23.18"/>
<polygon fill="midnightblue" stroke="midnightblue" points="1820.99,-19.8 1810.4,-19.52 1818.5,-26.34 1820.99,-19.8"/>
</g>
<!-- Node32 -->
<g id="node32" class="node">
<title>Node32</title>
<g id="a_node32"><a xlink:title=" ">
<polygon fill="white" stroke="#bfbfbf" points="1843,-0.5 1843,-19.5 1881,-19.5 1881,-0.5 1843,-0.5"/>
<text text-anchor="middle" x="1862" y="-7.5" font-family="Helvetica,sans-Serif" font-size="10.00">map</text>
</a>
</g>
</g>
<!-- Node29&#45;&gt;Node32 -->
<g id="edge31" class="edge">
<title>Node29&#45;&gt;Node32</title>
<path fill="none" stroke="midnightblue" d="M1919.07,-56.32C1908.83,-48.18 1893.28,-35.84 1881,-26.09"/>
<polygon fill="midnightblue" stroke="midnightblue" points="1883.13,-23.31 1873.12,-19.83 1878.78,-28.79 1883.13,-23.31"/>
</g>
<!-- Node33 -->
<g id="node33" class="node">
<title>Node33</title>
<g id="a_node33"><a xlink:title=" ">
<polygon fill="white" stroke="#bfbfbf" points="1899.5,-0.5 1899.5,-19.5 1960.5,-19.5 1960.5,-0.5 1899.5,-0.5"/>
<text text-anchor="middle" x="1930" y="-7.5" font-family="Helvetica,sans-Serif" font-size="10.00">TGraph.h</text>
</a>
</g>
</g>
<!-- Node29&#45;&gt;Node33 -->
<g id="edge32" class="edge">
<title>Node29&#45;&gt;Node33</title>
<path fill="none" stroke="midnightblue" d="M1930,-56.08C1930,-49.01 1930,-38.86 1930,-29.99"/>
<polygon fill="midnightblue" stroke="midnightblue" points="1933.5,-29.75 1930,-19.75 1926.5,-29.75 1933.5,-29.75"/>
</g>
<!-- Node34 -->
<g id="node34" class="node">
<title>Node34</title>
<g id="a_node34"><a xlink:title=" ">
<polygon fill="white" stroke="#bfbfbf" points="1978.5,-0.5 1978.5,-19.5 2031.5,-19.5 2031.5,-0.5 1978.5,-0.5"/>
<text text-anchor="middle" x="2005" y="-7.5" font-family="Helvetica,sans-Serif" font-size="10.00">TH2D.h</text>
</a>
</g>
</g>
<!-- Node29&#45;&gt;Node34 -->
<g id="edge33" class="edge">
<title>Node29&#45;&gt;Node34</title>
<path fill="none" stroke="midnightblue" d="M1942.05,-56.32C1953.46,-48.11 1970.83,-35.6 1984.43,-25.81"/>
<polygon fill="midnightblue" stroke="midnightblue" points="1986.66,-28.52 1992.73,-19.83 1982.57,-22.84 1986.66,-28.52"/>
</g>
<!-- Node35&#45;&gt;Node17 -->
<g id="edge37" class="edge">
<title>Node35&#45;&gt;Node17</title>
<path fill="none" stroke="midnightblue" d="M1912.09,-112.44C1893.75,-103.68 1864.99,-89.94 1843.91,-79.86"/>
<polygon fill="midnightblue" stroke="midnightblue" points="1845.35,-76.67 1834.82,-75.52 1842.33,-82.99 1845.35,-76.67"/>
</g>
<!-- Node35&#45;&gt;Node29 -->
<g id="edge35" class="edge">
<title>Node35&#45;&gt;Node29</title>
<path fill="none" stroke="midnightblue" d="M1930,-112.08C1930,-105.01 1930,-94.86 1930,-85.99"/>
<polygon fill="midnightblue" stroke="midnightblue" points="1933.5,-85.75 1930,-75.75 1926.5,-85.75 1933.5,-85.75"/>
</g>
<!-- Node35&#45;&gt;Node36 -->
<g id="edge36" class="edge">
<title>Node35&#45;&gt;Node36</title>
<path fill="none" stroke="midnightblue" d="M1951.71,-112.44C1974.35,-103.52 2010.07,-89.44 2035.75,-79.32"/>
<polygon fill="midnightblue" stroke="midnightblue" points="2037.37,-82.44 2045.39,-75.52 2034.81,-75.93 2037.37,-82.44"/>
</g>
</g>
</svg>
