<?xml version="1.0" encoding="UTF-8" standalone="no"?>
<!DOCTYPE svg PUBLIC "-//W3C//DTD SVG 1.1//EN"
 "http://www.w3.org/Graphics/SVG/1.1/DTD/svg11.dtd">
<!-- Generated by graphviz version 2.43.0 (0)
 -->
<!-- Title: OMSimDetectorConstruction.hh Pages: 1 -->
<svg width="358pt" height="140pt"
 viewBox="0.00 0.00 358.00 140.00" xmlns="http://www.w3.org/2000/svg" xmlns:xlink="http://www.w3.org/1999/xlink">
<g id="graph0" class="graph" transform="scale(1 1) rotate(0) translate(4 136)">
<title>OMSimDetectorConstruction.hh</title>
<polygon fill="white" stroke="transparent" points="-4,4 -4,-136 354,-136 354,4 -4,4"/>
<!-- Node1 -->
<g id="node1" class="node">
<title>Node1</title>
<g id="a_node1"><a xlink:title=" ">
<polygon fill="#bfbfbf" stroke="black" points="68.5,-112.5 68.5,-131.5 238.5,-131.5 238.5,-112.5 68.5,-112.5"/>
<text text-anchor="middle" x="153.5" y="-119.5" font-family="Helvetica,sans-Serif" font-size="10.00">OMSimDetectorConstruction.hh</text>
</a>
</g>
</g>
<!-- Node2 -->
<g id="node2" class="node">
<title>Node2</title>
<g id="a_node2"><a xlink:href="_o_m_sim_8h.html" target="_top" xlink:title=" ">
<polygon fill="white" stroke="black" points="64,-56.5 64,-75.5 125,-75.5 125,-56.5 64,-56.5"/>
<text text-anchor="middle" x="94.5" y="-63.5" font-family="Helvetica,sans-Serif" font-size="10.00">OMSim.h</text>
</a>
</g>
</g>
<!-- Node1&#45;&gt;Node2 -->
<g id="edge1" class="edge">
<title>Node1&#45;&gt;Node2</title>
<path fill="none" stroke="midnightblue" d="M136.61,-105.54C126.09,-95.91 112.93,-83.87 104.15,-75.83"/>
<polygon fill="midnightblue" stroke="midnightblue" points="134.28,-108.15 144.02,-112.32 139.01,-102.99 134.28,-108.15"/>
</g>
<!-- Node4 -->
<g id="node4" class="node">
<title>Node4</title>
<g id="a_node4"><a xlink:href="_o_m_sim__effective__area_8cc.html" target="_top" xlink:title="Main for the calculation of effective areas.">
<polygon fill="white" stroke="black" points="83.5,-0.5 83.5,-19.5 223.5,-19.5 223.5,-0.5 83.5,-0.5"/>
<text text-anchor="middle" x="153.5" y="-7.5" font-family="Helvetica,sans-Serif" font-size="10.00">OMSim_effective_area.cc</text>
</a>
</g>
</g>
<!-- Node1&#45;&gt;Node4 -->
<g id="edge5" class="edge">
<title>Node1&#45;&gt;Node4</title>
<path fill="none" stroke="midnightblue" d="M153.5,-102.35C153.5,-78.25 153.5,-37.31 153.5,-19.59"/>
<polygon fill="midnightblue" stroke="midnightblue" points="150,-102.37 153.5,-112.37 157,-102.37 150,-102.37"/>
</g>
<!-- Node5 -->
<g id="node5" class="node">
<title>Node5</title>
<g id="a_node5"><a xlink:href="_o_m_sim_detector_construction_8cc.html" target="_top" xlink:title="User defined detector.">
<polygon fill="white" stroke="black" points="181,-56.5 181,-75.5 350,-75.5 350,-56.5 181,-56.5"/>
<text text-anchor="middle" x="265.5" y="-63.5" font-family="Helvetica,sans-Serif" font-size="10.00">OMSimDetectorConstruction.cc</text>
</a>
</g>
</g>
<!-- Node1&#45;&gt;Node5 -->
<g id="edge4" class="edge">
<title>Node1&#45;&gt;Node5</title>
<path fill="none" stroke="midnightblue" d="M180.75,-107.86C201.52,-97.85 229.52,-84.35 247.55,-75.65"/>
<polygon fill="midnightblue" stroke="midnightblue" points="178.98,-104.83 171.49,-112.32 182.02,-111.13 178.98,-104.83"/>
</g>
<!-- Node3 -->
<g id="node3" class="node">
<title>Node3</title>
<g id="a_node3"><a xlink:href="_o_m_sim_8cc.html" target="_top" xlink:title=" ">
<polygon fill="white" stroke="black" points="0,-0.5 0,-19.5 65,-19.5 65,-0.5 0,-0.5"/>
<text text-anchor="middle" x="32.5" y="-7.5" font-family="Helvetica,sans-Serif" font-size="10.00">OMSim.cc</text>
</a>
</g>
</g>
<!-- Node2&#45;&gt;Node3 -->
<g id="edge2" class="edge">
<title>Node2&#45;&gt;Node3</title>
<path fill="none" stroke="midnightblue" d="M76.75,-49.54C65.69,-39.91 51.87,-27.87 42.64,-19.83"/>
<polygon fill="midnightblue" stroke="midnightblue" points="74.7,-52.4 84.54,-56.32 79.3,-47.12 74.7,-52.4"/>
</g>
<!-- Node2&#45;&gt;Node4 -->
<g id="edge3" class="edge">
<title>Node2&#45;&gt;Node4</title>
<path fill="none" stroke="midnightblue" d="M111.39,-49.54C121.91,-39.91 135.07,-27.87 143.85,-19.83"/>
<polygon fill="midnightblue" stroke="midnightblue" points="108.99,-46.99 103.98,-56.32 113.72,-52.15 108.99,-46.99"/>
</g>
</g>
</svg>
