<?xml version="1.0" encoding="UTF-8" standalone="no"?>
<!DOCTYPE svg PUBLIC "-//W3C//DTD SVG 1.1//EN"
 "http://www.w3.org/Graphics/SVG/1.1/DTD/svg11.dtd">
<!-- Generated by graphviz version 2.43.0 (0)
 -->
<!-- Title: OMSimUIinterface.hh Pages: 1 -->
<svg width="470pt" height="84pt"
 viewBox="0.00 0.00 470.00 84.00" xmlns="http://www.w3.org/2000/svg" xmlns:xlink="http://www.w3.org/1999/xlink">
<g id="graph0" class="graph" transform="scale(1 1) rotate(0) translate(4 80)">
<title>OMSimUIinterface.hh</title>
<polygon fill="white" stroke="transparent" points="-4,4 -4,-80 466,-80 466,4 -4,4"/>
<!-- Node1 -->
<g id="node1" class="node">
<title>Node1</title>
<g id="a_node1"><a xlink:title="The OMSimUIinterface class provides a singleton interface to Geant4&#39;s UI manager.">
<polygon fill="#bfbfbf" stroke="black" points="167.5,-56.5 167.5,-75.5 288.5,-75.5 288.5,-56.5 167.5,-56.5"/>
<text text-anchor="middle" x="228" y="-63.5" font-family="Helvetica,sans-Serif" font-size="10.00">OMSimUIinterface.hh</text>
</a>
</g>
</g>
<!-- Node2 -->
<g id="node2" class="node">
<title>Node2</title>
<g id="a_node2"><a xlink:href="_o_m_sim_m_d_o_m_flasher_8cc.html" target="_top" xlink:title=" ">
<polygon fill="white" stroke="black" points="0,-0.5 0,-19.5 134,-19.5 134,-0.5 0,-0.5"/>
<text text-anchor="middle" x="67" y="-7.5" font-family="Helvetica,sans-Serif" font-size="10.00">OMSimMDOMFlasher.cc</text>
</a>
</g>
</g>
<!-- Node1&#45;&gt;Node2 -->
<g id="edge1" class="edge">
<title>Node1&#45;&gt;Node2</title>
<path fill="none" stroke="midnightblue" d="M192.74,-53.17C162.42,-43 119.43,-28.59 92.39,-19.52"/>
<polygon fill="midnightblue" stroke="midnightblue" points="191.9,-56.58 202.49,-56.44 194.12,-49.95 191.9,-56.58"/>
</g>
<!-- Node3 -->
<g id="node3" class="node">
<title>Node3</title>
<g id="a_node3"><a xlink:href="_o_m_sim_simple_g_p_s_beams_8cc.html" target="_top" xlink:title="Defines the AngularScan class for simple GPS beam configurations.">
<polygon fill="white" stroke="black" points="152,-0.5 152,-19.5 304,-19.5 304,-0.5 152,-0.5"/>
<text text-anchor="middle" x="228" y="-7.5" font-family="Helvetica,sans-Serif" font-size="10.00">OMSimSimpleGPSBeams.cc</text>
</a>
</g>
</g>
<!-- Node1&#45;&gt;Node3 -->
<g id="edge2" class="edge">
<title>Node1&#45;&gt;Node3</title>
<path fill="none" stroke="midnightblue" d="M228,-45.8C228,-36.91 228,-26.78 228,-19.75"/>
<polygon fill="midnightblue" stroke="midnightblue" points="224.5,-46.08 228,-56.08 231.5,-46.08 224.5,-46.08"/>
</g>
<!-- Node4 -->
<g id="node4" class="node">
<title>Node4</title>
<g id="a_node4"><a xlink:href="_o_m_sim__effective__area_8cc.html" target="_top" xlink:title="Main for the calculation of effective areas.">
<polygon fill="white" stroke="black" points="322,-0.5 322,-19.5 462,-19.5 462,-0.5 322,-0.5"/>
<text text-anchor="middle" x="392" y="-7.5" font-family="Helvetica,sans-Serif" font-size="10.00">OMSim_effective_area.cc</text>
</a>
</g>
</g>
<!-- Node1&#45;&gt;Node4 -->
<g id="edge3" class="edge">
<title>Node1&#45;&gt;Node4</title>
<path fill="none" stroke="midnightblue" d="M263.52,-53.3C294.42,-43.13 338.47,-28.62 366.14,-19.52"/>
<polygon fill="midnightblue" stroke="midnightblue" points="262.39,-49.99 253.99,-56.44 264.58,-56.64 262.39,-49.99"/>
</g>
</g>
</svg>
