<?xml version="1.0" encoding="UTF-8" standalone="no"?>
<!DOCTYPE svg PUBLIC "-//W3C//DTD SVG 1.1//EN"
 "http://www.w3.org/Graphics/SVG/1.1/DTD/svg11.dtd">
<!-- Generated by graphviz version 2.43.0 (0)
 -->
<!-- Title: OMSimLOM16.cc Pages: 1 -->
<svg width="3173pt" height="375pt"
 viewBox="0.00 0.00 3172.50 375.00" xmlns="http://www.w3.org/2000/svg" xmlns:xlink="http://www.w3.org/1999/xlink">
<g id="graph0" class="graph" transform="scale(1 1) rotate(0) translate(4 371)">
<title>OMSimLOM16.cc</title>
<polygon fill="white" stroke="transparent" points="-4,4 -4,-371 3168.5,-371 3168.5,4 -4,4"/>
<!-- Node1 -->
<g id="node1" class="node">
<title>Node1</title>
<g id="a_node1"><a xlink:title=" ">
<polygon fill="#bfbfbf" stroke="black" points="2594,-347.5 2594,-366.5 2693,-366.5 2693,-347.5 2594,-347.5"/>
<text text-anchor="middle" x="2643.5" y="-354.5" font-family="Helvetica,sans-Serif" font-size="10.00">OMSimLOM16.cc</text>
</a>
</g>
</g>
<!-- Node2 -->
<g id="node2" class="node">
<title>Node2</title>
<g id="a_node2"><a xlink:href="_o_m_sim_l_o_m16_8hh.html" target="_top" xlink:title="Construction of LOM16.">
<polygon fill="white" stroke="black" points="400,-291.5 400,-310.5 501,-310.5 501,-291.5 400,-291.5"/>
<text text-anchor="middle" x="450.5" y="-298.5" font-family="Helvetica,sans-Serif" font-size="10.00">OMSimLOM16.hh</text>
</a>
</g>
</g>
<!-- Node1&#45;&gt;Node2 -->
<g id="edge1" class="edge">
<title>Node1&#45;&gt;Node2</title>
<path fill="none" stroke="midnightblue" d="M2593.84,-354.78C2303.86,-347.64 831.4,-311.38 511.77,-303.51"/>
<polygon fill="midnightblue" stroke="midnightblue" points="511.42,-300 501.33,-303.25 511.24,-307 511.42,-300"/>
</g>
<!-- Node16 -->
<g id="node16" class="node">
<title>Node16</title>
<g id="a_node16"><a xlink:href="_o_m_sim_logger_8hh.html" target="_top" xlink:title=" ">
<polygon fill="white" stroke="black" points="2459,-235.5 2459,-254.5 2558,-254.5 2558,-235.5 2459,-235.5"/>
<text text-anchor="middle" x="2508.5" y="-242.5" font-family="Helvetica,sans-Serif" font-size="10.00">OMSimLogger.hh</text>
</a>
</g>
</g>
<!-- Node1&#45;&gt;Node16 -->
<g id="edge17" class="edge">
<title>Node1&#45;&gt;Node16</title>
<path fill="none" stroke="midnightblue" d="M2593.78,-353.26C2534.12,-348.8 2439.36,-337.64 2417.5,-311 2398.58,-287.94 2435.13,-269.15 2467.39,-257.81"/>
<polygon fill="midnightblue" stroke="midnightblue" points="2468.83,-261.02 2477.2,-254.53 2466.61,-254.38 2468.83,-261.02"/>
</g>
<!-- Node19 -->
<g id="node19" class="node">
<title>Node19</title>
<g id="a_node19"><a xlink:href="_c_a_d_mesh_8hh.html" target="_top" xlink:title=" ">
<polygon fill="white" stroke="black" points="1423,-291.5 1423,-310.5 1502,-310.5 1502,-291.5 1423,-291.5"/>
<text text-anchor="middle" x="1462.5" y="-298.5" font-family="Helvetica,sans-Serif" font-size="10.00">CADMesh.hh</text>
</a>
</g>
</g>
<!-- Node1&#45;&gt;Node19 -->
<g id="edge20" class="edge">
<title>Node1&#45;&gt;Node19</title>
<path fill="none" stroke="midnightblue" d="M2593.88,-353.73C2401.4,-344.93 1705.23,-313.1 1512.35,-304.28"/>
<polygon fill="midnightblue" stroke="midnightblue" points="1512.37,-300.78 1502.22,-303.82 1512.05,-307.77 1512.37,-300.78"/>
</g>
<!-- Node40 -->
<g id="node40" class="node">
<title>Node40</title>
<g id="a_node40"><a xlink:href="_o_m_sim_command_args_table_8hh.html" target="_top" xlink:title="Definition of the OMSimCommandArgsTable singleton class, which controls user args.">
<polygon fill="white" stroke="black" points="2426.5,-291.5 2426.5,-310.5 2590.5,-310.5 2590.5,-291.5 2426.5,-291.5"/>
<text text-anchor="middle" x="2508.5" y="-298.5" font-family="Helvetica,sans-Serif" font-size="10.00">OMSimCommandArgsTable.hh</text>
</a>
</g>
</g>
<!-- Node1&#45;&gt;Node40 -->
<g id="edge41" class="edge">
<title>Node1&#45;&gt;Node40</title>
<path fill="none" stroke="midnightblue" d="M2622.11,-347.44C2599.79,-338.52 2564.6,-324.44 2539.29,-314.32"/>
<polygon fill="midnightblue" stroke="midnightblue" points="2540.38,-310.98 2529.79,-310.52 2537.78,-317.48 2540.38,-310.98"/>
</g>
<!-- Node43 -->
<g id="node43" class="node">
<title>Node43</title>
<g id="a_node43"><a xlink:title=" ">
<polygon fill="white" stroke="#bfbfbf" points="2609,-291.5 2609,-310.5 2678,-310.5 2678,-291.5 2609,-291.5"/>
<text text-anchor="middle" x="2643.5" y="-298.5" font-family="Helvetica,sans-Serif" font-size="10.00">G4Cons.hh</text>
</a>
</g>
</g>
<!-- Node1&#45;&gt;Node43 -->
<g id="edge46" class="edge">
<title>Node1&#45;&gt;Node43</title>
<path fill="none" stroke="midnightblue" d="M2643.5,-347.08C2643.5,-340.01 2643.5,-329.86 2643.5,-320.99"/>
<polygon fill="midnightblue" stroke="midnightblue" points="2647,-320.75 2643.5,-310.75 2640,-320.75 2647,-320.75"/>
</g>
<!-- Node44 -->
<g id="node44" class="node">
<title>Node44</title>
<g id="a_node44"><a xlink:title=" ">
<polygon fill="white" stroke="#bfbfbf" points="2696.5,-291.5 2696.5,-310.5 2782.5,-310.5 2782.5,-291.5 2696.5,-291.5"/>
<text text-anchor="middle" x="2739.5" y="-298.5" font-family="Helvetica,sans-Serif" font-size="10.00">G4Ellipsoid.hh</text>
</a>
</g>
</g>
<!-- Node1&#45;&gt;Node44 -->
<g id="edge47" class="edge">
<title>Node1&#45;&gt;Node44</title>
<path fill="none" stroke="midnightblue" d="M2658.92,-347.32C2674.04,-338.82 2697.32,-325.73 2714.97,-315.8"/>
<polygon fill="midnightblue" stroke="midnightblue" points="2717.11,-318.61 2724.11,-310.65 2713.68,-312.51 2717.11,-318.61"/>
</g>
<!-- Node45 -->
<g id="node45" class="node">
<title>Node45</title>
<g id="a_node45"><a xlink:title=" ">
<polygon fill="white" stroke="#bfbfbf" points="2801,-291.5 2801,-310.5 2928,-310.5 2928,-291.5 2801,-291.5"/>
<text text-anchor="middle" x="2864.5" y="-298.5" font-family="Helvetica,sans-Serif" font-size="10.00">G4IntersectionSolid.hh</text>
</a>
</g>
</g>
<!-- Node1&#45;&gt;Node45 -->
<g id="edge48" class="edge">
<title>Node1&#45;&gt;Node45</title>
<path fill="none" stroke="midnightblue" d="M2678.52,-347.44C2716.75,-338.1 2778.07,-323.12 2819.76,-312.93"/>
<polygon fill="midnightblue" stroke="midnightblue" points="2820.76,-316.29 2829.65,-310.52 2819.1,-309.49 2820.76,-316.29"/>
</g>
<!-- Node46 -->
<g id="node46" class="node">
<title>Node46</title>
<g id="a_node46"><a xlink:title=" ">
<polygon fill="white" stroke="#bfbfbf" points="2946,-291.5 2946,-310.5 3035,-310.5 3035,-291.5 2946,-291.5"/>
<text text-anchor="middle" x="2990.5" y="-298.5" font-family="Helvetica,sans-Serif" font-size="10.00">G4Polycone.hh</text>
</a>
</g>
</g>
<!-- Node1&#45;&gt;Node46 -->
<g id="edge49" class="edge">
<title>Node1&#45;&gt;Node46</title>
<path fill="none" stroke="midnightblue" d="M2693.22,-348.64C2749.65,-340.24 2844.75,-325.9 2936.02,-311.22"/>
<polygon fill="midnightblue" stroke="midnightblue" points="2936.66,-314.66 2945.98,-309.61 2935.55,-307.75 2936.66,-314.66"/>
</g>
<!-- Node47 -->
<g id="node47" class="node">
<title>Node47</title>
<g id="a_node47"><a xlink:title=" ">
<polygon fill="white" stroke="#bfbfbf" points="3052.5,-291.5 3052.5,-310.5 3164.5,-310.5 3164.5,-291.5 3052.5,-291.5"/>
<text text-anchor="middle" x="3108.5" y="-298.5" font-family="Helvetica,sans-Serif" font-size="10.00">G4EllipticalCone.hh</text>
</a>
</g>
</g>
<!-- Node1&#45;&gt;Node47 -->
<g id="edge50" class="edge">
<title>Node1&#45;&gt;Node47</title>
<path fill="none" stroke="midnightblue" d="M2693.25,-350.87C2767.18,-343.15 2910.66,-327.77 3042.07,-311.28"/>
<polygon fill="midnightblue" stroke="midnightblue" points="3042.84,-314.71 3052.32,-309.99 3041.96,-307.77 3042.84,-314.71"/>
</g>
<!-- Node3 -->
<g id="node3" class="node">
<title>Node3</title>
<g id="a_node3"><a xlink:href="_o_m_sim_p_m_t_construction_8hh.html" target="_top" xlink:title="Construction of the PMTs.">
<polygon fill="white" stroke="black" points="279,-179.5 279,-198.5 428,-198.5 428,-179.5 279,-179.5"/>
<text text-anchor="middle" x="353.5" y="-186.5" font-family="Helvetica,sans-Serif" font-size="10.00">OMSimPMTConstruction.hh</text>
</a>
</g>
</g>
<!-- Node2&#45;&gt;Node3 -->
<g id="edge2" class="edge">
<title>Node2&#45;&gt;Node3</title>
<path fill="none" stroke="midnightblue" d="M425.67,-291.41C408.4,-284.22 386.12,-272.33 372.5,-255 362.07,-241.72 357.36,-222.89 355.24,-208.91"/>
<polygon fill="midnightblue" stroke="midnightblue" points="358.71,-208.44 354.03,-198.94 351.76,-209.28 358.71,-208.44"/>
</g>
<!-- Node15 -->
<g id="node15" class="node">
<title>Node15</title>
<g id="a_node15"><a xlink:href="_o_m_sim_optical_module_8hh.html" target="_top" xlink:title=" ">
<polygon fill="white" stroke="black" points="382,-235.5 382,-254.5 519,-254.5 519,-235.5 382,-235.5"/>
<text text-anchor="middle" x="450.5" y="-242.5" font-family="Helvetica,sans-Serif" font-size="10.00">OMSimOpticalModule.hh</text>
</a>
</g>
</g>
<!-- Node2&#45;&gt;Node15 -->
<g id="edge14" class="edge">
<title>Node2&#45;&gt;Node15</title>
<path fill="none" stroke="midnightblue" d="M450.5,-291.08C450.5,-284.01 450.5,-273.86 450.5,-264.99"/>
<polygon fill="midnightblue" stroke="midnightblue" points="454,-264.75 450.5,-254.75 447,-264.75 454,-264.75"/>
</g>
<!-- Node4 -->
<g id="node4" class="node">
<title>Node4</title>
<g id="a_node4"><a xlink:href="abc_detector_component_8hh.html" target="_top" xlink:title="Provides helper base class abcDetectorComponent for constructing and managing detector components in ...">
<polygon fill="white" stroke="black" points="402,-123.5 402,-142.5 549,-142.5 549,-123.5 402,-123.5"/>
<text text-anchor="middle" x="475.5" y="-130.5" font-family="Helvetica,sans-Serif" font-size="10.00">abcDetectorComponent.hh</text>
</a>
</g>
</g>
<!-- Node3&#45;&gt;Node4 -->
<g id="edge3" class="edge">
<title>Node3&#45;&gt;Node4</title>
<path fill="none" stroke="midnightblue" d="M372.83,-179.44C392.82,-170.6 424.24,-156.69 447.06,-146.59"/>
<polygon fill="midnightblue" stroke="midnightblue" points="448.53,-149.76 456.26,-142.52 445.7,-143.36 448.53,-149.76"/>
</g>
<!-- Node13 -->
<g id="node13" class="node">
<title>Node13</title>
<g id="a_node13"><a xlink:title=" ">
<polygon fill="white" stroke="#bfbfbf" points="285.5,-123.5 285.5,-142.5 383.5,-142.5 383.5,-123.5 285.5,-123.5"/>
<text text-anchor="middle" x="334.5" y="-130.5" font-family="Helvetica,sans-Serif" font-size="10.00">G4UnionSolid.hh</text>
</a>
</g>
</g>
<!-- Node3&#45;&gt;Node13 -->
<g id="edge12" class="edge">
<title>Node3&#45;&gt;Node13</title>
<path fill="none" stroke="midnightblue" d="M350.36,-179.08C347.82,-171.85 344.14,-161.41 340.97,-152.4"/>
<polygon fill="midnightblue" stroke="midnightblue" points="344.2,-151.02 337.58,-142.75 337.6,-153.35 344.2,-151.02"/>
</g>
<!-- Node14 -->
<g id="node14" class="node">
<title>Node14</title>
<g id="a_node14"><a xlink:title=" ">
<polygon fill="white" stroke="#bfbfbf" points="200,-123.5 200,-142.5 267,-142.5 267,-123.5 200,-123.5"/>
<text text-anchor="middle" x="233.5" y="-130.5" font-family="Helvetica,sans-Serif" font-size="10.00">G4Tubs.hh</text>
</a>
</g>
</g>
<!-- Node3&#45;&gt;Node14 -->
<g id="edge13" class="edge">
<title>Node3&#45;&gt;Node14</title>
<path fill="none" stroke="midnightblue" d="M334.49,-179.44C314.91,-170.64 284.19,-156.81 261.77,-146.72"/>
<polygon fill="midnightblue" stroke="midnightblue" points="262.98,-143.43 252.43,-142.52 260.11,-149.81 262.98,-143.43"/>
</g>
<!-- Node5 -->
<g id="node5" class="node">
<title>Node5</title>
<g id="a_node5"><a xlink:href="_o_m_sim_input_data_8hh.html" target="_top" xlink:title="Definition of ParameterTable and InputDataManager.">
<polygon fill="white" stroke="black" points="163,-67.5 163,-86.5 278,-86.5 278,-67.5 163,-67.5"/>
<text text-anchor="middle" x="220.5" y="-74.5" font-family="Helvetica,sans-Serif" font-size="10.00">OMSimInputData.hh</text>
</a>
</g>
</g>
<!-- Node4&#45;&gt;Node5 -->
<g id="edge4" class="edge">
<title>Node4&#45;&gt;Node5</title>
<path fill="none" stroke="midnightblue" d="M435.09,-123.44C390.52,-114 318.73,-98.8 270.61,-88.61"/>
<polygon fill="midnightblue" stroke="midnightblue" points="271.22,-85.16 260.72,-86.52 269.77,-92.01 271.22,-85.16"/>
</g>
<!-- Node9 -->
<g id="node9" class="node">
<title>Node9</title>
<g id="a_node9"><a xlink:title=" ">
<polygon fill="white" stroke="#bfbfbf" points="296,-67.5 296,-86.5 403,-86.5 403,-67.5 296,-67.5"/>
<text text-anchor="middle" x="349.5" y="-74.5" font-family="Helvetica,sans-Serif" font-size="10.00">G4Transform3D.hh</text>
</a>
</g>
</g>
<!-- Node4&#45;&gt;Node9 -->
<g id="edge8" class="edge">
<title>Node4&#45;&gt;Node9</title>
<path fill="none" stroke="midnightblue" d="M455.53,-123.44C434.89,-114.6 402.44,-100.69 378.87,-90.59"/>
<polygon fill="midnightblue" stroke="midnightblue" points="379.94,-87.24 369.37,-86.52 377.18,-93.67 379.94,-87.24"/>
</g>
<!-- Node10 -->
<g id="node10" class="node">
<title>Node10</title>
<g id="a_node10"><a xlink:title=" ">
<polygon fill="white" stroke="#bfbfbf" points="421.5,-67.5 421.5,-86.5 529.5,-86.5 529.5,-67.5 421.5,-67.5"/>
<text text-anchor="middle" x="475.5" y="-74.5" font-family="Helvetica,sans-Serif" font-size="10.00">G4VisAttributes.hh</text>
</a>
</g>
</g>
<!-- Node4&#45;&gt;Node10 -->
<g id="edge9" class="edge">
<title>Node4&#45;&gt;Node10</title>
<path fill="none" stroke="midnightblue" d="M475.5,-123.08C475.5,-116.01 475.5,-105.86 475.5,-96.99"/>
<polygon fill="midnightblue" stroke="midnightblue" points="479,-96.75 475.5,-86.75 472,-96.75 479,-96.75"/>
</g>
<!-- Node11 -->
<g id="node11" class="node">
<title>Node11</title>
<g id="a_node11"><a xlink:title=" ">
<polygon fill="white" stroke="#bfbfbf" points="548,-67.5 548,-86.5 673,-86.5 673,-67.5 548,-67.5"/>
<text text-anchor="middle" x="610.5" y="-74.5" font-family="Helvetica,sans-Serif" font-size="10.00">G4SubtractionSolid.hh</text>
</a>
</g>
</g>
<!-- Node4&#45;&gt;Node11 -->
<g id="edge10" class="edge">
<title>Node4&#45;&gt;Node11</title>
<path fill="none" stroke="midnightblue" d="M496.89,-123.44C519.21,-114.52 554.4,-100.44 579.71,-90.32"/>
<polygon fill="midnightblue" stroke="midnightblue" points="581.22,-93.48 589.21,-86.52 578.62,-86.98 581.22,-93.48"/>
</g>
<!-- Node12 -->
<g id="node12" class="node">
<title>Node12</title>
<g id="a_node12"><a xlink:title=" ">
<polygon fill="white" stroke="#bfbfbf" points="691.5,-67.5 691.5,-86.5 801.5,-86.5 801.5,-67.5 691.5,-67.5"/>
<text text-anchor="middle" x="746.5" y="-74.5" font-family="Helvetica,sans-Serif" font-size="10.00">G4PVPlacement.hh</text>
</a>
</g>
</g>
<!-- Node4&#45;&gt;Node12 -->
<g id="edge11" class="edge">
<title>Node4&#45;&gt;Node12</title>
<path fill="none" stroke="midnightblue" d="M518.44,-123.44C566.01,-113.96 642.74,-98.67 693.89,-88.48"/>
<polygon fill="midnightblue" stroke="midnightblue" points="694.64,-91.9 703.76,-86.52 693.27,-85.04 694.64,-91.9"/>
</g>
<!-- Node6 -->
<g id="node6" class="node">
<title>Node6</title>
<g id="a_node6"><a xlink:title=" ">
<polygon fill="white" stroke="#bfbfbf" points="0,-6 0,-25 143,-25 143,-6 0,-6"/>
<text text-anchor="middle" x="71.5" y="-13" font-family="Helvetica,sans-Serif" font-size="10.00">G4OpBoundaryProcess.hh</text>
</a>
</g>
</g>
<!-- Node5&#45;&gt;Node6 -->
<g id="edge5" class="edge">
<title>Node5&#45;&gt;Node6</title>
<path fill="none" stroke="midnightblue" d="M199.15,-67.48C173.81,-57.36 131.36,-40.4 102.43,-28.85"/>
<polygon fill="midnightblue" stroke="midnightblue" points="103.39,-25.47 92.81,-25.01 100.8,-31.97 103.39,-25.47"/>
</g>
<!-- Node7 -->
<g id="node7" class="node">
<title>Node7</title>
<g id="a_node7"><a xlink:title=" ">
<polygon fill="white" stroke="#bfbfbf" points="161,-6 161,-25 280,-25 280,-6 161,-6"/>
<text text-anchor="middle" x="220.5" y="-13" font-family="Helvetica,sans-Serif" font-size="10.00">G4SystemOfUnits.hh</text>
</a>
</g>
</g>
<!-- Node5&#45;&gt;Node7 -->
<g id="edge6" class="edge">
<title>Node5&#45;&gt;Node7</title>
<path fill="none" stroke="midnightblue" d="M220.5,-67.48C220.5,-59.08 220.5,-45.98 220.5,-35.16"/>
<polygon fill="midnightblue" stroke="midnightblue" points="224,-35.01 220.5,-25.01 217,-35.01 224,-35.01"/>
</g>
<!-- Node8 -->
<g id="node8" class="node">
<title>Node8</title>
<g id="a_node8"><a xlink:title=" ">
<polygon fill="white" stroke="#bfbfbf" points="298,-0.5 298,-30.5 411,-30.5 411,-0.5 298,-0.5"/>
<text text-anchor="start" x="306" y="-18.5" font-family="Helvetica,sans-Serif" font-size="10.00">boost/property_tree</text>
<text text-anchor="middle" x="354.5" y="-7.5" font-family="Helvetica,sans-Serif" font-size="10.00">/json_parser.hpp</text>
</a>
</g>
</g>
<!-- Node5&#45;&gt;Node8 -->
<g id="edge7" class="edge">
<title>Node5&#45;&gt;Node8</title>
<path fill="none" stroke="midnightblue" d="M239.7,-67.48C258.87,-58.96 288.92,-45.62 313.47,-34.72"/>
<polygon fill="midnightblue" stroke="midnightblue" points="315.2,-37.78 322.92,-30.52 312.36,-31.38 315.2,-37.78"/>
</g>
<!-- Node15&#45;&gt;Node3 -->
<g id="edge16" class="edge">
<title>Node15&#45;&gt;Node3</title>
<path fill="none" stroke="midnightblue" d="M434.92,-235.32C419.5,-226.74 395.69,-213.49 377.79,-203.52"/>
<polygon fill="midnightblue" stroke="midnightblue" points="379.49,-200.46 369.05,-198.65 376.08,-206.58 379.49,-200.46"/>
</g>
<!-- Node15&#45;&gt;Node4 -->
<g id="edge15" class="edge">
<title>Node15&#45;&gt;Node4</title>
<path fill="none" stroke="midnightblue" d="M452.46,-235.37C456.5,-217.62 465.8,-176.67 471.27,-152.6"/>
<polygon fill="midnightblue" stroke="midnightblue" points="474.74,-153.12 473.55,-142.59 467.92,-151.57 474.74,-153.12"/>
</g>
<!-- Node17 -->
<g id="node17" class="node">
<title>Node17</title>
<g id="a_node17"><a xlink:title=" ">
<polygon fill="white" stroke="#bfbfbf" points="2449.5,-179.5 2449.5,-198.5 2499.5,-198.5 2499.5,-179.5 2449.5,-179.5"/>
<text text-anchor="middle" x="2474.5" y="-186.5" font-family="Helvetica,sans-Serif" font-size="10.00">stdio.h</text>
</a>
</g>
</g>
<!-- Node16&#45;&gt;Node17 -->
<g id="edge18" class="edge">
<title>Node16&#45;&gt;Node17</title>
<path fill="none" stroke="midnightblue" d="M2502.89,-235.08C2498.13,-227.53 2491.18,-216.49 2485.35,-207.23"/>
<polygon fill="midnightblue" stroke="midnightblue" points="2488.3,-205.35 2480.01,-198.75 2482.38,-209.08 2488.3,-205.35"/>
</g>
<!-- Node18 -->
<g id="node18" class="node">
<title>Node18</title>
<g id="a_node18"><a xlink:title=" ">
<polygon fill="white" stroke="#bfbfbf" points="2517.5,-179.5 2517.5,-198.5 2565.5,-198.5 2565.5,-179.5 2517.5,-179.5"/>
<text text-anchor="middle" x="2541.5" y="-186.5" font-family="Helvetica,sans-Serif" font-size="10.00">time.h</text>
</a>
</g>
</g>
<!-- Node16&#45;&gt;Node18 -->
<g id="edge19" class="edge">
<title>Node16&#45;&gt;Node18</title>
<path fill="none" stroke="midnightblue" d="M2513.95,-235.08C2518.51,-227.61 2525.17,-216.72 2530.79,-207.52"/>
<polygon fill="midnightblue" stroke="midnightblue" points="2533.92,-209.11 2536.15,-198.75 2527.95,-205.46 2533.92,-209.11"/>
</g>
<!-- Node20 -->
<g id="node20" class="node">
<title>Node20</title>
<g id="a_node20"><a xlink:title=" ">
<polygon fill="white" stroke="#bfbfbf" points="801.5,-235.5 801.5,-254.5 875.5,-254.5 875.5,-235.5 801.5,-235.5"/>
<text text-anchor="middle" x="838.5" y="-242.5" font-family="Helvetica,sans-Serif" font-size="10.00">G4String.hh</text>
</a>
</g>
</g>
<!-- Node19&#45;&gt;Node20 -->
<g id="edge21" class="edge">
<title>Node19&#45;&gt;Node20</title>
<path fill="none" stroke="midnightblue" d="M1422.74,-298.49C1330.27,-294.63 1093.5,-282.81 885.78,-255.02"/>
<polygon fill="midnightblue" stroke="midnightblue" points="885.97,-251.51 875.6,-253.64 885.04,-258.45 885.97,-251.51"/>
</g>
<!-- Node21 -->
<g id="node21" class="node">
<title>Node21</title>
<g id="a_node21"><a xlink:title=" ">
<polygon fill="white" stroke="#bfbfbf" points="893.5,-235.5 893.5,-254.5 957.5,-254.5 957.5,-235.5 893.5,-235.5"/>
<text text-anchor="middle" x="925.5" y="-242.5" font-family="Helvetica,sans-Serif" font-size="10.00">algorithm</text>
</a>
</g>
</g>
<!-- Node19&#45;&gt;Node21 -->
<g id="edge22" class="edge">
<title>Node19&#45;&gt;Node21</title>
<path fill="none" stroke="midnightblue" d="M1422.75,-298.09C1339.9,-293.75 1142.55,-281.51 967.56,-254.98"/>
<polygon fill="midnightblue" stroke="midnightblue" points="968.07,-251.52 957.66,-253.46 967.01,-258.44 968.07,-251.52"/>
</g>
<!-- Node22 -->
<g id="node22" class="node">
<title>Node22</title>
<g id="a_node22"><a xlink:title=" ">
<polygon fill="white" stroke="#bfbfbf" points="975.5,-235.5 975.5,-254.5 1013.5,-254.5 1013.5,-235.5 975.5,-235.5"/>
<text text-anchor="middle" x="994.5" y="-242.5" font-family="Helvetica,sans-Serif" font-size="10.00">map</text>
</a>
</g>
</g>
<!-- Node19&#45;&gt;Node22 -->
<g id="edge23" class="edge">
<title>Node19&#45;&gt;Node22</title>
<path fill="none" stroke="midnightblue" d="M1422.75,-298.57C1345.23,-295.2 1168.75,-284.68 1023.5,-255 1023.4,-254.98 1023.3,-254.96 1023.2,-254.94"/>
<polygon fill="midnightblue" stroke="midnightblue" points="1024.26,-251.6 1013.7,-252.54 1022.55,-258.38 1024.26,-251.6"/>
</g>
<!-- Node23 -->
<g id="node23" class="node">
<title>Node23</title>
<g id="a_node23"><a xlink:title=" ">
<polygon fill="white" stroke="#bfbfbf" points="1032,-235.5 1032,-254.5 1135,-254.5 1135,-235.5 1032,-235.5"/>
<text text-anchor="middle" x="1083.5" y="-242.5" font-family="Helvetica,sans-Serif" font-size="10.00">G4ThreeVector.hh</text>
</a>
</g>
</g>
<!-- Node19&#45;&gt;Node23 -->
<g id="edge24" class="edge">
<title>Node19&#45;&gt;Node23</title>
<path fill="none" stroke="midnightblue" d="M1422.83,-294.46C1364.46,-286.3 1251.75,-270.47 1145.05,-255.07"/>
<polygon fill="midnightblue" stroke="midnightblue" points="1145.48,-251.6 1135.08,-253.63 1144.48,-258.53 1145.48,-251.6"/>
</g>
<!-- Node24 -->
<g id="node24" class="node">
<title>Node24</title>
<g id="a_node24"><a xlink:title=" ">
<polygon fill="white" stroke="#bfbfbf" points="1153,-235.5 1153,-254.5 1272,-254.5 1272,-235.5 1153,-235.5"/>
<text text-anchor="middle" x="1212.5" y="-242.5" font-family="Helvetica,sans-Serif" font-size="10.00">G4TriangularFacet.hh</text>
</a>
</g>
</g>
<!-- Node19&#45;&gt;Node24 -->
<g id="edge25" class="edge">
<title>Node19&#45;&gt;Node24</title>
<path fill="none" stroke="midnightblue" d="M1422.89,-291.44C1379.27,-282.02 1309.1,-266.87 1261.92,-256.68"/>
<polygon fill="midnightblue" stroke="midnightblue" points="1262.44,-253.21 1251.93,-254.52 1260.96,-260.05 1262.44,-253.21"/>
</g>
<!-- Node25 -->
<g id="node25" class="node">
<title>Node25</title>
<g id="a_node25"><a xlink:title=" ">
<polygon fill="white" stroke="#bfbfbf" points="1290.5,-235.5 1290.5,-254.5 1348.5,-254.5 1348.5,-235.5 1290.5,-235.5"/>
<text text-anchor="middle" x="1319.5" y="-242.5" font-family="Helvetica,sans-Serif" font-size="10.00">memory</text>
</a>
</g>
</g>
<!-- Node19&#45;&gt;Node25 -->
<g id="edge26" class="edge">
<title>Node19&#45;&gt;Node25</title>
<path fill="none" stroke="midnightblue" d="M1439.84,-291.44C1416.1,-282.48 1378.59,-268.31 1351.76,-258.18"/>
<polygon fill="midnightblue" stroke="midnightblue" points="1352.64,-254.77 1342.05,-254.52 1350.17,-261.32 1352.64,-254.77"/>
</g>
<!-- Node26 -->
<g id="node26" class="node">
<title>Node26</title>
<g id="a_node26"><a xlink:title=" ">
<polygon fill="white" stroke="#bfbfbf" points="1367,-235.5 1367,-254.5 1414,-254.5 1414,-235.5 1367,-235.5"/>
<text text-anchor="middle" x="1390.5" y="-242.5" font-family="Helvetica,sans-Serif" font-size="10.00">vector</text>
</a>
</g>
</g>
<!-- Node19&#45;&gt;Node26 -->
<g id="edge27" class="edge">
<title>Node19&#45;&gt;Node26</title>
<path fill="none" stroke="midnightblue" d="M1450.93,-291.32C1440.08,-283.18 1423.62,-270.84 1410.62,-261.09"/>
<polygon fill="midnightblue" stroke="midnightblue" points="1412.38,-258.03 1402.28,-254.83 1408.18,-263.63 1412.38,-258.03"/>
</g>
<!-- Node27 -->
<g id="node27" class="node">
<title>Node27</title>
<g id="a_node27"><a xlink:title=" ">
<polygon fill="white" stroke="#bfbfbf" points="1432.5,-235.5 1432.5,-254.5 1492.5,-254.5 1492.5,-235.5 1432.5,-235.5"/>
<text text-anchor="middle" x="1462.5" y="-242.5" font-family="Helvetica,sans-Serif" font-size="10.00">iostream</text>
</a>
</g>
</g>
<!-- Node19&#45;&gt;Node27 -->
<g id="edge28" class="edge">
<title>Node19&#45;&gt;Node27</title>
<path fill="none" stroke="midnightblue" d="M1462.5,-291.08C1462.5,-284.01 1462.5,-273.86 1462.5,-264.99"/>
<polygon fill="midnightblue" stroke="midnightblue" points="1466,-264.75 1462.5,-254.75 1459,-264.75 1466,-264.75"/>
</g>
<!-- Node28 -->
<g id="node28" class="node">
<title>Node28</title>
<g id="a_node28"><a xlink:title=" ">
<polygon fill="white" stroke="#bfbfbf" points="1510.5,-235.5 1510.5,-254.5 1554.5,-254.5 1554.5,-235.5 1510.5,-235.5"/>
<text text-anchor="middle" x="1532.5" y="-242.5" font-family="Helvetica,sans-Serif" font-size="10.00">string</text>
</a>
</g>
</g>
<!-- Node19&#45;&gt;Node28 -->
<g id="edge29" class="edge">
<title>Node19&#45;&gt;Node28</title>
<path fill="none" stroke="midnightblue" d="M1473.75,-291.32C1484.3,-283.18 1500.3,-270.84 1512.94,-261.09"/>
<polygon fill="midnightblue" stroke="midnightblue" points="1515.27,-263.71 1521.05,-254.83 1510.99,-258.17 1515.27,-263.71"/>
</g>
<!-- Node29 -->
<g id="node29" class="node">
<title>Node29</title>
<g id="a_node29"><a xlink:title=" ">
<polygon fill="white" stroke="#bfbfbf" points="1572.5,-235.5 1572.5,-254.5 1702.5,-254.5 1702.5,-235.5 1572.5,-235.5"/>
<text text-anchor="middle" x="1637.5" y="-242.5" font-family="Helvetica,sans-Serif" font-size="10.00">G4AssemblyVolume.hh</text>
</a>
</g>
</g>
<!-- Node19&#45;&gt;Node29 -->
<g id="edge30" class="edge">
<title>Node19&#45;&gt;Node29</title>
<path fill="none" stroke="midnightblue" d="M1490.23,-291.44C1519.93,-282.28 1567.22,-267.69 1600.17,-257.52"/>
<polygon fill="midnightblue" stroke="midnightblue" points="1601.38,-260.81 1609.9,-254.52 1599.31,-254.12 1601.38,-260.81"/>
</g>
<!-- Node30 -->
<g id="node30" class="node">
<title>Node30</title>
<g id="a_node30"><a xlink:title=" ">
<polygon fill="white" stroke="#bfbfbf" points="1720.5,-235.5 1720.5,-254.5 1836.5,-254.5 1836.5,-235.5 1720.5,-235.5"/>
<text text-anchor="middle" x="1778.5" y="-242.5" font-family="Helvetica,sans-Serif" font-size="10.00">G4LogicalVolume.hh</text>
</a>
</g>
</g>
<!-- Node19&#45;&gt;Node30 -->
<g id="edge31" class="edge">
<title>Node19&#45;&gt;Node30</title>
<path fill="none" stroke="midnightblue" d="M1502.2,-293.22C1556.72,-283.9 1655.21,-267.07 1718.69,-256.22"/>
<polygon fill="midnightblue" stroke="midnightblue" points="1719.29,-259.67 1728.56,-254.53 1718.11,-252.77 1719.29,-259.67"/>
</g>
<!-- Node31 -->
<g id="node31" class="node">
<title>Node31</title>
<g id="a_node31"><a xlink:title=" ">
<polygon fill="white" stroke="#bfbfbf" points="1854.5,-235.5 1854.5,-254.5 1940.5,-254.5 1940.5,-235.5 1854.5,-235.5"/>
<text text-anchor="middle" x="1897.5" y="-242.5" font-family="Helvetica,sans-Serif" font-size="10.00">G4Material.hh</text>
</a>
</g>
</g>
<!-- Node19&#45;&gt;Node31 -->
<g id="edge32" class="edge">
<title>Node19&#45;&gt;Node31</title>
<path fill="none" stroke="midnightblue" d="M1502.01,-296.07C1569.82,-289.18 1712.93,-273.95 1844.17,-255.12"/>
<polygon fill="midnightblue" stroke="midnightblue" points="1845,-258.54 1854.4,-253.65 1844,-251.61 1845,-258.54"/>
</g>
<!-- Node32 -->
<g id="node32" class="node">
<title>Node32</title>
<g id="a_node32"><a xlink:title=" ">
<polygon fill="white" stroke="#bfbfbf" points="1958.5,-235.5 1958.5,-254.5 2082.5,-254.5 2082.5,-235.5 1958.5,-235.5"/>
<text text-anchor="middle" x="2020.5" y="-242.5" font-family="Helvetica,sans-Serif" font-size="10.00">G4TessellatedSolid.hh</text>
</a>
</g>
</g>
<!-- Node19&#45;&gt;Node32 -->
<g id="edge33" class="edge">
<title>Node19&#45;&gt;Node32</title>
<path fill="none" stroke="midnightblue" d="M1502.32,-296.78C1583.89,-290.09 1776.14,-273.81 1948.18,-255.11"/>
<polygon fill="midnightblue" stroke="midnightblue" points="1948.62,-258.59 1958.18,-254.02 1947.86,-251.63 1948.62,-258.59"/>
</g>
<!-- Node33 -->
<g id="node33" class="node">
<title>Node33</title>
<g id="a_node33"><a xlink:title=" ">
<polygon fill="white" stroke="#bfbfbf" points="2101,-235.5 2101,-254.5 2160,-254.5 2160,-235.5 2101,-235.5"/>
<text text-anchor="middle" x="2130.5" y="-242.5" font-family="Helvetica,sans-Serif" font-size="10.00">G4Tet.hh</text>
</a>
</g>
</g>
<!-- Node19&#45;&gt;Node33 -->
<g id="edge34" class="edge">
<title>Node19&#45;&gt;Node33</title>
<path fill="none" stroke="midnightblue" d="M1502.11,-299.3C1600.24,-297.11 1862.53,-288.48 2090.63,-254.87"/>
<polygon fill="midnightblue" stroke="midnightblue" points="2091.41,-258.3 2100.78,-253.36 2090.37,-251.37 2091.41,-258.3"/>
</g>
<!-- Node34 -->
<g id="node34" class="node">
<title>Node34</title>
<g id="a_node34"><a xlink:title=" ">
<polygon fill="white" stroke="#bfbfbf" points="2178.5,-235.5 2178.5,-254.5 2282.5,-254.5 2282.5,-235.5 2178.5,-235.5"/>
<text text-anchor="middle" x="2230.5" y="-242.5" font-family="Helvetica,sans-Serif" font-size="10.00">G4UIcommand.hh</text>
</a>
</g>
</g>
<!-- Node19&#45;&gt;Node34 -->
<g id="edge35" class="edge">
<title>Node19&#45;&gt;Node34</title>
<path fill="none" stroke="midnightblue" d="M1502.07,-298.63C1608.22,-294.72 1908.26,-282.05 2168.28,-255.04"/>
<polygon fill="midnightblue" stroke="midnightblue" points="2168.71,-258.52 2178.29,-253.99 2167.98,-251.55 2168.71,-258.52"/>
</g>
<!-- Node35 -->
<g id="node35" class="node">
<title>Node35</title>
<g id="a_node35"><a xlink:title=" ">
<polygon fill="white" stroke="#bfbfbf" points="2301,-235.5 2301,-254.5 2368,-254.5 2368,-235.5 2301,-235.5"/>
<text text-anchor="middle" x="2334.5" y="-242.5" font-family="Helvetica,sans-Serif" font-size="10.00">globals.hh</text>
</a>
</g>
</g>
<!-- Node19&#45;&gt;Node35 -->
<g id="edge36" class="edge">
<title>Node19&#45;&gt;Node35</title>
<path fill="none" stroke="midnightblue" d="M1502.39,-299.98C1621.03,-299.47 1982.08,-294.61 2290.75,-254.87"/>
<polygon fill="midnightblue" stroke="midnightblue" points="2291.32,-258.33 2300.78,-253.56 2290.41,-251.38 2291.32,-258.33"/>
</g>
<!-- Node36 -->
<g id="node36" class="node">
<title>Node36</title>
<g id="a_node36"><a xlink:title=" ">
<polygon fill="white" stroke="#bfbfbf" points="2386,-235.5 2386,-254.5 2441,-254.5 2441,-235.5 2386,-235.5"/>
<text text-anchor="middle" x="2413.5" y="-242.5" font-family="Helvetica,sans-Serif" font-size="10.00">fstream</text>
</a>
</g>
</g>
<!-- Node19&#45;&gt;Node36 -->
<g id="edge37" class="edge">
<title>Node19&#45;&gt;Node36</title>
<path fill="none" stroke="midnightblue" d="M1502.21,-299.08C1652.19,-295.46 2185,-281.12 2375.54,-254.98"/>
<polygon fill="midnightblue" stroke="midnightblue" points="2376.3,-258.4 2385.7,-253.52 2375.31,-251.47 2376.3,-258.4"/>
</g>
<!-- Node37 -->
<g id="node37" class="node">
<title>Node37</title>
<g id="a_node37"><a xlink:title=" ">
<polygon fill="white" stroke="#bfbfbf" points="537.5,-235.5 537.5,-254.5 593.5,-254.5 593.5,-235.5 537.5,-235.5"/>
<text text-anchor="middle" x="565.5" y="-242.5" font-family="Helvetica,sans-Serif" font-size="10.00">sstream</text>
</a>
</g>
</g>
<!-- Node19&#45;&gt;Node37 -->
<g id="edge38" class="edge">
<title>Node19&#45;&gt;Node37</title>
<path fill="none" stroke="midnightblue" d="M1422.81,-300.54C1301.34,-301.64 923.96,-300.95 603.61,-254.87"/>
<polygon fill="midnightblue" stroke="midnightblue" points="604.08,-251.4 593.68,-253.43 603.07,-258.33 604.08,-251.4"/>
</g>
<!-- Node38 -->
<g id="node38" class="node">
<title>Node38</title>
<g id="a_node38"><a xlink:title=" ">
<polygon fill="white" stroke="#bfbfbf" points="612,-235.5 612,-254.5 679,-254.5 679,-235.5 612,-235.5"/>
<text text-anchor="middle" x="645.5" y="-242.5" font-family="Helvetica,sans-Serif" font-size="10.00">streambuf</text>
</a>
</g>
</g>
<!-- Node19&#45;&gt;Node38 -->
<g id="edge39" class="edge">
<title>Node19&#45;&gt;Node38</title>
<path fill="none" stroke="midnightblue" d="M1422.83,-299.76C1309.75,-298.65 975.98,-292.32 689.39,-254.9"/>
<polygon fill="midnightblue" stroke="midnightblue" points="689.59,-251.39 679.22,-253.55 688.67,-258.33 689.59,-251.39"/>
</g>
<!-- Node39 -->
<g id="node39" class="node">
<title>Node39</title>
<g id="a_node39"><a xlink:title=" ">
<polygon fill="white" stroke="#bfbfbf" points="697.5,-235.5 697.5,-254.5 783.5,-254.5 783.5,-235.5 697.5,-235.5"/>
<text text-anchor="middle" x="740.5" y="-242.5" font-family="Helvetica,sans-Serif" font-size="10.00">Randomize.hh</text>
</a>
</g>
</g>
<!-- Node19&#45;&gt;Node39 -->
<g id="edge40" class="edge">
<title>Node19&#45;&gt;Node39</title>
<path fill="none" stroke="midnightblue" d="M1422.72,-298.78C1320.21,-295.32 1038.51,-283.85 793.74,-255.02"/>
<polygon fill="midnightblue" stroke="midnightblue" points="793.92,-251.52 783.58,-253.81 793.1,-258.47 793.92,-251.52"/>
</g>
<!-- Node40&#45;&gt;Node16 -->
<g id="edge42" class="edge">
<title>Node40&#45;&gt;Node16</title>
<path fill="none" stroke="midnightblue" d="M2508.5,-291.08C2508.5,-284.01 2508.5,-273.86 2508.5,-264.99"/>
<polygon fill="midnightblue" stroke="midnightblue" points="2512,-264.75 2508.5,-254.75 2505,-264.75 2512,-264.75"/>
</g>
<!-- Node40&#45;&gt;Node36 -->
<g id="edge43" class="edge">
<title>Node40&#45;&gt;Node36</title>
<path fill="none" stroke="midnightblue" d="M2493.24,-291.32C2478.28,-282.82 2455.25,-269.73 2437.77,-259.8"/>
<polygon fill="midnightblue" stroke="midnightblue" points="2439.15,-256.55 2428.73,-254.65 2435.69,-262.64 2439.15,-256.55"/>
</g>
<!-- Node41 -->
<g id="node41" class="node">
<title>Node41</title>
<g id="a_node41"><a xlink:title=" ">
<polygon fill="white" stroke="#bfbfbf" points="2662.5,-235.5 2662.5,-254.5 2746.5,-254.5 2746.5,-235.5 2662.5,-235.5"/>
<text text-anchor="middle" x="2704.5" y="-242.5" font-family="Helvetica,sans-Serif" font-size="10.00">boost/any.hpp</text>
</a>
</g>
</g>
<!-- Node40&#45;&gt;Node41 -->
<g id="edge44" class="edge">
<title>Node40&#45;&gt;Node41</title>
<path fill="none" stroke="midnightblue" d="M2539.56,-291.44C2573.1,-282.2 2626.7,-267.44 2663.64,-257.26"/>
<polygon fill="midnightblue" stroke="midnightblue" points="2664.88,-260.55 2673.59,-254.52 2663.02,-253.8 2664.88,-260.55"/>
</g>
<!-- Node42 -->
<g id="node42" class="node">
<title>Node42</title>
<g id="a_node42"><a xlink:title=" ">
<polygon fill="white" stroke="#bfbfbf" points="2576.5,-235.5 2576.5,-254.5 2644.5,-254.5 2644.5,-235.5 2576.5,-235.5"/>
<text text-anchor="middle" x="2610.5" y="-242.5" font-family="Helvetica,sans-Serif" font-size="10.00">sys/time.h</text>
</a>
</g>
</g>
<!-- Node40&#45;&gt;Node42 -->
<g id="edge45" class="edge">
<title>Node40&#45;&gt;Node42</title>
<path fill="none" stroke="midnightblue" d="M2524.89,-291.32C2541.17,-282.7 2566.37,-269.36 2585.22,-259.39"/>
<polygon fill="midnightblue" stroke="midnightblue" points="2586.95,-262.43 2594.15,-254.65 2583.68,-256.24 2586.95,-262.43"/>
</g>
</g>
</svg>
