<?xml version="1.0" encoding="UTF-8" standalone="no"?>
<!DOCTYPE svg PUBLIC "-//W3C//DTD SVG 1.1//EN"
 "http://www.w3.org/Graphics/SVG/1.1/DTD/svg11.dtd">
<!-- Generated by graphviz version 2.43.0 (0)
 -->
<!-- Title: OMSimSNTools.cc Pages: 1 -->
<svg width="1319pt" height="196pt"
 viewBox="0.00 0.00 1318.50 196.00" xmlns="http://www.w3.org/2000/svg" xmlns:xlink="http://www.w3.org/1999/xlink">
<g id="graph0" class="graph" transform="scale(1 1) rotate(0) translate(4 192)">
<title>OMSimSNTools.cc</title>
<polygon fill="white" stroke="transparent" points="-4,4 -4,-192 1314.5,-192 1314.5,4 -4,4"/>
<!-- Node1 -->
<g id="node1" class="node">
<title>Node1</title>
<g id="a_node1"><a xlink:title=" ">
<polygon fill="#bfbfbf" stroke="black" points="572.5,-168.5 572.5,-187.5 676.5,-187.5 676.5,-168.5 572.5,-168.5"/>
<text text-anchor="middle" x="624.5" y="-175.5" font-family="Helvetica,sans-Serif" font-size="10.00">OMSimSNTools.cc</text>
</a>
</g>
</g>
<!-- Node2 -->
<g id="node2" class="node">
<title>Node2</title>
<g id="a_node2"><a xlink:href="_o_m_sim_s_n_tools_8hh.html" target="_top" xlink:title="Provides the definition for the OMSimSNTools class, centralizing utility methods for Supernova (SN) n...">
<polygon fill="white" stroke="black" points="56,-112.5 56,-131.5 161,-131.5 161,-112.5 56,-112.5"/>
<text text-anchor="middle" x="108.5" y="-119.5" font-family="Helvetica,sans-Serif" font-size="10.00">OMSimSNTools.hh</text>
</a>
</g>
</g>
<!-- Node1&#45;&gt;Node2 -->
<g id="edge1" class="edge">
<title>Node1&#45;&gt;Node2</title>
<path fill="none" stroke="midnightblue" d="M572.33,-172.6C489.62,-165.46 323.11,-150.4 171.23,-132.04"/>
<polygon fill="midnightblue" stroke="midnightblue" points="171.59,-128.56 161.24,-130.82 170.75,-135.5 171.59,-128.56"/>
</g>
<!-- Node6 -->
<g id="node6" class="node">
<title>Node6</title>
<g id="a_node6"><a xlink:title=" ">
<polygon fill="white" stroke="#bfbfbf" points="179.5,-112.5 179.5,-131.5 313.5,-131.5 313.5,-112.5 179.5,-112.5"/>
<text text-anchor="middle" x="246.5" y="-119.5" font-family="Helvetica,sans-Serif" font-size="10.00">G4PhysicalConstants.hh</text>
</a>
</g>
</g>
<!-- Node1&#45;&gt;Node6 -->
<g id="edge5" class="edge">
<title>Node1&#45;&gt;Node6</title>
<path fill="none" stroke="midnightblue" d="M572.34,-169.55C505.8,-160.04 390.48,-143.57 316.39,-132.98"/>
<polygon fill="midnightblue" stroke="midnightblue" points="316.61,-129.48 306.22,-131.53 315.62,-136.41 316.61,-129.48"/>
</g>
<!-- Node7 -->
<g id="node7" class="node">
<title>Node7</title>
<g id="a_node7"><a xlink:title=" ">
<polygon fill="white" stroke="#bfbfbf" points="332,-112.5 332,-131.5 451,-131.5 451,-112.5 332,-112.5"/>
<text text-anchor="middle" x="391.5" y="-119.5" font-family="Helvetica,sans-Serif" font-size="10.00">G4SystemOfUnits.hh</text>
</a>
</g>
</g>
<!-- Node1&#45;&gt;Node7 -->
<g id="edge6" class="edge">
<title>Node1&#45;&gt;Node7</title>
<path fill="none" stroke="midnightblue" d="M587.58,-168.44C547.1,-159.06 482.08,-143.99 438.12,-133.8"/>
<polygon fill="midnightblue" stroke="midnightblue" points="438.78,-130.36 428.25,-131.52 437.2,-137.18 438.78,-130.36"/>
</g>
<!-- Node8 -->
<g id="node8" class="node">
<title>Node8</title>
<g id="a_node8"><a xlink:title=" ">
<polygon fill="white" stroke="#bfbfbf" points="469.5,-112.5 469.5,-131.5 555.5,-131.5 555.5,-112.5 469.5,-112.5"/>
<text text-anchor="middle" x="512.5" y="-119.5" font-family="Helvetica,sans-Serif" font-size="10.00">Randomize.hh</text>
</a>
</g>
</g>
<!-- Node1&#45;&gt;Node8 -->
<g id="edge7" class="edge">
<title>Node1&#45;&gt;Node8</title>
<path fill="none" stroke="midnightblue" d="M606.51,-168.32C588.46,-159.62 560.45,-146.12 539.7,-136.11"/>
<polygon fill="midnightblue" stroke="midnightblue" points="540.98,-132.84 530.45,-131.65 537.94,-139.15 540.98,-132.84"/>
</g>
<!-- Node9 -->
<g id="node9" class="node">
<title>Node9</title>
<g id="a_node9"><a xlink:title=" ">
<polygon fill="white" stroke="#bfbfbf" points="574,-112.5 574,-131.5 675,-131.5 675,-112.5 574,-112.5"/>
<text text-anchor="middle" x="624.5" y="-119.5" font-family="Helvetica,sans-Serif" font-size="10.00">G4VTouchable.hh</text>
</a>
</g>
</g>
<!-- Node1&#45;&gt;Node9 -->
<g id="edge8" class="edge">
<title>Node1&#45;&gt;Node9</title>
<path fill="none" stroke="midnightblue" d="M624.5,-168.08C624.5,-161.01 624.5,-150.86 624.5,-141.99"/>
<polygon fill="midnightblue" stroke="midnightblue" points="628,-141.75 624.5,-131.75 621,-141.75 628,-141.75"/>
</g>
<!-- Node10 -->
<g id="node10" class="node">
<title>Node10</title>
<g id="a_node10"><a xlink:title=" ">
<polygon fill="white" stroke="#bfbfbf" points="693,-112.5 693,-131.5 746,-131.5 746,-112.5 693,-112.5"/>
<text text-anchor="middle" x="719.5" y="-119.5" font-family="Helvetica,sans-Serif" font-size="10.00">stdlib.h</text>
</a>
</g>
</g>
<!-- Node1&#45;&gt;Node10 -->
<g id="edge9" class="edge">
<title>Node1&#45;&gt;Node10</title>
<path fill="none" stroke="midnightblue" d="M639.76,-168.32C654.72,-159.82 677.75,-146.73 695.23,-136.8"/>
<polygon fill="midnightblue" stroke="midnightblue" points="697.31,-139.64 704.27,-131.65 693.85,-133.55 697.31,-139.64"/>
</g>
<!-- Node11 -->
<g id="node11" class="node">
<title>Node11</title>
<g id="a_node11"><a xlink:title=" ">
<polygon fill="white" stroke="#bfbfbf" points="764.5,-112.5 764.5,-131.5 856.5,-131.5 856.5,-112.5 764.5,-112.5"/>
<text text-anchor="middle" x="810.5" y="-119.5" font-family="Helvetica,sans-Serif" font-size="10.00">G4Navigator.hh</text>
</a>
</g>
</g>
<!-- Node1&#45;&gt;Node11 -->
<g id="edge10" class="edge">
<title>Node1&#45;&gt;Node11</title>
<path fill="none" stroke="midnightblue" d="M653.97,-168.44C685.67,-159.24 736.23,-144.56 771.27,-134.39"/>
<polygon fill="midnightblue" stroke="midnightblue" points="772.54,-137.67 781.17,-131.52 770.59,-130.94 772.54,-137.67"/>
</g>
<!-- Node12 -->
<g id="node12" class="node">
<title>Node12</title>
<g id="a_node12"><a xlink:title=" ">
<polygon fill="white" stroke="#bfbfbf" points="874.5,-112.5 874.5,-131.5 1038.5,-131.5 1038.5,-112.5 874.5,-112.5"/>
<text text-anchor="middle" x="956.5" y="-119.5" font-family="Helvetica,sans-Serif" font-size="10.00">G4TouchableHistoryHandle.hh</text>
</a>
</g>
</g>
<!-- Node1&#45;&gt;Node12 -->
<g id="edge11" class="edge">
<title>Node1&#45;&gt;Node12</title>
<path fill="none" stroke="midnightblue" d="M676.74,-168.5C735.55,-158.94 831.07,-143.4 893.85,-133.19"/>
<polygon fill="midnightblue" stroke="midnightblue" points="894.71,-136.6 904.02,-131.54 893.58,-129.69 894.71,-136.6"/>
</g>
<!-- Node13 -->
<g id="node13" class="node">
<title>Node13</title>
<g id="a_node13"><a xlink:href="_o_m_sim_command_args_table_8hh.html" target="_top" xlink:title="Definition of the OMSimCommandArgsTable singleton class, which controls user args.">
<polygon fill="white" stroke="black" points="1056.5,-112.5 1056.5,-131.5 1220.5,-131.5 1220.5,-112.5 1056.5,-112.5"/>
<text text-anchor="middle" x="1138.5" y="-119.5" font-family="Helvetica,sans-Serif" font-size="10.00">OMSimCommandArgsTable.hh</text>
</a>
</g>
</g>
<!-- Node1&#45;&gt;Node13 -->
<g id="edge12" class="edge">
<title>Node1&#45;&gt;Node13</title>
<path fill="none" stroke="midnightblue" d="M676.61,-171.53C763.52,-162.39 939.13,-143.95 1047.01,-132.61"/>
<polygon fill="midnightblue" stroke="midnightblue" points="1047.66,-136.06 1057.24,-131.54 1046.93,-129.1 1047.66,-136.06"/>
</g>
<!-- Node3 -->
<g id="node3" class="node">
<title>Node3</title>
<g id="a_node3"><a xlink:title=" ">
<polygon fill="white" stroke="#bfbfbf" points="0,-56.5 0,-75.5 67,-75.5 67,-56.5 0,-56.5"/>
<text text-anchor="middle" x="33.5" y="-63.5" font-family="Helvetica,sans-Serif" font-size="10.00">globals.hh</text>
</a>
</g>
</g>
<!-- Node2&#45;&gt;Node3 -->
<g id="edge2" class="edge">
<title>Node2&#45;&gt;Node3</title>
<path fill="none" stroke="midnightblue" d="M96.45,-112.32C85.04,-104.11 67.67,-91.6 54.07,-81.81"/>
<polygon fill="midnightblue" stroke="midnightblue" points="55.93,-78.84 45.77,-75.83 51.84,-84.52 55.93,-78.84"/>
</g>
<!-- Node4 -->
<g id="node4" class="node">
<title>Node4</title>
<g id="a_node4"><a xlink:title=" ">
<polygon fill="white" stroke="#bfbfbf" points="85,-56.5 85,-75.5 132,-75.5 132,-56.5 85,-56.5"/>
<text text-anchor="middle" x="108.5" y="-63.5" font-family="Helvetica,sans-Serif" font-size="10.00">vector</text>
</a>
</g>
</g>
<!-- Node2&#45;&gt;Node4 -->
<g id="edge3" class="edge">
<title>Node2&#45;&gt;Node4</title>
<path fill="none" stroke="midnightblue" d="M108.5,-112.08C108.5,-105.01 108.5,-94.86 108.5,-85.99"/>
<polygon fill="midnightblue" stroke="midnightblue" points="112,-85.75 108.5,-75.75 105,-85.75 112,-85.75"/>
</g>
<!-- Node5 -->
<g id="node5" class="node">
<title>Node5</title>
<g id="a_node5"><a xlink:title=" ">
<polygon fill="white" stroke="#bfbfbf" points="150,-56.5 150,-75.5 253,-75.5 253,-56.5 150,-56.5"/>
<text text-anchor="middle" x="201.5" y="-63.5" font-family="Helvetica,sans-Serif" font-size="10.00">G4ThreeVector.hh</text>
</a>
</g>
</g>
<!-- Node2&#45;&gt;Node5 -->
<g id="edge4" class="edge">
<title>Node2&#45;&gt;Node5</title>
<path fill="none" stroke="midnightblue" d="M123.44,-112.32C138.09,-103.82 160.63,-90.73 177.74,-80.8"/>
<polygon fill="midnightblue" stroke="midnightblue" points="179.7,-83.7 186.6,-75.65 176.19,-77.65 179.7,-83.7"/>
</g>
<!-- Node14 -->
<g id="node14" class="node">
<title>Node14</title>
<g id="a_node14"><a xlink:href="_o_m_sim_logger_8hh.html" target="_top" xlink:title=" ">
<polygon fill="white" stroke="black" points="950,-56.5 950,-75.5 1049,-75.5 1049,-56.5 950,-56.5"/>
<text text-anchor="middle" x="999.5" y="-63.5" font-family="Helvetica,sans-Serif" font-size="10.00">OMSimLogger.hh</text>
</a>
</g>
</g>
<!-- Node13&#45;&gt;Node14 -->
<g id="edge13" class="edge">
<title>Node13&#45;&gt;Node14</title>
<path fill="none" stroke="midnightblue" d="M1116.48,-112.44C1093.4,-103.48 1056.94,-89.31 1030.86,-79.18"/>
<polygon fill="midnightblue" stroke="midnightblue" points="1032.01,-75.88 1021.42,-75.52 1029.48,-82.4 1032.01,-75.88"/>
</g>
<!-- Node17 -->
<g id="node17" class="node">
<title>Node17</title>
<g id="a_node17"><a xlink:title=" ">
<polygon fill="white" stroke="#bfbfbf" points="1067,-56.5 1067,-75.5 1122,-75.5 1122,-56.5 1067,-56.5"/>
<text text-anchor="middle" x="1094.5" y="-63.5" font-family="Helvetica,sans-Serif" font-size="10.00">fstream</text>
</a>
</g>
</g>
<!-- Node13&#45;&gt;Node17 -->
<g id="edge16" class="edge">
<title>Node13&#45;&gt;Node17</title>
<path fill="none" stroke="midnightblue" d="M1131.23,-112.08C1124.96,-104.38 1115.71,-93.03 1108.07,-83.65"/>
<polygon fill="midnightblue" stroke="midnightblue" points="1110.66,-81.29 1101.63,-75.75 1105.23,-85.71 1110.66,-81.29"/>
</g>
<!-- Node18 -->
<g id="node18" class="node">
<title>Node18</title>
<g id="a_node18"><a xlink:title=" ">
<polygon fill="white" stroke="#bfbfbf" points="1140.5,-56.5 1140.5,-75.5 1224.5,-75.5 1224.5,-56.5 1140.5,-56.5"/>
<text text-anchor="middle" x="1182.5" y="-63.5" font-family="Helvetica,sans-Serif" font-size="10.00">boost/any.hpp</text>
</a>
</g>
</g>
<!-- Node13&#45;&gt;Node18 -->
<g id="edge17" class="edge">
<title>Node13&#45;&gt;Node18</title>
<path fill="none" stroke="midnightblue" d="M1145.77,-112.08C1152.04,-104.38 1161.29,-93.03 1168.93,-83.65"/>
<polygon fill="midnightblue" stroke="midnightblue" points="1171.77,-85.71 1175.37,-75.75 1166.34,-81.29 1171.77,-85.71"/>
</g>
<!-- Node19 -->
<g id="node19" class="node">
<title>Node19</title>
<g id="a_node19"><a xlink:title=" ">
<polygon fill="white" stroke="#bfbfbf" points="1242.5,-56.5 1242.5,-75.5 1310.5,-75.5 1310.5,-56.5 1242.5,-56.5"/>
<text text-anchor="middle" x="1276.5" y="-63.5" font-family="Helvetica,sans-Serif" font-size="10.00">sys/time.h</text>
</a>
</g>
</g>
<!-- Node13&#45;&gt;Node19 -->
<g id="edge18" class="edge">
<title>Node13&#45;&gt;Node19</title>
<path fill="none" stroke="midnightblue" d="M1160.37,-112.44C1183.28,-103.48 1219.48,-89.31 1245.37,-79.18"/>
<polygon fill="midnightblue" stroke="midnightblue" points="1246.7,-82.42 1254.74,-75.52 1244.15,-75.9 1246.7,-82.42"/>
</g>
<!-- Node15 -->
<g id="node15" class="node">
<title>Node15</title>
<g id="a_node15"><a xlink:title=" ">
<polygon fill="white" stroke="#bfbfbf" points="940.5,-0.5 940.5,-19.5 990.5,-19.5 990.5,-0.5 940.5,-0.5"/>
<text text-anchor="middle" x="965.5" y="-7.5" font-family="Helvetica,sans-Serif" font-size="10.00">stdio.h</text>
</a>
</g>
</g>
<!-- Node14&#45;&gt;Node15 -->
<g id="edge14" class="edge">
<title>Node14&#45;&gt;Node15</title>
<path fill="none" stroke="midnightblue" d="M993.89,-56.08C989.13,-48.53 982.18,-37.49 976.35,-28.23"/>
<polygon fill="midnightblue" stroke="midnightblue" points="979.3,-26.35 971.01,-19.75 973.38,-30.08 979.3,-26.35"/>
</g>
<!-- Node16 -->
<g id="node16" class="node">
<title>Node16</title>
<g id="a_node16"><a xlink:title=" ">
<polygon fill="white" stroke="#bfbfbf" points="1008.5,-0.5 1008.5,-19.5 1056.5,-19.5 1056.5,-0.5 1008.5,-0.5"/>
<text text-anchor="middle" x="1032.5" y="-7.5" font-family="Helvetica,sans-Serif" font-size="10.00">time.h</text>
</a>
</g>
</g>
<!-- Node14&#45;&gt;Node16 -->
<g id="edge15" class="edge">
<title>Node14&#45;&gt;Node16</title>
<path fill="none" stroke="midnightblue" d="M1004.95,-56.08C1009.51,-48.61 1016.17,-37.72 1021.79,-28.52"/>
<polygon fill="midnightblue" stroke="midnightblue" points="1024.92,-30.11 1027.15,-19.75 1018.95,-26.46 1024.92,-30.11"/>
</g>
</g>
</svg>
