<?xml version="1.0" encoding="UTF-8" standalone="no"?>
<!DOCTYPE svg PUBLIC "-//W3C//DTD SVG 1.1//EN"
 "http://www.w3.org/Graphics/SVG/1.1/DTD/svg11.dtd">
<!-- Generated by graphviz version 2.43.0 (0)
 -->
<!-- Title: OMSimUIinterface.hh Pages: 1 -->
<svg width="716pt" height="140pt"
 viewBox="0.00 0.00 715.50 140.00" xmlns="http://www.w3.org/2000/svg" xmlns:xlink="http://www.w3.org/1999/xlink">
<g id="graph0" class="graph" transform="scale(1 1) rotate(0) translate(4 136)">
<title>OMSimUIinterface.hh</title>
<polygon fill="white" stroke="transparent" points="-4,4 -4,-136 711.5,-136 711.5,4 -4,4"/>
<!-- Node1 -->
<g id="node1" class="node">
<title>Node1</title>
<g id="a_node1"><a xlink:title="The OMSimUIinterface class provides a singleton interface to Geant4&#39;s UI manager.">
<polygon fill="#bfbfbf" stroke="black" points="180.5,-112.5 180.5,-131.5 301.5,-131.5 301.5,-112.5 180.5,-112.5"/>
<text text-anchor="middle" x="241" y="-119.5" font-family="Helvetica,sans-Serif" font-size="10.00">OMSimUIinterface.hh</text>
</a>
</g>
</g>
<!-- Node2 -->
<g id="node2" class="node">
<title>Node2</title>
<g id="a_node2"><a xlink:title=" ">
<polygon fill="white" stroke="#bfbfbf" points="0,-56.5 0,-75.5 56,-75.5 56,-56.5 0,-56.5"/>
<text text-anchor="middle" x="28" y="-63.5" font-family="Helvetica,sans-Serif" font-size="10.00">sstream</text>
</a>
</g>
</g>
<!-- Node1&#45;&gt;Node2 -->
<g id="edge1" class="edge">
<title>Node1&#45;&gt;Node2</title>
<path fill="none" stroke="midnightblue" d="M207.25,-112.44C168.83,-102.7 106.22,-86.83 66.09,-76.66"/>
<polygon fill="midnightblue" stroke="midnightblue" points="66.7,-73.2 56.15,-74.14 64.98,-79.99 66.7,-73.2"/>
</g>
<!-- Node3 -->
<g id="node3" class="node">
<title>Node3</title>
<g id="a_node3"><a xlink:title=" ">
<polygon fill="white" stroke="#bfbfbf" points="267,-0.5 267,-19.5 311,-19.5 311,-0.5 267,-0.5"/>
<text text-anchor="middle" x="289" y="-7.5" font-family="Helvetica,sans-Serif" font-size="10.00">string</text>
</a>
</g>
</g>
<!-- Node1&#45;&gt;Node3 -->
<g id="edge2" class="edge">
<title>Node1&#45;&gt;Node3</title>
<path fill="none" stroke="midnightblue" d="M259.39,-112.47C273.1,-105 290.81,-92.71 299,-76 306.13,-61.44 302.27,-43.03 297.42,-29.52"/>
<polygon fill="midnightblue" stroke="midnightblue" points="300.52,-27.85 293.51,-19.9 294.04,-30.49 300.52,-27.85"/>
</g>
<!-- Node4 -->
<g id="node4" class="node">
<title>Node4</title>
<g id="a_node4"><a xlink:title=" ">
<polygon fill="white" stroke="#bfbfbf" points="192,-56.5 192,-75.5 290,-75.5 290,-56.5 192,-56.5"/>
<text text-anchor="middle" x="241" y="-63.5" font-family="Helvetica,sans-Serif" font-size="10.00">G4UImanager.hh</text>
</a>
</g>
</g>
<!-- Node1&#45;&gt;Node4 -->
<g id="edge3" class="edge">
<title>Node1&#45;&gt;Node4</title>
<path fill="none" stroke="midnightblue" d="M241,-112.08C241,-105.01 241,-94.86 241,-85.99"/>
<polygon fill="midnightblue" stroke="midnightblue" points="244.5,-85.75 241,-75.75 237.5,-85.75 244.5,-85.75"/>
</g>
<!-- Node5 -->
<g id="node5" class="node">
<title>Node5</title>
<g id="a_node5"><a xlink:href="_o_m_sim_logger_8hh.html" target="_top" xlink:title=" ">
<polygon fill="white" stroke="black" points="74.5,-56.5 74.5,-75.5 173.5,-75.5 173.5,-56.5 74.5,-56.5"/>
<text text-anchor="middle" x="124" y="-63.5" font-family="Helvetica,sans-Serif" font-size="10.00">OMSimLogger.hh</text>
</a>
</g>
</g>
<!-- Node1&#45;&gt;Node5 -->
<g id="edge4" class="edge">
<title>Node1&#45;&gt;Node5</title>
<path fill="none" stroke="midnightblue" d="M222.46,-112.44C203.38,-103.64 173.43,-89.81 151.56,-79.72"/>
<polygon fill="midnightblue" stroke="midnightblue" points="153,-76.53 142.45,-75.52 150.07,-82.88 153,-76.53"/>
</g>
<!-- Node8 -->
<g id="node8" class="node">
<title>Node8</title>
<g id="a_node8"><a xlink:href="_o_m_sim_command_args_table_8hh.html" target="_top" xlink:title=" ">
<polygon fill="white" stroke="black" points="375,-56.5 375,-75.5 539,-75.5 539,-56.5 375,-56.5"/>
<text text-anchor="middle" x="457" y="-63.5" font-family="Helvetica,sans-Serif" font-size="10.00">OMSimCommandArgsTable.hh</text>
</a>
</g>
</g>
<!-- Node1&#45;&gt;Node8 -->
<g id="edge7" class="edge">
<title>Node1&#45;&gt;Node8</title>
<path fill="none" stroke="midnightblue" d="M275.23,-112.44C312.51,-103.12 372.27,-88.18 413.01,-78"/>
<polygon fill="midnightblue" stroke="midnightblue" points="414.08,-81.34 422.93,-75.52 412.38,-74.55 414.08,-81.34"/>
</g>
<!-- Node6 -->
<g id="node6" class="node">
<title>Node6</title>
<g id="a_node6"><a xlink:title=" ">
<polygon fill="white" stroke="#bfbfbf" points="65,-0.5 65,-19.5 115,-19.5 115,-0.5 65,-0.5"/>
<text text-anchor="middle" x="90" y="-7.5" font-family="Helvetica,sans-Serif" font-size="10.00">stdio.h</text>
</a>
</g>
</g>
<!-- Node5&#45;&gt;Node6 -->
<g id="edge5" class="edge">
<title>Node5&#45;&gt;Node6</title>
<path fill="none" stroke="midnightblue" d="M118.39,-56.08C113.63,-48.53 106.68,-37.49 100.85,-28.23"/>
<polygon fill="midnightblue" stroke="midnightblue" points="103.8,-26.35 95.51,-19.75 97.88,-30.08 103.8,-26.35"/>
</g>
<!-- Node7 -->
<g id="node7" class="node">
<title>Node7</title>
<g id="a_node7"><a xlink:title=" ">
<polygon fill="white" stroke="#bfbfbf" points="133,-0.5 133,-19.5 181,-19.5 181,-0.5 133,-0.5"/>
<text text-anchor="middle" x="157" y="-7.5" font-family="Helvetica,sans-Serif" font-size="10.00">time.h</text>
</a>
</g>
</g>
<!-- Node5&#45;&gt;Node7 -->
<g id="edge6" class="edge">
<title>Node5&#45;&gt;Node7</title>
<path fill="none" stroke="midnightblue" d="M129.45,-56.08C134.01,-48.61 140.67,-37.72 146.29,-28.52"/>
<polygon fill="midnightblue" stroke="midnightblue" points="149.42,-30.11 151.65,-19.75 143.45,-26.46 149.42,-30.11"/>
</g>
<!-- Node8&#45;&gt;Node3 -->
<g id="edge10" class="edge">
<title>Node8&#45;&gt;Node3</title>
<path fill="none" stroke="midnightblue" d="M430.38,-56.44C400.66,-46.89 352.58,-31.44 320.88,-21.25"/>
<polygon fill="midnightblue" stroke="midnightblue" points="321.79,-17.86 311.2,-18.14 319.65,-24.53 321.79,-17.86"/>
</g>
<!-- Node9 -->
<g id="node9" class="node">
<title>Node9</title>
<g id="a_node9"><a xlink:title=" ">
<polygon fill="white" stroke="#bfbfbf" points="517,-0.5 517,-19.5 555,-19.5 555,-0.5 517,-0.5"/>
<text text-anchor="middle" x="536" y="-7.5" font-family="Helvetica,sans-Serif" font-size="10.00">map</text>
</a>
</g>
</g>
<!-- Node8&#45;&gt;Node9 -->
<g id="edge8" class="edge">
<title>Node8&#45;&gt;Node9</title>
<path fill="none" stroke="midnightblue" d="M469.69,-56.32C481.9,-47.98 500.58,-35.21 515,-25.35"/>
<polygon fill="midnightblue" stroke="midnightblue" points="517.06,-28.19 523.34,-19.65 513.11,-22.41 517.06,-28.19"/>
</g>
<!-- Node10 -->
<g id="node10" class="node">
<title>Node10</title>
<g id="a_node10"><a xlink:title=" ">
<polygon fill="white" stroke="#bfbfbf" points="573.5,-0.5 573.5,-19.5 624.5,-19.5 624.5,-0.5 573.5,-0.5"/>
<text text-anchor="middle" x="599" y="-7.5" font-family="Helvetica,sans-Serif" font-size="10.00">variant</text>
</a>
</g>
</g>
<!-- Node8&#45;&gt;Node10 -->
<g id="edge9" class="edge">
<title>Node8&#45;&gt;Node10</title>
<path fill="none" stroke="midnightblue" d="M479.5,-56.44C503.08,-47.48 540.32,-33.31 566.96,-23.18"/>
<polygon fill="midnightblue" stroke="midnightblue" points="568.5,-26.34 576.6,-19.52 566.01,-19.8 568.5,-26.34"/>
</g>
<!-- Node11 -->
<g id="node11" class="node">
<title>Node11</title>
<g id="a_node11"><a xlink:title=" ">
<polygon fill="white" stroke="#bfbfbf" points="642.5,-0.5 642.5,-19.5 707.5,-19.5 707.5,-0.5 642.5,-0.5"/>
<text text-anchor="middle" x="675" y="-7.5" font-family="Helvetica,sans-Serif" font-size="10.00">stdexcept</text>
</a>
</g>
</g>
<!-- Node8&#45;&gt;Node11 -->
<g id="edge11" class="edge">
<title>Node8&#45;&gt;Node11</title>
<path fill="none" stroke="midnightblue" d="M491.54,-56.44C529.81,-46.96 591.52,-31.68 632.67,-21.49"/>
<polygon fill="midnightblue" stroke="midnightblue" points="633.53,-24.88 642.4,-19.08 631.85,-18.08 633.53,-24.88"/>
</g>
<!-- Node12 -->
<g id="node12" class="node">
<title>Node12</title>
<g id="a_node12"><a xlink:title=" ">
<polygon fill="white" stroke="#bfbfbf" points="329.5,-0.5 329.5,-19.5 396.5,-19.5 396.5,-0.5 329.5,-0.5"/>
<text text-anchor="middle" x="363" y="-7.5" font-family="Helvetica,sans-Serif" font-size="10.00">globals.hh</text>
</a>
</g>
</g>
<!-- Node8&#45;&gt;Node12 -->
<g id="edge12" class="edge">
<title>Node8&#45;&gt;Node12</title>
<path fill="none" stroke="midnightblue" d="M441.9,-56.32C427.1,-47.82 404.31,-34.73 387.02,-24.8"/>
<polygon fill="midnightblue" stroke="midnightblue" points="388.48,-21.6 378.07,-19.65 384.99,-27.67 388.48,-21.6"/>
</g>
<!-- Node13 -->
<g id="node13" class="node">
<title>Node13</title>
<g id="a_node13"><a xlink:title=" ">
<polygon fill="white" stroke="#bfbfbf" points="415,-0.5 415,-19.5 499,-19.5 499,-0.5 415,-0.5"/>
<text text-anchor="middle" x="457" y="-7.5" font-family="Helvetica,sans-Serif" font-size="10.00">boost/any.hpp</text>
</a>
</g>
</g>
<!-- Node8&#45;&gt;Node13 -->
<g id="edge13" class="edge">
<title>Node8&#45;&gt;Node13</title>
<path fill="none" stroke="midnightblue" d="M457,-56.08C457,-49.01 457,-38.86 457,-29.99"/>
<polygon fill="midnightblue" stroke="midnightblue" points="460.5,-29.75 457,-19.75 453.5,-29.75 460.5,-29.75"/>
</g>
</g>
</svg>
