<?xml version="1.0" encoding="UTF-8" standalone="no"?>
<!DOCTYPE svg PUBLIC "-//W3C//DTD SVG 1.1//EN"
 "http://www.w3.org/Graphics/SVG/1.1/DTD/svg11.dtd">
<!-- Generated by graphviz version 2.43.0 (0)
 -->
<!-- Title: OMSimLogger.hh Pages: 1 -->
<svg width="3687pt" height="252pt"
 viewBox="0.00 0.00 3687.00 252.00" xmlns="http://www.w3.org/2000/svg" xmlns:xlink="http://www.w3.org/1999/xlink">
<g id="graph0" class="graph" transform="scale(1 1) rotate(0) translate(4 248)">
<title>OMSimLogger.hh</title>
<polygon fill="white" stroke="transparent" points="-4,4 -4,-248 3683,-248 3683,4 -4,4"/>
<!-- Node1 -->
<g id="node1" class="node">
<title>Node1</title>
<g id="a_node1"><a xlink:title=" ">
<polygon fill="#bfbfbf" stroke="black" points="3103,-224.5 3103,-243.5 3202,-243.5 3202,-224.5 3103,-224.5"/>
<text text-anchor="middle" x="3152.5" y="-231.5" font-family="Helvetica,sans-Serif" font-size="10.00">OMSimLogger.hh</text>
</a>
</g>
</g>
<!-- Node2 -->
<g id="node2" class="node">
<title>Node2</title>
<g id="a_node2"><a xlink:href="_o_m_sim_command_args_table_8hh.html" target="_top" xlink:title="Definition of the OMSimCommandArgsTable singleton class, which controls user args.">
<polygon fill="white" stroke="black" points="1762.5,-168.5 1762.5,-187.5 1926.5,-187.5 1926.5,-168.5 1762.5,-168.5"/>
<text text-anchor="middle" x="1844.5" y="-175.5" font-family="Helvetica,sans-Serif" font-size="10.00">OMSimCommandArgsTable.hh</text>
</a>
</g>
</g>
<!-- Node1&#45;&gt;Node2 -->
<g id="edge1" class="edge">
<title>Node1&#45;&gt;Node2</title>
<path fill="none" stroke="midnightblue" d="M3092.54,-230.52C2881.04,-221.79 2169.49,-192.42 1926.58,-182.39"/>
<polygon fill="midnightblue" stroke="midnightblue" points="3092.69,-234.03 3102.82,-230.95 3092.97,-227.04 3092.69,-234.03"/>
</g>
<!-- Node4 -->
<g id="node4" class="node">
<title>Node4</title>
<g id="a_node4"><a xlink:href="_o_m_sim_data_file_types_8cc.html" target="_top" xlink:title=" ">
<polygon fill="white" stroke="black" points="2784.5,-56.5 2784.5,-75.5 2918.5,-75.5 2918.5,-56.5 2784.5,-56.5"/>
<text text-anchor="middle" x="2851.5" y="-63.5" font-family="Helvetica,sans-Serif" font-size="10.00">OMSimDataFileTypes.cc</text>
</a>
</g>
</g>
<!-- Node1&#45;&gt;Node4 -->
<g id="edge30" class="edge">
<title>Node1&#45;&gt;Node4</title>
<path fill="none" stroke="midnightblue" d="M3092.94,-227.89C3031.33,-221.57 2940.31,-208.98 2912.5,-188 2882.35,-165.26 2891.54,-145.7 2874.5,-112 2868.09,-99.32 2860.58,-84.66 2855.93,-75.62"/>
<polygon fill="midnightblue" stroke="midnightblue" points="3092.64,-231.38 3102.94,-228.89 3093.33,-224.42 3092.64,-231.38"/>
</g>
<!-- Node17 -->
<g id="node17" class="node">
<title>Node17</title>
<g id="a_node17"><a xlink:href="_o_m_sim_m_d_o_m_8cc.html" target="_top" xlink:title=" ">
<polygon fill="white" stroke="black" points="2767.5,-112.5 2767.5,-131.5 2865.5,-131.5 2865.5,-112.5 2767.5,-112.5"/>
<text text-anchor="middle" x="2816.5" y="-119.5" font-family="Helvetica,sans-Serif" font-size="10.00">OMSimMDOM.cc</text>
</a>
</g>
</g>
<!-- Node1&#45;&gt;Node17 -->
<g id="edge35" class="edge">
<title>Node1&#45;&gt;Node17</title>
<path fill="none" stroke="midnightblue" d="M3092.47,-227.53C3023.61,-220.49 2915.58,-206.88 2879.5,-188 2853.6,-174.45 2832.08,-146.27 2822.25,-131.88"/>
<polygon fill="midnightblue" stroke="midnightblue" points="3092.45,-231.05 3102.75,-228.56 3093.15,-224.08 3092.45,-231.05"/>
</g>
<!-- Node29 -->
<g id="node29" class="node">
<title>Node29</title>
<g id="a_node29"><a xlink:href="abc_detector_component_8cc.html" target="_top" xlink:title=" ">
<polygon fill="white" stroke="black" points="2921.5,-168.5 2921.5,-187.5 3067.5,-187.5 3067.5,-168.5 2921.5,-168.5"/>
<text text-anchor="middle" x="2994.5" y="-175.5" font-family="Helvetica,sans-Serif" font-size="10.00">abcDetectorComponent.cc</text>
</a>
</g>
</g>
<!-- Node1&#45;&gt;Node29 -->
<g id="edge29" class="edge">
<title>Node1&#45;&gt;Node29</title>
<path fill="none" stroke="midnightblue" d="M3117.89,-221.17C3088.14,-211 3045.95,-196.59 3019.42,-187.52"/>
<polygon fill="midnightblue" stroke="midnightblue" points="3116.87,-224.52 3127.46,-224.44 3119.13,-217.9 3116.87,-224.52"/>
</g>
<!-- Node30 -->
<g id="node30" class="node">
<title>Node30</title>
<g id="a_node30"><a xlink:href="_o_m_sim_p_m_t_response_8cc.html" target="_top" xlink:title=" ">
<polygon fill="white" stroke="black" points="3085.5,-168.5 3085.5,-187.5 3219.5,-187.5 3219.5,-168.5 3085.5,-168.5"/>
<text text-anchor="middle" x="3152.5" y="-175.5" font-family="Helvetica,sans-Serif" font-size="10.00">OMSimPMTResponse.cc</text>
</a>
</g>
</g>
<!-- Node1&#45;&gt;Node30 -->
<g id="edge31" class="edge">
<title>Node1&#45;&gt;Node30</title>
<path fill="none" stroke="midnightblue" d="M3152.5,-213.8C3152.5,-204.91 3152.5,-194.78 3152.5,-187.75"/>
<polygon fill="midnightblue" stroke="midnightblue" points="3149,-214.08 3152.5,-224.08 3156,-214.08 3149,-214.08"/>
</g>
<!-- Node31 -->
<g id="node31" class="node">
<title>Node31</title>
<g id="a_node31"><a xlink:href="_o_m_sim_d_e_g_g_8cc.html" target="_top" xlink:title=" ">
<polygon fill="white" stroke="black" points="3237.5,-168.5 3237.5,-187.5 3331.5,-187.5 3331.5,-168.5 3237.5,-168.5"/>
<text text-anchor="middle" x="3284.5" y="-175.5" font-family="Helvetica,sans-Serif" font-size="10.00">OMSimDEGG.cc</text>
</a>
</g>
</g>
<!-- Node1&#45;&gt;Node31 -->
<g id="edge32" class="edge">
<title>Node1&#45;&gt;Node31</title>
<path fill="none" stroke="midnightblue" d="M3182.72,-220.64C3207.49,-210.5 3241.9,-196.43 3263.68,-187.52"/>
<polygon fill="midnightblue" stroke="midnightblue" points="3181.35,-217.42 3173.42,-224.44 3184,-223.9 3181.35,-217.42"/>
</g>
<!-- Node32 -->
<g id="node32" class="node">
<title>Node32</title>
<g id="a_node32"><a xlink:href="_o_m_sim_l_o_m16_8cc.html" target="_top" xlink:title=" ">
<polygon fill="white" stroke="black" points="3350,-168.5 3350,-187.5 3449,-187.5 3449,-168.5 3350,-168.5"/>
<text text-anchor="middle" x="3399.5" y="-175.5" font-family="Helvetica,sans-Serif" font-size="10.00">OMSimLOM16.cc</text>
</a>
</g>
</g>
<!-- Node1&#45;&gt;Node32 -->
<g id="edge33" class="edge">
<title>Node1&#45;&gt;Node32</title>
<path fill="none" stroke="midnightblue" d="M3201.53,-222.28C3248.2,-212.08 3317.53,-196.92 3360.55,-187.52"/>
<polygon fill="midnightblue" stroke="midnightblue" points="3200.66,-218.89 3191.64,-224.44 3202.15,-225.73 3200.66,-218.89"/>
</g>
<!-- Node33 -->
<g id="node33" class="node">
<title>Node33</title>
<g id="a_node33"><a xlink:href="_o_m_sim_l_o_m18_8cc.html" target="_top" xlink:title=" ">
<polygon fill="white" stroke="black" points="3467,-168.5 3467,-187.5 3566,-187.5 3566,-168.5 3467,-168.5"/>
<text text-anchor="middle" x="3516.5" y="-175.5" font-family="Helvetica,sans-Serif" font-size="10.00">OMSimLOM18.cc</text>
</a>
</g>
</g>
<!-- Node1&#45;&gt;Node33 -->
<g id="edge34" class="edge">
<title>Node1&#45;&gt;Node33</title>
<path fill="none" stroke="midnightblue" d="M3212.02,-224.39C3273.69,-215.43 3372.87,-200.94 3458.5,-188 3461.22,-187.59 3464.01,-187.16 3466.83,-186.73"/>
<polygon fill="midnightblue" stroke="midnightblue" points="3211.47,-220.93 3202.07,-225.83 3212.47,-227.86 3211.47,-220.93"/>
</g>
<!-- Node34 -->
<g id="node34" class="node">
<title>Node34</title>
<g id="a_node34"><a xlink:href="_o_m_sim_p_d_o_m_8cc.html" target="_top" xlink:title=" ">
<polygon fill="white" stroke="black" points="3584,-168.5 3584,-187.5 3679,-187.5 3679,-168.5 3584,-168.5"/>
<text text-anchor="middle" x="3631.5" y="-175.5" font-family="Helvetica,sans-Serif" font-size="10.00">OMSimPDOM.cc</text>
</a>
</g>
</g>
<!-- Node1&#45;&gt;Node34 -->
<g id="edge36" class="edge">
<title>Node1&#45;&gt;Node34</title>
<path fill="none" stroke="midnightblue" d="M3212.23,-227.66C3294.26,-220.09 3446.33,-205.24 3575.5,-188 3578.23,-187.64 3581.04,-187.24 3583.87,-186.83"/>
<polygon fill="midnightblue" stroke="midnightblue" points="3211.73,-224.19 3202.1,-228.59 3212.37,-231.16 3211.73,-224.19"/>
</g>
<!-- Node3 -->
<g id="node3" class="node">
<title>Node3</title>
<g id="a_node3"><a xlink:href="_o_m_sim_data_file_types_8hh.html" target="_top" xlink:title="Collection of classes and methods to handle material creation from user data in json files.">
<polygon fill="white" stroke="black" points="2614,-112.5 2614,-131.5 2749,-131.5 2749,-112.5 2614,-112.5"/>
<text text-anchor="middle" x="2681.5" y="-119.5" font-family="Helvetica,sans-Serif" font-size="10.00">OMSimDataFileTypes.hh</text>
</a>
</g>
</g>
<!-- Node2&#45;&gt;Node3 -->
<g id="edge2" class="edge">
<title>Node2&#45;&gt;Node3</title>
<path fill="none" stroke="midnightblue" d="M1936.72,-172.99C2079.08,-166.45 2360.88,-152.19 2599.5,-132 2604.21,-131.6 2609.07,-131.16 2613.96,-130.68"/>
<polygon fill="midnightblue" stroke="midnightblue" points="1936.54,-169.49 1926.71,-173.44 1936.86,-176.48 1936.54,-169.49"/>
</g>
<!-- Node5 -->
<g id="node5" class="node">
<title>Node5</title>
<g id="a_node5"><a xlink:href="_o_m_sim_input_data_8cc.html" target="_top" xlink:title=" ">
<polygon fill="white" stroke="black" points="2570,-56.5 2570,-75.5 2683,-75.5 2683,-56.5 2570,-56.5"/>
<text text-anchor="middle" x="2626.5" y="-63.5" font-family="Helvetica,sans-Serif" font-size="10.00">OMSimInputData.cc</text>
</a>
</g>
</g>
<!-- Node2&#45;&gt;Node5 -->
<g id="edge15" class="edge">
<title>Node2&#45;&gt;Node5</title>
<path fill="none" stroke="midnightblue" d="M1936.63,-175.08C2118.53,-170.72 2511.01,-158.38 2566.5,-132 2592.57,-119.6 2612.71,-90.36 2621.57,-75.7"/>
<polygon fill="midnightblue" stroke="midnightblue" points="1936.46,-171.58 1926.55,-175.31 1936.63,-178.58 1936.46,-171.58"/>
</g>
<!-- Node6 -->
<g id="node6" class="node">
<title>Node6</title>
<g id="a_node6"><a xlink:href="_o_m_sim_u_iinterface_8hh.html" target="_top" xlink:title="The OMSimUIinterface class provides a singleton interface to Geant4&#39;s UI manager.">
<polygon fill="white" stroke="black" points="371,-112.5 371,-131.5 492,-131.5 492,-112.5 371,-112.5"/>
<text text-anchor="middle" x="431.5" y="-119.5" font-family="Helvetica,sans-Serif" font-size="10.00">OMSimUIinterface.hh</text>
</a>
</g>
</g>
<!-- Node2&#45;&gt;Node6 -->
<g id="edge5" class="edge">
<title>Node2&#45;&gt;Node6</title>
<path fill="none" stroke="midnightblue" d="M1752.08,-176.9C1534.02,-176.02 970.46,-169.92 501.5,-132 498.45,-131.75 495.32,-131.47 492.17,-131.16"/>
<polygon fill="midnightblue" stroke="midnightblue" points="1752.19,-180.4 1762.21,-176.94 1752.22,-173.4 1752.19,-180.4"/>
</g>
<!-- Node15 -->
<g id="node15" class="node">
<title>Node15</title>
<g id="a_node15"><a xlink:href="_o_m_sim_hit_manager_8cc.html" target="_top" xlink:title=" ">
<polygon fill="white" stroke="black" points="510.5,-112.5 510.5,-131.5 632.5,-131.5 632.5,-112.5 510.5,-112.5"/>
<text text-anchor="middle" x="571.5" y="-119.5" font-family="Helvetica,sans-Serif" font-size="10.00">OMSimHitManager.cc</text>
</a>
</g>
</g>
<!-- Node2&#45;&gt;Node15 -->
<g id="edge14" class="edge">
<title>Node2&#45;&gt;Node15</title>
<path fill="none" stroke="midnightblue" d="M1752.04,-176.39C1550.14,-174.43 1054.79,-166.23 641.5,-132 638.57,-131.76 635.57,-131.48 632.55,-131.18"/>
<polygon fill="midnightblue" stroke="midnightblue" points="1752.27,-179.89 1762.3,-176.49 1752.33,-172.89 1752.27,-179.89"/>
</g>
<!-- Node16 -->
<g id="node16" class="node">
<title>Node16</title>
<g id="a_node16"><a xlink:href="_o_m_sim_p_m_t_construction_8cc.html" target="_top" xlink:title=" ">
<polygon fill="white" stroke="black" points="651,-112.5 651,-131.5 798,-131.5 798,-112.5 651,-112.5"/>
<text text-anchor="middle" x="724.5" y="-119.5" font-family="Helvetica,sans-Serif" font-size="10.00">OMSimPMTConstruction.cc</text>
</a>
</g>
</g>
<!-- Node2&#45;&gt;Node16 -->
<g id="edge16" class="edge">
<title>Node2&#45;&gt;Node16</title>
<path fill="none" stroke="midnightblue" d="M1752.37,-175C1571.17,-170.63 1155.8,-158.41 807.5,-132 804.46,-131.77 801.37,-131.52 798.24,-131.25"/>
<polygon fill="midnightblue" stroke="midnightblue" points="1752.31,-178.5 1762.39,-175.24 1752.48,-171.5 1752.31,-178.5"/>
</g>
<!-- Node2&#45;&gt;Node17 -->
<g id="edge17" class="edge">
<title>Node2&#45;&gt;Node17</title>
<path fill="none" stroke="midnightblue" d="M1936.77,-175.65C2101.95,-172.52 2458.94,-162.53 2758.5,-132 2761.44,-131.7 2764.46,-131.35 2767.5,-130.97"/>
<polygon fill="midnightblue" stroke="midnightblue" points="1936.58,-172.15 1926.65,-175.84 1936.71,-179.15 1936.58,-172.15"/>
</g>
<!-- Node18 -->
<g id="node18" class="node">
<title>Node18</title>
<g id="a_node18"><a xlink:href="_o_m_sim_m_d_o_m_harness_8cc.html" target="_top" xlink:title=" ">
<polygon fill="white" stroke="black" points="816.5,-112.5 816.5,-131.5 954.5,-131.5 954.5,-112.5 816.5,-112.5"/>
<text text-anchor="middle" x="885.5" y="-119.5" font-family="Helvetica,sans-Serif" font-size="10.00">OMSimMDOMHarness.cc</text>
</a>
</g>
</g>
<!-- Node2&#45;&gt;Node18 -->
<g id="edge18" class="edge">
<title>Node2&#45;&gt;Node18</title>
<path fill="none" stroke="midnightblue" d="M1752.08,-174.22C1591.5,-168.96 1250.62,-155.87 963.5,-132 960.65,-131.76 957.74,-131.5 954.8,-131.23"/>
<polygon fill="midnightblue" stroke="midnightblue" points="1752.29,-177.73 1762.4,-174.56 1752.52,-170.73 1752.29,-177.73"/>
</g>
<!-- Node19 -->
<g id="node19" class="node">
<title>Node19</title>
<g id="a_node19"><a xlink:href="effective__area_2src_2_o_m_sim_detector_construction_8cc.html" target="_top" xlink:title=" ">
<polygon fill="white" stroke="black" points="973,-112.5 973,-131.5 1142,-131.5 1142,-112.5 973,-112.5"/>
<text text-anchor="middle" x="1057.5" y="-119.5" font-family="Helvetica,sans-Serif" font-size="10.00">OMSimDetectorConstruction.cc</text>
</a>
</g>
</g>
<!-- Node2&#45;&gt;Node19 -->
<g id="edge19" class="edge">
<title>Node2&#45;&gt;Node19</title>
<path fill="none" stroke="midnightblue" d="M1752.3,-171.95C1619.28,-164.46 1365.88,-149.4 1150.5,-132 1147.75,-131.78 1144.96,-131.55 1142.14,-131.31"/>
<polygon fill="midnightblue" stroke="midnightblue" points="1752.26,-175.46 1762.44,-172.52 1752.66,-168.47 1752.26,-175.46"/>
</g>
<!-- Node20 -->
<g id="node20" class="node">
<title>Node20</title>
<g id="a_node20"><a xlink:href="_o_m_sim_effective_area_analyisis_8cc.html" target="_top" xlink:title=" ">
<polygon fill="white" stroke="black" points="1160,-112.5 1160,-131.5 1335,-131.5 1335,-112.5 1160,-112.5"/>
<text text-anchor="middle" x="1247.5" y="-119.5" font-family="Helvetica,sans-Serif" font-size="10.00">OMSimEffectiveAreaAnalyisis.cc</text>
</a>
</g>
</g>
<!-- Node2&#45;&gt;Node20 -->
<g id="edge20" class="edge">
<title>Node2&#45;&gt;Node20</title>
<path fill="none" stroke="midnightblue" d="M1752.36,-168.83C1651.85,-159.9 1486.22,-145.1 1343.5,-132 1340.75,-131.75 1337.95,-131.49 1335.13,-131.23"/>
<polygon fill="midnightblue" stroke="midnightblue" points="1752.21,-172.33 1762.48,-169.73 1752.83,-165.36 1752.21,-172.33"/>
</g>
<!-- Node21 -->
<g id="node21" class="node">
<title>Node21</title>
<g id="a_node21"><a xlink:href="_o_m_sim_decays_analysis_8cc.html" target="_top" xlink:title=" ">
<polygon fill="white" stroke="black" points="1353,-112.5 1353,-131.5 1496,-131.5 1496,-112.5 1353,-112.5"/>
<text text-anchor="middle" x="1424.5" y="-119.5" font-family="Helvetica,sans-Serif" font-size="10.00">OMSimDecaysAnalysis.cc</text>
</a>
</g>
</g>
<!-- Node2&#45;&gt;Node21 -->
<g id="edge21" class="edge">
<title>Node2&#45;&gt;Node21</title>
<path fill="none" stroke="midnightblue" d="M1768.02,-167.17C1688.72,-156.97 1566.03,-141.2 1490.74,-131.52"/>
<polygon fill="midnightblue" stroke="midnightblue" points="1767.59,-170.64 1777.95,-168.44 1768.48,-163.7 1767.59,-170.64"/>
</g>
<!-- Node22 -->
<g id="node22" class="node">
<title>Node22</title>
<g id="a_node22"><a xlink:href="radioactive__decays_2src_2_o_m_sim_detector_construction_8cc.html" target="_top" xlink:title=" ">
<polygon fill="white" stroke="black" points="1514,-112.5 1514,-131.5 1683,-131.5 1683,-112.5 1514,-112.5"/>
<text text-anchor="middle" x="1598.5" y="-119.5" font-family="Helvetica,sans-Serif" font-size="10.00">OMSimDetectorConstruction.cc</text>
</a>
</g>
</g>
<!-- Node2&#45;&gt;Node22 -->
<g id="edge22" class="edge">
<title>Node2&#45;&gt;Node22</title>
<path fill="none" stroke="midnightblue" d="M1795.67,-166.28C1749.18,-156.08 1680.14,-140.92 1637.3,-131.52"/>
<polygon fill="midnightblue" stroke="midnightblue" points="1795,-169.72 1805.52,-168.44 1796.5,-162.88 1795,-169.72"/>
</g>
<!-- Node23 -->
<g id="node23" class="node">
<title>Node23</title>
<g id="a_node23"><a xlink:href="radioactive__decays_2src_2_o_m_sim_event_action_8cc.html" target="_top" xlink:title=" ">
<polygon fill="white" stroke="black" points="1700.5,-112.5 1700.5,-131.5 1824.5,-131.5 1824.5,-112.5 1700.5,-112.5"/>
<text text-anchor="middle" x="1762.5" y="-119.5" font-family="Helvetica,sans-Serif" font-size="10.00">OMSimEventAction.cc</text>
</a>
</g>
</g>
<!-- Node2&#45;&gt;Node23 -->
<g id="edge23" class="edge">
<title>Node2&#45;&gt;Node23</title>
<path fill="none" stroke="midnightblue" d="M1822.67,-162.62C1807.69,-152.76 1788.3,-139.99 1775.64,-131.65"/>
<polygon fill="midnightblue" stroke="midnightblue" points="1821.05,-165.75 1831.33,-168.32 1824.9,-159.9 1821.05,-165.75"/>
</g>
<!-- Node24 -->
<g id="node24" class="node">
<title>Node24</title>
<g id="a_node24"><a xlink:href="_o_m_sim_g4_radioactive_decay_8cc.html" target="_top" xlink:title=" ">
<polygon fill="white" stroke="black" points="1842.5,-112.5 1842.5,-131.5 2008.5,-131.5 2008.5,-112.5 1842.5,-112.5"/>
<text text-anchor="middle" x="1925.5" y="-119.5" font-family="Helvetica,sans-Serif" font-size="10.00">OMSimG4RadioactiveDecay.cc</text>
</a>
</g>
</g>
<!-- Node2&#45;&gt;Node24 -->
<g id="edge24" class="edge">
<title>Node2&#45;&gt;Node24</title>
<path fill="none" stroke="midnightblue" d="M1866.07,-162.62C1880.86,-152.76 1900.01,-139.99 1912.52,-131.65"/>
<polygon fill="midnightblue" stroke="midnightblue" points="1863.89,-159.86 1857.51,-168.32 1867.78,-165.69 1863.89,-159.86"/>
</g>
<!-- Node25 -->
<g id="node25" class="node">
<title>Node25</title>
<g id="a_node25"><a xlink:href="supernova_2src_2_o_m_sim_detector_construction_8cc.html" target="_top" xlink:title=" ">
<polygon fill="white" stroke="black" points="2027,-112.5 2027,-131.5 2196,-131.5 2196,-112.5 2027,-112.5"/>
<text text-anchor="middle" x="2111.5" y="-119.5" font-family="Helvetica,sans-Serif" font-size="10.00">OMSimDetectorConstruction.cc</text>
</a>
</g>
</g>
<!-- Node2&#45;&gt;Node25 -->
<g id="edge25" class="edge">
<title>Node2&#45;&gt;Node25</title>
<path fill="none" stroke="midnightblue" d="M1896.86,-166.41C1947.32,-156.2 2022.7,-140.96 2069.39,-131.52"/>
<polygon fill="midnightblue" stroke="midnightblue" points="1895.91,-163.03 1886.81,-168.44 1897.3,-169.89 1895.91,-163.03"/>
</g>
<!-- Node26 -->
<g id="node26" class="node">
<title>Node26</title>
<g id="a_node26"><a xlink:href="_o_m_sim_i_b_d_8cc.html" target="_top" xlink:title=" ">
<polygon fill="white" stroke="black" points="2214,-112.5 2214,-131.5 2297,-131.5 2297,-112.5 2214,-112.5"/>
<text text-anchor="middle" x="2255.5" y="-119.5" font-family="Helvetica,sans-Serif" font-size="10.00">OMSimIBD.cc</text>
</a>
</g>
</g>
<!-- Node2&#45;&gt;Node26 -->
<g id="edge26" class="edge">
<title>Node2&#45;&gt;Node26</title>
<path fill="none" stroke="midnightblue" d="M1931.97,-167.31C2004.98,-158.93 2111.7,-145.98 2204.5,-132 2207.52,-131.54 2210.64,-131.05 2213.78,-130.54"/>
<polygon fill="midnightblue" stroke="midnightblue" points="1931.44,-163.85 1921.9,-168.47 1932.24,-170.81 1931.44,-163.85"/>
</g>
<!-- Node27 -->
<g id="node27" class="node">
<title>Node27</title>
<g id="a_node27"><a xlink:href="_o_m_sim_s_n_analysis_8cc.html" target="_top" xlink:title="Analyze data and write output files.">
<polygon fill="white" stroke="black" points="2315.5,-112.5 2315.5,-131.5 2435.5,-131.5 2435.5,-112.5 2315.5,-112.5"/>
<text text-anchor="middle" x="2375.5" y="-119.5" font-family="Helvetica,sans-Serif" font-size="10.00">OMSimSNAnalysis.cc</text>
</a>
</g>
</g>
<!-- Node2&#45;&gt;Node27 -->
<g id="edge27" class="edge">
<title>Node2&#45;&gt;Node27</title>
<path fill="none" stroke="midnightblue" d="M1936.84,-168.82C2029.98,-160.38 2177.84,-146.43 2305.5,-132 2308.67,-131.64 2311.91,-131.26 2315.19,-130.87"/>
<polygon fill="midnightblue" stroke="midnightblue" points="1936.25,-165.36 1926.61,-169.75 1936.88,-172.33 1936.25,-165.36"/>
</g>
<!-- Node28 -->
<g id="node28" class="node">
<title>Node28</title>
<g id="a_node28"><a xlink:href="_o_m_sim_s_n_tools_8cc.html" target="_top" xlink:title=" ">
<polygon fill="white" stroke="black" points="2453.5,-112.5 2453.5,-131.5 2557.5,-131.5 2557.5,-112.5 2453.5,-112.5"/>
<text text-anchor="middle" x="2505.5" y="-119.5" font-family="Helvetica,sans-Serif" font-size="10.00">OMSimSNTools.cc</text>
</a>
</g>
</g>
<!-- Node2&#45;&gt;Node28 -->
<g id="edge28" class="edge">
<title>Node2&#45;&gt;Node28</title>
<path fill="none" stroke="midnightblue" d="M1936.76,-172.14C2054.72,-165.45 2265.19,-151.93 2444.5,-132 2447.37,-131.68 2450.32,-131.33 2453.29,-130.95"/>
<polygon fill="midnightblue" stroke="midnightblue" points="1936.47,-168.65 1926.68,-172.71 1936.86,-175.64 1936.47,-168.65"/>
</g>
<!-- Node3&#45;&gt;Node4 -->
<g id="edge3" class="edge">
<title>Node3&#45;&gt;Node4</title>
<path fill="none" stroke="midnightblue" d="M2718.32,-109.3C2750.35,-99.13 2796.02,-84.62 2824.69,-75.52"/>
<polygon fill="midnightblue" stroke="midnightblue" points="2716.91,-106.08 2708.44,-112.44 2719.03,-112.75 2716.91,-106.08"/>
</g>
<!-- Node3&#45;&gt;Node5 -->
<g id="edge4" class="edge">
<title>Node3&#45;&gt;Node5</title>
<path fill="none" stroke="midnightblue" d="M2665.21,-105C2655.46,-95.43 2643.45,-83.64 2635.41,-75.75"/>
<polygon fill="midnightblue" stroke="midnightblue" points="2662.83,-107.57 2672.42,-112.08 2667.73,-102.58 2662.83,-107.57"/>
</g>
<!-- Node7 -->
<g id="node7" class="node">
<title>Node7</title>
<g id="a_node7"><a xlink:href="_o_m_sim_8hh.html" target="_top" xlink:title="Main simulation class for the Optical Module (OM) simulation. This file defines the OMSim class,...">
<polygon fill="white" stroke="black" points="205,-56.5 205,-75.5 272,-75.5 272,-56.5 205,-56.5"/>
<text text-anchor="middle" x="238.5" y="-63.5" font-family="Helvetica,sans-Serif" font-size="10.00">OMSim.hh</text>
</a>
</g>
</g>
<!-- Node6&#45;&gt;Node7 -->
<g id="edge6" class="edge">
<title>Node6&#45;&gt;Node7</title>
<path fill="none" stroke="midnightblue" d="M391.11,-109.7C354.68,-99.51 301.91,-84.74 268.94,-75.52"/>
<polygon fill="midnightblue" stroke="midnightblue" points="390.35,-113.12 400.92,-112.44 392.23,-106.38 390.35,-113.12"/>
</g>
<!-- Node12 -->
<g id="node12" class="node">
<title>Node12</title>
<g id="a_node12"><a xlink:href="_o_m_sim_m_d_o_m_flasher_8cc.html" target="_top" xlink:title=" ">
<polygon fill="white" stroke="black" points="290.5,-56.5 290.5,-75.5 424.5,-75.5 424.5,-56.5 290.5,-56.5"/>
<text text-anchor="middle" x="357.5" y="-63.5" font-family="Helvetica,sans-Serif" font-size="10.00">OMSimMDOMFlasher.cc</text>
</a>
</g>
</g>
<!-- Node6&#45;&gt;Node12 -->
<g id="edge11" class="edge">
<title>Node6&#45;&gt;Node12</title>
<path fill="none" stroke="midnightblue" d="M411.47,-106.38C398.09,-96.62 380.94,-84.11 369.61,-75.83"/>
<polygon fill="midnightblue" stroke="midnightblue" points="409.47,-109.26 419.61,-112.32 413.6,-103.6 409.47,-109.26"/>
</g>
<!-- Node13 -->
<g id="node13" class="node">
<title>Node13</title>
<g id="a_node13"><a xlink:href="_o_m_sim_angular_scan_8cc.html" target="_top" xlink:title=" ">
<polygon fill="white" stroke="black" points="442.5,-56.5 442.5,-75.5 568.5,-75.5 568.5,-56.5 442.5,-56.5"/>
<text text-anchor="middle" x="505.5" y="-63.5" font-family="Helvetica,sans-Serif" font-size="10.00">OMSimAngularScan.cc</text>
</a>
</g>
</g>
<!-- Node6&#45;&gt;Node13 -->
<g id="edge12" class="edge">
<title>Node6&#45;&gt;Node13</title>
<path fill="none" stroke="midnightblue" d="M451.53,-106.38C464.91,-96.62 482.06,-84.11 493.39,-75.83"/>
<polygon fill="midnightblue" stroke="midnightblue" points="449.4,-103.6 443.39,-112.32 453.53,-109.26 449.4,-103.6"/>
</g>
<!-- Node14 -->
<g id="node14" class="node">
<title>Node14</title>
<g id="a_node14"><a xlink:href="_o_m_sim_decays_g_p_s_8cc.html" target="_top" xlink:title=" ">
<polygon fill="white" stroke="black" points="587,-56.5 587,-75.5 708,-75.5 708,-56.5 587,-56.5"/>
<text text-anchor="middle" x="647.5" y="-63.5" font-family="Helvetica,sans-Serif" font-size="10.00">OMSimDecaysGPS.cc</text>
</a>
</g>
</g>
<!-- Node6&#45;&gt;Node14 -->
<g id="edge13" class="edge">
<title>Node6&#45;&gt;Node14</title>
<path fill="none" stroke="midnightblue" d="M475.66,-109.96C516.46,-99.76 576.21,-84.82 613.43,-75.52"/>
<polygon fill="midnightblue" stroke="midnightblue" points="474.58,-106.62 465.73,-112.44 476.28,-113.41 474.58,-106.62"/>
</g>
<!-- Node8 -->
<g id="node8" class="node">
<title>Node8</title>
<g id="a_node8"><a xlink:href="_o_m_sim_8cc.html" target="_top" xlink:title="Implementation of the OMSim class.">
<polygon fill="white" stroke="black" points="0,-0.5 0,-19.5 65,-19.5 65,-0.5 0,-0.5"/>
<text text-anchor="middle" x="32.5" y="-7.5" font-family="Helvetica,sans-Serif" font-size="10.00">OMSim.cc</text>
</a>
</g>
</g>
<!-- Node7&#45;&gt;Node8 -->
<g id="edge7" class="edge">
<title>Node7&#45;&gt;Node8</title>
<path fill="none" stroke="midnightblue" d="M195.88,-53.83C156.99,-43.63 100.34,-28.78 64.99,-19.52"/>
<polygon fill="midnightblue" stroke="midnightblue" points="195.3,-57.29 205.86,-56.44 197.07,-50.52 195.3,-57.29"/>
</g>
<!-- Node9 -->
<g id="node9" class="node">
<title>Node9</title>
<g id="a_node9"><a xlink:href="_o_m_sim__effective__area_8cc.html" target="_top" xlink:title="Main for the calculation of effective areas.">
<polygon fill="white" stroke="black" points="83.5,-0.5 83.5,-19.5 223.5,-19.5 223.5,-0.5 83.5,-0.5"/>
<text text-anchor="middle" x="153.5" y="-7.5" font-family="Helvetica,sans-Serif" font-size="10.00">OMSim_effective_area.cc</text>
</a>
</g>
</g>
<!-- Node7&#45;&gt;Node9 -->
<g id="edge8" class="edge">
<title>Node7&#45;&gt;Node9</title>
<path fill="none" stroke="midnightblue" d="M216.31,-50.9C200.72,-41 180.37,-28.07 167.12,-19.65"/>
<polygon fill="midnightblue" stroke="midnightblue" points="214.53,-53.92 224.84,-56.32 218.28,-48.01 214.53,-53.92"/>
</g>
<!-- Node10 -->
<g id="node10" class="node">
<title>Node10</title>
<g id="a_node10"><a xlink:href="_o_m_sim__radioactive__decays_8cc.html" target="_top" xlink:title=" ">
<polygon fill="white" stroke="black" points="242,-0.5 242,-19.5 407,-19.5 407,-0.5 242,-0.5"/>
<text text-anchor="middle" x="324.5" y="-7.5" font-family="Helvetica,sans-Serif" font-size="10.00">OMSim_radioactive_decays.cc</text>
</a>
</g>
</g>
<!-- Node7&#45;&gt;Node10 -->
<g id="edge9" class="edge">
<title>Node7&#45;&gt;Node10</title>
<path fill="none" stroke="midnightblue" d="M260.95,-50.9C276.72,-41 297.31,-28.07 310.72,-19.65"/>
<polygon fill="midnightblue" stroke="midnightblue" points="258.93,-48.04 252.32,-56.32 262.65,-53.97 258.93,-48.04"/>
</g>
<!-- Node11 -->
<g id="node11" class="node">
<title>Node11</title>
<g id="a_node11"><a xlink:href="_o_m_sim__supernova_8cc.html" target="_top" xlink:title=" ">
<polygon fill="white" stroke="black" points="425.5,-0.5 425.5,-19.5 547.5,-19.5 547.5,-0.5 425.5,-0.5"/>
<text text-anchor="middle" x="486.5" y="-7.5" font-family="Helvetica,sans-Serif" font-size="10.00">OMSim_supernova.cc</text>
</a>
</g>
</g>
<!-- Node7&#45;&gt;Node11 -->
<g id="edge10" class="edge">
<title>Node7&#45;&gt;Node11</title>
<path fill="none" stroke="midnightblue" d="M282.02,-55.52C328.69,-45.36 402.14,-29.37 447.14,-19.57"/>
<polygon fill="midnightblue" stroke="midnightblue" points="281.23,-52.11 272.2,-57.66 282.72,-58.95 281.23,-52.11"/>
</g>
</g>
</svg>
