<?xml version="1.0" encoding="UTF-8" standalone="no"?>
<!DOCTYPE svg PUBLIC "-//W3C//DTD SVG 1.1//EN"
 "http://www.w3.org/Graphics/SVG/1.1/DTD/svg11.dtd">
<!-- Generated by graphviz version 2.43.0 (0)
 -->
<!-- Title: OMSimAnalysisManager.cc Pages: 1 -->
<svg width="1201pt" height="196pt"
 viewBox="0.00 0.00 1200.50 196.00" xmlns="http://www.w3.org/2000/svg" xmlns:xlink="http://www.w3.org/1999/xlink">
<g id="graph0" class="graph" transform="scale(1 1) rotate(0) translate(4 192)">
<title>OMSimAnalysisManager.cc</title>
<polygon fill="white" stroke="transparent" points="-4,4 -4,-192 1196.5,-192 1196.5,4 -4,4"/>
<!-- Node1 -->
<g id="node1" class="node">
<title>Node1</title>
<g id="a_node1"><a xlink:title=" ">
<polygon fill="#bfbfbf" stroke="black" points="493,-168.5 493,-187.5 642,-187.5 642,-168.5 493,-168.5"/>
<text text-anchor="middle" x="567.5" y="-175.5" font-family="Helvetica,sans-Serif" font-size="10.00">OMSimAnalysisManager.cc</text>
</a>
</g>
</g>
<!-- Node2 -->
<g id="node2" class="node">
<title>Node2</title>
<g id="a_node2"><a xlink:href="_o_m_sim_analysis_manager_8hh.html" target="_top" xlink:title=" ">
<polygon fill="white" stroke="black" points="229.5,-112.5 229.5,-131.5 379.5,-131.5 379.5,-112.5 229.5,-112.5"/>
<text text-anchor="middle" x="304.5" y="-119.5" font-family="Helvetica,sans-Serif" font-size="10.00">OMSimAnalysisManager.hh</text>
</a>
</g>
</g>
<!-- Node1&#45;&gt;Node2 -->
<g id="edge1" class="edge">
<title>Node1&#45;&gt;Node2</title>
<path fill="none" stroke="midnightblue" d="M525.83,-168.44C479.75,-158.98 405.5,-143.74 355.87,-133.55"/>
<polygon fill="midnightblue" stroke="midnightblue" points="356.48,-130.1 345.98,-131.52 355.07,-136.96 356.48,-130.1"/>
</g>
<!-- Node7 -->
<g id="node7" class="node">
<title>Node7</title>
<g id="a_node7"><a xlink:title=" ">
<polygon fill="white" stroke="#bfbfbf" points="458,-0.5 458,-19.5 577,-19.5 577,-0.5 458,-0.5"/>
<text text-anchor="middle" x="517.5" y="-7.5" font-family="Helvetica,sans-Serif" font-size="10.00">G4SystemOfUnits.hh</text>
</a>
</g>
</g>
<!-- Node1&#45;&gt;Node7 -->
<g id="edge16" class="edge">
<title>Node1&#45;&gt;Node7</title>
<path fill="none" stroke="midnightblue" d="M564.81,-168.08C556.94,-141.95 533.83,-65.21 523.1,-29.58"/>
<polygon fill="midnightblue" stroke="midnightblue" points="526.32,-28.13 520.08,-19.57 519.61,-30.15 526.32,-28.13"/>
</g>
<!-- Node15 -->
<g id="node15" class="node">
<title>Node15</title>
<g id="a_node15"><a xlink:title=" ">
<polygon fill="white" stroke="#bfbfbf" points="567,-112.5 567,-131.5 626,-131.5 626,-112.5 567,-112.5"/>
<text text-anchor="middle" x="596.5" y="-119.5" font-family="Helvetica,sans-Serif" font-size="10.00">G4ios.hh</text>
</a>
</g>
</g>
<!-- Node1&#45;&gt;Node15 -->
<g id="edge15" class="edge">
<title>Node1&#45;&gt;Node15</title>
<path fill="none" stroke="midnightblue" d="M572.29,-168.08C576.26,-160.69 582.03,-149.95 586.93,-140.81"/>
<polygon fill="midnightblue" stroke="midnightblue" points="590.15,-142.22 591.8,-131.75 583.99,-138.91 590.15,-142.22"/>
</g>
<!-- Node16 -->
<g id="node16" class="node">
<title>Node16</title>
<g id="a_node16"><a xlink:href="_o_m_sim_command_args_table_8hh.html" target="_top" xlink:title="Definition of the OMSimCommandArgsTable singleton class, which controls user args.">
<polygon fill="white" stroke="black" points="751.5,-112.5 751.5,-131.5 915.5,-131.5 915.5,-112.5 751.5,-112.5"/>
<text text-anchor="middle" x="833.5" y="-119.5" font-family="Helvetica,sans-Serif" font-size="10.00">OMSimCommandArgsTable.hh</text>
</a>
</g>
</g>
<!-- Node1&#45;&gt;Node16 -->
<g id="edge17" class="edge">
<title>Node1&#45;&gt;Node16</title>
<path fill="none" stroke="midnightblue" d="M609.65,-168.44C656.25,-158.98 731.34,-143.74 781.55,-133.55"/>
<polygon fill="midnightblue" stroke="midnightblue" points="782.44,-136.94 791.55,-131.52 781.05,-130.08 782.44,-136.94"/>
</g>
<!-- Node3 -->
<g id="node3" class="node">
<title>Node3</title>
<g id="a_node3"><a xlink:title=" ">
<polygon fill="white" stroke="#bfbfbf" points="0,-0.5 0,-19.5 73,-19.5 73,-0.5 0,-0.5"/>
<text text-anchor="middle" x="36.5" y="-7.5" font-family="Helvetica,sans-Serif" font-size="10.00">G4Types.hh</text>
</a>
</g>
</g>
<!-- Node2&#45;&gt;Node3 -->
<g id="edge2" class="edge">
<title>Node2&#45;&gt;Node3</title>
<path fill="none" stroke="midnightblue" d="M229.24,-120.02C152.71,-117.24 41.64,-107.68 14.5,-76 2.69,-62.21 12.73,-41.81 22.8,-27.55"/>
<polygon fill="midnightblue" stroke="midnightblue" points="25.59,-29.66 28.87,-19.58 20.03,-25.41 25.59,-29.66"/>
</g>
<!-- Node4 -->
<g id="node4" class="node">
<title>Node4</title>
<g id="a_node4"><a xlink:title=" ">
<polygon fill="white" stroke="#bfbfbf" points="23.5,-56.5 23.5,-75.5 97.5,-75.5 97.5,-56.5 23.5,-56.5"/>
<text text-anchor="middle" x="60.5" y="-63.5" font-family="Helvetica,sans-Serif" font-size="10.00">G4String.hh</text>
</a>
</g>
</g>
<!-- Node2&#45;&gt;Node4 -->
<g id="edge3" class="edge">
<title>Node2&#45;&gt;Node4</title>
<path fill="none" stroke="midnightblue" d="M265.84,-112.44C222.99,-102.96 153.86,-87.66 107.81,-77.47"/>
<polygon fill="midnightblue" stroke="midnightblue" points="108.3,-73.99 97.78,-75.25 106.79,-80.83 108.3,-73.99"/>
</g>
<!-- Node5 -->
<g id="node5" class="node">
<title>Node5</title>
<g id="a_node5"><a xlink:title=" ">
<polygon fill="white" stroke="#bfbfbf" points="116,-56.5 116,-75.5 219,-75.5 219,-56.5 116,-56.5"/>
<text text-anchor="middle" x="167.5" y="-63.5" font-family="Helvetica,sans-Serif" font-size="10.00">G4ThreeVector.hh</text>
</a>
</g>
</g>
<!-- Node2&#45;&gt;Node5 -->
<g id="edge4" class="edge">
<title>Node2&#45;&gt;Node5</title>
<path fill="none" stroke="midnightblue" d="M282.79,-112.44C260.15,-103.52 224.43,-89.44 198.75,-79.32"/>
<polygon fill="midnightblue" stroke="midnightblue" points="199.69,-75.93 189.11,-75.52 197.13,-82.44 199.69,-75.93"/>
</g>
<!-- Node6 -->
<g id="node6" class="node">
<title>Node6</title>
<g id="a_node6"><a xlink:href="_o_m_sim_p_m_t_response_8hh.html" target="_top" xlink:title=" ">
<polygon fill="white" stroke="black" points="237,-56.5 237,-75.5 372,-75.5 372,-56.5 237,-56.5"/>
<text text-anchor="middle" x="304.5" y="-63.5" font-family="Helvetica,sans-Serif" font-size="10.00">OMSimPMTResponse.hh</text>
</a>
</g>
</g>
<!-- Node2&#45;&gt;Node6 -->
<g id="edge5" class="edge">
<title>Node2&#45;&gt;Node6</title>
<path fill="none" stroke="midnightblue" d="M304.5,-112.08C304.5,-105.01 304.5,-94.86 304.5,-85.99"/>
<polygon fill="midnightblue" stroke="midnightblue" points="308,-85.75 304.5,-75.75 301,-85.75 308,-85.75"/>
</g>
<!-- Node13 -->
<g id="node13" class="node">
<title>Node13</title>
<g id="a_node13"><a xlink:title=" ">
<polygon fill="white" stroke="#bfbfbf" points="390,-56.5 390,-75.5 437,-75.5 437,-56.5 390,-56.5"/>
<text text-anchor="middle" x="413.5" y="-63.5" font-family="Helvetica,sans-Serif" font-size="10.00">vector</text>
</a>
</g>
</g>
<!-- Node2&#45;&gt;Node13 -->
<g id="edge13" class="edge">
<title>Node2&#45;&gt;Node13</title>
<path fill="none" stroke="midnightblue" d="M322.01,-112.32C339.57,-103.62 366.83,-90.12 387.03,-80.11"/>
<polygon fill="midnightblue" stroke="midnightblue" points="388.62,-83.23 396.03,-75.65 385.52,-76.96 388.62,-83.23"/>
</g>
<!-- Node14 -->
<g id="node14" class="node">
<title>Node14</title>
<g id="a_node14"><a xlink:title=" ">
<polygon fill="white" stroke="#bfbfbf" points="455,-56.5 455,-75.5 510,-75.5 510,-56.5 455,-56.5"/>
<text text-anchor="middle" x="482.5" y="-63.5" font-family="Helvetica,sans-Serif" font-size="10.00">fstream</text>
</a>
</g>
</g>
<!-- Node2&#45;&gt;Node14 -->
<g id="edge14" class="edge">
<title>Node2&#45;&gt;Node14</title>
<path fill="none" stroke="midnightblue" d="M332.7,-112.44C363,-103.25 411.29,-88.6 444.82,-78.43"/>
<polygon fill="midnightblue" stroke="midnightblue" points="446.17,-81.68 454.72,-75.43 444.13,-74.98 446.17,-81.68"/>
</g>
<!-- Node6&#45;&gt;Node3 -->
<g id="edge7" class="edge">
<title>Node6&#45;&gt;Node3</title>
<path fill="none" stroke="midnightblue" d="M262.03,-56.44C213.29,-46.62 133.6,-30.56 83.16,-20.4"/>
<polygon fill="midnightblue" stroke="midnightblue" points="83.66,-16.93 73.17,-18.39 82.28,-23.79 83.66,-16.93"/>
</g>
<!-- Node6&#45;&gt;Node7 -->
<g id="edge6" class="edge">
<title>Node6&#45;&gt;Node7</title>
<path fill="none" stroke="midnightblue" d="M338.25,-56.44C375.02,-47.12 433.95,-32.18 474.12,-22"/>
<polygon fill="midnightblue" stroke="midnightblue" points="475.07,-25.37 483.91,-19.52 473.35,-18.58 475.07,-25.37"/>
</g>
<!-- Node8 -->
<g id="node8" class="node">
<title>Node8</title>
<g id="a_node8"><a xlink:title=" ">
<polygon fill="white" stroke="#bfbfbf" points="362,-0.5 362,-19.5 427,-19.5 427,-0.5 362,-0.5"/>
<text text-anchor="middle" x="394.5" y="-7.5" font-family="Helvetica,sans-Serif" font-size="10.00">functional</text>
</a>
</g>
</g>
<!-- Node6&#45;&gt;Node8 -->
<g id="edge8" class="edge">
<title>Node6&#45;&gt;Node8</title>
<path fill="none" stroke="midnightblue" d="M318.96,-56.32C333,-47.9 354.55,-34.97 371.04,-25.07"/>
<polygon fill="midnightblue" stroke="midnightblue" points="373.3,-27.8 380.08,-19.65 369.7,-21.8 373.3,-27.8"/>
</g>
<!-- Node9 -->
<g id="node9" class="node">
<title>Node9</title>
<g id="a_node9"><a xlink:title=" ">
<polygon fill="white" stroke="#bfbfbf" points="606.5,-0.5 606.5,-19.5 644.5,-19.5 644.5,-0.5 606.5,-0.5"/>
<text text-anchor="middle" x="625.5" y="-7.5" font-family="Helvetica,sans-Serif" font-size="10.00">map</text>
</a>
</g>
</g>
<!-- Node6&#45;&gt;Node9 -->
<g id="edge9" class="edge">
<title>Node6&#45;&gt;Node9</title>
<path fill="none" stroke="midnightblue" d="M364.71,-56.47C421.74,-48.13 509.69,-34.58 585.5,-20 589.03,-19.32 592.73,-18.56 596.39,-17.77"/>
<polygon fill="midnightblue" stroke="midnightblue" points="597.42,-21.13 606.43,-15.55 595.9,-14.3 597.42,-21.13"/>
</g>
<!-- Node10 -->
<g id="node10" class="node">
<title>Node10</title>
<g id="a_node10"><a xlink:title=" ">
<polygon fill="white" stroke="#bfbfbf" points="119,-0.5 119,-19.5 180,-19.5 180,-0.5 119,-0.5"/>
<text text-anchor="middle" x="149.5" y="-7.5" font-family="Helvetica,sans-Serif" font-size="10.00">TGraph.h</text>
</a>
</g>
</g>
<!-- Node6&#45;&gt;Node10 -->
<g id="edge10" class="edge">
<title>Node6&#45;&gt;Node10</title>
<path fill="none" stroke="midnightblue" d="M279.94,-56.44C253.98,-47.4 212.83,-33.06 183.7,-22.92"/>
<polygon fill="midnightblue" stroke="midnightblue" points="184.54,-19.5 173.95,-19.52 182.24,-26.11 184.54,-19.5"/>
</g>
<!-- Node11 -->
<g id="node11" class="node">
<title>Node11</title>
<g id="a_node11"><a xlink:title=" ">
<polygon fill="white" stroke="#bfbfbf" points="198.5,-0.5 198.5,-19.5 272.5,-19.5 272.5,-0.5 198.5,-0.5"/>
<text text-anchor="middle" x="235.5" y="-7.5" font-family="Helvetica,sans-Serif" font-size="10.00">TGraph2D.h</text>
</a>
</g>
</g>
<!-- Node6&#45;&gt;Node11 -->
<g id="edge11" class="edge">
<title>Node6&#45;&gt;Node11</title>
<path fill="none" stroke="midnightblue" d="M293.41,-56.32C283.01,-48.18 267.24,-35.84 254.78,-26.09"/>
<polygon fill="midnightblue" stroke="midnightblue" points="256.82,-23.24 246.79,-19.83 252.51,-28.75 256.82,-23.24"/>
</g>
<!-- Node12 -->
<g id="node12" class="node">
<title>Node12</title>
<g id="a_node12"><a xlink:title=" ">
<polygon fill="white" stroke="#bfbfbf" points="291,-0.5 291,-19.5 344,-19.5 344,-0.5 291,-0.5"/>
<text text-anchor="middle" x="317.5" y="-7.5" font-family="Helvetica,sans-Serif" font-size="10.00">TH2D.h</text>
</a>
</g>
</g>
<!-- Node6&#45;&gt;Node12 -->
<g id="edge12" class="edge">
<title>Node6&#45;&gt;Node12</title>
<path fill="none" stroke="midnightblue" d="M306.65,-56.08C308.37,-48.93 310.85,-38.64 313,-29.69"/>
<polygon fill="midnightblue" stroke="midnightblue" points="316.46,-30.29 315.39,-19.75 309.65,-28.65 316.46,-30.29"/>
</g>
<!-- Node16&#45;&gt;Node9 -->
<g id="edge18" class="edge">
<title>Node16&#45;&gt;Node9</title>
<path fill="none" stroke="midnightblue" d="M779.03,-112.45C748.84,-105.89 711.63,-94.68 682.5,-76 663.22,-63.64 646.68,-42.92 636.45,-28.2"/>
<polygon fill="midnightblue" stroke="midnightblue" points="639.14,-25.92 630.68,-19.54 633.32,-29.8 639.14,-25.92"/>
</g>
<!-- Node17 -->
<g id="node17" class="node">
<title>Node17</title>
<g id="a_node17"><a xlink:title=" ">
<polygon fill="white" stroke="#bfbfbf" points="808,-56.5 808,-75.5 859,-75.5 859,-56.5 808,-56.5"/>
<text text-anchor="middle" x="833.5" y="-63.5" font-family="Helvetica,sans-Serif" font-size="10.00">variant</text>
</a>
</g>
</g>
<!-- Node16&#45;&gt;Node17 -->
<g id="edge19" class="edge">
<title>Node16&#45;&gt;Node17</title>
<path fill="none" stroke="midnightblue" d="M833.5,-112.08C833.5,-105.01 833.5,-94.86 833.5,-85.99"/>
<polygon fill="midnightblue" stroke="midnightblue" points="837,-85.75 833.5,-75.75 830,-85.75 837,-85.75"/>
</g>
<!-- Node18 -->
<g id="node18" class="node">
<title>Node18</title>
<g id="a_node18"><a xlink:title=" ">
<polygon fill="white" stroke="#bfbfbf" points="877.5,-56.5 877.5,-75.5 921.5,-75.5 921.5,-56.5 877.5,-56.5"/>
<text text-anchor="middle" x="899.5" y="-63.5" font-family="Helvetica,sans-Serif" font-size="10.00">string</text>
</a>
</g>
</g>
<!-- Node16&#45;&gt;Node18 -->
<g id="edge20" class="edge">
<title>Node16&#45;&gt;Node18</title>
<path fill="none" stroke="midnightblue" d="M844.1,-112.32C853.96,-104.26 868.85,-92.08 880.72,-82.37"/>
<polygon fill="midnightblue" stroke="midnightblue" points="883.18,-84.88 888.7,-75.83 878.75,-79.46 883.18,-84.88"/>
</g>
<!-- Node19 -->
<g id="node19" class="node">
<title>Node19</title>
<g id="a_node19"><a xlink:title=" ">
<polygon fill="white" stroke="#bfbfbf" points="940,-56.5 940,-75.5 1005,-75.5 1005,-56.5 940,-56.5"/>
<text text-anchor="middle" x="972.5" y="-63.5" font-family="Helvetica,sans-Serif" font-size="10.00">stdexcept</text>
</a>
</g>
</g>
<!-- Node16&#45;&gt;Node19 -->
<g id="edge21" class="edge">
<title>Node16&#45;&gt;Node19</title>
<path fill="none" stroke="midnightblue" d="M855.52,-112.44C878.6,-103.48 915.06,-89.31 941.14,-79.18"/>
<polygon fill="midnightblue" stroke="midnightblue" points="942.52,-82.4 950.58,-75.52 939.99,-75.88 942.52,-82.4"/>
</g>
<!-- Node20 -->
<g id="node20" class="node">
<title>Node20</title>
<g id="a_node20"><a xlink:title=" ">
<polygon fill="white" stroke="#bfbfbf" points="1023,-56.5 1023,-75.5 1090,-75.5 1090,-56.5 1023,-56.5"/>
<text text-anchor="middle" x="1056.5" y="-63.5" font-family="Helvetica,sans-Serif" font-size="10.00">globals.hh</text>
</a>
</g>
</g>
<!-- Node16&#45;&gt;Node20 -->
<g id="edge22" class="edge">
<title>Node16&#45;&gt;Node20</title>
<path fill="none" stroke="midnightblue" d="M868.84,-112.44C907.86,-102.99 970.74,-87.77 1012.83,-77.58"/>
<polygon fill="midnightblue" stroke="midnightblue" points="1013.89,-80.92 1022.79,-75.16 1012.25,-74.11 1013.89,-80.92"/>
</g>
<!-- Node21 -->
<g id="node21" class="node">
<title>Node21</title>
<g id="a_node21"><a xlink:title=" ">
<polygon fill="white" stroke="#bfbfbf" points="1108.5,-56.5 1108.5,-75.5 1192.5,-75.5 1192.5,-56.5 1108.5,-56.5"/>
<text text-anchor="middle" x="1150.5" y="-63.5" font-family="Helvetica,sans-Serif" font-size="10.00">boost/any.hpp</text>
</a>
</g>
</g>
<!-- Node16&#45;&gt;Node21 -->
<g id="edge23" class="edge">
<title>Node16&#45;&gt;Node21</title>
<path fill="none" stroke="midnightblue" d="M884.51,-112.48C935.88,-103.88 1017.68,-90.11 1098.16,-76.22"/>
<polygon fill="midnightblue" stroke="midnightblue" points="1099.22,-79.59 1108.48,-74.44 1098.03,-72.69 1099.22,-79.59"/>
</g>
<!-- Node22 -->
<g id="node22" class="node">
<title>Node22</title>
<g id="a_node22"><a xlink:title=" ">
<polygon fill="white" stroke="#bfbfbf" points="566.5,-56.5 566.5,-75.5 634.5,-75.5 634.5,-56.5 566.5,-56.5"/>
<text text-anchor="middle" x="600.5" y="-63.5" font-family="Helvetica,sans-Serif" font-size="10.00">sys/time.h</text>
</a>
</g>
</g>
<!-- Node16&#45;&gt;Node22 -->
<g id="edge24" class="edge">
<title>Node16&#45;&gt;Node22</title>
<path fill="none" stroke="midnightblue" d="M796.58,-112.44C755.27,-102.87 688.39,-87.37 644.43,-77.18"/>
<polygon fill="midnightblue" stroke="midnightblue" points="645.13,-73.75 634.59,-74.9 643.55,-80.57 645.13,-73.75"/>
</g>
<!-- Node23 -->
<g id="node23" class="node">
<title>Node23</title>
<g id="a_node23"><a xlink:href="_o_m_sim_logger_8hh.html" target="_top" xlink:title=" ">
<polygon fill="white" stroke="black" points="691,-56.5 691,-75.5 790,-75.5 790,-56.5 691,-56.5"/>
<text text-anchor="middle" x="740.5" y="-63.5" font-family="Helvetica,sans-Serif" font-size="10.00">OMSimLogger.hh</text>
</a>
</g>
</g>
<!-- Node16&#45;&gt;Node23 -->
<g id="edge25" class="edge">
<title>Node16&#45;&gt;Node23</title>
<path fill="none" stroke="midnightblue" d="M818.56,-112.32C803.91,-103.82 781.37,-90.73 764.26,-80.8"/>
<polygon fill="midnightblue" stroke="midnightblue" points="765.81,-77.65 755.4,-75.65 762.3,-83.7 765.81,-77.65"/>
</g>
<!-- Node24 -->
<g id="node24" class="node">
<title>Node24</title>
<g id="a_node24"><a xlink:title=" ">
<polygon fill="white" stroke="#bfbfbf" points="668.5,-0.5 668.5,-19.5 718.5,-19.5 718.5,-0.5 668.5,-0.5"/>
<text text-anchor="middle" x="693.5" y="-7.5" font-family="Helvetica,sans-Serif" font-size="10.00">stdio.h</text>
</a>
</g>
</g>
<!-- Node23&#45;&gt;Node24 -->
<g id="edge26" class="edge">
<title>Node23&#45;&gt;Node24</title>
<path fill="none" stroke="midnightblue" d="M732.74,-56.08C725.96,-48.3 715.96,-36.8 707.74,-27.37"/>
<polygon fill="midnightblue" stroke="midnightblue" points="710.32,-25 701.12,-19.75 705.04,-29.59 710.32,-25"/>
</g>
<!-- Node25 -->
<g id="node25" class="node">
<title>Node25</title>
<g id="a_node25"><a xlink:title=" ">
<polygon fill="white" stroke="#bfbfbf" points="736.5,-0.5 736.5,-19.5 784.5,-19.5 784.5,-0.5 736.5,-0.5"/>
<text text-anchor="middle" x="760.5" y="-7.5" font-family="Helvetica,sans-Serif" font-size="10.00">time.h</text>
</a>
</g>
</g>
<!-- Node23&#45;&gt;Node25 -->
<g id="edge27" class="edge">
<title>Node23&#45;&gt;Node25</title>
<path fill="none" stroke="midnightblue" d="M743.8,-56.08C746.48,-48.85 750.35,-38.41 753.69,-29.4"/>
<polygon fill="midnightblue" stroke="midnightblue" points="757.07,-30.34 757.26,-19.75 750.5,-27.91 757.07,-30.34"/>
</g>
</g>
</svg>
