<?xml version="1.0" encoding="UTF-8" standalone="no"?>
<!DOCTYPE svg PUBLIC "-//W3C//DTD SVG 1.1//EN"
 "http://www.w3.org/Graphics/SVG/1.1/DTD/svg11.dtd">
<!-- Generated by graphviz version 2.43.0 (0)
 -->
<!-- Title: OMSimInputData.hh Pages: 1 -->
<svg width="419pt" height="95pt"
 viewBox="0.00 0.00 419.00 95.00" xmlns="http://www.w3.org/2000/svg" xmlns:xlink="http://www.w3.org/1999/xlink">
<g id="graph0" class="graph" transform="scale(1 1) rotate(0) translate(4 91)">
<title>OMSimInputData.hh</title>
<polygon fill="white" stroke="transparent" points="-4,4 -4,-91 415,-91 415,4 -4,4"/>
<!-- Node1 -->
<g id="node1" class="node">
<title>Node1</title>
<g id="a_node1"><a xlink:title="Definition of ParameterTable and InputDataManager.">
<polygon fill="#bfbfbf" stroke="black" points="163,-67.5 163,-86.5 278,-86.5 278,-67.5 163,-67.5"/>
<text text-anchor="middle" x="220.5" y="-74.5" font-family="Helvetica,sans-Serif" font-size="10.00">OMSimInputData.hh</text>
</a>
</g>
</g>
<!-- Node2 -->
<g id="node2" class="node">
<title>Node2</title>
<g id="a_node2"><a xlink:title=" ">
<polygon fill="white" stroke="#bfbfbf" points="0,-6 0,-25 143,-25 143,-6 0,-6"/>
<text text-anchor="middle" x="71.5" y="-13" font-family="Helvetica,sans-Serif" font-size="10.00">G4OpBoundaryProcess.hh</text>
</a>
</g>
</g>
<!-- Node1&#45;&gt;Node2 -->
<g id="edge1" class="edge">
<title>Node1&#45;&gt;Node2</title>
<path fill="none" stroke="midnightblue" d="M199.15,-67.48C173.81,-57.36 131.36,-40.4 102.43,-28.85"/>
<polygon fill="midnightblue" stroke="midnightblue" points="103.39,-25.47 92.81,-25.01 100.8,-31.97 103.39,-25.47"/>
</g>
<!-- Node3 -->
<g id="node3" class="node">
<title>Node3</title>
<g id="a_node3"><a xlink:title=" ">
<polygon fill="white" stroke="#bfbfbf" points="161,-6 161,-25 280,-25 280,-6 161,-6"/>
<text text-anchor="middle" x="220.5" y="-13" font-family="Helvetica,sans-Serif" font-size="10.00">G4SystemOfUnits.hh</text>
</a>
</g>
</g>
<!-- Node1&#45;&gt;Node3 -->
<g id="edge2" class="edge">
<title>Node1&#45;&gt;Node3</title>
<path fill="none" stroke="midnightblue" d="M220.5,-67.48C220.5,-59.08 220.5,-45.98 220.5,-35.16"/>
<polygon fill="midnightblue" stroke="midnightblue" points="224,-35.01 220.5,-25.01 217,-35.01 224,-35.01"/>
</g>
<!-- Node4 -->
<g id="node4" class="node">
<title>Node4</title>
<g id="a_node4"><a xlink:title=" ">
<polygon fill="white" stroke="#bfbfbf" points="298,-0.5 298,-30.5 411,-30.5 411,-0.5 298,-0.5"/>
<text text-anchor="start" x="306" y="-18.5" font-family="Helvetica,sans-Serif" font-size="10.00">boost/property_tree</text>
<text text-anchor="middle" x="354.5" y="-7.5" font-family="Helvetica,sans-Serif" font-size="10.00">/json_parser.hpp</text>
</a>
</g>
</g>
<!-- Node1&#45;&gt;Node4 -->
<g id="edge3" class="edge">
<title>Node1&#45;&gt;Node4</title>
<path fill="none" stroke="midnightblue" d="M239.7,-67.48C258.87,-58.96 288.92,-45.62 313.47,-34.72"/>
<polygon fill="midnightblue" stroke="midnightblue" points="315.2,-37.78 322.92,-30.52 312.36,-31.38 315.2,-37.78"/>
</g>
</g>
</svg>
