<?xml version="1.0" encoding="UTF-8" standalone="no"?>
<!DOCTYPE svg PUBLIC "-//W3C//DTD SVG 1.1//EN"
 "http://www.w3.org/Graphics/SVG/1.1/DTD/svg11.dtd">
<!-- Generated by graphviz version 2.43.0 (0)
 -->
<!-- Title: OMSimCommandArgsTable.hh Pages: 1 -->
<svg width="2675pt" height="196pt"
 viewBox="0.00 0.00 2675.00 196.00" xmlns="http://www.w3.org/2000/svg" xmlns:xlink="http://www.w3.org/1999/xlink">
<g id="graph0" class="graph" transform="scale(1 1) rotate(0) translate(4 192)">
<title>OMSimCommandArgsTable.hh</title>
<polygon fill="white" stroke="transparent" points="-4,4 -4,-192 2671,-192 2671,4 -4,4"/>
<!-- Node1 -->
<g id="node1" class="node">
<title>Node1</title>
<g id="a_node1"><a xlink:title="Definition of the OMSimCommandArgsTable singleton class, which controls user args.">
<polygon fill="#bfbfbf" stroke="black" points="1275,-168.5 1275,-187.5 1439,-187.5 1439,-168.5 1275,-168.5"/>
<text text-anchor="middle" x="1357" y="-175.5" font-family="Helvetica,sans-Serif" font-size="10.00">OMSimCommandArgsTable.hh</text>
</a>
</g>
</g>
<!-- Node2 -->
<g id="node2" class="node">
<title>Node2</title>
<g id="a_node2"><a xlink:href="_o_m_sim_data_file_types_8hh.html" target="_top" xlink:title="Collection of classes and methods to handle material creation from user data in json files.">
<polygon fill="white" stroke="black" points="141.5,-112.5 141.5,-131.5 276.5,-131.5 276.5,-112.5 141.5,-112.5"/>
<text text-anchor="middle" x="209" y="-119.5" font-family="Helvetica,sans-Serif" font-size="10.00">OMSimDataFileTypes.hh</text>
</a>
</g>
</g>
<!-- Node1&#45;&gt;Node2 -->
<g id="edge1" class="edge">
<title>Node1&#45;&gt;Node2</title>
<path fill="none" stroke="midnightblue" d="M1264.89,-174.4C1082.75,-168.95 663.69,-154.93 312,-132 300.54,-131.25 288.37,-130.32 276.56,-129.33"/>
<polygon fill="midnightblue" stroke="midnightblue" points="1264.87,-177.9 1274.97,-174.7 1265.08,-170.9 1264.87,-177.9"/>
</g>
<!-- Node4 -->
<g id="node4" class="node">
<title>Node4</title>
<g id="a_node4"><a xlink:href="_o_m_sim_input_data_8cc.html" target="_top" xlink:title=" ">
<polygon fill="white" stroke="black" points="152.5,-56.5 152.5,-75.5 265.5,-75.5 265.5,-56.5 152.5,-56.5"/>
<text text-anchor="middle" x="209" y="-63.5" font-family="Helvetica,sans-Serif" font-size="10.00">OMSimInputData.cc</text>
</a>
</g>
</g>
<!-- Node1&#45;&gt;Node4 -->
<g id="edge14" class="edge">
<title>Node1&#45;&gt;Node4</title>
<path fill="none" stroke="midnightblue" d="M1264.43,-177.2C1050.47,-176.95 526.9,-172.13 356,-132 304.66,-119.94 249,-90.26 223.39,-75.55"/>
<polygon fill="midnightblue" stroke="midnightblue" points="1264.69,-180.7 1274.69,-177.21 1264.7,-173.7 1264.69,-180.7"/>
</g>
<!-- Node5 -->
<g id="node5" class="node">
<title>Node5</title>
<g id="a_node5"><a xlink:href="_o_m_sim_u_iinterface_8hh.html" target="_top" xlink:title="The OMSimUIinterface class provides a singleton interface to Geant4&#39;s UI manager.">
<polygon fill="white" stroke="black" points="364.5,-112.5 364.5,-131.5 485.5,-131.5 485.5,-112.5 364.5,-112.5"/>
<text text-anchor="middle" x="425" y="-119.5" font-family="Helvetica,sans-Serif" font-size="10.00">OMSimUIinterface.hh</text>
</a>
</g>
</g>
<!-- Node1&#45;&gt;Node5 -->
<g id="edge4" class="edge">
<title>Node1&#45;&gt;Node5</title>
<path fill="none" stroke="midnightblue" d="M1264.7,-174.47C1106.77,-169.64 774.67,-157.24 495,-132 491.95,-131.72 488.83,-131.42 485.68,-131.09"/>
<polygon fill="midnightblue" stroke="midnightblue" points="1264.74,-177.98 1274.84,-174.78 1264.95,-170.98 1264.74,-177.98"/>
</g>
<!-- Node14 -->
<g id="node14" class="node">
<title>Node14</title>
<g id="a_node14"><a xlink:href="_o_m_sim_hit_manager_8cc.html" target="_top" xlink:title=" ">
<polygon fill="white" stroke="black" points="504,-112.5 504,-131.5 626,-131.5 626,-112.5 504,-112.5"/>
<text text-anchor="middle" x="565" y="-119.5" font-family="Helvetica,sans-Serif" font-size="10.00">OMSimHitManager.cc</text>
</a>
</g>
</g>
<!-- Node1&#45;&gt;Node14 -->
<g id="edge13" class="edge">
<title>Node1&#45;&gt;Node14</title>
<path fill="none" stroke="midnightblue" d="M1264.9,-173.13C1127.68,-166.95 861.51,-153.31 636,-132 632.78,-131.7 629.49,-131.36 626.16,-131"/>
<polygon fill="midnightblue" stroke="midnightblue" points="1264.81,-176.63 1274.96,-173.58 1265.13,-169.64 1264.81,-176.63"/>
</g>
<!-- Node15 -->
<g id="node15" class="node">
<title>Node15</title>
<g id="a_node15"><a xlink:href="_o_m_sim_p_m_t_construction_8cc.html" target="_top" xlink:title=" ">
<polygon fill="white" stroke="black" points="644.5,-112.5 644.5,-131.5 791.5,-131.5 791.5,-112.5 644.5,-112.5"/>
<text text-anchor="middle" x="718" y="-119.5" font-family="Helvetica,sans-Serif" font-size="10.00">OMSimPMTConstruction.cc</text>
</a>
</g>
</g>
<!-- Node1&#45;&gt;Node15 -->
<g id="edge15" class="edge">
<title>Node1&#45;&gt;Node15</title>
<path fill="none" stroke="midnightblue" d="M1264.88,-170.32C1154.54,-162.13 964.15,-147.44 801,-132 797.97,-131.71 794.88,-131.41 791.76,-131.1"/>
<polygon fill="midnightblue" stroke="midnightblue" points="1264.75,-173.82 1274.98,-171.06 1265.26,-166.84 1264.75,-173.82"/>
</g>
<!-- Node16 -->
<g id="node16" class="node">
<title>Node16</title>
<g id="a_node16"><a xlink:href="_o_m_sim_m_d_o_m_8cc.html" target="_top" xlink:title=" ">
<polygon fill="white" stroke="black" points="810,-112.5 810,-131.5 908,-131.5 908,-112.5 810,-112.5"/>
<text text-anchor="middle" x="859" y="-119.5" font-family="Helvetica,sans-Serif" font-size="10.00">OMSimMDOM.cc</text>
</a>
</g>
</g>
<!-- Node1&#45;&gt;Node16 -->
<g id="edge16" class="edge">
<title>Node1&#45;&gt;Node16</title>
<path fill="none" stroke="midnightblue" d="M1264.87,-168.98C1175.73,-160.9 1036.9,-147.42 917,-132 914.07,-131.62 911.06,-131.22 908.02,-130.79"/>
<polygon fill="midnightblue" stroke="midnightblue" points="1264.67,-172.48 1274.95,-169.89 1265.3,-165.51 1264.67,-172.48"/>
</g>
<!-- Node17 -->
<g id="node17" class="node">
<title>Node17</title>
<g id="a_node17"><a xlink:href="_o_m_sim_m_d_o_m_harness_8cc.html" target="_top" xlink:title=" ">
<polygon fill="white" stroke="black" points="926,-112.5 926,-131.5 1064,-131.5 1064,-112.5 926,-112.5"/>
<text text-anchor="middle" x="995" y="-119.5" font-family="Helvetica,sans-Serif" font-size="10.00">OMSimMDOMHarness.cc</text>
</a>
</g>
</g>
<!-- Node1&#45;&gt;Node17 -->
<g id="edge17" class="edge">
<title>Node1&#45;&gt;Node17</title>
<path fill="none" stroke="midnightblue" d="M1289.4,-166.92C1221.02,-156.71 1116.45,-141.12 1052.09,-131.52"/>
<polygon fill="midnightblue" stroke="midnightblue" points="1289.23,-170.43 1299.64,-168.44 1290.27,-163.51 1289.23,-170.43"/>
</g>
<!-- Node18 -->
<g id="node18" class="node">
<title>Node18</title>
<g id="a_node18"><a xlink:href="effective__area_2src_2_o_m_sim_detector_construction_8cc.html" target="_top" xlink:title=" ">
<polygon fill="white" stroke="black" points="1082.5,-112.5 1082.5,-131.5 1251.5,-131.5 1251.5,-112.5 1082.5,-112.5"/>
<text text-anchor="middle" x="1167" y="-119.5" font-family="Helvetica,sans-Serif" font-size="10.00">OMSimDetectorConstruction.cc</text>
</a>
</g>
</g>
<!-- Node1&#45;&gt;Node18 -->
<g id="edge18" class="edge">
<title>Node1&#45;&gt;Node18</title>
<path fill="none" stroke="midnightblue" d="M1317.24,-165.7C1281.38,-155.51 1229.43,-140.74 1196.97,-131.52"/>
<polygon fill="midnightblue" stroke="midnightblue" points="1316.32,-169.08 1326.89,-168.44 1318.23,-162.34 1316.32,-169.08"/>
</g>
<!-- Node19 -->
<g id="node19" class="node">
<title>Node19</title>
<g id="a_node19"><a xlink:href="_o_m_sim_effective_area_analyisis_8cc.html" target="_top" xlink:title=" ">
<polygon fill="white" stroke="black" points="1269.5,-112.5 1269.5,-131.5 1444.5,-131.5 1444.5,-112.5 1269.5,-112.5"/>
<text text-anchor="middle" x="1357" y="-119.5" font-family="Helvetica,sans-Serif" font-size="10.00">OMSimEffectiveAreaAnalyisis.cc</text>
</a>
</g>
</g>
<!-- Node1&#45;&gt;Node19 -->
<g id="edge19" class="edge">
<title>Node1&#45;&gt;Node19</title>
<path fill="none" stroke="midnightblue" d="M1357,-157.8C1357,-148.91 1357,-138.78 1357,-131.75"/>
<polygon fill="midnightblue" stroke="midnightblue" points="1353.5,-158.08 1357,-168.08 1360.5,-158.08 1353.5,-158.08"/>
</g>
<!-- Node20 -->
<g id="node20" class="node">
<title>Node20</title>
<g id="a_node20"><a xlink:href="_o_m_sim_decays_analysis_8cc.html" target="_top" xlink:title=" ">
<polygon fill="white" stroke="black" points="1462.5,-112.5 1462.5,-131.5 1605.5,-131.5 1605.5,-112.5 1462.5,-112.5"/>
<text text-anchor="middle" x="1534" y="-119.5" font-family="Helvetica,sans-Serif" font-size="10.00">OMSimDecaysAnalysis.cc</text>
</a>
</g>
</g>
<!-- Node1&#45;&gt;Node20 -->
<g id="edge20" class="edge">
<title>Node1&#45;&gt;Node20</title>
<path fill="none" stroke="midnightblue" d="M1394.9,-165.44C1428.28,-155.26 1476.1,-140.66 1506.09,-131.52"/>
<polygon fill="midnightblue" stroke="midnightblue" points="1393.59,-162.18 1385.05,-168.44 1395.63,-168.87 1393.59,-162.18"/>
</g>
<!-- Node21 -->
<g id="node21" class="node">
<title>Node21</title>
<g id="a_node21"><a xlink:href="radioactive__decays_2src_2_o_m_sim_detector_construction_8cc.html" target="_top" xlink:title=" ">
<polygon fill="white" stroke="black" points="1623.5,-112.5 1623.5,-131.5 1792.5,-131.5 1792.5,-112.5 1623.5,-112.5"/>
<text text-anchor="middle" x="1708" y="-119.5" font-family="Helvetica,sans-Serif" font-size="10.00">OMSimDetectorConstruction.cc</text>
</a>
</g>
</g>
<!-- Node1&#45;&gt;Node21 -->
<g id="edge21" class="edge">
<title>Node1&#45;&gt;Node21</title>
<path fill="none" stroke="midnightblue" d="M1422.54,-166.92C1488.85,-156.71 1590.24,-141.12 1652.64,-131.52"/>
<polygon fill="midnightblue" stroke="midnightblue" points="1421.97,-163.46 1412.62,-168.44 1423.03,-170.38 1421.97,-163.46"/>
</g>
<!-- Node22 -->
<g id="node22" class="node">
<title>Node22</title>
<g id="a_node22"><a xlink:href="radioactive__decays_2src_2_o_m_sim_event_action_8cc.html" target="_top" xlink:title=" ">
<polygon fill="white" stroke="black" points="1810,-112.5 1810,-131.5 1934,-131.5 1934,-112.5 1810,-112.5"/>
<text text-anchor="middle" x="1872" y="-119.5" font-family="Helvetica,sans-Serif" font-size="10.00">OMSimEventAction.cc</text>
</a>
</g>
</g>
<!-- Node1&#45;&gt;Node22 -->
<g id="edge22" class="edge">
<title>Node1&#45;&gt;Node22</title>
<path fill="none" stroke="midnightblue" d="M1449.27,-168.4C1539.32,-159.84 1680.18,-145.99 1802,-132 1804.56,-131.71 1807.16,-131.4 1809.8,-131.09"/>
<polygon fill="midnightblue" stroke="midnightblue" points="1448.71,-164.94 1439.09,-169.37 1449.37,-171.91 1448.71,-164.94"/>
</g>
<!-- Node23 -->
<g id="node23" class="node">
<title>Node23</title>
<g id="a_node23"><a xlink:href="_o_m_sim_g4_radioactive_decay_8cc.html" target="_top" xlink:title=" ">
<polygon fill="white" stroke="black" points="1952,-112.5 1952,-131.5 2118,-131.5 2118,-112.5 1952,-112.5"/>
<text text-anchor="middle" x="2035" y="-119.5" font-family="Helvetica,sans-Serif" font-size="10.00">OMSimG4RadioactiveDecay.cc</text>
</a>
</g>
</g>
<!-- Node1&#45;&gt;Node23 -->
<g id="edge23" class="edge">
<title>Node1&#45;&gt;Node23</title>
<path fill="none" stroke="midnightblue" d="M1449.26,-170.51C1564.75,-162.26 1768.6,-147.23 1943,-132 1945.88,-131.75 1948.81,-131.49 1951.76,-131.22"/>
<polygon fill="midnightblue" stroke="midnightblue" points="1448.78,-167.04 1439.05,-171.24 1449.28,-174.02 1448.78,-167.04"/>
</g>
<!-- Node24 -->
<g id="node24" class="node">
<title>Node24</title>
<g id="a_node24"><a xlink:href="supernova_2src_2_o_m_sim_detector_construction_8cc.html" target="_top" xlink:title=" ">
<polygon fill="white" stroke="black" points="2136.5,-112.5 2136.5,-131.5 2305.5,-131.5 2305.5,-112.5 2136.5,-112.5"/>
<text text-anchor="middle" x="2221" y="-119.5" font-family="Helvetica,sans-Serif" font-size="10.00">OMSimDetectorConstruction.cc</text>
</a>
</g>
</g>
<!-- Node1&#45;&gt;Node24 -->
<g id="edge24" class="edge">
<title>Node1&#45;&gt;Node24</title>
<path fill="none" stroke="midnightblue" d="M1449.28,-172.71C1593.85,-165.75 1882.53,-150.84 2127,-132 2130.11,-131.76 2133.27,-131.51 2136.46,-131.24"/>
<polygon fill="midnightblue" stroke="midnightblue" points="1448.94,-169.23 1439.12,-173.2 1449.27,-176.22 1448.94,-169.23"/>
</g>
<!-- Node25 -->
<g id="node25" class="node">
<title>Node25</title>
<g id="a_node25"><a xlink:href="_o_m_sim_i_b_d_8cc.html" target="_top" xlink:title=" ">
<polygon fill="white" stroke="black" points="2323.5,-112.5 2323.5,-131.5 2406.5,-131.5 2406.5,-112.5 2323.5,-112.5"/>
<text text-anchor="middle" x="2365" y="-119.5" font-family="Helvetica,sans-Serif" font-size="10.00">OMSimIBD.cc</text>
</a>
</g>
</g>
<!-- Node1&#45;&gt;Node25 -->
<g id="edge25" class="edge">
<title>Node1&#45;&gt;Node25</title>
<path fill="none" stroke="midnightblue" d="M1449.54,-176.68C1620.87,-175.19 1998.83,-167.72 2315,-132 2317.72,-131.69 2320.51,-131.33 2323.32,-130.92"/>
<polygon fill="midnightblue" stroke="midnightblue" points="1449.27,-173.18 1439.3,-176.76 1449.33,-180.18 1449.27,-173.18"/>
</g>
<!-- Node26 -->
<g id="node26" class="node">
<title>Node26</title>
<g id="a_node26"><a xlink:href="_o_m_sim_s_n_analysis_8cc.html" target="_top" xlink:title="Analyze data and write output files.">
<polygon fill="white" stroke="black" points="2425,-112.5 2425,-131.5 2545,-131.5 2545,-112.5 2425,-112.5"/>
<text text-anchor="middle" x="2485" y="-119.5" font-family="Helvetica,sans-Serif" font-size="10.00">OMSimSNAnalysis.cc</text>
</a>
</g>
</g>
<!-- Node1&#45;&gt;Node26 -->
<g id="edge26" class="edge">
<title>Node1&#45;&gt;Node26</title>
<path fill="none" stroke="midnightblue" d="M1449.39,-175.78C1633.59,-172.76 2059.5,-162.77 2416,-132 2418.89,-131.75 2421.84,-131.47 2424.82,-131.16"/>
<polygon fill="midnightblue" stroke="midnightblue" points="1449.15,-172.29 1439.21,-175.95 1449.26,-179.28 1449.15,-172.29"/>
</g>
<!-- Node27 -->
<g id="node27" class="node">
<title>Node27</title>
<g id="a_node27"><a xlink:href="_o_m_sim_s_n_tools_8cc.html" target="_top" xlink:title=" ">
<polygon fill="white" stroke="black" points="2563,-112.5 2563,-131.5 2667,-131.5 2667,-112.5 2563,-112.5"/>
<text text-anchor="middle" x="2615" y="-119.5" font-family="Helvetica,sans-Serif" font-size="10.00">OMSimSNTools.cc</text>
</a>
</g>
</g>
<!-- Node1&#45;&gt;Node27 -->
<g id="edge27" class="edge">
<title>Node1&#45;&gt;Node27</title>
<path fill="none" stroke="midnightblue" d="M1449.43,-176.95C1650.66,-176.08 2143.36,-169.9 2554,-132 2556.88,-131.73 2559.83,-131.42 2562.8,-131.08"/>
<polygon fill="midnightblue" stroke="midnightblue" points="1449.18,-173.45 1439.2,-176.99 1449.21,-180.45 1449.18,-173.45"/>
</g>
<!-- Node3 -->
<g id="node3" class="node">
<title>Node3</title>
<g id="a_node3"><a xlink:href="_o_m_sim_data_file_types_8cc.html" target="_top" xlink:title=" ">
<polygon fill="white" stroke="black" points="0,-56.5 0,-75.5 134,-75.5 134,-56.5 0,-56.5"/>
<text text-anchor="middle" x="67" y="-63.5" font-family="Helvetica,sans-Serif" font-size="10.00">OMSimDataFileTypes.cc</text>
</a>
</g>
</g>
<!-- Node2&#45;&gt;Node3 -->
<g id="edge2" class="edge">
<title>Node2&#45;&gt;Node3</title>
<path fill="none" stroke="midnightblue" d="M176.84,-108.77C150.17,-98.63 112.93,-84.47 89.4,-75.52"/>
<polygon fill="midnightblue" stroke="midnightblue" points="175.91,-112.16 186.5,-112.44 178.4,-105.62 175.91,-112.16"/>
</g>
<!-- Node2&#45;&gt;Node4 -->
<g id="edge3" class="edge">
<title>Node2&#45;&gt;Node4</title>
<path fill="none" stroke="midnightblue" d="M209,-101.8C209,-92.91 209,-82.78 209,-75.75"/>
<polygon fill="midnightblue" stroke="midnightblue" points="205.5,-102.08 209,-112.08 212.5,-102.08 205.5,-102.08"/>
</g>
<!-- Node6 -->
<g id="node6" class="node">
<title>Node6</title>
<g id="a_node6"><a xlink:href="_o_m_sim_8hh.html" target="_top" xlink:title="Main simulation class for the Optical Module (OM) simulation. This file defines the OMSim class,...">
<polygon fill="white" stroke="black" points="283.5,-56.5 283.5,-75.5 350.5,-75.5 350.5,-56.5 283.5,-56.5"/>
<text text-anchor="middle" x="317" y="-63.5" font-family="Helvetica,sans-Serif" font-size="10.00">OMSim.hh</text>
</a>
</g>
</g>
<!-- Node5&#45;&gt;Node6 -->
<g id="edge5" class="edge">
<title>Node5&#45;&gt;Node6</title>
<path fill="none" stroke="midnightblue" d="M398.45,-107.73C378.45,-97.73 351.61,-84.31 334.31,-75.65"/>
<polygon fill="midnightblue" stroke="midnightblue" points="397.14,-110.98 407.65,-112.32 400.27,-104.72 397.14,-110.98"/>
</g>
<!-- Node11 -->
<g id="node11" class="node">
<title>Node11</title>
<g id="a_node11"><a xlink:href="_o_m_sim_m_d_o_m_flasher_8cc.html" target="_top" xlink:title=" ">
<polygon fill="white" stroke="black" points="369,-56.5 369,-75.5 503,-75.5 503,-56.5 369,-56.5"/>
<text text-anchor="middle" x="436" y="-63.5" font-family="Helvetica,sans-Serif" font-size="10.00">OMSimMDOMFlasher.cc</text>
</a>
</g>
</g>
<!-- Node5&#45;&gt;Node11 -->
<g id="edge10" class="edge">
<title>Node5&#45;&gt;Node11</title>
<path fill="none" stroke="midnightblue" d="M428.85,-102.1C430.68,-93.14 432.77,-82.86 434.22,-75.75"/>
<polygon fill="midnightblue" stroke="midnightblue" points="425.38,-101.59 426.82,-112.08 432.24,-102.98 425.38,-101.59"/>
</g>
<!-- Node12 -->
<g id="node12" class="node">
<title>Node12</title>
<g id="a_node12"><a xlink:href="_o_m_sim_angular_scan_8cc.html" target="_top" xlink:title=" ">
<polygon fill="white" stroke="black" points="521,-56.5 521,-75.5 647,-75.5 647,-56.5 521,-56.5"/>
<text text-anchor="middle" x="584" y="-63.5" font-family="Helvetica,sans-Serif" font-size="10.00">OMSimAngularScan.cc</text>
</a>
</g>
</g>
<!-- Node5&#45;&gt;Node12 -->
<g id="edge11" class="edge">
<title>Node5&#45;&gt;Node12</title>
<path fill="none" stroke="midnightblue" d="M459.83,-109.17C489.77,-99 532.22,-84.59 558.92,-75.52"/>
<polygon fill="midnightblue" stroke="midnightblue" points="458.54,-105.91 450.19,-112.44 460.79,-112.54 458.54,-105.91"/>
</g>
<!-- Node13 -->
<g id="node13" class="node">
<title>Node13</title>
<g id="a_node13"><a xlink:href="_o_m_sim_decays_g_p_s_8cc.html" target="_top" xlink:title=" ">
<polygon fill="white" stroke="black" points="665.5,-56.5 665.5,-75.5 786.5,-75.5 786.5,-56.5 665.5,-56.5"/>
<text text-anchor="middle" x="726" y="-63.5" font-family="Helvetica,sans-Serif" font-size="10.00">OMSimDecaysGPS.cc</text>
</a>
</g>
</g>
<!-- Node5&#45;&gt;Node13 -->
<g id="edge12" class="edge">
<title>Node5&#45;&gt;Node13</title>
<path fill="none" stroke="midnightblue" d="M482.61,-110.66C539.5,-100.46 625.45,-85.04 678.53,-75.52"/>
<polygon fill="midnightblue" stroke="midnightblue" points="481.92,-107.23 472.69,-112.44 483.16,-114.12 481.92,-107.23"/>
</g>
<!-- Node7 -->
<g id="node7" class="node">
<title>Node7</title>
<g id="a_node7"><a xlink:href="_o_m_sim_8cc.html" target="_top" xlink:title="Implementation of the OMSim class.">
<polygon fill="white" stroke="black" points="78.5,-0.5 78.5,-19.5 143.5,-19.5 143.5,-0.5 78.5,-0.5"/>
<text text-anchor="middle" x="111" y="-7.5" font-family="Helvetica,sans-Serif" font-size="10.00">OMSim.cc</text>
</a>
</g>
</g>
<!-- Node6&#45;&gt;Node7 -->
<g id="edge6" class="edge">
<title>Node6&#45;&gt;Node7</title>
<path fill="none" stroke="midnightblue" d="M274.38,-53.83C235.49,-43.63 178.84,-28.78 143.49,-19.52"/>
<polygon fill="midnightblue" stroke="midnightblue" points="273.8,-57.29 284.36,-56.44 275.57,-50.52 273.8,-57.29"/>
</g>
<!-- Node8 -->
<g id="node8" class="node">
<title>Node8</title>
<g id="a_node8"><a xlink:href="_o_m_sim__effective__area_8cc.html" target="_top" xlink:title="Main for the calculation of effective areas.">
<polygon fill="white" stroke="black" points="162,-0.5 162,-19.5 302,-19.5 302,-0.5 162,-0.5"/>
<text text-anchor="middle" x="232" y="-7.5" font-family="Helvetica,sans-Serif" font-size="10.00">OMSim_effective_area.cc</text>
</a>
</g>
</g>
<!-- Node6&#45;&gt;Node8 -->
<g id="edge7" class="edge">
<title>Node6&#45;&gt;Node8</title>
<path fill="none" stroke="midnightblue" d="M294.81,-50.9C279.22,-41 258.87,-28.07 245.62,-19.65"/>
<polygon fill="midnightblue" stroke="midnightblue" points="293.03,-53.92 303.34,-56.32 296.78,-48.01 293.03,-53.92"/>
</g>
<!-- Node9 -->
<g id="node9" class="node">
<title>Node9</title>
<g id="a_node9"><a xlink:href="_o_m_sim__radioactive__decays_8cc.html" target="_top" xlink:title=" ">
<polygon fill="white" stroke="black" points="320.5,-0.5 320.5,-19.5 485.5,-19.5 485.5,-0.5 320.5,-0.5"/>
<text text-anchor="middle" x="403" y="-7.5" font-family="Helvetica,sans-Serif" font-size="10.00">OMSim_radioactive_decays.cc</text>
</a>
</g>
</g>
<!-- Node6&#45;&gt;Node9 -->
<g id="edge8" class="edge">
<title>Node6&#45;&gt;Node9</title>
<path fill="none" stroke="midnightblue" d="M339.45,-50.9C355.22,-41 375.81,-28.07 389.22,-19.65"/>
<polygon fill="midnightblue" stroke="midnightblue" points="337.43,-48.04 330.82,-56.32 341.15,-53.97 337.43,-48.04"/>
</g>
<!-- Node10 -->
<g id="node10" class="node">
<title>Node10</title>
<g id="a_node10"><a xlink:href="_o_m_sim__supernova_8cc.html" target="_top" xlink:title=" ">
<polygon fill="white" stroke="black" points="504,-0.5 504,-19.5 626,-19.5 626,-0.5 504,-0.5"/>
<text text-anchor="middle" x="565" y="-7.5" font-family="Helvetica,sans-Serif" font-size="10.00">OMSim_supernova.cc</text>
</a>
</g>
</g>
<!-- Node6&#45;&gt;Node10 -->
<g id="edge9" class="edge">
<title>Node6&#45;&gt;Node10</title>
<path fill="none" stroke="midnightblue" d="M360.52,-55.52C407.19,-45.36 480.64,-29.37 525.64,-19.57"/>
<polygon fill="midnightblue" stroke="midnightblue" points="359.73,-52.11 350.7,-57.66 361.22,-58.95 359.73,-52.11"/>
</g>
</g>
</svg>
