<?xml version="1.0" encoding="UTF-8" standalone="no"?>
<!DOCTYPE svg PUBLIC "-//W3C//DTD SVG 1.1//EN"
 "http://www.w3.org/Graphics/SVG/1.1/DTD/svg11.dtd">
<!-- Generated by graphviz version 2.43.0 (0)
 -->
<!-- Title: OMSimPDOM.hh Pages: 1 -->
<svg width="290pt" height="84pt"
 viewBox="0.00 0.00 290.00 84.00" xmlns="http://www.w3.org/2000/svg" xmlns:xlink="http://www.w3.org/1999/xlink">
<g id="graph0" class="graph" transform="scale(1 1) rotate(0) translate(4 80)">
<title>OMSimPDOM.hh</title>
<polygon fill="white" stroke="transparent" points="-4,4 -4,-80 286,-80 286,4 -4,4"/>
<!-- Node1 -->
<g id="node1" class="node">
<title>Node1</title>
<g id="a_node1"><a xlink:title=" ">
<polygon fill="#bfbfbf" stroke="black" points="74,-56.5 74,-75.5 171,-75.5 171,-56.5 74,-56.5"/>
<text text-anchor="middle" x="122.5" y="-63.5" font-family="Helvetica,sans-Serif" font-size="10.00">OMSimPDOM.hh</text>
</a>
</g>
</g>
<!-- Node2 -->
<g id="node2" class="node">
<title>Node2</title>
<g id="a_node2"><a xlink:href="_o_m_sim_p_d_o_m_8cc.html" target="_top" xlink:title="Implementation of the pDOM/Gen1 DOM class.">
<polygon fill="white" stroke="black" points="0,-0.5 0,-19.5 95,-19.5 95,-0.5 0,-0.5"/>
<text text-anchor="middle" x="47.5" y="-7.5" font-family="Helvetica,sans-Serif" font-size="10.00">OMSimPDOM.cc</text>
</a>
</g>
</g>
<!-- Node1&#45;&gt;Node2 -->
<g id="edge1" class="edge">
<title>Node1&#45;&gt;Node2</title>
<path fill="none" stroke="midnightblue" d="M102.19,-50.38C88.64,-40.62 71.26,-28.11 59.77,-19.83"/>
<polygon fill="midnightblue" stroke="midnightblue" points="100.29,-53.32 110.45,-56.32 104.38,-47.64 100.29,-53.32"/>
</g>
<!-- Node3 -->
<g id="node3" class="node">
<title>Node3</title>
<g id="a_node3"><a xlink:href="_o_m_sim_detector_construction_8cc.html" target="_top" xlink:title="User defined detector.">
<polygon fill="white" stroke="black" points="113,-0.5 113,-19.5 282,-19.5 282,-0.5 113,-0.5"/>
<text text-anchor="middle" x="197.5" y="-7.5" font-family="Helvetica,sans-Serif" font-size="10.00">OMSimDetectorConstruction.cc</text>
</a>
</g>
</g>
<!-- Node1&#45;&gt;Node3 -->
<g id="edge2" class="edge">
<title>Node1&#45;&gt;Node3</title>
<path fill="none" stroke="midnightblue" d="M142.81,-50.38C156.36,-40.62 173.74,-28.11 185.23,-19.83"/>
<polygon fill="midnightblue" stroke="midnightblue" points="140.62,-47.64 134.55,-56.32 144.71,-53.32 140.62,-47.64"/>
</g>
</g>
</svg>
