<?xml version="1.0" encoding="UTF-8" standalone="no"?>
<!DOCTYPE svg PUBLIC "-//W3C//DTD SVG 1.1//EN"
 "http://www.w3.org/Graphics/SVG/1.1/DTD/svg11.dtd">
<!-- Generated by graphviz version 2.43.0 (0)
 -->
<!-- Title: OMSimPMTResponse.hh Pages: 1 -->
<svg width="933pt" height="196pt"
 viewBox="0.00 0.00 933.00 196.00" xmlns="http://www.w3.org/2000/svg" xmlns:xlink="http://www.w3.org/1999/xlink">
<g id="graph0" class="graph" transform="scale(1 1) rotate(0) translate(4 192)">
<title>OMSimPMTResponse.hh</title>
<polygon fill="white" stroke="transparent" points="-4,4 -4,-192 929,-192 929,4 -4,4"/>
<!-- Node1 -->
<g id="node1" class="node">
<title>Node1</title>
<g id="a_node1"><a xlink:title=" ">
<polygon fill="#bfbfbf" stroke="black" points="302,-168.5 302,-187.5 437,-187.5 437,-168.5 302,-168.5"/>
<text text-anchor="middle" x="369.5" y="-175.5" font-family="Helvetica,sans-Serif" font-size="10.00">OMSimPMTResponse.hh</text>
</a>
</g>
</g>
<!-- Node2 -->
<g id="node2" class="node">
<title>Node2</title>
<g id="a_node2"><a xlink:href="_o_m_sim_8h.html" target="_top" xlink:title=" ">
<polygon fill="white" stroke="black" points="33,-56.5 33,-75.5 94,-75.5 94,-56.5 33,-56.5"/>
<text text-anchor="middle" x="63.5" y="-63.5" font-family="Helvetica,sans-Serif" font-size="10.00">OMSim.h</text>
</a>
</g>
</g>
<!-- Node1&#45;&gt;Node2 -->
<g id="edge1" class="edge">
<title>Node1&#45;&gt;Node2</title>
<path fill="none" stroke="midnightblue" d="M291.53,-170.24C225.93,-163.35 138.21,-150.96 108.5,-132 86.98,-118.27 72.98,-90.18 66.93,-75.84"/>
<polygon fill="midnightblue" stroke="midnightblue" points="291.55,-173.76 301.86,-171.3 292.27,-166.79 291.55,-173.76"/>
</g>
<!-- Node4 -->
<g id="node4" class="node">
<title>Node4</title>
<g id="a_node4"><a xlink:href="_o_m_sim__effective__area_8cc.html" target="_top" xlink:title="Main for the calculation of effective areas.">
<polygon fill="white" stroke="black" points="83.5,-0.5 83.5,-19.5 223.5,-19.5 223.5,-0.5 83.5,-0.5"/>
<text text-anchor="middle" x="153.5" y="-7.5" font-family="Helvetica,sans-Serif" font-size="10.00">OMSim_effective_area.cc</text>
</a>
</g>
</g>
<!-- Node1&#45;&gt;Node4 -->
<g id="edge14" class="edge">
<title>Node1&#45;&gt;Node4</title>
<path fill="none" stroke="midnightblue" d="M297.81,-166.27C244.7,-154.16 175.83,-128.75 141.5,-76 130.11,-58.49 140.98,-33.03 148.22,-19.77"/>
<polygon fill="midnightblue" stroke="midnightblue" points="297.35,-169.75 307.86,-168.45 298.83,-162.91 297.35,-169.75"/>
</g>
<!-- Node5 -->
<g id="node5" class="node">
<title>Node5</title>
<g id="a_node5"><a xlink:href="_o_m_sim_p_m_t_response_8cc.html" target="_top" xlink:title="PMT response simulator.">
<polygon fill="white" stroke="black" points="500.5,-112.5 500.5,-131.5 634.5,-131.5 634.5,-112.5 500.5,-112.5"/>
<text text-anchor="middle" x="567.5" y="-119.5" font-family="Helvetica,sans-Serif" font-size="10.00">OMSimPMTResponse.cc</text>
</a>
</g>
</g>
<!-- Node1&#45;&gt;Node5 -->
<g id="edge4" class="edge">
<title>Node1&#45;&gt;Node5</title>
<path fill="none" stroke="midnightblue" d="M410.94,-165.7C448.31,-155.51 502.44,-140.74 536.27,-131.52"/>
<polygon fill="midnightblue" stroke="midnightblue" points="409.6,-162.44 400.87,-168.44 411.44,-169.19 409.6,-162.44"/>
</g>
<!-- Node6 -->
<g id="node6" class="node">
<title>Node6</title>
<g id="a_node6"><a xlink:href="_o_m_sim_analysis_manager_8hh.html" target="_top" xlink:title=" ">
<polygon fill="white" stroke="black" points="294.5,-112.5 294.5,-131.5 444.5,-131.5 444.5,-112.5 294.5,-112.5"/>
<text text-anchor="middle" x="369.5" y="-119.5" font-family="Helvetica,sans-Serif" font-size="10.00">OMSimAnalysisManager.hh</text>
</a>
</g>
</g>
<!-- Node1&#45;&gt;Node6 -->
<g id="edge5" class="edge">
<title>Node1&#45;&gt;Node6</title>
<path fill="none" stroke="midnightblue" d="M369.5,-157.8C369.5,-148.91 369.5,-138.78 369.5,-131.75"/>
<polygon fill="midnightblue" stroke="midnightblue" points="366,-158.08 369.5,-168.08 373,-158.08 366,-158.08"/>
</g>
<!-- Node11 -->
<g id="node11" class="node">
<title>Node11</title>
<g id="a_node11"><a xlink:href="_o_m_sim_tracking_action_8cc.html" target="_top" xlink:title=" ">
<polygon fill="white" stroke="black" points="788,-56.5 788,-75.5 925,-75.5 925,-56.5 788,-56.5"/>
<text text-anchor="middle" x="856.5" y="-63.5" font-family="Helvetica,sans-Serif" font-size="10.00">OMSimTrackingAction.cc</text>
</a>
</g>
</g>
<!-- Node1&#45;&gt;Node11 -->
<g id="edge13" class="edge">
<title>Node1&#45;&gt;Node11</title>
<path fill="none" stroke="midnightblue" d="M394.99,-163.34C430.37,-144.4 490.21,-112.41 491.5,-112 498.5,-109.79 684,-87.51 787.79,-75.15"/>
<polygon fill="midnightblue" stroke="midnightblue" points="392.89,-160.5 385.73,-168.3 396.2,-166.67 392.89,-160.5"/>
</g>
<!-- Node3 -->
<g id="node3" class="node">
<title>Node3</title>
<g id="a_node3"><a xlink:href="_o_m_sim_8cc.html" target="_top" xlink:title=" ">
<polygon fill="white" stroke="black" points="0,-0.5 0,-19.5 65,-19.5 65,-0.5 0,-0.5"/>
<text text-anchor="middle" x="32.5" y="-7.5" font-family="Helvetica,sans-Serif" font-size="10.00">OMSim.cc</text>
</a>
</g>
</g>
<!-- Node2&#45;&gt;Node3 -->
<g id="edge2" class="edge">
<title>Node2&#45;&gt;Node3</title>
<path fill="none" stroke="midnightblue" d="M53.32,-47.27C48.03,-38.05 41.78,-27.17 37.52,-19.75"/>
<polygon fill="midnightblue" stroke="midnightblue" points="50.37,-49.15 58.38,-56.08 56.44,-45.67 50.37,-49.15"/>
</g>
<!-- Node2&#45;&gt;Node4 -->
<g id="edge3" class="edge">
<title>Node2&#45;&gt;Node4</title>
<path fill="none" stroke="midnightblue" d="M86.54,-51.18C103.1,-41.24 124.92,-28.15 139.08,-19.65"/>
<polygon fill="midnightblue" stroke="midnightblue" points="84.73,-48.18 77.96,-56.32 88.34,-54.18 84.73,-48.18"/>
</g>
<!-- Node6&#45;&gt;Node2 -->
<g id="edge6" class="edge">
<title>Node6&#45;&gt;Node2</title>
<path fill="none" stroke="midnightblue" d="M310.96,-110.67C246.29,-99.26 144.61,-81.31 94.09,-72.4"/>
<polygon fill="midnightblue" stroke="midnightblue" points="310.56,-114.15 321.01,-112.44 311.77,-107.26 310.56,-114.15"/>
</g>
<!-- Node6&#45;&gt;Node4 -->
<g id="edge12" class="edge">
<title>Node6&#45;&gt;Node4</title>
<path fill="none" stroke="midnightblue" d="M355.25,-104.31C341.93,-89.68 320.79,-68.8 298.5,-56 267.3,-38.09 228.14,-26.48 198.39,-19.55"/>
<polygon fill="midnightblue" stroke="midnightblue" points="352.89,-106.93 362.14,-112.1 358.13,-102.29 352.89,-106.93"/>
</g>
<!-- Node7 -->
<g id="node7" class="node">
<title>Node7</title>
<g id="a_node7"><a xlink:href="_o_m_sim_analysis_manager_8cc.html" target="_top" xlink:title=" ">
<polygon fill="white" stroke="black" points="346,-56.5 346,-75.5 495,-75.5 495,-56.5 346,-56.5"/>
<text text-anchor="middle" x="420.5" y="-63.5" font-family="Helvetica,sans-Serif" font-size="10.00">OMSimAnalysisManager.cc</text>
</a>
</g>
</g>
<!-- Node6&#45;&gt;Node7 -->
<g id="edge7" class="edge">
<title>Node6&#45;&gt;Node7</title>
<path fill="none" stroke="midnightblue" d="M384.88,-104.72C393.87,-95.2 404.86,-83.56 412.24,-75.75"/>
<polygon fill="midnightblue" stroke="midnightblue" points="382.24,-102.41 377.92,-112.08 387.33,-107.22 382.24,-102.41"/>
</g>
<!-- Node8 -->
<g id="node8" class="node">
<title>Node8</title>
<g id="a_node8"><a xlink:href="_o_m_sim_event_action_8cc.html" target="_top" xlink:title=" ">
<polygon fill="white" stroke="black" points="512.5,-56.5 512.5,-75.5 636.5,-75.5 636.5,-56.5 512.5,-56.5"/>
<text text-anchor="middle" x="574.5" y="-63.5" font-family="Helvetica,sans-Serif" font-size="10.00">OMSimEventAction.cc</text>
</a>
</g>
</g>
<!-- Node6&#45;&gt;Node8 -->
<g id="edge8" class="edge">
<title>Node6&#45;&gt;Node8</title>
<path fill="none" stroke="midnightblue" d="M411.91,-109.83C450.61,-99.63 506.99,-84.78 542.17,-75.52"/>
<polygon fill="midnightblue" stroke="midnightblue" points="410.76,-106.51 401.98,-112.44 412.54,-113.28 410.76,-106.51"/>
</g>
<!-- Node9 -->
<g id="node9" class="node">
<title>Node9</title>
<g id="a_node9"><a xlink:href="_o_m_sim_run_action_8cc.html" target="_top" xlink:title=" ">
<polygon fill="white" stroke="black" points="655,-56.5 655,-75.5 770,-75.5 770,-56.5 655,-56.5"/>
<text text-anchor="middle" x="712.5" y="-63.5" font-family="Helvetica,sans-Serif" font-size="10.00">OMSimRunAction.cc</text>
</a>
</g>
</g>
<!-- Node6&#45;&gt;Node9 -->
<g id="edge9" class="edge">
<title>Node6&#45;&gt;Node9</title>
<path fill="none" stroke="midnightblue" d="M433.95,-110.85C498.75,-100.65 597.55,-85.1 658.4,-75.52"/>
<polygon fill="midnightblue" stroke="midnightblue" points="433.18,-107.43 423.85,-112.44 434.27,-114.35 433.18,-107.43"/>
</g>
<!-- Node10 -->
<g id="node10" class="node">
<title>Node10</title>
<g id="a_node10"><a xlink:href="_o_m_sim_stepping_action_8cc.html" target="_top" xlink:title=" ">
<polygon fill="white" stroke="black" points="151,-56.5 151,-75.5 290,-75.5 290,-56.5 151,-56.5"/>
<text text-anchor="middle" x="220.5" y="-63.5" font-family="Helvetica,sans-Serif" font-size="10.00">OMSimSteppingAction.cc</text>
</a>
</g>
</g>
<!-- Node6&#45;&gt;Node10 -->
<g id="edge10" class="edge">
<title>Node6&#45;&gt;Node10</title>
<path fill="none" stroke="midnightblue" d="M336.13,-108.91C308.12,-98.75 268.8,-84.51 244,-75.52"/>
<polygon fill="midnightblue" stroke="midnightblue" points="335.3,-112.33 345.89,-112.44 337.68,-105.75 335.3,-112.33"/>
</g>
<!-- Node6&#45;&gt;Node11 -->
<g id="edge11" class="edge">
<title>Node6&#45;&gt;Node11</title>
<path fill="none" stroke="midnightblue" d="M454.84,-111.81C537.79,-102.84 667.31,-88.71 779.5,-76 782.17,-75.7 784.9,-75.39 787.66,-75.07"/>
<polygon fill="midnightblue" stroke="midnightblue" points="454.27,-108.35 444.71,-112.91 455.03,-115.31 454.27,-108.35"/>
</g>
</g>
</svg>
