<?xml version="1.0" encoding="UTF-8" standalone="no"?>
<!DOCTYPE svg PUBLIC "-//W3C//DTD SVG 1.1//EN"
 "http://www.w3.org/Graphics/SVG/1.1/DTD/svg11.dtd">
<!-- Generated by graphviz version 2.43.0 (0)
 -->
<!-- Title: OMSimMDOMFlasher.cc Pages: 1 -->
<svg width="1038pt" height="319pt"
 viewBox="0.00 0.00 1037.50 319.00" xmlns="http://www.w3.org/2000/svg" xmlns:xlink="http://www.w3.org/1999/xlink">
<g id="graph0" class="graph" transform="scale(1 1) rotate(0) translate(4 315)">
<title>OMSimMDOMFlasher.cc</title>
<polygon fill="white" stroke="transparent" points="-4,4 -4,-315 1033.5,-315 1033.5,4 -4,4"/>
<!-- Node1 -->
<g id="node1" class="node">
<title>Node1</title>
<g id="a_node1"><a xlink:title=" ">
<polygon fill="#bfbfbf" stroke="black" points="766.5,-291.5 766.5,-310.5 900.5,-310.5 900.5,-291.5 766.5,-291.5"/>
<text text-anchor="middle" x="833.5" y="-298.5" font-family="Helvetica,sans-Serif" font-size="10.00">OMSimMDOMFlasher.cc</text>
</a>
</g>
</g>
<!-- Node2 -->
<g id="node2" class="node">
<title>Node2</title>
<g id="a_node2"><a xlink:href="_o_m_sim_m_d_o_m_8hh.html" target="_top" xlink:title=" ">
<polygon fill="white" stroke="black" points="424.5,-235.5 424.5,-254.5 524.5,-254.5 524.5,-235.5 424.5,-235.5"/>
<text text-anchor="middle" x="474.5" y="-242.5" font-family="Helvetica,sans-Serif" font-size="10.00">OMSimMDOM.hh</text>
</a>
</g>
</g>
<!-- Node1&#45;&gt;Node2 -->
<g id="edge1" class="edge">
<title>Node1&#45;&gt;Node2</title>
<path fill="none" stroke="midnightblue" d="M776.62,-291.44C710.61,-281.51 602.22,-265.21 534.8,-255.07"/>
<polygon fill="midnightblue" stroke="midnightblue" points="535.16,-251.58 524.75,-253.56 534.11,-258.51 535.16,-251.58"/>
</g>
<!-- Node17 -->
<g id="node17" class="node">
<title>Node17</title>
<g id="a_node17"><a xlink:href="_o_m_sim_u_iinterface_8hh.html" target="_top" xlink:title="The OMSimUIinterface class provides a singleton interface to Geant4&#39;s UI manager.">
<polygon fill="white" stroke="black" points="717,-235.5 717,-254.5 838,-254.5 838,-235.5 717,-235.5"/>
<text text-anchor="middle" x="777.5" y="-242.5" font-family="Helvetica,sans-Serif" font-size="10.00">OMSimUIinterface.hh</text>
</a>
</g>
</g>
<!-- Node1&#45;&gt;Node17 -->
<g id="edge18" class="edge">
<title>Node1&#45;&gt;Node17</title>
<path fill="none" stroke="midnightblue" d="M824.5,-291.32C816.31,-283.42 803.99,-271.55 794.03,-261.94"/>
<polygon fill="midnightblue" stroke="midnightblue" points="796.29,-259.26 786.66,-254.83 791.43,-264.29 796.29,-259.26"/>
</g>
<!-- Node26 -->
<g id="node26" class="node">
<title>Node26</title>
<g id="a_node26"><a xlink:title=" ">
<polygon fill="white" stroke="#bfbfbf" points="856,-235.5 856,-254.5 925,-254.5 925,-235.5 856,-235.5"/>
<text text-anchor="middle" x="890.5" y="-242.5" font-family="Helvetica,sans-Serif" font-size="10.00">G4Cons.hh</text>
</a>
</g>
</g>
<!-- Node1&#45;&gt;Node26 -->
<g id="edge27" class="edge">
<title>Node1&#45;&gt;Node26</title>
<path fill="none" stroke="midnightblue" d="M842.66,-291.32C851,-283.42 863.53,-271.55 873.68,-261.94"/>
<polygon fill="midnightblue" stroke="midnightblue" points="876.32,-264.25 881.18,-254.83 871.51,-259.17 876.32,-264.25"/>
</g>
<!-- Node27 -->
<g id="node27" class="node">
<title>Node27</title>
<g id="a_node27"><a xlink:title=" ">
<polygon fill="white" stroke="#bfbfbf" points="943.5,-235.5 943.5,-254.5 1029.5,-254.5 1029.5,-235.5 943.5,-235.5"/>
<text text-anchor="middle" x="986.5" y="-242.5" font-family="Helvetica,sans-Serif" font-size="10.00">G4Ellipsoid.hh</text>
</a>
</g>
</g>
<!-- Node1&#45;&gt;Node27 -->
<g id="edge28" class="edge">
<title>Node1&#45;&gt;Node27</title>
<path fill="none" stroke="midnightblue" d="M857.74,-291.44C883.37,-282.4 923.99,-268.06 952.74,-257.92"/>
<polygon fill="midnightblue" stroke="midnightblue" points="954.11,-261.15 962.37,-254.52 951.78,-254.54 954.11,-261.15"/>
</g>
<!-- Node3 -->
<g id="node3" class="node">
<title>Node3</title>
<g id="a_node3"><a xlink:href="_o_m_sim_m_d_o_m_flasher_8hh.html" target="_top" xlink:title=" ">
<polygon fill="white" stroke="black" points="407,-179.5 407,-198.5 542,-198.5 542,-179.5 407,-179.5"/>
<text text-anchor="middle" x="474.5" y="-186.5" font-family="Helvetica,sans-Serif" font-size="10.00">OMSimMDOMFlasher.hh</text>
</a>
</g>
</g>
<!-- Node2&#45;&gt;Node3 -->
<g id="edge2" class="edge">
<title>Node2&#45;&gt;Node3</title>
<path fill="none" stroke="midnightblue" d="M474.5,-235.08C474.5,-228.01 474.5,-217.86 474.5,-208.99"/>
<polygon fill="midnightblue" stroke="midnightblue" points="478,-208.75 474.5,-198.75 471,-208.75 478,-208.75"/>
</g>
<!-- Node15 -->
<g id="node15" class="node">
<title>Node15</title>
<g id="a_node15"><a xlink:href="_o_m_sim_p_m_t_construction_8hh.html" target="_top" xlink:title=" ">
<polygon fill="white" stroke="black" points="240,-179.5 240,-198.5 389,-198.5 389,-179.5 240,-179.5"/>
<text text-anchor="middle" x="314.5" y="-186.5" font-family="Helvetica,sans-Serif" font-size="10.00">OMSimPMTConstruction.hh</text>
</a>
</g>
</g>
<!-- Node2&#45;&gt;Node15 -->
<g id="edge14" class="edge">
<title>Node2&#45;&gt;Node15</title>
<path fill="none" stroke="midnightblue" d="M449.15,-235.44C422.23,-226.36 379.5,-211.94 349.41,-201.78"/>
<polygon fill="midnightblue" stroke="midnightblue" points="350.33,-198.4 339.73,-198.52 348.09,-205.03 350.33,-198.4"/>
</g>
<!-- Node4 -->
<g id="node4" class="node">
<title>Node4</title>
<g id="a_node4"><a xlink:href="abc_detector_component_8hh.html" target="_top" xlink:title=" ">
<polygon fill="white" stroke="black" points="241,-123.5 241,-142.5 388,-142.5 388,-123.5 241,-123.5"/>
<text text-anchor="middle" x="314.5" y="-130.5" font-family="Helvetica,sans-Serif" font-size="10.00">abcDetectorComponent.hh</text>
</a>
</g>
</g>
<!-- Node3&#45;&gt;Node4 -->
<g id="edge3" class="edge">
<title>Node3&#45;&gt;Node4</title>
<path fill="none" stroke="midnightblue" d="M449.15,-179.44C422.23,-170.36 379.5,-155.94 349.41,-145.78"/>
<polygon fill="midnightblue" stroke="midnightblue" points="350.33,-142.4 339.73,-142.52 348.09,-149.03 350.33,-142.4"/>
</g>
<!-- Node13 -->
<g id="node13" class="node">
<title>Node13</title>
<g id="a_node13"><a xlink:title=" ">
<polygon fill="white" stroke="#bfbfbf" points="406.5,-123.5 406.5,-142.5 504.5,-142.5 504.5,-123.5 406.5,-123.5"/>
<text text-anchor="middle" x="455.5" y="-130.5" font-family="Helvetica,sans-Serif" font-size="10.00">G4UnionSolid.hh</text>
</a>
</g>
</g>
<!-- Node3&#45;&gt;Node13 -->
<g id="edge12" class="edge">
<title>Node3&#45;&gt;Node13</title>
<path fill="none" stroke="midnightblue" d="M471.36,-179.08C468.82,-171.85 465.14,-161.41 461.97,-152.4"/>
<polygon fill="midnightblue" stroke="midnightblue" points="465.2,-151.02 458.58,-142.75 458.6,-153.35 465.2,-151.02"/>
</g>
<!-- Node14 -->
<g id="node14" class="node">
<title>Node14</title>
<g id="a_node14"><a xlink:title=" ">
<polygon fill="white" stroke="#bfbfbf" points="522.5,-123.5 522.5,-142.5 614.5,-142.5 614.5,-123.5 522.5,-123.5"/>
<text text-anchor="middle" x="568.5" y="-130.5" font-family="Helvetica,sans-Serif" font-size="10.00">G4Navigator.hh</text>
</a>
</g>
</g>
<!-- Node3&#45;&gt;Node14 -->
<g id="edge13" class="edge">
<title>Node3&#45;&gt;Node14</title>
<path fill="none" stroke="midnightblue" d="M489.6,-179.32C504.4,-170.82 527.19,-157.73 544.48,-147.8"/>
<polygon fill="midnightblue" stroke="midnightblue" points="546.51,-150.67 553.43,-142.65 543.02,-144.6 546.51,-150.67"/>
</g>
<!-- Node5 -->
<g id="node5" class="node">
<title>Node5</title>
<g id="a_node5"><a xlink:href="_o_m_sim_input_data_8hh.html" target="_top" xlink:title=" ">
<polygon fill="white" stroke="black" points="524,-67.5 524,-86.5 639,-86.5 639,-67.5 524,-67.5"/>
<text text-anchor="middle" x="581.5" y="-74.5" font-family="Helvetica,sans-Serif" font-size="10.00">OMSimInputData.hh</text>
</a>
</g>
</g>
<!-- Node4&#45;&gt;Node5 -->
<g id="edge4" class="edge">
<title>Node4&#45;&gt;Node5</title>
<path fill="none" stroke="midnightblue" d="M356.81,-123.44C403.58,-113.98 478.96,-98.74 529.35,-88.55"/>
<polygon fill="midnightblue" stroke="midnightblue" points="530.28,-91.93 539.39,-86.52 528.9,-85.07 530.28,-91.93"/>
</g>
<!-- Node9 -->
<g id="node9" class="node">
<title>Node9</title>
<g id="a_node9"><a xlink:title=" ">
<polygon fill="white" stroke="#bfbfbf" points="0,-67.5 0,-86.5 107,-86.5 107,-67.5 0,-67.5"/>
<text text-anchor="middle" x="53.5" y="-74.5" font-family="Helvetica,sans-Serif" font-size="10.00">G4Transform3D.hh</text>
</a>
</g>
</g>
<!-- Node4&#45;&gt;Node9 -->
<g id="edge8" class="edge">
<title>Node4&#45;&gt;Node9</title>
<path fill="none" stroke="midnightblue" d="M273.14,-123.44C227.42,-113.98 153.74,-98.74 104.48,-88.55"/>
<polygon fill="midnightblue" stroke="midnightblue" points="105.16,-85.12 94.66,-86.52 103.75,-91.97 105.16,-85.12"/>
</g>
<!-- Node10 -->
<g id="node10" class="node">
<title>Node10</title>
<g id="a_node10"><a xlink:title=" ">
<polygon fill="white" stroke="#bfbfbf" points="125.5,-67.5 125.5,-86.5 233.5,-86.5 233.5,-67.5 125.5,-67.5"/>
<text text-anchor="middle" x="179.5" y="-74.5" font-family="Helvetica,sans-Serif" font-size="10.00">G4VisAttributes.hh</text>
</a>
</g>
</g>
<!-- Node4&#45;&gt;Node10 -->
<g id="edge9" class="edge">
<title>Node4&#45;&gt;Node10</title>
<path fill="none" stroke="midnightblue" d="M293.11,-123.44C270.79,-114.52 235.6,-100.44 210.29,-90.32"/>
<polygon fill="midnightblue" stroke="midnightblue" points="211.38,-86.98 200.79,-86.52 208.78,-93.48 211.38,-86.98"/>
</g>
<!-- Node11 -->
<g id="node11" class="node">
<title>Node11</title>
<g id="a_node11"><a xlink:title=" ">
<polygon fill="white" stroke="#bfbfbf" points="252,-67.5 252,-86.5 377,-86.5 377,-67.5 252,-67.5"/>
<text text-anchor="middle" x="314.5" y="-74.5" font-family="Helvetica,sans-Serif" font-size="10.00">G4SubtractionSolid.hh</text>
</a>
</g>
</g>
<!-- Node4&#45;&gt;Node11 -->
<g id="edge10" class="edge">
<title>Node4&#45;&gt;Node11</title>
<path fill="none" stroke="midnightblue" d="M314.5,-123.08C314.5,-116.01 314.5,-105.86 314.5,-96.99"/>
<polygon fill="midnightblue" stroke="midnightblue" points="318,-96.75 314.5,-86.75 311,-96.75 318,-96.75"/>
</g>
<!-- Node12 -->
<g id="node12" class="node">
<title>Node12</title>
<g id="a_node12"><a xlink:title=" ">
<polygon fill="white" stroke="#bfbfbf" points="395.5,-67.5 395.5,-86.5 505.5,-86.5 505.5,-67.5 395.5,-67.5"/>
<text text-anchor="middle" x="450.5" y="-74.5" font-family="Helvetica,sans-Serif" font-size="10.00">G4PVPlacement.hh</text>
</a>
</g>
</g>
<!-- Node4&#45;&gt;Node12 -->
<g id="edge11" class="edge">
<title>Node4&#45;&gt;Node12</title>
<path fill="none" stroke="midnightblue" d="M336.05,-123.44C358.53,-114.52 393.99,-100.44 419.48,-90.32"/>
<polygon fill="midnightblue" stroke="midnightblue" points="421.05,-93.46 429.05,-86.52 418.47,-86.95 421.05,-93.46"/>
</g>
<!-- Node6 -->
<g id="node6" class="node">
<title>Node6</title>
<g id="a_node6"><a xlink:title=" ">
<polygon fill="white" stroke="#bfbfbf" points="379,-0.5 379,-30.5 492,-30.5 492,-0.5 379,-0.5"/>
<text text-anchor="start" x="387" y="-18.5" font-family="Helvetica,sans-Serif" font-size="10.00">boost/property_tree</text>
<text text-anchor="middle" x="435.5" y="-7.5" font-family="Helvetica,sans-Serif" font-size="10.00">/json_parser.hpp</text>
</a>
</g>
</g>
<!-- Node5&#45;&gt;Node6 -->
<g id="edge5" class="edge">
<title>Node5&#45;&gt;Node6</title>
<path fill="none" stroke="midnightblue" d="M560.58,-67.48C539.51,-58.89 506.37,-45.38 479.49,-34.43"/>
<polygon fill="midnightblue" stroke="midnightblue" points="480.49,-31.06 469.91,-30.52 477.85,-37.54 480.49,-31.06"/>
</g>
<!-- Node7 -->
<g id="node7" class="node">
<title>Node7</title>
<g id="a_node7"><a xlink:title=" ">
<polygon fill="white" stroke="#bfbfbf" points="510,-6 510,-25 653,-25 653,-6 510,-6"/>
<text text-anchor="middle" x="581.5" y="-13" font-family="Helvetica,sans-Serif" font-size="10.00">G4OpBoundaryProcess.hh</text>
</a>
</g>
</g>
<!-- Node5&#45;&gt;Node7 -->
<g id="edge6" class="edge">
<title>Node5&#45;&gt;Node7</title>
<path fill="none" stroke="midnightblue" d="M581.5,-67.48C581.5,-59.08 581.5,-45.98 581.5,-35.16"/>
<polygon fill="midnightblue" stroke="midnightblue" points="585,-35.01 581.5,-25.01 578,-35.01 585,-35.01"/>
</g>
<!-- Node8 -->
<g id="node8" class="node">
<title>Node8</title>
<g id="a_node8"><a xlink:title=" ">
<polygon fill="white" stroke="#bfbfbf" points="671,-6 671,-25 790,-25 790,-6 671,-6"/>
<text text-anchor="middle" x="730.5" y="-13" font-family="Helvetica,sans-Serif" font-size="10.00">G4SystemOfUnits.hh</text>
</a>
</g>
</g>
<!-- Node5&#45;&gt;Node8 -->
<g id="edge7" class="edge">
<title>Node5&#45;&gt;Node8</title>
<path fill="none" stroke="midnightblue" d="M602.85,-67.48C628.19,-57.36 670.64,-40.4 699.57,-28.85"/>
<polygon fill="midnightblue" stroke="midnightblue" points="701.2,-31.97 709.19,-25.01 698.61,-25.47 701.2,-31.97"/>
</g>
<!-- Node15&#45;&gt;Node4 -->
<g id="edge15" class="edge">
<title>Node15&#45;&gt;Node4</title>
<path fill="none" stroke="midnightblue" d="M314.5,-179.08C314.5,-172.01 314.5,-161.86 314.5,-152.99"/>
<polygon fill="midnightblue" stroke="midnightblue" points="318,-152.75 314.5,-142.75 311,-152.75 318,-152.75"/>
</g>
<!-- Node15&#45;&gt;Node13 -->
<g id="edge16" class="edge">
<title>Node15&#45;&gt;Node13</title>
<path fill="none" stroke="midnightblue" d="M336.84,-179.44C360.25,-170.48 397.24,-156.31 423.69,-146.18"/>
<polygon fill="midnightblue" stroke="midnightblue" points="425.18,-149.36 433.26,-142.52 422.67,-142.82 425.18,-149.36"/>
</g>
<!-- Node16 -->
<g id="node16" class="node">
<title>Node16</title>
<g id="a_node16"><a xlink:title=" ">
<polygon fill="white" stroke="#bfbfbf" points="156,-123.5 156,-142.5 223,-142.5 223,-123.5 156,-123.5"/>
<text text-anchor="middle" x="189.5" y="-130.5" font-family="Helvetica,sans-Serif" font-size="10.00">G4Tubs.hh</text>
</a>
</g>
</g>
<!-- Node15&#45;&gt;Node16 -->
<g id="edge17" class="edge">
<title>Node15&#45;&gt;Node16</title>
<path fill="none" stroke="midnightblue" d="M294.69,-179.44C274.21,-170.6 242.02,-156.69 218.64,-146.59"/>
<polygon fill="midnightblue" stroke="midnightblue" points="219.78,-143.27 209.21,-142.52 217.01,-149.7 219.78,-143.27"/>
</g>
<!-- Node18 -->
<g id="node18" class="node">
<title>Node18</title>
<g id="a_node18"><a xlink:href="_o_m_sim_command_args_table_8hh.html" target="_top" xlink:title="Definition of the OMSimCommandArgsTable singleton class, which controls user args.">
<polygon fill="white" stroke="black" points="695.5,-179.5 695.5,-198.5 859.5,-198.5 859.5,-179.5 695.5,-179.5"/>
<text text-anchor="middle" x="777.5" y="-186.5" font-family="Helvetica,sans-Serif" font-size="10.00">OMSimCommandArgsTable.hh</text>
</a>
</g>
</g>
<!-- Node17&#45;&gt;Node18 -->
<g id="edge19" class="edge">
<title>Node17&#45;&gt;Node18</title>
<path fill="none" stroke="midnightblue" d="M777.5,-235.08C777.5,-228.01 777.5,-217.86 777.5,-208.99"/>
<polygon fill="midnightblue" stroke="midnightblue" points="781,-208.75 777.5,-198.75 774,-208.75 781,-208.75"/>
</g>
<!-- Node25 -->
<g id="node25" class="node">
<title>Node25</title>
<g id="a_node25"><a xlink:title=" ">
<polygon fill="white" stroke="#bfbfbf" points="877.5,-179.5 877.5,-198.5 975.5,-198.5 975.5,-179.5 877.5,-179.5"/>
<text text-anchor="middle" x="926.5" y="-186.5" font-family="Helvetica,sans-Serif" font-size="10.00">G4UImanager.hh</text>
</a>
</g>
</g>
<!-- Node17&#45;&gt;Node25 -->
<g id="edge26" class="edge">
<title>Node17&#45;&gt;Node25</title>
<path fill="none" stroke="midnightblue" d="M801.11,-235.44C825.96,-226.44 865.27,-212.19 893.25,-202.05"/>
<polygon fill="midnightblue" stroke="midnightblue" points="894.79,-205.21 903,-198.52 892.41,-198.63 894.79,-205.21"/>
</g>
<!-- Node19 -->
<g id="node19" class="node">
<title>Node19</title>
<g id="a_node19"><a xlink:href="_o_m_sim_logger_8hh.html" target="_top" xlink:title=" ">
<polygon fill="white" stroke="black" points="633,-123.5 633,-142.5 732,-142.5 732,-123.5 633,-123.5"/>
<text text-anchor="middle" x="682.5" y="-130.5" font-family="Helvetica,sans-Serif" font-size="10.00">OMSimLogger.hh</text>
</a>
</g>
</g>
<!-- Node18&#45;&gt;Node19 -->
<g id="edge20" class="edge">
<title>Node18&#45;&gt;Node19</title>
<path fill="none" stroke="midnightblue" d="M762.24,-179.32C747.28,-170.82 724.25,-157.73 706.77,-147.8"/>
<polygon fill="midnightblue" stroke="midnightblue" points="708.15,-144.55 697.73,-142.65 704.69,-150.64 708.15,-144.55"/>
</g>
<!-- Node22 -->
<g id="node22" class="node">
<title>Node22</title>
<g id="a_node22"><a xlink:title=" ">
<polygon fill="white" stroke="#bfbfbf" points="750,-123.5 750,-142.5 805,-142.5 805,-123.5 750,-123.5"/>
<text text-anchor="middle" x="777.5" y="-130.5" font-family="Helvetica,sans-Serif" font-size="10.00">fstream</text>
</a>
</g>
</g>
<!-- Node18&#45;&gt;Node22 -->
<g id="edge23" class="edge">
<title>Node18&#45;&gt;Node22</title>
<path fill="none" stroke="midnightblue" d="M777.5,-179.08C777.5,-172.01 777.5,-161.86 777.5,-152.99"/>
<polygon fill="midnightblue" stroke="midnightblue" points="781,-152.75 777.5,-142.75 774,-152.75 781,-152.75"/>
</g>
<!-- Node23 -->
<g id="node23" class="node">
<title>Node23</title>
<g id="a_node23"><a xlink:title=" ">
<polygon fill="white" stroke="#bfbfbf" points="823.5,-123.5 823.5,-142.5 907.5,-142.5 907.5,-123.5 823.5,-123.5"/>
<text text-anchor="middle" x="865.5" y="-130.5" font-family="Helvetica,sans-Serif" font-size="10.00">boost/any.hpp</text>
</a>
</g>
</g>
<!-- Node18&#45;&gt;Node23 -->
<g id="edge24" class="edge">
<title>Node18&#45;&gt;Node23</title>
<path fill="none" stroke="midnightblue" d="M791.64,-179.32C805.37,-170.9 826.44,-157.97 842.56,-148.07"/>
<polygon fill="midnightblue" stroke="midnightblue" points="844.7,-150.87 851.4,-142.65 841.04,-144.9 844.7,-150.87"/>
</g>
<!-- Node24 -->
<g id="node24" class="node">
<title>Node24</title>
<g id="a_node24"><a xlink:title=" ">
<polygon fill="white" stroke="#bfbfbf" points="925.5,-123.5 925.5,-142.5 993.5,-142.5 993.5,-123.5 925.5,-123.5"/>
<text text-anchor="middle" x="959.5" y="-130.5" font-family="Helvetica,sans-Serif" font-size="10.00">sys/time.h</text>
</a>
</g>
</g>
<!-- Node18&#45;&gt;Node24 -->
<g id="edge25" class="edge">
<title>Node18&#45;&gt;Node24</title>
<path fill="none" stroke="midnightblue" d="M806.34,-179.44C837.36,-170.24 886.83,-155.56 921.12,-145.39"/>
<polygon fill="midnightblue" stroke="midnightblue" points="922.21,-148.72 930.8,-142.52 920.21,-142.01 922.21,-148.72"/>
</g>
<!-- Node20 -->
<g id="node20" class="node">
<title>Node20</title>
<g id="a_node20"><a xlink:title=" ">
<polygon fill="white" stroke="#bfbfbf" points="724.5,-67.5 724.5,-86.5 774.5,-86.5 774.5,-67.5 724.5,-67.5"/>
<text text-anchor="middle" x="749.5" y="-74.5" font-family="Helvetica,sans-Serif" font-size="10.00">stdio.h</text>
</a>
</g>
</g>
<!-- Node19&#45;&gt;Node20 -->
<g id="edge21" class="edge">
<title>Node19&#45;&gt;Node20</title>
<path fill="none" stroke="midnightblue" d="M693.26,-123.32C703.27,-115.26 718.39,-103.08 730.43,-93.37"/>
<polygon fill="midnightblue" stroke="midnightblue" points="732.95,-95.83 738.54,-86.83 728.56,-90.38 732.95,-95.83"/>
</g>
<!-- Node21 -->
<g id="node21" class="node">
<title>Node21</title>
<g id="a_node21"><a xlink:title=" ">
<polygon fill="white" stroke="#bfbfbf" points="658.5,-67.5 658.5,-86.5 706.5,-86.5 706.5,-67.5 658.5,-67.5"/>
<text text-anchor="middle" x="682.5" y="-74.5" font-family="Helvetica,sans-Serif" font-size="10.00">time.h</text>
</a>
</g>
</g>
<!-- Node19&#45;&gt;Node21 -->
<g id="edge22" class="edge">
<title>Node19&#45;&gt;Node21</title>
<path fill="none" stroke="midnightblue" d="M682.5,-123.08C682.5,-116.01 682.5,-105.86 682.5,-96.99"/>
<polygon fill="midnightblue" stroke="midnightblue" points="686,-96.75 682.5,-86.75 679,-96.75 686,-96.75"/>
</g>
</g>
</svg>
