<?xml version="1.0" encoding="UTF-8" standalone="no"?>
<!DOCTYPE svg PUBLIC "-//W3C//DTD SVG 1.1//EN"
 "http://www.w3.org/Graphics/SVG/1.1/DTD/svg11.dtd">
<!-- Generated by graphviz version 2.43.0 (0)
 -->
<!-- Title: OMSimMDOMHarness.cc Pages: 1 -->
<svg width="1499pt" height="375pt"
 viewBox="0.00 0.00 1499.00 375.00" xmlns="http://www.w3.org/2000/svg" xmlns:xlink="http://www.w3.org/1999/xlink">
<g id="graph0" class="graph" transform="scale(1 1) rotate(0) translate(4 371)">
<title>OMSimMDOMHarness.cc</title>
<polygon fill="white" stroke="transparent" points="-4,4 -4,-371 1495,-371 1495,4 -4,4"/>
<!-- Node1 -->
<g id="node1" class="node">
<title>Node1</title>
<g id="a_node1"><a xlink:title="Construction of mDOM harness.">
<polygon fill="#bfbfbf" stroke="black" points="974.5,-347.5 974.5,-366.5 1112.5,-366.5 1112.5,-347.5 974.5,-347.5"/>
<text text-anchor="middle" x="1043.5" y="-354.5" font-family="Helvetica,sans-Serif" font-size="10.00">OMSimMDOMHarness.cc</text>
</a>
</g>
</g>
<!-- Node2 -->
<g id="node2" class="node">
<title>Node2</title>
<g id="a_node2"><a xlink:href="_o_m_sim_m_d_o_m_harness_8hh.html" target="_top" xlink:title=" ">
<polygon fill="white" stroke="black" points="348.5,-291.5 348.5,-310.5 488.5,-310.5 488.5,-291.5 348.5,-291.5"/>
<text text-anchor="middle" x="418.5" y="-298.5" font-family="Helvetica,sans-Serif" font-size="10.00">OMSimMDOMHarness.hh</text>
</a>
</g>
</g>
<!-- Node1&#45;&gt;Node2 -->
<g id="edge1" class="edge">
<title>Node1&#45;&gt;Node2</title>
<path fill="none" stroke="midnightblue" d="M974.23,-350.01C857.53,-339.93 622.4,-319.62 498.72,-308.93"/>
<polygon fill="midnightblue" stroke="midnightblue" points="498.83,-305.43 488.56,-308.05 498.22,-312.4 498.83,-305.43"/>
</g>
<!-- Node14 -->
<g id="node14" class="node">
<title>Node14</title>
<g id="a_node14"><a xlink:href="_o_m_sim_m_d_o_m_8hh.html" target="_top" xlink:title=" ">
<polygon fill="white" stroke="black" points="606.5,-291.5 606.5,-310.5 706.5,-310.5 706.5,-291.5 606.5,-291.5"/>
<text text-anchor="middle" x="656.5" y="-298.5" font-family="Helvetica,sans-Serif" font-size="10.00">OMSimMDOM.hh</text>
</a>
</g>
</g>
<!-- Node1&#45;&gt;Node14 -->
<g id="edge13" class="edge">
<title>Node1&#45;&gt;Node14</title>
<path fill="none" stroke="midnightblue" d="M982.18,-347.44C909.56,-337.31 789.35,-320.54 717.06,-310.45"/>
<polygon fill="midnightblue" stroke="midnightblue" points="717.14,-306.93 706.75,-309.01 716.18,-313.86 717.14,-306.93"/>
</g>
<!-- Node21 -->
<g id="node21" class="node">
<title>Node21</title>
<g id="a_node21"><a xlink:href="_o_m_sim_command_args_table_8hh.html" target="_top" xlink:title="Definition of the OMSimCommandArgsTable singleton class, which controls user args.">
<polygon fill="white" stroke="black" points="750.5,-291.5 750.5,-310.5 914.5,-310.5 914.5,-291.5 750.5,-291.5"/>
<text text-anchor="middle" x="832.5" y="-298.5" font-family="Helvetica,sans-Serif" font-size="10.00">OMSimCommandArgsTable.hh</text>
</a>
</g>
</g>
<!-- Node1&#45;&gt;Node21 -->
<g id="edge25" class="edge">
<title>Node1&#45;&gt;Node21</title>
<path fill="none" stroke="midnightblue" d="M1010.07,-347.44C973.64,-338.12 915.27,-323.18 875.47,-313"/>
<polygon fill="midnightblue" stroke="midnightblue" points="876.33,-309.61 865.78,-310.52 874.6,-316.39 876.33,-309.61"/>
</g>
<!-- Node28 -->
<g id="node28" class="node">
<title>Node28</title>
<g id="a_node28"><a xlink:title=" ">
<polygon fill="white" stroke="#bfbfbf" points="932.5,-291.5 932.5,-310.5 1042.5,-310.5 1042.5,-291.5 932.5,-291.5"/>
<text text-anchor="middle" x="987.5" y="-298.5" font-family="Helvetica,sans-Serif" font-size="10.00">G4EllipticalTube.hh</text>
</a>
</g>
</g>
<!-- Node1&#45;&gt;Node28 -->
<g id="edge32" class="edge">
<title>Node1&#45;&gt;Node28</title>
<path fill="none" stroke="midnightblue" d="M1034.5,-347.32C1026.31,-339.42 1013.99,-327.55 1004.03,-317.94"/>
<polygon fill="midnightblue" stroke="midnightblue" points="1006.29,-315.26 996.66,-310.83 1001.43,-320.29 1006.29,-315.26"/>
</g>
<!-- Node29 -->
<g id="node29" class="node">
<title>Node29</title>
<g id="a_node29"><a xlink:title=" ">
<polygon fill="white" stroke="#bfbfbf" points="1061,-291.5 1061,-310.5 1140,-310.5 1140,-291.5 1061,-291.5"/>
<text text-anchor="middle" x="1100.5" y="-298.5" font-family="Helvetica,sans-Serif" font-size="10.00">G4Sphere.hh</text>
</a>
</g>
</g>
<!-- Node1&#45;&gt;Node29 -->
<g id="edge33" class="edge">
<title>Node1&#45;&gt;Node29</title>
<path fill="none" stroke="midnightblue" d="M1052.66,-347.32C1061,-339.42 1073.53,-327.55 1083.68,-317.94"/>
<polygon fill="midnightblue" stroke="midnightblue" points="1086.32,-320.25 1091.18,-310.83 1081.51,-315.17 1086.32,-320.25"/>
</g>
<!-- Node30 -->
<g id="node30" class="node">
<title>Node30</title>
<g id="a_node30"><a xlink:title=" ">
<polygon fill="white" stroke="#bfbfbf" points="1158,-291.5 1158,-310.5 1295,-310.5 1295,-291.5 1158,-291.5"/>
<text text-anchor="middle" x="1226.5" y="-298.5" font-family="Helvetica,sans-Serif" font-size="10.00">G4LogicalSkinSurface.hh</text>
</a>
</g>
</g>
<!-- Node1&#45;&gt;Node30 -->
<g id="edge34" class="edge">
<title>Node1&#45;&gt;Node30</title>
<path fill="none" stroke="midnightblue" d="M1072.5,-347.44C1103.68,-338.24 1153.43,-323.56 1187.91,-313.39"/>
<polygon fill="midnightblue" stroke="midnightblue" points="1189.04,-316.7 1197.64,-310.52 1187.06,-309.99 1189.04,-316.7"/>
</g>
<!-- Node31 -->
<g id="node31" class="node">
<title>Node31</title>
<g id="a_node31"><a xlink:title=" ">
<polygon fill="white" stroke="#bfbfbf" points="1313,-291.5 1313,-310.5 1402,-310.5 1402,-291.5 1313,-291.5"/>
<text text-anchor="middle" x="1357.5" y="-298.5" font-family="Helvetica,sans-Serif" font-size="10.00">G4Polycone.hh</text>
</a>
</g>
</g>
<!-- Node1&#45;&gt;Node31 -->
<g id="edge35" class="edge">
<title>Node1&#45;&gt;Node31</title>
<path fill="none" stroke="midnightblue" d="M1093.25,-347.44C1150.31,-337.63 1243.55,-321.6 1302.66,-311.43"/>
<polygon fill="midnightblue" stroke="midnightblue" points="1303.3,-314.87 1312.56,-309.73 1302.11,-307.97 1303.3,-314.87"/>
</g>
<!-- Node32 -->
<g id="node32" class="node">
<title>Node32</title>
<g id="a_node32"><a xlink:title=" ">
<polygon fill="white" stroke="#bfbfbf" points="1420,-291.5 1420,-310.5 1491,-310.5 1491,-291.5 1420,-291.5"/>
<text text-anchor="middle" x="1455.5" y="-298.5" font-family="Helvetica,sans-Serif" font-size="10.00">G4Torus.hh</text>
</a>
</g>
</g>
<!-- Node1&#45;&gt;Node32 -->
<g id="edge36" class="edge">
<title>Node1&#45;&gt;Node32</title>
<path fill="none" stroke="midnightblue" d="M1112.58,-349.22C1184.46,-341.79 1300.51,-328.74 1409.35,-311.25"/>
<polygon fill="midnightblue" stroke="midnightblue" points="1410.21,-314.66 1419.52,-309.6 1409.09,-307.75 1410.21,-314.66"/>
</g>
<!-- Node3 -->
<g id="node3" class="node">
<title>Node3</title>
<g id="a_node3"><a xlink:href="abc_detector_component_8hh.html" target="_top" xlink:title="Provides helper base class abcDetectorComponent for constructing and managing detector components in ...">
<polygon fill="white" stroke="black" points="402,-123.5 402,-142.5 549,-142.5 549,-123.5 402,-123.5"/>
<text text-anchor="middle" x="475.5" y="-130.5" font-family="Helvetica,sans-Serif" font-size="10.00">abcDetectorComponent.hh</text>
</a>
</g>
</g>
<!-- Node2&#45;&gt;Node3 -->
<g id="edge2" class="edge">
<title>Node2&#45;&gt;Node3</title>
<path fill="none" stroke="midnightblue" d="M421.56,-291.08C430.58,-264.83 457.11,-187.55 469.28,-152.12"/>
<polygon fill="midnightblue" stroke="midnightblue" points="472.62,-153.16 472.56,-142.57 466,-150.89 472.62,-153.16"/>
</g>
<!-- Node12 -->
<g id="node12" class="node">
<title>Node12</title>
<g id="a_node12"><a xlink:title=" ">
<polygon fill="white" stroke="#bfbfbf" points="207,-235.5 207,-254.5 334,-254.5 334,-235.5 207,-235.5"/>
<text text-anchor="middle" x="270.5" y="-242.5" font-family="Helvetica,sans-Serif" font-size="10.00">G4IntersectionSolid.hh</text>
</a>
</g>
</g>
<!-- Node2&#45;&gt;Node12 -->
<g id="edge11" class="edge">
<title>Node2&#45;&gt;Node12</title>
<path fill="none" stroke="midnightblue" d="M395.05,-291.44C370.37,-282.44 331.31,-268.19 303.52,-258.05"/>
<polygon fill="midnightblue" stroke="midnightblue" points="304.44,-254.66 293.84,-254.52 302.04,-261.23 304.44,-254.66"/>
</g>
<!-- Node13 -->
<g id="node13" class="node">
<title>Node13</title>
<g id="a_node13"><a xlink:title=" ">
<polygon fill="white" stroke="#bfbfbf" points="352,-235.5 352,-254.5 421,-254.5 421,-235.5 352,-235.5"/>
<text text-anchor="middle" x="386.5" y="-242.5" font-family="Helvetica,sans-Serif" font-size="10.00">G4Cons.hh</text>
</a>
</g>
</g>
<!-- Node2&#45;&gt;Node13 -->
<g id="edge12" class="edge">
<title>Node2&#45;&gt;Node13</title>
<path fill="none" stroke="midnightblue" d="M413.22,-291.08C408.79,-283.61 402.34,-272.72 396.88,-263.52"/>
<polygon fill="midnightblue" stroke="midnightblue" points="399.79,-261.57 391.69,-254.75 393.77,-265.14 399.79,-261.57"/>
</g>
<!-- Node4 -->
<g id="node4" class="node">
<title>Node4</title>
<g id="a_node4"><a xlink:href="_o_m_sim_input_data_8hh.html" target="_top" xlink:title="Input data from external files are read and saved to memory.">
<polygon fill="white" stroke="black" points="163,-67.5 163,-86.5 278,-86.5 278,-67.5 163,-67.5"/>
<text text-anchor="middle" x="220.5" y="-74.5" font-family="Helvetica,sans-Serif" font-size="10.00">OMSimInputData.hh</text>
</a>
</g>
</g>
<!-- Node3&#45;&gt;Node4 -->
<g id="edge3" class="edge">
<title>Node3&#45;&gt;Node4</title>
<path fill="none" stroke="midnightblue" d="M435.09,-123.44C390.52,-114 318.73,-98.8 270.61,-88.61"/>
<polygon fill="midnightblue" stroke="midnightblue" points="271.22,-85.16 260.72,-86.52 269.77,-92.01 271.22,-85.16"/>
</g>
<!-- Node8 -->
<g id="node8" class="node">
<title>Node8</title>
<g id="a_node8"><a xlink:title=" ">
<polygon fill="white" stroke="#bfbfbf" points="296,-67.5 296,-86.5 403,-86.5 403,-67.5 296,-67.5"/>
<text text-anchor="middle" x="349.5" y="-74.5" font-family="Helvetica,sans-Serif" font-size="10.00">G4Transform3D.hh</text>
</a>
</g>
</g>
<!-- Node3&#45;&gt;Node8 -->
<g id="edge7" class="edge">
<title>Node3&#45;&gt;Node8</title>
<path fill="none" stroke="midnightblue" d="M455.53,-123.44C434.89,-114.6 402.44,-100.69 378.87,-90.59"/>
<polygon fill="midnightblue" stroke="midnightblue" points="379.94,-87.24 369.37,-86.52 377.18,-93.67 379.94,-87.24"/>
</g>
<!-- Node9 -->
<g id="node9" class="node">
<title>Node9</title>
<g id="a_node9"><a xlink:title=" ">
<polygon fill="white" stroke="#bfbfbf" points="421.5,-67.5 421.5,-86.5 529.5,-86.5 529.5,-67.5 421.5,-67.5"/>
<text text-anchor="middle" x="475.5" y="-74.5" font-family="Helvetica,sans-Serif" font-size="10.00">G4VisAttributes.hh</text>
</a>
</g>
</g>
<!-- Node3&#45;&gt;Node9 -->
<g id="edge8" class="edge">
<title>Node3&#45;&gt;Node9</title>
<path fill="none" stroke="midnightblue" d="M475.5,-123.08C475.5,-116.01 475.5,-105.86 475.5,-96.99"/>
<polygon fill="midnightblue" stroke="midnightblue" points="479,-96.75 475.5,-86.75 472,-96.75 479,-96.75"/>
</g>
<!-- Node10 -->
<g id="node10" class="node">
<title>Node10</title>
<g id="a_node10"><a xlink:title=" ">
<polygon fill="white" stroke="#bfbfbf" points="548,-67.5 548,-86.5 673,-86.5 673,-67.5 548,-67.5"/>
<text text-anchor="middle" x="610.5" y="-74.5" font-family="Helvetica,sans-Serif" font-size="10.00">G4SubtractionSolid.hh</text>
</a>
</g>
</g>
<!-- Node3&#45;&gt;Node10 -->
<g id="edge9" class="edge">
<title>Node3&#45;&gt;Node10</title>
<path fill="none" stroke="midnightblue" d="M496.89,-123.44C519.21,-114.52 554.4,-100.44 579.71,-90.32"/>
<polygon fill="midnightblue" stroke="midnightblue" points="581.22,-93.48 589.21,-86.52 578.62,-86.98 581.22,-93.48"/>
</g>
<!-- Node11 -->
<g id="node11" class="node">
<title>Node11</title>
<g id="a_node11"><a xlink:title=" ">
<polygon fill="white" stroke="#bfbfbf" points="691.5,-67.5 691.5,-86.5 801.5,-86.5 801.5,-67.5 691.5,-67.5"/>
<text text-anchor="middle" x="746.5" y="-74.5" font-family="Helvetica,sans-Serif" font-size="10.00">G4PVPlacement.hh</text>
</a>
</g>
</g>
<!-- Node3&#45;&gt;Node11 -->
<g id="edge10" class="edge">
<title>Node3&#45;&gt;Node11</title>
<path fill="none" stroke="midnightblue" d="M518.44,-123.44C566.01,-113.96 642.74,-98.67 693.89,-88.48"/>
<polygon fill="midnightblue" stroke="midnightblue" points="694.64,-91.9 703.76,-86.52 693.27,-85.04 694.64,-91.9"/>
</g>
<!-- Node5 -->
<g id="node5" class="node">
<title>Node5</title>
<g id="a_node5"><a xlink:title=" ">
<polygon fill="white" stroke="#bfbfbf" points="0,-6 0,-25 143,-25 143,-6 0,-6"/>
<text text-anchor="middle" x="71.5" y="-13" font-family="Helvetica,sans-Serif" font-size="10.00">G4OpBoundaryProcess.hh</text>
</a>
</g>
</g>
<!-- Node4&#45;&gt;Node5 -->
<g id="edge4" class="edge">
<title>Node4&#45;&gt;Node5</title>
<path fill="none" stroke="midnightblue" d="M199.15,-67.48C173.81,-57.36 131.36,-40.4 102.43,-28.85"/>
<polygon fill="midnightblue" stroke="midnightblue" points="103.39,-25.47 92.81,-25.01 100.8,-31.97 103.39,-25.47"/>
</g>
<!-- Node6 -->
<g id="node6" class="node">
<title>Node6</title>
<g id="a_node6"><a xlink:title=" ">
<polygon fill="white" stroke="#bfbfbf" points="161,-6 161,-25 280,-25 280,-6 161,-6"/>
<text text-anchor="middle" x="220.5" y="-13" font-family="Helvetica,sans-Serif" font-size="10.00">G4SystemOfUnits.hh</text>
</a>
</g>
</g>
<!-- Node4&#45;&gt;Node6 -->
<g id="edge5" class="edge">
<title>Node4&#45;&gt;Node6</title>
<path fill="none" stroke="midnightblue" d="M220.5,-67.48C220.5,-59.08 220.5,-45.98 220.5,-35.16"/>
<polygon fill="midnightblue" stroke="midnightblue" points="224,-35.01 220.5,-25.01 217,-35.01 224,-35.01"/>
</g>
<!-- Node7 -->
<g id="node7" class="node">
<title>Node7</title>
<g id="a_node7"><a xlink:title=" ">
<polygon fill="white" stroke="#bfbfbf" points="298,-0.5 298,-30.5 411,-30.5 411,-0.5 298,-0.5"/>
<text text-anchor="start" x="306" y="-18.5" font-family="Helvetica,sans-Serif" font-size="10.00">boost/property_tree</text>
<text text-anchor="middle" x="354.5" y="-7.5" font-family="Helvetica,sans-Serif" font-size="10.00">/json_parser.hpp</text>
</a>
</g>
</g>
<!-- Node4&#45;&gt;Node7 -->
<g id="edge6" class="edge">
<title>Node4&#45;&gt;Node7</title>
<path fill="none" stroke="midnightblue" d="M239.7,-67.48C258.87,-58.96 288.92,-45.62 313.47,-34.72"/>
<polygon fill="midnightblue" stroke="midnightblue" points="315.2,-37.78 322.92,-30.52 312.36,-31.38 315.2,-37.78"/>
</g>
<!-- Node15 -->
<g id="node15" class="node">
<title>Node15</title>
<g id="a_node15"><a xlink:href="_o_m_sim_m_d_o_m_flasher_8hh.html" target="_top" xlink:title=" ">
<polygon fill="white" stroke="black" points="682,-179.5 682,-198.5 817,-198.5 817,-179.5 682,-179.5"/>
<text text-anchor="middle" x="749.5" y="-186.5" font-family="Helvetica,sans-Serif" font-size="10.00">OMSimMDOMFlasher.hh</text>
</a>
</g>
</g>
<!-- Node14&#45;&gt;Node15 -->
<g id="edge14" class="edge">
<title>Node14&#45;&gt;Node15</title>
<path fill="none" stroke="midnightblue" d="M661.6,-291.13C669.24,-278.17 684.48,-253.58 700.5,-235 709.72,-224.31 721.3,-213.57 730.89,-205.27"/>
<polygon fill="midnightblue" stroke="midnightblue" points="733.32,-207.79 738.69,-198.66 728.8,-202.45 733.32,-207.79"/>
</g>
<!-- Node18 -->
<g id="node18" class="node">
<title>Node18</title>
<g id="a_node18"><a xlink:href="_o_m_sim_p_m_t_construction_8hh.html" target="_top" xlink:title="Construction of the PMTs.">
<polygon fill="white" stroke="black" points="515,-179.5 515,-198.5 664,-198.5 664,-179.5 515,-179.5"/>
<text text-anchor="middle" x="589.5" y="-186.5" font-family="Helvetica,sans-Serif" font-size="10.00">OMSimPMTConstruction.hh</text>
</a>
</g>
</g>
<!-- Node14&#45;&gt;Node18 -->
<g id="edge18" class="edge">
<title>Node14&#45;&gt;Node18</title>
<path fill="none" stroke="midnightblue" d="M652.69,-291.32C646.98,-278.61 635.57,-254.32 623.5,-235 617.34,-225.14 609.58,-214.74 603.03,-206.43"/>
<polygon fill="midnightblue" stroke="midnightblue" points="605.75,-204.23 596.76,-198.63 600.3,-208.62 605.75,-204.23"/>
</g>
<!-- Node20 -->
<g id="node20" class="node">
<title>Node20</title>
<g id="a_node20"><a xlink:href="_o_m_sim_optical_module_8hh.html" target="_top" xlink:title=" ">
<polygon fill="white" stroke="black" points="478,-235.5 478,-254.5 615,-254.5 615,-235.5 478,-235.5"/>
<text text-anchor="middle" x="546.5" y="-242.5" font-family="Helvetica,sans-Serif" font-size="10.00">OMSimOpticalModule.hh</text>
</a>
</g>
</g>
<!-- Node14&#45;&gt;Node20 -->
<g id="edge22" class="edge">
<title>Node14&#45;&gt;Node20</title>
<path fill="none" stroke="midnightblue" d="M638.83,-291.32C621.11,-282.62 593.6,-269.12 573.21,-259.11"/>
<polygon fill="midnightblue" stroke="midnightblue" points="574.65,-255.92 564.13,-254.65 571.56,-262.2 574.65,-255.92"/>
</g>
<!-- Node15&#45;&gt;Node3 -->
<g id="edge15" class="edge">
<title>Node15&#45;&gt;Node3</title>
<path fill="none" stroke="midnightblue" d="M706.08,-179.44C657.98,-169.96 580.41,-154.67 528.69,-144.48"/>
<polygon fill="midnightblue" stroke="midnightblue" points="529.2,-141.02 518.71,-142.52 527.85,-147.88 529.2,-141.02"/>
</g>
<!-- Node16 -->
<g id="node16" class="node">
<title>Node16</title>
<g id="a_node16"><a xlink:title=" ">
<polygon fill="white" stroke="#bfbfbf" points="652.5,-123.5 652.5,-142.5 750.5,-142.5 750.5,-123.5 652.5,-123.5"/>
<text text-anchor="middle" x="701.5" y="-130.5" font-family="Helvetica,sans-Serif" font-size="10.00">G4UnionSolid.hh</text>
</a>
</g>
</g>
<!-- Node15&#45;&gt;Node16 -->
<g id="edge16" class="edge">
<title>Node15&#45;&gt;Node16</title>
<path fill="none" stroke="midnightblue" d="M741.57,-179.08C734.65,-171.3 724.43,-159.8 716.05,-150.37"/>
<polygon fill="midnightblue" stroke="midnightblue" points="718.54,-147.9 709.28,-142.75 713.31,-152.55 718.54,-147.9"/>
</g>
<!-- Node17 -->
<g id="node17" class="node">
<title>Node17</title>
<g id="a_node17"><a xlink:title=" ">
<polygon fill="white" stroke="#bfbfbf" points="768.5,-123.5 768.5,-142.5 860.5,-142.5 860.5,-123.5 768.5,-123.5"/>
<text text-anchor="middle" x="814.5" y="-130.5" font-family="Helvetica,sans-Serif" font-size="10.00">G4Navigator.hh</text>
</a>
</g>
</g>
<!-- Node15&#45;&gt;Node17 -->
<g id="edge17" class="edge">
<title>Node15&#45;&gt;Node17</title>
<path fill="none" stroke="midnightblue" d="M759.94,-179.32C769.65,-171.26 784.32,-159.08 796,-149.37"/>
<polygon fill="midnightblue" stroke="midnightblue" points="798.41,-151.92 803.87,-142.83 793.94,-146.53 798.41,-151.92"/>
</g>
<!-- Node18&#45;&gt;Node3 -->
<g id="edge19" class="edge">
<title>Node18&#45;&gt;Node3</title>
<path fill="none" stroke="midnightblue" d="M571.44,-179.44C552.93,-170.68 523.92,-156.94 502.64,-146.86"/>
<polygon fill="midnightblue" stroke="midnightblue" points="504.01,-143.63 493.48,-142.52 501.02,-149.96 504.01,-143.63"/>
</g>
<!-- Node18&#45;&gt;Node16 -->
<g id="edge20" class="edge">
<title>Node18&#45;&gt;Node16</title>
<path fill="none" stroke="midnightblue" d="M607.49,-179.32C625.54,-170.62 653.55,-157.12 674.3,-147.11"/>
<polygon fill="midnightblue" stroke="midnightblue" points="676.06,-150.15 683.55,-142.65 673.02,-143.84 676.06,-150.15"/>
</g>
<!-- Node19 -->
<g id="node19" class="node">
<title>Node19</title>
<g id="a_node19"><a xlink:title=" ">
<polygon fill="white" stroke="#bfbfbf" points="567,-123.5 567,-142.5 634,-142.5 634,-123.5 567,-123.5"/>
<text text-anchor="middle" x="600.5" y="-130.5" font-family="Helvetica,sans-Serif" font-size="10.00">G4Tubs.hh</text>
</a>
</g>
</g>
<!-- Node18&#45;&gt;Node19 -->
<g id="edge21" class="edge">
<title>Node18&#45;&gt;Node19</title>
<path fill="none" stroke="midnightblue" d="M591.32,-179.08C592.77,-171.93 594.87,-161.64 596.69,-152.69"/>
<polygon fill="midnightblue" stroke="midnightblue" points="600.15,-153.25 598.72,-142.75 593.29,-151.85 600.15,-153.25"/>
</g>
<!-- Node20&#45;&gt;Node3 -->
<g id="edge23" class="edge">
<title>Node20&#45;&gt;Node3</title>
<path fill="none" stroke="midnightblue" d="M537.13,-235.38C528.18,-226.8 514.73,-212.92 505.5,-199 495.74,-184.29 487.58,-165.89 482.24,-152.43"/>
<polygon fill="midnightblue" stroke="midnightblue" points="485.42,-150.95 478.59,-142.86 478.88,-153.45 485.42,-150.95"/>
</g>
<!-- Node20&#45;&gt;Node18 -->
<g id="edge24" class="edge">
<title>Node20&#45;&gt;Node18</title>
<path fill="none" stroke="midnightblue" d="M553.6,-235.08C559.74,-227.38 568.77,-216.03 576.24,-206.65"/>
<polygon fill="midnightblue" stroke="midnightblue" points="579.04,-208.75 582.53,-198.75 573.56,-204.39 579.04,-208.75"/>
</g>
<!-- Node22 -->
<g id="node22" class="node">
<title>Node22</title>
<g id="a_node22"><a xlink:href="_o_m_sim_logger_8hh.html" target="_top" xlink:title=" ">
<polygon fill="white" stroke="black" points="898,-235.5 898,-254.5 997,-254.5 997,-235.5 898,-235.5"/>
<text text-anchor="middle" x="947.5" y="-242.5" font-family="Helvetica,sans-Serif" font-size="10.00">OMSimLogger.hh</text>
</a>
</g>
</g>
<!-- Node21&#45;&gt;Node22 -->
<g id="edge26" class="edge">
<title>Node21&#45;&gt;Node22</title>
<path fill="none" stroke="midnightblue" d="M850.72,-291.44C869.4,-282.68 898.66,-268.94 920.12,-258.86"/>
<polygon fill="midnightblue" stroke="midnightblue" points="921.8,-261.93 929.36,-254.52 918.82,-255.6 921.8,-261.93"/>
</g>
<!-- Node25 -->
<g id="node25" class="node">
<title>Node25</title>
<g id="a_node25"><a xlink:title=" ">
<polygon fill="white" stroke="#bfbfbf" points="1015,-235.5 1015,-254.5 1070,-254.5 1070,-235.5 1015,-235.5"/>
<text text-anchor="middle" x="1042.5" y="-242.5" font-family="Helvetica,sans-Serif" font-size="10.00">fstream</text>
</a>
</g>
</g>
<!-- Node21&#45;&gt;Node25 -->
<g id="edge29" class="edge">
<title>Node21&#45;&gt;Node25</title>
<path fill="none" stroke="midnightblue" d="M865.78,-291.44C903.65,-281.7 965.38,-265.83 1004.95,-255.66"/>
<polygon fill="midnightblue" stroke="midnightblue" points="1005.93,-259.02 1014.75,-253.14 1004.19,-252.24 1005.93,-259.02"/>
</g>
<!-- Node26 -->
<g id="node26" class="node">
<title>Node26</title>
<g id="a_node26"><a xlink:title=" ">
<polygon fill="white" stroke="#bfbfbf" points="709.5,-235.5 709.5,-254.5 793.5,-254.5 793.5,-235.5 709.5,-235.5"/>
<text text-anchor="middle" x="751.5" y="-242.5" font-family="Helvetica,sans-Serif" font-size="10.00">boost/any.hpp</text>
</a>
</g>
</g>
<!-- Node21&#45;&gt;Node26 -->
<g id="edge30" class="edge">
<title>Node21&#45;&gt;Node26</title>
<path fill="none" stroke="midnightblue" d="M819.49,-291.32C806.97,-282.98 787.82,-270.21 773.03,-260.35"/>
<polygon fill="midnightblue" stroke="midnightblue" points="774.74,-257.29 764.48,-254.65 770.86,-263.11 774.74,-257.29"/>
</g>
<!-- Node27 -->
<g id="node27" class="node">
<title>Node27</title>
<g id="a_node27"><a xlink:title=" ">
<polygon fill="white" stroke="#bfbfbf" points="811.5,-235.5 811.5,-254.5 879.5,-254.5 879.5,-235.5 811.5,-235.5"/>
<text text-anchor="middle" x="845.5" y="-242.5" font-family="Helvetica,sans-Serif" font-size="10.00">sys/time.h</text>
</a>
</g>
</g>
<!-- Node21&#45;&gt;Node27 -->
<g id="edge31" class="edge">
<title>Node21&#45;&gt;Node27</title>
<path fill="none" stroke="midnightblue" d="M834.65,-291.08C836.37,-283.93 838.85,-273.64 841,-264.69"/>
<polygon fill="midnightblue" stroke="midnightblue" points="844.46,-265.29 843.39,-254.75 837.65,-263.65 844.46,-265.29"/>
</g>
<!-- Node23 -->
<g id="node23" class="node">
<title>Node23</title>
<g id="a_node23"><a xlink:title=" ">
<polygon fill="white" stroke="#bfbfbf" points="888.5,-179.5 888.5,-198.5 938.5,-198.5 938.5,-179.5 888.5,-179.5"/>
<text text-anchor="middle" x="913.5" y="-186.5" font-family="Helvetica,sans-Serif" font-size="10.00">stdio.h</text>
</a>
</g>
</g>
<!-- Node22&#45;&gt;Node23 -->
<g id="edge27" class="edge">
<title>Node22&#45;&gt;Node23</title>
<path fill="none" stroke="midnightblue" d="M941.89,-235.08C937.13,-227.53 930.18,-216.49 924.35,-207.23"/>
<polygon fill="midnightblue" stroke="midnightblue" points="927.3,-205.35 919.01,-198.75 921.38,-209.08 927.3,-205.35"/>
</g>
<!-- Node24 -->
<g id="node24" class="node">
<title>Node24</title>
<g id="a_node24"><a xlink:title=" ">
<polygon fill="white" stroke="#bfbfbf" points="956.5,-179.5 956.5,-198.5 1004.5,-198.5 1004.5,-179.5 956.5,-179.5"/>
<text text-anchor="middle" x="980.5" y="-186.5" font-family="Helvetica,sans-Serif" font-size="10.00">time.h</text>
</a>
</g>
</g>
<!-- Node22&#45;&gt;Node24 -->
<g id="edge28" class="edge">
<title>Node22&#45;&gt;Node24</title>
<path fill="none" stroke="midnightblue" d="M952.95,-235.08C957.51,-227.61 964.17,-216.72 969.79,-207.52"/>
<polygon fill="midnightblue" stroke="midnightblue" points="972.92,-209.11 975.15,-198.75 966.95,-205.46 972.92,-209.11"/>
</g>
</g>
</svg>
