<?xml version="1.0" encoding="UTF-8" standalone="no"?>
<!DOCTYPE svg PUBLIC "-//W3C//DTD SVG 1.1//EN"
 "http://www.w3.org/Graphics/SVG/1.1/DTD/svg11.dtd">
<!-- Generated by graphviz version 2.43.0 (0)
 -->
<!-- Title: OMSimENES.hh Pages: 1 -->
<svg width="426pt" height="140pt"
 viewBox="0.00 0.00 425.50 140.00" xmlns="http://www.w3.org/2000/svg" xmlns:xlink="http://www.w3.org/1999/xlink">
<g id="graph0" class="graph" transform="scale(1 1) rotate(0) translate(4 136)">
<title>OMSimENES.hh</title>
<polygon fill="white" stroke="transparent" points="-4,4 -4,-136 421.5,-136 421.5,4 -4,4"/>
<!-- Node1 -->
<g id="node1" class="node">
<title>Node1</title>
<g id="a_node1"><a xlink:title="This file contains the class in charge of generating electrons from Electron&#45;electron_Neutrino Elasti...">
<polygon fill="#bfbfbf" stroke="black" points="214,-112.5 214,-131.5 306,-131.5 306,-112.5 214,-112.5"/>
<text text-anchor="middle" x="260" y="-119.5" font-family="Helvetica,sans-Serif" font-size="10.00">OMSimENES.hh</text>
</a>
</g>
</g>
<!-- Node2 -->
<g id="node2" class="node">
<title>Node2</title>
<g id="a_node2"><a xlink:title=" ">
<polygon fill="white" stroke="#bfbfbf" points="0,-56.5 0,-75.5 192,-75.5 192,-56.5 0,-56.5"/>
<text text-anchor="middle" x="96" y="-63.5" font-family="Helvetica,sans-Serif" font-size="10.00">G4VUserPrimaryGeneratorAction.hh</text>
</a>
</g>
</g>
<!-- Node1&#45;&gt;Node2 -->
<g id="edge1" class="edge">
<title>Node1&#45;&gt;Node2</title>
<path fill="none" stroke="midnightblue" d="M234.01,-112.44C206.3,-103.32 162.25,-88.81 131.38,-78.65"/>
<polygon fill="midnightblue" stroke="midnightblue" points="132.46,-75.32 121.86,-75.52 130.27,-81.97 132.46,-75.32"/>
</g>
<!-- Node3 -->
<g id="node3" class="node">
<title>Node3</title>
<g id="a_node3"><a xlink:title=" ">
<polygon fill="white" stroke="#bfbfbf" points="164.5,-0.5 164.5,-19.5 231.5,-19.5 231.5,-0.5 164.5,-0.5"/>
<text text-anchor="middle" x="198" y="-7.5" font-family="Helvetica,sans-Serif" font-size="10.00">globals.hh</text>
</a>
</g>
</g>
<!-- Node1&#45;&gt;Node3 -->
<g id="edge2" class="edge">
<title>Node1&#45;&gt;Node3</title>
<path fill="none" stroke="midnightblue" d="M255.13,-112.37C244.95,-94.3 221.21,-52.18 207.76,-28.31"/>
<polygon fill="midnightblue" stroke="midnightblue" points="210.8,-26.58 202.84,-19.59 204.7,-30.02 210.8,-26.58"/>
</g>
<!-- Node4 -->
<g id="node4" class="node">
<title>Node4</title>
<g id="a_node4"><a xlink:title=" ">
<polygon fill="white" stroke="#bfbfbf" points="370.5,-0.5 370.5,-19.5 417.5,-19.5 417.5,-0.5 370.5,-0.5"/>
<text text-anchor="middle" x="394" y="-7.5" font-family="Helvetica,sans-Serif" font-size="10.00">vector</text>
</a>
</g>
</g>
<!-- Node1&#45;&gt;Node4 -->
<g id="edge3" class="edge">
<title>Node1&#45;&gt;Node4</title>
<path fill="none" stroke="midnightblue" d="M295.08,-112.47C316.87,-105.66 344.21,-94.18 363,-76 376.18,-63.25 384.43,-43.79 389.07,-29.48"/>
<polygon fill="midnightblue" stroke="midnightblue" points="392.47,-30.32 391.95,-19.74 385.76,-28.34 392.47,-30.32"/>
</g>
<!-- Node5 -->
<g id="node5" class="node">
<title>Node5</title>
<g id="a_node5"><a xlink:href="_o_m_sim_s_n_tools_8hh.html" target="_top" xlink:title="Provides the definition for the OMSimSNTools class, centralizing utility methods for Supernova (SN) n...">
<polygon fill="white" stroke="black" points="248.5,-56.5 248.5,-75.5 353.5,-75.5 353.5,-56.5 248.5,-56.5"/>
<text text-anchor="middle" x="301" y="-63.5" font-family="Helvetica,sans-Serif" font-size="10.00">OMSimSNTools.hh</text>
</a>
</g>
</g>
<!-- Node1&#45;&gt;Node5 -->
<g id="edge4" class="edge">
<title>Node1&#45;&gt;Node5</title>
<path fill="none" stroke="midnightblue" d="M266.77,-112.08C272.56,-104.46 281.06,-93.26 288.14,-83.94"/>
<polygon fill="midnightblue" stroke="midnightblue" points="291.1,-85.83 294.36,-75.75 285.52,-81.6 291.1,-85.83"/>
</g>
<!-- Node5&#45;&gt;Node3 -->
<g id="edge5" class="edge">
<title>Node5&#45;&gt;Node3</title>
<path fill="none" stroke="midnightblue" d="M284.45,-56.32C268.01,-47.7 242.57,-34.36 223.53,-24.39"/>
<polygon fill="midnightblue" stroke="midnightblue" points="224.99,-21.2 214.51,-19.65 221.74,-27.4 224.99,-21.2"/>
</g>
<!-- Node5&#45;&gt;Node4 -->
<g id="edge6" class="edge">
<title>Node5&#45;&gt;Node4</title>
<path fill="none" stroke="midnightblue" d="M315.94,-56.32C330.59,-47.82 353.13,-34.73 370.24,-24.8"/>
<polygon fill="midnightblue" stroke="midnightblue" points="372.2,-27.7 379.1,-19.65 368.69,-21.65 372.2,-27.7"/>
</g>
<!-- Node6 -->
<g id="node6" class="node">
<title>Node6</title>
<g id="a_node6"><a xlink:title=" ">
<polygon fill="white" stroke="#bfbfbf" points="249.5,-0.5 249.5,-19.5 352.5,-19.5 352.5,-0.5 249.5,-0.5"/>
<text text-anchor="middle" x="301" y="-7.5" font-family="Helvetica,sans-Serif" font-size="10.00">G4ThreeVector.hh</text>
</a>
</g>
</g>
<!-- Node5&#45;&gt;Node6 -->
<g id="edge7" class="edge">
<title>Node5&#45;&gt;Node6</title>
<path fill="none" stroke="midnightblue" d="M301,-56.08C301,-49.01 301,-38.86 301,-29.99"/>
<polygon fill="midnightblue" stroke="midnightblue" points="304.5,-29.75 301,-19.75 297.5,-29.75 304.5,-29.75"/>
</g>
</g>
</svg>
