<?xml version="1.0" encoding="UTF-8" standalone="no"?>
<!DOCTYPE svg PUBLIC "-//W3C//DTD SVG 1.1//EN"
 "http://www.w3.org/Graphics/SVG/1.1/DTD/svg11.dtd">
<!-- Generated by graphviz version 2.43.0 (0)
 -->
<!-- Title: OMSimPMTConstruction.cc Pages: 1 -->
<svg width="3014pt" height="263pt"
 viewBox="0.00 0.00 3013.50 263.00" xmlns="http://www.w3.org/2000/svg" xmlns:xlink="http://www.w3.org/1999/xlink">
<g id="graph0" class="graph" transform="scale(1 1) rotate(0) translate(4 259)">
<title>OMSimPMTConstruction.cc</title>
<polygon fill="white" stroke="transparent" points="-4,4 -4,-259 3009.5,-259 3009.5,4 -4,4"/>
<!-- Node1 -->
<g id="node1" class="node">
<title>Node1</title>
<g id="a_node1"><a xlink:title=" ">
<polygon fill="#bfbfbf" stroke="black" points="1985,-235.5 1985,-254.5 2132,-254.5 2132,-235.5 1985,-235.5"/>
<text text-anchor="middle" x="2058.5" y="-242.5" font-family="Helvetica,sans-Serif" font-size="10.00">OMSimPMTConstruction.cc</text>
</a>
</g>
</g>
<!-- Node2 -->
<g id="node2" class="node">
<title>Node2</title>
<g id="a_node2"><a xlink:href="_o_m_sim_p_m_t_construction_8hh.html" target="_top" xlink:title="Construction of the PMTs.">
<polygon fill="white" stroke="black" points="613,-179.5 613,-198.5 762,-198.5 762,-179.5 613,-179.5"/>
<text text-anchor="middle" x="687.5" y="-186.5" font-family="Helvetica,sans-Serif" font-size="10.00">OMSimPMTConstruction.hh</text>
</a>
</g>
</g>
<!-- Node1&#45;&gt;Node2 -->
<g id="edge1" class="edge">
<title>Node1&#45;&gt;Node2</title>
<path fill="none" stroke="midnightblue" d="M1984.79,-241.1C1750.27,-231.86 1022.17,-203.18 772.52,-193.35"/>
<polygon fill="midnightblue" stroke="midnightblue" points="772.54,-189.85 762.41,-192.95 772.27,-196.84 772.54,-189.85"/>
</g>
<!-- Node14 -->
<g id="node14" class="node">
<title>Node14</title>
<g id="a_node14"><a xlink:href="_o_m_sim_command_args_table_8hh.html" target="_top" xlink:title="Definition of the OMSimCommandArgsTable singleton class, which controls user args.">
<polygon fill="white" stroke="black" points="966.5,-179.5 966.5,-198.5 1130.5,-198.5 1130.5,-179.5 966.5,-179.5"/>
<text text-anchor="middle" x="1048.5" y="-186.5" font-family="Helvetica,sans-Serif" font-size="10.00">OMSimCommandArgsTable.hh</text>
</a>
</g>
</g>
<!-- Node1&#45;&gt;Node14 -->
<g id="edge13" class="edge">
<title>Node1&#45;&gt;Node14</title>
<path fill="none" stroke="midnightblue" d="M1984.64,-240.05C1803.84,-230.38 1339.33,-205.55 1140.76,-194.93"/>
<polygon fill="midnightblue" stroke="midnightblue" points="1140.82,-191.43 1130.65,-194.39 1140.45,-198.42 1140.82,-191.43"/>
</g>
<!-- Node21 -->
<g id="node21" class="node">
<title>Node21</title>
<g id="a_node21"><a xlink:href="_c_a_d_mesh_8hh.html" target="_top" xlink:title=" ">
<polygon fill="white" stroke="black" points="1831,-179.5 1831,-198.5 1910,-198.5 1910,-179.5 1831,-179.5"/>
<text text-anchor="middle" x="1870.5" y="-186.5" font-family="Helvetica,sans-Serif" font-size="10.00">CADMesh.hh</text>
</a>
</g>
</g>
<!-- Node1&#45;&gt;Node21 -->
<g id="edge20" class="edge">
<title>Node1&#45;&gt;Node21</title>
<path fill="none" stroke="midnightblue" d="M2028.71,-235.44C1996.67,-226.24 1945.57,-211.56 1910.15,-201.39"/>
<polygon fill="midnightblue" stroke="midnightblue" points="1910.73,-197.91 1900.15,-198.52 1908.79,-204.64 1910.73,-197.91"/>
</g>
<!-- Node41 -->
<g id="node41" class="node">
<title>Node41</title>
<g id="a_node41"><a xlink:title=" ">
<polygon fill="white" stroke="#bfbfbf" points="1928,-179.5 1928,-198.5 1997,-198.5 1997,-179.5 1928,-179.5"/>
<text text-anchor="middle" x="1962.5" y="-186.5" font-family="Helvetica,sans-Serif" font-size="10.00">G4Cons.hh</text>
</a>
</g>
</g>
<!-- Node1&#45;&gt;Node41 -->
<g id="edge41" class="edge">
<title>Node1&#45;&gt;Node41</title>
<path fill="none" stroke="midnightblue" d="M2043.08,-235.32C2027.96,-226.82 2004.68,-213.73 1987.03,-203.8"/>
<polygon fill="midnightblue" stroke="midnightblue" points="1988.32,-200.51 1977.89,-198.65 1984.89,-206.61 1988.32,-200.51"/>
</g>
<!-- Node42 -->
<g id="node42" class="node">
<title>Node42</title>
<g id="a_node42"><a xlink:title=" ">
<polygon fill="white" stroke="#bfbfbf" points="2015.5,-179.5 2015.5,-198.5 2101.5,-198.5 2101.5,-179.5 2015.5,-179.5"/>
<text text-anchor="middle" x="2058.5" y="-186.5" font-family="Helvetica,sans-Serif" font-size="10.00">G4Ellipsoid.hh</text>
</a>
</g>
</g>
<!-- Node1&#45;&gt;Node42 -->
<g id="edge42" class="edge">
<title>Node1&#45;&gt;Node42</title>
<path fill="none" stroke="midnightblue" d="M2058.5,-235.08C2058.5,-228.01 2058.5,-217.86 2058.5,-208.99"/>
<polygon fill="midnightblue" stroke="midnightblue" points="2062,-208.75 2058.5,-198.75 2055,-208.75 2062,-208.75"/>
</g>
<!-- Node43 -->
<g id="node43" class="node">
<title>Node43</title>
<g id="a_node43"><a xlink:title=" ">
<polygon fill="white" stroke="#bfbfbf" points="2120,-179.5 2120,-198.5 2269,-198.5 2269,-179.5 2120,-179.5"/>
<text text-anchor="middle" x="2194.5" y="-186.5" font-family="Helvetica,sans-Serif" font-size="10.00">G4LogicalBorderSurface.hh</text>
</a>
</g>
</g>
<!-- Node1&#45;&gt;Node43 -->
<g id="edge43" class="edge">
<title>Node1&#45;&gt;Node43</title>
<path fill="none" stroke="midnightblue" d="M2080.05,-235.44C2102.53,-226.52 2137.99,-212.44 2163.48,-202.32"/>
<polygon fill="midnightblue" stroke="midnightblue" points="2165.05,-205.46 2173.05,-198.52 2162.47,-198.95 2165.05,-205.46"/>
</g>
<!-- Node44 -->
<g id="node44" class="node">
<title>Node44</title>
<g id="a_node44"><a xlink:title=" ">
<polygon fill="white" stroke="#bfbfbf" points="2287,-179.5 2287,-198.5 2424,-198.5 2424,-179.5 2287,-179.5"/>
<text text-anchor="middle" x="2355.5" y="-186.5" font-family="Helvetica,sans-Serif" font-size="10.00">G4LogicalSkinSurface.hh</text>
</a>
</g>
</g>
<!-- Node1&#45;&gt;Node44 -->
<g id="edge44" class="edge">
<title>Node1&#45;&gt;Node44</title>
<path fill="none" stroke="midnightblue" d="M2105.56,-235.44C2157.91,-225.92 2242.49,-210.55 2298.54,-200.36"/>
<polygon fill="midnightblue" stroke="midnightblue" points="2299.45,-203.75 2308.66,-198.52 2298.19,-196.86 2299.45,-203.75"/>
</g>
<!-- Node45 -->
<g id="node45" class="node">
<title>Node45</title>
<g id="a_node45"><a xlink:title=" ">
<polygon fill="white" stroke="#bfbfbf" points="2442,-179.5 2442,-198.5 2521,-198.5 2521,-179.5 2442,-179.5"/>
<text text-anchor="middle" x="2481.5" y="-186.5" font-family="Helvetica,sans-Serif" font-size="10.00">G4Sphere.hh</text>
</a>
</g>
</g>
<!-- Node1&#45;&gt;Node45 -->
<g id="edge45" class="edge">
<title>Node1&#45;&gt;Node45</title>
<path fill="none" stroke="midnightblue" d="M2132.34,-236.59C2205.89,-228.88 2322.25,-215.8 2432.06,-199.14"/>
<polygon fill="midnightblue" stroke="midnightblue" points="2432.63,-202.59 2441.98,-197.62 2431.57,-195.68 2432.63,-202.59"/>
</g>
<!-- Node46 -->
<g id="node46" class="node">
<title>Node46</title>
<g id="a_node46"><a xlink:title=" ">
<polygon fill="white" stroke="#bfbfbf" points="2539,-179.5 2539,-198.5 2610,-198.5 2610,-179.5 2539,-179.5"/>
<text text-anchor="middle" x="2574.5" y="-186.5" font-family="Helvetica,sans-Serif" font-size="10.00">G4Torus.hh</text>
</a>
</g>
</g>
<!-- Node1&#45;&gt;Node46 -->
<g id="edge46" class="edge">
<title>Node1&#45;&gt;Node46</title>
<path fill="none" stroke="midnightblue" d="M2132.38,-239.41C2223.45,-233.2 2383.1,-220.52 2528.54,-199.17"/>
<polygon fill="midnightblue" stroke="midnightblue" points="2529.16,-202.61 2538.54,-197.68 2528.13,-195.69 2529.16,-202.61"/>
</g>
<!-- Node3 -->
<g id="node3" class="node">
<title>Node3</title>
<g id="a_node3"><a xlink:href="abc_detector_component_8hh.html" target="_top" xlink:title="Provides helper base class abcDetectorComponent for constructing and managing detector components in ...">
<polygon fill="white" stroke="black" points="409,-123.5 409,-142.5 556,-142.5 556,-123.5 409,-123.5"/>
<text text-anchor="middle" x="482.5" y="-130.5" font-family="Helvetica,sans-Serif" font-size="10.00">abcDetectorComponent.hh</text>
</a>
</g>
</g>
<!-- Node2&#45;&gt;Node3 -->
<g id="edge2" class="edge">
<title>Node2&#45;&gt;Node3</title>
<path fill="none" stroke="midnightblue" d="M655.02,-179.44C619.78,-170.16 563.4,-155.31 524.74,-145.13"/>
<polygon fill="midnightblue" stroke="midnightblue" points="525.39,-141.68 514.83,-142.52 523.61,-148.45 525.39,-141.68"/>
</g>
<!-- Node12 -->
<g id="node12" class="node">
<title>Node12</title>
<g id="a_node12"><a xlink:title=" ">
<polygon fill="white" stroke="#bfbfbf" points="587.5,-123.5 587.5,-142.5 685.5,-142.5 685.5,-123.5 587.5,-123.5"/>
<text text-anchor="middle" x="636.5" y="-130.5" font-family="Helvetica,sans-Serif" font-size="10.00">G4UnionSolid.hh</text>
</a>
</g>
</g>
<!-- Node2&#45;&gt;Node12 -->
<g id="edge11" class="edge">
<title>Node2&#45;&gt;Node12</title>
<path fill="none" stroke="midnightblue" d="M679.08,-179.08C671.65,-171.22 660.65,-159.57 651.69,-150.08"/>
<polygon fill="midnightblue" stroke="midnightblue" points="654.18,-147.62 644.76,-142.75 649.09,-152.42 654.18,-147.62"/>
</g>
<!-- Node13 -->
<g id="node13" class="node">
<title>Node13</title>
<g id="a_node13"><a xlink:title=" ">
<polygon fill="white" stroke="#bfbfbf" points="704,-123.5 704,-142.5 771,-142.5 771,-123.5 704,-123.5"/>
<text text-anchor="middle" x="737.5" y="-130.5" font-family="Helvetica,sans-Serif" font-size="10.00">G4Tubs.hh</text>
</a>
</g>
</g>
<!-- Node2&#45;&gt;Node13 -->
<g id="edge12" class="edge">
<title>Node2&#45;&gt;Node13</title>
<path fill="none" stroke="midnightblue" d="M695.76,-179.08C702.96,-171.3 713.61,-159.8 722.35,-150.37"/>
<polygon fill="midnightblue" stroke="midnightblue" points="725.17,-152.47 729.4,-142.75 720.03,-147.71 725.17,-152.47"/>
</g>
<!-- Node4 -->
<g id="node4" class="node">
<title>Node4</title>
<g id="a_node4"><a xlink:href="_o_m_sim_input_data_8hh.html" target="_top" xlink:title="Definition of ParameterTable and InputDataManager.">
<polygon fill="white" stroke="black" points="163,-67.5 163,-86.5 278,-86.5 278,-67.5 163,-67.5"/>
<text text-anchor="middle" x="220.5" y="-74.5" font-family="Helvetica,sans-Serif" font-size="10.00">OMSimInputData.hh</text>
</a>
</g>
</g>
<!-- Node3&#45;&gt;Node4 -->
<g id="edge3" class="edge">
<title>Node3&#45;&gt;Node4</title>
<path fill="none" stroke="midnightblue" d="M440.99,-123.44C395.09,-113.98 321.12,-98.74 271.67,-88.55"/>
<polygon fill="midnightblue" stroke="midnightblue" points="272.32,-85.11 261.82,-86.52 270.91,-91.96 272.32,-85.11"/>
</g>
<!-- Node8 -->
<g id="node8" class="node">
<title>Node8</title>
<g id="a_node8"><a xlink:title=" ">
<polygon fill="white" stroke="#bfbfbf" points="296,-67.5 296,-86.5 403,-86.5 403,-67.5 296,-67.5"/>
<text text-anchor="middle" x="349.5" y="-74.5" font-family="Helvetica,sans-Serif" font-size="10.00">G4Transform3D.hh</text>
</a>
</g>
</g>
<!-- Node3&#45;&gt;Node8 -->
<g id="edge7" class="edge">
<title>Node3&#45;&gt;Node8</title>
<path fill="none" stroke="midnightblue" d="M461.43,-123.44C439.44,-114.52 404.77,-100.44 379.84,-90.32"/>
<polygon fill="midnightblue" stroke="midnightblue" points="381.06,-87.04 370.48,-86.52 378.42,-93.52 381.06,-87.04"/>
</g>
<!-- Node9 -->
<g id="node9" class="node">
<title>Node9</title>
<g id="a_node9"><a xlink:title=" ">
<polygon fill="white" stroke="#bfbfbf" points="421.5,-67.5 421.5,-86.5 529.5,-86.5 529.5,-67.5 421.5,-67.5"/>
<text text-anchor="middle" x="475.5" y="-74.5" font-family="Helvetica,sans-Serif" font-size="10.00">G4VisAttributes.hh</text>
</a>
</g>
</g>
<!-- Node3&#45;&gt;Node9 -->
<g id="edge8" class="edge">
<title>Node3&#45;&gt;Node9</title>
<path fill="none" stroke="midnightblue" d="M481.34,-123.08C480.42,-115.93 479.08,-105.64 477.92,-96.69"/>
<polygon fill="midnightblue" stroke="midnightblue" points="481.39,-96.22 476.63,-86.75 474.45,-97.12 481.39,-96.22"/>
</g>
<!-- Node10 -->
<g id="node10" class="node">
<title>Node10</title>
<g id="a_node10"><a xlink:title=" ">
<polygon fill="white" stroke="#bfbfbf" points="548,-67.5 548,-86.5 673,-86.5 673,-67.5 548,-67.5"/>
<text text-anchor="middle" x="610.5" y="-74.5" font-family="Helvetica,sans-Serif" font-size="10.00">G4SubtractionSolid.hh</text>
</a>
</g>
</g>
<!-- Node3&#45;&gt;Node10 -->
<g id="edge9" class="edge">
<title>Node3&#45;&gt;Node10</title>
<path fill="none" stroke="midnightblue" d="M502.78,-123.44C523.85,-114.56 557.02,-100.56 580.99,-90.45"/>
<polygon fill="midnightblue" stroke="midnightblue" points="582.46,-93.63 590.31,-86.52 579.74,-87.18 582.46,-93.63"/>
</g>
<!-- Node11 -->
<g id="node11" class="node">
<title>Node11</title>
<g id="a_node11"><a xlink:title=" ">
<polygon fill="white" stroke="#bfbfbf" points="691.5,-67.5 691.5,-86.5 801.5,-86.5 801.5,-67.5 691.5,-67.5"/>
<text text-anchor="middle" x="746.5" y="-74.5" font-family="Helvetica,sans-Serif" font-size="10.00">G4PVPlacement.hh</text>
</a>
</g>
</g>
<!-- Node3&#45;&gt;Node11 -->
<g id="edge10" class="edge">
<title>Node3&#45;&gt;Node11</title>
<path fill="none" stroke="midnightblue" d="M524.33,-123.44C570.58,-113.98 645.11,-98.74 694.94,-88.55"/>
<polygon fill="midnightblue" stroke="midnightblue" points="695.77,-91.95 704.86,-86.52 694.37,-85.09 695.77,-91.95"/>
</g>
<!-- Node5 -->
<g id="node5" class="node">
<title>Node5</title>
<g id="a_node5"><a xlink:title=" ">
<polygon fill="white" stroke="#bfbfbf" points="0,-6 0,-25 143,-25 143,-6 0,-6"/>
<text text-anchor="middle" x="71.5" y="-13" font-family="Helvetica,sans-Serif" font-size="10.00">G4OpBoundaryProcess.hh</text>
</a>
</g>
</g>
<!-- Node4&#45;&gt;Node5 -->
<g id="edge4" class="edge">
<title>Node4&#45;&gt;Node5</title>
<path fill="none" stroke="midnightblue" d="M199.15,-67.48C173.81,-57.36 131.36,-40.4 102.43,-28.85"/>
<polygon fill="midnightblue" stroke="midnightblue" points="103.39,-25.47 92.81,-25.01 100.8,-31.97 103.39,-25.47"/>
</g>
<!-- Node6 -->
<g id="node6" class="node">
<title>Node6</title>
<g id="a_node6"><a xlink:title=" ">
<polygon fill="white" stroke="#bfbfbf" points="161,-6 161,-25 280,-25 280,-6 161,-6"/>
<text text-anchor="middle" x="220.5" y="-13" font-family="Helvetica,sans-Serif" font-size="10.00">G4SystemOfUnits.hh</text>
</a>
</g>
</g>
<!-- Node4&#45;&gt;Node6 -->
<g id="edge5" class="edge">
<title>Node4&#45;&gt;Node6</title>
<path fill="none" stroke="midnightblue" d="M220.5,-67.48C220.5,-59.08 220.5,-45.98 220.5,-35.16"/>
<polygon fill="midnightblue" stroke="midnightblue" points="224,-35.01 220.5,-25.01 217,-35.01 224,-35.01"/>
</g>
<!-- Node7 -->
<g id="node7" class="node">
<title>Node7</title>
<g id="a_node7"><a xlink:title=" ">
<polygon fill="white" stroke="#bfbfbf" points="298,-0.5 298,-30.5 411,-30.5 411,-0.5 298,-0.5"/>
<text text-anchor="start" x="306" y="-18.5" font-family="Helvetica,sans-Serif" font-size="10.00">boost/property_tree</text>
<text text-anchor="middle" x="354.5" y="-7.5" font-family="Helvetica,sans-Serif" font-size="10.00">/json_parser.hpp</text>
</a>
</g>
</g>
<!-- Node4&#45;&gt;Node7 -->
<g id="edge6" class="edge">
<title>Node4&#45;&gt;Node7</title>
<path fill="none" stroke="midnightblue" d="M239.7,-67.48C258.87,-58.96 288.92,-45.62 313.47,-34.72"/>
<polygon fill="midnightblue" stroke="midnightblue" points="315.2,-37.78 322.92,-30.52 312.36,-31.38 315.2,-37.78"/>
</g>
<!-- Node15 -->
<g id="node15" class="node">
<title>Node15</title>
<g id="a_node15"><a xlink:href="_o_m_sim_logger_8hh.html" target="_top" xlink:title=" ">
<polygon fill="white" stroke="black" points="795,-123.5 795,-142.5 894,-142.5 894,-123.5 795,-123.5"/>
<text text-anchor="middle" x="844.5" y="-130.5" font-family="Helvetica,sans-Serif" font-size="10.00">OMSimLogger.hh</text>
</a>
</g>
</g>
<!-- Node14&#45;&gt;Node15 -->
<g id="edge14" class="edge">
<title>Node14&#45;&gt;Node15</title>
<path fill="none" stroke="midnightblue" d="M1016.18,-179.44C981.11,-170.16 925,-155.31 886.54,-145.13"/>
<polygon fill="midnightblue" stroke="midnightblue" points="887.24,-141.69 876.67,-142.52 885.44,-148.46 887.24,-141.69"/>
</g>
<!-- Node18 -->
<g id="node18" class="node">
<title>Node18</title>
<g id="a_node18"><a xlink:title=" ">
<polygon fill="white" stroke="#bfbfbf" points="1101,-123.5 1101,-142.5 1156,-142.5 1156,-123.5 1101,-123.5"/>
<text text-anchor="middle" x="1128.5" y="-130.5" font-family="Helvetica,sans-Serif" font-size="10.00">fstream</text>
</a>
</g>
</g>
<!-- Node14&#45;&gt;Node18 -->
<g id="edge17" class="edge">
<title>Node14&#45;&gt;Node18</title>
<path fill="none" stroke="midnightblue" d="M1061.35,-179.32C1073.72,-170.98 1092.63,-158.21 1107.24,-148.35"/>
<polygon fill="midnightblue" stroke="midnightblue" points="1109.35,-151.15 1115.68,-142.65 1105.43,-145.35 1109.35,-151.15"/>
</g>
<!-- Node19 -->
<g id="node19" class="node">
<title>Node19</title>
<g id="a_node19"><a xlink:title=" ">
<polygon fill="white" stroke="#bfbfbf" points="912.5,-123.5 912.5,-142.5 996.5,-142.5 996.5,-123.5 912.5,-123.5"/>
<text text-anchor="middle" x="954.5" y="-130.5" font-family="Helvetica,sans-Serif" font-size="10.00">boost/any.hpp</text>
</a>
</g>
</g>
<!-- Node14&#45;&gt;Node19 -->
<g id="edge18" class="edge">
<title>Node14&#45;&gt;Node19</title>
<path fill="none" stroke="midnightblue" d="M1033.4,-179.32C1018.6,-170.82 995.81,-157.73 978.52,-147.8"/>
<polygon fill="midnightblue" stroke="midnightblue" points="979.98,-144.6 969.57,-142.65 976.49,-150.67 979.98,-144.6"/>
</g>
<!-- Node20 -->
<g id="node20" class="node">
<title>Node20</title>
<g id="a_node20"><a xlink:title=" ">
<polygon fill="white" stroke="#bfbfbf" points="1014.5,-123.5 1014.5,-142.5 1082.5,-142.5 1082.5,-123.5 1014.5,-123.5"/>
<text text-anchor="middle" x="1048.5" y="-130.5" font-family="Helvetica,sans-Serif" font-size="10.00">sys/time.h</text>
</a>
</g>
</g>
<!-- Node14&#45;&gt;Node20 -->
<g id="edge19" class="edge">
<title>Node14&#45;&gt;Node20</title>
<path fill="none" stroke="midnightblue" d="M1048.5,-179.08C1048.5,-172.01 1048.5,-161.86 1048.5,-152.99"/>
<polygon fill="midnightblue" stroke="midnightblue" points="1052,-152.75 1048.5,-142.75 1045,-152.75 1052,-152.75"/>
</g>
<!-- Node16 -->
<g id="node16" class="node">
<title>Node16</title>
<g id="a_node16"><a xlink:title=" ">
<polygon fill="white" stroke="#bfbfbf" points="819.5,-67.5 819.5,-86.5 869.5,-86.5 869.5,-67.5 819.5,-67.5"/>
<text text-anchor="middle" x="844.5" y="-74.5" font-family="Helvetica,sans-Serif" font-size="10.00">stdio.h</text>
</a>
</g>
</g>
<!-- Node15&#45;&gt;Node16 -->
<g id="edge15" class="edge">
<title>Node15&#45;&gt;Node16</title>
<path fill="none" stroke="midnightblue" d="M844.5,-123.08C844.5,-116.01 844.5,-105.86 844.5,-96.99"/>
<polygon fill="midnightblue" stroke="midnightblue" points="848,-96.75 844.5,-86.75 841,-96.75 848,-96.75"/>
</g>
<!-- Node17 -->
<g id="node17" class="node">
<title>Node17</title>
<g id="a_node17"><a xlink:title=" ">
<polygon fill="white" stroke="#bfbfbf" points="887.5,-67.5 887.5,-86.5 935.5,-86.5 935.5,-67.5 887.5,-67.5"/>
<text text-anchor="middle" x="911.5" y="-74.5" font-family="Helvetica,sans-Serif" font-size="10.00">time.h</text>
</a>
</g>
</g>
<!-- Node15&#45;&gt;Node17 -->
<g id="edge16" class="edge">
<title>Node15&#45;&gt;Node17</title>
<path fill="none" stroke="midnightblue" d="M855.26,-123.32C865.27,-115.26 880.39,-103.08 892.43,-93.37"/>
<polygon fill="midnightblue" stroke="midnightblue" points="894.95,-95.83 900.54,-86.83 890.56,-90.38 894.95,-95.83"/>
</g>
<!-- Node21&#45;&gt;Node18 -->
<g id="edge37" class="edge">
<title>Node21&#45;&gt;Node18</title>
<path fill="none" stroke="midnightblue" d="M1830.88,-187.89C1724.63,-187.08 1424.53,-181.43 1166.22,-142.81"/>
<polygon fill="midnightblue" stroke="midnightblue" points="1166.69,-139.35 1156.28,-141.31 1165.64,-146.27 1166.69,-139.35"/>
</g>
<!-- Node22 -->
<g id="node22" class="node">
<title>Node22</title>
<g id="a_node22"><a xlink:title=" ">
<polygon fill="white" stroke="#bfbfbf" points="1174.5,-123.5 1174.5,-142.5 1248.5,-142.5 1248.5,-123.5 1174.5,-123.5"/>
<text text-anchor="middle" x="1211.5" y="-130.5" font-family="Helvetica,sans-Serif" font-size="10.00">G4String.hh</text>
</a>
</g>
</g>
<!-- Node21&#45;&gt;Node22 -->
<g id="edge21" class="edge">
<title>Node21&#45;&gt;Node22</title>
<path fill="none" stroke="midnightblue" d="M1830.89,-186.74C1734.61,-183.32 1480.58,-172.19 1258.8,-143.01"/>
<polygon fill="midnightblue" stroke="midnightblue" points="1258.97,-139.5 1248.59,-141.65 1258.04,-146.44 1258.97,-139.5"/>
</g>
<!-- Node23 -->
<g id="node23" class="node">
<title>Node23</title>
<g id="a_node23"><a xlink:title=" ">
<polygon fill="white" stroke="#bfbfbf" points="1266.5,-123.5 1266.5,-142.5 1330.5,-142.5 1330.5,-123.5 1266.5,-123.5"/>
<text text-anchor="middle" x="1298.5" y="-130.5" font-family="Helvetica,sans-Serif" font-size="10.00">algorithm</text>
</a>
</g>
</g>
<!-- Node21&#45;&gt;Node23 -->
<g id="edge22" class="edge">
<title>Node21&#45;&gt;Node23</title>
<path fill="none" stroke="midnightblue" d="M1830.99,-186.43C1744.09,-182.6 1529.7,-171.06 1340.77,-143"/>
<polygon fill="midnightblue" stroke="midnightblue" points="1341.06,-139.5 1330.65,-141.48 1340.02,-146.43 1341.06,-139.5"/>
</g>
<!-- Node24 -->
<g id="node24" class="node">
<title>Node24</title>
<g id="a_node24"><a xlink:title=" ">
<polygon fill="white" stroke="#bfbfbf" points="1348.5,-123.5 1348.5,-142.5 1386.5,-142.5 1386.5,-123.5 1348.5,-123.5"/>
<text text-anchor="middle" x="1367.5" y="-130.5" font-family="Helvetica,sans-Serif" font-size="10.00">map</text>
</a>
</g>
</g>
<!-- Node21&#45;&gt;Node24 -->
<g id="edge23" class="edge">
<title>Node21&#45;&gt;Node24</title>
<path fill="none" stroke="midnightblue" d="M1830.97,-187.14C1750.58,-184.77 1562.28,-176.08 1396.51,-142.77"/>
<polygon fill="midnightblue" stroke="midnightblue" points="1397.13,-139.33 1386.63,-140.75 1395.73,-146.19 1397.13,-139.33"/>
</g>
<!-- Node25 -->
<g id="node25" class="node">
<title>Node25</title>
<g id="a_node25"><a xlink:title=" ">
<polygon fill="white" stroke="#bfbfbf" points="1405,-123.5 1405,-142.5 1508,-142.5 1508,-123.5 1405,-123.5"/>
<text text-anchor="middle" x="1456.5" y="-130.5" font-family="Helvetica,sans-Serif" font-size="10.00">G4ThreeVector.hh</text>
</a>
</g>
</g>
<!-- Node21&#45;&gt;Node25 -->
<g id="edge24" class="edge">
<title>Node21&#45;&gt;Node25</title>
<path fill="none" stroke="midnightblue" d="M1830.91,-183.26C1767.22,-175.57 1637.82,-159.69 1518.26,-143.22"/>
<polygon fill="midnightblue" stroke="midnightblue" points="1518.59,-139.73 1508.2,-141.83 1517.63,-146.67 1518.59,-139.73"/>
</g>
<!-- Node26 -->
<g id="node26" class="node">
<title>Node26</title>
<g id="a_node26"><a xlink:title=" ">
<polygon fill="white" stroke="#bfbfbf" points="1526,-123.5 1526,-142.5 1645,-142.5 1645,-123.5 1526,-123.5"/>
<text text-anchor="middle" x="1585.5" y="-130.5" font-family="Helvetica,sans-Serif" font-size="10.00">G4TriangularFacet.hh</text>
</a>
</g>
</g>
<!-- Node21&#45;&gt;Node26 -->
<g id="edge25" class="edge">
<title>Node21&#45;&gt;Node26</title>
<path fill="none" stroke="midnightblue" d="M1830.87,-180.49C1781.34,-171.11 1696.3,-154.99 1640.49,-144.42"/>
<polygon fill="midnightblue" stroke="midnightblue" points="1640.9,-140.93 1630.42,-142.51 1639.6,-147.81 1640.9,-140.93"/>
</g>
<!-- Node27 -->
<g id="node27" class="node">
<title>Node27</title>
<g id="a_node27"><a xlink:title=" ">
<polygon fill="white" stroke="#bfbfbf" points="1663.5,-123.5 1663.5,-142.5 1721.5,-142.5 1721.5,-123.5 1663.5,-123.5"/>
<text text-anchor="middle" x="1692.5" y="-130.5" font-family="Helvetica,sans-Serif" font-size="10.00">memory</text>
</a>
</g>
</g>
<!-- Node21&#45;&gt;Node27 -->
<g id="edge26" class="edge">
<title>Node21&#45;&gt;Node27</title>
<path fill="none" stroke="midnightblue" d="M1842.3,-179.44C1812.09,-170.28 1763.99,-155.69 1730.47,-145.52"/>
<polygon fill="midnightblue" stroke="midnightblue" points="1731.16,-142.07 1720.57,-142.52 1729.13,-148.77 1731.16,-142.07"/>
</g>
<!-- Node28 -->
<g id="node28" class="node">
<title>Node28</title>
<g id="a_node28"><a xlink:title=" ">
<polygon fill="white" stroke="#bfbfbf" points="1740,-123.5 1740,-142.5 1787,-142.5 1787,-123.5 1740,-123.5"/>
<text text-anchor="middle" x="1763.5" y="-130.5" font-family="Helvetica,sans-Serif" font-size="10.00">vector</text>
</a>
</g>
</g>
<!-- Node21&#45;&gt;Node28 -->
<g id="edge27" class="edge">
<title>Node21&#45;&gt;Node28</title>
<path fill="none" stroke="midnightblue" d="M1853.31,-179.32C1836.15,-170.66 1809.55,-157.24 1789.75,-147.25"/>
<polygon fill="midnightblue" stroke="midnightblue" points="1791.15,-144.04 1780.65,-142.65 1788,-150.28 1791.15,-144.04"/>
</g>
<!-- Node29 -->
<g id="node29" class="node">
<title>Node29</title>
<g id="a_node29"><a xlink:title=" ">
<polygon fill="white" stroke="#bfbfbf" points="1805.5,-123.5 1805.5,-142.5 1865.5,-142.5 1865.5,-123.5 1805.5,-123.5"/>
<text text-anchor="middle" x="1835.5" y="-130.5" font-family="Helvetica,sans-Serif" font-size="10.00">iostream</text>
</a>
</g>
</g>
<!-- Node21&#45;&gt;Node29 -->
<g id="edge28" class="edge">
<title>Node21&#45;&gt;Node29</title>
<path fill="none" stroke="midnightblue" d="M1864.72,-179.08C1859.83,-171.53 1852.67,-160.49 1846.67,-151.23"/>
<polygon fill="midnightblue" stroke="midnightblue" points="1849.55,-149.24 1841.17,-142.75 1843.67,-153.05 1849.55,-149.24"/>
</g>
<!-- Node30 -->
<g id="node30" class="node">
<title>Node30</title>
<g id="a_node30"><a xlink:title=" ">
<polygon fill="white" stroke="#bfbfbf" points="1883.5,-123.5 1883.5,-142.5 1927.5,-142.5 1927.5,-123.5 1883.5,-123.5"/>
<text text-anchor="middle" x="1905.5" y="-130.5" font-family="Helvetica,sans-Serif" font-size="10.00">string</text>
</a>
</g>
</g>
<!-- Node21&#45;&gt;Node30 -->
<g id="edge29" class="edge">
<title>Node21&#45;&gt;Node30</title>
<path fill="none" stroke="midnightblue" d="M1876.28,-179.08C1881.17,-171.53 1888.33,-160.49 1894.33,-151.23"/>
<polygon fill="midnightblue" stroke="midnightblue" points="1897.33,-153.05 1899.83,-142.75 1891.45,-149.24 1897.33,-153.05"/>
</g>
<!-- Node31 -->
<g id="node31" class="node">
<title>Node31</title>
<g id="a_node31"><a xlink:title=" ">
<polygon fill="white" stroke="#bfbfbf" points="1945.5,-123.5 1945.5,-142.5 2075.5,-142.5 2075.5,-123.5 1945.5,-123.5"/>
<text text-anchor="middle" x="2010.5" y="-130.5" font-family="Helvetica,sans-Serif" font-size="10.00">G4AssemblyVolume.hh</text>
</a>
</g>
</g>
<!-- Node21&#45;&gt;Node31 -->
<g id="edge30" class="edge">
<title>Node21&#45;&gt;Node31</title>
<path fill="none" stroke="midnightblue" d="M1892.68,-179.44C1915.93,-170.48 1952.65,-156.31 1978.92,-146.18"/>
<polygon fill="midnightblue" stroke="midnightblue" points="1980.35,-149.38 1988.42,-142.52 1977.83,-142.85 1980.35,-149.38"/>
</g>
<!-- Node32 -->
<g id="node32" class="node">
<title>Node32</title>
<g id="a_node32"><a xlink:title=" ">
<polygon fill="white" stroke="#bfbfbf" points="2093.5,-123.5 2093.5,-142.5 2209.5,-142.5 2209.5,-123.5 2093.5,-123.5"/>
<text text-anchor="middle" x="2151.5" y="-130.5" font-family="Helvetica,sans-Serif" font-size="10.00">G4LogicalVolume.hh</text>
</a>
</g>
</g>
<!-- Node21&#45;&gt;Node32 -->
<g id="edge31" class="edge">
<title>Node21&#45;&gt;Node32</title>
<path fill="none" stroke="midnightblue" d="M1910.16,-180.38C1959.01,-170.99 2042.24,-155 2097.05,-144.46"/>
<polygon fill="midnightblue" stroke="midnightblue" points="2097.78,-147.89 2106.94,-142.56 2096.46,-141.01 2097.78,-147.89"/>
</g>
<!-- Node33 -->
<g id="node33" class="node">
<title>Node33</title>
<g id="a_node33"><a xlink:title=" ">
<polygon fill="white" stroke="#bfbfbf" points="2227.5,-123.5 2227.5,-142.5 2313.5,-142.5 2313.5,-123.5 2227.5,-123.5"/>
<text text-anchor="middle" x="2270.5" y="-130.5" font-family="Helvetica,sans-Serif" font-size="10.00">G4Material.hh</text>
</a>
</g>
</g>
<!-- Node21&#45;&gt;Node33 -->
<g id="edge32" class="edge">
<title>Node21&#45;&gt;Node33</title>
<path fill="none" stroke="midnightblue" d="M1910.05,-180.52C1913.24,-179.98 1916.42,-179.47 1919.5,-179 2048.6,-159.39 2084.34,-162.26 2217.23,-143.12"/>
<polygon fill="midnightblue" stroke="midnightblue" points="2218.01,-146.54 2227.4,-141.64 2217,-139.61 2218.01,-146.54"/>
</g>
<!-- Node34 -->
<g id="node34" class="node">
<title>Node34</title>
<g id="a_node34"><a xlink:title=" ">
<polygon fill="white" stroke="#bfbfbf" points="2331.5,-123.5 2331.5,-142.5 2455.5,-142.5 2455.5,-123.5 2331.5,-123.5"/>
<text text-anchor="middle" x="2393.5" y="-130.5" font-family="Helvetica,sans-Serif" font-size="10.00">G4TessellatedSolid.hh</text>
</a>
</g>
</g>
<!-- Node21&#45;&gt;Node34 -->
<g id="edge33" class="edge">
<title>Node21&#45;&gt;Node34</title>
<path fill="none" stroke="midnightblue" d="M1910.03,-180.41C1913.23,-179.9 1916.41,-179.42 1919.5,-179 2094.46,-155.17 2142.01,-162.05 2321.15,-143.1"/>
<polygon fill="midnightblue" stroke="midnightblue" points="2321.61,-146.58 2331.18,-142.03 2320.86,-139.62 2321.61,-146.58"/>
</g>
<!-- Node35 -->
<g id="node35" class="node">
<title>Node35</title>
<g id="a_node35"><a xlink:title=" ">
<polygon fill="white" stroke="#bfbfbf" points="2474,-123.5 2474,-142.5 2533,-142.5 2533,-123.5 2474,-123.5"/>
<text text-anchor="middle" x="2503.5" y="-130.5" font-family="Helvetica,sans-Serif" font-size="10.00">G4Tet.hh</text>
</a>
</g>
</g>
<!-- Node21&#45;&gt;Node35 -->
<g id="edge34" class="edge">
<title>Node21&#45;&gt;Node35</title>
<path fill="none" stroke="midnightblue" d="M1910.02,-180.34C1913.22,-179.84 1916.41,-179.38 1919.5,-179 2157.1,-149.43 2222.56,-177.61 2463.66,-142.86"/>
<polygon fill="midnightblue" stroke="midnightblue" points="2464.4,-146.29 2473.78,-141.38 2463.38,-139.36 2464.4,-146.29"/>
</g>
<!-- Node36 -->
<g id="node36" class="node">
<title>Node36</title>
<g id="a_node36"><a xlink:title=" ">
<polygon fill="white" stroke="#bfbfbf" points="2551.5,-123.5 2551.5,-142.5 2655.5,-142.5 2655.5,-123.5 2551.5,-123.5"/>
<text text-anchor="middle" x="2603.5" y="-130.5" font-family="Helvetica,sans-Serif" font-size="10.00">G4UIcommand.hh</text>
</a>
</g>
</g>
<!-- Node21&#45;&gt;Node36 -->
<g id="edge35" class="edge">
<title>Node21&#45;&gt;Node36</title>
<path fill="none" stroke="midnightblue" d="M1910.02,-180.31C1913.22,-179.82 1916.41,-179.37 1919.5,-179 2191.51,-146.29 2264.81,-170.66 2540.96,-143.06"/>
<polygon fill="midnightblue" stroke="midnightblue" points="2541.7,-146.5 2551.29,-142.01 2540.99,-139.54 2541.7,-146.5"/>
</g>
<!-- Node37 -->
<g id="node37" class="node">
<title>Node37</title>
<g id="a_node37"><a xlink:title=" ">
<polygon fill="white" stroke="#bfbfbf" points="2674,-123.5 2674,-142.5 2741,-142.5 2741,-123.5 2674,-123.5"/>
<text text-anchor="middle" x="2707.5" y="-130.5" font-family="Helvetica,sans-Serif" font-size="10.00">globals.hh</text>
</a>
</g>
</g>
<!-- Node21&#45;&gt;Node37 -->
<g id="edge36" class="edge">
<title>Node21&#45;&gt;Node37</title>
<path fill="none" stroke="midnightblue" d="M1910.01,-180.28C1913.21,-179.79 1916.41,-179.36 1919.5,-179 2245.43,-141.36 2333.88,-184.19 2663.46,-142.89"/>
<polygon fill="midnightblue" stroke="midnightblue" points="2664.31,-146.31 2673.78,-141.58 2663.42,-139.37 2664.31,-146.31"/>
</g>
<!-- Node38 -->
<g id="node38" class="node">
<title>Node38</title>
<g id="a_node38"><a xlink:title=" ">
<polygon fill="white" stroke="#bfbfbf" points="2759.5,-123.5 2759.5,-142.5 2815.5,-142.5 2815.5,-123.5 2759.5,-123.5"/>
<text text-anchor="middle" x="2787.5" y="-130.5" font-family="Helvetica,sans-Serif" font-size="10.00">sstream</text>
</a>
</g>
</g>
<!-- Node21&#45;&gt;Node38 -->
<g id="edge38" class="edge">
<title>Node21&#45;&gt;Node38</title>
<path fill="none" stroke="midnightblue" d="M1910.01,-180.26C1913.21,-179.78 1916.41,-179.35 1919.5,-179 2283.53,-137.88 2382.7,-193.91 2749.24,-142.88"/>
<polygon fill="midnightblue" stroke="midnightblue" points="2749.91,-146.31 2759.33,-141.45 2748.94,-139.38 2749.91,-146.31"/>
</g>
<!-- Node39 -->
<g id="node39" class="node">
<title>Node39</title>
<g id="a_node39"><a xlink:title=" ">
<polygon fill="white" stroke="#bfbfbf" points="2834,-123.5 2834,-142.5 2901,-142.5 2901,-123.5 2834,-123.5"/>
<text text-anchor="middle" x="2867.5" y="-130.5" font-family="Helvetica,sans-Serif" font-size="10.00">streambuf</text>
</a>
</g>
</g>
<!-- Node21&#45;&gt;Node39 -->
<g id="edge39" class="edge">
<title>Node21&#45;&gt;Node39</title>
<path fill="none" stroke="midnightblue" d="M1910.01,-180.25C1913.21,-179.77 1916.41,-179.34 1919.5,-179 2316.26,-134.9 2423.23,-191.45 2823.67,-142.85"/>
<polygon fill="midnightblue" stroke="midnightblue" points="2824.29,-146.3 2833.79,-141.61 2823.44,-139.35 2824.29,-146.3"/>
</g>
<!-- Node40 -->
<g id="node40" class="node">
<title>Node40</title>
<g id="a_node40"><a xlink:title=" ">
<polygon fill="white" stroke="#bfbfbf" points="2919.5,-123.5 2919.5,-142.5 3005.5,-142.5 3005.5,-123.5 2919.5,-123.5"/>
<text text-anchor="middle" x="2962.5" y="-130.5" font-family="Helvetica,sans-Serif" font-size="10.00">Randomize.hh</text>
</a>
</g>
</g>
<!-- Node21&#45;&gt;Node40 -->
<g id="edge40" class="edge">
<title>Node21&#45;&gt;Node40</title>
<path fill="none" stroke="midnightblue" d="M1910.01,-180.23C1913.21,-179.76 1916.4,-179.34 1919.5,-179 2354.3,-131.43 2470.39,-187.82 2909.33,-142.96"/>
<polygon fill="midnightblue" stroke="midnightblue" points="2909.85,-146.43 2919.43,-141.92 2909.13,-139.46 2909.85,-146.43"/>
</g>
</g>
</svg>
