<?xml version="1.0" encoding="UTF-8" standalone="no"?>
<!DOCTYPE svg PUBLIC "-//W3C//DTD SVG 1.1//EN"
 "http://www.w3.org/Graphics/SVG/1.1/DTD/svg11.dtd">
<!-- Generated by graphviz version 2.43.0 (0)
 -->
<!-- Title: OMSimCommandArgsTable.hh Pages: 1 -->
<svg width="3719pt" height="196pt"
 viewBox="0.00 0.00 3719.00 196.00" xmlns="http://www.w3.org/2000/svg" xmlns:xlink="http://www.w3.org/1999/xlink">
<g id="graph0" class="graph" transform="scale(1 1) rotate(0) translate(4 192)">
<title>OMSimCommandArgsTable.hh</title>
<polygon fill="white" stroke="transparent" points="-4,4 -4,-192 3715,-192 3715,4 -4,4"/>
<!-- Node1 -->
<g id="node1" class="node">
<title>Node1</title>
<g id="a_node1"><a xlink:title="Definition of the OMSimCommandArgsTable singleton class, which controls user args.">
<polygon fill="#bfbfbf" stroke="black" points="1667,-168.5 1667,-187.5 1831,-187.5 1831,-168.5 1667,-168.5"/>
<text text-anchor="middle" x="1749" y="-175.5" font-family="Helvetica,sans-Serif" font-size="10.00">OMSimCommandArgsTable.hh</text>
</a>
</g>
</g>
<!-- Node2 -->
<g id="node2" class="node">
<title>Node2</title>
<g id="a_node2"><a xlink:href="_o_m_sim_data_file_types_8hh.html" target="_top" xlink:title="Collection of classes and methods to handle material creation from user data in json files.">
<polygon fill="white" stroke="black" points="141.5,-112.5 141.5,-131.5 276.5,-131.5 276.5,-112.5 141.5,-112.5"/>
<text text-anchor="middle" x="209" y="-119.5" font-family="Helvetica,sans-Serif" font-size="10.00">OMSimDataFileTypes.hh</text>
</a>
</g>
</g>
<!-- Node1&#45;&gt;Node2 -->
<g id="edge1" class="edge">
<title>Node1&#45;&gt;Node2</title>
<path fill="none" stroke="midnightblue" d="M1656.57,-176.49C1426.32,-174.7 808.69,-166.78 295,-132 289.01,-131.59 282.79,-131.1 276.56,-130.54"/>
<polygon fill="midnightblue" stroke="midnightblue" points="1656.89,-179.99 1666.91,-176.57 1656.94,-172.99 1656.89,-179.99"/>
</g>
<!-- Node4 -->
<g id="node4" class="node">
<title>Node4</title>
<g id="a_node4"><a xlink:href="_o_m_sim_input_data_8cc.html" target="_top" xlink:title=" ">
<polygon fill="white" stroke="black" points="152.5,-56.5 152.5,-75.5 265.5,-75.5 265.5,-56.5 152.5,-56.5"/>
<text text-anchor="middle" x="209" y="-63.5" font-family="Helvetica,sans-Serif" font-size="10.00">OMSimInputData.cc</text>
</a>
</g>
</g>
<!-- Node1&#45;&gt;Node4 -->
<g id="edge14" class="edge">
<title>Node1&#45;&gt;Node4</title>
<path fill="none" stroke="midnightblue" d="M1656.65,-176.11C1365.56,-173.01 479.06,-161.26 353,-132 302.5,-120.28 248.08,-90.43 223.05,-75.62"/>
<polygon fill="midnightblue" stroke="midnightblue" points="1656.71,-179.61 1666.75,-176.22 1656.78,-172.61 1656.71,-179.61"/>
</g>
<!-- Node5 -->
<g id="node5" class="node">
<title>Node5</title>
<g id="a_node5"><a xlink:href="_o_m_sim_u_iinterface_8hh.html" target="_top" xlink:title="The OMSimUIinterface class provides a singleton interface to Geant4&#39;s UI manager.">
<polygon fill="white" stroke="black" points="379.5,-112.5 379.5,-131.5 500.5,-131.5 500.5,-112.5 379.5,-112.5"/>
<text text-anchor="middle" x="440" y="-119.5" font-family="Helvetica,sans-Serif" font-size="10.00">OMSimUIinterface.hh</text>
</a>
</g>
</g>
<!-- Node1&#45;&gt;Node5 -->
<g id="edge4" class="edge">
<title>Node1&#45;&gt;Node5</title>
<path fill="none" stroke="midnightblue" d="M1656.76,-176.53C1450.76,-174.86 937.72,-167.19 510,-132 506.95,-131.75 503.82,-131.46 500.67,-131.15"/>
<polygon fill="midnightblue" stroke="midnightblue" points="1656.91,-180.04 1666.93,-176.61 1656.96,-173.04 1656.91,-180.04"/>
</g>
<!-- Node11 -->
<g id="node11" class="node">
<title>Node11</title>
<g id="a_node11"><a xlink:href="_o_m_sim_m_d_o_m_flasher_8cc.html" target="_top" xlink:title=" ">
<polygon fill="white" stroke="black" points="284,-56.5 284,-75.5 418,-75.5 418,-56.5 284,-56.5"/>
<text text-anchor="middle" x="351" y="-63.5" font-family="Helvetica,sans-Serif" font-size="10.00">OMSimMDOMFlasher.cc</text>
</a>
</g>
</g>
<!-- Node1&#45;&gt;Node11 -->
<g id="edge23" class="edge">
<title>Node1&#45;&gt;Node11</title>
<path fill="none" stroke="midnightblue" d="M1656.37,-176.94C1355.3,-176.36 420.78,-171.37 370,-132 352.72,-118.6 350.52,-90.36 350.61,-75.92"/>
<polygon fill="midnightblue" stroke="midnightblue" points="1656.81,-180.44 1666.81,-176.96 1656.82,-173.44 1656.81,-180.44"/>
</g>
<!-- Node14 -->
<g id="node14" class="node">
<title>Node14</title>
<g id="a_node14"><a xlink:href="_o_m_sim_hit_manager_8cc.html" target="_top" xlink:title=" ">
<polygon fill="white" stroke="black" points="519,-112.5 519,-131.5 641,-131.5 641,-112.5 519,-112.5"/>
<text text-anchor="middle" x="580" y="-119.5" font-family="Helvetica,sans-Serif" font-size="10.00">OMSimHitManager.cc</text>
</a>
</g>
</g>
<!-- Node1&#45;&gt;Node14 -->
<g id="edge13" class="edge">
<title>Node1&#45;&gt;Node14</title>
<path fill="none" stroke="midnightblue" d="M1656.73,-175.87C1467.71,-172.97 1022.97,-163.14 651,-132 647.78,-131.73 644.48,-131.42 641.16,-131.09"/>
<polygon fill="midnightblue" stroke="midnightblue" points="1656.84,-179.37 1666.9,-176.02 1656.95,-172.37 1656.84,-179.37"/>
</g>
<!-- Node15 -->
<g id="node15" class="node">
<title>Node15</title>
<g id="a_node15"><a xlink:href="_o_m_sim_p_m_t_construction_8cc.html" target="_top" xlink:title=" ">
<polygon fill="white" stroke="black" points="659.5,-112.5 659.5,-131.5 806.5,-131.5 806.5,-112.5 659.5,-112.5"/>
<text text-anchor="middle" x="733" y="-119.5" font-family="Helvetica,sans-Serif" font-size="10.00">OMSimPMTConstruction.cc</text>
</a>
</g>
</g>
<!-- Node1&#45;&gt;Node15 -->
<g id="edge15" class="edge">
<title>Node1&#45;&gt;Node15</title>
<path fill="none" stroke="midnightblue" d="M1656.82,-174.38C1489.24,-169.22 1123.56,-156.07 816,-132 812.97,-131.76 809.87,-131.5 806.74,-131.23"/>
<polygon fill="midnightblue" stroke="midnightblue" points="1656.74,-177.88 1666.84,-174.69 1656.95,-170.88 1656.74,-177.88"/>
</g>
<!-- Node16 -->
<g id="node16" class="node">
<title>Node16</title>
<g id="a_node16"><a xlink:href="_o_m_sim_p_m_t_response_8cc.html" target="_top" xlink:title=" ">
<polygon fill="white" stroke="black" points="825,-112.5 825,-131.5 959,-131.5 959,-112.5 825,-112.5"/>
<text text-anchor="middle" x="892" y="-119.5" font-family="Helvetica,sans-Serif" font-size="10.00">OMSimPMTResponse.cc</text>
</a>
</g>
</g>
<!-- Node1&#45;&gt;Node16 -->
<g id="edge16" class="edge">
<title>Node1&#45;&gt;Node16</title>
<path fill="none" stroke="midnightblue" d="M1656.64,-173.43C1510.51,-167.38 1217.09,-153.64 969,-132 965.78,-131.72 962.49,-131.41 959.17,-131.09"/>
<polygon fill="midnightblue" stroke="midnightblue" points="1656.77,-176.94 1666.91,-173.85 1657.06,-169.94 1656.77,-176.94"/>
</g>
<!-- Node17 -->
<g id="node17" class="node">
<title>Node17</title>
<g id="a_node17"><a xlink:href="_o_m_sim_tracking_action_8cc.html" target="_top" xlink:title=" ">
<polygon fill="white" stroke="black" points="977.5,-112.5 977.5,-131.5 1114.5,-131.5 1114.5,-112.5 977.5,-112.5"/>
<text text-anchor="middle" x="1046" y="-119.5" font-family="Helvetica,sans-Serif" font-size="10.00">OMSimTrackingAction.cc</text>
</a>
</g>
</g>
<!-- Node1&#45;&gt;Node17 -->
<g id="edge17" class="edge">
<title>Node1&#45;&gt;Node17</title>
<path fill="none" stroke="midnightblue" d="M1656.7,-171.6C1534.67,-164.17 1312.98,-149.7 1124,-132 1121.01,-131.72 1117.97,-131.42 1114.89,-131.11"/>
<polygon fill="midnightblue" stroke="midnightblue" points="1656.56,-175.1 1666.76,-172.21 1656.99,-168.11 1656.56,-175.1"/>
</g>
<!-- Node18 -->
<g id="node18" class="node">
<title>Node18</title>
<g id="a_node18"><a xlink:href="_o_m_sim_d_e_g_g_8cc.html" target="_top" xlink:title=" ">
<polygon fill="white" stroke="black" points="1133,-112.5 1133,-131.5 1227,-131.5 1227,-112.5 1133,-112.5"/>
<text text-anchor="middle" x="1180" y="-119.5" font-family="Helvetica,sans-Serif" font-size="10.00">OMSimDEGG.cc</text>
</a>
</g>
</g>
<!-- Node1&#45;&gt;Node18 -->
<g id="edge18" class="edge">
<title>Node1&#45;&gt;Node18</title>
<path fill="none" stroke="midnightblue" d="M1656.58,-170.9C1553.7,-163.65 1382.61,-150.19 1236,-132 1233.07,-131.64 1230.05,-131.23 1227.02,-130.81"/>
<polygon fill="midnightblue" stroke="midnightblue" points="1656.4,-174.4 1666.62,-171.61 1656.89,-167.41 1656.4,-174.4"/>
</g>
<!-- Node19 -->
<g id="node19" class="node">
<title>Node19</title>
<g id="a_node19"><a xlink:href="_o_m_sim_d_e_g_g_harness_8cc.html" target="_top" xlink:title=" ">
<polygon fill="white" stroke="black" points="1245,-112.5 1245,-131.5 1379,-131.5 1379,-112.5 1245,-112.5"/>
<text text-anchor="middle" x="1312" y="-119.5" font-family="Helvetica,sans-Serif" font-size="10.00">OMSimDEGGHarness.cc</text>
</a>
</g>
</g>
<!-- Node1&#45;&gt;Node19 -->
<g id="edge19" class="edge">
<title>Node1&#45;&gt;Node19</title>
<path fill="none" stroke="midnightblue" d="M1669.6,-167.19C1586.47,-156.92 1457.35,-140.96 1379.13,-131.29"/>
<polygon fill="midnightblue" stroke="midnightblue" points="1669.4,-170.69 1679.76,-168.44 1670.26,-163.74 1669.4,-170.69"/>
</g>
<!-- Node20 -->
<g id="node20" class="node">
<title>Node20</title>
<g id="a_node20"><a xlink:href="_o_m_sim_l_o_m16_8cc.html" target="_top" xlink:title=" ">
<polygon fill="white" stroke="black" points="1397.5,-112.5 1397.5,-131.5 1496.5,-131.5 1496.5,-112.5 1397.5,-112.5"/>
<text text-anchor="middle" x="1447" y="-119.5" font-family="Helvetica,sans-Serif" font-size="10.00">OMSimLOM16.cc</text>
</a>
</g>
</g>
<!-- Node1&#45;&gt;Node20 -->
<g id="edge20" class="edge">
<title>Node1&#45;&gt;Node20</title>
<path fill="none" stroke="midnightblue" d="M1691.2,-166.66C1634.12,-156.46 1547.88,-141.04 1494.63,-131.52"/>
<polygon fill="midnightblue" stroke="midnightblue" points="1690.69,-170.13 1701.15,-168.44 1691.92,-163.24 1690.69,-170.13"/>
</g>
<!-- Node21 -->
<g id="node21" class="node">
<title>Node21</title>
<g id="a_node21"><a xlink:href="_o_m_sim_l_o_m18_8cc.html" target="_top" xlink:title=" ">
<polygon fill="white" stroke="black" points="1514.5,-112.5 1514.5,-131.5 1613.5,-131.5 1613.5,-112.5 1514.5,-112.5"/>
<text text-anchor="middle" x="1564" y="-119.5" font-family="Helvetica,sans-Serif" font-size="10.00">OMSimLOM18.cc</text>
</a>
</g>
</g>
<!-- Node1&#45;&gt;Node21 -->
<g id="edge21" class="edge">
<title>Node1&#45;&gt;Node21</title>
<path fill="none" stroke="midnightblue" d="M1709.83,-165.57C1674.93,-155.38 1624.65,-140.7 1593.18,-131.52"/>
<polygon fill="midnightblue" stroke="midnightblue" points="1709.11,-169 1719.69,-168.44 1711.07,-162.28 1709.11,-169"/>
</g>
<!-- Node22 -->
<g id="node22" class="node">
<title>Node22</title>
<g id="a_node22"><a xlink:href="_o_m_sim_m_d_o_m_8cc.html" target="_top" xlink:title=" ">
<polygon fill="white" stroke="black" points="1632,-112.5 1632,-131.5 1730,-131.5 1730,-112.5 1632,-112.5"/>
<text text-anchor="middle" x="1681" y="-119.5" font-family="Helvetica,sans-Serif" font-size="10.00">OMSimMDOM.cc</text>
</a>
</g>
</g>
<!-- Node1&#45;&gt;Node22 -->
<g id="edge22" class="edge">
<title>Node1&#45;&gt;Node22</title>
<path fill="none" stroke="midnightblue" d="M1730.24,-162.1C1718,-152.38 1702.44,-140.03 1692.12,-131.83"/>
<polygon fill="midnightblue" stroke="midnightblue" points="1728.07,-164.85 1738.07,-168.32 1732.42,-159.36 1728.07,-164.85"/>
</g>
<!-- Node23 -->
<g id="node23" class="node">
<title>Node23</title>
<g id="a_node23"><a xlink:href="_o_m_sim_m_d_o_m_harness_8cc.html" target="_top" xlink:title=" ">
<polygon fill="white" stroke="black" points="1748,-112.5 1748,-131.5 1886,-131.5 1886,-112.5 1748,-112.5"/>
<text text-anchor="middle" x="1817" y="-119.5" font-family="Helvetica,sans-Serif" font-size="10.00">OMSimMDOMHarness.cc</text>
</a>
</g>
</g>
<!-- Node1&#45;&gt;Node23 -->
<g id="edge24" class="edge">
<title>Node1&#45;&gt;Node23</title>
<path fill="none" stroke="midnightblue" d="M1767.76,-162.1C1780,-152.38 1795.56,-140.03 1805.88,-131.83"/>
<polygon fill="midnightblue" stroke="midnightblue" points="1765.58,-159.36 1759.93,-168.32 1769.93,-164.85 1765.58,-159.36"/>
</g>
<!-- Node24 -->
<g id="node24" class="node">
<title>Node24</title>
<g id="a_node24"><a xlink:href="_o_m_sim_p_d_o_m_8cc.html" target="_top" xlink:title=" ">
<polygon fill="white" stroke="black" points="1904.5,-112.5 1904.5,-131.5 1999.5,-131.5 1999.5,-112.5 1904.5,-112.5"/>
<text text-anchor="middle" x="1952" y="-119.5" font-family="Helvetica,sans-Serif" font-size="10.00">OMSimPDOM.cc</text>
</a>
</g>
</g>
<!-- Node1&#45;&gt;Node24 -->
<g id="edge25" class="edge">
<title>Node1&#45;&gt;Node24</title>
<path fill="none" stroke="midnightblue" d="M1790.99,-165.83C1829.32,-155.63 1885.15,-140.78 1919.98,-131.52"/>
<polygon fill="midnightblue" stroke="midnightblue" points="1789.93,-162.49 1781.17,-168.44 1791.73,-169.26 1789.93,-162.49"/>
</g>
<!-- Node25 -->
<g id="node25" class="node">
<title>Node25</title>
<g id="a_node25"><a xlink:href="effective__area_2src_2_o_m_sim_detector_construction_8cc.html" target="_top" xlink:title=" ">
<polygon fill="white" stroke="black" points="2017.5,-112.5 2017.5,-131.5 2186.5,-131.5 2186.5,-112.5 2017.5,-112.5"/>
<text text-anchor="middle" x="2102" y="-119.5" font-family="Helvetica,sans-Serif" font-size="10.00">OMSimDetectorConstruction.cc</text>
</a>
</g>
</g>
<!-- Node1&#45;&gt;Node25 -->
<g id="edge26" class="edge">
<title>Node1&#45;&gt;Node25</title>
<path fill="none" stroke="midnightblue" d="M1814.92,-166.92C1881.6,-156.71 1983.57,-141.12 2046.33,-131.52"/>
<polygon fill="midnightblue" stroke="midnightblue" points="1814.29,-163.47 1804.93,-168.44 1815.35,-170.39 1814.29,-163.47"/>
</g>
<!-- Node26 -->
<g id="node26" class="node">
<title>Node26</title>
<g id="a_node26"><a xlink:href="_o_m_sim_effective_area_analyisis_8cc.html" target="_top" xlink:title=" ">
<polygon fill="white" stroke="black" points="2204.5,-112.5 2204.5,-131.5 2379.5,-131.5 2379.5,-112.5 2204.5,-112.5"/>
<text text-anchor="middle" x="2292" y="-119.5" font-family="Helvetica,sans-Serif" font-size="10.00">OMSimEffectiveAreaAnalyisis.cc</text>
</a>
</g>
</g>
<!-- Node1&#45;&gt;Node26 -->
<g id="edge27" class="edge">
<title>Node1&#45;&gt;Node26</title>
<path fill="none" stroke="midnightblue" d="M1841.18,-167.83C1943.39,-157.67 2106.93,-141.4 2206.41,-131.51"/>
<polygon fill="midnightblue" stroke="midnightblue" points="1840.78,-164.36 1831.18,-168.83 1841.47,-171.32 1840.78,-164.36"/>
</g>
<!-- Node27 -->
<g id="node27" class="node">
<title>Node27</title>
<g id="a_node27"><a xlink:href="_o_m_sim_decays_analysis_8cc.html" target="_top" xlink:title=" ">
<polygon fill="white" stroke="black" points="2397.5,-112.5 2397.5,-131.5 2540.5,-131.5 2540.5,-112.5 2397.5,-112.5"/>
<text text-anchor="middle" x="2469" y="-119.5" font-family="Helvetica,sans-Serif" font-size="10.00">OMSimDecaysAnalysis.cc</text>
</a>
</g>
</g>
<!-- Node1&#45;&gt;Node27 -->
<g id="edge28" class="edge">
<title>Node1&#45;&gt;Node27</title>
<path fill="none" stroke="midnightblue" d="M1841.43,-171.72C1965.94,-164.33 2194.39,-149.78 2389,-132 2391.78,-131.75 2394.62,-131.48 2397.49,-131.2"/>
<polygon fill="midnightblue" stroke="midnightblue" points="1840.95,-168.24 1831.17,-172.32 1841.36,-175.23 1840.95,-168.24"/>
</g>
<!-- Node28 -->
<g id="node28" class="node">
<title>Node28</title>
<g id="a_node28"><a xlink:href="radioactive__decays_2src_2_o_m_sim_detector_construction_8cc.html" target="_top" xlink:title=" ">
<polygon fill="white" stroke="black" points="2558.5,-112.5 2558.5,-131.5 2727.5,-131.5 2727.5,-112.5 2558.5,-112.5"/>
<text text-anchor="middle" x="2643" y="-119.5" font-family="Helvetica,sans-Serif" font-size="10.00">OMSimDetectorConstruction.cc</text>
</a>
</g>
</g>
<!-- Node1&#45;&gt;Node28 -->
<g id="edge29" class="edge">
<title>Node1&#45;&gt;Node28</title>
<path fill="none" stroke="midnightblue" d="M1841.26,-173.03C1990.39,-166.34 2293.59,-151.6 2550,-132 2552.75,-131.79 2555.54,-131.57 2558.37,-131.34"/>
<polygon fill="midnightblue" stroke="midnightblue" points="1841.06,-169.53 1831.23,-173.48 1841.38,-176.53 1841.06,-169.53"/>
</g>
<!-- Node29 -->
<g id="node29" class="node">
<title>Node29</title>
<g id="a_node29"><a xlink:href="radioactive__decays_2src_2_o_m_sim_event_action_8cc.html" target="_top" xlink:title=" ">
<polygon fill="white" stroke="black" points="2745,-112.5 2745,-131.5 2869,-131.5 2869,-112.5 2745,-112.5"/>
<text text-anchor="middle" x="2807" y="-119.5" font-family="Helvetica,sans-Serif" font-size="10.00">OMSimEventAction.cc</text>
</a>
</g>
</g>
<!-- Node1&#45;&gt;Node29 -->
<g id="edge30" class="edge">
<title>Node1&#45;&gt;Node29</title>
<path fill="none" stroke="midnightblue" d="M1841.32,-175.33C2016.33,-171.6 2408.27,-160.57 2737,-132 2739.56,-131.78 2742.18,-131.53 2744.82,-131.27"/>
<polygon fill="midnightblue" stroke="midnightblue" points="1841.05,-171.84 1831.12,-175.54 1841.2,-178.83 1841.05,-171.84"/>
</g>
<!-- Node30 -->
<g id="node30" class="node">
<title>Node30</title>
<g id="a_node30"><a xlink:href="_o_m_sim_g4_radioactive_decay_8cc.html" target="_top" xlink:title=" ">
<polygon fill="white" stroke="black" points="2887,-112.5 2887,-131.5 3053,-131.5 3053,-112.5 2887,-112.5"/>
<text text-anchor="middle" x="2970" y="-119.5" font-family="Helvetica,sans-Serif" font-size="10.00">OMSimG4RadioactiveDecay.cc</text>
</a>
</g>
</g>
<!-- Node1&#45;&gt;Node30 -->
<g id="edge31" class="edge">
<title>Node1&#45;&gt;Node30</title>
<path fill="none" stroke="midnightblue" d="M1841.34,-175.12C2034.14,-170.81 2493.48,-158.45 2878,-132 2880.88,-131.8 2883.81,-131.59 2886.77,-131.36"/>
<polygon fill="midnightblue" stroke="midnightblue" points="1841.17,-171.63 1831.25,-175.35 1841.33,-178.62 1841.17,-171.63"/>
</g>
<!-- Node31 -->
<g id="node31" class="node">
<title>Node31</title>
<g id="a_node31"><a xlink:href="supernova_2src_2_o_m_sim_detector_construction_8cc.html" target="_top" xlink:title=" ">
<polygon fill="white" stroke="black" points="3071.5,-112.5 3071.5,-131.5 3240.5,-131.5 3240.5,-112.5 3071.5,-112.5"/>
<text text-anchor="middle" x="3156" y="-119.5" font-family="Helvetica,sans-Serif" font-size="10.00">OMSimDetectorConstruction.cc</text>
</a>
</g>
</g>
<!-- Node1&#45;&gt;Node31 -->
<g id="edge32" class="edge">
<title>Node1&#45;&gt;Node31</title>
<path fill="none" stroke="midnightblue" d="M1841.56,-175.77C2056.22,-172.5 2604.61,-161.71 3062,-132 3065.11,-131.8 3068.27,-131.58 3071.47,-131.34"/>
<polygon fill="midnightblue" stroke="midnightblue" points="1841.23,-172.28 1831.28,-175.93 1841.33,-179.28 1841.23,-172.28"/>
</g>
<!-- Node32 -->
<g id="node32" class="node">
<title>Node32</title>
<g id="a_node32"><a xlink:href="_o_m_sim_e_n_e_s_8cc.html" target="_top" xlink:title=" ">
<polygon fill="white" stroke="black" points="3258.5,-112.5 3258.5,-131.5 3349.5,-131.5 3349.5,-112.5 3258.5,-112.5"/>
<text text-anchor="middle" x="3304" y="-119.5" font-family="Helvetica,sans-Serif" font-size="10.00">OMSimENES.cc</text>
</a>
</g>
</g>
<!-- Node1&#45;&gt;Node32 -->
<g id="edge33" class="edge">
<title>Node1&#45;&gt;Node32</title>
<path fill="none" stroke="midnightblue" d="M1841.4,-175.87C2124.07,-172.14 2974.64,-158.95 3250,-132 3252.74,-131.73 3255.56,-131.41 3258.39,-131.05"/>
<polygon fill="midnightblue" stroke="midnightblue" points="1841.13,-172.37 1831.18,-176 1841.22,-179.37 1841.13,-172.37"/>
</g>
<!-- Node33 -->
<g id="node33" class="node">
<title>Node33</title>
<g id="a_node33"><a xlink:href="_o_m_sim_i_b_d_8cc.html" target="_top" xlink:title=" ">
<polygon fill="white" stroke="black" points="3367.5,-112.5 3367.5,-131.5 3450.5,-131.5 3450.5,-112.5 3367.5,-112.5"/>
<text text-anchor="middle" x="3409" y="-119.5" font-family="Helvetica,sans-Serif" font-size="10.00">OMSimIBD.cc</text>
</a>
</g>
</g>
<!-- Node1&#45;&gt;Node33 -->
<g id="edge34" class="edge">
<title>Node1&#45;&gt;Node33</title>
<path fill="none" stroke="midnightblue" d="M1841.42,-176.24C2137.68,-173.53 3061.61,-162.75 3359,-132 3361.72,-131.72 3364.51,-131.37 3367.32,-130.98"/>
<polygon fill="midnightblue" stroke="midnightblue" points="1841.12,-172.74 1831.15,-176.34 1841.18,-179.74 1841.12,-172.74"/>
</g>
<!-- Node34 -->
<g id="node34" class="node">
<title>Node34</title>
<g id="a_node34"><a xlink:href="_o_m_sim_s_n_analysis_8cc.html" target="_top" xlink:title="Analyze data and write output files.">
<polygon fill="white" stroke="black" points="3469,-112.5 3469,-131.5 3589,-131.5 3589,-112.5 3469,-112.5"/>
<text text-anchor="middle" x="3529" y="-119.5" font-family="Helvetica,sans-Serif" font-size="10.00">OMSimSNAnalysis.cc</text>
</a>
</g>
</g>
<!-- Node1&#45;&gt;Node34 -->
<g id="edge35" class="edge">
<title>Node1&#45;&gt;Node34</title>
<path fill="none" stroke="midnightblue" d="M1841.32,-175.83C2149.49,-171.74 3141.27,-156.91 3460,-132 3462.89,-131.77 3465.85,-131.51 3468.83,-131.22"/>
<polygon fill="midnightblue" stroke="midnightblue" points="1841.04,-172.34 1831.08,-175.97 1841.13,-179.34 1841.04,-172.34"/>
</g>
<!-- Node35 -->
<g id="node35" class="node">
<title>Node35</title>
<g id="a_node35"><a xlink:href="_o_m_sim_s_n_tools_8cc.html" target="_top" xlink:title=" ">
<polygon fill="white" stroke="black" points="3607,-112.5 3607,-131.5 3711,-131.5 3711,-112.5 3607,-112.5"/>
<text text-anchor="middle" x="3659" y="-119.5" font-family="Helvetica,sans-Serif" font-size="10.00">OMSimSNTools.cc</text>
</a>
</g>
</g>
<!-- Node1&#45;&gt;Node35 -->
<g id="edge36" class="edge">
<title>Node1&#45;&gt;Node35</title>
<path fill="none" stroke="midnightblue" d="M1841.52,-176.25C2165.98,-173.36 3251.24,-161.69 3598,-132 3600.88,-131.75 3603.83,-131.46 3606.81,-131.13"/>
<polygon fill="midnightblue" stroke="midnightblue" points="1841.19,-172.75 1831.22,-176.34 1841.25,-179.75 1841.19,-172.75"/>
</g>
<!-- Node3 -->
<g id="node3" class="node">
<title>Node3</title>
<g id="a_node3"><a xlink:href="_o_m_sim_data_file_types_8cc.html" target="_top" xlink:title=" ">
<polygon fill="white" stroke="black" points="0,-56.5 0,-75.5 134,-75.5 134,-56.5 0,-56.5"/>
<text text-anchor="middle" x="67" y="-63.5" font-family="Helvetica,sans-Serif" font-size="10.00">OMSimDataFileTypes.cc</text>
</a>
</g>
</g>
<!-- Node2&#45;&gt;Node3 -->
<g id="edge2" class="edge">
<title>Node2&#45;&gt;Node3</title>
<path fill="none" stroke="midnightblue" d="M176.84,-108.77C150.17,-98.63 112.93,-84.47 89.4,-75.52"/>
<polygon fill="midnightblue" stroke="midnightblue" points="175.91,-112.16 186.5,-112.44 178.4,-105.62 175.91,-112.16"/>
</g>
<!-- Node2&#45;&gt;Node4 -->
<g id="edge3" class="edge">
<title>Node2&#45;&gt;Node4</title>
<path fill="none" stroke="midnightblue" d="M209,-101.8C209,-92.91 209,-82.78 209,-75.75"/>
<polygon fill="midnightblue" stroke="midnightblue" points="205.5,-102.08 209,-112.08 212.5,-102.08 205.5,-102.08"/>
</g>
<!-- Node6 -->
<g id="node6" class="node">
<title>Node6</title>
<g id="a_node6"><a xlink:href="_o_m_sim_8hh.html" target="_top" xlink:title="Main simulation class for the Optical Module (OM) simulation. This file defines the OMSim class,...">
<polygon fill="white" stroke="black" points="436.5,-56.5 436.5,-75.5 503.5,-75.5 503.5,-56.5 436.5,-56.5"/>
<text text-anchor="middle" x="470" y="-63.5" font-family="Helvetica,sans-Serif" font-size="10.00">OMSim.hh</text>
</a>
</g>
</g>
<!-- Node5&#45;&gt;Node6 -->
<g id="edge5" class="edge">
<title>Node5&#45;&gt;Node6</title>
<path fill="none" stroke="midnightblue" d="M449.85,-103.27C454.97,-94.05 461.02,-83.17 465.14,-75.75"/>
<polygon fill="midnightblue" stroke="midnightblue" points="446.75,-101.64 444.95,-112.08 452.87,-105.04 446.75,-101.64"/>
</g>
<!-- Node5&#45;&gt;Node11 -->
<g id="edge10" class="edge">
<title>Node5&#45;&gt;Node11</title>
<path fill="none" stroke="midnightblue" d="M416.76,-106.9C400.44,-97 379.13,-84.07 365.26,-75.65"/>
<polygon fill="midnightblue" stroke="midnightblue" points="415.34,-110.13 425.7,-112.32 418.97,-104.14 415.34,-110.13"/>
</g>
<!-- Node12 -->
<g id="node12" class="node">
<title>Node12</title>
<g id="a_node12"><a xlink:href="_o_m_sim_angular_scan_8cc.html" target="_top" xlink:title=" ">
<polygon fill="white" stroke="black" points="522,-56.5 522,-75.5 648,-75.5 648,-56.5 522,-56.5"/>
<text text-anchor="middle" x="585" y="-63.5" font-family="Helvetica,sans-Serif" font-size="10.00">OMSimAngularScan.cc</text>
</a>
</g>
</g>
<!-- Node5&#45;&gt;Node12 -->
<g id="edge11" class="edge">
<title>Node5&#45;&gt;Node12</title>
<path fill="none" stroke="midnightblue" d="M472.48,-108.91C499.74,-98.75 537.99,-84.51 562.13,-75.52"/>
<polygon fill="midnightblue" stroke="midnightblue" points="471.13,-105.67 462.98,-112.44 473.57,-112.23 471.13,-105.67"/>
</g>
<!-- Node13 -->
<g id="node13" class="node">
<title>Node13</title>
<g id="a_node13"><a xlink:href="_o_m_sim_decays_g_p_s_8cc.html" target="_top" xlink:title=" ">
<polygon fill="white" stroke="black" points="666.5,-56.5 666.5,-75.5 787.5,-75.5 787.5,-56.5 666.5,-56.5"/>
<text text-anchor="middle" x="727" y="-63.5" font-family="Helvetica,sans-Serif" font-size="10.00">OMSimDecaysGPS.cc</text>
</a>
</g>
</g>
<!-- Node5&#45;&gt;Node13 -->
<g id="edge12" class="edge">
<title>Node5&#45;&gt;Node13</title>
<path fill="none" stroke="midnightblue" d="M495.61,-110.54C549.85,-100.33 631.34,-85 681.74,-75.52"/>
<polygon fill="midnightblue" stroke="midnightblue" points="494.66,-107.15 485.48,-112.44 495.95,-114.03 494.66,-107.15"/>
</g>
<!-- Node7 -->
<g id="node7" class="node">
<title>Node7</title>
<g id="a_node7"><a xlink:href="_o_m_sim_8cc.html" target="_top" xlink:title="Implementation of the OMSim class.">
<polygon fill="white" stroke="black" points="231.5,-0.5 231.5,-19.5 296.5,-19.5 296.5,-0.5 231.5,-0.5"/>
<text text-anchor="middle" x="264" y="-7.5" font-family="Helvetica,sans-Serif" font-size="10.00">OMSim.cc</text>
</a>
</g>
</g>
<!-- Node6&#45;&gt;Node7 -->
<g id="edge6" class="edge">
<title>Node6&#45;&gt;Node7</title>
<path fill="none" stroke="midnightblue" d="M427.38,-53.83C388.49,-43.63 331.84,-28.78 296.49,-19.52"/>
<polygon fill="midnightblue" stroke="midnightblue" points="426.8,-57.29 437.36,-56.44 428.57,-50.52 426.8,-57.29"/>
</g>
<!-- Node8 -->
<g id="node8" class="node">
<title>Node8</title>
<g id="a_node8"><a xlink:href="_o_m_sim__effective__area_8cc.html" target="_top" xlink:title="Main for the calculation of effective areas.">
<polygon fill="white" stroke="black" points="315,-0.5 315,-19.5 455,-19.5 455,-0.5 315,-0.5"/>
<text text-anchor="middle" x="385" y="-7.5" font-family="Helvetica,sans-Serif" font-size="10.00">OMSim_effective_area.cc</text>
</a>
</g>
</g>
<!-- Node6&#45;&gt;Node8 -->
<g id="edge7" class="edge">
<title>Node6&#45;&gt;Node8</title>
<path fill="none" stroke="midnightblue" d="M447.81,-50.9C432.22,-41 411.87,-28.07 398.62,-19.65"/>
<polygon fill="midnightblue" stroke="midnightblue" points="446.03,-53.92 456.34,-56.32 449.78,-48.01 446.03,-53.92"/>
</g>
<!-- Node9 -->
<g id="node9" class="node">
<title>Node9</title>
<g id="a_node9"><a xlink:href="_o_m_sim__radioactive__decays_8cc.html" target="_top" xlink:title="Main of the radioactive decay study.">
<polygon fill="white" stroke="black" points="473.5,-0.5 473.5,-19.5 638.5,-19.5 638.5,-0.5 473.5,-0.5"/>
<text text-anchor="middle" x="556" y="-7.5" font-family="Helvetica,sans-Serif" font-size="10.00">OMSim_radioactive_decays.cc</text>
</a>
</g>
</g>
<!-- Node6&#45;&gt;Node9 -->
<g id="edge8" class="edge">
<title>Node6&#45;&gt;Node9</title>
<path fill="none" stroke="midnightblue" d="M492.45,-50.9C508.22,-41 528.81,-28.07 542.22,-19.65"/>
<polygon fill="midnightblue" stroke="midnightblue" points="490.43,-48.04 483.82,-56.32 494.15,-53.97 490.43,-48.04"/>
</g>
<!-- Node10 -->
<g id="node10" class="node">
<title>Node10</title>
<g id="a_node10"><a xlink:href="_o_m_sim__supernova_8cc.html" target="_top" xlink:title=" ">
<polygon fill="white" stroke="black" points="657,-0.5 657,-19.5 779,-19.5 779,-0.5 657,-0.5"/>
<text text-anchor="middle" x="718" y="-7.5" font-family="Helvetica,sans-Serif" font-size="10.00">OMSim_supernova.cc</text>
</a>
</g>
</g>
<!-- Node6&#45;&gt;Node10 -->
<g id="edge9" class="edge">
<title>Node6&#45;&gt;Node10</title>
<path fill="none" stroke="midnightblue" d="M513.52,-55.52C560.19,-45.36 633.64,-29.37 678.64,-19.57"/>
<polygon fill="midnightblue" stroke="midnightblue" points="512.73,-52.11 503.7,-57.66 514.22,-58.95 512.73,-52.11"/>
</g>
</g>
</svg>
