<?xml version="1.0" encoding="UTF-8" standalone="no"?>
<!DOCTYPE svg PUBLIC "-//W3C//DTD SVG 1.1//EN"
 "http://www.w3.org/Graphics/SVG/1.1/DTD/svg11.dtd">
<!-- Generated by graphviz version 2.43.0 (0)
 -->
<!-- Title: OMSimIBD.cc Pages: 1 -->
<svg width="2156pt" height="207pt"
 viewBox="0.00 0.00 2156.00 207.00" xmlns="http://www.w3.org/2000/svg" xmlns:xlink="http://www.w3.org/1999/xlink">
<g id="graph0" class="graph" transform="scale(1 1) rotate(0) translate(4 203)">
<title>OMSimIBD.cc</title>
<polygon fill="white" stroke="transparent" points="-4,4 -4,-203 2152,-203 2152,4 -4,4"/>
<!-- Node1 -->
<g id="node1" class="node">
<title>Node1</title>
<g id="a_node1"><a xlink:title=" ">
<polygon fill="#bfbfbf" stroke="black" points="1215,-179.5 1215,-198.5 1298,-198.5 1298,-179.5 1215,-179.5"/>
<text text-anchor="middle" x="1256.5" y="-186.5" font-family="Helvetica,sans-Serif" font-size="10.00">OMSimIBD.cc</text>
</a>
</g>
</g>
<!-- Node2 -->
<g id="node2" class="node">
<title>Node2</title>
<g id="a_node2"><a xlink:href="_o_m_sim_i_b_d_8hh.html" target="_top" xlink:title="This file contains the class in charge of generating positrons from IBD of supernova antineutrino int...">
<polygon fill="white" stroke="black" points="260.5,-123.5 260.5,-142.5 344.5,-142.5 344.5,-123.5 260.5,-123.5"/>
<text text-anchor="middle" x="302.5" y="-130.5" font-family="Helvetica,sans-Serif" font-size="10.00">OMSimIBD.hh</text>
</a>
</g>
</g>
<!-- Node1&#45;&gt;Node2 -->
<g id="edge1" class="edge">
<title>Node1&#45;&gt;Node2</title>
<path fill="none" stroke="midnightblue" d="M1214.89,-185.64C1061.12,-176.94 525.03,-146.6 354.8,-136.96"/>
<polygon fill="midnightblue" stroke="midnightblue" points="354.78,-133.45 344.59,-136.38 354.38,-140.44 354.78,-133.45"/>
</g>
<!-- Node7 -->
<g id="node7" class="node">
<title>Node7</title>
<g id="a_node7"><a xlink:href="_o_m_sim_s_n_tools_8hh.html" target="_top" xlink:title="Provides the definition for the OMSimSNTools class, centralizing utility methods for Supernova (SN) n...">
<polygon fill="white" stroke="black" points="21,-62 21,-81 126,-81 126,-62 21,-62"/>
<text text-anchor="middle" x="73.5" y="-69" font-family="Helvetica,sans-Serif" font-size="10.00">OMSimSNTools.hh</text>
</a>
</g>
</g>
<!-- Node1&#45;&gt;Node7 -->
<g id="edge33" class="edge">
<title>Node1&#45;&gt;Node7</title>
<path fill="none" stroke="midnightblue" d="M1214.74,-187.97C1049.32,-187.57 439.79,-183.32 251.5,-143 194.7,-130.84 132.51,-102.43 98.75,-85.62"/>
<polygon fill="midnightblue" stroke="midnightblue" points="100.12,-82.39 89.61,-81.01 96.96,-88.64 100.12,-82.39"/>
</g>
<!-- Node8 -->
<g id="node8" class="node">
<title>Node8</title>
<g id="a_node8"><a xlink:href="_o_m_sim_s_n_analysis_8hh.html" target="_top" xlink:title=" ">
<polygon fill="white" stroke="black" points="542.5,-123.5 542.5,-142.5 664.5,-142.5 664.5,-123.5 542.5,-123.5"/>
<text text-anchor="middle" x="603.5" y="-130.5" font-family="Helvetica,sans-Serif" font-size="10.00">OMSimSNAnalysis.hh</text>
</a>
</g>
</g>
<!-- Node1&#45;&gt;Node8 -->
<g id="edge10" class="edge">
<title>Node1&#45;&gt;Node8</title>
<path fill="none" stroke="midnightblue" d="M1214.7,-185.09C1120.53,-178.46 884.59,-161.35 687.5,-143 683.39,-142.62 679.17,-142.21 674.92,-141.79"/>
<polygon fill="midnightblue" stroke="midnightblue" points="675.26,-138.31 664.95,-140.78 674.55,-145.27 675.26,-138.31"/>
</g>
<!-- Node13 -->
<g id="node13" class="node">
<title>Node13</title>
<g id="a_node13"><a xlink:href="_o_m_sim_command_args_table_8hh.html" target="_top" xlink:title="Definition of the OMSimCommandArgsTable singleton class, which controls user args.">
<polygon fill="white" stroke="black" points="696.5,-123.5 696.5,-142.5 860.5,-142.5 860.5,-123.5 696.5,-123.5"/>
<text text-anchor="middle" x="778.5" y="-130.5" font-family="Helvetica,sans-Serif" font-size="10.00">OMSimCommandArgsTable.hh</text>
</a>
</g>
</g>
<!-- Node1&#45;&gt;Node13 -->
<g id="edge17" class="edge">
<title>Node1&#45;&gt;Node13</title>
<path fill="none" stroke="midnightblue" d="M1214.92,-183.3C1136.99,-174.5 967.55,-155.36 864.22,-143.68"/>
<polygon fill="midnightblue" stroke="midnightblue" points="864.46,-140.19 854.13,-142.54 863.67,-147.14 864.46,-140.19"/>
</g>
<!-- Node19 -->
<g id="node19" class="node">
<title>Node19</title>
<g id="a_node19"><a xlink:title=" ">
<polygon fill="white" stroke="#bfbfbf" points="879,-123.5 879,-142.5 952,-142.5 952,-123.5 879,-123.5"/>
<text text-anchor="middle" x="915.5" y="-130.5" font-family="Helvetica,sans-Serif" font-size="10.00">G4Event.hh</text>
</a>
</g>
</g>
<!-- Node1&#45;&gt;Node19 -->
<g id="edge24" class="edge">
<title>Node1&#45;&gt;Node19</title>
<path fill="none" stroke="midnightblue" d="M1214.88,-182.21C1159.58,-174.4 1058.58,-159.69 962.06,-143.03"/>
<polygon fill="midnightblue" stroke="midnightblue" points="962.58,-139.57 952.13,-141.31 961.39,-146.47 962.58,-139.57"/>
</g>
<!-- Node20 -->
<g id="node20" class="node">
<title>Node20</title>
<g id="a_node20"><a xlink:title=" ">
<polygon fill="white" stroke="#bfbfbf" points="970.5,-123.5 970.5,-142.5 1122.5,-142.5 1122.5,-123.5 970.5,-123.5"/>
<text text-anchor="middle" x="1046.5" y="-130.5" font-family="Helvetica,sans-Serif" font-size="10.00">G4GeneralParticleSource.hh</text>
</a>
</g>
</g>
<!-- Node1&#45;&gt;Node20 -->
<g id="edge25" class="edge">
<title>Node1&#45;&gt;Node20</title>
<path fill="none" stroke="midnightblue" d="M1223.22,-179.44C1187.05,-170.14 1129.12,-155.25 1089.52,-145.06"/>
<polygon fill="midnightblue" stroke="midnightblue" points="1090.18,-141.62 1079.62,-142.52 1088.43,-148.4 1090.18,-141.62"/>
</g>
<!-- Node21 -->
<g id="node21" class="node">
<title>Node21</title>
<g id="a_node21"><a xlink:title=" ">
<polygon fill="white" stroke="#bfbfbf" points="1141,-123.5 1141,-142.5 1250,-142.5 1250,-123.5 1141,-123.5"/>
<text text-anchor="middle" x="1195.5" y="-130.5" font-family="Helvetica,sans-Serif" font-size="10.00">G4ParticleTypes.hh</text>
</a>
</g>
</g>
<!-- Node1&#45;&gt;Node21 -->
<g id="edge26" class="edge">
<title>Node1&#45;&gt;Node21</title>
<path fill="none" stroke="midnightblue" d="M1246.7,-179.32C1237.68,-171.34 1224.09,-159.31 1213.18,-149.65"/>
<polygon fill="midnightblue" stroke="midnightblue" points="1215.29,-146.84 1205.48,-142.83 1210.65,-152.08 1215.29,-146.84"/>
</g>
<!-- Node22 -->
<g id="node22" class="node">
<title>Node22</title>
<g id="a_node22"><a xlink:title=" ">
<polygon fill="white" stroke="#bfbfbf" points="1268,-123.5 1268,-142.5 1369,-142.5 1369,-123.5 1268,-123.5"/>
<text text-anchor="middle" x="1318.5" y="-130.5" font-family="Helvetica,sans-Serif" font-size="10.00">G4ParticleGun.hh</text>
</a>
</g>
</g>
<!-- Node1&#45;&gt;Node22 -->
<g id="edge27" class="edge">
<title>Node1&#45;&gt;Node22</title>
<path fill="none" stroke="midnightblue" d="M1266.46,-179.32C1275.63,-171.34 1289.44,-159.31 1300.53,-149.65"/>
<polygon fill="midnightblue" stroke="midnightblue" points="1303.12,-152.04 1308.36,-142.83 1298.52,-146.76 1303.12,-152.04"/>
</g>
<!-- Node23 -->
<g id="node23" class="node">
<title>Node23</title>
<g id="a_node23"><a xlink:title=" ">
<polygon fill="white" stroke="#bfbfbf" points="1387,-123.5 1387,-142.5 1494,-142.5 1494,-123.5 1387,-123.5"/>
<text text-anchor="middle" x="1440.5" y="-130.5" font-family="Helvetica,sans-Serif" font-size="10.00">G4ParticleTable.hh</text>
</a>
</g>
</g>
<!-- Node1&#45;&gt;Node23 -->
<g id="edge28" class="edge">
<title>Node1&#45;&gt;Node23</title>
<path fill="none" stroke="midnightblue" d="M1285.66,-179.44C1317.01,-170.24 1367.03,-155.56 1401.7,-145.39"/>
<polygon fill="midnightblue" stroke="midnightblue" points="1402.87,-148.69 1411.48,-142.52 1400.9,-141.97 1402.87,-148.69"/>
</g>
<!-- Node24 -->
<g id="node24" class="node">
<title>Node24</title>
<g id="a_node24"><a xlink:title=" ">
<polygon fill="white" stroke="#bfbfbf" points="1512.5,-123.5 1512.5,-142.5 1640.5,-142.5 1640.5,-123.5 1512.5,-123.5"/>
<text text-anchor="middle" x="1576.5" y="-130.5" font-family="Helvetica,sans-Serif" font-size="10.00">G4ParticleDefinition.hh</text>
</a>
</g>
</g>
<!-- Node1&#45;&gt;Node24 -->
<g id="edge29" class="edge">
<title>Node1&#45;&gt;Node24</title>
<path fill="none" stroke="midnightblue" d="M1298.01,-181C1353.55,-171.62 1452.43,-154.94 1516.19,-144.18"/>
<polygon fill="midnightblue" stroke="midnightblue" points="1516.83,-147.62 1526.11,-142.5 1515.67,-140.72 1516.83,-147.62"/>
</g>
<!-- Node25 -->
<g id="node25" class="node">
<title>Node25</title>
<g id="a_node25"><a xlink:title=" ">
<polygon fill="white" stroke="#bfbfbf" points="1658.5,-123.5 1658.5,-142.5 1792.5,-142.5 1792.5,-123.5 1658.5,-123.5"/>
<text text-anchor="middle" x="1725.5" y="-130.5" font-family="Helvetica,sans-Serif" font-size="10.00">G4PhysicalConstants.hh</text>
</a>
</g>
</g>
<!-- Node1&#45;&gt;Node25 -->
<g id="edge30" class="edge">
<title>Node1&#45;&gt;Node25</title>
<path fill="none" stroke="midnightblue" d="M1298.1,-183.29C1368.08,-175.36 1514.07,-158.75 1648.31,-143.13"/>
<polygon fill="midnightblue" stroke="midnightblue" points="1648.84,-146.6 1658.36,-141.96 1648.03,-139.64 1648.84,-146.6"/>
</g>
<!-- Node26 -->
<g id="node26" class="node">
<title>Node26</title>
<g id="a_node26"><a xlink:title=" ">
<polygon fill="white" stroke="#bfbfbf" points="1737,-62 1737,-81 1856,-81 1856,-62 1737,-62"/>
<text text-anchor="middle" x="1796.5" y="-69" font-family="Helvetica,sans-Serif" font-size="10.00">G4SystemOfUnits.hh</text>
</a>
</g>
</g>
<!-- Node1&#45;&gt;Node26 -->
<g id="edge31" class="edge">
<title>Node1&#45;&gt;Node26</title>
<path fill="none" stroke="midnightblue" d="M1298.39,-187.73C1420.16,-186.51 1767.62,-179.8 1801.5,-143 1814.2,-129.21 1809.96,-106.78 1804.48,-90.93"/>
<polygon fill="midnightblue" stroke="midnightblue" points="1807.58,-89.23 1800.68,-81.19 1801.05,-91.78 1807.58,-89.23"/>
</g>
<!-- Node27 -->
<g id="node27" class="node">
<title>Node27</title>
<g id="a_node27"><a xlink:title=" ">
<polygon fill="white" stroke="#bfbfbf" points="1982.5,-123.5 1982.5,-142.5 2068.5,-142.5 2068.5,-123.5 1982.5,-123.5"/>
<text text-anchor="middle" x="2025.5" y="-130.5" font-family="Helvetica,sans-Serif" font-size="10.00">Randomize.hh</text>
</a>
</g>
</g>
<!-- Node1&#45;&gt;Node27 -->
<g id="edge32" class="edge">
<title>Node1&#45;&gt;Node27</title>
<path fill="none" stroke="midnightblue" d="M1298.2,-186.92C1408.57,-183.71 1717.33,-172.6 1972.5,-143 1972.6,-142.99 1972.7,-142.98 1972.8,-142.96"/>
<polygon fill="midnightblue" stroke="midnightblue" points="1973,-146.47 1982.46,-141.7 1972.09,-139.53 1973,-146.47"/>
</g>
<!-- Node28 -->
<g id="node28" class="node">
<title>Node28</title>
<g id="a_node28"><a xlink:href="_o_m_sim_input_data_8hh.html" target="_top" xlink:title="Input data from external files are read and saved to memory.">
<polygon fill="white" stroke="black" points="1849,-123.5 1849,-142.5 1964,-142.5 1964,-123.5 1849,-123.5"/>
<text text-anchor="middle" x="1906.5" y="-130.5" font-family="Helvetica,sans-Serif" font-size="10.00">OMSimInputData.hh</text>
</a>
</g>
</g>
<!-- Node1&#45;&gt;Node28 -->
<g id="edge34" class="edge">
<title>Node1&#45;&gt;Node28</title>
<path fill="none" stroke="midnightblue" d="M1298.27,-185.42C1393.5,-179.39 1633.97,-163.33 1834.5,-143 1835.8,-142.87 1837.12,-142.73 1838.45,-142.59"/>
<polygon fill="midnightblue" stroke="midnightblue" points="1839.2,-146.03 1848.76,-141.46 1838.44,-139.07 1839.2,-146.03"/>
</g>
<!-- Node3 -->
<g id="node3" class="node">
<title>Node3</title>
<g id="a_node3"><a xlink:title=" ">
<polygon fill="white" stroke="#bfbfbf" points="144.5,-62 144.5,-81 336.5,-81 336.5,-62 144.5,-62"/>
<text text-anchor="middle" x="240.5" y="-69" font-family="Helvetica,sans-Serif" font-size="10.00">G4VUserPrimaryGeneratorAction.hh</text>
</a>
</g>
</g>
<!-- Node2&#45;&gt;Node3 -->
<g id="edge2" class="edge">
<title>Node2&#45;&gt;Node3</title>
<path fill="none" stroke="midnightblue" d="M293.62,-123.48C284.04,-114.28 268.59,-99.46 256.81,-88.16"/>
<polygon fill="midnightblue" stroke="midnightblue" points="259.01,-85.41 249.37,-81.01 254.16,-90.46 259.01,-85.41"/>
</g>
<!-- Node4 -->
<g id="node4" class="node">
<title>Node4</title>
<g id="a_node4"><a xlink:title=" ">
<polygon fill="white" stroke="#bfbfbf" points="0,-0.5 0,-19.5 67,-19.5 67,-0.5 0,-0.5"/>
<text text-anchor="middle" x="33.5" y="-7.5" font-family="Helvetica,sans-Serif" font-size="10.00">globals.hh</text>
</a>
</g>
</g>
<!-- Node2&#45;&gt;Node4 -->
<g id="edge3" class="edge">
<title>Node2&#45;&gt;Node4</title>
<path fill="none" stroke="midnightblue" d="M260.46,-131.92C187.71,-130.78 43.07,-123.82 11.5,-87 -2.83,-70.28 9.41,-44.7 20.57,-27.91"/>
<polygon fill="midnightblue" stroke="midnightblue" points="23.54,-29.78 26.48,-19.6 17.83,-25.72 23.54,-29.78"/>
</g>
<!-- Node5 -->
<g id="node5" class="node">
<title>Node5</title>
<g id="a_node5"><a xlink:title=" ">
<polygon fill="white" stroke="#bfbfbf" points="406,-0.5 406,-19.5 453,-19.5 453,-0.5 406,-0.5"/>
<text text-anchor="middle" x="429.5" y="-7.5" font-family="Helvetica,sans-Serif" font-size="10.00">vector</text>
</a>
</g>
</g>
<!-- Node2&#45;&gt;Node5 -->
<g id="edge4" class="edge">
<title>Node2&#45;&gt;Node5</title>
<path fill="none" stroke="midnightblue" d="M315.25,-123.34C327.58,-114.72 346.56,-100.82 361.5,-87 381.9,-68.14 402.84,-43.84 416,-27.86"/>
<polygon fill="midnightblue" stroke="midnightblue" points="418.86,-29.89 422.45,-19.92 413.43,-25.47 418.86,-29.89"/>
</g>
<!-- Node6 -->
<g id="node6" class="node">
<title>Node6</title>
<g id="a_node6"><a xlink:title=" ">
<polygon fill="white" stroke="#bfbfbf" points="285,-0.5 285,-19.5 388,-19.5 388,-0.5 285,-0.5"/>
<text text-anchor="middle" x="336.5" y="-7.5" font-family="Helvetica,sans-Serif" font-size="10.00">G4ThreeVector.hh</text>
</a>
</g>
</g>
<!-- Node2&#45;&gt;Node6 -->
<g id="edge5" class="edge">
<title>Node2&#45;&gt;Node6</title>
<path fill="none" stroke="midnightblue" d="M315,-123.3C325.37,-115.25 339.39,-102.24 345.5,-87 352.97,-68.36 348.49,-45.24 343.56,-29.43"/>
<polygon fill="midnightblue" stroke="midnightblue" points="346.8,-28.1 340.21,-19.79 340.18,-30.39 346.8,-28.1"/>
</g>
<!-- Node2&#45;&gt;Node7 -->
<g id="edge6" class="edge">
<title>Node2&#45;&gt;Node7</title>
<path fill="none" stroke="midnightblue" d="M269.69,-123.48C229.3,-112.98 160.62,-95.14 116.17,-83.59"/>
<polygon fill="midnightblue" stroke="midnightblue" points="116.81,-80.14 106.25,-81.01 115.05,-86.91 116.81,-80.14"/>
</g>
<!-- Node7&#45;&gt;Node4 -->
<g id="edge7" class="edge">
<title>Node7&#45;&gt;Node4</title>
<path fill="none" stroke="midnightblue" d="M67.77,-61.98C61.83,-53.14 52.38,-39.09 44.91,-27.98"/>
<polygon fill="midnightblue" stroke="midnightblue" points="47.7,-25.86 39.22,-19.51 41.89,-29.76 47.7,-25.86"/>
</g>
<!-- Node7&#45;&gt;Node5 -->
<g id="edge8" class="edge">
<title>Node7&#45;&gt;Node5</title>
<path fill="none" stroke="midnightblue" d="M107.49,-61.95C116.56,-59.84 126.37,-57.69 135.5,-56 247.49,-35.23 280.01,-42.99 395.83,-19.88"/>
<polygon fill="midnightblue" stroke="midnightblue" points="396.69,-23.28 405.8,-17.86 395.3,-16.42 396.69,-23.28"/>
</g>
<!-- Node7&#45;&gt;Node6 -->
<g id="edge9" class="edge">
<title>Node7&#45;&gt;Node6</title>
<path fill="none" stroke="midnightblue" d="M109.88,-61.93C118.29,-59.97 127.2,-57.9 135.5,-56 187.56,-44.09 247.28,-30.76 288.01,-21.72"/>
<polygon fill="midnightblue" stroke="midnightblue" points="288.94,-25.1 297.94,-19.52 287.42,-18.27 288.94,-25.1"/>
</g>
<!-- Node8&#45;&gt;Node5 -->
<g id="edge14" class="edge">
<title>Node8&#45;&gt;Node5</title>
<path fill="none" stroke="midnightblue" d="M594.32,-123.23C575.84,-105.68 534.52,-66.94 518.5,-56 499.92,-43.32 477.27,-31.92 459.47,-23.76"/>
<polygon fill="midnightblue" stroke="midnightblue" points="460.7,-20.48 450.14,-19.58 457.83,-26.86 460.7,-20.48"/>
</g>
<!-- Node8&#45;&gt;Node6 -->
<g id="edge13" class="edge">
<title>Node8&#45;&gt;Node6</title>
<path fill="none" stroke="midnightblue" d="M567.67,-123.48C537.96,-115.79 495,-103.2 459.5,-87 421.03,-69.44 379.92,-42.08 356.31,-25.42"/>
<polygon fill="midnightblue" stroke="midnightblue" points="358.33,-22.56 348.16,-19.6 354.27,-28.26 358.33,-22.56"/>
</g>
<!-- Node9 -->
<g id="node9" class="node">
<title>Node9</title>
<g id="a_node9"><a xlink:title=" ">
<polygon fill="white" stroke="#bfbfbf" points="567,-62 567,-81 640,-81 640,-62 567,-62"/>
<text text-anchor="middle" x="603.5" y="-69" font-family="Helvetica,sans-Serif" font-size="10.00">G4Types.hh</text>
</a>
</g>
</g>
<!-- Node8&#45;&gt;Node9 -->
<g id="edge11" class="edge">
<title>Node8&#45;&gt;Node9</title>
<path fill="none" stroke="midnightblue" d="M603.5,-123.48C603.5,-115.08 603.5,-101.98 603.5,-91.16"/>
<polygon fill="midnightblue" stroke="midnightblue" points="607,-91.01 603.5,-81.01 600,-91.01 607,-91.01"/>
</g>
<!-- Node10 -->
<g id="node10" class="node">
<title>Node10</title>
<g id="a_node10"><a xlink:title=" ">
<polygon fill="white" stroke="#bfbfbf" points="658.5,-62 658.5,-81 732.5,-81 732.5,-62 658.5,-62"/>
<text text-anchor="middle" x="695.5" y="-69" font-family="Helvetica,sans-Serif" font-size="10.00">G4String.hh</text>
</a>
</g>
</g>
<!-- Node8&#45;&gt;Node10 -->
<g id="edge12" class="edge">
<title>Node8&#45;&gt;Node10</title>
<path fill="none" stroke="midnightblue" d="M616.68,-123.48C631.57,-113.84 656.04,-98.02 673.77,-86.55"/>
<polygon fill="midnightblue" stroke="midnightblue" points="675.85,-89.38 682.34,-81.01 672.05,-83.5 675.85,-89.38"/>
</g>
<!-- Node11 -->
<g id="node11" class="node">
<title>Node11</title>
<g id="a_node11"><a xlink:title=" ">
<polygon fill="white" stroke="#bfbfbf" points="751,-62 751,-81 806,-81 806,-62 751,-62"/>
<text text-anchor="middle" x="778.5" y="-69" font-family="Helvetica,sans-Serif" font-size="10.00">fstream</text>
</a>
</g>
</g>
<!-- Node8&#45;&gt;Node11 -->
<g id="edge15" class="edge">
<title>Node8&#45;&gt;Node11</title>
<path fill="none" stroke="midnightblue" d="M631.42,-123.42C659.41,-114.7 703.67,-100.57 741.5,-87 743.4,-86.32 745.35,-85.6 747.31,-84.87"/>
<polygon fill="midnightblue" stroke="midnightblue" points="748.97,-87.99 757.06,-81.15 746.47,-81.45 748.97,-87.99"/>
</g>
<!-- Node12 -->
<g id="node12" class="node">
<title>Node12</title>
<g id="a_node12"><a xlink:title=" ">
<polygon fill="white" stroke="#bfbfbf" points="469,-62 469,-81 510,-81 510,-62 469,-62"/>
<text text-anchor="middle" x="489.5" y="-69" font-family="Helvetica,sans-Serif" font-size="10.00">tuple</text>
</a>
</g>
</g>
<!-- Node8&#45;&gt;Node12 -->
<g id="edge16" class="edge">
<title>Node8&#45;&gt;Node12</title>
<path fill="none" stroke="midnightblue" d="M587.17,-123.48C568.29,-113.62 536.99,-97.29 514.92,-85.77"/>
<polygon fill="midnightblue" stroke="midnightblue" points="516.29,-82.53 505.8,-81.01 513.05,-88.74 516.29,-82.53"/>
</g>
<!-- Node13&#45;&gt;Node11 -->
<g id="edge21" class="edge">
<title>Node13&#45;&gt;Node11</title>
<path fill="none" stroke="midnightblue" d="M778.5,-123.48C778.5,-115.08 778.5,-101.98 778.5,-91.16"/>
<polygon fill="midnightblue" stroke="midnightblue" points="782,-91.01 778.5,-81.01 775,-91.01 782,-91.01"/>
</g>
<!-- Node14 -->
<g id="node14" class="node">
<title>Node14</title>
<g id="a_node14"><a xlink:href="_o_m_sim_logger_8hh.html" target="_top" xlink:title=" ">
<polygon fill="white" stroke="black" points="824,-62 824,-81 923,-81 923,-62 824,-62"/>
<text text-anchor="middle" x="873.5" y="-69" font-family="Helvetica,sans-Serif" font-size="10.00">OMSimLogger.hh</text>
</a>
</g>
</g>
<!-- Node13&#45;&gt;Node14 -->
<g id="edge18" class="edge">
<title>Node13&#45;&gt;Node14</title>
<path fill="none" stroke="midnightblue" d="M792.11,-123.48C807.56,-113.8 832.99,-97.87 851.32,-86.39"/>
<polygon fill="midnightblue" stroke="midnightblue" points="853.3,-89.28 859.91,-81.01 849.58,-83.35 853.3,-89.28"/>
</g>
<!-- Node17 -->
<g id="node17" class="node">
<title>Node17</title>
<g id="a_node17"><a xlink:title=" ">
<polygon fill="white" stroke="#bfbfbf" points="941.5,-62 941.5,-81 1025.5,-81 1025.5,-62 941.5,-62"/>
<text text-anchor="middle" x="983.5" y="-69" font-family="Helvetica,sans-Serif" font-size="10.00">boost/any.hpp</text>
</a>
</g>
</g>
<!-- Node13&#45;&gt;Node17 -->
<g id="edge22" class="edge">
<title>Node13&#45;&gt;Node17</title>
<path fill="none" stroke="midnightblue" d="M807.87,-123.48C843.8,-113.05 904.73,-95.36 944.54,-83.81"/>
<polygon fill="midnightblue" stroke="midnightblue" points="945.55,-87.16 954.18,-81.01 943.6,-80.44 945.55,-87.16"/>
</g>
<!-- Node18 -->
<g id="node18" class="node">
<title>Node18</title>
<g id="a_node18"><a xlink:title=" ">
<polygon fill="white" stroke="#bfbfbf" points="1043.5,-62 1043.5,-81 1111.5,-81 1111.5,-62 1043.5,-62"/>
<text text-anchor="middle" x="1077.5" y="-69" font-family="Helvetica,sans-Serif" font-size="10.00">sys/time.h</text>
</a>
</g>
</g>
<!-- Node13&#45;&gt;Node18 -->
<g id="edge23" class="edge">
<title>Node13&#45;&gt;Node18</title>
<path fill="none" stroke="midnightblue" d="M842.72,-123.46C894.84,-115.88 970,-103.44 1034.5,-87 1037.71,-86.18 1041.02,-85.24 1044.31,-84.24"/>
<polygon fill="midnightblue" stroke="midnightblue" points="1045.58,-87.51 1054.04,-81.13 1043.44,-80.85 1045.58,-87.51"/>
</g>
<!-- Node15 -->
<g id="node15" class="node">
<title>Node15</title>
<g id="a_node15"><a xlink:title=" ">
<polygon fill="white" stroke="#bfbfbf" points="881.5,-0.5 881.5,-19.5 931.5,-19.5 931.5,-0.5 881.5,-0.5"/>
<text text-anchor="middle" x="906.5" y="-7.5" font-family="Helvetica,sans-Serif" font-size="10.00">stdio.h</text>
</a>
</g>
</g>
<!-- Node14&#45;&gt;Node15 -->
<g id="edge19" class="edge">
<title>Node14&#45;&gt;Node15</title>
<path fill="none" stroke="midnightblue" d="M878.23,-61.98C883.08,-53.23 890.77,-39.37 896.9,-28.31"/>
<polygon fill="midnightblue" stroke="midnightblue" points="899.99,-29.95 901.78,-19.51 893.87,-26.56 899.99,-29.95"/>
</g>
<!-- Node16 -->
<g id="node16" class="node">
<title>Node16</title>
<g id="a_node16"><a xlink:title=" ">
<polygon fill="white" stroke="#bfbfbf" points="815.5,-0.5 815.5,-19.5 863.5,-19.5 863.5,-0.5 815.5,-0.5"/>
<text text-anchor="middle" x="839.5" y="-7.5" font-family="Helvetica,sans-Serif" font-size="10.00">time.h</text>
</a>
</g>
</g>
<!-- Node14&#45;&gt;Node16 -->
<g id="edge20" class="edge">
<title>Node14&#45;&gt;Node16</title>
<path fill="none" stroke="midnightblue" d="M868.63,-61.98C863.63,-53.23 855.71,-39.37 849.39,-28.31"/>
<polygon fill="midnightblue" stroke="midnightblue" points="852.36,-26.46 844.36,-19.51 846.28,-29.93 852.36,-26.46"/>
</g>
<!-- Node28&#45;&gt;Node26 -->
<g id="edge36" class="edge">
<title>Node28&#45;&gt;Node26</title>
<path fill="none" stroke="midnightblue" d="M1890.74,-123.48C1872.52,-113.62 1842.33,-97.29 1821.03,-85.77"/>
<polygon fill="midnightblue" stroke="midnightblue" points="1822.69,-82.69 1812.23,-81.01 1819.36,-88.85 1822.69,-82.69"/>
</g>
<!-- Node29 -->
<g id="node29" class="node">
<title>Node29</title>
<g id="a_node29"><a xlink:title=" ">
<polygon fill="white" stroke="#bfbfbf" points="2005,-62 2005,-81 2148,-81 2148,-62 2005,-62"/>
<text text-anchor="middle" x="2076.5" y="-69" font-family="Helvetica,sans-Serif" font-size="10.00">G4OpBoundaryProcess.hh</text>
</a>
</g>
</g>
<!-- Node28&#45;&gt;Node29 -->
<g id="edge35" class="edge">
<title>Node28&#45;&gt;Node29</title>
<path fill="none" stroke="midnightblue" d="M1930.86,-123.48C1960.14,-113.22 2009.47,-95.96 2042.5,-84.4"/>
<polygon fill="midnightblue" stroke="midnightblue" points="2043.91,-87.62 2052.19,-81.01 2041.59,-81.01 2043.91,-87.62"/>
</g>
<!-- Node30 -->
<g id="node30" class="node">
<title>Node30</title>
<g id="a_node30"><a xlink:title=" ">
<polygon fill="white" stroke="#bfbfbf" points="1874,-56.5 1874,-86.5 1987,-86.5 1987,-56.5 1874,-56.5"/>
<text text-anchor="start" x="1882" y="-74.5" font-family="Helvetica,sans-Serif" font-size="10.00">boost/property_tree</text>
<text text-anchor="middle" x="1930.5" y="-63.5" font-family="Helvetica,sans-Serif" font-size="10.00">/json_parser.hpp</text>
</a>
</g>
</g>
<!-- Node28&#45;&gt;Node30 -->
<g id="edge37" class="edge">
<title>Node28&#45;&gt;Node30</title>
<path fill="none" stroke="midnightblue" d="M1909.94,-123.48C1912.82,-116.32 1917.09,-105.75 1920.99,-96.08"/>
<polygon fill="midnightblue" stroke="midnightblue" points="1924.35,-97.11 1924.84,-86.52 1917.86,-94.49 1924.35,-97.11"/>
</g>
</g>
</svg>
