<?xml version="1.0" encoding="UTF-8" standalone="no"?>
<!DOCTYPE svg PUBLIC "-//W3C//DTD SVG 1.1//EN"
 "http://www.w3.org/Graphics/SVG/1.1/DTD/svg11.dtd">
<!-- Generated by graphviz version 2.43.0 (0)
 -->
<!-- Title: OMSim_effective_area.cc Pages: 1 -->
<svg width="2066pt" height="420pt"
 viewBox="0.00 0.00 2066.00 420.00" xmlns="http://www.w3.org/2000/svg" xmlns:xlink="http://www.w3.org/1999/xlink">
<g id="graph0" class="graph" transform="scale(1 1) rotate(0) translate(4 416)">
<title>OMSim_effective_area.cc</title>
<polygon fill="white" stroke="transparent" points="-4,4 -4,-416 2062,-416 2062,4 -4,4"/>
<!-- Node1 -->
<g id="node1" class="node">
<title>Node1</title>
<g id="a_node1"><a xlink:title="Main for the calculation of effective areas.">
<polygon fill="#bfbfbf" stroke="black" points="1001.5,-392.5 1001.5,-411.5 1141.5,-411.5 1141.5,-392.5 1001.5,-392.5"/>
<text text-anchor="middle" x="1071.5" y="-399.5" font-family="Helvetica,sans-Serif" font-size="10.00">OMSim_effective_area.cc</text>
</a>
</g>
</g>
<!-- Node2 -->
<g id="node2" class="node">
<title>Node2</title>
<g id="a_node2"><a xlink:href="_o_m_sim_8hh.html" target="_top" xlink:title="Main simulation class for the Optical Module (OM) simulation.">
<polygon fill="white" stroke="black" points="980,-336.5 980,-355.5 1047,-355.5 1047,-336.5 980,-336.5"/>
<text text-anchor="middle" x="1013.5" y="-343.5" font-family="Helvetica,sans-Serif" font-size="10.00">OMSim.hh</text>
</a>
</g>
</g>
<!-- Node1&#45;&gt;Node2 -->
<g id="edge1" class="edge">
<title>Node1&#45;&gt;Node2</title>
<path fill="none" stroke="midnightblue" d="M1062.18,-392.32C1053.61,-384.34 1040.69,-372.31 1030.31,-362.65"/>
<polygon fill="midnightblue" stroke="midnightblue" points="1032.69,-360.09 1022.99,-355.83 1027.92,-365.21 1032.69,-360.09"/>
</g>
<!-- Node55 -->
<g id="node49" class="node">
<title>Node55</title>
<g id="a_node49"><a xlink:href="_o_m_sim_angular_scan_8hh.html" target="_top" xlink:title=" ">
<polygon fill="white" stroke="black" points="1512.5,-336.5 1512.5,-355.5 1640.5,-355.5 1640.5,-336.5 1512.5,-336.5"/>
<text text-anchor="middle" x="1576.5" y="-343.5" font-family="Helvetica,sans-Serif" font-size="10.00">OMSimAngularScan.hh</text>
</a>
</g>
</g>
<!-- Node1&#45;&gt;Node55 -->
<g id="edge52" class="edge">
<title>Node1&#45;&gt;Node55</title>
<path fill="none" stroke="midnightblue" d="M1141.72,-393.49C1236.73,-383.33 1405.49,-365.29 1502.44,-354.92"/>
<polygon fill="midnightblue" stroke="midnightblue" points="1502.89,-358.39 1512.46,-353.85 1502.15,-351.43 1502.89,-358.39"/>
</g>
<!-- Node3 -->
<g id="node3" class="node">
<title>Node3</title>
<g id="a_node3"><a xlink:href="_o_m_sim_detector_construction_8hh.html" target="_top" xlink:title=" ">
<polygon fill="white" stroke="black" points="1460.5,-280.5 1460.5,-299.5 1630.5,-299.5 1630.5,-280.5 1460.5,-280.5"/>
<text text-anchor="middle" x="1545.5" y="-287.5" font-family="Helvetica,sans-Serif" font-size="10.00">OMSimDetectorConstruction.hh</text>
</a>
</g>
</g>
<!-- Node2&#45;&gt;Node3 -->
<g id="edge2" class="edge">
<title>Node2&#45;&gt;Node3</title>
<path fill="none" stroke="midnightblue" d="M1047.18,-341.58C1127.16,-333.46 1330.82,-312.79 1451.58,-300.53"/>
<polygon fill="midnightblue" stroke="midnightblue" points="1451.97,-304.01 1461.56,-299.52 1451.26,-297.05 1451.97,-304.01"/>
</g>
<!-- Node21 -->
<g id="node15" class="node">
<title>Node21</title>
<g id="a_node15"><a xlink:href="_o_m_sim_physics_list_8hh.html" target="_top" xlink:title=" ">
<polygon fill="white" stroke="black" points="1649,-280.5 1649,-299.5 1770,-299.5 1770,-280.5 1649,-280.5"/>
<text text-anchor="middle" x="1709.5" y="-287.5" font-family="Helvetica,sans-Serif" font-size="10.00">OMSimPhysicsList.hh</text>
</a>
</g>
</g>
<!-- Node2&#45;&gt;Node21 -->
<g id="edge16" class="edge">
<title>Node2&#45;&gt;Node21</title>
<path fill="none" stroke="midnightblue" d="M1047.15,-343.25C1139.69,-338.28 1406.03,-323.05 1638.81,-300.01"/>
<polygon fill="midnightblue" stroke="midnightblue" points="1639.21,-303.49 1648.82,-299.01 1638.52,-296.52 1639.21,-303.49"/>
</g>
<!-- Node23 -->
<g id="node17" class="node">
<title>Node23</title>
<g id="a_node17"><a xlink:href="_o_m_sim_primary_generator_action_8hh.html" target="_top" xlink:title=" ">
<polygon fill="white" stroke="black" points="1788,-280.5 1788,-299.5 1973,-299.5 1973,-280.5 1788,-280.5"/>
<text text-anchor="middle" x="1880.5" y="-287.5" font-family="Helvetica,sans-Serif" font-size="10.00">OMSimPrimaryGeneratorAction.hh</text>
</a>
</g>
</g>
<!-- Node2&#45;&gt;Node23 -->
<g id="edge18" class="edge">
<title>Node2&#45;&gt;Node23</title>
<path fill="none" stroke="midnightblue" d="M1047.08,-343.38C1152.71,-338.19 1487.9,-321.18 1777.66,-300.04"/>
<polygon fill="midnightblue" stroke="midnightblue" points="1778.23,-303.51 1787.94,-299.29 1777.71,-296.53 1778.23,-303.51"/>
</g>
<!-- Node25 -->
<g id="node19" class="node">
<title>Node25</title>
<g id="a_node19"><a xlink:href="_o_m_sim_run_action_8hh.html" target="_top" xlink:title=" ">
<polygon fill="white" stroke="black" points="33.5,-280.5 33.5,-299.5 149.5,-299.5 149.5,-280.5 33.5,-280.5"/>
<text text-anchor="middle" x="91.5" y="-287.5" font-family="Helvetica,sans-Serif" font-size="10.00">OMSimRunAction.hh</text>
</a>
</g>
</g>
<!-- Node2&#45;&gt;Node25 -->
<g id="edge20" class="edge">
<title>Node2&#45;&gt;Node25</title>
<path fill="none" stroke="midnightblue" d="M979.76,-343.59C867.55,-338.82 496.63,-322.28 190.5,-300 180.56,-299.28 170.07,-298.42 159.77,-297.53"/>
<polygon fill="midnightblue" stroke="midnightblue" points="159.85,-294.02 149.58,-296.63 159.23,-301 159.85,-294.02"/>
</g>
<!-- Node27 -->
<g id="node21" class="node">
<title>Node27</title>
<g id="a_node21"><a xlink:href="_o_m_sim_event_action_8hh.html" target="_top" xlink:title=" ">
<polygon fill="white" stroke="black" points="200,-280.5 200,-299.5 325,-299.5 325,-280.5 200,-280.5"/>
<text text-anchor="middle" x="262.5" y="-287.5" font-family="Helvetica,sans-Serif" font-size="10.00">OMSimEventAction.hh</text>
</a>
</g>
</g>
<!-- Node2&#45;&gt;Node27 -->
<g id="edge22" class="edge">
<title>Node2&#45;&gt;Node27</title>
<path fill="none" stroke="midnightblue" d="M979.89,-343.47C882.18,-338.86 589.62,-324.03 335.47,-300.04"/>
<polygon fill="midnightblue" stroke="midnightblue" points="335.59,-296.53 325.3,-299.07 334.93,-303.5 335.59,-296.53"/>
</g>
<!-- Node30 -->
<g id="node24" class="node">
<title>Node30</title>
<g id="a_node24"><a xlink:href="_o_m_sim_tracking_action_8hh.html" target="_top" xlink:title=" ">
<polygon fill="white" stroke="black" points="343.5,-280.5 343.5,-299.5 481.5,-299.5 481.5,-280.5 343.5,-280.5"/>
<text text-anchor="middle" x="412.5" y="-287.5" font-family="Helvetica,sans-Serif" font-size="10.00">OMSimTrackingAction.hh</text>
</a>
</g>
</g>
<!-- Node2&#45;&gt;Node30 -->
<g id="edge25" class="edge">
<title>Node2&#45;&gt;Node30</title>
<path fill="none" stroke="midnightblue" d="M979.82,-342.44C898.13,-336.17 682.77,-319.19 492.03,-300.13"/>
<polygon fill="midnightblue" stroke="midnightblue" points="492.11,-296.62 481.81,-299.1 491.41,-303.58 492.11,-296.62"/>
</g>
<!-- Node32 -->
<g id="node26" class="node">
<title>Node32</title>
<g id="a_node26"><a xlink:href="_o_m_sim_stepping_action_8hh.html" target="_top" xlink:title=" ">
<polygon fill="white" stroke="black" points="499.5,-280.5 499.5,-299.5 639.5,-299.5 639.5,-280.5 499.5,-280.5"/>
<text text-anchor="middle" x="569.5" y="-287.5" font-family="Helvetica,sans-Serif" font-size="10.00">OMSimSteppingAction.hh</text>
</a>
</g>
</g>
<!-- Node2&#45;&gt;Node32 -->
<g id="edge27" class="edge">
<title>Node2&#45;&gt;Node32</title>
<path fill="none" stroke="midnightblue" d="M979.76,-340.9C909.99,-332.41 748.13,-312.73 649.86,-300.77"/>
<polygon fill="midnightblue" stroke="midnightblue" points="650.02,-297.27 639.67,-299.53 649.17,-304.22 650.02,-297.27"/>
</g>
<!-- Node34 -->
<g id="node28" class="node">
<title>Node34</title>
<g id="a_node28"><a xlink:href="_o_m_sim_analysis_manager_8hh.html" target="_top" xlink:title=" ">
<polygon fill="white" stroke="black" points="658.5,-224.5 658.5,-243.5 808.5,-243.5 808.5,-224.5 658.5,-224.5"/>
<text text-anchor="middle" x="733.5" y="-231.5" font-family="Helvetica,sans-Serif" font-size="10.00">OMSimAnalysisManager.hh</text>
</a>
</g>
</g>
<!-- Node2&#45;&gt;Node34 -->
<g id="edge29" class="edge">
<title>Node2&#45;&gt;Node34</title>
<path fill="none" stroke="midnightblue" d="M979.95,-345.67C904.35,-346.39 724.35,-343.41 686.5,-300 672.27,-283.67 692.68,-263.19 710.89,-249.63"/>
<polygon fill="midnightblue" stroke="midnightblue" points="713.33,-252.19 719.5,-243.58 709.3,-246.47 713.33,-252.19"/>
</g>
<!-- Node42 -->
<g id="node36" class="node">
<title>Node42</title>
<g id="a_node36"><a xlink:href="_o_m_sim_u_iinterface_8hh.html" target="_top" xlink:title="The OMSimUIinterface class provides a singleton interface to Geant4&#39;s UI manager.">
<polygon fill="white" stroke="black" points="696,-280.5 696,-299.5 817,-299.5 817,-280.5 696,-280.5"/>
<text text-anchor="middle" x="756.5" y="-287.5" font-family="Helvetica,sans-Serif" font-size="10.00">OMSimUIinterface.hh</text>
</a>
</g>
</g>
<!-- Node2&#45;&gt;Node42 -->
<g id="edge38" class="edge">
<title>Node2&#45;&gt;Node42</title>
<path fill="none" stroke="midnightblue" d="M979.9,-337.94C935.89,-328.69 858.34,-312.4 807.18,-301.65"/>
<polygon fill="midnightblue" stroke="midnightblue" points="807.82,-298.21 797.32,-299.58 806.38,-305.06 807.82,-298.21"/>
</g>
<!-- Node50 -->
<g id="node44" class="node">
<title>Node50</title>
<g id="a_node44"><a xlink:title=" ">
<polygon fill="white" stroke="#bfbfbf" points="835.5,-280.5 835.5,-299.5 941.5,-299.5 941.5,-280.5 835.5,-280.5"/>
<text text-anchor="middle" x="888.5" y="-287.5" font-family="Helvetica,sans-Serif" font-size="10.00">G4RunManager.hh</text>
</a>
</g>
</g>
<!-- Node2&#45;&gt;Node50 -->
<g id="edge47" class="edge">
<title>Node2&#45;&gt;Node50</title>
<path fill="none" stroke="midnightblue" d="M993.69,-336.44C973.21,-327.6 941.02,-313.69 917.64,-303.59"/>
<polygon fill="midnightblue" stroke="midnightblue" points="918.78,-300.27 908.21,-299.52 916.01,-306.7 918.78,-300.27"/>
</g>
<!-- Node51 -->
<g id="node45" class="node">
<title>Node51</title>
<g id="a_node45"><a xlink:title=" ">
<polygon fill="white" stroke="#bfbfbf" points="960,-280.5 960,-299.5 1067,-299.5 1067,-280.5 960,-280.5"/>
<text text-anchor="middle" x="1013.5" y="-287.5" font-family="Helvetica,sans-Serif" font-size="10.00">G4VisExecutive.hh</text>
</a>
</g>
</g>
<!-- Node2&#45;&gt;Node51 -->
<g id="edge48" class="edge">
<title>Node2&#45;&gt;Node51</title>
<path fill="none" stroke="midnightblue" d="M1013.5,-336.08C1013.5,-329.01 1013.5,-318.86 1013.5,-309.99"/>
<polygon fill="midnightblue" stroke="midnightblue" points="1017,-309.75 1013.5,-299.75 1010,-309.75 1017,-309.75"/>
</g>
<!-- Node52 -->
<g id="node46" class="node">
<title>Node52</title>
<g id="a_node46"><a xlink:title=" ">
<polygon fill="white" stroke="#bfbfbf" points="1085,-280.5 1085,-299.5 1188,-299.5 1188,-280.5 1085,-280.5"/>
<text text-anchor="middle" x="1136.5" y="-287.5" font-family="Helvetica,sans-Serif" font-size="10.00">G4UIExecutive.hh</text>
</a>
</g>
</g>
<!-- Node2&#45;&gt;Node52 -->
<g id="edge49" class="edge">
<title>Node2&#45;&gt;Node52</title>
<path fill="none" stroke="midnightblue" d="M1032.99,-336.44C1053.14,-327.6 1084.82,-313.69 1107.83,-303.59"/>
<polygon fill="midnightblue" stroke="midnightblue" points="1109.35,-306.74 1117.1,-299.52 1106.54,-300.33 1109.35,-306.74"/>
</g>
<!-- Node53 -->
<g id="node47" class="node">
<title>Node53</title>
<g id="a_node47"><a xlink:title=" ">
<polygon fill="white" stroke="#bfbfbf" points="1206.5,-280.5 1206.5,-299.5 1274.5,-299.5 1274.5,-280.5 1206.5,-280.5"/>
<text text-anchor="middle" x="1240.5" y="-287.5" font-family="Helvetica,sans-Serif" font-size="10.00">filesystem</text>
</a>
</g>
</g>
<!-- Node2&#45;&gt;Node53 -->
<g id="edge50" class="edge">
<title>Node2&#45;&gt;Node53</title>
<path fill="none" stroke="midnightblue" d="M1047.48,-336.92C1087.19,-327.47 1152.97,-311.82 1196.53,-301.46"/>
<polygon fill="midnightblue" stroke="midnightblue" points="1197.36,-304.86 1206.28,-299.14 1195.74,-298.05 1197.36,-304.86"/>
</g>
<!-- Node54 -->
<g id="node48" class="node">
<title>Node54</title>
<g id="a_node48"><a xlink:title=" ">
<polygon fill="white" stroke="#bfbfbf" points="1292.5,-280.5 1292.5,-299.5 1442.5,-299.5 1442.5,-280.5 1292.5,-280.5"/>
<text text-anchor="middle" x="1367.5" y="-287.5" font-family="Helvetica,sans-Serif" font-size="10.00">boost/program_options.hpp</text>
</a>
</g>
</g>
<!-- Node2&#45;&gt;Node54 -->
<g id="edge51" class="edge">
<title>Node2&#45;&gt;Node54</title>
<path fill="none" stroke="midnightblue" d="M1047.12,-339.87C1105.31,-331 1225.78,-312.62 1301.28,-301.1"/>
<polygon fill="midnightblue" stroke="midnightblue" points="1302.27,-304.49 1311.63,-299.52 1301.21,-297.57 1302.27,-304.49"/>
</g>
<!-- Node4 -->
<g id="node4" class="node">
<title>Node4</title>
<g id="a_node4"><a xlink:href="_o_m_sim_m_d_o_m_8hh.html" target="_top" xlink:title=" ">
<polygon fill="white" stroke="black" points="1507.5,-224.5 1507.5,-243.5 1607.5,-243.5 1607.5,-224.5 1507.5,-224.5"/>
<text text-anchor="middle" x="1557.5" y="-231.5" font-family="Helvetica,sans-Serif" font-size="10.00">OMSimMDOM.hh</text>
</a>
</g>
</g>
<!-- Node3&#45;&gt;Node4 -->
<g id="edge3" class="edge">
<title>Node3&#45;&gt;Node4</title>
<path fill="none" stroke="midnightblue" d="M1547.48,-280.08C1549.07,-272.93 1551.36,-262.64 1553.35,-253.69"/>
<polygon fill="midnightblue" stroke="midnightblue" points="1556.8,-254.27 1555.56,-243.75 1549.97,-252.75 1556.8,-254.27"/>
</g>
<!-- Node19 -->
<g id="node13" class="node">
<title>Node19</title>
<g id="a_node13"><a xlink:title=" ">
<polygon fill="white" stroke="#bfbfbf" points="1231.5,-224.5 1231.5,-243.5 1293.5,-243.5 1293.5,-224.5 1231.5,-224.5"/>
<text text-anchor="middle" x="1262.5" y="-231.5" font-family="Helvetica,sans-Serif" font-size="10.00">G4Orb.hh</text>
</a>
</g>
</g>
<!-- Node3&#45;&gt;Node19 -->
<g id="edge14" class="edge">
<title>Node3&#45;&gt;Node19</title>
<path fill="none" stroke="midnightblue" d="M1496.52,-280.5C1449.58,-272.22 1376.47,-259 1304.12,-244.28"/>
<polygon fill="midnightblue" stroke="midnightblue" points="1304.42,-240.76 1293.92,-242.19 1303.01,-247.62 1304.42,-240.76"/>
</g>
<!-- Node20 -->
<g id="node14" class="node">
<title>Node20</title>
<g id="a_node14"><a xlink:title=" ">
<polygon fill="white" stroke="#bfbfbf" points="1311.5,-224.5 1311.5,-243.5 1489.5,-243.5 1489.5,-224.5 1311.5,-224.5"/>
<text text-anchor="middle" x="1400.5" y="-231.5" font-family="Helvetica,sans-Serif" font-size="10.00">G4VUserDetectorConstruction.hh</text>
</a>
</g>
</g>
<!-- Node3&#45;&gt;Node20 -->
<g id="edge15" class="edge">
<title>Node3&#45;&gt;Node20</title>
<path fill="none" stroke="midnightblue" d="M1522.52,-280.44C1498.34,-271.44 1460.08,-257.19 1432.85,-247.05"/>
<polygon fill="midnightblue" stroke="midnightblue" points="1433.96,-243.73 1423.37,-243.52 1431.52,-250.29 1433.96,-243.73"/>
</g>
<!-- Node5 -->
<g id="node5" class="node">
<title>Node5</title>
<g id="a_node5"><a xlink:href="_o_m_sim_m_d_o_m_flasher_8hh.html" target="_top" xlink:title=" ">
<polygon fill="white" stroke="black" points="1330,-168.5 1330,-187.5 1465,-187.5 1465,-168.5 1330,-168.5"/>
<text text-anchor="middle" x="1397.5" y="-175.5" font-family="Helvetica,sans-Serif" font-size="10.00">OMSimMDOMFlasher.hh</text>
</a>
</g>
</g>
<!-- Node4&#45;&gt;Node5 -->
<g id="edge4" class="edge">
<title>Node4&#45;&gt;Node5</title>
<path fill="none" stroke="midnightblue" d="M1532.15,-224.44C1505.23,-215.36 1462.5,-200.94 1432.41,-190.78"/>
<polygon fill="midnightblue" stroke="midnightblue" points="1433.33,-187.4 1422.73,-187.52 1431.09,-194.03 1433.33,-187.4"/>
</g>
<!-- Node17 -->
<g id="node11" class="node">
<title>Node17</title>
<g id="a_node11"><a xlink:href="_o_m_sim_p_m_t_construction_8hh.html" target="_top" xlink:title=" ">
<polygon fill="white" stroke="black" points="1483,-168.5 1483,-187.5 1632,-187.5 1632,-168.5 1483,-168.5"/>
<text text-anchor="middle" x="1557.5" y="-175.5" font-family="Helvetica,sans-Serif" font-size="10.00">OMSimPMTConstruction.hh</text>
</a>
</g>
</g>
<!-- Node4&#45;&gt;Node17 -->
<g id="edge10" class="edge">
<title>Node4&#45;&gt;Node17</title>
<path fill="none" stroke="midnightblue" d="M1557.5,-224.08C1557.5,-217.01 1557.5,-206.86 1557.5,-197.99"/>
<polygon fill="midnightblue" stroke="midnightblue" points="1561,-197.75 1557.5,-187.75 1554,-197.75 1561,-197.75"/>
</g>
<!-- Node6 -->
<g id="node6" class="node">
<title>Node6</title>
<g id="a_node6"><a xlink:href="abc_detector_component_8hh.html" target="_top" xlink:title=" ">
<polygon fill="white" stroke="red" points="1465,-112.5 1465,-131.5 1612,-131.5 1612,-112.5 1465,-112.5"/>
<text text-anchor="middle" x="1538.5" y="-119.5" font-family="Helvetica,sans-Serif" font-size="10.00">abcDetectorComponent.hh</text>
</a>
</g>
</g>
<!-- Node5&#45;&gt;Node6 -->
<g id="edge5" class="edge">
<title>Node5&#45;&gt;Node6</title>
<path fill="none" stroke="midnightblue" d="M1419.84,-168.44C1443.25,-159.48 1480.24,-145.31 1506.69,-135.18"/>
<polygon fill="midnightblue" stroke="midnightblue" points="1508.18,-138.36 1516.26,-131.52 1505.67,-131.82 1508.18,-138.36"/>
</g>
<!-- Node15 -->
<g id="node9" class="node">
<title>Node15</title>
<g id="a_node9"><a xlink:title=" ">
<polygon fill="white" stroke="#bfbfbf" points="1348.5,-112.5 1348.5,-131.5 1446.5,-131.5 1446.5,-112.5 1348.5,-112.5"/>
<text text-anchor="middle" x="1397.5" y="-119.5" font-family="Helvetica,sans-Serif" font-size="10.00">G4UnionSolid.hh</text>
</a>
</g>
</g>
<!-- Node5&#45;&gt;Node15 -->
<g id="edge8" class="edge">
<title>Node5&#45;&gt;Node15</title>
<path fill="none" stroke="midnightblue" d="M1397.5,-168.08C1397.5,-161.01 1397.5,-150.86 1397.5,-141.99"/>
<polygon fill="midnightblue" stroke="midnightblue" points="1401,-141.75 1397.5,-131.75 1394,-141.75 1401,-141.75"/>
</g>
<!-- Node16 -->
<g id="node10" class="node">
<title>Node16</title>
<g id="a_node10"><a xlink:title=" ">
<polygon fill="white" stroke="#bfbfbf" points="1238.5,-112.5 1238.5,-131.5 1330.5,-131.5 1330.5,-112.5 1238.5,-112.5"/>
<text text-anchor="middle" x="1284.5" y="-119.5" font-family="Helvetica,sans-Serif" font-size="10.00">G4Navigator.hh</text>
</a>
</g>
</g>
<!-- Node5&#45;&gt;Node16 -->
<g id="edge9" class="edge">
<title>Node5&#45;&gt;Node16</title>
<path fill="none" stroke="midnightblue" d="M1379.59,-168.44C1361.25,-159.68 1332.49,-145.94 1311.41,-135.86"/>
<polygon fill="midnightblue" stroke="midnightblue" points="1312.85,-132.67 1302.32,-131.52 1309.83,-138.99 1312.85,-132.67"/>
</g>
<!-- Node7 -->
<g id="node7" class="node">
<title>Node7</title>
<g id="a_node7"><a xlink:href="_o_m_sim_input_data_8hh.html" target="_top" xlink:title=" ">
<polygon fill="white" stroke="red" points="1029,-56.5 1029,-75.5 1144,-75.5 1144,-56.5 1029,-56.5"/>
<text text-anchor="middle" x="1086.5" y="-63.5" font-family="Helvetica,sans-Serif" font-size="10.00">OMSimInputData.hh</text>
</a>
</g>
</g>
<!-- Node6&#45;&gt;Node7 -->
<g id="edge6" class="edge">
<title>Node6&#45;&gt;Node7</title>
<path fill="none" stroke="midnightblue" d="M1466.88,-112.44C1381,-102.18 1238.17,-85.12 1154.11,-75.08"/>
<polygon fill="midnightblue" stroke="midnightblue" points="1154.5,-71.6 1144.16,-73.89 1153.67,-78.55 1154.5,-71.6"/>
</g>
<!-- Node10 -->
<g id="node8" class="node">
<title>Node10</title>
<g id="a_node8"><a xlink:title=" ">
<polygon fill="white" stroke="#bfbfbf" points="546,-0.5 546,-19.5 665,-19.5 665,-0.5 546,-0.5"/>
<text text-anchor="middle" x="605.5" y="-7.5" font-family="Helvetica,sans-Serif" font-size="10.00">G4SystemOfUnits.hh</text>
</a>
</g>
</g>
<!-- Node7&#45;&gt;Node10 -->
<g id="edge7" class="edge">
<title>Node7&#45;&gt;Node10</title>
<path fill="none" stroke="midnightblue" d="M1028.96,-58.54C940.42,-48.6 771.03,-29.58 675.51,-18.86"/>
<polygon fill="midnightblue" stroke="midnightblue" points="675.7,-15.36 665.37,-17.72 674.92,-22.32 675.7,-15.36"/>
</g>
<!-- Node17&#45;&gt;Node6 -->
<g id="edge11" class="edge">
<title>Node17&#45;&gt;Node6</title>
<path fill="none" stroke="midnightblue" d="M1554.36,-168.08C1551.82,-160.85 1548.14,-150.41 1544.97,-141.4"/>
<polygon fill="midnightblue" stroke="midnightblue" points="1548.2,-140.02 1541.58,-131.75 1541.6,-142.35 1548.2,-140.02"/>
</g>
<!-- Node17&#45;&gt;Node15 -->
<g id="edge12" class="edge">
<title>Node17&#45;&gt;Node15</title>
<path fill="none" stroke="midnightblue" d="M1532.15,-168.44C1505.23,-159.36 1462.5,-144.94 1432.41,-134.78"/>
<polygon fill="midnightblue" stroke="midnightblue" points="1433.33,-131.4 1422.73,-131.52 1431.09,-138.03 1433.33,-131.4"/>
</g>
<!-- Node18 -->
<g id="node12" class="node">
<title>Node18</title>
<g id="a_node12"><a xlink:title=" ">
<polygon fill="white" stroke="#bfbfbf" points="1630,-112.5 1630,-131.5 1697,-131.5 1697,-112.5 1630,-112.5"/>
<text text-anchor="middle" x="1663.5" y="-119.5" font-family="Helvetica,sans-Serif" font-size="10.00">G4Tubs.hh</text>
</a>
</g>
</g>
<!-- Node17&#45;&gt;Node18 -->
<g id="edge13" class="edge">
<title>Node17&#45;&gt;Node18</title>
<path fill="none" stroke="midnightblue" d="M1574.53,-168.32C1591.53,-159.66 1617.88,-146.24 1637.49,-136.25"/>
<polygon fill="midnightblue" stroke="midnightblue" points="1639.19,-139.31 1646.51,-131.65 1636.01,-133.08 1639.19,-139.31"/>
</g>
<!-- Node22 -->
<g id="node16" class="node">
<title>Node22</title>
<g id="a_node16"><a xlink:title=" ">
<polygon fill="white" stroke="#bfbfbf" points="1641.5,-224.5 1641.5,-243.5 1769.5,-243.5 1769.5,-224.5 1641.5,-224.5"/>
<text text-anchor="middle" x="1705.5" y="-231.5" font-family="Helvetica,sans-Serif" font-size="10.00">G4VUserPhysicsList.hh</text>
</a>
</g>
</g>
<!-- Node21&#45;&gt;Node22 -->
<g id="edge17" class="edge">
<title>Node21&#45;&gt;Node22</title>
<path fill="none" stroke="midnightblue" d="M1708.84,-280.08C1708.32,-273.01 1707.56,-262.86 1706.91,-253.99"/>
<polygon fill="midnightblue" stroke="midnightblue" points="1710.38,-253.47 1706.15,-243.75 1703.4,-253.98 1710.38,-253.47"/>
</g>
<!-- Node24 -->
<g id="node18" class="node">
<title>Node24</title>
<g id="a_node18"><a xlink:title=" ">
<polygon fill="white" stroke="#bfbfbf" points="1787.5,-224.5 1787.5,-243.5 1979.5,-243.5 1979.5,-224.5 1787.5,-224.5"/>
<text text-anchor="middle" x="1883.5" y="-231.5" font-family="Helvetica,sans-Serif" font-size="10.00">G4VUserPrimaryGeneratorAction.hh</text>
</a>
</g>
</g>
<!-- Node23&#45;&gt;Node24 -->
<g id="edge19" class="edge">
<title>Node23&#45;&gt;Node24</title>
<path fill="none" stroke="midnightblue" d="M1881,-280.08C1881.39,-273.01 1881.95,-262.86 1882.45,-253.99"/>
<polygon fill="midnightblue" stroke="midnightblue" points="1885.95,-253.93 1883.01,-243.75 1878.96,-253.54 1885.95,-253.93"/>
</g>
<!-- Node26 -->
<g id="node20" class="node">
<title>Node26</title>
<g id="a_node20"><a xlink:title=" ">
<polygon fill="white" stroke="#bfbfbf" points="0,-224.5 0,-243.5 117,-243.5 117,-224.5 0,-224.5"/>
<text text-anchor="middle" x="58.5" y="-231.5" font-family="Helvetica,sans-Serif" font-size="10.00">G4UserRunAction.hh</text>
</a>
</g>
</g>
<!-- Node25&#45;&gt;Node26 -->
<g id="edge21" class="edge">
<title>Node25&#45;&gt;Node26</title>
<path fill="none" stroke="midnightblue" d="M86.05,-280.08C81.49,-272.61 74.83,-261.72 69.21,-252.52"/>
<polygon fill="midnightblue" stroke="midnightblue" points="72.05,-250.46 63.85,-243.75 66.08,-254.11 72.05,-250.46"/>
</g>
<!-- Node28 -->
<g id="node22" class="node">
<title>Node28</title>
<g id="a_node22"><a xlink:title=" ">
<polygon fill="white" stroke="#bfbfbf" points="135.5,-224.5 135.5,-243.5 261.5,-243.5 261.5,-224.5 135.5,-224.5"/>
<text text-anchor="middle" x="198.5" y="-231.5" font-family="Helvetica,sans-Serif" font-size="10.00">G4UserEventAction.hh</text>
</a>
</g>
</g>
<!-- Node27&#45;&gt;Node28 -->
<g id="edge23" class="edge">
<title>Node27&#45;&gt;Node28</title>
<path fill="none" stroke="midnightblue" d="M252.22,-280.32C242.66,-272.26 228.22,-260.08 216.72,-250.37"/>
<polygon fill="midnightblue" stroke="midnightblue" points="218.87,-247.61 208.97,-243.83 214.36,-252.96 218.87,-247.61"/>
</g>
<!-- Node29 -->
<g id="node23" class="node">
<title>Node29</title>
<g id="a_node23"><a xlink:title=" ">
<polygon fill="white" stroke="#bfbfbf" points="279.5,-224.5 279.5,-243.5 323.5,-243.5 323.5,-224.5 279.5,-224.5"/>
<text text-anchor="middle" x="301.5" y="-231.5" font-family="Helvetica,sans-Serif" font-size="10.00">string</text>
</a>
</g>
</g>
<!-- Node27&#45;&gt;Node29 -->
<g id="edge24" class="edge">
<title>Node27&#45;&gt;Node29</title>
<path fill="none" stroke="midnightblue" d="M268.94,-280.08C274.45,-272.46 282.53,-261.26 289.26,-251.94"/>
<polygon fill="midnightblue" stroke="midnightblue" points="292.16,-253.91 295.18,-243.75 286.49,-249.81 292.16,-253.91"/>
</g>
<!-- Node31 -->
<g id="node25" class="node">
<title>Node31</title>
<g id="a_node25"><a xlink:title=" ">
<polygon fill="white" stroke="#bfbfbf" points="342,-224.5 342,-243.5 481,-243.5 481,-224.5 342,-224.5"/>
<text text-anchor="middle" x="411.5" y="-231.5" font-family="Helvetica,sans-Serif" font-size="10.00">G4UserTrackingAction.hh</text>
</a>
</g>
</g>
<!-- Node30&#45;&gt;Node31 -->
<g id="edge26" class="edge">
<title>Node30&#45;&gt;Node31</title>
<path fill="none" stroke="midnightblue" d="M412.33,-280.08C412.2,-273.01 412.02,-262.86 411.85,-253.99"/>
<polygon fill="midnightblue" stroke="midnightblue" points="415.35,-253.68 411.66,-243.75 408.35,-253.81 415.35,-253.68"/>
</g>
<!-- Node33 -->
<g id="node27" class="node">
<title>Node33</title>
<g id="a_node27"><a xlink:title=" ">
<polygon fill="white" stroke="#bfbfbf" points="499,-224.5 499,-243.5 640,-243.5 640,-224.5 499,-224.5"/>
<text text-anchor="middle" x="569.5" y="-231.5" font-family="Helvetica,sans-Serif" font-size="10.00">G4UserSteppingAction.hh</text>
</a>
</g>
</g>
<!-- Node32&#45;&gt;Node33 -->
<g id="edge28" class="edge">
<title>Node32&#45;&gt;Node33</title>
<path fill="none" stroke="midnightblue" d="M569.5,-280.08C569.5,-273.01 569.5,-262.86 569.5,-253.99"/>
<polygon fill="midnightblue" stroke="midnightblue" points="573,-253.75 569.5,-243.75 566,-253.75 573,-253.75"/>
</g>
<!-- Node35 -->
<g id="node29" class="node">
<title>Node35</title>
<g id="a_node29"><a xlink:href="_o_m_sim_p_m_t_response_8hh.html" target="_top" xlink:title=" ">
<polygon fill="white" stroke="black" points="527,-168.5 527,-187.5 662,-187.5 662,-168.5 527,-168.5"/>
<text text-anchor="middle" x="594.5" y="-175.5" font-family="Helvetica,sans-Serif" font-size="10.00">OMSimPMTResponse.hh</text>
</a>
</g>
</g>
<!-- Node34&#45;&gt;Node35 -->
<g id="edge30" class="edge">
<title>Node34&#45;&gt;Node35</title>
<path fill="none" stroke="midnightblue" d="M711.48,-224.44C688.4,-215.48 651.94,-201.31 625.86,-191.18"/>
<polygon fill="midnightblue" stroke="midnightblue" points="627.01,-187.88 616.42,-187.52 624.48,-194.4 627.01,-187.88"/>
</g>
<!-- Node40 -->
<g id="node34" class="node">
<title>Node40</title>
<g id="a_node34"><a xlink:title=" ">
<polygon fill="white" stroke="#bfbfbf" points="680,-168.5 680,-187.5 783,-187.5 783,-168.5 680,-168.5"/>
<text text-anchor="middle" x="731.5" y="-175.5" font-family="Helvetica,sans-Serif" font-size="10.00">G4ThreeVector.hh</text>
</a>
</g>
</g>
<!-- Node34&#45;&gt;Node40 -->
<g id="edge36" class="edge">
<title>Node34&#45;&gt;Node40</title>
<path fill="none" stroke="midnightblue" d="M733.17,-224.08C732.91,-217.01 732.53,-206.86 732.2,-197.99"/>
<polygon fill="midnightblue" stroke="midnightblue" points="735.69,-197.61 731.82,-187.75 728.7,-197.87 735.69,-197.61"/>
</g>
<!-- Node41 -->
<g id="node35" class="node">
<title>Node41</title>
<g id="a_node35"><a xlink:title=" ">
<polygon fill="white" stroke="#bfbfbf" points="801,-168.5 801,-187.5 856,-187.5 856,-168.5 801,-168.5"/>
<text text-anchor="middle" x="828.5" y="-175.5" font-family="Helvetica,sans-Serif" font-size="10.00">fstream</text>
</a>
</g>
</g>
<!-- Node34&#45;&gt;Node41 -->
<g id="edge37" class="edge">
<title>Node34&#45;&gt;Node41</title>
<path fill="none" stroke="midnightblue" d="M748.76,-224.32C763.72,-215.82 786.75,-202.73 804.23,-192.8"/>
<polygon fill="midnightblue" stroke="midnightblue" points="806.31,-195.64 813.27,-187.65 802.85,-189.55 806.31,-195.64"/>
</g>
<!-- Node35&#45;&gt;Node10 -->
<g id="edge31" class="edge">
<title>Node35&#45;&gt;Node10</title>
<path fill="none" stroke="midnightblue" d="M591.16,-168.2C587.95,-159.24 583.32,-144.88 581.5,-132 576.29,-95.22 589.16,-52.74 598,-29.16"/>
<polygon fill="midnightblue" stroke="midnightblue" points="601.3,-30.34 601.7,-19.75 594.78,-27.78 601.3,-30.34"/>
</g>
<!-- Node36 -->
<g id="node30" class="node">
<title>Node36</title>
<g id="a_node30"><a xlink:title=" ">
<polygon fill="white" stroke="#bfbfbf" points="591,-112.5 591,-131.5 664,-131.5 664,-112.5 591,-112.5"/>
<text text-anchor="middle" x="627.5" y="-119.5" font-family="Helvetica,sans-Serif" font-size="10.00">G4Types.hh</text>
</a>
</g>
</g>
<!-- Node35&#45;&gt;Node36 -->
<g id="edge32" class="edge">
<title>Node35&#45;&gt;Node36</title>
<path fill="none" stroke="midnightblue" d="M599.95,-168.08C604.51,-160.61 611.17,-149.72 616.79,-140.52"/>
<polygon fill="midnightblue" stroke="midnightblue" points="619.92,-142.11 622.15,-131.75 613.95,-138.46 619.92,-142.11"/>
</g>
<!-- Node37 -->
<g id="node31" class="node">
<title>Node37</title>
<g id="a_node31"><a xlink:title=" ">
<polygon fill="white" stroke="#bfbfbf" points="682.5,-112.5 682.5,-131.5 720.5,-131.5 720.5,-112.5 682.5,-112.5"/>
<text text-anchor="middle" x="701.5" y="-119.5" font-family="Helvetica,sans-Serif" font-size="10.00">map</text>
</a>
</g>
</g>
<!-- Node35&#45;&gt;Node37 -->
<g id="edge33" class="edge">
<title>Node35&#45;&gt;Node37</title>
<path fill="none" stroke="midnightblue" d="M611.69,-168.32C628.85,-159.66 655.45,-146.24 675.25,-136.25"/>
<polygon fill="midnightblue" stroke="midnightblue" points="677,-139.28 684.35,-131.65 673.85,-133.04 677,-139.28"/>
</g>
<!-- Node38 -->
<g id="node32" class="node">
<title>Node38</title>
<g id="a_node32"><a xlink:title=" ">
<polygon fill="white" stroke="#bfbfbf" points="739,-112.5 739,-131.5 800,-131.5 800,-112.5 739,-112.5"/>
<text text-anchor="middle" x="769.5" y="-119.5" font-family="Helvetica,sans-Serif" font-size="10.00">TGraph.h</text>
</a>
</g>
</g>
<!-- Node35&#45;&gt;Node38 -->
<g id="edge34" class="edge">
<title>Node35&#45;&gt;Node38</title>
<path fill="none" stroke="midnightblue" d="M622.23,-168.44C651.93,-159.28 699.22,-144.69 732.17,-134.52"/>
<polygon fill="midnightblue" stroke="midnightblue" points="733.38,-137.81 741.9,-131.52 731.31,-131.12 733.38,-137.81"/>
</g>
<!-- Node39 -->
<g id="node33" class="node">
<title>Node39</title>
<g id="a_node33"><a xlink:title=" ">
<polygon fill="white" stroke="#bfbfbf" points="481,-112.5 481,-131.5 534,-131.5 534,-112.5 481,-112.5"/>
<text text-anchor="middle" x="507.5" y="-119.5" font-family="Helvetica,sans-Serif" font-size="10.00">TH2D.h</text>
</a>
</g>
</g>
<!-- Node35&#45;&gt;Node39 -->
<g id="edge35" class="edge">
<title>Node35&#45;&gt;Node39</title>
<path fill="none" stroke="midnightblue" d="M580.52,-168.32C566.95,-159.9 546.12,-146.97 530.18,-137.07"/>
<polygon fill="midnightblue" stroke="midnightblue" points="531.79,-133.95 521.44,-131.65 528.09,-139.9 531.79,-133.95"/>
</g>
<!-- Node43 -->
<g id="node37" class="node">
<title>Node43</title>
<g id="a_node37"><a xlink:href="_o_m_sim_command_args_table_8hh.html" target="_top" xlink:title="Definition of the OMSimCommandArgsTable singleton class, which controls user args.">
<polygon fill="white" stroke="black" points="829.5,-224.5 829.5,-243.5 993.5,-243.5 993.5,-224.5 829.5,-224.5"/>
<text text-anchor="middle" x="911.5" y="-231.5" font-family="Helvetica,sans-Serif" font-size="10.00">OMSimCommandArgsTable.hh</text>
</a>
</g>
</g>
<!-- Node42&#45;&gt;Node43 -->
<g id="edge39" class="edge">
<title>Node42&#45;&gt;Node43</title>
<path fill="none" stroke="midnightblue" d="M781.06,-280.44C807.02,-271.4 848.17,-257.06 877.3,-246.92"/>
<polygon fill="midnightblue" stroke="midnightblue" points="878.76,-250.11 887.05,-243.52 876.46,-243.5 878.76,-250.11"/>
</g>
<!-- Node49 -->
<g id="node43" class="node">
<title>Node49</title>
<g id="a_node43"><a xlink:title=" ">
<polygon fill="white" stroke="#bfbfbf" points="1011.5,-224.5 1011.5,-243.5 1109.5,-243.5 1109.5,-224.5 1011.5,-224.5"/>
<text text-anchor="middle" x="1060.5" y="-231.5" font-family="Helvetica,sans-Serif" font-size="10.00">G4UImanager.hh</text>
</a>
</g>
</g>
<!-- Node42&#45;&gt;Node49 -->
<g id="edge46" class="edge">
<title>Node42&#45;&gt;Node49</title>
<path fill="none" stroke="midnightblue" d="M804.67,-280.44C858.37,-270.9 945.19,-255.48 1002.55,-245.29"/>
<polygon fill="midnightblue" stroke="midnightblue" points="1003.32,-248.71 1012.56,-243.52 1002.1,-241.82 1003.32,-248.71"/>
</g>
<!-- Node43&#45;&gt;Node41 -->
<g id="edge43" class="edge">
<title>Node43&#45;&gt;Node41</title>
<path fill="none" stroke="midnightblue" d="M898.16,-224.32C885.34,-215.98 865.72,-203.21 850.56,-193.35"/>
<polygon fill="midnightblue" stroke="midnightblue" points="852.09,-190.17 841.8,-187.65 848.28,-196.04 852.09,-190.17"/>
</g>
<!-- Node44 -->
<g id="node38" class="node">
<title>Node44</title>
<g id="a_node38"><a xlink:href="_o_m_sim_logger_8hh.html" target="_top" xlink:title=" ">
<polygon fill="white" stroke="black" points="1063,-168.5 1063,-187.5 1162,-187.5 1162,-168.5 1063,-168.5"/>
<text text-anchor="middle" x="1112.5" y="-175.5" font-family="Helvetica,sans-Serif" font-size="10.00">OMSimLogger.hh</text>
</a>
</g>
</g>
<!-- Node43&#45;&gt;Node44 -->
<g id="edge40" class="edge">
<title>Node43&#45;&gt;Node44</title>
<path fill="none" stroke="midnightblue" d="M943.35,-224.44C977.9,-215.16 1033.18,-200.31 1071.08,-190.13"/>
<polygon fill="midnightblue" stroke="midnightblue" points="1072.05,-193.49 1080.8,-187.52 1070.23,-186.73 1072.05,-193.49"/>
</g>
<!-- Node47 -->
<g id="node41" class="node">
<title>Node47</title>
<g id="a_node41"><a xlink:title=" ">
<polygon fill="white" stroke="#bfbfbf" points="874.5,-168.5 874.5,-187.5 958.5,-187.5 958.5,-168.5 874.5,-168.5"/>
<text text-anchor="middle" x="916.5" y="-175.5" font-family="Helvetica,sans-Serif" font-size="10.00">boost/any.hpp</text>
</a>
</g>
</g>
<!-- Node43&#45;&gt;Node47 -->
<g id="edge44" class="edge">
<title>Node43&#45;&gt;Node47</title>
<path fill="none" stroke="midnightblue" d="M912.33,-224.08C912.98,-217.01 913.92,-206.86 914.74,-197.99"/>
<polygon fill="midnightblue" stroke="midnightblue" points="918.25,-198.03 915.69,-187.75 911.28,-197.39 918.25,-198.03"/>
</g>
<!-- Node48 -->
<g id="node42" class="node">
<title>Node48</title>
<g id="a_node42"><a xlink:title=" ">
<polygon fill="white" stroke="#bfbfbf" points="976.5,-168.5 976.5,-187.5 1044.5,-187.5 1044.5,-168.5 976.5,-168.5"/>
<text text-anchor="middle" x="1010.5" y="-175.5" font-family="Helvetica,sans-Serif" font-size="10.00">sys/time.h</text>
</a>
</g>
</g>
<!-- Node43&#45;&gt;Node48 -->
<g id="edge45" class="edge">
<title>Node43&#45;&gt;Node48</title>
<path fill="none" stroke="midnightblue" d="M927.41,-224.32C943.14,-215.74 967.44,-202.49 985.71,-192.52"/>
<polygon fill="midnightblue" stroke="midnightblue" points="987.53,-195.52 994.63,-187.65 984.18,-189.37 987.53,-195.52"/>
</g>
<!-- Node45 -->
<g id="node39" class="node">
<title>Node45</title>
<g id="a_node39"><a xlink:title=" ">
<polygon fill="white" stroke="#bfbfbf" points="1120.5,-112.5 1120.5,-131.5 1170.5,-131.5 1170.5,-112.5 1120.5,-112.5"/>
<text text-anchor="middle" x="1145.5" y="-119.5" font-family="Helvetica,sans-Serif" font-size="10.00">stdio.h</text>
</a>
</g>
</g>
<!-- Node44&#45;&gt;Node45 -->
<g id="edge41" class="edge">
<title>Node44&#45;&gt;Node45</title>
<path fill="none" stroke="midnightblue" d="M1117.95,-168.08C1122.51,-160.61 1129.17,-149.72 1134.79,-140.52"/>
<polygon fill="midnightblue" stroke="midnightblue" points="1137.92,-142.11 1140.15,-131.75 1131.95,-138.46 1137.92,-142.11"/>
</g>
<!-- Node46 -->
<g id="node40" class="node">
<title>Node46</title>
<g id="a_node40"><a xlink:title=" ">
<polygon fill="white" stroke="#bfbfbf" points="1054.5,-112.5 1054.5,-131.5 1102.5,-131.5 1102.5,-112.5 1054.5,-112.5"/>
<text text-anchor="middle" x="1078.5" y="-119.5" font-family="Helvetica,sans-Serif" font-size="10.00">time.h</text>
</a>
</g>
</g>
<!-- Node44&#45;&gt;Node46 -->
<g id="edge42" class="edge">
<title>Node44&#45;&gt;Node46</title>
<path fill="none" stroke="midnightblue" d="M1106.89,-168.08C1102.13,-160.53 1095.18,-149.49 1089.35,-140.23"/>
<polygon fill="midnightblue" stroke="midnightblue" points="1092.3,-138.35 1084.01,-131.75 1086.38,-142.08 1092.3,-138.35"/>
</g>
<!-- Node56 -->
<g id="node50" class="node">
<title>Node56</title>
<g id="a_node50"><a xlink:title=" ">
<polygon fill="white" stroke="#bfbfbf" points="1991,-280.5 1991,-299.5 2058,-299.5 2058,-280.5 1991,-280.5"/>
<text text-anchor="middle" x="2024.5" y="-287.5" font-family="Helvetica,sans-Serif" font-size="10.00">globals.hh</text>
</a>
</g>
</g>
<!-- Node55&#45;&gt;Node56 -->
<g id="edge53" class="edge">
<title>Node55&#45;&gt;Node56</title>
<path fill="none" stroke="midnightblue" d="M1640.59,-339.79C1718.54,-333.02 1854.3,-319.87 1980.52,-300.01"/>
<polygon fill="midnightblue" stroke="midnightblue" points="1981.43,-303.41 1990.76,-298.38 1980.33,-296.5 1981.43,-303.41"/>
</g>
</g>
</svg>
