<?xml version="1.0" encoding="UTF-8" standalone="no"?>
<!DOCTYPE svg PUBLIC "-//W3C//DTD SVG 1.1//EN"
 "http://www.w3.org/Graphics/SVG/1.1/DTD/svg11.dtd">
<!-- Generated by graphviz version 2.43.0 (0)
 -->
<!-- Title: OMSimENES.cc Pages: 1 -->
<svg width="2133pt" height="207pt"
 viewBox="0.00 0.00 2132.72 207.00" xmlns="http://www.w3.org/2000/svg" xmlns:xlink="http://www.w3.org/1999/xlink">
<g id="graph0" class="graph" transform="scale(1 1) rotate(0) translate(4 203)">
<title>OMSimENES.cc</title>
<polygon fill="white" stroke="transparent" points="-4,4 -4,-203 2128.72,-203 2128.72,4 -4,4"/>
<!-- Node1 -->
<g id="node1" class="node">
<title>Node1</title>
<g id="a_node1"><a xlink:title=" ">
<polygon fill="#bfbfbf" stroke="black" points="1195.72,-179.5 1195.72,-198.5 1286.72,-198.5 1286.72,-179.5 1195.72,-179.5"/>
<text text-anchor="middle" x="1241.22" y="-186.5" font-family="Helvetica,sans-Serif" font-size="10.00">OMSimENES.cc</text>
</a>
</g>
</g>
<!-- Node2 -->
<g id="node2" class="node">
<title>Node2</title>
<g id="a_node2"><a xlink:href="_o_m_sim_e_n_e_s_8hh.html" target="_top" xlink:title="This file contains the class in charge of generating electrons from Electron&#45;electron_Neutrino Elasti...">
<polygon fill="white" stroke="black" points="189.22,-123.5 189.22,-142.5 281.22,-142.5 281.22,-123.5 189.22,-123.5"/>
<text text-anchor="middle" x="235.22" y="-130.5" font-family="Helvetica,sans-Serif" font-size="10.00">OMSimENES.hh</text>
</a>
</g>
</g>
<!-- Node1&#45;&gt;Node2 -->
<g id="edge1" class="edge">
<title>Node1&#45;&gt;Node2</title>
<path fill="none" stroke="midnightblue" d="M1195.33,-185.7C1067.3,-179.25 695.28,-160.34 386.22,-143 354.93,-141.24 319.99,-139.17 291.61,-137.45"/>
<polygon fill="midnightblue" stroke="midnightblue" points="291.67,-133.95 281.47,-136.84 291.24,-140.94 291.67,-133.95"/>
</g>
<!-- Node6 -->
<g id="node6" class="node">
<title>Node6</title>
<g id="a_node6"><a xlink:href="_o_m_sim_s_n_tools_8hh.html" target="_top" xlink:title="Provides the definition for the OMSimSNTools class, centralizing utility methods for Supernova (SN) n...">
<polygon fill="white" stroke="black" points="263.72,-62 263.72,-81 368.72,-81 368.72,-62 263.72,-62"/>
<text text-anchor="middle" x="316.22" y="-69" font-family="Helvetica,sans-Serif" font-size="10.00">OMSimSNTools.hh</text>
</a>
</g>
</g>
<!-- Node1&#45;&gt;Node6 -->
<g id="edge32" class="edge">
<title>Node1&#45;&gt;Node6</title>
<path fill="none" stroke="midnightblue" d="M1195.53,-186.6C1059.74,-182.22 660.16,-167.53 532.22,-143 463.86,-129.89 387.12,-101.36 346.02,-84.89"/>
<polygon fill="midnightblue" stroke="midnightblue" points="347.19,-81.59 336.61,-81.08 344.57,-88.08 347.19,-81.59"/>
</g>
<!-- Node8 -->
<g id="node8" class="node">
<title>Node8</title>
<g id="a_node8"><a xlink:href="_o_m_sim_s_n_analysis_8hh.html" target="_top" xlink:title=" ">
<polygon fill="white" stroke="black" points="541.22,-123.5 541.22,-142.5 663.22,-142.5 663.22,-123.5 541.22,-123.5"/>
<text text-anchor="middle" x="602.22" y="-130.5" font-family="Helvetica,sans-Serif" font-size="10.00">OMSimSNAnalysis.hh</text>
</a>
</g>
</g>
<!-- Node1&#45;&gt;Node8 -->
<g id="edge9" class="edge">
<title>Node1&#45;&gt;Node8</title>
<path fill="none" stroke="midnightblue" d="M1195.42,-185.14C1100.27,-179.04 874.06,-163.67 673.42,-143.08"/>
<polygon fill="midnightblue" stroke="midnightblue" points="673.59,-139.58 663.28,-142.03 672.87,-146.54 673.59,-139.58"/>
</g>
<!-- Node13 -->
<g id="node13" class="node">
<title>Node13</title>
<g id="a_node13"><a xlink:href="_o_m_sim_command_args_table_8hh.html" target="_top" xlink:title="Definition of the OMSimCommandArgsTable singleton class, which controls user args.">
<polygon fill="white" stroke="black" points="681.22,-123.5 681.22,-142.5 845.22,-142.5 845.22,-123.5 681.22,-123.5"/>
<text text-anchor="middle" x="763.22" y="-130.5" font-family="Helvetica,sans-Serif" font-size="10.00">OMSimCommandArgsTable.hh</text>
</a>
</g>
</g>
<!-- Node1&#45;&gt;Node13 -->
<g id="edge16" class="edge">
<title>Node1&#45;&gt;Node13</title>
<path fill="none" stroke="midnightblue" d="M1195.39,-182.82C1115.64,-173.81 950.19,-155.12 848.72,-143.66"/>
<polygon fill="midnightblue" stroke="midnightblue" points="848.83,-140.15 838.5,-142.5 848.04,-147.11 848.83,-140.15"/>
</g>
<!-- Node19 -->
<g id="node19" class="node">
<title>Node19</title>
<g id="a_node19"><a xlink:title=" ">
<polygon fill="white" stroke="#bfbfbf" points="863.72,-123.5 863.72,-142.5 936.72,-142.5 936.72,-123.5 863.72,-123.5"/>
<text text-anchor="middle" x="900.22" y="-130.5" font-family="Helvetica,sans-Serif" font-size="10.00">G4Event.hh</text>
</a>
</g>
</g>
<!-- Node1&#45;&gt;Node19 -->
<g id="edge23" class="edge">
<title>Node1&#45;&gt;Node19</title>
<path fill="none" stroke="midnightblue" d="M1195.64,-181.65C1139.58,-173.71 1041.27,-159.35 946.86,-143.05"/>
<polygon fill="midnightblue" stroke="midnightblue" points="947.3,-139.57 936.85,-141.31 946.1,-146.47 947.3,-139.57"/>
</g>
<!-- Node20 -->
<g id="node20" class="node">
<title>Node20</title>
<g id="a_node20"><a xlink:title=" ">
<polygon fill="white" stroke="#bfbfbf" points="955.22,-123.5 955.22,-142.5 1107.22,-142.5 1107.22,-123.5 955.22,-123.5"/>
<text text-anchor="middle" x="1031.22" y="-130.5" font-family="Helvetica,sans-Serif" font-size="10.00">G4GeneralParticleSource.hh</text>
</a>
</g>
</g>
<!-- Node1&#45;&gt;Node20 -->
<g id="edge24" class="edge">
<title>Node1&#45;&gt;Node20</title>
<path fill="none" stroke="midnightblue" d="M1207.94,-179.44C1171.77,-170.14 1113.84,-155.25 1074.24,-145.06"/>
<polygon fill="midnightblue" stroke="midnightblue" points="1074.89,-141.62 1064.34,-142.52 1073.15,-148.4 1074.89,-141.62"/>
</g>
<!-- Node21 -->
<g id="node21" class="node">
<title>Node21</title>
<g id="a_node21"><a xlink:title=" ">
<polygon fill="white" stroke="#bfbfbf" points="1125.72,-123.5 1125.72,-142.5 1234.72,-142.5 1234.72,-123.5 1125.72,-123.5"/>
<text text-anchor="middle" x="1180.22" y="-130.5" font-family="Helvetica,sans-Serif" font-size="10.00">G4ParticleTypes.hh</text>
</a>
</g>
</g>
<!-- Node1&#45;&gt;Node21 -->
<g id="edge25" class="edge">
<title>Node1&#45;&gt;Node21</title>
<path fill="none" stroke="midnightblue" d="M1231.42,-179.32C1222.4,-171.34 1208.81,-159.31 1197.9,-149.65"/>
<polygon fill="midnightblue" stroke="midnightblue" points="1200,-146.84 1190.2,-142.83 1195.36,-152.08 1200,-146.84"/>
</g>
<!-- Node22 -->
<g id="node22" class="node">
<title>Node22</title>
<g id="a_node22"><a xlink:title=" ">
<polygon fill="white" stroke="#bfbfbf" points="1252.72,-123.5 1252.72,-142.5 1353.72,-142.5 1353.72,-123.5 1252.72,-123.5"/>
<text text-anchor="middle" x="1303.22" y="-130.5" font-family="Helvetica,sans-Serif" font-size="10.00">G4ParticleGun.hh</text>
</a>
</g>
</g>
<!-- Node1&#45;&gt;Node22 -->
<g id="edge26" class="edge">
<title>Node1&#45;&gt;Node22</title>
<path fill="none" stroke="midnightblue" d="M1251.18,-179.32C1260.34,-171.34 1274.15,-159.31 1285.25,-149.65"/>
<polygon fill="midnightblue" stroke="midnightblue" points="1287.83,-152.04 1293.08,-142.83 1283.24,-146.76 1287.83,-152.04"/>
</g>
<!-- Node23 -->
<g id="node23" class="node">
<title>Node23</title>
<g id="a_node23"><a xlink:title=" ">
<polygon fill="white" stroke="#bfbfbf" points="1371.72,-123.5 1371.72,-142.5 1478.72,-142.5 1478.72,-123.5 1371.72,-123.5"/>
<text text-anchor="middle" x="1425.22" y="-130.5" font-family="Helvetica,sans-Serif" font-size="10.00">G4ParticleTable.hh</text>
</a>
</g>
</g>
<!-- Node1&#45;&gt;Node23 -->
<g id="edge27" class="edge">
<title>Node1&#45;&gt;Node23</title>
<path fill="none" stroke="midnightblue" d="M1270.37,-179.44C1301.73,-170.24 1351.75,-155.56 1386.41,-145.39"/>
<polygon fill="midnightblue" stroke="midnightblue" points="1387.59,-148.69 1396.2,-142.52 1385.62,-141.97 1387.59,-148.69"/>
</g>
<!-- Node24 -->
<g id="node24" class="node">
<title>Node24</title>
<g id="a_node24"><a xlink:title=" ">
<polygon fill="white" stroke="#bfbfbf" points="1497.22,-123.5 1497.22,-142.5 1625.22,-142.5 1625.22,-123.5 1497.22,-123.5"/>
<text text-anchor="middle" x="1561.22" y="-130.5" font-family="Helvetica,sans-Serif" font-size="10.00">G4ParticleDefinition.hh</text>
</a>
</g>
</g>
<!-- Node1&#45;&gt;Node24 -->
<g id="edge28" class="edge">
<title>Node1&#45;&gt;Node24</title>
<path fill="none" stroke="midnightblue" d="M1286.73,-180.32C1342.79,-170.86 1438.24,-154.75 1500.51,-144.24"/>
<polygon fill="midnightblue" stroke="midnightblue" points="1501.31,-147.66 1510.59,-142.54 1500.14,-140.76 1501.31,-147.66"/>
</g>
<!-- Node25 -->
<g id="node25" class="node">
<title>Node25</title>
<g id="a_node25"><a xlink:title=" ">
<polygon fill="white" stroke="#bfbfbf" points="1643.22,-123.5 1643.22,-142.5 1777.22,-142.5 1777.22,-123.5 1643.22,-123.5"/>
<text text-anchor="middle" x="1710.22" y="-130.5" font-family="Helvetica,sans-Serif" font-size="10.00">G4PhysicalConstants.hh</text>
</a>
</g>
</g>
<!-- Node1&#45;&gt;Node25 -->
<g id="edge29" class="edge">
<title>Node1&#45;&gt;Node25</title>
<path fill="none" stroke="midnightblue" d="M1286.91,-182.83C1358.33,-174.73 1501.05,-158.49 1632.81,-143.16"/>
<polygon fill="midnightblue" stroke="midnightblue" points="1633.55,-146.6 1643.08,-141.96 1632.74,-139.64 1633.55,-146.6"/>
</g>
<!-- Node26 -->
<g id="node26" class="node">
<title>Node26</title>
<g id="a_node26"><a xlink:title=" ">
<polygon fill="white" stroke="#bfbfbf" points="1713.72,-62 1713.72,-81 1832.72,-81 1832.72,-62 1713.72,-62"/>
<text text-anchor="middle" x="1773.22" y="-69" font-family="Helvetica,sans-Serif" font-size="10.00">G4SystemOfUnits.hh</text>
</a>
</g>
</g>
<!-- Node1&#45;&gt;Node26 -->
<g id="edge30" class="edge">
<title>Node1&#45;&gt;Node26</title>
<path fill="none" stroke="midnightblue" d="M1287.08,-187.69C1412.26,-186.36 1752.7,-179.4 1786.22,-143 1799.34,-128.75 1791.7,-105.75 1783.69,-89.93"/>
<polygon fill="midnightblue" stroke="midnightblue" points="1786.73,-88.2 1778.84,-81.14 1780.6,-91.58 1786.73,-88.2"/>
</g>
<!-- Node27 -->
<g id="node27" class="node">
<title>Node27</title>
<g id="a_node27"><a xlink:title=" ">
<polygon fill="white" stroke="#bfbfbf" points="1967.22,-123.5 1967.22,-142.5 2053.22,-142.5 2053.22,-123.5 1967.22,-123.5"/>
<text text-anchor="middle" x="2010.22" y="-130.5" font-family="Helvetica,sans-Serif" font-size="10.00">Randomize.hh</text>
</a>
</g>
</g>
<!-- Node1&#45;&gt;Node27 -->
<g id="edge31" class="edge">
<title>Node1&#45;&gt;Node27</title>
<path fill="none" stroke="midnightblue" d="M1287.09,-186.85C1399.56,-183.66 1698.12,-172.95 1957.17,-142.99"/>
<polygon fill="midnightblue" stroke="midnightblue" points="1957.61,-146.46 1967.14,-141.83 1956.8,-139.51 1957.61,-146.46"/>
</g>
<!-- Node28 -->
<g id="node28" class="node">
<title>Node28</title>
<g id="a_node28"><a xlink:href="_o_m_sim_input_data_8hh.html" target="_top" xlink:title="Input data from external files are read and saved to memory.">
<polygon fill="white" stroke="black" points="1833.72,-123.5 1833.72,-142.5 1948.72,-142.5 1948.72,-123.5 1833.72,-123.5"/>
<text text-anchor="middle" x="1891.22" y="-130.5" font-family="Helvetica,sans-Serif" font-size="10.00">OMSimInputData.hh</text>
</a>
</g>
</g>
<!-- Node1&#45;&gt;Node28 -->
<g id="edge33" class="edge">
<title>Node1&#45;&gt;Node28</title>
<path fill="none" stroke="midnightblue" d="M1286.99,-185.17C1384.81,-178.95 1621.45,-163.05 1819.22,-143 1820.52,-142.87 1821.84,-142.73 1823.17,-142.59"/>
<polygon fill="midnightblue" stroke="midnightblue" points="1823.92,-146.03 1833.48,-141.46 1823.15,-139.07 1823.92,-146.03"/>
</g>
<!-- Node3 -->
<g id="node3" class="node">
<title>Node3</title>
<g id="a_node3"><a xlink:title=" ">
<polygon fill="white" stroke="#bfbfbf" points="15.22,-62 15.22,-81 207.22,-81 207.22,-62 15.22,-62"/>
<text text-anchor="middle" x="111.22" y="-69" font-family="Helvetica,sans-Serif" font-size="10.00">G4VUserPrimaryGeneratorAction.hh</text>
</a>
</g>
</g>
<!-- Node2&#45;&gt;Node3 -->
<g id="edge2" class="edge">
<title>Node2&#45;&gt;Node3</title>
<path fill="none" stroke="midnightblue" d="M217.45,-123.48C196.73,-113.53 162.27,-96.99 138.23,-85.46"/>
<polygon fill="midnightblue" stroke="midnightblue" points="139.48,-82.18 128.95,-81.01 136.45,-88.49 139.48,-82.18"/>
</g>
<!-- Node4 -->
<g id="node4" class="node">
<title>Node4</title>
<g id="a_node4"><a xlink:title=" ">
<polygon fill="white" stroke="#bfbfbf" points="80.72,-0.5 80.72,-19.5 147.72,-19.5 147.72,-0.5 80.72,-0.5"/>
<text text-anchor="middle" x="114.22" y="-7.5" font-family="Helvetica,sans-Serif" font-size="10.00">globals.hh</text>
</a>
</g>
</g>
<!-- Node2&#45;&gt;Node4 -->
<g id="edge3" class="edge">
<title>Node2&#45;&gt;Node4</title>
<path fill="none" stroke="midnightblue" d="M189,-129.65C128.9,-125.51 28.9,-114.57 6.22,-87 -2.54,-76.36 -1.42,-67.46 6.22,-56 20.55,-34.51 47.29,-23.26 70.58,-17.39"/>
<polygon fill="midnightblue" stroke="midnightblue" points="71.66,-20.73 80.64,-15.12 70.12,-13.9 71.66,-20.73"/>
</g>
<!-- Node5 -->
<g id="node5" class="node">
<title>Node5</title>
<g id="a_node5"><a xlink:title=" ">
<polygon fill="white" stroke="#bfbfbf" points="292.72,-0.5 292.72,-19.5 339.72,-19.5 339.72,-0.5 292.72,-0.5"/>
<text text-anchor="middle" x="316.22" y="-7.5" font-family="Helvetica,sans-Serif" font-size="10.00">vector</text>
</a>
</g>
</g>
<!-- Node2&#45;&gt;Node5 -->
<g id="edge4" class="edge">
<title>Node2&#45;&gt;Node5</title>
<path fill="none" stroke="midnightblue" d="M235.5,-123.25C236.37,-108.24 239.91,-77.19 254.22,-56 263.08,-42.87 277.12,-32.22 289.59,-24.58"/>
<polygon fill="midnightblue" stroke="midnightblue" points="291.39,-27.59 298.31,-19.56 287.89,-21.52 291.39,-27.59"/>
</g>
<!-- Node2&#45;&gt;Node6 -->
<g id="edge5" class="edge">
<title>Node2&#45;&gt;Node6</title>
<path fill="none" stroke="midnightblue" d="M246.82,-123.48C259.69,-114.02 280.69,-98.6 296.22,-87.19"/>
<polygon fill="midnightblue" stroke="midnightblue" points="298.65,-89.75 304.63,-81.01 294.5,-84.11 298.65,-89.75"/>
</g>
<!-- Node6&#45;&gt;Node4 -->
<g id="edge6" class="edge">
<title>Node6&#45;&gt;Node4</title>
<path fill="none" stroke="midnightblue" d="M287.28,-61.98C251.95,-51.57 192.09,-33.94 152.85,-22.38"/>
<polygon fill="midnightblue" stroke="midnightblue" points="153.69,-18.98 143.11,-19.51 151.71,-25.69 153.69,-18.98"/>
</g>
<!-- Node6&#45;&gt;Node5 -->
<g id="edge7" class="edge">
<title>Node6&#45;&gt;Node5</title>
<path fill="none" stroke="midnightblue" d="M316.22,-61.98C316.22,-53.58 316.22,-40.48 316.22,-29.66"/>
<polygon fill="midnightblue" stroke="midnightblue" points="319.72,-29.51 316.22,-19.51 312.72,-29.51 319.72,-29.51"/>
</g>
<!-- Node7 -->
<g id="node7" class="node">
<title>Node7</title>
<g id="a_node7"><a xlink:title=" ">
<polygon fill="white" stroke="#bfbfbf" points="492.72,-0.5 492.72,-19.5 595.72,-19.5 595.72,-0.5 492.72,-0.5"/>
<text text-anchor="middle" x="544.22" y="-7.5" font-family="Helvetica,sans-Serif" font-size="10.00">G4ThreeVector.hh</text>
</a>
</g>
</g>
<!-- Node6&#45;&gt;Node7 -->
<g id="edge8" class="edge">
<title>Node6&#45;&gt;Node7</title>
<path fill="none" stroke="midnightblue" d="M348.88,-61.98C389.1,-51.48 457.48,-33.64 501.73,-22.09"/>
<polygon fill="midnightblue" stroke="midnightblue" points="502.82,-25.42 511.61,-19.51 501.05,-18.65 502.82,-25.42"/>
</g>
<!-- Node8&#45;&gt;Node5 -->
<g id="edge13" class="edge">
<title>Node8&#45;&gt;Node5</title>
<path fill="none" stroke="midnightblue" d="M540.88,-124.03C503.48,-117.53 455.47,-106.18 416.22,-87 396.32,-77.28 394.8,-69.46 377.22,-56 363.73,-45.67 348.33,-34.32 336.38,-25.6"/>
<polygon fill="midnightblue" stroke="midnightblue" points="338.15,-22.55 328.01,-19.5 334.03,-28.22 338.15,-22.55"/>
</g>
<!-- Node8&#45;&gt;Node7 -->
<g id="edge12" class="edge">
<title>Node8&#45;&gt;Node7</title>
<path fill="none" stroke="midnightblue" d="M620.3,-123.39C633.78,-115.87 651.19,-103.57 659.22,-87 665.23,-74.6 666.98,-67.38 659.22,-56 646.91,-37.96 626.18,-27.15 605.69,-20.68"/>
<polygon fill="midnightblue" stroke="midnightblue" points="606.59,-17.29 596.01,-17.92 604.67,-24.02 606.59,-17.29"/>
</g>
<!-- Node9 -->
<g id="node9" class="node">
<title>Node9</title>
<g id="a_node9"><a xlink:title=" ">
<polygon fill="white" stroke="#bfbfbf" points="425.72,-62 425.72,-81 498.72,-81 498.72,-62 425.72,-62"/>
<text text-anchor="middle" x="462.22" y="-69" font-family="Helvetica,sans-Serif" font-size="10.00">G4Types.hh</text>
</a>
</g>
</g>
<!-- Node8&#45;&gt;Node9 -->
<g id="edge10" class="edge">
<title>Node8&#45;&gt;Node9</title>
<path fill="none" stroke="midnightblue" d="M582.16,-123.48C558.46,-113.4 518.81,-96.55 491.63,-85"/>
<polygon fill="midnightblue" stroke="midnightblue" points="492.81,-81.7 482.24,-81.01 490.07,-88.14 492.81,-81.7"/>
</g>
<!-- Node10 -->
<g id="node10" class="node">
<title>Node10</title>
<g id="a_node10"><a xlink:title=" ">
<polygon fill="white" stroke="#bfbfbf" points="517.22,-62 517.22,-81 591.22,-81 591.22,-62 517.22,-62"/>
<text text-anchor="middle" x="554.22" y="-69" font-family="Helvetica,sans-Serif" font-size="10.00">G4String.hh</text>
</a>
</g>
</g>
<!-- Node8&#45;&gt;Node10 -->
<g id="edge11" class="edge">
<title>Node8&#45;&gt;Node10</title>
<path fill="none" stroke="midnightblue" d="M595.34,-123.48C588.07,-114.46 576.42,-100.02 567.38,-88.81"/>
<polygon fill="midnightblue" stroke="midnightblue" points="570.09,-86.59 561.08,-81.01 564.64,-90.99 570.09,-86.59"/>
</g>
<!-- Node11 -->
<g id="node11" class="node">
<title>Node11</title>
<g id="a_node11"><a xlink:title=" ">
<polygon fill="white" stroke="#bfbfbf" points="707.72,-62 707.72,-81 762.72,-81 762.72,-62 707.72,-62"/>
<text text-anchor="middle" x="735.22" y="-69" font-family="Helvetica,sans-Serif" font-size="10.00">fstream</text>
</a>
</g>
</g>
<!-- Node8&#45;&gt;Node11 -->
<g id="edge14" class="edge">
<title>Node8&#45;&gt;Node11</title>
<path fill="none" stroke="midnightblue" d="M621.27,-123.48C643.69,-113.45 681.12,-96.7 706.93,-85.15"/>
<polygon fill="midnightblue" stroke="midnightblue" points="708.5,-88.29 716.2,-81.01 705.64,-81.9 708.5,-88.29"/>
</g>
<!-- Node12 -->
<g id="node12" class="node">
<title>Node12</title>
<g id="a_node12"><a xlink:title=" ">
<polygon fill="white" stroke="#bfbfbf" points="609.72,-62 609.72,-81 650.72,-81 650.72,-62 609.72,-62"/>
<text text-anchor="middle" x="630.22" y="-69" font-family="Helvetica,sans-Serif" font-size="10.00">tuple</text>
</a>
</g>
</g>
<!-- Node8&#45;&gt;Node12 -->
<g id="edge15" class="edge">
<title>Node8&#45;&gt;Node12</title>
<path fill="none" stroke="midnightblue" d="M606.23,-123.48C610.3,-114.82 616.74,-101.15 621.91,-90.15"/>
<polygon fill="midnightblue" stroke="midnightblue" points="625.12,-91.55 626.21,-81.01 618.79,-88.57 625.12,-91.55"/>
</g>
<!-- Node13&#45;&gt;Node11 -->
<g id="edge20" class="edge">
<title>Node13&#45;&gt;Node11</title>
<path fill="none" stroke="midnightblue" d="M759.21,-123.48C755.13,-114.82 748.7,-101.15 743.52,-90.15"/>
<polygon fill="midnightblue" stroke="midnightblue" points="746.65,-88.57 739.22,-81.01 740.31,-91.55 746.65,-88.57"/>
</g>
<!-- Node14 -->
<g id="node14" class="node">
<title>Node14</title>
<g id="a_node14"><a xlink:href="_o_m_sim_logger_8hh.html" target="_top" xlink:title=" ">
<polygon fill="white" stroke="black" points="867.72,-62 867.72,-81 966.72,-81 966.72,-62 867.72,-62"/>
<text text-anchor="middle" x="917.22" y="-69" font-family="Helvetica,sans-Serif" font-size="10.00">OMSimLogger.hh</text>
</a>
</g>
</g>
<!-- Node13&#45;&gt;Node14 -->
<g id="edge17" class="edge">
<title>Node13&#45;&gt;Node14</title>
<path fill="none" stroke="midnightblue" d="M785.28,-123.48C811.58,-113.31 855.73,-96.26 885.64,-84.7"/>
<polygon fill="midnightblue" stroke="midnightblue" points="887.13,-87.88 895.19,-81.01 884.6,-81.35 887.13,-87.88"/>
</g>
<!-- Node17 -->
<g id="node17" class="node">
<title>Node17</title>
<g id="a_node17"><a xlink:title=" ">
<polygon fill="white" stroke="#bfbfbf" points="985.22,-62 985.22,-81 1069.22,-81 1069.22,-62 985.22,-62"/>
<text text-anchor="middle" x="1027.22" y="-69" font-family="Helvetica,sans-Serif" font-size="10.00">boost/any.hpp</text>
</a>
</g>
</g>
<!-- Node13&#45;&gt;Node17 -->
<g id="edge21" class="edge">
<title>Node13&#45;&gt;Node17</title>
<path fill="none" stroke="midnightblue" d="M807.25,-123.49C850.26,-114.98 917.48,-101.16 975.22,-87 979.36,-85.98 983.68,-84.87 987.98,-83.72"/>
<polygon fill="midnightblue" stroke="midnightblue" points="989.15,-87.03 997.88,-81.03 987.31,-80.28 989.15,-87.03"/>
</g>
<!-- Node18 -->
<g id="node18" class="node">
<title>Node18</title>
<g id="a_node18"><a xlink:title=" ">
<polygon fill="white" stroke="#bfbfbf" points="781.22,-62 781.22,-81 849.22,-81 849.22,-62 781.22,-62"/>
<text text-anchor="middle" x="815.22" y="-69" font-family="Helvetica,sans-Serif" font-size="10.00">sys/time.h</text>
</a>
</g>
</g>
<!-- Node13&#45;&gt;Node18 -->
<g id="edge22" class="edge">
<title>Node13&#45;&gt;Node18</title>
<path fill="none" stroke="midnightblue" d="M770.67,-123.48C778.55,-114.46 791.16,-100.02 800.96,-88.81"/>
<polygon fill="midnightblue" stroke="midnightblue" points="803.84,-90.84 807.78,-81.01 798.57,-86.24 803.84,-90.84"/>
</g>
<!-- Node15 -->
<g id="node15" class="node">
<title>Node15</title>
<g id="a_node15"><a xlink:title=" ">
<polygon fill="white" stroke="#bfbfbf" points="858.22,-0.5 858.22,-19.5 908.22,-19.5 908.22,-0.5 858.22,-0.5"/>
<text text-anchor="middle" x="883.22" y="-7.5" font-family="Helvetica,sans-Serif" font-size="10.00">stdio.h</text>
</a>
</g>
</g>
<!-- Node14&#45;&gt;Node15 -->
<g id="edge18" class="edge">
<title>Node14&#45;&gt;Node15</title>
<path fill="none" stroke="midnightblue" d="M912.35,-61.98C907.35,-53.23 899.43,-39.37 893.11,-28.31"/>
<polygon fill="midnightblue" stroke="midnightblue" points="896.08,-26.46 888.08,-19.51 890,-29.93 896.08,-26.46"/>
</g>
<!-- Node16 -->
<g id="node16" class="node">
<title>Node16</title>
<g id="a_node16"><a xlink:title=" ">
<polygon fill="white" stroke="#bfbfbf" points="926.22,-0.5 926.22,-19.5 974.22,-19.5 974.22,-0.5 926.22,-0.5"/>
<text text-anchor="middle" x="950.22" y="-7.5" font-family="Helvetica,sans-Serif" font-size="10.00">time.h</text>
</a>
</g>
</g>
<!-- Node14&#45;&gt;Node16 -->
<g id="edge19" class="edge">
<title>Node14&#45;&gt;Node16</title>
<path fill="none" stroke="midnightblue" d="M921.95,-61.98C926.8,-53.23 934.48,-39.37 940.62,-28.31"/>
<polygon fill="midnightblue" stroke="midnightblue" points="943.71,-29.95 945.5,-19.51 937.59,-26.56 943.71,-29.95"/>
</g>
<!-- Node28&#45;&gt;Node26 -->
<g id="edge35" class="edge">
<title>Node28&#45;&gt;Node26</title>
<path fill="none" stroke="midnightblue" d="M1874.31,-123.48C1854.68,-113.58 1822.09,-97.14 1799.23,-85.62"/>
<polygon fill="midnightblue" stroke="midnightblue" points="1800.6,-82.39 1790.09,-81.01 1797.45,-88.64 1800.6,-82.39"/>
</g>
<!-- Node29 -->
<g id="node29" class="node">
<title>Node29</title>
<g id="a_node29"><a xlink:title=" ">
<polygon fill="white" stroke="#bfbfbf" points="1850.72,-62 1850.72,-81 1993.72,-81 1993.72,-62 1850.72,-62"/>
<text text-anchor="middle" x="1922.22" y="-69" font-family="Helvetica,sans-Serif" font-size="10.00">G4OpBoundaryProcess.hh</text>
</a>
</g>
</g>
<!-- Node28&#45;&gt;Node29 -->
<g id="edge34" class="edge">
<title>Node28&#45;&gt;Node29</title>
<path fill="none" stroke="midnightblue" d="M1895.66,-123.48C1900.17,-114.82 1907.29,-101.15 1913.02,-90.15"/>
<polygon fill="midnightblue" stroke="midnightblue" points="1916.27,-91.49 1917.78,-81.01 1910.06,-88.26 1916.27,-91.49"/>
</g>
<!-- Node30 -->
<g id="node30" class="node">
<title>Node30</title>
<g id="a_node30"><a xlink:title=" ">
<polygon fill="white" stroke="#bfbfbf" points="2011.72,-56.5 2011.72,-86.5 2124.72,-86.5 2124.72,-56.5 2011.72,-56.5"/>
<text text-anchor="start" x="2019.72" y="-74.5" font-family="Helvetica,sans-Serif" font-size="10.00">boost/property_tree</text>
<text text-anchor="middle" x="2068.22" y="-63.5" font-family="Helvetica,sans-Serif" font-size="10.00">/json_parser.hpp</text>
</a>
</g>
</g>
<!-- Node28&#45;&gt;Node30 -->
<g id="edge36" class="edge">
<title>Node28&#45;&gt;Node30</title>
<path fill="none" stroke="midnightblue" d="M1916.58,-123.48C1942.68,-114.7 1984.07,-100.79 2017.01,-89.71"/>
<polygon fill="midnightblue" stroke="midnightblue" points="2018.14,-93.03 2026.5,-86.52 2015.91,-86.39 2018.14,-93.03"/>
</g>
</g>
</svg>
