<?xml version="1.0" encoding="UTF-8" standalone="no"?>
<!DOCTYPE svg PUBLIC "-//W3C//DTD SVG 1.1//EN"
 "http://www.w3.org/Graphics/SVG/1.1/DTD/svg11.dtd">
<!-- Generated by graphviz version 2.43.0 (0)
 -->
<!-- Title: /home/runner/work/OMSim/OMSim/common/include/OMSimPMTConstruction.hh Pages: 1 -->
<svg width="2319pt" height="284pt"
 viewBox="0.00 0.00 2319.00 284.00" xmlns="http://www.w3.org/2000/svg" xmlns:xlink="http://www.w3.org/1999/xlink">
<g id="graph0" class="graph" transform="scale(1 1) rotate(0) translate(4 280)">
<title>/home/runner/work/OMSim/OMSim/common/include/OMSimPMTConstruction.hh</title>
<polygon fill="white" stroke="transparent" points="-4,4 -4,-280 2315,-280 2315,4 -4,4"/>
<!-- Node1 -->
<g id="node1" class="node">
<title>Node1</title>
<g id="a_node1"><a xlink:title=" ">
<polygon fill="#bfbfbf" stroke="black" points="1421,-234.5 1421,-275.5 1573,-275.5 1573,-234.5 1421,-234.5"/>
<text text-anchor="start" x="1429" y="-263.5" font-family="Helvetica,sans-Serif" font-size="10.00">/home/runner/work/OMSim</text>
<text text-anchor="start" x="1429" y="-252.5" font-family="Helvetica,sans-Serif" font-size="10.00">/OMSim/common/include</text>
<text text-anchor="middle" x="1497" y="-241.5" font-family="Helvetica,sans-Serif" font-size="10.00">/OMSimPMTConstruction.hh</text>
</a>
</g>
</g>
<!-- Node2 -->
<g id="node2" class="node">
<title>Node2</title>
<g id="a_node2"><a xlink:href="_o_m_sim_d_e_g_g_8hh.html" target="_top" xlink:title=" ">
<polygon fill="white" stroke="black" points="335.5,-156.5 335.5,-197.5 482.5,-197.5 482.5,-156.5 335.5,-156.5"/>
<text text-anchor="start" x="343.5" y="-185.5" font-family="Helvetica,sans-Serif" font-size="10.00">/home/runner/work/OMSim</text>
<text text-anchor="start" x="343.5" y="-174.5" font-family="Helvetica,sans-Serif" font-size="10.00">/OMSim/common/include</text>
<text text-anchor="middle" x="409" y="-163.5" font-family="Helvetica,sans-Serif" font-size="10.00">/OMSimDEGG.hh</text>
</a>
</g>
</g>
<!-- Node1&#45;&gt;Node2 -->
<g id="edge1" class="edge">
<title>Node1&#45;&gt;Node2</title>
<path fill="none" stroke="midnightblue" d="M1410.87,-250.71C1246.54,-244.01 876.98,-226.92 567,-198 539.47,-195.43 509.34,-191.82 482.84,-188.37"/>
<polygon fill="midnightblue" stroke="midnightblue" points="1410.79,-254.21 1420.92,-251.12 1411.07,-247.21 1410.79,-254.21"/>
</g>
<!-- Node5 -->
<g id="node5" class="node">
<title>Node5</title>
<g id="a_node5"><a xlink:href="_o_m_sim_detector_construction_8cc.html" target="_top" xlink:title="User defined detector.">
<polygon fill="white" stroke="black" points="944.5,-0.5 944.5,-41.5 1133.5,-41.5 1133.5,-0.5 944.5,-0.5"/>
<text text-anchor="start" x="952.5" y="-29.5" font-family="Helvetica,sans-Serif" font-size="10.00">/home/runner/work/OMSim</text>
<text text-anchor="start" x="952.5" y="-18.5" font-family="Helvetica,sans-Serif" font-size="10.00">/OMSim/effective_area</text>
<text text-anchor="middle" x="1039" y="-7.5" font-family="Helvetica,sans-Serif" font-size="10.00">/src/OMSimDetectorConstruction.cc</text>
</a>
</g>
</g>
<!-- Node1&#45;&gt;Node5 -->
<g id="edge26" class="edge">
<title>Node1&#45;&gt;Node5</title>
<path fill="none" stroke="midnightblue" d="M1410.55,-253C1310.18,-246.9 1146.94,-220.82 1057,-120 1037.88,-98.57 1035.99,-63.73 1037.02,-41.88"/>
<polygon fill="midnightblue" stroke="midnightblue" points="1410.49,-256.51 1420.66,-253.56 1410.87,-249.52 1410.49,-256.51"/>
</g>
<!-- Node6 -->
<g id="node6" class="node">
<title>Node6</title>
<g id="a_node6"><a xlink:href="_o_m_sim_l_o_m16_8hh.html" target="_top" xlink:title=" ">
<polygon fill="white" stroke="black" points="576.5,-156.5 576.5,-197.5 723.5,-197.5 723.5,-156.5 576.5,-156.5"/>
<text text-anchor="start" x="584.5" y="-185.5" font-family="Helvetica,sans-Serif" font-size="10.00">/home/runner/work/OMSim</text>
<text text-anchor="start" x="584.5" y="-174.5" font-family="Helvetica,sans-Serif" font-size="10.00">/OMSim/common/include</text>
<text text-anchor="middle" x="650" y="-163.5" font-family="Helvetica,sans-Serif" font-size="10.00">/OMSimLOM16.hh</text>
</a>
</g>
</g>
<!-- Node1&#45;&gt;Node6 -->
<g id="edge5" class="edge">
<title>Node1&#45;&gt;Node6</title>
<path fill="none" stroke="midnightblue" d="M1410.61,-246.78C1287.16,-236.38 1053.15,-216.43 854,-198 810.77,-194 762.41,-189.27 723.63,-185.41"/>
<polygon fill="midnightblue" stroke="midnightblue" points="1410.5,-250.28 1420.76,-247.63 1411.09,-243.3 1410.5,-250.28"/>
</g>
<!-- Node8 -->
<g id="node8" class="node">
<title>Node8</title>
<g id="a_node8"><a xlink:href="_o_m_sim_l_o_m18_8hh.html" target="_top" xlink:title=" ">
<polygon fill="white" stroke="black" points="863.5,-156.5 863.5,-197.5 1010.5,-197.5 1010.5,-156.5 863.5,-156.5"/>
<text text-anchor="start" x="871.5" y="-185.5" font-family="Helvetica,sans-Serif" font-size="10.00">/home/runner/work/OMSim</text>
<text text-anchor="start" x="871.5" y="-174.5" font-family="Helvetica,sans-Serif" font-size="10.00">/OMSim/common/include</text>
<text text-anchor="middle" x="937" y="-163.5" font-family="Helvetica,sans-Serif" font-size="10.00">/OMSimLOM18.hh</text>
</a>
</g>
</g>
<!-- Node1&#45;&gt;Node8 -->
<g id="edge8" class="edge">
<title>Node1&#45;&gt;Node8</title>
<path fill="none" stroke="midnightblue" d="M1410.49,-246.49C1315.53,-237.62 1158.77,-221.07 1025,-198 1020.37,-197.2 1015.61,-196.31 1010.83,-195.37"/>
<polygon fill="midnightblue" stroke="midnightblue" points="1410.34,-250 1420.62,-247.43 1410.98,-243.03 1410.34,-250"/>
</g>
<!-- Node10 -->
<g id="node10" class="node">
<title>Node10</title>
<g id="a_node10"><a xlink:href="_o_m_sim_m_d_o_m_8hh.html" target="_top" xlink:title=" ">
<polygon fill="white" stroke="black" points="1372.5,-156.5 1372.5,-197.5 1519.5,-197.5 1519.5,-156.5 1372.5,-156.5"/>
<text text-anchor="start" x="1380.5" y="-185.5" font-family="Helvetica,sans-Serif" font-size="10.00">/home/runner/work/OMSim</text>
<text text-anchor="start" x="1380.5" y="-174.5" font-family="Helvetica,sans-Serif" font-size="10.00">/OMSim/common/include</text>
<text text-anchor="middle" x="1446" y="-163.5" font-family="Helvetica,sans-Serif" font-size="10.00">/OMSimMDOM.hh</text>
</a>
</g>
</g>
<!-- Node1&#45;&gt;Node10 -->
<g id="edge11" class="edge">
<title>Node1&#45;&gt;Node10</title>
<path fill="none" stroke="midnightblue" d="M1478.24,-226.05C1471.88,-216.57 1464.91,-206.18 1459.09,-197.51"/>
<polygon fill="midnightblue" stroke="midnightblue" points="1475.39,-228.07 1483.87,-234.43 1481.2,-224.17 1475.39,-228.07"/>
</g>
<!-- Node14 -->
<g id="node14" class="node">
<title>Node14</title>
<g id="a_node14"><a xlink:href="_o_m_sim_detector_construction_8hh.html" target="_top" xlink:title=" ">
<polygon fill="white" stroke="black" points="1843,-78.5 1843,-119.5 2055,-119.5 2055,-78.5 1843,-78.5"/>
<text text-anchor="start" x="1851" y="-107.5" font-family="Helvetica,sans-Serif" font-size="10.00">/home/runner/work/OMSim</text>
<text text-anchor="start" x="1851" y="-96.5" font-family="Helvetica,sans-Serif" font-size="10.00">/OMSim/effective_area</text>
<text text-anchor="middle" x="1949" y="-85.5" font-family="Helvetica,sans-Serif" font-size="10.00">/include/OMSimDetectorConstruction.hh</text>
</a>
</g>
</g>
<!-- Node1&#45;&gt;Node14 -->
<g id="edge25" class="edge">
<title>Node1&#45;&gt;Node14</title>
<path fill="none" stroke="midnightblue" d="M1513.6,-225.82C1529.41,-200.01 1552.82,-164.54 1567,-156 1669.56,-94.2 1715.66,-138.26 1834,-120 1836.9,-119.55 1839.85,-119.09 1842.82,-118.62"/>
<polygon fill="midnightblue" stroke="midnightblue" points="1510.54,-224.12 1508.36,-234.49 1516.53,-227.75 1510.54,-224.12"/>
</g>
<!-- Node16 -->
<g id="node16" class="node">
<title>Node16</title>
<g id="a_node16"><a xlink:href="_o_m_sim_p_d_o_m_8hh.html" target="_top" xlink:title=" ">
<polygon fill="white" stroke="black" points="1576.5,-156.5 1576.5,-197.5 1723.5,-197.5 1723.5,-156.5 1576.5,-156.5"/>
<text text-anchor="start" x="1584.5" y="-185.5" font-family="Helvetica,sans-Serif" font-size="10.00">/home/runner/work/OMSim</text>
<text text-anchor="start" x="1584.5" y="-174.5" font-family="Helvetica,sans-Serif" font-size="10.00">/OMSim/common/include</text>
<text text-anchor="middle" x="1650" y="-163.5" font-family="Helvetica,sans-Serif" font-size="10.00">/OMSimPDOM.hh</text>
</a>
</g>
</g>
<!-- Node1&#45;&gt;Node16 -->
<g id="edge19" class="edge">
<title>Node1&#45;&gt;Node16</title>
<path fill="none" stroke="midnightblue" d="M1545.5,-229.91C1566.54,-219.46 1590.85,-207.38 1610.73,-197.51"/>
<polygon fill="midnightblue" stroke="midnightblue" points="1543.8,-226.84 1536.4,-234.43 1546.91,-233.11 1543.8,-226.84"/>
</g>
<!-- Node17 -->
<g id="node17" class="node">
<title>Node17</title>
<g id="a_node17"><a xlink:href="_o_m_sim_p_d_o_m_8cc.html" target="_top" xlink:title="Implementation of the pDOM/Gen1 DOM class.">
<polygon fill="white" stroke="black" points="2111,-84 2111,-114 2311,-114 2311,-84 2111,-84"/>
<text text-anchor="start" x="2119" y="-102" font-family="Helvetica,sans-Serif" font-size="10.00">/home/runner/work/OMSim</text>
<text text-anchor="middle" x="2211" y="-91" font-family="Helvetica,sans-Serif" font-size="10.00">/OMSim/common/src/OMSimPDOM.cc</text>
</a>
</g>
</g>
<!-- Node1&#45;&gt;Node17 -->
<g id="edge23" class="edge">
<title>Node1&#45;&gt;Node17</title>
<path fill="none" stroke="midnightblue" d="M1583.21,-246.12C1630.09,-238.85 1687.58,-224.86 1733,-198 1754.67,-185.18 1748.6,-167.5 1771,-156 1897.15,-91.25 1947.54,-139.38 2088,-120 2100.97,-118.21 2114.67,-116.15 2128.05,-114.05"/>
<polygon fill="midnightblue" stroke="midnightblue" points="1582.46,-242.7 1573.08,-247.62 1583.48,-249.62 1582.46,-242.7"/>
</g>
<!-- Node18 -->
<g id="node18" class="node">
<title>Node18</title>
<g id="a_node18"><a xlink:href="abc_detector_component_8cc.html" target="_top" xlink:title="Contains the implementation of the abcDetectorComponent class.">
<polygon fill="white" stroke="black" points="1780,-156.5 1780,-197.5 1960,-197.5 1960,-156.5 1780,-156.5"/>
<text text-anchor="start" x="1788" y="-185.5" font-family="Helvetica,sans-Serif" font-size="10.00">/home/runner/work/OMSim</text>
<text text-anchor="start" x="1788" y="-174.5" font-family="Helvetica,sans-Serif" font-size="10.00">/OMSim/common/src/abcDetector</text>
<text text-anchor="middle" x="1870" y="-163.5" font-family="Helvetica,sans-Serif" font-size="10.00">Component.cc</text>
</a>
</g>
</g>
<!-- Node1&#45;&gt;Node18 -->
<g id="edge22" class="edge">
<title>Node1&#45;&gt;Node18</title>
<path fill="none" stroke="midnightblue" d="M1583.41,-236.39C1642.35,-224.39 1720.22,-208.52 1779.92,-196.35"/>
<polygon fill="midnightblue" stroke="midnightblue" points="1582.48,-233.01 1573.38,-238.44 1583.88,-239.87 1582.48,-233.01"/>
</g>
<!-- Node19 -->
<g id="node19" class="node">
<title>Node19</title>
<g id="a_node19"><a xlink:href="_o_m_sim_p_m_t_construction_8cc.html" target="_top" xlink:title="Construction of the PMTs.">
<polygon fill="white" stroke="black" points="1978.5,-162 1978.5,-192 2229.5,-192 2229.5,-162 1978.5,-162"/>
<text text-anchor="start" x="1986.5" y="-180" font-family="Helvetica,sans-Serif" font-size="10.00">/home/runner/work/OMSim</text>
<text text-anchor="middle" x="2104" y="-169" font-family="Helvetica,sans-Serif" font-size="10.00">/OMSim/common/src/OMSimPMTConstruction.cc</text>
</a>
</g>
</g>
<!-- Node1&#45;&gt;Node19 -->
<g id="edge24" class="edge">
<title>Node1&#45;&gt;Node19</title>
<path fill="none" stroke="midnightblue" d="M1583.21,-244.53C1677.91,-233.95 1834.44,-215.95 1969,-198 1982.86,-196.15 1997.5,-194.09 2011.82,-192.02"/>
<polygon fill="midnightblue" stroke="midnightblue" points="1582.66,-241.07 1573.11,-245.66 1583.44,-248.03 1582.66,-241.07"/>
</g>
<!-- Node3 -->
<g id="node3" class="node">
<title>Node3</title>
<g id="a_node3"><a xlink:href="_o_m_sim_d_e_g_g_8cc.html" target="_top" xlink:title="Construction of the DEGG class.">
<polygon fill="white" stroke="black" points="0,-84 0,-114 198,-114 198,-84 0,-84"/>
<text text-anchor="start" x="8" y="-102" font-family="Helvetica,sans-Serif" font-size="10.00">/home/runner/work/OMSim</text>
<text text-anchor="middle" x="99" y="-91" font-family="Helvetica,sans-Serif" font-size="10.00">/OMSim/common/src/OMSimDEGG.cc</text>
</a>
</g>
</g>
<!-- Node2&#45;&gt;Node3 -->
<g id="edge2" class="edge">
<title>Node2&#45;&gt;Node3</title>
<path fill="none" stroke="midnightblue" d="M325.32,-155.49C271.79,-142.36 203.74,-125.68 156.31,-114.05"/>
<polygon fill="midnightblue" stroke="midnightblue" points="324.6,-158.91 335.14,-157.89 326.26,-152.11 324.6,-158.91"/>
</g>
<!-- Node4 -->
<g id="node4" class="node">
<title>Node4</title>
<g id="a_node4"><a xlink:href="_o_m_sim_d_e_g_g_harness_8cc.html" target="_top" xlink:title=" ">
<polygon fill="white" stroke="black" points="216,-84 216,-114 454,-114 454,-84 216,-84"/>
<text text-anchor="start" x="224" y="-102" font-family="Helvetica,sans-Serif" font-size="10.00">/home/runner/work/OMSim</text>
<text text-anchor="middle" x="335" y="-91" font-family="Helvetica,sans-Serif" font-size="10.00">/OMSim/common/src/OMSimDEGGHarness.cc</text>
</a>
</g>
</g>
<!-- Node2&#45;&gt;Node4 -->
<g id="edge3" class="edge">
<title>Node2&#45;&gt;Node4</title>
<path fill="none" stroke="midnightblue" d="M382.7,-148.99C371.27,-137.25 358.36,-123.99 348.85,-114.23"/>
<polygon fill="midnightblue" stroke="midnightblue" points="380.46,-151.71 389.94,-156.43 385.47,-146.82 380.46,-151.71"/>
</g>
<!-- Node2&#45;&gt;Node5 -->
<g id="edge4" class="edge">
<title>Node2&#45;&gt;Node5</title>
<path fill="none" stroke="midnightblue" d="M437.12,-149.37C465.27,-123.33 507.17,-86.41 527,-78 600.01,-47.04 817.64,-32.1 944.44,-25.84"/>
<polygon fill="midnightblue" stroke="midnightblue" points="434.51,-147.02 429.58,-156.39 439.28,-152.14 434.51,-147.02"/>
</g>
<!-- Node6&#45;&gt;Node5 -->
<g id="edge7" class="edge">
<title>Node6&#45;&gt;Node5</title>
<path fill="none" stroke="midnightblue" d="M573.6,-151.64C559.84,-143.74 547.26,-133.42 539,-120 529.21,-104.1 526.56,-91.91 539,-78 565.49,-48.37 807.03,-32.57 944.46,-25.91"/>
<polygon fill="midnightblue" stroke="midnightblue" points="572.3,-154.91 582.78,-156.48 575.57,-148.72 572.3,-154.91"/>
</g>
<!-- Node7 -->
<g id="node7" class="node">
<title>Node7</title>
<g id="a_node7"><a xlink:href="_o_m_sim_l_o_m16_8cc.html" target="_top" xlink:title="Construction of LOM16.">
<polygon fill="white" stroke="black" points="548.5,-84 548.5,-114 751.5,-114 751.5,-84 548.5,-84"/>
<text text-anchor="start" x="556.5" y="-102" font-family="Helvetica,sans-Serif" font-size="10.00">/home/runner/work/OMSim</text>
<text text-anchor="middle" x="650" y="-91" font-family="Helvetica,sans-Serif" font-size="10.00">/OMSim/common/src/OMSimLOM16.cc</text>
</a>
</g>
</g>
<!-- Node6&#45;&gt;Node7 -->
<g id="edge6" class="edge">
<title>Node6&#45;&gt;Node7</title>
<path fill="none" stroke="midnightblue" d="M650,-146.28C650,-135.25 650,-123.25 650,-114.23"/>
<polygon fill="midnightblue" stroke="midnightblue" points="646.5,-146.43 650,-156.43 653.5,-146.43 646.5,-146.43"/>
</g>
<!-- Node8&#45;&gt;Node5 -->
<g id="edge10" class="edge">
<title>Node8&#45;&gt;Node5</title>
<path fill="none" stroke="midnightblue" d="M959.81,-148.46C966.86,-139.56 974.48,-129.53 981,-120 998.98,-93.73 1017.28,-61.74 1028.39,-41.62"/>
<polygon fill="midnightblue" stroke="midnightblue" points="957.07,-146.27 953.54,-156.26 962.53,-150.66 957.07,-146.27"/>
</g>
<!-- Node9 -->
<g id="node9" class="node">
<title>Node9</title>
<g id="a_node9"><a xlink:href="_o_m_sim_l_o_m18_8cc.html" target="_top" xlink:title="Construction of LOM18.">
<polygon fill="white" stroke="black" points="769.5,-84 769.5,-114 972.5,-114 972.5,-84 769.5,-84"/>
<text text-anchor="start" x="777.5" y="-102" font-family="Helvetica,sans-Serif" font-size="10.00">/home/runner/work/OMSim</text>
<text text-anchor="middle" x="871" y="-91" font-family="Helvetica,sans-Serif" font-size="10.00">/OMSim/common/src/OMSimLOM18.cc</text>
</a>
</g>
</g>
<!-- Node8&#45;&gt;Node9 -->
<g id="edge9" class="edge">
<title>Node8&#45;&gt;Node9</title>
<path fill="none" stroke="midnightblue" d="M913.25,-148.65C903.13,-137 891.75,-123.9 883.35,-114.23"/>
<polygon fill="midnightblue" stroke="midnightblue" points="910.8,-151.17 920,-156.43 916.09,-146.58 910.8,-151.17"/>
</g>
<!-- Node10&#45;&gt;Node5 -->
<g id="edge18" class="edge">
<title>Node10&#45;&gt;Node5</title>
<path fill="none" stroke="midnightblue" d="M1362.03,-170.8C1272.55,-163.84 1138.08,-148.87 1096,-120 1068.57,-101.18 1052.52,-64.5 1044.77,-41.74"/>
<polygon fill="midnightblue" stroke="midnightblue" points="1361.93,-174.3 1372.16,-171.57 1362.46,-167.32 1361.93,-174.3"/>
</g>
<!-- Node11 -->
<g id="node11" class="node">
<title>Node11</title>
<g id="a_node11"><a xlink:href="_o_m_sim_m_d_o_m_8cc.html" target="_top" xlink:title="Construction of mDOM.">
<polygon fill="white" stroke="black" points="1105.5,-84 1105.5,-114 1308.5,-114 1308.5,-84 1105.5,-84"/>
<text text-anchor="start" x="1113.5" y="-102" font-family="Helvetica,sans-Serif" font-size="10.00">/home/runner/work/OMSim</text>
<text text-anchor="middle" x="1207" y="-91" font-family="Helvetica,sans-Serif" font-size="10.00">/OMSim/common/src/OMSimMDOM.cc</text>
</a>
</g>
</g>
<!-- Node10&#45;&gt;Node11 -->
<g id="edge12" class="edge">
<title>Node10&#45;&gt;Node11</title>
<path fill="none" stroke="midnightblue" d="M1374.74,-153.34C1334.69,-140.6 1285.96,-125.11 1251.36,-114.11"/>
<polygon fill="midnightblue" stroke="midnightblue" points="1373.86,-156.73 1384.45,-156.43 1375.98,-150.06 1373.86,-156.73"/>
</g>
<!-- Node12 -->
<g id="node12" class="node">
<title>Node12</title>
<g id="a_node12"><a xlink:href="_o_m_sim_m_d_o_m_flasher_8cc.html" target="_top" xlink:title=" ">
<polygon fill="white" stroke="black" points="1327,-84 1327,-114 1565,-114 1565,-84 1327,-84"/>
<text text-anchor="start" x="1335" y="-102" font-family="Helvetica,sans-Serif" font-size="10.00">/home/runner/work/OMSim</text>
<text text-anchor="middle" x="1446" y="-91" font-family="Helvetica,sans-Serif" font-size="10.00">/OMSim/common/src/OMSimMDOMFlasher.cc</text>
</a>
</g>
</g>
<!-- Node10&#45;&gt;Node12 -->
<g id="edge13" class="edge">
<title>Node10&#45;&gt;Node12</title>
<path fill="none" stroke="midnightblue" d="M1446,-146.28C1446,-135.25 1446,-123.25 1446,-114.23"/>
<polygon fill="midnightblue" stroke="midnightblue" points="1442.5,-146.43 1446,-156.43 1449.5,-146.43 1442.5,-146.43"/>
</g>
<!-- Node13 -->
<g id="node13" class="node">
<title>Node13</title>
<g id="a_node13"><a xlink:href="_o_m_sim_m_d_o_m_harness_8cc.html" target="_top" xlink:title="Construction of mDOM harness.">
<polygon fill="white" stroke="black" points="1583,-84 1583,-114 1825,-114 1825,-84 1583,-84"/>
<text text-anchor="start" x="1591" y="-102" font-family="Helvetica,sans-Serif" font-size="10.00">/home/runner/work/OMSim</text>
<text text-anchor="middle" x="1704" y="-91" font-family="Helvetica,sans-Serif" font-size="10.00">/OMSim/common/src/OMSimMDOMHarness.cc</text>
</a>
</g>
</g>
<!-- Node10&#45;&gt;Node13 -->
<g id="edge14" class="edge">
<title>Node10&#45;&gt;Node13</title>
<path fill="none" stroke="midnightblue" d="M1522.11,-153.58C1565.49,-140.8 1618.53,-125.18 1656.11,-114.11"/>
<polygon fill="midnightblue" stroke="midnightblue" points="1521.04,-150.24 1512.44,-156.43 1523.02,-156.96 1521.04,-150.24"/>
</g>
<!-- Node10&#45;&gt;Node14 -->
<g id="edge15" class="edge">
<title>Node10&#45;&gt;Node14</title>
<path fill="none" stroke="midnightblue" d="M1530.07,-156.7C1531.39,-156.46 1532.7,-156.23 1534,-156 1666.32,-133.09 1701.14,-139.51 1834,-120 1836.91,-119.57 1839.85,-119.13 1842.83,-118.67"/>
<polygon fill="midnightblue" stroke="midnightblue" points="1529,-153.34 1519.83,-158.63 1530.31,-160.21 1529,-153.34"/>
</g>
<!-- Node14&#45;&gt;Node5 -->
<g id="edge16" class="edge">
<title>Node14&#45;&gt;Node5</title>
<path fill="none" stroke="midnightblue" d="M1832.9,-77.93C1574.4,-46.9 1280.88,-31.75 1133.53,-25.54"/>
<polygon fill="midnightblue" stroke="midnightblue" points="1832.5,-81.41 1842.85,-79.13 1833.35,-74.46 1832.5,-81.41"/>
</g>
<!-- Node15 -->
<g id="node15" class="node">
<title>Node15</title>
<g id="a_node15"><a xlink:href="_o_m_sim__effective__area_8cc.html" target="_top" xlink:title="Main for the calculation of effective areas.">
<polygon fill="white" stroke="black" points="1875.5,-0.5 1875.5,-41.5 2022.5,-41.5 2022.5,-0.5 1875.5,-0.5"/>
<text text-anchor="start" x="1883.5" y="-29.5" font-family="Helvetica,sans-Serif" font-size="10.00">/home/runner/work/OMSim</text>
<text text-anchor="start" x="1883.5" y="-18.5" font-family="Helvetica,sans-Serif" font-size="10.00">/OMSim/OMSim_effective</text>
<text text-anchor="middle" x="1949" y="-7.5" font-family="Helvetica,sans-Serif" font-size="10.00">_area.cc</text>
</a>
</g>
</g>
<!-- Node14&#45;&gt;Node15 -->
<g id="edge17" class="edge">
<title>Node14&#45;&gt;Node15</title>
<path fill="none" stroke="midnightblue" d="M1949,-68.3C1949,-59.3 1949,-49.65 1949,-41.51"/>
<polygon fill="midnightblue" stroke="midnightblue" points="1945.5,-68.43 1949,-78.43 1952.5,-68.43 1945.5,-68.43"/>
</g>
<!-- Node16&#45;&gt;Node5 -->
<g id="edge21" class="edge">
<title>Node16&#45;&gt;Node5</title>
<path fill="none" stroke="midnightblue" d="M1734.06,-156.68C1735.38,-156.45 1736.7,-156.22 1738,-156 1884.91,-131.28 2166.43,-186.18 2064,-78 2032.29,-44.52 1381.69,-28.57 1133.8,-23.69"/>
<polygon fill="midnightblue" stroke="midnightblue" points="1733.01,-153.31 1723.82,-158.58 1734.29,-160.2 1733.01,-153.31"/>
</g>
<!-- Node16&#45;&gt;Node17 -->
<g id="edge20" class="edge">
<title>Node16&#45;&gt;Node17</title>
<path fill="none" stroke="midnightblue" d="M1734.06,-156.66C1735.38,-156.43 1736.7,-156.21 1738,-156 1896.26,-130.18 1938.14,-141.87 2097,-120 2109.54,-118.27 2122.81,-116.19 2135.7,-114.02"/>
<polygon fill="midnightblue" stroke="midnightblue" points="1733.02,-153.29 1723.81,-158.53 1734.28,-160.18 1733.02,-153.29"/>
</g>
</g>
</svg>
