<?xml version="1.0" encoding="UTF-8" standalone="no"?>
<!DOCTYPE svg PUBLIC "-//W3C//DTD SVG 1.1//EN"
 "http://www.w3.org/Graphics/SVG/1.1/DTD/svg11.dtd">
<!-- Generated by graphviz version 2.43.0 (0)
 -->
<!-- Title: OMSimLogger.hh Pages: 1 -->
<svg width="1696pt" height="140pt"
 viewBox="0.00 0.00 1695.50 140.00" xmlns="http://www.w3.org/2000/svg" xmlns:xlink="http://www.w3.org/1999/xlink">
<g id="graph0" class="graph" transform="scale(1 1) rotate(0) translate(4 136)">
<title>OMSimLogger.hh</title>
<polygon fill="white" stroke="transparent" points="-4,4 -4,-136 1691.5,-136 1691.5,4 -4,4"/>
<!-- Node1 -->
<g id="node1" class="node">
<title>Node1</title>
<g id="a_node1"><a xlink:title=" ">
<polygon fill="#bfbfbf" stroke="black" points="794.5,-112.5 794.5,-131.5 893.5,-131.5 893.5,-112.5 794.5,-112.5"/>
<text text-anchor="middle" x="844" y="-119.5" font-family="Helvetica,sans-Serif" font-size="10.00">OMSimLogger.hh</text>
</a>
</g>
</g>
<!-- Node2 -->
<g id="node2" class="node">
<title>Node2</title>
<g id="a_node2"><a xlink:href="_o_m_sim_u_iinterface_8hh.html" target="_top" xlink:title="The OMSimUIinterface class provides a singleton interface to Geant4&#39;s UI manager.">
<polygon fill="white" stroke="black" points="149.5,-56.5 149.5,-75.5 270.5,-75.5 270.5,-56.5 149.5,-56.5"/>
<text text-anchor="middle" x="210" y="-63.5" font-family="Helvetica,sans-Serif" font-size="10.00">OMSimUIinterface.hh</text>
</a>
</g>
</g>
<!-- Node1&#45;&gt;Node2 -->
<g id="edge1" class="edge">
<title>Node1&#45;&gt;Node2</title>
<path fill="none" stroke="midnightblue" d="M783.91,-117.16C680.72,-110.36 463.24,-95.08 280,-76 276.95,-75.68 273.83,-75.34 270.69,-74.98"/>
<polygon fill="midnightblue" stroke="midnightblue" points="783.92,-120.67 794.13,-117.83 784.38,-113.69 783.92,-120.67"/>
</g>
<!-- Node3 -->
<g id="node3" class="node">
<title>Node3</title>
<g id="a_node3"><a xlink:href="_o_m_sim_m_d_o_m_flasher_8cc.html" target="_top" xlink:title=" ">
<polygon fill="white" stroke="black" points="0,-0.5 0,-19.5 134,-19.5 134,-0.5 0,-0.5"/>
<text text-anchor="middle" x="67" y="-7.5" font-family="Helvetica,sans-Serif" font-size="10.00">OMSimMDOMFlasher.cc</text>
</a>
</g>
</g>
<!-- Node1&#45;&gt;Node3 -->
<g id="edge11" class="edge">
<title>Node1&#45;&gt;Node3</title>
<path fill="none" stroke="midnightblue" d="M784.33,-119.38C625.35,-114.76 199.64,-100.26 141,-76 111.3,-63.71 85.31,-34.42 73.6,-19.72"/>
<polygon fill="midnightblue" stroke="midnightblue" points="784.31,-122.88 794.41,-119.67 784.52,-115.89 784.31,-122.88"/>
</g>
<!-- Node6 -->
<g id="node6" class="node">
<title>Node6</title>
<g id="a_node6"><a xlink:href="abc_detector_component_8cc.html" target="_top" xlink:title="Contains the implementation of the abcDetectorComponent class.">
<polygon fill="white" stroke="black" points="289,-56.5 289,-75.5 435,-75.5 435,-56.5 289,-56.5"/>
<text text-anchor="middle" x="362" y="-63.5" font-family="Helvetica,sans-Serif" font-size="10.00">abcDetectorComponent.cc</text>
</a>
</g>
</g>
<!-- Node1&#45;&gt;Node6 -->
<g id="edge5" class="edge">
<title>Node1&#45;&gt;Node6</title>
<path fill="none" stroke="midnightblue" d="M784.11,-114.29C695.79,-104.4 530.78,-85.91 435.33,-75.22"/>
<polygon fill="midnightblue" stroke="midnightblue" points="783.91,-117.79 794.23,-115.42 784.68,-110.83 783.91,-117.79"/>
</g>
<!-- Node7 -->
<g id="node7" class="node">
<title>Node7</title>
<g id="a_node7"><a xlink:href="_o_m_sim_data_file_types_8cc.html" target="_top" xlink:title="Collection of classes and methods to handle material creation from user data in json files.">
<polygon fill="white" stroke="black" points="453,-56.5 453,-75.5 587,-75.5 587,-56.5 453,-56.5"/>
<text text-anchor="middle" x="520" y="-63.5" font-family="Helvetica,sans-Serif" font-size="10.00">OMSimDataFileTypes.cc</text>
</a>
</g>
</g>
<!-- Node1&#45;&gt;Node7 -->
<g id="edge6" class="edge">
<title>Node1&#45;&gt;Node7</title>
<path fill="none" stroke="midnightblue" d="M784.54,-111.09C723.38,-100.9 629.1,-85.18 571.16,-75.53"/>
<polygon fill="midnightblue" stroke="midnightblue" points="784,-114.55 794.44,-112.74 785.15,-107.64 784,-114.55"/>
</g>
<!-- Node8 -->
<g id="node8" class="node">
<title>Node8</title>
<g id="a_node8"><a xlink:href="_o_m_sim_input_data_8cc.html" target="_top" xlink:title="Input data from external files are read and saved to memory.">
<polygon fill="white" stroke="black" points="605.5,-56.5 605.5,-75.5 718.5,-75.5 718.5,-56.5 605.5,-56.5"/>
<text text-anchor="middle" x="662" y="-63.5" font-family="Helvetica,sans-Serif" font-size="10.00">OMSimInputData.cc</text>
</a>
</g>
</g>
<!-- Node1&#45;&gt;Node8 -->
<g id="edge7" class="edge">
<title>Node1&#45;&gt;Node8</title>
<path fill="none" stroke="midnightblue" d="M805.47,-109.57C771.14,-99.38 721.67,-84.7 690.7,-75.52"/>
<polygon fill="midnightblue" stroke="midnightblue" points="804.58,-112.95 815.16,-112.44 806.57,-106.24 804.58,-112.95"/>
</g>
<!-- Node9 -->
<g id="node9" class="node">
<title>Node9</title>
<g id="a_node9"><a xlink:href="_o_m_sim_l_o_m16_8cc.html" target="_top" xlink:title="Construction of LOM16.">
<polygon fill="white" stroke="black" points="736.5,-56.5 736.5,-75.5 835.5,-75.5 835.5,-56.5 736.5,-56.5"/>
<text text-anchor="middle" x="786" y="-63.5" font-family="Helvetica,sans-Serif" font-size="10.00">OMSimLOM16.cc</text>
</a>
</g>
</g>
<!-- Node1&#45;&gt;Node9 -->
<g id="edge8" class="edge">
<title>Node1&#45;&gt;Node9</title>
<path fill="none" stroke="midnightblue" d="M827.09,-105.25C816.8,-95.67 804.03,-83.79 795.49,-75.83"/>
<polygon fill="midnightblue" stroke="midnightblue" points="824.98,-108.07 834.68,-112.32 829.75,-102.95 824.98,-108.07"/>
</g>
<!-- Node10 -->
<g id="node10" class="node">
<title>Node10</title>
<g id="a_node10"><a xlink:href="_o_m_sim_l_o_m18_8cc.html" target="_top" xlink:title="Construction of LOM18.">
<polygon fill="white" stroke="black" points="853.5,-56.5 853.5,-75.5 952.5,-75.5 952.5,-56.5 853.5,-56.5"/>
<text text-anchor="middle" x="903" y="-63.5" font-family="Helvetica,sans-Serif" font-size="10.00">OMSimLOM18.cc</text>
</a>
</g>
</g>
<!-- Node1&#45;&gt;Node10 -->
<g id="edge9" class="edge">
<title>Node1&#45;&gt;Node10</title>
<path fill="none" stroke="midnightblue" d="M860.89,-105.54C871.41,-95.91 884.57,-83.87 893.35,-75.83"/>
<polygon fill="midnightblue" stroke="midnightblue" points="858.49,-102.99 853.48,-112.32 863.22,-108.15 858.49,-102.99"/>
</g>
<!-- Node11 -->
<g id="node11" class="node">
<title>Node11</title>
<g id="a_node11"><a xlink:href="_o_m_sim_m_d_o_m_8cc.html" target="_top" xlink:title="Construction of mDOM.">
<polygon fill="white" stroke="black" points="971,-56.5 971,-75.5 1069,-75.5 1069,-56.5 971,-56.5"/>
<text text-anchor="middle" x="1020" y="-63.5" font-family="Helvetica,sans-Serif" font-size="10.00">OMSimMDOM.cc</text>
</a>
</g>
</g>
<!-- Node1&#45;&gt;Node11 -->
<g id="edge10" class="edge">
<title>Node1&#45;&gt;Node11</title>
<path fill="none" stroke="midnightblue" d="M881.69,-109.44C914.87,-99.26 962.43,-84.66 992.24,-75.52"/>
<polygon fill="midnightblue" stroke="midnightblue" points="880.42,-106.16 871.89,-112.44 882.47,-112.86 880.42,-106.16"/>
</g>
<!-- Node12 -->
<g id="node12" class="node">
<title>Node12</title>
<g id="a_node12"><a xlink:href="_o_m_sim_p_d_o_m_8cc.html" target="_top" xlink:title="Implementation of the pDOM/Gen1 DOM class.">
<polygon fill="white" stroke="black" points="1087.5,-56.5 1087.5,-75.5 1182.5,-75.5 1182.5,-56.5 1087.5,-56.5"/>
<text text-anchor="middle" x="1135" y="-63.5" font-family="Helvetica,sans-Serif" font-size="10.00">OMSimPDOM.cc</text>
</a>
</g>
</g>
<!-- Node1&#45;&gt;Node12 -->
<g id="edge12" class="edge">
<title>Node1&#45;&gt;Node12</title>
<path fill="none" stroke="midnightblue" d="M900.04,-110.6C955.04,-100.4 1037.9,-85.02 1089.11,-75.52"/>
<polygon fill="midnightblue" stroke="midnightblue" points="899.3,-107.18 890.11,-112.44 900.58,-114.06 899.3,-107.18"/>
</g>
<!-- Node13 -->
<g id="node13" class="node">
<title>Node13</title>
<g id="a_node13"><a xlink:href="_o_m_sim_p_m_t_construction_8cc.html" target="_top" xlink:title="Construction of the PMTs.">
<polygon fill="white" stroke="black" points="1200.5,-56.5 1200.5,-75.5 1347.5,-75.5 1347.5,-56.5 1200.5,-56.5"/>
<text text-anchor="middle" x="1274" y="-63.5" font-family="Helvetica,sans-Serif" font-size="10.00">OMSimPMTConstruction.cc</text>
</a>
</g>
</g>
<!-- Node1&#45;&gt;Node13 -->
<g id="edge13" class="edge">
<title>Node1&#45;&gt;Node13</title>
<path fill="none" stroke="midnightblue" d="M904.06,-113.46C983.42,-103.49 1122.86,-85.98 1206.01,-75.54"/>
<polygon fill="midnightblue" stroke="midnightblue" points="903.23,-110.03 893.75,-114.75 904.1,-116.98 903.23,-110.03"/>
</g>
<!-- Node14 -->
<g id="node14" class="node">
<title>Node14</title>
<g id="a_node14"><a xlink:href="_o_m_sim_p_m_t_response_8cc.html" target="_top" xlink:title="PMT response simulator.">
<polygon fill="white" stroke="black" points="1366,-56.5 1366,-75.5 1500,-75.5 1500,-56.5 1366,-56.5"/>
<text text-anchor="middle" x="1433" y="-63.5" font-family="Helvetica,sans-Serif" font-size="10.00">OMSimPMTResponse.cc</text>
</a>
</g>
</g>
<!-- Node1&#45;&gt;Node14 -->
<g id="edge14" class="edge">
<title>Node1&#45;&gt;Node14</title>
<path fill="none" stroke="midnightblue" d="M903.63,-116.36C999.34,-108.78 1193.11,-92.89 1357,-76 1359.91,-75.7 1362.88,-75.39 1365.88,-75.06"/>
<polygon fill="midnightblue" stroke="midnightblue" points="903.26,-112.88 893.57,-117.16 903.81,-119.86 903.26,-112.88"/>
</g>
<!-- Node15 -->
<g id="node15" class="node">
<title>Node15</title>
<g id="a_node15"><a xlink:href="_o_m_sim_detector_construction_8cc.html" target="_top" xlink:title="User defined detector.">
<polygon fill="white" stroke="black" points="1518.5,-56.5 1518.5,-75.5 1687.5,-75.5 1687.5,-56.5 1518.5,-56.5"/>
<text text-anchor="middle" x="1603" y="-63.5" font-family="Helvetica,sans-Serif" font-size="10.00">OMSimDetectorConstruction.cc</text>
</a>
</g>
</g>
<!-- Node1&#45;&gt;Node15 -->
<g id="edge15" class="edge">
<title>Node1&#45;&gt;Node15</title>
<path fill="none" stroke="midnightblue" d="M903.81,-117.51C1020.34,-110.6 1285.93,-94.22 1509,-76 1512.1,-75.75 1515.27,-75.48 1518.46,-75.21"/>
<polygon fill="midnightblue" stroke="midnightblue" points="903.45,-114.03 893.67,-118.11 903.86,-121.02 903.45,-114.03"/>
</g>
<!-- Node2&#45;&gt;Node3 -->
<g id="edge2" class="edge">
<title>Node2&#45;&gt;Node3</title>
<path fill="none" stroke="midnightblue" d="M177.97,-52.91C151.09,-42.75 113.36,-28.51 89.55,-19.52"/>
<polygon fill="midnightblue" stroke="midnightblue" points="176.75,-56.19 187.34,-56.44 179.22,-49.64 176.75,-56.19"/>
</g>
<!-- Node4 -->
<g id="node4" class="node">
<title>Node4</title>
<g id="a_node4"><a xlink:href="_o_m_sim_simple_g_p_s_beams_8cc.html" target="_top" xlink:title="Defines the AngularScan class for simple GPS beam configurations.">
<polygon fill="white" stroke="black" points="152,-0.5 152,-19.5 304,-19.5 304,-0.5 152,-0.5"/>
<text text-anchor="middle" x="228" y="-7.5" font-family="Helvetica,sans-Serif" font-size="10.00">OMSimSimpleGPSBeams.cc</text>
</a>
</g>
</g>
<!-- Node2&#45;&gt;Node4 -->
<g id="edge3" class="edge">
<title>Node2&#45;&gt;Node4</title>
<path fill="none" stroke="midnightblue" d="M216.2,-46.4C219.21,-37.36 222.69,-26.94 225.08,-19.75"/>
<polygon fill="midnightblue" stroke="midnightblue" points="212.81,-45.49 212.97,-56.08 219.46,-47.7 212.81,-45.49"/>
</g>
<!-- Node5 -->
<g id="node5" class="node">
<title>Node5</title>
<g id="a_node5"><a xlink:href="_o_m_sim__effective__area_8cc.html" target="_top" xlink:title="Main for the calculation of effective areas.">
<polygon fill="white" stroke="black" points="322,-0.5 322,-19.5 462,-19.5 462,-0.5 322,-0.5"/>
<text text-anchor="middle" x="392" y="-7.5" font-family="Helvetica,sans-Serif" font-size="10.00">OMSim_effective_area.cc</text>
</a>
</g>
</g>
<!-- Node2&#45;&gt;Node5 -->
<g id="edge4" class="edge">
<title>Node2&#45;&gt;Node5</title>
<path fill="none" stroke="midnightblue" d="M248.53,-53.57C282.86,-43.38 332.33,-28.7 363.3,-19.52"/>
<polygon fill="midnightblue" stroke="midnightblue" points="247.43,-50.24 238.84,-56.44 249.42,-56.95 247.43,-50.24"/>
</g>
</g>
</svg>
