<?xml version="1.0" encoding="UTF-8" standalone="no"?>
<!DOCTYPE svg PUBLIC "-//W3C//DTD SVG 1.1//EN"
 "http://www.w3.org/Graphics/SVG/1.1/DTD/svg11.dtd">
<!-- Generated by graphviz version 2.43.0 (0)
 -->
<!-- Title: OMSimDEGG.cc Pages: 1 -->
<svg width="2604pt" height="319pt"
 viewBox="0.00 0.00 2603.50 319.00" xmlns="http://www.w3.org/2000/svg" xmlns:xlink="http://www.w3.org/1999/xlink">
<g id="graph0" class="graph" transform="scale(1 1) rotate(0) translate(4 315)">
<title>OMSimDEGG.cc</title>
<polygon fill="white" stroke="transparent" points="-4,4 -4,-315 2599.5,-315 2599.5,4 -4,4"/>
<!-- Node1 -->
<g id="node1" class="node">
<title>Node1</title>
<g id="a_node1"><a xlink:title="Construction of the DEGG class.">
<polygon fill="#bfbfbf" stroke="black" points="1528.5,-291.5 1528.5,-310.5 1622.5,-310.5 1622.5,-291.5 1528.5,-291.5"/>
<text text-anchor="middle" x="1575.5" y="-298.5" font-family="Helvetica,sans-Serif" font-size="10.00">OMSimDEGG.cc</text>
</a>
</g>
</g>
<!-- Node2 -->
<g id="node2" class="node">
<title>Node2</title>
<g id="a_node2"><a xlink:href="_o_m_sim_d_e_g_g_8hh.html" target="_top" xlink:title=" ">
<polygon fill="white" stroke="black" points="963,-235.5 963,-254.5 1058,-254.5 1058,-235.5 963,-235.5"/>
<text text-anchor="middle" x="1010.5" y="-242.5" font-family="Helvetica,sans-Serif" font-size="10.00">OMSimDEGG.hh</text>
</a>
</g>
</g>
<!-- Node1&#45;&gt;Node2 -->
<g id="edge1" class="edge">
<title>Node1&#45;&gt;Node2</title>
<path fill="none" stroke="midnightblue" d="M1528.3,-295.49C1425.3,-285.64 1180.62,-262.26 1068.47,-251.54"/>
<polygon fill="midnightblue" stroke="midnightblue" points="1068.65,-248.04 1058.36,-250.57 1067.98,-255.01 1068.65,-248.04"/>
</g>
<!-- Node15 -->
<g id="node15" class="node">
<title>Node15</title>
<g id="a_node15"><a xlink:href="_c_a_d_mesh_8hh.html" target="_top" xlink:title=" ">
<polygon fill="white" stroke="black" points="1488,-235.5 1488,-254.5 1567,-254.5 1567,-235.5 1488,-235.5"/>
<text text-anchor="middle" x="1527.5" y="-242.5" font-family="Helvetica,sans-Serif" font-size="10.00">CADMesh.hh</text>
</a>
</g>
</g>
<!-- Node1&#45;&gt;Node15 -->
<g id="edge14" class="edge">
<title>Node1&#45;&gt;Node15</title>
<path fill="none" stroke="midnightblue" d="M1567.57,-291.08C1560.65,-283.3 1550.43,-271.8 1542.05,-262.37"/>
<polygon fill="midnightblue" stroke="midnightblue" points="1544.54,-259.9 1535.28,-254.75 1539.31,-264.55 1544.54,-259.9"/>
</g>
<!-- Node36 -->
<g id="node36" class="node">
<title>Node36</title>
<g id="a_node36"><a xlink:title=" ">
<polygon fill="white" stroke="#bfbfbf" points="1585,-235.5 1585,-254.5 1664,-254.5 1664,-235.5 1585,-235.5"/>
<text text-anchor="middle" x="1624.5" y="-242.5" font-family="Helvetica,sans-Serif" font-size="10.00">G4Sphere.hh</text>
</a>
</g>
</g>
<!-- Node1&#45;&gt;Node36 -->
<g id="edge35" class="edge">
<title>Node1&#45;&gt;Node36</title>
<path fill="none" stroke="midnightblue" d="M1583.59,-291.08C1590.66,-283.3 1601.09,-271.8 1609.65,-262.37"/>
<polygon fill="midnightblue" stroke="midnightblue" points="1612.43,-264.51 1616.56,-254.75 1607.25,-259.8 1612.43,-264.51"/>
</g>
<!-- Node37 -->
<g id="node37" class="node">
<title>Node37</title>
<g id="a_node37"><a xlink:title=" ">
<polygon fill="white" stroke="#bfbfbf" points="1682,-235.5 1682,-254.5 1771,-254.5 1771,-235.5 1682,-235.5"/>
<text text-anchor="middle" x="1726.5" y="-242.5" font-family="Helvetica,sans-Serif" font-size="10.00">G4Polycone.hh</text>
</a>
</g>
</g>
<!-- Node1&#45;&gt;Node37 -->
<g id="edge36" class="edge">
<title>Node1&#45;&gt;Node37</title>
<path fill="none" stroke="midnightblue" d="M1599.43,-291.44C1624.72,-282.4 1664.8,-268.06 1693.18,-257.92"/>
<polygon fill="midnightblue" stroke="midnightblue" points="1694.45,-261.18 1702.69,-254.52 1692.09,-254.59 1694.45,-261.18"/>
</g>
<!-- Node3 -->
<g id="node3" class="node">
<title>Node3</title>
<g id="a_node3"><a xlink:href="_o_m_sim_p_m_t_construction_8hh.html" target="_top" xlink:title=" ">
<polygon fill="white" stroke="black" points="524,-179.5 524,-198.5 673,-198.5 673,-179.5 524,-179.5"/>
<text text-anchor="middle" x="598.5" y="-186.5" font-family="Helvetica,sans-Serif" font-size="10.00">OMSimPMTConstruction.hh</text>
</a>
</g>
</g>
<!-- Node2&#45;&gt;Node3 -->
<g id="edge2" class="edge">
<title>Node2&#45;&gt;Node3</title>
<path fill="none" stroke="midnightblue" d="M962.84,-237.75C891.9,-228.46 757.89,-210.89 673.67,-199.85"/>
<polygon fill="midnightblue" stroke="midnightblue" points="674.02,-196.37 663.65,-198.54 673.11,-203.31 674.02,-196.37"/>
</g>
<!-- Node4 -->
<g id="node4" class="node">
<title>Node4</title>
<g id="a_node4"><a xlink:href="abc_detector_component_8hh.html" target="_top" xlink:title=" ">
<polygon fill="white" stroke="black" points="384,-123.5 384,-142.5 531,-142.5 531,-123.5 384,-123.5"/>
<text text-anchor="middle" x="457.5" y="-130.5" font-family="Helvetica,sans-Serif" font-size="10.00">abcDetectorComponent.hh</text>
</a>
</g>
</g>
<!-- Node3&#45;&gt;Node4 -->
<g id="edge3" class="edge">
<title>Node3&#45;&gt;Node4</title>
<path fill="none" stroke="midnightblue" d="M576.16,-179.44C552.75,-170.48 515.76,-156.31 489.31,-146.18"/>
<polygon fill="midnightblue" stroke="midnightblue" points="490.33,-142.82 479.74,-142.52 487.82,-149.36 490.33,-142.82"/>
</g>
<!-- Node13 -->
<g id="node13" class="node">
<title>Node13</title>
<g id="a_node13"><a xlink:title=" ">
<polygon fill="white" stroke="#bfbfbf" points="549.5,-123.5 549.5,-142.5 647.5,-142.5 647.5,-123.5 549.5,-123.5"/>
<text text-anchor="middle" x="598.5" y="-130.5" font-family="Helvetica,sans-Serif" font-size="10.00">G4UnionSolid.hh</text>
</a>
</g>
</g>
<!-- Node3&#45;&gt;Node13 -->
<g id="edge12" class="edge">
<title>Node3&#45;&gt;Node13</title>
<path fill="none" stroke="midnightblue" d="M598.5,-179.08C598.5,-172.01 598.5,-161.86 598.5,-152.99"/>
<polygon fill="midnightblue" stroke="midnightblue" points="602,-152.75 598.5,-142.75 595,-152.75 602,-152.75"/>
</g>
<!-- Node14 -->
<g id="node14" class="node">
<title>Node14</title>
<g id="a_node14"><a xlink:title=" ">
<polygon fill="white" stroke="#bfbfbf" points="666,-123.5 666,-142.5 733,-142.5 733,-123.5 666,-123.5"/>
<text text-anchor="middle" x="699.5" y="-130.5" font-family="Helvetica,sans-Serif" font-size="10.00">G4Tubs.hh</text>
</a>
</g>
</g>
<!-- Node3&#45;&gt;Node14 -->
<g id="edge13" class="edge">
<title>Node3&#45;&gt;Node14</title>
<path fill="none" stroke="midnightblue" d="M614.73,-179.32C630.85,-170.7 655.8,-157.36 674.46,-147.39"/>
<polygon fill="midnightblue" stroke="midnightblue" points="676.14,-150.46 683.31,-142.65 672.84,-144.28 676.14,-150.46"/>
</g>
<!-- Node5 -->
<g id="node5" class="node">
<title>Node5</title>
<g id="a_node5"><a xlink:href="_o_m_sim_input_data_8hh.html" target="_top" xlink:title=" ">
<polygon fill="white" stroke="black" points="145,-67.5 145,-86.5 260,-86.5 260,-67.5 145,-67.5"/>
<text text-anchor="middle" x="202.5" y="-74.5" font-family="Helvetica,sans-Serif" font-size="10.00">OMSimInputData.hh</text>
</a>
</g>
</g>
<!-- Node4&#45;&gt;Node5 -->
<g id="edge4" class="edge">
<title>Node4&#45;&gt;Node5</title>
<path fill="none" stroke="midnightblue" d="M417.09,-123.44C372.52,-114 300.73,-98.8 252.61,-88.61"/>
<polygon fill="midnightblue" stroke="midnightblue" points="253.22,-85.16 242.72,-86.52 251.77,-92.01 253.22,-85.16"/>
</g>
<!-- Node9 -->
<g id="node9" class="node">
<title>Node9</title>
<g id="a_node9"><a xlink:title=" ">
<polygon fill="white" stroke="#bfbfbf" points="278,-67.5 278,-86.5 385,-86.5 385,-67.5 278,-67.5"/>
<text text-anchor="middle" x="331.5" y="-74.5" font-family="Helvetica,sans-Serif" font-size="10.00">G4Transform3D.hh</text>
</a>
</g>
</g>
<!-- Node4&#45;&gt;Node9 -->
<g id="edge8" class="edge">
<title>Node4&#45;&gt;Node9</title>
<path fill="none" stroke="midnightblue" d="M437.53,-123.44C416.89,-114.6 384.44,-100.69 360.87,-90.59"/>
<polygon fill="midnightblue" stroke="midnightblue" points="361.94,-87.24 351.37,-86.52 359.18,-93.67 361.94,-87.24"/>
</g>
<!-- Node10 -->
<g id="node10" class="node">
<title>Node10</title>
<g id="a_node10"><a xlink:title=" ">
<polygon fill="white" stroke="#bfbfbf" points="403.5,-67.5 403.5,-86.5 511.5,-86.5 511.5,-67.5 403.5,-67.5"/>
<text text-anchor="middle" x="457.5" y="-74.5" font-family="Helvetica,sans-Serif" font-size="10.00">G4VisAttributes.hh</text>
</a>
</g>
</g>
<!-- Node4&#45;&gt;Node10 -->
<g id="edge9" class="edge">
<title>Node4&#45;&gt;Node10</title>
<path fill="none" stroke="midnightblue" d="M457.5,-123.08C457.5,-116.01 457.5,-105.86 457.5,-96.99"/>
<polygon fill="midnightblue" stroke="midnightblue" points="461,-96.75 457.5,-86.75 454,-96.75 461,-96.75"/>
</g>
<!-- Node11 -->
<g id="node11" class="node">
<title>Node11</title>
<g id="a_node11"><a xlink:title=" ">
<polygon fill="white" stroke="#bfbfbf" points="530,-67.5 530,-86.5 655,-86.5 655,-67.5 530,-67.5"/>
<text text-anchor="middle" x="592.5" y="-74.5" font-family="Helvetica,sans-Serif" font-size="10.00">G4SubtractionSolid.hh</text>
</a>
</g>
</g>
<!-- Node4&#45;&gt;Node11 -->
<g id="edge10" class="edge">
<title>Node4&#45;&gt;Node11</title>
<path fill="none" stroke="midnightblue" d="M478.89,-123.44C501.21,-114.52 536.4,-100.44 561.71,-90.32"/>
<polygon fill="midnightblue" stroke="midnightblue" points="563.22,-93.48 571.21,-86.52 560.62,-86.98 563.22,-93.48"/>
</g>
<!-- Node12 -->
<g id="node12" class="node">
<title>Node12</title>
<g id="a_node12"><a xlink:title=" ">
<polygon fill="white" stroke="#bfbfbf" points="673.5,-67.5 673.5,-86.5 783.5,-86.5 783.5,-67.5 673.5,-67.5"/>
<text text-anchor="middle" x="728.5" y="-74.5" font-family="Helvetica,sans-Serif" font-size="10.00">G4PVPlacement.hh</text>
</a>
</g>
</g>
<!-- Node4&#45;&gt;Node12 -->
<g id="edge11" class="edge">
<title>Node4&#45;&gt;Node12</title>
<path fill="none" stroke="midnightblue" d="M500.44,-123.44C548.01,-113.96 624.74,-98.67 675.89,-88.48"/>
<polygon fill="midnightblue" stroke="midnightblue" points="676.64,-91.9 685.76,-86.52 675.27,-85.04 676.64,-91.9"/>
</g>
<!-- Node6 -->
<g id="node6" class="node">
<title>Node6</title>
<g id="a_node6"><a xlink:title=" ">
<polygon fill="white" stroke="#bfbfbf" points="0,-0.5 0,-30.5 113,-30.5 113,-0.5 0,-0.5"/>
<text text-anchor="start" x="8" y="-18.5" font-family="Helvetica,sans-Serif" font-size="10.00">boost/property_tree</text>
<text text-anchor="middle" x="56.5" y="-7.5" font-family="Helvetica,sans-Serif" font-size="10.00">/json_parser.hpp</text>
</a>
</g>
</g>
<!-- Node5&#45;&gt;Node6 -->
<g id="edge5" class="edge">
<title>Node5&#45;&gt;Node6</title>
<path fill="none" stroke="midnightblue" d="M181.58,-67.48C160.51,-58.89 127.37,-45.38 100.49,-34.43"/>
<polygon fill="midnightblue" stroke="midnightblue" points="101.49,-31.06 90.91,-30.52 98.85,-37.54 101.49,-31.06"/>
</g>
<!-- Node7 -->
<g id="node7" class="node">
<title>Node7</title>
<g id="a_node7"><a xlink:title=" ">
<polygon fill="white" stroke="#bfbfbf" points="131,-6 131,-25 274,-25 274,-6 131,-6"/>
<text text-anchor="middle" x="202.5" y="-13" font-family="Helvetica,sans-Serif" font-size="10.00">G4OpBoundaryProcess.hh</text>
</a>
</g>
</g>
<!-- Node5&#45;&gt;Node7 -->
<g id="edge6" class="edge">
<title>Node5&#45;&gt;Node7</title>
<path fill="none" stroke="midnightblue" d="M202.5,-67.48C202.5,-59.08 202.5,-45.98 202.5,-35.16"/>
<polygon fill="midnightblue" stroke="midnightblue" points="206,-35.01 202.5,-25.01 199,-35.01 206,-35.01"/>
</g>
<!-- Node8 -->
<g id="node8" class="node">
<title>Node8</title>
<g id="a_node8"><a xlink:title=" ">
<polygon fill="white" stroke="#bfbfbf" points="292,-6 292,-25 411,-25 411,-6 292,-6"/>
<text text-anchor="middle" x="351.5" y="-13" font-family="Helvetica,sans-Serif" font-size="10.00">G4SystemOfUnits.hh</text>
</a>
</g>
</g>
<!-- Node5&#45;&gt;Node8 -->
<g id="edge7" class="edge">
<title>Node5&#45;&gt;Node8</title>
<path fill="none" stroke="midnightblue" d="M223.85,-67.48C249.19,-57.36 291.64,-40.4 320.57,-28.85"/>
<polygon fill="midnightblue" stroke="midnightblue" points="322.2,-31.97 330.19,-25.01 319.61,-25.47 322.2,-31.97"/>
</g>
<!-- Node16 -->
<g id="node16" class="node">
<title>Node16</title>
<g id="a_node16"><a xlink:title=" ">
<polygon fill="white" stroke="#bfbfbf" points="691.5,-179.5 691.5,-198.5 765.5,-198.5 765.5,-179.5 691.5,-179.5"/>
<text text-anchor="middle" x="728.5" y="-186.5" font-family="Helvetica,sans-Serif" font-size="10.00">G4String.hh</text>
</a>
</g>
</g>
<!-- Node15&#45;&gt;Node16 -->
<g id="edge15" class="edge">
<title>Node15&#45;&gt;Node16</title>
<path fill="none" stroke="midnightblue" d="M1487.73,-243.49C1376.67,-241.67 1053.72,-233.68 775.87,-199"/>
<polygon fill="midnightblue" stroke="midnightblue" points="775.95,-195.48 765.59,-197.7 775.07,-202.42 775.95,-195.48"/>
</g>
<!-- Node17 -->
<g id="node17" class="node">
<title>Node17</title>
<g id="a_node17"><a xlink:title=" ">
<polygon fill="white" stroke="#bfbfbf" points="783.5,-179.5 783.5,-198.5 847.5,-198.5 847.5,-179.5 783.5,-179.5"/>
<text text-anchor="middle" x="815.5" y="-186.5" font-family="Helvetica,sans-Serif" font-size="10.00">algorithm</text>
</a>
</g>
</g>
<!-- Node15&#45;&gt;Node17 -->
<g id="edge16" class="edge">
<title>Node15&#45;&gt;Node17</title>
<path fill="none" stroke="midnightblue" d="M1487.96,-243.4C1385.42,-241.42 1102.49,-233.16 857.8,-198.97"/>
<polygon fill="midnightblue" stroke="midnightblue" points="858.04,-195.47 847.65,-197.53 857.06,-202.4 858.04,-195.47"/>
</g>
<!-- Node18 -->
<g id="node18" class="node">
<title>Node18</title>
<g id="a_node18"><a xlink:title=" ">
<polygon fill="white" stroke="#bfbfbf" points="865.5,-179.5 865.5,-198.5 903.5,-198.5 903.5,-179.5 865.5,-179.5"/>
<text text-anchor="middle" x="884.5" y="-186.5" font-family="Helvetica,sans-Serif" font-size="10.00">map</text>
</a>
</g>
</g>
<!-- Node15&#45;&gt;Node18 -->
<g id="edge17" class="edge">
<title>Node15&#45;&gt;Node18</title>
<path fill="none" stroke="midnightblue" d="M1487.86,-244.34C1390.92,-244.5 1134.28,-240.74 913.45,-198.71"/>
<polygon fill="midnightblue" stroke="midnightblue" points="914.11,-195.27 903.62,-196.81 912.78,-202.14 914.11,-195.27"/>
</g>
<!-- Node19 -->
<g id="node19" class="node">
<title>Node19</title>
<g id="a_node19"><a xlink:title=" ">
<polygon fill="white" stroke="#bfbfbf" points="922,-179.5 922,-198.5 1025,-198.5 1025,-179.5 922,-179.5"/>
<text text-anchor="middle" x="973.5" y="-186.5" font-family="Helvetica,sans-Serif" font-size="10.00">G4ThreeVector.hh</text>
</a>
</g>
</g>
<!-- Node15&#45;&gt;Node19 -->
<g id="edge18" class="edge">
<title>Node15&#45;&gt;Node19</title>
<path fill="none" stroke="midnightblue" d="M1487.72,-241.16C1405.28,-235.12 1209.58,-219.88 1035.31,-199.16"/>
<polygon fill="midnightblue" stroke="midnightblue" points="1035.53,-195.66 1025.18,-197.95 1034.7,-202.61 1035.53,-195.66"/>
</g>
<!-- Node20 -->
<g id="node20" class="node">
<title>Node20</title>
<g id="a_node20"><a xlink:title=" ">
<polygon fill="white" stroke="#bfbfbf" points="1043,-179.5 1043,-198.5 1162,-198.5 1162,-179.5 1043,-179.5"/>
<text text-anchor="middle" x="1102.5" y="-186.5" font-family="Helvetica,sans-Serif" font-size="10.00">G4TriangularFacet.hh</text>
</a>
</g>
</g>
<!-- Node15&#45;&gt;Node20 -->
<g id="edge19" class="edge">
<title>Node15&#45;&gt;Node20</title>
<path fill="none" stroke="midnightblue" d="M1487.98,-239.06C1424.08,-231.05 1293.81,-214.69 1172.54,-199.13"/>
<polygon fill="midnightblue" stroke="midnightblue" points="1172.7,-195.62 1162.34,-197.82 1171.81,-202.56 1172.7,-195.62"/>
</g>
<!-- Node21 -->
<g id="node21" class="node">
<title>Node21</title>
<g id="a_node21"><a xlink:title=" ">
<polygon fill="white" stroke="#bfbfbf" points="1180.5,-179.5 1180.5,-198.5 1238.5,-198.5 1238.5,-179.5 1180.5,-179.5"/>
<text text-anchor="middle" x="1209.5" y="-186.5" font-family="Helvetica,sans-Serif" font-size="10.00">memory</text>
</a>
</g>
</g>
<!-- Node15&#45;&gt;Node21 -->
<g id="edge20" class="edge">
<title>Node15&#45;&gt;Node21</title>
<path fill="none" stroke="midnightblue" d="M1487.92,-238.57C1435.45,-231.17 1339.77,-216.96 1248.83,-199.15"/>
<polygon fill="midnightblue" stroke="midnightblue" points="1249.4,-195.7 1238.91,-197.19 1248.04,-202.56 1249.4,-195.7"/>
</g>
<!-- Node22 -->
<g id="node22" class="node">
<title>Node22</title>
<g id="a_node22"><a xlink:title=" ">
<polygon fill="white" stroke="#bfbfbf" points="1257,-179.5 1257,-198.5 1304,-198.5 1304,-179.5 1257,-179.5"/>
<text text-anchor="middle" x="1280.5" y="-186.5" font-family="Helvetica,sans-Serif" font-size="10.00">vector</text>
</a>
</g>
</g>
<!-- Node15&#45;&gt;Node22 -->
<g id="edge21" class="edge">
<title>Node15&#45;&gt;Node22</title>
<path fill="none" stroke="midnightblue" d="M1487.9,-236.4C1446.85,-228.36 1380.6,-214.94 1314.07,-199.02"/>
<polygon fill="midnightblue" stroke="midnightblue" points="1314.79,-195.6 1304.25,-196.66 1313.15,-202.4 1314.79,-195.6"/>
</g>
<!-- Node23 -->
<g id="node23" class="node">
<title>Node23</title>
<g id="a_node23"><a xlink:title=" ">
<polygon fill="white" stroke="#bfbfbf" points="1322.5,-179.5 1322.5,-198.5 1382.5,-198.5 1382.5,-179.5 1322.5,-179.5"/>
<text text-anchor="middle" x="1352.5" y="-186.5" font-family="Helvetica,sans-Serif" font-size="10.00">iostream</text>
</a>
</g>
</g>
<!-- Node15&#45;&gt;Node23 -->
<g id="edge22" class="edge">
<title>Node15&#45;&gt;Node23</title>
<path fill="none" stroke="midnightblue" d="M1499.77,-235.44C1470.07,-226.28 1422.78,-211.69 1389.83,-201.52"/>
<polygon fill="midnightblue" stroke="midnightblue" points="1390.69,-198.12 1380.1,-198.52 1388.62,-204.81 1390.69,-198.12"/>
</g>
<!-- Node24 -->
<g id="node24" class="node">
<title>Node24</title>
<g id="a_node24"><a xlink:title=" ">
<polygon fill="white" stroke="#bfbfbf" points="1400.5,-179.5 1400.5,-198.5 1444.5,-198.5 1444.5,-179.5 1400.5,-179.5"/>
<text text-anchor="middle" x="1422.5" y="-186.5" font-family="Helvetica,sans-Serif" font-size="10.00">string</text>
</a>
</g>
</g>
<!-- Node15&#45;&gt;Node24 -->
<g id="edge23" class="edge">
<title>Node15&#45;&gt;Node24</title>
<path fill="none" stroke="midnightblue" d="M1510.63,-235.32C1493.79,-226.66 1467.69,-213.24 1448.26,-203.25"/>
<polygon fill="midnightblue" stroke="midnightblue" points="1449.82,-200.12 1439.33,-198.65 1446.62,-206.34 1449.82,-200.12"/>
</g>
<!-- Node25 -->
<g id="node25" class="node">
<title>Node25</title>
<g id="a_node25"><a xlink:title=" ">
<polygon fill="white" stroke="#bfbfbf" points="1462.5,-179.5 1462.5,-198.5 1592.5,-198.5 1592.5,-179.5 1462.5,-179.5"/>
<text text-anchor="middle" x="1527.5" y="-186.5" font-family="Helvetica,sans-Serif" font-size="10.00">G4AssemblyVolume.hh</text>
</a>
</g>
</g>
<!-- Node15&#45;&gt;Node25 -->
<g id="edge24" class="edge">
<title>Node15&#45;&gt;Node25</title>
<path fill="none" stroke="midnightblue" d="M1527.5,-235.08C1527.5,-228.01 1527.5,-217.86 1527.5,-208.99"/>
<polygon fill="midnightblue" stroke="midnightblue" points="1531,-208.75 1527.5,-198.75 1524,-208.75 1531,-208.75"/>
</g>
<!-- Node26 -->
<g id="node26" class="node">
<title>Node26</title>
<g id="a_node26"><a xlink:title=" ">
<polygon fill="white" stroke="#bfbfbf" points="1610.5,-179.5 1610.5,-198.5 1726.5,-198.5 1726.5,-179.5 1610.5,-179.5"/>
<text text-anchor="middle" x="1668.5" y="-186.5" font-family="Helvetica,sans-Serif" font-size="10.00">G4LogicalVolume.hh</text>
</a>
</g>
</g>
<!-- Node15&#45;&gt;Node26 -->
<g id="edge25" class="edge">
<title>Node15&#45;&gt;Node26</title>
<path fill="none" stroke="midnightblue" d="M1549.84,-235.44C1573.25,-226.48 1610.24,-212.31 1636.69,-202.18"/>
<polygon fill="midnightblue" stroke="midnightblue" points="1638.18,-205.36 1646.26,-198.52 1635.67,-198.82 1638.18,-205.36"/>
</g>
<!-- Node27 -->
<g id="node27" class="node">
<title>Node27</title>
<g id="a_node27"><a xlink:title=" ">
<polygon fill="white" stroke="#bfbfbf" points="1744.5,-179.5 1744.5,-198.5 1830.5,-198.5 1830.5,-179.5 1744.5,-179.5"/>
<text text-anchor="middle" x="1787.5" y="-186.5" font-family="Helvetica,sans-Serif" font-size="10.00">G4Material.hh</text>
</a>
</g>
</g>
<!-- Node15&#45;&gt;Node27 -->
<g id="edge26" class="edge">
<title>Node15&#45;&gt;Node27</title>
<path fill="none" stroke="midnightblue" d="M1567.27,-235.74C1612.65,-226.31 1686.98,-210.88 1736.57,-200.58"/>
<polygon fill="midnightblue" stroke="midnightblue" points="1737.37,-203.99 1746.45,-198.53 1735.94,-197.13 1737.37,-203.99"/>
</g>
<!-- Node28 -->
<g id="node28" class="node">
<title>Node28</title>
<g id="a_node28"><a xlink:title=" ">
<polygon fill="white" stroke="#bfbfbf" points="1848.5,-179.5 1848.5,-198.5 1972.5,-198.5 1972.5,-179.5 1848.5,-179.5"/>
<text text-anchor="middle" x="1910.5" y="-186.5" font-family="Helvetica,sans-Serif" font-size="10.00">G4TessellatedSolid.hh</text>
</a>
</g>
</g>
<!-- Node15&#45;&gt;Node28 -->
<g id="edge27" class="edge">
<title>Node15&#45;&gt;Node28</title>
<path fill="none" stroke="midnightblue" d="M1567.05,-236.57C1570.25,-236.02 1573.42,-235.49 1576.5,-235 1625.38,-227.22 1755.54,-210.07 1838.19,-199.33"/>
<polygon fill="midnightblue" stroke="midnightblue" points="1838.81,-202.78 1848.28,-198.02 1837.91,-195.84 1838.81,-202.78"/>
</g>
<!-- Node29 -->
<g id="node29" class="node">
<title>Node29</title>
<g id="a_node29"><a xlink:title=" ">
<polygon fill="white" stroke="#bfbfbf" points="1991,-179.5 1991,-198.5 2050,-198.5 2050,-179.5 1991,-179.5"/>
<text text-anchor="middle" x="2020.5" y="-186.5" font-family="Helvetica,sans-Serif" font-size="10.00">G4Tet.hh</text>
</a>
</g>
</g>
<!-- Node15&#45;&gt;Node29 -->
<g id="edge28" class="edge">
<title>Node15&#45;&gt;Node29</title>
<path fill="none" stroke="midnightblue" d="M1567.03,-236.41C1570.23,-235.9 1573.41,-235.42 1576.5,-235 1752.33,-211.09 1801.28,-226.79 1980.73,-198.89"/>
<polygon fill="midnightblue" stroke="midnightblue" points="1981.44,-202.32 1990.77,-197.31 1980.35,-195.41 1981.44,-202.32"/>
</g>
<!-- Node30 -->
<g id="node30" class="node">
<title>Node30</title>
<g id="a_node30"><a xlink:title=" ">
<polygon fill="white" stroke="#bfbfbf" points="2068.5,-179.5 2068.5,-198.5 2172.5,-198.5 2172.5,-179.5 2068.5,-179.5"/>
<text text-anchor="middle" x="2120.5" y="-186.5" font-family="Helvetica,sans-Serif" font-size="10.00">G4UIcommand.hh</text>
</a>
</g>
</g>
<!-- Node15&#45;&gt;Node30 -->
<g id="edge29" class="edge">
<title>Node15&#45;&gt;Node30</title>
<path fill="none" stroke="midnightblue" d="M1567.02,-236.36C1570.22,-235.86 1573.41,-235.4 1576.5,-235 1786.77,-207.93 1843.83,-222.27 2058.29,-199.05"/>
<polygon fill="midnightblue" stroke="midnightblue" points="2058.73,-202.53 2068.29,-197.96 2057.97,-195.57 2058.73,-202.53"/>
</g>
<!-- Node31 -->
<g id="node31" class="node">
<title>Node31</title>
<g id="a_node31"><a xlink:title=" ">
<polygon fill="white" stroke="#bfbfbf" points="2191,-179.5 2191,-198.5 2258,-198.5 2258,-179.5 2191,-179.5"/>
<text text-anchor="middle" x="2224.5" y="-186.5" font-family="Helvetica,sans-Serif" font-size="10.00">globals.hh</text>
</a>
</g>
</g>
<!-- Node15&#45;&gt;Node31 -->
<g id="edge30" class="edge">
<title>Node15&#45;&gt;Node31</title>
<path fill="none" stroke="midnightblue" d="M1567.02,-236.31C1570.22,-235.82 1573.41,-235.37 1576.5,-235 1840.65,-203 1912.76,-233.91 2180.75,-198.88"/>
<polygon fill="midnightblue" stroke="midnightblue" points="2181.33,-202.33 2190.78,-197.55 2180.41,-195.39 2181.33,-202.33"/>
</g>
<!-- Node32 -->
<g id="node32" class="node">
<title>Node32</title>
<g id="a_node32"><a xlink:title=" ">
<polygon fill="white" stroke="#bfbfbf" points="2276,-179.5 2276,-198.5 2331,-198.5 2331,-179.5 2276,-179.5"/>
<text text-anchor="middle" x="2303.5" y="-186.5" font-family="Helvetica,sans-Serif" font-size="10.00">fstream</text>
</a>
</g>
</g>
<!-- Node15&#45;&gt;Node32 -->
<g id="edge31" class="edge">
<title>Node15&#45;&gt;Node32</title>
<path fill="none" stroke="midnightblue" d="M1567.01,-236.29C1570.22,-235.8 1573.41,-235.36 1576.5,-235 1878.65,-199.53 1961.58,-243.54 2265.71,-199"/>
<polygon fill="midnightblue" stroke="midnightblue" points="2266.32,-202.44 2275.7,-197.51 2265.29,-195.52 2266.32,-202.44"/>
</g>
<!-- Node33 -->
<g id="node33" class="node">
<title>Node33</title>
<g id="a_node33"><a xlink:title=" ">
<polygon fill="white" stroke="#bfbfbf" points="2349.5,-179.5 2349.5,-198.5 2405.5,-198.5 2405.5,-179.5 2349.5,-179.5"/>
<text text-anchor="middle" x="2377.5" y="-186.5" font-family="Helvetica,sans-Serif" font-size="10.00">sstream</text>
</a>
</g>
</g>
<!-- Node15&#45;&gt;Node33 -->
<g id="edge32" class="edge">
<title>Node15&#45;&gt;Node33</title>
<path fill="none" stroke="midnightblue" d="M1567.01,-236.27C1570.21,-235.79 1573.41,-235.36 1576.5,-235 1910.91,-196.59 2002.25,-246.4 2339.28,-198.88"/>
<polygon fill="midnightblue" stroke="midnightblue" points="2339.92,-202.32 2349.33,-197.44 2338.93,-195.39 2339.92,-202.32"/>
</g>
<!-- Node34 -->
<g id="node34" class="node">
<title>Node34</title>
<g id="a_node34"><a xlink:title=" ">
<polygon fill="white" stroke="#bfbfbf" points="2424,-179.5 2424,-198.5 2491,-198.5 2491,-179.5 2424,-179.5"/>
<text text-anchor="middle" x="2457.5" y="-186.5" font-family="Helvetica,sans-Serif" font-size="10.00">streambuf</text>
</a>
</g>
</g>
<!-- Node15&#45;&gt;Node34 -->
<g id="edge33" class="edge">
<title>Node15&#45;&gt;Node34</title>
<path fill="none" stroke="midnightblue" d="M1567.01,-236.26C1570.21,-235.78 1573.41,-235.35 1576.5,-235 1943.68,-193.59 2042.87,-244.43 2413.85,-198.84"/>
<polygon fill="midnightblue" stroke="midnightblue" points="2414.3,-202.31 2423.79,-197.6 2413.43,-195.36 2414.3,-202.31"/>
</g>
<!-- Node35 -->
<g id="node35" class="node">
<title>Node35</title>
<g id="a_node35"><a xlink:title=" ">
<polygon fill="white" stroke="#bfbfbf" points="2509.5,-179.5 2509.5,-198.5 2595.5,-198.5 2595.5,-179.5 2509.5,-179.5"/>
<text text-anchor="middle" x="2552.5" y="-186.5" font-family="Helvetica,sans-Serif" font-size="10.00">Randomize.hh</text>
</a>
</g>
</g>
<!-- Node15&#45;&gt;Node35 -->
<g id="edge34" class="edge">
<title>Node15&#45;&gt;Node35</title>
<path fill="none" stroke="midnightblue" d="M1567.01,-236.24C1570.21,-235.77 1573.41,-235.34 1576.5,-235 1981.69,-190.13 2090.05,-241.3 2499.4,-198.96"/>
<polygon fill="midnightblue" stroke="midnightblue" points="2499.85,-202.43 2509.43,-197.91 2499.12,-195.47 2499.85,-202.43"/>
</g>
</g>
</svg>
