<?xml version="1.0" encoding="UTF-8" standalone="no"?>
<!DOCTYPE svg PUBLIC "-//W3C//DTD SVG 1.1//EN"
 "http://www.w3.org/Graphics/SVG/1.1/DTD/svg11.dtd">
<!-- Generated by graphviz version 2.43.0 (0)
 -->
<!-- Title: OMSim_radioactive_decays.cc Pages: 1 -->
<svg width="2765pt" height="375pt"
 viewBox="0.00 0.00 2764.50 375.00" xmlns="http://www.w3.org/2000/svg" xmlns:xlink="http://www.w3.org/1999/xlink">
<g id="graph0" class="graph" transform="scale(1 1) rotate(0) translate(4 371)">
<title>OMSim_radioactive_decays.cc</title>
<polygon fill="white" stroke="transparent" points="-4,4 -4,-371 2760.5,-371 2760.5,4 -4,4"/>
<!-- Node1 -->
<g id="node1" class="node">
<title>Node1</title>
<g id="a_node1"><a xlink:title="Main for the calculation of effective areas.">
<polygon fill="#bfbfbf" stroke="black" points="1833.5,-347.5 1833.5,-366.5 1998.5,-366.5 1998.5,-347.5 1833.5,-347.5"/>
<text text-anchor="middle" x="1916" y="-354.5" font-family="Helvetica,sans-Serif" font-size="10.00">OMSim_radioactive_decays.cc</text>
</a>
</g>
</g>
<!-- Node2 -->
<g id="node2" class="node">
<title>Node2</title>
<g id="a_node2"><a xlink:href="_o_m_sim_8hh.html" target="_top" xlink:title="Main simulation class for the Optical Module (OM) simulation. This file defines the OMSim class,...">
<polygon fill="white" stroke="black" points="1090.5,-291.5 1090.5,-310.5 1157.5,-310.5 1157.5,-291.5 1090.5,-291.5"/>
<text text-anchor="middle" x="1124" y="-298.5" font-family="Helvetica,sans-Serif" font-size="10.00">OMSim.hh</text>
</a>
</g>
</g>
<!-- Node1&#45;&gt;Node2 -->
<g id="edge1" class="edge">
<title>Node1&#45;&gt;Node2</title>
<path fill="none" stroke="midnightblue" d="M1833.48,-350.37C1666.82,-339.01 1295.07,-313.66 1167.76,-304.98"/>
<polygon fill="midnightblue" stroke="midnightblue" points="1167.83,-301.48 1157.61,-304.29 1167.35,-308.46 1167.83,-301.48"/>
</g>
<!-- Node27 -->
<g id="node27" class="node">
<title>Node27</title>
<g id="a_node27"><a xlink:href="_o_m_sim_decays_g_p_s_8hh.html" target="_top" xlink:title=" ">
<polygon fill="white" stroke="black" points="1987,-291.5 1987,-310.5 2109,-310.5 2109,-291.5 1987,-291.5"/>
<text text-anchor="middle" x="2048" y="-298.5" font-family="Helvetica,sans-Serif" font-size="10.00">OMSimDecaysGPS.hh</text>
</a>
</g>
</g>
<!-- Node1&#45;&gt;Node27 -->
<g id="edge26" class="edge">
<title>Node1&#45;&gt;Node27</title>
<path fill="none" stroke="midnightblue" d="M1936.92,-347.44C1958.74,-338.52 1993.15,-324.44 2017.89,-314.32"/>
<polygon fill="midnightblue" stroke="midnightblue" points="2019.25,-317.54 2027.18,-310.52 2016.6,-311.06 2019.25,-317.54"/>
</g>
<!-- Node42 -->
<g id="node42" class="node">
<title>Node42</title>
<g id="a_node42"><a xlink:href="_o_m_sim_hit_manager_8hh.html" target="_top" xlink:title="Defines structures and classes related to optical module photon hit management.">
<polygon fill="white" stroke="black" points="1848.5,-179.5 1848.5,-198.5 1971.5,-198.5 1971.5,-179.5 1848.5,-179.5"/>
<text text-anchor="middle" x="1910" y="-186.5" font-family="Helvetica,sans-Serif" font-size="10.00">OMSimHitManager.hh</text>
</a>
</g>
</g>
<!-- Node1&#45;&gt;Node42 -->
<g id="edge42" class="edge">
<title>Node1&#45;&gt;Node42</title>
<path fill="none" stroke="midnightblue" d="M1915.68,-347.08C1914.73,-320.95 1911.96,-244.21 1910.67,-208.58"/>
<polygon fill="midnightblue" stroke="midnightblue" points="1914.17,-208.44 1910.31,-198.57 1907.17,-208.69 1914.17,-208.44"/>
</g>
<!-- Node49 -->
<g id="node49" class="node">
<title>Node49</title>
<g id="a_node49"><a xlink:href="_o_m_sim_decays_analysis_8hh.html" target="_top" xlink:title=" ">
<polygon fill="white" stroke="black" points="1686,-179.5 1686,-198.5 1830,-198.5 1830,-179.5 1686,-179.5"/>
<text text-anchor="middle" x="1758" y="-186.5" font-family="Helvetica,sans-Serif" font-size="10.00">OMSimDecaysAnalysis.hh</text>
</a>
</g>
</g>
<!-- Node1&#45;&gt;Node49 -->
<g id="edge51" class="edge">
<title>Node1&#45;&gt;Node49</title>
<path fill="none" stroke="midnightblue" d="M1914.3,-347.31C1909.28,-322.46 1893.9,-251.79 1878,-235 1862.35,-218.47 1840.03,-207.96 1818.89,-201.31"/>
<polygon fill="midnightblue" stroke="midnightblue" points="1819.86,-197.95 1809.28,-198.51 1817.9,-204.67 1819.86,-197.95"/>
</g>
<!-- Node3 -->
<g id="node3" class="node">
<title>Node3</title>
<g id="a_node3"><a xlink:title=" ">
<polygon fill="white" stroke="#bfbfbf" points="168,-235.5 168,-254.5 338,-254.5 338,-235.5 168,-235.5"/>
<text text-anchor="middle" x="253" y="-242.5" font-family="Helvetica,sans-Serif" font-size="10.00">OMSimDetectorConstruction.hh</text>
</a>
</g>
</g>
<!-- Node2&#45;&gt;Node3 -->
<g id="edge2" class="edge">
<title>Node2&#45;&gt;Node3</title>
<path fill="none" stroke="midnightblue" d="M1090.27,-298.5C983.33,-293.65 642.08,-277.44 348.04,-255.05"/>
<polygon fill="midnightblue" stroke="midnightblue" points="348.28,-251.56 338.04,-254.29 347.75,-258.54 348.28,-251.56"/>
</g>
<!-- Node4 -->
<g id="node4" class="node">
<title>Node4</title>
<g id="a_node4"><a xlink:title=" ">
<polygon fill="white" stroke="#bfbfbf" points="356.5,-235.5 356.5,-254.5 477.5,-254.5 477.5,-235.5 356.5,-235.5"/>
<text text-anchor="middle" x="417" y="-242.5" font-family="Helvetica,sans-Serif" font-size="10.00">OMSimPhysicsList.hh</text>
</a>
</g>
</g>
<!-- Node2&#45;&gt;Node4 -->
<g id="edge3" class="edge">
<title>Node2&#45;&gt;Node4</title>
<path fill="none" stroke="midnightblue" d="M1090.39,-298.33C996.7,-293.54 724.49,-278.59 487.74,-255.12"/>
<polygon fill="midnightblue" stroke="midnightblue" points="487.86,-251.62 477.56,-254.11 487.16,-258.58 487.86,-251.62"/>
</g>
<!-- Node5 -->
<g id="node5" class="node">
<title>Node5</title>
<g id="a_node5"><a xlink:title=" ">
<polygon fill="white" stroke="#bfbfbf" points="495.5,-235.5 495.5,-254.5 680.5,-254.5 680.5,-235.5 495.5,-235.5"/>
<text text-anchor="middle" x="588" y="-242.5" font-family="Helvetica,sans-Serif" font-size="10.00">OMSimPrimaryGeneratorAction.hh</text>
</a>
</g>
</g>
<!-- Node2&#45;&gt;Node5 -->
<g id="edge4" class="edge">
<title>Node2&#45;&gt;Node5</title>
<path fill="none" stroke="midnightblue" d="M1090.47,-296.62C1010.22,-288.54 804.72,-267.83 682.82,-255.55"/>
<polygon fill="midnightblue" stroke="midnightblue" points="683.05,-252.06 672.75,-254.54 682.34,-259.02 683.05,-252.06"/>
</g>
<!-- Node6 -->
<g id="node6" class="node">
<title>Node6</title>
<g id="a_node6"><a xlink:href="_o_m_sim_run_action_8hh.html" target="_top" xlink:title=" ">
<polygon fill="white" stroke="black" points="698,-235.5 698,-254.5 814,-254.5 814,-235.5 698,-235.5"/>
<text text-anchor="middle" x="756" y="-242.5" font-family="Helvetica,sans-Serif" font-size="10.00">OMSimRunAction.hh</text>
</a>
</g>
</g>
<!-- Node2&#45;&gt;Node6 -->
<g id="edge5" class="edge">
<title>Node2&#45;&gt;Node6</title>
<path fill="none" stroke="midnightblue" d="M1090.37,-295.06C1030.25,-286.24 903.29,-267.61 824.27,-256.02"/>
<polygon fill="midnightblue" stroke="midnightblue" points="824.33,-252.49 813.93,-254.5 823.31,-259.42 824.33,-252.49"/>
</g>
<!-- Node8 -->
<g id="node8" class="node">
<title>Node8</title>
<g id="a_node8"><a xlink:title=" ">
<polygon fill="white" stroke="#bfbfbf" points="832.5,-235.5 832.5,-254.5 957.5,-254.5 957.5,-235.5 832.5,-235.5"/>
<text text-anchor="middle" x="895" y="-242.5" font-family="Helvetica,sans-Serif" font-size="10.00">OMSimEventAction.hh</text>
</a>
</g>
</g>
<!-- Node2&#45;&gt;Node8 -->
<g id="edge7" class="edge">
<title>Node2&#45;&gt;Node8</title>
<path fill="none" stroke="midnightblue" d="M1090.21,-292.03C1050.74,-282.72 985.22,-267.27 941.1,-256.87"/>
<polygon fill="midnightblue" stroke="midnightblue" points="941.74,-253.42 931.2,-254.54 940.13,-260.24 941.74,-253.42"/>
</g>
<!-- Node9 -->
<g id="node9" class="node">
<title>Node9</title>
<g id="a_node9"><a xlink:href="_o_m_sim_tracking_action_8hh.html" target="_top" xlink:title=" ">
<polygon fill="white" stroke="black" points="976,-235.5 976,-254.5 1114,-254.5 1114,-235.5 976,-235.5"/>
<text text-anchor="middle" x="1045" y="-242.5" font-family="Helvetica,sans-Serif" font-size="10.00">OMSimTrackingAction.hh</text>
</a>
</g>
</g>
<!-- Node2&#45;&gt;Node9 -->
<g id="edge8" class="edge">
<title>Node2&#45;&gt;Node9</title>
<path fill="none" stroke="midnightblue" d="M1111.31,-291.32C1099.1,-282.98 1080.42,-270.21 1066,-260.35"/>
<polygon fill="midnightblue" stroke="midnightblue" points="1067.89,-257.41 1057.66,-254.65 1063.94,-263.19 1067.89,-257.41"/>
</g>
<!-- Node11 -->
<g id="node11" class="node">
<title>Node11</title>
<g id="a_node11"><a xlink:href="_o_m_sim_stepping_action_8hh.html" target="_top" xlink:title="Defines OMSimSteppingAction.Currently it only checks for trapped photons.">
<polygon fill="white" stroke="black" points="1132,-235.5 1132,-254.5 1272,-254.5 1272,-235.5 1132,-235.5"/>
<text text-anchor="middle" x="1202" y="-242.5" font-family="Helvetica,sans-Serif" font-size="10.00">OMSimSteppingAction.hh</text>
</a>
</g>
</g>
<!-- Node2&#45;&gt;Node11 -->
<g id="edge10" class="edge">
<title>Node2&#45;&gt;Node11</title>
<path fill="none" stroke="midnightblue" d="M1136.53,-291.32C1148.59,-282.98 1167.03,-270.21 1181.27,-260.35"/>
<polygon fill="midnightblue" stroke="midnightblue" points="1183.27,-263.22 1189.5,-254.65 1179.28,-257.47 1183.27,-263.22"/>
</g>
<!-- Node13 -->
<g id="node13" class="node">
<title>Node13</title>
<g id="a_node13"><a xlink:href="_o_m_sim_u_iinterface_8hh.html" target="_top" xlink:title="The OMSimUIinterface class provides a singleton interface to Geant4&#39;s UI manager.">
<polygon fill="white" stroke="black" points="1290.5,-235.5 1290.5,-254.5 1411.5,-254.5 1411.5,-235.5 1290.5,-235.5"/>
<text text-anchor="middle" x="1351" y="-242.5" font-family="Helvetica,sans-Serif" font-size="10.00">OMSimUIinterface.hh</text>
</a>
</g>
</g>
<!-- Node2&#45;&gt;Node13 -->
<g id="edge12" class="edge">
<title>Node2&#45;&gt;Node13</title>
<path fill="none" stroke="midnightblue" d="M1157.98,-291.92C1197.11,-282.61 1261.58,-267.27 1305.13,-256.91"/>
<polygon fill="midnightblue" stroke="midnightblue" points="1305.99,-260.31 1314.9,-254.59 1304.37,-253.5 1305.99,-260.31"/>
</g>
<!-- Node22 -->
<g id="node22" class="node">
<title>Node22</title>
<g id="a_node22"><a xlink:title=" ">
<polygon fill="white" stroke="#bfbfbf" points="1430,-235.5 1430,-254.5 1536,-254.5 1536,-235.5 1430,-235.5"/>
<text text-anchor="middle" x="1483" y="-242.5" font-family="Helvetica,sans-Serif" font-size="10.00">G4RunManager.hh</text>
</a>
</g>
</g>
<!-- Node2&#45;&gt;Node22 -->
<g id="edge21" class="edge">
<title>Node2&#45;&gt;Node22</title>
<path fill="none" stroke="midnightblue" d="M1157.77,-294.92C1217.66,-285.91 1343.33,-267.01 1419.72,-255.52"/>
<polygon fill="midnightblue" stroke="midnightblue" points="1420.34,-258.97 1429.7,-254.02 1419.3,-252.04 1420.34,-258.97"/>
</g>
<!-- Node23 -->
<g id="node23" class="node">
<title>Node23</title>
<g id="a_node23"><a xlink:title=" ">
<polygon fill="white" stroke="#bfbfbf" points="1554.5,-235.5 1554.5,-254.5 1661.5,-254.5 1661.5,-235.5 1554.5,-235.5"/>
<text text-anchor="middle" x="1608" y="-242.5" font-family="Helvetica,sans-Serif" font-size="10.00">G4VisExecutive.hh</text>
</a>
</g>
</g>
<!-- Node2&#45;&gt;Node23 -->
<g id="edge22" class="edge">
<title>Node2&#45;&gt;Node23</title>
<path fill="none" stroke="midnightblue" d="M1157.61,-296.82C1227.42,-290.11 1393.44,-273.72 1544.05,-255.08"/>
<polygon fill="midnightblue" stroke="midnightblue" points="1544.91,-258.5 1554.4,-253.79 1544.05,-251.55 1544.91,-258.5"/>
</g>
<!-- Node24 -->
<g id="node24" class="node">
<title>Node24</title>
<g id="a_node24"><a xlink:title=" ">
<polygon fill="white" stroke="#bfbfbf" points="1679.5,-235.5 1679.5,-254.5 1782.5,-254.5 1782.5,-235.5 1679.5,-235.5"/>
<text text-anchor="middle" x="1731" y="-242.5" font-family="Helvetica,sans-Serif" font-size="10.00">G4UIExecutive.hh</text>
</a>
</g>
</g>
<!-- Node2&#45;&gt;Node24 -->
<g id="edge23" class="edge">
<title>Node2&#45;&gt;Node24</title>
<path fill="none" stroke="midnightblue" d="M1157.62,-297.98C1241.84,-292.77 1468.82,-277.73 1669.32,-255"/>
<polygon fill="midnightblue" stroke="midnightblue" points="1669.91,-258.46 1679.45,-253.84 1669.11,-251.5 1669.91,-258.46"/>
</g>
<!-- Node25 -->
<g id="node25" class="node">
<title>Node25</title>
<g id="a_node25"><a xlink:title=" ">
<polygon fill="white" stroke="#bfbfbf" points="1801,-235.5 1801,-254.5 1869,-254.5 1869,-235.5 1801,-235.5"/>
<text text-anchor="middle" x="1835" y="-242.5" font-family="Helvetica,sans-Serif" font-size="10.00">filesystem</text>
</a>
</g>
</g>
<!-- Node2&#45;&gt;Node25 -->
<g id="edge24" class="edge">
<title>Node2&#45;&gt;Node25</title>
<path fill="none" stroke="midnightblue" d="M1157.82,-299.32C1256.07,-297.01 1549.76,-287.66 1791,-255 1791.1,-254.99 1791.2,-254.97 1791.3,-254.96"/>
<polygon fill="midnightblue" stroke="midnightblue" points="1791.64,-258.45 1800.97,-253.43 1790.54,-251.54 1791.64,-258.45"/>
</g>
<!-- Node26 -->
<g id="node26" class="node">
<title>Node26</title>
<g id="a_node26"><a xlink:title=" ">
<polygon fill="white" stroke="#bfbfbf" points="0,-235.5 0,-254.5 150,-254.5 150,-235.5 0,-235.5"/>
<text text-anchor="middle" x="75" y="-242.5" font-family="Helvetica,sans-Serif" font-size="10.00">boost/program_options.hpp</text>
</a>
</g>
</g>
<!-- Node2&#45;&gt;Node26 -->
<g id="edge25" class="edge">
<title>Node2&#45;&gt;Node26</title>
<path fill="none" stroke="midnightblue" d="M1090.2,-299.16C967.11,-295.95 531.11,-283.2 160.21,-255.04"/>
<polygon fill="midnightblue" stroke="midnightblue" points="160.32,-251.54 150.09,-254.27 159.79,-258.52 160.32,-251.54"/>
</g>
<!-- Node7 -->
<g id="node7" class="node">
<title>Node7</title>
<g id="a_node7"><a xlink:title=" ">
<polygon fill="white" stroke="#bfbfbf" points="697.5,-179.5 697.5,-198.5 814.5,-198.5 814.5,-179.5 697.5,-179.5"/>
<text text-anchor="middle" x="756" y="-186.5" font-family="Helvetica,sans-Serif" font-size="10.00">G4UserRunAction.hh</text>
</a>
</g>
</g>
<!-- Node6&#45;&gt;Node7 -->
<g id="edge6" class="edge">
<title>Node6&#45;&gt;Node7</title>
<path fill="none" stroke="midnightblue" d="M756,-235.08C756,-228.01 756,-217.86 756,-208.99"/>
<polygon fill="midnightblue" stroke="midnightblue" points="759.5,-208.75 756,-198.75 752.5,-208.75 759.5,-208.75"/>
</g>
<!-- Node10 -->
<g id="node10" class="node">
<title>Node10</title>
<g id="a_node10"><a xlink:title=" ">
<polygon fill="white" stroke="#bfbfbf" points="974.5,-179.5 974.5,-198.5 1113.5,-198.5 1113.5,-179.5 974.5,-179.5"/>
<text text-anchor="middle" x="1044" y="-186.5" font-family="Helvetica,sans-Serif" font-size="10.00">G4UserTrackingAction.hh</text>
</a>
</g>
</g>
<!-- Node9&#45;&gt;Node10 -->
<g id="edge9" class="edge">
<title>Node9&#45;&gt;Node10</title>
<path fill="none" stroke="midnightblue" d="M1044.83,-235.08C1044.7,-228.01 1044.52,-217.86 1044.35,-208.99"/>
<polygon fill="midnightblue" stroke="midnightblue" points="1047.85,-208.68 1044.16,-198.75 1040.85,-208.81 1047.85,-208.68"/>
</g>
<!-- Node12 -->
<g id="node12" class="node">
<title>Node12</title>
<g id="a_node12"><a xlink:title=" ">
<polygon fill="white" stroke="#bfbfbf" points="1131.5,-179.5 1131.5,-198.5 1272.5,-198.5 1272.5,-179.5 1131.5,-179.5"/>
<text text-anchor="middle" x="1202" y="-186.5" font-family="Helvetica,sans-Serif" font-size="10.00">G4UserSteppingAction.hh</text>
</a>
</g>
</g>
<!-- Node11&#45;&gt;Node12 -->
<g id="edge11" class="edge">
<title>Node11&#45;&gt;Node12</title>
<path fill="none" stroke="midnightblue" d="M1202,-235.08C1202,-228.01 1202,-217.86 1202,-208.99"/>
<polygon fill="midnightblue" stroke="midnightblue" points="1205.5,-208.75 1202,-198.75 1198.5,-208.75 1205.5,-208.75"/>
</g>
<!-- Node14 -->
<g id="node14" class="node">
<title>Node14</title>
<g id="a_node14"><a xlink:href="_o_m_sim_command_args_table_8hh.html" target="_top" xlink:title="Definition of the OMSimCommandArgsTable singleton class, which controls user args.">
<polygon fill="white" stroke="black" points="1291,-179.5 1291,-198.5 1455,-198.5 1455,-179.5 1291,-179.5"/>
<text text-anchor="middle" x="1373" y="-186.5" font-family="Helvetica,sans-Serif" font-size="10.00">OMSimCommandArgsTable.hh</text>
</a>
</g>
</g>
<!-- Node13&#45;&gt;Node14 -->
<g id="edge13" class="edge">
<title>Node13&#45;&gt;Node14</title>
<path fill="none" stroke="midnightblue" d="M1354.63,-235.08C1357.61,-227.77 1361.93,-217.18 1365.62,-208.1"/>
<polygon fill="midnightblue" stroke="midnightblue" points="1368.9,-209.33 1369.43,-198.75 1362.42,-206.69 1368.9,-209.33"/>
</g>
<!-- Node21 -->
<g id="node21" class="node">
<title>Node21</title>
<g id="a_node21"><a xlink:title=" ">
<polygon fill="white" stroke="#bfbfbf" points="1473,-179.5 1473,-198.5 1571,-198.5 1571,-179.5 1473,-179.5"/>
<text text-anchor="middle" x="1522" y="-186.5" font-family="Helvetica,sans-Serif" font-size="10.00">G4UImanager.hh</text>
</a>
</g>
</g>
<!-- Node13&#45;&gt;Node21 -->
<g id="edge20" class="edge">
<title>Node13&#45;&gt;Node21</title>
<path fill="none" stroke="midnightblue" d="M1378.1,-235.44C1406.99,-226.32 1452.92,-211.81 1485.11,-201.65"/>
<polygon fill="midnightblue" stroke="midnightblue" points="1486.55,-204.87 1495.03,-198.52 1484.44,-198.19 1486.55,-204.87"/>
</g>
<!-- Node15 -->
<g id="node15" class="node">
<title>Node15</title>
<g id="a_node15"><a xlink:href="_o_m_sim_logger_8hh.html" target="_top" xlink:title=" ">
<polygon fill="white" stroke="black" points="1213.5,-123.5 1213.5,-142.5 1312.5,-142.5 1312.5,-123.5 1213.5,-123.5"/>
<text text-anchor="middle" x="1263" y="-130.5" font-family="Helvetica,sans-Serif" font-size="10.00">OMSimLogger.hh</text>
</a>
</g>
</g>
<!-- Node14&#45;&gt;Node15 -->
<g id="edge14" class="edge">
<title>Node14&#45;&gt;Node15</title>
<path fill="none" stroke="midnightblue" d="M1355.33,-179.32C1337.61,-170.62 1310.1,-157.12 1289.71,-147.11"/>
<polygon fill="midnightblue" stroke="midnightblue" points="1291.15,-143.92 1280.63,-142.65 1288.06,-150.2 1291.15,-143.92"/>
</g>
<!-- Node18 -->
<g id="node18" class="node">
<title>Node18</title>
<g id="a_node18"><a xlink:title=" ">
<polygon fill="white" stroke="#bfbfbf" points="1648.5,-123.5 1648.5,-142.5 1703.5,-142.5 1703.5,-123.5 1648.5,-123.5"/>
<text text-anchor="middle" x="1676" y="-130.5" font-family="Helvetica,sans-Serif" font-size="10.00">fstream</text>
</a>
</g>
</g>
<!-- Node14&#45;&gt;Node18 -->
<g id="edge17" class="edge">
<title>Node14&#45;&gt;Node18</title>
<path fill="none" stroke="midnightblue" d="M1421.01,-179.44C1481.21,-168.72 1583.17,-150.54 1638.15,-140.75"/>
<polygon fill="midnightblue" stroke="midnightblue" points="1638.94,-144.16 1648.17,-138.96 1637.71,-137.27 1638.94,-144.16"/>
</g>
<!-- Node19 -->
<g id="node19" class="node">
<title>Node19</title>
<g id="a_node19"><a xlink:title=" ">
<polygon fill="white" stroke="#bfbfbf" points="1331,-123.5 1331,-142.5 1415,-142.5 1415,-123.5 1331,-123.5"/>
<text text-anchor="middle" x="1373" y="-130.5" font-family="Helvetica,sans-Serif" font-size="10.00">boost/any.hpp</text>
</a>
</g>
</g>
<!-- Node14&#45;&gt;Node19 -->
<g id="edge18" class="edge">
<title>Node14&#45;&gt;Node19</title>
<path fill="none" stroke="midnightblue" d="M1373,-179.08C1373,-172.01 1373,-161.86 1373,-152.99"/>
<polygon fill="midnightblue" stroke="midnightblue" points="1376.5,-152.75 1373,-142.75 1369.5,-152.75 1376.5,-152.75"/>
</g>
<!-- Node20 -->
<g id="node20" class="node">
<title>Node20</title>
<g id="a_node20"><a xlink:title=" ">
<polygon fill="white" stroke="#bfbfbf" points="1433,-123.5 1433,-142.5 1501,-142.5 1501,-123.5 1433,-123.5"/>
<text text-anchor="middle" x="1467" y="-130.5" font-family="Helvetica,sans-Serif" font-size="10.00">sys/time.h</text>
</a>
</g>
</g>
<!-- Node14&#45;&gt;Node20 -->
<g id="edge19" class="edge">
<title>Node14&#45;&gt;Node20</title>
<path fill="none" stroke="midnightblue" d="M1388.1,-179.32C1402.9,-170.82 1425.69,-157.73 1442.98,-147.8"/>
<polygon fill="midnightblue" stroke="midnightblue" points="1445.01,-150.67 1451.93,-142.65 1441.52,-144.6 1445.01,-150.67"/>
</g>
<!-- Node16 -->
<g id="node16" class="node">
<title>Node16</title>
<g id="a_node16"><a xlink:title=" ">
<polygon fill="white" stroke="#bfbfbf" points="1205,-67.5 1205,-86.5 1255,-86.5 1255,-67.5 1205,-67.5"/>
<text text-anchor="middle" x="1230" y="-74.5" font-family="Helvetica,sans-Serif" font-size="10.00">stdio.h</text>
</a>
</g>
</g>
<!-- Node15&#45;&gt;Node16 -->
<g id="edge15" class="edge">
<title>Node15&#45;&gt;Node16</title>
<path fill="none" stroke="midnightblue" d="M1257.55,-123.08C1252.99,-115.61 1246.33,-104.72 1240.71,-95.52"/>
<polygon fill="midnightblue" stroke="midnightblue" points="1243.55,-93.46 1235.35,-86.75 1237.58,-97.11 1243.55,-93.46"/>
</g>
<!-- Node17 -->
<g id="node17" class="node">
<title>Node17</title>
<g id="a_node17"><a xlink:title=" ">
<polygon fill="white" stroke="#bfbfbf" points="1273,-67.5 1273,-86.5 1321,-86.5 1321,-67.5 1273,-67.5"/>
<text text-anchor="middle" x="1297" y="-74.5" font-family="Helvetica,sans-Serif" font-size="10.00">time.h</text>
</a>
</g>
</g>
<!-- Node15&#45;&gt;Node17 -->
<g id="edge16" class="edge">
<title>Node15&#45;&gt;Node17</title>
<path fill="none" stroke="midnightblue" d="M1268.61,-123.08C1273.37,-115.53 1280.32,-104.49 1286.15,-95.23"/>
<polygon fill="midnightblue" stroke="midnightblue" points="1289.12,-97.08 1291.49,-86.75 1283.2,-93.35 1289.12,-97.08"/>
</g>
<!-- Node28 -->
<g id="node28" class="node">
<title>Node28</title>
<g id="a_node28"><a xlink:href="_o_m_sim_optical_module_8hh.html" target="_top" xlink:title=" ">
<polygon fill="white" stroke="black" points="2111.5,-235.5 2111.5,-254.5 2248.5,-254.5 2248.5,-235.5 2111.5,-235.5"/>
<text text-anchor="middle" x="2180" y="-242.5" font-family="Helvetica,sans-Serif" font-size="10.00">OMSimOpticalModule.hh</text>
</a>
</g>
</g>
<!-- Node27&#45;&gt;Node28 -->
<g id="edge27" class="edge">
<title>Node27&#45;&gt;Node28</title>
<path fill="none" stroke="midnightblue" d="M2068.92,-291.44C2090.74,-282.52 2125.15,-268.44 2149.89,-258.32"/>
<polygon fill="midnightblue" stroke="midnightblue" points="2151.25,-261.54 2159.18,-254.52 2148.6,-255.06 2151.25,-261.54"/>
</g>
<!-- Node41 -->
<g id="node41" class="node">
<title>Node41</title>
<g id="a_node41"><a xlink:title=" ">
<polygon fill="white" stroke="#bfbfbf" points="2014.5,-235.5 2014.5,-254.5 2081.5,-254.5 2081.5,-235.5 2014.5,-235.5"/>
<text text-anchor="middle" x="2048" y="-242.5" font-family="Helvetica,sans-Serif" font-size="10.00">globals.hh</text>
</a>
</g>
</g>
<!-- Node27&#45;&gt;Node41 -->
<g id="edge41" class="edge">
<title>Node27&#45;&gt;Node41</title>
<path fill="none" stroke="midnightblue" d="M2048,-291.08C2048,-284.01 2048,-273.86 2048,-264.99"/>
<polygon fill="midnightblue" stroke="midnightblue" points="2051.5,-264.75 2048,-254.75 2044.5,-264.75 2051.5,-264.75"/>
</g>
<!-- Node29 -->
<g id="node29" class="node">
<title>Node29</title>
<g id="a_node29"><a xlink:href="abc_detector_component_8hh.html" target="_top" xlink:title="Provides helper base class abcDetectorComponent for constructing and managing detector components in ...">
<polygon fill="white" stroke="black" points="2247.5,-123.5 2247.5,-142.5 2394.5,-142.5 2394.5,-123.5 2247.5,-123.5"/>
<text text-anchor="middle" x="2321" y="-130.5" font-family="Helvetica,sans-Serif" font-size="10.00">abcDetectorComponent.hh</text>
</a>
</g>
</g>
<!-- Node28&#45;&gt;Node29 -->
<g id="edge28" class="edge">
<title>Node28&#45;&gt;Node29</title>
<path fill="none" stroke="midnightblue" d="M2200.29,-235.41C2217.87,-227.43 2243.46,-214.46 2263,-199 2280.71,-184.99 2297.49,-165.21 2308.4,-151.16"/>
<polygon fill="midnightblue" stroke="midnightblue" points="2311.43,-152.96 2314.67,-142.87 2305.85,-148.73 2311.43,-152.96"/>
</g>
<!-- Node38 -->
<g id="node38" class="node">
<title>Node38</title>
<g id="a_node38"><a xlink:href="_o_m_sim_p_m_t_construction_8hh.html" target="_top" xlink:title="Construction of the PMTs.">
<polygon fill="white" stroke="black" points="2105.5,-179.5 2105.5,-198.5 2254.5,-198.5 2254.5,-179.5 2105.5,-179.5"/>
<text text-anchor="middle" x="2180" y="-186.5" font-family="Helvetica,sans-Serif" font-size="10.00">OMSimPMTConstruction.hh</text>
</a>
</g>
</g>
<!-- Node28&#45;&gt;Node38 -->
<g id="edge37" class="edge">
<title>Node28&#45;&gt;Node38</title>
<path fill="none" stroke="midnightblue" d="M2180,-235.08C2180,-228.01 2180,-217.86 2180,-208.99"/>
<polygon fill="midnightblue" stroke="midnightblue" points="2183.5,-208.75 2180,-198.75 2176.5,-208.75 2183.5,-208.75"/>
</g>
<!-- Node30 -->
<g id="node30" class="node">
<title>Node30</title>
<g id="a_node30"><a xlink:href="_o_m_sim_input_data_8hh.html" target="_top" xlink:title="Input data from external files are read and saved to memory.">
<polygon fill="white" stroke="black" points="2554.5,-67.5 2554.5,-86.5 2669.5,-86.5 2669.5,-67.5 2554.5,-67.5"/>
<text text-anchor="middle" x="2612" y="-74.5" font-family="Helvetica,sans-Serif" font-size="10.00">OMSimInputData.hh</text>
</a>
</g>
</g>
<!-- Node29&#45;&gt;Node30 -->
<g id="edge29" class="edge">
<title>Node29&#45;&gt;Node30</title>
<path fill="none" stroke="midnightblue" d="M2367.11,-123.44C2418.41,-113.92 2501.27,-98.55 2556.19,-88.36"/>
<polygon fill="midnightblue" stroke="midnightblue" points="2556.91,-91.78 2566.11,-86.52 2555.64,-84.9 2556.91,-91.78"/>
</g>
<!-- Node34 -->
<g id="node34" class="node">
<title>Node34</title>
<g id="a_node34"><a xlink:title=" ">
<polygon fill="white" stroke="#bfbfbf" points="2030.5,-67.5 2030.5,-86.5 2137.5,-86.5 2137.5,-67.5 2030.5,-67.5"/>
<text text-anchor="middle" x="2084" y="-74.5" font-family="Helvetica,sans-Serif" font-size="10.00">G4Transform3D.hh</text>
</a>
</g>
</g>
<!-- Node29&#45;&gt;Node34 -->
<g id="edge33" class="edge">
<title>Node29&#45;&gt;Node34</title>
<path fill="none" stroke="midnightblue" d="M2283.45,-123.44C2242.19,-114.04 2175.86,-98.93 2131.13,-88.74"/>
<polygon fill="midnightblue" stroke="midnightblue" points="2131.91,-85.33 2121.38,-86.52 2130.35,-92.15 2131.91,-85.33"/>
</g>
<!-- Node35 -->
<g id="node35" class="node">
<title>Node35</title>
<g id="a_node35"><a xlink:title=" ">
<polygon fill="white" stroke="#bfbfbf" points="2156,-67.5 2156,-86.5 2264,-86.5 2264,-67.5 2156,-67.5"/>
<text text-anchor="middle" x="2210" y="-74.5" font-family="Helvetica,sans-Serif" font-size="10.00">G4VisAttributes.hh</text>
</a>
</g>
</g>
<!-- Node29&#45;&gt;Node35 -->
<g id="edge34" class="edge">
<title>Node29&#45;&gt;Node35</title>
<path fill="none" stroke="midnightblue" d="M2303.17,-123.32C2285.28,-114.62 2257.52,-101.12 2236.95,-91.11"/>
<polygon fill="midnightblue" stroke="midnightblue" points="2238.31,-87.88 2227.79,-86.65 2235.25,-94.18 2238.31,-87.88"/>
</g>
<!-- Node36 -->
<g id="node36" class="node">
<title>Node36</title>
<g id="a_node36"><a xlink:title=" ">
<polygon fill="white" stroke="#bfbfbf" points="2282.5,-67.5 2282.5,-86.5 2407.5,-86.5 2407.5,-67.5 2282.5,-67.5"/>
<text text-anchor="middle" x="2345" y="-74.5" font-family="Helvetica,sans-Serif" font-size="10.00">G4SubtractionSolid.hh</text>
</a>
</g>
</g>
<!-- Node29&#45;&gt;Node36 -->
<g id="edge35" class="edge">
<title>Node29&#45;&gt;Node36</title>
<path fill="none" stroke="midnightblue" d="M2324.96,-123.08C2328.21,-115.77 2332.92,-105.18 2336.95,-96.1"/>
<polygon fill="midnightblue" stroke="midnightblue" points="2340.25,-97.31 2341.11,-86.75 2333.85,-94.47 2340.25,-97.31"/>
</g>
<!-- Node37 -->
<g id="node37" class="node">
<title>Node37</title>
<g id="a_node37"><a xlink:title=" ">
<polygon fill="white" stroke="#bfbfbf" points="2426,-67.5 2426,-86.5 2536,-86.5 2536,-67.5 2426,-67.5"/>
<text text-anchor="middle" x="2481" y="-74.5" font-family="Helvetica,sans-Serif" font-size="10.00">G4PVPlacement.hh</text>
</a>
</g>
</g>
<!-- Node29&#45;&gt;Node37 -->
<g id="edge36" class="edge">
<title>Node29&#45;&gt;Node37</title>
<path fill="none" stroke="midnightblue" d="M2346.35,-123.44C2373.27,-114.36 2416,-99.94 2446.09,-89.78"/>
<polygon fill="midnightblue" stroke="midnightblue" points="2447.41,-93.03 2455.77,-86.52 2445.17,-86.4 2447.41,-93.03"/>
</g>
<!-- Node31 -->
<g id="node31" class="node">
<title>Node31</title>
<g id="a_node31"><a xlink:title=" ">
<polygon fill="white" stroke="#bfbfbf" points="2613.5,-6 2613.5,-25 2756.5,-25 2756.5,-6 2613.5,-6"/>
<text text-anchor="middle" x="2685" y="-13" font-family="Helvetica,sans-Serif" font-size="10.00">G4OpBoundaryProcess.hh</text>
</a>
</g>
</g>
<!-- Node30&#45;&gt;Node31 -->
<g id="edge30" class="edge">
<title>Node30&#45;&gt;Node31</title>
<path fill="none" stroke="midnightblue" d="M2622.46,-67.48C2633.95,-58.11 2652.63,-42.88 2666.59,-31.51"/>
<polygon fill="midnightblue" stroke="midnightblue" points="2669.02,-34.04 2674.56,-25.01 2664.6,-28.61 2669.02,-34.04"/>
</g>
<!-- Node32 -->
<g id="node32" class="node">
<title>Node32</title>
<g id="a_node32"><a xlink:title=" ">
<polygon fill="white" stroke="#bfbfbf" points="2180.5,-6 2180.5,-25 2299.5,-25 2299.5,-6 2180.5,-6"/>
<text text-anchor="middle" x="2240" y="-13" font-family="Helvetica,sans-Serif" font-size="10.00">G4SystemOfUnits.hh</text>
</a>
</g>
</g>
<!-- Node30&#45;&gt;Node32 -->
<g id="edge31" class="edge">
<title>Node30&#45;&gt;Node32</title>
<path fill="none" stroke="midnightblue" d="M2558.7,-67.48C2491.3,-56.69 2375.39,-38.15 2303.48,-26.65"/>
<polygon fill="midnightblue" stroke="midnightblue" points="2303.63,-23.13 2293.2,-25.01 2302.52,-30.04 2303.63,-23.13"/>
</g>
<!-- Node33 -->
<g id="node33" class="node">
<title>Node33</title>
<g id="a_node33"><a xlink:title=" ">
<polygon fill="white" stroke="#bfbfbf" points="2482.5,-0.5 2482.5,-30.5 2595.5,-30.5 2595.5,-0.5 2482.5,-0.5"/>
<text text-anchor="start" x="2490.5" y="-18.5" font-family="Helvetica,sans-Serif" font-size="10.00">boost/property_tree</text>
<text text-anchor="middle" x="2539" y="-7.5" font-family="Helvetica,sans-Serif" font-size="10.00">/json_parser.hpp</text>
</a>
</g>
</g>
<!-- Node30&#45;&gt;Node33 -->
<g id="edge32" class="edge">
<title>Node30&#45;&gt;Node33</title>
<path fill="none" stroke="midnightblue" d="M2601.54,-67.48C2591.84,-59.57 2577.01,-47.48 2564.23,-37.07"/>
<polygon fill="midnightblue" stroke="midnightblue" points="2566.17,-34.13 2556.2,-30.52 2561.74,-39.55 2566.17,-34.13"/>
</g>
<!-- Node38&#45;&gt;Node29 -->
<g id="edge38" class="edge">
<title>Node38&#45;&gt;Node29</title>
<path fill="none" stroke="midnightblue" d="M2202.34,-179.44C2225.75,-170.48 2262.74,-156.31 2289.19,-146.18"/>
<polygon fill="midnightblue" stroke="midnightblue" points="2290.68,-149.36 2298.76,-142.52 2288.17,-142.82 2290.68,-149.36"/>
</g>
<!-- Node39 -->
<g id="node39" class="node">
<title>Node39</title>
<g id="a_node39"><a xlink:title=" ">
<polygon fill="white" stroke="#bfbfbf" points="2131,-123.5 2131,-142.5 2229,-142.5 2229,-123.5 2131,-123.5"/>
<text text-anchor="middle" x="2180" y="-130.5" font-family="Helvetica,sans-Serif" font-size="10.00">G4UnionSolid.hh</text>
</a>
</g>
</g>
<!-- Node38&#45;&gt;Node39 -->
<g id="edge39" class="edge">
<title>Node38&#45;&gt;Node39</title>
<path fill="none" stroke="midnightblue" d="M2180,-179.08C2180,-172.01 2180,-161.86 2180,-152.99"/>
<polygon fill="midnightblue" stroke="midnightblue" points="2183.5,-152.75 2180,-142.75 2176.5,-152.75 2183.5,-152.75"/>
</g>
<!-- Node40 -->
<g id="node40" class="node">
<title>Node40</title>
<g id="a_node40"><a xlink:title=" ">
<polygon fill="white" stroke="#bfbfbf" points="2045.5,-123.5 2045.5,-142.5 2112.5,-142.5 2112.5,-123.5 2045.5,-123.5"/>
<text text-anchor="middle" x="2079" y="-130.5" font-family="Helvetica,sans-Serif" font-size="10.00">G4Tubs.hh</text>
</a>
</g>
</g>
<!-- Node38&#45;&gt;Node40 -->
<g id="edge40" class="edge">
<title>Node38&#45;&gt;Node40</title>
<path fill="none" stroke="midnightblue" d="M2163.77,-179.32C2147.65,-170.7 2122.7,-157.36 2104.04,-147.39"/>
<polygon fill="midnightblue" stroke="midnightblue" points="2105.66,-144.28 2095.19,-142.65 2102.36,-150.46 2105.66,-144.28"/>
</g>
<!-- Node42&#45;&gt;Node18 -->
<g id="edge50" class="edge">
<title>Node42&#45;&gt;Node18</title>
<path fill="none" stroke="midnightblue" d="M1871.24,-179.45C1833.39,-171.04 1773.9,-157.68 1713.58,-143.34"/>
<polygon fill="midnightblue" stroke="midnightblue" points="1714.04,-139.85 1703.5,-140.94 1712.42,-146.66 1714.04,-139.85"/>
</g>
<!-- Node43 -->
<g id="node43" class="node">
<title>Node43</title>
<g id="a_node43"><a xlink:href="_o_m_sim_p_m_t_response_8hh.html" target="_top" xlink:title="Provides simulation for PMT response. This class is responsible for transforming hits on photocathode...">
<polygon fill="white" stroke="black" points="1842.5,-123.5 1842.5,-142.5 1977.5,-142.5 1977.5,-123.5 1842.5,-123.5"/>
<text text-anchor="middle" x="1910" y="-130.5" font-family="Helvetica,sans-Serif" font-size="10.00">OMSimPMTResponse.hh</text>
</a>
</g>
</g>
<!-- Node42&#45;&gt;Node43 -->
<g id="edge43" class="edge">
<title>Node42&#45;&gt;Node43</title>
<path fill="none" stroke="midnightblue" d="M1910,-179.08C1910,-172.01 1910,-161.86 1910,-152.99"/>
<polygon fill="midnightblue" stroke="midnightblue" points="1913.5,-152.75 1910,-142.75 1906.5,-152.75 1913.5,-152.75"/>
</g>
<!-- Node48 -->
<g id="node48" class="node">
<title>Node48</title>
<g id="a_node48"><a xlink:title=" ">
<polygon fill="white" stroke="#bfbfbf" points="1721.5,-123.5 1721.5,-142.5 1824.5,-142.5 1824.5,-123.5 1721.5,-123.5"/>
<text text-anchor="middle" x="1773" y="-130.5" font-family="Helvetica,sans-Serif" font-size="10.00">G4ThreeVector.hh</text>
</a>
</g>
</g>
<!-- Node42&#45;&gt;Node48 -->
<g id="edge49" class="edge">
<title>Node42&#45;&gt;Node48</title>
<path fill="none" stroke="midnightblue" d="M1888.29,-179.44C1865.65,-170.52 1829.93,-156.44 1804.25,-146.32"/>
<polygon fill="midnightblue" stroke="midnightblue" points="1805.19,-142.93 1794.61,-142.52 1802.63,-149.44 1805.19,-142.93"/>
</g>
<!-- Node43&#45;&gt;Node32 -->
<g id="edge44" class="edge">
<title>Node43&#45;&gt;Node32</title>
<path fill="none" stroke="midnightblue" d="M1923.61,-123.33C1948.6,-107.52 2001.08,-74.92 2021,-67 2069.61,-47.69 2127.37,-34.75 2171.36,-26.81"/>
<polygon fill="midnightblue" stroke="midnightblue" points="2172.13,-30.23 2181.38,-25.05 2170.92,-23.34 2172.13,-30.23"/>
</g>
<!-- Node44 -->
<g id="node44" class="node">
<title>Node44</title>
<g id="a_node44"><a xlink:title=" ">
<polygon fill="white" stroke="#bfbfbf" points="1693.5,-67.5 1693.5,-86.5 1766.5,-86.5 1766.5,-67.5 1693.5,-67.5"/>
<text text-anchor="middle" x="1730" y="-74.5" font-family="Helvetica,sans-Serif" font-size="10.00">G4Types.hh</text>
</a>
</g>
</g>
<!-- Node43&#45;&gt;Node44 -->
<g id="edge45" class="edge">
<title>Node43&#45;&gt;Node44</title>
<path fill="none" stroke="midnightblue" d="M1881.48,-123.44C1850.93,-114.28 1802.29,-99.69 1768.4,-89.52"/>
<polygon fill="midnightblue" stroke="midnightblue" points="1768.97,-86.04 1758.39,-86.52 1766.96,-92.74 1768.97,-86.04"/>
</g>
<!-- Node45 -->
<g id="node45" class="node">
<title>Node45</title>
<g id="a_node45"><a xlink:title=" ">
<polygon fill="white" stroke="#bfbfbf" points="1785,-67.5 1785,-86.5 1823,-86.5 1823,-67.5 1785,-67.5"/>
<text text-anchor="middle" x="1804" y="-74.5" font-family="Helvetica,sans-Serif" font-size="10.00">map</text>
</a>
</g>
</g>
<!-- Node43&#45;&gt;Node45 -->
<g id="edge46" class="edge">
<title>Node43&#45;&gt;Node45</title>
<path fill="none" stroke="midnightblue" d="M1892.97,-123.32C1875.97,-114.66 1849.62,-101.24 1830.01,-91.25"/>
<polygon fill="midnightblue" stroke="midnightblue" points="1831.49,-88.08 1820.99,-86.65 1828.31,-94.31 1831.49,-88.08"/>
</g>
<!-- Node46 -->
<g id="node46" class="node">
<title>Node46</title>
<g id="a_node46"><a xlink:title=" ">
<polygon fill="white" stroke="#bfbfbf" points="1841.5,-67.5 1841.5,-86.5 1902.5,-86.5 1902.5,-67.5 1841.5,-67.5"/>
<text text-anchor="middle" x="1872" y="-74.5" font-family="Helvetica,sans-Serif" font-size="10.00">TGraph.h</text>
</a>
</g>
</g>
<!-- Node43&#45;&gt;Node46 -->
<g id="edge47" class="edge">
<title>Node43&#45;&gt;Node46</title>
<path fill="none" stroke="midnightblue" d="M1903.73,-123.08C1898.36,-115.46 1890.48,-104.26 1883.92,-94.94"/>
<polygon fill="midnightblue" stroke="midnightblue" points="1886.78,-92.91 1878.16,-86.75 1881.05,-96.94 1886.78,-92.91"/>
</g>
<!-- Node47 -->
<g id="node47" class="node">
<title>Node47</title>
<g id="a_node47"><a xlink:title=" ">
<polygon fill="white" stroke="#bfbfbf" points="1920.5,-67.5 1920.5,-86.5 1973.5,-86.5 1973.5,-67.5 1920.5,-67.5"/>
<text text-anchor="middle" x="1947" y="-74.5" font-family="Helvetica,sans-Serif" font-size="10.00">TH2D.h</text>
</a>
</g>
</g>
<!-- Node43&#45;&gt;Node47 -->
<g id="edge48" class="edge">
<title>Node43&#45;&gt;Node47</title>
<path fill="none" stroke="midnightblue" d="M1916.11,-123.08C1921.28,-115.53 1928.85,-104.49 1935.19,-95.23"/>
<polygon fill="midnightblue" stroke="midnightblue" points="1938.24,-96.98 1941,-86.75 1932.46,-93.02 1938.24,-96.98"/>
</g>
<!-- Node49&#45;&gt;Node18 -->
<g id="edge53" class="edge">
<title>Node49&#45;&gt;Node18</title>
<path fill="none" stroke="midnightblue" d="M1744.83,-179.32C1732.15,-170.98 1712.77,-158.21 1697.79,-148.35"/>
<polygon fill="midnightblue" stroke="midnightblue" points="1699.42,-145.23 1689.14,-142.65 1695.57,-151.08 1699.42,-145.23"/>
</g>
<!-- Node49&#45;&gt;Node48 -->
<g id="edge52" class="edge">
<title>Node49&#45;&gt;Node48</title>
<path fill="none" stroke="midnightblue" d="M1760.48,-179.08C1762.49,-171.85 1765.39,-161.41 1767.89,-152.4"/>
<polygon fill="midnightblue" stroke="midnightblue" points="1771.26,-153.32 1770.57,-142.75 1764.52,-151.45 1771.26,-153.32"/>
</g>
</g>
</svg>
