<?xml version="1.0" encoding="UTF-8" standalone="no"?>
<!DOCTYPE svg PUBLIC "-//W3C//DTD SVG 1.1//EN"
 "http://www.w3.org/Graphics/SVG/1.1/DTD/svg11.dtd">
<!-- Generated by graphviz version 2.43.0 (0)
 -->
<!-- Title: OMSimLogger.hh Pages: 1 -->
<svg width="3764pt" height="252pt"
 viewBox="0.00 0.00 3764.44 252.00" xmlns="http://www.w3.org/2000/svg" xmlns:xlink="http://www.w3.org/1999/xlink">
<g id="graph0" class="graph" transform="scale(1 1) rotate(0) translate(4 248)">
<title>OMSimLogger.hh</title>
<polygon fill="white" stroke="transparent" points="-4,4 -4,-248 3760.44,-248 3760.44,4 -4,4"/>
<!-- Node1 -->
<g id="node1" class="node">
<title>Node1</title>
<g id="a_node1"><a xlink:title=" ">
<polygon fill="#bfbfbf" stroke="black" points="397.44,-224.5 397.44,-243.5 496.44,-243.5 496.44,-224.5 397.44,-224.5"/>
<text text-anchor="middle" x="446.94" y="-231.5" font-family="Helvetica,sans-Serif" font-size="10.00">OMSimLogger.hh</text>
</a>
</g>
</g>
<!-- Node2 -->
<g id="node2" class="node">
<title>Node2</title>
<g id="a_node2"><a xlink:href="_o_m_sim_command_args_table_8hh.html" target="_top" xlink:title="Definition of the OMSimCommandArgsTable singleton class, which controls user args.">
<polygon fill="white" stroke="black" points="1685.94,-168.5 1685.94,-187.5 1849.94,-187.5 1849.94,-168.5 1685.94,-168.5"/>
<text text-anchor="middle" x="1767.94" y="-175.5" font-family="Helvetica,sans-Serif" font-size="10.00">OMSimCommandArgsTable.hh</text>
</a>
</g>
</g>
<!-- Node1&#45;&gt;Node2 -->
<g id="edge1" class="edge">
<title>Node1&#45;&gt;Node2</title>
<path fill="none" stroke="midnightblue" d="M506.76,-230.55C719.68,-221.85 1441,-192.36 1685.85,-182.36"/>
<polygon fill="midnightblue" stroke="midnightblue" points="506.56,-227.06 496.72,-230.97 506.85,-234.05 506.56,-227.06"/>
</g>
<!-- Node4 -->
<g id="node4" class="node">
<title>Node4</title>
<g id="a_node4"><a xlink:href="_o_m_sim_data_file_types_8cc.html" target="_top" xlink:title=" ">
<polygon fill="white" stroke="black" points="711.94,-56.5 711.94,-75.5 845.94,-75.5 845.94,-56.5 711.94,-56.5"/>
<text text-anchor="middle" x="778.94" y="-63.5" font-family="Helvetica,sans-Serif" font-size="10.00">OMSimDataFileTypes.cc</text>
</a>
</g>
</g>
<!-- Node1&#45;&gt;Node4 -->
<g id="edge39" class="edge">
<title>Node1&#45;&gt;Node4</title>
<path fill="none" stroke="midnightblue" d="M387.2,-226.67C254.75,-211.48 -47.7,-169.92 6.94,-112 30.97,-86.53 528.54,-72.69 711.88,-68.44"/>
<polygon fill="midnightblue" stroke="midnightblue" points="386.87,-230.15 397.2,-227.8 387.66,-223.2 386.87,-230.15"/>
</g>
<!-- Node17 -->
<g id="node17" class="node">
<title>Node17</title>
<g id="a_node17"><a xlink:href="_o_m_sim_p_m_t_response_8cc.html" target="_top" xlink:title=" ">
<polygon fill="white" stroke="black" points="15.94,-112.5 15.94,-131.5 149.94,-131.5 149.94,-112.5 15.94,-112.5"/>
<text text-anchor="middle" x="82.94" y="-119.5" font-family="Helvetica,sans-Serif" font-size="10.00">OMSimPMTResponse.cc</text>
</a>
</g>
</g>
<!-- Node1&#45;&gt;Node17 -->
<g id="edge40" class="edge">
<title>Node1&#45;&gt;Node17</title>
<path fill="none" stroke="midnightblue" d="M408.92,-221.51C335.56,-199.34 176.02,-151.13 111.18,-131.53"/>
<polygon fill="midnightblue" stroke="midnightblue" points="408.1,-224.92 418.68,-224.46 410.12,-218.22 408.1,-224.92"/>
</g>
<!-- Node19 -->
<g id="node19" class="node">
<title>Node19</title>
<g id="a_node19"><a xlink:href="_o_m_sim_d_e_g_g_8cc.html" target="_top" xlink:title=" ">
<polygon fill="white" stroke="black" points="167.94,-112.5 167.94,-131.5 261.94,-131.5 261.94,-112.5 167.94,-112.5"/>
<text text-anchor="middle" x="214.94" y="-119.5" font-family="Helvetica,sans-Serif" font-size="10.00">OMSimDEGG.cc</text>
</a>
</g>
</g>
<!-- Node1&#45;&gt;Node19 -->
<g id="edge41" class="edge">
<title>Node1&#45;&gt;Node19</title>
<path fill="none" stroke="midnightblue" d="M419.57,-220.02C371.59,-197.27 273.56,-150.79 233.06,-131.59"/>
<polygon fill="midnightblue" stroke="midnightblue" points="418.2,-223.25 428.74,-224.37 421.2,-216.92 418.2,-223.25"/>
</g>
<!-- Node21 -->
<g id="node21" class="node">
<title>Node21</title>
<g id="a_node21"><a xlink:href="_o_m_sim_l_o_m16_8cc.html" target="_top" xlink:title=" ">
<polygon fill="white" stroke="black" points="280.44,-112.5 280.44,-131.5 379.44,-131.5 379.44,-112.5 280.44,-112.5"/>
<text text-anchor="middle" x="329.94" y="-119.5" font-family="Helvetica,sans-Serif" font-size="10.00">OMSimLOM16.cc</text>
</a>
</g>
</g>
<!-- Node1&#45;&gt;Node21 -->
<g id="edge42" class="edge">
<title>Node1&#45;&gt;Node21</title>
<path fill="none" stroke="midnightblue" d="M430.47,-217.51C405.47,-194.01 358.78,-150.11 339.08,-131.59"/>
<polygon fill="midnightblue" stroke="midnightblue" points="428.08,-220.07 437.76,-224.37 432.87,-214.97 428.08,-220.07"/>
</g>
<!-- Node22 -->
<g id="node22" class="node">
<title>Node22</title>
<g id="a_node22"><a xlink:href="_o_m_sim_l_o_m18_8cc.html" target="_top" xlink:title=" ">
<polygon fill="white" stroke="black" points="397.44,-112.5 397.44,-131.5 496.44,-131.5 496.44,-112.5 397.44,-112.5"/>
<text text-anchor="middle" x="446.94" y="-119.5" font-family="Helvetica,sans-Serif" font-size="10.00">OMSimLOM18.cc</text>
</a>
</g>
</g>
<!-- Node1&#45;&gt;Node22 -->
<g id="edge43" class="edge">
<title>Node1&#45;&gt;Node22</title>
<path fill="none" stroke="midnightblue" d="M446.94,-214.35C446.94,-190.25 446.94,-149.31 446.94,-131.59"/>
<polygon fill="midnightblue" stroke="midnightblue" points="443.44,-214.37 446.94,-224.37 450.44,-214.37 443.44,-214.37"/>
</g>
<!-- Node23 -->
<g id="node23" class="node">
<title>Node23</title>
<g id="a_node23"><a xlink:href="_o_m_sim_m_d_o_m_8cc.html" target="_top" xlink:title=" ">
<polygon fill="white" stroke="black" points="514.94,-112.5 514.94,-131.5 612.94,-131.5 612.94,-112.5 514.94,-112.5"/>
<text text-anchor="middle" x="563.94" y="-119.5" font-family="Helvetica,sans-Serif" font-size="10.00">OMSimMDOM.cc</text>
</a>
</g>
</g>
<!-- Node1&#45;&gt;Node23 -->
<g id="edge44" class="edge">
<title>Node1&#45;&gt;Node23</title>
<path fill="none" stroke="midnightblue" d="M463.42,-217.51C488.42,-194.01 535.11,-150.11 554.81,-131.59"/>
<polygon fill="midnightblue" stroke="midnightblue" points="461.01,-214.97 456.12,-224.37 465.81,-220.07 461.01,-214.97"/>
</g>
<!-- Node25 -->
<g id="node25" class="node">
<title>Node25</title>
<g id="a_node25"><a xlink:href="_o_m_sim_p_d_o_m_8cc.html" target="_top" xlink:title=" ">
<polygon fill="white" stroke="black" points="3661.44,-112.5 3661.44,-131.5 3756.44,-131.5 3756.44,-112.5 3661.44,-112.5"/>
<text text-anchor="middle" x="3708.94" y="-119.5" font-family="Helvetica,sans-Serif" font-size="10.00">OMSimPDOM.cc</text>
</a>
</g>
</g>
<!-- Node1&#45;&gt;Node25 -->
<g id="edge45" class="edge">
<title>Node1&#45;&gt;Node25</title>
<path fill="none" stroke="midnightblue" d="M506.66,-232.68C758.51,-231.1 1727.09,-222.82 1858.94,-188 1877.4,-183.13 1878.46,-172.77 1896.94,-168 2085.8,-119.27 3457.67,-149.25 3651.94,-132 3655.04,-131.73 3658.22,-131.39 3661.42,-131"/>
<polygon fill="midnightblue" stroke="midnightblue" points="506.58,-229.18 496.6,-232.74 506.62,-236.18 506.58,-229.18"/>
</g>
<!-- Node37 -->
<g id="node37" class="node">
<title>Node37</title>
<g id="a_node37"><a xlink:href="abc_detector_component_8cc.html" target="_top" xlink:title=" ">
<polygon fill="white" stroke="black" points="1905.94,-168.5 1905.94,-187.5 2051.94,-187.5 2051.94,-168.5 1905.94,-168.5"/>
<text text-anchor="middle" x="1978.94" y="-175.5" font-family="Helvetica,sans-Serif" font-size="10.00">abcDetectorComponent.cc</text>
</a>
</g>
</g>
<!-- Node1&#45;&gt;Node37 -->
<g id="edge38" class="edge">
<title>Node1&#45;&gt;Node37</title>
<path fill="none" stroke="midnightblue" d="M506.78,-232.68C704.58,-231.28 1355.31,-224.07 1891.94,-188 1896.49,-187.69 1901.16,-187.34 1905.87,-186.94"/>
<polygon fill="midnightblue" stroke="midnightblue" points="506.58,-229.18 496.6,-232.75 506.63,-236.18 506.58,-229.18"/>
</g>
<!-- Node3 -->
<g id="node3" class="node">
<title>Node3</title>
<g id="a_node3"><a xlink:href="_o_m_sim_data_file_types_8hh.html" target="_top" xlink:title="Collection of classes and methods to handle material creation from user data in json files.">
<polygon fill="white" stroke="black" points="1652.44,-112.5 1652.44,-131.5 1787.44,-131.5 1787.44,-112.5 1652.44,-112.5"/>
<text text-anchor="middle" x="1719.94" y="-119.5" font-family="Helvetica,sans-Serif" font-size="10.00">OMSimDataFileTypes.hh</text>
</a>
</g>
</g>
<!-- Node2&#45;&gt;Node3 -->
<g id="edge2" class="edge">
<title>Node2&#45;&gt;Node3</title>
<path fill="none" stroke="midnightblue" d="M1753.22,-160.43C1744.8,-150.97 1734.59,-139.48 1727.72,-131.75"/>
<polygon fill="midnightblue" stroke="midnightblue" points="1750.76,-162.93 1760.02,-168.08 1755.99,-158.28 1750.76,-162.93"/>
</g>
<!-- Node5 -->
<g id="node5" class="node">
<title>Node5</title>
<g id="a_node5"><a xlink:href="_o_m_sim_input_data_8cc.html" target="_top" xlink:title=" ">
<polygon fill="white" stroke="black" points="1655.44,-56.5 1655.44,-75.5 1768.44,-75.5 1768.44,-56.5 1655.44,-56.5"/>
<text text-anchor="middle" x="1711.94" y="-63.5" font-family="Helvetica,sans-Serif" font-size="10.00">OMSimInputData.cc</text>
</a>
</g>
</g>
<!-- Node2&#45;&gt;Node5 -->
<g id="edge15" class="edge">
<title>Node2&#45;&gt;Node5</title>
<path fill="none" stroke="midnightblue" d="M1783.87,-160.71C1795.05,-147.22 1806.44,-127.78 1796.94,-112 1785.83,-93.55 1764.34,-82.26 1745.74,-75.61"/>
<polygon fill="midnightblue" stroke="midnightblue" points="1781.18,-158.47 1777.13,-168.25 1786.4,-163.13 1781.18,-158.47"/>
</g>
<!-- Node6 -->
<g id="node6" class="node">
<title>Node6</title>
<g id="a_node6"><a xlink:href="_o_m_sim_u_iinterface_8hh.html" target="_top" xlink:title="The OMSimUIinterface class provides a singleton interface to Geant4&#39;s UI manager.">
<polygon fill="white" stroke="black" points="1882.44,-112.5 1882.44,-131.5 2003.44,-131.5 2003.44,-112.5 1882.44,-112.5"/>
<text text-anchor="middle" x="1942.94" y="-119.5" font-family="Helvetica,sans-Serif" font-size="10.00">OMSimUIinterface.hh</text>
</a>
</g>
</g>
<!-- Node2&#45;&gt;Node6 -->
<g id="edge5" class="edge">
<title>Node2&#45;&gt;Node6</title>
<path fill="none" stroke="midnightblue" d="M1805.42,-165.44C1838.41,-155.26 1885.7,-140.66 1915.34,-131.52"/>
<polygon fill="midnightblue" stroke="midnightblue" points="1804.2,-162.15 1795.67,-168.44 1806.26,-168.84 1804.2,-162.15"/>
</g>
<!-- Node12 -->
<g id="node12" class="node">
<title>Node12</title>
<g id="a_node12"><a xlink:href="_o_m_sim_m_d_o_m_flasher_8cc.html" target="_top" xlink:title=" ">
<polygon fill="white" stroke="black" points="1786.94,-56.5 1786.94,-75.5 1920.94,-75.5 1920.94,-56.5 1786.94,-56.5"/>
<text text-anchor="middle" x="1853.94" y="-63.5" font-family="Helvetica,sans-Serif" font-size="10.00">OMSimMDOMFlasher.cc</text>
</a>
</g>
</g>
<!-- Node2&#45;&gt;Node12 -->
<g id="edge24" class="edge">
<title>Node2&#45;&gt;Node12</title>
<path fill="none" stroke="midnightblue" d="M1784.87,-161.27C1793.42,-152.94 1803.69,-142.33 1811.94,-132 1827.04,-113.1 1841.67,-88.64 1849.03,-75.79"/>
<polygon fill="midnightblue" stroke="midnightblue" points="1782.43,-158.76 1777.61,-168.2 1787.26,-163.82 1782.43,-158.76"/>
</g>
<!-- Node15 -->
<g id="node15" class="node">
<title>Node15</title>
<g id="a_node15"><a xlink:href="_o_m_sim_hit_manager_8cc.html" target="_top" xlink:title=" ">
<polygon fill="white" stroke="black" points="2021.94,-112.5 2021.94,-131.5 2143.94,-131.5 2143.94,-112.5 2021.94,-112.5"/>
<text text-anchor="middle" x="2082.94" y="-119.5" font-family="Helvetica,sans-Serif" font-size="10.00">OMSimHitManager.cc</text>
</a>
</g>
</g>
<!-- Node2&#45;&gt;Node15 -->
<g id="edge14" class="edge">
<title>Node2&#45;&gt;Node15</title>
<path fill="none" stroke="midnightblue" d="M1827.87,-166.73C1887.39,-156.52 1977.6,-141.06 2033.26,-131.52"/>
<polygon fill="midnightblue" stroke="midnightblue" points="1827.12,-163.3 1817.86,-168.44 1828.3,-170.2 1827.12,-163.3"/>
</g>
<!-- Node16 -->
<g id="node16" class="node">
<title>Node16</title>
<g id="a_node16"><a xlink:href="_o_m_sim_p_m_t_construction_8cc.html" target="_top" xlink:title=" ">
<polygon fill="white" stroke="black" points="2162.44,-112.5 2162.44,-131.5 2309.44,-131.5 2309.44,-112.5 2162.44,-112.5"/>
<text text-anchor="middle" x="2235.94" y="-119.5" font-family="Helvetica,sans-Serif" font-size="10.00">OMSimPMTConstruction.cc</text>
</a>
</g>
</g>
<!-- Node2&#45;&gt;Node16 -->
<g id="edge16" class="edge">
<title>Node2&#45;&gt;Node16</title>
<path fill="none" stroke="midnightblue" d="M1851.84,-167.32C1940.25,-157.12 2078.15,-141.21 2162.43,-131.48"/>
<polygon fill="midnightblue" stroke="midnightblue" points="1851.37,-163.85 1841.84,-168.47 1852.18,-170.8 1851.37,-163.85"/>
</g>
<!-- Node2&#45;&gt;Node17 -->
<g id="edge17" class="edge">
<title>Node2&#45;&gt;Node17</title>
<path fill="none" stroke="midnightblue" d="M1675.41,-177.32C1428.66,-177.54 734.57,-174.05 158.94,-132 156.03,-131.79 153.05,-131.54 150.05,-131.28"/>
<polygon fill="midnightblue" stroke="midnightblue" points="1675.77,-180.82 1685.76,-177.31 1675.76,-173.82 1675.77,-180.82"/>
</g>
<!-- Node18 -->
<g id="node18" class="node">
<title>Node18</title>
<g id="a_node18"><a xlink:href="_o_m_sim_tracking_action_8cc.html" target="_top" xlink:title=" ">
<polygon fill="white" stroke="black" points="2327.44,-112.5 2327.44,-131.5 2464.44,-131.5 2464.44,-112.5 2327.44,-112.5"/>
<text text-anchor="middle" x="2395.94" y="-119.5" font-family="Helvetica,sans-Serif" font-size="10.00">OMSimTrackingAction.cc</text>
</a>
</g>
</g>
<!-- Node2&#45;&gt;Node18 -->
<g id="edge18" class="edge">
<title>Node2&#45;&gt;Node18</title>
<path fill="none" stroke="midnightblue" d="M1860.12,-168.33C1861.4,-168.22 1862.68,-168.11 1863.94,-168 2066.04,-150.53 2117.06,-151.78 2318.94,-132 2321.62,-131.74 2324.35,-131.46 2327.11,-131.17"/>
<polygon fill="midnightblue" stroke="midnightblue" points="1859.81,-164.85 1850.16,-169.21 1860.42,-171.82 1859.81,-164.85"/>
</g>
<!-- Node2&#45;&gt;Node19 -->
<g id="edge19" class="edge">
<title>Node2&#45;&gt;Node19</title>
<path fill="none" stroke="midnightblue" d="M1675.31,-175.79C1392.92,-171.84 545.49,-158.08 270.94,-132 268.1,-131.73 265.18,-131.41 262.24,-131.04"/>
<polygon fill="midnightblue" stroke="midnightblue" points="1675.47,-179.29 1685.51,-175.93 1675.56,-172.29 1675.47,-179.29"/>
</g>
<!-- Node20 -->
<g id="node20" class="node">
<title>Node20</title>
<g id="a_node20"><a xlink:href="_o_m_sim_d_e_g_g_harness_8cc.html" target="_top" xlink:title=" ">
<polygon fill="white" stroke="black" points="2482.94,-112.5 2482.94,-131.5 2616.94,-131.5 2616.94,-112.5 2482.94,-112.5"/>
<text text-anchor="middle" x="2549.94" y="-119.5" font-family="Helvetica,sans-Serif" font-size="10.00">OMSimDEGGHarness.cc</text>
</a>
</g>
</g>
<!-- Node2&#45;&gt;Node20 -->
<g id="edge20" class="edge">
<title>Node2&#45;&gt;Node20</title>
<path fill="none" stroke="midnightblue" d="M1860.11,-168.3C1861.4,-168.2 1862.68,-168.1 1863.94,-168 2134.74,-147.32 2203.42,-155.98 2473.94,-132 2476.85,-131.74 2479.83,-131.46 2482.83,-131.17"/>
<polygon fill="midnightblue" stroke="midnightblue" points="1859.83,-164.81 1850.15,-169.11 1860.4,-171.79 1859.83,-164.81"/>
</g>
<!-- Node2&#45;&gt;Node21 -->
<g id="edge21" class="edge">
<title>Node2&#45;&gt;Node21</title>
<path fill="none" stroke="midnightblue" d="M1675.69,-175.45C1408.79,-170.75 638.9,-155.47 387.94,-132 385.2,-131.74 382.4,-131.44 379.57,-131.11"/>
<polygon fill="midnightblue" stroke="midnightblue" points="1675.67,-178.95 1685.73,-175.63 1675.8,-171.96 1675.67,-178.95"/>
</g>
<!-- Node2&#45;&gt;Node22 -->
<g id="edge22" class="edge">
<title>Node2&#45;&gt;Node22</title>
<path fill="none" stroke="midnightblue" d="M1675.48,-177.36C1466.55,-177.37 942.23,-172.92 505.94,-132 502.85,-131.71 499.67,-131.36 496.47,-130.98"/>
<polygon fill="midnightblue" stroke="midnightblue" points="1675.79,-180.86 1685.79,-177.36 1675.79,-173.86 1675.79,-180.86"/>
</g>
<!-- Node2&#45;&gt;Node23 -->
<g id="edge23" class="edge">
<title>Node2&#45;&gt;Node23</title>
<path fill="none" stroke="midnightblue" d="M1675.53,-176.96C1480.42,-176.08 1012.32,-169.83 621.94,-132 619.1,-131.72 616.19,-131.4 613.26,-131.05"/>
<polygon fill="midnightblue" stroke="midnightblue" points="1675.72,-180.46 1685.74,-177 1675.75,-173.46 1675.72,-180.46"/>
</g>
<!-- Node24 -->
<g id="node24" class="node">
<title>Node24</title>
<g id="a_node24"><a xlink:href="_o_m_sim_m_d_o_m_harness_8cc.html" target="_top" xlink:title=" ">
<polygon fill="white" stroke="black" points="2634.94,-112.5 2634.94,-131.5 2772.94,-131.5 2772.94,-112.5 2634.94,-112.5"/>
<text text-anchor="middle" x="2703.94" y="-119.5" font-family="Helvetica,sans-Serif" font-size="10.00">OMSimMDOMHarness.cc</text>
</a>
</g>
</g>
<!-- Node2&#45;&gt;Node24 -->
<g id="edge25" class="edge">
<title>Node2&#45;&gt;Node24</title>
<path fill="none" stroke="midnightblue" d="M1860.11,-168.28C1861.4,-168.18 1862.68,-168.09 1863.94,-168 2202.15,-144.17 2288.01,-159.45 2625.94,-132 2628.8,-131.77 2631.71,-131.51 2634.64,-131.24"/>
<polygon fill="midnightblue" stroke="midnightblue" points="1859.84,-164.79 1850.14,-169.04 1860.38,-171.77 1859.84,-164.79"/>
</g>
<!-- Node2&#45;&gt;Node25 -->
<g id="edge26" class="edge">
<title>Node2&#45;&gt;Node25</title>
<path fill="none" stroke="midnightblue" d="M1860.54,-168.2C1861.68,-168.13 1862.82,-168.06 1863.94,-168 2657.49,-122.87 2860.22,-202.14 3651.94,-132 3655.04,-131.73 3658.22,-131.39 3661.42,-131"/>
<polygon fill="midnightblue" stroke="midnightblue" points="1859.88,-164.74 1850.13,-168.9 1860.34,-171.72 1859.88,-164.74"/>
</g>
<!-- Node26 -->
<g id="node26" class="node">
<title>Node26</title>
<g id="a_node26"><a xlink:href="effective__area_2src_2_o_m_sim_detector_construction_8cc.html" target="_top" xlink:title=" ">
<polygon fill="white" stroke="black" points="2791.44,-112.5 2791.44,-131.5 2960.44,-131.5 2960.44,-112.5 2791.44,-112.5"/>
<text text-anchor="middle" x="2875.94" y="-119.5" font-family="Helvetica,sans-Serif" font-size="10.00">OMSimDetectorConstruction.cc</text>
</a>
</g>
</g>
<!-- Node2&#45;&gt;Node26 -->
<g id="edge27" class="edge">
<title>Node2&#45;&gt;Node26</title>
<path fill="none" stroke="midnightblue" d="M1860.11,-168.26C1861.4,-168.17 1862.67,-168.08 1863.94,-168 2271.36,-140.93 2374.55,-159.47 2781.94,-132 2785.05,-131.79 2788.22,-131.56 2791.41,-131.32"/>
<polygon fill="midnightblue" stroke="midnightblue" points="1859.85,-164.77 1850.14,-169 1860.37,-171.75 1859.85,-164.77"/>
</g>
<!-- Node27 -->
<g id="node27" class="node">
<title>Node27</title>
<g id="a_node27"><a xlink:href="_o_m_sim_effective_area_analyisis_8cc.html" target="_top" xlink:title=" ">
<polygon fill="white" stroke="black" points="2978.44,-112.5 2978.44,-131.5 3153.44,-131.5 3153.44,-112.5 2978.44,-112.5"/>
<text text-anchor="middle" x="3065.94" y="-119.5" font-family="Helvetica,sans-Serif" font-size="10.00">OMSimEffectiveAreaAnalyisis.cc</text>
</a>
</g>
</g>
<!-- Node2&#45;&gt;Node27 -->
<g id="edge28" class="edge">
<title>Node2&#45;&gt;Node27</title>
<path fill="none" stroke="midnightblue" d="M1860.11,-168.25C1861.4,-168.16 1862.67,-168.08 1863.94,-168 2354.78,-137.03 2479.1,-162.97 2969.94,-132 2972.7,-131.83 2975.5,-131.64 2978.33,-131.44"/>
<polygon fill="midnightblue" stroke="midnightblue" points="1859.86,-164.76 1850.14,-168.96 1860.36,-171.74 1859.86,-164.76"/>
</g>
<!-- Node28 -->
<g id="node28" class="node">
<title>Node28</title>
<g id="a_node28"><a xlink:href="_o_m_sim_decays_analysis_8cc.html" target="_top" xlink:title=" ">
<polygon fill="white" stroke="black" points="3171.44,-112.5 3171.44,-131.5 3314.44,-131.5 3314.44,-112.5 3171.44,-112.5"/>
<text text-anchor="middle" x="3242.94" y="-119.5" font-family="Helvetica,sans-Serif" font-size="10.00">OMSimDecaysAnalysis.cc</text>
</a>
</g>
</g>
<!-- Node2&#45;&gt;Node28 -->
<g id="edge29" class="edge">
<title>Node2&#45;&gt;Node28</title>
<path fill="none" stroke="midnightblue" d="M1860.11,-168.24C1861.4,-168.16 1862.67,-168.08 1863.94,-168 2440.44,-133.03 2586.8,-172.32 3162.94,-132 3165.73,-131.8 3168.57,-131.59 3171.44,-131.35"/>
<polygon fill="midnightblue" stroke="midnightblue" points="1859.87,-164.75 1850.13,-168.94 1860.35,-171.73 1859.87,-164.75"/>
</g>
<!-- Node29 -->
<g id="node29" class="node">
<title>Node29</title>
<g id="a_node29"><a xlink:href="radioactive__decays_2src_2_o_m_sim_detector_construction_8cc.html" target="_top" xlink:title=" ">
<polygon fill="white" stroke="black" points="3332.44,-112.5 3332.44,-131.5 3501.44,-131.5 3501.44,-112.5 3332.44,-112.5"/>
<text text-anchor="middle" x="3416.94" y="-119.5" font-family="Helvetica,sans-Serif" font-size="10.00">OMSimDetectorConstruction.cc</text>
</a>
</g>
</g>
<!-- Node2&#45;&gt;Node29 -->
<g id="edge30" class="edge">
<title>Node2&#45;&gt;Node29</title>
<path fill="none" stroke="midnightblue" d="M1860.54,-168.21C1861.68,-168.14 1862.82,-168.07 1863.94,-168 2511.9,-129.68 2676.05,-171.29 3323.94,-132 3326.7,-131.83 3329.49,-131.65 3332.32,-131.45"/>
<polygon fill="midnightblue" stroke="midnightblue" points="1859.87,-164.75 1850.13,-168.92 1860.35,-171.73 1859.87,-164.75"/>
</g>
<!-- Node30 -->
<g id="node30" class="node">
<title>Node30</title>
<g id="a_node30"><a xlink:href="radioactive__decays_2src_2_o_m_sim_event_action_8cc.html" target="_top" xlink:title=" ">
<polygon fill="white" stroke="black" points="3518.94,-112.5 3518.94,-131.5 3642.94,-131.5 3642.94,-112.5 3518.94,-112.5"/>
<text text-anchor="middle" x="3580.94" y="-119.5" font-family="Helvetica,sans-Serif" font-size="10.00">OMSimEventAction.cc</text>
</a>
</g>
</g>
<!-- Node2&#45;&gt;Node30 -->
<g id="edge31" class="edge">
<title>Node2&#45;&gt;Node30</title>
<path fill="none" stroke="midnightblue" d="M1860.54,-168.2C1861.68,-168.13 1862.82,-168.07 1863.94,-168 2594.9,-125.8 2780.82,-186.76 3510.94,-132 3513.51,-131.81 3516.13,-131.59 3518.77,-131.34"/>
<polygon fill="midnightblue" stroke="midnightblue" points="1859.88,-164.74 1850.13,-168.9 1860.35,-171.72 1859.88,-164.74"/>
</g>
<!-- Node31 -->
<g id="node31" class="node">
<title>Node31</title>
<g id="a_node31"><a xlink:href="_o_m_sim_g4_radioactive_decay_8cc.html" target="_top" xlink:title=" ">
<polygon fill="white" stroke="black" points="630.94,-112.5 630.94,-131.5 796.94,-131.5 796.94,-112.5 630.94,-112.5"/>
<text text-anchor="middle" x="713.94" y="-119.5" font-family="Helvetica,sans-Serif" font-size="10.00">OMSimG4RadioactiveDecay.cc</text>
</a>
</g>
</g>
<!-- Node2&#45;&gt;Node31 -->
<g id="edge32" class="edge">
<title>Node2&#45;&gt;Node31</title>
<path fill="none" stroke="midnightblue" d="M1675.57,-174.24C1504.06,-168.77 1124.82,-155.04 805.94,-132 803.06,-131.79 800.13,-131.57 797.17,-131.33"/>
<polygon fill="midnightblue" stroke="midnightblue" points="1675.72,-177.75 1685.82,-174.56 1675.94,-170.75 1675.72,-177.75"/>
</g>
<!-- Node32 -->
<g id="node32" class="node">
<title>Node32</title>
<g id="a_node32"><a xlink:href="supernova_2src_2_o_m_sim_detector_construction_8cc.html" target="_top" xlink:title=" ">
<polygon fill="white" stroke="black" points="815.44,-112.5 815.44,-131.5 984.44,-131.5 984.44,-112.5 815.44,-112.5"/>
<text text-anchor="middle" x="899.94" y="-119.5" font-family="Helvetica,sans-Serif" font-size="10.00">OMSimDetectorConstruction.cc</text>
</a>
</g>
</g>
<!-- Node2&#45;&gt;Node32 -->
<g id="edge33" class="edge">
<title>Node2&#45;&gt;Node32</title>
<path fill="none" stroke="midnightblue" d="M1675.65,-172.79C1530.32,-165.91 1239.32,-151.07 992.94,-132 990.19,-131.79 987.4,-131.56 984.58,-131.33"/>
<polygon fill="midnightblue" stroke="midnightblue" points="1675.7,-176.3 1685.86,-173.27 1676.03,-169.31 1675.7,-176.3"/>
</g>
<!-- Node33 -->
<g id="node33" class="node">
<title>Node33</title>
<g id="a_node33"><a xlink:href="supernova_2src_2_o_m_sim_primary_generator_action_8cc.html" target="_top" xlink:title=" ">
<polygon fill="white" stroke="black" points="1002.44,-112.5 1002.44,-131.5 1185.44,-131.5 1185.44,-112.5 1002.44,-112.5"/>
<text text-anchor="middle" x="1093.94" y="-119.5" font-family="Helvetica,sans-Serif" font-size="10.00">OMSimPrimaryGeneratorAction.cc</text>
</a>
</g>
</g>
<!-- Node2&#45;&gt;Node33 -->
<g id="edge34" class="edge">
<title>Node2&#45;&gt;Node33</title>
<path fill="none" stroke="midnightblue" d="M1675.83,-170.06C1562.59,-161.47 1364.58,-146.22 1194.94,-132 1191.87,-131.74 1188.75,-131.48 1185.6,-131.21"/>
<polygon fill="midnightblue" stroke="midnightblue" points="1675.61,-173.56 1685.84,-170.82 1676.14,-166.58 1675.61,-173.56"/>
</g>
<!-- Node34 -->
<g id="node34" class="node">
<title>Node34</title>
<g id="a_node34"><a xlink:href="_o_m_sim_s_n_analysis_8cc.html" target="_top" xlink:title="Analyze data and write output files.">
<polygon fill="white" stroke="black" points="1203.94,-112.5 1203.94,-131.5 1323.94,-131.5 1323.94,-112.5 1203.94,-112.5"/>
<text text-anchor="middle" x="1263.94" y="-119.5" font-family="Helvetica,sans-Serif" font-size="10.00">OMSimSNAnalysis.cc</text>
</a>
</g>
</g>
<!-- Node2&#45;&gt;Node34 -->
<g id="edge35" class="edge">
<title>Node2&#45;&gt;Node34</title>
<path fill="none" stroke="midnightblue" d="M1675.72,-168.18C1587.62,-159.58 1451.12,-145.82 1332.94,-132 1330.06,-131.66 1327.12,-131.31 1324.14,-130.95"/>
<polygon fill="midnightblue" stroke="midnightblue" points="1675.4,-171.66 1685.69,-169.15 1676.08,-164.7 1675.4,-171.66"/>
</g>
<!-- Node35 -->
<g id="node35" class="node">
<title>Node35</title>
<g id="a_node35"><a xlink:href="_o_m_sim_s_n_particle_generators_8cc.html" target="_top" xlink:title=" ">
<polygon fill="white" stroke="black" points="1342.44,-112.5 1342.44,-131.5 1511.44,-131.5 1511.44,-112.5 1342.44,-112.5"/>
<text text-anchor="middle" x="1426.94" y="-119.5" font-family="Helvetica,sans-Serif" font-size="10.00">OMSimSNParticleGenerators.cc</text>
</a>
</g>
</g>
<!-- Node2&#45;&gt;Node35 -->
<g id="edge36" class="edge">
<title>Node2&#45;&gt;Node35</title>
<path fill="none" stroke="midnightblue" d="M1703.87,-166.85C1639.44,-156.65 1541.23,-141.1 1480.72,-131.52"/>
<polygon fill="midnightblue" stroke="midnightblue" points="1703.49,-170.34 1713.91,-168.44 1704.58,-163.42 1703.49,-170.34"/>
</g>
<!-- Node36 -->
<g id="node36" class="node">
<title>Node36</title>
<g id="a_node36"><a xlink:href="_o_m_sim_s_n_tools_8cc.html" target="_top" xlink:title=" ">
<polygon fill="white" stroke="black" points="1529.94,-112.5 1529.94,-131.5 1633.94,-131.5 1633.94,-112.5 1529.94,-112.5"/>
<text text-anchor="middle" x="1581.94" y="-119.5" font-family="Helvetica,sans-Serif" font-size="10.00">OMSimSNTools.cc</text>
</a>
</g>
</g>
<!-- Node2&#45;&gt;Node36 -->
<g id="edge37" class="edge">
<title>Node2&#45;&gt;Node36</title>
<path fill="none" stroke="midnightblue" d="M1728.57,-165.57C1693.48,-155.38 1642.92,-140.7 1611.28,-131.52"/>
<polygon fill="midnightblue" stroke="midnightblue" points="1727.89,-169.02 1738.47,-168.44 1729.84,-162.29 1727.89,-169.02"/>
</g>
<!-- Node3&#45;&gt;Node4 -->
<g id="edge3" class="edge">
<title>Node3&#45;&gt;Node4</title>
<path fill="none" stroke="midnightblue" d="M1642.04,-111.98C1338.46,-86.68 989.73,-73.68 845.99,-69.02"/>
<polygon fill="midnightblue" stroke="midnightblue" points="1642.1,-115.5 1652.36,-112.85 1642.69,-108.53 1642.1,-115.5"/>
</g>
<!-- Node3&#45;&gt;Node5 -->
<g id="edge4" class="edge">
<title>Node3&#45;&gt;Node5</title>
<path fill="none" stroke="midnightblue" d="M1717.14,-102.1C1715.82,-93.14 1714.29,-82.86 1713.24,-75.75"/>
<polygon fill="midnightblue" stroke="midnightblue" points="1713.69,-102.7 1718.62,-112.08 1720.62,-101.68 1713.69,-102.7"/>
</g>
<!-- Node7 -->
<g id="node7" class="node">
<title>Node7</title>
<g id="a_node7"><a xlink:href="_o_m_sim_8hh.html" target="_top" xlink:title="Main simulation class for the Optical Module (OM) simulation. This file defines the OMSim class,...">
<polygon fill="white" stroke="black" points="1939.44,-56.5 1939.44,-75.5 2006.44,-75.5 2006.44,-56.5 1939.44,-56.5"/>
<text text-anchor="middle" x="1972.94" y="-63.5" font-family="Helvetica,sans-Serif" font-size="10.00">OMSim.hh</text>
</a>
</g>
</g>
<!-- Node6&#45;&gt;Node7 -->
<g id="edge6" class="edge">
<title>Node6&#45;&gt;Node7</title>
<path fill="none" stroke="midnightblue" d="M1952.79,-103.27C1957.92,-94.05 1963.96,-83.17 1968.08,-75.75"/>
<polygon fill="midnightblue" stroke="midnightblue" points="1949.69,-101.64 1947.9,-112.08 1955.81,-105.04 1949.69,-101.64"/>
</g>
<!-- Node6&#45;&gt;Node12 -->
<g id="edge11" class="edge">
<title>Node6&#45;&gt;Node12</title>
<path fill="none" stroke="midnightblue" d="M1919.71,-106.9C1903.39,-97 1882.08,-84.07 1868.21,-75.65"/>
<polygon fill="midnightblue" stroke="midnightblue" points="1918.28,-110.13 1928.64,-112.32 1921.91,-104.14 1918.28,-110.13"/>
</g>
<!-- Node13 -->
<g id="node13" class="node">
<title>Node13</title>
<g id="a_node13"><a xlink:href="_o_m_sim_angular_scan_8cc.html" target="_top" xlink:title=" ">
<polygon fill="white" stroke="black" points="2024.94,-56.5 2024.94,-75.5 2150.94,-75.5 2150.94,-56.5 2024.94,-56.5"/>
<text text-anchor="middle" x="2087.94" y="-63.5" font-family="Helvetica,sans-Serif" font-size="10.00">OMSimAngularScan.cc</text>
</a>
</g>
</g>
<!-- Node6&#45;&gt;Node13 -->
<g id="edge12" class="edge">
<title>Node6&#45;&gt;Node13</title>
<path fill="none" stroke="midnightblue" d="M1975.42,-108.91C2002.68,-98.75 2040.94,-84.51 2065.08,-75.52"/>
<polygon fill="midnightblue" stroke="midnightblue" points="1974.07,-105.67 1965.92,-112.44 1976.51,-112.23 1974.07,-105.67"/>
</g>
<!-- Node14 -->
<g id="node14" class="node">
<title>Node14</title>
<g id="a_node14"><a xlink:href="_o_m_sim_decays_g_p_s_8cc.html" target="_top" xlink:title=" ">
<polygon fill="white" stroke="black" points="2169.44,-56.5 2169.44,-75.5 2290.44,-75.5 2290.44,-56.5 2169.44,-56.5"/>
<text text-anchor="middle" x="2229.94" y="-63.5" font-family="Helvetica,sans-Serif" font-size="10.00">OMSimDecaysGPS.cc</text>
</a>
</g>
</g>
<!-- Node6&#45;&gt;Node14 -->
<g id="edge13" class="edge">
<title>Node6&#45;&gt;Node14</title>
<path fill="none" stroke="midnightblue" d="M1998.55,-110.54C2052.79,-100.33 2134.28,-85 2184.68,-75.52"/>
<polygon fill="midnightblue" stroke="midnightblue" points="1997.6,-107.15 1988.42,-112.44 1998.89,-114.03 1997.6,-107.15"/>
</g>
<!-- Node8 -->
<g id="node8" class="node">
<title>Node8</title>
<g id="a_node8"><a xlink:href="_o_m_sim_8cc.html" target="_top" xlink:title="Implementation of the OMSim class.">
<polygon fill="white" stroke="black" points="1733.44,-0.5 1733.44,-19.5 1798.44,-19.5 1798.44,-0.5 1733.44,-0.5"/>
<text text-anchor="middle" x="1765.94" y="-7.5" font-family="Helvetica,sans-Serif" font-size="10.00">OMSim.cc</text>
</a>
</g>
</g>
<!-- Node7&#45;&gt;Node8 -->
<g id="edge7" class="edge">
<title>Node7&#45;&gt;Node8</title>
<path fill="none" stroke="midnightblue" d="M1930.12,-53.83C1891.04,-43.63 1834.11,-28.78 1798.59,-19.52"/>
<polygon fill="midnightblue" stroke="midnightblue" points="1929.58,-57.31 1940.14,-56.44 1931.35,-50.53 1929.58,-57.31"/>
</g>
<!-- Node9 -->
<g id="node9" class="node">
<title>Node9</title>
<g id="a_node9"><a xlink:href="_o_m_sim__effective__area_8cc.html" target="_top" xlink:title="Main for the calculation of effective areas.">
<polygon fill="white" stroke="black" points="1816.94,-0.5 1816.94,-19.5 1956.94,-19.5 1956.94,-0.5 1816.94,-0.5"/>
<text text-anchor="middle" x="1886.94" y="-7.5" font-family="Helvetica,sans-Serif" font-size="10.00">OMSim_effective_area.cc</text>
</a>
</g>
</g>
<!-- Node7&#45;&gt;Node9 -->
<g id="edge8" class="edge">
<title>Node7&#45;&gt;Node9</title>
<path fill="none" stroke="midnightblue" d="M1950.49,-50.9C1934.72,-41 1914.13,-28.07 1900.73,-19.65"/>
<polygon fill="midnightblue" stroke="midnightblue" points="1948.8,-53.97 1959.13,-56.32 1952.52,-48.04 1948.8,-53.97"/>
</g>
<!-- Node10 -->
<g id="node10" class="node">
<title>Node10</title>
<g id="a_node10"><a xlink:href="_o_m_sim__radioactive__decays_8cc.html" target="_top" xlink:title="Main of the radioactive decay study.">
<polygon fill="white" stroke="black" points="1975.44,-0.5 1975.44,-19.5 2140.44,-19.5 2140.44,-0.5 1975.44,-0.5"/>
<text text-anchor="middle" x="2057.94" y="-7.5" font-family="Helvetica,sans-Serif" font-size="10.00">OMSim_radioactive_decays.cc</text>
</a>
</g>
</g>
<!-- Node7&#45;&gt;Node10 -->
<g id="edge9" class="edge">
<title>Node7&#45;&gt;Node10</title>
<path fill="none" stroke="midnightblue" d="M1995.14,-50.9C2010.72,-41 2031.07,-28.07 2044.32,-19.65"/>
<polygon fill="midnightblue" stroke="midnightblue" points="1993.16,-48.01 1986.6,-56.32 1996.92,-53.92 1993.16,-48.01"/>
</g>
<!-- Node11 -->
<g id="node11" class="node">
<title>Node11</title>
<g id="a_node11"><a xlink:href="_o_m_sim__supernova_8cc.html" target="_top" xlink:title="Main of the supernova study.">
<polygon fill="white" stroke="black" points="2158.94,-0.5 2158.94,-19.5 2280.94,-19.5 2280.94,-0.5 2158.94,-0.5"/>
<text text-anchor="middle" x="2219.94" y="-7.5" font-family="Helvetica,sans-Serif" font-size="10.00">OMSim_supernova.cc</text>
</a>
</g>
</g>
<!-- Node7&#45;&gt;Node11 -->
<g id="edge10" class="edge">
<title>Node7&#45;&gt;Node11</title>
<path fill="none" stroke="midnightblue" d="M2016.29,-55.52C2062.77,-45.36 2135.92,-29.37 2180.74,-19.57"/>
<polygon fill="midnightblue" stroke="midnightblue" points="2015.53,-52.11 2006.51,-57.66 2017.03,-58.94 2015.53,-52.11"/>
</g>
</g>
</svg>
