<?xml version="1.0" encoding="UTF-8" standalone="no"?>
<!DOCTYPE svg PUBLIC "-//W3C//DTD SVG 1.1//EN"
 "http://www.w3.org/Graphics/SVG/1.1/DTD/svg11.dtd">
<!-- Generated by graphviz version 2.43.0 (0)
 -->
<!-- Title: OMSimCommandArgsTable.hh Pages: 1 -->
<svg width="2415pt" height="196pt"
 viewBox="0.00 0.00 2414.50 196.00" xmlns="http://www.w3.org/2000/svg" xmlns:xlink="http://www.w3.org/1999/xlink">
<g id="graph0" class="graph" transform="scale(1 1) rotate(0) translate(4 192)">
<title>OMSimCommandArgsTable.hh</title>
<polygon fill="white" stroke="transparent" points="-4,4 -4,-192 2410.5,-192 2410.5,4 -4,4"/>
<!-- Node1 -->
<g id="node1" class="node">
<title>Node1</title>
<g id="a_node1"><a xlink:title="Definition of the OMSimCommandArgsTable singleton class, which controls user args.">
<polygon fill="#bfbfbf" stroke="black" points="1085,-168.5 1085,-187.5 1249,-187.5 1249,-168.5 1085,-168.5"/>
<text text-anchor="middle" x="1167" y="-175.5" font-family="Helvetica,sans-Serif" font-size="10.00">OMSimCommandArgsTable.hh</text>
</a>
</g>
</g>
<!-- Node2 -->
<g id="node2" class="node">
<title>Node2</title>
<g id="a_node2"><a xlink:href="_o_m_sim_data_file_types_8hh.html" target="_top" xlink:title="Collection of classes and methods to handle material creation from user data in json files.">
<polygon fill="white" stroke="black" points="141.5,-112.5 141.5,-131.5 276.5,-131.5 276.5,-112.5 141.5,-112.5"/>
<text text-anchor="middle" x="209" y="-119.5" font-family="Helvetica,sans-Serif" font-size="10.00">OMSimDataFileTypes.hh</text>
</a>
</g>
</g>
<!-- Node1&#45;&gt;Node2 -->
<g id="edge1" class="edge">
<title>Node1&#45;&gt;Node2</title>
<path fill="none" stroke="midnightblue" d="M1074.62,-173.19C917.75,-166.48 589.31,-151.41 312,-132 300.54,-131.2 288.37,-130.23 276.57,-129.24"/>
<polygon fill="midnightblue" stroke="midnightblue" points="1074.56,-176.69 1084.7,-173.62 1074.86,-169.69 1074.56,-176.69"/>
</g>
<!-- Node4 -->
<g id="node4" class="node">
<title>Node4</title>
<g id="a_node4"><a xlink:href="_o_m_sim_input_data_8cc.html" target="_top" xlink:title=" ">
<polygon fill="white" stroke="black" points="152.5,-56.5 152.5,-75.5 265.5,-75.5 265.5,-56.5 152.5,-56.5"/>
<text text-anchor="middle" x="209" y="-63.5" font-family="Helvetica,sans-Serif" font-size="10.00">OMSimInputData.cc</text>
</a>
</g>
</g>
<!-- Node1&#45;&gt;Node4 -->
<g id="edge14" class="edge">
<title>Node1&#45;&gt;Node4</title>
<path fill="none" stroke="midnightblue" d="M1074.78,-176.04C892.03,-173.46 489.98,-164.2 356,-132 304.99,-119.74 249.62,-90.43 223.81,-75.73"/>
<polygon fill="midnightblue" stroke="midnightblue" points="1074.86,-179.54 1084.91,-176.18 1074.96,-172.54 1074.86,-179.54"/>
</g>
<!-- Node5 -->
<g id="node5" class="node">
<title>Node5</title>
<g id="a_node5"><a xlink:href="_o_m_sim_u_iinterface_8hh.html" target="_top" xlink:title="The OMSimUIinterface class provides a singleton interface to Geant4&#39;s UI manager.">
<polygon fill="white" stroke="black" points="364.5,-112.5 364.5,-131.5 485.5,-131.5 485.5,-112.5 364.5,-112.5"/>
<text text-anchor="middle" x="425" y="-119.5" font-family="Helvetica,sans-Serif" font-size="10.00">OMSimUIinterface.hh</text>
</a>
</g>
</g>
<!-- Node1&#45;&gt;Node5 -->
<g id="edge4" class="edge">
<title>Node1&#45;&gt;Node5</title>
<path fill="none" stroke="midnightblue" d="M1074.6,-172.6C944.93,-166.02 701.64,-152.18 495,-132 491.95,-131.7 488.83,-131.38 485.68,-131.03"/>
<polygon fill="midnightblue" stroke="midnightblue" points="1074.72,-176.11 1084.89,-173.12 1075.08,-169.12 1074.72,-176.11"/>
</g>
<!-- Node14 -->
<g id="node14" class="node">
<title>Node14</title>
<g id="a_node14"><a xlink:href="_o_m_sim_hit_manager_8cc.html" target="_top" xlink:title=" ">
<polygon fill="white" stroke="black" points="504,-112.5 504,-131.5 626,-131.5 626,-112.5 504,-112.5"/>
<text text-anchor="middle" x="565" y="-119.5" font-family="Helvetica,sans-Serif" font-size="10.00">OMSimHitManager.cc</text>
</a>
</g>
</g>
<!-- Node1&#45;&gt;Node14 -->
<g id="edge13" class="edge">
<title>Node1&#45;&gt;Node14</title>
<path fill="none" stroke="midnightblue" d="M1074.55,-170.34C968.52,-162.42 789.53,-148.23 636,-132 632.79,-131.66 629.49,-131.3 626.17,-130.92"/>
<polygon fill="midnightblue" stroke="midnightblue" points="1074.34,-173.83 1084.58,-171.08 1074.86,-166.85 1074.34,-173.83"/>
</g>
<!-- Node15 -->
<g id="node15" class="node">
<title>Node15</title>
<g id="a_node15"><a xlink:href="_o_m_sim_p_m_t_construction_8cc.html" target="_top" xlink:title=" ">
<polygon fill="white" stroke="black" points="644.5,-112.5 644.5,-131.5 791.5,-131.5 791.5,-112.5 644.5,-112.5"/>
<text text-anchor="middle" x="718" y="-119.5" font-family="Helvetica,sans-Serif" font-size="10.00">OMSimPMTConstruction.cc</text>
</a>
</g>
</g>
<!-- Node1&#45;&gt;Node15 -->
<g id="edge15" class="edge">
<title>Node1&#45;&gt;Node15</title>
<path fill="none" stroke="midnightblue" d="M1085.76,-167.23C1001,-157.04 869.46,-141.22 788.81,-131.52"/>
<polygon fill="midnightblue" stroke="midnightblue" points="1085.51,-170.72 1095.85,-168.44 1086.34,-163.77 1085.51,-170.72"/>
</g>
<!-- Node16 -->
<g id="node16" class="node">
<title>Node16</title>
<g id="a_node16"><a xlink:href="_o_m_sim_m_d_o_m_8cc.html" target="_top" xlink:title=" ">
<polygon fill="white" stroke="black" points="810,-112.5 810,-131.5 908,-131.5 908,-112.5 810,-112.5"/>
<text text-anchor="middle" x="859" y="-119.5" font-family="Helvetica,sans-Serif" font-size="10.00">OMSimMDOM.cc</text>
</a>
</g>
</g>
<!-- Node1&#45;&gt;Node16 -->
<g id="edge16" class="edge">
<title>Node1&#45;&gt;Node16</title>
<path fill="none" stroke="midnightblue" d="M1108.05,-166.66C1049.84,-156.46 961.89,-141.04 907.58,-131.52"/>
<polygon fill="midnightblue" stroke="midnightblue" points="1107.74,-170.16 1118.2,-168.44 1108.95,-163.27 1107.74,-170.16"/>
</g>
<!-- Node17 -->
<g id="node17" class="node">
<title>Node17</title>
<g id="a_node17"><a xlink:href="_o_m_sim_m_d_o_m_harness_8cc.html" target="_top" xlink:title=" ">
<polygon fill="white" stroke="black" points="926,-112.5 926,-131.5 1064,-131.5 1064,-112.5 926,-112.5"/>
<text text-anchor="middle" x="995" y="-119.5" font-family="Helvetica,sans-Serif" font-size="10.00">OMSimMDOMHarness.cc</text>
</a>
</g>
</g>
<!-- Node1&#45;&gt;Node17 -->
<g id="edge17" class="edge">
<title>Node1&#45;&gt;Node17</title>
<path fill="none" stroke="midnightblue" d="M1130.17,-165.44C1097.74,-155.26 1051.26,-140.66 1022.13,-131.52"/>
<polygon fill="midnightblue" stroke="midnightblue" points="1129.16,-168.79 1139.75,-168.44 1131.25,-162.11 1129.16,-168.79"/>
</g>
<!-- Node18 -->
<g id="node18" class="node">
<title>Node18</title>
<g id="a_node18"><a xlink:href="effective__area_2src_2_o_m_sim_detector_construction_8cc.html" target="_top" xlink:title=" ">
<polygon fill="white" stroke="black" points="1082.5,-112.5 1082.5,-131.5 1251.5,-131.5 1251.5,-112.5 1082.5,-112.5"/>
<text text-anchor="middle" x="1167" y="-119.5" font-family="Helvetica,sans-Serif" font-size="10.00">OMSimDetectorConstruction.cc</text>
</a>
</g>
</g>
<!-- Node1&#45;&gt;Node18 -->
<g id="edge18" class="edge">
<title>Node1&#45;&gt;Node18</title>
<path fill="none" stroke="midnightblue" d="M1167,-157.8C1167,-148.91 1167,-138.78 1167,-131.75"/>
<polygon fill="midnightblue" stroke="midnightblue" points="1163.5,-158.08 1167,-168.08 1170.5,-158.08 1163.5,-158.08"/>
</g>
<!-- Node19 -->
<g id="node19" class="node">
<title>Node19</title>
<g id="a_node19"><a xlink:href="_o_m_sim_effective_area_analyisis_8cc.html" target="_top" xlink:title=" ">
<polygon fill="white" stroke="black" points="1269.5,-112.5 1269.5,-131.5 1444.5,-131.5 1444.5,-112.5 1269.5,-112.5"/>
<text text-anchor="middle" x="1357" y="-119.5" font-family="Helvetica,sans-Serif" font-size="10.00">OMSimEffectiveAreaAnalyisis.cc</text>
</a>
</g>
</g>
<!-- Node1&#45;&gt;Node19 -->
<g id="edge19" class="edge">
<title>Node1&#45;&gt;Node19</title>
<path fill="none" stroke="midnightblue" d="M1206.76,-165.7C1242.62,-155.51 1294.57,-140.74 1327.03,-131.52"/>
<polygon fill="midnightblue" stroke="midnightblue" points="1205.77,-162.34 1197.11,-168.44 1207.68,-169.08 1205.77,-162.34"/>
</g>
<!-- Node20 -->
<g id="node20" class="node">
<title>Node20</title>
<g id="a_node20"><a xlink:href="_o_m_sim_decays_analysis_8cc.html" target="_top" xlink:title=" ">
<polygon fill="white" stroke="black" points="1462.5,-112.5 1462.5,-131.5 1605.5,-131.5 1605.5,-112.5 1462.5,-112.5"/>
<text text-anchor="middle" x="1534" y="-119.5" font-family="Helvetica,sans-Serif" font-size="10.00">OMSimDecaysAnalysis.cc</text>
</a>
</g>
</g>
<!-- Node1&#45;&gt;Node20 -->
<g id="edge20" class="edge">
<title>Node1&#45;&gt;Node20</title>
<path fill="none" stroke="midnightblue" d="M1235.1,-166.98C1304.43,-156.78 1410.73,-141.14 1476.12,-131.52"/>
<polygon fill="midnightblue" stroke="midnightblue" points="1234.54,-163.53 1225.15,-168.44 1235.56,-170.45 1234.54,-163.53"/>
</g>
<!-- Node21 -->
<g id="node21" class="node">
<title>Node21</title>
<g id="a_node21"><a xlink:href="radioactive__decays_2src_2_o_m_sim_detector_construction_8cc.html" target="_top" xlink:title=" ">
<polygon fill="white" stroke="black" points="1623.5,-112.5 1623.5,-131.5 1792.5,-131.5 1792.5,-112.5 1623.5,-112.5"/>
<text text-anchor="middle" x="1708" y="-119.5" font-family="Helvetica,sans-Serif" font-size="10.00">OMSimDetectorConstruction.cc</text>
</a>
</g>
</g>
<!-- Node1&#45;&gt;Node21 -->
<g id="edge21" class="edge">
<title>Node1&#45;&gt;Node21</title>
<path fill="none" stroke="midnightblue" d="M1259.15,-167.8C1361.19,-157.62 1524.32,-141.33 1623.27,-131.46"/>
<polygon fill="midnightblue" stroke="midnightblue" points="1258.77,-164.32 1249.17,-168.8 1259.46,-171.29 1258.77,-164.32"/>
</g>
<!-- Node22 -->
<g id="node22" class="node">
<title>Node22</title>
<g id="a_node22"><a xlink:href="radioactive__decays_2src_2_o_m_sim_event_action_8cc.html" target="_top" xlink:title=" ">
<polygon fill="white" stroke="black" points="1810,-112.5 1810,-131.5 1934,-131.5 1934,-112.5 1810,-112.5"/>
<text text-anchor="middle" x="1872" y="-119.5" font-family="Helvetica,sans-Serif" font-size="10.00">OMSimEventAction.cc</text>
</a>
</g>
</g>
<!-- Node1&#45;&gt;Node22 -->
<g id="edge22" class="edge">
<title>Node1&#45;&gt;Node22</title>
<path fill="none" stroke="midnightblue" d="M1259.26,-172.12C1382.96,-165.2 1609.32,-151.2 1802,-132 1804.56,-131.74 1807.17,-131.47 1809.81,-131.18"/>
<polygon fill="midnightblue" stroke="midnightblue" points="1258.86,-168.64 1249.07,-172.69 1259.25,-175.62 1258.86,-168.64"/>
</g>
<!-- Node23 -->
<g id="node23" class="node">
<title>Node23</title>
<g id="a_node23"><a xlink:href="_o_m_sim_g4_radioactive_decay_8cc.html" target="_top" xlink:title=" ">
<polygon fill="white" stroke="black" points="1952,-112.5 1952,-131.5 2118,-131.5 2118,-112.5 1952,-112.5"/>
<text text-anchor="middle" x="2035" y="-119.5" font-family="Helvetica,sans-Serif" font-size="10.00">OMSimG4RadioactiveDecay.cc</text>
</a>
</g>
</g>
<!-- Node1&#45;&gt;Node23 -->
<g id="edge23" class="edge">
<title>Node1&#45;&gt;Node23</title>
<path fill="none" stroke="midnightblue" d="M1259.42,-172.83C1404.93,-165.99 1696.32,-151.21 1943,-132 1945.88,-131.78 1948.81,-131.54 1951.77,-131.29"/>
<polygon fill="midnightblue" stroke="midnightblue" points="1259.02,-169.34 1249.19,-173.3 1259.35,-176.33 1259.02,-169.34"/>
</g>
<!-- Node24 -->
<g id="node24" class="node">
<title>Node24</title>
<g id="a_node24"><a xlink:href="supernova_2src_2_o_m_sim_detector_construction_8cc.html" target="_top" xlink:title=" ">
<polygon fill="white" stroke="black" points="2136.5,-112.5 2136.5,-131.5 2305.5,-131.5 2305.5,-112.5 2136.5,-112.5"/>
<text text-anchor="middle" x="2221" y="-119.5" font-family="Helvetica,sans-Serif" font-size="10.00">OMSimDetectorConstruction.cc</text>
</a>
</g>
</g>
<!-- Node1&#45;&gt;Node24 -->
<g id="edge24" class="edge">
<title>Node1&#45;&gt;Node24</title>
<path fill="none" stroke="midnightblue" d="M1259.5,-174.16C1430.81,-168.57 1808.96,-154.67 2127,-132 2130.11,-131.78 2133.27,-131.54 2136.47,-131.29"/>
<polygon fill="midnightblue" stroke="midnightblue" points="1259.15,-170.67 1249.27,-174.49 1259.37,-177.67 1259.15,-170.67"/>
</g>
<!-- Node25 -->
<g id="node25" class="node">
<title>Node25</title>
<g id="a_node25"><a xlink:href="_o_m_sim_i_b_d_8cc.html" target="_top" xlink:title=" ">
<polygon fill="white" stroke="black" points="2323.5,-112.5 2323.5,-131.5 2406.5,-131.5 2406.5,-112.5 2323.5,-112.5"/>
<text text-anchor="middle" x="2365" y="-119.5" font-family="Helvetica,sans-Serif" font-size="10.00">OMSimIBD.cc</text>
</a>
</g>
</g>
<!-- Node1&#45;&gt;Node25 -->
<g id="edge25" class="edge">
<title>Node1&#45;&gt;Node25</title>
<path fill="none" stroke="midnightblue" d="M1259.29,-177.72C1454.66,-178.29 1924.19,-174.62 2315,-132 2317.72,-131.7 2320.51,-131.35 2323.32,-130.95"/>
<polygon fill="midnightblue" stroke="midnightblue" points="1259.08,-174.22 1249.07,-177.68 1259.05,-181.22 1259.08,-174.22"/>
</g>
<!-- Node3 -->
<g id="node3" class="node">
<title>Node3</title>
<g id="a_node3"><a xlink:href="_o_m_sim_data_file_types_8cc.html" target="_top" xlink:title=" ">
<polygon fill="white" stroke="black" points="0,-56.5 0,-75.5 134,-75.5 134,-56.5 0,-56.5"/>
<text text-anchor="middle" x="67" y="-63.5" font-family="Helvetica,sans-Serif" font-size="10.00">OMSimDataFileTypes.cc</text>
</a>
</g>
</g>
<!-- Node2&#45;&gt;Node3 -->
<g id="edge2" class="edge">
<title>Node2&#45;&gt;Node3</title>
<path fill="none" stroke="midnightblue" d="M176.84,-108.77C150.17,-98.63 112.93,-84.47 89.4,-75.52"/>
<polygon fill="midnightblue" stroke="midnightblue" points="175.91,-112.16 186.5,-112.44 178.4,-105.62 175.91,-112.16"/>
</g>
<!-- Node2&#45;&gt;Node4 -->
<g id="edge3" class="edge">
<title>Node2&#45;&gt;Node4</title>
<path fill="none" stroke="midnightblue" d="M209,-101.8C209,-92.91 209,-82.78 209,-75.75"/>
<polygon fill="midnightblue" stroke="midnightblue" points="205.5,-102.08 209,-112.08 212.5,-102.08 205.5,-102.08"/>
</g>
<!-- Node6 -->
<g id="node6" class="node">
<title>Node6</title>
<g id="a_node6"><a xlink:href="_o_m_sim_8hh.html" target="_top" xlink:title="Main simulation class for the Optical Module (OM) simulation. This file defines the OMSim class,...">
<polygon fill="white" stroke="black" points="283.5,-56.5 283.5,-75.5 350.5,-75.5 350.5,-56.5 283.5,-56.5"/>
<text text-anchor="middle" x="317" y="-63.5" font-family="Helvetica,sans-Serif" font-size="10.00">OMSim.hh</text>
</a>
</g>
</g>
<!-- Node5&#45;&gt;Node6 -->
<g id="edge5" class="edge">
<title>Node5&#45;&gt;Node6</title>
<path fill="none" stroke="midnightblue" d="M398.45,-107.73C378.45,-97.73 351.61,-84.31 334.31,-75.65"/>
<polygon fill="midnightblue" stroke="midnightblue" points="397.14,-110.98 407.65,-112.32 400.27,-104.72 397.14,-110.98"/>
</g>
<!-- Node11 -->
<g id="node11" class="node">
<title>Node11</title>
<g id="a_node11"><a xlink:href="_o_m_sim_m_d_o_m_flasher_8cc.html" target="_top" xlink:title=" ">
<polygon fill="white" stroke="black" points="369,-56.5 369,-75.5 503,-75.5 503,-56.5 369,-56.5"/>
<text text-anchor="middle" x="436" y="-63.5" font-family="Helvetica,sans-Serif" font-size="10.00">OMSimMDOMFlasher.cc</text>
</a>
</g>
</g>
<!-- Node5&#45;&gt;Node11 -->
<g id="edge10" class="edge">
<title>Node5&#45;&gt;Node11</title>
<path fill="none" stroke="midnightblue" d="M428.85,-102.1C430.68,-93.14 432.77,-82.86 434.22,-75.75"/>
<polygon fill="midnightblue" stroke="midnightblue" points="425.38,-101.59 426.82,-112.08 432.24,-102.98 425.38,-101.59"/>
</g>
<!-- Node12 -->
<g id="node12" class="node">
<title>Node12</title>
<g id="a_node12"><a xlink:href="_o_m_sim_angular_scan_8cc.html" target="_top" xlink:title=" ">
<polygon fill="white" stroke="black" points="521,-56.5 521,-75.5 647,-75.5 647,-56.5 521,-56.5"/>
<text text-anchor="middle" x="584" y="-63.5" font-family="Helvetica,sans-Serif" font-size="10.00">OMSimAngularScan.cc</text>
</a>
</g>
</g>
<!-- Node5&#45;&gt;Node12 -->
<g id="edge11" class="edge">
<title>Node5&#45;&gt;Node12</title>
<path fill="none" stroke="midnightblue" d="M459.83,-109.17C489.77,-99 532.22,-84.59 558.92,-75.52"/>
<polygon fill="midnightblue" stroke="midnightblue" points="458.54,-105.91 450.19,-112.44 460.79,-112.54 458.54,-105.91"/>
</g>
<!-- Node13 -->
<g id="node13" class="node">
<title>Node13</title>
<g id="a_node13"><a xlink:href="_o_m_sim_decays_g_p_s_8cc.html" target="_top" xlink:title=" ">
<polygon fill="white" stroke="black" points="665.5,-56.5 665.5,-75.5 786.5,-75.5 786.5,-56.5 665.5,-56.5"/>
<text text-anchor="middle" x="726" y="-63.5" font-family="Helvetica,sans-Serif" font-size="10.00">OMSimDecaysGPS.cc</text>
</a>
</g>
</g>
<!-- Node5&#45;&gt;Node13 -->
<g id="edge12" class="edge">
<title>Node5&#45;&gt;Node13</title>
<path fill="none" stroke="midnightblue" d="M482.61,-110.66C539.5,-100.46 625.45,-85.04 678.53,-75.52"/>
<polygon fill="midnightblue" stroke="midnightblue" points="481.92,-107.23 472.69,-112.44 483.16,-114.12 481.92,-107.23"/>
</g>
<!-- Node7 -->
<g id="node7" class="node">
<title>Node7</title>
<g id="a_node7"><a xlink:href="_o_m_sim_8cc.html" target="_top" xlink:title="Implementation of the OMSim class.">
<polygon fill="white" stroke="black" points="78.5,-0.5 78.5,-19.5 143.5,-19.5 143.5,-0.5 78.5,-0.5"/>
<text text-anchor="middle" x="111" y="-7.5" font-family="Helvetica,sans-Serif" font-size="10.00">OMSim.cc</text>
</a>
</g>
</g>
<!-- Node6&#45;&gt;Node7 -->
<g id="edge6" class="edge">
<title>Node6&#45;&gt;Node7</title>
<path fill="none" stroke="midnightblue" d="M274.38,-53.83C235.49,-43.63 178.84,-28.78 143.49,-19.52"/>
<polygon fill="midnightblue" stroke="midnightblue" points="273.8,-57.29 284.36,-56.44 275.57,-50.52 273.8,-57.29"/>
</g>
<!-- Node8 -->
<g id="node8" class="node">
<title>Node8</title>
<g id="a_node8"><a xlink:href="_o_m_sim__effective__area_8cc.html" target="_top" xlink:title="Main for the calculation of effective areas.">
<polygon fill="white" stroke="black" points="162,-0.5 162,-19.5 302,-19.5 302,-0.5 162,-0.5"/>
<text text-anchor="middle" x="232" y="-7.5" font-family="Helvetica,sans-Serif" font-size="10.00">OMSim_effective_area.cc</text>
</a>
</g>
</g>
<!-- Node6&#45;&gt;Node8 -->
<g id="edge7" class="edge">
<title>Node6&#45;&gt;Node8</title>
<path fill="none" stroke="midnightblue" d="M294.81,-50.9C279.22,-41 258.87,-28.07 245.62,-19.65"/>
<polygon fill="midnightblue" stroke="midnightblue" points="293.03,-53.92 303.34,-56.32 296.78,-48.01 293.03,-53.92"/>
</g>
<!-- Node9 -->
<g id="node9" class="node">
<title>Node9</title>
<g id="a_node9"><a xlink:href="_o_m_sim__radioactive__decays_8cc.html" target="_top" xlink:title=" ">
<polygon fill="white" stroke="black" points="320.5,-0.5 320.5,-19.5 485.5,-19.5 485.5,-0.5 320.5,-0.5"/>
<text text-anchor="middle" x="403" y="-7.5" font-family="Helvetica,sans-Serif" font-size="10.00">OMSim_radioactive_decays.cc</text>
</a>
</g>
</g>
<!-- Node6&#45;&gt;Node9 -->
<g id="edge8" class="edge">
<title>Node6&#45;&gt;Node9</title>
<path fill="none" stroke="midnightblue" d="M339.45,-50.9C355.22,-41 375.81,-28.07 389.22,-19.65"/>
<polygon fill="midnightblue" stroke="midnightblue" points="337.43,-48.04 330.82,-56.32 341.15,-53.97 337.43,-48.04"/>
</g>
<!-- Node10 -->
<g id="node10" class="node">
<title>Node10</title>
<g id="a_node10"><a xlink:href="_o_m_sim__supernova_8cc.html" target="_top" xlink:title=" ">
<polygon fill="white" stroke="black" points="504,-0.5 504,-19.5 626,-19.5 626,-0.5 504,-0.5"/>
<text text-anchor="middle" x="565" y="-7.5" font-family="Helvetica,sans-Serif" font-size="10.00">OMSim_supernova.cc</text>
</a>
</g>
</g>
<!-- Node6&#45;&gt;Node10 -->
<g id="edge9" class="edge">
<title>Node6&#45;&gt;Node10</title>
<path fill="none" stroke="midnightblue" d="M360.52,-55.52C407.19,-45.36 480.64,-29.37 525.64,-19.57"/>
<polygon fill="midnightblue" stroke="midnightblue" points="359.73,-52.11 350.7,-57.66 361.22,-58.95 359.73,-52.11"/>
</g>
</g>
</svg>
