<?xml version="1.0" encoding="UTF-8" standalone="no"?>
<!DOCTYPE svg PUBLIC "-//W3C//DTD SVG 1.1//EN"
 "http://www.w3.org/Graphics/SVG/1.1/DTD/svg11.dtd">
<!-- Generated by graphviz version 2.43.0 (0)
 -->
<!-- Title: /home/runner/work/OMSim/OMSim/effective_area/src/OMSimSimpleGPSBeams.cc Pages: 1 -->
<svg width="624pt" height="218pt"
 viewBox="0.00 0.00 623.50 218.00" xmlns="http://www.w3.org/2000/svg" xmlns:xlink="http://www.w3.org/1999/xlink">
<g id="graph0" class="graph" transform="scale(1 1) rotate(0) translate(4 214)">
<title>/home/runner/work/OMSim/OMSim/effective_area/src/OMSimSimpleGPSBeams.cc</title>
<polygon fill="white" stroke="transparent" points="-4,4 -4,-214 619.5,-214 619.5,4 -4,4"/>
<!-- Node1 -->
<g id="node1" class="node">
<title>Node1</title>
<g id="a_node1"><a xlink:title="Defines the AngularScan class for simple GPS beam configurations.">
<polygon fill="#bfbfbf" stroke="black" points="253,-168.5 253,-209.5 426,-209.5 426,-168.5 253,-168.5"/>
<text text-anchor="start" x="261" y="-197.5" font-family="Helvetica,sans-Serif" font-size="10.00">/home/runner/work/OMSim</text>
<text text-anchor="start" x="261" y="-186.5" font-family="Helvetica,sans-Serif" font-size="10.00">/OMSim/effective_area</text>
<text text-anchor="middle" x="339.5" y="-175.5" font-family="Helvetica,sans-Serif" font-size="10.00">/src/OMSimSimpleGPSBeams.cc</text>
</a>
</g>
</g>
<!-- Node2 -->
<g id="node2" class="node">
<title>Node2</title>
<g id="a_node2"><a xlink:href="_o_m_sim_simple_g_p_s_beams_8hh.html" target="_top" xlink:title=" ">
<polygon fill="white" stroke="black" points="65.5,-112.5 65.5,-131.5 219.5,-131.5 219.5,-112.5 65.5,-112.5"/>
<text text-anchor="middle" x="142.5" y="-119.5" font-family="Helvetica,sans-Serif" font-size="10.00">OMSimSimpleGPSBeams.hh</text>
</a>
</g>
</g>
<!-- Node1&#45;&gt;Node2 -->
<g id="edge1" class="edge">
<title>Node1&#45;&gt;Node2</title>
<path fill="none" stroke="midnightblue" d="M280.39,-168.5C247.04,-157.49 206.47,-144.11 178,-134.71"/>
<polygon fill="midnightblue" stroke="midnightblue" points="179.06,-131.38 168.46,-131.57 176.86,-138.02 179.06,-131.38"/>
</g>
<!-- Node4 -->
<g id="node4" class="node">
<title>Node4</title>
<g id="a_node4"><a xlink:href="_o_m_sim_u_iinterface_8hh.html" target="_top" xlink:title="The OMSimUIinterface class provides a singleton interface to Geant4&#39;s UI manager.">
<polygon fill="white" stroke="black" points="279,-112.5 279,-131.5 400,-131.5 400,-112.5 279,-112.5"/>
<text text-anchor="middle" x="339.5" y="-119.5" font-family="Helvetica,sans-Serif" font-size="10.00">OMSimUIinterface.hh</text>
</a>
</g>
</g>
<!-- Node1&#45;&gt;Node4 -->
<g id="edge3" class="edge">
<title>Node1&#45;&gt;Node4</title>
<path fill="none" stroke="midnightblue" d="M339.5,-168.5C339.5,-160.07 339.5,-150.24 339.5,-141.87"/>
<polygon fill="midnightblue" stroke="midnightblue" points="343,-141.65 339.5,-131.65 336,-141.65 343,-141.65"/>
</g>
<!-- Node16 -->
<g id="node16" class="node">
<title>Node16</title>
<g id="a_node16"><a xlink:title=" ">
<polygon fill="white" stroke="#bfbfbf" points="418,-112.5 418,-131.5 537,-131.5 537,-112.5 418,-112.5"/>
<text text-anchor="middle" x="477.5" y="-119.5" font-family="Helvetica,sans-Serif" font-size="10.00">G4SystemOfUnits.hh</text>
</a>
</g>
</g>
<!-- Node1&#45;&gt;Node16 -->
<g id="edge17" class="edge">
<title>Node1&#45;&gt;Node16</title>
<path fill="none" stroke="midnightblue" d="M380.9,-168.5C403.28,-157.96 430.3,-145.23 450.06,-135.92"/>
<polygon fill="midnightblue" stroke="midnightblue" points="451.57,-139.08 459.13,-131.65 448.59,-132.75 451.57,-139.08"/>
</g>
<!-- Node3 -->
<g id="node3" class="node">
<title>Node3</title>
<g id="a_node3"><a xlink:title=" ">
<polygon fill="white" stroke="#bfbfbf" points="0,-0.5 0,-19.5 67,-19.5 67,-0.5 0,-0.5"/>
<text text-anchor="middle" x="33.5" y="-7.5" font-family="Helvetica,sans-Serif" font-size="10.00">globals.hh</text>
</a>
</g>
</g>
<!-- Node2&#45;&gt;Node3 -->
<g id="edge2" class="edge">
<title>Node2&#45;&gt;Node3</title>
<path fill="none" stroke="midnightblue" d="M125.1,-112.46C110.15,-104.52 88.67,-91.57 73.5,-76 59.96,-62.1 48.82,-42.83 41.77,-28.88"/>
<polygon fill="midnightblue" stroke="midnightblue" points="44.89,-27.3 37.38,-19.82 38.59,-30.35 44.89,-27.3"/>
</g>
<!-- Node5 -->
<g id="node5" class="node">
<title>Node5</title>
<g id="a_node5"><a xlink:title=" ">
<polygon fill="white" stroke="#bfbfbf" points="264.5,-56.5 264.5,-75.5 320.5,-75.5 320.5,-56.5 264.5,-56.5"/>
<text text-anchor="middle" x="292.5" y="-63.5" font-family="Helvetica,sans-Serif" font-size="10.00">sstream</text>
</a>
</g>
</g>
<!-- Node4&#45;&gt;Node5 -->
<g id="edge4" class="edge">
<title>Node4&#45;&gt;Node5</title>
<path fill="none" stroke="midnightblue" d="M331.74,-112.08C324.96,-104.3 314.96,-92.8 306.74,-83.37"/>
<polygon fill="midnightblue" stroke="midnightblue" points="309.32,-81 300.12,-75.75 304.04,-85.59 309.32,-81"/>
</g>
<!-- Node6 -->
<g id="node6" class="node">
<title>Node6</title>
<g id="a_node6"><a xlink:title=" ">
<polygon fill="white" stroke="#bfbfbf" points="419.5,-0.5 419.5,-19.5 463.5,-19.5 463.5,-0.5 419.5,-0.5"/>
<text text-anchor="middle" x="441.5" y="-7.5" font-family="Helvetica,sans-Serif" font-size="10.00">string</text>
</a>
</g>
</g>
<!-- Node4&#45;&gt;Node6 -->
<g id="edge5" class="edge">
<title>Node4&#45;&gt;Node6</title>
<path fill="none" stroke="midnightblue" d="M389.27,-112.45C410.33,-106.1 432.87,-95.09 445.5,-76 454.46,-62.46 452.11,-43.66 448.32,-29.76"/>
<polygon fill="midnightblue" stroke="midnightblue" points="451.53,-28.31 445.16,-19.85 444.86,-30.44 451.53,-28.31"/>
</g>
<!-- Node7 -->
<g id="node7" class="node">
<title>Node7</title>
<g id="a_node7"><a xlink:title=" ">
<polygon fill="white" stroke="#bfbfbf" points="338.5,-56.5 338.5,-75.5 436.5,-75.5 436.5,-56.5 338.5,-56.5"/>
<text text-anchor="middle" x="387.5" y="-63.5" font-family="Helvetica,sans-Serif" font-size="10.00">G4UImanager.hh</text>
</a>
</g>
</g>
<!-- Node4&#45;&gt;Node7 -->
<g id="edge6" class="edge">
<title>Node4&#45;&gt;Node7</title>
<path fill="none" stroke="midnightblue" d="M347.43,-112.08C354.35,-104.3 364.57,-92.8 372.95,-83.37"/>
<polygon fill="midnightblue" stroke="midnightblue" points="375.69,-85.55 379.72,-75.75 370.46,-80.9 375.69,-85.55"/>
</g>
<!-- Node8 -->
<g id="node8" class="node">
<title>Node8</title>
<g id="a_node8"><a xlink:href="_o_m_sim_logger_8hh.html" target="_top" xlink:title=" ">
<polygon fill="white" stroke="black" points="493,-56.5 493,-75.5 592,-75.5 592,-56.5 493,-56.5"/>
<text text-anchor="middle" x="542.5" y="-63.5" font-family="Helvetica,sans-Serif" font-size="10.00">OMSimLogger.hh</text>
</a>
</g>
</g>
<!-- Node4&#45;&gt;Node8 -->
<g id="edge7" class="edge">
<title>Node4&#45;&gt;Node8</title>
<path fill="none" stroke="midnightblue" d="M371.67,-112.44C406.56,-103.16 462.39,-88.31 500.67,-78.13"/>
<polygon fill="midnightblue" stroke="midnightblue" points="501.72,-81.47 510.48,-75.52 499.92,-74.7 501.72,-81.47"/>
</g>
<!-- Node11 -->
<g id="node11" class="node">
<title>Node11</title>
<g id="a_node11"><a xlink:href="_o_m_sim_command_args_table_8hh.html" target="_top" xlink:title=" ">
<polygon fill="white" stroke="black" points="82.5,-56.5 82.5,-75.5 246.5,-75.5 246.5,-56.5 82.5,-56.5"/>
<text text-anchor="middle" x="164.5" y="-63.5" font-family="Helvetica,sans-Serif" font-size="10.00">OMSimCommandArgsTable.hh</text>
</a>
</g>
</g>
<!-- Node4&#45;&gt;Node11 -->
<g id="edge10" class="edge">
<title>Node4&#45;&gt;Node11</title>
<path fill="none" stroke="midnightblue" d="M311.77,-112.44C282.07,-103.28 234.78,-88.69 201.83,-78.52"/>
<polygon fill="midnightblue" stroke="midnightblue" points="202.69,-75.12 192.1,-75.52 200.62,-81.81 202.69,-75.12"/>
</g>
<!-- Node9 -->
<g id="node9" class="node">
<title>Node9</title>
<g id="a_node9"><a xlink:title=" ">
<polygon fill="white" stroke="#bfbfbf" points="499.5,-0.5 499.5,-19.5 549.5,-19.5 549.5,-0.5 499.5,-0.5"/>
<text text-anchor="middle" x="524.5" y="-7.5" font-family="Helvetica,sans-Serif" font-size="10.00">stdio.h</text>
</a>
</g>
</g>
<!-- Node8&#45;&gt;Node9 -->
<g id="edge8" class="edge">
<title>Node8&#45;&gt;Node9</title>
<path fill="none" stroke="midnightblue" d="M539.53,-56.08C537.12,-48.85 533.64,-38.41 530.63,-29.4"/>
<polygon fill="midnightblue" stroke="midnightblue" points="533.9,-28.13 527.42,-19.75 527.26,-30.34 533.9,-28.13"/>
</g>
<!-- Node10 -->
<g id="node10" class="node">
<title>Node10</title>
<g id="a_node10"><a xlink:title=" ">
<polygon fill="white" stroke="#bfbfbf" points="567.5,-0.5 567.5,-19.5 615.5,-19.5 615.5,-0.5 567.5,-0.5"/>
<text text-anchor="middle" x="591.5" y="-7.5" font-family="Helvetica,sans-Serif" font-size="10.00">time.h</text>
</a>
</g>
</g>
<!-- Node8&#45;&gt;Node10 -->
<g id="edge9" class="edge">
<title>Node8&#45;&gt;Node10</title>
<path fill="none" stroke="midnightblue" d="M550.59,-56.08C557.66,-48.3 568.09,-36.8 576.65,-27.37"/>
<polygon fill="midnightblue" stroke="midnightblue" points="579.43,-29.51 583.56,-19.75 574.25,-24.8 579.43,-29.51"/>
</g>
<!-- Node11&#45;&gt;Node3 -->
<g id="edge15" class="edge">
<title>Node11&#45;&gt;Node3</title>
<path fill="none" stroke="midnightblue" d="M143.74,-56.44C122.18,-47.56 88.24,-33.56 63.71,-23.45"/>
<polygon fill="midnightblue" stroke="midnightblue" points="64.74,-20.09 54.16,-19.52 62.07,-26.56 64.74,-20.09"/>
</g>
<!-- Node11&#45;&gt;Node6 -->
<g id="edge13" class="edge">
<title>Node11&#45;&gt;Node6</title>
<path fill="none" stroke="midnightblue" d="M208.39,-56.44C264.36,-45.53 359.82,-26.92 409.43,-17.25"/>
<polygon fill="midnightblue" stroke="midnightblue" points="410.15,-20.68 419.29,-15.33 408.81,-13.81 410.15,-20.68"/>
</g>
<!-- Node12 -->
<g id="node12" class="node">
<title>Node12</title>
<g id="a_node12"><a xlink:title=" ">
<polygon fill="white" stroke="#bfbfbf" points="187.5,-0.5 187.5,-19.5 225.5,-19.5 225.5,-0.5 187.5,-0.5"/>
<text text-anchor="middle" x="206.5" y="-7.5" font-family="Helvetica,sans-Serif" font-size="10.00">map</text>
</a>
</g>
</g>
<!-- Node11&#45;&gt;Node12 -->
<g id="edge11" class="edge">
<title>Node11&#45;&gt;Node12</title>
<path fill="none" stroke="midnightblue" d="M171.44,-56.08C177.43,-48.38 186.25,-37.03 193.55,-27.65"/>
<polygon fill="midnightblue" stroke="midnightblue" points="196.32,-29.79 199.69,-19.75 190.79,-25.5 196.32,-29.79"/>
</g>
<!-- Node13 -->
<g id="node13" class="node">
<title>Node13</title>
<g id="a_node13"><a xlink:title=" ">
<polygon fill="white" stroke="#bfbfbf" points="244,-0.5 244,-19.5 295,-19.5 295,-0.5 244,-0.5"/>
<text text-anchor="middle" x="269.5" y="-7.5" font-family="Helvetica,sans-Serif" font-size="10.00">variant</text>
</a>
</g>
</g>
<!-- Node11&#45;&gt;Node13 -->
<g id="edge12" class="edge">
<title>Node11&#45;&gt;Node13</title>
<path fill="none" stroke="midnightblue" d="M181.37,-56.32C198.21,-47.66 224.31,-34.24 243.74,-24.25"/>
<polygon fill="midnightblue" stroke="midnightblue" points="245.38,-27.34 252.67,-19.65 242.18,-21.12 245.38,-27.34"/>
</g>
<!-- Node14 -->
<g id="node14" class="node">
<title>Node14</title>
<g id="a_node14"><a xlink:title=" ">
<polygon fill="white" stroke="#bfbfbf" points="313,-0.5 313,-19.5 378,-19.5 378,-0.5 313,-0.5"/>
<text text-anchor="middle" x="345.5" y="-7.5" font-family="Helvetica,sans-Serif" font-size="10.00">stdexcept</text>
</a>
</g>
</g>
<!-- Node11&#45;&gt;Node14 -->
<g id="edge14" class="edge">
<title>Node11&#45;&gt;Node14</title>
<path fill="none" stroke="midnightblue" d="M193.18,-56.44C224.03,-47.24 273.23,-32.56 307.33,-22.39"/>
<polygon fill="midnightblue" stroke="midnightblue" points="308.37,-25.73 316.95,-19.52 306.37,-19.02 308.37,-25.73"/>
</g>
<!-- Node15 -->
<g id="node15" class="node">
<title>Node15</title>
<g id="a_node15"><a xlink:title=" ">
<polygon fill="white" stroke="#bfbfbf" points="85.5,-0.5 85.5,-19.5 169.5,-19.5 169.5,-0.5 85.5,-0.5"/>
<text text-anchor="middle" x="127.5" y="-7.5" font-family="Helvetica,sans-Serif" font-size="10.00">boost/any.hpp</text>
</a>
</g>
</g>
<!-- Node11&#45;&gt;Node15 -->
<g id="edge16" class="edge">
<title>Node11&#45;&gt;Node15</title>
<path fill="none" stroke="midnightblue" d="M158.39,-56.08C153.22,-48.53 145.65,-37.49 139.31,-28.23"/>
<polygon fill="midnightblue" stroke="midnightblue" points="142.04,-26.02 133.5,-19.75 136.26,-29.98 142.04,-26.02"/>
</g>
</g>
</svg>
