<?xml version="1.0" encoding="UTF-8" standalone="no"?>
<!DOCTYPE svg PUBLIC "-//W3C//DTD SVG 1.1//EN"
 "http://www.w3.org/Graphics/SVG/1.1/DTD/svg11.dtd">
<!-- Generated by graphviz version 2.43.0 (0)
 -->
<!-- Title: OMSimDetectorConstruction.cc Pages: 1 -->
<svg width="1454pt" height="375pt"
 viewBox="0.00 0.00 1453.50 375.00" xmlns="http://www.w3.org/2000/svg" xmlns:xlink="http://www.w3.org/1999/xlink">
<g id="graph0" class="graph" transform="scale(1 1) rotate(0) translate(4 371)">
<title>OMSimDetectorConstruction.cc</title>
<polygon fill="white" stroke="transparent" points="-4,4 -4,-371 1449.5,-371 1449.5,4 -4,4"/>
<!-- Node1 -->
<g id="node1" class="node">
<title>Node1</title>
<g id="a_node1"><a xlink:title=" ">
<polygon fill="#bfbfbf" stroke="black" points="570,-347.5 570,-366.5 739,-366.5 739,-347.5 570,-347.5"/>
<text text-anchor="middle" x="654.5" y="-354.5" font-family="Helvetica,sans-Serif" font-size="10.00">OMSimDetectorConstruction.cc</text>
</a>
</g>
</g>
<!-- Node2 -->
<g id="node2" class="node">
<title>Node2</title>
<g id="a_node2"><a xlink:href="_o_m_sim_detector_construction_8hh.html" target="_top" xlink:title=" ">
<polygon fill="white" stroke="black" points="778.5,-291.5 778.5,-310.5 948.5,-310.5 948.5,-291.5 778.5,-291.5"/>
<text text-anchor="middle" x="863.5" y="-298.5" font-family="Helvetica,sans-Serif" font-size="10.00">OMSimDetectorConstruction.hh</text>
</a>
</g>
</g>
<!-- Node1&#45;&gt;Node2 -->
<g id="edge1" class="edge">
<title>Node1&#45;&gt;Node2</title>
<path fill="none" stroke="midnightblue" d="M687.62,-347.44C723.62,-338.14 781.27,-323.25 820.69,-313.06"/>
<polygon fill="midnightblue" stroke="midnightblue" points="821.73,-316.41 830.54,-310.52 819.98,-309.63 821.73,-316.41"/>
</g>
<!-- Node20 -->
<g id="node20" class="node">
<title>Node20</title>
<g id="a_node20"><a xlink:href="_o_m_sim_p_d_o_m_8hh.html" target="_top" xlink:title=" ">
<polygon fill="white" stroke="black" points="215,-235.5 215,-254.5 312,-254.5 312,-235.5 215,-235.5"/>
<text text-anchor="middle" x="263.5" y="-242.5" font-family="Helvetica,sans-Serif" font-size="10.00">OMSimPDOM.hh</text>
</a>
</g>
</g>
<!-- Node1&#45;&gt;Node20 -->
<g id="edge21" class="edge">
<title>Node1&#45;&gt;Node20</title>
<path fill="none" stroke="midnightblue" d="M589.74,-347.49C541.59,-340.25 474.63,-328.27 417.5,-311 371.13,-296.98 319.75,-273.61 289.61,-259.04"/>
<polygon fill="midnightblue" stroke="midnightblue" points="291.13,-255.88 280.61,-254.64 288.06,-262.17 291.13,-255.88"/>
</g>
<!-- Node21 -->
<g id="node21" class="node">
<title>Node21</title>
<g id="a_node21"><a xlink:href="_o_m_sim_l_o_m16_8hh.html" target="_top" xlink:title=" ">
<polygon fill="white" stroke="black" points="546,-291.5 546,-310.5 647,-310.5 647,-291.5 546,-291.5"/>
<text text-anchor="middle" x="596.5" y="-298.5" font-family="Helvetica,sans-Serif" font-size="10.00">OMSimLOM16.hh</text>
</a>
</g>
</g>
<!-- Node1&#45;&gt;Node21 -->
<g id="edge24" class="edge">
<title>Node1&#45;&gt;Node21</title>
<path fill="none" stroke="midnightblue" d="M645.18,-347.32C636.61,-339.34 623.69,-327.31 613.31,-317.65"/>
<polygon fill="midnightblue" stroke="midnightblue" points="615.69,-315.09 605.99,-310.83 610.92,-320.21 615.69,-315.09"/>
</g>
<!-- Node22 -->
<g id="node22" class="node">
<title>Node22</title>
<g id="a_node22"><a xlink:href="_o_m_sim_l_o_m18_8hh.html" target="_top" xlink:title=" ">
<polygon fill="white" stroke="black" points="427,-291.5 427,-310.5 528,-310.5 528,-291.5 427,-291.5"/>
<text text-anchor="middle" x="477.5" y="-298.5" font-family="Helvetica,sans-Serif" font-size="10.00">OMSimLOM18.hh</text>
</a>
</g>
</g>
<!-- Node1&#45;&gt;Node22 -->
<g id="edge26" class="edge">
<title>Node1&#45;&gt;Node22</title>
<path fill="none" stroke="midnightblue" d="M626.45,-347.44C596.42,-338.28 548.59,-323.69 515.26,-313.52"/>
<polygon fill="midnightblue" stroke="midnightblue" points="516,-310.09 505.41,-310.52 513.96,-316.78 516,-310.09"/>
</g>
<!-- Node25 -->
<g id="node25" class="node">
<title>Node25</title>
<g id="a_node25"><a xlink:href="_o_m_sim_d_e_g_g_8hh.html" target="_top" xlink:title=" ">
<polygon fill="white" stroke="black" points="665,-291.5 665,-310.5 760,-310.5 760,-291.5 665,-291.5"/>
<text text-anchor="middle" x="712.5" y="-298.5" font-family="Helvetica,sans-Serif" font-size="10.00">OMSimDEGG.hh</text>
</a>
</g>
</g>
<!-- Node1&#45;&gt;Node25 -->
<g id="edge30" class="edge">
<title>Node1&#45;&gt;Node25</title>
<path fill="none" stroke="midnightblue" d="M663.82,-347.32C672.39,-339.34 685.31,-327.31 695.69,-317.65"/>
<polygon fill="midnightblue" stroke="midnightblue" points="698.08,-320.21 703.01,-310.83 693.31,-315.09 698.08,-320.21"/>
</g>
<!-- Node26 -->
<g id="node26" class="node">
<title>Node26</title>
<g id="a_node26"><a xlink:href="_o_m_sim_command_args_table_8hh.html" target="_top" xlink:title="Definition of the OMSimCommandArgsTable singleton class, which controls user args.">
<polygon fill="white" stroke="black" points="1138.5,-291.5 1138.5,-310.5 1302.5,-310.5 1302.5,-291.5 1138.5,-291.5"/>
<text text-anchor="middle" x="1220.5" y="-298.5" font-family="Helvetica,sans-Serif" font-size="10.00">OMSimCommandArgsTable.hh</text>
</a>
</g>
</g>
<!-- Node1&#45;&gt;Node26 -->
<g id="edge32" class="edge">
<title>Node1&#45;&gt;Node26</title>
<path fill="none" stroke="midnightblue" d="M739.24,-347.92C843.65,-337.95 1020.42,-321.09 1128.2,-310.81"/>
<polygon fill="midnightblue" stroke="midnightblue" points="1128.79,-314.27 1138.41,-309.83 1128.12,-307.3 1128.79,-314.27"/>
</g>
<!-- Node3 -->
<g id="node3" class="node">
<title>Node3</title>
<g id="a_node3"><a xlink:href="_o_m_sim_m_d_o_m_8hh.html" target="_top" xlink:title=" ">
<polygon fill="white" stroke="black" points="690.5,-235.5 690.5,-254.5 790.5,-254.5 790.5,-235.5 690.5,-235.5"/>
<text text-anchor="middle" x="740.5" y="-242.5" font-family="Helvetica,sans-Serif" font-size="10.00">OMSimMDOM.hh</text>
</a>
</g>
</g>
<!-- Node2&#45;&gt;Node3 -->
<g id="edge2" class="edge">
<title>Node2&#45;&gt;Node3</title>
<path fill="none" stroke="midnightblue" d="M844.01,-291.44C823.86,-282.6 792.18,-268.69 769.17,-258.59"/>
<polygon fill="midnightblue" stroke="midnightblue" points="770.46,-255.33 759.9,-254.52 767.65,-261.74 770.46,-255.33"/>
</g>
<!-- Node18 -->
<g id="node18" class="node">
<title>Node18</title>
<g id="a_node18"><a xlink:title=" ">
<polygon fill="white" stroke="#bfbfbf" points="808.5,-235.5 808.5,-254.5 870.5,-254.5 870.5,-235.5 808.5,-235.5"/>
<text text-anchor="middle" x="839.5" y="-242.5" font-family="Helvetica,sans-Serif" font-size="10.00">G4Orb.hh</text>
</a>
</g>
</g>
<!-- Node2&#45;&gt;Node18 -->
<g id="edge19" class="edge">
<title>Node2&#45;&gt;Node18</title>
<path fill="none" stroke="midnightblue" d="M859.54,-291.08C856.29,-283.77 851.58,-273.18 847.55,-264.1"/>
<polygon fill="midnightblue" stroke="midnightblue" points="850.65,-262.47 843.39,-254.75 844.25,-265.31 850.65,-262.47"/>
</g>
<!-- Node19 -->
<g id="node19" class="node">
<title>Node19</title>
<g id="a_node19"><a xlink:title=" ">
<polygon fill="white" stroke="#bfbfbf" points="888.5,-235.5 888.5,-254.5 1066.5,-254.5 1066.5,-235.5 888.5,-235.5"/>
<text text-anchor="middle" x="977.5" y="-242.5" font-family="Helvetica,sans-Serif" font-size="10.00">G4VUserDetectorConstruction.hh</text>
</a>
</g>
</g>
<!-- Node2&#45;&gt;Node19 -->
<g id="edge20" class="edge">
<title>Node2&#45;&gt;Node19</title>
<path fill="none" stroke="midnightblue" d="M881.56,-291.44C900.07,-282.68 929.08,-268.94 950.36,-258.86"/>
<polygon fill="midnightblue" stroke="midnightblue" points="951.98,-261.96 959.52,-254.52 948.99,-255.63 951.98,-261.96"/>
</g>
<!-- Node4 -->
<g id="node4" class="node">
<title>Node4</title>
<g id="a_node4"><a xlink:href="_o_m_sim_m_d_o_m_flasher_8hh.html" target="_top" xlink:title=" ">
<polygon fill="white" stroke="black" points="675,-179.5 675,-198.5 810,-198.5 810,-179.5 675,-179.5"/>
<text text-anchor="middle" x="742.5" y="-186.5" font-family="Helvetica,sans-Serif" font-size="10.00">OMSimMDOMFlasher.hh</text>
</a>
</g>
</g>
<!-- Node3&#45;&gt;Node4 -->
<g id="edge3" class="edge">
<title>Node3&#45;&gt;Node4</title>
<path fill="none" stroke="midnightblue" d="M740.83,-235.08C741.09,-228.01 741.47,-217.86 741.8,-208.99"/>
<polygon fill="midnightblue" stroke="midnightblue" points="745.3,-208.87 742.18,-198.75 738.31,-208.61 745.3,-208.87"/>
</g>
<!-- Node16 -->
<g id="node16" class="node">
<title>Node16</title>
<g id="a_node16"><a xlink:href="_o_m_sim_p_m_t_construction_8hh.html" target="_top" xlink:title=" ">
<polygon fill="white" stroke="black" points="508,-179.5 508,-198.5 657,-198.5 657,-179.5 508,-179.5"/>
<text text-anchor="middle" x="582.5" y="-186.5" font-family="Helvetica,sans-Serif" font-size="10.00">OMSimPMTConstruction.hh</text>
</a>
</g>
</g>
<!-- Node3&#45;&gt;Node16 -->
<g id="edge15" class="edge">
<title>Node3&#45;&gt;Node16</title>
<path fill="none" stroke="midnightblue" d="M715.46,-235.44C688.88,-226.36 646.69,-211.94 616.98,-201.78"/>
<polygon fill="midnightblue" stroke="midnightblue" points="618.01,-198.44 607.42,-198.52 615.75,-205.06 618.01,-198.44"/>
</g>
<!-- Node5 -->
<g id="node5" class="node">
<title>Node5</title>
<g id="a_node5"><a xlink:href="abc_detector_component_8hh.html" target="_top" xlink:title=" ">
<polygon fill="white" stroke="black" points="384,-123.5 384,-142.5 531,-142.5 531,-123.5 384,-123.5"/>
<text text-anchor="middle" x="457.5" y="-130.5" font-family="Helvetica,sans-Serif" font-size="10.00">abcDetectorComponent.hh</text>
</a>
</g>
</g>
<!-- Node4&#45;&gt;Node5 -->
<g id="edge4" class="edge">
<title>Node4&#45;&gt;Node5</title>
<path fill="none" stroke="midnightblue" d="M697.34,-179.44C647.21,-169.94 566.28,-154.61 512.49,-144.42"/>
<polygon fill="midnightblue" stroke="midnightblue" points="512.92,-140.94 502.45,-142.52 511.62,-147.82 512.92,-140.94"/>
</g>
<!-- Node14 -->
<g id="node14" class="node">
<title>Node14</title>
<g id="a_node14"><a xlink:title=" ">
<polygon fill="white" stroke="#bfbfbf" points="634.5,-123.5 634.5,-142.5 732.5,-142.5 732.5,-123.5 634.5,-123.5"/>
<text text-anchor="middle" x="683.5" y="-130.5" font-family="Helvetica,sans-Serif" font-size="10.00">G4UnionSolid.hh</text>
</a>
</g>
</g>
<!-- Node4&#45;&gt;Node14 -->
<g id="edge13" class="edge">
<title>Node4&#45;&gt;Node14</title>
<path fill="none" stroke="midnightblue" d="M733.02,-179.32C724.3,-171.34 711.16,-159.31 700.6,-149.65"/>
<polygon fill="midnightblue" stroke="midnightblue" points="702.89,-147 693.15,-142.83 698.17,-152.17 702.89,-147"/>
</g>
<!-- Node15 -->
<g id="node15" class="node">
<title>Node15</title>
<g id="a_node15"><a xlink:title=" ">
<polygon fill="white" stroke="#bfbfbf" points="750.5,-123.5 750.5,-142.5 842.5,-142.5 842.5,-123.5 750.5,-123.5"/>
<text text-anchor="middle" x="796.5" y="-130.5" font-family="Helvetica,sans-Serif" font-size="10.00">G4Navigator.hh</text>
</a>
</g>
</g>
<!-- Node4&#45;&gt;Node15 -->
<g id="edge14" class="edge">
<title>Node4&#45;&gt;Node15</title>
<path fill="none" stroke="midnightblue" d="M751.42,-179.08C759.28,-171.22 770.93,-159.57 780.42,-150.08"/>
<polygon fill="midnightblue" stroke="midnightblue" points="783.15,-152.3 787.75,-142.75 778.2,-147.35 783.15,-152.3"/>
</g>
<!-- Node6 -->
<g id="node6" class="node">
<title>Node6</title>
<g id="a_node6"><a xlink:href="_o_m_sim_input_data_8hh.html" target="_top" xlink:title=" ">
<polygon fill="white" stroke="black" points="145,-67.5 145,-86.5 260,-86.5 260,-67.5 145,-67.5"/>
<text text-anchor="middle" x="202.5" y="-74.5" font-family="Helvetica,sans-Serif" font-size="10.00">OMSimInputData.hh</text>
</a>
</g>
</g>
<!-- Node5&#45;&gt;Node6 -->
<g id="edge5" class="edge">
<title>Node5&#45;&gt;Node6</title>
<path fill="none" stroke="midnightblue" d="M417.09,-123.44C372.52,-114 300.73,-98.8 252.61,-88.61"/>
<polygon fill="midnightblue" stroke="midnightblue" points="253.22,-85.16 242.72,-86.52 251.77,-92.01 253.22,-85.16"/>
</g>
<!-- Node10 -->
<g id="node10" class="node">
<title>Node10</title>
<g id="a_node10"><a xlink:title=" ">
<polygon fill="white" stroke="#bfbfbf" points="278,-67.5 278,-86.5 385,-86.5 385,-67.5 278,-67.5"/>
<text text-anchor="middle" x="331.5" y="-74.5" font-family="Helvetica,sans-Serif" font-size="10.00">G4Transform3D.hh</text>
</a>
</g>
</g>
<!-- Node5&#45;&gt;Node10 -->
<g id="edge9" class="edge">
<title>Node5&#45;&gt;Node10</title>
<path fill="none" stroke="midnightblue" d="M437.53,-123.44C416.89,-114.6 384.44,-100.69 360.87,-90.59"/>
<polygon fill="midnightblue" stroke="midnightblue" points="361.94,-87.24 351.37,-86.52 359.18,-93.67 361.94,-87.24"/>
</g>
<!-- Node11 -->
<g id="node11" class="node">
<title>Node11</title>
<g id="a_node11"><a xlink:title=" ">
<polygon fill="white" stroke="#bfbfbf" points="403.5,-67.5 403.5,-86.5 511.5,-86.5 511.5,-67.5 403.5,-67.5"/>
<text text-anchor="middle" x="457.5" y="-74.5" font-family="Helvetica,sans-Serif" font-size="10.00">G4VisAttributes.hh</text>
</a>
</g>
</g>
<!-- Node5&#45;&gt;Node11 -->
<g id="edge10" class="edge">
<title>Node5&#45;&gt;Node11</title>
<path fill="none" stroke="midnightblue" d="M457.5,-123.08C457.5,-116.01 457.5,-105.86 457.5,-96.99"/>
<polygon fill="midnightblue" stroke="midnightblue" points="461,-96.75 457.5,-86.75 454,-96.75 461,-96.75"/>
</g>
<!-- Node12 -->
<g id="node12" class="node">
<title>Node12</title>
<g id="a_node12"><a xlink:title=" ">
<polygon fill="white" stroke="#bfbfbf" points="530,-67.5 530,-86.5 655,-86.5 655,-67.5 530,-67.5"/>
<text text-anchor="middle" x="592.5" y="-74.5" font-family="Helvetica,sans-Serif" font-size="10.00">G4SubtractionSolid.hh</text>
</a>
</g>
</g>
<!-- Node5&#45;&gt;Node12 -->
<g id="edge11" class="edge">
<title>Node5&#45;&gt;Node12</title>
<path fill="none" stroke="midnightblue" d="M478.89,-123.44C501.21,-114.52 536.4,-100.44 561.71,-90.32"/>
<polygon fill="midnightblue" stroke="midnightblue" points="563.22,-93.48 571.21,-86.52 560.62,-86.98 563.22,-93.48"/>
</g>
<!-- Node13 -->
<g id="node13" class="node">
<title>Node13</title>
<g id="a_node13"><a xlink:title=" ">
<polygon fill="white" stroke="#bfbfbf" points="673.5,-67.5 673.5,-86.5 783.5,-86.5 783.5,-67.5 673.5,-67.5"/>
<text text-anchor="middle" x="728.5" y="-74.5" font-family="Helvetica,sans-Serif" font-size="10.00">G4PVPlacement.hh</text>
</a>
</g>
</g>
<!-- Node5&#45;&gt;Node13 -->
<g id="edge12" class="edge">
<title>Node5&#45;&gt;Node13</title>
<path fill="none" stroke="midnightblue" d="M500.44,-123.44C548.01,-113.96 624.74,-98.67 675.89,-88.48"/>
<polygon fill="midnightblue" stroke="midnightblue" points="676.64,-91.9 685.76,-86.52 675.27,-85.04 676.64,-91.9"/>
</g>
<!-- Node7 -->
<g id="node7" class="node">
<title>Node7</title>
<g id="a_node7"><a xlink:title=" ">
<polygon fill="white" stroke="#bfbfbf" points="0,-0.5 0,-30.5 113,-30.5 113,-0.5 0,-0.5"/>
<text text-anchor="start" x="8" y="-18.5" font-family="Helvetica,sans-Serif" font-size="10.00">boost/property_tree</text>
<text text-anchor="middle" x="56.5" y="-7.5" font-family="Helvetica,sans-Serif" font-size="10.00">/json_parser.hpp</text>
</a>
</g>
</g>
<!-- Node6&#45;&gt;Node7 -->
<g id="edge6" class="edge">
<title>Node6&#45;&gt;Node7</title>
<path fill="none" stroke="midnightblue" d="M181.58,-67.48C160.51,-58.89 127.37,-45.38 100.49,-34.43"/>
<polygon fill="midnightblue" stroke="midnightblue" points="101.49,-31.06 90.91,-30.52 98.85,-37.54 101.49,-31.06"/>
</g>
<!-- Node8 -->
<g id="node8" class="node">
<title>Node8</title>
<g id="a_node8"><a xlink:title=" ">
<polygon fill="white" stroke="#bfbfbf" points="131,-6 131,-25 274,-25 274,-6 131,-6"/>
<text text-anchor="middle" x="202.5" y="-13" font-family="Helvetica,sans-Serif" font-size="10.00">G4OpBoundaryProcess.hh</text>
</a>
</g>
</g>
<!-- Node6&#45;&gt;Node8 -->
<g id="edge7" class="edge">
<title>Node6&#45;&gt;Node8</title>
<path fill="none" stroke="midnightblue" d="M202.5,-67.48C202.5,-59.08 202.5,-45.98 202.5,-35.16"/>
<polygon fill="midnightblue" stroke="midnightblue" points="206,-35.01 202.5,-25.01 199,-35.01 206,-35.01"/>
</g>
<!-- Node9 -->
<g id="node9" class="node">
<title>Node9</title>
<g id="a_node9"><a xlink:title=" ">
<polygon fill="white" stroke="#bfbfbf" points="292,-6 292,-25 411,-25 411,-6 292,-6"/>
<text text-anchor="middle" x="351.5" y="-13" font-family="Helvetica,sans-Serif" font-size="10.00">G4SystemOfUnits.hh</text>
</a>
</g>
</g>
<!-- Node6&#45;&gt;Node9 -->
<g id="edge8" class="edge">
<title>Node6&#45;&gt;Node9</title>
<path fill="none" stroke="midnightblue" d="M223.85,-67.48C249.19,-57.36 291.64,-40.4 320.57,-28.85"/>
<polygon fill="midnightblue" stroke="midnightblue" points="322.2,-31.97 330.19,-25.01 319.61,-25.47 322.2,-31.97"/>
</g>
<!-- Node16&#45;&gt;Node5 -->
<g id="edge16" class="edge">
<title>Node16&#45;&gt;Node5</title>
<path fill="none" stroke="midnightblue" d="M562.69,-179.44C542.21,-170.6 510.02,-156.69 486.64,-146.59"/>
<polygon fill="midnightblue" stroke="midnightblue" points="487.78,-143.27 477.21,-142.52 485.01,-149.7 487.78,-143.27"/>
</g>
<!-- Node16&#45;&gt;Node14 -->
<g id="edge17" class="edge">
<title>Node16&#45;&gt;Node14</title>
<path fill="none" stroke="midnightblue" d="M598.73,-179.32C614.85,-170.7 639.8,-157.36 658.46,-147.39"/>
<polygon fill="midnightblue" stroke="midnightblue" points="660.14,-150.46 667.31,-142.65 656.84,-144.28 660.14,-150.46"/>
</g>
<!-- Node17 -->
<g id="node17" class="node">
<title>Node17</title>
<g id="a_node17"><a xlink:title=" ">
<polygon fill="white" stroke="#bfbfbf" points="549,-123.5 549,-142.5 616,-142.5 616,-123.5 549,-123.5"/>
<text text-anchor="middle" x="582.5" y="-130.5" font-family="Helvetica,sans-Serif" font-size="10.00">G4Tubs.hh</text>
</a>
</g>
</g>
<!-- Node16&#45;&gt;Node17 -->
<g id="edge18" class="edge">
<title>Node16&#45;&gt;Node17</title>
<path fill="none" stroke="midnightblue" d="M582.5,-179.08C582.5,-172.01 582.5,-161.86 582.5,-152.99"/>
<polygon fill="midnightblue" stroke="midnightblue" points="586,-152.75 582.5,-142.75 579,-152.75 586,-152.75"/>
</g>
<!-- Node20&#45;&gt;Node5 -->
<g id="edge22" class="edge">
<title>Node20&#45;&gt;Node5</title>
<path fill="none" stroke="midnightblue" d="M278.72,-235.37C312.3,-216.33 392.92,-170.62 433.43,-147.65"/>
<polygon fill="midnightblue" stroke="midnightblue" points="435.38,-150.57 442.35,-142.59 431.92,-144.48 435.38,-150.57"/>
</g>
<!-- Node20&#45;&gt;Node16 -->
<g id="edge23" class="edge">
<title>Node20&#45;&gt;Node16</title>
<path fill="none" stroke="midnightblue" d="M312.3,-235.74C368.56,-226.22 461.08,-210.55 521.9,-200.26"/>
<polygon fill="midnightblue" stroke="midnightblue" points="522.85,-203.65 532.13,-198.53 521.68,-196.74 522.85,-203.65"/>
</g>
<!-- Node21&#45;&gt;Node16 -->
<g id="edge25" class="edge">
<title>Node21&#45;&gt;Node16</title>
<path fill="none" stroke="midnightblue" d="M597.34,-291.11C598.34,-278.53 599.52,-254.86 596.5,-235 595.13,-226 592.31,-216.33 589.55,-208.26"/>
<polygon fill="midnightblue" stroke="midnightblue" points="592.81,-206.98 586.1,-198.78 586.23,-209.37 592.81,-206.98"/>
</g>
<!-- Node22&#45;&gt;Node16 -->
<g id="edge27" class="edge">
<title>Node22&#45;&gt;Node16</title>
<path fill="none" stroke="midnightblue" d="M505.67,-291.45C524.26,-284.44 547.81,-272.75 562.5,-255 573.43,-241.79 578.39,-222.66 580.64,-208.57"/>
<polygon fill="midnightblue" stroke="midnightblue" points="584.13,-208.93 581.93,-198.56 577.18,-208.03 584.13,-208.93"/>
</g>
<!-- Node23 -->
<g id="node23" class="node">
<title>Node23</title>
<g id="a_node23"><a xlink:title=" ">
<polygon fill="white" stroke="#bfbfbf" points="330.5,-235.5 330.5,-254.5 446.5,-254.5 446.5,-235.5 330.5,-235.5"/>
<text text-anchor="middle" x="388.5" y="-242.5" font-family="Helvetica,sans-Serif" font-size="10.00">G4LogicalVolume.hh</text>
</a>
</g>
</g>
<!-- Node22&#45;&gt;Node23 -->
<g id="edge28" class="edge">
<title>Node22&#45;&gt;Node23</title>
<path fill="none" stroke="midnightblue" d="M463.2,-291.32C449.32,-282.9 428.01,-269.97 411.7,-260.07"/>
<polygon fill="midnightblue" stroke="midnightblue" points="413.13,-256.85 402.76,-254.65 409.5,-262.83 413.13,-256.85"/>
</g>
<!-- Node24 -->
<g id="node24" class="node">
<title>Node24</title>
<g id="a_node24"><a xlink:title=" ">
<polygon fill="white" stroke="#bfbfbf" points="465,-235.5 465,-254.5 554,-254.5 554,-235.5 465,-235.5"/>
<text text-anchor="middle" x="509.5" y="-242.5" font-family="Helvetica,sans-Serif" font-size="10.00">G4Polycone.hh</text>
</a>
</g>
</g>
<!-- Node22&#45;&gt;Node24 -->
<g id="edge29" class="edge">
<title>Node22&#45;&gt;Node24</title>
<path fill="none" stroke="midnightblue" d="M482.78,-291.08C487.21,-283.61 493.66,-272.72 499.12,-263.52"/>
<polygon fill="midnightblue" stroke="midnightblue" points="502.23,-265.14 504.31,-254.75 496.21,-261.57 502.23,-265.14"/>
</g>
<!-- Node25&#45;&gt;Node16 -->
<g id="edge31" class="edge">
<title>Node25&#45;&gt;Node16</title>
<path fill="none" stroke="midnightblue" d="M702.3,-291.37C680.28,-272.73 628.04,-228.53 600.39,-205.13"/>
<polygon fill="midnightblue" stroke="midnightblue" points="602.55,-202.38 592.65,-198.59 598.03,-207.72 602.55,-202.38"/>
</g>
<!-- Node27 -->
<g id="node27" class="node">
<title>Node27</title>
<g id="a_node27"><a xlink:href="_o_m_sim_logger_8hh.html" target="_top" xlink:title=" ">
<polygon fill="white" stroke="black" points="1171,-235.5 1171,-254.5 1270,-254.5 1270,-235.5 1171,-235.5"/>
<text text-anchor="middle" x="1220.5" y="-242.5" font-family="Helvetica,sans-Serif" font-size="10.00">OMSimLogger.hh</text>
</a>
</g>
</g>
<!-- Node26&#45;&gt;Node27 -->
<g id="edge33" class="edge">
<title>Node26&#45;&gt;Node27</title>
<path fill="none" stroke="midnightblue" d="M1220.5,-291.08C1220.5,-284.01 1220.5,-273.86 1220.5,-264.99"/>
<polygon fill="midnightblue" stroke="midnightblue" points="1224,-264.75 1220.5,-254.75 1217,-264.75 1224,-264.75"/>
</g>
<!-- Node30 -->
<g id="node30" class="node">
<title>Node30</title>
<g id="a_node30"><a xlink:title=" ">
<polygon fill="white" stroke="#bfbfbf" points="1288,-235.5 1288,-254.5 1343,-254.5 1343,-235.5 1288,-235.5"/>
<text text-anchor="middle" x="1315.5" y="-242.5" font-family="Helvetica,sans-Serif" font-size="10.00">fstream</text>
</a>
</g>
</g>
<!-- Node26&#45;&gt;Node30 -->
<g id="edge36" class="edge">
<title>Node26&#45;&gt;Node30</title>
<path fill="none" stroke="midnightblue" d="M1235.76,-291.32C1250.72,-282.82 1273.75,-269.73 1291.23,-259.8"/>
<polygon fill="midnightblue" stroke="midnightblue" points="1293.31,-262.64 1300.27,-254.65 1289.85,-256.55 1293.31,-262.64"/>
</g>
<!-- Node31 -->
<g id="node31" class="node">
<title>Node31</title>
<g id="a_node31"><a xlink:title=" ">
<polygon fill="white" stroke="#bfbfbf" points="1361.5,-235.5 1361.5,-254.5 1445.5,-254.5 1445.5,-235.5 1361.5,-235.5"/>
<text text-anchor="middle" x="1403.5" y="-242.5" font-family="Helvetica,sans-Serif" font-size="10.00">boost/any.hpp</text>
</a>
</g>
</g>
<!-- Node26&#45;&gt;Node31 -->
<g id="edge37" class="edge">
<title>Node26&#45;&gt;Node31</title>
<path fill="none" stroke="midnightblue" d="M1249.5,-291.44C1280.68,-282.24 1330.43,-267.56 1364.91,-257.39"/>
<polygon fill="midnightblue" stroke="midnightblue" points="1366.04,-260.7 1374.64,-254.52 1364.06,-253.99 1366.04,-260.7"/>
</g>
<!-- Node32 -->
<g id="node32" class="node">
<title>Node32</title>
<g id="a_node32"><a xlink:title=" ">
<polygon fill="white" stroke="#bfbfbf" points="1084.5,-235.5 1084.5,-254.5 1152.5,-254.5 1152.5,-235.5 1084.5,-235.5"/>
<text text-anchor="middle" x="1118.5" y="-242.5" font-family="Helvetica,sans-Serif" font-size="10.00">sys/time.h</text>
</a>
</g>
</g>
<!-- Node26&#45;&gt;Node32 -->
<g id="edge38" class="edge">
<title>Node26&#45;&gt;Node32</title>
<path fill="none" stroke="midnightblue" d="M1204.11,-291.32C1187.83,-282.7 1162.63,-269.36 1143.78,-259.39"/>
<polygon fill="midnightblue" stroke="midnightblue" points="1145.32,-256.24 1134.85,-254.65 1142.05,-262.43 1145.32,-256.24"/>
</g>
<!-- Node28 -->
<g id="node28" class="node">
<title>Node28</title>
<g id="a_node28"><a xlink:title=" ">
<polygon fill="white" stroke="#bfbfbf" points="1228.5,-179.5 1228.5,-198.5 1278.5,-198.5 1278.5,-179.5 1228.5,-179.5"/>
<text text-anchor="middle" x="1253.5" y="-186.5" font-family="Helvetica,sans-Serif" font-size="10.00">stdio.h</text>
</a>
</g>
</g>
<!-- Node27&#45;&gt;Node28 -->
<g id="edge34" class="edge">
<title>Node27&#45;&gt;Node28</title>
<path fill="none" stroke="midnightblue" d="M1225.95,-235.08C1230.51,-227.61 1237.17,-216.72 1242.79,-207.52"/>
<polygon fill="midnightblue" stroke="midnightblue" points="1245.92,-209.11 1248.15,-198.75 1239.95,-205.46 1245.92,-209.11"/>
</g>
<!-- Node29 -->
<g id="node29" class="node">
<title>Node29</title>
<g id="a_node29"><a xlink:title=" ">
<polygon fill="white" stroke="#bfbfbf" points="1162.5,-179.5 1162.5,-198.5 1210.5,-198.5 1210.5,-179.5 1162.5,-179.5"/>
<text text-anchor="middle" x="1186.5" y="-186.5" font-family="Helvetica,sans-Serif" font-size="10.00">time.h</text>
</a>
</g>
</g>
<!-- Node27&#45;&gt;Node29 -->
<g id="edge35" class="edge">
<title>Node27&#45;&gt;Node29</title>
<path fill="none" stroke="midnightblue" d="M1214.89,-235.08C1210.13,-227.53 1203.18,-216.49 1197.35,-207.23"/>
<polygon fill="midnightblue" stroke="midnightblue" points="1200.3,-205.35 1192.01,-198.75 1194.38,-209.08 1200.3,-205.35"/>
</g>
</g>
</svg>
