<?xml version="1.0" encoding="UTF-8" standalone="no"?>
<!DOCTYPE svg PUBLIC "-//W3C//DTD SVG 1.1//EN"
 "http://www.w3.org/Graphics/SVG/1.1/DTD/svg11.dtd">
<!-- Generated by graphviz version 2.43.0 (0)
 -->
<!-- Title: OMSimSimpleGPSBeams.cc Pages: 1 -->
<svg width="664pt" height="252pt"
 viewBox="0.00 0.00 664.00 252.00" xmlns="http://www.w3.org/2000/svg" xmlns:xlink="http://www.w3.org/1999/xlink">
<g id="graph0" class="graph" transform="scale(1 1) rotate(0) translate(4 248)">
<title>OMSimSimpleGPSBeams.cc</title>
<polygon fill="white" stroke="transparent" points="-4,4 -4,-248 660,-248 660,4 -4,4"/>
<!-- Node1 -->
<g id="node1" class="node">
<title>Node1</title>
<g id="a_node1"><a xlink:title="Defines the AngularScan class for simple GPS beam configurations.">
<polygon fill="#bfbfbf" stroke="black" points="382.5,-224.5 382.5,-243.5 534.5,-243.5 534.5,-224.5 382.5,-224.5"/>
<text text-anchor="middle" x="458.5" y="-231.5" font-family="Helvetica,sans-Serif" font-size="10.00">OMSimSimpleGPSBeams.cc</text>
</a>
</g>
</g>
<!-- Node2 -->
<g id="node2" class="node">
<title>Node2</title>
<g id="a_node2"><a xlink:href="_o_m_sim_simple_g_p_s_beams_8hh.html" target="_top" xlink:title=" ">
<polygon fill="white" stroke="black" points="184.5,-168.5 184.5,-187.5 338.5,-187.5 338.5,-168.5 184.5,-168.5"/>
<text text-anchor="middle" x="261.5" y="-175.5" font-family="Helvetica,sans-Serif" font-size="10.00">OMSimSimpleGPSBeams.hh</text>
</a>
</g>
</g>
<!-- Node1&#45;&gt;Node2 -->
<g id="edge1" class="edge">
<title>Node1&#45;&gt;Node2</title>
<path fill="none" stroke="midnightblue" d="M427.28,-224.44C393.57,-215.2 339.7,-200.44 302.57,-190.26"/>
<polygon fill="midnightblue" stroke="midnightblue" points="303.14,-186.78 292.57,-187.52 301.29,-193.54 303.14,-186.78"/>
</g>
<!-- Node4 -->
<g id="node4" class="node">
<title>Node4</title>
<g id="a_node4"><a xlink:href="_o_m_sim_u_iinterface_8hh.html" target="_top" xlink:title="The OMSimUIinterface class provides a singleton interface to Geant4&#39;s UI manager.">
<polygon fill="white" stroke="black" points="398,-168.5 398,-187.5 519,-187.5 519,-168.5 398,-168.5"/>
<text text-anchor="middle" x="458.5" y="-175.5" font-family="Helvetica,sans-Serif" font-size="10.00">OMSimUIinterface.hh</text>
</a>
</g>
</g>
<!-- Node1&#45;&gt;Node4 -->
<g id="edge3" class="edge">
<title>Node1&#45;&gt;Node4</title>
<path fill="none" stroke="midnightblue" d="M458.5,-224.08C458.5,-217.01 458.5,-206.86 458.5,-197.99"/>
<polygon fill="midnightblue" stroke="midnightblue" points="462,-197.75 458.5,-187.75 455,-197.75 462,-197.75"/>
</g>
<!-- Node17 -->
<g id="node17" class="node">
<title>Node17</title>
<g id="a_node17"><a xlink:title=" ">
<polygon fill="white" stroke="#bfbfbf" points="537,-168.5 537,-187.5 656,-187.5 656,-168.5 537,-168.5"/>
<text text-anchor="middle" x="596.5" y="-175.5" font-family="Helvetica,sans-Serif" font-size="10.00">G4SystemOfUnits.hh</text>
</a>
</g>
</g>
<!-- Node1&#45;&gt;Node17 -->
<g id="edge19" class="edge">
<title>Node1&#45;&gt;Node17</title>
<path fill="none" stroke="midnightblue" d="M480.37,-224.44C503.28,-215.48 539.48,-201.31 565.37,-191.18"/>
<polygon fill="midnightblue" stroke="midnightblue" points="566.7,-194.42 574.74,-187.52 564.15,-187.9 566.7,-194.42"/>
</g>
<!-- Node3 -->
<g id="node3" class="node">
<title>Node3</title>
<g id="a_node3"><a xlink:title=" ">
<polygon fill="white" stroke="#bfbfbf" points="0,-56.5 0,-75.5 67,-75.5 67,-56.5 0,-56.5"/>
<text text-anchor="middle" x="33.5" y="-63.5" font-family="Helvetica,sans-Serif" font-size="10.00">globals.hh</text>
</a>
</g>
</g>
<!-- Node2&#45;&gt;Node3 -->
<g id="edge2" class="edge">
<title>Node2&#45;&gt;Node3</title>
<path fill="none" stroke="midnightblue" d="M243.61,-168.37C203.82,-149.17 107.79,-102.84 60.6,-80.07"/>
<polygon fill="midnightblue" stroke="midnightblue" points="61.84,-76.78 51.31,-75.59 58.79,-83.09 61.84,-76.78"/>
</g>
<!-- Node5 -->
<g id="node5" class="node">
<title>Node5</title>
<g id="a_node5"><a xlink:title=" ">
<polygon fill="white" stroke="#bfbfbf" points="383.5,-112.5 383.5,-131.5 439.5,-131.5 439.5,-112.5 383.5,-112.5"/>
<text text-anchor="middle" x="411.5" y="-119.5" font-family="Helvetica,sans-Serif" font-size="10.00">sstream</text>
</a>
</g>
</g>
<!-- Node4&#45;&gt;Node5 -->
<g id="edge4" class="edge">
<title>Node4&#45;&gt;Node5</title>
<path fill="none" stroke="midnightblue" d="M450.74,-168.08C443.96,-160.3 433.96,-148.8 425.74,-139.37"/>
<polygon fill="midnightblue" stroke="midnightblue" points="428.32,-137 419.12,-131.75 423.04,-141.59 428.32,-137"/>
</g>
<!-- Node6 -->
<g id="node6" class="node">
<title>Node6</title>
<g id="a_node6"><a xlink:title=" ">
<polygon fill="white" stroke="#bfbfbf" points="599.5,-56.5 599.5,-75.5 643.5,-75.5 643.5,-56.5 599.5,-56.5"/>
<text text-anchor="middle" x="621.5" y="-63.5" font-family="Helvetica,sans-Serif" font-size="10.00">string</text>
</a>
</g>
</g>
<!-- Node4&#45;&gt;Node6 -->
<g id="edge5" class="edge">
<title>Node4&#45;&gt;Node6</title>
<path fill="none" stroke="midnightblue" d="M500.5,-168.44C525.46,-161.74 556.61,-150.38 579.5,-132 595.01,-119.54 606.63,-99.75 613.67,-85.28"/>
<polygon fill="midnightblue" stroke="midnightblue" points="617,-86.41 617.98,-75.86 610.63,-83.5 617,-86.41"/>
</g>
<!-- Node7 -->
<g id="node7" class="node">
<title>Node7</title>
<g id="a_node7"><a xlink:title=" ">
<polygon fill="white" stroke="#bfbfbf" points="457.5,-112.5 457.5,-131.5 555.5,-131.5 555.5,-112.5 457.5,-112.5"/>
<text text-anchor="middle" x="506.5" y="-119.5" font-family="Helvetica,sans-Serif" font-size="10.00">G4UImanager.hh</text>
</a>
</g>
</g>
<!-- Node4&#45;&gt;Node7 -->
<g id="edge6" class="edge">
<title>Node4&#45;&gt;Node7</title>
<path fill="none" stroke="midnightblue" d="M466.43,-168.08C473.35,-160.3 483.57,-148.8 491.95,-139.37"/>
<polygon fill="midnightblue" stroke="midnightblue" points="494.69,-141.55 498.72,-131.75 489.46,-136.9 494.69,-141.55"/>
</g>
<!-- Node8 -->
<g id="node8" class="node">
<title>Node8</title>
<g id="a_node8"><a xlink:href="_o_m_sim_logger_8hh.html" target="_top" xlink:title=" ">
<polygon fill="white" stroke="black" points="482,-56.5 482,-75.5 581,-75.5 581,-56.5 482,-56.5"/>
<text text-anchor="middle" x="531.5" y="-63.5" font-family="Helvetica,sans-Serif" font-size="10.00">OMSimLogger.hh</text>
</a>
</g>
</g>
<!-- Node4&#45;&gt;Node8 -->
<g id="edge7" class="edge">
<title>Node4&#45;&gt;Node8</title>
<path fill="none" stroke="midnightblue" d="M508.27,-168.45C529.33,-162.1 551.87,-151.09 564.5,-132 575.01,-116.12 561.76,-96.45 549.06,-82.93"/>
<polygon fill="midnightblue" stroke="midnightblue" points="551.39,-80.32 541.82,-75.76 546.46,-85.29 551.39,-80.32"/>
</g>
<!-- Node11 -->
<g id="node11" class="node">
<title>Node11</title>
<g id="a_node11"><a xlink:href="_o_m_sim_command_args_table_8hh.html" target="_top" xlink:title="Definition of the OMSimCommandArgsTable singleton class, which controls user args.">
<polygon fill="white" stroke="black" points="201.5,-112.5 201.5,-131.5 365.5,-131.5 365.5,-112.5 201.5,-112.5"/>
<text text-anchor="middle" x="283.5" y="-119.5" font-family="Helvetica,sans-Serif" font-size="10.00">OMSimCommandArgsTable.hh</text>
</a>
</g>
</g>
<!-- Node4&#45;&gt;Node11 -->
<g id="edge10" class="edge">
<title>Node4&#45;&gt;Node11</title>
<path fill="none" stroke="midnightblue" d="M430.77,-168.44C401.07,-159.28 353.78,-144.69 320.83,-134.52"/>
<polygon fill="midnightblue" stroke="midnightblue" points="321.69,-131.12 311.1,-131.52 319.62,-137.81 321.69,-131.12"/>
</g>
<!-- Node9 -->
<g id="node9" class="node">
<title>Node9</title>
<g id="a_node9"><a xlink:title=" ">
<polygon fill="white" stroke="#bfbfbf" points="472.5,-0.5 472.5,-19.5 522.5,-19.5 522.5,-0.5 472.5,-0.5"/>
<text text-anchor="middle" x="497.5" y="-7.5" font-family="Helvetica,sans-Serif" font-size="10.00">stdio.h</text>
</a>
</g>
</g>
<!-- Node8&#45;&gt;Node9 -->
<g id="edge8" class="edge">
<title>Node8&#45;&gt;Node9</title>
<path fill="none" stroke="midnightblue" d="M525.89,-56.08C521.13,-48.53 514.18,-37.49 508.35,-28.23"/>
<polygon fill="midnightblue" stroke="midnightblue" points="511.3,-26.35 503.01,-19.75 505.38,-30.08 511.3,-26.35"/>
</g>
<!-- Node10 -->
<g id="node10" class="node">
<title>Node10</title>
<g id="a_node10"><a xlink:title=" ">
<polygon fill="white" stroke="#bfbfbf" points="540.5,-0.5 540.5,-19.5 588.5,-19.5 588.5,-0.5 540.5,-0.5"/>
<text text-anchor="middle" x="564.5" y="-7.5" font-family="Helvetica,sans-Serif" font-size="10.00">time.h</text>
</a>
</g>
</g>
<!-- Node8&#45;&gt;Node10 -->
<g id="edge9" class="edge">
<title>Node8&#45;&gt;Node10</title>
<path fill="none" stroke="midnightblue" d="M536.95,-56.08C541.51,-48.61 548.17,-37.72 553.79,-28.52"/>
<polygon fill="midnightblue" stroke="midnightblue" points="556.92,-30.11 559.15,-19.75 550.95,-26.46 556.92,-30.11"/>
</g>
<!-- Node11&#45;&gt;Node3 -->
<g id="edge15" class="edge">
<title>Node11&#45;&gt;Node3</title>
<path fill="none" stroke="midnightblue" d="M243.89,-112.44C198.48,-102.64 124.28,-86.61 77.21,-76.44"/>
<polygon fill="midnightblue" stroke="midnightblue" points="77.83,-72.99 67.32,-74.3 76.35,-79.84 77.83,-72.99"/>
</g>
<!-- Node11&#45;&gt;Node6 -->
<g id="edge13" class="edge">
<title>Node11&#45;&gt;Node6</title>
<path fill="none" stroke="midnightblue" d="M362.27,-112.47C422.23,-105.28 506.9,-93.64 589.45,-75.98"/>
<polygon fill="midnightblue" stroke="midnightblue" points="590.21,-79.4 599.24,-73.86 588.73,-72.56 590.21,-79.4"/>
</g>
<!-- Node11&#45;&gt;Node8 -->
<g id="edge18" class="edge">
<title>Node11&#45;&gt;Node8</title>
<path fill="none" stroke="midnightblue" d="M322.8,-112.44C366.06,-103.02 435.67,-87.87 482.47,-77.68"/>
<polygon fill="midnightblue" stroke="midnightblue" points="483.36,-81.06 492.39,-75.52 481.87,-74.22 483.36,-81.06"/>
</g>
<!-- Node12 -->
<g id="node12" class="node">
<title>Node12</title>
<g id="a_node12"><a xlink:title=" ">
<polygon fill="white" stroke="#bfbfbf" points="356.5,-56.5 356.5,-75.5 394.5,-75.5 394.5,-56.5 356.5,-56.5"/>
<text text-anchor="middle" x="375.5" y="-63.5" font-family="Helvetica,sans-Serif" font-size="10.00">map</text>
</a>
</g>
</g>
<!-- Node11&#45;&gt;Node12 -->
<g id="edge11" class="edge">
<title>Node11&#45;&gt;Node12</title>
<path fill="none" stroke="midnightblue" d="M298.28,-112.32C312.77,-103.82 335.07,-90.73 351.99,-80.8"/>
<polygon fill="midnightblue" stroke="midnightblue" points="353.9,-83.74 360.76,-75.65 350.36,-77.7 353.9,-83.74"/>
</g>
<!-- Node13 -->
<g id="node13" class="node">
<title>Node13</title>
<g id="a_node13"><a xlink:title=" ">
<polygon fill="white" stroke="#bfbfbf" points="413,-56.5 413,-75.5 464,-75.5 464,-56.5 413,-56.5"/>
<text text-anchor="middle" x="438.5" y="-63.5" font-family="Helvetica,sans-Serif" font-size="10.00">variant</text>
</a>
</g>
</g>
<!-- Node11&#45;&gt;Node13 -->
<g id="edge12" class="edge">
<title>Node11&#45;&gt;Node13</title>
<path fill="none" stroke="midnightblue" d="M308.06,-112.44C334.02,-103.4 375.17,-89.06 404.3,-78.92"/>
<polygon fill="midnightblue" stroke="midnightblue" points="405.76,-82.11 414.05,-75.52 403.46,-75.5 405.76,-82.11"/>
</g>
<!-- Node14 -->
<g id="node14" class="node">
<title>Node14</title>
<g id="a_node14"><a xlink:title=" ">
<polygon fill="white" stroke="#bfbfbf" points="85,-56.5 85,-75.5 150,-75.5 150,-56.5 85,-56.5"/>
<text text-anchor="middle" x="117.5" y="-63.5" font-family="Helvetica,sans-Serif" font-size="10.00">stdexcept</text>
</a>
</g>
</g>
<!-- Node11&#45;&gt;Node14 -->
<g id="edge14" class="edge">
<title>Node11&#45;&gt;Node14</title>
<path fill="none" stroke="midnightblue" d="M257.2,-112.44C229.15,-103.32 184.56,-88.81 153.32,-78.65"/>
<polygon fill="midnightblue" stroke="midnightblue" points="154.27,-75.28 143.68,-75.52 152.11,-81.94 154.27,-75.28"/>
</g>
<!-- Node15 -->
<g id="node15" class="node">
<title>Node15</title>
<g id="a_node15"><a xlink:title=" ">
<polygon fill="white" stroke="#bfbfbf" points="168.5,-56.5 168.5,-75.5 252.5,-75.5 252.5,-56.5 168.5,-56.5"/>
<text text-anchor="middle" x="210.5" y="-63.5" font-family="Helvetica,sans-Serif" font-size="10.00">boost/any.hpp</text>
</a>
</g>
</g>
<!-- Node11&#45;&gt;Node15 -->
<g id="edge16" class="edge">
<title>Node11&#45;&gt;Node15</title>
<path fill="none" stroke="midnightblue" d="M271.77,-112.32C260.66,-104.11 243.76,-91.6 230.52,-81.81"/>
<polygon fill="midnightblue" stroke="midnightblue" points="232.56,-78.97 222.44,-75.83 228.4,-84.59 232.56,-78.97"/>
</g>
<!-- Node16 -->
<g id="node16" class="node">
<title>Node16</title>
<g id="a_node16"><a xlink:title=" ">
<polygon fill="white" stroke="#bfbfbf" points="270.5,-56.5 270.5,-75.5 338.5,-75.5 338.5,-56.5 270.5,-56.5"/>
<text text-anchor="middle" x="304.5" y="-63.5" font-family="Helvetica,sans-Serif" font-size="10.00">sys/time.h</text>
</a>
</g>
</g>
<!-- Node11&#45;&gt;Node16 -->
<g id="edge17" class="edge">
<title>Node11&#45;&gt;Node16</title>
<path fill="none" stroke="midnightblue" d="M286.97,-112.08C289.81,-104.77 293.93,-94.18 297.46,-85.1"/>
<polygon fill="midnightblue" stroke="midnightblue" points="300.73,-86.34 301.1,-75.75 294.21,-83.8 300.73,-86.34"/>
</g>
</g>
</svg>
