<?xml version="1.0" encoding="UTF-8" standalone="no"?>
<!DOCTYPE svg PUBLIC "-//W3C//DTD SVG 1.1//EN"
 "http://www.w3.org/Graphics/SVG/1.1/DTD/svg11.dtd">
<!-- Generated by graphviz version 2.43.0 (0)
 -->
<!-- Title: OMSim_supernova.cc Pages: 1 -->
<svg width="2527pt" height="308pt"
 viewBox="0.00 0.00 2527.49 308.00" xmlns="http://www.w3.org/2000/svg" xmlns:xlink="http://www.w3.org/1999/xlink">
<g id="graph0" class="graph" transform="scale(1 1) rotate(0) translate(4 304)">
<title>OMSim_supernova.cc</title>
<polygon fill="white" stroke="transparent" points="-4,4 -4,-304 2523.49,-304 2523.49,4 -4,4"/>
<!-- Node1 -->
<g id="node1" class="node">
<title>Node1</title>
<g id="a_node1"><a xlink:title=" ">
<polygon fill="#bfbfbf" stroke="black" points="2006.5,-280.5 2006.5,-299.5 2128.5,-299.5 2128.5,-280.5 2006.5,-280.5"/>
<text text-anchor="middle" x="2067.5" y="-287.5" font-family="Helvetica,sans-Serif" font-size="10.00">OMSim_supernova.cc</text>
</a>
</g>
</g>
<!-- Node2 -->
<g id="node2" class="node">
<title>Node2</title>
<g id="a_node2"><a xlink:href="_o_m_sim_8hh.html" target="_top" xlink:title="Main simulation class for the Optical Module (OM) simulation. This file defines the OMSim class,...">
<polygon fill="white" stroke="black" points="1001,-224.5 1001,-243.5 1068,-243.5 1068,-224.5 1001,-224.5"/>
<text text-anchor="middle" x="1034.5" y="-231.5" font-family="Helvetica,sans-Serif" font-size="10.00">OMSim.hh</text>
</a>
</g>
</g>
<!-- Node1&#45;&gt;Node2 -->
<g id="edge1" class="edge">
<title>Node1&#45;&gt;Node2</title>
<path fill="none" stroke="midnightblue" d="M2006.36,-285.8C1816.78,-275.89 1241.84,-245.84 1078.31,-237.29"/>
<polygon fill="midnightblue" stroke="midnightblue" points="1078.32,-233.79 1068.15,-236.76 1077.95,-240.78 1078.32,-233.79"/>
</g>
<!-- Node5 -->
<g id="node5" class="node">
<title>Node5</title>
<g id="a_node5"><a xlink:title=" ">
<polygon fill="white" stroke="#bfbfbf" points="0,-168.5 0,-187.5 185,-187.5 185,-168.5 0,-168.5"/>
<text text-anchor="middle" x="92.5" y="-175.5" font-family="Helvetica,sans-Serif" font-size="10.00">OMSimPrimaryGeneratorAction.hh</text>
</a>
</g>
</g>
<!-- Node1&#45;&gt;Node5 -->
<g id="edge33" class="edge">
<title>Node1&#45;&gt;Node5</title>
<path fill="none" stroke="midnightblue" d="M2006.2,-287.04C1841.82,-281.67 1377.45,-265.61 991.5,-244 639.81,-224.31 549.58,-216.37 195.26,-188.13"/>
<polygon fill="midnightblue" stroke="midnightblue" points="195.48,-184.64 185.23,-187.33 194.92,-191.61 195.48,-184.64"/>
</g>
<!-- Node27 -->
<g id="node27" class="node">
<title>Node27</title>
<g id="a_node27"><a xlink:href="_o_m_sim_s_n_analysis_8hh.html" target="_top" xlink:title=" ">
<polygon fill="white" stroke="black" points="2006.5,-224.5 2006.5,-243.5 2128.5,-243.5 2128.5,-224.5 2006.5,-224.5"/>
<text text-anchor="middle" x="2067.5" y="-231.5" font-family="Helvetica,sans-Serif" font-size="10.00">OMSimSNAnalysis.hh</text>
</a>
</g>
</g>
<!-- Node1&#45;&gt;Node27 -->
<g id="edge26" class="edge">
<title>Node1&#45;&gt;Node27</title>
<path fill="none" stroke="midnightblue" d="M2067.5,-280.08C2067.5,-273.01 2067.5,-262.86 2067.5,-253.99"/>
<polygon fill="midnightblue" stroke="midnightblue" points="2071,-253.75 2067.5,-243.75 2064,-253.75 2071,-253.75"/>
</g>
<!-- Node33 -->
<g id="node33" class="node">
<title>Node33</title>
<g id="a_node33"><a xlink:href="_o_m_sim_hit_manager_8hh.html" target="_top" xlink:title="Defines structures and classes related to optical module photon hit management.">
<polygon fill="white" stroke="black" points="2172,-224.5 2172,-243.5 2295,-243.5 2295,-224.5 2172,-224.5"/>
<text text-anchor="middle" x="2233.5" y="-231.5" font-family="Helvetica,sans-Serif" font-size="10.00">OMSimHitManager.hh</text>
</a>
</g>
</g>
<!-- Node1&#45;&gt;Node33 -->
<g id="edge34" class="edge">
<title>Node1&#45;&gt;Node33</title>
<path fill="none" stroke="midnightblue" d="M2093.8,-280.44C2121.85,-271.32 2166.44,-256.81 2197.68,-246.65"/>
<polygon fill="midnightblue" stroke="midnightblue" points="2198.89,-249.94 2207.32,-243.52 2196.73,-243.28 2198.89,-249.94"/>
</g>
<!-- Node39 -->
<g id="node39" class="node">
<title>Node39</title>
<g id="a_node39"><a xlink:title=" ">
<polygon fill="white" stroke="#bfbfbf" points="2313.5,-224.5 2313.5,-243.5 2405.5,-243.5 2405.5,-224.5 2313.5,-224.5"/>
<text text-anchor="middle" x="2359.5" y="-231.5" font-family="Helvetica,sans-Serif" font-size="10.00">G4Navigator.hh</text>
</a>
</g>
</g>
<!-- Node1&#45;&gt;Node39 -->
<g id="edge43" class="edge">
<title>Node1&#45;&gt;Node39</title>
<path fill="none" stroke="midnightblue" d="M2113.77,-280.44C2165.24,-270.92 2248.39,-255.55 2303.5,-245.36"/>
<polygon fill="midnightblue" stroke="midnightblue" points="2304.25,-248.78 2313.45,-243.52 2302.98,-241.89 2304.25,-248.78"/>
</g>
<!-- Node3 -->
<g id="node3" class="node">
<title>Node3</title>
<g id="a_node3"><a xlink:title=" ">
<polygon fill="white" stroke="#bfbfbf" points="578.5,-168.5 578.5,-187.5 748.5,-187.5 748.5,-168.5 578.5,-168.5"/>
<text text-anchor="middle" x="663.5" y="-175.5" font-family="Helvetica,sans-Serif" font-size="10.00">OMSimDetectorConstruction.hh</text>
</a>
</g>
</g>
<!-- Node2&#45;&gt;Node3 -->
<g id="edge2" class="edge">
<title>Node2&#45;&gt;Node3</title>
<path fill="none" stroke="midnightblue" d="M1000.92,-228.11C940.37,-219.3 811.77,-200.58 731.99,-188.97"/>
<polygon fill="midnightblue" stroke="midnightblue" points="732.43,-185.5 722.03,-187.52 731.42,-192.42 732.43,-185.5"/>
</g>
<!-- Node4 -->
<g id="node4" class="node">
<title>Node4</title>
<g id="a_node4"><a xlink:title=" ">
<polygon fill="white" stroke="#bfbfbf" points="767,-168.5 767,-187.5 888,-187.5 888,-168.5 767,-168.5"/>
<text text-anchor="middle" x="827.5" y="-175.5" font-family="Helvetica,sans-Serif" font-size="10.00">OMSimPhysicsList.hh</text>
</a>
</g>
</g>
<!-- Node2&#45;&gt;Node4 -->
<g id="edge3" class="edge">
<title>Node2&#45;&gt;Node4</title>
<path fill="none" stroke="midnightblue" d="M1001.7,-224.44C966.12,-215.16 909.19,-200.31 870.15,-190.13"/>
<polygon fill="midnightblue" stroke="midnightblue" points="870.71,-186.65 860.15,-187.52 868.94,-193.43 870.71,-186.65"/>
</g>
<!-- Node2&#45;&gt;Node5 -->
<g id="edge4" class="edge">
<title>Node2&#45;&gt;Node5</title>
<path fill="none" stroke="midnightblue" d="M1000.82,-231.63C888.35,-226.95 515.2,-210.71 195.62,-188.13"/>
<polygon fill="midnightblue" stroke="midnightblue" points="195.45,-184.61 185.23,-187.39 194.95,-191.59 195.45,-184.61"/>
</g>
<!-- Node6 -->
<g id="node6" class="node">
<title>Node6</title>
<g id="a_node6"><a xlink:href="_o_m_sim_run_action_8hh.html" target="_top" xlink:title=" ">
<polygon fill="white" stroke="black" points="906.5,-168.5 906.5,-187.5 1022.5,-187.5 1022.5,-168.5 906.5,-168.5"/>
<text text-anchor="middle" x="964.5" y="-175.5" font-family="Helvetica,sans-Serif" font-size="10.00">OMSimRunAction.hh</text>
</a>
</g>
</g>
<!-- Node2&#45;&gt;Node6 -->
<g id="edge5" class="edge">
<title>Node2&#45;&gt;Node6</title>
<path fill="none" stroke="midnightblue" d="M1023.25,-224.32C1012.7,-216.18 996.7,-203.84 984.06,-194.09"/>
<polygon fill="midnightblue" stroke="midnightblue" points="986.01,-191.17 975.95,-187.83 981.73,-196.71 986.01,-191.17"/>
</g>
<!-- Node8 -->
<g id="node8" class="node">
<title>Node8</title>
<g id="a_node8"><a xlink:title=" ">
<polygon fill="white" stroke="#bfbfbf" points="1041,-168.5 1041,-187.5 1166,-187.5 1166,-168.5 1041,-168.5"/>
<text text-anchor="middle" x="1103.5" y="-175.5" font-family="Helvetica,sans-Serif" font-size="10.00">OMSimEventAction.hh</text>
</a>
</g>
</g>
<!-- Node2&#45;&gt;Node8 -->
<g id="edge7" class="edge">
<title>Node2&#45;&gt;Node8</title>
<path fill="none" stroke="midnightblue" d="M1045.59,-224.32C1055.99,-216.18 1071.76,-203.84 1084.22,-194.09"/>
<polygon fill="midnightblue" stroke="midnightblue" points="1086.49,-196.75 1092.21,-187.83 1082.18,-191.24 1086.49,-196.75"/>
</g>
<!-- Node9 -->
<g id="node9" class="node">
<title>Node9</title>
<g id="a_node9"><a xlink:href="_o_m_sim_tracking_action_8hh.html" target="_top" xlink:title=" ">
<polygon fill="white" stroke="black" points="1184.5,-168.5 1184.5,-187.5 1322.5,-187.5 1322.5,-168.5 1184.5,-168.5"/>
<text text-anchor="middle" x="1253.5" y="-175.5" font-family="Helvetica,sans-Serif" font-size="10.00">OMSimTrackingAction.hh</text>
</a>
</g>
</g>
<!-- Node2&#45;&gt;Node9 -->
<g id="edge8" class="edge">
<title>Node2&#45;&gt;Node9</title>
<path fill="none" stroke="midnightblue" d="M1068.24,-224.68C1106.04,-215.36 1167.46,-200.22 1209.12,-189.94"/>
<polygon fill="midnightblue" stroke="midnightblue" points="1210.13,-193.3 1219,-187.51 1208.45,-186.5 1210.13,-193.3"/>
</g>
<!-- Node11 -->
<g id="node11" class="node">
<title>Node11</title>
<g id="a_node11"><a xlink:href="_o_m_sim_stepping_action_8hh.html" target="_top" xlink:title="Defines OMSimSteppingAction.Currently it only checks for trapped photons.">
<polygon fill="white" stroke="black" points="1340.5,-168.5 1340.5,-187.5 1480.5,-187.5 1480.5,-168.5 1340.5,-168.5"/>
<text text-anchor="middle" x="1410.5" y="-175.5" font-family="Helvetica,sans-Serif" font-size="10.00">OMSimSteppingAction.hh</text>
</a>
</g>
</g>
<!-- Node2&#45;&gt;Node11 -->
<g id="edge10" class="edge">
<title>Node2&#45;&gt;Node11</title>
<path fill="none" stroke="midnightblue" d="M1068.2,-228.16C1129.39,-219.37 1259.92,-200.63 1340.94,-188.99"/>
<polygon fill="midnightblue" stroke="midnightblue" points="1341.66,-192.42 1351.06,-187.54 1340.66,-185.49 1341.66,-192.42"/>
</g>
<!-- Node13 -->
<g id="node13" class="node">
<title>Node13</title>
<g id="a_node13"><a xlink:href="_o_m_sim_u_iinterface_8hh.html" target="_top" xlink:title="The OMSimUIinterface class provides a singleton interface to Geant4&#39;s UI manager.">
<polygon fill="white" stroke="black" points="1499,-168.5 1499,-187.5 1620,-187.5 1620,-168.5 1499,-168.5"/>
<text text-anchor="middle" x="1559.5" y="-175.5" font-family="Helvetica,sans-Serif" font-size="10.00">OMSimUIinterface.hh</text>
</a>
</g>
</g>
<!-- Node2&#45;&gt;Node13 -->
<g id="edge12" class="edge">
<title>Node2&#45;&gt;Node13</title>
<path fill="none" stroke="midnightblue" d="M1068.21,-230.01C1142.17,-223.37 1324.47,-206.6 1488.53,-188.08"/>
<polygon fill="midnightblue" stroke="midnightblue" points="1489.26,-191.52 1498.81,-186.91 1488.48,-184.56 1489.26,-191.52"/>
</g>
<!-- Node22 -->
<g id="node22" class="node">
<title>Node22</title>
<g id="a_node22"><a xlink:title=" ">
<polygon fill="white" stroke="#bfbfbf" points="1638.5,-168.5 1638.5,-187.5 1744.5,-187.5 1744.5,-168.5 1638.5,-168.5"/>
<text text-anchor="middle" x="1691.5" y="-175.5" font-family="Helvetica,sans-Serif" font-size="10.00">G4RunManager.hh</text>
</a>
</g>
</g>
<!-- Node2&#45;&gt;Node22 -->
<g id="edge21" class="edge">
<title>Node2&#45;&gt;Node22</title>
<path fill="none" stroke="midnightblue" d="M1068.06,-231.24C1157.29,-226.39 1407.94,-211.69 1628.13,-187.96"/>
<polygon fill="midnightblue" stroke="midnightblue" points="1628.69,-191.42 1638.26,-186.86 1627.94,-184.46 1628.69,-191.42"/>
</g>
<!-- Node23 -->
<g id="node23" class="node">
<title>Node23</title>
<g id="a_node23"><a xlink:title=" ">
<polygon fill="white" stroke="#bfbfbf" points="1763,-168.5 1763,-187.5 1870,-187.5 1870,-168.5 1763,-168.5"/>
<text text-anchor="middle" x="1816.5" y="-175.5" font-family="Helvetica,sans-Serif" font-size="10.00">G4VisExecutive.hh</text>
</a>
</g>
</g>
<!-- Node2&#45;&gt;Node23 -->
<g id="edge22" class="edge">
<title>Node2&#45;&gt;Node23</title>
<path fill="none" stroke="midnightblue" d="M1068.27,-231.84C1170,-228.14 1482.6,-215.31 1752.92,-187.97"/>
<polygon fill="midnightblue" stroke="midnightblue" points="1753.33,-191.45 1762.92,-186.95 1752.62,-184.48 1753.33,-191.45"/>
</g>
<!-- Node24 -->
<g id="node24" class="node">
<title>Node24</title>
<g id="a_node24"><a xlink:title=" ">
<polygon fill="white" stroke="#bfbfbf" points="203,-168.5 203,-187.5 306,-187.5 306,-168.5 203,-168.5"/>
<text text-anchor="middle" x="254.5" y="-175.5" font-family="Helvetica,sans-Serif" font-size="10.00">G4UIExecutive.hh</text>
</a>
</g>
</g>
<!-- Node2&#45;&gt;Node24 -->
<g id="edge23" class="edge">
<title>Node2&#45;&gt;Node24</title>
<path fill="none" stroke="midnightblue" d="M1000.72,-231.89C898.98,-228.35 586.34,-215.9 316.05,-187.96"/>
<polygon fill="midnightblue" stroke="midnightblue" points="316.36,-184.47 306.05,-186.92 315.63,-191.43 316.36,-184.47"/>
</g>
<!-- Node25 -->
<g id="node25" class="node">
<title>Node25</title>
<g id="a_node25"><a xlink:title=" ">
<polygon fill="white" stroke="#bfbfbf" points="324.5,-168.5 324.5,-187.5 392.5,-187.5 392.5,-168.5 324.5,-168.5"/>
<text text-anchor="middle" x="358.5" y="-175.5" font-family="Helvetica,sans-Serif" font-size="10.00">filesystem</text>
</a>
</g>
</g>
<!-- Node2&#45;&gt;Node25 -->
<g id="edge24" class="edge">
<title>Node2&#45;&gt;Node25</title>
<path fill="none" stroke="midnightblue" d="M1000.71,-232.21C907.16,-229.67 636.81,-220.03 402.76,-187.99"/>
<polygon fill="midnightblue" stroke="midnightblue" points="403.08,-184.5 392.69,-186.59 402.12,-191.43 403.08,-184.5"/>
</g>
<!-- Node26 -->
<g id="node26" class="node">
<title>Node26</title>
<g id="a_node26"><a xlink:title=" ">
<polygon fill="white" stroke="#bfbfbf" points="410.5,-168.5 410.5,-187.5 560.5,-187.5 560.5,-168.5 410.5,-168.5"/>
<text text-anchor="middle" x="485.5" y="-175.5" font-family="Helvetica,sans-Serif" font-size="10.00">boost/program_options.hpp</text>
</a>
</g>
</g>
<!-- Node2&#45;&gt;Node26 -->
<g id="edge25" class="edge">
<title>Node2&#45;&gt;Node26</title>
<path fill="none" stroke="midnightblue" d="M1000.94,-229.87C925.89,-222.85 738.58,-205.18 570.62,-188.1"/>
<polygon fill="midnightblue" stroke="midnightblue" points="570.9,-184.62 560.6,-187.09 570.2,-191.58 570.9,-184.62"/>
</g>
<!-- Node7 -->
<g id="node7" class="node">
<title>Node7</title>
<g id="a_node7"><a xlink:title=" ">
<polygon fill="white" stroke="#bfbfbf" points="906,-112.5 906,-131.5 1023,-131.5 1023,-112.5 906,-112.5"/>
<text text-anchor="middle" x="964.5" y="-119.5" font-family="Helvetica,sans-Serif" font-size="10.00">G4UserRunAction.hh</text>
</a>
</g>
</g>
<!-- Node6&#45;&gt;Node7 -->
<g id="edge6" class="edge">
<title>Node6&#45;&gt;Node7</title>
<path fill="none" stroke="midnightblue" d="M964.5,-168.08C964.5,-161.01 964.5,-150.86 964.5,-141.99"/>
<polygon fill="midnightblue" stroke="midnightblue" points="968,-141.75 964.5,-131.75 961,-141.75 968,-141.75"/>
</g>
<!-- Node10 -->
<g id="node10" class="node">
<title>Node10</title>
<g id="a_node10"><a xlink:title=" ">
<polygon fill="white" stroke="#bfbfbf" points="1183,-112.5 1183,-131.5 1322,-131.5 1322,-112.5 1183,-112.5"/>
<text text-anchor="middle" x="1252.5" y="-119.5" font-family="Helvetica,sans-Serif" font-size="10.00">G4UserTrackingAction.hh</text>
</a>
</g>
</g>
<!-- Node9&#45;&gt;Node10 -->
<g id="edge9" class="edge">
<title>Node9&#45;&gt;Node10</title>
<path fill="none" stroke="midnightblue" d="M1253.33,-168.08C1253.2,-161.01 1253.02,-150.86 1252.85,-141.99"/>
<polygon fill="midnightblue" stroke="midnightblue" points="1256.35,-141.68 1252.66,-131.75 1249.35,-141.81 1256.35,-141.68"/>
</g>
<!-- Node12 -->
<g id="node12" class="node">
<title>Node12</title>
<g id="a_node12"><a xlink:title=" ">
<polygon fill="white" stroke="#bfbfbf" points="1340,-112.5 1340,-131.5 1481,-131.5 1481,-112.5 1340,-112.5"/>
<text text-anchor="middle" x="1410.5" y="-119.5" font-family="Helvetica,sans-Serif" font-size="10.00">G4UserSteppingAction.hh</text>
</a>
</g>
</g>
<!-- Node11&#45;&gt;Node12 -->
<g id="edge11" class="edge">
<title>Node11&#45;&gt;Node12</title>
<path fill="none" stroke="midnightblue" d="M1410.5,-168.08C1410.5,-161.01 1410.5,-150.86 1410.5,-141.99"/>
<polygon fill="midnightblue" stroke="midnightblue" points="1414,-141.75 1410.5,-131.75 1407,-141.75 1414,-141.75"/>
</g>
<!-- Node14 -->
<g id="node14" class="node">
<title>Node14</title>
<g id="a_node14"><a xlink:href="_o_m_sim_command_args_table_8hh.html" target="_top" xlink:title="Definition of the OMSimCommandArgsTable singleton class, which controls user args.">
<polygon fill="white" stroke="black" points="1499.5,-112.5 1499.5,-131.5 1663.5,-131.5 1663.5,-112.5 1499.5,-112.5"/>
<text text-anchor="middle" x="1581.5" y="-119.5" font-family="Helvetica,sans-Serif" font-size="10.00">OMSimCommandArgsTable.hh</text>
</a>
</g>
</g>
<!-- Node13&#45;&gt;Node14 -->
<g id="edge13" class="edge">
<title>Node13&#45;&gt;Node14</title>
<path fill="none" stroke="midnightblue" d="M1563.13,-168.08C1566.11,-160.77 1570.43,-150.18 1574.12,-141.1"/>
<polygon fill="midnightblue" stroke="midnightblue" points="1577.4,-142.33 1577.93,-131.75 1570.92,-139.69 1577.4,-142.33"/>
</g>
<!-- Node21 -->
<g id="node21" class="node">
<title>Node21</title>
<g id="a_node21"><a xlink:title=" ">
<polygon fill="white" stroke="#bfbfbf" points="1681.5,-112.5 1681.5,-131.5 1779.5,-131.5 1779.5,-112.5 1681.5,-112.5"/>
<text text-anchor="middle" x="1730.5" y="-119.5" font-family="Helvetica,sans-Serif" font-size="10.00">G4UImanager.hh</text>
</a>
</g>
</g>
<!-- Node13&#45;&gt;Node21 -->
<g id="edge20" class="edge">
<title>Node13&#45;&gt;Node21</title>
<path fill="none" stroke="midnightblue" d="M1586.6,-168.44C1615.49,-159.32 1661.42,-144.81 1693.61,-134.65"/>
<polygon fill="midnightblue" stroke="midnightblue" points="1695.05,-137.87 1703.53,-131.52 1692.94,-131.19 1695.05,-137.87"/>
</g>
<!-- Node15 -->
<g id="node15" class="node">
<title>Node15</title>
<g id="a_node15"><a xlink:href="_o_m_sim_logger_8hh.html" target="_top" xlink:title=" ">
<polygon fill="white" stroke="black" points="1634,-56.5 1634,-75.5 1733,-75.5 1733,-56.5 1634,-56.5"/>
<text text-anchor="middle" x="1683.5" y="-63.5" font-family="Helvetica,sans-Serif" font-size="10.00">OMSimLogger.hh</text>
</a>
</g>
</g>
<!-- Node14&#45;&gt;Node15 -->
<g id="edge14" class="edge">
<title>Node14&#45;&gt;Node15</title>
<path fill="none" stroke="midnightblue" d="M1597.89,-112.32C1614.17,-103.7 1639.37,-90.36 1658.22,-80.39"/>
<polygon fill="midnightblue" stroke="midnightblue" points="1659.95,-83.43 1667.15,-75.65 1656.68,-77.24 1659.95,-83.43"/>
</g>
<!-- Node18 -->
<g id="node18" class="node">
<title>Node18</title>
<g id="a_node18"><a xlink:title=" ">
<polygon fill="white" stroke="#bfbfbf" points="1871,-56.5 1871,-75.5 1926,-75.5 1926,-56.5 1871,-56.5"/>
<text text-anchor="middle" x="1898.5" y="-63.5" font-family="Helvetica,sans-Serif" font-size="10.00">fstream</text>
</a>
</g>
</g>
<!-- Node14&#45;&gt;Node18 -->
<g id="edge17" class="edge">
<title>Node14&#45;&gt;Node18</title>
<path fill="none" stroke="midnightblue" d="M1631.73,-112.44C1695.33,-101.61 1803.49,-83.18 1860.6,-73.46"/>
<polygon fill="midnightblue" stroke="midnightblue" points="1861.37,-76.88 1870.64,-71.75 1860.2,-69.97 1861.37,-76.88"/>
</g>
<!-- Node19 -->
<g id="node19" class="node">
<title>Node19</title>
<g id="a_node19"><a xlink:title=" ">
<polygon fill="white" stroke="#bfbfbf" points="1445.5,-56.5 1445.5,-75.5 1529.5,-75.5 1529.5,-56.5 1445.5,-56.5"/>
<text text-anchor="middle" x="1487.5" y="-63.5" font-family="Helvetica,sans-Serif" font-size="10.00">boost/any.hpp</text>
</a>
</g>
</g>
<!-- Node14&#45;&gt;Node19 -->
<g id="edge18" class="edge">
<title>Node14&#45;&gt;Node19</title>
<path fill="none" stroke="midnightblue" d="M1566.4,-112.32C1551.6,-103.82 1528.81,-90.73 1511.52,-80.8"/>
<polygon fill="midnightblue" stroke="midnightblue" points="1512.98,-77.6 1502.57,-75.65 1509.49,-83.67 1512.98,-77.6"/>
</g>
<!-- Node20 -->
<g id="node20" class="node">
<title>Node20</title>
<g id="a_node20"><a xlink:title=" ">
<polygon fill="white" stroke="#bfbfbf" points="1547.5,-56.5 1547.5,-75.5 1615.5,-75.5 1615.5,-56.5 1547.5,-56.5"/>
<text text-anchor="middle" x="1581.5" y="-63.5" font-family="Helvetica,sans-Serif" font-size="10.00">sys/time.h</text>
</a>
</g>
</g>
<!-- Node14&#45;&gt;Node20 -->
<g id="edge19" class="edge">
<title>Node14&#45;&gt;Node20</title>
<path fill="none" stroke="midnightblue" d="M1581.5,-112.08C1581.5,-105.01 1581.5,-94.86 1581.5,-85.99"/>
<polygon fill="midnightblue" stroke="midnightblue" points="1585,-85.75 1581.5,-75.75 1578,-85.75 1585,-85.75"/>
</g>
<!-- Node16 -->
<g id="node16" class="node">
<title>Node16</title>
<g id="a_node16"><a xlink:title=" ">
<polygon fill="white" stroke="#bfbfbf" points="1625.5,-0.5 1625.5,-19.5 1675.5,-19.5 1675.5,-0.5 1625.5,-0.5"/>
<text text-anchor="middle" x="1650.5" y="-7.5" font-family="Helvetica,sans-Serif" font-size="10.00">stdio.h</text>
</a>
</g>
</g>
<!-- Node15&#45;&gt;Node16 -->
<g id="edge15" class="edge">
<title>Node15&#45;&gt;Node16</title>
<path fill="none" stroke="midnightblue" d="M1678.05,-56.08C1673.49,-48.61 1666.83,-37.72 1661.21,-28.52"/>
<polygon fill="midnightblue" stroke="midnightblue" points="1664.05,-26.46 1655.85,-19.75 1658.08,-30.11 1664.05,-26.46"/>
</g>
<!-- Node17 -->
<g id="node17" class="node">
<title>Node17</title>
<g id="a_node17"><a xlink:title=" ">
<polygon fill="white" stroke="#bfbfbf" points="1693.5,-0.5 1693.5,-19.5 1741.5,-19.5 1741.5,-0.5 1693.5,-0.5"/>
<text text-anchor="middle" x="1717.5" y="-7.5" font-family="Helvetica,sans-Serif" font-size="10.00">time.h</text>
</a>
</g>
</g>
<!-- Node15&#45;&gt;Node17 -->
<g id="edge16" class="edge">
<title>Node15&#45;&gt;Node17</title>
<path fill="none" stroke="midnightblue" d="M1689.11,-56.08C1693.87,-48.53 1700.82,-37.49 1706.65,-28.23"/>
<polygon fill="midnightblue" stroke="midnightblue" points="1709.62,-30.08 1711.99,-19.75 1703.7,-26.35 1709.62,-30.08"/>
</g>
<!-- Node27&#45;&gt;Node18 -->
<g id="edge31" class="edge">
<title>Node27&#45;&gt;Node18</title>
<path fill="none" stroke="midnightblue" d="M2006.29,-229.65C1975.26,-224.66 1939.58,-213.3 1917.5,-188 1892.53,-159.39 1893.15,-111.82 1895.81,-85.66"/>
<polygon fill="midnightblue" stroke="midnightblue" points="1899.3,-85.94 1897.05,-75.58 1892.36,-85.08 1899.3,-85.94"/>
</g>
<!-- Node28 -->
<g id="node28" class="node">
<title>Node28</title>
<g id="a_node28"><a xlink:title=" ">
<polygon fill="white" stroke="#bfbfbf" points="2084,-112.5 2084,-131.5 2157,-131.5 2157,-112.5 2084,-112.5"/>
<text text-anchor="middle" x="2120.5" y="-119.5" font-family="Helvetica,sans-Serif" font-size="10.00">G4Types.hh</text>
</a>
</g>
</g>
<!-- Node27&#45;&gt;Node28 -->
<g id="edge27" class="edge">
<title>Node27&#45;&gt;Node28</title>
<path fill="none" stroke="midnightblue" d="M2089.96,-224.38C2105.27,-217.18 2124.36,-205.29 2133.5,-188 2141.3,-173.24 2136.09,-154.35 2130.11,-140.73"/>
<polygon fill="midnightblue" stroke="midnightblue" points="2133.13,-138.95 2125.58,-131.51 2126.84,-142.03 2133.13,-138.95"/>
</g>
<!-- Node29 -->
<g id="node29" class="node">
<title>Node29</title>
<g id="a_node29"><a xlink:title=" ">
<polygon fill="white" stroke="#bfbfbf" points="1926.5,-168.5 1926.5,-187.5 2000.5,-187.5 2000.5,-168.5 1926.5,-168.5"/>
<text text-anchor="middle" x="1963.5" y="-175.5" font-family="Helvetica,sans-Serif" font-size="10.00">G4String.hh</text>
</a>
</g>
</g>
<!-- Node27&#45;&gt;Node29 -->
<g id="edge28" class="edge">
<title>Node27&#45;&gt;Node29</title>
<path fill="none" stroke="midnightblue" d="M2050.79,-224.32C2034.19,-215.7 2008.5,-202.36 1989.28,-192.39"/>
<polygon fill="midnightblue" stroke="midnightblue" points="1990.66,-189.16 1980.17,-187.65 1987.43,-195.37 1990.66,-189.16"/>
</g>
<!-- Node30 -->
<g id="node30" class="node">
<title>Node30</title>
<g id="a_node30"><a xlink:title=" ">
<polygon fill="white" stroke="#bfbfbf" points="2182,-168.5 2182,-187.5 2285,-187.5 2285,-168.5 2182,-168.5"/>
<text text-anchor="middle" x="2233.5" y="-175.5" font-family="Helvetica,sans-Serif" font-size="10.00">G4ThreeVector.hh</text>
</a>
</g>
</g>
<!-- Node27&#45;&gt;Node30 -->
<g id="edge29" class="edge">
<title>Node27&#45;&gt;Node30</title>
<path fill="none" stroke="midnightblue" d="M2093.8,-224.44C2121.85,-215.32 2166.44,-200.81 2197.68,-190.65"/>
<polygon fill="midnightblue" stroke="midnightblue" points="2198.89,-193.94 2207.32,-187.52 2196.73,-187.28 2198.89,-193.94"/>
</g>
<!-- Node31 -->
<g id="node31" class="node">
<title>Node31</title>
<g id="a_node31"><a xlink:title=" ">
<polygon fill="white" stroke="#bfbfbf" points="2019,-168.5 2019,-187.5 2066,-187.5 2066,-168.5 2019,-168.5"/>
<text text-anchor="middle" x="2042.5" y="-175.5" font-family="Helvetica,sans-Serif" font-size="10.00">vector</text>
</a>
</g>
</g>
<!-- Node27&#45;&gt;Node31 -->
<g id="edge30" class="edge">
<title>Node27&#45;&gt;Node31</title>
<path fill="none" stroke="midnightblue" d="M2063.37,-224.08C2059.99,-216.77 2055.08,-206.18 2050.88,-197.1"/>
<polygon fill="midnightblue" stroke="midnightblue" points="2053.93,-195.36 2046.55,-187.75 2047.58,-198.3 2053.93,-195.36"/>
</g>
<!-- Node32 -->
<g id="node32" class="node">
<title>Node32</title>
<g id="a_node32"><a xlink:title=" ">
<polygon fill="white" stroke="#bfbfbf" points="2084,-168.5 2084,-187.5 2125,-187.5 2125,-168.5 2084,-168.5"/>
<text text-anchor="middle" x="2104.5" y="-175.5" font-family="Helvetica,sans-Serif" font-size="10.00">tuple</text>
</a>
</g>
</g>
<!-- Node27&#45;&gt;Node32 -->
<g id="edge32" class="edge">
<title>Node27&#45;&gt;Node32</title>
<path fill="none" stroke="midnightblue" d="M2073.61,-224.08C2078.78,-216.53 2086.35,-205.49 2092.69,-196.23"/>
<polygon fill="midnightblue" stroke="midnightblue" points="2095.74,-197.98 2098.5,-187.75 2089.96,-194.02 2095.74,-197.98"/>
</g>
<!-- Node33&#45;&gt;Node18 -->
<g id="edge42" class="edge">
<title>Node33&#45;&gt;Node18</title>
<path fill="none" stroke="midnightblue" d="M2290.02,-224.49C2343.81,-215.79 2420.42,-201.65 2447.5,-188 2486.68,-168.25 2540.36,-144.14 2510.5,-112 2471.4,-69.92 2063.76,-66.8 1936.34,-66.87"/>
<polygon fill="midnightblue" stroke="midnightblue" points="1936.27,-63.37 1926.27,-66.88 1936.28,-70.37 1936.27,-63.37"/>
</g>
<!-- Node33&#45;&gt;Node30 -->
<g id="edge41" class="edge">
<title>Node33&#45;&gt;Node30</title>
<path fill="none" stroke="midnightblue" d="M2233.5,-224.08C2233.5,-217.01 2233.5,-206.86 2233.5,-197.99"/>
<polygon fill="midnightblue" stroke="midnightblue" points="2237,-197.75 2233.5,-187.75 2230,-197.75 2237,-197.75"/>
</g>
<!-- Node34 -->
<g id="node34" class="node">
<title>Node34</title>
<g id="a_node34"><a xlink:href="_o_m_sim_p_m_t_response_8hh.html" target="_top" xlink:title="Provides simulation for PMT response. This class is responsible for transforming hits on photocathode...">
<polygon fill="white" stroke="black" points="2303,-168.5 2303,-187.5 2438,-187.5 2438,-168.5 2303,-168.5"/>
<text text-anchor="middle" x="2370.5" y="-175.5" font-family="Helvetica,sans-Serif" font-size="10.00">OMSimPMTResponse.hh</text>
</a>
</g>
</g>
<!-- Node33&#45;&gt;Node34 -->
<g id="edge35" class="edge">
<title>Node33&#45;&gt;Node34</title>
<path fill="none" stroke="midnightblue" d="M2255.21,-224.44C2277.85,-215.52 2313.57,-201.44 2339.25,-191.32"/>
<polygon fill="midnightblue" stroke="midnightblue" points="2340.87,-194.44 2348.89,-187.52 2338.31,-187.93 2340.87,-194.44"/>
</g>
<!-- Node34&#45;&gt;Node28 -->
<g id="edge37" class="edge">
<title>Node34&#45;&gt;Node28</title>
<path fill="none" stroke="midnightblue" d="M2330.89,-168.44C2286.38,-158.83 2214.2,-143.24 2167.04,-133.05"/>
<polygon fill="midnightblue" stroke="midnightblue" points="2167.59,-129.59 2157.08,-130.9 2166.12,-136.43 2167.59,-129.59"/>
</g>
<!-- Node35 -->
<g id="node35" class="node">
<title>Node35</title>
<g id="a_node35"><a xlink:title=" ">
<polygon fill="white" stroke="#bfbfbf" points="2246,-112.5 2246,-131.5 2365,-131.5 2365,-112.5 2246,-112.5"/>
<text text-anchor="middle" x="2305.5" y="-119.5" font-family="Helvetica,sans-Serif" font-size="10.00">G4SystemOfUnits.hh</text>
</a>
</g>
</g>
<!-- Node34&#45;&gt;Node35 -->
<g id="edge36" class="edge">
<title>Node34&#45;&gt;Node35</title>
<path fill="none" stroke="midnightblue" d="M2360.06,-168.32C2350.35,-160.26 2335.68,-148.08 2324,-138.37"/>
<polygon fill="midnightblue" stroke="midnightblue" points="2326.06,-135.53 2316.13,-131.83 2321.59,-140.92 2326.06,-135.53"/>
</g>
<!-- Node36 -->
<g id="node36" class="node">
<title>Node36</title>
<g id="a_node36"><a xlink:title=" ">
<polygon fill="white" stroke="#bfbfbf" points="2383.5,-112.5 2383.5,-131.5 2421.5,-131.5 2421.5,-112.5 2383.5,-112.5"/>
<text text-anchor="middle" x="2402.5" y="-119.5" font-family="Helvetica,sans-Serif" font-size="10.00">map</text>
</a>
</g>
</g>
<!-- Node34&#45;&gt;Node36 -->
<g id="edge38" class="edge">
<title>Node34&#45;&gt;Node36</title>
<path fill="none" stroke="midnightblue" d="M2375.78,-168.08C2380.21,-160.61 2386.66,-149.72 2392.12,-140.52"/>
<polygon fill="midnightblue" stroke="midnightblue" points="2395.23,-142.14 2397.31,-131.75 2389.21,-138.57 2395.23,-142.14"/>
</g>
<!-- Node37 -->
<g id="node37" class="node">
<title>Node37</title>
<g id="a_node37"><a xlink:title=" ">
<polygon fill="white" stroke="#bfbfbf" points="2440,-112.5 2440,-131.5 2501,-131.5 2501,-112.5 2440,-112.5"/>
<text text-anchor="middle" x="2470.5" y="-119.5" font-family="Helvetica,sans-Serif" font-size="10.00">TGraph.h</text>
</a>
</g>
</g>
<!-- Node34&#45;&gt;Node37 -->
<g id="edge39" class="edge">
<title>Node34&#45;&gt;Node37</title>
<path fill="none" stroke="midnightblue" d="M2386.57,-168.32C2402.46,-159.74 2427.01,-146.49 2445.46,-136.52"/>
<polygon fill="midnightblue" stroke="midnightblue" points="2447.34,-139.49 2454.47,-131.65 2444.01,-133.33 2447.34,-139.49"/>
</g>
<!-- Node38 -->
<g id="node38" class="node">
<title>Node38</title>
<g id="a_node38"><a xlink:title=" ">
<polygon fill="white" stroke="#bfbfbf" points="2175,-112.5 2175,-131.5 2228,-131.5 2228,-112.5 2175,-112.5"/>
<text text-anchor="middle" x="2201.5" y="-119.5" font-family="Helvetica,sans-Serif" font-size="10.00">TH2D.h</text>
</a>
</g>
</g>
<!-- Node34&#45;&gt;Node38 -->
<g id="edge40" class="edge">
<title>Node34&#45;&gt;Node38</title>
<path fill="none" stroke="midnightblue" d="M2343.72,-168.44C2315.17,-159.32 2269.77,-144.81 2237.96,-134.65"/>
<polygon fill="midnightblue" stroke="midnightblue" points="2238.74,-131.23 2228.15,-131.52 2236.61,-137.89 2238.74,-131.23"/>
</g>
</g>
</svg>
