<?xml version="1.0" encoding="UTF-8" standalone="no"?>
<!DOCTYPE svg PUBLIC "-//W3C//DTD SVG 1.1//EN"
 "http://www.w3.org/Graphics/SVG/1.1/DTD/svg11.dtd">
<!-- Generated by graphviz version 2.43.0 (0)
 -->
<!-- Title: OMSimHitManager.cc Pages: 1 -->
<svg width="868pt" height="196pt"
 viewBox="0.00 0.00 867.50 196.00" xmlns="http://www.w3.org/2000/svg" xmlns:xlink="http://www.w3.org/1999/xlink">
<g id="graph0" class="graph" transform="scale(1 1) rotate(0) translate(4 192)">
<title>OMSimHitManager.cc</title>
<polygon fill="white" stroke="transparent" points="-4,4 -4,-192 863.5,-192 863.5,4 -4,4"/>
<!-- Node1 -->
<g id="node1" class="node">
<title>Node1</title>
<g id="a_node1"><a xlink:title=" ">
<polygon fill="#bfbfbf" stroke="black" points="456.5,-168.5 456.5,-187.5 578.5,-187.5 578.5,-168.5 456.5,-168.5"/>
<text text-anchor="middle" x="517.5" y="-175.5" font-family="Helvetica,sans-Serif" font-size="10.00">OMSimHitManager.cc</text>
</a>
</g>
</g>
<!-- Node2 -->
<g id="node2" class="node">
<title>Node2</title>
<g id="a_node2"><a xlink:href="_o_m_sim_hit_manager_8hh.html" target="_top" xlink:title="Defines structures and classes related to optical module photon hit management.">
<polygon fill="white" stroke="black" points="375,-112.5 375,-131.5 498,-131.5 498,-112.5 375,-112.5"/>
<text text-anchor="middle" x="436.5" y="-119.5" font-family="Helvetica,sans-Serif" font-size="10.00">OMSimHitManager.hh</text>
</a>
</g>
</g>
<!-- Node1&#45;&gt;Node2 -->
<g id="edge1" class="edge">
<title>Node1&#45;&gt;Node2</title>
<path fill="none" stroke="midnightblue" d="M504.49,-168.32C491.97,-159.98 472.82,-147.21 458.03,-137.35"/>
<polygon fill="midnightblue" stroke="midnightblue" points="459.74,-134.29 449.48,-131.65 455.86,-140.11 459.74,-134.29"/>
</g>
<!-- Node11 -->
<g id="node11" class="node">
<title>Node11</title>
<g id="a_node11"><a xlink:href="_o_m_sim_command_args_table_8hh.html" target="_top" xlink:title="Definition of the OMSimCommandArgsTable singleton class, which controls user args.">
<polygon fill="white" stroke="black" points="531.5,-112.5 531.5,-131.5 695.5,-131.5 695.5,-112.5 531.5,-112.5"/>
<text text-anchor="middle" x="613.5" y="-119.5" font-family="Helvetica,sans-Serif" font-size="10.00">OMSimCommandArgsTable.hh</text>
</a>
</g>
</g>
<!-- Node1&#45;&gt;Node11 -->
<g id="edge10" class="edge">
<title>Node1&#45;&gt;Node11</title>
<path fill="none" stroke="midnightblue" d="M532.92,-168.32C548.04,-159.82 571.32,-146.73 588.97,-136.8"/>
<polygon fill="midnightblue" stroke="midnightblue" points="591.11,-139.61 598.11,-131.65 587.68,-133.51 591.11,-139.61"/>
</g>
<!-- Node17 -->
<g id="node17" class="node">
<title>Node17</title>
<g id="a_node17"><a xlink:href="_o_m_sim_event_action_8hh.html" target="_top" xlink:title=" ">
<polygon fill="white" stroke="black" points="71,-112.5 71,-131.5 196,-131.5 196,-112.5 71,-112.5"/>
<text text-anchor="middle" x="133.5" y="-119.5" font-family="Helvetica,sans-Serif" font-size="10.00">OMSimEventAction.hh</text>
</a>
</g>
</g>
<!-- Node1&#45;&gt;Node17 -->
<g id="edge17" class="edge">
<title>Node1&#45;&gt;Node17</title>
<path fill="none" stroke="midnightblue" d="M456.65,-168.44C387.98,-158.79 276.43,-143.1 204.01,-132.92"/>
<polygon fill="midnightblue" stroke="midnightblue" points="204.45,-129.44 194.06,-131.52 203.48,-136.37 204.45,-129.44"/>
</g>
<!-- Node20 -->
<g id="node20" class="node">
<title>Node20</title>
<g id="a_node20"><a xlink:title=" ">
<polygon fill="white" stroke="#bfbfbf" points="713.5,-112.5 713.5,-131.5 769.5,-131.5 769.5,-112.5 713.5,-112.5"/>
<text text-anchor="middle" x="741.5" y="-119.5" font-family="Helvetica,sans-Serif" font-size="10.00">numeric</text>
</a>
</g>
</g>
<!-- Node1&#45;&gt;Node20 -->
<g id="edge21" class="edge">
<title>Node1&#45;&gt;Node20</title>
<path fill="none" stroke="midnightblue" d="M553.01,-168.48C588.57,-159.95 645.14,-146.35 703.14,-132.32"/>
<polygon fill="midnightblue" stroke="midnightblue" points="704.32,-135.64 713.22,-129.89 702.68,-128.84 704.32,-135.64"/>
</g>
<!-- Node3 -->
<g id="node3" class="node">
<title>Node3</title>
<g id="a_node3"><a xlink:href="_o_m_sim_p_m_t_response_8hh.html" target="_top" xlink:title="Provides simulation for PMT response. This class is responsible for transforming hits on photocathode...">
<polygon fill="white" stroke="black" points="225,-56.5 225,-75.5 360,-75.5 360,-56.5 225,-56.5"/>
<text text-anchor="middle" x="292.5" y="-63.5" font-family="Helvetica,sans-Serif" font-size="10.00">OMSimPMTResponse.hh</text>
</a>
</g>
</g>
<!-- Node2&#45;&gt;Node3 -->
<g id="edge2" class="edge">
<title>Node2&#45;&gt;Node3</title>
<path fill="none" stroke="midnightblue" d="M413.68,-112.44C389.67,-103.44 351.67,-89.19 324.63,-79.05"/>
<polygon fill="midnightblue" stroke="midnightblue" points="325.8,-75.75 315.21,-75.52 323.34,-82.3 325.8,-75.75"/>
</g>
<!-- Node9 -->
<g id="node9" class="node">
<title>Node9</title>
<g id="a_node9"><a xlink:title=" ">
<polygon fill="white" stroke="#bfbfbf" points="378,-56.5 378,-75.5 481,-75.5 481,-56.5 378,-56.5"/>
<text text-anchor="middle" x="429.5" y="-63.5" font-family="Helvetica,sans-Serif" font-size="10.00">G4ThreeVector.hh</text>
</a>
</g>
</g>
<!-- Node2&#45;&gt;Node9 -->
<g id="edge8" class="edge">
<title>Node2&#45;&gt;Node9</title>
<path fill="none" stroke="midnightblue" d="M435.34,-112.08C434.42,-104.93 433.08,-94.64 431.92,-85.69"/>
<polygon fill="midnightblue" stroke="midnightblue" points="435.39,-85.22 430.63,-75.75 428.45,-86.12 435.39,-85.22"/>
</g>
<!-- Node10 -->
<g id="node10" class="node">
<title>Node10</title>
<g id="a_node10"><a xlink:title=" ">
<polygon fill="white" stroke="#bfbfbf" points="499,-56.5 499,-75.5 554,-75.5 554,-56.5 499,-56.5"/>
<text text-anchor="middle" x="526.5" y="-63.5" font-family="Helvetica,sans-Serif" font-size="10.00">fstream</text>
</a>
</g>
</g>
<!-- Node2&#45;&gt;Node10 -->
<g id="edge9" class="edge">
<title>Node2&#45;&gt;Node10</title>
<path fill="none" stroke="midnightblue" d="M450.96,-112.32C465,-103.9 486.55,-90.97 503.04,-81.07"/>
<polygon fill="midnightblue" stroke="midnightblue" points="505.3,-83.8 512.08,-75.65 501.7,-77.8 505.3,-83.8"/>
</g>
<!-- Node4 -->
<g id="node4" class="node">
<title>Node4</title>
<g id="a_node4"><a xlink:title=" ">
<polygon fill="white" stroke="#bfbfbf" points="102,-0.5 102,-19.5 221,-19.5 221,-0.5 102,-0.5"/>
<text text-anchor="middle" x="161.5" y="-7.5" font-family="Helvetica,sans-Serif" font-size="10.00">G4SystemOfUnits.hh</text>
</a>
</g>
</g>
<!-- Node3&#45;&gt;Node4 -->
<g id="edge3" class="edge">
<title>Node3&#45;&gt;Node4</title>
<path fill="none" stroke="midnightblue" d="M271.74,-56.44C250.18,-47.56 216.24,-33.56 191.71,-23.45"/>
<polygon fill="midnightblue" stroke="midnightblue" points="192.74,-20.09 182.16,-19.52 190.07,-26.56 192.74,-20.09"/>
</g>
<!-- Node5 -->
<g id="node5" class="node">
<title>Node5</title>
<g id="a_node5"><a xlink:title=" ">
<polygon fill="white" stroke="#bfbfbf" points="0,-0.5 0,-19.5 73,-19.5 73,-0.5 0,-0.5"/>
<text text-anchor="middle" x="36.5" y="-7.5" font-family="Helvetica,sans-Serif" font-size="10.00">G4Types.hh</text>
</a>
</g>
</g>
<!-- Node3&#45;&gt;Node5 -->
<g id="edge4" class="edge">
<title>Node3&#45;&gt;Node5</title>
<path fill="none" stroke="midnightblue" d="M251.94,-56.44C206,-46.75 131.28,-30.99 83.02,-20.81"/>
<polygon fill="midnightblue" stroke="midnightblue" points="83.65,-17.37 73.14,-18.73 82.2,-24.22 83.65,-17.37"/>
</g>
<!-- Node6 -->
<g id="node6" class="node">
<title>Node6</title>
<g id="a_node6"><a xlink:title=" ">
<polygon fill="white" stroke="#bfbfbf" points="239.5,-0.5 239.5,-19.5 277.5,-19.5 277.5,-0.5 239.5,-0.5"/>
<text text-anchor="middle" x="258.5" y="-7.5" font-family="Helvetica,sans-Serif" font-size="10.00">map</text>
</a>
</g>
</g>
<!-- Node3&#45;&gt;Node6 -->
<g id="edge5" class="edge">
<title>Node3&#45;&gt;Node6</title>
<path fill="none" stroke="midnightblue" d="M286.89,-56.08C282.13,-48.53 275.18,-37.49 269.35,-28.23"/>
<polygon fill="midnightblue" stroke="midnightblue" points="272.3,-26.35 264.01,-19.75 266.38,-30.08 272.3,-26.35"/>
</g>
<!-- Node7 -->
<g id="node7" class="node">
<title>Node7</title>
<g id="a_node7"><a xlink:title=" ">
<polygon fill="white" stroke="#bfbfbf" points="296,-0.5 296,-19.5 357,-19.5 357,-0.5 296,-0.5"/>
<text text-anchor="middle" x="326.5" y="-7.5" font-family="Helvetica,sans-Serif" font-size="10.00">TGraph.h</text>
</a>
</g>
</g>
<!-- Node3&#45;&gt;Node7 -->
<g id="edge6" class="edge">
<title>Node3&#45;&gt;Node7</title>
<path fill="none" stroke="midnightblue" d="M298.11,-56.08C302.87,-48.53 309.82,-37.49 315.65,-28.23"/>
<polygon fill="midnightblue" stroke="midnightblue" points="318.62,-30.08 320.99,-19.75 312.7,-26.35 318.62,-30.08"/>
</g>
<!-- Node8 -->
<g id="node8" class="node">
<title>Node8</title>
<g id="a_node8"><a xlink:title=" ">
<polygon fill="white" stroke="#bfbfbf" points="375,-0.5 375,-19.5 428,-19.5 428,-0.5 375,-0.5"/>
<text text-anchor="middle" x="401.5" y="-7.5" font-family="Helvetica,sans-Serif" font-size="10.00">TH2D.h</text>
</a>
</g>
</g>
<!-- Node3&#45;&gt;Node8 -->
<g id="edge7" class="edge">
<title>Node3&#45;&gt;Node8</title>
<path fill="none" stroke="midnightblue" d="M310.01,-56.32C327.57,-47.62 354.83,-34.12 375.03,-24.11"/>
<polygon fill="midnightblue" stroke="midnightblue" points="376.62,-27.23 384.03,-19.65 373.52,-20.96 376.62,-27.23"/>
</g>
<!-- Node11&#45;&gt;Node10 -->
<g id="edge14" class="edge">
<title>Node11&#45;&gt;Node10</title>
<path fill="none" stroke="midnightblue" d="M599.52,-112.32C585.95,-103.9 565.12,-90.97 549.18,-81.07"/>
<polygon fill="midnightblue" stroke="midnightblue" points="550.79,-77.95 540.44,-75.65 547.09,-83.9 550.79,-77.95"/>
</g>
<!-- Node12 -->
<g id="node12" class="node">
<title>Node12</title>
<g id="a_node12"><a xlink:href="_o_m_sim_logger_8hh.html" target="_top" xlink:title=" ">
<polygon fill="white" stroke="black" points="572,-56.5 572,-75.5 671,-75.5 671,-56.5 572,-56.5"/>
<text text-anchor="middle" x="621.5" y="-63.5" font-family="Helvetica,sans-Serif" font-size="10.00">OMSimLogger.hh</text>
</a>
</g>
</g>
<!-- Node11&#45;&gt;Node12 -->
<g id="edge11" class="edge">
<title>Node11&#45;&gt;Node12</title>
<path fill="none" stroke="midnightblue" d="M614.82,-112.08C615.88,-104.93 617.41,-94.64 618.73,-85.69"/>
<polygon fill="midnightblue" stroke="midnightblue" points="622.2,-86.16 620.2,-75.75 615.28,-85.13 622.2,-86.16"/>
</g>
<!-- Node15 -->
<g id="node15" class="node">
<title>Node15</title>
<g id="a_node15"><a xlink:title=" ">
<polygon fill="white" stroke="#bfbfbf" points="689.5,-56.5 689.5,-75.5 773.5,-75.5 773.5,-56.5 689.5,-56.5"/>
<text text-anchor="middle" x="731.5" y="-63.5" font-family="Helvetica,sans-Serif" font-size="10.00">boost/any.hpp</text>
</a>
</g>
</g>
<!-- Node11&#45;&gt;Node15 -->
<g id="edge15" class="edge">
<title>Node11&#45;&gt;Node15</title>
<path fill="none" stroke="midnightblue" d="M632.2,-112.44C651.44,-103.64 681.65,-89.81 703.7,-79.72"/>
<polygon fill="midnightblue" stroke="midnightblue" points="705.25,-82.86 712.89,-75.52 702.34,-76.5 705.25,-82.86"/>
</g>
<!-- Node16 -->
<g id="node16" class="node">
<title>Node16</title>
<g id="a_node16"><a xlink:title=" ">
<polygon fill="white" stroke="#bfbfbf" points="791.5,-56.5 791.5,-75.5 859.5,-75.5 859.5,-56.5 791.5,-56.5"/>
<text text-anchor="middle" x="825.5" y="-63.5" font-family="Helvetica,sans-Serif" font-size="10.00">sys/time.h</text>
</a>
</g>
</g>
<!-- Node11&#45;&gt;Node16 -->
<g id="edge16" class="edge">
<title>Node11&#45;&gt;Node16</title>
<path fill="none" stroke="midnightblue" d="M647.09,-112.44C683.69,-103.12 742.34,-88.18 782.33,-78"/>
<polygon fill="midnightblue" stroke="midnightblue" points="783.24,-81.38 792.07,-75.52 781.51,-74.59 783.24,-81.38"/>
</g>
<!-- Node13 -->
<g id="node13" class="node">
<title>Node13</title>
<g id="a_node13"><a xlink:title=" ">
<polygon fill="white" stroke="#bfbfbf" points="562.5,-0.5 562.5,-19.5 612.5,-19.5 612.5,-0.5 562.5,-0.5"/>
<text text-anchor="middle" x="587.5" y="-7.5" font-family="Helvetica,sans-Serif" font-size="10.00">stdio.h</text>
</a>
</g>
</g>
<!-- Node12&#45;&gt;Node13 -->
<g id="edge12" class="edge">
<title>Node12&#45;&gt;Node13</title>
<path fill="none" stroke="midnightblue" d="M615.89,-56.08C611.13,-48.53 604.18,-37.49 598.35,-28.23"/>
<polygon fill="midnightblue" stroke="midnightblue" points="601.3,-26.35 593.01,-19.75 595.38,-30.08 601.3,-26.35"/>
</g>
<!-- Node14 -->
<g id="node14" class="node">
<title>Node14</title>
<g id="a_node14"><a xlink:title=" ">
<polygon fill="white" stroke="#bfbfbf" points="630.5,-0.5 630.5,-19.5 678.5,-19.5 678.5,-0.5 630.5,-0.5"/>
<text text-anchor="middle" x="654.5" y="-7.5" font-family="Helvetica,sans-Serif" font-size="10.00">time.h</text>
</a>
</g>
</g>
<!-- Node12&#45;&gt;Node14 -->
<g id="edge13" class="edge">
<title>Node12&#45;&gt;Node14</title>
<path fill="none" stroke="midnightblue" d="M626.95,-56.08C631.51,-48.61 638.17,-37.72 643.79,-28.52"/>
<polygon fill="midnightblue" stroke="midnightblue" points="646.92,-30.11 649.15,-19.75 640.95,-26.46 646.92,-30.11"/>
</g>
<!-- Node17&#45;&gt;Node5 -->
<g id="edge20" class="edge">
<title>Node17&#45;&gt;Node5</title>
<path fill="none" stroke="midnightblue" d="M71,-113.49C47.76,-107.32 23.63,-96.16 9.5,-76 -1.07,-60.92 10.16,-41.06 21.19,-27.29"/>
<polygon fill="midnightblue" stroke="midnightblue" points="23.95,-29.45 27.84,-19.59 18.65,-24.87 23.95,-29.45"/>
</g>
<!-- Node18 -->
<g id="node18" class="node">
<title>Node18</title>
<g id="a_node18"><a xlink:title=" ">
<polygon fill="white" stroke="#bfbfbf" points="18.5,-56.5 18.5,-75.5 144.5,-75.5 144.5,-56.5 18.5,-56.5"/>
<text text-anchor="middle" x="81.5" y="-63.5" font-family="Helvetica,sans-Serif" font-size="10.00">G4UserEventAction.hh</text>
</a>
</g>
</g>
<!-- Node17&#45;&gt;Node18 -->
<g id="edge18" class="edge">
<title>Node17&#45;&gt;Node18</title>
<path fill="none" stroke="midnightblue" d="M124.91,-112.08C117.34,-104.22 106.12,-92.57 96.99,-83.08"/>
<polygon fill="midnightblue" stroke="midnightblue" points="99.38,-80.53 89.93,-75.75 94.34,-85.38 99.38,-80.53"/>
</g>
<!-- Node19 -->
<g id="node19" class="node">
<title>Node19</title>
<g id="a_node19"><a xlink:title=" ">
<polygon fill="white" stroke="#bfbfbf" points="162.5,-56.5 162.5,-75.5 206.5,-75.5 206.5,-56.5 162.5,-56.5"/>
<text text-anchor="middle" x="184.5" y="-63.5" font-family="Helvetica,sans-Serif" font-size="10.00">string</text>
</a>
</g>
</g>
<!-- Node17&#45;&gt;Node19 -->
<g id="edge19" class="edge">
<title>Node17&#45;&gt;Node19</title>
<path fill="none" stroke="midnightblue" d="M141.92,-112.08C149.35,-104.22 160.35,-92.57 169.31,-83.08"/>
<polygon fill="midnightblue" stroke="midnightblue" points="171.91,-85.42 176.24,-75.75 166.82,-80.62 171.91,-85.42"/>
</g>
</g>
</svg>
