<?xml version="1.0" encoding="UTF-8" standalone="no"?>
<!DOCTYPE svg PUBLIC "-//W3C//DTD SVG 1.1//EN"
 "http://www.w3.org/Graphics/SVG/1.1/DTD/svg11.dtd">
<!-- Generated by graphviz version 2.43.0 (0)
 -->
<!-- Title: /home/runner/work/OMSim/OMSim/common/include/OMSimDataFileTypes.hh Pages: 1 -->
<svg width="780pt" height="117pt"
 viewBox="0.00 0.00 780.00 117.00" xmlns="http://www.w3.org/2000/svg" xmlns:xlink="http://www.w3.org/1999/xlink">
<g id="graph0" class="graph" transform="scale(1 1) rotate(0) translate(4 113)">
<title>/home/runner/work/OMSim/OMSim/common/include/OMSimDataFileTypes.hh</title>
<polygon fill="white" stroke="transparent" points="-4,4 -4,-113 776,-113 776,4 -4,4"/>
<!-- Node1 -->
<g id="node1" class="node">
<title>Node1</title>
<g id="a_node1"><a xlink:title=" ">
<polygon fill="#bfbfbf" stroke="black" points="289,-67.5 289,-108.5 436,-108.5 436,-67.5 289,-67.5"/>
<text text-anchor="start" x="297" y="-96.5" font-family="Helvetica,sans-Serif" font-size="10.00">/home/runner/work/OMSim</text>
<text text-anchor="start" x="297" y="-85.5" font-family="Helvetica,sans-Serif" font-size="10.00">/OMSim/common/include</text>
<text text-anchor="middle" x="362.5" y="-74.5" font-family="Helvetica,sans-Serif" font-size="10.00">/OMSimDataFileTypes.hh</text>
</a>
</g>
</g>
<!-- Node2 -->
<g id="node2" class="node">
<title>Node2</title>
<g id="a_node2"><a xlink:title=" ">
<polygon fill="white" stroke="#bfbfbf" points="0,-0.5 0,-30.5 113,-30.5 113,-0.5 0,-0.5"/>
<text text-anchor="start" x="8" y="-18.5" font-family="Helvetica,sans-Serif" font-size="10.00">boost/property_tree</text>
<text text-anchor="middle" x="56.5" y="-7.5" font-family="Helvetica,sans-Serif" font-size="10.00">/ptree.hpp</text>
</a>
</g>
</g>
<!-- Node1&#45;&gt;Node2 -->
<g id="edge1" class="edge">
<title>Node1&#45;&gt;Node2</title>
<path fill="none" stroke="midnightblue" d="M288.82,-70.02C238.35,-58.4 171.98,-43.11 123.11,-31.85"/>
<polygon fill="midnightblue" stroke="midnightblue" points="123.8,-28.41 113.27,-29.58 122.22,-35.23 123.8,-28.41"/>
</g>
<!-- Node3 -->
<g id="node3" class="node">
<title>Node3</title>
<g id="a_node3"><a xlink:title=" ">
<polygon fill="white" stroke="#bfbfbf" points="131,-0.5 131,-30.5 244,-30.5 244,-0.5 131,-0.5"/>
<text text-anchor="start" x="139" y="-18.5" font-family="Helvetica,sans-Serif" font-size="10.00">boost/property_tree</text>
<text text-anchor="middle" x="187.5" y="-7.5" font-family="Helvetica,sans-Serif" font-size="10.00">/json_parser.hpp</text>
</a>
</g>
</g>
<!-- Node1&#45;&gt;Node3 -->
<g id="edge2" class="edge">
<title>Node1&#45;&gt;Node3</title>
<path fill="none" stroke="midnightblue" d="M313.75,-67.36C288.13,-57.04 256.95,-44.48 231.98,-34.42"/>
<polygon fill="midnightblue" stroke="midnightblue" points="232.98,-31.05 222.4,-30.56 230.37,-37.54 232.98,-31.05"/>
</g>
<!-- Node4 -->
<g id="node4" class="node">
<title>Node4</title>
<g id="a_node4"><a xlink:title=" ">
<polygon fill="white" stroke="#bfbfbf" points="262.5,-6 262.5,-25 348.5,-25 348.5,-6 262.5,-6"/>
<text text-anchor="middle" x="305.5" y="-13" font-family="Helvetica,sans-Serif" font-size="10.00">G4Material.hh</text>
</a>
</g>
</g>
<!-- Node1&#45;&gt;Node4 -->
<g id="edge3" class="edge">
<title>Node1&#45;&gt;Node4</title>
<path fill="none" stroke="midnightblue" d="M346.62,-67.36C337.87,-56.54 327.13,-43.26 318.82,-32.98"/>
<polygon fill="midnightblue" stroke="midnightblue" points="321.52,-30.75 312.51,-25.17 316.08,-35.15 321.52,-30.75"/>
</g>
<!-- Node5 -->
<g id="node5" class="node">
<title>Node5</title>
<g id="a_node5"><a xlink:title=" ">
<polygon fill="white" stroke="#bfbfbf" points="367,-6 367,-25 474,-25 474,-6 367,-6"/>
<text text-anchor="middle" x="420.5" y="-13" font-family="Helvetica,sans-Serif" font-size="10.00">G4NistManager.hh</text>
</a>
</g>
</g>
<!-- Node1&#45;&gt;Node5 -->
<g id="edge4" class="edge">
<title>Node1&#45;&gt;Node5</title>
<path fill="none" stroke="midnightblue" d="M378.66,-67.36C387.56,-56.54 398.49,-43.26 406.94,-32.98"/>
<polygon fill="midnightblue" stroke="midnightblue" points="409.71,-35.12 413.36,-25.17 404.31,-30.67 409.71,-35.12"/>
</g>
<!-- Node6 -->
<g id="node6" class="node">
<title>Node6</title>
<g id="a_node6"><a xlink:title=" ">
<polygon fill="white" stroke="#bfbfbf" points="492,-6 492,-25 635,-25 635,-6 492,-6"/>
<text text-anchor="middle" x="563.5" y="-13" font-family="Helvetica,sans-Serif" font-size="10.00">G4OpBoundaryProcess.hh</text>
</a>
</g>
</g>
<!-- Node1&#45;&gt;Node6 -->
<g id="edge5" class="edge">
<title>Node1&#45;&gt;Node6</title>
<path fill="none" stroke="midnightblue" d="M418.22,-67.46C453.92,-54.93 499.09,-39.09 529.51,-28.42"/>
<polygon fill="midnightblue" stroke="midnightblue" points="530.95,-31.63 539.23,-25.01 528.63,-25.02 530.95,-31.63"/>
</g>
<!-- Node7 -->
<g id="node7" class="node">
<title>Node7</title>
<g id="a_node7"><a xlink:title=" ">
<polygon fill="white" stroke="#bfbfbf" points="653,-6 653,-25 772,-25 772,-6 653,-6"/>
<text text-anchor="middle" x="712.5" y="-13" font-family="Helvetica,sans-Serif" font-size="10.00">G4SystemOfUnits.hh</text>
</a>
</g>
</g>
<!-- Node1&#45;&gt;Node7 -->
<g id="edge6" class="edge">
<title>Node1&#45;&gt;Node7</title>
<path fill="none" stroke="midnightblue" d="M436.18,-72.66C493.11,-61.51 573.86,-45.55 644.5,-31 650.41,-29.78 656.6,-28.49 662.74,-27.19"/>
<polygon fill="midnightblue" stroke="midnightblue" points="663.91,-30.52 672.97,-25.03 662.46,-23.68 663.91,-30.52"/>
</g>
</g>
</svg>
