<?xml version="1.0" encoding="UTF-8" standalone="no"?>
<!DOCTYPE svg PUBLIC "-//W3C//DTD SVG 1.1//EN"
 "http://www.w3.org/Graphics/SVG/1.1/DTD/svg11.dtd">
<!-- Generated by graphviz version 2.43.0 (0)
 -->
<!-- Title: OMSimLogger.hh Pages: 1 -->
<svg width="2933pt" height="252pt"
 viewBox="0.00 0.00 2933.02 252.00" xmlns="http://www.w3.org/2000/svg" xmlns:xlink="http://www.w3.org/1999/xlink">
<g id="graph0" class="graph" transform="scale(1 1) rotate(0) translate(4 248)">
<title>OMSimLogger.hh</title>
<polygon fill="white" stroke="transparent" points="-4,4 -4,-248 2929.02,-248 2929.02,4 -4,4"/>
<!-- Node1 -->
<g id="node1" class="node">
<title>Node1</title>
<g id="a_node1"><a xlink:title=" ">
<polygon fill="#bfbfbf" stroke="black" points="1417.02,-224.5 1417.02,-243.5 1516.02,-243.5 1516.02,-224.5 1417.02,-224.5"/>
<text text-anchor="middle" x="1466.52" y="-231.5" font-family="Helvetica,sans-Serif" font-size="10.00">OMSimLogger.hh</text>
</a>
</g>
</g>
<!-- Node2 -->
<g id="node2" class="node">
<title>Node2</title>
<g id="a_node2"><a xlink:href="_o_m_sim_command_args_table_8hh.html" target="_top" xlink:title="Definition of the OMSimCommandArgsTable singleton class, which controls user args.">
<polygon fill="white" stroke="black" points="1211.52,-168.5 1211.52,-187.5 1375.52,-187.5 1375.52,-168.5 1211.52,-168.5"/>
<text text-anchor="middle" x="1293.52" y="-175.5" font-family="Helvetica,sans-Serif" font-size="10.00">OMSimCommandArgsTable.hh</text>
</a>
</g>
</g>
<!-- Node1&#45;&gt;Node2 -->
<g id="edge1" class="edge">
<title>Node1&#45;&gt;Node2</title>
<path fill="none" stroke="midnightblue" d="M1429.47,-221.44C1396.86,-211.26 1350.11,-196.66 1320.81,-187.52"/>
<polygon fill="midnightblue" stroke="midnightblue" points="1428.52,-224.8 1439.11,-224.44 1430.61,-218.12 1428.52,-224.8"/>
</g>
<!-- Node4 -->
<g id="node4" class="node">
<title>Node4</title>
<g id="a_node4"><a xlink:href="_o_m_sim_data_file_types_8cc.html" target="_top" xlink:title=" ">
<polygon fill="white" stroke="black" points="695.52,-56.5 695.52,-75.5 829.52,-75.5 829.52,-56.5 695.52,-56.5"/>
<text text-anchor="middle" x="762.52" y="-63.5" font-family="Helvetica,sans-Serif" font-size="10.00">OMSimDataFileTypes.cc</text>
</a>
</g>
</g>
<!-- Node1&#45;&gt;Node4 -->
<g id="edge33" class="edge">
<title>Node1&#45;&gt;Node4</title>
<path fill="none" stroke="midnightblue" d="M1406.39,-231.18C1136.94,-222.71 51.77,-185.37 4.52,-132 -1.37,-125.34 -1.58,-118.47 4.52,-112 28.04,-87.04 514.32,-72.92 695.37,-68.51"/>
<polygon fill="midnightblue" stroke="midnightblue" points="1406.64,-234.68 1416.74,-231.5 1406.86,-227.69 1406.64,-234.68"/>
</g>
<!-- Node17 -->
<g id="node17" class="node">
<title>Node17</title>
<g id="a_node17"><a xlink:href="_o_m_sim_p_m_t_response_8cc.html" target="_top" xlink:title=" ">
<polygon fill="white" stroke="black" points="13.52,-112.5 13.52,-131.5 147.52,-131.5 147.52,-112.5 13.52,-112.5"/>
<text text-anchor="middle" x="80.52" y="-119.5" font-family="Helvetica,sans-Serif" font-size="10.00">OMSimPMTResponse.cc</text>
</a>
</g>
</g>
<!-- Node1&#45;&gt;Node17 -->
<g id="edge34" class="edge">
<title>Node1&#45;&gt;Node17</title>
<path fill="none" stroke="midnightblue" d="M1406.57,-230.64C1274.29,-225.2 947.48,-210.49 674.52,-188 443.74,-168.98 386.61,-158.06 156.52,-132 153.62,-131.67 150.65,-131.33 147.65,-130.99"/>
<polygon fill="midnightblue" stroke="midnightblue" points="1406.75,-234.15 1416.88,-231.06 1407.03,-227.15 1406.75,-234.15"/>
</g>
<!-- Node19 -->
<g id="node19" class="node">
<title>Node19</title>
<g id="a_node19"><a xlink:href="_o_m_sim_m_d_o_m_8cc.html" target="_top" xlink:title=" ">
<polygon fill="white" stroke="black" points="165.52,-112.5 165.52,-131.5 263.52,-131.5 263.52,-112.5 165.52,-112.5"/>
<text text-anchor="middle" x="214.52" y="-119.5" font-family="Helvetica,sans-Serif" font-size="10.00">OMSimMDOM.cc</text>
</a>
</g>
</g>
<!-- Node1&#45;&gt;Node19 -->
<g id="edge38" class="edge">
<title>Node1&#45;&gt;Node19</title>
<path fill="none" stroke="midnightblue" d="M1406.67,-228.47C1197.12,-212.51 497.19,-158.5 273.52,-132 270.33,-131.62 267.05,-131.2 263.74,-130.76"/>
<polygon fill="midnightblue" stroke="midnightblue" points="1406.62,-231.97 1416.86,-229.24 1407.15,-224.99 1406.62,-231.97"/>
</g>
<!-- Node32 -->
<g id="node32" class="node">
<title>Node32</title>
<g id="a_node32"><a xlink:href="abc_detector_component_8cc.html" target="_top" xlink:title=" ">
<polygon fill="white" stroke="black" points="1393.52,-168.5 1393.52,-187.5 1539.52,-187.5 1539.52,-168.5 1393.52,-168.5"/>
<text text-anchor="middle" x="1466.52" y="-175.5" font-family="Helvetica,sans-Serif" font-size="10.00">abcDetectorComponent.cc</text>
</a>
</g>
</g>
<!-- Node1&#45;&gt;Node32 -->
<g id="edge32" class="edge">
<title>Node1&#45;&gt;Node32</title>
<path fill="none" stroke="midnightblue" d="M1466.52,-213.8C1466.52,-204.91 1466.52,-194.78 1466.52,-187.75"/>
<polygon fill="midnightblue" stroke="midnightblue" points="1463.02,-214.08 1466.52,-224.08 1470.02,-214.08 1463.02,-214.08"/>
</g>
<!-- Node33 -->
<g id="node33" class="node">
<title>Node33</title>
<g id="a_node33"><a xlink:href="_o_m_sim_d_e_g_g_8cc.html" target="_top" xlink:title=" ">
<polygon fill="white" stroke="black" points="1557.52,-168.5 1557.52,-187.5 1651.52,-187.5 1651.52,-168.5 1557.52,-168.5"/>
<text text-anchor="middle" x="1604.52" y="-175.5" font-family="Helvetica,sans-Serif" font-size="10.00">OMSimDEGG.cc</text>
</a>
</g>
</g>
<!-- Node1&#45;&gt;Node33 -->
<g id="edge35" class="edge">
<title>Node1&#45;&gt;Node33</title>
<path fill="none" stroke="midnightblue" d="M1497.77,-220.77C1523.69,-210.63 1559.88,-196.47 1582.76,-187.52"/>
<polygon fill="midnightblue" stroke="midnightblue" points="1496.42,-217.54 1488.39,-224.44 1498.98,-224.06 1496.42,-217.54"/>
</g>
<!-- Node34 -->
<g id="node34" class="node">
<title>Node34</title>
<g id="a_node34"><a xlink:href="_o_m_sim_l_o_m16_8cc.html" target="_top" xlink:title=" ">
<polygon fill="white" stroke="black" points="1670.02,-168.5 1670.02,-187.5 1769.02,-187.5 1769.02,-168.5 1670.02,-168.5"/>
<text text-anchor="middle" x="1719.52" y="-175.5" font-family="Helvetica,sans-Serif" font-size="10.00">OMSimLOM16.cc</text>
</a>
</g>
</g>
<!-- Node1&#45;&gt;Node34 -->
<g id="edge36" class="edge">
<title>Node1&#45;&gt;Node34</title>
<path fill="none" stroke="midnightblue" d="M1516.44,-222.35C1564.25,-212.14 1635.47,-196.94 1679.62,-187.52"/>
<polygon fill="midnightblue" stroke="midnightblue" points="1515.66,-218.93 1506.61,-224.44 1517.12,-225.78 1515.66,-218.93"/>
</g>
<!-- Node35 -->
<g id="node35" class="node">
<title>Node35</title>
<g id="a_node35"><a xlink:href="_o_m_sim_l_o_m18_8cc.html" target="_top" xlink:title=" ">
<polygon fill="white" stroke="black" points="1787.02,-168.5 1787.02,-187.5 1886.02,-187.5 1886.02,-168.5 1787.02,-168.5"/>
<text text-anchor="middle" x="1836.52" y="-175.5" font-family="Helvetica,sans-Serif" font-size="10.00">OMSimLOM18.cc</text>
</a>
</g>
</g>
<!-- Node1&#45;&gt;Node35 -->
<g id="edge37" class="edge">
<title>Node1&#45;&gt;Node35</title>
<path fill="none" stroke="midnightblue" d="M1526.38,-224.56C1589.21,-215.66 1690.85,-201.12 1778.52,-188 1781.24,-187.59 1784.03,-187.17 1786.85,-186.74"/>
<polygon fill="midnightblue" stroke="midnightblue" points="1525.67,-221.13 1516.26,-225.99 1526.65,-228.06 1525.67,-221.13"/>
</g>
<!-- Node36 -->
<g id="node36" class="node">
<title>Node36</title>
<g id="a_node36"><a xlink:href="_o_m_sim_p_d_o_m_8cc.html" target="_top" xlink:title=" ">
<polygon fill="white" stroke="black" points="1904.02,-168.5 1904.02,-187.5 1999.02,-187.5 1999.02,-168.5 1904.02,-168.5"/>
<text text-anchor="middle" x="1951.52" y="-175.5" font-family="Helvetica,sans-Serif" font-size="10.00">OMSimPDOM.cc</text>
</a>
</g>
</g>
<!-- Node1&#45;&gt;Node36 -->
<g id="edge39" class="edge">
<title>Node1&#45;&gt;Node36</title>
<path fill="none" stroke="midnightblue" d="M1526.17,-227.78C1609.15,-220.29 1764.04,-205.45 1895.52,-188 1898.25,-187.64 1901.06,-187.25 1903.89,-186.84"/>
<polygon fill="midnightblue" stroke="midnightblue" points="1525.82,-224.3 1516.17,-228.68 1526.44,-231.27 1525.82,-224.3"/>
</g>
<!-- Node3 -->
<g id="node3" class="node">
<title>Node3</title>
<g id="a_node3"><a xlink:href="_o_m_sim_data_file_types_8hh.html" target="_top" xlink:title="Collection of classes and methods to handle material creation from user data in json files.">
<polygon fill="white" stroke="black" points="1614.02,-112.5 1614.02,-131.5 1749.02,-131.5 1749.02,-112.5 1614.02,-112.5"/>
<text text-anchor="middle" x="1681.52" y="-119.5" font-family="Helvetica,sans-Serif" font-size="10.00">OMSimDataFileTypes.hh</text>
</a>
</g>
</g>
<!-- Node2&#45;&gt;Node3 -->
<g id="edge2" class="edge">
<title>Node2&#45;&gt;Node3</title>
<path fill="none" stroke="midnightblue" d="M1365.07,-167.04C1438.35,-156.84 1551.06,-141.16 1620.33,-131.52"/>
<polygon fill="midnightblue" stroke="midnightblue" points="1364.42,-163.6 1355,-168.44 1365.39,-170.53 1364.42,-163.6"/>
</g>
<!-- Node5 -->
<g id="node5" class="node">
<title>Node5</title>
<g id="a_node5"><a xlink:href="_o_m_sim_input_data_8cc.html" target="_top" xlink:title=" ">
<polygon fill="white" stroke="black" points="1577.02,-56.5 1577.02,-75.5 1690.02,-75.5 1690.02,-56.5 1577.02,-56.5"/>
<text text-anchor="middle" x="1633.52" y="-63.5" font-family="Helvetica,sans-Serif" font-size="10.00">OMSimInputData.cc</text>
</a>
</g>
</g>
<!-- Node2&#45;&gt;Node5 -->
<g id="edge15" class="edge">
<title>Node2&#45;&gt;Node5</title>
<path fill="none" stroke="midnightblue" d="M1385.85,-168.1C1457.41,-163.75 1731.93,-161.27 1758.52,-132 1784.67,-103.21 1730.12,-85.11 1685.02,-75.53"/>
<polygon fill="midnightblue" stroke="midnightblue" points="1385.57,-164.61 1375.86,-168.85 1386.09,-171.59 1385.57,-164.61"/>
</g>
<!-- Node6 -->
<g id="node6" class="node">
<title>Node6</title>
<g id="a_node6"><a xlink:href="_o_m_sim_u_iinterface_8hh.html" target="_top" xlink:title="The OMSimUIinterface class provides a singleton interface to Geant4&#39;s UI manager.">
<polygon fill="white" stroke="black" points="1806.02,-112.5 1806.02,-131.5 1927.02,-131.5 1927.02,-112.5 1806.02,-112.5"/>
<text text-anchor="middle" x="1866.52" y="-119.5" font-family="Helvetica,sans-Serif" font-size="10.00">OMSimUIinterface.hh</text>
</a>
</g>
</g>
<!-- Node2&#45;&gt;Node6 -->
<g id="edge5" class="edge">
<title>Node2&#45;&gt;Node6</title>
<path fill="none" stroke="midnightblue" d="M1385.99,-167.87C1567.02,-151.05 1614.17,-150.48 1791.52,-132 1796.22,-131.51 1801.08,-130.98 1805.96,-130.43"/>
<polygon fill="midnightblue" stroke="midnightblue" points="1385.49,-164.4 1375.86,-168.82 1386.14,-171.37 1385.49,-164.4"/>
</g>
<!-- Node15 -->
<g id="node15" class="node">
<title>Node15</title>
<g id="a_node15"><a xlink:href="_o_m_sim_hit_manager_8cc.html" target="_top" xlink:title=" ">
<polygon fill="white" stroke="black" points="1945.52,-112.5 1945.52,-131.5 2067.52,-131.5 2067.52,-112.5 1945.52,-112.5"/>
<text text-anchor="middle" x="2006.52" y="-119.5" font-family="Helvetica,sans-Serif" font-size="10.00">OMSimHitManager.cc</text>
</a>
</g>
</g>
<!-- Node2&#45;&gt;Node15 -->
<g id="edge14" class="edge">
<title>Node2&#45;&gt;Node15</title>
<path fill="none" stroke="midnightblue" d="M1386.15,-167.89C1631.29,-148.11 1695.16,-155.36 1936.52,-132 1939.45,-131.72 1942.44,-131.41 1945.46,-131.08"/>
<polygon fill="midnightblue" stroke="midnightblue" points="1385.53,-164.43 1375.85,-168.73 1386.1,-171.41 1385.53,-164.43"/>
</g>
<!-- Node16 -->
<g id="node16" class="node">
<title>Node16</title>
<g id="a_node16"><a xlink:href="_o_m_sim_p_m_t_construction_8cc.html" target="_top" xlink:title=" ">
<polygon fill="white" stroke="black" points="2086.02,-112.5 2086.02,-131.5 2233.02,-131.5 2233.02,-112.5 2086.02,-112.5"/>
<text text-anchor="middle" x="2159.52" y="-119.5" font-family="Helvetica,sans-Serif" font-size="10.00">OMSimPMTConstruction.cc</text>
</a>
</g>
</g>
<!-- Node2&#45;&gt;Node16 -->
<g id="edge16" class="edge">
<title>Node2&#45;&gt;Node16</title>
<path fill="none" stroke="midnightblue" d="M1385.94,-167.93C1693.32,-145.09 1772.83,-156.35 2076.52,-132 2079.56,-131.76 2082.65,-131.49 2085.78,-131.21"/>
<polygon fill="midnightblue" stroke="midnightblue" points="1385.56,-164.45 1375.85,-168.68 1386.08,-171.43 1385.56,-164.45"/>
</g>
<!-- Node2&#45;&gt;Node17 -->
<g id="edge17" class="edge">
<title>Node2&#45;&gt;Node17</title>
<path fill="none" stroke="midnightblue" d="M1201.21,-175.79C1007.39,-172.73 543.96,-162.56 156.52,-132 153.61,-131.77 150.63,-131.51 147.63,-131.24"/>
<polygon fill="midnightblue" stroke="midnightblue" points="1201.3,-179.3 1211.35,-175.95 1201.4,-172.3 1201.3,-179.3"/>
</g>
<!-- Node18 -->
<g id="node18" class="node">
<title>Node18</title>
<g id="a_node18"><a xlink:href="_o_m_sim_tracking_action_8cc.html" target="_top" xlink:title=" ">
<polygon fill="white" stroke="black" points="2251.02,-112.5 2251.02,-131.5 2388.02,-131.5 2388.02,-112.5 2251.02,-112.5"/>
<text text-anchor="middle" x="2319.52" y="-119.5" font-family="Helvetica,sans-Serif" font-size="10.00">OMSimTrackingAction.cc</text>
</a>
</g>
</g>
<!-- Node2&#45;&gt;Node18 -->
<g id="edge18" class="edge">
<title>Node2&#45;&gt;Node18</title>
<path fill="none" stroke="midnightblue" d="M1386.04,-167.94C1766.97,-141.57 1865.39,-161.91 2242.52,-132 2245.2,-131.79 2247.94,-131.55 2250.7,-131.3"/>
<polygon fill="midnightblue" stroke="midnightblue" points="1385.58,-164.46 1375.84,-168.65 1386.06,-171.44 1385.58,-164.46"/>
</g>
<!-- Node2&#45;&gt;Node19 -->
<g id="edge19" class="edge">
<title>Node2&#45;&gt;Node19</title>
<path fill="none" stroke="midnightblue" d="M1201.16,-176.24C1021.89,-174.03 614.43,-165.42 273.52,-132 270.32,-131.69 267.04,-131.32 263.73,-130.91"/>
<polygon fill="midnightblue" stroke="midnightblue" points="1201.3,-179.74 1211.34,-176.36 1201.38,-172.74 1201.3,-179.74"/>
</g>
<!-- Node20 -->
<g id="node20" class="node">
<title>Node20</title>
<g id="a_node20"><a xlink:href="_o_m_sim_m_d_o_m_harness_8cc.html" target="_top" xlink:title=" ">
<polygon fill="white" stroke="black" points="2406.52,-112.5 2406.52,-131.5 2544.52,-131.5 2544.52,-112.5 2406.52,-112.5"/>
<text text-anchor="middle" x="2475.52" y="-119.5" font-family="Helvetica,sans-Serif" font-size="10.00">OMSimMDOMHarness.cc</text>
</a>
</g>
</g>
<!-- Node2&#45;&gt;Node20 -->
<g id="edge20" class="edge">
<title>Node2&#45;&gt;Node20</title>
<path fill="none" stroke="midnightblue" d="M1385.85,-167.96C1835.71,-138.22 1951.58,-165.6 2397.52,-132 2400.38,-131.78 2403.29,-131.54 2406.23,-131.28"/>
<polygon fill="midnightblue" stroke="midnightblue" points="1385.59,-164.47 1375.84,-168.62 1386.05,-171.45 1385.59,-164.47"/>
</g>
<!-- Node21 -->
<g id="node21" class="node">
<title>Node21</title>
<g id="a_node21"><a xlink:href="effective__area_2src_2_o_m_sim_detector_construction_8cc.html" target="_top" xlink:title=" ">
<polygon fill="white" stroke="black" points="2563.02,-112.5 2563.02,-131.5 2732.02,-131.5 2732.02,-112.5 2563.02,-112.5"/>
<text text-anchor="middle" x="2647.52" y="-119.5" font-family="Helvetica,sans-Serif" font-size="10.00">OMSimDetectorConstruction.cc</text>
</a>
</g>
</g>
<!-- Node2&#45;&gt;Node21 -->
<g id="edge21" class="edge">
<title>Node2&#45;&gt;Node21</title>
<path fill="none" stroke="midnightblue" d="M1385.84,-167.96C1904.92,-134.78 2038.05,-164.58 2553.52,-132 2556.63,-131.8 2559.79,-131.59 2562.99,-131.35"/>
<polygon fill="midnightblue" stroke="midnightblue" points="1385.6,-164.47 1375.84,-168.61 1386.04,-171.46 1385.6,-164.47"/>
</g>
<!-- Node22 -->
<g id="node22" class="node">
<title>Node22</title>
<g id="a_node22"><a xlink:href="_o_m_sim_effective_area_analyisis_8cc.html" target="_top" xlink:title=" ">
<polygon fill="white" stroke="black" points="2750.02,-112.5 2750.02,-131.5 2925.02,-131.5 2925.02,-112.5 2750.02,-112.5"/>
<text text-anchor="middle" x="2837.52" y="-119.5" font-family="Helvetica,sans-Serif" font-size="10.00">OMSimEffectiveAreaAnalyisis.cc</text>
</a>
</g>
</g>
<!-- Node2&#45;&gt;Node22 -->
<g id="edge22" class="edge">
<title>Node2&#45;&gt;Node22</title>
<path fill="none" stroke="midnightblue" d="M1386.09,-167.95C1988.39,-130.71 2142.67,-167.97 2741.52,-132 2744.28,-131.83 2747.08,-131.65 2749.91,-131.46"/>
<polygon fill="midnightblue" stroke="midnightblue" points="1385.6,-164.48 1375.84,-168.59 1386.04,-171.46 1385.6,-164.48"/>
</g>
<!-- Node23 -->
<g id="node23" class="node">
<title>Node23</title>
<g id="a_node23"><a xlink:href="_o_m_sim_decays_analysis_8cc.html" target="_top" xlink:title=" ">
<polygon fill="white" stroke="black" points="282.02,-112.5 282.02,-131.5 425.02,-131.5 425.02,-112.5 282.02,-112.5"/>
<text text-anchor="middle" x="353.52" y="-119.5" font-family="Helvetica,sans-Serif" font-size="10.00">OMSimDecaysAnalysis.cc</text>
</a>
</g>
</g>
<!-- Node2&#45;&gt;Node23 -->
<g id="edge23" class="edge">
<title>Node2&#45;&gt;Node23</title>
<path fill="none" stroke="midnightblue" d="M1201.27,-173.93C1043.84,-168.3 713.25,-154.77 434.52,-132 431.42,-131.75 428.25,-131.47 425.05,-131.18"/>
<polygon fill="midnightblue" stroke="midnightblue" points="1201.27,-177.44 1211.39,-174.29 1201.52,-170.44 1201.27,-177.44"/>
</g>
<!-- Node24 -->
<g id="node24" class="node">
<title>Node24</title>
<g id="a_node24"><a xlink:href="radioactive__decays_2src_2_o_m_sim_detector_construction_8cc.html" target="_top" xlink:title=" ">
<polygon fill="white" stroke="black" points="443.02,-112.5 443.02,-131.5 612.02,-131.5 612.02,-112.5 443.02,-112.5"/>
<text text-anchor="middle" x="527.52" y="-119.5" font-family="Helvetica,sans-Serif" font-size="10.00">OMSimDetectorConstruction.cc</text>
</a>
</g>
</g>
<!-- Node2&#45;&gt;Node24 -->
<g id="edge24" class="edge">
<title>Node2&#45;&gt;Node24</title>
<path fill="none" stroke="midnightblue" d="M1201.07,-171.69C1071.29,-164.04 827.76,-148.95 620.52,-132 617.77,-131.78 614.98,-131.54 612.16,-131.3"/>
<polygon fill="midnightblue" stroke="midnightblue" points="1201.17,-175.2 1211.36,-172.3 1201.58,-168.21 1201.17,-175.2"/>
</g>
<!-- Node25 -->
<g id="node25" class="node">
<title>Node25</title>
<g id="a_node25"><a xlink:href="radioactive__decays_2src_2_o_m_sim_event_action_8cc.html" target="_top" xlink:title=" ">
<polygon fill="white" stroke="black" points="629.52,-112.5 629.52,-131.5 753.52,-131.5 753.52,-112.5 629.52,-112.5"/>
<text text-anchor="middle" x="691.52" y="-119.5" font-family="Helvetica,sans-Serif" font-size="10.00">OMSimEventAction.cc</text>
</a>
</g>
</g>
<!-- Node2&#45;&gt;Node25 -->
<g id="edge25" class="edge">
<title>Node2&#45;&gt;Node25</title>
<path fill="none" stroke="midnightblue" d="M1201.07,-170.34C1095.04,-162.42 916.05,-148.23 762.52,-132 759.68,-131.7 756.77,-131.38 753.84,-131.05"/>
<polygon fill="midnightblue" stroke="midnightblue" points="1200.87,-173.83 1211.1,-171.08 1201.38,-166.85 1200.87,-173.83"/>
</g>
<!-- Node26 -->
<g id="node26" class="node">
<title>Node26</title>
<g id="a_node26"><a xlink:href="_o_m_sim_g4_radioactive_decay_8cc.html" target="_top" xlink:title=" ">
<polygon fill="white" stroke="black" points="771.52,-112.5 771.52,-131.5 937.52,-131.5 937.52,-112.5 771.52,-112.5"/>
<text text-anchor="middle" x="854.52" y="-119.5" font-family="Helvetica,sans-Serif" font-size="10.00">OMSimG4RadioactiveDecay.cc</text>
</a>
</g>
</g>
<!-- Node2&#45;&gt;Node26 -->
<g id="edge26" class="edge">
<title>Node2&#45;&gt;Node26</title>
<path fill="none" stroke="midnightblue" d="M1213.84,-167.2C1130.96,-157 1002.53,-141.21 923.76,-131.52"/>
<polygon fill="midnightblue" stroke="midnightblue" points="1213.61,-170.7 1223.96,-168.44 1214.46,-163.75 1213.61,-170.7"/>
</g>
<!-- Node27 -->
<g id="node27" class="node">
<title>Node27</title>
<g id="a_node27"><a xlink:href="supernova_2src_2_o_m_sim_detector_construction_8cc.html" target="_top" xlink:title=" ">
<polygon fill="white" stroke="black" points="956.02,-112.5 956.02,-131.5 1125.02,-131.5 1125.02,-112.5 956.02,-112.5"/>
<text text-anchor="middle" x="1040.52" y="-119.5" font-family="Helvetica,sans-Serif" font-size="10.00">OMSimDetectorConstruction.cc</text>
</a>
</g>
</g>
<!-- Node2&#45;&gt;Node27 -->
<g id="edge27" class="edge">
<title>Node2&#45;&gt;Node27</title>
<path fill="none" stroke="midnightblue" d="M1243.6,-166.35C1195.79,-156.14 1124.57,-140.94 1080.42,-131.52"/>
<polygon fill="midnightblue" stroke="midnightblue" points="1242.92,-169.78 1253.43,-168.44 1244.38,-162.93 1242.92,-169.78"/>
</g>
<!-- Node28 -->
<g id="node28" class="node">
<title>Node28</title>
<g id="a_node28"><a xlink:href="_o_m_sim_e_n_e_s_8cc.html" target="_top" xlink:title=" ">
<polygon fill="white" stroke="black" points="1143.02,-112.5 1143.02,-131.5 1234.02,-131.5 1234.02,-112.5 1143.02,-112.5"/>
<text text-anchor="middle" x="1188.52" y="-119.5" font-family="Helvetica,sans-Serif" font-size="10.00">OMSimENES.cc</text>
</a>
</g>
</g>
<!-- Node2&#45;&gt;Node28 -->
<g id="edge28" class="edge">
<title>Node2&#45;&gt;Node28</title>
<path fill="none" stroke="midnightblue" d="M1267.71,-163.73C1248.27,-153.73 1222.17,-140.31 1205.35,-131.65"/>
<polygon fill="midnightblue" stroke="midnightblue" points="1266.16,-166.86 1276.65,-168.32 1269.36,-160.64 1266.16,-166.86"/>
</g>
<!-- Node29 -->
<g id="node29" class="node">
<title>Node29</title>
<g id="a_node29"><a xlink:href="_o_m_sim_i_b_d_8cc.html" target="_top" xlink:title=" ">
<polygon fill="white" stroke="black" points="1252.02,-112.5 1252.02,-131.5 1335.02,-131.5 1335.02,-112.5 1252.02,-112.5"/>
<text text-anchor="middle" x="1293.52" y="-119.5" font-family="Helvetica,sans-Serif" font-size="10.00">OMSimIBD.cc</text>
</a>
</g>
</g>
<!-- Node2&#45;&gt;Node29 -->
<g id="edge29" class="edge">
<title>Node2&#45;&gt;Node29</title>
<path fill="none" stroke="midnightblue" d="M1293.52,-157.8C1293.52,-148.91 1293.52,-138.78 1293.52,-131.75"/>
<polygon fill="midnightblue" stroke="midnightblue" points="1290.02,-158.08 1293.52,-168.08 1297.02,-158.08 1290.02,-158.08"/>
</g>
<!-- Node30 -->
<g id="node30" class="node">
<title>Node30</title>
<g id="a_node30"><a xlink:href="_o_m_sim_s_n_analysis_8cc.html" target="_top" xlink:title="Analyze data and write output files.">
<polygon fill="white" stroke="black" points="1353.52,-112.5 1353.52,-131.5 1473.52,-131.5 1473.52,-112.5 1353.52,-112.5"/>
<text text-anchor="middle" x="1413.52" y="-119.5" font-family="Helvetica,sans-Serif" font-size="10.00">OMSimSNAnalysis.cc</text>
</a>
</g>
</g>
<!-- Node2&#45;&gt;Node30 -->
<g id="edge30" class="edge">
<title>Node2&#45;&gt;Node30</title>
<path fill="none" stroke="midnightblue" d="M1321.89,-164.23C1344.34,-154.13 1375.06,-140.31 1394.6,-131.52"/>
<polygon fill="midnightblue" stroke="midnightblue" points="1320.22,-161.15 1312.54,-168.44 1323.09,-167.53 1320.22,-161.15"/>
</g>
<!-- Node31 -->
<g id="node31" class="node">
<title>Node31</title>
<g id="a_node31"><a xlink:href="_o_m_sim_s_n_tools_8cc.html" target="_top" xlink:title=" ">
<polygon fill="white" stroke="black" points="1491.52,-112.5 1491.52,-131.5 1595.52,-131.5 1595.52,-112.5 1491.52,-112.5"/>
<text text-anchor="middle" x="1543.52" y="-119.5" font-family="Helvetica,sans-Serif" font-size="10.00">OMSimSNTools.cc</text>
</a>
</g>
</g>
<!-- Node2&#45;&gt;Node31 -->
<g id="edge31" class="edge">
<title>Node2&#45;&gt;Node31</title>
<path fill="none" stroke="midnightblue" d="M1343.14,-166.28C1390.39,-156.08 1460.56,-140.92 1504.09,-131.52"/>
<polygon fill="midnightblue" stroke="midnightblue" points="1342.17,-162.91 1333.13,-168.44 1343.65,-169.75 1342.17,-162.91"/>
</g>
<!-- Node3&#45;&gt;Node4 -->
<g id="edge3" class="edge">
<title>Node3&#45;&gt;Node4</title>
<path fill="none" stroke="midnightblue" d="M1603.91,-112.01C1309.1,-87.22 970.98,-73.99 829.74,-69.15"/>
<polygon fill="midnightblue" stroke="midnightblue" points="1603.68,-115.5 1613.94,-112.86 1604.27,-108.53 1603.68,-115.5"/>
</g>
<!-- Node3&#45;&gt;Node5 -->
<g id="edge4" class="edge">
<title>Node3&#45;&gt;Node5</title>
<path fill="none" stroke="midnightblue" d="M1666.79,-104.43C1658.38,-94.97 1648.17,-83.48 1641.3,-75.75"/>
<polygon fill="midnightblue" stroke="midnightblue" points="1664.34,-106.93 1673.6,-112.08 1669.57,-102.28 1664.34,-106.93"/>
</g>
<!-- Node7 -->
<g id="node7" class="node">
<title>Node7</title>
<g id="a_node7"><a xlink:href="_o_m_sim_8hh.html" target="_top" xlink:title="Main simulation class for the Optical Module (OM) simulation. This file defines the OMSim class,...">
<polygon fill="white" stroke="black" points="1992.02,-56.5 1992.02,-75.5 2059.02,-75.5 2059.02,-56.5 1992.02,-56.5"/>
<text text-anchor="middle" x="2025.52" y="-63.5" font-family="Helvetica,sans-Serif" font-size="10.00">OMSim.hh</text>
</a>
</g>
</g>
<!-- Node6&#45;&gt;Node7 -->
<g id="edge6" class="edge">
<title>Node6&#45;&gt;Node7</title>
<path fill="none" stroke="midnightblue" d="M1901.35,-109.17C1931.29,-99 1973.74,-84.59 2000.45,-75.52"/>
<polygon fill="midnightblue" stroke="midnightblue" points="1900.06,-105.91 1891.72,-112.44 1902.31,-112.54 1900.06,-105.91"/>
</g>
<!-- Node12 -->
<g id="node12" class="node">
<title>Node12</title>
<g id="a_node12"><a xlink:href="_o_m_sim_m_d_o_m_flasher_8cc.html" target="_top" xlink:title=" ">
<polygon fill="white" stroke="black" points="2077.52,-56.5 2077.52,-75.5 2211.52,-75.5 2211.52,-56.5 2077.52,-56.5"/>
<text text-anchor="middle" x="2144.52" y="-63.5" font-family="Helvetica,sans-Serif" font-size="10.00">OMSimMDOMFlasher.cc</text>
</a>
</g>
</g>
<!-- Node6&#45;&gt;Node12 -->
<g id="edge11" class="edge">
<title>Node6&#45;&gt;Node12</title>
<path fill="none" stroke="midnightblue" d="M1920.71,-110.47C1973.25,-100.27 2051.96,-84.98 2100.68,-75.52"/>
<polygon fill="midnightblue" stroke="midnightblue" points="1919.72,-107.1 1910.57,-112.44 1921.06,-113.97 1919.72,-107.1"/>
</g>
<!-- Node13 -->
<g id="node13" class="node">
<title>Node13</title>
<g id="a_node13"><a xlink:href="_o_m_sim_angular_scan_8cc.html" target="_top" xlink:title=" ">
<polygon fill="white" stroke="black" points="1708.52,-56.5 1708.52,-75.5 1834.52,-75.5 1834.52,-56.5 1708.52,-56.5"/>
<text text-anchor="middle" x="1771.52" y="-63.5" font-family="Helvetica,sans-Serif" font-size="10.00">OMSimAngularScan.cc</text>
</a>
</g>
</g>
<!-- Node6&#45;&gt;Node13 -->
<g id="edge12" class="edge">
<title>Node6&#45;&gt;Node13</title>
<path fill="none" stroke="midnightblue" d="M1842.2,-107.18C1824.72,-97.24 1801.69,-84.15 1786.75,-75.65"/>
<polygon fill="midnightblue" stroke="midnightblue" points="1840.83,-110.43 1851.26,-112.32 1844.29,-104.34 1840.83,-110.43"/>
</g>
<!-- Node14 -->
<g id="node14" class="node">
<title>Node14</title>
<g id="a_node14"><a xlink:href="_o_m_sim_decays_g_p_s_8cc.html" target="_top" xlink:title=" ">
<polygon fill="white" stroke="black" points="1853.02,-56.5 1853.02,-75.5 1974.02,-75.5 1974.02,-56.5 1853.02,-56.5"/>
<text text-anchor="middle" x="1913.52" y="-63.5" font-family="Helvetica,sans-Serif" font-size="10.00">OMSimDecaysGPS.cc</text>
</a>
</g>
</g>
<!-- Node6&#45;&gt;Node14 -->
<g id="edge13" class="edge">
<title>Node6&#45;&gt;Node14</title>
<path fill="none" stroke="midnightblue" d="M1880.94,-104.43C1889.18,-94.97 1899.18,-83.48 1905.9,-75.75"/>
<polygon fill="midnightblue" stroke="midnightblue" points="1878.21,-102.24 1874.28,-112.08 1883.49,-106.84 1878.21,-102.24"/>
</g>
<!-- Node8 -->
<g id="node8" class="node">
<title>Node8</title>
<g id="a_node8"><a xlink:href="_o_m_sim_8cc.html" target="_top" xlink:title="Implementation of the OMSim class.">
<polygon fill="white" stroke="black" points="1786.02,-0.5 1786.02,-19.5 1851.02,-19.5 1851.02,-0.5 1786.02,-0.5"/>
<text text-anchor="middle" x="1818.52" y="-7.5" font-family="Helvetica,sans-Serif" font-size="10.00">OMSim.cc</text>
</a>
</g>
</g>
<!-- Node7&#45;&gt;Node8 -->
<g id="edge7" class="edge">
<title>Node7&#45;&gt;Node8</title>
<path fill="none" stroke="midnightblue" d="M1982.7,-53.83C1943.62,-43.63 1886.69,-28.78 1851.17,-19.52"/>
<polygon fill="midnightblue" stroke="midnightblue" points="1982.16,-57.31 1992.72,-56.44 1983.93,-50.53 1982.16,-57.31"/>
</g>
<!-- Node9 -->
<g id="node9" class="node">
<title>Node9</title>
<g id="a_node9"><a xlink:href="_o_m_sim__effective__area_8cc.html" target="_top" xlink:title="Main for the calculation of effective areas.">
<polygon fill="white" stroke="black" points="1869.52,-0.5 1869.52,-19.5 2009.52,-19.5 2009.52,-0.5 1869.52,-0.5"/>
<text text-anchor="middle" x="1939.52" y="-7.5" font-family="Helvetica,sans-Serif" font-size="10.00">OMSim_effective_area.cc</text>
</a>
</g>
</g>
<!-- Node7&#45;&gt;Node9 -->
<g id="edge8" class="edge">
<title>Node7&#45;&gt;Node9</title>
<path fill="none" stroke="midnightblue" d="M2003.07,-50.9C1987.3,-41 1966.71,-28.07 1953.3,-19.65"/>
<polygon fill="midnightblue" stroke="midnightblue" points="2001.37,-53.97 2011.7,-56.32 2005.1,-48.04 2001.37,-53.97"/>
</g>
<!-- Node10 -->
<g id="node10" class="node">
<title>Node10</title>
<g id="a_node10"><a xlink:href="_o_m_sim__radioactive__decays_8cc.html" target="_top" xlink:title=" ">
<polygon fill="white" stroke="black" points="2028.02,-0.5 2028.02,-19.5 2193.02,-19.5 2193.02,-0.5 2028.02,-0.5"/>
<text text-anchor="middle" x="2110.52" y="-7.5" font-family="Helvetica,sans-Serif" font-size="10.00">OMSim_radioactive_decays.cc</text>
</a>
</g>
</g>
<!-- Node7&#45;&gt;Node10 -->
<g id="edge9" class="edge">
<title>Node7&#45;&gt;Node10</title>
<path fill="none" stroke="midnightblue" d="M2047.71,-50.9C2063.3,-41 2083.65,-28.07 2096.9,-19.65"/>
<polygon fill="midnightblue" stroke="midnightblue" points="2045.74,-48.01 2039.18,-56.32 2049.5,-53.92 2045.74,-48.01"/>
</g>
<!-- Node11 -->
<g id="node11" class="node">
<title>Node11</title>
<g id="a_node11"><a xlink:href="_o_m_sim__supernova_8cc.html" target="_top" xlink:title=" ">
<polygon fill="white" stroke="black" points="2211.52,-0.5 2211.52,-19.5 2333.52,-19.5 2333.52,-0.5 2211.52,-0.5"/>
<text text-anchor="middle" x="2272.52" y="-7.5" font-family="Helvetica,sans-Serif" font-size="10.00">OMSim_supernova.cc</text>
</a>
</g>
</g>
<!-- Node7&#45;&gt;Node11 -->
<g id="edge10" class="edge">
<title>Node7&#45;&gt;Node11</title>
<path fill="none" stroke="midnightblue" d="M2068.87,-55.52C2115.35,-45.36 2188.5,-29.37 2233.32,-19.57"/>
<polygon fill="midnightblue" stroke="midnightblue" points="2068.11,-52.11 2059.09,-57.66 2069.61,-58.94 2068.11,-52.11"/>
</g>
</g>
</svg>
