<?xml version="1.0" encoding="UTF-8" standalone="no"?>
<!DOCTYPE svg PUBLIC "-//W3C//DTD SVG 1.1//EN"
 "http://www.w3.org/Graphics/SVG/1.1/DTD/svg11.dtd">
<!-- Generated by graphviz version 2.43.0 (0)
 -->
<!-- Title: OMSimUIinterface.hh Pages: 1 -->
<svg width="403pt" height="196pt"
 viewBox="0.00 0.00 403.00 196.00" xmlns="http://www.w3.org/2000/svg" xmlns:xlink="http://www.w3.org/1999/xlink">
<g id="graph0" class="graph" transform="scale(1 1) rotate(0) translate(4 192)">
<title>OMSimUIinterface.hh</title>
<polygon fill="white" stroke="transparent" points="-4,4 -4,-192 399,-192 399,4 -4,4"/>
<!-- Node1 -->
<g id="node1" class="node">
<title>Node1</title>
<g id="a_node1"><a xlink:title="The OMSimUIinterface class provides a singleton interface to Geant4&#39;s UI manager.">
<polygon fill="#bfbfbf" stroke="black" points="210.5,-168.5 210.5,-187.5 331.5,-187.5 331.5,-168.5 210.5,-168.5"/>
<text text-anchor="middle" x="271" y="-175.5" font-family="Helvetica,sans-Serif" font-size="10.00">OMSimUIinterface.hh</text>
</a>
</g>
</g>
<!-- Node2 -->
<g id="node2" class="node">
<title>Node2</title>
<g id="a_node2"><a xlink:href="_o_m_sim_command_args_table_8hh.html" target="_top" xlink:title="Definition of the OMSimCommandArgsTable singleton class, which controls user args.">
<polygon fill="white" stroke="black" points="115,-112.5 115,-131.5 279,-131.5 279,-112.5 115,-112.5"/>
<text text-anchor="middle" x="197" y="-119.5" font-family="Helvetica,sans-Serif" font-size="10.00">OMSimCommandArgsTable.hh</text>
</a>
</g>
</g>
<!-- Node1&#45;&gt;Node2 -->
<g id="edge1" class="edge">
<title>Node1&#45;&gt;Node2</title>
<path fill="none" stroke="midnightblue" d="M259.11,-168.32C247.85,-160.11 230.71,-147.6 217.29,-137.81"/>
<polygon fill="midnightblue" stroke="midnightblue" points="219.25,-134.9 209.11,-131.83 215.12,-140.56 219.25,-134.9"/>
</g>
<!-- Node9 -->
<g id="node9" class="node">
<title>Node9</title>
<g id="a_node9"><a xlink:title=" ">
<polygon fill="white" stroke="#bfbfbf" points="297,-112.5 297,-131.5 395,-131.5 395,-112.5 297,-112.5"/>
<text text-anchor="middle" x="346" y="-119.5" font-family="Helvetica,sans-Serif" font-size="10.00">G4UImanager.hh</text>
</a>
</g>
</g>
<!-- Node1&#45;&gt;Node9 -->
<g id="edge8" class="edge">
<title>Node1&#45;&gt;Node9</title>
<path fill="none" stroke="midnightblue" d="M283.05,-168.32C294.46,-160.11 311.83,-147.6 325.43,-137.81"/>
<polygon fill="midnightblue" stroke="midnightblue" points="327.66,-140.52 333.73,-131.83 323.57,-134.84 327.66,-140.52"/>
</g>
<!-- Node3 -->
<g id="node3" class="node">
<title>Node3</title>
<g id="a_node3"><a xlink:href="_o_m_sim_logger_8hh.html" target="_top" xlink:title=" ">
<polygon fill="white" stroke="black" points="8.5,-56.5 8.5,-75.5 107.5,-75.5 107.5,-56.5 8.5,-56.5"/>
<text text-anchor="middle" x="58" y="-63.5" font-family="Helvetica,sans-Serif" font-size="10.00">OMSimLogger.hh</text>
</a>
</g>
</g>
<!-- Node2&#45;&gt;Node3 -->
<g id="edge2" class="edge">
<title>Node2&#45;&gt;Node3</title>
<path fill="none" stroke="midnightblue" d="M174.98,-112.44C151.9,-103.48 115.44,-89.31 89.36,-79.18"/>
<polygon fill="midnightblue" stroke="midnightblue" points="90.51,-75.88 79.92,-75.52 87.98,-82.4 90.51,-75.88"/>
</g>
<!-- Node6 -->
<g id="node6" class="node">
<title>Node6</title>
<g id="a_node6"><a xlink:title=" ">
<polygon fill="white" stroke="#bfbfbf" points="125.5,-56.5 125.5,-75.5 180.5,-75.5 180.5,-56.5 125.5,-56.5"/>
<text text-anchor="middle" x="153" y="-63.5" font-family="Helvetica,sans-Serif" font-size="10.00">fstream</text>
</a>
</g>
</g>
<!-- Node2&#45;&gt;Node6 -->
<g id="edge5" class="edge">
<title>Node2&#45;&gt;Node6</title>
<path fill="none" stroke="midnightblue" d="M189.73,-112.08C183.46,-104.38 174.21,-93.03 166.57,-83.65"/>
<polygon fill="midnightblue" stroke="midnightblue" points="169.16,-81.29 160.13,-75.75 163.73,-85.71 169.16,-81.29"/>
</g>
<!-- Node7 -->
<g id="node7" class="node">
<title>Node7</title>
<g id="a_node7"><a xlink:title=" ">
<polygon fill="white" stroke="#bfbfbf" points="199,-56.5 199,-75.5 283,-75.5 283,-56.5 199,-56.5"/>
<text text-anchor="middle" x="241" y="-63.5" font-family="Helvetica,sans-Serif" font-size="10.00">boost/any.hpp</text>
</a>
</g>
</g>
<!-- Node2&#45;&gt;Node7 -->
<g id="edge6" class="edge">
<title>Node2&#45;&gt;Node7</title>
<path fill="none" stroke="midnightblue" d="M204.27,-112.08C210.54,-104.38 219.79,-93.03 227.43,-83.65"/>
<polygon fill="midnightblue" stroke="midnightblue" points="230.27,-85.71 233.87,-75.75 224.84,-81.29 230.27,-85.71"/>
</g>
<!-- Node8 -->
<g id="node8" class="node">
<title>Node8</title>
<g id="a_node8"><a xlink:title=" ">
<polygon fill="white" stroke="#bfbfbf" points="301,-56.5 301,-75.5 369,-75.5 369,-56.5 301,-56.5"/>
<text text-anchor="middle" x="335" y="-63.5" font-family="Helvetica,sans-Serif" font-size="10.00">sys/time.h</text>
</a>
</g>
</g>
<!-- Node2&#45;&gt;Node8 -->
<g id="edge7" class="edge">
<title>Node2&#45;&gt;Node8</title>
<path fill="none" stroke="midnightblue" d="M218.87,-112.44C241.78,-103.48 277.98,-89.31 303.87,-79.18"/>
<polygon fill="midnightblue" stroke="midnightblue" points="305.2,-82.42 313.24,-75.52 302.65,-75.9 305.2,-82.42"/>
</g>
<!-- Node4 -->
<g id="node4" class="node">
<title>Node4</title>
<g id="a_node4"><a xlink:title=" ">
<polygon fill="white" stroke="#bfbfbf" points="0,-0.5 0,-19.5 50,-19.5 50,-0.5 0,-0.5"/>
<text text-anchor="middle" x="25" y="-7.5" font-family="Helvetica,sans-Serif" font-size="10.00">stdio.h</text>
</a>
</g>
</g>
<!-- Node3&#45;&gt;Node4 -->
<g id="edge3" class="edge">
<title>Node3&#45;&gt;Node4</title>
<path fill="none" stroke="midnightblue" d="M52.55,-56.08C47.99,-48.61 41.33,-37.72 35.71,-28.52"/>
<polygon fill="midnightblue" stroke="midnightblue" points="38.55,-26.46 30.35,-19.75 32.58,-30.11 38.55,-26.46"/>
</g>
<!-- Node5 -->
<g id="node5" class="node">
<title>Node5</title>
<g id="a_node5"><a xlink:title=" ">
<polygon fill="white" stroke="#bfbfbf" points="68,-0.5 68,-19.5 116,-19.5 116,-0.5 68,-0.5"/>
<text text-anchor="middle" x="92" y="-7.5" font-family="Helvetica,sans-Serif" font-size="10.00">time.h</text>
</a>
</g>
</g>
<!-- Node3&#45;&gt;Node5 -->
<g id="edge4" class="edge">
<title>Node3&#45;&gt;Node5</title>
<path fill="none" stroke="midnightblue" d="M63.61,-56.08C68.37,-48.53 75.32,-37.49 81.15,-28.23"/>
<polygon fill="midnightblue" stroke="midnightblue" points="84.12,-30.08 86.49,-19.75 78.2,-26.35 84.12,-30.08"/>
</g>
</g>
</svg>
