<?xml version="1.0" encoding="UTF-8" standalone="no"?>
<!DOCTYPE svg PUBLIC "-//W3C//DTD SVG 1.1//EN"
 "http://www.w3.org/Graphics/SVG/1.1/DTD/svg11.dtd">
<!-- Generated by graphviz version 2.43.0 (0)
 -->
<!-- Title: OMSim_effective_area.cc Pages: 1 -->
<svg width="2200pt" height="308pt"
 viewBox="0.00 0.00 2200.00 308.00" xmlns="http://www.w3.org/2000/svg" xmlns:xlink="http://www.w3.org/1999/xlink">
<g id="graph0" class="graph" transform="scale(1 1) rotate(0) translate(4 304)">
<title>OMSim_effective_area.cc</title>
<polygon fill="white" stroke="transparent" points="-4,4 -4,-304 2196,-304 2196,4 -4,4"/>
<!-- Node1 -->
<g id="node1" class="node">
<title>Node1</title>
<g id="a_node1"><a xlink:title="Main for the calculation of effective areas.">
<polygon fill="#bfbfbf" stroke="black" points="1905.5,-280.5 1905.5,-299.5 2045.5,-299.5 2045.5,-280.5 1905.5,-280.5"/>
<text text-anchor="middle" x="1975.5" y="-287.5" font-family="Helvetica,sans-Serif" font-size="10.00">OMSim_effective_area.cc</text>
</a>
</g>
</g>
<!-- Node2 -->
<g id="node2" class="node">
<title>Node2</title>
<g id="a_node2"><a xlink:href="_o_m_sim_8hh.html" target="_top" xlink:title="Main simulation class for the Optical Module (OM) simulation. This file defines the OMSim class,...">
<polygon fill="white" stroke="black" points="886,-224.5 886,-243.5 953,-243.5 953,-224.5 886,-224.5"/>
<text text-anchor="middle" x="919.5" y="-231.5" font-family="Helvetica,sans-Serif" font-size="10.00">OMSim.hh</text>
</a>
</g>
</g>
<!-- Node1&#45;&gt;Node2 -->
<g id="edge1" class="edge">
<title>Node1&#45;&gt;Node2</title>
<path fill="none" stroke="midnightblue" d="M1905.4,-285.42C1703.91,-275.11 1127.16,-245.62 963.36,-237.24"/>
<polygon fill="midnightblue" stroke="midnightblue" points="963.34,-233.74 953.18,-236.72 962.99,-240.73 963.34,-233.74"/>
</g>
<!-- Node27 -->
<g id="node27" class="node">
<title>Node27</title>
<g id="a_node27"><a xlink:href="_o_m_sim_angular_scan_8hh.html" target="_top" xlink:title="Defines the AngularScan class for configuring and running GPS beam with angular scans.">
<polygon fill="white" stroke="black" points="2027.5,-224.5 2027.5,-243.5 2155.5,-243.5 2155.5,-224.5 2027.5,-224.5"/>
<text text-anchor="middle" x="2091.5" y="-231.5" font-family="Helvetica,sans-Serif" font-size="10.00">OMSimAngularScan.hh</text>
</a>
</g>
</g>
<!-- Node1&#45;&gt;Node27 -->
<g id="edge26" class="edge">
<title>Node1&#45;&gt;Node27</title>
<path fill="none" stroke="midnightblue" d="M1993.88,-280.44C2012.72,-271.68 2042.23,-257.94 2063.88,-247.86"/>
<polygon fill="midnightblue" stroke="midnightblue" points="2065.62,-250.91 2073.21,-243.52 2062.66,-244.56 2065.62,-250.91"/>
</g>
<!-- Node29 -->
<g id="node29" class="node">
<title>Node29</title>
<g id="a_node29"><a xlink:href="_o_m_sim_effective_area_analyisis_8hh.html" target="_top" xlink:title=" ">
<polygon fill="white" stroke="black" points="1887.5,-168.5 1887.5,-187.5 2063.5,-187.5 2063.5,-168.5 1887.5,-168.5"/>
<text text-anchor="middle" x="1975.5" y="-175.5" font-family="Helvetica,sans-Serif" font-size="10.00">OMSimEffectiveAreaAnalyisis.hh</text>
</a>
</g>
</g>
<!-- Node1&#45;&gt;Node29 -->
<g id="edge28" class="edge">
<title>Node1&#45;&gt;Node29</title>
<path fill="none" stroke="midnightblue" d="M1975.5,-280.37C1975.5,-262.62 1975.5,-221.67 1975.5,-197.6"/>
<polygon fill="midnightblue" stroke="midnightblue" points="1979,-197.59 1975.5,-187.59 1972,-197.59 1979,-197.59"/>
</g>
<!-- Node3 -->
<g id="node3" class="node">
<title>Node3</title>
<g id="a_node3"><a xlink:title=" ">
<polygon fill="white" stroke="#bfbfbf" points="923.5,-168.5 923.5,-187.5 1093.5,-187.5 1093.5,-168.5 923.5,-168.5"/>
<text text-anchor="middle" x="1008.5" y="-175.5" font-family="Helvetica,sans-Serif" font-size="10.00">OMSimDetectorConstruction.hh</text>
</a>
</g>
</g>
<!-- Node2&#45;&gt;Node3 -->
<g id="edge2" class="edge">
<title>Node2&#45;&gt;Node3</title>
<path fill="none" stroke="midnightblue" d="M933.8,-224.32C947.68,-215.9 968.99,-202.97 985.3,-193.07"/>
<polygon fill="midnightblue" stroke="midnightblue" points="987.5,-195.83 994.24,-187.65 983.87,-189.85 987.5,-195.83"/>
</g>
<!-- Node4 -->
<g id="node4" class="node">
<title>Node4</title>
<g id="a_node4"><a xlink:title=" ">
<polygon fill="white" stroke="#bfbfbf" points="1112,-168.5 1112,-187.5 1233,-187.5 1233,-168.5 1112,-168.5"/>
<text text-anchor="middle" x="1172.5" y="-175.5" font-family="Helvetica,sans-Serif" font-size="10.00">OMSimPhysicsList.hh</text>
</a>
</g>
</g>
<!-- Node2&#45;&gt;Node4 -->
<g id="edge3" class="edge">
<title>Node2&#45;&gt;Node4</title>
<path fill="none" stroke="midnightblue" d="M953.1,-225.83C996.48,-216.57 1072.36,-200.37 1122.52,-189.67"/>
<polygon fill="midnightblue" stroke="midnightblue" points="1123.45,-193.05 1132.5,-187.54 1121.99,-186.2 1123.45,-193.05"/>
</g>
<!-- Node5 -->
<g id="node5" class="node">
<title>Node5</title>
<g id="a_node5"><a xlink:title=" ">
<polygon fill="white" stroke="#bfbfbf" points="1251,-168.5 1251,-187.5 1436,-187.5 1436,-168.5 1251,-168.5"/>
<text text-anchor="middle" x="1343.5" y="-175.5" font-family="Helvetica,sans-Serif" font-size="10.00">OMSimPrimaryGeneratorAction.hh</text>
</a>
</g>
</g>
<!-- Node2&#45;&gt;Node5 -->
<g id="edge4" class="edge">
<title>Node2&#45;&gt;Node5</title>
<path fill="none" stroke="midnightblue" d="M953.12,-228.72C1020.5,-220.14 1173.53,-200.65 1266.73,-188.78"/>
<polygon fill="midnightblue" stroke="midnightblue" points="1267.19,-192.25 1276.67,-187.51 1266.31,-185.3 1267.19,-192.25"/>
</g>
<!-- Node6 -->
<g id="node6" class="node">
<title>Node6</title>
<g id="a_node6"><a xlink:href="_o_m_sim_run_action_8hh.html" target="_top" xlink:title=" ">
<polygon fill="white" stroke="black" points="1453.5,-168.5 1453.5,-187.5 1569.5,-187.5 1569.5,-168.5 1453.5,-168.5"/>
<text text-anchor="middle" x="1511.5" y="-175.5" font-family="Helvetica,sans-Serif" font-size="10.00">OMSimRunAction.hh</text>
</a>
</g>
</g>
<!-- Node2&#45;&gt;Node6 -->
<g id="edge5" class="edge">
<title>Node2&#45;&gt;Node6</title>
<path fill="none" stroke="midnightblue" d="M953.03,-230.69C1034.88,-224.92 1251.65,-208.93 1443.44,-188.07"/>
<polygon fill="midnightblue" stroke="midnightblue" points="1443.86,-191.54 1453.42,-186.98 1443.09,-184.59 1443.86,-191.54"/>
</g>
<!-- Node8 -->
<g id="node8" class="node">
<title>Node8</title>
<g id="a_node8"><a xlink:title=" ">
<polygon fill="white" stroke="#bfbfbf" points="1588,-168.5 1588,-187.5 1713,-187.5 1713,-168.5 1588,-168.5"/>
<text text-anchor="middle" x="1650.5" y="-175.5" font-family="Helvetica,sans-Serif" font-size="10.00">OMSimEventAction.hh</text>
</a>
</g>
</g>
<!-- Node2&#45;&gt;Node8 -->
<g id="edge7" class="edge">
<title>Node2&#45;&gt;Node8</title>
<path fill="none" stroke="midnightblue" d="M953.16,-231.37C1048.96,-226.59 1331.5,-211.51 1577.49,-188.04"/>
<polygon fill="midnightblue" stroke="midnightblue" points="1578.08,-191.5 1587.69,-187.06 1577.41,-184.53 1578.08,-191.5"/>
</g>
<!-- Node9 -->
<g id="node9" class="node">
<title>Node9</title>
<g id="a_node9"><a xlink:href="_o_m_sim_tracking_action_8hh.html" target="_top" xlink:title=" ">
<polygon fill="white" stroke="black" points="1731.5,-168.5 1731.5,-187.5 1869.5,-187.5 1869.5,-168.5 1731.5,-168.5"/>
<text text-anchor="middle" x="1800.5" y="-175.5" font-family="Helvetica,sans-Serif" font-size="10.00">OMSimTrackingAction.hh</text>
</a>
</g>
</g>
<!-- Node2&#45;&gt;Node9 -->
<g id="edge8" class="edge">
<title>Node2&#45;&gt;Node9</title>
<path fill="none" stroke="midnightblue" d="M953.17,-231.8C1062.26,-227.78 1416.07,-213.58 1720.8,-188"/>
<polygon fill="midnightblue" stroke="midnightblue" points="1721.49,-191.46 1731.16,-187.13 1720.9,-184.48 1721.49,-191.46"/>
</g>
<!-- Node11 -->
<g id="node11" class="node">
<title>Node11</title>
<g id="a_node11"><a xlink:href="_o_m_sim_stepping_action_8hh.html" target="_top" xlink:title="Defines OMSimSteppingAction.Currently it only checks for trapped photons.">
<polygon fill="white" stroke="black" points="0.5,-168.5 0.5,-187.5 140.5,-187.5 140.5,-168.5 0.5,-168.5"/>
<text text-anchor="middle" x="70.5" y="-175.5" font-family="Helvetica,sans-Serif" font-size="10.00">OMSimSteppingAction.hh</text>
</a>
</g>
</g>
<!-- Node2&#45;&gt;Node11 -->
<g id="edge10" class="edge">
<title>Node2&#45;&gt;Node11</title>
<path fill="none" stroke="midnightblue" d="M885.68,-231.69C779.28,-227.42 441.71,-212.82 151.01,-188.08"/>
<polygon fill="midnightblue" stroke="midnightblue" points="150.95,-184.57 140.69,-187.2 150.36,-191.54 150.95,-184.57"/>
</g>
<!-- Node13 -->
<g id="node13" class="node">
<title>Node13</title>
<g id="a_node13"><a xlink:href="_o_m_sim_u_iinterface_8hh.html" target="_top" xlink:title="The OMSimUIinterface class provides a singleton interface to Geant4&#39;s UI manager.">
<polygon fill="white" stroke="black" points="159,-168.5 159,-187.5 280,-187.5 280,-168.5 159,-168.5"/>
<text text-anchor="middle" x="219.5" y="-175.5" font-family="Helvetica,sans-Serif" font-size="10.00">OMSimUIinterface.hh</text>
</a>
</g>
</g>
<!-- Node2&#45;&gt;Node13 -->
<g id="edge12" class="edge">
<title>Node2&#45;&gt;Node13</title>
<path fill="none" stroke="midnightblue" d="M885.98,-231.27C793.16,-226.36 524.74,-211.17 290.26,-188.02"/>
<polygon fill="midnightblue" stroke="midnightblue" points="290.48,-184.52 280.18,-187.02 289.79,-191.49 290.48,-184.52"/>
</g>
<!-- Node22 -->
<g id="node22" class="node">
<title>Node22</title>
<g id="a_node22"><a xlink:title=" ">
<polygon fill="white" stroke="#bfbfbf" points="298.5,-168.5 298.5,-187.5 404.5,-187.5 404.5,-168.5 298.5,-168.5"/>
<text text-anchor="middle" x="351.5" y="-175.5" font-family="Helvetica,sans-Serif" font-size="10.00">G4RunManager.hh</text>
</a>
</g>
</g>
<!-- Node2&#45;&gt;Node22 -->
<g id="edge21" class="edge">
<title>Node2&#45;&gt;Node22</title>
<path fill="none" stroke="midnightblue" d="M885.98,-230.67C806.24,-224.97 598.78,-209.35 414.71,-188.08"/>
<polygon fill="midnightblue" stroke="midnightblue" points="414.91,-184.58 404.57,-186.9 414.1,-191.53 414.91,-184.58"/>
</g>
<!-- Node23 -->
<g id="node23" class="node">
<title>Node23</title>
<g id="a_node23"><a xlink:title=" ">
<polygon fill="white" stroke="#bfbfbf" points="423,-168.5 423,-187.5 530,-187.5 530,-168.5 423,-168.5"/>
<text text-anchor="middle" x="476.5" y="-175.5" font-family="Helvetica,sans-Serif" font-size="10.00">G4VisExecutive.hh</text>
</a>
</g>
</g>
<!-- Node2&#45;&gt;Node23 -->
<g id="edge22" class="edge">
<title>Node2&#45;&gt;Node23</title>
<path fill="none" stroke="midnightblue" d="M885.82,-229.33C820.98,-222.19 674.02,-205.69 540.27,-188.21"/>
<polygon fill="midnightblue" stroke="midnightblue" points="540.63,-184.72 530.26,-186.89 539.72,-191.66 540.63,-184.72"/>
</g>
<!-- Node24 -->
<g id="node24" class="node">
<title>Node24</title>
<g id="a_node24"><a xlink:title=" ">
<polygon fill="white" stroke="#bfbfbf" points="548,-168.5 548,-187.5 651,-187.5 651,-168.5 548,-168.5"/>
<text text-anchor="middle" x="599.5" y="-175.5" font-family="Helvetica,sans-Serif" font-size="10.00">G4UIExecutive.hh</text>
</a>
</g>
</g>
<!-- Node2&#45;&gt;Node24 -->
<g id="edge23" class="edge">
<title>Node2&#45;&gt;Node24</title>
<path fill="none" stroke="midnightblue" d="M885.86,-227.32C832.29,-218.28 726.82,-200.49 659.92,-189.2"/>
<polygon fill="midnightblue" stroke="midnightblue" points="660.37,-185.72 649.93,-187.51 659.21,-192.63 660.37,-185.72"/>
</g>
<!-- Node25 -->
<g id="node25" class="node">
<title>Node25</title>
<g id="a_node25"><a xlink:title=" ">
<polygon fill="white" stroke="#bfbfbf" points="669.5,-168.5 669.5,-187.5 737.5,-187.5 737.5,-168.5 669.5,-168.5"/>
<text text-anchor="middle" x="703.5" y="-175.5" font-family="Helvetica,sans-Serif" font-size="10.00">filesystem</text>
</a>
</g>
</g>
<!-- Node2&#45;&gt;Node25 -->
<g id="edge24" class="edge">
<title>Node2&#45;&gt;Node25</title>
<path fill="none" stroke="midnightblue" d="M885.75,-224.56C848.48,-215.25 788.35,-200.21 747.43,-189.98"/>
<polygon fill="midnightblue" stroke="midnightblue" points="748.28,-186.59 737.73,-187.56 746.58,-193.38 748.28,-186.59"/>
</g>
<!-- Node26 -->
<g id="node26" class="node">
<title>Node26</title>
<g id="a_node26"><a xlink:title=" ">
<polygon fill="white" stroke="#bfbfbf" points="755.5,-168.5 755.5,-187.5 905.5,-187.5 905.5,-168.5 755.5,-168.5"/>
<text text-anchor="middle" x="830.5" y="-175.5" font-family="Helvetica,sans-Serif" font-size="10.00">boost/program_options.hpp</text>
</a>
</g>
</g>
<!-- Node2&#45;&gt;Node26 -->
<g id="edge25" class="edge">
<title>Node2&#45;&gt;Node26</title>
<path fill="none" stroke="midnightblue" d="M905.2,-224.32C891.32,-215.9 870.01,-202.97 853.7,-193.07"/>
<polygon fill="midnightblue" stroke="midnightblue" points="855.13,-189.85 844.76,-187.65 851.5,-195.83 855.13,-189.85"/>
</g>
<!-- Node7 -->
<g id="node7" class="node">
<title>Node7</title>
<g id="a_node7"><a xlink:title=" ">
<polygon fill="white" stroke="#bfbfbf" points="1453,-112.5 1453,-131.5 1570,-131.5 1570,-112.5 1453,-112.5"/>
<text text-anchor="middle" x="1511.5" y="-119.5" font-family="Helvetica,sans-Serif" font-size="10.00">G4UserRunAction.hh</text>
</a>
</g>
</g>
<!-- Node6&#45;&gt;Node7 -->
<g id="edge6" class="edge">
<title>Node6&#45;&gt;Node7</title>
<path fill="none" stroke="midnightblue" d="M1511.5,-168.08C1511.5,-161.01 1511.5,-150.86 1511.5,-141.99"/>
<polygon fill="midnightblue" stroke="midnightblue" points="1515,-141.75 1511.5,-131.75 1508,-141.75 1515,-141.75"/>
</g>
<!-- Node10 -->
<g id="node10" class="node">
<title>Node10</title>
<g id="a_node10"><a xlink:title=" ">
<polygon fill="white" stroke="#bfbfbf" points="1705,-112.5 1705,-131.5 1844,-131.5 1844,-112.5 1705,-112.5"/>
<text text-anchor="middle" x="1774.5" y="-119.5" font-family="Helvetica,sans-Serif" font-size="10.00">G4UserTrackingAction.hh</text>
</a>
</g>
</g>
<!-- Node9&#45;&gt;Node10 -->
<g id="edge9" class="edge">
<title>Node9&#45;&gt;Node10</title>
<path fill="none" stroke="midnightblue" d="M1796.21,-168.08C1792.65,-160.69 1787.48,-149.95 1783.08,-140.81"/>
<polygon fill="midnightblue" stroke="midnightblue" points="1786.21,-139.24 1778.71,-131.75 1779.9,-142.28 1786.21,-139.24"/>
</g>
<!-- Node12 -->
<g id="node12" class="node">
<title>Node12</title>
<g id="a_node12"><a xlink:title=" ">
<polygon fill="white" stroke="#bfbfbf" points="0,-112.5 0,-131.5 141,-131.5 141,-112.5 0,-112.5"/>
<text text-anchor="middle" x="70.5" y="-119.5" font-family="Helvetica,sans-Serif" font-size="10.00">G4UserSteppingAction.hh</text>
</a>
</g>
</g>
<!-- Node11&#45;&gt;Node12 -->
<g id="edge11" class="edge">
<title>Node11&#45;&gt;Node12</title>
<path fill="none" stroke="midnightblue" d="M70.5,-168.08C70.5,-161.01 70.5,-150.86 70.5,-141.99"/>
<polygon fill="midnightblue" stroke="midnightblue" points="74,-141.75 70.5,-131.75 67,-141.75 74,-141.75"/>
</g>
<!-- Node14 -->
<g id="node14" class="node">
<title>Node14</title>
<g id="a_node14"><a xlink:href="_o_m_sim_command_args_table_8hh.html" target="_top" xlink:title="Definition of the OMSimCommandArgsTable singleton class, which controls user args.">
<polygon fill="white" stroke="black" points="778.5,-112.5 778.5,-131.5 942.5,-131.5 942.5,-112.5 778.5,-112.5"/>
<text text-anchor="middle" x="860.5" y="-119.5" font-family="Helvetica,sans-Serif" font-size="10.00">OMSimCommandArgsTable.hh</text>
</a>
</g>
</g>
<!-- Node13&#45;&gt;Node14 -->
<g id="edge13" class="edge">
<title>Node13&#45;&gt;Node14</title>
<path fill="none" stroke="midnightblue" d="M280.19,-169.01C283.33,-168.66 286.45,-168.32 289.5,-168 458,-150.54 655.1,-136.39 768.12,-128.88"/>
<polygon fill="midnightblue" stroke="midnightblue" points="768.37,-132.37 778.12,-128.21 767.91,-125.38 768.37,-132.37"/>
</g>
<!-- Node21 -->
<g id="node21" class="node">
<title>Node21</title>
<g id="a_node21"><a xlink:title=" ">
<polygon fill="white" stroke="#bfbfbf" points="170.5,-112.5 170.5,-131.5 268.5,-131.5 268.5,-112.5 170.5,-112.5"/>
<text text-anchor="middle" x="219.5" y="-119.5" font-family="Helvetica,sans-Serif" font-size="10.00">G4UImanager.hh</text>
</a>
</g>
</g>
<!-- Node13&#45;&gt;Node21 -->
<g id="edge20" class="edge">
<title>Node13&#45;&gt;Node21</title>
<path fill="none" stroke="midnightblue" d="M219.5,-168.08C219.5,-161.01 219.5,-150.86 219.5,-141.99"/>
<polygon fill="midnightblue" stroke="midnightblue" points="223,-141.75 219.5,-131.75 216,-141.75 223,-141.75"/>
</g>
<!-- Node15 -->
<g id="node15" class="node">
<title>Node15</title>
<g id="a_node15"><a xlink:href="_o_m_sim_logger_8hh.html" target="_top" xlink:title=" ">
<polygon fill="white" stroke="black" points="701,-56.5 701,-75.5 800,-75.5 800,-56.5 701,-56.5"/>
<text text-anchor="middle" x="750.5" y="-63.5" font-family="Helvetica,sans-Serif" font-size="10.00">OMSimLogger.hh</text>
</a>
</g>
</g>
<!-- Node14&#45;&gt;Node15 -->
<g id="edge14" class="edge">
<title>Node14&#45;&gt;Node15</title>
<path fill="none" stroke="midnightblue" d="M842.83,-112.32C825.11,-103.62 797.6,-90.12 777.21,-80.11"/>
<polygon fill="midnightblue" stroke="midnightblue" points="778.65,-76.92 768.13,-75.65 775.56,-83.2 778.65,-76.92"/>
</g>
<!-- Node18 -->
<g id="node18" class="node">
<title>Node18</title>
<g id="a_node18"><a xlink:title=" ">
<polygon fill="white" stroke="#bfbfbf" points="1813,-56.5 1813,-75.5 1868,-75.5 1868,-56.5 1813,-56.5"/>
<text text-anchor="middle" x="1840.5" y="-63.5" font-family="Helvetica,sans-Serif" font-size="10.00">fstream</text>
</a>
</g>
</g>
<!-- Node14&#45;&gt;Node18 -->
<g id="edge17" class="edge">
<title>Node14&#45;&gt;Node18</title>
<path fill="none" stroke="midnightblue" d="M942.79,-116.47C1144.84,-105.33 1659.33,-76.98 1802.83,-69.08"/>
<polygon fill="midnightblue" stroke="midnightblue" points="1803.1,-72.57 1812.89,-68.52 1802.72,-65.58 1803.1,-72.57"/>
</g>
<!-- Node19 -->
<g id="node19" class="node">
<title>Node19</title>
<g id="a_node19"><a xlink:title=" ">
<polygon fill="white" stroke="#bfbfbf" points="818.5,-56.5 818.5,-75.5 902.5,-75.5 902.5,-56.5 818.5,-56.5"/>
<text text-anchor="middle" x="860.5" y="-63.5" font-family="Helvetica,sans-Serif" font-size="10.00">boost/any.hpp</text>
</a>
</g>
</g>
<!-- Node14&#45;&gt;Node19 -->
<g id="edge18" class="edge">
<title>Node14&#45;&gt;Node19</title>
<path fill="none" stroke="midnightblue" d="M860.5,-112.08C860.5,-105.01 860.5,-94.86 860.5,-85.99"/>
<polygon fill="midnightblue" stroke="midnightblue" points="864,-85.75 860.5,-75.75 857,-85.75 864,-85.75"/>
</g>
<!-- Node20 -->
<g id="node20" class="node">
<title>Node20</title>
<g id="a_node20"><a xlink:title=" ">
<polygon fill="white" stroke="#bfbfbf" points="920.5,-56.5 920.5,-75.5 988.5,-75.5 988.5,-56.5 920.5,-56.5"/>
<text text-anchor="middle" x="954.5" y="-63.5" font-family="Helvetica,sans-Serif" font-size="10.00">sys/time.h</text>
</a>
</g>
</g>
<!-- Node14&#45;&gt;Node20 -->
<g id="edge19" class="edge">
<title>Node14&#45;&gt;Node20</title>
<path fill="none" stroke="midnightblue" d="M875.6,-112.32C890.4,-103.82 913.19,-90.73 930.48,-80.8"/>
<polygon fill="midnightblue" stroke="midnightblue" points="932.51,-83.67 939.43,-75.65 929.02,-77.6 932.51,-83.67"/>
</g>
<!-- Node16 -->
<g id="node16" class="node">
<title>Node16</title>
<g id="a_node16"><a xlink:title=" ">
<polygon fill="white" stroke="#bfbfbf" points="759.5,-0.5 759.5,-19.5 809.5,-19.5 809.5,-0.5 759.5,-0.5"/>
<text text-anchor="middle" x="784.5" y="-7.5" font-family="Helvetica,sans-Serif" font-size="10.00">stdio.h</text>
</a>
</g>
</g>
<!-- Node15&#45;&gt;Node16 -->
<g id="edge15" class="edge">
<title>Node15&#45;&gt;Node16</title>
<path fill="none" stroke="midnightblue" d="M756.11,-56.08C760.87,-48.53 767.82,-37.49 773.65,-28.23"/>
<polygon fill="midnightblue" stroke="midnightblue" points="776.62,-30.08 778.99,-19.75 770.7,-26.35 776.62,-30.08"/>
</g>
<!-- Node17 -->
<g id="node17" class="node">
<title>Node17</title>
<g id="a_node17"><a xlink:title=" ">
<polygon fill="white" stroke="#bfbfbf" points="693.5,-0.5 693.5,-19.5 741.5,-19.5 741.5,-0.5 693.5,-0.5"/>
<text text-anchor="middle" x="717.5" y="-7.5" font-family="Helvetica,sans-Serif" font-size="10.00">time.h</text>
</a>
</g>
</g>
<!-- Node15&#45;&gt;Node17 -->
<g id="edge16" class="edge">
<title>Node15&#45;&gt;Node17</title>
<path fill="none" stroke="midnightblue" d="M745.05,-56.08C740.49,-48.61 733.83,-37.72 728.21,-28.52"/>
<polygon fill="midnightblue" stroke="midnightblue" points="731.05,-26.46 722.85,-19.75 725.08,-30.11 731.05,-26.46"/>
</g>
<!-- Node28 -->
<g id="node28" class="node">
<title>Node28</title>
<g id="a_node28"><a xlink:title=" ">
<polygon fill="white" stroke="#bfbfbf" points="2082,-168.5 2082,-187.5 2149,-187.5 2149,-168.5 2082,-168.5"/>
<text text-anchor="middle" x="2115.5" y="-175.5" font-family="Helvetica,sans-Serif" font-size="10.00">globals.hh</text>
</a>
</g>
</g>
<!-- Node27&#45;&gt;Node28 -->
<g id="edge27" class="edge">
<title>Node27&#45;&gt;Node28</title>
<path fill="none" stroke="midnightblue" d="M2095.46,-224.08C2098.71,-216.77 2103.42,-206.18 2107.45,-197.1"/>
<polygon fill="midnightblue" stroke="midnightblue" points="2110.75,-198.31 2111.61,-187.75 2104.35,-195.47 2110.75,-198.31"/>
</g>
<!-- Node29&#45;&gt;Node18 -->
<g id="edge40" class="edge">
<title>Node29&#45;&gt;Node18</title>
<path fill="none" stroke="midnightblue" d="M1964.91,-168.37C1942.04,-149.73 1887.79,-105.53 1859.07,-82.13"/>
<polygon fill="midnightblue" stroke="midnightblue" points="1861.01,-79.19 1851.04,-75.59 1856.59,-84.62 1861.01,-79.19"/>
</g>
<!-- Node30 -->
<g id="node30" class="node">
<title>Node30</title>
<g id="a_node30"><a xlink:href="_o_m_sim_p_m_t_response_8hh.html" target="_top" xlink:title="Provides simulation for PMT response. This class is responsible for transforming hits on photocathode...">
<polygon fill="white" stroke="black" points="1886,-56.5 1886,-75.5 2021,-75.5 2021,-56.5 1886,-56.5"/>
<text text-anchor="middle" x="1953.5" y="-63.5" font-family="Helvetica,sans-Serif" font-size="10.00">OMSimPMTResponse.hh</text>
</a>
</g>
</g>
<!-- Node29&#45;&gt;Node30 -->
<g id="edge29" class="edge">
<title>Node29&#45;&gt;Node30</title>
<path fill="none" stroke="midnightblue" d="M1961.71,-168.19C1950.67,-160.24 1936,-147.45 1929.5,-132 1922.68,-115.78 1931.48,-96.88 1940.29,-83.65"/>
<polygon fill="midnightblue" stroke="midnightblue" points="1943.16,-85.66 1946.19,-75.51 1937.49,-81.55 1943.16,-85.66"/>
</g>
<!-- Node36 -->
<g id="node36" class="node">
<title>Node36</title>
<g id="a_node36"><a xlink:href="_o_m_sim_hit_manager_8hh.html" target="_top" xlink:title="Defines structures and classes related to optical module photon hit management.">
<polygon fill="white" stroke="black" points="1939,-112.5 1939,-131.5 2062,-131.5 2062,-112.5 1939,-112.5"/>
<text text-anchor="middle" x="2000.5" y="-119.5" font-family="Helvetica,sans-Serif" font-size="10.00">OMSimHitManager.hh</text>
</a>
</g>
</g>
<!-- Node29&#45;&gt;Node36 -->
<g id="edge35" class="edge">
<title>Node29&#45;&gt;Node36</title>
<path fill="none" stroke="midnightblue" d="M1979.63,-168.08C1983.01,-160.77 1987.92,-150.18 1992.12,-141.1"/>
<polygon fill="midnightblue" stroke="midnightblue" points="1995.42,-142.3 1996.45,-131.75 1989.07,-139.36 1995.42,-142.3"/>
</g>
<!-- Node37 -->
<g id="node37" class="node">
<title>Node37</title>
<g id="a_node37"><a xlink:title=" ">
<polygon fill="white" stroke="#bfbfbf" points="2039,-56.5 2039,-75.5 2142,-75.5 2142,-56.5 2039,-56.5"/>
<text text-anchor="middle" x="2090.5" y="-63.5" font-family="Helvetica,sans-Serif" font-size="10.00">G4ThreeVector.hh</text>
</a>
</g>
</g>
<!-- Node29&#45;&gt;Node37 -->
<g id="edge39" class="edge">
<title>Node29&#45;&gt;Node37</title>
<path fill="none" stroke="midnightblue" d="M2010.59,-168.39C2031.04,-161.67 2055.81,-150.31 2071.5,-132 2082.61,-119.04 2087.23,-99.87 2089.14,-85.71"/>
<polygon fill="midnightblue" stroke="midnightblue" points="2092.64,-85.94 2090.18,-75.63 2085.68,-85.23 2092.64,-85.94"/>
</g>
<!-- Node31 -->
<g id="node31" class="node">
<title>Node31</title>
<g id="a_node31"><a xlink:title=" ">
<polygon fill="white" stroke="#bfbfbf" points="2073,-0.5 2073,-19.5 2192,-19.5 2192,-0.5 2073,-0.5"/>
<text text-anchor="middle" x="2132.5" y="-7.5" font-family="Helvetica,sans-Serif" font-size="10.00">G4SystemOfUnits.hh</text>
</a>
</g>
</g>
<!-- Node30&#45;&gt;Node31 -->
<g id="edge30" class="edge">
<title>Node30&#45;&gt;Node31</title>
<path fill="none" stroke="midnightblue" d="M1981.86,-56.44C2012.24,-47.28 2060.61,-32.69 2094.32,-22.52"/>
<polygon fill="midnightblue" stroke="midnightblue" points="2095.71,-25.76 2104.27,-19.52 2093.68,-19.05 2095.71,-25.76"/>
</g>
<!-- Node32 -->
<g id="node32" class="node">
<title>Node32</title>
<g id="a_node32"><a xlink:title=" ">
<polygon fill="white" stroke="#bfbfbf" points="1775,-0.5 1775,-19.5 1848,-19.5 1848,-0.5 1775,-0.5"/>
<text text-anchor="middle" x="1811.5" y="-7.5" font-family="Helvetica,sans-Serif" font-size="10.00">G4Types.hh</text>
</a>
</g>
</g>
<!-- Node30&#45;&gt;Node32 -->
<g id="edge31" class="edge">
<title>Node30&#45;&gt;Node32</title>
<path fill="none" stroke="midnightblue" d="M1931,-56.44C1907.42,-47.48 1870.18,-33.31 1843.54,-23.18"/>
<polygon fill="midnightblue" stroke="midnightblue" points="1844.49,-19.8 1833.9,-19.52 1842,-26.34 1844.49,-19.8"/>
</g>
<!-- Node33 -->
<g id="node33" class="node">
<title>Node33</title>
<g id="a_node33"><a xlink:title=" ">
<polygon fill="white" stroke="#bfbfbf" points="1866.5,-0.5 1866.5,-19.5 1904.5,-19.5 1904.5,-0.5 1866.5,-0.5"/>
<text text-anchor="middle" x="1885.5" y="-7.5" font-family="Helvetica,sans-Serif" font-size="10.00">map</text>
</a>
</g>
</g>
<!-- Node30&#45;&gt;Node33 -->
<g id="edge32" class="edge">
<title>Node30&#45;&gt;Node33</title>
<path fill="none" stroke="midnightblue" d="M1942.57,-56.32C1932.33,-48.18 1916.78,-35.84 1904.5,-26.09"/>
<polygon fill="midnightblue" stroke="midnightblue" points="1906.63,-23.31 1896.62,-19.83 1902.28,-28.79 1906.63,-23.31"/>
</g>
<!-- Node34 -->
<g id="node34" class="node">
<title>Node34</title>
<g id="a_node34"><a xlink:title=" ">
<polygon fill="white" stroke="#bfbfbf" points="1923,-0.5 1923,-19.5 1984,-19.5 1984,-0.5 1923,-0.5"/>
<text text-anchor="middle" x="1953.5" y="-7.5" font-family="Helvetica,sans-Serif" font-size="10.00">TGraph.h</text>
</a>
</g>
</g>
<!-- Node30&#45;&gt;Node34 -->
<g id="edge33" class="edge">
<title>Node30&#45;&gt;Node34</title>
<path fill="none" stroke="midnightblue" d="M1953.5,-56.08C1953.5,-49.01 1953.5,-38.86 1953.5,-29.99"/>
<polygon fill="midnightblue" stroke="midnightblue" points="1957,-29.75 1953.5,-19.75 1950,-29.75 1957,-29.75"/>
</g>
<!-- Node35 -->
<g id="node35" class="node">
<title>Node35</title>
<g id="a_node35"><a xlink:title=" ">
<polygon fill="white" stroke="#bfbfbf" points="2002,-0.5 2002,-19.5 2055,-19.5 2055,-0.5 2002,-0.5"/>
<text text-anchor="middle" x="2028.5" y="-7.5" font-family="Helvetica,sans-Serif" font-size="10.00">TH2D.h</text>
</a>
</g>
</g>
<!-- Node30&#45;&gt;Node35 -->
<g id="edge34" class="edge">
<title>Node30&#45;&gt;Node35</title>
<path fill="none" stroke="midnightblue" d="M1965.55,-56.32C1976.96,-48.11 1994.33,-35.6 2007.93,-25.81"/>
<polygon fill="midnightblue" stroke="midnightblue" points="2010.16,-28.52 2016.23,-19.83 2006.07,-22.84 2010.16,-28.52"/>
</g>
<!-- Node36&#45;&gt;Node18 -->
<g id="edge38" class="edge">
<title>Node36&#45;&gt;Node18</title>
<path fill="none" stroke="midnightblue" d="M1975.15,-112.44C1948.23,-103.36 1905.5,-88.94 1875.41,-78.78"/>
<polygon fill="midnightblue" stroke="midnightblue" points="1876.33,-75.4 1865.73,-75.52 1874.09,-82.03 1876.33,-75.4"/>
</g>
<!-- Node36&#45;&gt;Node30 -->
<g id="edge36" class="edge">
<title>Node36&#45;&gt;Node30</title>
<path fill="none" stroke="midnightblue" d="M1992.74,-112.08C1985.96,-104.3 1975.96,-92.8 1967.74,-83.37"/>
<polygon fill="midnightblue" stroke="midnightblue" points="1970.32,-81 1961.12,-75.75 1965.04,-85.59 1970.32,-81"/>
</g>
<!-- Node36&#45;&gt;Node37 -->
<g id="edge37" class="edge">
<title>Node36&#45;&gt;Node37</title>
<path fill="none" stroke="midnightblue" d="M2014.96,-112.32C2029,-103.9 2050.55,-90.97 2067.04,-81.07"/>
<polygon fill="midnightblue" stroke="midnightblue" points="2069.3,-83.8 2076.08,-75.65 2065.7,-77.8 2069.3,-83.8"/>
</g>
</g>
</svg>
