<?xml version="1.0" encoding="UTF-8" standalone="no"?>
<!DOCTYPE svg PUBLIC "-//W3C//DTD SVG 1.1//EN"
 "http://www.w3.org/Graphics/SVG/1.1/DTD/svg11.dtd">
<!-- Generated by graphviz version 2.43.0 (0)
 -->
<!-- Title: OMSim.cc Pages: 1 -->
<svg width="3495pt" height="375pt"
 viewBox="0.00 0.00 3495.00 375.00" xmlns="http://www.w3.org/2000/svg" xmlns:xlink="http://www.w3.org/1999/xlink">
<g id="graph0" class="graph" transform="scale(1 1) rotate(0) translate(4 371)">
<title>OMSim.cc</title>
<polygon fill="white" stroke="transparent" points="-4,4 -4,-371 3491,-371 3491,4 -4,4"/>
<!-- Node1 -->
<g id="node1" class="node">
<title>Node1</title>
<g id="a_node1"><a xlink:title=" ">
<polygon fill="#bfbfbf" stroke="black" points="1847.5,-347.5 1847.5,-366.5 1912.5,-366.5 1912.5,-347.5 1847.5,-347.5"/>
<text text-anchor="middle" x="1880" y="-354.5" font-family="Helvetica,sans-Serif" font-size="10.00">OMSim.cc</text>
</a>
</g>
</g>
<!-- Node2 -->
<g id="node2" class="node">
<title>Node2</title>
<g id="a_node2"><a xlink:href="_o_m_sim_8h.html" target="_top" xlink:title=" ">
<polygon fill="white" stroke="black" points="1820.5,-291.5 1820.5,-310.5 1881.5,-310.5 1881.5,-291.5 1820.5,-291.5"/>
<text text-anchor="middle" x="1851" y="-298.5" font-family="Helvetica,sans-Serif" font-size="10.00">OMSim.h</text>
</a>
</g>
</g>
<!-- Node1&#45;&gt;Node2 -->
<g id="edge1" class="edge">
<title>Node1&#45;&gt;Node2</title>
<path fill="none" stroke="midnightblue" d="M1875.21,-347.08C1871.24,-339.69 1865.47,-328.95 1860.57,-319.81"/>
<polygon fill="midnightblue" stroke="midnightblue" points="1863.51,-317.91 1855.7,-310.75 1857.35,-321.22 1863.51,-317.91"/>
</g>
<!-- Node76 -->
<g id="node50" class="node">
<title>Node76</title>
<g id="a_node50"><a xlink:title=" ">
<polygon fill="white" stroke="#bfbfbf" points="3337,-235.5 3337,-254.5 3487,-254.5 3487,-235.5 3337,-235.5"/>
<text text-anchor="middle" x="3412" y="-242.5" font-family="Helvetica,sans-Serif" font-size="10.00">boost/program_options.hpp</text>
</a>
</g>
</g>
<!-- Node1&#45;&gt;Node76 -->
<g id="edge76" class="edge">
<title>Node1&#45;&gt;Node76</title>
<path fill="none" stroke="midnightblue" d="M1912.54,-354.1C2068.91,-344.87 2758.75,-303.26 3323,-255 3324.12,-254.9 3325.25,-254.81 3326.39,-254.71"/>
<polygon fill="midnightblue" stroke="midnightblue" points="3327.11,-258.16 3336.75,-253.77 3326.48,-251.18 3327.11,-258.16"/>
</g>
<!-- Node3 -->
<g id="node3" class="node">
<title>Node3</title>
<g id="a_node3"><a xlink:href="_o_m_sim_detector_construction_8hh.html" target="_top" xlink:title=" ">
<polygon fill="white" stroke="black" points="2919,-235.5 2919,-254.5 3089,-254.5 3089,-235.5 2919,-235.5"/>
<text text-anchor="middle" x="3004" y="-242.5" font-family="Helvetica,sans-Serif" font-size="10.00">OMSimDetectorConstruction.hh</text>
</a>
</g>
</g>
<!-- Node2&#45;&gt;Node3 -->
<g id="edge2" class="edge">
<title>Node2&#45;&gt;Node3</title>
<path fill="none" stroke="midnightblue" d="M1881.64,-299.23C2007.96,-295.94 2500.67,-281.99 2905,-255 2906.28,-254.91 2907.58,-254.83 2908.88,-254.74"/>
<polygon fill="midnightblue" stroke="midnightblue" points="2909.25,-258.22 2918.97,-254 2908.74,-251.24 2909.25,-258.22"/>
</g>
<!-- Node9 -->
<g id="node9" class="node">
<title>Node9</title>
<g id="a_node9"><a xlink:title=" ">
<polygon fill="white" stroke="#bfbfbf" points="2839.5,-0.5 2839.5,-30.5 2952.5,-30.5 2952.5,-0.5 2839.5,-0.5"/>
<text text-anchor="start" x="2847.5" y="-18.5" font-family="Helvetica,sans-Serif" font-size="10.00">boost/property_tree</text>
<text text-anchor="middle" x="2896" y="-7.5" font-family="Helvetica,sans-Serif" font-size="10.00">/ptree.hpp</text>
</a>
</g>
</g>
<!-- Node2&#45;&gt;Node9 -->
<g id="edge72" class="edge">
<title>Node2&#45;&gt;Node9</title>
<path fill="none" stroke="midnightblue" d="M1881.52,-299.93C2048.52,-299.38 2853.15,-294.67 3098,-255 3194.86,-239.31 3309,-288.13 3309,-190 3309,-190 3309,-190 3309,-132 3309,-60.99 3079.72,-31.68 2962.83,-21.35"/>
<polygon fill="midnightblue" stroke="midnightblue" points="2962.82,-17.83 2952.56,-20.46 2962.22,-24.81 2962.82,-17.83"/>
</g>
<!-- Node10 -->
<g id="node10" class="node">
<title>Node10</title>
<g id="a_node10"><a xlink:title=" ">
<polygon fill="white" stroke="#bfbfbf" points="2708.5,-0.5 2708.5,-30.5 2821.5,-30.5 2821.5,-0.5 2708.5,-0.5"/>
<text text-anchor="start" x="2716.5" y="-18.5" font-family="Helvetica,sans-Serif" font-size="10.00">boost/property_tree</text>
<text text-anchor="middle" x="2765" y="-7.5" font-family="Helvetica,sans-Serif" font-size="10.00">/json_parser.hpp</text>
</a>
</g>
</g>
<!-- Node2&#45;&gt;Node10 -->
<g id="edge73" class="edge">
<title>Node2&#45;&gt;Node10</title>
<path fill="none" stroke="midnightblue" d="M1820.18,-300.14C1600.87,-300.98 280.46,-303.97 110,-255 55.42,-239.32 0,-246.79 0,-190 0,-190 0,-190 0,-132 0,-62.26 2275.63,-24 2697.99,-17.5"/>
<polygon fill="midnightblue" stroke="midnightblue" points="2698.25,-20.99 2708.2,-17.34 2698.15,-13.99 2698.25,-20.99"/>
</g>
<!-- Node32 -->
<g id="node13" class="node">
<title>Node32</title>
<g id="a_node13"><a xlink:href="_o_m_sim_physics_list_8hh.html" target="_top" xlink:title=" ">
<polygon fill="white" stroke="black" points="119.5,-235.5 119.5,-254.5 240.5,-254.5 240.5,-235.5 119.5,-235.5"/>
<text text-anchor="middle" x="180" y="-242.5" font-family="Helvetica,sans-Serif" font-size="10.00">OMSimPhysicsList.hh</text>
</a>
</g>
</g>
<!-- Node2&#45;&gt;Node32 -->
<g id="edge18" class="edge">
<title>Node2&#45;&gt;Node32</title>
<path fill="none" stroke="midnightblue" d="M1820.39,-300.3C1658.94,-301.62 889.73,-304.96 250.88,-255.06"/>
<polygon fill="midnightblue" stroke="midnightblue" points="250.79,-251.55 240.55,-254.25 250.24,-258.52 250.79,-251.55"/>
</g>
<!-- Node35 -->
<g id="node16" class="node">
<title>Node35</title>
<g id="a_node16"><a xlink:href="_o_m_sim_primary_generator_action_8hh.html" target="_top" xlink:title=" ">
<polygon fill="white" stroke="black" points="258.5,-235.5 258.5,-254.5 443.5,-254.5 443.5,-235.5 258.5,-235.5"/>
<text text-anchor="middle" x="351" y="-242.5" font-family="Helvetica,sans-Serif" font-size="10.00">OMSimPrimaryGeneratorAction.hh</text>
</a>
</g>
</g>
<!-- Node2&#45;&gt;Node35 -->
<g id="edge21" class="edge">
<title>Node2&#45;&gt;Node35</title>
<path fill="none" stroke="midnightblue" d="M1820.25,-299.14C1675.24,-295.05 1045.24,-276.84 529,-255 504.68,-253.97 478.5,-252.73 453.9,-251.49"/>
<polygon fill="midnightblue" stroke="midnightblue" points="454,-247.99 443.83,-250.98 453.64,-254.98 454,-247.99"/>
</g>
<!-- Node37 -->
<g id="node18" class="node">
<title>Node37</title>
<g id="a_node18"><a xlink:href="_o_m_sim_run_action_8hh.html" target="_top" xlink:title=" ">
<polygon fill="white" stroke="black" points="538,-235.5 538,-254.5 654,-254.5 654,-235.5 538,-235.5"/>
<text text-anchor="middle" x="596" y="-242.5" font-family="Helvetica,sans-Serif" font-size="10.00">OMSimRunAction.hh</text>
</a>
</g>
</g>
<!-- Node2&#45;&gt;Node37 -->
<g id="edge24" class="edge">
<title>Node2&#45;&gt;Node37</title>
<path fill="none" stroke="midnightblue" d="M1820.19,-299.92C1684.94,-299.32 1130.3,-294.51 664.37,-255.03"/>
<polygon fill="midnightblue" stroke="midnightblue" points="664.33,-251.51 654.07,-254.15 663.73,-258.48 664.33,-251.51"/>
</g>
<!-- Node39 -->
<g id="node20" class="node">
<title>Node39</title>
<g id="a_node20"><a xlink:href="_o_m_sim_event_action_8hh.html" target="_top" xlink:title=" ">
<polygon fill="white" stroke="black" points="672.5,-235.5 672.5,-254.5 797.5,-254.5 797.5,-235.5 672.5,-235.5"/>
<text text-anchor="middle" x="735" y="-242.5" font-family="Helvetica,sans-Serif" font-size="10.00">OMSimEventAction.hh</text>
</a>
</g>
</g>
<!-- Node2&#45;&gt;Node39 -->
<g id="edge27" class="edge">
<title>Node2&#45;&gt;Node39</title>
<path fill="none" stroke="midnightblue" d="M1820.35,-299.49C1695.08,-297.24 1209.75,-286.82 812,-255 810.53,-254.88 809.05,-254.76 807.56,-254.63"/>
<polygon fill="midnightblue" stroke="midnightblue" points="807.86,-251.14 797.58,-253.7 807.21,-258.11 807.86,-251.14"/>
</g>
<!-- Node41 -->
<g id="node22" class="node">
<title>Node41</title>
<g id="a_node22"><a xlink:title=" ">
<polygon fill="white" stroke="#bfbfbf" points="859,-123.5 859,-142.5 903,-142.5 903,-123.5 859,-123.5"/>
<text text-anchor="middle" x="881" y="-130.5" font-family="Helvetica,sans-Serif" font-size="10.00">string</text>
</a>
</g>
</g>
<!-- Node2&#45;&gt;Node41 -->
<g id="edge69" class="edge">
<title>Node2&#45;&gt;Node41</title>
<path fill="none" stroke="midnightblue" d="M1820.32,-299.7C1686.4,-298.21 1152.55,-290.12 989,-255 921.86,-240.58 883.77,-255.68 845,-199 833.94,-182.83 848.67,-162.97 862.49,-149.49"/>
<polygon fill="midnightblue" stroke="midnightblue" points="864.88,-152.05 869.9,-142.72 860.15,-146.88 864.88,-152.05"/>
</g>
<!-- Node42 -->
<g id="node23" class="node">
<title>Node42</title>
<g id="a_node23"><a xlink:href="_o_m_sim_tracking_action_8hh.html" target="_top" xlink:title=" ">
<polygon fill="white" stroke="black" points="1302,-235.5 1302,-254.5 1440,-254.5 1440,-235.5 1302,-235.5"/>
<text text-anchor="middle" x="1371" y="-242.5" font-family="Helvetica,sans-Serif" font-size="10.00">OMSimTrackingAction.hh</text>
</a>
</g>
</g>
<!-- Node2&#45;&gt;Node42 -->
<g id="edge30" class="edge">
<title>Node2&#45;&gt;Node42</title>
<path fill="none" stroke="midnightblue" d="M1820.49,-296.62C1754.84,-289.34 1595.08,-271.58 1450.28,-255.14"/>
<polygon fill="midnightblue" stroke="midnightblue" points="1450.65,-251.66 1440.32,-254.01 1449.86,-258.62 1450.65,-251.66"/>
</g>
<!-- Node44 -->
<g id="node25" class="node">
<title>Node44</title>
<g id="a_node25"><a xlink:href="_o_m_sim_stepping_action_8hh.html" target="_top" xlink:title=" ">
<polygon fill="white" stroke="black" points="1458,-235.5 1458,-254.5 1598,-254.5 1598,-235.5 1458,-235.5"/>
<text text-anchor="middle" x="1528" y="-242.5" font-family="Helvetica,sans-Serif" font-size="10.00">OMSimSteppingAction.hh</text>
</a>
</g>
</g>
<!-- Node2&#45;&gt;Node44 -->
<g id="edge32" class="edge">
<title>Node2&#45;&gt;Node44</title>
<path fill="none" stroke="midnightblue" d="M1820.32,-294.87C1767.45,-286.03 1658.21,-267.77 1589.27,-256.24"/>
<polygon fill="midnightblue" stroke="midnightblue" points="1589.42,-252.72 1578.98,-254.52 1588.27,-259.62 1589.42,-252.72"/>
</g>
<!-- Node47 -->
<g id="node28" class="node">
<title>Node47</title>
<g id="a_node28"><a xlink:title=" ">
<polygon fill="white" stroke="#bfbfbf" points="1749.5,-179.5 1749.5,-198.5 1852.5,-198.5 1852.5,-179.5 1749.5,-179.5"/>
<text text-anchor="middle" x="1801" y="-186.5" font-family="Helvetica,sans-Serif" font-size="10.00">G4ThreeVector.hh</text>
</a>
</g>
</g>
<!-- Node2&#45;&gt;Node47 -->
<g id="edge59" class="edge">
<title>Node2&#45;&gt;Node47</title>
<path fill="none" stroke="midnightblue" d="M1820.1,-297.87C1768.1,-293.57 1666.64,-281.87 1645,-255 1639.43,-248.08 1639.66,-242.1 1645,-235 1656.67,-219.49 1700.91,-207.65 1739.32,-200.01"/>
<polygon fill="midnightblue" stroke="midnightblue" points="1740.29,-203.39 1749.45,-198.07 1738.97,-196.52 1740.29,-203.39"/>
</g>
<!-- Node49 -->
<g id="node30" class="node">
<title>Node49</title>
<g id="a_node30"><a xlink:href="_o_m_sim_analysis_manager_8hh.html" target="_top" xlink:title=" ">
<polygon fill="white" stroke="black" points="1654,-235.5 1654,-254.5 1804,-254.5 1804,-235.5 1654,-235.5"/>
<text text-anchor="middle" x="1729" y="-242.5" font-family="Helvetica,sans-Serif" font-size="10.00">OMSimAnalysisManager.hh</text>
</a>
</g>
</g>
<!-- Node2&#45;&gt;Node49 -->
<g id="edge37" class="edge">
<title>Node2&#45;&gt;Node49</title>
<path fill="none" stroke="midnightblue" d="M1831.67,-291.44C1811.68,-282.6 1780.26,-268.69 1757.44,-258.59"/>
<polygon fill="midnightblue" stroke="midnightblue" points="1758.8,-255.36 1748.24,-254.52 1755.97,-261.76 1758.8,-255.36"/>
</g>
<!-- Node50 -->
<g id="node31" class="node">
<title>Node50</title>
<g id="a_node31"><a xlink:href="_o_m_sim_p_m_t_response_8hh.html" target="_top" xlink:title=" ">
<polygon fill="white" stroke="red" points="1974.5,-179.5 1974.5,-198.5 2109.5,-198.5 2109.5,-179.5 1974.5,-179.5"/>
<text text-anchor="middle" x="2042" y="-186.5" font-family="Helvetica,sans-Serif" font-size="10.00">OMSimPMTResponse.hh</text>
</a>
</g>
</g>
<!-- Node2&#45;&gt;Node50 -->
<g id="edge46" class="edge">
<title>Node2&#45;&gt;Node50</title>
<path fill="none" stroke="midnightblue" d="M1848.76,-291.23C1845.82,-277.5 1842.5,-250.86 1856,-235 1870.31,-218.18 1919.92,-206.7 1964.31,-199.54"/>
<polygon fill="midnightblue" stroke="midnightblue" points="1964.93,-202.98 1974.27,-197.99 1963.85,-196.07 1964.93,-202.98"/>
</g>
<!-- Node52 -->
<g id="node32" class="node">
<title>Node52</title>
<g id="a_node32"><a xlink:title=" ">
<polygon fill="white" stroke="#bfbfbf" points="2287.5,-123.5 2287.5,-142.5 2348.5,-142.5 2348.5,-123.5 2287.5,-123.5"/>
<text text-anchor="middle" x="2318" y="-130.5" font-family="Helvetica,sans-Serif" font-size="10.00">TGraph.h</text>
</a>
</g>
</g>
<!-- Node2&#45;&gt;Node52 -->
<g id="edge74" class="edge">
<title>Node2&#45;&gt;Node52</title>
<path fill="none" stroke="midnightblue" d="M1881.5,-299.83C2047.6,-298.75 2836.89,-291.7 2872,-255 2878.15,-248.58 2877.74,-241.79 2872,-235 2841.17,-198.49 2707.03,-207.46 2660,-199 2550.97,-179.38 2422.74,-154.54 2358.7,-142"/>
<polygon fill="midnightblue" stroke="midnightblue" points="2359.11,-138.52 2348.62,-140.03 2357.76,-145.39 2359.11,-138.52"/>
</g>
<!-- Node56 -->
<g id="node34" class="node">
<title>Node56</title>
<g id="a_node34"><a xlink:title=" ">
<polygon fill="white" stroke="#bfbfbf" points="2127.5,-179.5 2127.5,-198.5 2182.5,-198.5 2182.5,-179.5 2127.5,-179.5"/>
<text text-anchor="middle" x="2155" y="-186.5" font-family="Helvetica,sans-Serif" font-size="10.00">fstream</text>
</a>
</g>
</g>
<!-- Node2&#45;&gt;Node56 -->
<g id="edge68" class="edge">
<title>Node2&#45;&gt;Node56</title>
<path fill="none" stroke="midnightblue" d="M1853.47,-291.15C1857.96,-276.81 1868.92,-248.71 1889,-235 1971.44,-178.74 2014.25,-216.65 2117.04,-198.92"/>
<polygon fill="midnightblue" stroke="midnightblue" points="2117.99,-202.31 2127.17,-197.03 2116.7,-195.43 2117.99,-202.31"/>
</g>
<!-- Node57 -->
<g id="node35" class="node">
<title>Node57</title>
<g id="a_node35"><a xlink:href="_o_m_sim_command_args_table_8hh.html" target="_top" xlink:title="Definition of the OMSimCommandArgsTable singleton class, which controls user args.">
<polygon fill="white" stroke="red" points="854,-179.5 854,-198.5 1018,-198.5 1018,-179.5 854,-179.5"/>
<text text-anchor="middle" x="936" y="-186.5" font-family="Helvetica,sans-Serif" font-size="10.00">OMSimCommandArgsTable.hh</text>
</a>
</g>
</g>
<!-- Node2&#45;&gt;Node57 -->
<g id="edge47" class="edge">
<title>Node2&#45;&gt;Node57</title>
<path fill="none" stroke="midnightblue" d="M1820.29,-299.28C1680.49,-295.89 1107.74,-280.52 1032,-255 1001.02,-244.56 970.71,-221.2 952.69,-205.52"/>
<polygon fill="midnightblue" stroke="midnightblue" points="954.66,-202.59 944.88,-198.53 949.99,-207.81 954.66,-202.59"/>
</g>
<!-- Node61 -->
<g id="node36" class="node">
<title>Node61</title>
<g id="a_node36"><a xlink:title=" ">
<polygon fill="white" stroke="#bfbfbf" points="1108,-123.5 1108,-142.5 1176,-142.5 1176,-123.5 1108,-123.5"/>
<text text-anchor="middle" x="1142" y="-130.5" font-family="Helvetica,sans-Serif" font-size="10.00">sys/time.h</text>
</a>
</g>
</g>
<!-- Node2&#45;&gt;Node61 -->
<g id="edge65" class="edge">
<title>Node2&#45;&gt;Node61</title>
<path fill="none" stroke="midnightblue" d="M1820.29,-299.27C1709.81,-296.4 1336.85,-284.6 1293,-255 1261.7,-233.87 1282.81,-204.55 1255,-179 1235.77,-161.33 1208.74,-150.23 1185.94,-143.47"/>
<polygon fill="midnightblue" stroke="midnightblue" points="1186.7,-140.06 1176.13,-140.75 1184.83,-146.8 1186.7,-140.06"/>
</g>
<!-- Node65 -->
<g id="node37" class="node">
<title>Node65</title>
<g id="a_node37"><a xlink:href="_o_m_sim_u_iinterface_8hh.html" target="_top" xlink:title="The OMSimUIinterface class provides a singleton interface to Geant4&#39;s UI manager.">
<polygon fill="white" stroke="red" points="1041.5,-235.5 1041.5,-254.5 1162.5,-254.5 1162.5,-235.5 1041.5,-235.5"/>
<text text-anchor="middle" x="1102" y="-242.5" font-family="Helvetica,sans-Serif" font-size="10.00">OMSimUIinterface.hh</text>
</a>
</g>
</g>
<!-- Node2&#45;&gt;Node65 -->
<g id="edge51" class="edge">
<title>Node2&#45;&gt;Node65</title>
<path fill="none" stroke="midnightblue" d="M1820.48,-298.5C1725.41,-293.69 1426.14,-277.7 1179,-255 1177.04,-254.82 1175.05,-254.63 1173.05,-254.43"/>
<polygon fill="midnightblue" stroke="midnightblue" points="1173.22,-250.93 1162.92,-253.4 1172.51,-257.9 1173.22,-250.93"/>
</g>
<!-- Node22 -->
<g id="node38" class="node">
<title>Node22</title>
<g id="a_node38"><a xlink:title=" ">
<polygon fill="white" stroke="#bfbfbf" points="1074,-179.5 1074,-198.5 1130,-198.5 1130,-179.5 1074,-179.5"/>
<text text-anchor="middle" x="1102" y="-186.5" font-family="Helvetica,sans-Serif" font-size="10.00">sstream</text>
</a>
</g>
</g>
<!-- Node2&#45;&gt;Node22 -->
<g id="edge66" class="edge">
<title>Node2&#45;&gt;Node22</title>
<path fill="none" stroke="midnightblue" d="M1820.35,-299.4C1711.24,-297 1342.26,-286.67 1229,-255 1189.23,-243.88 1147.41,-219.68 1123.06,-204.15"/>
<polygon fill="midnightblue" stroke="midnightblue" points="1124.92,-201.18 1114.63,-198.67 1121.11,-207.05 1124.92,-201.18"/>
</g>
<!-- Node66 -->
<g id="node39" class="node">
<title>Node66</title>
<g id="a_node39"><a xlink:title=" ">
<polygon fill="white" stroke="#bfbfbf" points="1148,-179.5 1148,-198.5 1246,-198.5 1246,-179.5 1148,-179.5"/>
<text text-anchor="middle" x="1197" y="-186.5" font-family="Helvetica,sans-Serif" font-size="10.00">G4UImanager.hh</text>
</a>
</g>
</g>
<!-- Node2&#45;&gt;Node66 -->
<g id="edge57" class="edge">
<title>Node2&#45;&gt;Node66</title>
<path fill="none" stroke="midnightblue" d="M1820.33,-300.49C1713.81,-301.78 1360.85,-302.3 1260,-255 1237.85,-244.61 1219.34,-222.82 1208.23,-207.33"/>
<polygon fill="midnightblue" stroke="midnightblue" points="1210.84,-204.95 1202.31,-198.67 1205.06,-208.9 1210.84,-204.95"/>
</g>
<!-- Node67 -->
<g id="node40" class="node">
<title>Node67</title>
<g id="a_node40"><a xlink:title=" ">
<polygon fill="white" stroke="#bfbfbf" points="1898,-235.5 1898,-254.5 2004,-254.5 2004,-235.5 1898,-235.5"/>
<text text-anchor="middle" x="1951" y="-242.5" font-family="Helvetica,sans-Serif" font-size="10.00">G4RunManager.hh</text>
</a>
</g>
</g>
<!-- Node2&#45;&gt;Node67 -->
<g id="edge56" class="edge">
<title>Node2&#45;&gt;Node67</title>
<path fill="none" stroke="midnightblue" d="M1867.07,-291.32C1882.96,-282.74 1907.51,-269.49 1925.96,-259.52"/>
<polygon fill="midnightblue" stroke="midnightblue" points="1927.84,-262.49 1934.97,-254.65 1924.51,-256.33 1927.84,-262.49"/>
</g>
<!-- Node68 -->
<g id="node41" class="node">
<title>Node68</title>
<g id="a_node41"><a xlink:title=" ">
<polygon fill="white" stroke="#bfbfbf" points="2022.5,-235.5 2022.5,-254.5 2119.5,-254.5 2119.5,-235.5 2022.5,-235.5"/>
<text text-anchor="middle" x="2071" y="-242.5" font-family="Helvetica,sans-Serif" font-size="10.00">G4UIterminal.hh</text>
</a>
</g>
</g>
<!-- Node2&#45;&gt;Node68 -->
<g id="edge58" class="edge">
<title>Node2&#45;&gt;Node68</title>
<path fill="none" stroke="midnightblue" d="M1881.59,-292.49C1919.19,-283.26 1983.3,-267.53 2026.39,-256.95"/>
<polygon fill="midnightblue" stroke="midnightblue" points="2027.45,-260.29 2036.32,-254.51 2025.78,-253.5 2027.45,-260.29"/>
</g>
<!-- Node29 -->
<g id="node42" class="node">
<title>Node29</title>
<g id="a_node42"><a xlink:title=" ">
<polygon fill="white" stroke="#bfbfbf" points="2138,-235.5 2138,-254.5 2230,-254.5 2230,-235.5 2138,-235.5"/>
<text text-anchor="middle" x="2184" y="-242.5" font-family="Helvetica,sans-Serif" font-size="10.00">G4Navigator.hh</text>
</a>
</g>
</g>
<!-- Node2&#45;&gt;Node29 -->
<g id="edge60" class="edge">
<title>Node2&#45;&gt;Node29</title>
<path fill="none" stroke="midnightblue" d="M1881.73,-295.02C1937.67,-285.95 2056.86,-266.62 2127.72,-255.13"/>
<polygon fill="midnightblue" stroke="midnightblue" points="2128.5,-258.55 2137.81,-253.49 2127.38,-251.64 2128.5,-258.55"/>
</g>
<!-- Node69 -->
<g id="node43" class="node">
<title>Node69</title>
<g id="a_node43"><a xlink:title=" ">
<polygon fill="white" stroke="#bfbfbf" points="2248,-235.5 2248,-254.5 2324,-254.5 2324,-235.5 2248,-235.5"/>
<text text-anchor="middle" x="2286" y="-242.5" font-family="Helvetica,sans-Serif" font-size="10.00">G4UItcsh.hh</text>
</a>
</g>
</g>
<!-- Node2&#45;&gt;Node69 -->
<g id="edge61" class="edge">
<title>Node2&#45;&gt;Node69</title>
<path fill="none" stroke="midnightblue" d="M1881.54,-297.23C1945.62,-291.25 2099.04,-276.08 2237.85,-255.08"/>
<polygon fill="midnightblue" stroke="midnightblue" points="2238.46,-258.52 2247.82,-253.55 2237.41,-251.6 2238.46,-258.52"/>
</g>
<!-- Node70 -->
<g id="node44" class="node">
<title>Node70</title>
<g id="a_node44"><a xlink:title=" ">
<polygon fill="white" stroke="#bfbfbf" points="2342.5,-235.5 2342.5,-254.5 2449.5,-254.5 2449.5,-235.5 2342.5,-235.5"/>
<text text-anchor="middle" x="2396" y="-242.5" font-family="Helvetica,sans-Serif" font-size="10.00">G4VisExecutive.hh</text>
</a>
</g>
</g>
<!-- Node2&#45;&gt;Node70 -->
<g id="edge62" class="edge">
<title>Node2&#45;&gt;Node70</title>
<path fill="none" stroke="midnightblue" d="M1881.51,-297.67C1956.34,-291.85 2155.17,-275.71 2332.38,-255.02"/>
<polygon fill="midnightblue" stroke="midnightblue" points="2332.88,-258.48 2342.41,-253.84 2332.07,-251.53 2332.88,-258.48"/>
</g>
<!-- Node71 -->
<g id="node45" class="node">
<title>Node71</title>
<g id="a_node45"><a xlink:title=" ">
<polygon fill="white" stroke="#bfbfbf" points="2467.5,-235.5 2467.5,-254.5 2570.5,-254.5 2570.5,-235.5 2467.5,-235.5"/>
<text text-anchor="middle" x="2519" y="-242.5" font-family="Helvetica,sans-Serif" font-size="10.00">G4UIExecutive.hh</text>
</a>
</g>
</g>
<!-- Node2&#45;&gt;Node71 -->
<g id="edge63" class="edge">
<title>Node2&#45;&gt;Node71</title>
<path fill="none" stroke="midnightblue" d="M1881.71,-298.51C1969.61,-294.09 2229.92,-279.81 2457.33,-254.99"/>
<polygon fill="midnightblue" stroke="midnightblue" points="2457.89,-258.45 2467.45,-253.87 2457.13,-251.49 2457.89,-258.45"/>
</g>
<!-- Node72 -->
<g id="node46" class="node">
<title>Node72</title>
<g id="a_node46"><a xlink:title=" ">
<polygon fill="white" stroke="#bfbfbf" points="2589,-235.5 2589,-254.5 2633,-254.5 2633,-235.5 2589,-235.5"/>
<text text-anchor="middle" x="2611" y="-242.5" font-family="Helvetica,sans-Serif" font-size="10.00">ctime</text>
</a>
</g>
</g>
<!-- Node2&#45;&gt;Node72 -->
<g id="edge64" class="edge">
<title>Node2&#45;&gt;Node72</title>
<path fill="none" stroke="midnightblue" d="M1881.78,-300.42C1981.38,-301.3 2303.82,-300.32 2578.59,-254.62"/>
<polygon fill="midnightblue" stroke="midnightblue" points="2579.48,-258.02 2588.76,-252.91 2578.32,-251.12 2579.48,-258.02"/>
</g>
<!-- Node73 -->
<g id="node47" class="node">
<title>Node73</title>
<g id="a_node47"><a xlink:title=" ">
<polygon fill="white" stroke="#bfbfbf" points="2651,-235.5 2651,-254.5 2711,-254.5 2711,-235.5 2651,-235.5"/>
<text text-anchor="middle" x="2681" y="-242.5" font-family="Helvetica,sans-Serif" font-size="10.00">iostream</text>
</a>
</g>
</g>
<!-- Node2&#45;&gt;Node73 -->
<g id="edge67" class="edge">
<title>Node2&#45;&gt;Node73</title>
<path fill="none" stroke="midnightblue" d="M1881.73,-300.12C1986.61,-300.15 2340.16,-297.02 2640.64,-254.94"/>
<polygon fill="midnightblue" stroke="midnightblue" points="2641.45,-258.36 2650.86,-253.49 2640.47,-251.43 2641.45,-258.36"/>
</g>
<!-- Node74 -->
<g id="node48" class="node">
<title>Node74</title>
<g id="a_node48"><a xlink:title=" ">
<polygon fill="white" stroke="#bfbfbf" points="2729.5,-235.5 2729.5,-254.5 2776.5,-254.5 2776.5,-235.5 2729.5,-235.5"/>
<text text-anchor="middle" x="2753" y="-242.5" font-family="Helvetica,sans-Serif" font-size="10.00">cmath</text>
</a>
</g>
</g>
<!-- Node2&#45;&gt;Node74 -->
<g id="edge70" class="edge">
<title>Node2&#45;&gt;Node74</title>
<path fill="none" stroke="midnightblue" d="M1881.85,-299.29C2014.02,-296.11 2533.71,-282.23 2719.18,-254.68"/>
<polygon fill="midnightblue" stroke="midnightblue" points="2720,-258.1 2729.34,-253.11 2718.92,-251.18 2720,-258.1"/>
</g>
<!-- Node75 -->
<g id="node49" class="node">
<title>Node75</title>
<g id="a_node49"><a xlink:title=" ">
<polygon fill="white" stroke="#bfbfbf" points="2795,-235.5 2795,-254.5 2863,-254.5 2863,-235.5 2795,-235.5"/>
<text text-anchor="middle" x="2829" y="-242.5" font-family="Helvetica,sans-Serif" font-size="10.00">filesystem</text>
</a>
</g>
</g>
<!-- Node2&#45;&gt;Node75 -->
<g id="edge71" class="edge">
<title>Node2&#45;&gt;Node75</title>
<path fill="none" stroke="midnightblue" d="M1881.79,-300.23C1999.51,-300.74 2432.25,-299.31 2785,-255 2785.1,-254.99 2785.2,-254.97 2785.3,-254.96"/>
<polygon fill="midnightblue" stroke="midnightblue" points="2785.61,-258.45 2794.98,-253.5 2784.56,-251.53 2785.61,-258.45"/>
</g>
<!-- Node2&#45;&gt;Node76 -->
<g id="edge75" class="edge">
<title>Node2&#45;&gt;Node76</title>
<path fill="none" stroke="midnightblue" d="M1881.6,-299.86C2035.96,-299 2744.51,-293.04 3323,-255 3324.12,-254.93 3325.25,-254.85 3326.39,-254.77"/>
<polygon fill="midnightblue" stroke="midnightblue" points="3327.06,-258.23 3336.77,-253.98 3326.53,-251.25 3327.06,-258.23"/>
</g>
<!-- Node4 -->
<g id="node4" class="node">
<title>Node4</title>
<g id="a_node4"><a xlink:title=" ">
<polygon fill="white" stroke="#bfbfbf" points="2931,-67.5 2931,-86.5 3047,-86.5 3047,-67.5 2931,-67.5"/>
<text text-anchor="middle" x="2989" y="-74.5" font-family="Helvetica,sans-Serif" font-size="10.00">G4LogicalVolume.hh</text>
</a>
</g>
</g>
<!-- Node3&#45;&gt;Node4 -->
<g id="edge3" class="edge">
<title>Node3&#45;&gt;Node4</title>
<path fill="none" stroke="midnightblue" d="M3009.13,-235.41C3014.06,-226.61 3021.16,-212.38 3024,-199 3031.94,-161.56 3012.67,-118.77 2999.68,-95.43"/>
<polygon fill="midnightblue" stroke="midnightblue" points="3002.65,-93.58 2994.6,-86.7 2996.6,-97.1 3002.65,-93.58"/>
</g>
<!-- Node5 -->
<g id="node5" class="node">
<title>Node5</title>
<g id="a_node5"><a xlink:title=" ">
<polygon fill="white" stroke="#bfbfbf" points="3071,-179.5 3071,-198.5 3133,-198.5 3133,-179.5 3071,-179.5"/>
<text text-anchor="middle" x="3102" y="-186.5" font-family="Helvetica,sans-Serif" font-size="10.00">G4Orb.hh</text>
</a>
</g>
</g>
<!-- Node3&#45;&gt;Node5 -->
<g id="edge4" class="edge">
<title>Node3&#45;&gt;Node5</title>
<path fill="none" stroke="midnightblue" d="M3019.75,-235.32C3035.32,-226.74 3059.38,-213.49 3077.46,-203.52"/>
<polygon fill="midnightblue" stroke="midnightblue" points="3079.22,-206.55 3086.29,-198.65 3075.85,-200.42 3079.22,-206.55"/>
</g>
<!-- Node6 -->
<g id="node6" class="node">
<title>Node6</title>
<g id="a_node6"><a xlink:title=" ">
<polygon fill="white" stroke="#bfbfbf" points="3151.5,-179.5 3151.5,-198.5 3280.5,-198.5 3280.5,-179.5 3151.5,-179.5"/>
<text text-anchor="middle" x="3216" y="-186.5" font-family="Helvetica,sans-Serif" font-size="10.00">G4VPhysicalVolume.hh</text>
</a>
</g>
</g>
<!-- Node3&#45;&gt;Node6 -->
<g id="edge5" class="edge">
<title>Node3&#45;&gt;Node6</title>
<path fill="none" stroke="midnightblue" d="M3037.59,-235.44C3074.19,-226.12 3132.84,-211.18 3172.83,-201"/>
<polygon fill="midnightblue" stroke="midnightblue" points="3173.74,-204.38 3182.57,-198.52 3172.01,-197.59 3173.74,-204.38"/>
</g>
<!-- Node7 -->
<g id="node7" class="node">
<title>Node7</title>
<g id="a_node7"><a xlink:title=" ">
<polygon fill="white" stroke="#bfbfbf" points="2681,-179.5 2681,-198.5 2859,-198.5 2859,-179.5 2681,-179.5"/>
<text text-anchor="middle" x="2770" y="-186.5" font-family="Helvetica,sans-Serif" font-size="10.00">G4VUserDetectorConstruction.hh</text>
</a>
</g>
</g>
<!-- Node3&#45;&gt;Node7 -->
<g id="edge6" class="edge">
<title>Node3&#45;&gt;Node7</title>
<path fill="none" stroke="midnightblue" d="M2966.92,-235.44C2926.27,-226.06 2860.97,-210.99 2816.82,-200.8"/>
<polygon fill="midnightblue" stroke="midnightblue" points="2817.44,-197.35 2806.9,-198.52 2815.86,-204.18 2817.44,-197.35"/>
</g>
<!-- Node8 -->
<g id="node8" class="node">
<title>Node8</title>
<g id="a_node8"><a xlink:href="_o_m_sim_input_data_8hh.html" target="_top" xlink:title=" ">
<polygon fill="white" stroke="red" points="2708.5,-67.5 2708.5,-86.5 2823.5,-86.5 2823.5,-67.5 2708.5,-67.5"/>
<text text-anchor="middle" x="2766" y="-74.5" font-family="Helvetica,sans-Serif" font-size="10.00">OMSimInputData.hh</text>
</a>
</g>
</g>
<!-- Node3&#45;&gt;Node8 -->
<g id="edge7" class="edge">
<title>Node3&#45;&gt;Node8</title>
<path fill="none" stroke="midnightblue" d="M2920.79,-235.46C2825.14,-225.25 2680.17,-208.35 2672,-199 2639.49,-161.79 2703.65,-114.87 2741.31,-91.92"/>
<polygon fill="midnightblue" stroke="midnightblue" points="2743.42,-94.74 2750.24,-86.63 2739.85,-88.72 2743.42,-94.74"/>
</g>
<!-- Node15 -->
<g id="node11" class="node">
<title>Node15</title>
<g id="a_node11"><a xlink:href="_o_m_sim_p_m_t_construction_8hh.html" target="_top" xlink:title=" ">
<polygon fill="white" stroke="red" points="2812.5,-123.5 2812.5,-142.5 2961.5,-142.5 2961.5,-123.5 2812.5,-123.5"/>
<text text-anchor="middle" x="2887" y="-130.5" font-family="Helvetica,sans-Serif" font-size="10.00">OMSimPMTConstruction.hh</text>
</a>
</g>
</g>
<!-- Node3&#45;&gt;Node15 -->
<g id="edge10" class="edge">
<title>Node3&#45;&gt;Node15</title>
<path fill="none" stroke="midnightblue" d="M2967.71,-235.41C2946.93,-228.74 2921.91,-217.42 2906,-199 2894.84,-186.08 2890.23,-166.91 2888.33,-152.73"/>
<polygon fill="midnightblue" stroke="midnightblue" points="2891.8,-152.25 2887.31,-142.65 2884.83,-152.95 2891.8,-152.25"/>
</g>
<!-- Node27 -->
<g id="node12" class="node">
<title>Node27</title>
<g id="a_node12"><a xlink:href="_o_m_sim_m_d_o_m_8hh.html" target="_top" xlink:title=" ">
<polygon fill="white" stroke="red" points="2915,-179.5 2915,-198.5 3015,-198.5 3015,-179.5 2915,-179.5"/>
<text text-anchor="middle" x="2965" y="-186.5" font-family="Helvetica,sans-Serif" font-size="10.00">OMSimMDOM.hh</text>
</a>
</g>
</g>
<!-- Node3&#45;&gt;Node27 -->
<g id="edge15" class="edge">
<title>Node3&#45;&gt;Node27</title>
<path fill="none" stroke="midnightblue" d="M2997.56,-235.08C2992.05,-227.46 2983.97,-216.26 2977.24,-206.94"/>
<polygon fill="midnightblue" stroke="midnightblue" points="2980.01,-204.81 2971.32,-198.75 2974.34,-208.91 2980.01,-204.81"/>
</g>
<!-- Node8&#45;&gt;Node9 -->
<g id="edge8" class="edge">
<title>Node8&#45;&gt;Node9</title>
<path fill="none" stroke="midnightblue" d="M2784.63,-67.48C2803.22,-58.96 2832.38,-45.62 2856.2,-34.72"/>
<polygon fill="midnightblue" stroke="midnightblue" points="2857.73,-37.87 2865.36,-30.52 2854.81,-31.5 2857.73,-37.87"/>
</g>
<!-- Node8&#45;&gt;Node10 -->
<g id="edge9" class="edge">
<title>Node8&#45;&gt;Node10</title>
<path fill="none" stroke="midnightblue" d="M2765.86,-67.48C2765.74,-60.47 2765.57,-50.19 2765.41,-40.7"/>
<polygon fill="midnightblue" stroke="midnightblue" points="2768.9,-40.46 2765.24,-30.52 2761.9,-40.58 2768.9,-40.46"/>
</g>
<!-- Node15&#45;&gt;Node4 -->
<g id="edge13" class="edge">
<title>Node15&#45;&gt;Node4</title>
<path fill="none" stroke="midnightblue" d="M2903.39,-123.32C2919.67,-114.7 2944.87,-101.36 2963.72,-91.39"/>
<polygon fill="midnightblue" stroke="midnightblue" points="2965.45,-94.43 2972.65,-86.65 2962.18,-88.24 2965.45,-94.43"/>
</g>
<!-- Node15&#45;&gt;Node8 -->
<g id="edge14" class="edge">
<title>Node15&#45;&gt;Node8</title>
<path fill="none" stroke="midnightblue" d="M2867.83,-123.44C2848.09,-114.64 2817.11,-100.81 2794.51,-90.72"/>
<polygon fill="midnightblue" stroke="midnightblue" points="2795.64,-87.4 2785.08,-86.52 2792.79,-93.79 2795.64,-87.4"/>
</g>
<!-- Node15&#45;&gt;Node9 -->
<g id="edge11" class="edge">
<title>Node15&#45;&gt;Node9</title>
<path fill="none" stroke="midnightblue" d="M2887.68,-123.32C2889.03,-105.97 2892.11,-66.46 2894.12,-40.66"/>
<polygon fill="midnightblue" stroke="midnightblue" points="2897.62,-40.79 2894.91,-30.55 2890.64,-40.24 2897.62,-40.79"/>
</g>
<!-- Node15&#45;&gt;Node10 -->
<g id="edge12" class="edge">
<title>Node15&#45;&gt;Node10</title>
<path fill="none" stroke="midnightblue" d="M2880.77,-123.48C2871.1,-110.54 2851.55,-85.48 2832,-67 2820.5,-56.13 2806.7,-45.39 2794.61,-36.63"/>
<polygon fill="midnightblue" stroke="midnightblue" points="2796.35,-33.57 2786.18,-30.63 2792.29,-39.28 2796.35,-33.57"/>
</g>
<!-- Node27&#45;&gt;Node4 -->
<g id="edge17" class="edge">
<title>Node27&#45;&gt;Node4</title>
<path fill="none" stroke="midnightblue" d="M2966.88,-179.37C2970.76,-161.62 2979.69,-120.67 2984.94,-96.6"/>
<polygon fill="midnightblue" stroke="midnightblue" points="2988.41,-97.11 2987.13,-86.59 2981.57,-95.62 2988.41,-97.11"/>
</g>
<!-- Node27&#45;&gt;Node15 -->
<g id="edge16" class="edge">
<title>Node27&#45;&gt;Node15</title>
<path fill="none" stroke="midnightblue" d="M2952.47,-179.32C2940.41,-170.98 2921.97,-158.21 2907.73,-148.35"/>
<polygon fill="midnightblue" stroke="midnightblue" points="2909.72,-145.47 2899.5,-142.65 2905.73,-151.22 2909.72,-145.47"/>
</g>
<!-- Node33 -->
<g id="node14" class="node">
<title>Node33</title>
<g id="a_node14"><a xlink:title=" ">
<polygon fill="white" stroke="#bfbfbf" points="28,-179.5 28,-198.5 156,-198.5 156,-179.5 28,-179.5"/>
<text text-anchor="middle" x="92" y="-186.5" font-family="Helvetica,sans-Serif" font-size="10.00">G4VUserPhysicsList.hh</text>
</a>
</g>
</g>
<!-- Node32&#45;&gt;Node33 -->
<g id="edge19" class="edge">
<title>Node32&#45;&gt;Node33</title>
<path fill="none" stroke="midnightblue" d="M165.86,-235.32C152.13,-226.9 131.06,-213.97 114.94,-204.07"/>
<polygon fill="midnightblue" stroke="midnightblue" points="116.46,-200.9 106.1,-198.65 112.8,-206.87 116.46,-200.9"/>
</g>
<!-- Node34 -->
<g id="node15" class="node">
<title>Node34</title>
<g id="a_node15"><a xlink:title=" ">
<polygon fill="white" stroke="#bfbfbf" points="380.5,-123.5 380.5,-142.5 447.5,-142.5 447.5,-123.5 380.5,-123.5"/>
<text text-anchor="middle" x="414" y="-130.5" font-family="Helvetica,sans-Serif" font-size="10.00">globals.hh</text>
</a>
</g>
</g>
<!-- Node32&#45;&gt;Node34 -->
<g id="edge20" class="edge">
<title>Node32&#45;&gt;Node34</title>
<path fill="none" stroke="midnightblue" d="M184.46,-235.33C192.17,-221.24 209.36,-193.49 232,-179 274.16,-152.03 331.33,-141.22 370.27,-136.89"/>
<polygon fill="midnightblue" stroke="midnightblue" points="370.65,-140.37 380.25,-135.88 369.95,-133.41 370.65,-140.37"/>
</g>
<!-- Node35&#45;&gt;Node34 -->
<g id="edge23" class="edge">
<title>Node35&#45;&gt;Node34</title>
<path fill="none" stroke="midnightblue" d="M307.77,-235.46C268.29,-225.68 219.16,-207.25 241,-179 256.71,-158.69 324.4,-145.83 370.3,-139.28"/>
<polygon fill="midnightblue" stroke="midnightblue" points="370.88,-142.73 380.31,-137.9 369.93,-135.8 370.88,-142.73"/>
</g>
<!-- Node36 -->
<g id="node17" class="node">
<title>Node36</title>
<g id="a_node17"><a xlink:title=" ">
<polygon fill="white" stroke="#bfbfbf" points="250,-179.5 250,-198.5 442,-198.5 442,-179.5 250,-179.5"/>
<text text-anchor="middle" x="346" y="-186.5" font-family="Helvetica,sans-Serif" font-size="10.00">G4VUserPrimaryGeneratorAction.hh</text>
</a>
</g>
</g>
<!-- Node35&#45;&gt;Node36 -->
<g id="edge22" class="edge">
<title>Node35&#45;&gt;Node36</title>
<path fill="none" stroke="midnightblue" d="M350.17,-235.08C349.52,-228.01 348.58,-217.86 347.76,-208.99"/>
<polygon fill="midnightblue" stroke="midnightblue" points="351.22,-208.39 346.81,-198.75 344.25,-209.03 351.22,-208.39"/>
</g>
<!-- Node37&#45;&gt;Node34 -->
<g id="edge26" class="edge">
<title>Node37&#45;&gt;Node34</title>
<path fill="none" stroke="midnightblue" d="M597.41,-235.17C599.08,-221.36 600.07,-194.6 586,-179 569.03,-160.18 503.06,-146.99 457.94,-139.95"/>
<polygon fill="midnightblue" stroke="midnightblue" points="458.21,-136.45 447.8,-138.42 457.17,-143.37 458.21,-136.45"/>
</g>
<!-- Node38 -->
<g id="node19" class="node">
<title>Node38</title>
<g id="a_node19"><a xlink:title=" ">
<polygon fill="white" stroke="#bfbfbf" points="460.5,-179.5 460.5,-198.5 577.5,-198.5 577.5,-179.5 460.5,-179.5"/>
<text text-anchor="middle" x="519" y="-186.5" font-family="Helvetica,sans-Serif" font-size="10.00">G4UserRunAction.hh</text>
</a>
</g>
</g>
<!-- Node37&#45;&gt;Node38 -->
<g id="edge25" class="edge">
<title>Node37&#45;&gt;Node38</title>
<path fill="none" stroke="midnightblue" d="M583.63,-235.32C571.84,-227.06 553.87,-214.45 539.86,-204.63"/>
<polygon fill="midnightblue" stroke="midnightblue" points="541.54,-201.53 531.34,-198.65 537.52,-207.26 541.54,-201.53"/>
</g>
<!-- Node40 -->
<g id="node21" class="node">
<title>Node40</title>
<g id="a_node21"><a xlink:title=" ">
<polygon fill="white" stroke="#bfbfbf" points="672,-179.5 672,-198.5 798,-198.5 798,-179.5 672,-179.5"/>
<text text-anchor="middle" x="735" y="-186.5" font-family="Helvetica,sans-Serif" font-size="10.00">G4UserEventAction.hh</text>
</a>
</g>
</g>
<!-- Node39&#45;&gt;Node40 -->
<g id="edge28" class="edge">
<title>Node39&#45;&gt;Node40</title>
<path fill="none" stroke="midnightblue" d="M735,-235.08C735,-228.01 735,-217.86 735,-208.99"/>
<polygon fill="midnightblue" stroke="midnightblue" points="738.5,-208.75 735,-198.75 731.5,-208.75 738.5,-208.75"/>
</g>
<!-- Node39&#45;&gt;Node41 -->
<g id="edge29" class="edge">
<title>Node39&#45;&gt;Node41</title>
<path fill="none" stroke="midnightblue" d="M712.35,-235.46C684.87,-223.83 644.39,-201.85 663,-179 686.05,-150.7 793.79,-139.66 848.68,-135.82"/>
<polygon fill="midnightblue" stroke="midnightblue" points="849.16,-139.3 858.91,-135.15 848.7,-132.31 849.16,-139.3"/>
</g>
<!-- Node43 -->
<g id="node24" class="node">
<title>Node43</title>
<g id="a_node24"><a xlink:title=" ">
<polygon fill="white" stroke="#bfbfbf" points="1302.5,-179.5 1302.5,-198.5 1441.5,-198.5 1441.5,-179.5 1302.5,-179.5"/>
<text text-anchor="middle" x="1372" y="-186.5" font-family="Helvetica,sans-Serif" font-size="10.00">G4UserTrackingAction.hh</text>
</a>
</g>
</g>
<!-- Node42&#45;&gt;Node43 -->
<g id="edge31" class="edge">
<title>Node42&#45;&gt;Node43</title>
<path fill="none" stroke="midnightblue" d="M1371.17,-235.08C1371.3,-228.01 1371.48,-217.86 1371.65,-208.99"/>
<polygon fill="midnightblue" stroke="midnightblue" points="1375.15,-208.81 1371.84,-198.75 1368.15,-208.68 1375.15,-208.81"/>
</g>
<!-- Node45 -->
<g id="node26" class="node">
<title>Node45</title>
<g id="a_node26"><a xlink:title=" ">
<polygon fill="white" stroke="#bfbfbf" points="1844.5,-123.5 1844.5,-142.5 1917.5,-142.5 1917.5,-123.5 1844.5,-123.5"/>
<text text-anchor="middle" x="1881" y="-130.5" font-family="Helvetica,sans-Serif" font-size="10.00">G4Types.hh</text>
</a>
</g>
</g>
<!-- Node44&#45;&gt;Node45 -->
<g id="edge33" class="edge">
<title>Node44&#45;&gt;Node45</title>
<path fill="none" stroke="midnightblue" d="M1543.78,-235.28C1575.1,-218.02 1642.53,-180.96 1648,-179 1710.34,-156.7 1786.23,-144.66 1834.1,-138.79"/>
<polygon fill="midnightblue" stroke="midnightblue" points="1834.64,-142.25 1844.16,-137.6 1833.82,-135.3 1834.64,-142.25"/>
</g>
<!-- Node46 -->
<g id="node27" class="node">
<title>Node46</title>
<g id="a_node27"><a xlink:title=" ">
<polygon fill="white" stroke="#bfbfbf" points="1657,-179.5 1657,-198.5 1731,-198.5 1731,-179.5 1657,-179.5"/>
<text text-anchor="middle" x="1694" y="-186.5" font-family="Helvetica,sans-Serif" font-size="10.00">G4String.hh</text>
</a>
</g>
</g>
<!-- Node44&#45;&gt;Node46 -->
<g id="edge34" class="edge">
<title>Node44&#45;&gt;Node46</title>
<path fill="none" stroke="midnightblue" d="M1554.3,-235.44C1582.35,-226.32 1626.94,-211.81 1658.18,-201.65"/>
<polygon fill="midnightblue" stroke="midnightblue" points="1659.39,-204.94 1667.82,-198.52 1657.23,-198.28 1659.39,-204.94"/>
</g>
<!-- Node44&#45;&gt;Node47 -->
<g id="edge35" class="edge">
<title>Node44&#45;&gt;Node47</title>
<path fill="none" stroke="midnightblue" d="M1571.26,-235.44C1619.18,-225.96 1696.48,-210.67 1748,-200.48"/>
<polygon fill="midnightblue" stroke="midnightblue" points="1748.81,-203.89 1757.94,-198.52 1747.46,-197.02 1748.81,-203.89"/>
</g>
<!-- Node48 -->
<g id="node29" class="node">
<title>Node48</title>
<g id="a_node29"><a xlink:title=" ">
<polygon fill="white" stroke="#bfbfbf" points="1459.5,-179.5 1459.5,-198.5 1600.5,-198.5 1600.5,-179.5 1459.5,-179.5"/>
<text text-anchor="middle" x="1530" y="-186.5" font-family="Helvetica,sans-Serif" font-size="10.00">G4UserSteppingAction.hh</text>
</a>
</g>
</g>
<!-- Node44&#45;&gt;Node48 -->
<g id="edge36" class="edge">
<title>Node44&#45;&gt;Node48</title>
<path fill="none" stroke="midnightblue" d="M1528.33,-235.08C1528.59,-228.01 1528.97,-217.86 1529.3,-208.99"/>
<polygon fill="midnightblue" stroke="midnightblue" points="1532.8,-208.87 1529.68,-198.75 1525.81,-208.61 1532.8,-208.87"/>
</g>
<!-- Node49&#45;&gt;Node45 -->
<g id="edge38" class="edge">
<title>Node49&#45;&gt;Node45</title>
<path fill="none" stroke="midnightblue" d="M1790.73,-235.44C1815.47,-229.11 1842.45,-218.11 1861,-199 1872.94,-186.7 1877.77,-167.44 1879.71,-153.08"/>
<polygon fill="midnightblue" stroke="midnightblue" points="1883.22,-153.13 1880.73,-142.83 1876.26,-152.44 1883.22,-153.13"/>
</g>
<!-- Node49&#45;&gt;Node46 -->
<g id="edge39" class="edge">
<title>Node49&#45;&gt;Node46</title>
<path fill="none" stroke="midnightblue" d="M1723.22,-235.08C1718.33,-227.53 1711.17,-216.49 1705.17,-207.23"/>
<polygon fill="midnightblue" stroke="midnightblue" points="1708.05,-205.24 1699.67,-198.75 1702.17,-209.05 1708.05,-205.24"/>
</g>
<!-- Node49&#45;&gt;Node47 -->
<g id="edge40" class="edge">
<title>Node49&#45;&gt;Node47</title>
<path fill="none" stroke="midnightblue" d="M1740.57,-235.32C1751.42,-227.18 1767.88,-214.84 1780.88,-205.09"/>
<polygon fill="midnightblue" stroke="midnightblue" points="1783.32,-207.63 1789.22,-198.83 1779.12,-202.03 1783.32,-207.63"/>
</g>
<!-- Node49&#45;&gt;Node50 -->
<g id="edge41" class="edge">
<title>Node49&#45;&gt;Node50</title>
<path fill="none" stroke="midnightblue" d="M1778.6,-235.44C1834,-225.89 1923.64,-210.42 1982.71,-200.23"/>
<polygon fill="midnightblue" stroke="midnightblue" points="1983.38,-203.67 1992.64,-198.52 1982.19,-196.77 1983.38,-203.67"/>
</g>
<!-- Node55 -->
<g id="node33" class="node">
<title>Node55</title>
<g id="a_node33"><a xlink:title=" ">
<polygon fill="white" stroke="#bfbfbf" points="1909.5,-179.5 1909.5,-198.5 1956.5,-198.5 1956.5,-179.5 1909.5,-179.5"/>
<text text-anchor="middle" x="1933" y="-186.5" font-family="Helvetica,sans-Serif" font-size="10.00">vector</text>
</a>
</g>
</g>
<!-- Node49&#45;&gt;Node55 -->
<g id="edge44" class="edge">
<title>Node49&#45;&gt;Node55</title>
<path fill="none" stroke="midnightblue" d="M1761.32,-235.44C1799.01,-225.47 1861.01,-209.06 1899.29,-198.92"/>
<polygon fill="midnightblue" stroke="midnightblue" points="1900.64,-202.19 1909.41,-196.24 1898.85,-195.42 1900.64,-202.19"/>
</g>
<!-- Node49&#45;&gt;Node56 -->
<g id="edge45" class="edge">
<title>Node49&#45;&gt;Node56</title>
<path fill="none" stroke="midnightblue" d="M1804.34,-238.06C1880.77,-231.41 2002.61,-219.07 2117.2,-198.93"/>
<polygon fill="midnightblue" stroke="midnightblue" points="2117.97,-202.35 2127.2,-197.15 2116.74,-195.46 2117.97,-202.35"/>
</g>
<!-- Node50&#45;&gt;Node45 -->
<g id="edge42" class="edge">
<title>Node50&#45;&gt;Node45</title>
<path fill="none" stroke="midnightblue" d="M2016.49,-179.44C1989.4,-170.36 1946.41,-155.94 1916.13,-145.78"/>
<polygon fill="midnightblue" stroke="midnightblue" points="1916.99,-142.38 1906.39,-142.52 1914.76,-149.01 1916.99,-142.38"/>
</g>
<!-- Node50&#45;&gt;Node52 -->
<g id="edge43" class="edge">
<title>Node50&#45;&gt;Node52</title>
<path fill="none" stroke="midnightblue" d="M2085.73,-179.44C2138.35,-169.15 2225.98,-152 2277.24,-141.98"/>
<polygon fill="midnightblue" stroke="midnightblue" points="2278.15,-145.36 2287.29,-140.01 2276.8,-138.49 2278.15,-145.36"/>
</g>
<!-- Node57&#45;&gt;Node34 -->
<g id="edge49" class="edge">
<title>Node57&#45;&gt;Node34</title>
<path fill="none" stroke="midnightblue" d="M853.86,-179.5C741.85,-167.92 545.14,-147.57 457.85,-138.54"/>
<polygon fill="midnightblue" stroke="midnightblue" points="458.07,-135.04 447.76,-137.49 457.35,-142 458.07,-135.04"/>
</g>
<!-- Node57&#45;&gt;Node41 -->
<g id="edge48" class="edge">
<title>Node57&#45;&gt;Node41</title>
<path fill="none" stroke="midnightblue" d="M926.92,-179.08C918.83,-171.14 906.8,-159.34 897.09,-149.8"/>
<polygon fill="midnightblue" stroke="midnightblue" points="899.5,-147.26 889.91,-142.75 894.6,-152.25 899.5,-147.26"/>
</g>
<!-- Node57&#45;&gt;Node61 -->
<g id="edge50" class="edge">
<title>Node57&#45;&gt;Node61</title>
<path fill="none" stroke="midnightblue" d="M968.64,-179.44C1004.05,-170.16 1060.71,-155.31 1099.55,-145.13"/>
<polygon fill="midnightblue" stroke="midnightblue" points="1100.73,-148.44 1109.51,-142.52 1098.95,-141.67 1100.73,-148.44"/>
</g>
<!-- Node65&#45;&gt;Node41 -->
<g id="edge53" class="edge">
<title>Node65&#45;&gt;Node41</title>
<path fill="none" stroke="midnightblue" d="M1094.12,-235.12C1081.34,-221.23 1054.72,-194.38 1027,-179 990.59,-158.8 943.93,-146.45 913.28,-139.92"/>
<polygon fill="midnightblue" stroke="midnightblue" points="913.65,-136.42 903.16,-137.85 912.25,-143.28 913.65,-136.42"/>
</g>
<!-- Node65&#45;&gt;Node57 -->
<g id="edge55" class="edge">
<title>Node65&#45;&gt;Node57</title>
<path fill="none" stroke="midnightblue" d="M1075.7,-235.44C1047.65,-226.32 1003.06,-211.81 971.82,-201.65"/>
<polygon fill="midnightblue" stroke="midnightblue" points="972.77,-198.28 962.18,-198.52 970.61,-204.94 972.77,-198.28"/>
</g>
<!-- Node65&#45;&gt;Node22 -->
<g id="edge52" class="edge">
<title>Node65&#45;&gt;Node22</title>
<path fill="none" stroke="midnightblue" d="M1102,-235.08C1102,-228.01 1102,-217.86 1102,-208.99"/>
<polygon fill="midnightblue" stroke="midnightblue" points="1105.5,-208.75 1102,-198.75 1098.5,-208.75 1105.5,-208.75"/>
</g>
<!-- Node65&#45;&gt;Node66 -->
<g id="edge54" class="edge">
<title>Node65&#45;&gt;Node66</title>
<path fill="none" stroke="midnightblue" d="M1117.26,-235.32C1132.22,-226.82 1155.25,-213.73 1172.73,-203.8"/>
<polygon fill="midnightblue" stroke="midnightblue" points="1174.81,-206.64 1181.77,-198.65 1171.35,-200.55 1174.81,-206.64"/>
</g>
</g>
</svg>
