<?xml version="1.0" encoding="UTF-8" standalone="no"?>
<!DOCTYPE svg PUBLIC "-//W3C//DTD SVG 1.1//EN"
 "http://www.w3.org/Graphics/SVG/1.1/DTD/svg11.dtd">
<!-- Generated by graphviz version 2.43.0 (0)
 -->
<!-- Title: /home/runner/work/OMSim/OMSim/common/include/OMSimUIinterface.hh Pages: 1 -->
<svg width="716pt" height="162pt"
 viewBox="0.00 0.00 715.50 162.00" xmlns="http://www.w3.org/2000/svg" xmlns:xlink="http://www.w3.org/1999/xlink">
<g id="graph0" class="graph" transform="scale(1 1) rotate(0) translate(4 158)">
<title>/home/runner/work/OMSim/OMSim/common/include/OMSimUIinterface.hh</title>
<polygon fill="white" stroke="transparent" points="-4,4 -4,-158 711.5,-158 711.5,4 -4,4"/>
<!-- Node1 -->
<g id="node1" class="node">
<title>Node1</title>
<g id="a_node1"><a xlink:title="The OMSimUIinterface class provides a singleton interface to Geant4&#39;s UI manager.">
<polygon fill="#bfbfbf" stroke="black" points="167.5,-112.5 167.5,-153.5 314.5,-153.5 314.5,-112.5 167.5,-112.5"/>
<text text-anchor="start" x="175.5" y="-141.5" font-family="Helvetica,sans-Serif" font-size="10.00">/home/runner/work/OMSim</text>
<text text-anchor="start" x="175.5" y="-130.5" font-family="Helvetica,sans-Serif" font-size="10.00">/OMSim/common/include</text>
<text text-anchor="middle" x="241" y="-119.5" font-family="Helvetica,sans-Serif" font-size="10.00">/OMSimUIinterface.hh</text>
</a>
</g>
</g>
<!-- Node2 -->
<g id="node2" class="node">
<title>Node2</title>
<g id="a_node2"><a xlink:title=" ">
<polygon fill="white" stroke="#bfbfbf" points="0,-56.5 0,-75.5 56,-75.5 56,-56.5 0,-56.5"/>
<text text-anchor="middle" x="28" y="-63.5" font-family="Helvetica,sans-Serif" font-size="10.00">sstream</text>
</a>
</g>
</g>
<!-- Node1&#45;&gt;Node2 -->
<g id="edge1" class="edge">
<title>Node1&#45;&gt;Node2</title>
<path fill="none" stroke="midnightblue" d="M177.09,-112.5C140.87,-101.44 96.78,-87.99 65.98,-78.59"/>
<polygon fill="midnightblue" stroke="midnightblue" points="66.66,-75.14 56.07,-75.57 64.62,-81.83 66.66,-75.14"/>
</g>
<!-- Node3 -->
<g id="node3" class="node">
<title>Node3</title>
<g id="a_node3"><a xlink:title=" ">
<polygon fill="white" stroke="#bfbfbf" points="267,-0.5 267,-19.5 311,-19.5 311,-0.5 267,-0.5"/>
<text text-anchor="middle" x="289" y="-7.5" font-family="Helvetica,sans-Serif" font-size="10.00">string</text>
</a>
</g>
</g>
<!-- Node1&#45;&gt;Node3 -->
<g id="edge2" class="edge">
<title>Node1&#45;&gt;Node3</title>
<path fill="none" stroke="midnightblue" d="M269.59,-112.47C281.01,-102.95 292.87,-90.43 299,-76 305.34,-61.07 301.56,-42.7 296.95,-29.3"/>
<polygon fill="midnightblue" stroke="midnightblue" points="300.13,-27.83 293.24,-19.78 293.61,-30.37 300.13,-27.83"/>
</g>
<!-- Node4 -->
<g id="node4" class="node">
<title>Node4</title>
<g id="a_node4"><a xlink:title=" ">
<polygon fill="white" stroke="#bfbfbf" points="192,-56.5 192,-75.5 290,-75.5 290,-56.5 192,-56.5"/>
<text text-anchor="middle" x="241" y="-63.5" font-family="Helvetica,sans-Serif" font-size="10.00">G4UImanager.hh</text>
</a>
</g>
</g>
<!-- Node1&#45;&gt;Node4 -->
<g id="edge3" class="edge">
<title>Node1&#45;&gt;Node4</title>
<path fill="none" stroke="midnightblue" d="M241,-112.5C241,-104.07 241,-94.24 241,-85.87"/>
<polygon fill="midnightblue" stroke="midnightblue" points="244.5,-85.65 241,-75.65 237.5,-85.65 244.5,-85.65"/>
</g>
<!-- Node5 -->
<g id="node5" class="node">
<title>Node5</title>
<g id="a_node5"><a xlink:href="_o_m_sim_logger_8hh.html" target="_top" xlink:title=" ">
<polygon fill="white" stroke="black" points="74.5,-56.5 74.5,-75.5 173.5,-75.5 173.5,-56.5 74.5,-56.5"/>
<text text-anchor="middle" x="124" y="-63.5" font-family="Helvetica,sans-Serif" font-size="10.00">OMSimLogger.hh</text>
</a>
</g>
</g>
<!-- Node1&#45;&gt;Node5 -->
<g id="edge4" class="edge">
<title>Node1&#45;&gt;Node5</title>
<path fill="none" stroke="midnightblue" d="M205.9,-112.5C187.44,-102.24 165.27,-89.93 148.65,-80.69"/>
<polygon fill="midnightblue" stroke="midnightblue" points="150.02,-77.45 139.57,-75.65 146.62,-83.57 150.02,-77.45"/>
</g>
<!-- Node8 -->
<g id="node8" class="node">
<title>Node8</title>
<g id="a_node8"><a xlink:href="_o_m_sim_command_args_table_8hh.html" target="_top" xlink:title=" ">
<polygon fill="white" stroke="black" points="375,-56.5 375,-75.5 539,-75.5 539,-56.5 375,-56.5"/>
<text text-anchor="middle" x="457" y="-63.5" font-family="Helvetica,sans-Serif" font-size="10.00">OMSimCommandArgsTable.hh</text>
</a>
</g>
</g>
<!-- Node1&#45;&gt;Node8 -->
<g id="edge7" class="edge">
<title>Node1&#45;&gt;Node8</title>
<path fill="none" stroke="midnightblue" d="M305.81,-112.5C342.7,-101.4 387.64,-87.87 418.89,-78.47"/>
<polygon fill="midnightblue" stroke="midnightblue" points="419.96,-81.8 428.53,-75.57 417.95,-75.1 419.96,-81.8"/>
</g>
<!-- Node6 -->
<g id="node6" class="node">
<title>Node6</title>
<g id="a_node6"><a xlink:title=" ">
<polygon fill="white" stroke="#bfbfbf" points="65,-0.5 65,-19.5 115,-19.5 115,-0.5 65,-0.5"/>
<text text-anchor="middle" x="90" y="-7.5" font-family="Helvetica,sans-Serif" font-size="10.00">stdio.h</text>
</a>
</g>
</g>
<!-- Node5&#45;&gt;Node6 -->
<g id="edge5" class="edge">
<title>Node5&#45;&gt;Node6</title>
<path fill="none" stroke="midnightblue" d="M118.39,-56.08C113.63,-48.53 106.68,-37.49 100.85,-28.23"/>
<polygon fill="midnightblue" stroke="midnightblue" points="103.8,-26.35 95.51,-19.75 97.88,-30.08 103.8,-26.35"/>
</g>
<!-- Node7 -->
<g id="node7" class="node">
<title>Node7</title>
<g id="a_node7"><a xlink:title=" ">
<polygon fill="white" stroke="#bfbfbf" points="133,-0.5 133,-19.5 181,-19.5 181,-0.5 133,-0.5"/>
<text text-anchor="middle" x="157" y="-7.5" font-family="Helvetica,sans-Serif" font-size="10.00">time.h</text>
</a>
</g>
</g>
<!-- Node5&#45;&gt;Node7 -->
<g id="edge6" class="edge">
<title>Node5&#45;&gt;Node7</title>
<path fill="none" stroke="midnightblue" d="M129.45,-56.08C134.01,-48.61 140.67,-37.72 146.29,-28.52"/>
<polygon fill="midnightblue" stroke="midnightblue" points="149.42,-30.11 151.65,-19.75 143.45,-26.46 149.42,-30.11"/>
</g>
<!-- Node8&#45;&gt;Node3 -->
<g id="edge10" class="edge">
<title>Node8&#45;&gt;Node3</title>
<path fill="none" stroke="midnightblue" d="M430.38,-56.44C400.66,-46.89 352.58,-31.44 320.88,-21.25"/>
<polygon fill="midnightblue" stroke="midnightblue" points="321.79,-17.86 311.2,-18.14 319.65,-24.53 321.79,-17.86"/>
</g>
<!-- Node9 -->
<g id="node9" class="node">
<title>Node9</title>
<g id="a_node9"><a xlink:title=" ">
<polygon fill="white" stroke="#bfbfbf" points="517,-0.5 517,-19.5 555,-19.5 555,-0.5 517,-0.5"/>
<text text-anchor="middle" x="536" y="-7.5" font-family="Helvetica,sans-Serif" font-size="10.00">map</text>
</a>
</g>
</g>
<!-- Node8&#45;&gt;Node9 -->
<g id="edge8" class="edge">
<title>Node8&#45;&gt;Node9</title>
<path fill="none" stroke="midnightblue" d="M469.69,-56.32C481.9,-47.98 500.58,-35.21 515,-25.35"/>
<polygon fill="midnightblue" stroke="midnightblue" points="517.06,-28.19 523.34,-19.65 513.11,-22.41 517.06,-28.19"/>
</g>
<!-- Node10 -->
<g id="node10" class="node">
<title>Node10</title>
<g id="a_node10"><a xlink:title=" ">
<polygon fill="white" stroke="#bfbfbf" points="573.5,-0.5 573.5,-19.5 624.5,-19.5 624.5,-0.5 573.5,-0.5"/>
<text text-anchor="middle" x="599" y="-7.5" font-family="Helvetica,sans-Serif" font-size="10.00">variant</text>
</a>
</g>
</g>
<!-- Node8&#45;&gt;Node10 -->
<g id="edge9" class="edge">
<title>Node8&#45;&gt;Node10</title>
<path fill="none" stroke="midnightblue" d="M479.5,-56.44C503.08,-47.48 540.32,-33.31 566.96,-23.18"/>
<polygon fill="midnightblue" stroke="midnightblue" points="568.5,-26.34 576.6,-19.52 566.01,-19.8 568.5,-26.34"/>
</g>
<!-- Node11 -->
<g id="node11" class="node">
<title>Node11</title>
<g id="a_node11"><a xlink:title=" ">
<polygon fill="white" stroke="#bfbfbf" points="642.5,-0.5 642.5,-19.5 707.5,-19.5 707.5,-0.5 642.5,-0.5"/>
<text text-anchor="middle" x="675" y="-7.5" font-family="Helvetica,sans-Serif" font-size="10.00">stdexcept</text>
</a>
</g>
</g>
<!-- Node8&#45;&gt;Node11 -->
<g id="edge11" class="edge">
<title>Node8&#45;&gt;Node11</title>
<path fill="none" stroke="midnightblue" d="M491.54,-56.44C529.81,-46.96 591.52,-31.68 632.67,-21.49"/>
<polygon fill="midnightblue" stroke="midnightblue" points="633.53,-24.88 642.4,-19.08 631.85,-18.08 633.53,-24.88"/>
</g>
<!-- Node12 -->
<g id="node12" class="node">
<title>Node12</title>
<g id="a_node12"><a xlink:title=" ">
<polygon fill="white" stroke="#bfbfbf" points="329.5,-0.5 329.5,-19.5 396.5,-19.5 396.5,-0.5 329.5,-0.5"/>
<text text-anchor="middle" x="363" y="-7.5" font-family="Helvetica,sans-Serif" font-size="10.00">globals.hh</text>
</a>
</g>
</g>
<!-- Node8&#45;&gt;Node12 -->
<g id="edge12" class="edge">
<title>Node8&#45;&gt;Node12</title>
<path fill="none" stroke="midnightblue" d="M441.9,-56.32C427.1,-47.82 404.31,-34.73 387.02,-24.8"/>
<polygon fill="midnightblue" stroke="midnightblue" points="388.48,-21.6 378.07,-19.65 384.99,-27.67 388.48,-21.6"/>
</g>
<!-- Node13 -->
<g id="node13" class="node">
<title>Node13</title>
<g id="a_node13"><a xlink:title=" ">
<polygon fill="white" stroke="#bfbfbf" points="415,-0.5 415,-19.5 499,-19.5 499,-0.5 415,-0.5"/>
<text text-anchor="middle" x="457" y="-7.5" font-family="Helvetica,sans-Serif" font-size="10.00">boost/any.hpp</text>
</a>
</g>
</g>
<!-- Node8&#45;&gt;Node13 -->
<g id="edge13" class="edge">
<title>Node8&#45;&gt;Node13</title>
<path fill="none" stroke="midnightblue" d="M457,-56.08C457,-49.01 457,-38.86 457,-29.99"/>
<polygon fill="midnightblue" stroke="midnightblue" points="460.5,-29.75 457,-19.75 453.5,-29.75 460.5,-29.75"/>
</g>
</g>
</svg>
