<?xml version="1.0" encoding="UTF-8" standalone="no"?>
<!DOCTYPE svg PUBLIC "-//W3C//DTD SVG 1.1//EN"
 "http://www.w3.org/Graphics/SVG/1.1/DTD/svg11.dtd">
<!-- Generated by graphviz version 2.43.0 (0)
 -->
<!-- Title: OMSimENES.cc Pages: 1 -->
<svg width="2276pt" height="263pt"
 viewBox="0.00 0.00 2275.72 263.00" xmlns="http://www.w3.org/2000/svg" xmlns:xlink="http://www.w3.org/1999/xlink">
<g id="graph0" class="graph" transform="scale(1 1) rotate(0) translate(4 259)">
<title>OMSimENES.cc</title>
<polygon fill="white" stroke="transparent" points="-4,4 -4,-259 2271.72,-259 2271.72,4 -4,4"/>
<!-- Node1 -->
<g id="node1" class="node">
<title>Node1</title>
<g id="a_node1"><a xlink:title=" ">
<polygon fill="#bfbfbf" stroke="black" points="1248.72,-235.5 1248.72,-254.5 1339.72,-254.5 1339.72,-235.5 1248.72,-235.5"/>
<text text-anchor="middle" x="1294.22" y="-242.5" font-family="Helvetica,sans-Serif" font-size="10.00">OMSimENES.cc</text>
</a>
</g>
</g>
<!-- Node2 -->
<g id="node2" class="node">
<title>Node2</title>
<g id="a_node2"><a xlink:href="_o_m_sim_e_n_e_s_8hh.html" target="_top" xlink:title="This file contains the class in charge of generating electrons from Electron&#45;electron_Neutrino Elasti...">
<polygon fill="white" stroke="black" points="189.22,-179.5 189.22,-198.5 281.22,-198.5 281.22,-179.5 189.22,-179.5"/>
<text text-anchor="middle" x="235.22" y="-186.5" font-family="Helvetica,sans-Serif" font-size="10.00">OMSimENES.hh</text>
</a>
</g>
</g>
<!-- Node1&#45;&gt;Node2 -->
<g id="edge1" class="edge">
<title>Node1&#45;&gt;Node2</title>
<path fill="none" stroke="midnightblue" d="M1248.44,-241.88C1115.41,-235.7 717.42,-216.97 387.22,-199 355.6,-197.28 320.29,-195.2 291.67,-193.47"/>
<polygon fill="midnightblue" stroke="midnightblue" points="291.64,-189.96 281.44,-192.85 291.21,-196.95 291.64,-189.96"/>
</g>
<!-- Node6 -->
<g id="node6" class="node">
<title>Node6</title>
<g id="a_node6"><a xlink:href="_o_m_sim_s_n_tools_8hh.html" target="_top" xlink:title="Provides the definition for the OMSimSNTools class, centralizing utility methods for Supernova (SN) n...">
<polygon fill="white" stroke="black" points="263.72,-118 263.72,-137 368.72,-137 368.72,-118 263.72,-118"/>
<text text-anchor="middle" x="316.22" y="-125" font-family="Helvetica,sans-Serif" font-size="10.00">OMSimSNTools.hh</text>
</a>
</g>
</g>
<!-- Node1&#45;&gt;Node6 -->
<g id="edge41" class="edge">
<title>Node1&#45;&gt;Node6</title>
<path fill="none" stroke="midnightblue" d="M1248.56,-242.86C1105.81,-239.06 669.22,-225.52 530.22,-199 462.42,-186.06 386.41,-157.47 345.73,-140.94"/>
<polygon fill="midnightblue" stroke="midnightblue" points="346.99,-137.68 336.41,-137.12 344.33,-144.15 346.99,-137.68"/>
</g>
<!-- Node8 -->
<g id="node8" class="node">
<title>Node8</title>
<g id="a_node8"><a xlink:href="_o_m_sim_s_n_analysis_8hh.html" target="_top" xlink:title=" ">
<polygon fill="white" stroke="black" points="539.22,-179.5 539.22,-198.5 661.22,-198.5 661.22,-179.5 539.22,-179.5"/>
<text text-anchor="middle" x="600.22" y="-186.5" font-family="Helvetica,sans-Serif" font-size="10.00">OMSimSNAnalysis.hh</text>
</a>
</g>
</g>
<!-- Node1&#45;&gt;Node8 -->
<g id="edge9" class="edge">
<title>Node1&#45;&gt;Node8</title>
<path fill="none" stroke="midnightblue" d="M1248.68,-240.46C1130.71,-231.28 814.43,-206.67 671.77,-195.57"/>
<polygon fill="midnightblue" stroke="midnightblue" points="671.63,-192.05 661.39,-194.76 671.09,-199.02 671.63,-192.05"/>
</g>
<!-- Node13 -->
<g id="node13" class="node">
<title>Node13</title>
<g id="a_node13"><a xlink:title=" ">
<polygon fill="white" stroke="#bfbfbf" points="852.72,-0.5 852.72,-19.5 971.72,-19.5 971.72,-0.5 852.72,-0.5"/>
<text text-anchor="middle" x="912.22" y="-7.5" font-family="Helvetica,sans-Serif" font-size="10.00">G4SystemOfUnits.hh</text>
</a>
</g>
</g>
<!-- Node1&#45;&gt;Node13 -->
<g id="edge39" class="edge">
<title>Node1&#45;&gt;Node13</title>
<path fill="none" stroke="midnightblue" d="M1248.35,-242.64C1142.22,-239.01 886.8,-227.38 861.22,-199 816.34,-149.21 871.52,-63.83 898.73,-27.81"/>
<polygon fill="midnightblue" stroke="midnightblue" points="901.6,-29.81 904.97,-19.77 896.07,-25.52 901.6,-29.81"/>
</g>
<!-- Node19 -->
<g id="node19" class="node">
<title>Node19</title>
<g id="a_node19"><a xlink:href="_o_m_sim_command_args_table_8hh.html" target="_top" xlink:title="Definition of the OMSimCommandArgsTable singleton class, which controls user args.">
<polygon fill="white" stroke="black" points="870.22,-179.5 870.22,-198.5 1034.22,-198.5 1034.22,-179.5 870.22,-179.5"/>
<text text-anchor="middle" x="952.22" y="-186.5" font-family="Helvetica,sans-Serif" font-size="10.00">OMSimCommandArgsTable.hh</text>
</a>
</g>
</g>
<!-- Node1&#45;&gt;Node19 -->
<g id="edge25" class="edge">
<title>Node1&#45;&gt;Node19</title>
<path fill="none" stroke="midnightblue" d="M1248.45,-236.77C1188.72,-227.34 1083.87,-210.79 1016.27,-200.11"/>
<polygon fill="midnightblue" stroke="midnightblue" points="1016.59,-196.62 1006.16,-198.52 1015.49,-203.53 1016.59,-196.62"/>
</g>
<!-- Node25 -->
<g id="node25" class="node">
<title>Node25</title>
<g id="a_node25"><a xlink:title=" ">
<polygon fill="white" stroke="#bfbfbf" points="1052.72,-179.5 1052.72,-198.5 1125.72,-198.5 1125.72,-179.5 1052.72,-179.5"/>
<text text-anchor="middle" x="1089.22" y="-186.5" font-family="Helvetica,sans-Serif" font-size="10.00">G4Event.hh</text>
</a>
</g>
</g>
<!-- Node1&#45;&gt;Node25 -->
<g id="edge32" class="edge">
<title>Node1&#45;&gt;Node25</title>
<path fill="none" stroke="midnightblue" d="M1261.73,-235.44C1226.5,-226.16 1170.11,-211.31 1131.46,-201.13"/>
<polygon fill="midnightblue" stroke="midnightblue" points="1132.11,-197.68 1121.55,-198.52 1130.33,-204.45 1132.11,-197.68"/>
</g>
<!-- Node26 -->
<g id="node26" class="node">
<title>Node26</title>
<g id="a_node26"><a xlink:title=" ">
<polygon fill="white" stroke="#bfbfbf" points="1144.22,-179.5 1144.22,-198.5 1296.22,-198.5 1296.22,-179.5 1144.22,-179.5"/>
<text text-anchor="middle" x="1220.22" y="-186.5" font-family="Helvetica,sans-Serif" font-size="10.00">G4GeneralParticleSource.hh</text>
</a>
</g>
</g>
<!-- Node1&#45;&gt;Node26 -->
<g id="edge33" class="edge">
<title>Node1&#45;&gt;Node26</title>
<path fill="none" stroke="midnightblue" d="M1282.33,-235.32C1271.07,-227.11 1253.93,-214.6 1240.51,-204.81"/>
<polygon fill="midnightblue" stroke="midnightblue" points="1242.46,-201.9 1232.32,-198.83 1238.34,-207.56 1242.46,-201.9"/>
</g>
<!-- Node27 -->
<g id="node27" class="node">
<title>Node27</title>
<g id="a_node27"><a xlink:title=" ">
<polygon fill="white" stroke="#bfbfbf" points="1314.72,-179.5 1314.72,-198.5 1423.72,-198.5 1423.72,-179.5 1314.72,-179.5"/>
<text text-anchor="middle" x="1369.22" y="-186.5" font-family="Helvetica,sans-Serif" font-size="10.00">G4ParticleTypes.hh</text>
</a>
</g>
</g>
<!-- Node1&#45;&gt;Node27 -->
<g id="edge34" class="edge">
<title>Node1&#45;&gt;Node27</title>
<path fill="none" stroke="midnightblue" d="M1306.27,-235.32C1317.68,-227.11 1335.05,-214.6 1348.65,-204.81"/>
<polygon fill="midnightblue" stroke="midnightblue" points="1350.88,-207.52 1356.95,-198.83 1346.79,-201.84 1350.88,-207.52"/>
</g>
<!-- Node28 -->
<g id="node28" class="node">
<title>Node28</title>
<g id="a_node28"><a xlink:title=" ">
<polygon fill="white" stroke="#bfbfbf" points="1441.72,-179.5 1441.72,-198.5 1542.72,-198.5 1542.72,-179.5 1441.72,-179.5"/>
<text text-anchor="middle" x="1492.22" y="-186.5" font-family="Helvetica,sans-Serif" font-size="10.00">G4ParticleGun.hh</text>
</a>
</g>
</g>
<!-- Node1&#45;&gt;Node28 -->
<g id="edge35" class="edge">
<title>Node1&#45;&gt;Node28</title>
<path fill="none" stroke="midnightblue" d="M1325.59,-235.44C1359.48,-226.2 1413.62,-211.44 1450.94,-201.26"/>
<polygon fill="midnightblue" stroke="midnightblue" points="1452.26,-204.52 1460.99,-198.52 1450.42,-197.77 1452.26,-204.52"/>
</g>
<!-- Node29 -->
<g id="node29" class="node">
<title>Node29</title>
<g id="a_node29"><a xlink:title=" ">
<polygon fill="white" stroke="#bfbfbf" points="1560.72,-179.5 1560.72,-198.5 1667.72,-198.5 1667.72,-179.5 1560.72,-179.5"/>
<text text-anchor="middle" x="1614.22" y="-186.5" font-family="Helvetica,sans-Serif" font-size="10.00">G4ParticleTable.hh</text>
</a>
</g>
</g>
<!-- Node1&#45;&gt;Node29 -->
<g id="edge36" class="edge">
<title>Node1&#45;&gt;Node29</title>
<path fill="none" stroke="midnightblue" d="M1339.73,-236.32C1395.79,-226.86 1491.24,-210.75 1553.51,-200.24"/>
<polygon fill="midnightblue" stroke="midnightblue" points="1554.31,-203.66 1563.59,-198.54 1553.14,-196.76 1554.31,-203.66"/>
</g>
<!-- Node30 -->
<g id="node30" class="node">
<title>Node30</title>
<g id="a_node30"><a xlink:title=" ">
<polygon fill="white" stroke="#bfbfbf" points="1686.22,-179.5 1686.22,-198.5 1814.22,-198.5 1814.22,-179.5 1686.22,-179.5"/>
<text text-anchor="middle" x="1750.22" y="-186.5" font-family="Helvetica,sans-Serif" font-size="10.00">G4ParticleDefinition.hh</text>
</a>
</g>
</g>
<!-- Node1&#45;&gt;Node30 -->
<g id="edge37" class="edge">
<title>Node1&#45;&gt;Node30</title>
<path fill="none" stroke="midnightblue" d="M1339.92,-238.72C1409.92,-230.6 1548.16,-214.51 1676.15,-199.12"/>
<polygon fill="midnightblue" stroke="midnightblue" points="1676.62,-202.59 1686.13,-197.92 1675.78,-195.64 1676.62,-202.59"/>
</g>
<!-- Node31 -->
<g id="node31" class="node">
<title>Node31</title>
<g id="a_node31"><a xlink:title=" ">
<polygon fill="white" stroke="#bfbfbf" points="1832.22,-179.5 1832.22,-198.5 1966.22,-198.5 1966.22,-179.5 1832.22,-179.5"/>
<text text-anchor="middle" x="1899.22" y="-186.5" font-family="Helvetica,sans-Serif" font-size="10.00">G4PhysicalConstants.hh</text>
</a>
</g>
</g>
<!-- Node1&#45;&gt;Node31 -->
<g id="edge38" class="edge">
<title>Node1&#45;&gt;Node31</title>
<path fill="none" stroke="midnightblue" d="M1339.91,-240.62C1429.96,-233.86 1636.98,-217.76 1821.91,-199.1"/>
<polygon fill="midnightblue" stroke="midnightblue" points="1822.5,-202.56 1832.09,-198.07 1821.79,-195.6 1822.5,-202.56"/>
</g>
<!-- Node32 -->
<g id="node32" class="node">
<title>Node32</title>
<g id="a_node32"><a xlink:title=" ">
<polygon fill="white" stroke="#bfbfbf" points="1984.22,-179.5 1984.22,-198.5 2070.22,-198.5 2070.22,-179.5 1984.22,-179.5"/>
<text text-anchor="middle" x="2027.22" y="-186.5" font-family="Helvetica,sans-Serif" font-size="10.00">Randomize.hh</text>
</a>
</g>
</g>
<!-- Node1&#45;&gt;Node32 -->
<g id="edge40" class="edge">
<title>Node1&#45;&gt;Node32</title>
<path fill="none" stroke="midnightblue" d="M1339.8,-242.65C1448.03,-239.08 1729.14,-227.73 1973.98,-199.02"/>
<polygon fill="midnightblue" stroke="midnightblue" points="1974.62,-202.47 1984.14,-197.82 1973.8,-195.52 1974.62,-202.47"/>
</g>
<!-- Node33 -->
<g id="node33" class="node">
<title>Node33</title>
<g id="a_node33"><a xlink:href="_o_m_sim_input_data_8hh.html" target="_top" xlink:title="Input data from external files are read and saved to memory.">
<polygon fill="white" stroke="black" points="2088.72,-179.5 2088.72,-198.5 2203.72,-198.5 2203.72,-179.5 2088.72,-179.5"/>
<text text-anchor="middle" x="2146.22" y="-186.5" font-family="Helvetica,sans-Serif" font-size="10.00">OMSimInputData.hh</text>
</a>
</g>
</g>
<!-- Node1&#45;&gt;Node33 -->
<g id="edge42" class="edge">
<title>Node1&#45;&gt;Node33</title>
<path fill="none" stroke="midnightblue" d="M1339.88,-242.6C1459.33,-238.68 1791.05,-226.12 2078.31,-199.01"/>
<polygon fill="midnightblue" stroke="midnightblue" points="2078.88,-202.47 2088.51,-198.04 2078.22,-195.5 2078.88,-202.47"/>
</g>
<!-- Node3 -->
<g id="node3" class="node">
<title>Node3</title>
<g id="a_node3"><a xlink:title=" ">
<polygon fill="white" stroke="#bfbfbf" points="15.22,-118 15.22,-137 207.22,-137 207.22,-118 15.22,-118"/>
<text text-anchor="middle" x="111.22" y="-125" font-family="Helvetica,sans-Serif" font-size="10.00">G4VUserPrimaryGeneratorAction.hh</text>
</a>
</g>
</g>
<!-- Node2&#45;&gt;Node3 -->
<g id="edge2" class="edge">
<title>Node2&#45;&gt;Node3</title>
<path fill="none" stroke="midnightblue" d="M217.45,-179.48C196.73,-169.53 162.27,-152.99 138.23,-141.46"/>
<polygon fill="midnightblue" stroke="midnightblue" points="139.48,-138.18 128.95,-137.01 136.45,-144.49 139.48,-138.18"/>
</g>
<!-- Node4 -->
<g id="node4" class="node">
<title>Node4</title>
<g id="a_node4"><a xlink:title=" ">
<polygon fill="white" stroke="#bfbfbf" points="80.72,-56.5 80.72,-75.5 147.72,-75.5 147.72,-56.5 80.72,-56.5"/>
<text text-anchor="middle" x="114.22" y="-63.5" font-family="Helvetica,sans-Serif" font-size="10.00">globals.hh</text>
</a>
</g>
</g>
<!-- Node2&#45;&gt;Node4 -->
<g id="edge3" class="edge">
<title>Node2&#45;&gt;Node4</title>
<path fill="none" stroke="midnightblue" d="M189,-185.65C128.9,-181.51 28.9,-170.57 6.22,-143 -2.54,-132.36 -1.42,-123.46 6.22,-112 20.55,-90.51 47.29,-79.26 70.58,-73.39"/>
<polygon fill="midnightblue" stroke="midnightblue" points="71.66,-76.73 80.64,-71.12 70.12,-69.9 71.66,-76.73"/>
</g>
<!-- Node5 -->
<g id="node5" class="node">
<title>Node5</title>
<g id="a_node5"><a xlink:title=" ">
<polygon fill="white" stroke="#bfbfbf" points="292.72,-56.5 292.72,-75.5 339.72,-75.5 339.72,-56.5 292.72,-56.5"/>
<text text-anchor="middle" x="316.22" y="-63.5" font-family="Helvetica,sans-Serif" font-size="10.00">vector</text>
</a>
</g>
</g>
<!-- Node2&#45;&gt;Node5 -->
<g id="edge4" class="edge">
<title>Node2&#45;&gt;Node5</title>
<path fill="none" stroke="midnightblue" d="M235.5,-179.25C236.37,-164.24 239.91,-133.19 254.22,-112 263.08,-98.87 277.12,-88.22 289.59,-80.58"/>
<polygon fill="midnightblue" stroke="midnightblue" points="291.39,-83.59 298.31,-75.56 287.89,-77.52 291.39,-83.59"/>
</g>
<!-- Node2&#45;&gt;Node6 -->
<g id="edge5" class="edge">
<title>Node2&#45;&gt;Node6</title>
<path fill="none" stroke="midnightblue" d="M246.82,-179.48C259.69,-170.02 280.69,-154.6 296.22,-143.19"/>
<polygon fill="midnightblue" stroke="midnightblue" points="298.65,-145.75 304.63,-137.01 294.5,-140.11 298.65,-145.75"/>
</g>
<!-- Node6&#45;&gt;Node4 -->
<g id="edge6" class="edge">
<title>Node6&#45;&gt;Node4</title>
<path fill="none" stroke="midnightblue" d="M287.28,-117.98C251.95,-107.57 192.09,-89.94 152.85,-78.38"/>
<polygon fill="midnightblue" stroke="midnightblue" points="153.69,-74.98 143.11,-75.51 151.71,-81.69 153.69,-74.98"/>
</g>
<!-- Node6&#45;&gt;Node5 -->
<g id="edge7" class="edge">
<title>Node6&#45;&gt;Node5</title>
<path fill="none" stroke="midnightblue" d="M316.22,-117.98C316.22,-109.58 316.22,-96.48 316.22,-85.66"/>
<polygon fill="midnightblue" stroke="midnightblue" points="319.72,-85.51 316.22,-75.51 312.72,-85.51 319.72,-85.51"/>
</g>
<!-- Node7 -->
<g id="node7" class="node">
<title>Node7</title>
<g id="a_node7"><a xlink:title=" ">
<polygon fill="white" stroke="#bfbfbf" points="475.72,-56.5 475.72,-75.5 578.72,-75.5 578.72,-56.5 475.72,-56.5"/>
<text text-anchor="middle" x="527.22" y="-63.5" font-family="Helvetica,sans-Serif" font-size="10.00">G4ThreeVector.hh</text>
</a>
</g>
</g>
<!-- Node6&#45;&gt;Node7 -->
<g id="edge8" class="edge">
<title>Node6&#45;&gt;Node7</title>
<path fill="none" stroke="midnightblue" d="M346.45,-117.98C383.5,-107.53 446.41,-89.79 487.38,-78.23"/>
<polygon fill="midnightblue" stroke="midnightblue" points="488.37,-81.59 497.04,-75.51 486.47,-74.85 488.37,-81.59"/>
</g>
<!-- Node8&#45;&gt;Node5 -->
<g id="edge22" class="edge">
<title>Node8&#45;&gt;Node5</title>
<path fill="none" stroke="midnightblue" d="M539.12,-179.85C502.18,-173.3 454.9,-161.96 416.22,-143 396.34,-133.25 394.8,-125.46 377.22,-112 363.73,-101.67 348.33,-90.32 336.38,-81.6"/>
<polygon fill="midnightblue" stroke="midnightblue" points="338.15,-78.55 328.01,-75.5 334.03,-84.22 338.15,-78.55"/>
</g>
<!-- Node8&#45;&gt;Node7 -->
<g id="edge12" class="edge">
<title>Node8&#45;&gt;Node7</title>
<path fill="none" stroke="midnightblue" d="M585.12,-179.22C572.82,-171.29 555.95,-158.5 546.22,-143 535.28,-125.57 530.63,-102.2 528.66,-86"/>
<polygon fill="midnightblue" stroke="midnightblue" points="532.11,-85.27 527.65,-75.65 525.14,-85.95 532.11,-85.27"/>
</g>
<!-- Node9 -->
<g id="node9" class="node">
<title>Node9</title>
<g id="a_node9"><a xlink:title=" ">
<polygon fill="white" stroke="#bfbfbf" points="554.72,-0.5 554.72,-19.5 627.72,-19.5 627.72,-0.5 554.72,-0.5"/>
<text text-anchor="middle" x="591.22" y="-7.5" font-family="Helvetica,sans-Serif" font-size="10.00">G4Types.hh</text>
</a>
</g>
</g>
<!-- Node8&#45;&gt;Node9 -->
<g id="edge10" class="edge">
<title>Node8&#45;&gt;Node9</title>
<path fill="none" stroke="midnightblue" d="M601.46,-179.4C602.7,-170.36 604.51,-155.71 605.22,-143 607.46,-102.49 600,-55.28 595.12,-29.73"/>
<polygon fill="midnightblue" stroke="midnightblue" points="598.49,-28.75 593.1,-19.62 591.63,-30.12 598.49,-28.75"/>
</g>
<!-- Node10 -->
<g id="node10" class="node">
<title>Node10</title>
<g id="a_node10"><a xlink:title=" ">
<polygon fill="white" stroke="#bfbfbf" points="425.22,-118 425.22,-137 499.22,-137 499.22,-118 425.22,-118"/>
<text text-anchor="middle" x="462.22" y="-125" font-family="Helvetica,sans-Serif" font-size="10.00">G4String.hh</text>
</a>
</g>
</g>
<!-- Node8&#45;&gt;Node10 -->
<g id="edge11" class="edge">
<title>Node8&#45;&gt;Node10</title>
<path fill="none" stroke="midnightblue" d="M580.45,-179.48C557.08,-169.4 518,-152.55 491.21,-141"/>
<polygon fill="midnightblue" stroke="midnightblue" points="492.52,-137.75 481.95,-137.01 489.75,-144.18 492.52,-137.75"/>
</g>
<!-- Node11 -->
<g id="node11" class="node">
<title>Node11</title>
<g id="a_node11"><a xlink:href="_o_m_sim_hit_manager_8hh.html" target="_top" xlink:title="Defines structures and classes related to optical module photon hit management.">
<polygon fill="white" stroke="black" points="653.72,-118 653.72,-137 776.72,-137 776.72,-118 653.72,-118"/>
<text text-anchor="middle" x="715.22" y="-125" font-family="Helvetica,sans-Serif" font-size="10.00">OMSimHitManager.hh</text>
</a>
</g>
</g>
<!-- Node8&#45;&gt;Node11 -->
<g id="edge13" class="edge">
<title>Node8&#45;&gt;Node11</title>
<path fill="none" stroke="midnightblue" d="M616.69,-179.48C635.82,-169.58 667.59,-153.14 689.87,-141.62"/>
<polygon fill="midnightblue" stroke="midnightblue" points="691.5,-144.71 698.77,-137.01 688.28,-138.5 691.5,-144.71"/>
</g>
<!-- Node17 -->
<g id="node17" class="node">
<title>Node17</title>
<g id="a_node17"><a xlink:title=" ">
<polygon fill="white" stroke="#bfbfbf" points="800.72,-56.5 800.72,-75.5 855.72,-75.5 855.72,-56.5 800.72,-56.5"/>
<text text-anchor="middle" x="828.22" y="-63.5" font-family="Helvetica,sans-Serif" font-size="10.00">fstream</text>
</a>
</g>
</g>
<!-- Node8&#45;&gt;Node17 -->
<g id="edge23" class="edge">
<title>Node8&#45;&gt;Node17</title>
<path fill="none" stroke="midnightblue" d="M661.28,-185.38C700.12,-180.95 749.62,-169.91 785.22,-143 804.45,-128.47 816.38,-102.67 822.66,-85.2"/>
<polygon fill="midnightblue" stroke="midnightblue" points="826.02,-86.18 825.85,-75.58 819.38,-83.97 826.02,-86.18"/>
</g>
<!-- Node18 -->
<g id="node18" class="node">
<title>Node18</title>
<g id="a_node18"><a xlink:title=" ">
<polygon fill="white" stroke="#bfbfbf" points="555.72,-118 555.72,-137 596.72,-137 596.72,-118 555.72,-118"/>
<text text-anchor="middle" x="576.22" y="-125" font-family="Helvetica,sans-Serif" font-size="10.00">tuple</text>
</a>
</g>
</g>
<!-- Node8&#45;&gt;Node18 -->
<g id="edge24" class="edge">
<title>Node8&#45;&gt;Node18</title>
<path fill="none" stroke="midnightblue" d="M596.78,-179.48C593.32,-170.9 587.89,-157.43 583.47,-146.48"/>
<polygon fill="midnightblue" stroke="midnightblue" points="586.64,-144.97 579.65,-137.01 580.14,-147.59 586.64,-144.97"/>
</g>
<!-- Node11&#45;&gt;Node7 -->
<g id="edge20" class="edge">
<title>Node11&#45;&gt;Node7</title>
<path fill="none" stroke="midnightblue" d="M688.28,-117.98C655.61,-107.64 600.4,-90.16 563.88,-78.6"/>
<polygon fill="midnightblue" stroke="midnightblue" points="564.69,-75.19 554.1,-75.51 562.58,-81.86 564.69,-75.19"/>
</g>
<!-- Node12 -->
<g id="node12" class="node">
<title>Node12</title>
<g id="a_node12"><a xlink:href="_o_m_sim_p_m_t_response_8hh.html" target="_top" xlink:title="Provides simulation for PMT response. This class is responsible for transforming hits on photocathode...">
<polygon fill="white" stroke="black" points="647.72,-56.5 647.72,-75.5 782.72,-75.5 782.72,-56.5 647.72,-56.5"/>
<text text-anchor="middle" x="715.22" y="-63.5" font-family="Helvetica,sans-Serif" font-size="10.00">OMSimPMTResponse.hh</text>
</a>
</g>
</g>
<!-- Node11&#45;&gt;Node12 -->
<g id="edge14" class="edge">
<title>Node11&#45;&gt;Node12</title>
<path fill="none" stroke="midnightblue" d="M715.22,-117.98C715.22,-109.58 715.22,-96.48 715.22,-85.66"/>
<polygon fill="midnightblue" stroke="midnightblue" points="718.72,-85.51 715.22,-75.51 711.72,-85.51 718.72,-85.51"/>
</g>
<!-- Node11&#45;&gt;Node17 -->
<g id="edge21" class="edge">
<title>Node11&#45;&gt;Node17</title>
<path fill="none" stroke="midnightblue" d="M731.41,-117.98C750.12,-108.12 781.14,-91.79 803.02,-80.27"/>
<polygon fill="midnightblue" stroke="midnightblue" points="804.84,-83.27 812.06,-75.51 801.58,-77.07 804.84,-83.27"/>
</g>
<!-- Node12&#45;&gt;Node9 -->
<g id="edge16" class="edge">
<title>Node12&#45;&gt;Node9</title>
<path fill="none" stroke="midnightblue" d="M695.57,-56.44C675.25,-47.6 643.31,-33.69 620.12,-23.59"/>
<polygon fill="midnightblue" stroke="midnightblue" points="621.34,-20.3 610.77,-19.52 618.54,-26.72 621.34,-20.3"/>
</g>
<!-- Node12&#45;&gt;Node13 -->
<g id="edge15" class="edge">
<title>Node12&#45;&gt;Node13</title>
<path fill="none" stroke="midnightblue" d="M746.43,-56.44C780.15,-47.2 834.02,-32.44 871.15,-22.26"/>
<polygon fill="midnightblue" stroke="midnightblue" points="872.43,-25.54 881.15,-19.52 870.58,-18.78 872.43,-25.54"/>
</g>
<!-- Node14 -->
<g id="node14" class="node">
<title>Node14</title>
<g id="a_node14"><a xlink:title=" ">
<polygon fill="white" stroke="#bfbfbf" points="796.22,-0.5 796.22,-19.5 834.22,-19.5 834.22,-0.5 796.22,-0.5"/>
<text text-anchor="middle" x="815.22" y="-7.5" font-family="Helvetica,sans-Serif" font-size="10.00">map</text>
</a>
</g>
</g>
<!-- Node12&#45;&gt;Node14 -->
<g id="edge17" class="edge">
<title>Node12&#45;&gt;Node14</title>
<path fill="none" stroke="midnightblue" d="M731.28,-56.32C747.18,-47.74 771.73,-34.49 790.18,-24.52"/>
<polygon fill="midnightblue" stroke="midnightblue" points="792.05,-27.49 799.19,-19.65 788.73,-21.33 792.05,-27.49"/>
</g>
<!-- Node15 -->
<g id="node15" class="node">
<title>Node15</title>
<g id="a_node15"><a xlink:title=" ">
<polygon fill="white" stroke="#bfbfbf" points="645.72,-0.5 645.72,-19.5 706.72,-19.5 706.72,-0.5 645.72,-0.5"/>
<text text-anchor="middle" x="676.22" y="-7.5" font-family="Helvetica,sans-Serif" font-size="10.00">TGraph.h</text>
</a>
</g>
</g>
<!-- Node12&#45;&gt;Node15 -->
<g id="edge18" class="edge">
<title>Node12&#45;&gt;Node15</title>
<path fill="none" stroke="midnightblue" d="M708.78,-56.08C703.27,-48.46 695.19,-37.26 688.45,-27.94"/>
<polygon fill="midnightblue" stroke="midnightblue" points="691.23,-25.81 682.54,-19.75 685.56,-29.91 691.23,-25.81"/>
</g>
<!-- Node16 -->
<g id="node16" class="node">
<title>Node16</title>
<g id="a_node16"><a xlink:title=" ">
<polygon fill="white" stroke="#bfbfbf" points="724.72,-0.5 724.72,-19.5 777.72,-19.5 777.72,-0.5 724.72,-0.5"/>
<text text-anchor="middle" x="751.22" y="-7.5" font-family="Helvetica,sans-Serif" font-size="10.00">TH2D.h</text>
</a>
</g>
</g>
<!-- Node12&#45;&gt;Node16 -->
<g id="edge19" class="edge">
<title>Node12&#45;&gt;Node16</title>
<path fill="none" stroke="midnightblue" d="M721.16,-56.08C726.19,-48.53 733.55,-37.49 739.73,-28.23"/>
<polygon fill="midnightblue" stroke="midnightblue" points="742.75,-30.01 745.38,-19.75 736.92,-26.13 742.75,-30.01"/>
</g>
<!-- Node19&#45;&gt;Node17 -->
<g id="edge29" class="edge">
<title>Node19&#45;&gt;Node17</title>
<path fill="none" stroke="midnightblue" d="M941.59,-179.33C930.89,-170.48 914.03,-156.2 900.22,-143 879.6,-123.29 857.2,-99.18 842.96,-83.48"/>
<polygon fill="midnightblue" stroke="midnightblue" points="845.24,-80.78 835.94,-75.7 840.04,-85.47 845.24,-80.78"/>
</g>
<!-- Node20 -->
<g id="node20" class="node">
<title>Node20</title>
<g id="a_node20"><a xlink:href="_o_m_sim_logger_8hh.html" target="_top" xlink:title=" ">
<polygon fill="white" stroke="black" points="1097.72,-118 1097.72,-137 1196.72,-137 1196.72,-118 1097.72,-118"/>
<text text-anchor="middle" x="1147.22" y="-125" font-family="Helvetica,sans-Serif" font-size="10.00">OMSimLogger.hh</text>
</a>
</g>
</g>
<!-- Node19&#45;&gt;Node20 -->
<g id="edge26" class="edge">
<title>Node19&#45;&gt;Node20</title>
<path fill="none" stroke="midnightblue" d="M980.16,-179.48C1014.19,-169.09 1071.8,-151.51 1109.68,-139.95"/>
<polygon fill="midnightblue" stroke="midnightblue" points="1110.79,-143.28 1119.33,-137.01 1108.74,-136.58 1110.79,-143.28"/>
</g>
<!-- Node23 -->
<g id="node23" class="node">
<title>Node23</title>
<g id="a_node23"><a xlink:title=" ">
<polygon fill="white" stroke="#bfbfbf" points="909.22,-118 909.22,-137 993.22,-137 993.22,-118 909.22,-118"/>
<text text-anchor="middle" x="951.22" y="-125" font-family="Helvetica,sans-Serif" font-size="10.00">boost/any.hpp</text>
</a>
</g>
</g>
<!-- Node19&#45;&gt;Node23 -->
<g id="edge30" class="edge">
<title>Node19&#45;&gt;Node23</title>
<path fill="none" stroke="midnightblue" d="M952.07,-179.48C951.93,-171.08 951.71,-157.98 951.53,-147.16"/>
<polygon fill="midnightblue" stroke="midnightblue" points="955.03,-146.95 951.36,-137.01 948.03,-147.07 955.03,-146.95"/>
</g>
<!-- Node24 -->
<g id="node24" class="node">
<title>Node24</title>
<g id="a_node24"><a xlink:title=" ">
<polygon fill="white" stroke="#bfbfbf" points="1011.22,-118 1011.22,-137 1079.22,-137 1079.22,-118 1011.22,-118"/>
<text text-anchor="middle" x="1045.22" y="-125" font-family="Helvetica,sans-Serif" font-size="10.00">sys/time.h</text>
</a>
</g>
</g>
<!-- Node19&#45;&gt;Node24 -->
<g id="edge31" class="edge">
<title>Node19&#45;&gt;Node24</title>
<path fill="none" stroke="midnightblue" d="M965.54,-179.48C980.6,-169.84 1005.33,-154.02 1023.25,-142.55"/>
<polygon fill="midnightblue" stroke="midnightblue" points="1025.38,-145.35 1031.92,-137.01 1021.61,-139.45 1025.38,-145.35"/>
</g>
<!-- Node21 -->
<g id="node21" class="node">
<title>Node21</title>
<g id="a_node21"><a xlink:title=" ">
<polygon fill="white" stroke="#bfbfbf" points="1088.22,-56.5 1088.22,-75.5 1138.22,-75.5 1138.22,-56.5 1088.22,-56.5"/>
<text text-anchor="middle" x="1113.22" y="-63.5" font-family="Helvetica,sans-Serif" font-size="10.00">stdio.h</text>
</a>
</g>
</g>
<!-- Node20&#45;&gt;Node21 -->
<g id="edge27" class="edge">
<title>Node20&#45;&gt;Node21</title>
<path fill="none" stroke="midnightblue" d="M1142.35,-117.98C1137.35,-109.23 1129.43,-95.37 1123.11,-84.31"/>
<polygon fill="midnightblue" stroke="midnightblue" points="1126.08,-82.46 1118.08,-75.51 1120,-85.93 1126.08,-82.46"/>
</g>
<!-- Node22 -->
<g id="node22" class="node">
<title>Node22</title>
<g id="a_node22"><a xlink:title=" ">
<polygon fill="white" stroke="#bfbfbf" points="1156.22,-56.5 1156.22,-75.5 1204.22,-75.5 1204.22,-56.5 1156.22,-56.5"/>
<text text-anchor="middle" x="1180.22" y="-63.5" font-family="Helvetica,sans-Serif" font-size="10.00">time.h</text>
</a>
</g>
</g>
<!-- Node20&#45;&gt;Node22 -->
<g id="edge28" class="edge">
<title>Node20&#45;&gt;Node22</title>
<path fill="none" stroke="midnightblue" d="M1151.95,-117.98C1156.8,-109.23 1164.48,-95.37 1170.62,-84.31"/>
<polygon fill="midnightblue" stroke="midnightblue" points="1173.71,-85.95 1175.5,-75.51 1167.59,-82.56 1173.71,-85.95"/>
</g>
<!-- Node33&#45;&gt;Node13 -->
<g id="edge44" class="edge">
<title>Node33&#45;&gt;Node13</title>
<path fill="none" stroke="midnightblue" d="M2141.49,-179.49C2131.85,-163.08 2108.2,-127.35 2077.22,-112 1883.16,-15.84 1203.32,-9.81 982.25,-10.47"/>
<polygon fill="midnightblue" stroke="midnightblue" points="982.06,-6.97 972.07,-10.51 982.09,-13.97 982.06,-6.97"/>
</g>
<!-- Node34 -->
<g id="node34" class="node">
<title>Node34</title>
<g id="a_node34"><a xlink:title=" ">
<polygon fill="white" stroke="#bfbfbf" points="2124.72,-118 2124.72,-137 2267.72,-137 2267.72,-118 2124.72,-118"/>
<text text-anchor="middle" x="2196.22" y="-125" font-family="Helvetica,sans-Serif" font-size="10.00">G4OpBoundaryProcess.hh</text>
</a>
</g>
</g>
<!-- Node33&#45;&gt;Node34 -->
<g id="edge43" class="edge">
<title>Node33&#45;&gt;Node34</title>
<path fill="none" stroke="midnightblue" d="M2153.38,-179.48C2160.96,-170.46 2173.09,-156.02 2182.51,-144.81"/>
<polygon fill="midnightblue" stroke="midnightblue" points="2185.31,-146.92 2189.07,-137.01 2179.95,-142.41 2185.31,-146.92"/>
</g>
<!-- Node35 -->
<g id="node35" class="node">
<title>Node35</title>
<g id="a_node35"><a xlink:title=" ">
<polygon fill="white" stroke="#bfbfbf" points="1954.72,-112.5 1954.72,-142.5 2067.72,-142.5 2067.72,-112.5 1954.72,-112.5"/>
<text text-anchor="start" x="1962.72" y="-130.5" font-family="Helvetica,sans-Serif" font-size="10.00">boost/property_tree</text>
<text text-anchor="middle" x="2011.22" y="-119.5" font-family="Helvetica,sans-Serif" font-size="10.00">/json_parser.hpp</text>
</a>
</g>
</g>
<!-- Node33&#45;&gt;Node35 -->
<g id="edge45" class="edge">
<title>Node33&#45;&gt;Node35</title>
<path fill="none" stroke="midnightblue" d="M2126.88,-179.48C2107.48,-170.93 2077.02,-157.5 2052.22,-146.57"/>
<polygon fill="midnightblue" stroke="midnightblue" points="2053.6,-143.35 2043.03,-142.52 2050.77,-149.76 2053.6,-143.35"/>
</g>
</g>
</svg>
