<?xml version="1.0" encoding="UTF-8" standalone="no"?>
<!DOCTYPE svg PUBLIC "-//W3C//DTD SVG 1.1//EN"
 "http://www.w3.org/Graphics/SVG/1.1/DTD/svg11.dtd">
<!-- Generated by graphviz version 2.43.0 (0)
 -->
<!-- Title: OMSimMDOMFlasher.cc Pages: 1 -->
<svg width="2006pt" height="319pt"
 viewBox="0.00 0.00 2006.00 319.00" xmlns="http://www.w3.org/2000/svg" xmlns:xlink="http://www.w3.org/1999/xlink">
<g id="graph0" class="graph" transform="scale(1 1) rotate(0) translate(4 315)">
<title>OMSimMDOMFlasher.cc</title>
<polygon fill="white" stroke="transparent" points="-4,4 -4,-315 2002,-315 2002,4 -4,4"/>
<!-- Node1 -->
<g id="node1" class="node">
<title>Node1</title>
<g id="a_node1"><a xlink:title=" ">
<polygon fill="#bfbfbf" stroke="black" points="765,-291.5 765,-310.5 899,-310.5 899,-291.5 765,-291.5"/>
<text text-anchor="middle" x="832" y="-298.5" font-family="Helvetica,sans-Serif" font-size="10.00">OMSimMDOMFlasher.cc</text>
</a>
</g>
</g>
<!-- Node2 -->
<g id="node2" class="node">
<title>Node2</title>
<g id="a_node2"><a xlink:href="_o_m_sim_m_d_o_m_flasher_8hh.html" target="_top" xlink:title=" ">
<polygon fill="white" stroke="black" points="142.5,-179.5 142.5,-198.5 277.5,-198.5 277.5,-179.5 142.5,-179.5"/>
<text text-anchor="middle" x="210" y="-186.5" font-family="Helvetica,sans-Serif" font-size="10.00">OMSimMDOMFlasher.hh</text>
</a>
</g>
</g>
<!-- Node1&#45;&gt;Node2 -->
<g id="edge1" class="edge">
<title>Node1&#45;&gt;Node2</title>
<path fill="none" stroke="midnightblue" d="M764.84,-299.22C639.79,-296.99 376.31,-288.35 292,-255 264.96,-244.3 239.67,-221.56 224.52,-206.03"/>
<polygon fill="midnightblue" stroke="midnightblue" points="226.97,-203.53 217.56,-198.66 221.88,-208.34 226.97,-203.53"/>
</g>
<!-- Node3 -->
<g id="node3" class="node">
<title>Node3</title>
<g id="a_node3"><a xlink:href="abc_detector_component_8hh.html" target="_top" xlink:title=" ">
<polygon fill="white" stroke="black" points="606.5,-123.5 606.5,-142.5 753.5,-142.5 753.5,-123.5 606.5,-123.5"/>
<text text-anchor="middle" x="680" y="-130.5" font-family="Helvetica,sans-Serif" font-size="10.00">abcDetectorComponent.hh</text>
</a>
</g>
</g>
<!-- Node1&#45;&gt;Node3 -->
<g id="edge46" class="edge">
<title>Node1&#45;&gt;Node3</title>
<path fill="none" stroke="midnightblue" d="M823.64,-291.49C806.79,-274.27 767.65,-233.98 736,-199 721.24,-182.69 704.88,-163.57 693.67,-150.31"/>
<polygon fill="midnightblue" stroke="midnightblue" points="696.24,-147.92 687.12,-142.53 690.88,-152.43 696.24,-147.92"/>
</g>
<!-- Node4 -->
<g id="node4" class="node">
<title>Node4</title>
<g id="a_node4"><a xlink:title=" ">
<polygon fill="white" stroke="#bfbfbf" points="263,-67.5 263,-86.5 379,-86.5 379,-67.5 263,-67.5"/>
<text text-anchor="middle" x="321" y="-74.5" font-family="Helvetica,sans-Serif" font-size="10.00">G4LogicalVolume.hh</text>
</a>
</g>
</g>
<!-- Node1&#45;&gt;Node4 -->
<g id="edge49" class="edge">
<title>Node1&#45;&gt;Node4</title>
<path fill="none" stroke="midnightblue" d="M764.86,-297.76C633.88,-292.9 348.83,-279.78 254,-255 196.67,-240.02 164.91,-248.93 133,-199 114.81,-170.54 112.08,-149.52 133,-123 147.94,-104.06 205.4,-92.2 252.9,-85.44"/>
<polygon fill="midnightblue" stroke="midnightblue" points="253.44,-88.9 262.87,-84.08 252.49,-81.97 253.44,-88.9"/>
</g>
<!-- Node5 -->
<g id="node5" class="node">
<title>Node5</title>
<g id="a_node5"><a xlink:title=" ">
<polygon fill="white" stroke="#bfbfbf" points="366.5,-6 366.5,-25 485.5,-25 485.5,-6 366.5,-6"/>
<text text-anchor="middle" x="426" y="-13" font-family="Helvetica,sans-Serif" font-size="10.00">G4SystemOfUnits.hh</text>
</a>
</g>
</g>
<!-- Node1&#45;&gt;Node5 -->
<g id="edge51" class="edge">
<title>Node1&#45;&gt;Node5</title>
<path fill="none" stroke="midnightblue" d="M764.97,-298.96C614.1,-296.1 251.85,-286.1 134,-255 70,-238.11 0,-256.19 0,-190 0,-190 0,-190 0,-132 0,-85.84 38.68,-85.43 81,-67 170.53,-28 284.22,-18.1 356.07,-16.11"/>
<polygon fill="midnightblue" stroke="midnightblue" points="356.44,-19.6 366.36,-15.87 356.28,-12.61 356.44,-19.6"/>
</g>
<!-- Node6 -->
<g id="node6" class="node">
<title>Node6</title>
<g id="a_node6"><a xlink:title=" ">
<polygon fill="white" stroke="#bfbfbf" points="102.5,-67.5 102.5,-86.5 209.5,-86.5 209.5,-67.5 102.5,-67.5"/>
<text text-anchor="middle" x="156" y="-74.5" font-family="Helvetica,sans-Serif" font-size="10.00">G4Transform3D.hh</text>
</a>
</g>
</g>
<!-- Node1&#45;&gt;Node6 -->
<g id="edge52" class="edge">
<title>Node1&#45;&gt;Node6</title>
<path fill="none" stroke="midnightblue" d="M764.87,-298.35C606.8,-294.05 220.51,-281.01 168,-255 111.78,-227.16 96.45,-181.92 118,-123 122.06,-111.91 130.19,-101.67 137.89,-93.76"/>
<polygon fill="midnightblue" stroke="midnightblue" points="140.47,-96.14 145.29,-86.7 135.64,-91.07 140.47,-96.14"/>
</g>
<!-- Node7 -->
<g id="node7" class="node">
<title>Node7</title>
<g id="a_node7"><a xlink:title=" ">
<polygon fill="white" stroke="#bfbfbf" points="905,-67.5 905,-86.5 1013,-86.5 1013,-67.5 905,-67.5"/>
<text text-anchor="middle" x="959" y="-74.5" font-family="Helvetica,sans-Serif" font-size="10.00">G4VisAttributes.hh</text>
</a>
</g>
</g>
<!-- Node1&#45;&gt;Node7 -->
<g id="edge55" class="edge">
<title>Node1&#45;&gt;Node7</title>
<path fill="none" stroke="midnightblue" d="M860.32,-291.44C897.89,-278.38 962.61,-249.52 990,-199 1008.43,-165 986.14,-119.66 970.92,-95.27"/>
<polygon fill="midnightblue" stroke="midnightblue" points="973.75,-93.19 965.34,-86.74 967.89,-97.02 973.75,-93.19"/>
</g>
<!-- Node15 -->
<g id="node15" class="node">
<title>Node15</title>
<g id="a_node15"><a xlink:title=" ">
<polygon fill="white" stroke="#bfbfbf" points="1031,-67.5 1031,-86.5 1141,-86.5 1141,-67.5 1031,-67.5"/>
<text text-anchor="middle" x="1086" y="-74.5" font-family="Helvetica,sans-Serif" font-size="10.00">G4PVPlacement.hh</text>
</a>
</g>
</g>
<!-- Node1&#45;&gt;Node15 -->
<g id="edge50" class="edge">
<title>Node1&#45;&gt;Node15</title>
<path fill="none" stroke="midnightblue" d="M875.84,-291.47C902.75,-284.73 936.93,-273.32 963,-255 1022.92,-212.91 1063.1,-131.75 1078.71,-95.84"/>
<polygon fill="midnightblue" stroke="midnightblue" points="1081.94,-97.18 1082.61,-86.61 1075.5,-94.46 1081.94,-97.18"/>
</g>
<!-- Node18 -->
<g id="node18" class="node">
<title>Node18</title>
<g id="a_node18"><a xlink:title=" ">
<polygon fill="white" stroke="#bfbfbf" points="414,-123.5 414,-142.5 512,-142.5 512,-123.5 414,-123.5"/>
<text text-anchor="middle" x="463" y="-130.5" font-family="Helvetica,sans-Serif" font-size="10.00">G4UnionSolid.hh</text>
</a>
</g>
</g>
<!-- Node1&#45;&gt;Node18 -->
<g id="edge54" class="edge">
<title>Node1&#45;&gt;Node18</title>
<path fill="none" stroke="midnightblue" d="M764.85,-293.64C709.75,-287.27 630.17,-275.41 563,-255 505.14,-237.42 471.8,-249.8 439,-199 429.26,-183.91 439.04,-164.32 448.89,-150.6"/>
<polygon fill="midnightblue" stroke="midnightblue" points="451.78,-152.58 455.17,-142.54 446.26,-148.28 451.78,-152.58"/>
</g>
<!-- Node19 -->
<g id="node19" class="node">
<title>Node19</title>
<g id="a_node19"><a xlink:title=" ">
<polygon fill="white" stroke="#bfbfbf" points="290.5,-123.5 290.5,-142.5 357.5,-142.5 357.5,-123.5 290.5,-123.5"/>
<text text-anchor="middle" x="324" y="-130.5" font-family="Helvetica,sans-Serif" font-size="10.00">G4Tubs.hh</text>
</a>
</g>
</g>
<!-- Node1&#45;&gt;Node19 -->
<g id="edge53" class="edge">
<title>Node1&#45;&gt;Node19</title>
<path fill="none" stroke="midnightblue" d="M764.81,-295.79C676.72,-289.54 527.48,-276.2 477,-255 418.43,-230.4 363.54,-176.88 338.39,-150.03"/>
<polygon fill="midnightblue" stroke="midnightblue" points="340.91,-147.61 331.57,-142.62 335.76,-152.35 340.91,-147.61"/>
</g>
<!-- Node21 -->
<g id="node21" class="node">
<title>Node21</title>
<g id="a_node21"><a xlink:href="_o_m_sim_m_d_o_m_8hh.html" target="_top" xlink:title=" ">
<polygon fill="white" stroke="black" points="572,-235.5 572,-254.5 672,-254.5 672,-235.5 572,-235.5"/>
<text text-anchor="middle" x="622" y="-242.5" font-family="Helvetica,sans-Serif" font-size="10.00">OMSimMDOM.hh</text>
</a>
</g>
</g>
<!-- Node1&#45;&gt;Node21 -->
<g id="edge23" class="edge">
<title>Node1&#45;&gt;Node21</title>
<path fill="none" stroke="midnightblue" d="M798.72,-291.44C762.55,-282.14 704.62,-267.25 665.02,-257.06"/>
<polygon fill="midnightblue" stroke="midnightblue" points="665.68,-253.62 655.12,-254.52 663.93,-260.4 665.68,-253.62"/>
</g>
<!-- Node26 -->
<g id="node26" class="node">
<title>Node26</title>
<g id="a_node26"><a xlink:title=" ">
<polygon fill="white" stroke="#bfbfbf" points="912.5,-179.5 912.5,-198.5 981.5,-198.5 981.5,-179.5 912.5,-179.5"/>
<text text-anchor="middle" x="947" y="-186.5" font-family="Helvetica,sans-Serif" font-size="10.00">G4Cons.hh</text>
</a>
</g>
</g>
<!-- Node1&#45;&gt;Node26 -->
<g id="edge47" class="edge">
<title>Node1&#45;&gt;Node26</title>
<path fill="none" stroke="midnightblue" d="M841.02,-291.37C860.34,-272.89 905.92,-229.29 930.54,-205.74"/>
<polygon fill="midnightblue" stroke="midnightblue" points="933.21,-208.03 938.02,-198.59 928.37,-202.97 933.21,-208.03"/>
</g>
<!-- Node27 -->
<g id="node27" class="node">
<title>Node27</title>
<g id="a_node27"><a xlink:title=" ">
<polygon fill="white" stroke="#bfbfbf" points="1114,-235.5 1114,-254.5 1200,-254.5 1200,-235.5 1114,-235.5"/>
<text text-anchor="middle" x="1157" y="-242.5" font-family="Helvetica,sans-Serif" font-size="10.00">G4Ellipsoid.hh</text>
</a>
</g>
</g>
<!-- Node1&#45;&gt;Node27 -->
<g id="edge48" class="edge">
<title>Node1&#45;&gt;Node27</title>
<path fill="none" stroke="midnightblue" d="M883.5,-291.44C943.65,-281.45 1042.67,-265 1103.62,-254.87"/>
<polygon fill="midnightblue" stroke="midnightblue" points="1104.5,-258.27 1113.8,-253.18 1103.36,-251.37 1104.5,-258.27"/>
</g>
<!-- Node28 -->
<g id="node28" class="node">
<title>Node28</title>
<g id="a_node28"><a xlink:href="_o_m_sim_logger_8hh.html" target="_top" xlink:title=" ">
<polygon fill="white" stroke="black" points="1848.5,-123.5 1848.5,-142.5 1947.5,-142.5 1947.5,-123.5 1848.5,-123.5"/>
<text text-anchor="middle" x="1898" y="-130.5" font-family="Helvetica,sans-Serif" font-size="10.00">OMSimLogger.hh</text>
</a>
</g>
</g>
<!-- Node1&#45;&gt;Node28 -->
<g id="edge56" class="edge">
<title>Node1&#45;&gt;Node28</title>
<path fill="none" stroke="midnightblue" d="M899.23,-298.71C1065.07,-295.11 1490.25,-283.35 1629,-255 1700.76,-240.34 1717.5,-229.7 1784,-199 1817.12,-183.71 1853.41,-162.12 1875.95,-148.09"/>
<polygon fill="midnightblue" stroke="midnightblue" points="1878.11,-150.86 1884.71,-142.58 1874.38,-144.94 1878.11,-150.86"/>
</g>
<!-- Node31 -->
<g id="node31" class="node">
<title>Node31</title>
<g id="a_node31"><a xlink:href="_o_m_sim_command_args_table_8hh.html" target="_top" xlink:title="Definition of the OMSimCommandArgsTable singleton class, which controls user args.">
<polygon fill="white" stroke="black" points="1422,-179.5 1422,-198.5 1586,-198.5 1586,-179.5 1422,-179.5"/>
<text text-anchor="middle" x="1504" y="-186.5" font-family="Helvetica,sans-Serif" font-size="10.00">OMSimCommandArgsTable.hh</text>
</a>
</g>
</g>
<!-- Node1&#45;&gt;Node31 -->
<g id="edge59" class="edge">
<title>Node1&#45;&gt;Node31</title>
<path fill="none" stroke="midnightblue" d="M899.02,-294C974.63,-286.77 1101.12,-273.28 1209,-255 1299,-239.75 1402.98,-215.19 1460.33,-201.03"/>
<polygon fill="midnightblue" stroke="midnightblue" points="1461.28,-204.4 1470.14,-198.6 1459.6,-197.61 1461.28,-204.4"/>
</g>
<!-- Node38 -->
<g id="node38" class="node">
<title>Node38</title>
<g id="a_node38"><a xlink:href="_o_m_sim_u_iinterface_8hh.html" target="_top" xlink:title="The OMSimUIinterface class provides a singleton interface to Geant4&#39;s UI manager.">
<polygon fill="white" stroke="black" points="1498.5,-235.5 1498.5,-254.5 1619.5,-254.5 1619.5,-235.5 1498.5,-235.5"/>
<text text-anchor="middle" x="1559" y="-242.5" font-family="Helvetica,sans-Serif" font-size="10.00">OMSimUIinterface.hh</text>
</a>
</g>
</g>
<!-- Node1&#45;&gt;Node38 -->
<g id="edge68" class="edge">
<title>Node1&#45;&gt;Node38</title>
<path fill="none" stroke="midnightblue" d="M899.09,-295.02C1036.26,-284.83 1347.69,-261.7 1488.06,-251.27"/>
<polygon fill="midnightblue" stroke="midnightblue" points="1488.55,-254.74 1498.27,-250.51 1488.04,-247.76 1488.55,-254.74"/>
</g>
<!-- Node40 -->
<g id="node40" class="node">
<title>Node40</title>
<g id="a_node40"><a xlink:title=" ">
<polygon fill="white" stroke="#bfbfbf" points="1834,-235.5 1834,-254.5 1998,-254.5 1998,-235.5 1834,-235.5"/>
<text text-anchor="middle" x="1916" y="-242.5" font-family="Helvetica,sans-Serif" font-size="10.00">G4TouchableHistoryHandle.hh</text>
</a>
</g>
</g>
<!-- Node1&#45;&gt;Node40 -->
<g id="edge74" class="edge">
<title>Node1&#45;&gt;Node40</title>
<path fill="none" stroke="midnightblue" d="M899.15,-298.05C1058.88,-293.18 1473.99,-279.08 1820,-255 1821.27,-254.91 1822.55,-254.82 1823.83,-254.73"/>
<polygon fill="midnightblue" stroke="midnightblue" points="1824.1,-258.22 1833.8,-253.97 1823.56,-251.24 1824.1,-258.22"/>
</g>
<!-- Node2&#45;&gt;Node3 -->
<g id="edge2" class="edge">
<title>Node2&#45;&gt;Node3</title>
<path fill="none" stroke="midnightblue" d="M277.59,-180.23C361.69,-170.57 505.3,-154.07 596.28,-143.62"/>
<polygon fill="midnightblue" stroke="midnightblue" points="596.75,-147.09 606.29,-142.47 595.95,-140.13 596.75,-147.09"/>
</g>
<!-- Node2&#45;&gt;Node4 -->
<g id="edge18" class="edge">
<title>Node2&#45;&gt;Node4</title>
<path fill="none" stroke="midnightblue" d="M218.71,-179.37C237.35,-160.89 281.35,-117.29 305.11,-93.74"/>
<polygon fill="midnightblue" stroke="midnightblue" points="307.69,-96.12 312.33,-86.59 302.76,-91.14 307.69,-96.12"/>
</g>
<!-- Node2&#45;&gt;Node5 -->
<g id="edge19" class="edge">
<title>Node2&#45;&gt;Node5</title>
<path fill="none" stroke="midnightblue" d="M189.86,-179.38C147.28,-160 54.99,-111.2 93,-67 126.23,-28.35 268.65,-18.92 356.12,-16.84"/>
<polygon fill="midnightblue" stroke="midnightblue" points="356.32,-20.34 366.24,-16.62 356.17,-13.34 356.32,-20.34"/>
</g>
<!-- Node2&#45;&gt;Node18 -->
<g id="edge20" class="edge">
<title>Node2&#45;&gt;Node18</title>
<path fill="none" stroke="midnightblue" d="M250.09,-179.44C294.32,-170 365.54,-154.8 413.28,-144.61"/>
<polygon fill="midnightblue" stroke="midnightblue" points="414.05,-148.03 423.1,-142.52 412.59,-141.18 414.05,-148.03"/>
</g>
<!-- Node2&#45;&gt;Node19 -->
<g id="edge21" class="edge">
<title>Node2&#45;&gt;Node19</title>
<path fill="none" stroke="midnightblue" d="M228.06,-179.44C246.57,-170.68 275.58,-156.94 296.86,-146.86"/>
<polygon fill="midnightblue" stroke="midnightblue" points="298.48,-149.96 306.02,-142.52 295.49,-143.63 298.48,-149.96"/>
</g>
<!-- Node20 -->
<g id="node20" class="node">
<title>Node20</title>
<g id="a_node20"><a xlink:title=" ">
<polygon fill="white" stroke="#bfbfbf" points="142,-123.5 142,-142.5 234,-142.5 234,-123.5 142,-123.5"/>
<text text-anchor="middle" x="188" y="-130.5" font-family="Helvetica,sans-Serif" font-size="10.00">G4Navigator.hh</text>
</a>
</g>
</g>
<!-- Node2&#45;&gt;Node20 -->
<g id="edge22" class="edge">
<title>Node2&#45;&gt;Node20</title>
<path fill="none" stroke="midnightblue" d="M206.37,-179.08C203.39,-171.77 199.07,-161.18 195.38,-152.1"/>
<polygon fill="midnightblue" stroke="midnightblue" points="198.58,-150.69 191.57,-142.75 192.1,-153.33 198.58,-150.69"/>
</g>
<!-- Node3&#45;&gt;Node4 -->
<g id="edge3" class="edge">
<title>Node3&#45;&gt;Node4</title>
<path fill="none" stroke="midnightblue" d="M623.12,-123.44C559.18,-113.83 455.48,-98.23 387.75,-88.04"/>
<polygon fill="midnightblue" stroke="midnightblue" points="388.03,-84.54 377.62,-86.52 386.99,-91.47 388.03,-84.54"/>
</g>
<!-- Node3&#45;&gt;Node5 -->
<g id="edge4" class="edge">
<title>Node3&#45;&gt;Node5</title>
<path fill="none" stroke="midnightblue" d="M607.05,-123.48C553.52,-116.01 486.41,-103.72 464,-87 446.98,-74.3 436.74,-51.66 431.25,-35.46"/>
<polygon fill="midnightblue" stroke="midnightblue" points="434.47,-34 428.18,-25.47 427.77,-36.06 434.47,-34"/>
</g>
<!-- Node3&#45;&gt;Node6 -->
<g id="edge5" class="edge">
<title>Node3&#45;&gt;Node6</title>
<path fill="none" stroke="midnightblue" d="M606.31,-124.41C503.13,-113.77 317.32,-94.62 219.76,-84.57"/>
<polygon fill="midnightblue" stroke="midnightblue" points="220.05,-81.08 209.74,-83.54 219.33,-88.05 220.05,-81.08"/>
</g>
<!-- Node3&#45;&gt;Node7 -->
<g id="edge6" class="edge">
<title>Node3&#45;&gt;Node7</title>
<path fill="none" stroke="midnightblue" d="M724.21,-123.44C773.29,-113.94 852.51,-98.61 905.16,-88.42"/>
<polygon fill="midnightblue" stroke="midnightblue" points="905.85,-91.85 915,-86.52 904.52,-84.98 905.85,-91.85"/>
</g>
<!-- Node8 -->
<g id="node8" class="node">
<title>Node8</title>
<g id="a_node8"><a xlink:href="_o_m_sim_input_data_8hh.html" target="_top" xlink:title=" ">
<polygon fill="white" stroke="black" points="771.5,-67.5 771.5,-86.5 886.5,-86.5 886.5,-67.5 771.5,-67.5"/>
<text text-anchor="middle" x="829" y="-74.5" font-family="Helvetica,sans-Serif" font-size="10.00">OMSimInputData.hh</text>
</a>
</g>
</g>
<!-- Node3&#45;&gt;Node8 -->
<g id="edge7" class="edge">
<title>Node3&#45;&gt;Node8</title>
<path fill="none" stroke="midnightblue" d="M703.61,-123.44C728.46,-114.44 767.77,-100.19 795.75,-90.05"/>
<polygon fill="midnightblue" stroke="midnightblue" points="797.29,-93.21 805.5,-86.52 794.91,-86.63 797.29,-93.21"/>
</g>
<!-- Node14 -->
<g id="node14" class="node">
<title>Node14</title>
<g id="a_node14"><a xlink:title=" ">
<polygon fill="white" stroke="#bfbfbf" points="589.5,-67.5 589.5,-86.5 714.5,-86.5 714.5,-67.5 589.5,-67.5"/>
<text text-anchor="middle" x="652" y="-74.5" font-family="Helvetica,sans-Serif" font-size="10.00">G4SubtractionSolid.hh</text>
</a>
</g>
</g>
<!-- Node3&#45;&gt;Node14 -->
<g id="edge14" class="edge">
<title>Node3&#45;&gt;Node14</title>
<path fill="none" stroke="midnightblue" d="M675.38,-123.08C671.54,-115.69 665.98,-104.95 661.24,-95.81"/>
<polygon fill="midnightblue" stroke="midnightblue" points="664.25,-94.02 656.54,-86.75 658.03,-97.24 664.25,-94.02"/>
</g>
<!-- Node3&#45;&gt;Node15 -->
<g id="edge15" class="edge">
<title>Node3&#45;&gt;Node15</title>
<path fill="none" stroke="midnightblue" d="M746.23,-123.46C812.92,-114.83 919.05,-100.97 1020.71,-87.17"/>
<polygon fill="midnightblue" stroke="midnightblue" points="1021.41,-90.6 1030.85,-85.79 1020.47,-83.67 1021.41,-90.6"/>
</g>
<!-- Node16 -->
<g id="node16" class="node">
<title>Node16</title>
<g id="a_node16"><a xlink:title=" ">
<polygon fill="white" stroke="#bfbfbf" points="473,-67.5 473,-86.5 571,-86.5 571,-67.5 473,-67.5"/>
<text text-anchor="middle" x="522" y="-74.5" font-family="Helvetica,sans-Serif" font-size="10.00">G4MultiUnion.hh</text>
</a>
</g>
</g>
<!-- Node3&#45;&gt;Node16 -->
<g id="edge16" class="edge">
<title>Node3&#45;&gt;Node16</title>
<path fill="none" stroke="midnightblue" d="M654.96,-123.44C628.38,-114.36 586.19,-99.94 556.48,-89.78"/>
<polygon fill="midnightblue" stroke="midnightblue" points="557.51,-86.44 546.92,-86.52 555.25,-93.06 557.51,-86.44"/>
</g>
<!-- Node17 -->
<g id="node17" class="node">
<title>Node17</title>
<g id="a_node17"><a xlink:title=" ">
<polygon fill="white" stroke="#bfbfbf" points="1159,-67.5 1159,-86.5 1215,-86.5 1215,-67.5 1159,-67.5"/>
<text text-anchor="middle" x="1187" y="-74.5" font-family="Helvetica,sans-Serif" font-size="10.00">sstream</text>
</a>
</g>
</g>
<!-- Node3&#45;&gt;Node17 -->
<g id="edge17" class="edge">
<title>Node3&#45;&gt;Node17</title>
<path fill="none" stroke="midnightblue" d="M753.7,-128.22C844.51,-122.82 1003.63,-110.99 1148.82,-86.97"/>
<polygon fill="midnightblue" stroke="midnightblue" points="1149.52,-90.4 1158.8,-85.3 1148.36,-83.5 1149.52,-90.4"/>
</g>
<!-- Node8&#45;&gt;Node5 -->
<g id="edge13" class="edge">
<title>Node8&#45;&gt;Node5</title>
<path fill="none" stroke="midnightblue" d="M771.26,-67.48C697.94,-56.65 571.64,-38 493.81,-26.51"/>
<polygon fill="midnightblue" stroke="midnightblue" points="494.04,-23.01 483.63,-25.01 493.01,-29.93 494.04,-23.01"/>
</g>
<!-- Node9 -->
<g id="node9" class="node">
<title>Node9</title>
<g id="a_node9"><a xlink:title=" ">
<polygon fill="white" stroke="#bfbfbf" points="1077.5,-0.5 1077.5,-30.5 1190.5,-30.5 1190.5,-0.5 1077.5,-0.5"/>
<text text-anchor="start" x="1085.5" y="-18.5" font-family="Helvetica,sans-Serif" font-size="10.00">boost/property_tree</text>
<text text-anchor="middle" x="1134" y="-7.5" font-family="Helvetica,sans-Serif" font-size="10.00">/ptree.hpp</text>
</a>
</g>
</g>
<!-- Node8&#45;&gt;Node9 -->
<g id="edge8" class="edge">
<title>Node8&#45;&gt;Node9</title>
<path fill="none" stroke="midnightblue" d="M872.7,-67.48C923.62,-57.54 1008.3,-41.02 1067.41,-29.49"/>
<polygon fill="midnightblue" stroke="midnightblue" points="1068.26,-32.89 1077.41,-27.54 1066.92,-26.02 1068.26,-32.89"/>
</g>
<!-- Node10 -->
<g id="node10" class="node">
<title>Node10</title>
<g id="a_node10"><a xlink:title=" ">
<polygon fill="white" stroke="#bfbfbf" points="1216.5,-0.5 1216.5,-30.5 1329.5,-30.5 1329.5,-0.5 1216.5,-0.5"/>
<text text-anchor="start" x="1224.5" y="-18.5" font-family="Helvetica,sans-Serif" font-size="10.00">boost/property_tree</text>
<text text-anchor="middle" x="1273" y="-7.5" font-family="Helvetica,sans-Serif" font-size="10.00">/json_parser.hpp</text>
</a>
</g>
</g>
<!-- Node8&#45;&gt;Node10 -->
<g id="edge9" class="edge">
<title>Node8&#45;&gt;Node10</title>
<path fill="none" stroke="midnightblue" d="M886.74,-68.19C889.87,-67.78 892.97,-67.38 896,-67 1030.98,-49.94 1065.62,-52.27 1200,-31 1202.18,-30.66 1204.39,-30.29 1206.62,-29.91"/>
<polygon fill="midnightblue" stroke="midnightblue" points="1207.24,-33.36 1216.49,-28.18 1206.03,-26.46 1207.24,-33.36"/>
</g>
<!-- Node11 -->
<g id="node11" class="node">
<title>Node11</title>
<g id="a_node11"><a xlink:title=" ">
<polygon fill="white" stroke="#bfbfbf" points="671,-6 671,-25 757,-25 757,-6 671,-6"/>
<text text-anchor="middle" x="714" y="-13" font-family="Helvetica,sans-Serif" font-size="10.00">G4Material.hh</text>
</a>
</g>
</g>
<!-- Node8&#45;&gt;Node11 -->
<g id="edge10" class="edge">
<title>Node8&#45;&gt;Node11</title>
<path fill="none" stroke="midnightblue" d="M812.52,-67.48C793.39,-57.58 761.63,-41.14 739.35,-29.62"/>
<polygon fill="midnightblue" stroke="midnightblue" points="740.94,-26.5 730.45,-25.01 737.72,-32.71 740.94,-26.5"/>
</g>
<!-- Node12 -->
<g id="node12" class="node">
<title>Node12</title>
<g id="a_node12"><a xlink:title=" ">
<polygon fill="white" stroke="#bfbfbf" points="775.5,-6 775.5,-25 882.5,-25 882.5,-6 775.5,-6"/>
<text text-anchor="middle" x="829" y="-13" font-family="Helvetica,sans-Serif" font-size="10.00">G4NistManager.hh</text>
</a>
</g>
</g>
<!-- Node8&#45;&gt;Node12 -->
<g id="edge11" class="edge">
<title>Node8&#45;&gt;Node12</title>
<path fill="none" stroke="midnightblue" d="M829,-67.48C829,-59.08 829,-45.98 829,-35.16"/>
<polygon fill="midnightblue" stroke="midnightblue" points="832.5,-35.01 829,-25.01 825.5,-35.01 832.5,-35.01"/>
</g>
<!-- Node13 -->
<g id="node13" class="node">
<title>Node13</title>
<g id="a_node13"><a xlink:title=" ">
<polygon fill="white" stroke="#bfbfbf" points="900.5,-6 900.5,-25 1043.5,-25 1043.5,-6 900.5,-6"/>
<text text-anchor="middle" x="972" y="-13" font-family="Helvetica,sans-Serif" font-size="10.00">G4OpBoundaryProcess.hh</text>
</a>
</g>
</g>
<!-- Node8&#45;&gt;Node13 -->
<g id="edge12" class="edge">
<title>Node8&#45;&gt;Node13</title>
<path fill="none" stroke="midnightblue" d="M849.49,-67.48C873.81,-57.36 914.55,-40.4 942.32,-28.85"/>
<polygon fill="midnightblue" stroke="midnightblue" points="943.66,-32.08 951.55,-25.01 940.97,-25.62 943.66,-32.08"/>
</g>
<!-- Node21&#45;&gt;Node2 -->
<g id="edge25" class="edge">
<title>Node21&#45;&gt;Node2</title>
<path fill="none" stroke="midnightblue" d="M571.89,-237.43C500.35,-228.06 368.41,-210.76 285.15,-199.85"/>
<polygon fill="midnightblue" stroke="midnightblue" points="285.36,-196.35 274.99,-198.52 284.45,-203.29 285.36,-196.35"/>
</g>
<!-- Node21&#45;&gt;Node3 -->
<g id="edge24" class="edge">
<title>Node21&#45;&gt;Node3</title>
<path fill="none" stroke="midnightblue" d="M629.87,-235.23C637.37,-226.53 648.58,-212.57 656,-199 664.12,-184.16 670.56,-166.01 674.71,-152.66"/>
<polygon fill="midnightblue" stroke="midnightblue" points="678.16,-153.34 677.66,-142.76 671.45,-151.35 678.16,-153.34"/>
</g>
<!-- Node21&#45;&gt;Node4 -->
<g id="edge40" class="edge">
<title>Node21&#45;&gt;Node4</title>
<path fill="none" stroke="midnightblue" d="M571.8,-239.33C533.34,-234 480.09,-222.71 439,-199 398.43,-175.59 398.78,-156.45 366,-123 356.41,-113.21 345.55,-102.35 336.9,-93.74"/>
<polygon fill="midnightblue" stroke="midnightblue" points="339.24,-91.14 329.68,-86.58 334.31,-96.1 339.24,-91.14"/>
</g>
<!-- Node21&#45;&gt;Node5 -->
<g id="edge41" class="edge">
<title>Node21&#45;&gt;Node5</title>
<path fill="none" stroke="midnightblue" d="M621.99,-235.18C621.56,-221.84 619.08,-196.27 607,-179 580.86,-141.62 560.92,-145.06 521,-123 487.58,-104.53 467.23,-116.51 443,-87 431.16,-72.58 427.33,-51.22 426.21,-35.8"/>
<polygon fill="midnightblue" stroke="midnightblue" points="429.68,-35.22 425.78,-25.37 422.69,-35.5 429.68,-35.22"/>
</g>
<!-- Node21&#45;&gt;Node18 -->
<g id="edge42" class="edge">
<title>Node21&#45;&gt;Node18</title>
<path fill="none" stroke="midnightblue" d="M619.04,-235.14C613.99,-221.28 602.41,-194.47 584,-179 564.72,-162.8 539.05,-152.15 516.32,-145.3"/>
<polygon fill="midnightblue" stroke="midnightblue" points="517.02,-141.86 506.45,-142.5 515.12,-148.6 517.02,-141.86"/>
</g>
<!-- Node21&#45;&gt;Node19 -->
<g id="edge45" class="edge">
<title>Node21&#45;&gt;Node19</title>
<path fill="none" stroke="midnightblue" d="M571.9,-240.17C526.74,-235.21 459.43,-224.01 406,-199 379.94,-186.8 354.74,-164.81 339.31,-149.82"/>
<polygon fill="midnightblue" stroke="midnightblue" points="341.73,-147.29 332.18,-142.71 336.78,-152.25 341.73,-147.29"/>
</g>
<!-- Node22 -->
<g id="node22" class="node">
<title>Node22</title>
<g id="a_node22"><a xlink:href="_o_m_sim_p_m_t_construction_8hh.html" target="_top" xlink:title=" ">
<polygon fill="white" stroke="black" points="745.5,-179.5 745.5,-198.5 894.5,-198.5 894.5,-179.5 745.5,-179.5"/>
<text text-anchor="middle" x="820" y="-186.5" font-family="Helvetica,sans-Serif" font-size="10.00">OMSimPMTConstruction.hh</text>
</a>
</g>
</g>
<!-- Node21&#45;&gt;Node22 -->
<g id="edge26" class="edge">
<title>Node21&#45;&gt;Node22</title>
<path fill="none" stroke="midnightblue" d="M653.37,-235.44C687.26,-226.2 741.4,-211.44 778.72,-201.26"/>
<polygon fill="midnightblue" stroke="midnightblue" points="780.05,-204.52 788.77,-198.52 778.2,-197.77 780.05,-204.52"/>
</g>
<!-- Node25 -->
<g id="node25" class="node">
<title>Node25</title>
<g id="a_node25"><a xlink:title=" ">
<polygon fill="white" stroke="#bfbfbf" points="448.5,-179.5 448.5,-198.5 575.5,-198.5 575.5,-179.5 448.5,-179.5"/>
<text text-anchor="middle" x="512" y="-186.5" font-family="Helvetica,sans-Serif" font-size="10.00">G4IntersectionSolid.hh</text>
</a>
</g>
</g>
<!-- Node21&#45;&gt;Node25 -->
<g id="edge43" class="edge">
<title>Node21&#45;&gt;Node25</title>
<path fill="none" stroke="midnightblue" d="M604.33,-235.32C586.61,-226.62 559.1,-213.12 538.71,-203.11"/>
<polygon fill="midnightblue" stroke="midnightblue" points="540.15,-199.92 529.63,-198.65 537.06,-206.2 540.15,-199.92"/>
</g>
<!-- Node21&#45;&gt;Node26 -->
<g id="edge44" class="edge">
<title>Node21&#45;&gt;Node26</title>
<path fill="none" stroke="midnightblue" d="M672.11,-236.64C726.31,-228.53 815.51,-214.75 902.41,-199.04"/>
<polygon fill="midnightblue" stroke="midnightblue" points="903.23,-202.45 912.44,-197.22 901.98,-195.56 903.23,-202.45"/>
</g>
<!-- Node22&#45;&gt;Node3 -->
<g id="edge29" class="edge">
<title>Node22&#45;&gt;Node3</title>
<path fill="none" stroke="midnightblue" d="M797.82,-179.44C774.57,-170.48 737.85,-156.31 711.58,-146.18"/>
<polygon fill="midnightblue" stroke="midnightblue" points="712.67,-142.85 702.08,-142.52 710.15,-149.38 712.67,-142.85"/>
</g>
<!-- Node22&#45;&gt;Node4 -->
<g id="edge30" class="edge">
<title>Node22&#45;&gt;Node4</title>
<path fill="none" stroke="midnightblue" d="M773.7,-179.47C728.48,-170.95 657.79,-157.12 597,-143 562.98,-135.1 554.93,-131.28 521,-123 470,-110.56 411.38,-97.51 370.84,-88.69"/>
<polygon fill="midnightblue" stroke="midnightblue" points="371.46,-85.24 360.94,-86.54 369.97,-92.09 371.46,-85.24"/>
</g>
<!-- Node22&#45;&gt;Node5 -->
<g id="edge31" class="edge">
<title>Node22&#45;&gt;Node5</title>
<path fill="none" stroke="midnightblue" d="M816.87,-179.4C811.85,-166.37 801.14,-141.18 787,-123 763.8,-93.16 757.14,-83.22 723,-67 650.51,-32.55 558.2,-21.26 495.89,-17.73"/>
<polygon fill="midnightblue" stroke="midnightblue" points="495.94,-14.23 485.77,-17.22 495.58,-21.22 495.94,-14.23"/>
</g>
<!-- Node22&#45;&gt;Node7 -->
<g id="edge33" class="edge">
<title>Node22&#45;&gt;Node7</title>
<path fill="none" stroke="midnightblue" d="M866.99,-179.46C890.44,-173.02 917.65,-161.91 936,-143 948.1,-130.53 953.88,-111.3 956.61,-96.98"/>
<polygon fill="midnightblue" stroke="midnightblue" points="960.11,-97.2 958.21,-86.78 953.2,-96.12 960.11,-97.2"/>
</g>
<!-- Node22&#45;&gt;Node8 -->
<g id="edge36" class="edge">
<title>Node22&#45;&gt;Node8</title>
<path fill="none" stroke="midnightblue" d="M823.6,-179.22C827.06,-170.28 832.03,-155.94 834,-143 836.34,-127.6 834.72,-109.96 832.72,-96.95"/>
<polygon fill="midnightblue" stroke="midnightblue" points="836.13,-96.12 830.95,-86.88 829.23,-97.33 836.13,-96.12"/>
</g>
<!-- Node22&#45;&gt;Node9 -->
<g id="edge27" class="edge">
<title>Node22&#45;&gt;Node9</title>
<path fill="none" stroke="midnightblue" d="M867.49,-179.5C969.44,-160.77 1201.84,-115.39 1224,-87 1240.59,-65.75 1214.25,-47.21 1185.86,-34.48"/>
<polygon fill="midnightblue" stroke="midnightblue" points="1187.2,-31.24 1176.62,-30.56 1184.46,-37.69 1187.2,-31.24"/>
</g>
<!-- Node22&#45;&gt;Node10 -->
<g id="edge28" class="edge">
<title>Node22&#45;&gt;Node10</title>
<path fill="none" stroke="midnightblue" d="M884.09,-179.5C954.27,-169.88 1062.12,-154.12 1102,-143 1165.76,-125.23 1191.99,-132.56 1240,-87 1253.3,-74.38 1261.77,-55.33 1266.8,-40.21"/>
<polygon fill="midnightblue" stroke="midnightblue" points="1270.19,-41.09 1269.74,-30.51 1263.49,-39.06 1270.19,-41.09"/>
</g>
<!-- Node22&#45;&gt;Node14 -->
<g id="edge34" class="edge">
<title>Node22&#45;&gt;Node14</title>
<path fill="none" stroke="midnightblue" d="M814.21,-179.28C804.75,-165.61 784.72,-139.06 762,-123 741.11,-108.23 714.64,-97.21 692.91,-89.77"/>
<polygon fill="midnightblue" stroke="midnightblue" points="693.89,-86.41 683.29,-86.61 691.7,-93.06 693.89,-86.41"/>
</g>
<!-- Node22&#45;&gt;Node15 -->
<g id="edge35" class="edge">
<title>Node22&#45;&gt;Node15</title>
<path fill="none" stroke="midnightblue" d="M850.4,-179.44C878.48,-171.2 921.14,-157.83 957,-143 994.61,-127.45 1036.37,-105.5 1061.91,-91.51"/>
<polygon fill="midnightblue" stroke="midnightblue" points="1063.8,-94.46 1070.86,-86.56 1060.41,-88.33 1063.8,-94.46"/>
</g>
<!-- Node22&#45;&gt;Node18 -->
<g id="edge32" class="edge">
<title>Node22&#45;&gt;Node18</title>
<path fill="none" stroke="midnightblue" d="M763.43,-179.44C697.51,-169.47 589.09,-153.07 522.1,-142.94"/>
<polygon fill="midnightblue" stroke="midnightblue" points="522.54,-139.47 512.12,-141.43 521.49,-146.39 522.54,-139.47"/>
</g>
<!-- Node22&#45;&gt;Node19 -->
<g id="edge37" class="edge">
<title>Node22&#45;&gt;Node19</title>
<path fill="none" stroke="midnightblue" d="M745.4,-179.97C662.32,-171.02 524.04,-156.07 405,-143 393.03,-141.69 380.08,-140.25 368.11,-138.92"/>
<polygon fill="midnightblue" stroke="midnightblue" points="368.22,-135.41 357.89,-137.79 367.44,-142.37 368.22,-135.41"/>
</g>
<!-- Node23 -->
<g id="node23" class="node">
<title>Node23</title>
<g id="a_node23"><a xlink:title=" ">
<polygon fill="white" stroke="#bfbfbf" points="886.5,-123.5 886.5,-142.5 927.5,-142.5 927.5,-123.5 886.5,-123.5"/>
<text text-anchor="middle" x="907" y="-130.5" font-family="Helvetica,sans-Serif" font-size="10.00">tuple</text>
</a>
</g>
</g>
<!-- Node22&#45;&gt;Node23 -->
<g id="edge38" class="edge">
<title>Node22&#45;&gt;Node23</title>
<path fill="none" stroke="midnightblue" d="M833.98,-179.32C847.55,-170.9 868.38,-157.97 884.32,-148.07"/>
<polygon fill="midnightblue" stroke="midnightblue" points="886.41,-150.9 893.06,-142.65 882.71,-144.95 886.41,-150.9"/>
</g>
<!-- Node24 -->
<g id="node24" class="node">
<title>Node24</title>
<g id="a_node24"><a xlink:title=" ">
<polygon fill="white" stroke="#bfbfbf" points="1304,-123.5 1304,-142.5 1342,-142.5 1342,-123.5 1304,-123.5"/>
<text text-anchor="middle" x="1323" y="-130.5" font-family="Helvetica,sans-Serif" font-size="10.00">map</text>
</a>
</g>
</g>
<!-- Node22&#45;&gt;Node24 -->
<g id="edge39" class="edge">
<title>Node22&#45;&gt;Node24</title>
<path fill="none" stroke="midnightblue" d="M894.65,-179.85C897.47,-179.56 900.26,-179.28 903,-179 1074.87,-161.69 1120.03,-173.84 1290,-143 1291.28,-142.77 1292.59,-142.51 1293.9,-142.23"/>
<polygon fill="midnightblue" stroke="midnightblue" points="1295.04,-145.56 1303.93,-139.8 1293.39,-138.75 1295.04,-145.56"/>
</g>
<!-- Node29 -->
<g id="node29" class="node">
<title>Node29</title>
<g id="a_node29"><a xlink:title=" ">
<polygon fill="white" stroke="#bfbfbf" points="1906,-67.5 1906,-86.5 1956,-86.5 1956,-67.5 1906,-67.5"/>
<text text-anchor="middle" x="1931" y="-74.5" font-family="Helvetica,sans-Serif" font-size="10.00">stdio.h</text>
</a>
</g>
</g>
<!-- Node28&#45;&gt;Node29 -->
<g id="edge57" class="edge">
<title>Node28&#45;&gt;Node29</title>
<path fill="none" stroke="midnightblue" d="M1903.45,-123.08C1908.01,-115.61 1914.67,-104.72 1920.29,-95.52"/>
<polygon fill="midnightblue" stroke="midnightblue" points="1923.42,-97.11 1925.65,-86.75 1917.45,-93.46 1923.42,-97.11"/>
</g>
<!-- Node30 -->
<g id="node30" class="node">
<title>Node30</title>
<g id="a_node30"><a xlink:title=" ">
<polygon fill="white" stroke="#bfbfbf" points="1840,-67.5 1840,-86.5 1888,-86.5 1888,-67.5 1840,-67.5"/>
<text text-anchor="middle" x="1864" y="-74.5" font-family="Helvetica,sans-Serif" font-size="10.00">time.h</text>
</a>
</g>
</g>
<!-- Node28&#45;&gt;Node30 -->
<g id="edge58" class="edge">
<title>Node28&#45;&gt;Node30</title>
<path fill="none" stroke="midnightblue" d="M1892.39,-123.08C1887.63,-115.53 1880.68,-104.49 1874.85,-95.23"/>
<polygon fill="midnightblue" stroke="midnightblue" points="1877.8,-93.35 1869.51,-86.75 1871.88,-97.08 1877.8,-93.35"/>
</g>
<!-- Node31&#45;&gt;Node24 -->
<g id="edge60" class="edge">
<title>Node31&#45;&gt;Node24</title>
<path fill="none" stroke="midnightblue" d="M1474.83,-179.49C1444.2,-170.52 1394.67,-155.94 1352,-143 1351.9,-142.97 1351.8,-142.94 1351.7,-142.91"/>
<polygon fill="midnightblue" stroke="midnightblue" points="1352.61,-139.53 1342.02,-139.94 1350.56,-146.22 1352.61,-139.53"/>
</g>
<!-- Node31&#45;&gt;Node28 -->
<g id="edge67" class="edge">
<title>Node31&#45;&gt;Node28</title>
<path fill="none" stroke="midnightblue" d="M1570.15,-179.47C1635.58,-170.95 1738.85,-157.29 1838.49,-143.05"/>
<polygon fill="midnightblue" stroke="midnightblue" points="1839.03,-146.51 1848.44,-141.63 1838.04,-139.58 1839.03,-146.51"/>
</g>
<!-- Node32 -->
<g id="node32" class="node">
<title>Node32</title>
<g id="a_node32"><a xlink:title=" ">
<polygon fill="white" stroke="#bfbfbf" points="1360.5,-123.5 1360.5,-142.5 1411.5,-142.5 1411.5,-123.5 1360.5,-123.5"/>
<text text-anchor="middle" x="1386" y="-130.5" font-family="Helvetica,sans-Serif" font-size="10.00">variant</text>
</a>
</g>
</g>
<!-- Node31&#45;&gt;Node32 -->
<g id="edge61" class="edge">
<title>Node31&#45;&gt;Node32</title>
<path fill="none" stroke="midnightblue" d="M1485.3,-179.44C1466.06,-170.64 1435.85,-156.81 1413.8,-146.72"/>
<polygon fill="midnightblue" stroke="midnightblue" points="1415.16,-143.5 1404.61,-142.52 1412.25,-149.86 1415.16,-143.5"/>
</g>
<!-- Node33 -->
<g id="node33" class="node">
<title>Node33</title>
<g id="a_node33"><a xlink:title=" ">
<polygon fill="white" stroke="#bfbfbf" points="1786,-123.5 1786,-142.5 1830,-142.5 1830,-123.5 1786,-123.5"/>
<text text-anchor="middle" x="1808" y="-130.5" font-family="Helvetica,sans-Serif" font-size="10.00">string</text>
</a>
</g>
</g>
<!-- Node31&#45;&gt;Node33 -->
<g id="edge62" class="edge">
<title>Node31&#45;&gt;Node33</title>
<path fill="none" stroke="midnightblue" d="M1569.23,-179.48C1622.42,-172.02 1699.63,-160.04 1775.52,-143.12"/>
<polygon fill="midnightblue" stroke="midnightblue" points="1776.75,-146.43 1785.73,-140.81 1775.21,-139.6 1776.75,-146.43"/>
</g>
<!-- Node34 -->
<g id="node34" class="node">
<title>Node34</title>
<g id="a_node34"><a xlink:title=" ">
<polygon fill="white" stroke="#bfbfbf" points="1429.5,-123.5 1429.5,-142.5 1494.5,-142.5 1494.5,-123.5 1429.5,-123.5"/>
<text text-anchor="middle" x="1462" y="-130.5" font-family="Helvetica,sans-Serif" font-size="10.00">stdexcept</text>
</a>
</g>
</g>
<!-- Node31&#45;&gt;Node34 -->
<g id="edge63" class="edge">
<title>Node31&#45;&gt;Node34</title>
<path fill="none" stroke="midnightblue" d="M1497.06,-179.08C1491.07,-171.38 1482.25,-160.03 1474.95,-150.65"/>
<polygon fill="midnightblue" stroke="midnightblue" points="1477.71,-148.5 1468.81,-142.75 1472.18,-152.79 1477.71,-148.5"/>
</g>
<!-- Node35 -->
<g id="node35" class="node">
<title>Node35</title>
<g id="a_node35"><a xlink:title=" ">
<polygon fill="white" stroke="#bfbfbf" points="1512.5,-123.5 1512.5,-142.5 1579.5,-142.5 1579.5,-123.5 1512.5,-123.5"/>
<text text-anchor="middle" x="1546" y="-130.5" font-family="Helvetica,sans-Serif" font-size="10.00">globals.hh</text>
</a>
</g>
</g>
<!-- Node31&#45;&gt;Node35 -->
<g id="edge64" class="edge">
<title>Node31&#45;&gt;Node35</title>
<path fill="none" stroke="midnightblue" d="M1510.94,-179.08C1516.93,-171.38 1525.75,-160.03 1533.05,-150.65"/>
<polygon fill="midnightblue" stroke="midnightblue" points="1535.82,-152.79 1539.19,-142.75 1530.29,-148.5 1535.82,-152.79"/>
</g>
<!-- Node36 -->
<g id="node36" class="node">
<title>Node36</title>
<g id="a_node36"><a xlink:title=" ">
<polygon fill="white" stroke="#bfbfbf" points="1598,-123.5 1598,-142.5 1682,-142.5 1682,-123.5 1598,-123.5"/>
<text text-anchor="middle" x="1640" y="-130.5" font-family="Helvetica,sans-Serif" font-size="10.00">boost/any.hpp</text>
</a>
</g>
</g>
<!-- Node31&#45;&gt;Node36 -->
<g id="edge65" class="edge">
<title>Node31&#45;&gt;Node36</title>
<path fill="none" stroke="midnightblue" d="M1525.55,-179.44C1548.03,-170.52 1583.49,-156.44 1608.98,-146.32"/>
<polygon fill="midnightblue" stroke="midnightblue" points="1610.55,-149.46 1618.55,-142.52 1607.97,-142.95 1610.55,-149.46"/>
</g>
<!-- Node37 -->
<g id="node37" class="node">
<title>Node37</title>
<g id="a_node37"><a xlink:title=" ">
<polygon fill="white" stroke="#bfbfbf" points="1700,-123.5 1700,-142.5 1768,-142.5 1768,-123.5 1700,-123.5"/>
<text text-anchor="middle" x="1734" y="-130.5" font-family="Helvetica,sans-Serif" font-size="10.00">sys/time.h</text>
</a>
</g>
</g>
<!-- Node31&#45;&gt;Node37 -->
<g id="edge66" class="edge">
<title>Node31&#45;&gt;Node37</title>
<path fill="none" stroke="midnightblue" d="M1540.44,-179.44C1581.02,-169.92 1646.58,-154.52 1689.99,-144.33"/>
<polygon fill="midnightblue" stroke="midnightblue" points="1691.04,-147.68 1699.98,-141.99 1689.44,-140.87 1691.04,-147.68"/>
</g>
<!-- Node38&#45;&gt;Node17 -->
<g id="edge69" class="edge">
<title>Node38&#45;&gt;Node17</title>
<path fill="none" stroke="midnightblue" d="M1526.65,-235.47C1496.75,-227.26 1451.31,-213.91 1413,-199 1358.9,-177.95 1346.15,-170.45 1295,-143 1264.6,-126.69 1230.68,-105.81 1209.1,-92.18"/>
<polygon fill="midnightblue" stroke="midnightblue" points="1210.71,-89.05 1200.39,-86.65 1206.95,-94.96 1210.71,-89.05"/>
</g>
<!-- Node38&#45;&gt;Node28 -->
<g id="edge72" class="edge">
<title>Node38&#45;&gt;Node28</title>
<path fill="none" stroke="midnightblue" d="M1607,-235.43C1645.88,-227.83 1701.76,-215.39 1749,-199 1768.91,-192.09 1772.74,-187.56 1792,-179 1817.39,-167.71 1846.46,-155.41 1867.72,-146.53"/>
<polygon fill="midnightblue" stroke="midnightblue" points="1869.31,-149.66 1877.19,-142.59 1866.62,-143.2 1869.31,-149.66"/>
</g>
<!-- Node38&#45;&gt;Node31 -->
<g id="edge73" class="edge">
<title>Node38&#45;&gt;Node31</title>
<path fill="none" stroke="midnightblue" d="M1549.92,-235.08C1541.83,-227.14 1529.8,-215.34 1520.09,-205.8"/>
<polygon fill="midnightblue" stroke="midnightblue" points="1522.5,-203.26 1512.91,-198.75 1517.6,-208.25 1522.5,-203.26"/>
</g>
<!-- Node38&#45;&gt;Node33 -->
<g id="edge70" class="edge">
<title>Node38&#45;&gt;Node33</title>
<path fill="none" stroke="midnightblue" d="M1566.25,-235.39C1578.53,-221.39 1604.83,-193.77 1633,-179 1688.69,-149.81 1711.18,-159.18 1775.82,-143.15"/>
<polygon fill="midnightblue" stroke="midnightblue" points="1776.88,-146.49 1785.68,-140.59 1775.12,-139.71 1776.88,-146.49"/>
</g>
<!-- Node39 -->
<g id="node39" class="node">
<title>Node39</title>
<g id="a_node39"><a xlink:title=" ">
<polygon fill="white" stroke="#bfbfbf" points="1642,-179.5 1642,-198.5 1740,-198.5 1740,-179.5 1642,-179.5"/>
<text text-anchor="middle" x="1691" y="-186.5" font-family="Helvetica,sans-Serif" font-size="10.00">G4UImanager.hh</text>
</a>
</g>
</g>
<!-- Node38&#45;&gt;Node39 -->
<g id="edge71" class="edge">
<title>Node38&#45;&gt;Node39</title>
<path fill="none" stroke="midnightblue" d="M1579.92,-235.44C1601.74,-226.52 1636.15,-212.44 1660.89,-202.32"/>
<polygon fill="midnightblue" stroke="midnightblue" points="1662.25,-205.54 1670.18,-198.52 1659.6,-199.06 1662.25,-205.54"/>
</g>
</g>
</svg>
