<?xml version="1.0" encoding="UTF-8" standalone="no"?>
<!DOCTYPE svg PUBLIC "-//W3C//DTD SVG 1.1//EN"
 "http://www.w3.org/Graphics/SVG/1.1/DTD/svg11.dtd">
<!-- Generated by graphviz version 2.43.0 (0)
 -->
<!-- Title: OMSim.hh Pages: 1 -->
<svg width="1877pt" height="252pt"
 viewBox="0.00 0.00 1877.00 252.00" xmlns="http://www.w3.org/2000/svg" xmlns:xlink="http://www.w3.org/1999/xlink">
<g id="graph0" class="graph" transform="scale(1 1) rotate(0) translate(4 248)">
<title>OMSim.hh</title>
<polygon fill="white" stroke="transparent" points="-4,4 -4,-248 1873,-248 1873,4 -4,4"/>
<!-- Node1 -->
<g id="node1" class="node">
<title>Node1</title>
<g id="a_node1"><a xlink:title="Main simulation class for the Optical Module (OM) simulation. This file defines the OMSim class,...">
<polygon fill="#bfbfbf" stroke="black" points="1000.5,-224.5 1000.5,-243.5 1067.5,-243.5 1067.5,-224.5 1000.5,-224.5"/>
<text text-anchor="middle" x="1034" y="-231.5" font-family="Helvetica,sans-Serif" font-size="10.00">OMSim.hh</text>
</a>
</g>
</g>
<!-- Node2 -->
<g id="node2" class="node">
<title>Node2</title>
<g id="a_node2"><a xlink:title=" ">
<polygon fill="white" stroke="#bfbfbf" points="0,-168.5 0,-187.5 170,-187.5 170,-168.5 0,-168.5"/>
<text text-anchor="middle" x="85" y="-175.5" font-family="Helvetica,sans-Serif" font-size="10.00">OMSimDetectorConstruction.hh</text>
</a>
</g>
</g>
<!-- Node1&#45;&gt;Node2 -->
<g id="edge1" class="edge">
<title>Node1&#45;&gt;Node2</title>
<path fill="none" stroke="midnightblue" d="M1000.16,-231.74C886.23,-227.39 505.99,-211.98 180.15,-188.05"/>
<polygon fill="midnightblue" stroke="midnightblue" points="180.27,-184.55 170.04,-187.31 179.76,-191.53 180.27,-184.55"/>
</g>
<!-- Node3 -->
<g id="node3" class="node">
<title>Node3</title>
<g id="a_node3"><a xlink:title=" ">
<polygon fill="white" stroke="#bfbfbf" points="188.5,-168.5 188.5,-187.5 309.5,-187.5 309.5,-168.5 188.5,-168.5"/>
<text text-anchor="middle" x="249" y="-175.5" font-family="Helvetica,sans-Serif" font-size="10.00">OMSimPhysicsList.hh</text>
</a>
</g>
</g>
<!-- Node1&#45;&gt;Node3 -->
<g id="edge2" class="edge">
<title>Node1&#45;&gt;Node3</title>
<path fill="none" stroke="midnightblue" d="M1000.39,-231.69C899.17,-227.57 588.24,-213.67 319.89,-188.12"/>
<polygon fill="midnightblue" stroke="midnightblue" points="319.84,-184.6 309.56,-187.13 319.18,-191.57 319.84,-184.6"/>
</g>
<!-- Node4 -->
<g id="node4" class="node">
<title>Node4</title>
<g id="a_node4"><a xlink:href="_o_m_sim_primary_generator_action_8hh.html" target="_top" xlink:title=" ">
<polygon fill="white" stroke="black" points="327.5,-168.5 327.5,-187.5 512.5,-187.5 512.5,-168.5 327.5,-168.5"/>
<text text-anchor="middle" x="420" y="-175.5" font-family="Helvetica,sans-Serif" font-size="10.00">OMSimPrimaryGeneratorAction.hh</text>
</a>
</g>
</g>
<!-- Node1&#45;&gt;Node4 -->
<g id="edge3" class="edge">
<title>Node1&#45;&gt;Node4</title>
<path fill="none" stroke="midnightblue" d="M1000.39,-230.07C919.87,-223.04 709.36,-204.65 522.73,-188.15"/>
<polygon fill="midnightblue" stroke="midnightblue" points="523.01,-184.66 512.74,-187.27 522.39,-191.64 523.01,-184.66"/>
</g>
<!-- Node6 -->
<g id="node6" class="node">
<title>Node6</title>
<g id="a_node6"><a xlink:title=" ">
<polygon fill="white" stroke="#bfbfbf" points="530,-168.5 530,-187.5 646,-187.5 646,-168.5 530,-168.5"/>
<text text-anchor="middle" x="588" y="-175.5" font-family="Helvetica,sans-Serif" font-size="10.00">OMSimRunAction.hh</text>
</a>
</g>
</g>
<!-- Node1&#45;&gt;Node6 -->
<g id="edge5" class="edge">
<title>Node1&#45;&gt;Node6</title>
<path fill="none" stroke="midnightblue" d="M1000.26,-229.17C935.65,-221.8 789.72,-204.96 656.1,-188.12"/>
<polygon fill="midnightblue" stroke="midnightblue" points="656.46,-184.64 646.1,-186.86 655.58,-191.59 656.46,-184.64"/>
</g>
<!-- Node7 -->
<g id="node7" class="node">
<title>Node7</title>
<g id="a_node7"><a xlink:title=" ">
<polygon fill="white" stroke="#bfbfbf" points="664.5,-168.5 664.5,-187.5 789.5,-187.5 789.5,-168.5 664.5,-168.5"/>
<text text-anchor="middle" x="727" y="-175.5" font-family="Helvetica,sans-Serif" font-size="10.00">OMSimEventAction.hh</text>
</a>
</g>
</g>
<!-- Node1&#45;&gt;Node7 -->
<g id="edge6" class="edge">
<title>Node1&#45;&gt;Node7</title>
<path fill="none" stroke="midnightblue" d="M1000.27,-227.07C948.52,-217.96 848.87,-200.44 785.27,-189.25"/>
<polygon fill="midnightblue" stroke="midnightblue" points="785.84,-185.8 775.39,-187.51 784.63,-192.69 785.84,-185.8"/>
</g>
<!-- Node8 -->
<g id="node8" class="node">
<title>Node8</title>
<g id="a_node8"><a xlink:href="_o_m_sim_tracking_action_8hh.html" target="_top" xlink:title=" ">
<polygon fill="white" stroke="black" points="808,-168.5 808,-187.5 946,-187.5 946,-168.5 808,-168.5"/>
<text text-anchor="middle" x="877" y="-175.5" font-family="Helvetica,sans-Serif" font-size="10.00">OMSimTrackingAction.hh</text>
</a>
</g>
</g>
<!-- Node1&#45;&gt;Node8 -->
<g id="edge7" class="edge">
<title>Node1&#45;&gt;Node8</title>
<path fill="none" stroke="midnightblue" d="M1009.12,-224.44C982.71,-215.36 940.78,-200.94 911.26,-190.78"/>
<polygon fill="midnightblue" stroke="midnightblue" points="912.36,-187.46 901.76,-187.52 910.08,-194.08 912.36,-187.46"/>
</g>
<!-- Node10 -->
<g id="node10" class="node">
<title>Node10</title>
<g id="a_node10"><a xlink:title=" ">
<polygon fill="white" stroke="#bfbfbf" points="964,-168.5 964,-187.5 1104,-187.5 1104,-168.5 964,-168.5"/>
<text text-anchor="middle" x="1034" y="-175.5" font-family="Helvetica,sans-Serif" font-size="10.00">OMSimSteppingAction.hh</text>
</a>
</g>
</g>
<!-- Node1&#45;&gt;Node10 -->
<g id="edge9" class="edge">
<title>Node1&#45;&gt;Node10</title>
<path fill="none" stroke="midnightblue" d="M1034,-224.08C1034,-217.01 1034,-206.86 1034,-197.99"/>
<polygon fill="midnightblue" stroke="midnightblue" points="1037.5,-197.75 1034,-187.75 1030.5,-197.75 1037.5,-197.75"/>
</g>
<!-- Node11 -->
<g id="node11" class="node">
<title>Node11</title>
<g id="a_node11"><a xlink:href="_o_m_sim_u_iinterface_8hh.html" target="_top" xlink:title="The OMSimUIinterface class provides a singleton interface to Geant4&#39;s UI manager.">
<polygon fill="white" stroke="black" points="1122.5,-168.5 1122.5,-187.5 1243.5,-187.5 1243.5,-168.5 1122.5,-168.5"/>
<text text-anchor="middle" x="1183" y="-175.5" font-family="Helvetica,sans-Serif" font-size="10.00">OMSimUIinterface.hh</text>
</a>
</g>
</g>
<!-- Node1&#45;&gt;Node11 -->
<g id="edge10" class="edge">
<title>Node1&#45;&gt;Node11</title>
<path fill="none" stroke="midnightblue" d="M1057.61,-224.44C1082.46,-215.44 1121.77,-201.19 1149.75,-191.05"/>
<polygon fill="midnightblue" stroke="midnightblue" points="1151.29,-194.21 1159.5,-187.52 1148.91,-187.63 1151.29,-194.21"/>
</g>
<!-- Node20 -->
<g id="node20" class="node">
<title>Node20</title>
<g id="a_node20"><a xlink:title=" ">
<polygon fill="white" stroke="#bfbfbf" points="1262,-168.5 1262,-187.5 1368,-187.5 1368,-168.5 1262,-168.5"/>
<text text-anchor="middle" x="1315" y="-175.5" font-family="Helvetica,sans-Serif" font-size="10.00">G4RunManager.hh</text>
</a>
</g>
</g>
<!-- Node1&#45;&gt;Node20 -->
<g id="edge19" class="edge">
<title>Node1&#45;&gt;Node20</title>
<path fill="none" stroke="midnightblue" d="M1067.62,-226.54C1115.44,-217.35 1203.64,-200.4 1260.78,-189.42"/>
<polygon fill="midnightblue" stroke="midnightblue" points="1261.56,-192.83 1270.72,-187.51 1260.24,-185.96 1261.56,-192.83"/>
</g>
<!-- Node21 -->
<g id="node21" class="node">
<title>Node21</title>
<g id="a_node21"><a xlink:title=" ">
<polygon fill="white" stroke="#bfbfbf" points="1386.5,-168.5 1386.5,-187.5 1493.5,-187.5 1493.5,-168.5 1386.5,-168.5"/>
<text text-anchor="middle" x="1440" y="-175.5" font-family="Helvetica,sans-Serif" font-size="10.00">G4VisExecutive.hh</text>
</a>
</g>
</g>
<!-- Node1&#45;&gt;Node21 -->
<g id="edge20" class="edge">
<title>Node1&#45;&gt;Node21</title>
<path fill="none" stroke="midnightblue" d="M1067.61,-228.72C1127.38,-221.08 1256.34,-204.47 1376.3,-188.08"/>
<polygon fill="midnightblue" stroke="midnightblue" points="1376.96,-191.53 1386.39,-186.7 1376.01,-184.59 1376.96,-191.53"/>
</g>
<!-- Node22 -->
<g id="node22" class="node">
<title>Node22</title>
<g id="a_node22"><a xlink:title=" ">
<polygon fill="white" stroke="#bfbfbf" points="1511.5,-168.5 1511.5,-187.5 1614.5,-187.5 1614.5,-168.5 1511.5,-168.5"/>
<text text-anchor="middle" x="1563" y="-175.5" font-family="Helvetica,sans-Serif" font-size="10.00">G4UIExecutive.hh</text>
</a>
</g>
</g>
<!-- Node1&#45;&gt;Node22 -->
<g id="edge21" class="edge">
<title>Node1&#45;&gt;Node22</title>
<path fill="none" stroke="midnightblue" d="M1067.62,-230.39C1143.23,-224.4 1332.63,-208.64 1501.26,-188.16"/>
<polygon fill="midnightblue" stroke="midnightblue" points="1501.81,-191.62 1511.31,-186.93 1500.96,-184.67 1501.81,-191.62"/>
</g>
<!-- Node23 -->
<g id="node23" class="node">
<title>Node23</title>
<g id="a_node23"><a xlink:title=" ">
<polygon fill="white" stroke="#bfbfbf" points="1633,-168.5 1633,-187.5 1701,-187.5 1701,-168.5 1633,-168.5"/>
<text text-anchor="middle" x="1667" y="-175.5" font-family="Helvetica,sans-Serif" font-size="10.00">filesystem</text>
</a>
</g>
</g>
<!-- Node1&#45;&gt;Node23 -->
<g id="edge22" class="edge">
<title>Node1&#45;&gt;Node23</title>
<path fill="none" stroke="midnightblue" d="M1067.76,-231.96C1156.9,-228.9 1406.03,-218.22 1622.83,-187.98"/>
<polygon fill="midnightblue" stroke="midnightblue" points="1623.39,-191.44 1632.8,-186.58 1622.41,-184.51 1623.39,-191.44"/>
</g>
<!-- Node24 -->
<g id="node24" class="node">
<title>Node24</title>
<g id="a_node24"><a xlink:title=" ">
<polygon fill="white" stroke="#bfbfbf" points="1719,-168.5 1719,-187.5 1869,-187.5 1869,-168.5 1719,-168.5"/>
<text text-anchor="middle" x="1794" y="-175.5" font-family="Helvetica,sans-Serif" font-size="10.00">boost/program_options.hpp</text>
</a>
</g>
</g>
<!-- Node1&#45;&gt;Node24 -->
<g id="edge23" class="edge">
<title>Node1&#45;&gt;Node24</title>
<path fill="none" stroke="midnightblue" d="M1067.8,-231.23C1165.37,-226.03 1456.12,-209.8 1708.8,-188.07"/>
<polygon fill="midnightblue" stroke="midnightblue" points="1709.25,-191.55 1718.91,-187.2 1708.64,-184.57 1709.25,-191.55"/>
</g>
<!-- Node5 -->
<g id="node5" class="node">
<title>Node5</title>
<g id="a_node5"><a xlink:title=" ">
<polygon fill="white" stroke="#bfbfbf" points="324,-112.5 324,-131.5 516,-131.5 516,-112.5 324,-112.5"/>
<text text-anchor="middle" x="420" y="-119.5" font-family="Helvetica,sans-Serif" font-size="10.00">G4VUserPrimaryGeneratorAction.hh</text>
</a>
</g>
</g>
<!-- Node4&#45;&gt;Node5 -->
<g id="edge4" class="edge">
<title>Node4&#45;&gt;Node5</title>
<path fill="none" stroke="midnightblue" d="M420,-168.08C420,-161.01 420,-150.86 420,-141.99"/>
<polygon fill="midnightblue" stroke="midnightblue" points="423.5,-141.75 420,-131.75 416.5,-141.75 423.5,-141.75"/>
</g>
<!-- Node9 -->
<g id="node9" class="node">
<title>Node9</title>
<g id="a_node9"><a xlink:title=" ">
<polygon fill="white" stroke="#bfbfbf" points="807.5,-112.5 807.5,-131.5 946.5,-131.5 946.5,-112.5 807.5,-112.5"/>
<text text-anchor="middle" x="877" y="-119.5" font-family="Helvetica,sans-Serif" font-size="10.00">G4UserTrackingAction.hh</text>
</a>
</g>
</g>
<!-- Node8&#45;&gt;Node9 -->
<g id="edge8" class="edge">
<title>Node8&#45;&gt;Node9</title>
<path fill="none" stroke="midnightblue" d="M877,-168.08C877,-161.01 877,-150.86 877,-141.99"/>
<polygon fill="midnightblue" stroke="midnightblue" points="880.5,-141.75 877,-131.75 873.5,-141.75 880.5,-141.75"/>
</g>
<!-- Node12 -->
<g id="node12" class="node">
<title>Node12</title>
<g id="a_node12"><a xlink:href="_o_m_sim_command_args_table_8hh.html" target="_top" xlink:title="Definition of the OMSimCommandArgsTable singleton class, which controls user args.">
<polygon fill="white" stroke="black" points="1033,-112.5 1033,-131.5 1197,-131.5 1197,-112.5 1033,-112.5"/>
<text text-anchor="middle" x="1115" y="-119.5" font-family="Helvetica,sans-Serif" font-size="10.00">OMSimCommandArgsTable.hh</text>
</a>
</g>
</g>
<!-- Node11&#45;&gt;Node12 -->
<g id="edge11" class="edge">
<title>Node11&#45;&gt;Node12</title>
<path fill="none" stroke="midnightblue" d="M1172.07,-168.32C1161.83,-160.18 1146.28,-147.84 1134,-138.09"/>
<polygon fill="midnightblue" stroke="midnightblue" points="1136.13,-135.31 1126.12,-131.83 1131.78,-140.79 1136.13,-135.31"/>
</g>
<!-- Node19 -->
<g id="node19" class="node">
<title>Node19</title>
<g id="a_node19"><a xlink:title=" ">
<polygon fill="white" stroke="#bfbfbf" points="1215,-112.5 1215,-131.5 1313,-131.5 1313,-112.5 1215,-112.5"/>
<text text-anchor="middle" x="1264" y="-119.5" font-family="Helvetica,sans-Serif" font-size="10.00">G4UImanager.hh</text>
</a>
</g>
</g>
<!-- Node11&#45;&gt;Node19 -->
<g id="edge18" class="edge">
<title>Node11&#45;&gt;Node19</title>
<path fill="none" stroke="midnightblue" d="M1196.01,-168.32C1208.53,-159.98 1227.68,-147.21 1242.47,-137.35"/>
<polygon fill="midnightblue" stroke="midnightblue" points="1244.64,-140.11 1251.02,-131.65 1240.76,-134.29 1244.64,-140.11"/>
</g>
<!-- Node13 -->
<g id="node13" class="node">
<title>Node13</title>
<g id="a_node13"><a xlink:href="_o_m_sim_logger_8hh.html" target="_top" xlink:title=" ">
<polygon fill="white" stroke="black" points="926.5,-56.5 926.5,-75.5 1025.5,-75.5 1025.5,-56.5 926.5,-56.5"/>
<text text-anchor="middle" x="976" y="-63.5" font-family="Helvetica,sans-Serif" font-size="10.00">OMSimLogger.hh</text>
</a>
</g>
</g>
<!-- Node12&#45;&gt;Node13 -->
<g id="edge12" class="edge">
<title>Node12&#45;&gt;Node13</title>
<path fill="none" stroke="midnightblue" d="M1092.98,-112.44C1069.9,-103.48 1033.44,-89.31 1007.36,-79.18"/>
<polygon fill="midnightblue" stroke="midnightblue" points="1008.51,-75.88 997.92,-75.52 1005.98,-82.4 1008.51,-75.88"/>
</g>
<!-- Node16 -->
<g id="node16" class="node">
<title>Node16</title>
<g id="a_node16"><a xlink:title=" ">
<polygon fill="white" stroke="#bfbfbf" points="1043.5,-56.5 1043.5,-75.5 1098.5,-75.5 1098.5,-56.5 1043.5,-56.5"/>
<text text-anchor="middle" x="1071" y="-63.5" font-family="Helvetica,sans-Serif" font-size="10.00">fstream</text>
</a>
</g>
</g>
<!-- Node12&#45;&gt;Node16 -->
<g id="edge15" class="edge">
<title>Node12&#45;&gt;Node16</title>
<path fill="none" stroke="midnightblue" d="M1107.73,-112.08C1101.46,-104.38 1092.21,-93.03 1084.57,-83.65"/>
<polygon fill="midnightblue" stroke="midnightblue" points="1087.16,-81.29 1078.13,-75.75 1081.73,-85.71 1087.16,-81.29"/>
</g>
<!-- Node17 -->
<g id="node17" class="node">
<title>Node17</title>
<g id="a_node17"><a xlink:title=" ">
<polygon fill="white" stroke="#bfbfbf" points="1117,-56.5 1117,-75.5 1201,-75.5 1201,-56.5 1117,-56.5"/>
<text text-anchor="middle" x="1159" y="-63.5" font-family="Helvetica,sans-Serif" font-size="10.00">boost/any.hpp</text>
</a>
</g>
</g>
<!-- Node12&#45;&gt;Node17 -->
<g id="edge16" class="edge">
<title>Node12&#45;&gt;Node17</title>
<path fill="none" stroke="midnightblue" d="M1122.27,-112.08C1128.54,-104.38 1137.79,-93.03 1145.43,-83.65"/>
<polygon fill="midnightblue" stroke="midnightblue" points="1148.27,-85.71 1151.87,-75.75 1142.84,-81.29 1148.27,-85.71"/>
</g>
<!-- Node18 -->
<g id="node18" class="node">
<title>Node18</title>
<g id="a_node18"><a xlink:title=" ">
<polygon fill="white" stroke="#bfbfbf" points="1219,-56.5 1219,-75.5 1287,-75.5 1287,-56.5 1219,-56.5"/>
<text text-anchor="middle" x="1253" y="-63.5" font-family="Helvetica,sans-Serif" font-size="10.00">sys/time.h</text>
</a>
</g>
</g>
<!-- Node12&#45;&gt;Node18 -->
<g id="edge17" class="edge">
<title>Node12&#45;&gt;Node18</title>
<path fill="none" stroke="midnightblue" d="M1136.87,-112.44C1159.78,-103.48 1195.98,-89.31 1221.87,-79.18"/>
<polygon fill="midnightblue" stroke="midnightblue" points="1223.2,-82.42 1231.24,-75.52 1220.65,-75.9 1223.2,-82.42"/>
</g>
<!-- Node14 -->
<g id="node14" class="node">
<title>Node14</title>
<g id="a_node14"><a xlink:title=" ">
<polygon fill="white" stroke="#bfbfbf" points="918,-0.5 918,-19.5 968,-19.5 968,-0.5 918,-0.5"/>
<text text-anchor="middle" x="943" y="-7.5" font-family="Helvetica,sans-Serif" font-size="10.00">stdio.h</text>
</a>
</g>
</g>
<!-- Node13&#45;&gt;Node14 -->
<g id="edge13" class="edge">
<title>Node13&#45;&gt;Node14</title>
<path fill="none" stroke="midnightblue" d="M970.55,-56.08C965.99,-48.61 959.33,-37.72 953.71,-28.52"/>
<polygon fill="midnightblue" stroke="midnightblue" points="956.55,-26.46 948.35,-19.75 950.58,-30.11 956.55,-26.46"/>
</g>
<!-- Node15 -->
<g id="node15" class="node">
<title>Node15</title>
<g id="a_node15"><a xlink:title=" ">
<polygon fill="white" stroke="#bfbfbf" points="986,-0.5 986,-19.5 1034,-19.5 1034,-0.5 986,-0.5"/>
<text text-anchor="middle" x="1010" y="-7.5" font-family="Helvetica,sans-Serif" font-size="10.00">time.h</text>
</a>
</g>
</g>
<!-- Node13&#45;&gt;Node15 -->
<g id="edge14" class="edge">
<title>Node13&#45;&gt;Node15</title>
<path fill="none" stroke="midnightblue" d="M981.61,-56.08C986.37,-48.53 993.32,-37.49 999.15,-28.23"/>
<polygon fill="midnightblue" stroke="midnightblue" points="1002.12,-30.08 1004.49,-19.75 996.2,-26.35 1002.12,-30.08"/>
</g>
</g>
</svg>
