<?xml version="1.0" encoding="UTF-8" standalone="no"?>
<!DOCTYPE svg PUBLIC "-//W3C//DTD SVG 1.1//EN"
 "http://www.w3.org/Graphics/SVG/1.1/DTD/svg11.dtd">
<!-- Generated by graphviz version 2.43.0 (0)
 -->
<!-- Title: OMSimPMTConstruction.cc Pages: 1 -->
<svg width="3040pt" height="263pt"
 viewBox="0.00 0.00 3040.02 263.00" xmlns="http://www.w3.org/2000/svg" xmlns:xlink="http://www.w3.org/1999/xlink">
<g id="graph0" class="graph" transform="scale(1 1) rotate(0) translate(4 259)">
<title>OMSimPMTConstruction.cc</title>
<polygon fill="white" stroke="transparent" points="-4,4 -4,-259 3036.02,-259 3036.02,4 -4,4"/>
<!-- Node1 -->
<g id="node1" class="node">
<title>Node1</title>
<g id="a_node1"><a xlink:title="Construction of the PMTs.">
<polygon fill="#bfbfbf" stroke="black" points="1510.52,-235.5 1510.52,-254.5 1657.52,-254.5 1657.52,-235.5 1510.52,-235.5"/>
<text text-anchor="middle" x="1584.02" y="-242.5" font-family="Helvetica,sans-Serif" font-size="10.00">OMSimPMTConstruction.cc</text>
</a>
</g>
</g>
<!-- Node2 -->
<g id="node2" class="node">
<title>Node2</title>
<g id="a_node2"><a xlink:href="_o_m_sim_p_m_t_construction_8hh.html" target="_top" xlink:title=" ">
<polygon fill="white" stroke="black" points="684.52,-179.5 684.52,-198.5 833.52,-198.5 833.52,-179.5 684.52,-179.5"/>
<text text-anchor="middle" x="759.02" y="-186.5" font-family="Helvetica,sans-Serif" font-size="10.00">OMSimPMTConstruction.hh</text>
</a>
</g>
</g>
<!-- Node1&#45;&gt;Node2 -->
<g id="edge1" class="edge">
<title>Node1&#45;&gt;Node2</title>
<path fill="none" stroke="midnightblue" d="M1510.45,-239.18C1357.61,-229.18 1006.51,-206.2 844.19,-195.57"/>
<polygon fill="midnightblue" stroke="midnightblue" points="843.98,-192.05 833.77,-194.89 843.52,-199.04 843.98,-192.05"/>
</g>
<!-- Node5 -->
<g id="node5" class="node">
<title>Node5</title>
<g id="a_node5"><a xlink:href="abc_detector_component_8hh.html" target="_top" xlink:title=" ">
<polygon fill="white" stroke="black" points="390.52,-123.5 390.52,-142.5 537.52,-142.5 537.52,-123.5 390.52,-123.5"/>
<text text-anchor="middle" x="464.02" y="-130.5" font-family="Helvetica,sans-Serif" font-size="10.00">abcDetectorComponent.hh</text>
</a>
</g>
</g>
<!-- Node1&#45;&gt;Node5 -->
<g id="edge29" class="edge">
<title>Node1&#45;&gt;Node5</title>
<path fill="none" stroke="midnightblue" d="M1510.21,-243.27C1289.03,-240.73 641.53,-230.65 552.02,-199 523.36,-188.86 496.13,-165.98 479.75,-150.26"/>
<polygon fill="midnightblue" stroke="midnightblue" points="481.79,-147.36 472.23,-142.8 476.86,-152.33 481.79,-147.36"/>
</g>
<!-- Node6 -->
<g id="node6" class="node">
<title>Node6</title>
<g id="a_node6"><a xlink:title=" ">
<polygon fill="white" stroke="#bfbfbf" points="988.02,-67.5 988.02,-86.5 1104.02,-86.5 1104.02,-67.5 988.02,-67.5"/>
<text text-anchor="middle" x="1046.02" y="-74.5" font-family="Helvetica,sans-Serif" font-size="10.00">G4LogicalVolume.hh</text>
</a>
</g>
</g>
<!-- Node1&#45;&gt;Node6 -->
<g id="edge33" class="edge">
<title>Node1&#45;&gt;Node6</title>
<path fill="none" stroke="midnightblue" d="M1510.24,-240.96C1410.06,-235.95 1236.84,-223.93 1179.02,-199 1125.71,-176.01 1079.67,-122.56 1058.47,-95.05"/>
<polygon fill="midnightblue" stroke="midnightblue" points="1061.06,-92.68 1052.26,-86.79 1055.47,-96.88 1061.06,-92.68"/>
</g>
<!-- Node7 -->
<g id="node7" class="node">
<title>Node7</title>
<g id="a_node7"><a xlink:title=" ">
<polygon fill="white" stroke="#bfbfbf" points="400.52,-6 400.52,-25 519.52,-25 519.52,-6 400.52,-6"/>
<text text-anchor="middle" x="460.02" y="-13" font-family="Helvetica,sans-Serif" font-size="10.00">G4SystemOfUnits.hh</text>
</a>
</g>
</g>
<!-- Node1&#45;&gt;Node7 -->
<g id="edge39" class="edge">
<title>Node1&#45;&gt;Node7</title>
<path fill="none" stroke="midnightblue" d="M1510.19,-244.23C1276.79,-244.51 556.85,-241.77 328.02,-199 178.67,-171.08 93.12,-210.79 5.02,-87 -40.48,-23.07 251.45,-15.73 389.99,-15.78"/>
<polygon fill="midnightblue" stroke="midnightblue" points="390.09,-19.29 400.09,-15.8 390.1,-12.29 390.09,-19.29"/>
</g>
<!-- Node9 -->
<g id="node9" class="node">
<title>Node9</title>
<g id="a_node9"><a xlink:title=" ">
<polygon fill="white" stroke="#bfbfbf" points="14.02,-67.5 14.02,-86.5 122.02,-86.5 122.02,-67.5 14.02,-67.5"/>
<text text-anchor="middle" x="68.02" y="-74.5" font-family="Helvetica,sans-Serif" font-size="10.00">G4VisAttributes.hh</text>
</a>
</g>
</g>
<!-- Node1&#45;&gt;Node9 -->
<g id="edge44" class="edge">
<title>Node1&#45;&gt;Node9</title>
<path fill="none" stroke="midnightblue" d="M1510.13,-244.11C1286.58,-243.97 619.74,-240.02 407.02,-199 286.62,-175.78 151.63,-117.07 95.15,-90.91"/>
<polygon fill="midnightblue" stroke="midnightblue" points="96.39,-87.63 85.85,-86.57 93.43,-93.97 96.39,-87.63"/>
</g>
<!-- Node14 -->
<g id="node12" class="node">
<title>Node14</title>
<g id="a_node12"><a xlink:title=" ">
<polygon fill="white" stroke="#bfbfbf" points="140.52,-67.5 140.52,-86.5 265.52,-86.5 265.52,-67.5 140.52,-67.5"/>
<text text-anchor="middle" x="203.02" y="-74.5" font-family="Helvetica,sans-Serif" font-size="10.00">G4SubtractionSolid.hh</text>
</a>
</g>
</g>
<!-- Node1&#45;&gt;Node14 -->
<g id="edge38" class="edge">
<title>Node1&#45;&gt;Node14</title>
<path fill="none" stroke="midnightblue" d="M1510.21,-243.13C1300.67,-240.31 704.83,-229.75 512.02,-199 421.29,-184.53 397.51,-179.12 313.02,-143 280.01,-128.88 244.76,-106.63 223.31,-92.17"/>
<polygon fill="midnightblue" stroke="midnightblue" points="225.24,-89.25 215.01,-86.5 221.29,-95.03 225.24,-89.25"/>
</g>
<!-- Node15 -->
<g id="node13" class="node">
<title>Node15</title>
<g id="a_node13"><a xlink:title=" ">
<polygon fill="white" stroke="#bfbfbf" points="564.02,-67.5 564.02,-86.5 674.02,-86.5 674.02,-67.5 564.02,-67.5"/>
<text text-anchor="middle" x="619.02" y="-74.5" font-family="Helvetica,sans-Serif" font-size="10.00">G4PVPlacement.hh</text>
</a>
</g>
</g>
<!-- Node1&#45;&gt;Node15 -->
<g id="edge36" class="edge">
<title>Node1&#45;&gt;Node15</title>
<path fill="none" stroke="midnightblue" d="M1510.36,-243.16C1307.62,-240.44 751.35,-230.2 675.02,-199 640.35,-184.82 627.37,-177.18 612.02,-143 605.42,-128.29 608.3,-109.9 612.17,-96.43"/>
<polygon fill="midnightblue" stroke="midnightblue" points="615.52,-97.45 615.33,-86.86 608.87,-95.26 615.52,-97.45"/>
</g>
<!-- Node18 -->
<g id="node16" class="node">
<title>Node18</title>
<g id="a_node16"><a xlink:title=" ">
<polygon fill="white" stroke="#bfbfbf" points="882.02,-123.5 882.02,-142.5 980.02,-142.5 980.02,-123.5 882.02,-123.5"/>
<text text-anchor="middle" x="931.02" y="-130.5" font-family="Helvetica,sans-Serif" font-size="10.00">G4UnionSolid.hh</text>
</a>
</g>
</g>
<!-- Node1&#45;&gt;Node18 -->
<g id="edge42" class="edge">
<title>Node1&#45;&gt;Node18</title>
<path fill="none" stroke="midnightblue" d="M1510.48,-241.34C1385.82,-236.23 1138.42,-223.33 1055.02,-199 1016.3,-187.7 975.67,-163.73 951.88,-148.27"/>
<polygon fill="midnightblue" stroke="midnightblue" points="953.61,-145.22 943.34,-142.61 949.74,-151.05 953.61,-145.22"/>
</g>
<!-- Node19 -->
<g id="node17" class="node">
<title>Node19</title>
<g id="a_node17"><a xlink:title=" ">
<polygon fill="white" stroke="#bfbfbf" points="998.52,-123.5 998.52,-142.5 1065.52,-142.5 1065.52,-123.5 998.52,-123.5"/>
<text text-anchor="middle" x="1032.02" y="-130.5" font-family="Helvetica,sans-Serif" font-size="10.00">G4Tubs.hh</text>
</a>
</g>
</g>
<!-- Node1&#45;&gt;Node19 -->
<g id="edge41" class="edge">
<title>Node1&#45;&gt;Node19</title>
<path fill="none" stroke="midnightblue" d="M1510.5,-244.72C1388.82,-244.73 1151.83,-239.34 1080.02,-199 1061.16,-188.4 1047.61,-166.98 1039.81,-151.63"/>
<polygon fill="midnightblue" stroke="midnightblue" points="1042.97,-150.12 1035.52,-142.59 1036.64,-153.12 1042.97,-150.12"/>
</g>
<!-- Node22 -->
<g id="node20" class="node">
<title>Node22</title>
<g id="a_node20"><a xlink:title=" ">
<polygon fill="white" stroke="#bfbfbf" points="1642.02,-179.5 1642.02,-198.5 1696.02,-198.5 1696.02,-179.5 1642.02,-179.5"/>
<text text-anchor="middle" x="1669.02" y="-186.5" font-family="Helvetica,sans-Serif" font-size="10.00">dirent.h</text>
</a>
</g>
</g>
<!-- Node1&#45;&gt;Node22 -->
<g id="edge28" class="edge">
<title>Node1&#45;&gt;Node22</title>
<path fill="none" stroke="midnightblue" d="M1597.68,-235.32C1610.94,-226.9 1631.29,-213.97 1646.87,-204.07"/>
<polygon fill="midnightblue" stroke="midnightblue" points="1648.84,-206.97 1655.4,-198.65 1645.08,-201.06 1648.84,-206.97"/>
</g>
<!-- Node23 -->
<g id="node21" class="node">
<title>Node23</title>
<g id="a_node21"><a xlink:title=" ">
<polygon fill="white" stroke="#bfbfbf" points="1714.02,-179.5 1714.02,-198.5 1778.02,-198.5 1778.02,-179.5 1714.02,-179.5"/>
<text text-anchor="middle" x="1746.02" y="-186.5" font-family="Helvetica,sans-Serif" font-size="10.00">G4Box.hh</text>
</a>
</g>
</g>
<!-- Node1&#45;&gt;Node23 -->
<g id="edge30" class="edge">
<title>Node1&#45;&gt;Node23</title>
<path fill="none" stroke="midnightblue" d="M1609.69,-235.44C1636.95,-226.36 1680.21,-211.94 1710.67,-201.78"/>
<polygon fill="midnightblue" stroke="midnightblue" points="1712.09,-205 1720.47,-198.52 1709.88,-198.36 1712.09,-205"/>
</g>
<!-- Node24 -->
<g id="node22" class="node">
<title>Node24</title>
<g id="a_node22"><a xlink:title=" ">
<polygon fill="white" stroke="#bfbfbf" points="1796.52,-179.5 1796.52,-198.5 1865.52,-198.5 1865.52,-179.5 1796.52,-179.5"/>
<text text-anchor="middle" x="1831.02" y="-186.5" font-family="Helvetica,sans-Serif" font-size="10.00">G4Cons.hh</text>
</a>
</g>
</g>
<!-- Node1&#45;&gt;Node24 -->
<g id="edge31" class="edge">
<title>Node1&#45;&gt;Node24</title>
<path fill="none" stroke="midnightblue" d="M1623.16,-235.44C1667.64,-225.72 1740.1,-209.88 1786.65,-199.7"/>
<polygon fill="midnightblue" stroke="midnightblue" points="1787.43,-203.11 1796.45,-197.56 1785.94,-196.27 1787.43,-203.11"/>
</g>
<!-- Node25 -->
<g id="node23" class="node">
<title>Node25</title>
<g id="a_node23"><a xlink:title=" ">
<polygon fill="white" stroke="#bfbfbf" points="1884.02,-179.5 1884.02,-198.5 1970.02,-198.5 1970.02,-179.5 1884.02,-179.5"/>
<text text-anchor="middle" x="1927.02" y="-186.5" font-family="Helvetica,sans-Serif" font-size="10.00">G4Ellipsoid.hh</text>
</a>
</g>
</g>
<!-- Node1&#45;&gt;Node25 -->
<g id="edge32" class="edge">
<title>Node1&#45;&gt;Node25</title>
<path fill="none" stroke="midnightblue" d="M1640.47,-235.48C1698.94,-226.61 1792.93,-212.18 1874.02,-199 1874.13,-198.98 1874.23,-198.97 1874.33,-198.95"/>
<polygon fill="midnightblue" stroke="midnightblue" points="1874.64,-202.45 1883.93,-197.37 1873.5,-195.54 1874.64,-202.45"/>
</g>
<!-- Node26 -->
<g id="node24" class="node">
<title>Node26</title>
<g id="a_node24"><a xlink:title=" ">
<polygon fill="white" stroke="#bfbfbf" points="1988.52,-179.5 1988.52,-198.5 2137.52,-198.5 2137.52,-179.5 1988.52,-179.5"/>
<text text-anchor="middle" x="2063.02" y="-186.5" font-family="Helvetica,sans-Serif" font-size="10.00">G4LogicalBorderSurface.hh</text>
</a>
</g>
</g>
<!-- Node1&#45;&gt;Node26 -->
<g id="edge34" class="edge">
<title>Node1&#45;&gt;Node26</title>
<path fill="none" stroke="midnightblue" d="M1657.56,-235.71C1744.01,-225.96 1887.21,-209.82 1978.26,-199.56"/>
<polygon fill="midnightblue" stroke="midnightblue" points="1978.72,-203.03 1988.27,-198.43 1977.94,-196.07 1978.72,-203.03"/>
</g>
<!-- Node27 -->
<g id="node25" class="node">
<title>Node27</title>
<g id="a_node25"><a xlink:title=" ">
<polygon fill="white" stroke="#bfbfbf" points="2155.52,-179.5 2155.52,-198.5 2292.52,-198.5 2292.52,-179.5 2155.52,-179.5"/>
<text text-anchor="middle" x="2224.02" y="-186.5" font-family="Helvetica,sans-Serif" font-size="10.00">G4LogicalSkinSurface.hh</text>
</a>
</g>
</g>
<!-- Node1&#45;&gt;Node27 -->
<g id="edge35" class="edge">
<title>Node1&#45;&gt;Node27</title>
<path fill="none" stroke="midnightblue" d="M1657.74,-238.92C1763.27,-231.47 1963.75,-216.63 2145.14,-199.05"/>
<polygon fill="midnightblue" stroke="midnightblue" points="2145.52,-202.53 2155.13,-198.08 2144.84,-195.57 2145.52,-202.53"/>
</g>
<!-- Node28 -->
<g id="node26" class="node">
<title>Node28</title>
<g id="a_node26"><a xlink:title=" ">
<polygon fill="white" stroke="#bfbfbf" points="2310.52,-179.5 2310.52,-198.5 2389.52,-198.5 2389.52,-179.5 2310.52,-179.5"/>
<text text-anchor="middle" x="2350.02" y="-186.5" font-family="Helvetica,sans-Serif" font-size="10.00">G4Sphere.hh</text>
</a>
</g>
</g>
<!-- Node1&#45;&gt;Node28 -->
<g id="edge37" class="edge">
<title>Node1&#45;&gt;Node28</title>
<path fill="none" stroke="midnightblue" d="M1657.57,-242.27C1785.97,-238.61 2059.44,-228.02 2300.5,-198.9"/>
<polygon fill="midnightblue" stroke="midnightblue" points="2301,-202.36 2310.51,-197.68 2300.16,-195.41 2301,-202.36"/>
</g>
<!-- Node29 -->
<g id="node27" class="node">
<title>Node29</title>
<g id="a_node27"><a xlink:title=" ">
<polygon fill="white" stroke="#bfbfbf" points="2407.52,-179.5 2407.52,-198.5 2478.52,-198.5 2478.52,-179.5 2407.52,-179.5"/>
<text text-anchor="middle" x="2443.02" y="-186.5" font-family="Helvetica,sans-Serif" font-size="10.00">G4Torus.hh</text>
</a>
</g>
</g>
<!-- Node1&#45;&gt;Node29 -->
<g id="edge40" class="edge">
<title>Node1&#45;&gt;Node29</title>
<path fill="none" stroke="midnightblue" d="M1657.58,-243.43C1798.98,-241.57 2118.58,-233.67 2396.94,-198.93"/>
<polygon fill="midnightblue" stroke="midnightblue" points="2397.76,-202.36 2407.24,-197.63 2396.88,-195.41 2397.76,-202.36"/>
</g>
<!-- Node30 -->
<g id="node28" class="node">
<title>Node30</title>
<g id="a_node28"><a xlink:title=" ">
<polygon fill="white" stroke="#bfbfbf" points="2497.02,-179.5 2497.02,-198.5 2593.02,-198.5 2593.02,-179.5 2497.02,-179.5"/>
<text text-anchor="middle" x="2545.02" y="-186.5" font-family="Helvetica,sans-Serif" font-size="10.00">G4UnitsTable.hh</text>
</a>
</g>
</g>
<!-- Node1&#45;&gt;Node30 -->
<g id="edge43" class="edge">
<title>Node1&#45;&gt;Node30</title>
<path fill="none" stroke="midnightblue" d="M1657.67,-242.93C1811.9,-240.11 2179.99,-230.39 2487.02,-199 2487.13,-198.99 2487.23,-198.98 2487.33,-198.97"/>
<polygon fill="midnightblue" stroke="midnightblue" points="2487.44,-202.48 2496.97,-197.85 2486.63,-195.53 2487.44,-202.48"/>
</g>
<!-- Node31 -->
<g id="node29" class="node">
<title>Node31</title>
<g id="a_node29"><a xlink:href="_o_m_sim_logger_8hh.html" target="_top" xlink:title=" ">
<polygon fill="white" stroke="black" points="2891.52,-179.5 2891.52,-198.5 2990.52,-198.5 2990.52,-179.5 2891.52,-179.5"/>
<text text-anchor="middle" x="2941.02" y="-186.5" font-family="Helvetica,sans-Serif" font-size="10.00">OMSimLogger.hh</text>
</a>
</g>
</g>
<!-- Node1&#45;&gt;Node31 -->
<g id="edge45" class="edge">
<title>Node1&#45;&gt;Node31</title>
<path fill="none" stroke="midnightblue" d="M1657.95,-241.06C1899.4,-231.45 2661.96,-201.1 2881.41,-192.37"/>
<polygon fill="midnightblue" stroke="midnightblue" points="2881.59,-195.87 2891.44,-191.97 2881.31,-188.87 2881.59,-195.87"/>
</g>
<!-- Node34 -->
<g id="node32" class="node">
<title>Node34</title>
<g id="a_node32"><a xlink:href="_c_a_d_mesh_8hh.html" target="_top" xlink:title=" ">
<polygon fill="white" stroke="black" points="1544.52,-179.5 1544.52,-198.5 1623.52,-198.5 1623.52,-179.5 1544.52,-179.5"/>
<text text-anchor="middle" x="1584.02" y="-186.5" font-family="Helvetica,sans-Serif" font-size="10.00">CADMesh.hh</text>
</a>
</g>
</g>
<!-- Node1&#45;&gt;Node34 -->
<g id="edge48" class="edge">
<title>Node1&#45;&gt;Node34</title>
<path fill="none" stroke="midnightblue" d="M1584.02,-235.08C1584.02,-228.01 1584.02,-217.86 1584.02,-208.99"/>
<polygon fill="midnightblue" stroke="midnightblue" points="1587.52,-208.75 1584.02,-198.75 1580.52,-208.75 1587.52,-208.75"/>
</g>
<!-- Node51 -->
<g id="node49" class="node">
<title>Node51</title>
<g id="a_node49"><a xlink:href="_o_m_sim_command_args_table_8hh.html" target="_top" xlink:title="Definition of the OMSimCommandArgsTable singleton class, which controls user args.">
<polygon fill="white" stroke="red" points="1188.02,-179.5 1188.02,-198.5 1352.02,-198.5 1352.02,-179.5 1188.02,-179.5"/>
<text text-anchor="middle" x="1270.02" y="-186.5" font-family="Helvetica,sans-Serif" font-size="10.00">OMSimCommandArgsTable.hh</text>
</a>
</g>
</g>
<!-- Node1&#45;&gt;Node51 -->
<g id="edge69" class="edge">
<title>Node1&#45;&gt;Node51</title>
<path fill="none" stroke="midnightblue" d="M1534.27,-235.44C1478.69,-225.89 1388.76,-210.42 1329.51,-200.23"/>
<polygon fill="midnightblue" stroke="midnightblue" points="1329.99,-196.76 1319.55,-198.52 1328.81,-203.66 1329.99,-196.76"/>
</g>
<!-- Node3 -->
<g id="node3" class="node">
<title>Node3</title>
<g id="a_node3"><a xlink:title=" ">
<polygon fill="white" stroke="#bfbfbf" points="693.52,-0.5 693.52,-30.5 806.52,-30.5 806.52,-0.5 693.52,-0.5"/>
<text text-anchor="start" x="701.52" y="-18.5" font-family="Helvetica,sans-Serif" font-size="10.00">boost/property_tree</text>
<text text-anchor="middle" x="750.02" y="-7.5" font-family="Helvetica,sans-Serif" font-size="10.00">/ptree.hpp</text>
</a>
</g>
</g>
<!-- Node2&#45;&gt;Node3 -->
<g id="edge2" class="edge">
<title>Node2&#45;&gt;Node3</title>
<path fill="none" stroke="midnightblue" d="M758.57,-179.26C757.24,-153.97 753.36,-80.08 751.32,-41.15"/>
<polygon fill="midnightblue" stroke="midnightblue" points="754.79,-40.53 750.77,-30.72 747.8,-40.89 754.79,-40.53"/>
</g>
<!-- Node4 -->
<g id="node4" class="node">
<title>Node4</title>
<g id="a_node4"><a xlink:title=" ">
<polygon fill="white" stroke="#bfbfbf" points="844.52,-0.5 844.52,-30.5 957.52,-30.5 957.52,-0.5 844.52,-0.5"/>
<text text-anchor="start" x="852.52" y="-18.5" font-family="Helvetica,sans-Serif" font-size="10.00">boost/property_tree</text>
<text text-anchor="middle" x="901.02" y="-7.5" font-family="Helvetica,sans-Serif" font-size="10.00">/json_parser.hpp</text>
</a>
</g>
</g>
<!-- Node2&#45;&gt;Node4 -->
<g id="edge3" class="edge">
<title>Node2&#45;&gt;Node4</title>
<path fill="none" stroke="midnightblue" d="M767.25,-179.36C779.97,-166.26 805.51,-141.01 830.02,-123 855.7,-104.13 874.41,-113.55 892.02,-87 900.94,-73.56 903.1,-55.47 903.08,-40.98"/>
<polygon fill="midnightblue" stroke="midnightblue" points="906.56,-40.61 902.71,-30.74 899.57,-40.86 906.56,-40.61"/>
</g>
<!-- Node2&#45;&gt;Node5 -->
<g id="edge4" class="edge">
<title>Node2&#45;&gt;Node5</title>
<path fill="none" stroke="midnightblue" d="M712.28,-179.44C660.28,-169.92 576.27,-154.55 520.6,-144.36"/>
<polygon fill="midnightblue" stroke="midnightblue" points="521.02,-140.87 510.55,-142.52 519.76,-147.76 521.02,-140.87"/>
</g>
<!-- Node2&#45;&gt;Node6 -->
<g id="edge18" class="edge">
<title>Node2&#45;&gt;Node6</title>
<path fill="none" stroke="midnightblue" d="M771.46,-179.44C791.83,-165.75 833.98,-138.88 873.02,-123 910.83,-107.62 955.45,-96.17 989.91,-88.66"/>
<polygon fill="midnightblue" stroke="midnightblue" points="990.75,-92.06 999.8,-86.56 989.29,-85.22 990.75,-92.06"/>
</g>
<!-- Node2&#45;&gt;Node7 -->
<g id="edge19" class="edge">
<title>Node2&#45;&gt;Node7</title>
<path fill="none" stroke="midnightblue" d="M756.23,-179.34C748.52,-156.89 724.72,-96.54 683.02,-67 638.36,-35.36 577.12,-23.15 530.11,-18.63"/>
<polygon fill="midnightblue" stroke="midnightblue" points="530.27,-15.13 520.01,-17.75 529.67,-22.1 530.27,-15.13"/>
</g>
<!-- Node2&#45;&gt;Node9 -->
<g id="edge21" class="edge">
<title>Node2&#45;&gt;Node9</title>
<path fill="none" stroke="midnightblue" d="M684.34,-184.1C595.34,-178.61 442.42,-166.54 313.02,-143 237.8,-129.32 151.83,-104.26 104.35,-89.58"/>
<polygon fill="midnightblue" stroke="midnightblue" points="105.13,-86.16 94.54,-86.52 103.04,-92.84 105.13,-86.16"/>
</g>
<!-- Node10 -->
<g id="node10" class="node">
<title>Node10</title>
<g id="a_node10"><a xlink:href="_o_m_sim_input_data_8hh.html" target="_top" xlink:title=" ">
<polygon fill="white" stroke="red" points="768.52,-67.5 768.52,-86.5 883.52,-86.5 883.52,-67.5 768.52,-67.5"/>
<text text-anchor="middle" x="826.02" y="-74.5" font-family="Helvetica,sans-Serif" font-size="10.00">OMSimInputData.hh</text>
</a>
</g>
</g>
<!-- Node2&#45;&gt;Node10 -->
<g id="edge24" class="edge">
<title>Node2&#45;&gt;Node10</title>
<path fill="none" stroke="midnightblue" d="M764.28,-179.37C775.29,-161.3 800.94,-119.18 815.48,-95.31"/>
<polygon fill="midnightblue" stroke="midnightblue" points="818.58,-96.95 820.79,-86.59 812.6,-93.31 818.58,-96.95"/>
</g>
<!-- Node2&#45;&gt;Node14 -->
<g id="edge22" class="edge">
<title>Node2&#45;&gt;Node14</title>
<path fill="none" stroke="midnightblue" d="M684.25,-184.21C607.34,-179.13 484.52,-167.7 381.02,-143 326.56,-130 265.84,-105.56 231.25,-90.63"/>
<polygon fill="midnightblue" stroke="midnightblue" points="232.37,-87.3 221.81,-86.51 229.57,-93.71 232.37,-87.3"/>
</g>
<!-- Node2&#45;&gt;Node15 -->
<g id="edge23" class="edge">
<title>Node2&#45;&gt;Node15</title>
<path fill="none" stroke="midnightblue" d="M684.2,-179.7C661.07,-173.31 637.82,-162.21 623.02,-143 613.01,-130 613.07,-110.83 614.99,-96.68"/>
<polygon fill="midnightblue" stroke="midnightblue" points="618.48,-97.08 616.78,-86.62 611.59,-95.85 618.48,-97.08"/>
</g>
<!-- Node2&#45;&gt;Node18 -->
<g id="edge20" class="edge">
<title>Node2&#45;&gt;Node18</title>
<path fill="none" stroke="midnightblue" d="M786.28,-179.44C815.47,-170.28 861.95,-155.69 894.33,-145.52"/>
<polygon fill="midnightblue" stroke="midnightblue" points="895.41,-148.85 903.9,-142.52 893.31,-142.17 895.41,-148.85"/>
</g>
<!-- Node2&#45;&gt;Node19 -->
<g id="edge25" class="edge">
<title>Node2&#45;&gt;Node19</title>
<path fill="none" stroke="midnightblue" d="M803.58,-179.46C847.86,-170.94 917.97,-157.33 988.31,-143.12"/>
<polygon fill="midnightblue" stroke="midnightblue" points="989.12,-146.53 998.23,-141.12 987.74,-139.67 989.12,-146.53"/>
</g>
<!-- Node20 -->
<g id="node18" class="node">
<title>Node20</title>
<g id="a_node18"><a xlink:title=" ">
<polygon fill="white" stroke="#bfbfbf" points="632.52,-123.5 632.52,-142.5 673.52,-142.5 673.52,-123.5 632.52,-123.5"/>
<text text-anchor="middle" x="653.02" y="-130.5" font-family="Helvetica,sans-Serif" font-size="10.00">tuple</text>
</a>
</g>
</g>
<!-- Node2&#45;&gt;Node20 -->
<g id="edge26" class="edge">
<title>Node2&#45;&gt;Node20</title>
<path fill="none" stroke="midnightblue" d="M741.99,-179.32C724.99,-170.66 698.65,-157.24 679.03,-147.25"/>
<polygon fill="midnightblue" stroke="midnightblue" points="680.51,-144.08 670.01,-142.65 677.33,-150.31 680.51,-144.08"/>
</g>
<!-- Node21 -->
<g id="node19" class="node">
<title>Node21</title>
<g id="a_node19"><a xlink:title=" ">
<polygon fill="white" stroke="#bfbfbf" points="1192.02,-123.5 1192.02,-142.5 1230.02,-142.5 1230.02,-123.5 1192.02,-123.5"/>
<text text-anchor="middle" x="1211.02" y="-130.5" font-family="Helvetica,sans-Serif" font-size="10.00">map</text>
</a>
</g>
</g>
<!-- Node2&#45;&gt;Node21 -->
<g id="edge27" class="edge">
<title>Node2&#45;&gt;Node21</title>
<path fill="none" stroke="midnightblue" d="M833.82,-184.46C918.89,-179.41 1061.6,-167.84 1182.02,-143 1182.12,-142.98 1182.22,-142.96 1182.32,-142.94"/>
<polygon fill="midnightblue" stroke="midnightblue" points="1182.98,-146.38 1191.82,-140.53 1181.26,-139.6 1182.98,-146.38"/>
</g>
<!-- Node5&#45;&gt;Node6 -->
<g id="edge5" class="edge">
<title>Node5&#45;&gt;Node6</title>
<path fill="none" stroke="midnightblue" d="M537.73,-125.16C651.34,-114.62 867.59,-94.56 977.79,-84.33"/>
<polygon fill="midnightblue" stroke="midnightblue" points="978.16,-87.81 987.79,-83.4 977.51,-80.84 978.16,-87.81"/>
</g>
<!-- Node5&#45;&gt;Node7 -->
<g id="edge6" class="edge">
<title>Node5&#45;&gt;Node7</title>
<path fill="none" stroke="midnightblue" d="M390.25,-128.33C361.42,-122.83 331.01,-111.12 313.02,-87 288.02,-53.46 340.9,-35.14 390.06,-25.66"/>
<polygon fill="midnightblue" stroke="midnightblue" points="390.93,-29.06 400.14,-23.82 389.68,-22.17 390.93,-29.06"/>
</g>
<!-- Node8 -->
<g id="node8" class="node">
<title>Node8</title>
<g id="a_node8"><a xlink:title=" ">
<polygon fill="white" stroke="#bfbfbf" points="322.52,-67.5 322.52,-86.5 429.52,-86.5 429.52,-67.5 322.52,-67.5"/>
<text text-anchor="middle" x="376.02" y="-74.5" font-family="Helvetica,sans-Serif" font-size="10.00">G4Transform3D.hh</text>
</a>
</g>
</g>
<!-- Node5&#45;&gt;Node8 -->
<g id="edge7" class="edge">
<title>Node5&#45;&gt;Node8</title>
<path fill="none" stroke="midnightblue" d="M449.89,-123.32C436.16,-114.9 415.09,-101.97 398.96,-92.07"/>
<polygon fill="midnightblue" stroke="midnightblue" points="400.48,-88.9 390.13,-86.65 396.82,-94.87 400.48,-88.9"/>
</g>
<!-- Node5&#45;&gt;Node9 -->
<g id="edge8" class="edge">
<title>Node5&#45;&gt;Node9</title>
<path fill="none" stroke="midnightblue" d="M399.86,-123.48C335.01,-114.83 231.63,-100.95 132.51,-87.2"/>
<polygon fill="midnightblue" stroke="midnightblue" points="132.7,-83.69 122.32,-85.78 131.74,-90.63 132.7,-83.69"/>
</g>
<!-- Node5&#45;&gt;Node10 -->
<g id="edge9" class="edge">
<title>Node5&#45;&gt;Node10</title>
<path fill="none" stroke="midnightblue" d="M521.38,-123.44C585.86,-113.83 690.42,-98.23 758.71,-88.04"/>
<polygon fill="midnightblue" stroke="midnightblue" points="759.56,-91.45 768.93,-86.52 758.53,-84.53 759.56,-91.45"/>
</g>
<!-- Node5&#45;&gt;Node14 -->
<g id="edge14" class="edge">
<title>Node5&#45;&gt;Node14</title>
<path fill="none" stroke="midnightblue" d="M422.67,-123.44C376.95,-113.98 303.26,-98.74 254,-88.55"/>
<polygon fill="midnightblue" stroke="midnightblue" points="254.69,-85.12 244.19,-86.52 253.27,-91.97 254.69,-85.12"/>
</g>
<!-- Node5&#45;&gt;Node15 -->
<g id="edge15" class="edge">
<title>Node5&#45;&gt;Node15</title>
<path fill="none" stroke="midnightblue" d="M488.58,-123.44C514.55,-114.4 555.69,-100.06 584.82,-89.92"/>
<polygon fill="midnightblue" stroke="midnightblue" points="586.29,-93.11 594.58,-86.52 583.98,-86.5 586.29,-93.11"/>
</g>
<!-- Node16 -->
<g id="node14" class="node">
<title>Node16</title>
<g id="a_node14"><a xlink:title=" ">
<polygon fill="white" stroke="#bfbfbf" points="448.02,-67.5 448.02,-86.5 546.02,-86.5 546.02,-67.5 448.02,-67.5"/>
<text text-anchor="middle" x="497.02" y="-74.5" font-family="Helvetica,sans-Serif" font-size="10.00">G4MultiUnion.hh</text>
</a>
</g>
</g>
<!-- Node5&#45;&gt;Node16 -->
<g id="edge16" class="edge">
<title>Node5&#45;&gt;Node16</title>
<path fill="none" stroke="midnightblue" d="M469.47,-123.08C474.04,-115.61 480.69,-104.72 486.32,-95.52"/>
<polygon fill="midnightblue" stroke="midnightblue" points="489.45,-97.11 491.68,-86.75 483.48,-93.46 489.45,-97.11"/>
</g>
<!-- Node17 -->
<g id="node15" class="node">
<title>Node17</title>
<g id="a_node15"><a xlink:title=" ">
<polygon fill="white" stroke="#bfbfbf" points="1532.02,-67.5 1532.02,-86.5 1588.02,-86.5 1588.02,-67.5 1532.02,-67.5"/>
<text text-anchor="middle" x="1560.02" y="-74.5" font-family="Helvetica,sans-Serif" font-size="10.00">sstream</text>
</a>
</g>
</g>
<!-- Node5&#45;&gt;Node17 -->
<g id="edge17" class="edge">
<title>Node5&#45;&gt;Node17</title>
<path fill="none" stroke="midnightblue" d="M537.64,-127.7C564.51,-126.17 595.14,-124.46 623.02,-123 971.84,-104.75 1393.85,-85.5 1521.59,-79.73"/>
<polygon fill="midnightblue" stroke="midnightblue" points="1521.82,-83.22 1531.65,-79.27 1521.51,-76.23 1521.82,-83.22"/>
</g>
<!-- Node10&#45;&gt;Node3 -->
<g id="edge10" class="edge">
<title>Node10&#45;&gt;Node3</title>
<path fill="none" stroke="midnightblue" d="M815.14,-67.48C804.94,-59.49 789.31,-47.25 775.92,-36.77"/>
<polygon fill="midnightblue" stroke="midnightblue" points="777.97,-33.93 767.94,-30.52 773.65,-39.44 777.97,-33.93"/>
</g>
<!-- Node10&#45;&gt;Node4 -->
<g id="edge11" class="edge">
<title>Node10&#45;&gt;Node4</title>
<path fill="none" stroke="midnightblue" d="M836.77,-67.48C846.83,-59.49 862.26,-47.25 875.47,-36.77"/>
<polygon fill="midnightblue" stroke="midnightblue" points="877.69,-39.48 883.35,-30.52 873.34,-34 877.69,-39.48"/>
</g>
<!-- Node10&#45;&gt;Node7 -->
<g id="edge13" class="edge">
<title>Node10&#45;&gt;Node7</title>
<path fill="none" stroke="midnightblue" d="M773.59,-67.48C707.27,-56.69 593.23,-38.15 522.48,-26.65"/>
<polygon fill="midnightblue" stroke="midnightblue" points="522.8,-23.16 512.37,-25.01 521.67,-30.07 522.8,-23.16"/>
</g>
<!-- Node11 -->
<g id="node11" class="node">
<title>Node11</title>
<g id="a_node11"><a xlink:title=" ">
<polygon fill="white" stroke="#bfbfbf" points="1659.02,-6 1659.02,-25 1745.02,-25 1745.02,-6 1659.02,-6"/>
<text text-anchor="middle" x="1702.02" y="-13" font-family="Helvetica,sans-Serif" font-size="10.00">G4Material.hh</text>
</a>
</g>
</g>
<!-- Node10&#45;&gt;Node11 -->
<g id="edge12" class="edge">
<title>Node10&#45;&gt;Node11</title>
<path fill="none" stroke="midnightblue" d="M883.84,-72.07C1044.34,-61.17 1493.74,-30.65 1648.7,-20.12"/>
<polygon fill="midnightblue" stroke="midnightblue" points="1649.17,-23.6 1658.91,-19.43 1648.7,-16.61 1649.17,-23.6"/>
</g>
<!-- Node32 -->
<g id="node30" class="node">
<title>Node32</title>
<g id="a_node30"><a xlink:title=" ">
<polygon fill="white" stroke="#bfbfbf" points="2916.02,-123.5 2916.02,-142.5 2966.02,-142.5 2966.02,-123.5 2916.02,-123.5"/>
<text text-anchor="middle" x="2941.02" y="-130.5" font-family="Helvetica,sans-Serif" font-size="10.00">stdio.h</text>
</a>
</g>
</g>
<!-- Node31&#45;&gt;Node32 -->
<g id="edge46" class="edge">
<title>Node31&#45;&gt;Node32</title>
<path fill="none" stroke="midnightblue" d="M2941.02,-179.08C2941.02,-172.01 2941.02,-161.86 2941.02,-152.99"/>
<polygon fill="midnightblue" stroke="midnightblue" points="2944.52,-152.75 2941.02,-142.75 2937.52,-152.75 2944.52,-152.75"/>
</g>
<!-- Node33 -->
<g id="node31" class="node">
<title>Node33</title>
<g id="a_node31"><a xlink:title=" ">
<polygon fill="white" stroke="#bfbfbf" points="2984.02,-123.5 2984.02,-142.5 3032.02,-142.5 3032.02,-123.5 2984.02,-123.5"/>
<text text-anchor="middle" x="3008.02" y="-130.5" font-family="Helvetica,sans-Serif" font-size="10.00">time.h</text>
</a>
</g>
</g>
<!-- Node31&#45;&gt;Node33 -->
<g id="edge47" class="edge">
<title>Node31&#45;&gt;Node33</title>
<path fill="none" stroke="midnightblue" d="M2951.79,-179.32C2961.79,-171.26 2976.91,-159.08 2988.95,-149.37"/>
<polygon fill="midnightblue" stroke="midnightblue" points="2991.47,-151.83 2997.06,-142.83 2987.08,-146.38 2991.47,-151.83"/>
</g>
<!-- Node34&#45;&gt;Node6 -->
<g id="edge59" class="edge">
<title>Node34&#45;&gt;Node6</title>
<path fill="none" stroke="midnightblue" d="M1545.74,-179.43C1513.09,-171.58 1465.2,-158.81 1425.02,-143 1406.9,-135.87 1404.62,-128.81 1386.02,-123 1294.8,-94.51 1184.31,-84.05 1114.57,-80.22"/>
<polygon fill="midnightblue" stroke="midnightblue" points="1114.33,-76.7 1104.16,-79.68 1113.97,-83.69 1114.33,-76.7"/>
</g>
<!-- Node34&#45;&gt;Node11 -->
<g id="edge60" class="edge">
<title>Node34&#45;&gt;Node11</title>
<path fill="none" stroke="midnightblue" d="M1623.54,-180.28C1626.74,-179.8 1629.93,-179.36 1633.02,-179 1673.03,-174.35 2329.26,-172.18 2357.02,-143 2442.6,-53.07 1925.56,-25.05 1755.14,-18.31"/>
<polygon fill="midnightblue" stroke="midnightblue" points="1755.27,-14.82 1745.14,-17.93 1755,-21.81 1755.27,-14.82"/>
</g>
<!-- Node34&#45;&gt;Node17 -->
<g id="edge66" class="edge">
<title>Node34&#45;&gt;Node17</title>
<path fill="none" stroke="midnightblue" d="M1623.58,-180.56C1626.77,-180.02 1629.95,-179.49 1633.02,-179 1753.63,-159.86 1982.55,-214.81 1902.02,-123 1882.22,-100.42 1683.4,-85.59 1598.32,-80.24"/>
<polygon fill="midnightblue" stroke="midnightblue" points="1598.49,-76.74 1588.29,-79.61 1598.05,-83.73 1598.49,-76.74"/>
</g>
<!-- Node34&#45;&gt;Node21 -->
<g id="edge51" class="edge">
<title>Node34&#45;&gt;Node21</title>
<path fill="none" stroke="midnightblue" d="M1544.3,-185.17C1481.51,-180.19 1355.47,-168.13 1240.22,-142.9"/>
<polygon fill="midnightblue" stroke="midnightblue" points="1240.7,-139.42 1230.18,-140.66 1239.18,-146.25 1240.7,-139.42"/>
</g>
<!-- Node35 -->
<g id="node33" class="node">
<title>Node35</title>
<g id="a_node33"><a xlink:title=" ">
<polygon fill="white" stroke="#bfbfbf" points="1819.02,-123.5 1819.02,-142.5 1893.02,-142.5 1893.02,-123.5 1819.02,-123.5"/>
<text text-anchor="middle" x="1856.02" y="-130.5" font-family="Helvetica,sans-Serif" font-size="10.00">G4String.hh</text>
</a>
</g>
</g>
<!-- Node34&#45;&gt;Node35 -->
<g id="edge49" class="edge">
<title>Node34&#45;&gt;Node35</title>
<path fill="none" stroke="midnightblue" d="M1623.58,-180.15C1672.61,-170.41 1756.12,-153.83 1808.56,-143.42"/>
<polygon fill="midnightblue" stroke="midnightblue" points="1809.49,-146.81 1818.61,-141.43 1808.12,-139.94 1809.49,-146.81"/>
</g>
<!-- Node36 -->
<g id="node34" class="node">
<title>Node36</title>
<g id="a_node34"><a xlink:title=" ">
<polygon fill="white" stroke="#bfbfbf" points="1949.02,-123.5 1949.02,-142.5 2013.02,-142.5 2013.02,-123.5 1949.02,-123.5"/>
<text text-anchor="middle" x="1981.02" y="-130.5" font-family="Helvetica,sans-Serif" font-size="10.00">algorithm</text>
</a>
</g>
</g>
<!-- Node34&#45;&gt;Node36 -->
<g id="edge50" class="edge">
<title>Node34&#45;&gt;Node36</title>
<path fill="none" stroke="midnightblue" d="M1623.57,-180.52C1626.76,-179.98 1629.95,-179.47 1633.02,-179 1766.68,-158.78 1801.49,-163.99 1935.02,-143 1936.29,-142.8 1937.57,-142.59 1938.87,-142.38"/>
<polygon fill="midnightblue" stroke="midnightblue" points="1939.67,-145.79 1948.91,-140.6 1938.45,-138.9 1939.67,-145.79"/>
</g>
<!-- Node37 -->
<g id="node35" class="node">
<title>Node37</title>
<g id="a_node35"><a xlink:title=" ">
<polygon fill="white" stroke="#bfbfbf" points="2031.52,-123.5 2031.52,-142.5 2134.52,-142.5 2134.52,-123.5 2031.52,-123.5"/>
<text text-anchor="middle" x="2083.02" y="-130.5" font-family="Helvetica,sans-Serif" font-size="10.00">G4ThreeVector.hh</text>
</a>
</g>
</g>
<!-- Node34&#45;&gt;Node37 -->
<g id="edge52" class="edge">
<title>Node34&#45;&gt;Node37</title>
<path fill="none" stroke="midnightblue" d="M1623.56,-180.43C1626.75,-179.91 1629.94,-179.43 1633.02,-179 1801.83,-155.73 1847.93,-163.38 2021.48,-142.99"/>
<polygon fill="midnightblue" stroke="midnightblue" points="2021.95,-146.46 2031.47,-141.81 2021.12,-139.51 2021.95,-146.46"/>
</g>
<!-- Node38 -->
<g id="node36" class="node">
<title>Node38</title>
<g id="a_node36"><a xlink:title=" ">
<polygon fill="white" stroke="#bfbfbf" points="2152.52,-123.5 2152.52,-142.5 2271.52,-142.5 2271.52,-123.5 2152.52,-123.5"/>
<text text-anchor="middle" x="2212.02" y="-130.5" font-family="Helvetica,sans-Serif" font-size="10.00">G4TriangularFacet.hh</text>
</a>
</g>
</g>
<!-- Node34&#45;&gt;Node38 -->
<g id="edge53" class="edge">
<title>Node34&#45;&gt;Node38</title>
<path fill="none" stroke="midnightblue" d="M1623.55,-180.35C1626.75,-179.85 1629.94,-179.39 1633.02,-179 1855.15,-150.85 1915.18,-165.27 2141.98,-143.04"/>
<polygon fill="midnightblue" stroke="midnightblue" points="2142.61,-146.49 2152.21,-142.02 2141.91,-139.53 2142.61,-146.49"/>
</g>
<!-- Node39 -->
<g id="node37" class="node">
<title>Node39</title>
<g id="a_node37"><a xlink:title=" ">
<polygon fill="white" stroke="#bfbfbf" points="2290.02,-123.5 2290.02,-142.5 2348.02,-142.5 2348.02,-123.5 2290.02,-123.5"/>
<text text-anchor="middle" x="2319.02" y="-130.5" font-family="Helvetica,sans-Serif" font-size="10.00">memory</text>
</a>
</g>
</g>
<!-- Node34&#45;&gt;Node39 -->
<g id="edge54" class="edge">
<title>Node34&#45;&gt;Node39</title>
<path fill="none" stroke="midnightblue" d="M1623.54,-180.3C1626.74,-179.81 1629.93,-179.37 1633.02,-179 1915.65,-145.32 1993.08,-182.63 2279.46,-142.78"/>
<polygon fill="midnightblue" stroke="midnightblue" points="2280.33,-146.19 2289.74,-141.32 2279.35,-139.26 2280.33,-146.19"/>
</g>
<!-- Node40 -->
<g id="node38" class="node">
<title>Node40</title>
<g id="a_node38"><a xlink:title=" ">
<polygon fill="white" stroke="#bfbfbf" points="2404.52,-123.5 2404.52,-142.5 2451.52,-142.5 2451.52,-123.5 2404.52,-123.5"/>
<text text-anchor="middle" x="2428.02" y="-130.5" font-family="Helvetica,sans-Serif" font-size="10.00">vector</text>
</a>
</g>
</g>
<!-- Node34&#45;&gt;Node40 -->
<g id="edge55" class="edge">
<title>Node34&#45;&gt;Node40</title>
<path fill="none" stroke="midnightblue" d="M1623.54,-180.27C1626.74,-179.79 1629.93,-179.36 1633.02,-179 1967.64,-140.49 2056.5,-190.01 2390.02,-143 2391.49,-142.79 2392.99,-142.56 2394.49,-142.29"/>
<polygon fill="midnightblue" stroke="midnightblue" points="2395.32,-145.7 2404.44,-140.3 2393.94,-138.84 2395.32,-145.7"/>
</g>
<!-- Node41 -->
<g id="node39" class="node">
<title>Node41</title>
<g id="a_node39"><a xlink:title=" ">
<polygon fill="white" stroke="#bfbfbf" points="2470.02,-123.5 2470.02,-142.5 2530.02,-142.5 2530.02,-123.5 2470.02,-123.5"/>
<text text-anchor="middle" x="2500.02" y="-130.5" font-family="Helvetica,sans-Serif" font-size="10.00">iostream</text>
</a>
</g>
</g>
<!-- Node34&#45;&gt;Node41 -->
<g id="edge56" class="edge">
<title>Node34&#45;&gt;Node41</title>
<path fill="none" stroke="midnightblue" d="M1623.53,-180.26C1626.74,-179.78 1629.93,-179.35 1633.02,-179 1998.6,-137.67 2095.34,-191.57 2460.02,-143 2460.13,-142.99 2460.23,-142.97 2460.33,-142.96"/>
<polygon fill="midnightblue" stroke="midnightblue" points="2460.69,-146.45 2469.99,-141.36 2459.55,-139.54 2460.69,-146.45"/>
</g>
<!-- Node42 -->
<g id="node40" class="node">
<title>Node42</title>
<g id="a_node40"><a xlink:title=" ">
<polygon fill="white" stroke="#bfbfbf" points="1248.02,-123.5 1248.02,-142.5 1292.02,-142.5 1292.02,-123.5 1248.02,-123.5"/>
<text text-anchor="middle" x="1270.02" y="-130.5" font-family="Helvetica,sans-Serif" font-size="10.00">string</text>
</a>
</g>
</g>
<!-- Node34&#45;&gt;Node42 -->
<g id="edge57" class="edge">
<title>Node34&#45;&gt;Node42</title>
<path fill="none" stroke="midnightblue" d="M1544.36,-183.28C1491.28,-176.62 1394.1,-163.21 1302.3,-143.06"/>
<polygon fill="midnightblue" stroke="midnightblue" points="1302.81,-139.58 1292.29,-140.82 1301.29,-146.42 1302.81,-139.58"/>
</g>
<!-- Node43 -->
<g id="node41" class="node">
<title>Node43</title>
<g id="a_node41"><a xlink:title=" ">
<polygon fill="white" stroke="#bfbfbf" points="2548.02,-123.5 2548.02,-142.5 2678.02,-142.5 2678.02,-123.5 2548.02,-123.5"/>
<text text-anchor="middle" x="2613.02" y="-130.5" font-family="Helvetica,sans-Serif" font-size="10.00">G4AssemblyVolume.hh</text>
</a>
</g>
</g>
<!-- Node34&#45;&gt;Node43 -->
<g id="edge58" class="edge">
<title>Node34&#45;&gt;Node43</title>
<path fill="none" stroke="midnightblue" d="M1623.53,-180.25C1626.74,-179.77 1629.93,-179.34 1633.02,-179 2030.22,-134.86 2135.6,-174.68 2537.53,-143.05"/>
<polygon fill="midnightblue" stroke="midnightblue" points="2537.99,-146.52 2547.68,-142.24 2537.44,-139.54 2537.99,-146.52"/>
</g>
<!-- Node44 -->
<g id="node42" class="node">
<title>Node44</title>
<g id="a_node42"><a xlink:title=" ">
<polygon fill="white" stroke="#bfbfbf" points="2696.02,-123.5 2696.02,-142.5 2820.02,-142.5 2820.02,-123.5 2696.02,-123.5"/>
<text text-anchor="middle" x="2758.02" y="-130.5" font-family="Helvetica,sans-Serif" font-size="10.00">G4TessellatedSolid.hh</text>
</a>
</g>
</g>
<!-- Node34&#45;&gt;Node44 -->
<g id="edge61" class="edge">
<title>Node34&#45;&gt;Node44</title>
<path fill="none" stroke="midnightblue" d="M1623.53,-180.23C1626.73,-179.75 1629.93,-179.34 1633.02,-179 2095.72,-128.88 2218.08,-179.78 2685.66,-143.03"/>
<polygon fill="midnightblue" stroke="midnightblue" points="2686.03,-146.51 2695.72,-142.23 2685.47,-139.53 2686.03,-146.51"/>
</g>
<!-- Node45 -->
<g id="node43" class="node">
<title>Node45</title>
<g id="a_node43"><a xlink:title=" ">
<polygon fill="white" stroke="#bfbfbf" points="2838.52,-123.5 2838.52,-142.5 2897.52,-142.5 2897.52,-123.5 2838.52,-123.5"/>
<text text-anchor="middle" x="2868.02" y="-130.5" font-family="Helvetica,sans-Serif" font-size="10.00">G4Tet.hh</text>
</a>
</g>
</g>
<!-- Node34&#45;&gt;Node45 -->
<g id="edge62" class="edge">
<title>Node34&#45;&gt;Node45</title>
<path fill="none" stroke="midnightblue" d="M1623.53,-180.21C1626.73,-179.74 1629.93,-179.33 1633.02,-179 2158.49,-123.16 2299.82,-210 2828.15,-142.8"/>
<polygon fill="midnightblue" stroke="midnightblue" points="2828.85,-146.23 2838.32,-141.49 2827.96,-139.29 2828.85,-146.23"/>
</g>
<!-- Node46 -->
<g id="node44" class="node">
<title>Node46</title>
<g id="a_node44"><a xlink:title=" ">
<polygon fill="white" stroke="#bfbfbf" points="1434.02,-123.5 1434.02,-142.5 1538.02,-142.5 1538.02,-123.5 1434.02,-123.5"/>
<text text-anchor="middle" x="1486.02" y="-130.5" font-family="Helvetica,sans-Serif" font-size="10.00">G4UIcommand.hh</text>
</a>
</g>
</g>
<!-- Node34&#45;&gt;Node46 -->
<g id="edge63" class="edge">
<title>Node34&#45;&gt;Node46</title>
<path fill="none" stroke="midnightblue" d="M1568.28,-179.32C1552.71,-170.74 1528.65,-157.49 1510.56,-147.52"/>
<polygon fill="midnightblue" stroke="midnightblue" points="1512.18,-144.42 1501.73,-142.65 1508.8,-150.55 1512.18,-144.42"/>
</g>
<!-- Node47 -->
<g id="node45" class="node">
<title>Node47</title>
<g id="a_node45"><a xlink:title=" ">
<polygon fill="white" stroke="#bfbfbf" points="1310.52,-123.5 1310.52,-142.5 1377.52,-142.5 1377.52,-123.5 1310.52,-123.5"/>
<text text-anchor="middle" x="1344.02" y="-130.5" font-family="Helvetica,sans-Serif" font-size="10.00">globals.hh</text>
</a>
</g>
</g>
<!-- Node34&#45;&gt;Node47 -->
<g id="edge64" class="edge">
<title>Node34&#45;&gt;Node47</title>
<path fill="none" stroke="midnightblue" d="M1546,-179.44C1502.86,-169.74 1432.67,-153.95 1387.43,-143.77"/>
<polygon fill="midnightblue" stroke="midnightblue" points="1388.14,-140.34 1377.62,-141.56 1386.6,-147.17 1388.14,-140.34"/>
</g>
<!-- Node48 -->
<g id="node46" class="node">
<title>Node48</title>
<g id="a_node46"><a xlink:title=" ">
<polygon fill="white" stroke="#bfbfbf" points="1556.52,-123.5 1556.52,-142.5 1611.52,-142.5 1611.52,-123.5 1556.52,-123.5"/>
<text text-anchor="middle" x="1584.02" y="-130.5" font-family="Helvetica,sans-Serif" font-size="10.00">fstream</text>
</a>
</g>
</g>
<!-- Node34&#45;&gt;Node48 -->
<g id="edge65" class="edge">
<title>Node34&#45;&gt;Node48</title>
<path fill="none" stroke="midnightblue" d="M1584.02,-179.08C1584.02,-172.01 1584.02,-161.86 1584.02,-152.99"/>
<polygon fill="midnightblue" stroke="midnightblue" points="1587.52,-152.75 1584.02,-142.75 1580.52,-152.75 1587.52,-152.75"/>
</g>
<!-- Node49 -->
<g id="node47" class="node">
<title>Node49</title>
<g id="a_node47"><a xlink:title=" ">
<polygon fill="white" stroke="#bfbfbf" points="1629.52,-123.5 1629.52,-142.5 1696.52,-142.5 1696.52,-123.5 1629.52,-123.5"/>
<text text-anchor="middle" x="1663.02" y="-130.5" font-family="Helvetica,sans-Serif" font-size="10.00">streambuf</text>
</a>
</g>
</g>
<!-- Node34&#45;&gt;Node49 -->
<g id="edge67" class="edge">
<title>Node34&#45;&gt;Node49</title>
<path fill="none" stroke="midnightblue" d="M1596.72,-179.32C1608.93,-170.98 1627.6,-158.21 1642.03,-148.35"/>
<polygon fill="midnightblue" stroke="midnightblue" points="1644.08,-151.19 1650.36,-142.65 1640.13,-145.41 1644.08,-151.19"/>
</g>
<!-- Node50 -->
<g id="node48" class="node">
<title>Node50</title>
<g id="a_node48"><a xlink:title=" ">
<polygon fill="white" stroke="#bfbfbf" points="1715.02,-123.5 1715.02,-142.5 1801.02,-142.5 1801.02,-123.5 1715.02,-123.5"/>
<text text-anchor="middle" x="1758.02" y="-130.5" font-family="Helvetica,sans-Serif" font-size="10.00">Randomize.hh</text>
</a>
</g>
</g>
<!-- Node34&#45;&gt;Node50 -->
<g id="edge68" class="edge">
<title>Node34&#45;&gt;Node50</title>
<path fill="none" stroke="midnightblue" d="M1611.6,-179.44C1641.12,-170.28 1688.14,-155.69 1720.91,-145.52"/>
<polygon fill="midnightblue" stroke="midnightblue" points="1722.07,-148.82 1730.58,-142.52 1719.99,-142.14 1722.07,-148.82"/>
</g>
<!-- Node51&#45;&gt;Node21 -->
<g id="edge70" class="edge">
<title>Node51&#45;&gt;Node21</title>
<path fill="none" stroke="midnightblue" d="M1260.54,-179.32C1251.82,-171.34 1238.68,-159.31 1228.13,-149.65"/>
<polygon fill="midnightblue" stroke="midnightblue" points="1230.42,-147 1220.68,-142.83 1225.69,-152.17 1230.42,-147"/>
</g>
<!-- Node51&#45;&gt;Node42 -->
<g id="edge72" class="edge">
<title>Node51&#45;&gt;Node42</title>
<path fill="none" stroke="midnightblue" d="M1270.02,-179.08C1270.02,-172.01 1270.02,-161.86 1270.02,-152.99"/>
<polygon fill="midnightblue" stroke="midnightblue" points="1273.52,-152.75 1270.02,-142.75 1266.52,-152.75 1273.52,-152.75"/>
</g>
<!-- Node51&#45;&gt;Node47 -->
<g id="edge73" class="edge">
<title>Node51&#45;&gt;Node47</title>
<path fill="none" stroke="midnightblue" d="M1281.91,-179.32C1293.17,-171.11 1310.31,-158.6 1323.73,-148.81"/>
<polygon fill="midnightblue" stroke="midnightblue" points="1325.9,-151.56 1331.92,-142.83 1321.78,-145.9 1325.9,-151.56"/>
</g>
<!-- Node52 -->
<g id="node50" class="node">
<title>Node52</title>
<g id="a_node50"><a xlink:title=" ">
<polygon fill="white" stroke="#bfbfbf" points="1122.52,-123.5 1122.52,-142.5 1173.52,-142.5 1173.52,-123.5 1122.52,-123.5"/>
<text text-anchor="middle" x="1148.02" y="-130.5" font-family="Helvetica,sans-Serif" font-size="10.00">variant</text>
</a>
</g>
</g>
<!-- Node51&#45;&gt;Node52 -->
<g id="edge71" class="edge">
<title>Node51&#45;&gt;Node52</title>
<path fill="none" stroke="midnightblue" d="M1250.69,-179.44C1230.7,-170.6 1199.28,-156.69 1176.46,-146.59"/>
<polygon fill="midnightblue" stroke="midnightblue" points="1177.83,-143.36 1167.27,-142.52 1174.99,-149.76 1177.83,-143.36"/>
</g>
</g>
</svg>
