<?xml version="1.0" encoding="UTF-8" standalone="no"?>
<!DOCTYPE svg PUBLIC "-//W3C//DTD SVG 1.1//EN"
 "http://www.w3.org/Graphics/SVG/1.1/DTD/svg11.dtd">
<!-- Generated by graphviz version 2.43.0 (0)
 -->
<!-- Title: OMSimSNTools.cc Pages: 1 -->
<svg width="1459pt" height="196pt"
 viewBox="0.00 0.00 1458.50 196.00" xmlns="http://www.w3.org/2000/svg" xmlns:xlink="http://www.w3.org/1999/xlink">
<g id="graph0" class="graph" transform="scale(1 1) rotate(0) translate(4 192)">
<title>OMSimSNTools.cc</title>
<polygon fill="white" stroke="transparent" points="-4,4 -4,-192 1454.5,-192 1454.5,4 -4,4"/>
<!-- Node1 -->
<g id="node1" class="node">
<title>Node1</title>
<g id="a_node1"><a xlink:title=" ">
<polygon fill="#bfbfbf" stroke="black" points="656.5,-168.5 656.5,-187.5 760.5,-187.5 760.5,-168.5 656.5,-168.5"/>
<text text-anchor="middle" x="708.5" y="-175.5" font-family="Helvetica,sans-Serif" font-size="10.00">OMSimSNTools.cc</text>
</a>
</g>
</g>
<!-- Node2 -->
<g id="node2" class="node">
<title>Node2</title>
<g id="a_node2"><a xlink:href="_o_m_sim_s_n_tools_8hh.html" target="_top" xlink:title="Provides the definition for the OMSimSNTools class, centralizing utility methods for Supernova (SN) n...">
<polygon fill="white" stroke="black" points="149,-112.5 149,-131.5 254,-131.5 254,-112.5 149,-112.5"/>
<text text-anchor="middle" x="201.5" y="-119.5" font-family="Helvetica,sans-Serif" font-size="10.00">OMSimSNTools.hh</text>
</a>
</g>
</g>
<!-- Node1&#45;&gt;Node2 -->
<g id="edge1" class="edge">
<title>Node1&#45;&gt;Node2</title>
<path fill="none" stroke="midnightblue" d="M656.39,-171.79C575.34,-163.64 414.14,-147.22 277.5,-132 273.27,-131.53 268.9,-131.03 264.5,-130.53"/>
<polygon fill="midnightblue" stroke="midnightblue" points="264.57,-127.01 254.23,-129.34 263.76,-133.97 264.57,-127.01"/>
</g>
<!-- Node6 -->
<g id="node6" class="node">
<title>Node6</title>
<g id="a_node6"><a xlink:title=" ">
<polygon fill="white" stroke="#bfbfbf" points="271,-56.5 271,-75.5 332,-75.5 332,-56.5 271,-56.5"/>
<text text-anchor="middle" x="301.5" y="-63.5" font-family="Helvetica,sans-Serif" font-size="10.00">TGraph.h</text>
</a>
</g>
</g>
<!-- Node1&#45;&gt;Node6 -->
<g id="edge20" class="edge">
<title>Node1&#45;&gt;Node6</title>
<path fill="none" stroke="midnightblue" d="M656.4,-174.62C554.11,-169.46 334.83,-155.73 310.5,-132 298.41,-120.21 297.3,-100.28 298.51,-85.59"/>
<polygon fill="midnightblue" stroke="midnightblue" points="302,-85.96 299.75,-75.6 295.05,-85.1 302,-85.96"/>
</g>
<!-- Node7 -->
<g id="node7" class="node">
<title>Node7</title>
<g id="a_node7"><a xlink:title=" ">
<polygon fill="white" stroke="#bfbfbf" points="319.5,-112.5 319.5,-131.5 453.5,-131.5 453.5,-112.5 319.5,-112.5"/>
<text text-anchor="middle" x="386.5" y="-119.5" font-family="Helvetica,sans-Serif" font-size="10.00">G4PhysicalConstants.hh</text>
</a>
</g>
</g>
<!-- Node1&#45;&gt;Node7 -->
<g id="edge6" class="edge">
<title>Node1&#45;&gt;Node7</title>
<path fill="none" stroke="midnightblue" d="M657.48,-168.44C600.48,-158.89 508.26,-143.42 447.5,-133.23"/>
<polygon fill="midnightblue" stroke="midnightblue" points="447.72,-129.72 437.28,-131.52 446.57,-136.62 447.72,-129.72"/>
</g>
<!-- Node8 -->
<g id="node8" class="node">
<title>Node8</title>
<g id="a_node8"><a xlink:title=" ">
<polygon fill="white" stroke="#bfbfbf" points="472,-112.5 472,-131.5 591,-131.5 591,-112.5 472,-112.5"/>
<text text-anchor="middle" x="531.5" y="-119.5" font-family="Helvetica,sans-Serif" font-size="10.00">G4SystemOfUnits.hh</text>
</a>
</g>
</g>
<!-- Node1&#45;&gt;Node8 -->
<g id="edge7" class="edge">
<title>Node1&#45;&gt;Node8</title>
<path fill="none" stroke="midnightblue" d="M680.45,-168.44C650.42,-159.28 602.59,-144.69 569.26,-134.52"/>
<polygon fill="midnightblue" stroke="midnightblue" points="570,-131.09 559.41,-131.52 567.96,-137.78 570,-131.09"/>
</g>
<!-- Node9 -->
<g id="node9" class="node">
<title>Node9</title>
<g id="a_node9"><a xlink:title=" ">
<polygon fill="white" stroke="#bfbfbf" points="609.5,-112.5 609.5,-131.5 695.5,-131.5 695.5,-112.5 609.5,-112.5"/>
<text text-anchor="middle" x="652.5" y="-119.5" font-family="Helvetica,sans-Serif" font-size="10.00">Randomize.hh</text>
</a>
</g>
</g>
<!-- Node1&#45;&gt;Node9 -->
<g id="edge8" class="edge">
<title>Node1&#45;&gt;Node9</title>
<path fill="none" stroke="midnightblue" d="M699.5,-168.32C691.31,-160.42 678.99,-148.55 669.03,-138.94"/>
<polygon fill="midnightblue" stroke="midnightblue" points="671.29,-136.26 661.66,-131.83 666.43,-141.29 671.29,-136.26"/>
</g>
<!-- Node10 -->
<g id="node10" class="node">
<title>Node10</title>
<g id="a_node10"><a xlink:title=" ">
<polygon fill="white" stroke="#bfbfbf" points="714,-112.5 714,-131.5 815,-131.5 815,-112.5 714,-112.5"/>
<text text-anchor="middle" x="764.5" y="-119.5" font-family="Helvetica,sans-Serif" font-size="10.00">G4VTouchable.hh</text>
</a>
</g>
</g>
<!-- Node1&#45;&gt;Node10 -->
<g id="edge9" class="edge">
<title>Node1&#45;&gt;Node10</title>
<path fill="none" stroke="midnightblue" d="M717.5,-168.32C725.69,-160.42 738.01,-148.55 747.97,-138.94"/>
<polygon fill="midnightblue" stroke="midnightblue" points="750.57,-141.29 755.34,-131.83 745.71,-136.26 750.57,-141.29"/>
</g>
<!-- Node11 -->
<g id="node11" class="node">
<title>Node11</title>
<g id="a_node11"><a xlink:title=" ">
<polygon fill="white" stroke="#bfbfbf" points="833,-112.5 833,-131.5 886,-131.5 886,-112.5 833,-112.5"/>
<text text-anchor="middle" x="859.5" y="-119.5" font-family="Helvetica,sans-Serif" font-size="10.00">stdlib.h</text>
</a>
</g>
</g>
<!-- Node1&#45;&gt;Node11 -->
<g id="edge10" class="edge">
<title>Node1&#45;&gt;Node11</title>
<path fill="none" stroke="midnightblue" d="M732.43,-168.44C757.72,-159.4 797.8,-145.06 826.18,-134.92"/>
<polygon fill="midnightblue" stroke="midnightblue" points="827.45,-138.18 835.69,-131.52 825.09,-131.59 827.45,-138.18"/>
</g>
<!-- Node12 -->
<g id="node12" class="node">
<title>Node12</title>
<g id="a_node12"><a xlink:title=" ">
<polygon fill="white" stroke="#bfbfbf" points="904.5,-112.5 904.5,-131.5 996.5,-131.5 996.5,-112.5 904.5,-112.5"/>
<text text-anchor="middle" x="950.5" y="-119.5" font-family="Helvetica,sans-Serif" font-size="10.00">G4Navigator.hh</text>
</a>
</g>
</g>
<!-- Node1&#45;&gt;Node12 -->
<g id="edge11" class="edge">
<title>Node1&#45;&gt;Node12</title>
<path fill="none" stroke="midnightblue" d="M746.85,-168.44C788.97,-159.04 856.71,-143.93 902.37,-133.74"/>
<polygon fill="midnightblue" stroke="midnightblue" points="903.34,-137.11 912.33,-131.52 901.81,-130.28 903.34,-137.11"/>
</g>
<!-- Node13 -->
<g id="node13" class="node">
<title>Node13</title>
<g id="a_node13"><a xlink:title=" ">
<polygon fill="white" stroke="#bfbfbf" points="1014.5,-112.5 1014.5,-131.5 1178.5,-131.5 1178.5,-112.5 1014.5,-112.5"/>
<text text-anchor="middle" x="1096.5" y="-119.5" font-family="Helvetica,sans-Serif" font-size="10.00">G4TouchableHistoryHandle.hh</text>
</a>
</g>
</g>
<!-- Node1&#45;&gt;Node13 -->
<g id="edge12" class="edge">
<title>Node1&#45;&gt;Node13</title>
<path fill="none" stroke="midnightblue" d="M760.83,-169.72C829.03,-160.23 948.58,-143.59 1025.07,-132.94"/>
<polygon fill="midnightblue" stroke="midnightblue" points="1025.69,-136.39 1035.11,-131.54 1024.72,-129.46 1025.69,-136.39"/>
</g>
<!-- Node14 -->
<g id="node14" class="node">
<title>Node14</title>
<g id="a_node14"><a xlink:href="_o_m_sim_command_args_table_8hh.html" target="_top" xlink:title="Definition of the OMSimCommandArgsTable singleton class, which controls user args.">
<polygon fill="white" stroke="black" points="1196.5,-112.5 1196.5,-131.5 1360.5,-131.5 1360.5,-112.5 1196.5,-112.5"/>
<text text-anchor="middle" x="1278.5" y="-119.5" font-family="Helvetica,sans-Serif" font-size="10.00">OMSimCommandArgsTable.hh</text>
</a>
</g>
</g>
<!-- Node1&#45;&gt;Node14 -->
<g id="edge13" class="edge">
<title>Node1&#45;&gt;Node14</title>
<path fill="none" stroke="midnightblue" d="M760.6,-172.19C846.79,-164.21 1024.74,-147.67 1186.05,-132.14"/>
<polygon fill="midnightblue" stroke="midnightblue" points="1186.54,-135.6 1196.16,-131.16 1185.87,-128.64 1186.54,-135.6"/>
</g>
<!-- Node3 -->
<g id="node3" class="node">
<title>Node3</title>
<g id="a_node3"><a xlink:title=" ">
<polygon fill="white" stroke="#bfbfbf" points="0,-56.5 0,-75.5 67,-75.5 67,-56.5 0,-56.5"/>
<text text-anchor="middle" x="33.5" y="-63.5" font-family="Helvetica,sans-Serif" font-size="10.00">globals.hh</text>
</a>
</g>
</g>
<!-- Node2&#45;&gt;Node3 -->
<g id="edge2" class="edge">
<title>Node2&#45;&gt;Node3</title>
<path fill="none" stroke="midnightblue" d="M174.88,-112.44C146.49,-103.32 101.36,-88.81 69.75,-78.65"/>
<polygon fill="midnightblue" stroke="midnightblue" points="70.59,-75.24 60,-75.52 68.44,-81.91 70.59,-75.24"/>
</g>
<!-- Node4 -->
<g id="node4" class="node">
<title>Node4</title>
<g id="a_node4"><a xlink:title=" ">
<polygon fill="white" stroke="#bfbfbf" points="85,-56.5 85,-75.5 132,-75.5 132,-56.5 85,-56.5"/>
<text text-anchor="middle" x="108.5" y="-63.5" font-family="Helvetica,sans-Serif" font-size="10.00">vector</text>
</a>
</g>
</g>
<!-- Node2&#45;&gt;Node4 -->
<g id="edge3" class="edge">
<title>Node2&#45;&gt;Node4</title>
<path fill="none" stroke="midnightblue" d="M186.56,-112.32C171.91,-103.82 149.37,-90.73 132.26,-80.8"/>
<polygon fill="midnightblue" stroke="midnightblue" points="133.81,-77.65 123.4,-75.65 130.3,-83.7 133.81,-77.65"/>
</g>
<!-- Node5 -->
<g id="node5" class="node">
<title>Node5</title>
<g id="a_node5"><a xlink:title=" ">
<polygon fill="white" stroke="#bfbfbf" points="150,-56.5 150,-75.5 253,-75.5 253,-56.5 150,-56.5"/>
<text text-anchor="middle" x="201.5" y="-63.5" font-family="Helvetica,sans-Serif" font-size="10.00">G4ThreeVector.hh</text>
</a>
</g>
</g>
<!-- Node2&#45;&gt;Node5 -->
<g id="edge4" class="edge">
<title>Node2&#45;&gt;Node5</title>
<path fill="none" stroke="midnightblue" d="M201.5,-112.08C201.5,-105.01 201.5,-94.86 201.5,-85.99"/>
<polygon fill="midnightblue" stroke="midnightblue" points="205,-85.75 201.5,-75.75 198,-85.75 205,-85.75"/>
</g>
<!-- Node2&#45;&gt;Node6 -->
<g id="edge5" class="edge">
<title>Node2&#45;&gt;Node6</title>
<path fill="none" stroke="midnightblue" d="M217.57,-112.32C233.46,-103.74 258.01,-90.49 276.46,-80.52"/>
<polygon fill="midnightblue" stroke="midnightblue" points="278.34,-83.49 285.47,-75.65 275.01,-77.33 278.34,-83.49"/>
</g>
<!-- Node15 -->
<g id="node15" class="node">
<title>Node15</title>
<g id="a_node15"><a xlink:href="_o_m_sim_logger_8hh.html" target="_top" xlink:title=" ">
<polygon fill="white" stroke="black" points="1090,-56.5 1090,-75.5 1189,-75.5 1189,-56.5 1090,-56.5"/>
<text text-anchor="middle" x="1139.5" y="-63.5" font-family="Helvetica,sans-Serif" font-size="10.00">OMSimLogger.hh</text>
</a>
</g>
</g>
<!-- Node14&#45;&gt;Node15 -->
<g id="edge14" class="edge">
<title>Node14&#45;&gt;Node15</title>
<path fill="none" stroke="midnightblue" d="M1256.48,-112.44C1233.4,-103.48 1196.94,-89.31 1170.86,-79.18"/>
<polygon fill="midnightblue" stroke="midnightblue" points="1172.01,-75.88 1161.42,-75.52 1169.48,-82.4 1172.01,-75.88"/>
</g>
<!-- Node18 -->
<g id="node18" class="node">
<title>Node18</title>
<g id="a_node18"><a xlink:title=" ">
<polygon fill="white" stroke="#bfbfbf" points="1207,-56.5 1207,-75.5 1262,-75.5 1262,-56.5 1207,-56.5"/>
<text text-anchor="middle" x="1234.5" y="-63.5" font-family="Helvetica,sans-Serif" font-size="10.00">fstream</text>
</a>
</g>
</g>
<!-- Node14&#45;&gt;Node18 -->
<g id="edge17" class="edge">
<title>Node14&#45;&gt;Node18</title>
<path fill="none" stroke="midnightblue" d="M1271.23,-112.08C1264.96,-104.38 1255.71,-93.03 1248.07,-83.65"/>
<polygon fill="midnightblue" stroke="midnightblue" points="1250.66,-81.29 1241.63,-75.75 1245.23,-85.71 1250.66,-81.29"/>
</g>
<!-- Node19 -->
<g id="node19" class="node">
<title>Node19</title>
<g id="a_node19"><a xlink:title=" ">
<polygon fill="white" stroke="#bfbfbf" points="1280.5,-56.5 1280.5,-75.5 1364.5,-75.5 1364.5,-56.5 1280.5,-56.5"/>
<text text-anchor="middle" x="1322.5" y="-63.5" font-family="Helvetica,sans-Serif" font-size="10.00">boost/any.hpp</text>
</a>
</g>
</g>
<!-- Node14&#45;&gt;Node19 -->
<g id="edge18" class="edge">
<title>Node14&#45;&gt;Node19</title>
<path fill="none" stroke="midnightblue" d="M1285.77,-112.08C1292.04,-104.38 1301.29,-93.03 1308.93,-83.65"/>
<polygon fill="midnightblue" stroke="midnightblue" points="1311.77,-85.71 1315.37,-75.75 1306.34,-81.29 1311.77,-85.71"/>
</g>
<!-- Node20 -->
<g id="node20" class="node">
<title>Node20</title>
<g id="a_node20"><a xlink:title=" ">
<polygon fill="white" stroke="#bfbfbf" points="1382.5,-56.5 1382.5,-75.5 1450.5,-75.5 1450.5,-56.5 1382.5,-56.5"/>
<text text-anchor="middle" x="1416.5" y="-63.5" font-family="Helvetica,sans-Serif" font-size="10.00">sys/time.h</text>
</a>
</g>
</g>
<!-- Node14&#45;&gt;Node20 -->
<g id="edge19" class="edge">
<title>Node14&#45;&gt;Node20</title>
<path fill="none" stroke="midnightblue" d="M1300.37,-112.44C1323.28,-103.48 1359.48,-89.31 1385.37,-79.18"/>
<polygon fill="midnightblue" stroke="midnightblue" points="1386.7,-82.42 1394.74,-75.52 1384.15,-75.9 1386.7,-82.42"/>
</g>
<!-- Node16 -->
<g id="node16" class="node">
<title>Node16</title>
<g id="a_node16"><a xlink:title=" ">
<polygon fill="white" stroke="#bfbfbf" points="1080.5,-0.5 1080.5,-19.5 1130.5,-19.5 1130.5,-0.5 1080.5,-0.5"/>
<text text-anchor="middle" x="1105.5" y="-7.5" font-family="Helvetica,sans-Serif" font-size="10.00">stdio.h</text>
</a>
</g>
</g>
<!-- Node15&#45;&gt;Node16 -->
<g id="edge15" class="edge">
<title>Node15&#45;&gt;Node16</title>
<path fill="none" stroke="midnightblue" d="M1133.89,-56.08C1129.13,-48.53 1122.18,-37.49 1116.35,-28.23"/>
<polygon fill="midnightblue" stroke="midnightblue" points="1119.3,-26.35 1111.01,-19.75 1113.38,-30.08 1119.3,-26.35"/>
</g>
<!-- Node17 -->
<g id="node17" class="node">
<title>Node17</title>
<g id="a_node17"><a xlink:title=" ">
<polygon fill="white" stroke="#bfbfbf" points="1148.5,-0.5 1148.5,-19.5 1196.5,-19.5 1196.5,-0.5 1148.5,-0.5"/>
<text text-anchor="middle" x="1172.5" y="-7.5" font-family="Helvetica,sans-Serif" font-size="10.00">time.h</text>
</a>
</g>
</g>
<!-- Node15&#45;&gt;Node17 -->
<g id="edge16" class="edge">
<title>Node15&#45;&gt;Node17</title>
<path fill="none" stroke="midnightblue" d="M1144.95,-56.08C1149.51,-48.61 1156.17,-37.72 1161.79,-28.52"/>
<polygon fill="midnightblue" stroke="midnightblue" points="1164.92,-30.11 1167.15,-19.75 1158.95,-26.46 1164.92,-30.11"/>
</g>
</g>
</svg>
