<?xml version="1.0" encoding="UTF-8" standalone="no"?>
<!DOCTYPE svg PUBLIC "-//W3C//DTD SVG 1.1//EN"
 "http://www.w3.org/Graphics/SVG/1.1/DTD/svg11.dtd">
<!-- Generated by graphviz version 2.43.0 (0)
 -->
<!-- Title: /home/runner/work/OMSim/OMSim/effective_area/include/OMSimAnalysisManager.hh Pages: 1 -->
<svg width="1024pt" height="128pt"
 viewBox="0.00 0.00 1024.00 128.00" xmlns="http://www.w3.org/2000/svg" xmlns:xlink="http://www.w3.org/1999/xlink">
<g id="graph0" class="graph" transform="scale(1 1) rotate(0) translate(4 124)">
<title>/home/runner/work/OMSim/OMSim/effective_area/include/OMSimAnalysisManager.hh</title>
<polygon fill="white" stroke="transparent" points="-4,4 -4,-124 1020,-124 1020,4 -4,4"/>
<!-- Node1 -->
<g id="node1" class="node">
<title>Node1</title>
<g id="a_node1"><a xlink:title=" ">
<polygon fill="#bfbfbf" stroke="black" points="415,-78.5 415,-119.5 606,-119.5 606,-78.5 415,-78.5"/>
<text text-anchor="start" x="423" y="-107.5" font-family="Helvetica,sans-Serif" font-size="10.00">/home/runner/work/OMSim</text>
<text text-anchor="start" x="423" y="-96.5" font-family="Helvetica,sans-Serif" font-size="10.00">/OMSim/effective_area</text>
<text text-anchor="middle" x="510.5" y="-85.5" font-family="Helvetica,sans-Serif" font-size="10.00">/include/OMSimAnalysisManager.hh</text>
</a>
</g>
</g>
<!-- Node2 -->
<g id="node2" class="node">
<title>Node2</title>
<g id="a_node2"><a xlink:href="_o_m_sim_analysis_manager_8cc.html" target="_top" xlink:title=" ">
<polygon fill="white" stroke="black" points="0,-0.5 0,-41.5 169,-41.5 169,-0.5 0,-0.5"/>
<text text-anchor="start" x="8" y="-29.5" font-family="Helvetica,sans-Serif" font-size="10.00">/home/runner/work/OMSim</text>
<text text-anchor="start" x="8" y="-18.5" font-family="Helvetica,sans-Serif" font-size="10.00">/OMSim/effective_area</text>
<text text-anchor="middle" x="84.5" y="-7.5" font-family="Helvetica,sans-Serif" font-size="10.00">/src/OMSimAnalysisManager.cc</text>
</a>
</g>
</g>
<!-- Node1&#45;&gt;Node2 -->
<g id="edge1" class="edge">
<title>Node1&#45;&gt;Node2</title>
<path fill="none" stroke="midnightblue" d="M404.91,-81.49C339.32,-70.93 253.35,-56.53 177.5,-42 174.74,-41.47 171.94,-40.93 169.11,-40.37"/>
<polygon fill="midnightblue" stroke="midnightblue" points="404.41,-84.96 414.84,-83.09 405.52,-78.05 404.41,-84.96"/>
</g>
<!-- Node3 -->
<g id="node3" class="node">
<title>Node3</title>
<g id="a_node3"><a xlink:href="_o_m_sim_event_action_8cc.html" target="_top" xlink:title=" ">
<polygon fill="white" stroke="black" points="187,-0.5 187,-41.5 334,-41.5 334,-0.5 187,-0.5"/>
<text text-anchor="start" x="195" y="-29.5" font-family="Helvetica,sans-Serif" font-size="10.00">/home/runner/work/OMSim</text>
<text text-anchor="start" x="195" y="-18.5" font-family="Helvetica,sans-Serif" font-size="10.00">/OMSim/effective_area</text>
<text text-anchor="middle" x="260.5" y="-7.5" font-family="Helvetica,sans-Serif" font-size="10.00">/src/OMSimEventAction.cc</text>
</a>
</g>
</g>
<!-- Node1&#45;&gt;Node3 -->
<g id="edge2" class="edge">
<title>Node1&#45;&gt;Node3</title>
<path fill="none" stroke="midnightblue" d="M436.3,-75.44C400.81,-64.66 358.75,-51.87 324.66,-41.51"/>
<polygon fill="midnightblue" stroke="midnightblue" points="435.53,-78.87 446.12,-78.43 437.57,-72.17 435.53,-78.87"/>
</g>
<!-- Node4 -->
<g id="node4" class="node">
<title>Node4</title>
<g id="a_node4"><a xlink:href="_o_m_sim_run_action_8cc.html" target="_top" xlink:title=" ">
<polygon fill="white" stroke="black" points="352,-0.5 352,-41.5 499,-41.5 499,-0.5 352,-0.5"/>
<text text-anchor="start" x="360" y="-29.5" font-family="Helvetica,sans-Serif" font-size="10.00">/home/runner/work/OMSim</text>
<text text-anchor="start" x="360" y="-18.5" font-family="Helvetica,sans-Serif" font-size="10.00">/OMSim/effective_area</text>
<text text-anchor="middle" x="425.5" y="-7.5" font-family="Helvetica,sans-Serif" font-size="10.00">/src/OMSimRunAction.cc</text>
</a>
</g>
</g>
<!-- Node1&#45;&gt;Node4 -->
<g id="edge3" class="edge">
<title>Node1&#45;&gt;Node4</title>
<path fill="none" stroke="midnightblue" d="M480.85,-71.49C469.82,-61.63 457.52,-50.63 447.32,-41.51"/>
<polygon fill="midnightblue" stroke="midnightblue" points="478.82,-74.37 488.61,-78.43 483.49,-69.15 478.82,-74.37"/>
</g>
<!-- Node5 -->
<g id="node5" class="node">
<title>Node5</title>
<g id="a_node5"><a xlink:href="_o_m_sim_stepping_action_8cc.html" target="_top" xlink:title=" ">
<polygon fill="white" stroke="black" points="517,-0.5 517,-41.5 676,-41.5 676,-0.5 517,-0.5"/>
<text text-anchor="start" x="525" y="-29.5" font-family="Helvetica,sans-Serif" font-size="10.00">/home/runner/work/OMSim</text>
<text text-anchor="start" x="525" y="-18.5" font-family="Helvetica,sans-Serif" font-size="10.00">/OMSim/effective_area</text>
<text text-anchor="middle" x="596.5" y="-7.5" font-family="Helvetica,sans-Serif" font-size="10.00">/src/OMSimSteppingAction.cc</text>
</a>
</g>
</g>
<!-- Node1&#45;&gt;Node5 -->
<g id="edge4" class="edge">
<title>Node1&#45;&gt;Node5</title>
<path fill="none" stroke="midnightblue" d="M540.17,-71.78C551.41,-61.84 564.01,-50.72 574.43,-41.51"/>
<polygon fill="midnightblue" stroke="midnightblue" points="537.82,-69.18 532.65,-78.43 542.46,-74.43 537.82,-69.18"/>
</g>
<!-- Node6 -->
<g id="node6" class="node">
<title>Node6</title>
<g id="a_node6"><a xlink:href="_o_m_sim_tracking_action_8cc.html" target="_top" xlink:title=" ">
<polygon fill="white" stroke="black" points="694,-0.5 694,-41.5 851,-41.5 851,-0.5 694,-0.5"/>
<text text-anchor="start" x="702" y="-29.5" font-family="Helvetica,sans-Serif" font-size="10.00">/home/runner/work/OMSim</text>
<text text-anchor="start" x="702" y="-18.5" font-family="Helvetica,sans-Serif" font-size="10.00">/OMSim/effective_area</text>
<text text-anchor="middle" x="772.5" y="-7.5" font-family="Helvetica,sans-Serif" font-size="10.00">/src/OMSimTrackingAction.cc</text>
</a>
</g>
</g>
<!-- Node1&#45;&gt;Node6 -->
<g id="edge5" class="edge">
<title>Node1&#45;&gt;Node6</title>
<path fill="none" stroke="midnightblue" d="M587.79,-75.58C625.08,-64.76 669.38,-51.91 705.26,-41.51"/>
<polygon fill="midnightblue" stroke="midnightblue" points="586.6,-72.28 577.97,-78.43 588.55,-79 586.6,-72.28"/>
</g>
<!-- Node7 -->
<g id="node7" class="node">
<title>Node7</title>
<g id="a_node7"><a xlink:href="_o_m_sim__effective__area_8cc.html" target="_top" xlink:title="Main for the calculation of effective areas.">
<polygon fill="white" stroke="black" points="869,-0.5 869,-41.5 1016,-41.5 1016,-0.5 869,-0.5"/>
<text text-anchor="start" x="877" y="-29.5" font-family="Helvetica,sans-Serif" font-size="10.00">/home/runner/work/OMSim</text>
<text text-anchor="start" x="877" y="-18.5" font-family="Helvetica,sans-Serif" font-size="10.00">/OMSim/OMSim_effective</text>
<text text-anchor="middle" x="942.5" y="-7.5" font-family="Helvetica,sans-Serif" font-size="10.00">_area.cc</text>
</a>
</g>
</g>
<!-- Node1&#45;&gt;Node7 -->
<g id="edge6" class="edge">
<title>Node1&#45;&gt;Node7</title>
<path fill="none" stroke="midnightblue" d="M616.42,-83.32C686.04,-73.12 779,-58.43 860.5,-42 863.23,-41.45 866.01,-40.87 868.81,-40.27"/>
<polygon fill="midnightblue" stroke="midnightblue" points="615.71,-79.89 606.32,-84.8 616.72,-86.82 615.71,-79.89"/>
</g>
</g>
</svg>
