<?xml version="1.0" encoding="UTF-8" standalone="no"?>
<!DOCTYPE svg PUBLIC "-//W3C//DTD SVG 1.1//EN"
 "http://www.w3.org/Graphics/SVG/1.1/DTD/svg11.dtd">
<!-- Generated by graphviz version 2.43.0 (0)
 -->
<!-- Title: OMSimEventAction.cc Pages: 1 -->
<svg width="361pt" height="140pt"
 viewBox="0.00 0.00 361.00 140.00" xmlns="http://www.w3.org/2000/svg" xmlns:xlink="http://www.w3.org/1999/xlink">
<g id="graph0" class="graph" transform="scale(1 1) rotate(0) translate(4 136)">
<title>OMSimEventAction.cc</title>
<polygon fill="white" stroke="transparent" points="-4,4 -4,-136 357,-136 357,4 -4,4"/>
<!-- Node1 -->
<g id="node1" class="node">
<title>Node1</title>
<g id="a_node1"><a xlink:title=" ">
<polygon fill="#bfbfbf" stroke="black" points="171,-112.5 171,-131.5 295,-131.5 295,-112.5 171,-112.5"/>
<text text-anchor="middle" x="233" y="-119.5" font-family="Helvetica,sans-Serif" font-size="10.00">OMSimEventAction.cc</text>
</a>
</g>
</g>
<!-- Node2 -->
<g id="node2" class="node">
<title>Node2</title>
<g id="a_node2"><a xlink:href="_o_m_sim_event_action_8hh.html" target="_top" xlink:title=" ">
<polygon fill="white" stroke="black" points="103.5,-56.5 103.5,-75.5 228.5,-75.5 228.5,-56.5 103.5,-56.5"/>
<text text-anchor="middle" x="166" y="-63.5" font-family="Helvetica,sans-Serif" font-size="10.00">OMSimEventAction.hh</text>
</a>
</g>
</g>
<!-- Node1&#45;&gt;Node2 -->
<g id="edge1" class="edge">
<title>Node1&#45;&gt;Node2</title>
<path fill="none" stroke="midnightblue" d="M222.24,-112.32C212.23,-104.26 197.11,-92.08 185.07,-82.37"/>
<polygon fill="midnightblue" stroke="midnightblue" points="186.94,-79.38 176.96,-75.83 182.55,-84.83 186.94,-79.38"/>
</g>
<!-- Node6 -->
<g id="node6" class="node">
<title>Node6</title>
<g id="a_node6"><a xlink:title=" ">
<polygon fill="white" stroke="#bfbfbf" points="247,-56.5 247,-75.5 353,-75.5 353,-56.5 247,-56.5"/>
<text text-anchor="middle" x="300" y="-63.5" font-family="Helvetica,sans-Serif" font-size="10.00">G4RunManager.hh</text>
</a>
</g>
</g>
<!-- Node1&#45;&gt;Node6 -->
<g id="edge5" class="edge">
<title>Node1&#45;&gt;Node6</title>
<path fill="none" stroke="midnightblue" d="M243.76,-112.32C253.77,-104.26 268.89,-92.08 280.93,-82.37"/>
<polygon fill="midnightblue" stroke="midnightblue" points="283.45,-84.83 289.04,-75.83 279.06,-79.38 283.45,-84.83"/>
</g>
<!-- Node3 -->
<g id="node3" class="node">
<title>Node3</title>
<g id="a_node3"><a xlink:title=" ">
<polygon fill="white" stroke="#bfbfbf" points="0,-0.5 0,-19.5 126,-19.5 126,-0.5 0,-0.5"/>
<text text-anchor="middle" x="63" y="-7.5" font-family="Helvetica,sans-Serif" font-size="10.00">G4UserEventAction.hh</text>
</a>
</g>
</g>
<!-- Node2&#45;&gt;Node3 -->
<g id="edge2" class="edge">
<title>Node2&#45;&gt;Node3</title>
<path fill="none" stroke="midnightblue" d="M149.45,-56.32C133.01,-47.7 107.57,-34.36 88.53,-24.39"/>
<polygon fill="midnightblue" stroke="midnightblue" points="89.99,-21.2 79.51,-19.65 86.74,-27.4 89.99,-21.2"/>
</g>
<!-- Node4 -->
<g id="node4" class="node">
<title>Node4</title>
<g id="a_node4"><a xlink:title=" ">
<polygon fill="white" stroke="#bfbfbf" points="144,-0.5 144,-19.5 188,-19.5 188,-0.5 144,-0.5"/>
<text text-anchor="middle" x="166" y="-7.5" font-family="Helvetica,sans-Serif" font-size="10.00">string</text>
</a>
</g>
</g>
<!-- Node2&#45;&gt;Node4 -->
<g id="edge3" class="edge">
<title>Node2&#45;&gt;Node4</title>
<path fill="none" stroke="midnightblue" d="M166,-56.08C166,-49.01 166,-38.86 166,-29.99"/>
<polygon fill="midnightblue" stroke="midnightblue" points="169.5,-29.75 166,-19.75 162.5,-29.75 169.5,-29.75"/>
</g>
<!-- Node5 -->
<g id="node5" class="node">
<title>Node5</title>
<g id="a_node5"><a xlink:title=" ">
<polygon fill="white" stroke="#bfbfbf" points="206.5,-0.5 206.5,-19.5 279.5,-19.5 279.5,-0.5 206.5,-0.5"/>
<text text-anchor="middle" x="243" y="-7.5" font-family="Helvetica,sans-Serif" font-size="10.00">G4Types.hh</text>
</a>
</g>
</g>
<!-- Node2&#45;&gt;Node5 -->
<g id="edge4" class="edge">
<title>Node2&#45;&gt;Node5</title>
<path fill="none" stroke="midnightblue" d="M178.37,-56.32C190.16,-48.06 208.13,-35.45 222.14,-25.63"/>
<polygon fill="midnightblue" stroke="midnightblue" points="224.48,-28.26 230.66,-19.65 220.46,-22.53 224.48,-28.26"/>
</g>
</g>
</svg>
