<?xml version="1.0" encoding="UTF-8" standalone="no"?>
<!DOCTYPE svg PUBLIC "-//W3C//DTD SVG 1.1//EN"
 "http://www.w3.org/Graphics/SVG/1.1/DTD/svg11.dtd">
<!-- Generated by graphviz version 2.43.0 (0)
 -->
<!-- Title: OMSimMDOM.cc Pages: 1 -->
<svg width="3071pt" height="319pt"
 viewBox="0.00 0.00 3071.00 319.00" xmlns="http://www.w3.org/2000/svg" xmlns:xlink="http://www.w3.org/1999/xlink">
<g id="graph0" class="graph" transform="scale(1 1) rotate(0) translate(4 315)">
<title>OMSimMDOM.cc</title>
<polygon fill="white" stroke="transparent" points="-4,4 -4,-315 3067,-315 3067,4 -4,4"/>
<!-- Node1 -->
<g id="node1" class="node">
<title>Node1</title>
<g id="a_node1"><a xlink:title="Construction of mDOM.">
<polygon fill="#bfbfbf" stroke="black" points="1494,-291.5 1494,-310.5 1592,-310.5 1592,-291.5 1494,-291.5"/>
<text text-anchor="middle" x="1543" y="-298.5" font-family="Helvetica,sans-Serif" font-size="10.00">OMSimMDOM.cc</text>
</a>
</g>
</g>
<!-- Node2 -->
<g id="node2" class="node">
<title>Node2</title>
<g id="a_node2"><a xlink:href="_o_m_sim_m_d_o_m_8hh.html" target="_top" xlink:title=" ">
<polygon fill="white" stroke="black" points="427,-235.5 427,-254.5 527,-254.5 527,-235.5 427,-235.5"/>
<text text-anchor="middle" x="477" y="-242.5" font-family="Helvetica,sans-Serif" font-size="10.00">OMSimMDOM.hh</text>
</a>
</g>
</g>
<!-- Node1&#45;&gt;Node2 -->
<g id="edge1" class="edge">
<title>Node1&#45;&gt;Node2</title>
<path fill="none" stroke="midnightblue" d="M1493.88,-299.44C1348.22,-297.43 905.99,-288.78 541,-255 539.88,-254.9 538.76,-254.79 537.62,-254.67"/>
<polygon fill="midnightblue" stroke="midnightblue" points="537.58,-251.15 527.26,-253.53 536.81,-258.11 537.58,-251.15"/>
</g>
<!-- Node3 -->
<g id="node3" class="node">
<title>Node3</title>
<g id="a_node3"><a xlink:href="abc_detector_component_8hh.html" target="_top" xlink:title=" ">
<polygon fill="white" stroke="black" points="932.5,-123.5 932.5,-142.5 1079.5,-142.5 1079.5,-123.5 932.5,-123.5"/>
<text text-anchor="middle" x="1006" y="-130.5" font-family="Helvetica,sans-Serif" font-size="10.00">abcDetectorComponent.hh</text>
</a>
</g>
</g>
<!-- Node1&#45;&gt;Node3 -->
<g id="edge54" class="edge">
<title>Node1&#45;&gt;Node3</title>
<path fill="none" stroke="midnightblue" d="M1511.12,-291.48C1478.57,-282.69 1426.61,-268.41 1382,-255 1255.82,-217.08 1107.24,-167.92 1040.97,-145.75"/>
<polygon fill="midnightblue" stroke="midnightblue" points="1042.02,-142.41 1031.42,-142.56 1039.8,-149.05 1042.02,-142.41"/>
</g>
<!-- Node4 -->
<g id="node4" class="node">
<title>Node4</title>
<g id="a_node4"><a xlink:title=" ">
<polygon fill="white" stroke="#bfbfbf" points="338,-67.5 338,-86.5 454,-86.5 454,-67.5 338,-67.5"/>
<text text-anchor="middle" x="396" y="-74.5" font-family="Helvetica,sans-Serif" font-size="10.00">G4LogicalVolume.hh</text>
</a>
</g>
</g>
<!-- Node1&#45;&gt;Node4 -->
<g id="edge65" class="edge">
<title>Node1&#45;&gt;Node4</title>
<path fill="none" stroke="midnightblue" d="M1493.68,-300.32C1295.75,-301.28 558.83,-301.58 331,-255 262.91,-241.08 242.58,-237.92 185,-199 151.09,-176.08 106.61,-154.29 133,-123 157.48,-93.97 258.46,-83.67 327.92,-80.01"/>
<polygon fill="midnightblue" stroke="midnightblue" points="328.11,-83.51 337.93,-79.52 327.77,-76.52 328.11,-83.51"/>
</g>
<!-- Node5 -->
<g id="node5" class="node">
<title>Node5</title>
<g id="a_node5"><a xlink:title=" ">
<polygon fill="white" stroke="#bfbfbf" points="493.5,-6 493.5,-25 612.5,-25 612.5,-6 493.5,-6"/>
<text text-anchor="middle" x="553" y="-13" font-family="Helvetica,sans-Serif" font-size="10.00">G4SystemOfUnits.hh</text>
</a>
</g>
</g>
<!-- Node1&#45;&gt;Node5 -->
<g id="edge70" class="edge">
<title>Node1&#45;&gt;Node5</title>
<path fill="none" stroke="midnightblue" d="M1493.96,-299.75C1288.38,-298.47 495.21,-291.23 248,-255 135.26,-238.48 0,-303.95 0,-190 0,-190 0,-190 0,-132 0,-34.42 334.07,-18.75 482.91,-16.61"/>
<polygon fill="midnightblue" stroke="midnightblue" points="483.34,-20.11 493.29,-16.48 483.25,-13.11 483.34,-20.11"/>
</g>
<!-- Node6 -->
<g id="node6" class="node">
<title>Node6</title>
<g id="a_node6"><a xlink:title=" ">
<polygon fill="white" stroke="#bfbfbf" points="1522.5,-67.5 1522.5,-86.5 1629.5,-86.5 1629.5,-67.5 1522.5,-67.5"/>
<text text-anchor="middle" x="1576" y="-74.5" font-family="Helvetica,sans-Serif" font-size="10.00">G4Transform3D.hh</text>
</a>
</g>
</g>
<!-- Node1&#45;&gt;Node6 -->
<g id="edge71" class="edge">
<title>Node1&#45;&gt;Node6</title>
<path fill="none" stroke="midnightblue" d="M1541.53,-291.3C1538.45,-271.16 1532.41,-219.87 1543,-179 1547.59,-161.28 1556.69,-160.18 1563,-143 1568.53,-127.96 1571.89,-110.06 1573.8,-96.85"/>
<polygon fill="midnightblue" stroke="midnightblue" points="1577.31,-97.01 1575.13,-86.64 1570.37,-96.11 1577.31,-97.01"/>
</g>
<!-- Node7 -->
<g id="node7" class="node">
<title>Node7</title>
<g id="a_node7"><a xlink:title=" ">
<polygon fill="white" stroke="#bfbfbf" points="714,-67.5 714,-86.5 822,-86.5 822,-67.5 714,-67.5"/>
<text text-anchor="middle" x="768" y="-74.5" font-family="Helvetica,sans-Serif" font-size="10.00">G4VisAttributes.hh</text>
</a>
</g>
</g>
<!-- Node1&#45;&gt;Node7 -->
<g id="edge75" class="edge">
<title>Node1&#45;&gt;Node7</title>
<path fill="none" stroke="midnightblue" d="M1495.35,-291.47C1450.04,-283.1 1380.08,-269.52 1320,-255 1141.8,-211.95 1096.08,-203.45 923,-143 877.51,-127.11 826.21,-104.68 795.53,-90.75"/>
<polygon fill="midnightblue" stroke="midnightblue" points="796.88,-87.52 786.33,-86.55 793.97,-93.88 796.88,-87.52"/>
</g>
<!-- Node14 -->
<g id="node14" class="node">
<title>Node14</title>
<g id="a_node14"><a xlink:title=" ">
<polygon fill="white" stroke="#bfbfbf" points="1240.5,-67.5 1240.5,-86.5 1365.5,-86.5 1365.5,-67.5 1240.5,-67.5"/>
<text text-anchor="middle" x="1303" y="-74.5" font-family="Helvetica,sans-Serif" font-size="10.00">G4SubtractionSolid.hh</text>
</a>
</g>
</g>
<!-- Node1&#45;&gt;Node14 -->
<g id="edge69" class="edge">
<title>Node1&#45;&gt;Node14</title>
<path fill="none" stroke="midnightblue" d="M1540.09,-291.16C1530.19,-262.5 1495.11,-171.18 1435,-123 1414.41,-106.5 1387.43,-95.89 1363.23,-89.15"/>
<polygon fill="midnightblue" stroke="midnightblue" points="1363.97,-85.72 1353.41,-86.58 1362.2,-92.5 1363.97,-85.72"/>
</g>
<!-- Node15 -->
<g id="node15" class="node">
<title>Node15</title>
<g id="a_node15"><a xlink:title=" ">
<polygon fill="white" stroke="#bfbfbf" points="1384,-67.5 1384,-86.5 1494,-86.5 1494,-67.5 1384,-67.5"/>
<text text-anchor="middle" x="1439" y="-74.5" font-family="Helvetica,sans-Serif" font-size="10.00">G4PVPlacement.hh</text>
</a>
</g>
</g>
<!-- Node1&#45;&gt;Node15 -->
<g id="edge68" class="edge">
<title>Node1&#45;&gt;Node15</title>
<path fill="none" stroke="midnightblue" d="M1540.84,-291.44C1538.68,-282.44 1535.47,-267.82 1534,-255 1532.33,-240.42 1537.93,-135.35 1530,-123 1519.97,-107.38 1502.79,-97 1486.04,-90.18"/>
<polygon fill="midnightblue" stroke="midnightblue" points="1486.88,-86.76 1476.28,-86.57 1484.45,-93.33 1486.88,-86.76"/>
</g>
<!-- Node18 -->
<g id="node18" class="node">
<title>Node18</title>
<g id="a_node18"><a xlink:href="_o_m_sim_m_d_o_m_flasher_8hh.html" target="_top" xlink:title=" ">
<polygon fill="white" stroke="black" points="194.5,-179.5 194.5,-198.5 329.5,-198.5 329.5,-179.5 194.5,-179.5"/>
<text text-anchor="middle" x="262" y="-186.5" font-family="Helvetica,sans-Serif" font-size="10.00">OMSimMDOMFlasher.hh</text>
</a>
</g>
</g>
<!-- Node1&#45;&gt;Node18 -->
<g id="edge84" class="edge">
<title>Node1&#45;&gt;Node18</title>
<path fill="none" stroke="midnightblue" d="M1493.86,-299.39C1286.92,-296.63 492.06,-284.23 384,-255 345.35,-244.54 305.25,-220.11 282.02,-204.35"/>
<polygon fill="midnightblue" stroke="midnightblue" points="283.91,-201.41 273.7,-198.59 279.93,-207.16 283.91,-201.41"/>
</g>
<!-- Node19 -->
<g id="node19" class="node">
<title>Node19</title>
<g id="a_node19"><a xlink:title=" ">
<polygon fill="white" stroke="#bfbfbf" points="328,-123.5 328,-142.5 426,-142.5 426,-123.5 328,-123.5"/>
<text text-anchor="middle" x="377" y="-130.5" font-family="Helvetica,sans-Serif" font-size="10.00">G4UnionSolid.hh</text>
</a>
</g>
</g>
<!-- Node1&#45;&gt;Node19 -->
<g id="edge73" class="edge">
<title>Node1&#45;&gt;Node19</title>
<path fill="none" stroke="midnightblue" d="M1493.91,-299.58C1282.91,-297.56 461.64,-287.63 418,-255 385.83,-230.94 378.66,-180.36 377.21,-152.82"/>
<polygon fill="midnightblue" stroke="midnightblue" points="380.7,-152.46 376.89,-142.58 373.71,-152.69 380.7,-152.46"/>
</g>
<!-- Node20 -->
<g id="node20" class="node">
<title>Node20</title>
<g id="a_node20"><a xlink:title=" ">
<polygon fill="white" stroke="#bfbfbf" points="444.5,-123.5 444.5,-142.5 511.5,-142.5 511.5,-123.5 444.5,-123.5"/>
<text text-anchor="middle" x="478" y="-130.5" font-family="Helvetica,sans-Serif" font-size="10.00">G4Tubs.hh</text>
</a>
</g>
</g>
<!-- Node1&#45;&gt;Node20 -->
<g id="edge72" class="edge">
<title>Node1&#45;&gt;Node20</title>
<path fill="none" stroke="midnightblue" d="M1493.75,-299.39C1378.07,-297.41 1080.17,-289.13 834,-255 716.91,-238.77 682.71,-245.43 574,-199 544.41,-186.36 514.35,-164.17 495.93,-149.27"/>
<polygon fill="midnightblue" stroke="midnightblue" points="497.82,-146.29 487.89,-142.62 493.37,-151.69 497.82,-146.29"/>
</g>
<!-- Node25 -->
<g id="node25" class="node">
<title>Node25</title>
<g id="a_node25"><a xlink:title=" ">
<polygon fill="white" stroke="#bfbfbf" points="1212.5,-123.5 1212.5,-142.5 1339.5,-142.5 1339.5,-123.5 1212.5,-123.5"/>
<text text-anchor="middle" x="1276" y="-130.5" font-family="Helvetica,sans-Serif" font-size="10.00">G4IntersectionSolid.hh</text>
</a>
</g>
</g>
<!-- Node1&#45;&gt;Node25 -->
<g id="edge62" class="edge">
<title>Node1&#45;&gt;Node25</title>
<path fill="none" stroke="midnightblue" d="M1508.34,-291.5C1481.92,-284.14 1445.22,-271.99 1416,-255 1364.85,-225.26 1314.83,-175.68 1290.8,-150.2"/>
<polygon fill="midnightblue" stroke="midnightblue" points="1293.05,-147.49 1283.68,-142.55 1287.93,-152.26 1293.05,-147.49"/>
</g>
<!-- Node26 -->
<g id="node26" class="node">
<title>Node26</title>
<g id="a_node26"><a xlink:title=" ">
<polygon fill="white" stroke="#bfbfbf" points="1357.5,-123.5 1357.5,-142.5 1426.5,-142.5 1426.5,-123.5 1357.5,-123.5"/>
<text text-anchor="middle" x="1392" y="-130.5" font-family="Helvetica,sans-Serif" font-size="10.00">G4Cons.hh</text>
</a>
</g>
</g>
<!-- Node1&#45;&gt;Node26 -->
<g id="edge58" class="edge">
<title>Node1&#45;&gt;Node26</title>
<path fill="none" stroke="midnightblue" d="M1500.92,-291.48C1478.39,-284.95 1451.71,-273.76 1434,-255 1406.74,-226.13 1397.07,-178.66 1393.72,-152.59"/>
<polygon fill="midnightblue" stroke="midnightblue" points="1397.19,-152.1 1392.61,-142.55 1390.23,-152.87 1397.19,-152.1"/>
</g>
<!-- Node27 -->
<g id="node27" class="node">
<title>Node27</title>
<g id="a_node27"><a xlink:href="_o_m_sim_m_d_o_m_harness_8hh.html" target="_top" xlink:title=" ">
<polygon fill="white" stroke="black" points="583,-179.5 583,-198.5 723,-198.5 723,-179.5 583,-179.5"/>
<text text-anchor="middle" x="653" y="-186.5" font-family="Helvetica,sans-Serif" font-size="10.00">OMSimMDOMHarness.hh</text>
</a>
</g>
</g>
<!-- Node1&#45;&gt;Node27 -->
<g id="edge45" class="edge">
<title>Node1&#45;&gt;Node27</title>
<path fill="none" stroke="midnightblue" d="M1493.65,-298.75C1390.62,-295.6 1145.36,-285.31 942,-255 852.46,-241.65 749.4,-215.92 693.76,-201.16"/>
<polygon fill="midnightblue" stroke="midnightblue" points="694.5,-197.73 683.94,-198.53 692.7,-204.49 694.5,-197.73"/>
</g>
<!-- Node28 -->
<g id="node28" class="node">
<title>Node28</title>
<g id="a_node28"><a xlink:title=" ">
<polygon fill="white" stroke="#bfbfbf" points="1772,-235.5 1772,-254.5 1826,-254.5 1826,-235.5 1772,-235.5"/>
<text text-anchor="middle" x="1799" y="-242.5" font-family="Helvetica,sans-Serif" font-size="10.00">dirent.h</text>
</a>
</g>
</g>
<!-- Node1&#45;&gt;Node28 -->
<g id="edge55" class="edge">
<title>Node1&#45;&gt;Node28</title>
<path fill="none" stroke="midnightblue" d="M1587.79,-291.43C1630.24,-283.17 1696.03,-270.03 1762.15,-255.12"/>
<polygon fill="midnightblue" stroke="midnightblue" points="1762.93,-258.53 1771.9,-252.91 1761.38,-251.71 1762.93,-258.53"/>
</g>
<!-- Node29 -->
<g id="node29" class="node">
<title>Node29</title>
<g id="a_node29"><a xlink:title=" ">
<polygon fill="white" stroke="#bfbfbf" points="1552.5,-179.5 1552.5,-198.5 1617.5,-198.5 1617.5,-179.5 1552.5,-179.5"/>
<text text-anchor="middle" x="1585" y="-186.5" font-family="Helvetica,sans-Serif" font-size="10.00">stdexcept</text>
</a>
</g>
</g>
<!-- Node1&#45;&gt;Node29 -->
<g id="edge56" class="edge">
<title>Node1&#45;&gt;Node29</title>
<path fill="none" stroke="midnightblue" d="M1546.3,-291.37C1553.13,-273.46 1568.99,-231.92 1578.15,-207.95"/>
<polygon fill="midnightblue" stroke="midnightblue" points="1581.42,-209.18 1581.72,-198.59 1574.88,-206.69 1581.42,-209.18"/>
</g>
<!-- Node30 -->
<g id="node30" class="node">
<title>Node30</title>
<g id="a_node30"><a xlink:title=" ">
<polygon fill="white" stroke="#bfbfbf" points="1844.5,-235.5 1844.5,-254.5 1893.5,-254.5 1893.5,-235.5 1844.5,-235.5"/>
<text text-anchor="middle" x="1869" y="-242.5" font-family="Helvetica,sans-Serif" font-size="10.00">cstdlib</text>
</a>
</g>
</g>
<!-- Node1&#45;&gt;Node30 -->
<g id="edge57" class="edge">
<title>Node1&#45;&gt;Node30</title>
<path fill="none" stroke="midnightblue" d="M1592.11,-294.05C1648.32,-286.87 1743.3,-273.66 1834.26,-254.96"/>
<polygon fill="midnightblue" stroke="midnightblue" points="1835.11,-258.36 1844.19,-252.89 1833.69,-251.5 1835.11,-258.36"/>
</g>
<!-- Node31 -->
<g id="node31" class="node">
<title>Node31</title>
<g id="a_node31"><a xlink:title=" ">
<polygon fill="white" stroke="#bfbfbf" points="1912,-235.5 1912,-254.5 1998,-254.5 1998,-235.5 1912,-235.5"/>
<text text-anchor="middle" x="1955" y="-242.5" font-family="Helvetica,sans-Serif" font-size="10.00">G4Ellipsoid.hh</text>
</a>
</g>
</g>
<!-- Node1&#45;&gt;Node31 -->
<g id="edge59" class="edge">
<title>Node1&#45;&gt;Node31</title>
<path fill="none" stroke="midnightblue" d="M1592.16,-294.52C1661.4,-286.66 1791.54,-271.29 1902,-255 1902.1,-254.99 1902.2,-254.97 1902.3,-254.96"/>
<polygon fill="midnightblue" stroke="midnightblue" points="1902.57,-258.45 1911.93,-253.48 1901.51,-251.54 1902.57,-258.45"/>
</g>
<!-- Node32 -->
<g id="node32" class="node">
<title>Node32</title>
<g id="a_node32"><a xlink:title=" ">
<polygon fill="white" stroke="#bfbfbf" points="2016,-235.5 2016,-254.5 2126,-254.5 2126,-235.5 2016,-235.5"/>
<text text-anchor="middle" x="2071" y="-242.5" font-family="Helvetica,sans-Serif" font-size="10.00">G4EllipticalTube.hh</text>
</a>
</g>
</g>
<!-- Node1&#45;&gt;Node32 -->
<g id="edge60" class="edge">
<title>Node1&#45;&gt;Node32</title>
<path fill="none" stroke="midnightblue" d="M1592.18,-295.93C1675.15,-288.91 1848.45,-273.59 2005.54,-255.13"/>
<polygon fill="midnightblue" stroke="midnightblue" points="2006.34,-258.56 2015.86,-253.91 2005.52,-251.61 2006.34,-258.56"/>
</g>
<!-- Node33 -->
<g id="node33" class="node">
<title>Node33</title>
<g id="a_node33"><a xlink:title=" ">
<polygon fill="white" stroke="#bfbfbf" points="2144.5,-235.5 2144.5,-254.5 2223.5,-254.5 2223.5,-235.5 2144.5,-235.5"/>
<text text-anchor="middle" x="2184" y="-242.5" font-family="Helvetica,sans-Serif" font-size="10.00">G4Sphere.hh</text>
</a>
</g>
</g>
<!-- Node1&#45;&gt;Node33 -->
<g id="edge61" class="edge">
<title>Node1&#45;&gt;Node33</title>
<path fill="none" stroke="midnightblue" d="M1592.3,-298.02C1692.43,-293.61 1926.93,-281.34 2134.31,-254.94"/>
<polygon fill="midnightblue" stroke="midnightblue" points="2135,-258.38 2144.48,-253.63 2134.11,-251.44 2135,-258.38"/>
</g>
<!-- Node34 -->
<g id="node34" class="node">
<title>Node34</title>
<g id="a_node34"><a xlink:title=" ">
<polygon fill="white" stroke="#bfbfbf" points="2241.5,-235.5 2241.5,-254.5 2390.5,-254.5 2390.5,-235.5 2241.5,-235.5"/>
<text text-anchor="middle" x="2316" y="-242.5" font-family="Helvetica,sans-Serif" font-size="10.00">G4LogicalBorderSurface.hh</text>
</a>
</g>
</g>
<!-- Node1&#45;&gt;Node34 -->
<g id="edge63" class="edge">
<title>Node1&#45;&gt;Node34</title>
<path fill="none" stroke="midnightblue" d="M1592.35,-297.48C1703.99,-291.63 1984.73,-276.07 2231.13,-255.04"/>
<polygon fill="midnightblue" stroke="midnightblue" points="2231.7,-258.5 2241.36,-254.16 2231.1,-251.53 2231.7,-258.5"/>
</g>
<!-- Node35 -->
<g id="node35" class="node">
<title>Node35</title>
<g id="a_node35"><a xlink:title=" ">
<polygon fill="white" stroke="#bfbfbf" points="2408.5,-235.5 2408.5,-254.5 2545.5,-254.5 2545.5,-235.5 2408.5,-235.5"/>
<text text-anchor="middle" x="2477" y="-242.5" font-family="Helvetica,sans-Serif" font-size="10.00">G4LogicalSkinSurface.hh</text>
</a>
</g>
</g>
<!-- Node1&#45;&gt;Node35 -->
<g id="edge64" class="edge">
<title>Node1&#45;&gt;Node35</title>
<path fill="none" stroke="midnightblue" d="M1592.29,-298.48C1722.19,-294.26 2084.87,-280.98 2397.94,-255.03"/>
<polygon fill="midnightblue" stroke="midnightblue" points="2398.45,-258.5 2408.12,-254.18 2397.86,-251.53 2398.45,-258.5"/>
</g>
<!-- Node36 -->
<g id="node36" class="node">
<title>Node36</title>
<g id="a_node36"><a xlink:title=" ">
<polygon fill="white" stroke="#bfbfbf" points="2564,-235.5 2564,-254.5 2626,-254.5 2626,-235.5 2564,-235.5"/>
<text text-anchor="middle" x="2595" y="-242.5" font-family="Helvetica,sans-Serif" font-size="10.00">G4Orb.hh</text>
</a>
</g>
</g>
<!-- Node1&#45;&gt;Node36 -->
<g id="edge66" class="edge">
<title>Node1&#45;&gt;Node36</title>
<path fill="none" stroke="midnightblue" d="M1592.17,-298.93C1765.1,-295 2345.54,-280.29 2553.83,-254.7"/>
<polygon fill="midnightblue" stroke="midnightblue" points="2554.28,-258.17 2563.76,-253.44 2553.4,-251.23 2554.28,-258.17"/>
</g>
<!-- Node37 -->
<g id="node37" class="node">
<title>Node37</title>
<g id="a_node37"><a xlink:title=" ">
<polygon fill="white" stroke="#bfbfbf" points="2644.5,-235.5 2644.5,-254.5 2733.5,-254.5 2733.5,-235.5 2644.5,-235.5"/>
<text text-anchor="middle" x="2689" y="-242.5" font-family="Helvetica,sans-Serif" font-size="10.00">G4Polycone.hh</text>
</a>
</g>
</g>
<!-- Node1&#45;&gt;Node37 -->
<g id="edge67" class="edge">
<title>Node1&#45;&gt;Node37</title>
<path fill="none" stroke="midnightblue" d="M1592.13,-300.14C1745,-300.12 2225.86,-296.58 2634.03,-254.95"/>
<polygon fill="midnightblue" stroke="midnightblue" points="2634.68,-258.4 2644.27,-253.89 2633.96,-251.44 2634.68,-258.4"/>
</g>
<!-- Node38 -->
<g id="node38" class="node">
<title>Node38</title>
<g id="a_node38"><a xlink:title=" ">
<polygon fill="white" stroke="#bfbfbf" points="2752,-235.5 2752,-254.5 2848,-254.5 2848,-235.5 2752,-235.5"/>
<text text-anchor="middle" x="2800" y="-242.5" font-family="Helvetica,sans-Serif" font-size="10.00">G4UnitsTable.hh</text>
</a>
</g>
</g>
<!-- Node1&#45;&gt;Node38 -->
<g id="edge74" class="edge">
<title>Node1&#45;&gt;Node38</title>
<path fill="none" stroke="midnightblue" d="M1592.25,-300.2C1756.03,-300.44 2297.23,-297.71 2742,-255 2742.1,-254.99 2742.2,-254.98 2742.3,-254.97"/>
<polygon fill="midnightblue" stroke="midnightblue" points="2742.4,-258.48 2751.95,-253.9 2741.62,-251.53 2742.4,-258.48"/>
</g>
<!-- Node39 -->
<g id="node39" class="node">
<title>Node39</title>
<g id="a_node39"><a xlink:title=" ">
<polygon fill="white" stroke="#bfbfbf" points="2866.5,-235.5 2866.5,-254.5 2937.5,-254.5 2937.5,-235.5 2866.5,-235.5"/>
<text text-anchor="middle" x="2902" y="-242.5" font-family="Helvetica,sans-Serif" font-size="10.00">G4Torus.hh</text>
</a>
</g>
</g>
<!-- Node1&#45;&gt;Node39 -->
<g id="edge76" class="edge">
<title>Node1&#45;&gt;Node39</title>
<path fill="none" stroke="midnightblue" d="M1592.01,-299.39C1796.66,-296.69 2584.55,-284.64 2856.01,-254.86"/>
<polygon fill="midnightblue" stroke="midnightblue" points="2856.68,-258.31 2866.22,-253.7 2855.89,-251.35 2856.68,-258.31"/>
</g>
<!-- Node40 -->
<g id="node40" class="node">
<title>Node40</title>
<g id="a_node40"><a xlink:href="_o_m_sim_command_args_table_8hh.html" target="_top" xlink:title=" ">
<polygon fill="white" stroke="black" points="1590,-235.5 1590,-254.5 1754,-254.5 1754,-235.5 1590,-235.5"/>
<text text-anchor="middle" x="1672" y="-242.5" font-family="Helvetica,sans-Serif" font-size="10.00">OMSimCommandArgsTable.hh</text>
</a>
</g>
</g>
<!-- Node1&#45;&gt;Node40 -->
<g id="edge77" class="edge">
<title>Node1&#45;&gt;Node40</title>
<path fill="none" stroke="midnightblue" d="M1563.44,-291.44C1584.67,-282.56 1618.1,-268.56 1642.25,-258.45"/>
<polygon fill="midnightblue" stroke="midnightblue" points="1643.78,-261.61 1651.66,-254.52 1641.08,-255.15 1643.78,-261.61"/>
</g>
<!-- Node45 -->
<g id="node45" class="node">
<title>Node45</title>
<g id="a_node45"><a xlink:href="_o_m_sim_logger_8hh.html" target="_top" xlink:title=" ">
<polygon fill="white" stroke="black" points="2955.5,-235.5 2955.5,-254.5 3054.5,-254.5 3054.5,-235.5 2955.5,-235.5"/>
<text text-anchor="middle" x="3005" y="-242.5" font-family="Helvetica,sans-Serif" font-size="10.00">OMSimLogger.hh</text>
</a>
</g>
</g>
<!-- Node1&#45;&gt;Node45 -->
<g id="edge85" class="edge">
<title>Node1&#45;&gt;Node45</title>
<path fill="none" stroke="midnightblue" d="M1592.35,-299.21C1806.19,-295.66 2654.75,-280.3 2945.38,-254.9"/>
<polygon fill="midnightblue" stroke="midnightblue" points="2945.83,-258.37 2955.48,-253.99 2945.2,-251.4 2945.83,-258.37"/>
</g>
<!-- Node2&#45;&gt;Node3 -->
<g id="edge2" class="edge">
<title>Node2&#45;&gt;Node3</title>
<path fill="none" stroke="midnightblue" d="M527.35,-241.39C623.86,-235.93 831.3,-221.89 899,-199 932.72,-187.6 967.09,-164.18 987.47,-148.79"/>
<polygon fill="midnightblue" stroke="midnightblue" points="989.78,-151.43 995.56,-142.55 985.5,-145.89 989.78,-151.43"/>
</g>
<!-- Node2&#45;&gt;Node4 -->
<g id="edge39" class="edge">
<title>Node2&#45;&gt;Node4</title>
<path fill="none" stroke="midnightblue" d="M448.74,-235.41C411.25,-222.31 346.6,-193.4 319,-143 306.43,-120.04 334.86,-101.72 360.65,-90.45"/>
<polygon fill="midnightblue" stroke="midnightblue" points="362.04,-93.66 369.96,-86.62 359.38,-87.19 362.04,-93.66"/>
</g>
<!-- Node2&#45;&gt;Node5 -->
<g id="edge40" class="edge">
<title>Node2&#45;&gt;Node5</title>
<path fill="none" stroke="midnightblue" d="M426.97,-239.82C355.13,-233.23 226.79,-219.07 185,-199 145.96,-180.25 105.95,-162.37 124,-123 139.89,-88.34 154.25,-82.71 189,-67 240.08,-43.91 392.55,-28.73 483.14,-21.47"/>
<polygon fill="midnightblue" stroke="midnightblue" points="483.64,-24.94 493.33,-20.67 483.09,-17.97 483.64,-24.94"/>
</g>
<!-- Node2&#45;&gt;Node18 -->
<g id="edge18" class="edge">
<title>Node2&#45;&gt;Node18</title>
<path fill="none" stroke="midnightblue" d="M442.93,-235.44C405.82,-226.12 346.34,-211.18 305.79,-201"/>
<polygon fill="midnightblue" stroke="midnightblue" points="306.46,-197.56 295.91,-198.52 304.75,-204.35 306.46,-197.56"/>
</g>
<!-- Node2&#45;&gt;Node19 -->
<g id="edge41" class="edge">
<title>Node2&#45;&gt;Node19</title>
<path fill="none" stroke="midnightblue" d="M469.15,-235.37C452.43,-216.97 413.06,-173.67 391.59,-150.05"/>
<polygon fill="midnightblue" stroke="midnightblue" points="394.13,-147.64 384.81,-142.59 388.95,-152.35 394.13,-147.64"/>
</g>
<!-- Node2&#45;&gt;Node20 -->
<g id="edge44" class="edge">
<title>Node2&#45;&gt;Node20</title>
<path fill="none" stroke="midnightblue" d="M477.08,-235.37C477.24,-217.62 477.61,-176.67 477.83,-152.6"/>
<polygon fill="midnightblue" stroke="midnightblue" points="481.33,-152.62 477.92,-142.59 474.33,-152.56 481.33,-152.62"/>
</g>
<!-- Node22 -->
<g id="node22" class="node">
<title>Node22</title>
<g id="a_node22"><a xlink:href="_o_m_sim_p_m_t_construction_8hh.html" target="_top" xlink:title=" ">
<polygon fill="white" stroke="black" points="741.5,-179.5 741.5,-198.5 890.5,-198.5 890.5,-179.5 741.5,-179.5"/>
<text text-anchor="middle" x="816" y="-186.5" font-family="Helvetica,sans-Serif" font-size="10.00">OMSimPMTConstruction.hh</text>
</a>
</g>
</g>
<!-- Node2&#45;&gt;Node22 -->
<g id="edge25" class="edge">
<title>Node2&#45;&gt;Node22</title>
<path fill="none" stroke="midnightblue" d="M527.02,-236.03C586.81,-226.51 686.96,-210.56 752.25,-200.16"/>
<polygon fill="midnightblue" stroke="midnightblue" points="753.09,-203.57 762.41,-198.54 751.99,-196.65 753.09,-203.57"/>
</g>
<!-- Node2&#45;&gt;Node25 -->
<g id="edge42" class="edge">
<title>Node2&#45;&gt;Node25</title>
<path fill="none" stroke="midnightblue" d="M527.22,-240.54C611.55,-234.39 786.83,-220.19 934,-199 1039.05,-183.88 1160.9,-158.92 1227.08,-144.73"/>
<polygon fill="midnightblue" stroke="midnightblue" points="1228.17,-148.08 1237.21,-142.55 1226.7,-141.23 1228.17,-148.08"/>
</g>
<!-- Node2&#45;&gt;Node26 -->
<g id="edge43" class="edge">
<title>Node2&#45;&gt;Node26</title>
<path fill="none" stroke="midnightblue" d="M527.37,-241C621.44,-235.11 830.16,-220.69 1005,-199 1154.99,-180.39 1194.41,-171.32 1347.21,-143.09"/>
<polygon fill="midnightblue" stroke="midnightblue" points="1348.24,-146.46 1357.44,-141.21 1346.97,-139.58 1348.24,-146.46"/>
</g>
<!-- Node3&#45;&gt;Node4 -->
<g id="edge3" class="edge">
<title>Node3&#45;&gt;Node4</title>
<path fill="none" stroke="midnightblue" d="M932.42,-125.49C813.38,-114.95 580.25,-94.31 464.53,-84.07"/>
<polygon fill="midnightblue" stroke="midnightblue" points="464.65,-80.56 454.38,-83.17 464.03,-87.54 464.65,-80.56"/>
</g>
<!-- Node3&#45;&gt;Node5 -->
<g id="edge4" class="edge">
<title>Node3&#45;&gt;Node5</title>
<path fill="none" stroke="midnightblue" d="M974.99,-123.43C946.86,-115.27 904.5,-102.05 869,-87 851.43,-79.55 849.07,-73.13 831,-67 741.33,-36.57 713.99,-48.88 621,-31 614.78,-29.8 608.25,-28.49 601.8,-27.15"/>
<polygon fill="midnightblue" stroke="midnightblue" points="602.29,-23.68 591.78,-25.05 600.85,-30.53 602.29,-23.68"/>
</g>
<!-- Node3&#45;&gt;Node6 -->
<g id="edge5" class="edge">
<title>Node3&#45;&gt;Node6</title>
<path fill="none" stroke="midnightblue" d="M1079.75,-126.07C1176.87,-118.1 1352.89,-103.04 1503,-87 1506.01,-86.68 1509.1,-86.34 1512.21,-85.99"/>
<polygon fill="midnightblue" stroke="midnightblue" points="1512.67,-89.46 1522.2,-84.83 1511.87,-82.5 1512.67,-89.46"/>
</g>
<!-- Node3&#45;&gt;Node7 -->
<g id="edge6" class="edge">
<title>Node3&#45;&gt;Node7</title>
<path fill="none" stroke="midnightblue" d="M968.29,-123.44C926.86,-114.04 860.24,-98.93 815.33,-88.74"/>
<polygon fill="midnightblue" stroke="midnightblue" points="816.06,-85.32 805.54,-86.52 814.51,-92.14 816.06,-85.32"/>
</g>
<!-- Node8 -->
<g id="node8" class="node">
<title>Node8</title>
<g id="a_node8"><a xlink:href="_o_m_sim_input_data_8hh.html" target="_top" xlink:title=" ">
<polygon fill="white" stroke="black" points="878.5,-67.5 878.5,-86.5 993.5,-86.5 993.5,-67.5 878.5,-67.5"/>
<text text-anchor="middle" x="936" y="-74.5" font-family="Helvetica,sans-Serif" font-size="10.00">OMSimInputData.hh</text>
</a>
</g>
</g>
<!-- Node3&#45;&gt;Node8 -->
<g id="edge7" class="edge">
<title>Node3&#45;&gt;Node8</title>
<path fill="none" stroke="midnightblue" d="M994.75,-123.32C984.2,-115.18 968.2,-102.84 955.56,-93.09"/>
<polygon fill="midnightblue" stroke="midnightblue" points="957.51,-90.17 947.45,-86.83 953.23,-95.71 957.51,-90.17"/>
</g>
<!-- Node3&#45;&gt;Node14 -->
<g id="edge14" class="edge">
<title>Node3&#45;&gt;Node14</title>
<path fill="none" stroke="midnightblue" d="M1053.06,-123.44C1105.41,-113.92 1189.99,-98.55 1246.04,-88.36"/>
<polygon fill="midnightblue" stroke="midnightblue" points="1246.95,-91.75 1256.16,-86.52 1245.69,-84.86 1246.95,-91.75"/>
</g>
<!-- Node3&#45;&gt;Node15 -->
<g id="edge15" class="edge">
<title>Node3&#45;&gt;Node15</title>
<path fill="none" stroke="midnightblue" d="M1078.66,-123.46C1150.67,-114.92 1264.42,-101.21 1373.49,-87.05"/>
<polygon fill="midnightblue" stroke="midnightblue" points="1374.23,-90.48 1383.69,-85.72 1373.32,-83.54 1374.23,-90.48"/>
</g>
<!-- Node16 -->
<g id="node16" class="node">
<title>Node16</title>
<g id="a_node16"><a xlink:title=" ">
<polygon fill="white" stroke="#bfbfbf" points="1012,-67.5 1012,-86.5 1110,-86.5 1110,-67.5 1012,-67.5"/>
<text text-anchor="middle" x="1061" y="-74.5" font-family="Helvetica,sans-Serif" font-size="10.00">G4MultiUnion.hh</text>
</a>
</g>
</g>
<!-- Node3&#45;&gt;Node16 -->
<g id="edge16" class="edge">
<title>Node3&#45;&gt;Node16</title>
<path fill="none" stroke="midnightblue" d="M1015.08,-123.08C1023.17,-115.14 1035.2,-103.34 1044.91,-93.8"/>
<polygon fill="midnightblue" stroke="midnightblue" points="1047.4,-96.25 1052.09,-86.75 1042.5,-91.26 1047.4,-96.25"/>
</g>
<!-- Node17 -->
<g id="node17" class="node">
<title>Node17</title>
<g id="a_node17"><a xlink:title=" ">
<polygon fill="white" stroke="#bfbfbf" points="1128,-67.5 1128,-86.5 1184,-86.5 1184,-67.5 1128,-67.5"/>
<text text-anchor="middle" x="1156" y="-74.5" font-family="Helvetica,sans-Serif" font-size="10.00">sstream</text>
</a>
</g>
</g>
<!-- Node3&#45;&gt;Node17 -->
<g id="edge17" class="edge">
<title>Node3&#45;&gt;Node17</title>
<path fill="none" stroke="midnightblue" d="M1029.77,-123.44C1054.89,-114.4 1094.71,-100.06 1122.9,-89.92"/>
<polygon fill="midnightblue" stroke="midnightblue" points="1124.12,-93.2 1132.34,-86.52 1121.75,-86.61 1124.12,-93.2"/>
</g>
<!-- Node8&#45;&gt;Node5 -->
<g id="edge13" class="edge">
<title>Node8&#45;&gt;Node5</title>
<path fill="none" stroke="midnightblue" d="M878.27,-68.23C801.29,-57.79 669.13,-39.56 621,-31 614.37,-29.82 607.41,-28.47 600.56,-27.07"/>
<polygon fill="midnightblue" stroke="midnightblue" points="601.18,-23.63 590.68,-25.01 599.75,-30.48 601.18,-23.63"/>
</g>
<!-- Node9 -->
<g id="node9" class="node">
<title>Node9</title>
<g id="a_node9"><a xlink:title=" ">
<polygon fill="white" stroke="#bfbfbf" points="630.5,-0.5 630.5,-30.5 743.5,-30.5 743.5,-0.5 630.5,-0.5"/>
<text text-anchor="start" x="638.5" y="-18.5" font-family="Helvetica,sans-Serif" font-size="10.00">boost/property_tree</text>
<text text-anchor="middle" x="687" y="-7.5" font-family="Helvetica,sans-Serif" font-size="10.00">/ptree.hpp</text>
</a>
</g>
</g>
<!-- Node8&#45;&gt;Node9 -->
<g id="edge8" class="edge">
<title>Node8&#45;&gt;Node9</title>
<path fill="none" stroke="midnightblue" d="M900.32,-67.48C862.16,-58.36 800.76,-43.68 753.61,-32.42"/>
<polygon fill="midnightblue" stroke="midnightblue" points="754.31,-28.99 743.77,-30.07 752.69,-35.79 754.31,-28.99"/>
</g>
<!-- Node10 -->
<g id="node10" class="node">
<title>Node10</title>
<g id="a_node10"><a xlink:title=" ">
<polygon fill="white" stroke="#bfbfbf" points="1154.5,-0.5 1154.5,-30.5 1267.5,-30.5 1267.5,-0.5 1154.5,-0.5"/>
<text text-anchor="start" x="1162.5" y="-18.5" font-family="Helvetica,sans-Serif" font-size="10.00">boost/property_tree</text>
<text text-anchor="middle" x="1211" y="-7.5" font-family="Helvetica,sans-Serif" font-size="10.00">/json_parser.hpp</text>
</a>
</g>
</g>
<!-- Node8&#45;&gt;Node10 -->
<g id="edge9" class="edge">
<title>Node8&#45;&gt;Node10</title>
<path fill="none" stroke="midnightblue" d="M975.4,-67.48C1019.49,-57.94 1091.66,-42.32 1144.52,-30.88"/>
<polygon fill="midnightblue" stroke="midnightblue" points="1145.45,-34.26 1154.49,-28.73 1143.97,-27.42 1145.45,-34.26"/>
</g>
<!-- Node11 -->
<g id="node11" class="node">
<title>Node11</title>
<g id="a_node11"><a xlink:title=" ">
<polygon fill="white" stroke="#bfbfbf" points="923,-6 923,-25 1009,-25 1009,-6 923,-6"/>
<text text-anchor="middle" x="966" y="-13" font-family="Helvetica,sans-Serif" font-size="10.00">G4Material.hh</text>
</a>
</g>
</g>
<!-- Node8&#45;&gt;Node11 -->
<g id="edge10" class="edge">
<title>Node8&#45;&gt;Node11</title>
<path fill="none" stroke="midnightblue" d="M940.3,-67.48C944.66,-58.82 951.56,-45.15 957.1,-34.15"/>
<polygon fill="midnightblue" stroke="midnightblue" points="960.33,-35.51 961.71,-25.01 954.08,-32.36 960.33,-35.51"/>
</g>
<!-- Node12 -->
<g id="node12" class="node">
<title>Node12</title>
<g id="a_node12"><a xlink:title=" ">
<polygon fill="white" stroke="#bfbfbf" points="1027.5,-6 1027.5,-25 1134.5,-25 1134.5,-6 1027.5,-6"/>
<text text-anchor="middle" x="1081" y="-13" font-family="Helvetica,sans-Serif" font-size="10.00">G4NistManager.hh</text>
</a>
</g>
</g>
<!-- Node8&#45;&gt;Node12 -->
<g id="edge11" class="edge">
<title>Node8&#45;&gt;Node12</title>
<path fill="none" stroke="midnightblue" d="M956.77,-67.48C981.43,-57.36 1022.75,-40.4 1050.9,-28.85"/>
<polygon fill="midnightblue" stroke="midnightblue" points="1052.34,-32.04 1060.26,-25.01 1049.68,-25.57 1052.34,-32.04"/>
</g>
<!-- Node13 -->
<g id="node13" class="node">
<title>Node13</title>
<g id="a_node13"><a xlink:title=" ">
<polygon fill="white" stroke="#bfbfbf" points="761.5,-6 761.5,-25 904.5,-25 904.5,-6 761.5,-6"/>
<text text-anchor="middle" x="833" y="-13" font-family="Helvetica,sans-Serif" font-size="10.00">G4OpBoundaryProcess.hh</text>
</a>
</g>
</g>
<!-- Node8&#45;&gt;Node13 -->
<g id="edge12" class="edge">
<title>Node8&#45;&gt;Node13</title>
<path fill="none" stroke="midnightblue" d="M921.24,-67.48C904.34,-57.71 876.42,-41.58 856.51,-30.08"/>
<polygon fill="midnightblue" stroke="midnightblue" points="858.14,-26.98 847.73,-25.01 854.64,-33.04 858.14,-26.98"/>
</g>
<!-- Node18&#45;&gt;Node3 -->
<g id="edge19" class="edge">
<title>Node18&#45;&gt;Node3</title>
<path fill="none" stroke="midnightblue" d="M329.67,-183.09C466.06,-173.19 773.62,-150.87 922.34,-140.07"/>
<polygon fill="midnightblue" stroke="midnightblue" points="922.62,-143.56 932.34,-139.35 922.11,-136.58 922.62,-143.56"/>
</g>
<!-- Node18&#45;&gt;Node4 -->
<g id="edge20" class="edge">
<title>Node18&#45;&gt;Node4</title>
<path fill="none" stroke="midnightblue" d="M262.98,-179.25C264.95,-165.53 270.62,-138.92 286,-123 301.52,-106.93 323.59,-96.4 343.9,-89.61"/>
<polygon fill="midnightblue" stroke="midnightblue" points="345.18,-92.87 353.68,-86.56 343.1,-86.19 345.18,-92.87"/>
</g>
<!-- Node18&#45;&gt;Node5 -->
<g id="edge21" class="edge">
<title>Node18&#45;&gt;Node5</title>
<path fill="none" stroke="midnightblue" d="M203.19,-179.42C159.17,-170.41 110.2,-153.23 133,-123 174.85,-67.51 375.12,-36.64 483.3,-23.76"/>
<polygon fill="midnightblue" stroke="midnightblue" points="483.95,-27.21 493.47,-22.57 483.13,-20.25 483.95,-27.21"/>
</g>
<!-- Node18&#45;&gt;Node19 -->
<g id="edge22" class="edge">
<title>Node18&#45;&gt;Node19</title>
<path fill="none" stroke="midnightblue" d="M280.22,-179.44C298.9,-170.68 328.16,-156.94 349.62,-146.86"/>
<polygon fill="midnightblue" stroke="midnightblue" points="351.3,-149.93 358.86,-142.52 348.32,-143.6 351.3,-149.93"/>
</g>
<!-- Node18&#45;&gt;Node20 -->
<g id="edge23" class="edge">
<title>Node18&#45;&gt;Node20</title>
<path fill="none" stroke="midnightblue" d="M296.23,-179.44C333.62,-170.09 393.62,-155.09 434.37,-144.91"/>
<polygon fill="midnightblue" stroke="midnightblue" points="435.44,-148.25 444.29,-142.43 433.74,-141.46 435.44,-148.25"/>
</g>
<!-- Node21 -->
<g id="node21" class="node">
<title>Node21</title>
<g id="a_node21"><a xlink:title=" ">
<polygon fill="white" stroke="#bfbfbf" points="142,-123.5 142,-142.5 234,-142.5 234,-123.5 142,-123.5"/>
<text text-anchor="middle" x="188" y="-130.5" font-family="Helvetica,sans-Serif" font-size="10.00">G4Navigator.hh</text>
</a>
</g>
</g>
<!-- Node18&#45;&gt;Node21 -->
<g id="edge24" class="edge">
<title>Node18&#45;&gt;Node21</title>
<path fill="none" stroke="midnightblue" d="M250.11,-179.32C238.85,-171.11 221.71,-158.6 208.29,-148.81"/>
<polygon fill="midnightblue" stroke="midnightblue" points="210.25,-145.9 200.11,-142.83 206.12,-151.56 210.25,-145.9"/>
</g>
<!-- Node22&#45;&gt;Node3 -->
<g id="edge28" class="edge">
<title>Node22&#45;&gt;Node3</title>
<path fill="none" stroke="midnightblue" d="M846.11,-179.44C878.63,-170.2 930.58,-155.44 966.39,-145.26"/>
<polygon fill="midnightblue" stroke="midnightblue" points="967.37,-148.62 976.03,-142.52 965.46,-141.88 967.37,-148.62"/>
</g>
<!-- Node22&#45;&gt;Node4 -->
<g id="edge29" class="edge">
<title>Node22&#45;&gt;Node4</title>
<path fill="none" stroke="midnightblue" d="M782.23,-179.47C746.78,-170.5 689.44,-155.9 640,-143 568.72,-124.39 485.88,-102.21 437.37,-89.16"/>
<polygon fill="midnightblue" stroke="midnightblue" points="438.12,-85.73 427.56,-86.52 436.31,-92.49 438.12,-85.73"/>
</g>
<!-- Node22&#45;&gt;Node5 -->
<g id="edge30" class="edge">
<title>Node22&#45;&gt;Node5</title>
<path fill="none" stroke="midnightblue" d="M797.81,-179.4C780.12,-170.82 752.68,-156.95 730,-143 670,-106.11 603.5,-55.84 571.8,-31.26"/>
<polygon fill="midnightblue" stroke="midnightblue" points="573.86,-28.43 563.82,-25.04 569.56,-33.95 573.86,-28.43"/>
</g>
<!-- Node22&#45;&gt;Node7 -->
<g id="edge32" class="edge">
<title>Node22&#45;&gt;Node7</title>
<path fill="none" stroke="midnightblue" d="M809.43,-179.47C802.96,-170.72 793.18,-156.53 787,-143 780.13,-127.96 775.08,-109.83 771.91,-96.54"/>
<polygon fill="midnightblue" stroke="midnightblue" points="775.31,-95.69 769.7,-86.7 768.48,-97.22 775.31,-95.69"/>
</g>
<!-- Node22&#45;&gt;Node8 -->
<g id="edge35" class="edge">
<title>Node22&#45;&gt;Node8</title>
<path fill="none" stroke="midnightblue" d="M825.42,-179.37C845.66,-160.81 893.55,-116.91 919.16,-93.44"/>
<polygon fill="midnightblue" stroke="midnightblue" points="921.62,-95.93 926.63,-86.59 916.89,-90.77 921.62,-95.93"/>
</g>
<!-- Node22&#45;&gt;Node9 -->
<g id="edge26" class="edge">
<title>Node22&#45;&gt;Node9</title>
<path fill="none" stroke="midnightblue" d="M802.01,-179.29C778.27,-163.77 730.24,-128.98 705,-87 696.55,-72.94 692.04,-55 689.65,-40.73"/>
<polygon fill="midnightblue" stroke="midnightblue" points="693.09,-40.07 688.2,-30.67 686.16,-41.06 693.09,-40.07"/>
</g>
<!-- Node22&#45;&gt;Node10 -->
<g id="edge27" class="edge">
<title>Node22&#45;&gt;Node10</title>
<path fill="none" stroke="midnightblue" d="M890.59,-183.07C946.32,-177.64 1023.65,-166.33 1088,-143 1104.48,-137.02 1106.62,-131.41 1122,-123 1153.04,-106.02 1170.87,-114.6 1193,-87 1203.49,-73.91 1207.94,-55.44 1209.8,-40.68"/>
<polygon fill="midnightblue" stroke="midnightblue" points="1213.28,-41.01 1210.74,-30.73 1206.31,-40.35 1213.28,-41.01"/>
</g>
<!-- Node22&#45;&gt;Node14 -->
<g id="edge33" class="edge">
<title>Node22&#45;&gt;Node14</title>
<path fill="none" stroke="midnightblue" d="M890.65,-182.25C953.28,-176.19 1044.64,-164.44 1122,-143 1144.27,-136.83 1148.37,-131.15 1170,-123 1202.26,-110.84 1239.47,-98.38 1266.31,-89.66"/>
<polygon fill="midnightblue" stroke="midnightblue" points="1267.62,-92.92 1276.06,-86.52 1265.47,-86.26 1267.62,-92.92"/>
</g>
<!-- Node22&#45;&gt;Node15 -->
<g id="edge34" class="edge">
<title>Node22&#45;&gt;Node15</title>
<path fill="none" stroke="midnightblue" d="M890.82,-184.79C961.42,-180.22 1069.63,-169.25 1160,-143 1180.24,-137.12 1182.94,-129.47 1203,-123 1234.48,-112.85 1317.51,-98.01 1376.15,-88.18"/>
<polygon fill="midnightblue" stroke="midnightblue" points="1376.78,-91.63 1386.07,-86.53 1375.63,-84.72 1376.78,-91.63"/>
</g>
<!-- Node22&#45;&gt;Node19 -->
<g id="edge31" class="edge">
<title>Node22&#45;&gt;Node19</title>
<path fill="none" stroke="midnightblue" d="M741.43,-180C666.8,-171.82 548.43,-158.33 436.18,-143.12"/>
<polygon fill="midnightblue" stroke="midnightblue" points="436.41,-139.62 426.03,-141.74 435.47,-146.55 436.41,-139.62"/>
</g>
<!-- Node22&#45;&gt;Node20 -->
<g id="edge36" class="edge">
<title>Node22&#45;&gt;Node20</title>
<path fill="none" stroke="midnightblue" d="M762.44,-179.44C695.93,-168.82 583.71,-150.89 521.98,-141.03"/>
<polygon fill="midnightblue" stroke="midnightblue" points="522.22,-137.52 511.79,-139.4 521.12,-144.43 522.22,-137.52"/>
</g>
<!-- Node23 -->
<g id="node23" class="node">
<title>Node23</title>
<g id="a_node23"><a xlink:title=" ">
<polygon fill="white" stroke="#bfbfbf" points="796.5,-123.5 796.5,-142.5 837.5,-142.5 837.5,-123.5 796.5,-123.5"/>
<text text-anchor="middle" x="817" y="-130.5" font-family="Helvetica,sans-Serif" font-size="10.00">tuple</text>
</a>
</g>
</g>
<!-- Node22&#45;&gt;Node23 -->
<g id="edge37" class="edge">
<title>Node22&#45;&gt;Node23</title>
<path fill="none" stroke="midnightblue" d="M816.17,-179.08C816.3,-172.01 816.48,-161.86 816.65,-152.99"/>
<polygon fill="midnightblue" stroke="midnightblue" points="820.15,-152.81 816.84,-142.75 813.15,-152.68 820.15,-152.81"/>
</g>
<!-- Node24 -->
<g id="node24" class="node">
<title>Node24</title>
<g id="a_node24"><a xlink:title=" ">
<polygon fill="white" stroke="#bfbfbf" points="1483,-123.5 1483,-142.5 1521,-142.5 1521,-123.5 1483,-123.5"/>
<text text-anchor="middle" x="1502" y="-130.5" font-family="Helvetica,sans-Serif" font-size="10.00">map</text>
</a>
</g>
</g>
<!-- Node22&#45;&gt;Node24 -->
<g id="edge38" class="edge">
<title>Node22&#45;&gt;Node24</title>
<path fill="none" stroke="midnightblue" d="M890.93,-184.03C1007.47,-177.52 1239.13,-163.26 1435,-143 1447.42,-141.72 1461.1,-139.94 1472.83,-138.31"/>
<polygon fill="midnightblue" stroke="midnightblue" points="1473.57,-141.74 1482.98,-136.87 1472.58,-134.81 1473.57,-141.74"/>
</g>
<!-- Node27&#45;&gt;Node3 -->
<g id="edge46" class="edge">
<title>Node27&#45;&gt;Node3</title>
<path fill="none" stroke="midnightblue" d="M708.93,-179.44C771.8,-169.83 873.77,-154.23 940.36,-144.04"/>
<polygon fill="midnightblue" stroke="midnightblue" points="940.97,-147.49 950.33,-142.52 939.91,-140.57 940.97,-147.49"/>
</g>
<!-- Node27&#45;&gt;Node4 -->
<g id="edge47" class="edge">
<title>Node27&#45;&gt;Node4</title>
<path fill="none" stroke="midnightblue" d="M636,-179.41C605.51,-164.05 542.59,-132.59 520,-123 490.72,-110.58 456.72,-98.39 431.74,-89.84"/>
<polygon fill="midnightblue" stroke="midnightblue" points="432.55,-86.42 421.96,-86.52 430.3,-93.05 432.55,-86.42"/>
</g>
<!-- Node27&#45;&gt;Node5 -->
<g id="edge48" class="edge">
<title>Node27&#45;&gt;Node5</title>
<path fill="none" stroke="midnightblue" d="M647.9,-179.26C632.19,-152.31 584.26,-70.12 563.16,-33.92"/>
<polygon fill="midnightblue" stroke="midnightblue" points="566.03,-31.9 557.97,-25.02 559.98,-35.42 566.03,-31.9"/>
</g>
<!-- Node27&#45;&gt;Node8 -->
<g id="edge51" class="edge">
<title>Node27&#45;&gt;Node8</title>
<path fill="none" stroke="midnightblue" d="M668.72,-179.36C693.39,-166.04 742.93,-140.22 787,-123 821.82,-109.39 862.53,-97.35 892.59,-89.15"/>
<polygon fill="midnightblue" stroke="midnightblue" points="893.6,-92.51 902.35,-86.53 891.78,-85.75 893.6,-92.51"/>
</g>
<!-- Node27&#45;&gt;Node19 -->
<g id="edge49" class="edge">
<title>Node27&#45;&gt;Node19</title>
<path fill="none" stroke="midnightblue" d="M609.27,-179.44C560.82,-169.96 482.67,-154.67 430.58,-144.48"/>
<polygon fill="midnightblue" stroke="midnightblue" points="431.01,-141 420.53,-142.52 429.67,-147.87 431.01,-141"/>
</g>
<!-- Node27&#45;&gt;Node20 -->
<g id="edge53" class="edge">
<title>Node27&#45;&gt;Node20</title>
<path fill="none" stroke="midnightblue" d="M625.27,-179.44C595.57,-170.28 548.28,-155.69 515.33,-145.52"/>
<polygon fill="midnightblue" stroke="midnightblue" points="516.19,-142.12 505.6,-142.52 514.12,-148.81 516.19,-142.12"/>
</g>
<!-- Node27&#45;&gt;Node25 -->
<g id="edge50" class="edge">
<title>Node27&#45;&gt;Node25</title>
<path fill="none" stroke="midnightblue" d="M723.2,-179.89C726.17,-179.58 729.12,-179.28 732,-179 899.94,-162.49 1097.46,-147.18 1202.15,-139.38"/>
<polygon fill="midnightblue" stroke="midnightblue" points="1202.58,-142.86 1212.29,-138.63 1202.06,-135.88 1202.58,-142.86"/>
</g>
<!-- Node27&#45;&gt;Node26 -->
<g id="edge52" class="edge">
<title>Node27&#45;&gt;Node26</title>
<path fill="none" stroke="midnightblue" d="M723.19,-179.8C726.17,-179.52 729.11,-179.25 732,-179 1001.9,-155.76 1074.31,-178.01 1347.28,-142.87"/>
<polygon fill="midnightblue" stroke="midnightblue" points="1348.03,-146.31 1357.49,-141.55 1347.12,-139.37 1348.03,-146.31"/>
</g>
<!-- Node40&#45;&gt;Node24 -->
<g id="edge78" class="edge">
<title>Node40&#45;&gt;Node24</title>
<path fill="none" stroke="midnightblue" d="M1754.2,-235.82C1830,-227.43 1932.63,-213.58 1945,-199 1950.75,-192.22 1950.96,-185.6 1945,-179 1917.24,-148.27 1625.61,-137.46 1531.27,-134.75"/>
<polygon fill="midnightblue" stroke="midnightblue" points="1531.11,-131.24 1521.02,-134.46 1530.92,-138.24 1531.11,-131.24"/>
</g>
<!-- Node40&#45;&gt;Node29 -->
<g id="edge81" class="edge">
<title>Node40&#45;&gt;Node29</title>
<path fill="none" stroke="midnightblue" d="M1658.02,-235.32C1644.45,-226.9 1623.62,-213.97 1607.68,-204.07"/>
<polygon fill="midnightblue" stroke="midnightblue" points="1609.29,-200.95 1598.94,-198.65 1605.59,-206.9 1609.29,-200.95"/>
</g>
<!-- Node41 -->
<g id="node41" class="node">
<title>Node41</title>
<g id="a_node41"><a xlink:title=" ">
<polygon fill="white" stroke="#bfbfbf" points="1737.5,-179.5 1737.5,-198.5 1788.5,-198.5 1788.5,-179.5 1737.5,-179.5"/>
<text text-anchor="middle" x="1763" y="-186.5" font-family="Helvetica,sans-Serif" font-size="10.00">variant</text>
</a>
</g>
</g>
<!-- Node40&#45;&gt;Node41 -->
<g id="edge79" class="edge">
<title>Node40&#45;&gt;Node41</title>
<path fill="none" stroke="midnightblue" d="M1686.62,-235.32C1700.95,-226.82 1723.01,-213.73 1739.75,-203.8"/>
<polygon fill="midnightblue" stroke="midnightblue" points="1741.6,-206.77 1748.42,-198.65 1738.03,-200.75 1741.6,-206.77"/>
</g>
<!-- Node42 -->
<g id="node42" class="node">
<title>Node42</title>
<g id="a_node42"><a xlink:title=" ">
<polygon fill="white" stroke="#bfbfbf" points="1807,-179.5 1807,-198.5 1851,-198.5 1851,-179.5 1807,-179.5"/>
<text text-anchor="middle" x="1829" y="-186.5" font-family="Helvetica,sans-Serif" font-size="10.00">string</text>
</a>
</g>
</g>
<!-- Node40&#45;&gt;Node42 -->
<g id="edge80" class="edge">
<title>Node40&#45;&gt;Node42</title>
<path fill="none" stroke="midnightblue" d="M1696.88,-235.44C1724.07,-226.09 1767.69,-211.09 1797.31,-200.9"/>
<polygon fill="midnightblue" stroke="midnightblue" points="1798.46,-204.21 1806.78,-197.64 1796.18,-197.59 1798.46,-204.21"/>
</g>
<!-- Node43 -->
<g id="node43" class="node">
<title>Node43</title>
<g id="a_node43"><a xlink:title=" ">
<polygon fill="white" stroke="#bfbfbf" points="1869.5,-179.5 1869.5,-198.5 1936.5,-198.5 1936.5,-179.5 1869.5,-179.5"/>
<text text-anchor="middle" x="1903" y="-186.5" font-family="Helvetica,sans-Serif" font-size="10.00">globals.hh</text>
</a>
</g>
</g>
<!-- Node40&#45;&gt;Node43 -->
<g id="edge82" class="edge">
<title>Node40&#45;&gt;Node43</title>
<path fill="none" stroke="midnightblue" d="M1708.6,-235.44C1749.56,-225.87 1815.86,-210.37 1859.45,-200.18"/>
<polygon fill="midnightblue" stroke="midnightblue" points="1860.26,-203.59 1869.2,-197.9 1858.66,-196.77 1860.26,-203.59"/>
</g>
<!-- Node44 -->
<g id="node44" class="node">
<title>Node44</title>
<g id="a_node44"><a xlink:title=" ">
<polygon fill="white" stroke="#bfbfbf" points="1636,-179.5 1636,-198.5 1720,-198.5 1720,-179.5 1636,-179.5"/>
<text text-anchor="middle" x="1678" y="-186.5" font-family="Helvetica,sans-Serif" font-size="10.00">boost/any.hpp</text>
</a>
</g>
</g>
<!-- Node40&#45;&gt;Node44 -->
<g id="edge83" class="edge">
<title>Node40&#45;&gt;Node44</title>
<path fill="none" stroke="midnightblue" d="M1672.99,-235.08C1673.79,-227.93 1674.93,-217.64 1675.92,-208.69"/>
<polygon fill="midnightblue" stroke="midnightblue" points="1679.4,-209.08 1677.03,-198.75 1672.44,-208.3 1679.4,-209.08"/>
</g>
<!-- Node46 -->
<g id="node46" class="node">
<title>Node46</title>
<g id="a_node46"><a xlink:title=" ">
<polygon fill="white" stroke="#bfbfbf" points="3013,-179.5 3013,-198.5 3063,-198.5 3063,-179.5 3013,-179.5"/>
<text text-anchor="middle" x="3038" y="-186.5" font-family="Helvetica,sans-Serif" font-size="10.00">stdio.h</text>
</a>
</g>
</g>
<!-- Node45&#45;&gt;Node46 -->
<g id="edge86" class="edge">
<title>Node45&#45;&gt;Node46</title>
<path fill="none" stroke="midnightblue" d="M3010.45,-235.08C3015.01,-227.61 3021.67,-216.72 3027.29,-207.52"/>
<polygon fill="midnightblue" stroke="midnightblue" points="3030.42,-209.11 3032.65,-198.75 3024.45,-205.46 3030.42,-209.11"/>
</g>
<!-- Node47 -->
<g id="node47" class="node">
<title>Node47</title>
<g id="a_node47"><a xlink:title=" ">
<polygon fill="white" stroke="#bfbfbf" points="2947,-179.5 2947,-198.5 2995,-198.5 2995,-179.5 2947,-179.5"/>
<text text-anchor="middle" x="2971" y="-186.5" font-family="Helvetica,sans-Serif" font-size="10.00">time.h</text>
</a>
</g>
</g>
<!-- Node45&#45;&gt;Node47 -->
<g id="edge87" class="edge">
<title>Node45&#45;&gt;Node47</title>
<path fill="none" stroke="midnightblue" d="M2999.39,-235.08C2994.63,-227.53 2987.68,-216.49 2981.85,-207.23"/>
<polygon fill="midnightblue" stroke="midnightblue" points="2984.8,-205.35 2976.51,-198.75 2978.88,-209.08 2984.8,-205.35"/>
</g>
</g>
</svg>
