<?xml version="1.0" encoding="UTF-8" standalone="no"?>
<!DOCTYPE svg PUBLIC "-//W3C//DTD SVG 1.1//EN"
 "http://www.w3.org/Graphics/SVG/1.1/DTD/svg11.dtd">
<!-- Generated by graphviz version 2.43.0 (0)
 -->
<!-- Title: OMSimMDOMFlasher.cc Pages: 1 -->
<svg width="1045pt" height="375pt"
 viewBox="0.00 0.00 1044.50 375.00" xmlns="http://www.w3.org/2000/svg" xmlns:xlink="http://www.w3.org/1999/xlink">
<g id="graph0" class="graph" transform="scale(1 1) rotate(0) translate(4 371)">
<title>OMSimMDOMFlasher.cc</title>
<polygon fill="white" stroke="transparent" points="-4,4 -4,-371 1040.5,-371 1040.5,4 -4,4"/>
<!-- Node1 -->
<g id="node1" class="node">
<title>Node1</title>
<g id="a_node1"><a xlink:title=" ">
<polygon fill="#bfbfbf" stroke="black" points="717.5,-347.5 717.5,-366.5 851.5,-366.5 851.5,-347.5 717.5,-347.5"/>
<text text-anchor="middle" x="784.5" y="-354.5" font-family="Helvetica,sans-Serif" font-size="10.00">OMSimMDOMFlasher.cc</text>
</a>
</g>
</g>
<!-- Node2 -->
<g id="node2" class="node">
<title>Node2</title>
<g id="a_node2"><a xlink:href="_o_m_sim_m_d_o_m_8hh.html" target="_top" xlink:title="Construction of mDOM.">
<polygon fill="white" stroke="black" points="434.5,-291.5 434.5,-310.5 534.5,-310.5 534.5,-291.5 434.5,-291.5"/>
<text text-anchor="middle" x="484.5" y="-298.5" font-family="Helvetica,sans-Serif" font-size="10.00">OMSimMDOM.hh</text>
</a>
</g>
</g>
<!-- Node1&#45;&gt;Node2 -->
<g id="edge1" class="edge">
<title>Node1&#45;&gt;Node2</title>
<path fill="none" stroke="midnightblue" d="M736.96,-347.44C683.97,-337.9 598.3,-322.48 541.68,-312.29"/>
<polygon fill="midnightblue" stroke="midnightblue" points="542.28,-308.84 531.81,-310.52 541.04,-315.73 542.28,-308.84"/>
</g>
<!-- Node18 -->
<g id="node18" class="node">
<title>Node18</title>
<g id="a_node18"><a xlink:href="_o_m_sim_u_iinterface_8hh.html" target="_top" xlink:title="The OMSimUIinterface class provides a singleton interface to Geant4&#39;s UI manager.">
<polygon fill="white" stroke="black" points="724,-291.5 724,-310.5 845,-310.5 845,-291.5 724,-291.5"/>
<text text-anchor="middle" x="784.5" y="-298.5" font-family="Helvetica,sans-Serif" font-size="10.00">OMSimUIinterface.hh</text>
</a>
</g>
</g>
<!-- Node1&#45;&gt;Node18 -->
<g id="edge21" class="edge">
<title>Node1&#45;&gt;Node18</title>
<path fill="none" stroke="midnightblue" d="M784.5,-347.08C784.5,-340.01 784.5,-329.86 784.5,-320.99"/>
<polygon fill="midnightblue" stroke="midnightblue" points="788,-320.75 784.5,-310.75 781,-320.75 788,-320.75"/>
</g>
<!-- Node19 -->
<g id="node19" class="node">
<title>Node19</title>
<g id="a_node19"><a xlink:href="_o_m_sim_command_args_table_8hh.html" target="_top" xlink:title="Definition of the OMSimCommandArgsTable singleton class, which controls user args.">
<polygon fill="white" stroke="black" points="658.5,-235.5 658.5,-254.5 822.5,-254.5 822.5,-235.5 658.5,-235.5"/>
<text text-anchor="middle" x="740.5" y="-242.5" font-family="Helvetica,sans-Serif" font-size="10.00">OMSimCommandArgsTable.hh</text>
</a>
</g>
</g>
<!-- Node1&#45;&gt;Node19 -->
<g id="edge30" class="edge">
<title>Node1&#45;&gt;Node19</title>
<path fill="none" stroke="midnightblue" d="M760.03,-347.44C743.93,-340.38 724.12,-328.63 714.5,-311 705.9,-295.25 715.87,-276.04 725.85,-262.61"/>
<polygon fill="midnightblue" stroke="midnightblue" points="728.67,-264.69 732.21,-254.71 723.22,-260.3 728.67,-264.69"/>
</g>
<!-- Node27 -->
<g id="node27" class="node">
<title>Node27</title>
<g id="a_node27"><a xlink:title=" ">
<polygon fill="white" stroke="#bfbfbf" points="863,-291.5 863,-310.5 932,-310.5 932,-291.5 863,-291.5"/>
<text text-anchor="middle" x="897.5" y="-298.5" font-family="Helvetica,sans-Serif" font-size="10.00">G4Cons.hh</text>
</a>
</g>
</g>
<!-- Node1&#45;&gt;Node27 -->
<g id="edge31" class="edge">
<title>Node1&#45;&gt;Node27</title>
<path fill="none" stroke="midnightblue" d="M802.41,-347.44C820.75,-338.68 849.51,-324.94 870.59,-314.86"/>
<polygon fill="midnightblue" stroke="midnightblue" points="872.17,-317.99 879.68,-310.52 869.15,-311.67 872.17,-317.99"/>
</g>
<!-- Node28 -->
<g id="node28" class="node">
<title>Node28</title>
<g id="a_node28"><a xlink:title=" ">
<polygon fill="white" stroke="#bfbfbf" points="950.5,-291.5 950.5,-310.5 1036.5,-310.5 1036.5,-291.5 950.5,-291.5"/>
<text text-anchor="middle" x="993.5" y="-298.5" font-family="Helvetica,sans-Serif" font-size="10.00">G4Ellipsoid.hh</text>
</a>
</g>
</g>
<!-- Node1&#45;&gt;Node28 -->
<g id="edge32" class="edge">
<title>Node1&#45;&gt;Node28</title>
<path fill="none" stroke="midnightblue" d="M817.62,-347.44C853.62,-338.14 911.27,-323.25 950.69,-313.06"/>
<polygon fill="midnightblue" stroke="midnightblue" points="951.73,-316.41 960.54,-310.52 949.98,-309.63 951.73,-316.41"/>
</g>
<!-- Node3 -->
<g id="node3" class="node">
<title>Node3</title>
<g id="a_node3"><a xlink:href="_o_m_sim_m_d_o_m_flasher_8hh.html" target="_top" xlink:title="Defines the mDOMFlasher class for simulating the 10 flashers in an mDOM optical module.">
<polygon fill="white" stroke="black" points="267,-179.5 267,-198.5 402,-198.5 402,-179.5 267,-179.5"/>
<text text-anchor="middle" x="334.5" y="-186.5" font-family="Helvetica,sans-Serif" font-size="10.00">OMSimMDOMFlasher.hh</text>
</a>
</g>
</g>
<!-- Node2&#45;&gt;Node3 -->
<g id="edge2" class="edge">
<title>Node2&#45;&gt;Node3</title>
<path fill="none" stroke="midnightblue" d="M434.38,-292.81C408.44,-286.71 378.01,-275.51 357.5,-255 345.21,-242.71 339.47,-223.45 336.79,-209.08"/>
<polygon fill="midnightblue" stroke="midnightblue" points="340.2,-208.2 335.24,-198.84 333.28,-209.25 340.2,-208.2"/>
</g>
<!-- Node15 -->
<g id="node15" class="node">
<title>Node15</title>
<g id="a_node15"><a xlink:href="_o_m_sim_p_m_t_construction_8hh.html" target="_top" xlink:title="Construction of the PMTs.">
<polygon fill="white" stroke="black" points="458,-179.5 458,-198.5 607,-198.5 607,-179.5 458,-179.5"/>
<text text-anchor="middle" x="532.5" y="-186.5" font-family="Helvetica,sans-Serif" font-size="10.00">OMSimPMTConstruction.hh</text>
</a>
</g>
</g>
<!-- Node2&#45;&gt;Node15 -->
<g id="edge14" class="edge">
<title>Node2&#45;&gt;Node15</title>
<path fill="none" stroke="midnightblue" d="M490.78,-291.41C496.98,-282.63 506.4,-268.4 512.5,-255 519.38,-239.89 524.74,-221.77 528.17,-208.5"/>
<polygon fill="midnightblue" stroke="midnightblue" points="531.6,-209.22 530.59,-198.67 524.8,-207.55 531.6,-209.22"/>
</g>
<!-- Node17 -->
<g id="node17" class="node">
<title>Node17</title>
<g id="a_node17"><a xlink:href="_o_m_sim_optical_module_8hh.html" target="_top" xlink:title=" ">
<polygon fill="white" stroke="black" points="367,-235.5 367,-254.5 504,-254.5 504,-235.5 367,-235.5"/>
<text text-anchor="middle" x="435.5" y="-242.5" font-family="Helvetica,sans-Serif" font-size="10.00">OMSimOpticalModule.hh</text>
</a>
</g>
</g>
<!-- Node2&#45;&gt;Node17 -->
<g id="edge18" class="edge">
<title>Node2&#45;&gt;Node17</title>
<path fill="none" stroke="midnightblue" d="M476.41,-291.08C469.34,-283.3 458.91,-271.8 450.35,-262.37"/>
<polygon fill="midnightblue" stroke="midnightblue" points="452.75,-259.8 443.44,-254.75 447.57,-264.51 452.75,-259.8"/>
</g>
<!-- Node4 -->
<g id="node4" class="node">
<title>Node4</title>
<g id="a_node4"><a xlink:href="abc_detector_component_8hh.html" target="_top" xlink:title="Provides helper base class abcDetectorComponent for constructing and managing detector components in ...">
<polygon fill="white" stroke="black" points="402,-123.5 402,-142.5 549,-142.5 549,-123.5 402,-123.5"/>
<text text-anchor="middle" x="475.5" y="-130.5" font-family="Helvetica,sans-Serif" font-size="10.00">abcDetectorComponent.hh</text>
</a>
</g>
</g>
<!-- Node3&#45;&gt;Node4 -->
<g id="edge3" class="edge">
<title>Node3&#45;&gt;Node4</title>
<path fill="none" stroke="midnightblue" d="M356.84,-179.44C380.25,-170.48 417.24,-156.31 443.69,-146.18"/>
<polygon fill="midnightblue" stroke="midnightblue" points="445.18,-149.36 453.26,-142.52 442.67,-142.82 445.18,-149.36"/>
</g>
<!-- Node13 -->
<g id="node13" class="node">
<title>Node13</title>
<g id="a_node13"><a xlink:title=" ">
<polygon fill="white" stroke="#bfbfbf" points="285.5,-123.5 285.5,-142.5 383.5,-142.5 383.5,-123.5 285.5,-123.5"/>
<text text-anchor="middle" x="334.5" y="-130.5" font-family="Helvetica,sans-Serif" font-size="10.00">G4UnionSolid.hh</text>
</a>
</g>
</g>
<!-- Node3&#45;&gt;Node13 -->
<g id="edge12" class="edge">
<title>Node3&#45;&gt;Node13</title>
<path fill="none" stroke="midnightblue" d="M334.5,-179.08C334.5,-172.01 334.5,-161.86 334.5,-152.99"/>
<polygon fill="midnightblue" stroke="midnightblue" points="338,-152.75 334.5,-142.75 331,-152.75 338,-152.75"/>
</g>
<!-- Node14 -->
<g id="node14" class="node">
<title>Node14</title>
<g id="a_node14"><a xlink:title=" ">
<polygon fill="white" stroke="#bfbfbf" points="175.5,-123.5 175.5,-142.5 267.5,-142.5 267.5,-123.5 175.5,-123.5"/>
<text text-anchor="middle" x="221.5" y="-130.5" font-family="Helvetica,sans-Serif" font-size="10.00">G4Navigator.hh</text>
</a>
</g>
</g>
<!-- Node3&#45;&gt;Node14 -->
<g id="edge13" class="edge">
<title>Node3&#45;&gt;Node14</title>
<path fill="none" stroke="midnightblue" d="M316.59,-179.44C298.25,-170.68 269.49,-156.94 248.41,-146.86"/>
<polygon fill="midnightblue" stroke="midnightblue" points="249.85,-143.67 239.32,-142.52 246.83,-149.99 249.85,-143.67"/>
</g>
<!-- Node5 -->
<g id="node5" class="node">
<title>Node5</title>
<g id="a_node5"><a xlink:href="_o_m_sim_input_data_8hh.html" target="_top" xlink:title="Definition of ParameterTable and InputDataManager.">
<polygon fill="white" stroke="black" points="163,-67.5 163,-86.5 278,-86.5 278,-67.5 163,-67.5"/>
<text text-anchor="middle" x="220.5" y="-74.5" font-family="Helvetica,sans-Serif" font-size="10.00">OMSimInputData.hh</text>
</a>
</g>
</g>
<!-- Node4&#45;&gt;Node5 -->
<g id="edge4" class="edge">
<title>Node4&#45;&gt;Node5</title>
<path fill="none" stroke="midnightblue" d="M435.09,-123.44C390.52,-114 318.73,-98.8 270.61,-88.61"/>
<polygon fill="midnightblue" stroke="midnightblue" points="271.22,-85.16 260.72,-86.52 269.77,-92.01 271.22,-85.16"/>
</g>
<!-- Node9 -->
<g id="node9" class="node">
<title>Node9</title>
<g id="a_node9"><a xlink:title=" ">
<polygon fill="white" stroke="#bfbfbf" points="296,-67.5 296,-86.5 403,-86.5 403,-67.5 296,-67.5"/>
<text text-anchor="middle" x="349.5" y="-74.5" font-family="Helvetica,sans-Serif" font-size="10.00">G4Transform3D.hh</text>
</a>
</g>
</g>
<!-- Node4&#45;&gt;Node9 -->
<g id="edge8" class="edge">
<title>Node4&#45;&gt;Node9</title>
<path fill="none" stroke="midnightblue" d="M455.53,-123.44C434.89,-114.6 402.44,-100.69 378.87,-90.59"/>
<polygon fill="midnightblue" stroke="midnightblue" points="379.94,-87.24 369.37,-86.52 377.18,-93.67 379.94,-87.24"/>
</g>
<!-- Node10 -->
<g id="node10" class="node">
<title>Node10</title>
<g id="a_node10"><a xlink:title=" ">
<polygon fill="white" stroke="#bfbfbf" points="421.5,-67.5 421.5,-86.5 529.5,-86.5 529.5,-67.5 421.5,-67.5"/>
<text text-anchor="middle" x="475.5" y="-74.5" font-family="Helvetica,sans-Serif" font-size="10.00">G4VisAttributes.hh</text>
</a>
</g>
</g>
<!-- Node4&#45;&gt;Node10 -->
<g id="edge9" class="edge">
<title>Node4&#45;&gt;Node10</title>
<path fill="none" stroke="midnightblue" d="M475.5,-123.08C475.5,-116.01 475.5,-105.86 475.5,-96.99"/>
<polygon fill="midnightblue" stroke="midnightblue" points="479,-96.75 475.5,-86.75 472,-96.75 479,-96.75"/>
</g>
<!-- Node11 -->
<g id="node11" class="node">
<title>Node11</title>
<g id="a_node11"><a xlink:title=" ">
<polygon fill="white" stroke="#bfbfbf" points="548,-67.5 548,-86.5 673,-86.5 673,-67.5 548,-67.5"/>
<text text-anchor="middle" x="610.5" y="-74.5" font-family="Helvetica,sans-Serif" font-size="10.00">G4SubtractionSolid.hh</text>
</a>
</g>
</g>
<!-- Node4&#45;&gt;Node11 -->
<g id="edge10" class="edge">
<title>Node4&#45;&gt;Node11</title>
<path fill="none" stroke="midnightblue" d="M496.89,-123.44C519.21,-114.52 554.4,-100.44 579.71,-90.32"/>
<polygon fill="midnightblue" stroke="midnightblue" points="581.22,-93.48 589.21,-86.52 578.62,-86.98 581.22,-93.48"/>
</g>
<!-- Node12 -->
<g id="node12" class="node">
<title>Node12</title>
<g id="a_node12"><a xlink:title=" ">
<polygon fill="white" stroke="#bfbfbf" points="691.5,-67.5 691.5,-86.5 801.5,-86.5 801.5,-67.5 691.5,-67.5"/>
<text text-anchor="middle" x="746.5" y="-74.5" font-family="Helvetica,sans-Serif" font-size="10.00">G4PVPlacement.hh</text>
</a>
</g>
</g>
<!-- Node4&#45;&gt;Node12 -->
<g id="edge11" class="edge">
<title>Node4&#45;&gt;Node12</title>
<path fill="none" stroke="midnightblue" d="M518.44,-123.44C566.01,-113.96 642.74,-98.67 693.89,-88.48"/>
<polygon fill="midnightblue" stroke="midnightblue" points="694.64,-91.9 703.76,-86.52 693.27,-85.04 694.64,-91.9"/>
</g>
<!-- Node6 -->
<g id="node6" class="node">
<title>Node6</title>
<g id="a_node6"><a xlink:title=" ">
<polygon fill="white" stroke="#bfbfbf" points="0,-6 0,-25 143,-25 143,-6 0,-6"/>
<text text-anchor="middle" x="71.5" y="-13" font-family="Helvetica,sans-Serif" font-size="10.00">G4OpBoundaryProcess.hh</text>
</a>
</g>
</g>
<!-- Node5&#45;&gt;Node6 -->
<g id="edge5" class="edge">
<title>Node5&#45;&gt;Node6</title>
<path fill="none" stroke="midnightblue" d="M199.15,-67.48C173.81,-57.36 131.36,-40.4 102.43,-28.85"/>
<polygon fill="midnightblue" stroke="midnightblue" points="103.39,-25.47 92.81,-25.01 100.8,-31.97 103.39,-25.47"/>
</g>
<!-- Node7 -->
<g id="node7" class="node">
<title>Node7</title>
<g id="a_node7"><a xlink:title=" ">
<polygon fill="white" stroke="#bfbfbf" points="161,-6 161,-25 280,-25 280,-6 161,-6"/>
<text text-anchor="middle" x="220.5" y="-13" font-family="Helvetica,sans-Serif" font-size="10.00">G4SystemOfUnits.hh</text>
</a>
</g>
</g>
<!-- Node5&#45;&gt;Node7 -->
<g id="edge6" class="edge">
<title>Node5&#45;&gt;Node7</title>
<path fill="none" stroke="midnightblue" d="M220.5,-67.48C220.5,-59.08 220.5,-45.98 220.5,-35.16"/>
<polygon fill="midnightblue" stroke="midnightblue" points="224,-35.01 220.5,-25.01 217,-35.01 224,-35.01"/>
</g>
<!-- Node8 -->
<g id="node8" class="node">
<title>Node8</title>
<g id="a_node8"><a xlink:title=" ">
<polygon fill="white" stroke="#bfbfbf" points="298,-0.5 298,-30.5 411,-30.5 411,-0.5 298,-0.5"/>
<text text-anchor="start" x="306" y="-18.5" font-family="Helvetica,sans-Serif" font-size="10.00">boost/property_tree</text>
<text text-anchor="middle" x="354.5" y="-7.5" font-family="Helvetica,sans-Serif" font-size="10.00">/json_parser.hpp</text>
</a>
</g>
</g>
<!-- Node5&#45;&gt;Node8 -->
<g id="edge7" class="edge">
<title>Node5&#45;&gt;Node8</title>
<path fill="none" stroke="midnightblue" d="M239.7,-67.48C258.87,-58.96 288.92,-45.62 313.47,-34.72"/>
<polygon fill="midnightblue" stroke="midnightblue" points="315.2,-37.78 322.92,-30.52 312.36,-31.38 315.2,-37.78"/>
</g>
<!-- Node15&#45;&gt;Node4 -->
<g id="edge15" class="edge">
<title>Node15&#45;&gt;Node4</title>
<path fill="none" stroke="midnightblue" d="M523.34,-179.32C515,-171.42 502.47,-159.55 492.32,-149.94"/>
<polygon fill="midnightblue" stroke="midnightblue" points="494.49,-147.17 484.82,-142.83 489.68,-152.25 494.49,-147.17"/>
</g>
<!-- Node15&#45;&gt;Node13 -->
<g id="edge16" class="edge">
<title>Node15&#45;&gt;Node13</title>
<path fill="none" stroke="midnightblue" d="M501.13,-179.44C467.24,-170.2 413.1,-155.44 375.78,-145.26"/>
<polygon fill="midnightblue" stroke="midnightblue" points="376.3,-141.77 365.73,-142.52 374.45,-148.52 376.3,-141.77"/>
</g>
<!-- Node16 -->
<g id="node16" class="node">
<title>Node16</title>
<g id="a_node16"><a xlink:title=" ">
<polygon fill="white" stroke="#bfbfbf" points="567,-123.5 567,-142.5 634,-142.5 634,-123.5 567,-123.5"/>
<text text-anchor="middle" x="600.5" y="-130.5" font-family="Helvetica,sans-Serif" font-size="10.00">G4Tubs.hh</text>
</a>
</g>
</g>
<!-- Node15&#45;&gt;Node16 -->
<g id="edge17" class="edge">
<title>Node15&#45;&gt;Node16</title>
<path fill="none" stroke="midnightblue" d="M543.43,-179.32C553.67,-171.18 569.22,-158.84 581.5,-149.09"/>
<polygon fill="midnightblue" stroke="midnightblue" points="583.72,-151.79 589.38,-142.83 579.37,-146.31 583.72,-151.79"/>
</g>
<!-- Node17&#45;&gt;Node4 -->
<g id="edge19" class="edge">
<title>Node17&#45;&gt;Node4</title>
<path fill="none" stroke="midnightblue" d="M436.28,-235.32C437.64,-222.61 441.03,-198.32 448.5,-179 452.28,-169.23 458.11,-159.15 463.39,-151.02"/>
<polygon fill="midnightblue" stroke="midnightblue" points="466.45,-152.74 469.17,-142.5 460.66,-148.81 466.45,-152.74"/>
</g>
<!-- Node17&#45;&gt;Node15 -->
<g id="edge20" class="edge">
<title>Node17&#45;&gt;Node15</title>
<path fill="none" stroke="midnightblue" d="M451.08,-235.32C466.5,-226.74 490.31,-213.49 508.21,-203.52"/>
<polygon fill="midnightblue" stroke="midnightblue" points="509.92,-206.58 516.95,-198.65 506.51,-200.46 509.92,-206.58"/>
</g>
<!-- Node18&#45;&gt;Node19 -->
<g id="edge22" class="edge">
<title>Node18&#45;&gt;Node19</title>
<path fill="none" stroke="midnightblue" d="M777.23,-291.08C770.96,-283.38 761.71,-272.03 754.07,-262.65"/>
<polygon fill="midnightblue" stroke="midnightblue" points="756.66,-260.29 747.63,-254.75 751.23,-264.71 756.66,-260.29"/>
</g>
<!-- Node26 -->
<g id="node26" class="node">
<title>Node26</title>
<g id="a_node26"><a xlink:title=" ">
<polygon fill="white" stroke="#bfbfbf" points="840.5,-235.5 840.5,-254.5 938.5,-254.5 938.5,-235.5 840.5,-235.5"/>
<text text-anchor="middle" x="889.5" y="-242.5" font-family="Helvetica,sans-Serif" font-size="10.00">G4UImanager.hh</text>
</a>
</g>
</g>
<!-- Node18&#45;&gt;Node26 -->
<g id="edge29" class="edge">
<title>Node18&#45;&gt;Node26</title>
<path fill="none" stroke="midnightblue" d="M801.37,-291.32C818.21,-282.66 844.31,-269.24 863.74,-259.25"/>
<polygon fill="midnightblue" stroke="midnightblue" points="865.38,-262.34 872.67,-254.65 862.18,-256.12 865.38,-262.34"/>
</g>
<!-- Node20 -->
<g id="node20" class="node">
<title>Node20</title>
<g id="a_node20"><a xlink:href="_o_m_sim_logger_8hh.html" target="_top" xlink:title=" ">
<polygon fill="white" stroke="black" points="887,-179.5 887,-198.5 986,-198.5 986,-179.5 887,-179.5"/>
<text text-anchor="middle" x="936.5" y="-186.5" font-family="Helvetica,sans-Serif" font-size="10.00">OMSimLogger.hh</text>
</a>
</g>
</g>
<!-- Node19&#45;&gt;Node20 -->
<g id="edge23" class="edge">
<title>Node19&#45;&gt;Node20</title>
<path fill="none" stroke="midnightblue" d="M771.56,-235.44C805.1,-226.2 858.7,-211.44 895.64,-201.26"/>
<polygon fill="midnightblue" stroke="midnightblue" points="896.88,-204.55 905.59,-198.52 895.02,-197.8 896.88,-204.55"/>
</g>
<!-- Node23 -->
<g id="node23" class="node">
<title>Node23</title>
<g id="a_node23"><a xlink:title=" ">
<polygon fill="white" stroke="#bfbfbf" points="625,-179.5 625,-198.5 680,-198.5 680,-179.5 625,-179.5"/>
<text text-anchor="middle" x="652.5" y="-186.5" font-family="Helvetica,sans-Serif" font-size="10.00">fstream</text>
</a>
</g>
</g>
<!-- Node19&#45;&gt;Node23 -->
<g id="edge26" class="edge">
<title>Node19&#45;&gt;Node23</title>
<path fill="none" stroke="midnightblue" d="M726.36,-235.32C712.63,-226.9 691.56,-213.97 675.44,-204.07"/>
<polygon fill="midnightblue" stroke="midnightblue" points="676.96,-200.9 666.6,-198.65 673.3,-206.87 676.96,-200.9"/>
</g>
<!-- Node24 -->
<g id="node24" class="node">
<title>Node24</title>
<g id="a_node24"><a xlink:title=" ">
<polygon fill="white" stroke="#bfbfbf" points="698.5,-179.5 698.5,-198.5 782.5,-198.5 782.5,-179.5 698.5,-179.5"/>
<text text-anchor="middle" x="740.5" y="-186.5" font-family="Helvetica,sans-Serif" font-size="10.00">boost/any.hpp</text>
</a>
</g>
</g>
<!-- Node19&#45;&gt;Node24 -->
<g id="edge27" class="edge">
<title>Node19&#45;&gt;Node24</title>
<path fill="none" stroke="midnightblue" d="M740.5,-235.08C740.5,-228.01 740.5,-217.86 740.5,-208.99"/>
<polygon fill="midnightblue" stroke="midnightblue" points="744,-208.75 740.5,-198.75 737,-208.75 744,-208.75"/>
</g>
<!-- Node25 -->
<g id="node25" class="node">
<title>Node25</title>
<g id="a_node25"><a xlink:title=" ">
<polygon fill="white" stroke="#bfbfbf" points="800.5,-179.5 800.5,-198.5 868.5,-198.5 868.5,-179.5 800.5,-179.5"/>
<text text-anchor="middle" x="834.5" y="-186.5" font-family="Helvetica,sans-Serif" font-size="10.00">sys/time.h</text>
</a>
</g>
</g>
<!-- Node19&#45;&gt;Node25 -->
<g id="edge28" class="edge">
<title>Node19&#45;&gt;Node25</title>
<path fill="none" stroke="midnightblue" d="M755.6,-235.32C770.4,-226.82 793.19,-213.73 810.48,-203.8"/>
<polygon fill="midnightblue" stroke="midnightblue" points="812.51,-206.67 819.43,-198.65 809.02,-200.6 812.51,-206.67"/>
</g>
<!-- Node21 -->
<g id="node21" class="node">
<title>Node21</title>
<g id="a_node21"><a xlink:title=" ">
<polygon fill="white" stroke="#bfbfbf" points="877.5,-123.5 877.5,-142.5 927.5,-142.5 927.5,-123.5 877.5,-123.5"/>
<text text-anchor="middle" x="902.5" y="-130.5" font-family="Helvetica,sans-Serif" font-size="10.00">stdio.h</text>
</a>
</g>
</g>
<!-- Node20&#45;&gt;Node21 -->
<g id="edge24" class="edge">
<title>Node20&#45;&gt;Node21</title>
<path fill="none" stroke="midnightblue" d="M930.89,-179.08C926.13,-171.53 919.18,-160.49 913.35,-151.23"/>
<polygon fill="midnightblue" stroke="midnightblue" points="916.3,-149.35 908.01,-142.75 910.38,-153.08 916.3,-149.35"/>
</g>
<!-- Node22 -->
<g id="node22" class="node">
<title>Node22</title>
<g id="a_node22"><a xlink:title=" ">
<polygon fill="white" stroke="#bfbfbf" points="945.5,-123.5 945.5,-142.5 993.5,-142.5 993.5,-123.5 945.5,-123.5"/>
<text text-anchor="middle" x="969.5" y="-130.5" font-family="Helvetica,sans-Serif" font-size="10.00">time.h</text>
</a>
</g>
</g>
<!-- Node20&#45;&gt;Node22 -->
<g id="edge25" class="edge">
<title>Node20&#45;&gt;Node22</title>
<path fill="none" stroke="midnightblue" d="M941.95,-179.08C946.51,-171.61 953.17,-160.72 958.79,-151.52"/>
<polygon fill="midnightblue" stroke="midnightblue" points="961.92,-153.11 964.15,-142.75 955.95,-149.46 961.92,-153.11"/>
</g>
</g>
</svg>
