<?xml version="1.0" encoding="UTF-8" standalone="no"?>
<!DOCTYPE svg PUBLIC "-//W3C//DTD SVG 1.1//EN"
 "http://www.w3.org/Graphics/SVG/1.1/DTD/svg11.dtd">
<!-- Generated by graphviz version 2.43.0 (0)
 -->
<!-- Title: OMSimMDOMFlasher.hh Pages: 1 -->
<svg width="656pt" height="196pt"
 viewBox="0.00 0.00 655.54 196.00" xmlns="http://www.w3.org/2000/svg" xmlns:xlink="http://www.w3.org/1999/xlink">
<g id="graph0" class="graph" transform="scale(1 1) rotate(0) translate(4 192)">
<title>OMSimMDOMFlasher.hh</title>
<polygon fill="white" stroke="transparent" points="-4,4 -4,-192 651.54,-192 651.54,4 -4,4"/>
<!-- Node1 -->
<g id="node1" class="node">
<title>Node1</title>
<g id="a_node1"><a xlink:title=" ">
<polygon fill="#bfbfbf" stroke="black" points="221.5,-168.5 221.5,-187.5 356.5,-187.5 356.5,-168.5 221.5,-168.5"/>
<text text-anchor="middle" x="289" y="-175.5" font-family="Helvetica,sans-Serif" font-size="10.00">OMSimMDOMFlasher.hh</text>
</a>
</g>
</g>
<!-- Node2 -->
<g id="node2" class="node">
<title>Node2</title>
<g id="a_node2"><a xlink:href="_o_m_sim_m_d_o_m_8hh.html" target="_top" xlink:title=" ">
<polygon fill="white" stroke="black" points="261,-112.5 261,-131.5 361,-131.5 361,-112.5 261,-112.5"/>
<text text-anchor="middle" x="311" y="-119.5" font-family="Helvetica,sans-Serif" font-size="10.00">OMSimMDOM.hh</text>
</a>
</g>
</g>
<!-- Node1&#45;&gt;Node2 -->
<g id="edge1" class="edge">
<title>Node1&#45;&gt;Node2</title>
<path fill="none" stroke="midnightblue" d="M296.46,-158.69C300.17,-149.59 304.48,-139.01 307.43,-131.75"/>
<polygon fill="midnightblue" stroke="midnightblue" points="293.16,-157.5 292.63,-168.08 299.65,-160.14 293.16,-157.5"/>
</g>
<!-- Node3 -->
<g id="node3" class="node">
<title>Node3</title>
<g id="a_node3"><a xlink:href="_o_m_sim_m_d_o_m_8cc.html" target="_top" xlink:title="Construction of mDOM.">
<polygon fill="white" stroke="black" points="0,-56.5 0,-75.5 98,-75.5 98,-56.5 0,-56.5"/>
<text text-anchor="middle" x="49" y="-63.5" font-family="Helvetica,sans-Serif" font-size="10.00">OMSimMDOM.cc</text>
</a>
</g>
</g>
<!-- Node1&#45;&gt;Node3 -->
<g id="edge9" class="edge">
<title>Node1&#45;&gt;Node3</title>
<path fill="none" stroke="midnightblue" d="M260.99,-164.16C211.47,-141.47 109.72,-94.83 67.74,-75.59"/>
<polygon fill="midnightblue" stroke="midnightblue" points="259.62,-167.38 270.17,-168.37 262.54,-161.02 259.62,-167.38"/>
</g>
<!-- Node4 -->
<g id="node4" class="node">
<title>Node4</title>
<g id="a_node4"><a xlink:href="_o_m_sim_m_d_o_m_flasher_8cc.html" target="_top" xlink:title=" ">
<polygon fill="white" stroke="black" points="116,-56.5 116,-75.5 250,-75.5 250,-56.5 116,-56.5"/>
<text text-anchor="middle" x="183" y="-63.5" font-family="Helvetica,sans-Serif" font-size="10.00">OMSimMDOMFlasher.cc</text>
</a>
</g>
</g>
<!-- Node1&#45;&gt;Node4 -->
<g id="edge10" class="edge">
<title>Node1&#45;&gt;Node4</title>
<path fill="none" stroke="midnightblue" d="M273.48,-160.9C250.69,-137.25 208.97,-93.95 191.28,-75.59"/>
<polygon fill="midnightblue" stroke="midnightblue" points="271.22,-163.6 280.68,-168.37 276.26,-158.74 271.22,-163.6"/>
</g>
<!-- Node7 -->
<g id="node7" class="node">
<title>Node7</title>
<g id="a_node7"><a xlink:href="_o_m_sim_detector_construction_8cc.html" target="_top" xlink:title="User defined detector.">
<polygon fill="white" stroke="black" points="411.5,-0.5 411.5,-19.5 580.5,-19.5 580.5,-0.5 411.5,-0.5"/>
<text text-anchor="middle" x="496" y="-7.5" font-family="Helvetica,sans-Serif" font-size="10.00">OMSimDetectorConstruction.cc</text>
</a>
</g>
</g>
<!-- Node1&#45;&gt;Node7 -->
<g id="edge11" class="edge">
<title>Node1&#45;&gt;Node7</title>
<path fill="none" stroke="midnightblue" d="M359.41,-166.89C452.06,-151.97 607.17,-120.91 641,-76 664.57,-44.71 617.38,-28.14 570.68,-19.58"/>
<polygon fill="midnightblue" stroke="midnightblue" points="358.59,-163.47 349.26,-168.5 359.68,-170.39 358.59,-163.47"/>
</g>
<!-- Node2&#45;&gt;Node3 -->
<g id="edge2" class="edge">
<title>Node2&#45;&gt;Node3</title>
<path fill="none" stroke="midnightblue" d="M259.62,-110.41C210.1,-100.2 136.14,-84.96 90.32,-75.52"/>
<polygon fill="midnightblue" stroke="midnightblue" points="258.98,-113.85 269.49,-112.44 260.4,-107 258.98,-113.85"/>
</g>
<!-- Node2&#45;&gt;Node4 -->
<g id="edge3" class="edge">
<title>Node2&#45;&gt;Node4</title>
<path fill="none" stroke="midnightblue" d="M281.38,-108.5C257.38,-98.38 224.22,-84.39 203.19,-75.52"/>
<polygon fill="midnightblue" stroke="midnightblue" points="280.14,-111.78 290.72,-112.44 282.86,-105.33 280.14,-111.78"/>
</g>
<!-- Node5 -->
<g id="node5" class="node">
<title>Node5</title>
<g id="a_node5"><a xlink:href="_o_m_sim_m_d_o_m_harness_8cc.html" target="_top" xlink:title="Construction of mDOM harness.">
<polygon fill="white" stroke="black" points="494,-56.5 494,-75.5 632,-75.5 632,-56.5 494,-56.5"/>
<text text-anchor="middle" x="563" y="-63.5" font-family="Helvetica,sans-Serif" font-size="10.00">OMSimMDOMHarness.cc</text>
</a>
</g>
</g>
<!-- Node2&#45;&gt;Node5 -->
<g id="edge4" class="edge">
<title>Node2&#45;&gt;Node5</title>
<path fill="none" stroke="midnightblue" d="M360.72,-110.35C408.34,-100.14 479.28,-84.94 523.26,-75.52"/>
<polygon fill="midnightblue" stroke="midnightblue" points="359.97,-106.93 350.93,-112.44 361.44,-113.77 359.97,-106.93"/>
</g>
<!-- Node6 -->
<g id="node6" class="node">
<title>Node6</title>
<g id="a_node6"><a xlink:href="_o_m_sim_detector_construction_8hh.html" target="_top" xlink:title=" ">
<polygon fill="white" stroke="black" points="268,-56.5 268,-75.5 438,-75.5 438,-56.5 268,-56.5"/>
<text text-anchor="middle" x="353" y="-63.5" font-family="Helvetica,sans-Serif" font-size="10.00">OMSimDetectorConstruction.hh</text>
</a>
</g>
</g>
<!-- Node2&#45;&gt;Node6 -->
<g id="edge5" class="edge">
<title>Node2&#45;&gt;Node6</title>
<path fill="none" stroke="midnightblue" d="M324.11,-104.14C331.43,-94.74 340.24,-83.4 346.19,-75.75"/>
<polygon fill="midnightblue" stroke="midnightblue" points="321.31,-102.04 317.94,-112.08 326.84,-106.34 321.31,-102.04"/>
</g>
<!-- Node2&#45;&gt;Node7 -->
<g id="edge8" class="edge">
<title>Node2&#45;&gt;Node7</title>
<path fill="none" stroke="midnightblue" d="M369.22,-109.97C394.76,-103.15 424.07,-92.44 447,-76 468.13,-60.85 484.2,-33.9 491.57,-19.94"/>
<polygon fill="midnightblue" stroke="midnightblue" points="368.11,-106.65 359.28,-112.49 369.83,-113.43 368.11,-106.65"/>
</g>
<!-- Node6&#45;&gt;Node7 -->
<g id="edge6" class="edge">
<title>Node6&#45;&gt;Node7</title>
<path fill="none" stroke="midnightblue" d="M385.03,-52.91C411.91,-42.75 449.64,-28.51 473.45,-19.52"/>
<polygon fill="midnightblue" stroke="midnightblue" points="383.78,-49.64 375.66,-56.44 386.25,-56.19 383.78,-49.64"/>
</g>
<!-- Node8 -->
<g id="node8" class="node">
<title>Node8</title>
<g id="a_node8"><a xlink:href="_o_m_sim__effective__area_8cc.html" target="_top" xlink:title="Main for the calculation of effective areas.">
<polygon fill="white" stroke="black" points="253,-0.5 253,-19.5 393,-19.5 393,-0.5 253,-0.5"/>
<text text-anchor="middle" x="323" y="-7.5" font-family="Helvetica,sans-Serif" font-size="10.00">OMSim_effective_area.cc</text>
</a>
</g>
</g>
<!-- Node6&#45;&gt;Node8 -->
<g id="edge7" class="edge">
<title>Node6&#45;&gt;Node8</title>
<path fill="none" stroke="midnightblue" d="M343.15,-47.27C338.03,-38.05 331.98,-27.17 327.86,-19.75"/>
<polygon fill="midnightblue" stroke="midnightblue" points="340.13,-49.04 348.05,-56.08 346.25,-45.64 340.13,-49.04"/>
</g>
</g>
</svg>
