<?xml version="1.0" encoding="UTF-8" standalone="no"?>
<!DOCTYPE svg PUBLIC "-//W3C//DTD SVG 1.1//EN"
 "http://www.w3.org/Graphics/SVG/1.1/DTD/svg11.dtd">
<!-- Generated by graphviz version 2.43.0 (0)
 -->
<!-- Title: OMSimPMTResponse.cc Pages: 1 -->
<svg width="1096pt" height="207pt"
 viewBox="0.00 0.00 1095.50 207.00" xmlns="http://www.w3.org/2000/svg" xmlns:xlink="http://www.w3.org/1999/xlink">
<g id="graph0" class="graph" transform="scale(1 1) rotate(0) translate(4 203)">
<title>OMSimPMTResponse.cc</title>
<polygon fill="white" stroke="transparent" points="-4,4 -4,-203 1091.5,-203 1091.5,4 -4,4"/>
<!-- Node1 -->
<g id="node1" class="node">
<title>Node1</title>
<g id="a_node1"><a xlink:title=" ">
<polygon fill="#bfbfbf" stroke="black" points="611.5,-179.5 611.5,-198.5 745.5,-198.5 745.5,-179.5 611.5,-179.5"/>
<text text-anchor="middle" x="678.5" y="-186.5" font-family="Helvetica,sans-Serif" font-size="10.00">OMSimPMTResponse.cc</text>
</a>
</g>
</g>
<!-- Node2 -->
<g id="node2" class="node">
<title>Node2</title>
<g id="a_node2"><a xlink:href="_o_m_sim_p_m_t_response_8hh.html" target="_top" xlink:title="Provides simulation for PMT response. This class is responsible for transforming hits on photocathode...">
<polygon fill="white" stroke="black" points="500,-123.5 500,-142.5 635,-142.5 635,-123.5 500,-123.5"/>
<text text-anchor="middle" x="567.5" y="-130.5" font-family="Helvetica,sans-Serif" font-size="10.00">OMSimPMTResponse.hh</text>
</a>
</g>
</g>
<!-- Node1&#45;&gt;Node2 -->
<g id="edge1" class="edge">
<title>Node1&#45;&gt;Node2</title>
<path fill="none" stroke="midnightblue" d="M660.67,-179.32C642.78,-170.62 615.02,-157.12 594.45,-147.11"/>
<polygon fill="midnightblue" stroke="midnightblue" points="595.81,-143.88 585.29,-142.65 592.75,-150.18 595.81,-143.88"/>
</g>
<!-- Node8 -->
<g id="node8" class="node">
<title>Node8</title>
<g id="a_node8"><a xlink:href="_o_m_sim_command_args_table_8hh.html" target="_top" xlink:title="Definition of the OMSimCommandArgsTable singleton class, which controls user args.">
<polygon fill="white" stroke="black" points="789.5,-123.5 789.5,-142.5 953.5,-142.5 953.5,-123.5 789.5,-123.5"/>
<text text-anchor="middle" x="871.5" y="-130.5" font-family="Helvetica,sans-Serif" font-size="10.00">OMSimCommandArgsTable.hh</text>
</a>
</g>
</g>
<!-- Node1&#45;&gt;Node8 -->
<g id="edge7" class="edge">
<title>Node1&#45;&gt;Node8</title>
<path fill="none" stroke="midnightblue" d="M709.08,-179.44C742.11,-170.2 794.89,-155.44 831.27,-145.26"/>
<polygon fill="midnightblue" stroke="midnightblue" points="832.37,-148.58 841.06,-142.52 830.49,-141.84 832.37,-148.58"/>
</g>
<!-- Node9 -->
<g id="node9" class="node">
<title>Node9</title>
<g id="a_node9"><a xlink:href="_o_m_sim_logger_8hh.html" target="_top" xlink:title=" ">
<polygon fill="white" stroke="black" points="727,-62 727,-81 826,-81 826,-62 727,-62"/>
<text text-anchor="middle" x="776.5" y="-69" font-family="Helvetica,sans-Serif" font-size="10.00">OMSimLogger.hh</text>
</a>
</g>
</g>
<!-- Node1&#45;&gt;Node9 -->
<g id="edge14" class="edge">
<title>Node1&#45;&gt;Node9</title>
<path fill="none" stroke="midnightblue" d="M685.87,-179.32C702.11,-160.17 741.25,-114.04 762.39,-89.13"/>
<polygon fill="midnightblue" stroke="midnightblue" points="765.25,-91.17 769.05,-81.28 759.91,-86.64 765.25,-91.17"/>
</g>
<!-- Node15 -->
<g id="node15" class="node">
<title>Node15</title>
<g id="a_node15"><a xlink:href="_o_m_sim_input_data_8hh.html" target="_top" xlink:title="Definition of ParameterTable and InputDataManager.">
<polygon fill="white" stroke="black" points="227,-123.5 227,-142.5 342,-142.5 342,-123.5 227,-123.5"/>
<text text-anchor="middle" x="284.5" y="-130.5" font-family="Helvetica,sans-Serif" font-size="10.00">OMSimInputData.hh</text>
</a>
</g>
</g>
<!-- Node1&#45;&gt;Node15 -->
<g id="edge15" class="edge">
<title>Node1&#45;&gt;Node15</title>
<path fill="none" stroke="midnightblue" d="M616.07,-179.44C544.16,-169.59 426.42,-153.45 352.31,-143.29"/>
<polygon fill="midnightblue" stroke="midnightblue" points="352.53,-139.79 342.15,-141.9 351.58,-146.73 352.53,-139.79"/>
</g>
<!-- Node3 -->
<g id="node3" class="node">
<title>Node3</title>
<g id="a_node3"><a xlink:title=" ">
<polygon fill="white" stroke="#bfbfbf" points="292,-62 292,-81 411,-81 411,-62 292,-62"/>
<text text-anchor="middle" x="351.5" y="-69" font-family="Helvetica,sans-Serif" font-size="10.00">G4SystemOfUnits.hh</text>
</a>
</g>
</g>
<!-- Node2&#45;&gt;Node3 -->
<g id="edge2" class="edge">
<title>Node2&#45;&gt;Node3</title>
<path fill="none" stroke="midnightblue" d="M536.55,-123.48C498.62,-113.03 434.22,-95.29 392.28,-83.73"/>
<polygon fill="midnightblue" stroke="midnightblue" points="392.96,-80.29 382.39,-81.01 391.1,-87.04 392.96,-80.29"/>
</g>
<!-- Node4 -->
<g id="node4" class="node">
<title>Node4</title>
<g id="a_node4"><a xlink:title=" ">
<polygon fill="white" stroke="#bfbfbf" points="429,-62 429,-81 502,-81 502,-62 429,-62"/>
<text text-anchor="middle" x="465.5" y="-69" font-family="Helvetica,sans-Serif" font-size="10.00">G4Types.hh</text>
</a>
</g>
</g>
<!-- Node2&#45;&gt;Node4 -->
<g id="edge3" class="edge">
<title>Node2&#45;&gt;Node4</title>
<path fill="none" stroke="midnightblue" d="M552.89,-123.48C536.15,-113.71 508.5,-97.58 488.78,-86.08"/>
<polygon fill="midnightblue" stroke="midnightblue" points="490.49,-83.02 480.09,-81.01 486.96,-89.07 490.49,-83.02"/>
</g>
<!-- Node5 -->
<g id="node5" class="node">
<title>Node5</title>
<g id="a_node5"><a xlink:title=" ">
<polygon fill="white" stroke="#bfbfbf" points="520.5,-62 520.5,-81 558.5,-81 558.5,-62 520.5,-62"/>
<text text-anchor="middle" x="539.5" y="-69" font-family="Helvetica,sans-Serif" font-size="10.00">map</text>
</a>
</g>
</g>
<!-- Node2&#45;&gt;Node5 -->
<g id="edge4" class="edge">
<title>Node2&#45;&gt;Node5</title>
<path fill="none" stroke="midnightblue" d="M563.49,-123.48C559.41,-114.82 552.98,-101.15 547.8,-90.15"/>
<polygon fill="midnightblue" stroke="midnightblue" points="550.93,-88.57 543.5,-81.01 544.6,-91.55 550.93,-88.57"/>
</g>
<!-- Node6 -->
<g id="node6" class="node">
<title>Node6</title>
<g id="a_node6"><a xlink:title=" ">
<polygon fill="white" stroke="#bfbfbf" points="577,-62 577,-81 638,-81 638,-62 577,-62"/>
<text text-anchor="middle" x="607.5" y="-69" font-family="Helvetica,sans-Serif" font-size="10.00">TGraph.h</text>
</a>
</g>
</g>
<!-- Node2&#45;&gt;Node6 -->
<g id="edge5" class="edge">
<title>Node2&#45;&gt;Node6</title>
<path fill="none" stroke="midnightblue" d="M573.23,-123.48C579.17,-114.64 588.62,-100.59 596.09,-89.48"/>
<polygon fill="midnightblue" stroke="midnightblue" points="599.11,-91.26 601.78,-81.01 593.3,-87.36 599.11,-91.26"/>
</g>
<!-- Node7 -->
<g id="node7" class="node">
<title>Node7</title>
<g id="a_node7"><a xlink:title=" ">
<polygon fill="white" stroke="#bfbfbf" points="656,-62 656,-81 709,-81 709,-62 656,-62"/>
<text text-anchor="middle" x="682.5" y="-69" font-family="Helvetica,sans-Serif" font-size="10.00">TH2D.h</text>
</a>
</g>
</g>
<!-- Node2&#45;&gt;Node7 -->
<g id="edge6" class="edge">
<title>Node2&#45;&gt;Node7</title>
<path fill="none" stroke="midnightblue" d="M583.98,-123.48C603.11,-113.58 634.87,-97.14 657.15,-85.62"/>
<polygon fill="midnightblue" stroke="midnightblue" points="658.78,-88.71 666.05,-81.01 655.56,-82.5 658.78,-88.71"/>
</g>
<!-- Node8&#45;&gt;Node9 -->
<g id="edge8" class="edge">
<title>Node8&#45;&gt;Node9</title>
<path fill="none" stroke="midnightblue" d="M857.89,-123.48C842.44,-113.8 817.01,-97.87 798.68,-86.39"/>
<polygon fill="midnightblue" stroke="midnightblue" points="800.42,-83.35 790.09,-81.01 796.7,-89.28 800.42,-83.35"/>
</g>
<!-- Node12 -->
<g id="node12" class="node">
<title>Node12</title>
<g id="a_node12"><a xlink:title=" ">
<polygon fill="white" stroke="#bfbfbf" points="844,-62 844,-81 899,-81 899,-62 844,-62"/>
<text text-anchor="middle" x="871.5" y="-69" font-family="Helvetica,sans-Serif" font-size="10.00">fstream</text>
</a>
</g>
</g>
<!-- Node8&#45;&gt;Node12 -->
<g id="edge11" class="edge">
<title>Node8&#45;&gt;Node12</title>
<path fill="none" stroke="midnightblue" d="M871.5,-123.48C871.5,-115.08 871.5,-101.98 871.5,-91.16"/>
<polygon fill="midnightblue" stroke="midnightblue" points="875,-91.01 871.5,-81.01 868,-91.01 875,-91.01"/>
</g>
<!-- Node13 -->
<g id="node13" class="node">
<title>Node13</title>
<g id="a_node13"><a xlink:title=" ">
<polygon fill="white" stroke="#bfbfbf" points="917.5,-62 917.5,-81 1001.5,-81 1001.5,-62 917.5,-62"/>
<text text-anchor="middle" x="959.5" y="-69" font-family="Helvetica,sans-Serif" font-size="10.00">boost/any.hpp</text>
</a>
</g>
</g>
<!-- Node8&#45;&gt;Node13 -->
<g id="edge12" class="edge">
<title>Node8&#45;&gt;Node13</title>
<path fill="none" stroke="midnightblue" d="M884.11,-123.48C898.22,-113.93 921.33,-98.31 938.25,-86.87"/>
<polygon fill="midnightblue" stroke="midnightblue" points="940.59,-89.51 946.92,-81.01 936.67,-83.71 940.59,-89.51"/>
</g>
<!-- Node14 -->
<g id="node14" class="node">
<title>Node14</title>
<g id="a_node14"><a xlink:title=" ">
<polygon fill="white" stroke="#bfbfbf" points="1019.5,-62 1019.5,-81 1087.5,-81 1087.5,-62 1019.5,-62"/>
<text text-anchor="middle" x="1053.5" y="-69" font-family="Helvetica,sans-Serif" font-size="10.00">sys/time.h</text>
</a>
</g>
</g>
<!-- Node8&#45;&gt;Node14 -->
<g id="edge13" class="edge">
<title>Node8&#45;&gt;Node14</title>
<path fill="none" stroke="midnightblue" d="M898.18,-123.47C926.18,-114.49 971.48,-99.89 1010.5,-87 1013.08,-86.15 1015.74,-85.26 1018.41,-84.37"/>
<polygon fill="midnightblue" stroke="midnightblue" points="1019.68,-87.64 1028.05,-81.14 1017.46,-81 1019.68,-87.64"/>
</g>
<!-- Node10 -->
<g id="node10" class="node">
<title>Node10</title>
<g id="a_node10"><a xlink:title=" ">
<polygon fill="white" stroke="#bfbfbf" points="718.5,-0.5 718.5,-19.5 768.5,-19.5 768.5,-0.5 718.5,-0.5"/>
<text text-anchor="middle" x="743.5" y="-7.5" font-family="Helvetica,sans-Serif" font-size="10.00">stdio.h</text>
</a>
</g>
</g>
<!-- Node9&#45;&gt;Node10 -->
<g id="edge9" class="edge">
<title>Node9&#45;&gt;Node10</title>
<path fill="none" stroke="midnightblue" d="M771.77,-61.98C766.92,-53.23 759.23,-39.37 753.1,-28.31"/>
<polygon fill="midnightblue" stroke="midnightblue" points="756.13,-26.56 748.22,-19.51 750.01,-29.95 756.13,-26.56"/>
</g>
<!-- Node11 -->
<g id="node11" class="node">
<title>Node11</title>
<g id="a_node11"><a xlink:title=" ">
<polygon fill="white" stroke="#bfbfbf" points="786.5,-0.5 786.5,-19.5 834.5,-19.5 834.5,-0.5 786.5,-0.5"/>
<text text-anchor="middle" x="810.5" y="-7.5" font-family="Helvetica,sans-Serif" font-size="10.00">time.h</text>
</a>
</g>
</g>
<!-- Node9&#45;&gt;Node11 -->
<g id="edge10" class="edge">
<title>Node9&#45;&gt;Node11</title>
<path fill="none" stroke="midnightblue" d="M781.37,-61.98C786.37,-53.23 794.29,-39.37 800.61,-28.31"/>
<polygon fill="midnightblue" stroke="midnightblue" points="803.72,-29.93 805.64,-19.51 797.64,-26.46 803.72,-29.93"/>
</g>
<!-- Node15&#45;&gt;Node3 -->
<g id="edge17" class="edge">
<title>Node15&#45;&gt;Node3</title>
<path fill="none" stroke="midnightblue" d="M294.1,-123.48C304.55,-114.2 321.47,-99.17 334.24,-87.83"/>
<polygon fill="midnightblue" stroke="midnightblue" points="336.77,-90.27 341.92,-81.01 332.12,-85.03 336.77,-90.27"/>
</g>
<!-- Node16 -->
<g id="node16" class="node">
<title>Node16</title>
<g id="a_node16"><a xlink:title=" ">
<polygon fill="white" stroke="#bfbfbf" points="0,-62 0,-81 143,-81 143,-62 0,-62"/>
<text text-anchor="middle" x="71.5" y="-69" font-family="Helvetica,sans-Serif" font-size="10.00">G4OpBoundaryProcess.hh</text>
</a>
</g>
</g>
<!-- Node15&#45;&gt;Node16 -->
<g id="edge16" class="edge">
<title>Node15&#45;&gt;Node16</title>
<path fill="none" stroke="midnightblue" d="M253.98,-123.48C216.58,-113.03 153.07,-95.29 111.71,-83.73"/>
<polygon fill="midnightblue" stroke="midnightblue" points="112.53,-80.33 101.96,-81.01 110.65,-87.07 112.53,-80.33"/>
</g>
<!-- Node17 -->
<g id="node17" class="node">
<title>Node17</title>
<g id="a_node17"><a xlink:title=" ">
<polygon fill="white" stroke="#bfbfbf" points="161,-56.5 161,-86.5 274,-86.5 274,-56.5 161,-56.5"/>
<text text-anchor="start" x="169" y="-74.5" font-family="Helvetica,sans-Serif" font-size="10.00">boost/property_tree</text>
<text text-anchor="middle" x="217.5" y="-63.5" font-family="Helvetica,sans-Serif" font-size="10.00">/json_parser.hpp</text>
</a>
</g>
</g>
<!-- Node15&#45;&gt;Node17 -->
<g id="edge18" class="edge">
<title>Node15&#45;&gt;Node17</title>
<path fill="none" stroke="midnightblue" d="M274.9,-123.48C266.08,-115.64 252.65,-103.71 241,-93.37"/>
<polygon fill="midnightblue" stroke="midnightblue" points="243.09,-90.55 233.29,-86.52 238.44,-95.78 243.09,-90.55"/>
</g>
</g>
</svg>
