<?xml version="1.0" encoding="UTF-8" standalone="no"?>
<!DOCTYPE svg PUBLIC "-//W3C//DTD SVG 1.1//EN"
 "http://www.w3.org/Graphics/SVG/1.1/DTD/svg11.dtd">
<!-- Generated by graphviz version 2.43.0 (0)
 -->
<!-- Title: OMSim_supernova.cc Pages: 1 -->
<svg width="2400pt" height="308pt"
 viewBox="0.00 0.00 2400.00 308.00" xmlns="http://www.w3.org/2000/svg" xmlns:xlink="http://www.w3.org/1999/xlink">
<g id="graph0" class="graph" transform="scale(1 1) rotate(0) translate(4 304)">
<title>OMSim_supernova.cc</title>
<polygon fill="white" stroke="transparent" points="-4,4 -4,-304 2396,-304 2396,4 -4,4"/>
<!-- Node1 -->
<g id="node1" class="node">
<title>Node1</title>
<g id="a_node1"><a xlink:title=" ">
<polygon fill="#bfbfbf" stroke="black" points="692.5,-280.5 692.5,-299.5 814.5,-299.5 814.5,-280.5 692.5,-280.5"/>
<text text-anchor="middle" x="753.5" y="-287.5" font-family="Helvetica,sans-Serif" font-size="10.00">OMSim_supernova.cc</text>
</a>
</g>
</g>
<!-- Node2 -->
<g id="node2" class="node">
<title>Node2</title>
<g id="a_node2"><a xlink:href="_o_m_sim_8hh.html" target="_top" xlink:title="Main simulation class for the Optical Module (OM) simulation. This file defines the OMSim class,...">
<polygon fill="white" stroke="black" points="929,-224.5 929,-243.5 996,-243.5 996,-224.5 929,-224.5"/>
<text text-anchor="middle" x="962.5" y="-231.5" font-family="Helvetica,sans-Serif" font-size="10.00">OMSim.hh</text>
</a>
</g>
</g>
<!-- Node1&#45;&gt;Node2 -->
<g id="edge1" class="edge">
<title>Node1&#45;&gt;Node2</title>
<path fill="none" stroke="midnightblue" d="M786.62,-280.44C822.62,-271.14 880.27,-256.25 919.69,-246.06"/>
<polygon fill="midnightblue" stroke="midnightblue" points="920.73,-249.41 929.54,-243.52 918.98,-242.63 920.73,-249.41"/>
</g>
<!-- Node5 -->
<g id="node5" class="node">
<title>Node5</title>
<g id="a_node5"><a xlink:href="_o_m_sim_primary_generator_action_8hh.html" target="_top" xlink:title=" ">
<polygon fill="white" stroke="black" points="123,-168.5 123,-187.5 308,-187.5 308,-168.5 123,-168.5"/>
<text text-anchor="middle" x="215.5" y="-175.5" font-family="Helvetica,sans-Serif" font-size="10.00">OMSimPrimaryGeneratorAction.hh</text>
</a>
</g>
</g>
<!-- Node1&#45;&gt;Node5 -->
<g id="edge35" class="edge">
<title>Node1&#45;&gt;Node5</title>
<path fill="none" stroke="midnightblue" d="M711.73,-280.46C614.51,-260.58 373.29,-211.26 267.09,-189.55"/>
<polygon fill="midnightblue" stroke="midnightblue" points="267.74,-186.11 257.24,-187.53 266.34,-192.97 267.74,-186.11"/>
</g>
<!-- Node29 -->
<g id="node29" class="node">
<title>Node29</title>
<g id="a_node29"><a xlink:href="mdom_analysis_manager_8hh.html" target="_top" xlink:title=" ">
<polygon fill="white" stroke="black" points="2036.5,-168.5 2036.5,-187.5 2182.5,-187.5 2182.5,-168.5 2036.5,-168.5"/>
<text text-anchor="middle" x="2109.5" y="-175.5" font-family="Helvetica,sans-Serif" font-size="10.00">mdomAnalysisManager.hh</text>
</a>
</g>
</g>
<!-- Node1&#45;&gt;Node29 -->
<g id="edge28" class="edge">
<title>Node1&#45;&gt;Node29</title>
<path fill="none" stroke="midnightblue" d="M814.54,-284.11C995.59,-269.6 1545.46,-225.46 2001.5,-188 2009.5,-187.34 2017.83,-186.66 2026.16,-185.96"/>
<polygon fill="midnightblue" stroke="midnightblue" points="2026.63,-189.44 2036.3,-185.12 2026.05,-182.46 2026.63,-189.44"/>
</g>
<!-- Node34 -->
<g id="node34" class="node">
<title>Node34</title>
<g id="a_node34"><a xlink:href="mdom_primary_generator_action_8hh.html" target="_top" xlink:title=" ">
<polygon fill="white" stroke="black" points="5,-224.5 5,-243.5 186,-243.5 186,-224.5 5,-224.5"/>
<text text-anchor="middle" x="95.5" y="-231.5" font-family="Helvetica,sans-Serif" font-size="10.00">mdomPrimaryGeneratorAction.hh</text>
</a>
</g>
</g>
<!-- Node1&#45;&gt;Node34 -->
<g id="edge36" class="edge">
<title>Node1&#45;&gt;Node34</title>
<path fill="none" stroke="midnightblue" d="M692.48,-283.99C579.03,-274.68 334.63,-254.62 196.3,-243.27"/>
<polygon fill="midnightblue" stroke="midnightblue" points="196.37,-239.77 186.12,-242.44 195.8,-246.74 196.37,-239.77"/>
</g>
<!-- Node3 -->
<g id="node3" class="node">
<title>Node3</title>
<g id="a_node3"><a xlink:title=" ">
<polygon fill="white" stroke="#bfbfbf" points="966.5,-168.5 966.5,-187.5 1136.5,-187.5 1136.5,-168.5 966.5,-168.5"/>
<text text-anchor="middle" x="1051.5" y="-175.5" font-family="Helvetica,sans-Serif" font-size="10.00">OMSimDetectorConstruction.hh</text>
</a>
</g>
</g>
<!-- Node2&#45;&gt;Node3 -->
<g id="edge2" class="edge">
<title>Node2&#45;&gt;Node3</title>
<path fill="none" stroke="midnightblue" d="M976.8,-224.32C990.68,-215.9 1011.99,-202.97 1028.3,-193.07"/>
<polygon fill="midnightblue" stroke="midnightblue" points="1030.5,-195.83 1037.24,-187.65 1026.87,-189.85 1030.5,-195.83"/>
</g>
<!-- Node4 -->
<g id="node4" class="node">
<title>Node4</title>
<g id="a_node4"><a xlink:title=" ">
<polygon fill="white" stroke="#bfbfbf" points="1155,-168.5 1155,-187.5 1276,-187.5 1276,-168.5 1155,-168.5"/>
<text text-anchor="middle" x="1215.5" y="-175.5" font-family="Helvetica,sans-Serif" font-size="10.00">OMSimPhysicsList.hh</text>
</a>
</g>
</g>
<!-- Node2&#45;&gt;Node4 -->
<g id="edge3" class="edge">
<title>Node2&#45;&gt;Node4</title>
<path fill="none" stroke="midnightblue" d="M996.1,-225.83C1039.48,-216.57 1115.36,-200.37 1165.52,-189.67"/>
<polygon fill="midnightblue" stroke="midnightblue" points="1166.45,-193.05 1175.5,-187.54 1164.99,-186.2 1166.45,-193.05"/>
</g>
<!-- Node2&#45;&gt;Node5 -->
<g id="edge4" class="edge">
<title>Node2&#45;&gt;Node5</title>
<path fill="none" stroke="midnightblue" d="M928.86,-230.89C834.43,-224.91 558.69,-207.11 318.56,-188.15"/>
<polygon fill="midnightblue" stroke="midnightblue" points="318.48,-184.63 308.23,-187.33 317.92,-191.61 318.48,-184.63"/>
</g>
<!-- Node7 -->
<g id="node7" class="node">
<title>Node7</title>
<g id="a_node7"><a xlink:title=" ">
<polygon fill="white" stroke="#bfbfbf" points="1294.5,-168.5 1294.5,-187.5 1410.5,-187.5 1410.5,-168.5 1294.5,-168.5"/>
<text text-anchor="middle" x="1352.5" y="-175.5" font-family="Helvetica,sans-Serif" font-size="10.00">OMSimRunAction.hh</text>
</a>
</g>
</g>
<!-- Node2&#45;&gt;Node7 -->
<g id="edge6" class="edge">
<title>Node2&#45;&gt;Node7</title>
<path fill="none" stroke="midnightblue" d="M996.09,-228.35C1059.92,-219.51 1199.87,-200.13 1284.16,-188.46"/>
<polygon fill="midnightblue" stroke="midnightblue" points="1284.73,-191.92 1294.16,-187.08 1283.77,-184.98 1284.73,-191.92"/>
</g>
<!-- Node8 -->
<g id="node8" class="node">
<title>Node8</title>
<g id="a_node8"><a xlink:href="_o_m_sim_event_action_8hh.html" target="_top" xlink:title=" ">
<polygon fill="white" stroke="black" points="1867,-168.5 1867,-187.5 1992,-187.5 1992,-168.5 1867,-168.5"/>
<text text-anchor="middle" x="1929.5" y="-175.5" font-family="Helvetica,sans-Serif" font-size="10.00">OMSimEventAction.hh</text>
</a>
</g>
</g>
<!-- Node2&#45;&gt;Node8 -->
<g id="edge7" class="edge">
<title>Node2&#45;&gt;Node8</title>
<path fill="none" stroke="midnightblue" d="M996.29,-232.2C1113.62,-229.25 1514.41,-217.56 1856.59,-188.01"/>
<polygon fill="midnightblue" stroke="midnightblue" points="1857.04,-191.48 1866.7,-187.13 1856.43,-184.51 1857.04,-191.48"/>
</g>
<!-- Node12 -->
<g id="node12" class="node">
<title>Node12</title>
<g id="a_node12"><a xlink:href="_o_m_sim_tracking_action_8hh.html" target="_top" xlink:title=" ">
<polygon fill="white" stroke="black" points="1710.5,-168.5 1710.5,-187.5 1848.5,-187.5 1848.5,-168.5 1710.5,-168.5"/>
<text text-anchor="middle" x="1779.5" y="-175.5" font-family="Helvetica,sans-Serif" font-size="10.00">OMSimTrackingAction.hh</text>
</a>
</g>
</g>
<!-- Node2&#45;&gt;Node12 -->
<g id="edge11" class="edge">
<title>Node2&#45;&gt;Node12</title>
<path fill="none" stroke="midnightblue" d="M996.06,-231.6C1099.34,-227.17 1421.73,-212.3 1699.91,-188.1"/>
<polygon fill="midnightblue" stroke="midnightblue" points="1700.54,-191.55 1710.2,-187.19 1699.93,-184.58 1700.54,-191.55"/>
</g>
<!-- Node14 -->
<g id="node14" class="node">
<title>Node14</title>
<g id="a_node14"><a xlink:title=" ">
<polygon fill="white" stroke="#bfbfbf" points="1428.5,-168.5 1428.5,-187.5 1568.5,-187.5 1568.5,-168.5 1428.5,-168.5"/>
<text text-anchor="middle" x="1498.5" y="-175.5" font-family="Helvetica,sans-Serif" font-size="10.00">OMSimSteppingAction.hh</text>
</a>
</g>
</g>
<!-- Node2&#45;&gt;Node14 -->
<g id="edge13" class="edge">
<title>Node2&#45;&gt;Node14</title>
<path fill="none" stroke="midnightblue" d="M996.06,-229.87C1070.12,-222.93 1253.42,-205.55 1417.98,-188.15"/>
<polygon fill="midnightblue" stroke="midnightblue" points="1418.72,-191.59 1428.29,-187.05 1417.98,-184.63 1418.72,-191.59"/>
</g>
<!-- Node15 -->
<g id="node15" class="node">
<title>Node15</title>
<g id="a_node15"><a xlink:href="_o_m_sim_u_iinterface_8hh.html" target="_top" xlink:title="The OMSimUIinterface class provides a singleton interface to Geant4&#39;s UI manager.">
<polygon fill="white" stroke="black" points="659,-168.5 659,-187.5 780,-187.5 780,-168.5 659,-168.5"/>
<text text-anchor="middle" x="719.5" y="-175.5" font-family="Helvetica,sans-Serif" font-size="10.00">OMSimUIinterface.hh</text>
</a>
</g>
</g>
<!-- Node2&#45;&gt;Node15 -->
<g id="edge14" class="edge">
<title>Node2&#45;&gt;Node15</title>
<path fill="none" stroke="midnightblue" d="M928.97,-225.55C887.15,-216.26 815.38,-200.31 767.68,-189.71"/>
<polygon fill="midnightblue" stroke="midnightblue" points="768.41,-186.28 757.89,-187.53 766.89,-193.12 768.41,-186.28"/>
</g>
<!-- Node24 -->
<g id="node24" class="node">
<title>Node24</title>
<g id="a_node24"><a xlink:title=" ">
<polygon fill="white" stroke="#bfbfbf" points="1586.5,-168.5 1586.5,-187.5 1692.5,-187.5 1692.5,-168.5 1586.5,-168.5"/>
<text text-anchor="middle" x="1639.5" y="-175.5" font-family="Helvetica,sans-Serif" font-size="10.00">G4RunManager.hh</text>
</a>
</g>
</g>
<!-- Node2&#45;&gt;Node24 -->
<g id="edge23" class="edge">
<title>Node2&#45;&gt;Node24</title>
<path fill="none" stroke="midnightblue" d="M996.24,-231.38C1087.77,-226.79 1348.61,-212.53 1576.3,-188.06"/>
<polygon fill="midnightblue" stroke="midnightblue" points="1576.87,-191.51 1586.43,-186.96 1576.11,-184.55 1576.87,-191.51"/>
</g>
<!-- Node25 -->
<g id="node25" class="node">
<title>Node25</title>
<g id="a_node25"><a xlink:title=" ">
<polygon fill="white" stroke="#bfbfbf" points="326,-168.5 326,-187.5 433,-187.5 433,-168.5 326,-168.5"/>
<text text-anchor="middle" x="379.5" y="-175.5" font-family="Helvetica,sans-Serif" font-size="10.00">G4VisExecutive.hh</text>
</a>
</g>
</g>
<!-- Node2&#45;&gt;Node25 -->
<g id="edge24" class="edge">
<title>Node2&#45;&gt;Node25</title>
<path fill="none" stroke="midnightblue" d="M928.91,-230.78C847.45,-225.24 632.76,-209.78 443.38,-188.16"/>
<polygon fill="midnightblue" stroke="midnightblue" points="443.58,-184.66 433.24,-187 442.78,-191.62 443.58,-184.66"/>
</g>
<!-- Node26 -->
<g id="node26" class="node">
<title>Node26</title>
<g id="a_node26"><a xlink:title=" ">
<polygon fill="white" stroke="#bfbfbf" points="451,-168.5 451,-187.5 554,-187.5 554,-168.5 451,-168.5"/>
<text text-anchor="middle" x="502.5" y="-175.5" font-family="Helvetica,sans-Serif" font-size="10.00">G4UIExecutive.hh</text>
</a>
</g>
</g>
<!-- Node2&#45;&gt;Node26 -->
<g id="edge25" class="edge">
<title>Node2&#45;&gt;Node26</title>
<path fill="none" stroke="midnightblue" d="M928.82,-229.59C861.68,-222.72 706.16,-206.38 564.26,-188.06"/>
<polygon fill="midnightblue" stroke="midnightblue" points="564.43,-184.55 554.07,-186.73 563.53,-191.49 564.43,-184.55"/>
</g>
<!-- Node27 -->
<g id="node27" class="node">
<title>Node27</title>
<g id="a_node27"><a xlink:title=" ">
<polygon fill="white" stroke="#bfbfbf" points="572.5,-168.5 572.5,-187.5 640.5,-187.5 640.5,-168.5 572.5,-168.5"/>
<text text-anchor="middle" x="606.5" y="-175.5" font-family="Helvetica,sans-Serif" font-size="10.00">filesystem</text>
</a>
</g>
</g>
<!-- Node2&#45;&gt;Node27 -->
<g id="edge26" class="edge">
<title>Node2&#45;&gt;Node27</title>
<path fill="none" stroke="midnightblue" d="M928.58,-228.84C872.75,-221.84 757.83,-206.78 650.74,-188.13"/>
<polygon fill="midnightblue" stroke="midnightblue" points="651.18,-184.65 640.73,-186.37 649.97,-191.55 651.18,-184.65"/>
</g>
<!-- Node28 -->
<g id="node28" class="node">
<title>Node28</title>
<g id="a_node28"><a xlink:title=" ">
<polygon fill="white" stroke="#bfbfbf" points="798.5,-168.5 798.5,-187.5 948.5,-187.5 948.5,-168.5 798.5,-168.5"/>
<text text-anchor="middle" x="873.5" y="-175.5" font-family="Helvetica,sans-Serif" font-size="10.00">boost/program_options.hpp</text>
</a>
</g>
</g>
<!-- Node2&#45;&gt;Node28 -->
<g id="edge27" class="edge">
<title>Node2&#45;&gt;Node28</title>
<path fill="none" stroke="midnightblue" d="M948.2,-224.32C934.32,-215.9 913.01,-202.97 896.7,-193.07"/>
<polygon fill="midnightblue" stroke="midnightblue" points="898.13,-189.85 887.76,-187.65 894.5,-195.83 898.13,-189.85"/>
</g>
<!-- Node6 -->
<g id="node6" class="node">
<title>Node6</title>
<g id="a_node6"><a xlink:title=" ">
<polygon fill="white" stroke="#bfbfbf" points="59.5,-112.5 59.5,-131.5 251.5,-131.5 251.5,-112.5 59.5,-112.5"/>
<text text-anchor="middle" x="155.5" y="-119.5" font-family="Helvetica,sans-Serif" font-size="10.00">G4VUserPrimaryGeneratorAction.hh</text>
</a>
</g>
</g>
<!-- Node5&#45;&gt;Node6 -->
<g id="edge5" class="edge">
<title>Node5&#45;&gt;Node6</title>
<path fill="none" stroke="midnightblue" d="M205.86,-168.32C196.99,-160.34 183.63,-148.31 172.89,-138.65"/>
<polygon fill="midnightblue" stroke="midnightblue" points="175.09,-135.92 165.32,-131.83 170.41,-141.13 175.09,-135.92"/>
</g>
<!-- Node9 -->
<g id="node9" class="node">
<title>Node9</title>
<g id="a_node9"><a xlink:title=" ">
<polygon fill="white" stroke="#bfbfbf" points="1736.5,-112.5 1736.5,-131.5 1862.5,-131.5 1862.5,-112.5 1736.5,-112.5"/>
<text text-anchor="middle" x="1799.5" y="-119.5" font-family="Helvetica,sans-Serif" font-size="10.00">G4UserEventAction.hh</text>
</a>
</g>
</g>
<!-- Node8&#45;&gt;Node9 -->
<g id="edge8" class="edge">
<title>Node8&#45;&gt;Node9</title>
<path fill="none" stroke="midnightblue" d="M1908.9,-168.44C1887.51,-159.56 1853.82,-145.56 1829.48,-135.45"/>
<polygon fill="midnightblue" stroke="midnightblue" points="1830.58,-132.12 1820,-131.52 1827.89,-138.58 1830.58,-132.12"/>
</g>
<!-- Node10 -->
<g id="node10" class="node">
<title>Node10</title>
<g id="a_node10"><a xlink:title=" ">
<polygon fill="white" stroke="#bfbfbf" points="1880.5,-112.5 1880.5,-131.5 1924.5,-131.5 1924.5,-112.5 1880.5,-112.5"/>
<text text-anchor="middle" x="1902.5" y="-119.5" font-family="Helvetica,sans-Serif" font-size="10.00">string</text>
</a>
</g>
</g>
<!-- Node8&#45;&gt;Node10 -->
<g id="edge9" class="edge">
<title>Node8&#45;&gt;Node10</title>
<path fill="none" stroke="midnightblue" d="M1925.04,-168.08C1921.35,-160.69 1915.98,-149.95 1911.41,-140.81"/>
<polygon fill="midnightblue" stroke="midnightblue" points="1914.48,-139.13 1906.88,-131.75 1908.22,-142.26 1914.48,-139.13"/>
</g>
<!-- Node11 -->
<g id="node11" class="node">
<title>Node11</title>
<g id="a_node11"><a xlink:title=" ">
<polygon fill="white" stroke="#bfbfbf" points="1943,-112.5 1943,-131.5 2016,-131.5 2016,-112.5 1943,-112.5"/>
<text text-anchor="middle" x="1979.5" y="-119.5" font-family="Helvetica,sans-Serif" font-size="10.00">G4Types.hh</text>
</a>
</g>
</g>
<!-- Node8&#45;&gt;Node11 -->
<g id="edge10" class="edge">
<title>Node8&#45;&gt;Node11</title>
<path fill="none" stroke="midnightblue" d="M1937.76,-168.08C1944.96,-160.3 1955.61,-148.8 1964.35,-139.37"/>
<polygon fill="midnightblue" stroke="midnightblue" points="1967.17,-141.47 1971.4,-131.75 1962.03,-136.71 1967.17,-141.47"/>
</g>
<!-- Node13 -->
<g id="node13" class="node">
<title>Node13</title>
<g id="a_node13"><a xlink:title=" ">
<polygon fill="white" stroke="#bfbfbf" points="1579,-112.5 1579,-131.5 1718,-131.5 1718,-112.5 1579,-112.5"/>
<text text-anchor="middle" x="1648.5" y="-119.5" font-family="Helvetica,sans-Serif" font-size="10.00">G4UserTrackingAction.hh</text>
</a>
</g>
</g>
<!-- Node12&#45;&gt;Node13 -->
<g id="edge12" class="edge">
<title>Node12&#45;&gt;Node13</title>
<path fill="none" stroke="midnightblue" d="M1758.74,-168.44C1737.18,-159.56 1703.24,-145.56 1678.71,-135.45"/>
<polygon fill="midnightblue" stroke="midnightblue" points="1679.74,-132.09 1669.16,-131.52 1677.07,-138.56 1679.74,-132.09"/>
</g>
<!-- Node16 -->
<g id="node16" class="node">
<title>Node16</title>
<g id="a_node16"><a xlink:href="_o_m_sim_command_args_table_8hh.html" target="_top" xlink:title="Definition of the OMSimCommandArgsTable singleton class, which controls user args.">
<polygon fill="white" stroke="black" points="1091.5,-112.5 1091.5,-131.5 1255.5,-131.5 1255.5,-112.5 1091.5,-112.5"/>
<text text-anchor="middle" x="1173.5" y="-119.5" font-family="Helvetica,sans-Serif" font-size="10.00">OMSimCommandArgsTable.hh</text>
</a>
</g>
</g>
<!-- Node15&#45;&gt;Node16 -->
<g id="edge15" class="edge">
<title>Node15&#45;&gt;Node16</title>
<path fill="none" stroke="midnightblue" d="M780.2,-169.15C783.35,-168.76 786.46,-168.37 789.5,-168 892.31,-155.37 1010.71,-141.61 1088.54,-132.68"/>
<polygon fill="midnightblue" stroke="midnightblue" points="1089.24,-136.12 1098.78,-131.51 1088.44,-129.17 1089.24,-136.12"/>
</g>
<!-- Node23 -->
<g id="node23" class="node">
<title>Node23</title>
<g id="a_node23"><a xlink:title=" ">
<polygon fill="white" stroke="#bfbfbf" points="670.5,-112.5 670.5,-131.5 768.5,-131.5 768.5,-112.5 670.5,-112.5"/>
<text text-anchor="middle" x="719.5" y="-119.5" font-family="Helvetica,sans-Serif" font-size="10.00">G4UImanager.hh</text>
</a>
</g>
</g>
<!-- Node15&#45;&gt;Node23 -->
<g id="edge22" class="edge">
<title>Node15&#45;&gt;Node23</title>
<path fill="none" stroke="midnightblue" d="M719.5,-168.08C719.5,-161.01 719.5,-150.86 719.5,-141.99"/>
<polygon fill="midnightblue" stroke="midnightblue" points="723,-141.75 719.5,-131.75 716,-141.75 723,-141.75"/>
</g>
<!-- Node17 -->
<g id="node17" class="node">
<title>Node17</title>
<g id="a_node17"><a xlink:href="_o_m_sim_logger_8hh.html" target="_top" xlink:title=" ">
<polygon fill="white" stroke="black" points="1124,-56.5 1124,-75.5 1223,-75.5 1223,-56.5 1124,-56.5"/>
<text text-anchor="middle" x="1173.5" y="-63.5" font-family="Helvetica,sans-Serif" font-size="10.00">OMSimLogger.hh</text>
</a>
</g>
</g>
<!-- Node16&#45;&gt;Node17 -->
<g id="edge16" class="edge">
<title>Node16&#45;&gt;Node17</title>
<path fill="none" stroke="midnightblue" d="M1173.5,-112.08C1173.5,-105.01 1173.5,-94.86 1173.5,-85.99"/>
<polygon fill="midnightblue" stroke="midnightblue" points="1177,-85.75 1173.5,-75.75 1170,-85.75 1177,-85.75"/>
</g>
<!-- Node20 -->
<g id="node20" class="node">
<title>Node20</title>
<g id="a_node20"><a xlink:title=" ">
<polygon fill="white" stroke="#bfbfbf" points="1528,-56.5 1528,-75.5 1583,-75.5 1583,-56.5 1528,-56.5"/>
<text text-anchor="middle" x="1555.5" y="-63.5" font-family="Helvetica,sans-Serif" font-size="10.00">fstream</text>
</a>
</g>
</g>
<!-- Node16&#45;&gt;Node20 -->
<g id="edge19" class="edge">
<title>Node16&#45;&gt;Node20</title>
<path fill="none" stroke="midnightblue" d="M1234.03,-112.44C1313.71,-101.18 1451.41,-81.71 1517.7,-72.34"/>
<polygon fill="midnightblue" stroke="midnightblue" points="1518.29,-75.79 1527.7,-70.93 1517.31,-68.86 1518.29,-75.79"/>
</g>
<!-- Node21 -->
<g id="node21" class="node">
<title>Node21</title>
<g id="a_node21"><a xlink:title=" ">
<polygon fill="white" stroke="#bfbfbf" points="1241.5,-56.5 1241.5,-75.5 1325.5,-75.5 1325.5,-56.5 1241.5,-56.5"/>
<text text-anchor="middle" x="1283.5" y="-63.5" font-family="Helvetica,sans-Serif" font-size="10.00">boost/any.hpp</text>
</a>
</g>
</g>
<!-- Node16&#45;&gt;Node21 -->
<g id="edge20" class="edge">
<title>Node16&#45;&gt;Node21</title>
<path fill="none" stroke="midnightblue" d="M1191.17,-112.32C1208.89,-103.62 1236.4,-90.12 1256.79,-80.11"/>
<polygon fill="midnightblue" stroke="midnightblue" points="1258.44,-83.2 1265.87,-75.65 1255.35,-76.92 1258.44,-83.2"/>
</g>
<!-- Node22 -->
<g id="node22" class="node">
<title>Node22</title>
<g id="a_node22"><a xlink:title=" ">
<polygon fill="white" stroke="#bfbfbf" points="1037.5,-56.5 1037.5,-75.5 1105.5,-75.5 1105.5,-56.5 1037.5,-56.5"/>
<text text-anchor="middle" x="1071.5" y="-63.5" font-family="Helvetica,sans-Serif" font-size="10.00">sys/time.h</text>
</a>
</g>
</g>
<!-- Node16&#45;&gt;Node22 -->
<g id="edge21" class="edge">
<title>Node16&#45;&gt;Node22</title>
<path fill="none" stroke="midnightblue" d="M1157.11,-112.32C1140.83,-103.7 1115.63,-90.36 1096.78,-80.39"/>
<polygon fill="midnightblue" stroke="midnightblue" points="1098.32,-77.24 1087.85,-75.65 1095.05,-83.43 1098.32,-77.24"/>
</g>
<!-- Node18 -->
<g id="node18" class="node">
<title>Node18</title>
<g id="a_node18"><a xlink:title=" ">
<polygon fill="white" stroke="#bfbfbf" points="1114.5,-0.5 1114.5,-19.5 1164.5,-19.5 1164.5,-0.5 1114.5,-0.5"/>
<text text-anchor="middle" x="1139.5" y="-7.5" font-family="Helvetica,sans-Serif" font-size="10.00">stdio.h</text>
</a>
</g>
</g>
<!-- Node17&#45;&gt;Node18 -->
<g id="edge17" class="edge">
<title>Node17&#45;&gt;Node18</title>
<path fill="none" stroke="midnightblue" d="M1167.89,-56.08C1163.13,-48.53 1156.18,-37.49 1150.35,-28.23"/>
<polygon fill="midnightblue" stroke="midnightblue" points="1153.3,-26.35 1145.01,-19.75 1147.38,-30.08 1153.3,-26.35"/>
</g>
<!-- Node19 -->
<g id="node19" class="node">
<title>Node19</title>
<g id="a_node19"><a xlink:title=" ">
<polygon fill="white" stroke="#bfbfbf" points="1182.5,-0.5 1182.5,-19.5 1230.5,-19.5 1230.5,-0.5 1182.5,-0.5"/>
<text text-anchor="middle" x="1206.5" y="-7.5" font-family="Helvetica,sans-Serif" font-size="10.00">time.h</text>
</a>
</g>
</g>
<!-- Node17&#45;&gt;Node19 -->
<g id="edge18" class="edge">
<title>Node17&#45;&gt;Node19</title>
<path fill="none" stroke="midnightblue" d="M1178.95,-56.08C1183.51,-48.61 1190.17,-37.72 1195.79,-28.52"/>
<polygon fill="midnightblue" stroke="midnightblue" points="1198.92,-30.11 1201.15,-19.75 1192.95,-26.46 1198.92,-30.11"/>
</g>
<!-- Node29&#45;&gt;Node11 -->
<g id="edge29" class="edge">
<title>Node29&#45;&gt;Node11</title>
<path fill="none" stroke="midnightblue" d="M2088.9,-168.44C2067.51,-159.56 2033.82,-145.56 2009.48,-135.45"/>
<polygon fill="midnightblue" stroke="midnightblue" points="2010.58,-132.12 2000,-131.52 2007.89,-138.58 2010.58,-132.12"/>
</g>
<!-- Node29&#45;&gt;Node20 -->
<g id="edge33" class="edge">
<title>Node29&#45;&gt;Node20</title>
<path fill="none" stroke="midnightblue" d="M2101.69,-168.38C2087.92,-153.83 2057.73,-124.76 2025.5,-112 1946.99,-80.91 1690.43,-70.72 1593.26,-67.92"/>
<polygon fill="midnightblue" stroke="midnightblue" points="1593.12,-64.42 1583.02,-67.64 1592.92,-71.41 1593.12,-64.42"/>
</g>
<!-- Node30 -->
<g id="node30" class="node">
<title>Node30</title>
<g id="a_node30"><a xlink:title=" ">
<polygon fill="white" stroke="#bfbfbf" points="2072.5,-112.5 2072.5,-131.5 2146.5,-131.5 2146.5,-112.5 2072.5,-112.5"/>
<text text-anchor="middle" x="2109.5" y="-119.5" font-family="Helvetica,sans-Serif" font-size="10.00">G4String.hh</text>
</a>
</g>
</g>
<!-- Node29&#45;&gt;Node30 -->
<g id="edge30" class="edge">
<title>Node29&#45;&gt;Node30</title>
<path fill="none" stroke="midnightblue" d="M2109.5,-168.08C2109.5,-161.01 2109.5,-150.86 2109.5,-141.99"/>
<polygon fill="midnightblue" stroke="midnightblue" points="2113,-141.75 2109.5,-131.75 2106,-141.75 2113,-141.75"/>
</g>
<!-- Node31 -->
<g id="node31" class="node">
<title>Node31</title>
<g id="a_node31"><a xlink:title=" ">
<polygon fill="white" stroke="#bfbfbf" points="2165,-112.5 2165,-131.5 2268,-131.5 2268,-112.5 2165,-112.5"/>
<text text-anchor="middle" x="2216.5" y="-119.5" font-family="Helvetica,sans-Serif" font-size="10.00">G4ThreeVector.hh</text>
</a>
</g>
</g>
<!-- Node29&#45;&gt;Node31 -->
<g id="edge31" class="edge">
<title>Node29&#45;&gt;Node31</title>
<path fill="none" stroke="midnightblue" d="M2126.69,-168.32C2143.85,-159.66 2170.45,-146.24 2190.25,-136.25"/>
<polygon fill="midnightblue" stroke="midnightblue" points="2192,-139.28 2199.35,-131.65 2188.85,-133.04 2192,-139.28"/>
</g>
<!-- Node32 -->
<g id="node32" class="node">
<title>Node32</title>
<g id="a_node32"><a xlink:title=" ">
<polygon fill="white" stroke="#bfbfbf" points="2286,-112.5 2286,-131.5 2333,-131.5 2333,-112.5 2286,-112.5"/>
<text text-anchor="middle" x="2309.5" y="-119.5" font-family="Helvetica,sans-Serif" font-size="10.00">vector</text>
</a>
</g>
</g>
<!-- Node29&#45;&gt;Node32 -->
<g id="edge32" class="edge">
<title>Node29&#45;&gt;Node32</title>
<path fill="none" stroke="midnightblue" d="M2141.74,-168.49C2173.6,-160.06 2223.99,-146.64 2276.01,-132.39"/>
<polygon fill="midnightblue" stroke="midnightblue" points="2277.03,-135.74 2285.74,-129.72 2275.17,-128.99 2277.03,-135.74"/>
</g>
<!-- Node33 -->
<g id="node33" class="node">
<title>Node33</title>
<g id="a_node33"><a xlink:title=" ">
<polygon fill="white" stroke="#bfbfbf" points="2351,-112.5 2351,-131.5 2392,-131.5 2392,-112.5 2351,-112.5"/>
<text text-anchor="middle" x="2371.5" y="-119.5" font-family="Helvetica,sans-Serif" font-size="10.00">tuple</text>
</a>
</g>
</g>
<!-- Node29&#45;&gt;Node33 -->
<g id="edge34" class="edge">
<title>Node29&#45;&gt;Node33</title>
<path fill="none" stroke="midnightblue" d="M2162.61,-168.46C2207.85,-160.8 2274.73,-148.56 2341.18,-132.13"/>
<polygon fill="midnightblue" stroke="midnightblue" points="2342.13,-135.5 2350.98,-129.67 2340.43,-128.71 2342.13,-135.5"/>
</g>
<!-- Node34&#45;&gt;Node6 -->
<g id="edge37" class="edge">
<title>Node34&#45;&gt;Node6</title>
<path fill="none" stroke="midnightblue" d="M96.59,-224.08C98.49,-211.05 103.2,-186.39 113.5,-168 119.67,-156.98 129.1,-146.54 137.46,-138.5"/>
<polygon fill="midnightblue" stroke="midnightblue" points="140,-140.91 145.01,-131.58 135.27,-135.75 140,-140.91"/>
</g>
<!-- Node35 -->
<g id="node35" class="node">
<title>Node35</title>
<g id="a_node35"><a xlink:title=" ">
<polygon fill="white" stroke="#bfbfbf" points="0,-168.5 0,-187.5 67,-187.5 67,-168.5 0,-168.5"/>
<text text-anchor="middle" x="33.5" y="-175.5" font-family="Helvetica,sans-Serif" font-size="10.00">globals.hh</text>
</a>
</g>
</g>
<!-- Node34&#45;&gt;Node35 -->
<g id="edge38" class="edge">
<title>Node34&#45;&gt;Node35</title>
<path fill="none" stroke="midnightblue" d="M85.54,-224.32C76.37,-216.34 62.56,-204.31 51.47,-194.65"/>
<polygon fill="midnightblue" stroke="midnightblue" points="53.48,-191.76 43.64,-187.83 48.88,-197.04 53.48,-191.76"/>
</g>
</g>
</svg>
