<?xml version="1.0" encoding="UTF-8" standalone="no"?>
<!DOCTYPE svg PUBLIC "-//W3C//DTD SVG 1.1//EN"
 "http://www.w3.org/Graphics/SVG/1.1/DTD/svg11.dtd">
<!-- Generated by graphviz version 2.43.0 (0)
 -->
<!-- Title: OMSim.hh Pages: 1 -->
<svg width="2854pt" height="375pt"
 viewBox="0.00 0.00 2853.50 375.00" xmlns="http://www.w3.org/2000/svg" xmlns:xlink="http://www.w3.org/1999/xlink">
<g id="graph0" class="graph" transform="scale(1 1) rotate(0) translate(4 371)">
<title>OMSim.hh</title>
<polygon fill="white" stroke="transparent" points="-4,4 -4,-371 2849.5,-371 2849.5,4 -4,4"/>
<!-- Node1 -->
<g id="node1" class="node">
<title>Node1</title>
<g id="a_node1"><a xlink:title="Main simulation class for the Optical Module (OM) simulation.">
<polygon fill="#bfbfbf" stroke="black" points="1891,-347.5 1891,-366.5 1958,-366.5 1958,-347.5 1891,-347.5"/>
<text text-anchor="middle" x="1924.5" y="-354.5" font-family="Helvetica,sans-Serif" font-size="10.00">OMSim.hh</text>
</a>
</g>
</g>
<!-- Node2 -->
<g id="node2" class="node">
<title>Node2</title>
<g id="a_node2"><a xlink:href="_o_m_sim_detector_construction_8hh.html" target="_top" xlink:title=" ">
<polygon fill="white" stroke="black" points="345.5,-291.5 345.5,-310.5 515.5,-310.5 515.5,-291.5 345.5,-291.5"/>
<text text-anchor="middle" x="430.5" y="-298.5" font-family="Helvetica,sans-Serif" font-size="10.00">OMSimDetectorConstruction.hh</text>
</a>
</g>
</g>
<!-- Node1&#45;&gt;Node2 -->
<g id="edge1" class="edge">
<title>Node1&#45;&gt;Node2</title>
<path fill="none" stroke="midnightblue" d="M1890.85,-354.78C1706.86,-348.13 820.27,-316.09 525.8,-305.44"/>
<polygon fill="midnightblue" stroke="midnightblue" points="525.7,-301.94 515.58,-305.08 525.44,-308.93 525.7,-301.94"/>
</g>
<!-- Node22 -->
<g id="node17" class="node">
<title>Node22</title>
<g id="a_node17"><a xlink:href="_o_m_sim_physics_list_8hh.html" target="_top" xlink:title=" ">
<polygon fill="white" stroke="black" points="858,-291.5 858,-310.5 979,-310.5 979,-291.5 858,-291.5"/>
<text text-anchor="middle" x="918.5" y="-298.5" font-family="Helvetica,sans-Serif" font-size="10.00">OMSimPhysicsList.hh</text>
</a>
</g>
</g>
<!-- Node1&#45;&gt;Node22 -->
<g id="edge20" class="edge">
<title>Node1&#45;&gt;Node22</title>
<path fill="none" stroke="midnightblue" d="M1890.86,-355.35C1770.3,-352.83 1348.5,-342.25 989.25,-310.99"/>
<polygon fill="midnightblue" stroke="midnightblue" points="989.44,-307.49 979.17,-310.1 988.83,-314.46 989.44,-307.49"/>
</g>
<!-- Node25 -->
<g id="node20" class="node">
<title>Node25</title>
<g id="a_node20"><a xlink:href="_o_m_sim_primary_generator_action_8hh.html" target="_top" xlink:title=" ">
<polygon fill="white" stroke="black" points="1187,-291.5 1187,-310.5 1372,-310.5 1372,-291.5 1187,-291.5"/>
<text text-anchor="middle" x="1279.5" y="-298.5" font-family="Helvetica,sans-Serif" font-size="10.00">OMSimPrimaryGeneratorAction.hh</text>
</a>
</g>
</g>
<!-- Node1&#45;&gt;Node25 -->
<g id="edge23" class="edge">
<title>Node1&#45;&gt;Node25</title>
<path fill="none" stroke="midnightblue" d="M1890.73,-353.17C1796.91,-345.32 1530.3,-323 1382.07,-310.59"/>
<polygon fill="midnightblue" stroke="midnightblue" points="1382.3,-307.09 1372.04,-309.75 1381.71,-314.07 1382.3,-307.09"/>
</g>
<!-- Node27 -->
<g id="node22" class="node">
<title>Node27</title>
<g id="a_node22"><a xlink:href="_o_m_sim_run_action_8hh.html" target="_top" xlink:title=" ">
<polygon fill="white" stroke="black" points="997.5,-291.5 997.5,-310.5 1113.5,-310.5 1113.5,-291.5 997.5,-291.5"/>
<text text-anchor="middle" x="1055.5" y="-298.5" font-family="Helvetica,sans-Serif" font-size="10.00">OMSimRunAction.hh</text>
</a>
</g>
</g>
<!-- Node1&#45;&gt;Node27 -->
<g id="edge25" class="edge">
<title>Node1&#45;&gt;Node27</title>
<path fill="none" stroke="midnightblue" d="M1890.99,-354.14C1785.82,-348.28 1452.97,-329.46 1177.5,-311 1160.05,-309.83 1141.21,-308.48 1123.67,-307.19"/>
<polygon fill="midnightblue" stroke="midnightblue" points="1123.74,-303.69 1113.51,-306.44 1123.23,-310.67 1123.74,-303.69"/>
</g>
<!-- Node29 -->
<g id="node24" class="node">
<title>Node29</title>
<g id="a_node24"><a xlink:href="_o_m_sim_event_action_8hh.html" target="_top" xlink:title=" ">
<polygon fill="white" stroke="black" points="1432,-291.5 1432,-310.5 1557,-310.5 1557,-291.5 1432,-291.5"/>
<text text-anchor="middle" x="1494.5" y="-298.5" font-family="Helvetica,sans-Serif" font-size="10.00">OMSimEventAction.hh</text>
</a>
</g>
</g>
<!-- Node1&#45;&gt;Node29 -->
<g id="edge28" class="edge">
<title>Node1&#45;&gt;Node29</title>
<path fill="none" stroke="midnightblue" d="M1890.76,-351.76C1821.32,-343.04 1661.08,-322.92 1567.02,-311.11"/>
<polygon fill="midnightblue" stroke="midnightblue" points="1567.36,-307.62 1557,-309.85 1566.49,-314.57 1567.36,-307.62"/>
</g>
<!-- Node32 -->
<g id="node27" class="node">
<title>Node32</title>
<g id="a_node27"><a xlink:href="_o_m_sim_tracking_action_8hh.html" target="_top" xlink:title=" ">
<polygon fill="white" stroke="black" points="1617.5,-291.5 1617.5,-310.5 1755.5,-310.5 1755.5,-291.5 1617.5,-291.5"/>
<text text-anchor="middle" x="1686.5" y="-298.5" font-family="Helvetica,sans-Serif" font-size="10.00">OMSimTrackingAction.hh</text>
</a>
</g>
</g>
<!-- Node1&#45;&gt;Node32 -->
<g id="edge31" class="edge">
<title>Node1&#45;&gt;Node32</title>
<path fill="none" stroke="midnightblue" d="M1890.91,-348.38C1849.96,-339.09 1780.5,-323.33 1734.07,-312.79"/>
<polygon fill="midnightblue" stroke="midnightblue" points="1734.77,-309.36 1724.24,-310.56 1733.22,-316.19 1734.77,-309.36"/>
</g>
<!-- Node34 -->
<g id="node29" class="node">
<title>Node34</title>
<g id="a_node29"><a xlink:href="_o_m_sim_stepping_action_8hh.html" target="_top" xlink:title=" ">
<polygon fill="white" stroke="black" points="1773.5,-291.5 1773.5,-310.5 1913.5,-310.5 1913.5,-291.5 1773.5,-291.5"/>
<text text-anchor="middle" x="1843.5" y="-298.5" font-family="Helvetica,sans-Serif" font-size="10.00">OMSimSteppingAction.hh</text>
</a>
</g>
</g>
<!-- Node1&#45;&gt;Node34 -->
<g id="edge33" class="edge">
<title>Node1&#45;&gt;Node34</title>
<path fill="none" stroke="midnightblue" d="M1911.49,-347.32C1898.97,-338.98 1879.82,-326.21 1865.03,-316.35"/>
<polygon fill="midnightblue" stroke="midnightblue" points="1866.74,-313.29 1856.48,-310.65 1862.86,-319.11 1866.74,-313.29"/>
</g>
<!-- Node39 -->
<g id="node34" class="node">
<title>Node39</title>
<g id="a_node34"><a xlink:href="_o_m_sim_analysis_manager_8hh.html" target="_top" xlink:title=" ">
<polygon fill="white" stroke="black" points="1931.5,-291.5 1931.5,-310.5 2081.5,-310.5 2081.5,-291.5 1931.5,-291.5"/>
<text text-anchor="middle" x="2006.5" y="-298.5" font-family="Helvetica,sans-Serif" font-size="10.00">OMSimAnalysisManager.hh</text>
</a>
</g>
</g>
<!-- Node1&#45;&gt;Node39 -->
<g id="edge38" class="edge">
<title>Node1&#45;&gt;Node39</title>
<path fill="none" stroke="midnightblue" d="M1937.67,-347.32C1950.35,-338.98 1969.73,-326.21 1984.71,-316.35"/>
<polygon fill="midnightblue" stroke="midnightblue" points="1986.93,-319.08 1993.36,-310.65 1983.08,-313.23 1986.93,-319.08"/>
</g>
<!-- Node46 -->
<g id="node41" class="node">
<title>Node46</title>
<g id="a_node41"><a xlink:href="_o_m_sim_u_iinterface_8hh.html" target="_top" xlink:title="The OMSimUIinterface class provides a singleton interface to Geant4&#39;s UI manager.">
<polygon fill="white" stroke="black" points="2099,-291.5 2099,-310.5 2220,-310.5 2220,-291.5 2099,-291.5"/>
<text text-anchor="middle" x="2159.5" y="-298.5" font-family="Helvetica,sans-Serif" font-size="10.00">OMSimUIinterface.hh</text>
</a>
</g>
</g>
<!-- Node1&#45;&gt;Node46 -->
<g id="edge50" class="edge">
<title>Node1&#45;&gt;Node46</title>
<path fill="none" stroke="midnightblue" d="M1958.17,-348.26C1998.64,-338.96 2066.8,-323.3 2112.45,-312.81"/>
<polygon fill="midnightblue" stroke="midnightblue" points="2113.44,-316.18 2122.4,-310.52 2111.87,-309.35 2113.44,-316.18"/>
</g>
<!-- Node54 -->
<g id="node46" class="node">
<title>Node54</title>
<g id="a_node46"><a xlink:title=" ">
<polygon fill="white" stroke="#bfbfbf" points="2238.5,-291.5 2238.5,-310.5 2344.5,-310.5 2344.5,-291.5 2238.5,-291.5"/>
<text text-anchor="middle" x="2291.5" y="-298.5" font-family="Helvetica,sans-Serif" font-size="10.00">G4RunManager.hh</text>
</a>
</g>
</g>
<!-- Node1&#45;&gt;Node54 -->
<g id="edge56" class="edge">
<title>Node1&#45;&gt;Node54</title>
<path fill="none" stroke="midnightblue" d="M1958.04,-351.06C2019.18,-342.07 2149.64,-322.87 2228.03,-311.34"/>
<polygon fill="midnightblue" stroke="midnightblue" points="2228.88,-314.75 2238.26,-309.83 2227.86,-307.83 2228.88,-314.75"/>
</g>
<!-- Node55 -->
<g id="node47" class="node">
<title>Node55</title>
<g id="a_node47"><a xlink:title=" ">
<polygon fill="white" stroke="#bfbfbf" points="2363,-291.5 2363,-310.5 2470,-310.5 2470,-291.5 2363,-291.5"/>
<text text-anchor="middle" x="2416.5" y="-298.5" font-family="Helvetica,sans-Serif" font-size="10.00">G4VisExecutive.hh</text>
</a>
</g>
</g>
<!-- Node1&#45;&gt;Node55 -->
<g id="edge57" class="edge">
<title>Node1&#45;&gt;Node55</title>
<path fill="none" stroke="midnightblue" d="M1958.2,-352.9C2029.08,-346.28 2199.02,-329.92 2352.8,-311.04"/>
<polygon fill="midnightblue" stroke="midnightblue" points="2353.41,-314.49 2362.9,-309.8 2352.55,-307.55 2353.41,-314.49"/>
</g>
<!-- Node56 -->
<g id="node48" class="node">
<title>Node56</title>
<g id="a_node48"><a xlink:title=" ">
<polygon fill="white" stroke="#bfbfbf" points="2488,-291.5 2488,-310.5 2591,-310.5 2591,-291.5 2488,-291.5"/>
<text text-anchor="middle" x="2539.5" y="-298.5" font-family="Helvetica,sans-Serif" font-size="10.00">G4UIExecutive.hh</text>
</a>
</g>
</g>
<!-- Node1&#45;&gt;Node56 -->
<g id="edge58" class="edge">
<title>Node1&#45;&gt;Node56</title>
<path fill="none" stroke="midnightblue" d="M1958.05,-354.08C2043.19,-349.03 2274.77,-334.23 2477.86,-311.12"/>
<polygon fill="midnightblue" stroke="midnightblue" points="2478.28,-314.6 2487.82,-309.98 2477.49,-307.64 2478.28,-314.6"/>
</g>
<!-- Node57 -->
<g id="node49" class="node">
<title>Node57</title>
<g id="a_node49"><a xlink:title=" ">
<polygon fill="white" stroke="#bfbfbf" points="2609.5,-291.5 2609.5,-310.5 2677.5,-310.5 2677.5,-291.5 2609.5,-291.5"/>
<text text-anchor="middle" x="2643.5" y="-298.5" font-family="Helvetica,sans-Serif" font-size="10.00">filesystem</text>
</a>
</g>
</g>
<!-- Node1&#45;&gt;Node57 -->
<g id="edge59" class="edge">
<title>Node1&#45;&gt;Node57</title>
<path fill="none" stroke="midnightblue" d="M1958.08,-355.42C2055.66,-353.4 2347.66,-344.86 2599.25,-310.98"/>
<polygon fill="midnightblue" stroke="midnightblue" points="2599.87,-314.43 2609.31,-309.61 2598.93,-307.49 2599.87,-314.43"/>
</g>
<!-- Node58 -->
<g id="node50" class="node">
<title>Node58</title>
<g id="a_node50"><a xlink:title=" ">
<polygon fill="white" stroke="#bfbfbf" points="2695.5,-291.5 2695.5,-310.5 2845.5,-310.5 2845.5,-291.5 2695.5,-291.5"/>
<text text-anchor="middle" x="2770.5" y="-298.5" font-family="Helvetica,sans-Serif" font-size="10.00">boost/program_options.hpp</text>
</a>
</g>
</g>
<!-- Node1&#45;&gt;Node58 -->
<g id="edge60" class="edge">
<title>Node1&#45;&gt;Node58</title>
<path fill="none" stroke="midnightblue" d="M1958.34,-354.58C2064.03,-350.02 2397.58,-334.7 2685.2,-311.07"/>
<polygon fill="midnightblue" stroke="midnightblue" points="2685.73,-314.54 2695.41,-310.22 2685.16,-307.56 2685.73,-314.54"/>
</g>
<!-- Node3 -->
<g id="node3" class="node">
<title>Node3</title>
<g id="a_node3"><a xlink:title=" ">
<polygon fill="white" stroke="#bfbfbf" points="537.5,-235.5 537.5,-254.5 653.5,-254.5 653.5,-235.5 537.5,-235.5"/>
<text text-anchor="middle" x="595.5" y="-242.5" font-family="Helvetica,sans-Serif" font-size="10.00">G4LogicalVolume.hh</text>
</a>
</g>
</g>
<!-- Node2&#45;&gt;Node3 -->
<g id="edge2" class="edge">
<title>Node2&#45;&gt;Node3</title>
<path fill="none" stroke="midnightblue" d="M456.64,-291.44C484.52,-282.32 528.85,-267.81 559.9,-257.65"/>
<polygon fill="midnightblue" stroke="midnightblue" points="561.06,-260.95 569.48,-254.52 558.88,-254.3 561.06,-260.95"/>
</g>
<!-- Node4 -->
<g id="node4" class="node">
<title>Node4</title>
<g id="a_node4"><a xlink:title=" ">
<polygon fill="white" stroke="#bfbfbf" points="671.5,-235.5 671.5,-254.5 733.5,-254.5 733.5,-235.5 671.5,-235.5"/>
<text text-anchor="middle" x="702.5" y="-242.5" font-family="Helvetica,sans-Serif" font-size="10.00">G4Orb.hh</text>
</a>
</g>
</g>
<!-- Node2&#45;&gt;Node4 -->
<g id="edge3" class="edge">
<title>Node2&#45;&gt;Node4</title>
<path fill="none" stroke="midnightblue" d="M476.8,-291.44C521.58,-283.06 591.61,-269.72 661.25,-255.22"/>
<polygon fill="midnightblue" stroke="midnightblue" points="662,-258.64 671.08,-253.16 660.57,-251.78 662,-258.64"/>
</g>
<!-- Node5 -->
<g id="node5" class="node">
<title>Node5</title>
<g id="a_node5"><a xlink:title=" ">
<polygon fill="white" stroke="#bfbfbf" points="0,-235.5 0,-254.5 129,-254.5 129,-235.5 0,-235.5"/>
<text text-anchor="middle" x="64.5" y="-242.5" font-family="Helvetica,sans-Serif" font-size="10.00">G4VPhysicalVolume.hh</text>
</a>
</g>
</g>
<!-- Node2&#45;&gt;Node5 -->
<g id="edge4" class="edge">
<title>Node2&#45;&gt;Node5</title>
<path fill="none" stroke="midnightblue" d="M372.51,-291.44C307.19,-281.81 201.16,-266.16 132.13,-255.98"/>
<polygon fill="midnightblue" stroke="midnightblue" points="132.63,-252.51 122.22,-254.52 131.6,-259.44 132.63,-252.51"/>
</g>
<!-- Node6 -->
<g id="node6" class="node">
<title>Node6</title>
<g id="a_node6"><a xlink:title=" ">
<polygon fill="white" stroke="#bfbfbf" points="147.5,-235.5 147.5,-254.5 325.5,-254.5 325.5,-235.5 147.5,-235.5"/>
<text text-anchor="middle" x="236.5" y="-242.5" font-family="Helvetica,sans-Serif" font-size="10.00">G4VUserDetectorConstruction.hh</text>
</a>
</g>
</g>
<!-- Node2&#45;&gt;Node6 -->
<g id="edge5" class="edge">
<title>Node2&#45;&gt;Node6</title>
<path fill="none" stroke="midnightblue" d="M399.76,-291.44C366.56,-282.2 313.51,-267.44 276.94,-257.26"/>
<polygon fill="midnightblue" stroke="midnightblue" points="277.67,-253.83 267.1,-254.52 275.79,-260.57 277.67,-253.83"/>
</g>
<!-- Node7 -->
<g id="node7" class="node">
<title>Node7</title>
<g id="a_node7"><a xlink:href="_o_m_sim_input_data_8hh.html" target="_top" xlink:title=" ">
<polygon fill="white" stroke="black" points="600,-67.5 600,-86.5 715,-86.5 715,-67.5 600,-67.5"/>
<text text-anchor="middle" x="657.5" y="-74.5" font-family="Helvetica,sans-Serif" font-size="10.00">OMSimInputData.hh</text>
</a>
</g>
</g>
<!-- Node2&#45;&gt;Node7 -->
<g id="edge6" class="edge">
<title>Node2&#45;&gt;Node7</title>
<path fill="none" stroke="midnightblue" d="M422.35,-291.13C397.62,-263.12 327.76,-175.36 372.5,-123 399.85,-90.99 514.16,-81.62 589.44,-78.95"/>
<polygon fill="midnightblue" stroke="midnightblue" points="589.91,-82.44 599.79,-78.62 589.68,-75.44 589.91,-82.44"/>
</g>
<!-- Node11 -->
<g id="node11" class="node">
<title>Node11</title>
<g id="a_node11"><a xlink:href="_o_m_sim_p_m_t_construction_8hh.html" target="_top" xlink:title=" ">
<polygon fill="white" stroke="black" points="388,-179.5 388,-198.5 537,-198.5 537,-179.5 388,-179.5"/>
<text text-anchor="middle" x="462.5" y="-186.5" font-family="Helvetica,sans-Serif" font-size="10.00">OMSimPMTConstruction.hh</text>
</a>
</g>
</g>
<!-- Node2&#45;&gt;Node11 -->
<g id="edge10" class="edge">
<title>Node2&#45;&gt;Node11</title>
<path fill="none" stroke="midnightblue" d="M423.92,-291.33C415.14,-278.61 401.67,-254.33 410.5,-235 416.28,-222.36 427.55,-211.91 438.13,-204.27"/>
<polygon fill="midnightblue" stroke="midnightblue" points="440.35,-207 446.72,-198.53 436.46,-201.18 440.35,-207"/>
</g>
<!-- Node19 -->
<g id="node15" class="node">
<title>Node19</title>
<g id="a_node15"><a xlink:href="_o_m_sim_m_d_o_m_8hh.html" target="_top" xlink:title=" ">
<polygon fill="white" stroke="black" points="419.5,-235.5 419.5,-254.5 519.5,-254.5 519.5,-235.5 419.5,-235.5"/>
<text text-anchor="middle" x="469.5" y="-242.5" font-family="Helvetica,sans-Serif" font-size="10.00">OMSimMDOM.hh</text>
</a>
</g>
</g>
<!-- Node2&#45;&gt;Node19 -->
<g id="edge15" class="edge">
<title>Node2&#45;&gt;Node19</title>
<path fill="none" stroke="midnightblue" d="M436.94,-291.08C442.45,-283.46 450.53,-272.26 457.26,-262.94"/>
<polygon fill="midnightblue" stroke="midnightblue" points="460.16,-264.91 463.18,-254.75 454.49,-260.81 460.16,-264.91"/>
</g>
<!-- Node8 -->
<g id="node8" class="node">
<title>Node8</title>
<g id="a_node8"><a xlink:title=" ">
<polygon fill="white" stroke="#bfbfbf" points="674,-0.5 674,-30.5 787,-30.5 787,-0.5 674,-0.5"/>
<text text-anchor="start" x="682" y="-18.5" font-family="Helvetica,sans-Serif" font-size="10.00">boost/property_tree</text>
<text text-anchor="middle" x="730.5" y="-7.5" font-family="Helvetica,sans-Serif" font-size="10.00">/json_parser.hpp</text>
</a>
</g>
</g>
<!-- Node7&#45;&gt;Node8 -->
<g id="edge7" class="edge">
<title>Node7&#45;&gt;Node8</title>
<path fill="none" stroke="midnightblue" d="M667.96,-67.48C677.66,-59.57 692.49,-47.48 705.27,-37.07"/>
<polygon fill="midnightblue" stroke="midnightblue" points="707.76,-39.55 713.3,-30.52 703.33,-34.13 707.76,-39.55"/>
</g>
<!-- Node9 -->
<g id="node9" class="node">
<title>Node9</title>
<g id="a_node9"><a xlink:title=" ">
<polygon fill="white" stroke="#bfbfbf" points="513,-6 513,-25 656,-25 656,-6 513,-6"/>
<text text-anchor="middle" x="584.5" y="-13" font-family="Helvetica,sans-Serif" font-size="10.00">G4OpBoundaryProcess.hh</text>
</a>
</g>
</g>
<!-- Node7&#45;&gt;Node9 -->
<g id="edge8" class="edge">
<title>Node7&#45;&gt;Node9</title>
<path fill="none" stroke="midnightblue" d="M647.04,-67.48C635.55,-58.11 616.87,-42.88 602.91,-31.51"/>
<polygon fill="midnightblue" stroke="midnightblue" points="604.9,-28.61 594.94,-25.01 600.48,-34.04 604.9,-28.61"/>
</g>
<!-- Node10 -->
<g id="node10" class="node">
<title>Node10</title>
<g id="a_node10"><a xlink:title=" ">
<polygon fill="white" stroke="#bfbfbf" points="1530,-6 1530,-25 1649,-25 1649,-6 1530,-6"/>
<text text-anchor="middle" x="1589.5" y="-13" font-family="Helvetica,sans-Serif" font-size="10.00">G4SystemOfUnits.hh</text>
</a>
</g>
</g>
<!-- Node7&#45;&gt;Node10 -->
<g id="edge9" class="edge">
<title>Node7&#45;&gt;Node10</title>
<path fill="none" stroke="midnightblue" d="M715.1,-72.32C878.14,-61.91 1342.49,-32.27 1519.65,-20.96"/>
<polygon fill="midnightblue" stroke="midnightblue" points="1520.13,-24.44 1529.89,-20.31 1519.69,-17.45 1520.13,-24.44"/>
</g>
<!-- Node12 -->
<g id="node12" class="node">
<title>Node12</title>
<g id="a_node12"><a xlink:href="abc_detector_component_8hh.html" target="_top" xlink:title=" ">
<polygon fill="white" stroke="red" points="584,-123.5 584,-142.5 731,-142.5 731,-123.5 584,-123.5"/>
<text text-anchor="middle" x="657.5" y="-130.5" font-family="Helvetica,sans-Serif" font-size="10.00">abcDetectorComponent.hh</text>
</a>
</g>
</g>
<!-- Node11&#45;&gt;Node12 -->
<g id="edge11" class="edge">
<title>Node11&#45;&gt;Node12</title>
<path fill="none" stroke="midnightblue" d="M493.4,-179.44C526.77,-170.2 580.09,-155.44 616.85,-145.26"/>
<polygon fill="midnightblue" stroke="midnightblue" points="618.04,-148.56 626.75,-142.52 616.17,-141.81 618.04,-148.56"/>
</g>
<!-- Node17 -->
<g id="node13" class="node">
<title>Node17</title>
<g id="a_node13"><a xlink:title=" ">
<polygon fill="white" stroke="#bfbfbf" points="467.5,-123.5 467.5,-142.5 565.5,-142.5 565.5,-123.5 467.5,-123.5"/>
<text text-anchor="middle" x="516.5" y="-130.5" font-family="Helvetica,sans-Serif" font-size="10.00">G4UnionSolid.hh</text>
</a>
</g>
</g>
<!-- Node11&#45;&gt;Node17 -->
<g id="edge13" class="edge">
<title>Node11&#45;&gt;Node17</title>
<path fill="none" stroke="midnightblue" d="M471.42,-179.08C479.28,-171.22 490.93,-159.57 500.42,-150.08"/>
<polygon fill="midnightblue" stroke="midnightblue" points="503.15,-152.3 507.75,-142.75 498.2,-147.35 503.15,-152.3"/>
</g>
<!-- Node18 -->
<g id="node14" class="node">
<title>Node18</title>
<g id="a_node14"><a xlink:title=" ">
<polygon fill="white" stroke="#bfbfbf" points="382,-123.5 382,-142.5 449,-142.5 449,-123.5 382,-123.5"/>
<text text-anchor="middle" x="415.5" y="-130.5" font-family="Helvetica,sans-Serif" font-size="10.00">G4Tubs.hh</text>
</a>
</g>
</g>
<!-- Node11&#45;&gt;Node18 -->
<g id="edge14" class="edge">
<title>Node11&#45;&gt;Node18</title>
<path fill="none" stroke="midnightblue" d="M454.74,-179.08C447.96,-171.3 437.96,-159.8 429.74,-150.37"/>
<polygon fill="midnightblue" stroke="midnightblue" points="432.32,-148 423.12,-142.75 427.04,-152.59 432.32,-148"/>
</g>
<!-- Node12&#45;&gt;Node7 -->
<g id="edge12" class="edge">
<title>Node12&#45;&gt;Node7</title>
<path fill="none" stroke="midnightblue" d="M657.5,-123.08C657.5,-116.01 657.5,-105.86 657.5,-96.99"/>
<polygon fill="midnightblue" stroke="midnightblue" points="661,-96.75 657.5,-86.75 654,-96.75 661,-96.75"/>
</g>
<!-- Node19&#45;&gt;Node11 -->
<g id="edge19" class="edge">
<title>Node19&#45;&gt;Node11</title>
<path fill="none" stroke="midnightblue" d="M468.34,-235.08C467.42,-227.93 466.08,-217.64 464.92,-208.69"/>
<polygon fill="midnightblue" stroke="midnightblue" points="468.39,-208.22 463.63,-198.75 461.45,-209.12 468.39,-208.22"/>
</g>
<!-- Node20 -->
<g id="node16" class="node">
<title>Node20</title>
<g id="a_node16"><a xlink:href="_o_m_sim_m_d_o_m_flasher_8hh.html" target="_top" xlink:title=" ">
<polygon fill="white" stroke="red" points="555,-179.5 555,-198.5 690,-198.5 690,-179.5 555,-179.5"/>
<text text-anchor="middle" x="622.5" y="-186.5" font-family="Helvetica,sans-Serif" font-size="10.00">OMSimMDOMFlasher.hh</text>
</a>
</g>
</g>
<!-- Node19&#45;&gt;Node20 -->
<g id="edge16" class="edge">
<title>Node19&#45;&gt;Node20</title>
<path fill="none" stroke="midnightblue" d="M493.74,-235.44C519.37,-226.4 559.99,-212.06 588.74,-201.92"/>
<polygon fill="midnightblue" stroke="midnightblue" points="590.11,-205.15 598.37,-198.52 587.78,-198.54 590.11,-205.15"/>
</g>
<!-- Node20&#45;&gt;Node12 -->
<g id="edge17" class="edge">
<title>Node20&#45;&gt;Node12</title>
<path fill="none" stroke="midnightblue" d="M628.28,-179.08C633.17,-171.53 640.33,-160.49 646.33,-151.23"/>
<polygon fill="midnightblue" stroke="midnightblue" points="649.33,-153.05 651.83,-142.75 643.45,-149.24 649.33,-153.05"/>
</g>
<!-- Node20&#45;&gt;Node17 -->
<g id="edge18" class="edge">
<title>Node20&#45;&gt;Node17</title>
<path fill="none" stroke="midnightblue" d="M605.47,-179.32C588.47,-170.66 562.12,-157.24 542.51,-147.25"/>
<polygon fill="midnightblue" stroke="midnightblue" points="543.99,-144.08 533.49,-142.65 540.81,-150.31 543.99,-144.08"/>
</g>
<!-- Node23 -->
<g id="node18" class="node">
<title>Node23</title>
<g id="a_node18"><a xlink:title=" ">
<polygon fill="white" stroke="#bfbfbf" points="751.5,-235.5 751.5,-254.5 879.5,-254.5 879.5,-235.5 751.5,-235.5"/>
<text text-anchor="middle" x="815.5" y="-242.5" font-family="Helvetica,sans-Serif" font-size="10.00">G4VUserPhysicsList.hh</text>
</a>
</g>
</g>
<!-- Node22&#45;&gt;Node23 -->
<g id="edge21" class="edge">
<title>Node22&#45;&gt;Node23</title>
<path fill="none" stroke="midnightblue" d="M901.95,-291.32C885.51,-282.7 860.07,-269.36 841.03,-259.39"/>
<polygon fill="midnightblue" stroke="midnightblue" points="842.49,-256.2 832.01,-254.65 839.24,-262.4 842.49,-256.2"/>
</g>
<!-- Node24 -->
<g id="node19" class="node">
<title>Node24</title>
<g id="a_node19"><a xlink:title=" ">
<polygon fill="white" stroke="#bfbfbf" points="898,-235.5 898,-254.5 965,-254.5 965,-235.5 898,-235.5"/>
<text text-anchor="middle" x="931.5" y="-242.5" font-family="Helvetica,sans-Serif" font-size="10.00">globals.hh</text>
</a>
</g>
</g>
<!-- Node22&#45;&gt;Node24 -->
<g id="edge22" class="edge">
<title>Node22&#45;&gt;Node24</title>
<path fill="none" stroke="midnightblue" d="M920.65,-291.08C922.37,-283.93 924.85,-273.64 927,-264.69"/>
<polygon fill="midnightblue" stroke="midnightblue" points="930.46,-265.29 929.39,-254.75 923.65,-263.65 930.46,-265.29"/>
</g>
<!-- Node26 -->
<g id="node21" class="node">
<title>Node26</title>
<g id="a_node21"><a xlink:title=" ">
<polygon fill="white" stroke="#bfbfbf" points="1118.5,-235.5 1118.5,-254.5 1310.5,-254.5 1310.5,-235.5 1118.5,-235.5"/>
<text text-anchor="middle" x="1214.5" y="-242.5" font-family="Helvetica,sans-Serif" font-size="10.00">G4VUserPrimaryGeneratorAction.hh</text>
</a>
</g>
</g>
<!-- Node25&#45;&gt;Node26 -->
<g id="edge24" class="edge">
<title>Node25&#45;&gt;Node26</title>
<path fill="none" stroke="midnightblue" d="M1269.06,-291.32C1259.35,-283.26 1244.68,-271.08 1233,-261.37"/>
<polygon fill="midnightblue" stroke="midnightblue" points="1235.06,-258.53 1225.13,-254.83 1230.59,-263.92 1235.06,-258.53"/>
</g>
<!-- Node27&#45;&gt;Node24 -->
<g id="edge27" class="edge">
<title>Node27&#45;&gt;Node24</title>
<path fill="none" stroke="midnightblue" d="M1035.85,-291.44C1015.54,-282.6 983.6,-268.69 960.4,-258.59"/>
<polygon fill="midnightblue" stroke="midnightblue" points="961.62,-255.3 951.06,-254.52 958.83,-261.72 961.62,-255.3"/>
</g>
<!-- Node28 -->
<g id="node23" class="node">
<title>Node28</title>
<g id="a_node23"><a xlink:title=" ">
<polygon fill="white" stroke="#bfbfbf" points="983,-235.5 983,-254.5 1100,-254.5 1100,-235.5 983,-235.5"/>
<text text-anchor="middle" x="1041.5" y="-242.5" font-family="Helvetica,sans-Serif" font-size="10.00">G4UserRunAction.hh</text>
</a>
</g>
</g>
<!-- Node27&#45;&gt;Node28 -->
<g id="edge26" class="edge">
<title>Node27&#45;&gt;Node28</title>
<path fill="none" stroke="midnightblue" d="M1053.19,-291.08C1051.33,-283.93 1048.66,-273.64 1046.35,-264.69"/>
<polygon fill="midnightblue" stroke="midnightblue" points="1049.67,-263.55 1043.77,-254.75 1042.89,-265.31 1049.67,-263.55"/>
</g>
<!-- Node30 -->
<g id="node25" class="node">
<title>Node30</title>
<g id="a_node25"><a xlink:title=" ">
<polygon fill="white" stroke="#bfbfbf" points="1328.5,-235.5 1328.5,-254.5 1454.5,-254.5 1454.5,-235.5 1328.5,-235.5"/>
<text text-anchor="middle" x="1391.5" y="-242.5" font-family="Helvetica,sans-Serif" font-size="10.00">G4UserEventAction.hh</text>
</a>
</g>
</g>
<!-- Node29&#45;&gt;Node30 -->
<g id="edge29" class="edge">
<title>Node29&#45;&gt;Node30</title>
<path fill="none" stroke="midnightblue" d="M1477.95,-291.32C1461.51,-282.7 1436.07,-269.36 1417.03,-259.39"/>
<polygon fill="midnightblue" stroke="midnightblue" points="1418.49,-256.2 1408.01,-254.65 1415.24,-262.4 1418.49,-256.2"/>
</g>
<!-- Node31 -->
<g id="node26" class="node">
<title>Node31</title>
<g id="a_node26"><a xlink:title=" ">
<polygon fill="white" stroke="#bfbfbf" points="1472.5,-235.5 1472.5,-254.5 1516.5,-254.5 1516.5,-235.5 1472.5,-235.5"/>
<text text-anchor="middle" x="1494.5" y="-242.5" font-family="Helvetica,sans-Serif" font-size="10.00">string</text>
</a>
</g>
</g>
<!-- Node29&#45;&gt;Node31 -->
<g id="edge30" class="edge">
<title>Node29&#45;&gt;Node31</title>
<path fill="none" stroke="midnightblue" d="M1494.5,-291.08C1494.5,-284.01 1494.5,-273.86 1494.5,-264.99"/>
<polygon fill="midnightblue" stroke="midnightblue" points="1498,-264.75 1494.5,-254.75 1491,-264.75 1498,-264.75"/>
</g>
<!-- Node33 -->
<g id="node28" class="node">
<title>Node33</title>
<g id="a_node28"><a xlink:title=" ">
<polygon fill="white" stroke="#bfbfbf" points="1535,-235.5 1535,-254.5 1674,-254.5 1674,-235.5 1535,-235.5"/>
<text text-anchor="middle" x="1604.5" y="-242.5" font-family="Helvetica,sans-Serif" font-size="10.00">G4UserTrackingAction.hh</text>
</a>
</g>
</g>
<!-- Node32&#45;&gt;Node33 -->
<g id="edge32" class="edge">
<title>Node32&#45;&gt;Node33</title>
<path fill="none" stroke="midnightblue" d="M1673.33,-291.32C1660.65,-282.98 1641.27,-270.21 1626.29,-260.35"/>
<polygon fill="midnightblue" stroke="midnightblue" points="1627.92,-257.23 1617.64,-254.65 1624.07,-263.08 1627.92,-257.23"/>
</g>
<!-- Node35 -->
<g id="node30" class="node">
<title>Node35</title>
<g id="a_node30"><a xlink:title=" ">
<polygon fill="white" stroke="#bfbfbf" points="1981,-179.5 1981,-198.5 2054,-198.5 2054,-179.5 1981,-179.5"/>
<text text-anchor="middle" x="2017.5" y="-186.5" font-family="Helvetica,sans-Serif" font-size="10.00">G4Types.hh</text>
</a>
</g>
</g>
<!-- Node34&#45;&gt;Node35 -->
<g id="edge34" class="edge">
<title>Node34&#45;&gt;Node35</title>
<path fill="none" stroke="midnightblue" d="M1793.91,-291.46C1750.45,-281.87 1697.79,-263.76 1722.5,-235 1753.94,-198.4 1895.76,-191.24 1970.73,-190.05"/>
<polygon fill="midnightblue" stroke="midnightblue" points="1970.89,-193.55 1980.84,-189.92 1970.8,-186.55 1970.89,-193.55"/>
</g>
<!-- Node36 -->
<g id="node31" class="node">
<title>Node36</title>
<g id="a_node31"><a xlink:title=" ">
<polygon fill="white" stroke="#bfbfbf" points="2011.5,-235.5 2011.5,-254.5 2085.5,-254.5 2085.5,-235.5 2011.5,-235.5"/>
<text text-anchor="middle" x="2048.5" y="-242.5" font-family="Helvetica,sans-Serif" font-size="10.00">G4String.hh</text>
</a>
</g>
</g>
<!-- Node34&#45;&gt;Node36 -->
<g id="edge35" class="edge">
<title>Node34&#45;&gt;Node36</title>
<path fill="none" stroke="midnightblue" d="M1875.98,-291.44C1911.22,-282.16 1967.6,-267.31 2006.26,-257.13"/>
<polygon fill="midnightblue" stroke="midnightblue" points="2007.39,-260.45 2016.17,-254.52 2005.61,-253.68 2007.39,-260.45"/>
</g>
<!-- Node37 -->
<g id="node32" class="node">
<title>Node37</title>
<g id="a_node32"><a xlink:title=" ">
<polygon fill="white" stroke="#bfbfbf" points="1890,-235.5 1890,-254.5 1993,-254.5 1993,-235.5 1890,-235.5"/>
<text text-anchor="middle" x="1941.5" y="-242.5" font-family="Helvetica,sans-Serif" font-size="10.00">G4ThreeVector.hh</text>
</a>
</g>
</g>
<!-- Node34&#45;&gt;Node37 -->
<g id="edge36" class="edge">
<title>Node34&#45;&gt;Node37</title>
<path fill="none" stroke="midnightblue" d="M1859.25,-291.32C1874.82,-282.74 1898.88,-269.49 1916.96,-259.52"/>
<polygon fill="midnightblue" stroke="midnightblue" points="1918.72,-262.55 1925.79,-254.65 1915.35,-256.42 1918.72,-262.55"/>
</g>
<!-- Node38 -->
<g id="node33" class="node">
<title>Node38</title>
<g id="a_node33"><a xlink:title=" ">
<polygon fill="white" stroke="#bfbfbf" points="1731,-235.5 1731,-254.5 1872,-254.5 1872,-235.5 1731,-235.5"/>
<text text-anchor="middle" x="1801.5" y="-242.5" font-family="Helvetica,sans-Serif" font-size="10.00">G4UserSteppingAction.hh</text>
</a>
</g>
</g>
<!-- Node34&#45;&gt;Node38 -->
<g id="edge37" class="edge">
<title>Node34&#45;&gt;Node38</title>
<path fill="none" stroke="midnightblue" d="M1836.56,-291.08C1830.57,-283.38 1821.75,-272.03 1814.45,-262.65"/>
<polygon fill="midnightblue" stroke="midnightblue" points="1817.21,-260.5 1808.31,-254.75 1811.68,-264.79 1817.21,-260.5"/>
</g>
<!-- Node39&#45;&gt;Node35 -->
<g id="edge39" class="edge">
<title>Node39&#45;&gt;Node35</title>
<path fill="none" stroke="midnightblue" d="M2042.35,-291.4C2061.38,-284.81 2083.13,-273.59 2094.5,-255 2108.24,-232.54 2079.21,-214.02 2052.95,-202.57"/>
<polygon fill="midnightblue" stroke="midnightblue" points="2054.06,-199.25 2043.48,-198.68 2051.4,-205.72 2054.06,-199.25"/>
</g>
<!-- Node39&#45;&gt;Node36 -->
<g id="edge40" class="edge">
<title>Node39&#45;&gt;Node36</title>
<path fill="none" stroke="midnightblue" d="M2013.44,-291.08C2019.43,-283.38 2028.25,-272.03 2035.55,-262.65"/>
<polygon fill="midnightblue" stroke="midnightblue" points="2038.32,-264.79 2041.69,-254.75 2032.79,-260.5 2038.32,-264.79"/>
</g>
<!-- Node39&#45;&gt;Node37 -->
<g id="edge41" class="edge">
<title>Node39&#45;&gt;Node37</title>
<path fill="none" stroke="midnightblue" d="M1996.06,-291.32C1986.35,-283.26 1971.68,-271.08 1960,-261.37"/>
<polygon fill="midnightblue" stroke="midnightblue" points="1962.06,-258.53 1952.13,-254.83 1957.59,-263.92 1962.06,-258.53"/>
</g>
<!-- Node40 -->
<g id="node35" class="node">
<title>Node40</title>
<g id="a_node35"><a xlink:href="_o_m_sim_p_m_t_response_8hh.html" target="_top" xlink:title=" ">
<polygon fill="white" stroke="black" points="2142,-235.5 2142,-254.5 2277,-254.5 2277,-235.5 2142,-235.5"/>
<text text-anchor="middle" x="2209.5" y="-242.5" font-family="Helvetica,sans-Serif" font-size="10.00">OMSimPMTResponse.hh</text>
</a>
</g>
</g>
<!-- Node39&#45;&gt;Node40 -->
<g id="edge42" class="edge">
<title>Node39&#45;&gt;Node40</title>
<path fill="none" stroke="midnightblue" d="M2038.67,-291.44C2073.56,-282.16 2129.39,-267.31 2167.67,-257.13"/>
<polygon fill="midnightblue" stroke="midnightblue" points="2168.72,-260.47 2177.48,-254.52 2166.92,-253.7 2168.72,-260.47"/>
</g>
<!-- Node44 -->
<g id="node39" class="node">
<title>Node44</title>
<g id="a_node39"><a xlink:title=" ">
<polygon fill="white" stroke="#bfbfbf" points="2295,-235.5 2295,-254.5 2342,-254.5 2342,-235.5 2295,-235.5"/>
<text text-anchor="middle" x="2318.5" y="-242.5" font-family="Helvetica,sans-Serif" font-size="10.00">vector</text>
</a>
</g>
</g>
<!-- Node39&#45;&gt;Node44 -->
<g id="edge48" class="edge">
<title>Node39&#45;&gt;Node44</title>
<path fill="none" stroke="midnightblue" d="M2073.1,-291.49C2127.75,-284.01 2207.29,-271.97 2284.87,-255.17"/>
<polygon fill="midnightblue" stroke="midnightblue" points="2285.79,-258.55 2294.81,-252.99 2284.29,-251.71 2285.79,-258.55"/>
</g>
<!-- Node45 -->
<g id="node40" class="node">
<title>Node45</title>
<g id="a_node40"><a xlink:title=" ">
<polygon fill="white" stroke="#bfbfbf" points="2348,-179.5 2348,-198.5 2403,-198.5 2403,-179.5 2348,-179.5"/>
<text text-anchor="middle" x="2375.5" y="-186.5" font-family="Helvetica,sans-Serif" font-size="10.00">fstream</text>
</a>
</g>
</g>
<!-- Node39&#45;&gt;Node45 -->
<g id="edge49" class="edge">
<title>Node39&#45;&gt;Node45</title>
<path fill="none" stroke="midnightblue" d="M2079.09,-291.48C2178.72,-279.65 2346.2,-259.23 2351.5,-255 2365.44,-243.88 2371.28,-223.85 2373.73,-208.95"/>
<polygon fill="midnightblue" stroke="midnightblue" points="2377.23,-209.15 2375.02,-198.79 2370.29,-208.27 2377.23,-209.15"/>
</g>
<!-- Node40&#45;&gt;Node10 -->
<g id="edge43" class="edge">
<title>Node40&#45;&gt;Node10</title>
<path fill="none" stroke="midnightblue" d="M2228.19,-235.39C2251.81,-223.34 2287.47,-200.5 2270.5,-179 2194.73,-83.02 1817.38,-37.53 1659.32,-22.46"/>
<polygon fill="midnightblue" stroke="midnightblue" points="1659.52,-18.96 1649.23,-21.51 1658.86,-25.93 1659.52,-18.96"/>
</g>
<!-- Node40&#45;&gt;Node35 -->
<g id="edge44" class="edge">
<title>Node40&#45;&gt;Node35</title>
<path fill="none" stroke="midnightblue" d="M2179.08,-235.44C2146.22,-226.2 2093.72,-211.44 2057.53,-201.26"/>
<polygon fill="midnightblue" stroke="midnightblue" points="2058.35,-197.85 2047.78,-198.52 2056.46,-204.59 2058.35,-197.85"/>
</g>
<!-- Node41 -->
<g id="node36" class="node">
<title>Node41</title>
<g id="a_node36"><a xlink:title=" ">
<polygon fill="white" stroke="#bfbfbf" points="2072.5,-179.5 2072.5,-198.5 2110.5,-198.5 2110.5,-179.5 2072.5,-179.5"/>
<text text-anchor="middle" x="2091.5" y="-186.5" font-family="Helvetica,sans-Serif" font-size="10.00">map</text>
</a>
</g>
</g>
<!-- Node40&#45;&gt;Node41 -->
<g id="edge45" class="edge">
<title>Node40&#45;&gt;Node41</title>
<path fill="none" stroke="midnightblue" d="M2190.8,-235.44C2171.56,-226.64 2141.35,-212.81 2119.3,-202.72"/>
<polygon fill="midnightblue" stroke="midnightblue" points="2120.66,-199.5 2110.11,-198.52 2117.75,-205.86 2120.66,-199.5"/>
</g>
<!-- Node42 -->
<g id="node37" class="node">
<title>Node42</title>
<g id="a_node37"><a xlink:title=" ">
<polygon fill="white" stroke="#bfbfbf" points="2129,-179.5 2129,-198.5 2190,-198.5 2190,-179.5 2129,-179.5"/>
<text text-anchor="middle" x="2159.5" y="-186.5" font-family="Helvetica,sans-Serif" font-size="10.00">TGraph.h</text>
</a>
</g>
</g>
<!-- Node40&#45;&gt;Node42 -->
<g id="edge46" class="edge">
<title>Node40&#45;&gt;Node42</title>
<path fill="none" stroke="midnightblue" d="M2201.24,-235.08C2194.04,-227.3 2183.39,-215.8 2174.65,-206.37"/>
<polygon fill="midnightblue" stroke="midnightblue" points="2176.97,-203.71 2167.6,-198.75 2171.83,-208.47 2176.97,-203.71"/>
</g>
<!-- Node43 -->
<g id="node38" class="node">
<title>Node43</title>
<g id="a_node38"><a xlink:title=" ">
<polygon fill="white" stroke="#bfbfbf" points="2208,-179.5 2208,-198.5 2261,-198.5 2261,-179.5 2208,-179.5"/>
<text text-anchor="middle" x="2234.5" y="-186.5" font-family="Helvetica,sans-Serif" font-size="10.00">TH2D.h</text>
</a>
</g>
</g>
<!-- Node40&#45;&gt;Node43 -->
<g id="edge47" class="edge">
<title>Node40&#45;&gt;Node43</title>
<path fill="none" stroke="midnightblue" d="M2213.63,-235.08C2217.01,-227.77 2221.92,-217.18 2226.12,-208.1"/>
<polygon fill="midnightblue" stroke="midnightblue" points="2229.42,-209.3 2230.45,-198.75 2223.07,-206.36 2229.42,-209.3"/>
</g>
<!-- Node47 -->
<g id="node42" class="node">
<title>Node47</title>
<g id="a_node42"><a xlink:href="_o_m_sim_command_args_table_8hh.html" target="_top" xlink:title="Definition of the OMSimCommandArgsTable singleton class, which controls user args.">
<polygon fill="white" stroke="red" points="2398.5,-235.5 2398.5,-254.5 2562.5,-254.5 2562.5,-235.5 2398.5,-235.5"/>
<text text-anchor="middle" x="2480.5" y="-242.5" font-family="Helvetica,sans-Serif" font-size="10.00">OMSimCommandArgsTable.hh</text>
</a>
</g>
</g>
<!-- Node46&#45;&gt;Node47 -->
<g id="edge51" class="edge">
<title>Node46&#45;&gt;Node47</title>
<path fill="none" stroke="midnightblue" d="M2210.36,-291.44C2267.18,-281.89 2359.12,-266.42 2419.69,-256.23"/>
<polygon fill="midnightblue" stroke="midnightblue" points="2420.59,-259.63 2429.87,-254.52 2419.43,-252.72 2420.59,-259.63"/>
</g>
<!-- Node53 -->
<g id="node45" class="node">
<title>Node53</title>
<g id="a_node45"><a xlink:title=" ">
<polygon fill="white" stroke="#bfbfbf" points="2580.5,-235.5 2580.5,-254.5 2678.5,-254.5 2678.5,-235.5 2580.5,-235.5"/>
<text text-anchor="middle" x="2629.5" y="-242.5" font-family="Helvetica,sans-Serif" font-size="10.00">G4UImanager.hh</text>
</a>
</g>
</g>
<!-- Node46&#45;&gt;Node53 -->
<g id="edge55" class="edge">
<title>Node46&#45;&gt;Node53</title>
<path fill="none" stroke="midnightblue" d="M2220.2,-292.11C2223.34,-291.73 2226.46,-291.36 2229.5,-291 2378.04,-273.63 2418.23,-274.67 2570.3,-255.1"/>
<polygon fill="midnightblue" stroke="midnightblue" points="2571.01,-258.54 2580.48,-253.78 2570.11,-251.59 2571.01,-258.54"/>
</g>
<!-- Node47&#45;&gt;Node45 -->
<g id="edge53" class="edge">
<title>Node47&#45;&gt;Node45</title>
<path fill="none" stroke="midnightblue" d="M2463.63,-235.32C2446.79,-226.66 2420.69,-213.24 2401.26,-203.25"/>
<polygon fill="midnightblue" stroke="midnightblue" points="2402.82,-200.12 2392.33,-198.65 2399.62,-206.34 2402.82,-200.12"/>
</g>
<!-- Node48 -->
<g id="node43" class="node">
<title>Node48</title>
<g id="a_node43"><a xlink:href="_o_m_sim_logger_8hh.html" target="_top" xlink:title=" ">
<polygon fill="white" stroke="red" points="2535,-179.5 2535,-198.5 2634,-198.5 2634,-179.5 2535,-179.5"/>
<text text-anchor="middle" x="2584.5" y="-186.5" font-family="Helvetica,sans-Serif" font-size="10.00">OMSimLogger.hh</text>
</a>
</g>
</g>
<!-- Node47&#45;&gt;Node48 -->
<g id="edge52" class="edge">
<title>Node47&#45;&gt;Node48</title>
<path fill="none" stroke="midnightblue" d="M2497.21,-235.32C2513.81,-226.7 2539.5,-213.36 2558.72,-203.39"/>
<polygon fill="midnightblue" stroke="midnightblue" points="2560.57,-206.37 2567.83,-198.65 2557.34,-200.16 2560.57,-206.37"/>
</g>
<!-- Node51 -->
<g id="node44" class="node">
<title>Node51</title>
<g id="a_node44"><a xlink:title=" ">
<polygon fill="white" stroke="#bfbfbf" points="2432.5,-179.5 2432.5,-198.5 2516.5,-198.5 2516.5,-179.5 2432.5,-179.5"/>
<text text-anchor="middle" x="2474.5" y="-186.5" font-family="Helvetica,sans-Serif" font-size="10.00">boost/any.hpp</text>
</a>
</g>
</g>
<!-- Node47&#45;&gt;Node51 -->
<g id="edge54" class="edge">
<title>Node47&#45;&gt;Node51</title>
<path fill="none" stroke="midnightblue" d="M2479.51,-235.08C2478.71,-227.93 2477.57,-217.64 2476.58,-208.69"/>
<polygon fill="midnightblue" stroke="midnightblue" points="2480.06,-208.3 2475.47,-198.75 2473.1,-209.08 2480.06,-208.3"/>
</g>
</g>
</svg>
