<?xml version="1.0" encoding="UTF-8" standalone="no"?>
<!DOCTYPE svg PUBLIC "-//W3C//DTD SVG 1.1//EN"
 "http://www.w3.org/Graphics/SVG/1.1/DTD/svg11.dtd">
<!-- Generated by graphviz version 2.43.0 (0)
 -->
<!-- Title: OMSimSteppingAction.hh Pages: 1 -->
<svg width="454pt" height="84pt"
 viewBox="0.00 0.00 454.00 84.00" xmlns="http://www.w3.org/2000/svg" xmlns:xlink="http://www.w3.org/1999/xlink">
<g id="graph0" class="graph" transform="scale(1 1) rotate(0) translate(4 80)">
<title>OMSimSteppingAction.hh</title>
<polygon fill="white" stroke="transparent" points="-4,4 -4,-80 450,-80 450,4 -4,4"/>
<!-- Node1 -->
<g id="node1" class="node">
<title>Node1</title>
<g id="a_node1"><a xlink:title=" ">
<polygon fill="#bfbfbf" stroke="black" points="111.5,-56.5 111.5,-75.5 251.5,-75.5 251.5,-56.5 111.5,-56.5"/>
<text text-anchor="middle" x="181.5" y="-63.5" font-family="Helvetica,sans-Serif" font-size="10.00">OMSimSteppingAction.hh</text>
</a>
</g>
</g>
<!-- Node2 -->
<g id="node2" class="node">
<title>Node2</title>
<g id="a_node2"><a xlink:title=" ">
<polygon fill="white" stroke="#bfbfbf" points="0,-0.5 0,-19.5 73,-19.5 73,-0.5 0,-0.5"/>
<text text-anchor="middle" x="36.5" y="-7.5" font-family="Helvetica,sans-Serif" font-size="10.00">G4Types.hh</text>
</a>
</g>
</g>
<!-- Node1&#45;&gt;Node2 -->
<g id="edge1" class="edge">
<title>Node1&#45;&gt;Node2</title>
<path fill="none" stroke="midnightblue" d="M158.52,-56.44C134.34,-47.44 96.08,-33.19 68.85,-23.05"/>
<polygon fill="midnightblue" stroke="midnightblue" points="69.96,-19.73 59.37,-19.52 67.52,-26.29 69.96,-19.73"/>
</g>
<!-- Node3 -->
<g id="node3" class="node">
<title>Node3</title>
<g id="a_node3"><a xlink:title=" ">
<polygon fill="white" stroke="#bfbfbf" points="91.5,-0.5 91.5,-19.5 165.5,-19.5 165.5,-0.5 91.5,-0.5"/>
<text text-anchor="middle" x="128.5" y="-7.5" font-family="Helvetica,sans-Serif" font-size="10.00">G4String.hh</text>
</a>
</g>
</g>
<!-- Node1&#45;&gt;Node3 -->
<g id="edge2" class="edge">
<title>Node1&#45;&gt;Node3</title>
<path fill="none" stroke="midnightblue" d="M172.75,-56.08C165.03,-48.22 153.6,-36.57 144.28,-27.08"/>
<polygon fill="midnightblue" stroke="midnightblue" points="146.59,-24.44 137.09,-19.75 141.6,-29.34 146.59,-24.44"/>
</g>
<!-- Node4 -->
<g id="node4" class="node">
<title>Node4</title>
<g id="a_node4"><a xlink:title=" ">
<polygon fill="white" stroke="#bfbfbf" points="184,-0.5 184,-19.5 287,-19.5 287,-0.5 184,-0.5"/>
<text text-anchor="middle" x="235.5" y="-7.5" font-family="Helvetica,sans-Serif" font-size="10.00">G4ThreeVector.hh</text>
</a>
</g>
</g>
<!-- Node1&#45;&gt;Node4 -->
<g id="edge3" class="edge">
<title>Node1&#45;&gt;Node4</title>
<path fill="none" stroke="midnightblue" d="M190.42,-56.08C198.28,-48.22 209.93,-36.57 219.42,-27.08"/>
<polygon fill="midnightblue" stroke="midnightblue" points="222.15,-29.3 226.75,-19.75 217.2,-24.35 222.15,-29.3"/>
</g>
<!-- Node5 -->
<g id="node5" class="node">
<title>Node5</title>
<g id="a_node5"><a xlink:title=" ">
<polygon fill="white" stroke="#bfbfbf" points="305,-0.5 305,-19.5 446,-19.5 446,-0.5 305,-0.5"/>
<text text-anchor="middle" x="375.5" y="-7.5" font-family="Helvetica,sans-Serif" font-size="10.00">G4UserSteppingAction.hh</text>
</a>
</g>
</g>
<!-- Node1&#45;&gt;Node5 -->
<g id="edge4" class="edge">
<title>Node1&#45;&gt;Node5</title>
<path fill="none" stroke="midnightblue" d="M212.24,-56.44C245.44,-47.2 298.49,-32.44 335.06,-22.26"/>
<polygon fill="midnightblue" stroke="midnightblue" points="336.21,-25.57 344.9,-19.52 334.33,-18.83 336.21,-25.57"/>
</g>
</g>
</svg>
