<?xml version="1.0" encoding="UTF-8" standalone="no"?>
<!DOCTYPE svg PUBLIC "-//W3C//DTD SVG 1.1//EN"
 "http://www.w3.org/Graphics/SVG/1.1/DTD/svg11.dtd">
<!-- Generated by graphviz version 2.43.0 (0)
 -->
<!-- Title: OMSimLogger.hh Pages: 1 -->
<svg width="2046pt" height="252pt"
 viewBox="0.00 0.00 2045.50 252.00" xmlns="http://www.w3.org/2000/svg" xmlns:xlink="http://www.w3.org/1999/xlink">
<g id="graph0" class="graph" transform="scale(1 1) rotate(0) translate(4 248)">
<title>OMSimLogger.hh</title>
<polygon fill="white" stroke="transparent" points="-4,4 -4,-248 2041.5,-248 2041.5,4 -4,4"/>
<!-- Node1 -->
<g id="node1" class="node">
<title>Node1</title>
<g id="a_node1"><a xlink:title=" ">
<polygon fill="#bfbfbf" stroke="black" points="1162,-224.5 1162,-243.5 1261,-243.5 1261,-224.5 1162,-224.5"/>
<text text-anchor="middle" x="1211.5" y="-231.5" font-family="Helvetica,sans-Serif" font-size="10.00">OMSimLogger.hh</text>
</a>
</g>
</g>
<!-- Node2 -->
<g id="node2" class="node">
<title>Node2</title>
<g id="a_node2"><a xlink:href="_o_m_sim_command_args_table_8hh.html" target="_top" xlink:title="Definition of the OMSimCommandArgsTable singleton class, which controls user args.">
<polygon fill="white" stroke="black" points="453.5,-168.5 453.5,-187.5 617.5,-187.5 617.5,-168.5 453.5,-168.5"/>
<text text-anchor="middle" x="535.5" y="-175.5" font-family="Helvetica,sans-Serif" font-size="10.00">OMSimCommandArgsTable.hh</text>
</a>
</g>
</g>
<!-- Node1&#45;&gt;Node2 -->
<g id="edge1" class="edge">
<title>Node1&#45;&gt;Node2</title>
<path fill="none" stroke="midnightblue" d="M1151.59,-228.21C1030.33,-218.53 755.7,-196.59 617.78,-185.57"/>
<polygon fill="midnightblue" stroke="midnightblue" points="1151.55,-231.72 1161.79,-229.03 1152.1,-224.74 1151.55,-231.72"/>
</g>
<!-- Node6 -->
<g id="node6" class="node">
<title>Node6</title>
<g id="a_node6"><a xlink:href="_o_m_sim_u_iinterface_8hh.html" target="_top" xlink:title="The OMSimUIinterface class provides a singleton interface to Geant4&#39;s UI manager.">
<polygon fill="white" stroke="black" points="170,-112.5 170,-131.5 291,-131.5 291,-112.5 170,-112.5"/>
<text text-anchor="middle" x="230.5" y="-119.5" font-family="Helvetica,sans-Serif" font-size="10.00">OMSimUIinterface.hh</text>
</a>
</g>
</g>
<!-- Node1&#45;&gt;Node6 -->
<g id="edge19" class="edge">
<title>Node1&#45;&gt;Node6</title>
<path fill="none" stroke="midnightblue" d="M1151.5,-231.31C995.52,-226.63 580,-212.2 444.5,-188 372.64,-175.17 290.91,-146.13 252.57,-131.61"/>
<polygon fill="midnightblue" stroke="midnightblue" points="1151.74,-234.82 1161.84,-231.62 1151.94,-227.82 1151.74,-234.82"/>
</g>
<!-- Node7 -->
<g id="node7" class="node">
<title>Node7</title>
<g id="a_node7"><a xlink:href="_o_m_sim_m_d_o_m_flasher_8cc.html" target="_top" xlink:title=" ">
<polygon fill="white" stroke="black" points="347.5,-56.5 347.5,-75.5 481.5,-75.5 481.5,-56.5 347.5,-56.5"/>
<text text-anchor="middle" x="414.5" y="-63.5" font-family="Helvetica,sans-Serif" font-size="10.00">OMSimMDOMFlasher.cc</text>
</a>
</g>
</g>
<!-- Node1&#45;&gt;Node7 -->
<g id="edge26" class="edge">
<title>Node1&#45;&gt;Node7</title>
<path fill="none" stroke="midnightblue" d="M1212.95,-214.37C1214.92,-200.25 1219.56,-181.1 1230.5,-168 1256.48,-136.88 1330.43,-141.38 1302.5,-112 1274.32,-82.35 683.83,-70.95 481.68,-67.9"/>
<polygon fill="midnightblue" stroke="midnightblue" points="1209.46,-214.09 1211.87,-224.41 1216.42,-214.84 1209.46,-214.09"/>
</g>
<!-- Node9 -->
<g id="node9" class="node">
<title>Node9</title>
<g id="a_node9"><a xlink:href="_o_m_sim_input_data_8cc.html" target="_top" xlink:title="Input data from external files are read and saved to memory.">
<polygon fill="white" stroke="black" points="0,-112.5 0,-131.5 113,-131.5 113,-112.5 0,-112.5"/>
<text text-anchor="middle" x="56.5" y="-119.5" font-family="Helvetica,sans-Serif" font-size="10.00">OMSimInputData.cc</text>
</a>
</g>
</g>
<!-- Node1&#45;&gt;Node9 -->
<g id="edge22" class="edge">
<title>Node1&#45;&gt;Node9</title>
<path fill="none" stroke="midnightblue" d="M1151.52,-233.01C1012.41,-232.35 657.26,-226.65 363.5,-188 262.22,-174.67 144.61,-146 88.92,-131.61"/>
<polygon fill="midnightblue" stroke="midnightblue" points="1151.54,-236.51 1161.55,-233.05 1151.56,-229.51 1151.54,-236.51"/>
</g>
<!-- Node10 -->
<g id="node10" class="node">
<title>Node10</title>
<g id="a_node10"><a xlink:href="_o_m_sim_m_d_o_m_8cc.html" target="_top" xlink:title="Construction of mDOM.">
<polygon fill="white" stroke="black" points="842.5,-112.5 842.5,-131.5 940.5,-131.5 940.5,-112.5 842.5,-112.5"/>
<text text-anchor="middle" x="891.5" y="-119.5" font-family="Helvetica,sans-Serif" font-size="10.00">OMSimMDOM.cc</text>
</a>
</g>
</g>
<!-- Node1&#45;&gt;Node10 -->
<g id="edge25" class="edge">
<title>Node1&#45;&gt;Node10</title>
<path fill="none" stroke="midnightblue" d="M1176.89,-221.1C1111.97,-198.79 973.34,-151.13 916.55,-131.61"/>
<polygon fill="midnightblue" stroke="midnightblue" points="1176.06,-224.52 1186.66,-224.46 1178.34,-217.9 1176.06,-224.52"/>
</g>
<!-- Node12 -->
<g id="node12" class="node">
<title>Node12</title>
<g id="a_node12"><a xlink:href="_o_m_sim_p_m_t_construction_8cc.html" target="_top" xlink:title="Construction of the PMTs.">
<polygon fill="white" stroke="black" points="959,-112.5 959,-131.5 1106,-131.5 1106,-112.5 959,-112.5"/>
<text text-anchor="middle" x="1032.5" y="-119.5" font-family="Helvetica,sans-Serif" font-size="10.00">OMSimPMTConstruction.cc</text>
</a>
</g>
</g>
<!-- Node1&#45;&gt;Node12 -->
<g id="edge28" class="edge">
<title>Node1&#45;&gt;Node12</title>
<path fill="none" stroke="midnightblue" d="M1188.73,-219.01C1151.16,-195.92 1077.27,-150.51 1046.48,-131.59"/>
<polygon fill="midnightblue" stroke="midnightblue" points="1187.1,-222.11 1197.45,-224.37 1190.77,-216.15 1187.1,-222.11"/>
</g>
<!-- Node14 -->
<g id="node14" class="node">
<title>Node14</title>
<g id="a_node14"><a xlink:href="_o_m_sim_detector_construction_8cc.html" target="_top" xlink:title="User defined detector.">
<polygon fill="white" stroke="black" points="1124,-112.5 1124,-131.5 1293,-131.5 1293,-112.5 1124,-112.5"/>
<text text-anchor="middle" x="1208.5" y="-119.5" font-family="Helvetica,sans-Serif" font-size="10.00">OMSimDetectorConstruction.cc</text>
</a>
</g>
</g>
<!-- Node1&#45;&gt;Node14 -->
<g id="edge30" class="edge">
<title>Node1&#45;&gt;Node14</title>
<path fill="none" stroke="midnightblue" d="M1204.45,-214.74C1201.69,-206.67 1198.87,-197 1197.5,-188 1194.44,-167.86 1200.95,-144.3 1205.21,-131.82"/>
<polygon fill="midnightblue" stroke="midnightblue" points="1201.19,-216.02 1207.9,-224.22 1207.77,-213.63 1201.19,-216.02"/>
</g>
<!-- Node16 -->
<g id="node16" class="node">
<title>Node16</title>
<g id="a_node16"><a xlink:href="abc_detector_component_8cc.html" target="_top" xlink:title="Contains the implementation of the abcDetectorComponent class.">
<polygon fill="white" stroke="black" points="1239.5,-168.5 1239.5,-187.5 1385.5,-187.5 1385.5,-168.5 1239.5,-168.5"/>
<text text-anchor="middle" x="1312.5" y="-175.5" font-family="Helvetica,sans-Serif" font-size="10.00">abcDetectorComponent.cc</text>
</a>
</g>
</g>
<!-- Node1&#45;&gt;Node16 -->
<g id="edge20" class="edge">
<title>Node1&#45;&gt;Node16</title>
<path fill="none" stroke="midnightblue" d="M1236.58,-219.59C1255.26,-209.61 1280.2,-196.27 1296.31,-187.65"/>
<polygon fill="midnightblue" stroke="midnightblue" points="1234.9,-216.52 1227.73,-224.32 1238.2,-222.7 1234.9,-216.52"/>
</g>
<!-- Node17 -->
<g id="node17" class="node">
<title>Node17</title>
<g id="a_node17"><a xlink:href="_o_m_sim_data_file_types_8cc.html" target="_top" xlink:title="Collection of classes and methods to handle material creation from user data in json files.">
<polygon fill="white" stroke="black" points="1403.5,-168.5 1403.5,-187.5 1537.5,-187.5 1537.5,-168.5 1403.5,-168.5"/>
<text text-anchor="middle" x="1470.5" y="-175.5" font-family="Helvetica,sans-Serif" font-size="10.00">OMSimDataFileTypes.cc</text>
</a>
</g>
</g>
<!-- Node1&#45;&gt;Node17 -->
<g id="edge21" class="edge">
<title>Node1&#45;&gt;Node17</title>
<path fill="none" stroke="midnightblue" d="M1262.6,-222.35C1311.55,-212.14 1384.45,-196.94 1429.65,-187.52"/>
<polygon fill="midnightblue" stroke="midnightblue" points="1261.61,-218.98 1252.54,-224.44 1263.04,-225.83 1261.61,-218.98"/>
</g>
<!-- Node18 -->
<g id="node18" class="node">
<title>Node18</title>
<g id="a_node18"><a xlink:href="_o_m_sim_l_o_m16_8cc.html" target="_top" xlink:title="Construction of LOM16.">
<polygon fill="white" stroke="black" points="1556,-168.5 1556,-187.5 1655,-187.5 1655,-168.5 1556,-168.5"/>
<text text-anchor="middle" x="1605.5" y="-175.5" font-family="Helvetica,sans-Serif" font-size="10.00">OMSimLOM16.cc</text>
</a>
</g>
</g>
<!-- Node1&#45;&gt;Node18 -->
<g id="edge23" class="edge">
<title>Node1&#45;&gt;Node18</title>
<path fill="none" stroke="midnightblue" d="M1271.16,-225.31C1338.19,-216.6 1450.22,-201.81 1546.5,-188 1549.58,-187.56 1552.74,-187.1 1555.94,-186.63"/>
<polygon fill="midnightblue" stroke="midnightblue" points="1270.67,-221.85 1261.2,-226.61 1271.57,-228.79 1270.67,-221.85"/>
</g>
<!-- Node19 -->
<g id="node19" class="node">
<title>Node19</title>
<g id="a_node19"><a xlink:href="_o_m_sim_l_o_m18_8cc.html" target="_top" xlink:title="Construction of LOM18.">
<polygon fill="white" stroke="black" points="1673,-168.5 1673,-187.5 1772,-187.5 1772,-168.5 1673,-168.5"/>
<text text-anchor="middle" x="1722.5" y="-175.5" font-family="Helvetica,sans-Serif" font-size="10.00">OMSimLOM18.cc</text>
</a>
</g>
</g>
<!-- Node1&#45;&gt;Node19 -->
<g id="edge24" class="edge">
<title>Node1&#45;&gt;Node19</title>
<path fill="none" stroke="midnightblue" d="M1271.39,-228.11C1358.21,-220.77 1523.99,-205.87 1664.5,-188 1667.23,-187.65 1670.03,-187.28 1672.85,-186.89"/>
<polygon fill="midnightblue" stroke="midnightblue" points="1270.88,-224.64 1261.2,-228.96 1271.46,-231.61 1270.88,-224.64"/>
</g>
<!-- Node20 -->
<g id="node20" class="node">
<title>Node20</title>
<g id="a_node20"><a xlink:href="_o_m_sim_p_d_o_m_8cc.html" target="_top" xlink:title="Implementation of the pDOM/Gen1 DOM class.">
<polygon fill="white" stroke="black" points="1790,-168.5 1790,-187.5 1885,-187.5 1885,-168.5 1790,-168.5"/>
<text text-anchor="middle" x="1837.5" y="-175.5" font-family="Helvetica,sans-Serif" font-size="10.00">OMSimPDOM.cc</text>
</a>
</g>
</g>
<!-- Node1&#45;&gt;Node20 -->
<g id="edge27" class="edge">
<title>Node1&#45;&gt;Node20</title>
<path fill="none" stroke="midnightblue" d="M1271.18,-229.88C1375.11,-224.08 1595.97,-210.2 1781.5,-188 1784.24,-187.67 1787.05,-187.31 1789.88,-186.92"/>
<polygon fill="midnightblue" stroke="midnightblue" points="1270.98,-226.38 1261.19,-230.43 1271.37,-233.37 1270.98,-226.38"/>
</g>
<!-- Node21 -->
<g id="node21" class="node">
<title>Node21</title>
<g id="a_node21"><a xlink:href="_o_m_sim_p_m_t_response_8cc.html" target="_top" xlink:title="PMT response simulator.">
<polygon fill="white" stroke="black" points="1903.5,-168.5 1903.5,-187.5 2037.5,-187.5 2037.5,-168.5 1903.5,-168.5"/>
<text text-anchor="middle" x="1970.5" y="-175.5" font-family="Helvetica,sans-Serif" font-size="10.00">OMSimPMTResponse.cc</text>
</a>
</g>
</g>
<!-- Node1&#45;&gt;Node21 -->
<g id="edge29" class="edge">
<title>Node1&#45;&gt;Node21</title>
<path fill="none" stroke="midnightblue" d="M1271.27,-230.11C1390.12,-224.13 1664.54,-209.18 1894.5,-188 1897.41,-187.73 1900.38,-187.44 1903.38,-187.14"/>
<polygon fill="midnightblue" stroke="midnightblue" points="1271.09,-226.62 1261.27,-230.61 1271.44,-233.61 1271.09,-226.62"/>
</g>
<!-- Node3 -->
<g id="node3" class="node">
<title>Node3</title>
<g id="a_node3"><a xlink:href="_o_m_sim_8h.html" target="_top" xlink:title=" ">
<polygon fill="white" stroke="black" points="22,-56.5 22,-75.5 83,-75.5 83,-56.5 22,-56.5"/>
<text text-anchor="middle" x="52.5" y="-63.5" font-family="Helvetica,sans-Serif" font-size="10.00">OMSim.h</text>
</a>
</g>
</g>
<!-- Node2&#45;&gt;Node3 -->
<g id="edge2" class="edge">
<title>Node2&#45;&gt;Node3</title>
<path fill="none" stroke="midnightblue" d="M442.99,-176.64C365.59,-173.83 253.24,-163.83 160.5,-132 140.53,-125.14 89.28,-91.68 65.27,-75.63"/>
<polygon fill="midnightblue" stroke="midnightblue" points="443.09,-180.14 453.2,-176.98 443.32,-173.15 443.09,-180.14"/>
</g>
<!-- Node5 -->
<g id="node5" class="node">
<title>Node5</title>
<g id="a_node5"><a xlink:href="_o_m_sim__effective__area_8cc.html" target="_top" xlink:title="Main for the calculation of effective areas.">
<polygon fill="white" stroke="black" points="211.5,-0.5 211.5,-19.5 351.5,-19.5 351.5,-0.5 211.5,-0.5"/>
<text text-anchor="middle" x="281.5" y="-7.5" font-family="Helvetica,sans-Serif" font-size="10.00">OMSim_effective_area.cc</text>
</a>
</g>
</g>
<!-- Node2&#45;&gt;Node5 -->
<g id="edge18" class="edge">
<title>Node2&#45;&gt;Node5</title>
<path fill="none" stroke="midnightblue" d="M452.71,-166.31C424.19,-159.73 393.24,-149.12 368.5,-132 324.67,-101.67 295.04,-41.8 285.14,-19.57"/>
<polygon fill="midnightblue" stroke="midnightblue" points="452.16,-169.77 462.68,-168.47 453.64,-162.93 452.16,-169.77"/>
</g>
<!-- Node2&#45;&gt;Node6 -->
<g id="edge5" class="edge">
<title>Node2&#45;&gt;Node6</title>
<path fill="none" stroke="midnightblue" d="M477.12,-166.66C419.48,-156.46 332.38,-141.04 278.6,-131.52"/>
<polygon fill="midnightblue" stroke="midnightblue" points="476.71,-170.15 487.17,-168.44 477.94,-163.25 476.71,-170.15"/>
</g>
<!-- Node2&#45;&gt;Node7 -->
<g id="edge12" class="edge">
<title>Node2&#45;&gt;Node7</title>
<path fill="none" stroke="midnightblue" d="M469.51,-166.53C431.13,-158.95 388.1,-147.33 376.5,-132 362.23,-113.13 387.13,-88.45 402.95,-75.61"/>
<polygon fill="midnightblue" stroke="midnightblue" points="469.18,-170.03 479.66,-168.47 470.49,-163.15 469.18,-170.03"/>
</g>
<!-- Node2&#45;&gt;Node9 -->
<g id="edge10" class="edge">
<title>Node2&#45;&gt;Node9</title>
<path fill="none" stroke="midnightblue" d="M444.44,-167.38C361.72,-158.55 236.36,-144.9 127.5,-132 122.81,-131.44 117.95,-130.86 113.07,-130.26"/>
<polygon fill="midnightblue" stroke="midnightblue" points="444.25,-170.88 454.56,-168.46 444.99,-163.92 444.25,-170.88"/>
</g>
<!-- Node2&#45;&gt;Node10 -->
<g id="edge11" class="edge">
<title>Node2&#45;&gt;Node10</title>
<path fill="none" stroke="midnightblue" d="M602.02,-166.94C662.21,-157.83 753.3,-144.04 832.5,-132 835.68,-131.52 838.95,-131.02 842.25,-130.52"/>
<polygon fill="midnightblue" stroke="midnightblue" points="601.25,-163.52 591.89,-168.47 602.3,-170.44 601.25,-163.52"/>
</g>
<!-- Node11 -->
<g id="node11" class="node">
<title>Node11</title>
<g id="a_node11"><a xlink:href="_o_m_sim_m_d_o_m_harness_8cc.html" target="_top" xlink:title="Construction of mDOM harness.">
<polygon fill="white" stroke="black" points="385.5,-112.5 385.5,-131.5 523.5,-131.5 523.5,-112.5 385.5,-112.5"/>
<text text-anchor="middle" x="454.5" y="-119.5" font-family="Helvetica,sans-Serif" font-size="10.00">OMSimMDOMHarness.cc</text>
</a>
</g>
</g>
<!-- Node2&#45;&gt;Node11 -->
<g id="edge13" class="edge">
<title>Node2&#45;&gt;Node11</title>
<path fill="none" stroke="midnightblue" d="M513.93,-162.62C499.14,-152.76 479.99,-139.99 467.48,-131.65"/>
<polygon fill="midnightblue" stroke="midnightblue" points="512.22,-165.69 522.49,-168.32 516.11,-159.86 512.22,-165.69"/>
</g>
<!-- Node2&#45;&gt;Node12 -->
<g id="edge14" class="edge">
<title>Node2&#45;&gt;Node12</title>
<path fill="none" stroke="midnightblue" d="M624.19,-167.36C719.64,-156.99 869.73,-140.69 958.89,-131"/>
<polygon fill="midnightblue" stroke="midnightblue" points="623.54,-163.91 613.98,-168.47 624.3,-170.87 623.54,-163.91"/>
</g>
<!-- Node13 -->
<g id="node13" class="node">
<title>Node13</title>
<g id="a_node13"><a xlink:href="_o_m_sim_analysis_manager_8cc.html" target="_top" xlink:title=" ">
<polygon fill="white" stroke="black" points="542,-112.5 542,-131.5 691,-131.5 691,-112.5 542,-112.5"/>
<text text-anchor="middle" x="616.5" y="-119.5" font-family="Helvetica,sans-Serif" font-size="10.00">OMSimAnalysisManager.cc</text>
</a>
</g>
</g>
<!-- Node2&#45;&gt;Node13 -->
<g id="edge15" class="edge">
<title>Node2&#45;&gt;Node13</title>
<path fill="none" stroke="midnightblue" d="M557.07,-162.62C571.86,-152.76 591.01,-139.99 603.52,-131.65"/>
<polygon fill="midnightblue" stroke="midnightblue" points="554.89,-159.86 548.51,-168.32 558.78,-165.69 554.89,-159.86"/>
</g>
<!-- Node2&#45;&gt;Node14 -->
<g id="edge16" class="edge">
<title>Node2&#45;&gt;Node14</title>
<path fill="none" stroke="midnightblue" d="M627.63,-170.35C741.9,-161.99 942.65,-146.9 1114.5,-132 1117.6,-131.73 1120.76,-131.45 1123.96,-131.17"/>
<polygon fill="midnightblue" stroke="midnightblue" points="627.24,-166.87 617.52,-171.09 627.75,-173.85 627.24,-166.87"/>
</g>
<!-- Node15 -->
<g id="node15" class="node">
<title>Node15</title>
<g id="a_node15"><a xlink:href="_o_m_sim_run_action_8cc.html" target="_top" xlink:title=" ">
<polygon fill="white" stroke="black" points="709,-112.5 709,-131.5 824,-131.5 824,-112.5 709,-112.5"/>
<text text-anchor="middle" x="766.5" y="-119.5" font-family="Helvetica,sans-Serif" font-size="10.00">OMSimRunAction.cc</text>
</a>
</g>
</g>
<!-- Node2&#45;&gt;Node15 -->
<g id="edge17" class="edge">
<title>Node2&#45;&gt;Node15</title>
<path fill="none" stroke="midnightblue" d="M581.9,-166.15C625.55,-155.95 690.01,-140.88 730.07,-131.52"/>
<polygon fill="midnightblue" stroke="midnightblue" points="581.04,-162.76 572.1,-168.44 582.64,-169.58 581.04,-162.76"/>
</g>
<!-- Node4 -->
<g id="node4" class="node">
<title>Node4</title>
<g id="a_node4"><a xlink:href="_o_m_sim_8cc.html" target="_top" xlink:title=" ">
<polygon fill="white" stroke="black" points="20,-0.5 20,-19.5 85,-19.5 85,-0.5 20,-0.5"/>
<text text-anchor="middle" x="52.5" y="-7.5" font-family="Helvetica,sans-Serif" font-size="10.00">OMSim.cc</text>
</a>
</g>
</g>
<!-- Node3&#45;&gt;Node4 -->
<g id="edge3" class="edge">
<title>Node3&#45;&gt;Node4</title>
<path fill="none" stroke="midnightblue" d="M52.5,-45.8C52.5,-36.91 52.5,-26.78 52.5,-19.75"/>
<polygon fill="midnightblue" stroke="midnightblue" points="49,-46.08 52.5,-56.08 56,-46.08 49,-46.08"/>
</g>
<!-- Node3&#45;&gt;Node5 -->
<g id="edge4" class="edge">
<title>Node3&#45;&gt;Node5</title>
<path fill="none" stroke="midnightblue" d="M93.25,-55.39C136.35,-45.23 203.69,-29.35 245.07,-19.59"/>
<polygon fill="midnightblue" stroke="midnightblue" points="92.31,-52.02 83.38,-57.72 93.92,-58.83 92.31,-52.02"/>
</g>
<!-- Node6&#45;&gt;Node3 -->
<g id="edge6" class="edge">
<title>Node6&#45;&gt;Node3</title>
<path fill="none" stroke="midnightblue" d="M192.38,-109.44C158.82,-99.26 110.73,-84.66 80.57,-75.52"/>
<polygon fill="midnightblue" stroke="midnightblue" points="191.71,-112.89 202.3,-112.44 193.74,-106.19 191.71,-112.89"/>
</g>
<!-- Node6&#45;&gt;Node5 -->
<g id="edge9" class="edge">
<title>Node6&#45;&gt;Node5</title>
<path fill="none" stroke="midnightblue" d="M244.39,-104.33C250.62,-96.19 257.65,-86.01 262.5,-76 271.73,-56.96 277.37,-32.56 279.91,-19.75"/>
<polygon fill="midnightblue" stroke="midnightblue" points="241.57,-102.25 238.07,-112.26 247.04,-106.62 241.57,-102.25"/>
</g>
<!-- Node6&#45;&gt;Node7 -->
<g id="edge7" class="edge">
<title>Node6&#45;&gt;Node7</title>
<path fill="none" stroke="midnightblue" d="M269.45,-109.57C304.16,-99.38 354.18,-84.7 385.48,-75.52"/>
<polygon fill="midnightblue" stroke="midnightblue" points="268.27,-106.27 259.66,-112.44 270.24,-112.99 268.27,-106.27"/>
</g>
<!-- Node8 -->
<g id="node8" class="node">
<title>Node8</title>
<g id="a_node8"><a xlink:href="_o_m_sim_simple_g_p_s_beams_8cc.html" target="_top" xlink:title="Defines the AngularScan class for simple GPS beam configurations.">
<polygon fill="white" stroke="black" points="101.5,-56.5 101.5,-75.5 253.5,-75.5 253.5,-56.5 101.5,-56.5"/>
<text text-anchor="middle" x="177.5" y="-63.5" font-family="Helvetica,sans-Serif" font-size="10.00">OMSimSimpleGPSBeams.cc</text>
</a>
</g>
</g>
<!-- Node6&#45;&gt;Node8 -->
<g id="edge8" class="edge">
<title>Node6&#45;&gt;Node8</title>
<path fill="none" stroke="midnightblue" d="M214.52,-104.72C205.18,-95.2 193.75,-83.56 186.09,-75.75"/>
<polygon fill="midnightblue" stroke="midnightblue" points="212.25,-107.4 221.75,-112.08 217.24,-102.49 212.25,-107.4"/>
</g>
</g>
</svg>
