<?xml version="1.0" encoding="UTF-8" standalone="no"?>
<!DOCTYPE svg PUBLIC "-//W3C//DTD SVG 1.1//EN"
 "http://www.w3.org/Graphics/SVG/1.1/DTD/svg11.dtd">
<!-- Generated by graphviz version 2.43.0 (0)
 -->
<!-- Title: OMSim_supernova.cc Pages: 1 -->
<svg width="2376pt" height="308pt"
 viewBox="0.00 0.00 2376.00 308.00" xmlns="http://www.w3.org/2000/svg" xmlns:xlink="http://www.w3.org/1999/xlink">
<g id="graph0" class="graph" transform="scale(1 1) rotate(0) translate(4 304)">
<title>OMSim_supernova.cc</title>
<polygon fill="white" stroke="transparent" points="-4,4 -4,-304 2372,-304 2372,4 -4,4"/>
<!-- Node1 -->
<g id="node1" class="node">
<title>Node1</title>
<g id="a_node1"><a xlink:title="Main of the supernova study.">
<polygon fill="#bfbfbf" stroke="black" points="1927.5,-280.5 1927.5,-299.5 2049.5,-299.5 2049.5,-280.5 1927.5,-280.5"/>
<text text-anchor="middle" x="1988.5" y="-287.5" font-family="Helvetica,sans-Serif" font-size="10.00">OMSim_supernova.cc</text>
</a>
</g>
</g>
<!-- Node2 -->
<g id="node2" class="node">
<title>Node2</title>
<g id="a_node2"><a xlink:href="_o_m_sim_8hh.html" target="_top" xlink:title="Main simulation class for the Optical Module (OM) simulation. This file defines the OMSim class,...">
<polygon fill="white" stroke="black" points="1077,-224.5 1077,-243.5 1144,-243.5 1144,-224.5 1077,-224.5"/>
<text text-anchor="middle" x="1110.5" y="-231.5" font-family="Helvetica,sans-Serif" font-size="10.00">OMSim.hh</text>
</a>
</g>
</g>
<!-- Node1&#45;&gt;Node2 -->
<g id="edge1" class="edge">
<title>Node1&#45;&gt;Node2</title>
<path fill="none" stroke="midnightblue" d="M1927.46,-285.25C1760.52,-274.98 1299.26,-246.61 1154.53,-237.71"/>
<polygon fill="midnightblue" stroke="midnightblue" points="1154.47,-234.2 1144.27,-237.08 1154.04,-241.18 1154.47,-234.2"/>
</g>
<!-- Node5 -->
<g id="node5" class="node">
<title>Node5</title>
<g id="a_node5"><a xlink:title=" ">
<polygon fill="white" stroke="#bfbfbf" points="0,-168.5 0,-187.5 185,-187.5 185,-168.5 0,-168.5"/>
<text text-anchor="middle" x="92.5" y="-175.5" font-family="Helvetica,sans-Serif" font-size="10.00">OMSimPrimaryGeneratorAction.hh</text>
</a>
</g>
</g>
<!-- Node1&#45;&gt;Node5 -->
<g id="edge42" class="edge">
<title>Node1&#45;&gt;Node5</title>
<path fill="none" stroke="midnightblue" d="M1927.26,-286.43C1699.75,-276.71 881.41,-240.08 195.15,-188.03"/>
<polygon fill="midnightblue" stroke="midnightblue" points="195.29,-184.53 185.06,-187.26 194.76,-191.51 195.29,-184.53"/>
</g>
<!-- Node27 -->
<g id="node27" class="node">
<title>Node27</title>
<g id="a_node27"><a xlink:href="_o_m_sim_s_n_analysis_8hh.html" target="_top" xlink:title=" ">
<polygon fill="white" stroke="black" points="2027.5,-224.5 2027.5,-243.5 2149.5,-243.5 2149.5,-224.5 2027.5,-224.5"/>
<text text-anchor="middle" x="2088.5" y="-231.5" font-family="Helvetica,sans-Serif" font-size="10.00">OMSimSNAnalysis.hh</text>
</a>
</g>
</g>
<!-- Node1&#45;&gt;Node27 -->
<g id="edge26" class="edge">
<title>Node1&#45;&gt;Node27</title>
<path fill="none" stroke="midnightblue" d="M2004.57,-280.32C2020.46,-271.74 2045.01,-258.49 2063.46,-248.52"/>
<polygon fill="midnightblue" stroke="midnightblue" points="2065.34,-251.49 2072.47,-243.65 2062.01,-245.33 2065.34,-251.49"/>
</g>
<!-- Node31 -->
<g id="node31" class="node">
<title>Node31</title>
<g id="a_node31"><a xlink:href="_o_m_sim_hit_manager_8hh.html" target="_top" xlink:title="Defines structures and classes related to optical module photon hit management.">
<polygon fill="white" stroke="black" points="1927,-168.5 1927,-187.5 2050,-187.5 2050,-168.5 1927,-168.5"/>
<text text-anchor="middle" x="1988.5" y="-175.5" font-family="Helvetica,sans-Serif" font-size="10.00">OMSimHitManager.hh</text>
</a>
</g>
</g>
<!-- Node1&#45;&gt;Node31 -->
<g id="edge43" class="edge">
<title>Node1&#45;&gt;Node31</title>
<path fill="none" stroke="midnightblue" d="M1988.5,-280.37C1988.5,-262.62 1988.5,-221.67 1988.5,-197.6"/>
<polygon fill="midnightblue" stroke="midnightblue" points="1992,-197.59 1988.5,-187.59 1985,-197.59 1992,-197.59"/>
</g>
<!-- Node39 -->
<g id="node39" class="node">
<title>Node39</title>
<g id="a_node39"><a xlink:title=" ">
<polygon fill="white" stroke="#bfbfbf" points="2167.5,-224.5 2167.5,-243.5 2259.5,-243.5 2259.5,-224.5 2167.5,-224.5"/>
<text text-anchor="middle" x="2213.5" y="-231.5" font-family="Helvetica,sans-Serif" font-size="10.00">G4Navigator.hh</text>
</a>
</g>
</g>
<!-- Node1&#45;&gt;Node39 -->
<g id="edge44" class="edge">
<title>Node1&#45;&gt;Node39</title>
<path fill="none" stroke="midnightblue" d="M2024.15,-280.44C2063.16,-271.08 2125.77,-256.06 2168.22,-245.87"/>
<polygon fill="midnightblue" stroke="midnightblue" points="2169.11,-249.25 2178.01,-243.52 2167.47,-242.45 2169.11,-249.25"/>
</g>
<!-- Node3 -->
<g id="node3" class="node">
<title>Node3</title>
<g id="a_node3"><a xlink:title=" ">
<polygon fill="white" stroke="#bfbfbf" points="203.5,-168.5 203.5,-187.5 373.5,-187.5 373.5,-168.5 203.5,-168.5"/>
<text text-anchor="middle" x="288.5" y="-175.5" font-family="Helvetica,sans-Serif" font-size="10.00">OMSimDetectorConstruction.hh</text>
</a>
</g>
</g>
<!-- Node2&#45;&gt;Node3 -->
<g id="edge2" class="edge">
<title>Node2&#45;&gt;Node3</title>
<path fill="none" stroke="midnightblue" d="M1076.73,-231.32C974.26,-226.13 657.67,-209.47 383.68,-188.07"/>
<polygon fill="midnightblue" stroke="midnightblue" points="383.79,-184.57 373.54,-187.27 383.24,-191.54 383.79,-184.57"/>
</g>
<!-- Node4 -->
<g id="node4" class="node">
<title>Node4</title>
<g id="a_node4"><a xlink:title=" ">
<polygon fill="white" stroke="#bfbfbf" points="392,-168.5 392,-187.5 513,-187.5 513,-168.5 392,-168.5"/>
<text text-anchor="middle" x="452.5" y="-175.5" font-family="Helvetica,sans-Serif" font-size="10.00">OMSimPhysicsList.hh</text>
</a>
</g>
</g>
<!-- Node2&#45;&gt;Node4 -->
<g id="edge3" class="edge">
<title>Node2&#45;&gt;Node4</title>
<path fill="none" stroke="midnightblue" d="M1076.97,-231.04C988.4,-225.74 740.72,-210.06 523.19,-188.02"/>
<polygon fill="midnightblue" stroke="midnightblue" points="523.49,-184.53 513.18,-187 522.78,-191.49 523.49,-184.53"/>
</g>
<!-- Node2&#45;&gt;Node5 -->
<g id="edge4" class="edge">
<title>Node2&#45;&gt;Node5</title>
<path fill="none" stroke="midnightblue" d="M1076.79,-231.82C957.87,-227.55 546.73,-211.94 195.18,-188.02"/>
<polygon fill="midnightblue" stroke="midnightblue" points="195.27,-184.52 185.05,-187.32 194.79,-191.5 195.27,-184.52"/>
</g>
<!-- Node6 -->
<g id="node6" class="node">
<title>Node6</title>
<g id="a_node6"><a xlink:href="_o_m_sim_run_action_8hh.html" target="_top" xlink:title=" ">
<polygon fill="white" stroke="black" points="531.5,-168.5 531.5,-187.5 647.5,-187.5 647.5,-168.5 531.5,-168.5"/>
<text text-anchor="middle" x="589.5" y="-175.5" font-family="Helvetica,sans-Serif" font-size="10.00">OMSimRunAction.hh</text>
</a>
</g>
</g>
<!-- Node2&#45;&gt;Node6 -->
<g id="edge5" class="edge">
<title>Node2&#45;&gt;Node6</title>
<path fill="none" stroke="midnightblue" d="M1076.85,-230.07C1003.04,-223.55 821.12,-207.01 657.82,-188.12"/>
<polygon fill="midnightblue" stroke="midnightblue" points="657.93,-184.61 647.59,-186.93 657.12,-191.56 657.93,-184.61"/>
</g>
<!-- Node8 -->
<g id="node8" class="node">
<title>Node8</title>
<g id="a_node8"><a xlink:title=" ">
<polygon fill="white" stroke="#bfbfbf" points="666,-168.5 666,-187.5 791,-187.5 791,-168.5 666,-168.5"/>
<text text-anchor="middle" x="728.5" y="-175.5" font-family="Helvetica,sans-Serif" font-size="10.00">OMSimEventAction.hh</text>
</a>
</g>
</g>
<!-- Node2&#45;&gt;Node8 -->
<g id="edge7" class="edge">
<title>Node2&#45;&gt;Node8</title>
<path fill="none" stroke="midnightblue" d="M1076.93,-228.26C1014.98,-219.5 881.45,-200.62 798.87,-188.95"/>
<polygon fill="midnightblue" stroke="midnightblue" points="799.2,-185.46 788.81,-187.53 798.22,-192.39 799.2,-185.46"/>
</g>
<!-- Node9 -->
<g id="node9" class="node">
<title>Node9</title>
<g id="a_node9"><a xlink:href="_o_m_sim_tracking_action_8hh.html" target="_top" xlink:title=" ">
<polygon fill="white" stroke="black" points="809.5,-168.5 809.5,-187.5 947.5,-187.5 947.5,-168.5 809.5,-168.5"/>
<text text-anchor="middle" x="878.5" y="-175.5" font-family="Helvetica,sans-Serif" font-size="10.00">OMSimTrackingAction.hh</text>
</a>
</g>
</g>
<!-- Node2&#45;&gt;Node9 -->
<g id="edge8" class="edge">
<title>Node2&#45;&gt;Node9</title>
<path fill="none" stroke="midnightblue" d="M1076.77,-225.15C1036.81,-215.85 970.02,-200.3 925.13,-189.85"/>
<polygon fill="midnightblue" stroke="midnightblue" points="925.88,-186.43 915.34,-187.58 924.29,-193.25 925.88,-186.43"/>
</g>
<!-- Node11 -->
<g id="node11" class="node">
<title>Node11</title>
<g id="a_node11"><a xlink:href="_o_m_sim_stepping_action_8hh.html" target="_top" xlink:title="Defines OMSimSteppingAction.Currently it only checks for trapped photons.">
<polygon fill="white" stroke="black" points="965.5,-168.5 965.5,-187.5 1105.5,-187.5 1105.5,-168.5 965.5,-168.5"/>
<text text-anchor="middle" x="1035.5" y="-175.5" font-family="Helvetica,sans-Serif" font-size="10.00">OMSimSteppingAction.hh</text>
</a>
</g>
</g>
<!-- Node2&#45;&gt;Node11 -->
<g id="edge10" class="edge">
<title>Node2&#45;&gt;Node11</title>
<path fill="none" stroke="midnightblue" d="M1098.45,-224.32C1087.04,-216.11 1069.67,-203.6 1056.07,-193.81"/>
<polygon fill="midnightblue" stroke="midnightblue" points="1057.93,-190.84 1047.77,-187.83 1053.84,-196.52 1057.93,-190.84"/>
</g>
<!-- Node13 -->
<g id="node13" class="node">
<title>Node13</title>
<g id="a_node13"><a xlink:href="_o_m_sim_u_iinterface_8hh.html" target="_top" xlink:title="The OMSimUIinterface class provides a singleton interface to Geant4&#39;s UI manager.">
<polygon fill="white" stroke="black" points="1124,-168.5 1124,-187.5 1245,-187.5 1245,-168.5 1124,-168.5"/>
<text text-anchor="middle" x="1184.5" y="-175.5" font-family="Helvetica,sans-Serif" font-size="10.00">OMSimUIinterface.hh</text>
</a>
</g>
</g>
<!-- Node2&#45;&gt;Node13 -->
<g id="edge12" class="edge">
<title>Node2&#45;&gt;Node13</title>
<path fill="none" stroke="midnightblue" d="M1122.39,-224.32C1133.65,-216.11 1150.79,-203.6 1164.21,-193.81"/>
<polygon fill="midnightblue" stroke="midnightblue" points="1166.38,-196.56 1172.39,-187.83 1162.25,-190.9 1166.38,-196.56"/>
</g>
<!-- Node22 -->
<g id="node22" class="node">
<title>Node22</title>
<g id="a_node22"><a xlink:title=" ">
<polygon fill="white" stroke="#bfbfbf" points="1263.5,-168.5 1263.5,-187.5 1369.5,-187.5 1369.5,-168.5 1263.5,-168.5"/>
<text text-anchor="middle" x="1316.5" y="-175.5" font-family="Helvetica,sans-Serif" font-size="10.00">G4RunManager.hh</text>
</a>
</g>
</g>
<!-- Node2&#45;&gt;Node22 -->
<g id="edge21" class="edge">
<title>Node2&#45;&gt;Node22</title>
<path fill="none" stroke="midnightblue" d="M1143.14,-224.44C1178.55,-215.16 1235.21,-200.31 1274.05,-190.13"/>
<polygon fill="midnightblue" stroke="midnightblue" points="1275.23,-193.44 1284.01,-187.52 1273.45,-186.67 1275.23,-193.44"/>
</g>
<!-- Node23 -->
<g id="node23" class="node">
<title>Node23</title>
<g id="a_node23"><a xlink:title=" ">
<polygon fill="white" stroke="#bfbfbf" points="1388,-168.5 1388,-187.5 1495,-187.5 1495,-168.5 1388,-168.5"/>
<text text-anchor="middle" x="1441.5" y="-175.5" font-family="Helvetica,sans-Serif" font-size="10.00">G4VisExecutive.hh</text>
</a>
</g>
</g>
<!-- Node2&#45;&gt;Node23 -->
<g id="edge22" class="edge">
<title>Node2&#45;&gt;Node23</title>
<path fill="none" stroke="midnightblue" d="M1144.06,-227.53C1199.12,-218.54 1309.48,-200.54 1379.19,-189.17"/>
<polygon fill="midnightblue" stroke="midnightblue" points="1379.86,-192.6 1389.17,-187.54 1378.74,-185.69 1379.86,-192.6"/>
</g>
<!-- Node24 -->
<g id="node24" class="node">
<title>Node24</title>
<g id="a_node24"><a xlink:title=" ">
<polygon fill="white" stroke="#bfbfbf" points="1513,-168.5 1513,-187.5 1616,-187.5 1616,-168.5 1513,-168.5"/>
<text text-anchor="middle" x="1564.5" y="-175.5" font-family="Helvetica,sans-Serif" font-size="10.00">G4UIExecutive.hh</text>
</a>
</g>
</g>
<!-- Node2&#45;&gt;Node24 -->
<g id="edge23" class="edge">
<title>Node2&#45;&gt;Node24</title>
<path fill="none" stroke="midnightblue" d="M1144.19,-229.52C1210.6,-222.57 1363.34,-206.18 1502.91,-188.04"/>
<polygon fill="midnightblue" stroke="midnightblue" points="1503.47,-191.49 1512.93,-186.73 1502.56,-184.55 1503.47,-191.49"/>
</g>
<!-- Node25 -->
<g id="node25" class="node">
<title>Node25</title>
<g id="a_node25"><a xlink:title=" ">
<polygon fill="white" stroke="#bfbfbf" points="1634.5,-168.5 1634.5,-187.5 1702.5,-187.5 1702.5,-168.5 1634.5,-168.5"/>
<text text-anchor="middle" x="1668.5" y="-175.5" font-family="Helvetica,sans-Serif" font-size="10.00">filesystem</text>
</a>
</g>
</g>
<!-- Node2&#45;&gt;Node25 -->
<g id="edge24" class="edge">
<title>Node2&#45;&gt;Node25</title>
<path fill="none" stroke="midnightblue" d="M1144.03,-231.4C1226.25,-227.17 1444.33,-214.23 1624.5,-188 1624.6,-187.99 1624.7,-187.97 1624.8,-187.96"/>
<polygon fill="midnightblue" stroke="midnightblue" points="1625.16,-191.44 1634.46,-186.36 1624.02,-184.54 1625.16,-191.44"/>
</g>
<!-- Node26 -->
<g id="node26" class="node">
<title>Node26</title>
<g id="a_node26"><a xlink:title=" ">
<polygon fill="white" stroke="#bfbfbf" points="1720.5,-168.5 1720.5,-187.5 1870.5,-187.5 1870.5,-168.5 1720.5,-168.5"/>
<text text-anchor="middle" x="1795.5" y="-175.5" font-family="Helvetica,sans-Serif" font-size="10.00">boost/program_options.hpp</text>
</a>
</g>
</g>
<!-- Node2&#45;&gt;Node26 -->
<g id="edge25" class="edge">
<title>Node2&#45;&gt;Node26</title>
<path fill="none" stroke="midnightblue" d="M1144.09,-230.86C1233.97,-225.07 1487.7,-208.17 1710.17,-188.09"/>
<polygon fill="midnightblue" stroke="midnightblue" points="1710.76,-191.55 1720.41,-187.17 1710.13,-184.58 1710.76,-191.55"/>
</g>
<!-- Node7 -->
<g id="node7" class="node">
<title>Node7</title>
<g id="a_node7"><a xlink:title=" ">
<polygon fill="white" stroke="#bfbfbf" points="531,-112.5 531,-131.5 648,-131.5 648,-112.5 531,-112.5"/>
<text text-anchor="middle" x="589.5" y="-119.5" font-family="Helvetica,sans-Serif" font-size="10.00">G4UserRunAction.hh</text>
</a>
</g>
</g>
<!-- Node6&#45;&gt;Node7 -->
<g id="edge6" class="edge">
<title>Node6&#45;&gt;Node7</title>
<path fill="none" stroke="midnightblue" d="M589.5,-168.08C589.5,-161.01 589.5,-150.86 589.5,-141.99"/>
<polygon fill="midnightblue" stroke="midnightblue" points="593,-141.75 589.5,-131.75 586,-141.75 593,-141.75"/>
</g>
<!-- Node10 -->
<g id="node10" class="node">
<title>Node10</title>
<g id="a_node10"><a xlink:title=" ">
<polygon fill="white" stroke="#bfbfbf" points="808,-112.5 808,-131.5 947,-131.5 947,-112.5 808,-112.5"/>
<text text-anchor="middle" x="877.5" y="-119.5" font-family="Helvetica,sans-Serif" font-size="10.00">G4UserTrackingAction.hh</text>
</a>
</g>
</g>
<!-- Node9&#45;&gt;Node10 -->
<g id="edge9" class="edge">
<title>Node9&#45;&gt;Node10</title>
<path fill="none" stroke="midnightblue" d="M878.33,-168.08C878.2,-161.01 878.02,-150.86 877.85,-141.99"/>
<polygon fill="midnightblue" stroke="midnightblue" points="881.35,-141.68 877.66,-131.75 874.35,-141.81 881.35,-141.68"/>
</g>
<!-- Node12 -->
<g id="node12" class="node">
<title>Node12</title>
<g id="a_node12"><a xlink:title=" ">
<polygon fill="white" stroke="#bfbfbf" points="965,-112.5 965,-131.5 1106,-131.5 1106,-112.5 965,-112.5"/>
<text text-anchor="middle" x="1035.5" y="-119.5" font-family="Helvetica,sans-Serif" font-size="10.00">G4UserSteppingAction.hh</text>
</a>
</g>
</g>
<!-- Node11&#45;&gt;Node12 -->
<g id="edge11" class="edge">
<title>Node11&#45;&gt;Node12</title>
<path fill="none" stroke="midnightblue" d="M1035.5,-168.08C1035.5,-161.01 1035.5,-150.86 1035.5,-141.99"/>
<polygon fill="midnightblue" stroke="midnightblue" points="1039,-141.75 1035.5,-131.75 1032,-141.75 1039,-141.75"/>
</g>
<!-- Node14 -->
<g id="node14" class="node">
<title>Node14</title>
<g id="a_node14"><a xlink:href="_o_m_sim_command_args_table_8hh.html" target="_top" xlink:title="Definition of the OMSimCommandArgsTable singleton class, which controls user args.">
<polygon fill="white" stroke="black" points="1446.5,-112.5 1446.5,-131.5 1610.5,-131.5 1610.5,-112.5 1446.5,-112.5"/>
<text text-anchor="middle" x="1528.5" y="-119.5" font-family="Helvetica,sans-Serif" font-size="10.00">OMSimCommandArgsTable.hh</text>
</a>
</g>
</g>
<!-- Node13&#45;&gt;Node14 -->
<g id="edge13" class="edge">
<title>Node13&#45;&gt;Node14</title>
<path fill="none" stroke="midnightblue" d="M1239.01,-168.44C1300.15,-158.85 1399.24,-143.29 1464.14,-133.1"/>
<polygon fill="midnightblue" stroke="midnightblue" points="1464.91,-136.52 1474.25,-131.52 1463.83,-129.61 1464.91,-136.52"/>
</g>
<!-- Node21 -->
<g id="node21" class="node">
<title>Node21</title>
<g id="a_node21"><a xlink:title=" ">
<polygon fill="white" stroke="#bfbfbf" points="1135.5,-112.5 1135.5,-131.5 1233.5,-131.5 1233.5,-112.5 1135.5,-112.5"/>
<text text-anchor="middle" x="1184.5" y="-119.5" font-family="Helvetica,sans-Serif" font-size="10.00">G4UImanager.hh</text>
</a>
</g>
</g>
<!-- Node13&#45;&gt;Node21 -->
<g id="edge20" class="edge">
<title>Node13&#45;&gt;Node21</title>
<path fill="none" stroke="midnightblue" d="M1184.5,-168.08C1184.5,-161.01 1184.5,-150.86 1184.5,-141.99"/>
<polygon fill="midnightblue" stroke="midnightblue" points="1188,-141.75 1184.5,-131.75 1181,-141.75 1188,-141.75"/>
</g>
<!-- Node15 -->
<g id="node15" class="node">
<title>Node15</title>
<g id="a_node15"><a xlink:href="_o_m_sim_logger_8hh.html" target="_top" xlink:title=" ">
<polygon fill="white" stroke="black" points="1369,-56.5 1369,-75.5 1468,-75.5 1468,-56.5 1369,-56.5"/>
<text text-anchor="middle" x="1418.5" y="-63.5" font-family="Helvetica,sans-Serif" font-size="10.00">OMSimLogger.hh</text>
</a>
</g>
</g>
<!-- Node14&#45;&gt;Node15 -->
<g id="edge14" class="edge">
<title>Node14&#45;&gt;Node15</title>
<path fill="none" stroke="midnightblue" d="M1510.83,-112.32C1493.11,-103.62 1465.6,-90.12 1445.21,-80.11"/>
<polygon fill="midnightblue" stroke="midnightblue" points="1446.65,-76.92 1436.13,-75.65 1443.56,-83.2 1446.65,-76.92"/>
</g>
<!-- Node18 -->
<g id="node18" class="node">
<title>Node18</title>
<g id="a_node18"><a xlink:title=" ">
<polygon fill="white" stroke="#bfbfbf" points="1871,-56.5 1871,-75.5 1926,-75.5 1926,-56.5 1871,-56.5"/>
<text text-anchor="middle" x="1898.5" y="-63.5" font-family="Helvetica,sans-Serif" font-size="10.00">fstream</text>
</a>
</g>
</g>
<!-- Node14&#45;&gt;Node18 -->
<g id="edge17" class="edge">
<title>Node14&#45;&gt;Node18</title>
<path fill="none" stroke="midnightblue" d="M1587.13,-112.44C1663.76,-101.26 1795.8,-81.99 1860.51,-72.54"/>
<polygon fill="midnightblue" stroke="midnightblue" points="1861.28,-75.97 1870.67,-71.06 1860.27,-69.04 1861.28,-75.97"/>
</g>
<!-- Node19 -->
<g id="node19" class="node">
<title>Node19</title>
<g id="a_node19"><a xlink:title=" ">
<polygon fill="white" stroke="#bfbfbf" points="1486.5,-56.5 1486.5,-75.5 1570.5,-75.5 1570.5,-56.5 1486.5,-56.5"/>
<text text-anchor="middle" x="1528.5" y="-63.5" font-family="Helvetica,sans-Serif" font-size="10.00">boost/any.hpp</text>
</a>
</g>
</g>
<!-- Node14&#45;&gt;Node19 -->
<g id="edge18" class="edge">
<title>Node14&#45;&gt;Node19</title>
<path fill="none" stroke="midnightblue" d="M1528.5,-112.08C1528.5,-105.01 1528.5,-94.86 1528.5,-85.99"/>
<polygon fill="midnightblue" stroke="midnightblue" points="1532,-85.75 1528.5,-75.75 1525,-85.75 1532,-85.75"/>
</g>
<!-- Node20 -->
<g id="node20" class="node">
<title>Node20</title>
<g id="a_node20"><a xlink:title=" ">
<polygon fill="white" stroke="#bfbfbf" points="1588.5,-56.5 1588.5,-75.5 1656.5,-75.5 1656.5,-56.5 1588.5,-56.5"/>
<text text-anchor="middle" x="1622.5" y="-63.5" font-family="Helvetica,sans-Serif" font-size="10.00">sys/time.h</text>
</a>
</g>
</g>
<!-- Node14&#45;&gt;Node20 -->
<g id="edge19" class="edge">
<title>Node14&#45;&gt;Node20</title>
<path fill="none" stroke="midnightblue" d="M1543.6,-112.32C1558.4,-103.82 1581.19,-90.73 1598.48,-80.8"/>
<polygon fill="midnightblue" stroke="midnightblue" points="1600.51,-83.67 1607.43,-75.65 1597.02,-77.6 1600.51,-83.67"/>
</g>
<!-- Node16 -->
<g id="node16" class="node">
<title>Node16</title>
<g id="a_node16"><a xlink:title=" ">
<polygon fill="white" stroke="#bfbfbf" points="1360.5,-0.5 1360.5,-19.5 1410.5,-19.5 1410.5,-0.5 1360.5,-0.5"/>
<text text-anchor="middle" x="1385.5" y="-7.5" font-family="Helvetica,sans-Serif" font-size="10.00">stdio.h</text>
</a>
</g>
</g>
<!-- Node15&#45;&gt;Node16 -->
<g id="edge15" class="edge">
<title>Node15&#45;&gt;Node16</title>
<path fill="none" stroke="midnightblue" d="M1413.05,-56.08C1408.49,-48.61 1401.83,-37.72 1396.21,-28.52"/>
<polygon fill="midnightblue" stroke="midnightblue" points="1399.05,-26.46 1390.85,-19.75 1393.08,-30.11 1399.05,-26.46"/>
</g>
<!-- Node17 -->
<g id="node17" class="node">
<title>Node17</title>
<g id="a_node17"><a xlink:title=" ">
<polygon fill="white" stroke="#bfbfbf" points="1428.5,-0.5 1428.5,-19.5 1476.5,-19.5 1476.5,-0.5 1428.5,-0.5"/>
<text text-anchor="middle" x="1452.5" y="-7.5" font-family="Helvetica,sans-Serif" font-size="10.00">time.h</text>
</a>
</g>
</g>
<!-- Node15&#45;&gt;Node17 -->
<g id="edge16" class="edge">
<title>Node15&#45;&gt;Node17</title>
<path fill="none" stroke="midnightblue" d="M1424.11,-56.08C1428.87,-48.53 1435.82,-37.49 1441.65,-28.23"/>
<polygon fill="midnightblue" stroke="midnightblue" points="1444.62,-30.08 1446.99,-19.75 1438.7,-26.35 1444.62,-30.08"/>
</g>
<!-- Node27&#45;&gt;Node18 -->
<g id="edge40" class="edge">
<title>Node27&#45;&gt;Node18</title>
<path fill="none" stroke="midnightblue" d="M2029.24,-224.43C1986.03,-216.93 1932.52,-204.63 1917.5,-188 1892.05,-159.82 1892.86,-112.08 1895.68,-85.78"/>
<polygon fill="midnightblue" stroke="midnightblue" points="1899.18,-86.01 1896.98,-75.64 1892.23,-85.11 1899.18,-86.01"/>
</g>
<!-- Node28 -->
<g id="node28" class="node">
<title>Node28</title>
<g id="a_node28"><a xlink:title=" ">
<polygon fill="white" stroke="#bfbfbf" points="2295,-56.5 2295,-75.5 2368,-75.5 2368,-56.5 2295,-56.5"/>
<text text-anchor="middle" x="2331.5" y="-63.5" font-family="Helvetica,sans-Serif" font-size="10.00">G4Types.hh</text>
</a>
</g>
</g>
<!-- Node27&#45;&gt;Node28 -->
<g id="edge27" class="edge">
<title>Node27&#45;&gt;Node28</title>
<path fill="none" stroke="midnightblue" d="M2149.29,-224.5C2211.98,-215.16 2302.17,-199.9 2313.5,-188 2339.64,-160.52 2338.07,-112.5 2334.73,-85.97"/>
<polygon fill="midnightblue" stroke="midnightblue" points="2338.14,-85.12 2333.21,-75.74 2331.22,-86.14 2338.14,-85.12"/>
</g>
<!-- Node29 -->
<g id="node29" class="node">
<title>Node29</title>
<g id="a_node29"><a xlink:title=" ">
<polygon fill="white" stroke="#bfbfbf" points="2127.5,-168.5 2127.5,-187.5 2201.5,-187.5 2201.5,-168.5 2127.5,-168.5"/>
<text text-anchor="middle" x="2164.5" y="-175.5" font-family="Helvetica,sans-Serif" font-size="10.00">G4String.hh</text>
</a>
</g>
</g>
<!-- Node27&#45;&gt;Node29 -->
<g id="edge28" class="edge">
<title>Node27&#45;&gt;Node29</title>
<path fill="none" stroke="midnightblue" d="M2100.71,-224.32C2112.28,-216.11 2129.88,-203.6 2143.66,-193.81"/>
<polygon fill="midnightblue" stroke="midnightblue" points="2145.94,-196.48 2152.07,-187.83 2141.89,-190.77 2145.94,-196.48"/>
</g>
<!-- Node30 -->
<g id="node30" class="node">
<title>Node30</title>
<g id="a_node30"><a xlink:title=" ">
<polygon fill="white" stroke="#bfbfbf" points="2161,-112.5 2161,-131.5 2264,-131.5 2264,-112.5 2161,-112.5"/>
<text text-anchor="middle" x="2212.5" y="-119.5" font-family="Helvetica,sans-Serif" font-size="10.00">G4ThreeVector.hh</text>
</a>
</g>
</g>
<!-- Node27&#45;&gt;Node30 -->
<g id="edge29" class="edge">
<title>Node27&#45;&gt;Node30</title>
<path fill="none" stroke="midnightblue" d="M2149.71,-225.02C2172.53,-218.78 2196.32,-207.69 2210.5,-188 2220.08,-174.7 2219.44,-155.58 2217.08,-141.52"/>
<polygon fill="midnightblue" stroke="midnightblue" points="2220.47,-140.6 2215,-131.53 2213.62,-142.04 2220.47,-140.6"/>
</g>
<!-- Node27&#45;&gt;Node31 -->
<g id="edge30" class="edge">
<title>Node27&#45;&gt;Node31</title>
<path fill="none" stroke="midnightblue" d="M2072.43,-224.32C2056.54,-215.74 2031.99,-202.49 2013.54,-192.52"/>
<polygon fill="midnightblue" stroke="midnightblue" points="2014.99,-189.33 2004.53,-187.65 2011.66,-195.49 2014.99,-189.33"/>
</g>
<!-- Node37 -->
<g id="node37" class="node">
<title>Node37</title>
<g id="a_node37"><a xlink:title=" ">
<polygon fill="white" stroke="#bfbfbf" points="2258,-168.5 2258,-187.5 2305,-187.5 2305,-168.5 2258,-168.5"/>
<text text-anchor="middle" x="2281.5" y="-175.5" font-family="Helvetica,sans-Serif" font-size="10.00">vector</text>
</a>
</g>
</g>
<!-- Node27&#45;&gt;Node37 -->
<g id="edge39" class="edge">
<title>Node27&#45;&gt;Node37</title>
<path fill="none" stroke="midnightblue" d="M2119.08,-224.44C2154.25,-214.6 2211.8,-198.5 2248.11,-188.34"/>
<polygon fill="midnightblue" stroke="midnightblue" points="2249.07,-191.71 2257.75,-185.64 2247.18,-184.97 2249.07,-191.71"/>
</g>
<!-- Node38 -->
<g id="node38" class="node">
<title>Node38</title>
<g id="a_node38"><a xlink:title=" ">
<polygon fill="white" stroke="#bfbfbf" points="2068,-168.5 2068,-187.5 2109,-187.5 2109,-168.5 2068,-168.5"/>
<text text-anchor="middle" x="2088.5" y="-175.5" font-family="Helvetica,sans-Serif" font-size="10.00">tuple</text>
</a>
</g>
</g>
<!-- Node27&#45;&gt;Node38 -->
<g id="edge41" class="edge">
<title>Node27&#45;&gt;Node38</title>
<path fill="none" stroke="midnightblue" d="M2088.5,-224.08C2088.5,-217.01 2088.5,-206.86 2088.5,-197.99"/>
<polygon fill="midnightblue" stroke="midnightblue" points="2092,-197.75 2088.5,-187.75 2085,-197.75 2092,-197.75"/>
</g>
<!-- Node31&#45;&gt;Node18 -->
<g id="edge38" class="edge">
<title>Node31&#45;&gt;Node18</title>
<path fill="none" stroke="midnightblue" d="M1981.44,-168.37C1966.45,-150.05 1931.27,-107.05 1911.89,-83.36"/>
<polygon fill="midnightblue" stroke="midnightblue" points="1914.57,-81.11 1905.53,-75.59 1909.15,-85.55 1914.57,-81.11"/>
</g>
<!-- Node31&#45;&gt;Node30 -->
<g id="edge37" class="edge">
<title>Node31&#45;&gt;Node30</title>
<path fill="none" stroke="midnightblue" d="M2023.99,-168.44C2062.82,-159.08 2125.16,-144.06 2167.42,-133.87"/>
<polygon fill="midnightblue" stroke="midnightblue" points="2168.27,-137.26 2177.17,-131.52 2166.63,-130.46 2168.27,-137.26"/>
</g>
<!-- Node32 -->
<g id="node32" class="node">
<title>Node32</title>
<g id="a_node32"><a xlink:href="_o_m_sim_p_m_t_response_8hh.html" target="_top" xlink:title="Provides simulation for PMT response. This class is responsible for transforming hits on photocathode...">
<polygon fill="white" stroke="black" points="2000,-112.5 2000,-131.5 2135,-131.5 2135,-112.5 2000,-112.5"/>
<text text-anchor="middle" x="2067.5" y="-119.5" font-family="Helvetica,sans-Serif" font-size="10.00">OMSimPMTResponse.hh</text>
</a>
</g>
</g>
<!-- Node31&#45;&gt;Node32 -->
<g id="edge31" class="edge">
<title>Node31&#45;&gt;Node32</title>
<path fill="none" stroke="midnightblue" d="M2001.19,-168.32C2013.4,-159.98 2032.08,-147.21 2046.5,-137.35"/>
<polygon fill="midnightblue" stroke="midnightblue" points="2048.56,-140.19 2054.84,-131.65 2044.61,-134.41 2048.56,-140.19"/>
</g>
<!-- Node32&#45;&gt;Node28 -->
<g id="edge33" class="edge">
<title>Node32&#45;&gt;Node28</title>
<path fill="none" stroke="midnightblue" d="M2109.33,-112.44C2157.21,-102.65 2235.41,-86.66 2285.12,-76.49"/>
<polygon fill="midnightblue" stroke="midnightblue" points="2285.87,-79.91 2294.97,-74.47 2284.47,-73.05 2285.87,-79.91"/>
</g>
<!-- Node33 -->
<g id="node33" class="node">
<title>Node33</title>
<g id="a_node33"><a xlink:title=" ">
<polygon fill="white" stroke="#bfbfbf" points="2154,-56.5 2154,-75.5 2273,-75.5 2273,-56.5 2154,-56.5"/>
<text text-anchor="middle" x="2213.5" y="-63.5" font-family="Helvetica,sans-Serif" font-size="10.00">G4SystemOfUnits.hh</text>
</a>
</g>
</g>
<!-- Node32&#45;&gt;Node33 -->
<g id="edge32" class="edge">
<title>Node32&#45;&gt;Node33</title>
<path fill="none" stroke="midnightblue" d="M2090.63,-112.44C2114.98,-103.44 2153.51,-89.19 2180.92,-79.05"/>
<polygon fill="midnightblue" stroke="midnightblue" points="2182.31,-82.27 2190.47,-75.52 2179.88,-75.7 2182.31,-82.27"/>
</g>
<!-- Node34 -->
<g id="node34" class="node">
<title>Node34</title>
<g id="a_node34"><a xlink:title=" ">
<polygon fill="white" stroke="#bfbfbf" points="1947.5,-56.5 1947.5,-75.5 1985.5,-75.5 1985.5,-56.5 1947.5,-56.5"/>
<text text-anchor="middle" x="1966.5" y="-63.5" font-family="Helvetica,sans-Serif" font-size="10.00">map</text>
</a>
</g>
</g>
<!-- Node32&#45;&gt;Node34 -->
<g id="edge34" class="edge">
<title>Node32&#45;&gt;Node34</title>
<path fill="none" stroke="midnightblue" d="M2051.27,-112.32C2035.15,-103.7 2010.2,-90.36 1991.54,-80.39"/>
<polygon fill="midnightblue" stroke="midnightblue" points="1993.16,-77.28 1982.69,-75.65 1989.86,-83.46 1993.16,-77.28"/>
</g>
<!-- Node35 -->
<g id="node35" class="node">
<title>Node35</title>
<g id="a_node35"><a xlink:title=" ">
<polygon fill="white" stroke="#bfbfbf" points="2004,-56.5 2004,-75.5 2065,-75.5 2065,-56.5 2004,-56.5"/>
<text text-anchor="middle" x="2034.5" y="-63.5" font-family="Helvetica,sans-Serif" font-size="10.00">TGraph.h</text>
</a>
</g>
</g>
<!-- Node32&#45;&gt;Node35 -->
<g id="edge35" class="edge">
<title>Node32&#45;&gt;Node35</title>
<path fill="none" stroke="midnightblue" d="M2062.05,-112.08C2057.49,-104.61 2050.83,-93.72 2045.21,-84.52"/>
<polygon fill="midnightblue" stroke="midnightblue" points="2048.05,-82.46 2039.85,-75.75 2042.08,-86.11 2048.05,-82.46"/>
</g>
<!-- Node36 -->
<g id="node36" class="node">
<title>Node36</title>
<g id="a_node36"><a xlink:title=" ">
<polygon fill="white" stroke="#bfbfbf" points="2083,-56.5 2083,-75.5 2136,-75.5 2136,-56.5 2083,-56.5"/>
<text text-anchor="middle" x="2109.5" y="-63.5" font-family="Helvetica,sans-Serif" font-size="10.00">TH2D.h</text>
</a>
</g>
</g>
<!-- Node32&#45;&gt;Node36 -->
<g id="edge36" class="edge">
<title>Node32&#45;&gt;Node36</title>
<path fill="none" stroke="midnightblue" d="M2074.44,-112.08C2080.43,-104.38 2089.25,-93.03 2096.55,-83.65"/>
<polygon fill="midnightblue" stroke="midnightblue" points="2099.32,-85.79 2102.69,-75.75 2093.79,-81.5 2099.32,-85.79"/>
</g>
</g>
</svg>
