<?xml version="1.0" encoding="UTF-8" standalone="no"?>
<!DOCTYPE svg PUBLIC "-//W3C//DTD SVG 1.1//EN"
 "http://www.w3.org/Graphics/SVG/1.1/DTD/svg11.dtd">
<!-- Generated by graphviz version 2.43.0 (0)
 -->
<!-- Title: OMSimSteppingAction.cc Pages: 1 -->
<svg width="1235pt" height="196pt"
 viewBox="0.00 0.00 1235.00 196.00" xmlns="http://www.w3.org/2000/svg" xmlns:xlink="http://www.w3.org/1999/xlink">
<g id="graph0" class="graph" transform="scale(1 1) rotate(0) translate(4 192)">
<title>OMSimSteppingAction.cc</title>
<polygon fill="white" stroke="transparent" points="-4,4 -4,-192 1231,-192 1231,4 -4,4"/>
<!-- Node1 -->
<g id="node1" class="node">
<title>Node1</title>
<g id="a_node1"><a xlink:title=" ">
<polygon fill="#bfbfbf" stroke="black" points="719,-168.5 719,-187.5 858,-187.5 858,-168.5 719,-168.5"/>
<text text-anchor="middle" x="788.5" y="-175.5" font-family="Helvetica,sans-Serif" font-size="10.00">OMSimSteppingAction.cc</text>
</a>
</g>
</g>
<!-- Node2 -->
<g id="node2" class="node">
<title>Node2</title>
<g id="a_node2"><a xlink:href="_o_m_sim_stepping_action_8hh.html" target="_top" xlink:title=" ">
<polygon fill="white" stroke="black" points="179.5,-112.5 179.5,-131.5 319.5,-131.5 319.5,-112.5 179.5,-112.5"/>
<text text-anchor="middle" x="249.5" y="-119.5" font-family="Helvetica,sans-Serif" font-size="10.00">OMSimSteppingAction.hh</text>
</a>
</g>
</g>
<!-- Node1&#45;&gt;Node2 -->
<g id="edge1" class="edge">
<title>Node1&#45;&gt;Node2</title>
<path fill="none" stroke="midnightblue" d="M718.86,-170.02C618.92,-160.01 435.27,-141.61 329.76,-131.04"/>
<polygon fill="midnightblue" stroke="midnightblue" points="330.1,-127.56 319.8,-130.04 329.4,-134.52 330.1,-127.56"/>
</g>
<!-- Node5 -->
<g id="node5" class="node">
<title>Node5</title>
<g id="a_node5"><a xlink:title=" ">
<polygon fill="white" stroke="#bfbfbf" points="198,-56.5 198,-75.5 301,-75.5 301,-56.5 198,-56.5"/>
<text text-anchor="middle" x="249.5" y="-63.5" font-family="Helvetica,sans-Serif" font-size="10.00">G4ThreeVector.hh</text>
</a>
</g>
</g>
<!-- Node1&#45;&gt;Node5 -->
<g id="edge10" class="edge">
<title>Node1&#45;&gt;Node5</title>
<path fill="none" stroke="midnightblue" d="M718.75,-173.49C644.06,-168.58 522.5,-157.23 420.5,-132 368.25,-119.08 310.24,-94.78 277,-79.83"/>
<polygon fill="midnightblue" stroke="midnightblue" points="278.06,-76.47 267.51,-75.51 275.16,-82.84 278.06,-76.47"/>
</g>
<!-- Node7 -->
<g id="node7" class="node">
<title>Node7</title>
<g id="a_node7"><a xlink:title=" ">
<polygon fill="white" stroke="#bfbfbf" points="781,-112.5 781,-131.5 870,-131.5 870,-112.5 781,-112.5"/>
<text text-anchor="middle" x="825.5" y="-119.5" font-family="Helvetica,sans-Serif" font-size="10.00">G4VProcess.hh</text>
</a>
</g>
</g>
<!-- Node1&#45;&gt;Node7 -->
<g id="edge6" class="edge">
<title>Node1&#45;&gt;Node7</title>
<path fill="none" stroke="midnightblue" d="M794.61,-168.08C799.78,-160.53 807.35,-149.49 813.69,-140.23"/>
<polygon fill="midnightblue" stroke="midnightblue" points="816.74,-141.98 819.5,-131.75 810.96,-138.02 816.74,-141.98"/>
</g>
<!-- Node8 -->
<g id="node8" class="node">
<title>Node8</title>
<g id="a_node8"><a xlink:title=" ">
<polygon fill="white" stroke="#bfbfbf" points="887.5,-112.5 887.5,-131.5 993.5,-131.5 993.5,-112.5 887.5,-112.5"/>
<text text-anchor="middle" x="940.5" y="-119.5" font-family="Helvetica,sans-Serif" font-size="10.00">G4RunManager.hh</text>
</a>
</g>
</g>
<!-- Node1&#45;&gt;Node8 -->
<g id="edge7" class="edge">
<title>Node1&#45;&gt;Node8</title>
<path fill="none" stroke="midnightblue" d="M812.58,-168.44C838.04,-159.4 878.39,-145.06 906.96,-134.92"/>
<polygon fill="midnightblue" stroke="midnightblue" points="908.28,-138.16 916.53,-131.52 905.93,-131.57 908.28,-138.16"/>
</g>
<!-- Node9 -->
<g id="node9" class="node">
<title>Node9</title>
<g id="a_node9"><a xlink:title=" ">
<polygon fill="white" stroke="#bfbfbf" points="1011.5,-112.5 1011.5,-131.5 1141.5,-131.5 1141.5,-112.5 1011.5,-112.5"/>
<text text-anchor="middle" x="1076.5" y="-119.5" font-family="Helvetica,sans-Serif" font-size="10.00">G4SteppingManager.hh</text>
</a>
</g>
</g>
<!-- Node1&#45;&gt;Node9 -->
<g id="edge8" class="edge">
<title>Node1&#45;&gt;Node9</title>
<path fill="none" stroke="midnightblue" d="M834.13,-168.44C884.8,-158.94 966.57,-143.61 1020.93,-133.42"/>
<polygon fill="midnightblue" stroke="midnightblue" points="1021.9,-136.8 1031.08,-131.52 1020.61,-129.92 1021.9,-136.8"/>
</g>
<!-- Node10 -->
<g id="node10" class="node">
<title>Node10</title>
<g id="a_node10"><a xlink:title=" ">
<polygon fill="white" stroke="#bfbfbf" points="1160,-112.5 1160,-131.5 1227,-131.5 1227,-112.5 1160,-112.5"/>
<text text-anchor="middle" x="1193.5" y="-119.5" font-family="Helvetica,sans-Serif" font-size="10.00">G4Step.hh</text>
</a>
</g>
</g>
<!-- Node1&#45;&gt;Node10 -->
<g id="edge9" class="edge">
<title>Node1&#45;&gt;Node10</title>
<path fill="none" stroke="midnightblue" d="M858.14,-170.07C929,-162.63 1042.19,-149.67 1149.7,-132.01"/>
<polygon fill="midnightblue" stroke="midnightblue" points="1150.46,-135.43 1159.75,-130.34 1149.31,-128.52 1150.46,-135.43"/>
</g>
<!-- Node11 -->
<g id="node11" class="node">
<title>Node11</title>
<g id="a_node11"><a xlink:title=" ">
<polygon fill="white" stroke="#bfbfbf" points="825,-0.5 825,-19.5 944,-19.5 944,-0.5 825,-0.5"/>
<text text-anchor="middle" x="884.5" y="-7.5" font-family="Helvetica,sans-Serif" font-size="10.00">G4SystemOfUnits.hh</text>
</a>
</g>
</g>
<!-- Node1&#45;&gt;Node11 -->
<g id="edge11" class="edge">
<title>Node1&#45;&gt;Node11</title>
<path fill="none" stroke="midnightblue" d="M782.63,-168.28C774.81,-155.51 762.93,-131.16 771.5,-112 789.46,-71.86 832.12,-41.09 859.58,-24.56"/>
<polygon fill="midnightblue" stroke="midnightblue" points="861.38,-27.56 868.26,-19.5 857.86,-21.51 861.38,-27.56"/>
</g>
<!-- Node12 -->
<g id="node12" class="node">
<title>Node12</title>
<g id="a_node12"><a xlink:href="_o_m_sim_analysis_manager_8hh.html" target="_top" xlink:title=" ">
<polygon fill="white" stroke="black" points="429.5,-112.5 429.5,-131.5 579.5,-131.5 579.5,-112.5 429.5,-112.5"/>
<text text-anchor="middle" x="504.5" y="-119.5" font-family="Helvetica,sans-Serif" font-size="10.00">OMSimAnalysisManager.hh</text>
</a>
</g>
</g>
<!-- Node1&#45;&gt;Node12 -->
<g id="edge12" class="edge">
<title>Node1&#45;&gt;Node12</title>
<path fill="none" stroke="midnightblue" d="M743.5,-168.44C693.54,-158.94 612.9,-143.61 559.3,-133.42"/>
<polygon fill="midnightblue" stroke="midnightblue" points="559.77,-129.95 549.29,-131.52 558.46,-136.82 559.77,-129.95"/>
</g>
<!-- Node3 -->
<g id="node3" class="node">
<title>Node3</title>
<g id="a_node3"><a xlink:title=" ">
<polygon fill="white" stroke="#bfbfbf" points="351,-0.5 351,-19.5 424,-19.5 424,-0.5 351,-0.5"/>
<text text-anchor="middle" x="387.5" y="-7.5" font-family="Helvetica,sans-Serif" font-size="10.00">G4Types.hh</text>
</a>
</g>
</g>
<!-- Node2&#45;&gt;Node3 -->
<g id="edge2" class="edge">
<title>Node2&#45;&gt;Node3</title>
<path fill="none" stroke="midnightblue" d="M230.77,-112.36C207.11,-100.28 171.4,-77.4 188.5,-56 207.21,-32.59 288.13,-20.46 340.85,-14.94"/>
<polygon fill="midnightblue" stroke="midnightblue" points="341.39,-18.4 350.99,-13.92 340.69,-11.43 341.39,-18.4"/>
</g>
<!-- Node4 -->
<g id="node4" class="node">
<title>Node4</title>
<g id="a_node4"><a xlink:title=" ">
<polygon fill="white" stroke="#bfbfbf" points="319.5,-56.5 319.5,-75.5 393.5,-75.5 393.5,-56.5 319.5,-56.5"/>
<text text-anchor="middle" x="356.5" y="-63.5" font-family="Helvetica,sans-Serif" font-size="10.00">G4String.hh</text>
</a>
</g>
</g>
<!-- Node2&#45;&gt;Node4 -->
<g id="edge3" class="edge">
<title>Node2&#45;&gt;Node4</title>
<path fill="none" stroke="midnightblue" d="M266.69,-112.32C283.85,-103.66 310.45,-90.24 330.25,-80.25"/>
<polygon fill="midnightblue" stroke="midnightblue" points="332,-83.28 339.35,-75.65 328.85,-77.04 332,-83.28"/>
</g>
<!-- Node2&#45;&gt;Node5 -->
<g id="edge4" class="edge">
<title>Node2&#45;&gt;Node5</title>
<path fill="none" stroke="midnightblue" d="M249.5,-112.08C249.5,-105.01 249.5,-94.86 249.5,-85.99"/>
<polygon fill="midnightblue" stroke="midnightblue" points="253,-85.75 249.5,-75.75 246,-85.75 253,-85.75"/>
</g>
<!-- Node6 -->
<g id="node6" class="node">
<title>Node6</title>
<g id="a_node6"><a xlink:title=" ">
<polygon fill="white" stroke="#bfbfbf" points="0,-56.5 0,-75.5 141,-75.5 141,-56.5 0,-56.5"/>
<text text-anchor="middle" x="70.5" y="-63.5" font-family="Helvetica,sans-Serif" font-size="10.00">G4UserSteppingAction.hh</text>
</a>
</g>
</g>
<!-- Node2&#45;&gt;Node6 -->
<g id="edge5" class="edge">
<title>Node2&#45;&gt;Node6</title>
<path fill="none" stroke="midnightblue" d="M221.14,-112.44C190.76,-103.28 142.39,-88.69 108.68,-78.52"/>
<polygon fill="midnightblue" stroke="midnightblue" points="109.32,-75.05 98.73,-75.52 107.29,-81.76 109.32,-75.05"/>
</g>
<!-- Node12&#45;&gt;Node3 -->
<g id="edge13" class="edge">
<title>Node12&#45;&gt;Node3</title>
<path fill="none" stroke="midnightblue" d="M515.56,-112.35C530.7,-99.45 554.49,-74.69 540.5,-56 533.92,-47.2 476.65,-32.01 434.1,-21.73"/>
<polygon fill="midnightblue" stroke="midnightblue" points="434.72,-18.29 424.18,-19.37 433.09,-25.09 434.72,-18.29"/>
</g>
<!-- Node12&#45;&gt;Node4 -->
<g id="edge14" class="edge">
<title>Node12&#45;&gt;Node4</title>
<path fill="none" stroke="midnightblue" d="M481.05,-112.44C456.37,-103.44 417.31,-89.19 389.52,-79.05"/>
<polygon fill="midnightblue" stroke="midnightblue" points="390.44,-75.66 379.84,-75.52 388.04,-82.23 390.44,-75.66"/>
</g>
<!-- Node12&#45;&gt;Node5 -->
<g id="edge15" class="edge">
<title>Node12&#45;&gt;Node5</title>
<path fill="none" stroke="midnightblue" d="M464.09,-112.44C419.52,-103 347.73,-87.8 299.61,-77.61"/>
<polygon fill="midnightblue" stroke="midnightblue" points="300.22,-74.16 289.72,-75.52 298.77,-81.01 300.22,-74.16"/>
</g>
<!-- Node13 -->
<g id="node13" class="node">
<title>Node13</title>
<g id="a_node13"><a xlink:href="_o_m_sim_p_m_t_response_8hh.html" target="_top" xlink:title=" ">
<polygon fill="white" stroke="black" points="589,-56.5 589,-75.5 724,-75.5 724,-56.5 589,-56.5"/>
<text text-anchor="middle" x="656.5" y="-63.5" font-family="Helvetica,sans-Serif" font-size="10.00">OMSimPMTResponse.hh</text>
</a>
</g>
</g>
<!-- Node12&#45;&gt;Node13 -->
<g id="edge16" class="edge">
<title>Node12&#45;&gt;Node13</title>
<path fill="none" stroke="midnightblue" d="M528.58,-112.44C554.04,-103.4 594.39,-89.06 622.96,-78.92"/>
<polygon fill="midnightblue" stroke="midnightblue" points="624.28,-82.16 632.53,-75.52 621.93,-75.57 624.28,-82.16"/>
</g>
<!-- Node19 -->
<g id="node19" class="node">
<title>Node19</title>
<g id="a_node19"><a xlink:title=" ">
<polygon fill="white" stroke="#bfbfbf" points="412,-56.5 412,-75.5 459,-75.5 459,-56.5 412,-56.5"/>
<text text-anchor="middle" x="435.5" y="-63.5" font-family="Helvetica,sans-Serif" font-size="10.00">vector</text>
</a>
</g>
</g>
<!-- Node12&#45;&gt;Node19 -->
<g id="edge24" class="edge">
<title>Node12&#45;&gt;Node19</title>
<path fill="none" stroke="midnightblue" d="M493.41,-112.32C483.01,-104.18 467.24,-91.84 454.78,-82.09"/>
<polygon fill="midnightblue" stroke="midnightblue" points="456.82,-79.24 446.79,-75.83 452.51,-84.75 456.82,-79.24"/>
</g>
<!-- Node20 -->
<g id="node20" class="node">
<title>Node20</title>
<g id="a_node20"><a xlink:title=" ">
<polygon fill="white" stroke="#bfbfbf" points="477,-56.5 477,-75.5 532,-75.5 532,-56.5 477,-56.5"/>
<text text-anchor="middle" x="504.5" y="-63.5" font-family="Helvetica,sans-Serif" font-size="10.00">fstream</text>
</a>
</g>
</g>
<!-- Node12&#45;&gt;Node20 -->
<g id="edge25" class="edge">
<title>Node12&#45;&gt;Node20</title>
<path fill="none" stroke="midnightblue" d="M504.5,-112.08C504.5,-105.01 504.5,-94.86 504.5,-85.99"/>
<polygon fill="midnightblue" stroke="midnightblue" points="508,-85.75 504.5,-75.75 501,-85.75 508,-85.75"/>
</g>
<!-- Node13&#45;&gt;Node3 -->
<g id="edge18" class="edge">
<title>Node13&#45;&gt;Node3</title>
<path fill="none" stroke="midnightblue" d="M613.88,-56.44C564.95,-46.62 484.96,-30.56 434.33,-20.4"/>
<polygon fill="midnightblue" stroke="midnightblue" points="434.8,-16.93 424.31,-18.39 433.42,-23.79 434.8,-16.93"/>
</g>
<!-- Node13&#45;&gt;Node11 -->
<g id="edge17" class="edge">
<title>Node13&#45;&gt;Node11</title>
<path fill="none" stroke="midnightblue" d="M692.63,-56.44C732.15,-47.08 795.6,-32.06 838.61,-21.87"/>
<polygon fill="midnightblue" stroke="midnightblue" points="839.62,-25.23 848.54,-19.52 838,-18.42 839.62,-25.23"/>
</g>
<!-- Node14 -->
<g id="node14" class="node">
<title>Node14</title>
<g id="a_node14"><a xlink:title=" ">
<polygon fill="white" stroke="#bfbfbf" points="742,-0.5 742,-19.5 807,-19.5 807,-0.5 742,-0.5"/>
<text text-anchor="middle" x="774.5" y="-7.5" font-family="Helvetica,sans-Serif" font-size="10.00">functional</text>
</a>
</g>
</g>
<!-- Node13&#45;&gt;Node14 -->
<g id="edge19" class="edge">
<title>Node13&#45;&gt;Node14</title>
<path fill="none" stroke="midnightblue" d="M675.2,-56.44C694.44,-47.64 724.65,-33.81 746.7,-23.72"/>
<polygon fill="midnightblue" stroke="midnightblue" points="748.25,-26.86 755.89,-19.52 745.34,-20.5 748.25,-26.86"/>
</g>
<!-- Node15 -->
<g id="node15" class="node">
<title>Node15</title>
<g id="a_node15"><a xlink:title=" ">
<polygon fill="white" stroke="#bfbfbf" points="442.5,-0.5 442.5,-19.5 480.5,-19.5 480.5,-0.5 442.5,-0.5"/>
<text text-anchor="middle" x="461.5" y="-7.5" font-family="Helvetica,sans-Serif" font-size="10.00">map</text>
</a>
</g>
</g>
<!-- Node13&#45;&gt;Node15 -->
<g id="edge20" class="edge">
<title>Node13&#45;&gt;Node15</title>
<path fill="none" stroke="midnightblue" d="M622.78,-56.42C590.94,-48.2 541.64,-35.2 490.34,-20.15"/>
<polygon fill="midnightblue" stroke="midnightblue" points="491.32,-16.79 480.74,-17.32 489.34,-23.51 491.32,-16.79"/>
</g>
<!-- Node16 -->
<g id="node16" class="node">
<title>Node16</title>
<g id="a_node16"><a xlink:title=" ">
<polygon fill="white" stroke="#bfbfbf" points="499,-0.5 499,-19.5 560,-19.5 560,-0.5 499,-0.5"/>
<text text-anchor="middle" x="529.5" y="-7.5" font-family="Helvetica,sans-Serif" font-size="10.00">TGraph.h</text>
</a>
</g>
</g>
<!-- Node13&#45;&gt;Node16 -->
<g id="edge21" class="edge">
<title>Node13&#45;&gt;Node16</title>
<path fill="none" stroke="midnightblue" d="M636.38,-56.44C615.48,-47.56 582.57,-33.56 558.78,-23.45"/>
<polygon fill="midnightblue" stroke="midnightblue" points="560.1,-20.21 549.53,-19.52 557.36,-26.65 560.1,-20.21"/>
</g>
<!-- Node17 -->
<g id="node17" class="node">
<title>Node17</title>
<g id="a_node17"><a xlink:title=" ">
<polygon fill="white" stroke="#bfbfbf" points="578.5,-0.5 578.5,-19.5 652.5,-19.5 652.5,-0.5 578.5,-0.5"/>
<text text-anchor="middle" x="615.5" y="-7.5" font-family="Helvetica,sans-Serif" font-size="10.00">TGraph2D.h</text>
</a>
</g>
</g>
<!-- Node13&#45;&gt;Node17 -->
<g id="edge22" class="edge">
<title>Node13&#45;&gt;Node17</title>
<path fill="none" stroke="midnightblue" d="M649.73,-56.08C643.94,-48.46 635.44,-37.26 628.36,-27.94"/>
<polygon fill="midnightblue" stroke="midnightblue" points="630.98,-25.6 622.14,-19.75 625.4,-29.83 630.98,-25.6"/>
</g>
<!-- Node18 -->
<g id="node18" class="node">
<title>Node18</title>
<g id="a_node18"><a xlink:title=" ">
<polygon fill="white" stroke="#bfbfbf" points="671,-0.5 671,-19.5 724,-19.5 724,-0.5 671,-0.5"/>
<text text-anchor="middle" x="697.5" y="-7.5" font-family="Helvetica,sans-Serif" font-size="10.00">TH2D.h</text>
</a>
</g>
</g>
<!-- Node13&#45;&gt;Node18 -->
<g id="edge23" class="edge">
<title>Node13&#45;&gt;Node18</title>
<path fill="none" stroke="midnightblue" d="M663.27,-56.08C669.06,-48.46 677.56,-37.26 684.64,-27.94"/>
<polygon fill="midnightblue" stroke="midnightblue" points="687.6,-29.83 690.86,-19.75 682.02,-25.6 687.6,-29.83"/>
</g>
</g>
</svg>
