<?xml version="1.0" encoding="UTF-8" standalone="no"?>
<!DOCTYPE svg PUBLIC "-//W3C//DTD SVG 1.1//EN"
 "http://www.w3.org/Graphics/SVG/1.1/DTD/svg11.dtd">
<!-- Generated by graphviz version 2.43.0 (0)
 -->
<!-- Title: OMSimIBD.cc Pages: 1 -->
<svg width="2025pt" height="196pt"
 viewBox="0.00 0.00 2025.00 196.00" xmlns="http://www.w3.org/2000/svg" xmlns:xlink="http://www.w3.org/1999/xlink">
<g id="graph0" class="graph" transform="scale(1 1) rotate(0) translate(4 192)">
<title>OMSimIBD.cc</title>
<polygon fill="white" stroke="transparent" points="-4,4 -4,-192 2021,-192 2021,4 -4,4"/>
<!-- Node1 -->
<g id="node1" class="node">
<title>Node1</title>
<g id="a_node1"><a xlink:title=" ">
<polygon fill="#bfbfbf" stroke="black" points="1136.5,-168.5 1136.5,-187.5 1219.5,-187.5 1219.5,-168.5 1136.5,-168.5"/>
<text text-anchor="middle" x="1178" y="-175.5" font-family="Helvetica,sans-Serif" font-size="10.00">OMSimIBD.cc</text>
</a>
</g>
</g>
<!-- Node2 -->
<g id="node2" class="node">
<title>Node2</title>
<g id="a_node2"><a xlink:href="_o_m_sim_i_b_d_8hh.html" target="_top" xlink:title="This file contains the class in charge of generating positrons from IBD of supernova antineutrino int...">
<polygon fill="white" stroke="black" points="285,-112.5 285,-131.5 369,-131.5 369,-112.5 285,-112.5"/>
<text text-anchor="middle" x="327" y="-119.5" font-family="Helvetica,sans-Serif" font-size="10.00">OMSimIBD.hh</text>
</a>
</g>
</g>
<!-- Node1&#45;&gt;Node2 -->
<g id="edge1" class="edge">
<title>Node1&#45;&gt;Node2</title>
<path fill="none" stroke="midnightblue" d="M1136.21,-176.39C1018.6,-174.31 674.64,-165.68 379.29,-132.01"/>
<polygon fill="midnightblue" stroke="midnightblue" points="379.58,-128.52 369.24,-130.85 378.78,-135.47 379.58,-128.52"/>
</g>
<!-- Node7 -->
<g id="node7" class="node">
<title>Node7</title>
<g id="a_node7"><a xlink:href="_o_m_sim_s_n_analysis_8hh.html" target="_top" xlink:title=" ">
<polygon fill="white" stroke="black" points="539,-112.5 539,-131.5 661,-131.5 661,-112.5 539,-112.5"/>
<text text-anchor="middle" x="600" y="-119.5" font-family="Helvetica,sans-Serif" font-size="10.00">OMSimSNAnalysis.hh</text>
</a>
</g>
</g>
<!-- Node1&#45;&gt;Node7 -->
<g id="edge6" class="edge">
<title>Node1&#45;&gt;Node7</title>
<path fill="none" stroke="midnightblue" d="M1136.46,-173.88C1051.31,-167.36 850.6,-151.38 671.22,-132.09"/>
<polygon fill="midnightblue" stroke="midnightblue" points="671.38,-128.59 661.07,-131 670.63,-135.55 671.38,-128.59"/>
</g>
<!-- Node12 -->
<g id="node12" class="node">
<title>Node12</title>
<g id="a_node12"><a xlink:href="_o_m_sim_command_args_table_8hh.html" target="_top" xlink:title="Definition of the OMSimCommandArgsTable singleton class, which controls user args.">
<polygon fill="white" stroke="black" points="679,-112.5 679,-131.5 843,-131.5 843,-112.5 679,-112.5"/>
<text text-anchor="middle" x="761" y="-119.5" font-family="Helvetica,sans-Serif" font-size="10.00">OMSimCommandArgsTable.hh</text>
</a>
</g>
</g>
<!-- Node1&#45;&gt;Node12 -->
<g id="edge13" class="edge">
<title>Node1&#45;&gt;Node12</title>
<path fill="none" stroke="midnightblue" d="M1136.49,-171.62C1066.67,-162.58 924.74,-144.2 836.77,-132.81"/>
<polygon fill="midnightblue" stroke="midnightblue" points="837.21,-129.34 826.84,-131.53 836.31,-136.28 837.21,-129.34"/>
</g>
<!-- Node18 -->
<g id="node18" class="node">
<title>Node18</title>
<g id="a_node18"><a xlink:title=" ">
<polygon fill="white" stroke="#bfbfbf" points="861.5,-112.5 861.5,-131.5 934.5,-131.5 934.5,-112.5 861.5,-112.5"/>
<text text-anchor="middle" x="898" y="-119.5" font-family="Helvetica,sans-Serif" font-size="10.00">G4Event.hh</text>
</a>
</g>
</g>
<!-- Node1&#45;&gt;Node18 -->
<g id="edge20" class="edge">
<title>Node1&#45;&gt;Node18</title>
<path fill="none" stroke="midnightblue" d="M1136.14,-168.99C1091.33,-160.41 1017.87,-146.31 944.53,-132.1"/>
<polygon fill="midnightblue" stroke="midnightblue" points="945.14,-128.65 934.66,-130.18 943.81,-135.52 945.14,-128.65"/>
</g>
<!-- Node19 -->
<g id="node19" class="node">
<title>Node19</title>
<g id="a_node19"><a xlink:title=" ">
<polygon fill="white" stroke="#bfbfbf" points="953,-112.5 953,-131.5 1105,-131.5 1105,-112.5 953,-112.5"/>
<text text-anchor="middle" x="1029" y="-119.5" font-family="Helvetica,sans-Serif" font-size="10.00">G4GeneralParticleSource.hh</text>
</a>
</g>
</g>
<!-- Node1&#45;&gt;Node19 -->
<g id="edge21" class="edge">
<title>Node1&#45;&gt;Node19</title>
<path fill="none" stroke="midnightblue" d="M1154.39,-168.44C1129.54,-159.44 1090.23,-145.19 1062.25,-135.05"/>
<polygon fill="midnightblue" stroke="midnightblue" points="1063.09,-131.63 1052.5,-131.52 1060.71,-138.21 1063.09,-131.63"/>
</g>
<!-- Node20 -->
<g id="node20" class="node">
<title>Node20</title>
<g id="a_node20"><a xlink:title=" ">
<polygon fill="white" stroke="#bfbfbf" points="1123.5,-112.5 1123.5,-131.5 1232.5,-131.5 1232.5,-112.5 1123.5,-112.5"/>
<text text-anchor="middle" x="1178" y="-119.5" font-family="Helvetica,sans-Serif" font-size="10.00">G4ParticleTypes.hh</text>
</a>
</g>
</g>
<!-- Node1&#45;&gt;Node20 -->
<g id="edge22" class="edge">
<title>Node1&#45;&gt;Node20</title>
<path fill="none" stroke="midnightblue" d="M1178,-168.08C1178,-161.01 1178,-150.86 1178,-141.99"/>
<polygon fill="midnightblue" stroke="midnightblue" points="1181.5,-141.75 1178,-131.75 1174.5,-141.75 1181.5,-141.75"/>
</g>
<!-- Node21 -->
<g id="node21" class="node">
<title>Node21</title>
<g id="a_node21"><a xlink:title=" ">
<polygon fill="white" stroke="#bfbfbf" points="1250.5,-112.5 1250.5,-131.5 1351.5,-131.5 1351.5,-112.5 1250.5,-112.5"/>
<text text-anchor="middle" x="1301" y="-119.5" font-family="Helvetica,sans-Serif" font-size="10.00">G4ParticleGun.hh</text>
</a>
</g>
</g>
<!-- Node1&#45;&gt;Node21 -->
<g id="edge23" class="edge">
<title>Node1&#45;&gt;Node21</title>
<path fill="none" stroke="midnightblue" d="M1197.49,-168.44C1217.64,-159.6 1249.32,-145.69 1272.33,-135.59"/>
<polygon fill="midnightblue" stroke="midnightblue" points="1273.85,-138.74 1281.6,-131.52 1271.04,-132.33 1273.85,-138.74"/>
</g>
<!-- Node22 -->
<g id="node22" class="node">
<title>Node22</title>
<g id="a_node22"><a xlink:title=" ">
<polygon fill="white" stroke="#bfbfbf" points="1369.5,-112.5 1369.5,-131.5 1476.5,-131.5 1476.5,-112.5 1369.5,-112.5"/>
<text text-anchor="middle" x="1423" y="-119.5" font-family="Helvetica,sans-Serif" font-size="10.00">G4ParticleTable.hh</text>
</a>
</g>
</g>
<!-- Node1&#45;&gt;Node22 -->
<g id="edge24" class="edge">
<title>Node1&#45;&gt;Node22</title>
<path fill="none" stroke="midnightblue" d="M1216.82,-168.44C1259.56,-159.02 1328.33,-143.87 1374.57,-133.68"/>
<polygon fill="midnightblue" stroke="midnightblue" points="1375.35,-137.09 1384.36,-131.52 1373.84,-130.25 1375.35,-137.09"/>
</g>
<!-- Node23 -->
<g id="node23" class="node">
<title>Node23</title>
<g id="a_node23"><a xlink:title=" ">
<polygon fill="white" stroke="#bfbfbf" points="1495,-112.5 1495,-131.5 1623,-131.5 1623,-112.5 1495,-112.5"/>
<text text-anchor="middle" x="1559" y="-119.5" font-family="Helvetica,sans-Serif" font-size="10.00">G4ParticleDefinition.hh</text>
</a>
</g>
</g>
<!-- Node1&#45;&gt;Node23 -->
<g id="edge25" class="edge">
<title>Node1&#45;&gt;Node23</title>
<path fill="none" stroke="midnightblue" d="M1219.86,-171.07C1284.61,-161.89 1409.79,-144.15 1488.62,-132.97"/>
<polygon fill="midnightblue" stroke="midnightblue" points="1489.54,-136.38 1498.95,-131.51 1488.56,-129.45 1489.54,-136.38"/>
</g>
<!-- Node24 -->
<g id="node24" class="node">
<title>Node24</title>
<g id="a_node24"><a xlink:title=" ">
<polygon fill="white" stroke="#bfbfbf" points="1641,-112.5 1641,-131.5 1775,-131.5 1775,-112.5 1641,-112.5"/>
<text text-anchor="middle" x="1708" y="-119.5" font-family="Helvetica,sans-Serif" font-size="10.00">G4PhysicalConstants.hh</text>
</a>
</g>
</g>
<!-- Node1&#45;&gt;Node24 -->
<g id="edge26" class="edge">
<title>Node1&#45;&gt;Node24</title>
<path fill="none" stroke="midnightblue" d="M1219.65,-173.14C1297.91,-165.83 1472.51,-149.24 1630.49,-132.15"/>
<polygon fill="midnightblue" stroke="midnightblue" points="1631.31,-135.58 1640.87,-131.02 1630.55,-128.62 1631.31,-135.58"/>
</g>
<!-- Node25 -->
<g id="node25" class="node">
<title>Node25</title>
<g id="a_node25"><a xlink:title=" ">
<polygon fill="white" stroke="#bfbfbf" points="1793.5,-112.5 1793.5,-131.5 1912.5,-131.5 1912.5,-112.5 1793.5,-112.5"/>
<text text-anchor="middle" x="1853" y="-119.5" font-family="Helvetica,sans-Serif" font-size="10.00">G4SystemOfUnits.hh</text>
</a>
</g>
</g>
<!-- Node1&#45;&gt;Node25 -->
<g id="edge27" class="edge">
<title>Node1&#45;&gt;Node25</title>
<path fill="none" stroke="midnightblue" d="M1219.58,-174.71C1316.4,-169.21 1564.6,-154.12 1783.13,-132.03"/>
<polygon fill="midnightblue" stroke="midnightblue" points="1783.59,-135.5 1793.18,-131.01 1782.88,-128.54 1783.59,-135.5"/>
</g>
<!-- Node26 -->
<g id="node26" class="node">
<title>Node26</title>
<g id="a_node26"><a xlink:title=" ">
<polygon fill="white" stroke="#bfbfbf" points="1931,-112.5 1931,-131.5 2017,-131.5 2017,-112.5 1931,-112.5"/>
<text text-anchor="middle" x="1974" y="-119.5" font-family="Helvetica,sans-Serif" font-size="10.00">Randomize.hh</text>
</a>
</g>
</g>
<!-- Node1&#45;&gt;Node26 -->
<g id="edge28" class="edge">
<title>Node1&#45;&gt;Node26</title>
<path fill="none" stroke="midnightblue" d="M1219.68,-176.1C1331.54,-173.34 1647.77,-163.26 1920.82,-132"/>
<polygon fill="midnightblue" stroke="midnightblue" points="1921.39,-135.46 1930.92,-130.83 1920.59,-128.51 1921.39,-135.46"/>
</g>
<!-- Node27 -->
<g id="node27" class="node">
<title>Node27</title>
<g id="a_node27"><a xlink:href="_o_m_sim_s_n_tools_8hh.html" target="_top" xlink:title="Provides the definition for the OMSimSNTools class, centralizing utility methods for Supernova (SN) n...">
<polygon fill="white" stroke="black" points="387.5,-112.5 387.5,-131.5 492.5,-131.5 492.5,-112.5 387.5,-112.5"/>
<text text-anchor="middle" x="440" y="-119.5" font-family="Helvetica,sans-Serif" font-size="10.00">OMSimSNTools.hh</text>
</a>
</g>
</g>
<!-- Node1&#45;&gt;Node27 -->
<g id="edge29" class="edge">
<title>Node1&#45;&gt;Node27</title>
<path fill="none" stroke="midnightblue" d="M1136.27,-174.54C1033.26,-168.38 758.67,-151.37 530,-132 521.25,-131.26 512.02,-130.41 502.95,-129.54"/>
<polygon fill="midnightblue" stroke="midnightblue" points="503.09,-126.04 492.8,-128.55 502.41,-133 503.09,-126.04"/>
</g>
<!-- Node3 -->
<g id="node3" class="node">
<title>Node3</title>
<g id="a_node3"><a xlink:title=" ">
<polygon fill="white" stroke="#bfbfbf" points="0,-56.5 0,-75.5 192,-75.5 192,-56.5 0,-56.5"/>
<text text-anchor="middle" x="96" y="-63.5" font-family="Helvetica,sans-Serif" font-size="10.00">G4VUserPrimaryGeneratorAction.hh</text>
</a>
</g>
</g>
<!-- Node2&#45;&gt;Node3 -->
<g id="edge2" class="edge">
<title>Node2&#45;&gt;Node3</title>
<path fill="none" stroke="midnightblue" d="M290.4,-112.44C250.27,-103.06 185.8,-87.99 142.22,-77.8"/>
<polygon fill="midnightblue" stroke="midnightblue" points="142.97,-74.38 132.43,-75.52 141.37,-81.2 142.97,-74.38"/>
</g>
<!-- Node4 -->
<g id="node4" class="node">
<title>Node4</title>
<g id="a_node4"><a xlink:title=" ">
<polygon fill="white" stroke="#bfbfbf" points="210.5,-56.5 210.5,-75.5 277.5,-75.5 277.5,-56.5 210.5,-56.5"/>
<text text-anchor="middle" x="244" y="-63.5" font-family="Helvetica,sans-Serif" font-size="10.00">globals.hh</text>
</a>
</g>
</g>
<!-- Node2&#45;&gt;Node4 -->
<g id="edge3" class="edge">
<title>Node2&#45;&gt;Node4</title>
<path fill="none" stroke="midnightblue" d="M313.66,-112.32C300.84,-103.98 281.22,-91.21 266.06,-81.35"/>
<polygon fill="midnightblue" stroke="midnightblue" points="267.59,-78.17 257.3,-75.65 263.78,-84.04 267.59,-78.17"/>
</g>
<!-- Node5 -->
<g id="node5" class="node">
<title>Node5</title>
<g id="a_node5"><a xlink:title=" ">
<polygon fill="white" stroke="#bfbfbf" points="416.5,-56.5 416.5,-75.5 463.5,-75.5 463.5,-56.5 416.5,-56.5"/>
<text text-anchor="middle" x="440" y="-63.5" font-family="Helvetica,sans-Serif" font-size="10.00">vector</text>
</a>
</g>
</g>
<!-- Node2&#45;&gt;Node5 -->
<g id="edge4" class="edge">
<title>Node2&#45;&gt;Node5</title>
<path fill="none" stroke="midnightblue" d="M344.91,-112.44C363.25,-103.68 392.01,-89.94 413.09,-79.86"/>
<polygon fill="midnightblue" stroke="midnightblue" points="414.67,-82.99 422.18,-75.52 411.65,-76.67 414.67,-82.99"/>
</g>
<!-- Node6 -->
<g id="node6" class="node">
<title>Node6</title>
<g id="a_node6"><a xlink:title=" ">
<polygon fill="white" stroke="#bfbfbf" points="295.5,-56.5 295.5,-75.5 398.5,-75.5 398.5,-56.5 295.5,-56.5"/>
<text text-anchor="middle" x="347" y="-63.5" font-family="Helvetica,sans-Serif" font-size="10.00">G4ThreeVector.hh</text>
</a>
</g>
</g>
<!-- Node2&#45;&gt;Node6 -->
<g id="edge5" class="edge">
<title>Node2&#45;&gt;Node6</title>
<path fill="none" stroke="midnightblue" d="M330.3,-112.08C332.98,-104.85 336.85,-94.41 340.19,-85.4"/>
<polygon fill="midnightblue" stroke="midnightblue" points="343.57,-86.34 343.76,-75.75 337,-83.91 343.57,-86.34"/>
</g>
<!-- Node7&#45;&gt;Node5 -->
<g id="edge10" class="edge">
<title>Node7&#45;&gt;Node5</title>
<path fill="none" stroke="midnightblue" d="M574.65,-112.44C547.26,-103.2 503.49,-88.43 473.33,-78.25"/>
<polygon fill="midnightblue" stroke="midnightblue" points="474.26,-74.87 463.67,-74.99 472.02,-81.5 474.26,-74.87"/>
</g>
<!-- Node7&#45;&gt;Node6 -->
<g id="edge9" class="edge">
<title>Node7&#45;&gt;Node6</title>
<path fill="none" stroke="midnightblue" d="M559.91,-112.44C515.68,-103 444.46,-87.8 396.72,-77.61"/>
<polygon fill="midnightblue" stroke="midnightblue" points="397.41,-74.18 386.9,-75.52 395.95,-81.03 397.41,-74.18"/>
</g>
<!-- Node8 -->
<g id="node8" class="node">
<title>Node8</title>
<g id="a_node8"><a xlink:title=" ">
<polygon fill="white" stroke="#bfbfbf" points="481.5,-56.5 481.5,-75.5 554.5,-75.5 554.5,-56.5 481.5,-56.5"/>
<text text-anchor="middle" x="518" y="-63.5" font-family="Helvetica,sans-Serif" font-size="10.00">G4Types.hh</text>
</a>
</g>
</g>
<!-- Node7&#45;&gt;Node8 -->
<g id="edge7" class="edge">
<title>Node7&#45;&gt;Node8</title>
<path fill="none" stroke="midnightblue" d="M586.83,-112.32C574.15,-103.98 554.77,-91.21 539.79,-81.35"/>
<polygon fill="midnightblue" stroke="midnightblue" points="541.42,-78.23 531.14,-75.65 537.57,-84.08 541.42,-78.23"/>
</g>
<!-- Node9 -->
<g id="node9" class="node">
<title>Node9</title>
<g id="a_node9"><a xlink:title=" ">
<polygon fill="white" stroke="#bfbfbf" points="573,-56.5 573,-75.5 647,-75.5 647,-56.5 573,-56.5"/>
<text text-anchor="middle" x="610" y="-63.5" font-family="Helvetica,sans-Serif" font-size="10.00">G4String.hh</text>
</a>
</g>
</g>
<!-- Node7&#45;&gt;Node9 -->
<g id="edge8" class="edge">
<title>Node7&#45;&gt;Node9</title>
<path fill="none" stroke="midnightblue" d="M601.65,-112.08C602.98,-104.93 604.88,-94.64 606.54,-85.69"/>
<polygon fill="midnightblue" stroke="midnightblue" points="610,-86.22 608.38,-75.75 603.12,-84.95 610,-86.22"/>
</g>
<!-- Node10 -->
<g id="node10" class="node">
<title>Node10</title>
<g id="a_node10"><a xlink:title=" ">
<polygon fill="white" stroke="#bfbfbf" points="724.5,-56.5 724.5,-75.5 779.5,-75.5 779.5,-56.5 724.5,-56.5"/>
<text text-anchor="middle" x="752" y="-63.5" font-family="Helvetica,sans-Serif" font-size="10.00">fstream</text>
</a>
</g>
</g>
<!-- Node7&#45;&gt;Node10 -->
<g id="edge11" class="edge">
<title>Node7&#45;&gt;Node10</title>
<path fill="none" stroke="midnightblue" d="M624.08,-112.44C649.54,-103.4 689.89,-89.06 718.46,-78.92"/>
<polygon fill="midnightblue" stroke="midnightblue" points="719.78,-82.16 728.03,-75.52 717.43,-75.57 719.78,-82.16"/>
</g>
<!-- Node11 -->
<g id="node11" class="node">
<title>Node11</title>
<g id="a_node11"><a xlink:title=" ">
<polygon fill="white" stroke="#bfbfbf" points="665.5,-56.5 665.5,-75.5 706.5,-75.5 706.5,-56.5 665.5,-56.5"/>
<text text-anchor="middle" x="686" y="-63.5" font-family="Helvetica,sans-Serif" font-size="10.00">tuple</text>
</a>
</g>
</g>
<!-- Node7&#45;&gt;Node11 -->
<g id="edge12" class="edge">
<title>Node7&#45;&gt;Node11</title>
<path fill="none" stroke="midnightblue" d="M613.82,-112.32C627.23,-103.9 647.82,-90.97 663.59,-81.07"/>
<polygon fill="midnightblue" stroke="midnightblue" points="665.61,-83.94 672.22,-75.65 661.89,-78.01 665.61,-83.94"/>
</g>
<!-- Node12&#45;&gt;Node10 -->
<g id="edge17" class="edge">
<title>Node12&#45;&gt;Node10</title>
<path fill="none" stroke="midnightblue" d="M759.51,-112.08C758.32,-104.93 756.61,-94.64 755.12,-85.69"/>
<polygon fill="midnightblue" stroke="midnightblue" points="758.55,-85.04 753.46,-75.75 751.65,-86.19 758.55,-85.04"/>
</g>
<!-- Node13 -->
<g id="node13" class="node">
<title>Node13</title>
<g id="a_node13"><a xlink:href="_o_m_sim_logger_8hh.html" target="_top" xlink:title=" ">
<polygon fill="white" stroke="black" points="797.5,-56.5 797.5,-75.5 896.5,-75.5 896.5,-56.5 797.5,-56.5"/>
<text text-anchor="middle" x="847" y="-63.5" font-family="Helvetica,sans-Serif" font-size="10.00">OMSimLogger.hh</text>
</a>
</g>
</g>
<!-- Node12&#45;&gt;Node13 -->
<g id="edge14" class="edge">
<title>Node12&#45;&gt;Node13</title>
<path fill="none" stroke="midnightblue" d="M774.82,-112.32C788.23,-103.9 808.82,-90.97 824.59,-81.07"/>
<polygon fill="midnightblue" stroke="midnightblue" points="826.61,-83.94 833.22,-75.65 822.89,-78.01 826.61,-83.94"/>
</g>
<!-- Node16 -->
<g id="node16" class="node">
<title>Node16</title>
<g id="a_node16"><a xlink:title=" ">
<polygon fill="white" stroke="#bfbfbf" points="915,-56.5 915,-75.5 999,-75.5 999,-56.5 915,-56.5"/>
<text text-anchor="middle" x="957" y="-63.5" font-family="Helvetica,sans-Serif" font-size="10.00">boost/any.hpp</text>
</a>
</g>
</g>
<!-- Node12&#45;&gt;Node16 -->
<g id="edge18" class="edge">
<title>Node12&#45;&gt;Node16</title>
<path fill="none" stroke="midnightblue" d="M792.06,-112.44C825.6,-103.2 879.2,-88.44 916.14,-78.26"/>
<polygon fill="midnightblue" stroke="midnightblue" points="917.38,-81.55 926.09,-75.52 915.52,-74.8 917.38,-81.55"/>
</g>
<!-- Node17 -->
<g id="node17" class="node">
<title>Node17</title>
<g id="a_node17"><a xlink:title=" ">
<polygon fill="white" stroke="#bfbfbf" points="1017,-56.5 1017,-75.5 1085,-75.5 1085,-56.5 1017,-56.5"/>
<text text-anchor="middle" x="1051" y="-63.5" font-family="Helvetica,sans-Serif" font-size="10.00">sys/time.h</text>
</a>
</g>
</g>
<!-- Node12&#45;&gt;Node17 -->
<g id="edge19" class="edge">
<title>Node12&#45;&gt;Node17</title>
<path fill="none" stroke="midnightblue" d="M809.81,-112.49C857.54,-104.09 932.55,-90.65 1006.76,-76.2"/>
<polygon fill="midnightblue" stroke="midnightblue" points="1007.61,-79.61 1016.75,-74.25 1006.26,-72.74 1007.61,-79.61"/>
</g>
<!-- Node14 -->
<g id="node14" class="node">
<title>Node14</title>
<g id="a_node14"><a xlink:title=" ">
<polygon fill="white" stroke="#bfbfbf" points="788,-0.5 788,-19.5 838,-19.5 838,-0.5 788,-0.5"/>
<text text-anchor="middle" x="813" y="-7.5" font-family="Helvetica,sans-Serif" font-size="10.00">stdio.h</text>
</a>
</g>
</g>
<!-- Node13&#45;&gt;Node14 -->
<g id="edge15" class="edge">
<title>Node13&#45;&gt;Node14</title>
<path fill="none" stroke="midnightblue" d="M841.39,-56.08C836.63,-48.53 829.68,-37.49 823.85,-28.23"/>
<polygon fill="midnightblue" stroke="midnightblue" points="826.8,-26.35 818.51,-19.75 820.88,-30.08 826.8,-26.35"/>
</g>
<!-- Node15 -->
<g id="node15" class="node">
<title>Node15</title>
<g id="a_node15"><a xlink:title=" ">
<polygon fill="white" stroke="#bfbfbf" points="856,-0.5 856,-19.5 904,-19.5 904,-0.5 856,-0.5"/>
<text text-anchor="middle" x="880" y="-7.5" font-family="Helvetica,sans-Serif" font-size="10.00">time.h</text>
</a>
</g>
</g>
<!-- Node13&#45;&gt;Node15 -->
<g id="edge16" class="edge">
<title>Node13&#45;&gt;Node15</title>
<path fill="none" stroke="midnightblue" d="M852.45,-56.08C857.01,-48.61 863.67,-37.72 869.29,-28.52"/>
<polygon fill="midnightblue" stroke="midnightblue" points="872.42,-30.11 874.65,-19.75 866.45,-26.46 872.42,-30.11"/>
</g>
<!-- Node27&#45;&gt;Node4 -->
<g id="edge30" class="edge">
<title>Node27&#45;&gt;Node4</title>
<path fill="none" stroke="midnightblue" d="M408.94,-112.44C375.4,-103.2 321.8,-88.44 284.86,-78.26"/>
<polygon fill="midnightblue" stroke="midnightblue" points="285.48,-74.8 274.91,-75.52 283.62,-81.55 285.48,-74.8"/>
</g>
<!-- Node27&#45;&gt;Node5 -->
<g id="edge31" class="edge">
<title>Node27&#45;&gt;Node5</title>
<path fill="none" stroke="midnightblue" d="M440,-112.08C440,-105.01 440,-94.86 440,-85.99"/>
<polygon fill="midnightblue" stroke="midnightblue" points="443.5,-85.75 440,-75.75 436.5,-85.75 443.5,-85.75"/>
</g>
<!-- Node27&#45;&gt;Node6 -->
<g id="edge32" class="edge">
<title>Node27&#45;&gt;Node6</title>
<path fill="none" stroke="midnightblue" d="M425.06,-112.32C410.41,-103.82 387.87,-90.73 370.76,-80.8"/>
<polygon fill="midnightblue" stroke="midnightblue" points="372.31,-77.65 361.9,-75.65 368.8,-83.7 372.31,-77.65"/>
</g>
</g>
</svg>
