<?xml version="1.0" encoding="UTF-8" standalone="no"?>
<!DOCTYPE svg PUBLIC "-//W3C//DTD SVG 1.1//EN"
 "http://www.w3.org/Graphics/SVG/1.1/DTD/svg11.dtd">
<!-- Generated by graphviz version 2.43.0 (0)
 -->
<!-- Title: /home/runner/work/OMSim/OMSim/effective_area/src/OMSimRunAction.cc Pages: 1 -->
<svg width="1384pt" height="218pt"
 viewBox="0.00 0.00 1383.50 218.00" xmlns="http://www.w3.org/2000/svg" xmlns:xlink="http://www.w3.org/1999/xlink">
<g id="graph0" class="graph" transform="scale(1 1) rotate(0) translate(4 214)">
<title>/home/runner/work/OMSim/OMSim/effective_area/src/OMSimRunAction.cc</title>
<polygon fill="white" stroke="transparent" points="-4,4 -4,-214 1379.5,-214 1379.5,4 -4,4"/>
<!-- Node1 -->
<g id="node1" class="node">
<title>Node1</title>
<g id="a_node1"><a xlink:title=" ">
<polygon fill="#bfbfbf" stroke="black" points="983,-168.5 983,-209.5 1130,-209.5 1130,-168.5 983,-168.5"/>
<text text-anchor="start" x="991" y="-197.5" font-family="Helvetica,sans-Serif" font-size="10.00">/home/runner/work/OMSim</text>
<text text-anchor="start" x="991" y="-186.5" font-family="Helvetica,sans-Serif" font-size="10.00">/OMSim/effective_area</text>
<text text-anchor="middle" x="1056.5" y="-175.5" font-family="Helvetica,sans-Serif" font-size="10.00">/src/OMSimRunAction.cc</text>
</a>
</g>
</g>
<!-- Node2 -->
<g id="node2" class="node">
<title>Node2</title>
<g id="a_node2"><a xlink:href="_o_m_sim_run_action_8hh.html" target="_top" xlink:title=" ">
<polygon fill="white" stroke="black" points="654.5,-112.5 654.5,-131.5 770.5,-131.5 770.5,-112.5 654.5,-112.5"/>
<text text-anchor="middle" x="712.5" y="-119.5" font-family="Helvetica,sans-Serif" font-size="10.00">OMSimRunAction.hh</text>
</a>
</g>
</g>
<!-- Node1&#45;&gt;Node2 -->
<g id="edge1" class="edge">
<title>Node1&#45;&gt;Node2</title>
<path fill="none" stroke="midnightblue" d="M982.7,-174.06C918.27,-161.88 826.17,-144.48 767.87,-133.46"/>
<polygon fill="midnightblue" stroke="midnightblue" points="768.23,-129.97 757.75,-131.55 766.93,-136.85 768.23,-129.97"/>
</g>
<!-- Node5 -->
<g id="node5" class="node">
<title>Node5</title>
<g id="a_node5"><a xlink:title=" ">
<polygon fill="white" stroke="#bfbfbf" points="973.5,-112.5 973.5,-131.5 1037.5,-131.5 1037.5,-112.5 973.5,-112.5"/>
<text text-anchor="middle" x="1005.5" y="-119.5" font-family="Helvetica,sans-Serif" font-size="10.00">G4Run.hh</text>
</a>
</g>
</g>
<!-- Node1&#45;&gt;Node5 -->
<g id="edge4" class="edge">
<title>Node1&#45;&gt;Node5</title>
<path fill="none" stroke="midnightblue" d="M1041.2,-168.5C1033.98,-159.3 1025.46,-148.44 1018.55,-139.63"/>
<polygon fill="midnightblue" stroke="midnightblue" points="1021.22,-137.36 1012.29,-131.65 1015.71,-141.68 1021.22,-137.36"/>
</g>
<!-- Node6 -->
<g id="node6" class="node">
<title>Node6</title>
<g id="a_node6"><a xlink:title=" ">
<polygon fill="white" stroke="#bfbfbf" points="1055.5,-112.5 1055.5,-131.5 1161.5,-131.5 1161.5,-112.5 1055.5,-112.5"/>
<text text-anchor="middle" x="1108.5" y="-119.5" font-family="Helvetica,sans-Serif" font-size="10.00">G4RunManager.hh</text>
</a>
</g>
</g>
<!-- Node1&#45;&gt;Node6 -->
<g id="edge5" class="edge">
<title>Node1&#45;&gt;Node6</title>
<path fill="none" stroke="midnightblue" d="M1072.1,-168.5C1079.46,-159.3 1088.15,-148.44 1095.19,-139.63"/>
<polygon fill="midnightblue" stroke="midnightblue" points="1098.06,-141.65 1101.58,-131.65 1092.6,-137.27 1098.06,-141.65"/>
</g>
<!-- Node7 -->
<g id="node7" class="node">
<title>Node7</title>
<g id="a_node7"><a xlink:title=" ">
<polygon fill="white" stroke="#bfbfbf" points="1179.5,-112.5 1179.5,-131.5 1223.5,-131.5 1223.5,-112.5 1179.5,-112.5"/>
<text text-anchor="middle" x="1201.5" y="-119.5" font-family="Helvetica,sans-Serif" font-size="10.00">ctime</text>
</a>
</g>
</g>
<!-- Node1&#45;&gt;Node7 -->
<g id="edge6" class="edge">
<title>Node1&#45;&gt;Node7</title>
<path fill="none" stroke="midnightblue" d="M1100,-168.5C1123.63,-157.91 1152.16,-145.12 1172.95,-135.8"/>
<polygon fill="midnightblue" stroke="midnightblue" points="1174.5,-138.94 1182.2,-131.65 1171.64,-132.55 1174.5,-138.94"/>
</g>
<!-- Node8 -->
<g id="node8" class="node">
<title>Node8</title>
<g id="a_node8"><a xlink:title=" ">
<polygon fill="white" stroke="#bfbfbf" points="1241.5,-112.5 1241.5,-131.5 1309.5,-131.5 1309.5,-112.5 1241.5,-112.5"/>
<text text-anchor="middle" x="1275.5" y="-119.5" font-family="Helvetica,sans-Serif" font-size="10.00">sys/time.h</text>
</a>
</g>
</g>
<!-- Node1&#45;&gt;Node8 -->
<g id="edge7" class="edge">
<title>Node1&#45;&gt;Node8</title>
<path fill="none" stroke="midnightblue" d="M1122.21,-168.5C1159.61,-157.4 1205.18,-143.87 1236.86,-134.47"/>
<polygon fill="midnightblue" stroke="midnightblue" points="1238.04,-137.77 1246.64,-131.57 1236.05,-131.06 1238.04,-137.77"/>
</g>
<!-- Node9 -->
<g id="node9" class="node">
<title>Node9</title>
<g id="a_node9"><a xlink:href="_o_m_sim_analysis_manager_8hh.html" target="_top" xlink:title=" ">
<polygon fill="white" stroke="black" points="194.5,-112.5 194.5,-131.5 344.5,-131.5 344.5,-112.5 194.5,-112.5"/>
<text text-anchor="middle" x="269.5" y="-119.5" font-family="Helvetica,sans-Serif" font-size="10.00">OMSimAnalysisManager.hh</text>
</a>
</g>
</g>
<!-- Node1&#45;&gt;Node9 -->
<g id="edge8" class="edge">
<title>Node1&#45;&gt;Node9</title>
<path fill="none" stroke="midnightblue" d="M982.81,-181.91C836.43,-169.82 509.76,-142.84 354.55,-130.02"/>
<polygon fill="midnightblue" stroke="midnightblue" points="354.83,-126.54 344.58,-129.2 354.25,-133.51 354.83,-126.54"/>
</g>
<!-- Node22 -->
<g id="node22" class="node">
<title>Node22</title>
<g id="a_node22"><a xlink:title=" ">
<polygon fill="white" stroke="#bfbfbf" points="1327.5,-112.5 1327.5,-131.5 1375.5,-131.5 1375.5,-112.5 1327.5,-112.5"/>
<text text-anchor="middle" x="1351.5" y="-119.5" font-family="Helvetica,sans-Serif" font-size="10.00">time.h</text>
</a>
</g>
</g>
<!-- Node1&#45;&gt;Node22 -->
<g id="edge22" class="edge">
<title>Node1&#45;&gt;Node22</title>
<path fill="none" stroke="midnightblue" d="M1130.16,-173.4C1180.43,-163.17 1248.76,-148.74 1317.66,-132.1"/>
<polygon fill="midnightblue" stroke="midnightblue" points="1318.5,-135.5 1327.39,-129.74 1316.85,-128.7 1318.5,-135.5"/>
</g>
<!-- Node23 -->
<g id="node23" class="node">
<title>Node23</title>
<g id="a_node23"><a xlink:href="_o_m_sim_command_args_table_8hh.html" target="_top" xlink:title=" ">
<polygon fill="white" stroke="black" points="791.5,-112.5 791.5,-131.5 955.5,-131.5 955.5,-112.5 791.5,-112.5"/>
<text text-anchor="middle" x="873.5" y="-119.5" font-family="Helvetica,sans-Serif" font-size="10.00">OMSimCommandArgsTable.hh</text>
</a>
</g>
</g>
<!-- Node1&#45;&gt;Node23 -->
<g id="edge23" class="edge">
<title>Node1&#45;&gt;Node23</title>
<path fill="none" stroke="midnightblue" d="M1001.59,-168.5C970.97,-157.62 933.81,-144.42 907.41,-135.05"/>
<polygon fill="midnightblue" stroke="midnightblue" points="908.45,-131.7 897.86,-131.65 906.11,-138.3 908.45,-131.7"/>
</g>
<!-- Node3 -->
<g id="node3" class="node">
<title>Node3</title>
<g id="a_node3"><a xlink:title=" ">
<polygon fill="white" stroke="#bfbfbf" points="544,-56.5 544,-75.5 661,-75.5 661,-56.5 544,-56.5"/>
<text text-anchor="middle" x="602.5" y="-63.5" font-family="Helvetica,sans-Serif" font-size="10.00">G4UserRunAction.hh</text>
</a>
</g>
</g>
<!-- Node2&#45;&gt;Node3 -->
<g id="edge2" class="edge">
<title>Node2&#45;&gt;Node3</title>
<path fill="none" stroke="midnightblue" d="M694.83,-112.32C677.11,-103.62 649.6,-90.12 629.21,-80.11"/>
<polygon fill="midnightblue" stroke="midnightblue" points="630.65,-76.92 620.13,-75.65 627.56,-83.2 630.65,-76.92"/>
</g>
<!-- Node4 -->
<g id="node4" class="node">
<title>Node4</title>
<g id="a_node4"><a xlink:title=" ">
<polygon fill="white" stroke="#bfbfbf" points="679,-56.5 679,-75.5 746,-75.5 746,-56.5 679,-56.5"/>
<text text-anchor="middle" x="712.5" y="-63.5" font-family="Helvetica,sans-Serif" font-size="10.00">globals.hh</text>
</a>
</g>
</g>
<!-- Node2&#45;&gt;Node4 -->
<g id="edge3" class="edge">
<title>Node2&#45;&gt;Node4</title>
<path fill="none" stroke="midnightblue" d="M712.5,-112.08C712.5,-105.01 712.5,-94.86 712.5,-85.99"/>
<polygon fill="midnightblue" stroke="midnightblue" points="716,-85.75 712.5,-75.75 709,-85.75 716,-85.75"/>
</g>
<!-- Node10 -->
<g id="node10" class="node">
<title>Node10</title>
<g id="a_node10"><a xlink:title=" ">
<polygon fill="white" stroke="#bfbfbf" points="105,-0.5 105,-19.5 178,-19.5 178,-0.5 105,-0.5"/>
<text text-anchor="middle" x="141.5" y="-7.5" font-family="Helvetica,sans-Serif" font-size="10.00">G4Types.hh</text>
</a>
</g>
</g>
<!-- Node9&#45;&gt;Node10 -->
<g id="edge9" class="edge">
<title>Node9&#45;&gt;Node10</title>
<path fill="none" stroke="midnightblue" d="M269.27,-112.29C268.45,-98.63 264.96,-72.09 250.5,-56 240.54,-44.91 206.64,-31.88 179.26,-22.7"/>
<polygon fill="midnightblue" stroke="midnightblue" points="180.12,-19.3 169.53,-19.5 177.94,-25.95 180.12,-19.3"/>
</g>
<!-- Node11 -->
<g id="node11" class="node">
<title>Node11</title>
<g id="a_node11"><a xlink:title=" ">
<polygon fill="white" stroke="#bfbfbf" points="451.5,-56.5 451.5,-75.5 525.5,-75.5 525.5,-56.5 451.5,-56.5"/>
<text text-anchor="middle" x="488.5" y="-63.5" font-family="Helvetica,sans-Serif" font-size="10.00">G4String.hh</text>
</a>
</g>
</g>
<!-- Node9&#45;&gt;Node11 -->
<g id="edge10" class="edge">
<title>Node9&#45;&gt;Node11</title>
<path fill="none" stroke="midnightblue" d="M304.2,-112.44C342.08,-103.1 402.85,-88.12 444.16,-77.93"/>
<polygon fill="midnightblue" stroke="midnightblue" points="445.09,-81.31 453.96,-75.52 443.41,-74.51 445.09,-81.31"/>
</g>
<!-- Node12 -->
<g id="node12" class="node">
<title>Node12</title>
<g id="a_node12"><a xlink:title=" ">
<polygon fill="white" stroke="#bfbfbf" points="0,-56.5 0,-75.5 103,-75.5 103,-56.5 0,-56.5"/>
<text text-anchor="middle" x="51.5" y="-63.5" font-family="Helvetica,sans-Serif" font-size="10.00">G4ThreeVector.hh</text>
</a>
</g>
</g>
<!-- Node9&#45;&gt;Node12 -->
<g id="edge11" class="edge">
<title>Node9&#45;&gt;Node12</title>
<path fill="none" stroke="midnightblue" d="M234.96,-112.44C197.25,-103.1 136.76,-88.12 95.64,-77.93"/>
<polygon fill="midnightblue" stroke="midnightblue" points="96.43,-74.52 85.88,-75.52 94.75,-81.32 96.43,-74.52"/>
</g>
<!-- Node13 -->
<g id="node13" class="node">
<title>Node13</title>
<g id="a_node13"><a xlink:href="_o_m_sim_p_m_t_response_8hh.html" target="_top" xlink:title=" ">
<polygon fill="white" stroke="black" points="298,-56.5 298,-75.5 433,-75.5 433,-56.5 298,-56.5"/>
<text text-anchor="middle" x="365.5" y="-63.5" font-family="Helvetica,sans-Serif" font-size="10.00">OMSimPMTResponse.hh</text>
</a>
</g>
</g>
<!-- Node9&#45;&gt;Node13 -->
<g id="edge12" class="edge">
<title>Node9&#45;&gt;Node13</title>
<path fill="none" stroke="midnightblue" d="M284.92,-112.32C300.04,-103.82 323.32,-90.73 340.97,-80.8"/>
<polygon fill="midnightblue" stroke="midnightblue" points="343.11,-83.61 350.11,-75.65 339.68,-77.51 343.11,-83.61"/>
</g>
<!-- Node20 -->
<g id="node20" class="node">
<title>Node20</title>
<g id="a_node20"><a xlink:title=" ">
<polygon fill="white" stroke="#bfbfbf" points="121,-56.5 121,-75.5 168,-75.5 168,-56.5 121,-56.5"/>
<text text-anchor="middle" x="144.5" y="-63.5" font-family="Helvetica,sans-Serif" font-size="10.00">vector</text>
</a>
</g>
</g>
<!-- Node9&#45;&gt;Node20 -->
<g id="edge20" class="edge">
<title>Node9&#45;&gt;Node20</title>
<path fill="none" stroke="midnightblue" d="M249.69,-112.44C229.21,-103.6 197.02,-89.69 173.64,-79.59"/>
<polygon fill="midnightblue" stroke="midnightblue" points="174.78,-76.27 164.21,-75.52 172.01,-82.7 174.78,-76.27"/>
</g>
<!-- Node21 -->
<g id="node21" class="node">
<title>Node21</title>
<g id="a_node21"><a xlink:title=" ">
<polygon fill="white" stroke="#bfbfbf" points="186,-56.5 186,-75.5 241,-75.5 241,-56.5 186,-56.5"/>
<text text-anchor="middle" x="213.5" y="-63.5" font-family="Helvetica,sans-Serif" font-size="10.00">fstream</text>
</a>
</g>
</g>
<!-- Node9&#45;&gt;Node21 -->
<g id="edge21" class="edge">
<title>Node9&#45;&gt;Node21</title>
<path fill="none" stroke="midnightblue" d="M260.5,-112.32C252.31,-104.42 239.99,-92.55 230.03,-82.94"/>
<polygon fill="midnightblue" stroke="midnightblue" points="232.29,-80.26 222.66,-75.83 227.43,-85.29 232.29,-80.26"/>
</g>
<!-- Node13&#45;&gt;Node10 -->
<g id="edge14" class="edge">
<title>Node13&#45;&gt;Node10</title>
<path fill="none" stroke="midnightblue" d="M330.01,-56.44C291.18,-47.08 228.84,-32.06 186.58,-21.87"/>
<polygon fill="midnightblue" stroke="midnightblue" points="187.37,-18.46 176.83,-19.52 185.73,-25.26 187.37,-18.46"/>
</g>
<!-- Node14 -->
<g id="node14" class="node">
<title>Node14</title>
<g id="a_node14"><a xlink:title=" ">
<polygon fill="white" stroke="#bfbfbf" points="196,-0.5 196,-19.5 315,-19.5 315,-0.5 196,-0.5"/>
<text text-anchor="middle" x="255.5" y="-7.5" font-family="Helvetica,sans-Serif" font-size="10.00">G4SystemOfUnits.hh</text>
</a>
</g>
</g>
<!-- Node13&#45;&gt;Node14 -->
<g id="edge13" class="edge">
<title>Node13&#45;&gt;Node14</title>
<path fill="none" stroke="midnightblue" d="M347.83,-56.32C330.11,-47.62 302.6,-34.12 282.21,-24.11"/>
<polygon fill="midnightblue" stroke="midnightblue" points="283.65,-20.92 273.13,-19.65 280.56,-27.2 283.65,-20.92"/>
</g>
<!-- Node15 -->
<g id="node15" class="node">
<title>Node15</title>
<g id="a_node15"><a xlink:title=" ">
<polygon fill="white" stroke="#bfbfbf" points="333,-0.5 333,-19.5 398,-19.5 398,-0.5 333,-0.5"/>
<text text-anchor="middle" x="365.5" y="-7.5" font-family="Helvetica,sans-Serif" font-size="10.00">functional</text>
</a>
</g>
</g>
<!-- Node13&#45;&gt;Node15 -->
<g id="edge15" class="edge">
<title>Node13&#45;&gt;Node15</title>
<path fill="none" stroke="midnightblue" d="M365.5,-56.08C365.5,-49.01 365.5,-38.86 365.5,-29.99"/>
<polygon fill="midnightblue" stroke="midnightblue" points="369,-29.75 365.5,-19.75 362,-29.75 369,-29.75"/>
</g>
<!-- Node16 -->
<g id="node16" class="node">
<title>Node16</title>
<g id="a_node16"><a xlink:title=" ">
<polygon fill="white" stroke="#bfbfbf" points="758.5,-0.5 758.5,-19.5 796.5,-19.5 796.5,-0.5 758.5,-0.5"/>
<text text-anchor="middle" x="777.5" y="-7.5" font-family="Helvetica,sans-Serif" font-size="10.00">map</text>
</a>
</g>
</g>
<!-- Node13&#45;&gt;Node16 -->
<g id="edge16" class="edge">
<title>Node13&#45;&gt;Node16</title>
<path fill="none" stroke="midnightblue" d="M430.78,-56.44C521.7,-44.53 682.67,-23.43 748.36,-14.82"/>
<polygon fill="midnightblue" stroke="midnightblue" points="748.95,-18.27 758.41,-13.5 748.04,-11.33 748.95,-18.27"/>
</g>
<!-- Node17 -->
<g id="node17" class="node">
<title>Node17</title>
<g id="a_node17"><a xlink:title=" ">
<polygon fill="white" stroke="#bfbfbf" points="416,-0.5 416,-19.5 477,-19.5 477,-0.5 416,-0.5"/>
<text text-anchor="middle" x="446.5" y="-7.5" font-family="Helvetica,sans-Serif" font-size="10.00">TGraph.h</text>
</a>
</g>
</g>
<!-- Node13&#45;&gt;Node17 -->
<g id="edge17" class="edge">
<title>Node13&#45;&gt;Node17</title>
<path fill="none" stroke="midnightblue" d="M378.51,-56.32C391.03,-47.98 410.18,-35.21 424.97,-25.35"/>
<polygon fill="midnightblue" stroke="midnightblue" points="427.14,-28.11 433.52,-19.65 423.26,-22.29 427.14,-28.11"/>
</g>
<!-- Node18 -->
<g id="node18" class="node">
<title>Node18</title>
<g id="a_node18"><a xlink:title=" ">
<polygon fill="white" stroke="#bfbfbf" points="495.5,-0.5 495.5,-19.5 569.5,-19.5 569.5,-0.5 495.5,-0.5"/>
<text text-anchor="middle" x="532.5" y="-7.5" font-family="Helvetica,sans-Serif" font-size="10.00">TGraph2D.h</text>
</a>
</g>
</g>
<!-- Node13&#45;&gt;Node18 -->
<g id="edge18" class="edge">
<title>Node13&#45;&gt;Node18</title>
<path fill="none" stroke="midnightblue" d="M391.96,-56.44C420.18,-47.32 465.04,-32.81 496.47,-22.65"/>
<polygon fill="midnightblue" stroke="midnightblue" points="497.72,-25.92 506.16,-19.52 495.57,-19.26 497.72,-25.92"/>
</g>
<!-- Node19 -->
<g id="node19" class="node">
<title>Node19</title>
<g id="a_node19"><a xlink:title=" ">
<polygon fill="white" stroke="#bfbfbf" points="588,-0.5 588,-19.5 641,-19.5 641,-0.5 588,-0.5"/>
<text text-anchor="middle" x="614.5" y="-7.5" font-family="Helvetica,sans-Serif" font-size="10.00">TH2D.h</text>
</a>
</g>
</g>
<!-- Node13&#45;&gt;Node19 -->
<g id="edge19" class="edge">
<title>Node13&#45;&gt;Node19</title>
<path fill="none" stroke="midnightblue" d="M408.03,-56.49C449,-48.19 512.95,-34.96 577.8,-20.09"/>
<polygon fill="midnightblue" stroke="midnightblue" points="578.83,-23.45 587.79,-17.79 577.26,-16.63 578.83,-23.45"/>
</g>
<!-- Node23&#45;&gt;Node4 -->
<g id="edge28" class="edge">
<title>Node23&#45;&gt;Node4</title>
<path fill="none" stroke="midnightblue" d="M847.99,-112.44C820.9,-103.36 777.91,-88.94 747.63,-78.78"/>
<polygon fill="midnightblue" stroke="midnightblue" points="748.49,-75.38 737.89,-75.52 746.26,-82.01 748.49,-75.38"/>
</g>
<!-- Node23&#45;&gt;Node16 -->
<g id="edge24" class="edge">
<title>Node23&#45;&gt;Node16</title>
<path fill="none" stroke="midnightblue" d="M873.47,-112.07C872.99,-98.59 870.3,-72.84 857.5,-56 844.68,-39.14 823.61,-27.65 806.31,-20.51"/>
<polygon fill="midnightblue" stroke="midnightblue" points="807.24,-17.12 796.65,-16.8 804.73,-23.65 807.24,-17.12"/>
</g>
<!-- Node24 -->
<g id="node24" class="node">
<title>Node24</title>
<g id="a_node24"><a xlink:title=" ">
<polygon fill="white" stroke="#bfbfbf" points="905,-56.5 905,-75.5 956,-75.5 956,-56.5 905,-56.5"/>
<text text-anchor="middle" x="930.5" y="-63.5" font-family="Helvetica,sans-Serif" font-size="10.00">variant</text>
</a>
</g>
</g>
<!-- Node23&#45;&gt;Node24 -->
<g id="edge25" class="edge">
<title>Node23&#45;&gt;Node24</title>
<path fill="none" stroke="midnightblue" d="M882.66,-112.32C891,-104.42 903.53,-92.55 913.68,-82.94"/>
<polygon fill="midnightblue" stroke="midnightblue" points="916.32,-85.25 921.18,-75.83 911.51,-80.17 916.32,-85.25"/>
</g>
<!-- Node25 -->
<g id="node25" class="node">
<title>Node25</title>
<g id="a_node25"><a xlink:title=" ">
<polygon fill="white" stroke="#bfbfbf" points="974.5,-56.5 974.5,-75.5 1018.5,-75.5 1018.5,-56.5 974.5,-56.5"/>
<text text-anchor="middle" x="996.5" y="-63.5" font-family="Helvetica,sans-Serif" font-size="10.00">string</text>
</a>
</g>
</g>
<!-- Node23&#45;&gt;Node25 -->
<g id="edge26" class="edge">
<title>Node23&#45;&gt;Node25</title>
<path fill="none" stroke="midnightblue" d="M892.99,-112.44C913.14,-103.6 944.82,-89.69 967.83,-79.59"/>
<polygon fill="midnightblue" stroke="midnightblue" points="969.35,-82.74 977.1,-75.52 966.54,-76.33 969.35,-82.74"/>
</g>
<!-- Node26 -->
<g id="node26" class="node">
<title>Node26</title>
<g id="a_node26"><a xlink:title=" ">
<polygon fill="white" stroke="#bfbfbf" points="1037,-56.5 1037,-75.5 1102,-75.5 1102,-56.5 1037,-56.5"/>
<text text-anchor="middle" x="1069.5" y="-63.5" font-family="Helvetica,sans-Serif" font-size="10.00">stdexcept</text>
</a>
</g>
</g>
<!-- Node23&#45;&gt;Node26 -->
<g id="edge27" class="edge">
<title>Node23&#45;&gt;Node26</title>
<path fill="none" stroke="midnightblue" d="M904.56,-112.44C938.1,-103.2 991.7,-88.44 1028.64,-78.26"/>
<polygon fill="midnightblue" stroke="midnightblue" points="1029.88,-81.55 1038.59,-75.52 1028.02,-74.8 1029.88,-81.55"/>
</g>
<!-- Node27 -->
<g id="node27" class="node">
<title>Node27</title>
<g id="a_node27"><a xlink:title=" ">
<polygon fill="white" stroke="#bfbfbf" points="764.5,-56.5 764.5,-75.5 848.5,-75.5 848.5,-56.5 764.5,-56.5"/>
<text text-anchor="middle" x="806.5" y="-63.5" font-family="Helvetica,sans-Serif" font-size="10.00">boost/any.hpp</text>
</a>
</g>
</g>
<!-- Node23&#45;&gt;Node27 -->
<g id="edge29" class="edge">
<title>Node23&#45;&gt;Node27</title>
<path fill="none" stroke="midnightblue" d="M862.74,-112.32C852.73,-104.26 837.61,-92.08 825.57,-82.37"/>
<polygon fill="midnightblue" stroke="midnightblue" points="827.44,-79.38 817.46,-75.83 823.05,-84.83 827.44,-79.38"/>
</g>
</g>
</svg>
