<?xml version="1.0" encoding="UTF-8" standalone="no"?>
<!DOCTYPE svg PUBLIC "-//W3C//DTD SVG 1.1//EN"
 "http://www.w3.org/Graphics/SVG/1.1/DTD/svg11.dtd">
<!-- Generated by graphviz version 2.43.0 (0)
 -->
<!-- Title: /home/runner/work/OMSim/OMSim/effective_area/include/OMSimAnalysisManager.hh Pages: 1 -->
<svg width="605pt" height="162pt"
 viewBox="0.00 0.00 605.00 162.00" xmlns="http://www.w3.org/2000/svg" xmlns:xlink="http://www.w3.org/1999/xlink">
<g id="graph0" class="graph" transform="scale(1 1) rotate(0) translate(4 158)">
<title>/home/runner/work/OMSim/OMSim/effective_area/include/OMSimAnalysisManager.hh</title>
<polygon fill="white" stroke="transparent" points="-4,4 -4,-158 601,-158 601,4 -4,4"/>
<!-- Node1 -->
<g id="node1" class="node">
<title>Node1</title>
<g id="a_node1"><a xlink:title=" ">
<polygon fill="#bfbfbf" stroke="black" points="174,-112.5 174,-153.5 365,-153.5 365,-112.5 174,-112.5"/>
<text text-anchor="start" x="182" y="-141.5" font-family="Helvetica,sans-Serif" font-size="10.00">/home/runner/work/OMSim</text>
<text text-anchor="start" x="182" y="-130.5" font-family="Helvetica,sans-Serif" font-size="10.00">/OMSim/effective_area</text>
<text text-anchor="middle" x="269.5" y="-119.5" font-family="Helvetica,sans-Serif" font-size="10.00">/include/OMSimAnalysisManager.hh</text>
</a>
</g>
</g>
<!-- Node2 -->
<g id="node2" class="node">
<title>Node2</title>
<g id="a_node2"><a xlink:title=" ">
<polygon fill="white" stroke="#bfbfbf" points="0,-0.5 0,-19.5 73,-19.5 73,-0.5 0,-0.5"/>
<text text-anchor="middle" x="36.5" y="-7.5" font-family="Helvetica,sans-Serif" font-size="10.00">G4Types.hh</text>
</a>
</g>
</g>
<!-- Node1&#45;&gt;Node2 -->
<g id="edge1" class="edge">
<title>Node1&#45;&gt;Node2</title>
<path fill="none" stroke="midnightblue" d="M173.77,-118.2C122.37,-108.82 66.02,-94.71 48.5,-76 37.11,-63.84 34.78,-44.56 34.9,-30.16"/>
<polygon fill="midnightblue" stroke="midnightblue" points="38.41,-30.03 35.39,-19.88 31.42,-29.7 38.41,-30.03"/>
</g>
<!-- Node3 -->
<g id="node3" class="node">
<title>Node3</title>
<g id="a_node3"><a xlink:title=" ">
<polygon fill="white" stroke="#bfbfbf" points="57.5,-56.5 57.5,-75.5 131.5,-75.5 131.5,-56.5 57.5,-56.5"/>
<text text-anchor="middle" x="94.5" y="-63.5" font-family="Helvetica,sans-Serif" font-size="10.00">G4String.hh</text>
</a>
</g>
</g>
<!-- Node1&#45;&gt;Node3 -->
<g id="edge2" class="edge">
<title>Node1&#45;&gt;Node3</title>
<path fill="none" stroke="midnightblue" d="M216.99,-112.5C187.84,-101.67 152.48,-88.54 127.26,-79.17"/>
<polygon fill="midnightblue" stroke="midnightblue" points="128.39,-75.85 117.8,-75.65 125.95,-82.42 128.39,-75.85"/>
</g>
<!-- Node4 -->
<g id="node4" class="node">
<title>Node4</title>
<g id="a_node4"><a xlink:title=" ">
<polygon fill="white" stroke="#bfbfbf" points="150,-56.5 150,-75.5 253,-75.5 253,-56.5 150,-56.5"/>
<text text-anchor="middle" x="201.5" y="-63.5" font-family="Helvetica,sans-Serif" font-size="10.00">G4ThreeVector.hh</text>
</a>
</g>
</g>
<!-- Node1&#45;&gt;Node4 -->
<g id="edge3" class="edge">
<title>Node1&#45;&gt;Node4</title>
<path fill="none" stroke="midnightblue" d="M249.1,-112.5C239.17,-103.01 227.4,-91.76 218.04,-82.81"/>
<polygon fill="midnightblue" stroke="midnightblue" points="220.2,-80.03 210.55,-75.65 215.36,-85.09 220.2,-80.03"/>
</g>
<!-- Node5 -->
<g id="node5" class="node">
<title>Node5</title>
<g id="a_node5"><a xlink:href="_o_m_sim_p_m_t_response_8hh.html" target="_top" xlink:title=" ">
<polygon fill="white" stroke="black" points="271,-56.5 271,-75.5 406,-75.5 406,-56.5 271,-56.5"/>
<text text-anchor="middle" x="338.5" y="-63.5" font-family="Helvetica,sans-Serif" font-size="10.00">OMSimPMTResponse.hh</text>
</a>
</g>
</g>
<!-- Node1&#45;&gt;Node5 -->
<g id="edge4" class="edge">
<title>Node1&#45;&gt;Node5</title>
<path fill="none" stroke="midnightblue" d="M290.2,-112.5C300.37,-102.92 312.46,-91.53 322,-82.54"/>
<polygon fill="midnightblue" stroke="midnightblue" points="324.44,-85.06 329.32,-75.65 319.64,-79.96 324.44,-85.06"/>
</g>
<!-- Node12 -->
<g id="node12" class="node">
<title>Node12</title>
<g id="a_node12"><a xlink:title=" ">
<polygon fill="white" stroke="#bfbfbf" points="424,-56.5 424,-75.5 471,-75.5 471,-56.5 424,-56.5"/>
<text text-anchor="middle" x="447.5" y="-63.5" font-family="Helvetica,sans-Serif" font-size="10.00">vector</text>
</a>
</g>
</g>
<!-- Node1&#45;&gt;Node12 -->
<g id="edge12" class="edge">
<title>Node1&#45;&gt;Node12</title>
<path fill="none" stroke="midnightblue" d="M322.91,-112.5C352.56,-101.67 388.52,-88.54 414.17,-79.17"/>
<polygon fill="midnightblue" stroke="midnightblue" points="415.61,-82.37 423.81,-75.65 413.21,-75.8 415.61,-82.37"/>
</g>
<!-- Node13 -->
<g id="node13" class="node">
<title>Node13</title>
<g id="a_node13"><a xlink:title=" ">
<polygon fill="white" stroke="#bfbfbf" points="489,-56.5 489,-75.5 544,-75.5 544,-56.5 489,-56.5"/>
<text text-anchor="middle" x="516.5" y="-63.5" font-family="Helvetica,sans-Serif" font-size="10.00">fstream</text>
</a>
</g>
</g>
<!-- Node1&#45;&gt;Node13 -->
<g id="edge13" class="edge">
<title>Node1&#45;&gt;Node13</title>
<path fill="none" stroke="midnightblue" d="M343.61,-112.5C388.23,-100.76 443.15,-86.3 478.95,-76.88"/>
<polygon fill="midnightblue" stroke="midnightblue" points="480.18,-80.18 488.96,-74.25 478.4,-73.41 480.18,-80.18"/>
</g>
<!-- Node5&#45;&gt;Node2 -->
<g id="edge6" class="edge">
<title>Node5&#45;&gt;Node2</title>
<path fill="none" stroke="midnightblue" d="M289.98,-56.45C239.04,-47.46 156.62,-32.86 85.5,-20 84.75,-19.86 83.99,-19.73 83.23,-19.59"/>
<polygon fill="midnightblue" stroke="midnightblue" points="83.62,-16.1 73.15,-17.76 82.36,-22.99 83.62,-16.1"/>
</g>
<!-- Node6 -->
<g id="node6" class="node">
<title>Node6</title>
<g id="a_node6"><a xlink:title=" ">
<polygon fill="white" stroke="#bfbfbf" points="95,-0.5 95,-19.5 214,-19.5 214,-0.5 95,-0.5"/>
<text text-anchor="middle" x="154.5" y="-7.5" font-family="Helvetica,sans-Serif" font-size="10.00">G4SystemOfUnits.hh</text>
</a>
</g>
</g>
<!-- Node5&#45;&gt;Node6 -->
<g id="edge5" class="edge">
<title>Node5&#45;&gt;Node6</title>
<path fill="none" stroke="midnightblue" d="M309.34,-56.44C277.99,-47.24 227.97,-32.56 193.3,-22.39"/>
<polygon fill="midnightblue" stroke="midnightblue" points="194.1,-18.97 183.52,-19.52 192.13,-25.69 194.1,-18.97"/>
</g>
<!-- Node7 -->
<g id="node7" class="node">
<title>Node7</title>
<g id="a_node7"><a xlink:title=" ">
<polygon fill="white" stroke="#bfbfbf" points="232,-0.5 232,-19.5 297,-19.5 297,-0.5 232,-0.5"/>
<text text-anchor="middle" x="264.5" y="-7.5" font-family="Helvetica,sans-Serif" font-size="10.00">functional</text>
</a>
</g>
</g>
<!-- Node5&#45;&gt;Node7 -->
<g id="edge7" class="edge">
<title>Node5&#45;&gt;Node7</title>
<path fill="none" stroke="midnightblue" d="M326.61,-56.32C315.35,-48.11 298.21,-35.6 284.79,-25.81"/>
<polygon fill="midnightblue" stroke="midnightblue" points="286.75,-22.9 276.61,-19.83 282.62,-28.56 286.75,-22.9"/>
</g>
<!-- Node8 -->
<g id="node8" class="node">
<title>Node8</title>
<g id="a_node8"><a xlink:title=" ">
<polygon fill="white" stroke="#bfbfbf" points="315.5,-0.5 315.5,-19.5 353.5,-19.5 353.5,-0.5 315.5,-0.5"/>
<text text-anchor="middle" x="334.5" y="-7.5" font-family="Helvetica,sans-Serif" font-size="10.00">map</text>
</a>
</g>
</g>
<!-- Node5&#45;&gt;Node8 -->
<g id="edge8" class="edge">
<title>Node5&#45;&gt;Node8</title>
<path fill="none" stroke="midnightblue" d="M337.84,-56.08C337.32,-49.01 336.56,-38.86 335.91,-29.99"/>
<polygon fill="midnightblue" stroke="midnightblue" points="339.38,-29.47 335.15,-19.75 332.4,-29.98 339.38,-29.47"/>
</g>
<!-- Node9 -->
<g id="node9" class="node">
<title>Node9</title>
<g id="a_node9"><a xlink:title=" ">
<polygon fill="white" stroke="#bfbfbf" points="372,-0.5 372,-19.5 433,-19.5 433,-0.5 372,-0.5"/>
<text text-anchor="middle" x="402.5" y="-7.5" font-family="Helvetica,sans-Serif" font-size="10.00">TGraph.h</text>
</a>
</g>
</g>
<!-- Node5&#45;&gt;Node9 -->
<g id="edge9" class="edge">
<title>Node5&#45;&gt;Node9</title>
<path fill="none" stroke="midnightblue" d="M348.78,-56.32C358.34,-48.26 372.78,-36.08 384.28,-26.37"/>
<polygon fill="midnightblue" stroke="midnightblue" points="386.64,-28.96 392.03,-19.83 382.13,-23.61 386.64,-28.96"/>
</g>
<!-- Node10 -->
<g id="node10" class="node">
<title>Node10</title>
<g id="a_node10"><a xlink:title=" ">
<polygon fill="white" stroke="#bfbfbf" points="451.5,-0.5 451.5,-19.5 525.5,-19.5 525.5,-0.5 451.5,-0.5"/>
<text text-anchor="middle" x="488.5" y="-7.5" font-family="Helvetica,sans-Serif" font-size="10.00">TGraph2D.h</text>
</a>
</g>
</g>
<!-- Node5&#45;&gt;Node10 -->
<g id="edge10" class="edge">
<title>Node5&#45;&gt;Node10</title>
<path fill="none" stroke="midnightblue" d="M362.27,-56.44C387.39,-47.4 427.21,-33.06 455.4,-22.92"/>
<polygon fill="midnightblue" stroke="midnightblue" points="456.62,-26.2 464.84,-19.52 454.25,-19.61 456.62,-26.2"/>
</g>
<!-- Node11 -->
<g id="node11" class="node">
<title>Node11</title>
<g id="a_node11"><a xlink:title=" ">
<polygon fill="white" stroke="#bfbfbf" points="544,-0.5 544,-19.5 597,-19.5 597,-0.5 544,-0.5"/>
<text text-anchor="middle" x="570.5" y="-7.5" font-family="Helvetica,sans-Serif" font-size="10.00">TH2D.h</text>
</a>
</g>
</g>
<!-- Node5&#45;&gt;Node11 -->
<g id="edge11" class="edge">
<title>Node5&#45;&gt;Node11</title>
<path fill="none" stroke="midnightblue" d="M376.86,-56.42C414.4,-47.98 473.46,-34.56 534.04,-20.07"/>
<polygon fill="midnightblue" stroke="midnightblue" points="534.87,-23.48 543.78,-17.74 533.24,-16.67 534.87,-23.48"/>
</g>
</g>
</svg>
