<?xml version="1.0" encoding="UTF-8" standalone="no"?>
<!DOCTYPE svg PUBLIC "-//W3C//DTD SVG 1.1//EN"
 "http://www.w3.org/Graphics/SVG/1.1/DTD/svg11.dtd">
<!-- Generated by graphviz version 2.43.0 (0)
 -->
<!-- Title: OMSim_supernova.cc Pages: 1 -->
<svg width="2436pt" height="308pt"
 viewBox="0.00 0.00 2436.38 308.00" xmlns="http://www.w3.org/2000/svg" xmlns:xlink="http://www.w3.org/1999/xlink">
<g id="graph0" class="graph" transform="scale(1 1) rotate(0) translate(4 304)">
<title>OMSim_supernova.cc</title>
<polygon fill="white" stroke="transparent" points="-4,4 -4,-304 2432.38,-304 2432.38,4 -4,4"/>
<!-- Node1 -->
<g id="node1" class="node">
<title>Node1</title>
<g id="a_node1"><a xlink:title=" ">
<polygon fill="#bfbfbf" stroke="black" points="1437.5,-280.5 1437.5,-299.5 1559.5,-299.5 1559.5,-280.5 1437.5,-280.5"/>
<text text-anchor="middle" x="1498.5" y="-287.5" font-family="Helvetica,sans-Serif" font-size="10.00">OMSim_supernova.cc</text>
</a>
</g>
</g>
<!-- Node2 -->
<g id="node2" class="node">
<title>Node2</title>
<g id="a_node2"><a xlink:href="_o_m_sim_8hh.html" target="_top" xlink:title="Main simulation class for the Optical Module (OM) simulation. This file defines the OMSim class,...">
<polygon fill="white" stroke="black" points="1006,-224.5 1006,-243.5 1073,-243.5 1073,-224.5 1006,-224.5"/>
<text text-anchor="middle" x="1039.5" y="-231.5" font-family="Helvetica,sans-Serif" font-size="10.00">OMSim.hh</text>
</a>
</g>
</g>
<!-- Node1&#45;&gt;Node2 -->
<g id="edge1" class="edge">
<title>Node1&#45;&gt;Node2</title>
<path fill="none" stroke="midnightblue" d="M1437.07,-281.77C1342.9,-270.69 1165.14,-249.78 1083.06,-240.12"/>
<polygon fill="midnightblue" stroke="midnightblue" points="1083.41,-236.64 1073.07,-238.95 1082.59,-243.59 1083.41,-236.64"/>
</g>
<!-- Node5 -->
<g id="node5" class="node">
<title>Node5</title>
<g id="a_node5"><a xlink:title=" ">
<polygon fill="white" stroke="#bfbfbf" points="0,-168.5 0,-187.5 185,-187.5 185,-168.5 0,-168.5"/>
<text text-anchor="middle" x="92.5" y="-175.5" font-family="Helvetica,sans-Serif" font-size="10.00">OMSimPrimaryGeneratorAction.hh</text>
</a>
</g>
</g>
<!-- Node1&#45;&gt;Node5 -->
<g id="edge32" class="edge">
<title>Node1&#45;&gt;Node5</title>
<path fill="none" stroke="midnightblue" d="M1437.33,-284.52C1252.03,-270.89 680.34,-228.46 195.24,-188.14"/>
<polygon fill="midnightblue" stroke="midnightblue" points="195.49,-184.65 185.23,-187.31 194.91,-191.62 195.49,-184.65"/>
</g>
<!-- Node26 -->
<g id="node26" class="node">
<title>Node26</title>
<g id="a_node26"><a xlink:href="_o_m_sim_s_n_analysis_8hh.html" target="_top" xlink:title=" ">
<polygon fill="white" stroke="black" points="2255.5,-224.5 2255.5,-243.5 2377.5,-243.5 2377.5,-224.5 2255.5,-224.5"/>
<text text-anchor="middle" x="2316.5" y="-231.5" font-family="Helvetica,sans-Serif" font-size="10.00">OMSimSNAnalysis.hh</text>
</a>
</g>
</g>
<!-- Node1&#45;&gt;Node26 -->
<g id="edge25" class="edge">
<title>Node1&#45;&gt;Node26</title>
<path fill="none" stroke="midnightblue" d="M1559.65,-284.96C1708.09,-275.16 2086.91,-250.16 2245.25,-239.7"/>
<polygon fill="midnightblue" stroke="midnightblue" points="2245.6,-243.19 2255.35,-239.04 2245.14,-236.2 2245.6,-243.19"/>
</g>
<!-- Node32 -->
<g id="node32" class="node">
<title>Node32</title>
<g id="a_node32"><a xlink:href="_o_m_sim_hit_manager_8hh.html" target="_top" xlink:title="Defines structures and classes related to optical module photon hit management.">
<polygon fill="white" stroke="black" points="1884,-224.5 1884,-243.5 2007,-243.5 2007,-224.5 1884,-224.5"/>
<text text-anchor="middle" x="1945.5" y="-231.5" font-family="Helvetica,sans-Serif" font-size="10.00">OMSimHitManager.hh</text>
</a>
</g>
</g>
<!-- Node1&#45;&gt;Node32 -->
<g id="edge33" class="edge">
<title>Node1&#45;&gt;Node32</title>
<path fill="none" stroke="midnightblue" d="M1559.72,-281.6C1641.71,-271.7 1786.93,-254.16 1873.9,-243.65"/>
<polygon fill="midnightblue" stroke="midnightblue" points="1874.44,-247.11 1883.95,-242.44 1873.6,-240.16 1874.44,-247.11"/>
</g>
<!-- Node3 -->
<g id="node3" class="node">
<title>Node3</title>
<g id="a_node3"><a xlink:title=" ">
<polygon fill="white" stroke="#bfbfbf" points="1425.5,-168.5 1425.5,-187.5 1595.5,-187.5 1595.5,-168.5 1425.5,-168.5"/>
<text text-anchor="middle" x="1510.5" y="-175.5" font-family="Helvetica,sans-Serif" font-size="10.00">OMSimDetectorConstruction.hh</text>
</a>
</g>
</g>
<!-- Node2&#45;&gt;Node3 -->
<g id="edge2" class="edge">
<title>Node2&#45;&gt;Node3</title>
<path fill="none" stroke="midnightblue" d="M1073.37,-229.12C1146.53,-220.73 1321.14,-200.71 1426.2,-188.66"/>
<polygon fill="midnightblue" stroke="midnightblue" points="1426.61,-192.14 1436.14,-187.52 1425.81,-185.19 1426.61,-192.14"/>
</g>
<!-- Node4 -->
<g id="node4" class="node">
<title>Node4</title>
<g id="a_node4"><a xlink:title=" ">
<polygon fill="white" stroke="#bfbfbf" points="1614,-168.5 1614,-187.5 1735,-187.5 1735,-168.5 1614,-168.5"/>
<text text-anchor="middle" x="1674.5" y="-175.5" font-family="Helvetica,sans-Serif" font-size="10.00">OMSimPhysicsList.hh</text>
</a>
</g>
</g>
<!-- Node2&#45;&gt;Node4 -->
<g id="edge3" class="edge">
<title>Node2&#45;&gt;Node4</title>
<path fill="none" stroke="midnightblue" d="M1073.3,-230.88C1159.66,-225.34 1395.6,-209.45 1603.62,-188.04"/>
<polygon fill="midnightblue" stroke="midnightblue" points="1604.23,-191.5 1613.81,-186.98 1603.51,-184.53 1604.23,-191.5"/>
</g>
<!-- Node2&#45;&gt;Node5 -->
<g id="edge4" class="edge">
<title>Node2&#45;&gt;Node5</title>
<path fill="none" stroke="midnightblue" d="M1005.62,-231.63C892.42,-226.97 516.74,-210.77 195.2,-188.1"/>
<polygon fill="midnightblue" stroke="midnightblue" points="195.45,-184.61 185.23,-187.39 194.96,-191.59 195.45,-184.61"/>
</g>
<!-- Node6 -->
<g id="node6" class="node">
<title>Node6</title>
<g id="a_node6"><a xlink:href="common_2framework_2include_2_o_m_sim_run_action_8hh.html" target="_top" xlink:title=" ">
<polygon fill="white" stroke="black" points="1753.5,-168.5 1753.5,-187.5 1869.5,-187.5 1869.5,-168.5 1753.5,-168.5"/>
<text text-anchor="middle" x="1811.5" y="-175.5" font-family="Helvetica,sans-Serif" font-size="10.00">OMSimRunAction.hh</text>
</a>
</g>
</g>
<!-- Node2&#45;&gt;Node6 -->
<g id="edge5" class="edge">
<title>Node2&#45;&gt;Node6</title>
<path fill="none" stroke="midnightblue" d="M1073.27,-231.65C1173.54,-227.49 1478.44,-213.57 1743.1,-187.96"/>
<polygon fill="midnightblue" stroke="midnightblue" points="1743.68,-191.42 1753.29,-186.97 1743,-184.46 1743.68,-191.42"/>
</g>
<!-- Node8 -->
<g id="node8" class="node">
<title>Node8</title>
<g id="a_node8"><a xlink:title=" ">
<polygon fill="white" stroke="#bfbfbf" points="203,-168.5 203,-187.5 328,-187.5 328,-168.5 203,-168.5"/>
<text text-anchor="middle" x="265.5" y="-175.5" font-family="Helvetica,sans-Serif" font-size="10.00">OMSimEventAction.hh</text>
</a>
</g>
</g>
<!-- Node2&#45;&gt;Node8 -->
<g id="edge7" class="edge">
<title>Node2&#45;&gt;Node8</title>
<path fill="none" stroke="midnightblue" d="M1005.83,-231.56C905.87,-227.15 601.89,-212.61 338.45,-188.03"/>
<polygon fill="midnightblue" stroke="midnightblue" points="338.59,-184.53 328.3,-187.08 337.93,-191.5 338.59,-184.53"/>
</g>
<!-- Node9 -->
<g id="node9" class="node">
<title>Node9</title>
<g id="a_node9"><a xlink:href="_o_m_sim_tracking_action_8hh.html" target="_top" xlink:title=" ">
<polygon fill="white" stroke="black" points="346.5,-168.5 346.5,-187.5 484.5,-187.5 484.5,-168.5 346.5,-168.5"/>
<text text-anchor="middle" x="415.5" y="-175.5" font-family="Helvetica,sans-Serif" font-size="10.00">OMSimTrackingAction.hh</text>
</a>
</g>
</g>
<!-- Node2&#45;&gt;Node9 -->
<g id="edge8" class="edge">
<title>Node2&#45;&gt;Node9</title>
<path fill="none" stroke="midnightblue" d="M1005.91,-230.62C921.78,-224.56 695,-207.73 494.92,-188.11"/>
<polygon fill="midnightblue" stroke="midnightblue" points="495.1,-184.61 484.81,-187.12 494.42,-191.58 495.1,-184.61"/>
</g>
<!-- Node11 -->
<g id="node11" class="node">
<title>Node11</title>
<g id="a_node11"><a xlink:title=" ">
<polygon fill="white" stroke="#bfbfbf" points="502.5,-168.5 502.5,-187.5 642.5,-187.5 642.5,-168.5 502.5,-168.5"/>
<text text-anchor="middle" x="572.5" y="-175.5" font-family="Helvetica,sans-Serif" font-size="10.00">OMSimSteppingAction.hh</text>
</a>
</g>
</g>
<!-- Node2&#45;&gt;Node11 -->
<g id="edge10" class="edge">
<title>Node2&#45;&gt;Node11</title>
<path fill="none" stroke="midnightblue" d="M1005.91,-229.12C932.65,-220.64 756.72,-200.3 652.93,-188.3"/>
<polygon fill="midnightblue" stroke="midnightblue" points="653.15,-184.8 642.81,-187.13 652.34,-191.76 653.15,-184.8"/>
</g>
<!-- Node12 -->
<g id="node12" class="node">
<title>Node12</title>
<g id="a_node12"><a xlink:href="_o_m_sim_u_iinterface_8hh.html" target="_top" xlink:title="The OMSimUIinterface class provides a singleton interface to Geant4&#39;s UI manager.">
<polygon fill="white" stroke="black" points="661,-168.5 661,-187.5 782,-187.5 782,-168.5 661,-168.5"/>
<text text-anchor="middle" x="721.5" y="-175.5" font-family="Helvetica,sans-Serif" font-size="10.00">OMSimUIinterface.hh</text>
</a>
</g>
</g>
<!-- Node2&#45;&gt;Node12 -->
<g id="edge11" class="edge">
<title>Node2&#45;&gt;Node12</title>
<path fill="none" stroke="midnightblue" d="M1005.77,-227.27C952.48,-218.22 848.06,-200.49 781.69,-189.22"/>
<polygon fill="midnightblue" stroke="midnightblue" points="782.23,-185.76 771.78,-187.54 781.06,-192.66 782.23,-185.76"/>
</g>
<!-- Node21 -->
<g id="node21" class="node">
<title>Node21</title>
<g id="a_node21"><a xlink:title=" ">
<polygon fill="white" stroke="#bfbfbf" points="800.5,-168.5 800.5,-187.5 906.5,-187.5 906.5,-168.5 800.5,-168.5"/>
<text text-anchor="middle" x="853.5" y="-175.5" font-family="Helvetica,sans-Serif" font-size="10.00">G4RunManager.hh</text>
</a>
</g>
</g>
<!-- Node2&#45;&gt;Node21 -->
<g id="edge20" class="edge">
<title>Node2&#45;&gt;Node21</title>
<path fill="none" stroke="midnightblue" d="M1010.03,-224.44C978.33,-215.24 927.77,-200.56 892.73,-190.39"/>
<polygon fill="midnightblue" stroke="midnightblue" points="893.41,-186.94 882.83,-187.52 891.46,-193.67 893.41,-186.94"/>
</g>
<!-- Node22 -->
<g id="node22" class="node">
<title>Node22</title>
<g id="a_node22"><a xlink:title=" ">
<polygon fill="white" stroke="#bfbfbf" points="925,-168.5 925,-187.5 1032,-187.5 1032,-168.5 925,-168.5"/>
<text text-anchor="middle" x="978.5" y="-175.5" font-family="Helvetica,sans-Serif" font-size="10.00">G4VisExecutive.hh</text>
</a>
</g>
</g>
<!-- Node2&#45;&gt;Node22 -->
<g id="edge21" class="edge">
<title>Node2&#45;&gt;Node22</title>
<path fill="none" stroke="midnightblue" d="M1029.7,-224.32C1020.68,-216.34 1007.09,-204.31 996.18,-194.65"/>
<polygon fill="midnightblue" stroke="midnightblue" points="998.29,-191.84 988.48,-187.83 993.65,-197.08 998.29,-191.84"/>
</g>
<!-- Node23 -->
<g id="node23" class="node">
<title>Node23</title>
<g id="a_node23"><a xlink:title=" ">
<polygon fill="white" stroke="#bfbfbf" points="1050,-168.5 1050,-187.5 1153,-187.5 1153,-168.5 1050,-168.5"/>
<text text-anchor="middle" x="1101.5" y="-175.5" font-family="Helvetica,sans-Serif" font-size="10.00">G4UIExecutive.hh</text>
</a>
</g>
</g>
<!-- Node2&#45;&gt;Node23 -->
<g id="edge22" class="edge">
<title>Node2&#45;&gt;Node23</title>
<path fill="none" stroke="midnightblue" d="M1049.46,-224.32C1058.63,-216.34 1072.44,-204.31 1083.53,-194.65"/>
<polygon fill="midnightblue" stroke="midnightblue" points="1086.12,-197.04 1091.36,-187.83 1081.52,-191.76 1086.12,-197.04"/>
</g>
<!-- Node24 -->
<g id="node24" class="node">
<title>Node24</title>
<g id="a_node24"><a xlink:title=" ">
<polygon fill="white" stroke="#bfbfbf" points="1171.5,-168.5 1171.5,-187.5 1239.5,-187.5 1239.5,-168.5 1171.5,-168.5"/>
<text text-anchor="middle" x="1205.5" y="-175.5" font-family="Helvetica,sans-Serif" font-size="10.00">filesystem</text>
</a>
</g>
</g>
<!-- Node2&#45;&gt;Node24 -->
<g id="edge23" class="edge">
<title>Node2&#45;&gt;Node24</title>
<path fill="none" stroke="midnightblue" d="M1065.8,-224.44C1093.85,-215.32 1138.44,-200.81 1169.68,-190.65"/>
<polygon fill="midnightblue" stroke="midnightblue" points="1170.89,-193.94 1179.32,-187.52 1168.73,-187.28 1170.89,-193.94"/>
</g>
<!-- Node25 -->
<g id="node25" class="node">
<title>Node25</title>
<g id="a_node25"><a xlink:title=" ">
<polygon fill="white" stroke="#bfbfbf" points="1257.5,-168.5 1257.5,-187.5 1407.5,-187.5 1407.5,-168.5 1257.5,-168.5"/>
<text text-anchor="middle" x="1332.5" y="-175.5" font-family="Helvetica,sans-Serif" font-size="10.00">boost/program_options.hpp</text>
</a>
</g>
</g>
<!-- Node2&#45;&gt;Node25 -->
<g id="edge24" class="edge">
<title>Node2&#45;&gt;Node25</title>
<path fill="none" stroke="midnightblue" d="M1073.11,-226.81C1122.7,-217.67 1216.08,-200.46 1276.23,-189.37"/>
<polygon fill="midnightblue" stroke="midnightblue" points="1277.12,-192.77 1286.32,-187.51 1275.85,-185.88 1277.12,-192.77"/>
</g>
<!-- Node7 -->
<g id="node7" class="node">
<title>Node7</title>
<g id="a_node7"><a xlink:title=" ">
<polygon fill="white" stroke="#bfbfbf" points="1752,-112.5 1752,-131.5 1869,-131.5 1869,-112.5 1752,-112.5"/>
<text text-anchor="middle" x="1810.5" y="-119.5" font-family="Helvetica,sans-Serif" font-size="10.00">G4UserRunAction.hh</text>
</a>
</g>
</g>
<!-- Node6&#45;&gt;Node7 -->
<g id="edge6" class="edge">
<title>Node6&#45;&gt;Node7</title>
<path fill="none" stroke="midnightblue" d="M1811.33,-168.08C1811.2,-161.01 1811.02,-150.86 1810.85,-141.99"/>
<polygon fill="midnightblue" stroke="midnightblue" points="1814.35,-141.68 1810.66,-131.75 1807.35,-141.81 1814.35,-141.68"/>
</g>
<!-- Node10 -->
<g id="node10" class="node">
<title>Node10</title>
<g id="a_node10"><a xlink:title=" ">
<polygon fill="white" stroke="#bfbfbf" points="346,-112.5 346,-131.5 485,-131.5 485,-112.5 346,-112.5"/>
<text text-anchor="middle" x="415.5" y="-119.5" font-family="Helvetica,sans-Serif" font-size="10.00">G4UserTrackingAction.hh</text>
</a>
</g>
</g>
<!-- Node9&#45;&gt;Node10 -->
<g id="edge9" class="edge">
<title>Node9&#45;&gt;Node10</title>
<path fill="none" stroke="midnightblue" d="M415.5,-168.08C415.5,-161.01 415.5,-150.86 415.5,-141.99"/>
<polygon fill="midnightblue" stroke="midnightblue" points="419,-141.75 415.5,-131.75 412,-141.75 419,-141.75"/>
</g>
<!-- Node13 -->
<g id="node13" class="node">
<title>Node13</title>
<g id="a_node13"><a xlink:href="_o_m_sim_command_args_table_8hh.html" target="_top" xlink:title="Definition of the OMSimCommandArgsTable singleton class, which controls user args.">
<polygon fill="white" stroke="black" points="1179.5,-112.5 1179.5,-131.5 1343.5,-131.5 1343.5,-112.5 1179.5,-112.5"/>
<text text-anchor="middle" x="1261.5" y="-119.5" font-family="Helvetica,sans-Serif" font-size="10.00">OMSimCommandArgsTable.hh</text>
</a>
</g>
</g>
<!-- Node12&#45;&gt;Node13 -->
<g id="edge12" class="edge">
<title>Node12&#45;&gt;Node13</title>
<path fill="none" stroke="midnightblue" d="M782.19,-169.07C785.34,-168.7 788.46,-168.34 791.5,-168 922.56,-153.3 1074.52,-139.31 1169.35,-130.93"/>
<polygon fill="midnightblue" stroke="midnightblue" points="1169.83,-134.41 1179.48,-130.04 1169.22,-127.43 1169.83,-134.41"/>
</g>
<!-- Node20 -->
<g id="node20" class="node">
<title>Node20</title>
<g id="a_node20"><a xlink:title=" ">
<polygon fill="white" stroke="#bfbfbf" points="672.5,-112.5 672.5,-131.5 770.5,-131.5 770.5,-112.5 672.5,-112.5"/>
<text text-anchor="middle" x="721.5" y="-119.5" font-family="Helvetica,sans-Serif" font-size="10.00">G4UImanager.hh</text>
</a>
</g>
</g>
<!-- Node12&#45;&gt;Node20 -->
<g id="edge19" class="edge">
<title>Node12&#45;&gt;Node20</title>
<path fill="none" stroke="midnightblue" d="M721.5,-168.08C721.5,-161.01 721.5,-150.86 721.5,-141.99"/>
<polygon fill="midnightblue" stroke="midnightblue" points="725,-141.75 721.5,-131.75 718,-141.75 725,-141.75"/>
</g>
<!-- Node14 -->
<g id="node14" class="node">
<title>Node14</title>
<g id="a_node14"><a xlink:href="_o_m_sim_logger_8hh.html" target="_top" xlink:title=" ">
<polygon fill="white" stroke="black" points="1102,-56.5 1102,-75.5 1201,-75.5 1201,-56.5 1102,-56.5"/>
<text text-anchor="middle" x="1151.5" y="-63.5" font-family="Helvetica,sans-Serif" font-size="10.00">OMSimLogger.hh</text>
</a>
</g>
</g>
<!-- Node13&#45;&gt;Node14 -->
<g id="edge13" class="edge">
<title>Node13&#45;&gt;Node14</title>
<path fill="none" stroke="midnightblue" d="M1243.83,-112.32C1226.11,-103.62 1198.6,-90.12 1178.21,-80.11"/>
<polygon fill="midnightblue" stroke="midnightblue" points="1179.65,-76.92 1169.13,-75.65 1176.56,-83.2 1179.65,-76.92"/>
</g>
<!-- Node17 -->
<g id="node17" class="node">
<title>Node17</title>
<g id="a_node17"><a xlink:title=" ">
<polygon fill="white" stroke="#bfbfbf" points="1870,-56.5 1870,-75.5 1925,-75.5 1925,-56.5 1870,-56.5"/>
<text text-anchor="middle" x="1897.5" y="-63.5" font-family="Helvetica,sans-Serif" font-size="10.00">fstream</text>
</a>
</g>
</g>
<!-- Node13&#45;&gt;Node17 -->
<g id="edge16" class="edge">
<title>Node13&#45;&gt;Node17</title>
<path fill="none" stroke="midnightblue" d="M1343.67,-114.02C1482.8,-102.21 1759.45,-78.72 1859.92,-70.19"/>
<polygon fill="midnightblue" stroke="midnightblue" points="1860.24,-73.68 1869.91,-69.34 1859.65,-66.7 1860.24,-73.68"/>
</g>
<!-- Node18 -->
<g id="node18" class="node">
<title>Node18</title>
<g id="a_node18"><a xlink:title=" ">
<polygon fill="white" stroke="#bfbfbf" points="1219.5,-56.5 1219.5,-75.5 1303.5,-75.5 1303.5,-56.5 1219.5,-56.5"/>
<text text-anchor="middle" x="1261.5" y="-63.5" font-family="Helvetica,sans-Serif" font-size="10.00">boost/any.hpp</text>
</a>
</g>
</g>
<!-- Node13&#45;&gt;Node18 -->
<g id="edge17" class="edge">
<title>Node13&#45;&gt;Node18</title>
<path fill="none" stroke="midnightblue" d="M1261.5,-112.08C1261.5,-105.01 1261.5,-94.86 1261.5,-85.99"/>
<polygon fill="midnightblue" stroke="midnightblue" points="1265,-85.75 1261.5,-75.75 1258,-85.75 1265,-85.75"/>
</g>
<!-- Node19 -->
<g id="node19" class="node">
<title>Node19</title>
<g id="a_node19"><a xlink:title=" ">
<polygon fill="white" stroke="#bfbfbf" points="1321.5,-56.5 1321.5,-75.5 1389.5,-75.5 1389.5,-56.5 1321.5,-56.5"/>
<text text-anchor="middle" x="1355.5" y="-63.5" font-family="Helvetica,sans-Serif" font-size="10.00">sys/time.h</text>
</a>
</g>
</g>
<!-- Node13&#45;&gt;Node19 -->
<g id="edge18" class="edge">
<title>Node13&#45;&gt;Node19</title>
<path fill="none" stroke="midnightblue" d="M1276.6,-112.32C1291.4,-103.82 1314.19,-90.73 1331.48,-80.8"/>
<polygon fill="midnightblue" stroke="midnightblue" points="1333.51,-83.67 1340.43,-75.65 1330.02,-77.6 1333.51,-83.67"/>
</g>
<!-- Node15 -->
<g id="node15" class="node">
<title>Node15</title>
<g id="a_node15"><a xlink:title=" ">
<polygon fill="white" stroke="#bfbfbf" points="1093.5,-0.5 1093.5,-19.5 1143.5,-19.5 1143.5,-0.5 1093.5,-0.5"/>
<text text-anchor="middle" x="1118.5" y="-7.5" font-family="Helvetica,sans-Serif" font-size="10.00">stdio.h</text>
</a>
</g>
</g>
<!-- Node14&#45;&gt;Node15 -->
<g id="edge14" class="edge">
<title>Node14&#45;&gt;Node15</title>
<path fill="none" stroke="midnightblue" d="M1146.05,-56.08C1141.49,-48.61 1134.83,-37.72 1129.21,-28.52"/>
<polygon fill="midnightblue" stroke="midnightblue" points="1132.05,-26.46 1123.85,-19.75 1126.08,-30.11 1132.05,-26.46"/>
</g>
<!-- Node16 -->
<g id="node16" class="node">
<title>Node16</title>
<g id="a_node16"><a xlink:title=" ">
<polygon fill="white" stroke="#bfbfbf" points="1161.5,-0.5 1161.5,-19.5 1209.5,-19.5 1209.5,-0.5 1161.5,-0.5"/>
<text text-anchor="middle" x="1185.5" y="-7.5" font-family="Helvetica,sans-Serif" font-size="10.00">time.h</text>
</a>
</g>
</g>
<!-- Node14&#45;&gt;Node16 -->
<g id="edge15" class="edge">
<title>Node14&#45;&gt;Node16</title>
<path fill="none" stroke="midnightblue" d="M1157.11,-56.08C1161.87,-48.53 1168.82,-37.49 1174.65,-28.23"/>
<polygon fill="midnightblue" stroke="midnightblue" points="1177.62,-30.08 1179.99,-19.75 1171.7,-26.35 1177.62,-30.08"/>
</g>
<!-- Node26&#45;&gt;Node17 -->
<g id="edge30" class="edge">
<title>Node26&#45;&gt;Node17</title>
<path fill="none" stroke="midnightblue" d="M2367.01,-224.49C2388.18,-218.15 2410.79,-207.14 2423.5,-188 2439.19,-164.38 2411.8,-120.92 2399.5,-112 2362.15,-84.9 2045.5,-71.91 1935.2,-68.17"/>
<polygon fill="midnightblue" stroke="midnightblue" points="1935.3,-64.67 1925.19,-67.84 1935.07,-71.67 1935.3,-64.67"/>
</g>
<!-- Node27 -->
<g id="node27" class="node">
<title>Node27</title>
<g id="a_node27"><a xlink:title=" ">
<polygon fill="white" stroke="#bfbfbf" points="2317,-112.5 2317,-131.5 2390,-131.5 2390,-112.5 2317,-112.5"/>
<text text-anchor="middle" x="2353.5" y="-119.5" font-family="Helvetica,sans-Serif" font-size="10.00">G4Types.hh</text>
</a>
</g>
</g>
<!-- Node26&#45;&gt;Node27 -->
<g id="edge26" class="edge">
<title>Node26&#45;&gt;Node27</title>
<path fill="none" stroke="midnightblue" d="M2355.35,-224.36C2374.88,-217.85 2396.83,-206.7 2408.5,-188 2420.45,-168.86 2398.6,-149.44 2379.01,-136.87"/>
<polygon fill="midnightblue" stroke="midnightblue" points="2380.66,-133.78 2370.29,-131.61 2377.04,-139.78 2380.66,-133.78"/>
</g>
<!-- Node28 -->
<g id="node28" class="node">
<title>Node28</title>
<g id="a_node28"><a xlink:title=" ">
<polygon fill="white" stroke="#bfbfbf" points="2200.5,-168.5 2200.5,-187.5 2274.5,-187.5 2274.5,-168.5 2200.5,-168.5"/>
<text text-anchor="middle" x="2237.5" y="-175.5" font-family="Helvetica,sans-Serif" font-size="10.00">G4String.hh</text>
</a>
</g>
</g>
<!-- Node26&#45;&gt;Node28 -->
<g id="edge27" class="edge">
<title>Node26&#45;&gt;Node28</title>
<path fill="none" stroke="midnightblue" d="M2303.81,-224.32C2291.6,-215.98 2272.92,-203.21 2258.5,-193.35"/>
<polygon fill="midnightblue" stroke="midnightblue" points="2260.39,-190.41 2250.16,-187.65 2256.44,-196.19 2260.39,-190.41"/>
</g>
<!-- Node29 -->
<g id="node29" class="node">
<title>Node29</title>
<g id="a_node29"><a xlink:title=" ">
<polygon fill="white" stroke="#bfbfbf" points="2079,-168.5 2079,-187.5 2182,-187.5 2182,-168.5 2079,-168.5"/>
<text text-anchor="middle" x="2130.5" y="-175.5" font-family="Helvetica,sans-Serif" font-size="10.00">G4ThreeVector.hh</text>
</a>
</g>
</g>
<!-- Node26&#45;&gt;Node29 -->
<g id="edge28" class="edge">
<title>Node26&#45;&gt;Node29</title>
<path fill="none" stroke="midnightblue" d="M2287.03,-224.44C2255.33,-215.24 2204.77,-200.56 2169.73,-190.39"/>
<polygon fill="midnightblue" stroke="midnightblue" points="2170.41,-186.94 2159.83,-187.52 2168.46,-193.67 2170.41,-186.94"/>
</g>
<!-- Node30 -->
<g id="node30" class="node">
<title>Node30</title>
<g id="a_node30"><a xlink:title=" ">
<polygon fill="white" stroke="#bfbfbf" points="2293,-168.5 2293,-187.5 2340,-187.5 2340,-168.5 2293,-168.5"/>
<text text-anchor="middle" x="2316.5" y="-175.5" font-family="Helvetica,sans-Serif" font-size="10.00">vector</text>
</a>
</g>
</g>
<!-- Node26&#45;&gt;Node30 -->
<g id="edge29" class="edge">
<title>Node26&#45;&gt;Node30</title>
<path fill="none" stroke="midnightblue" d="M2316.5,-224.08C2316.5,-217.01 2316.5,-206.86 2316.5,-197.99"/>
<polygon fill="midnightblue" stroke="midnightblue" points="2320,-197.75 2316.5,-187.75 2313,-197.75 2320,-197.75"/>
</g>
<!-- Node31 -->
<g id="node31" class="node">
<title>Node31</title>
<g id="a_node31"><a xlink:title=" ">
<polygon fill="white" stroke="#bfbfbf" points="2358,-168.5 2358,-187.5 2399,-187.5 2399,-168.5 2358,-168.5"/>
<text text-anchor="middle" x="2378.5" y="-175.5" font-family="Helvetica,sans-Serif" font-size="10.00">tuple</text>
</a>
</g>
</g>
<!-- Node26&#45;&gt;Node31 -->
<g id="edge31" class="edge">
<title>Node26&#45;&gt;Node31</title>
<path fill="none" stroke="midnightblue" d="M2326.46,-224.32C2335.63,-216.34 2349.44,-204.31 2360.53,-194.65"/>
<polygon fill="midnightblue" stroke="midnightblue" points="2363.12,-197.04 2368.36,-187.83 2358.52,-191.76 2363.12,-197.04"/>
</g>
<!-- Node32&#45;&gt;Node17 -->
<g id="edge41" class="edge">
<title>Node32&#45;&gt;Node17</title>
<path fill="none" stroke="midnightblue" d="M1938.58,-224.25C1932.09,-215.56 1922.62,-201.61 1917.5,-188 1904.47,-153.41 1899.92,-110.09 1898.33,-85.79"/>
<polygon fill="midnightblue" stroke="midnightblue" points="1901.81,-85.3 1897.77,-75.51 1894.82,-85.68 1901.81,-85.3"/>
</g>
<!-- Node32&#45;&gt;Node29 -->
<g id="edge40" class="edge">
<title>Node32&#45;&gt;Node29</title>
<path fill="none" stroke="midnightblue" d="M1974.81,-224.44C2006.34,-215.24 2056.63,-200.56 2091.49,-190.39"/>
<polygon fill="midnightblue" stroke="midnightblue" points="2092.7,-193.68 2101.32,-187.52 2090.74,-186.96 2092.7,-193.68"/>
</g>
<!-- Node33 -->
<g id="node33" class="node">
<title>Node33</title>
<g id="a_node33"><a xlink:href="_o_m_sim_p_m_t_response_8hh.html" target="_top" xlink:title="Provides simulation for PMT response. This class is responsible for transforming hits on photocathode...">
<polygon fill="white" stroke="black" points="1926,-168.5 1926,-187.5 2061,-187.5 2061,-168.5 1926,-168.5"/>
<text text-anchor="middle" x="1993.5" y="-175.5" font-family="Helvetica,sans-Serif" font-size="10.00">OMSimPMTResponse.hh</text>
</a>
</g>
</g>
<!-- Node32&#45;&gt;Node33 -->
<g id="edge34" class="edge">
<title>Node32&#45;&gt;Node33</title>
<path fill="none" stroke="midnightblue" d="M1953.43,-224.08C1960.35,-216.3 1970.57,-204.8 1978.95,-195.37"/>
<polygon fill="midnightblue" stroke="midnightblue" points="1981.69,-197.55 1985.72,-187.75 1976.46,-192.9 1981.69,-197.55"/>
</g>
<!-- Node33&#45;&gt;Node27 -->
<g id="edge36" class="edge">
<title>Node33&#45;&gt;Node27</title>
<path fill="none" stroke="midnightblue" d="M2050.54,-168.44C2121.3,-157.83 2240.63,-139.93 2306.42,-130.06"/>
<polygon fill="midnightblue" stroke="midnightblue" points="2307.14,-133.49 2316.51,-128.55 2306.1,-126.57 2307.14,-133.49"/>
</g>
<!-- Node34 -->
<g id="node34" class="node">
<title>Node34</title>
<g id="a_node34"><a xlink:title=" ">
<polygon fill="white" stroke="#bfbfbf" points="2076,-112.5 2076,-131.5 2195,-131.5 2195,-112.5 2076,-112.5"/>
<text text-anchor="middle" x="2135.5" y="-119.5" font-family="Helvetica,sans-Serif" font-size="10.00">G4SystemOfUnits.hh</text>
</a>
</g>
</g>
<!-- Node33&#45;&gt;Node34 -->
<g id="edge35" class="edge">
<title>Node33&#45;&gt;Node34</title>
<path fill="none" stroke="midnightblue" d="M2016,-168.44C2039.58,-159.48 2076.82,-145.31 2103.46,-135.18"/>
<polygon fill="midnightblue" stroke="midnightblue" points="2105,-138.34 2113.1,-131.52 2102.51,-131.8 2105,-138.34"/>
</g>
<!-- Node35 -->
<g id="node35" class="node">
<title>Node35</title>
<g id="a_node35"><a xlink:title=" ">
<polygon fill="white" stroke="#bfbfbf" points="2213.5,-112.5 2213.5,-131.5 2251.5,-131.5 2251.5,-112.5 2213.5,-112.5"/>
<text text-anchor="middle" x="2232.5" y="-119.5" font-family="Helvetica,sans-Serif" font-size="10.00">map</text>
</a>
</g>
</g>
<!-- Node33&#45;&gt;Node35 -->
<g id="edge37" class="edge">
<title>Node33&#45;&gt;Node35</title>
<path fill="none" stroke="midnightblue" d="M2039.92,-168.5C2080.7,-160.71 2141.81,-148.3 2203.41,-132.09"/>
<polygon fill="midnightblue" stroke="midnightblue" points="2204.53,-135.41 2213.3,-129.45 2202.73,-128.65 2204.53,-135.41"/>
</g>
<!-- Node36 -->
<g id="node36" class="node">
<title>Node36</title>
<g id="a_node36"><a xlink:title=" ">
<polygon fill="white" stroke="#bfbfbf" points="1926,-112.5 1926,-131.5 1987,-131.5 1987,-112.5 1926,-112.5"/>
<text text-anchor="middle" x="1956.5" y="-119.5" font-family="Helvetica,sans-Serif" font-size="10.00">TGraph.h</text>
</a>
</g>
</g>
<!-- Node33&#45;&gt;Node36 -->
<g id="edge38" class="edge">
<title>Node33&#45;&gt;Node36</title>
<path fill="none" stroke="midnightblue" d="M1987.39,-168.08C1982.22,-160.53 1974.65,-149.49 1968.31,-140.23"/>
<polygon fill="midnightblue" stroke="midnightblue" points="1971.04,-138.02 1962.5,-131.75 1965.26,-141.98 1971.04,-138.02"/>
</g>
<!-- Node37 -->
<g id="node37" class="node">
<title>Node37</title>
<g id="a_node37"><a xlink:title=" ">
<polygon fill="white" stroke="#bfbfbf" points="2005,-112.5 2005,-131.5 2058,-131.5 2058,-112.5 2005,-112.5"/>
<text text-anchor="middle" x="2031.5" y="-119.5" font-family="Helvetica,sans-Serif" font-size="10.00">TH2D.h</text>
</a>
</g>
</g>
<!-- Node33&#45;&gt;Node37 -->
<g id="edge39" class="edge">
<title>Node33&#45;&gt;Node37</title>
<path fill="none" stroke="midnightblue" d="M1999.77,-168.08C2005.14,-160.46 2013.02,-149.26 2019.58,-139.94"/>
<polygon fill="midnightblue" stroke="midnightblue" points="2022.45,-141.94 2025.34,-131.75 2016.72,-137.91 2022.45,-141.94"/>
</g>
</g>
</svg>
