<?xml version="1.0" encoding="UTF-8" standalone="no"?>
<!DOCTYPE svg PUBLIC "-//W3C//DTD SVG 1.1//EN"
 "http://www.w3.org/Graphics/SVG/1.1/DTD/svg11.dtd">
<!-- Generated by graphviz version 2.43.0 (0)
 -->
<!-- Title: /home/runner/work/OMSim/OMSim/common/src/OMSimLOM18.cc Pages: 1 -->
<svg width="4128pt" height="319pt"
 viewBox="0.00 0.00 4127.50 319.00" xmlns="http://www.w3.org/2000/svg" xmlns:xlink="http://www.w3.org/1999/xlink">
<g id="graph0" class="graph" transform="scale(1 1) rotate(0) translate(4 315)">
<title>/home/runner/work/OMSim/OMSim/common/src/OMSimLOM18.cc</title>
<polygon fill="white" stroke="transparent" points="-4,4 -4,-315 4123.5,-315 4123.5,4 -4,4"/>
<!-- Node1 -->
<g id="node1" class="node">
<title>Node1</title>
<g id="a_node1"><a xlink:title="Construction of LOM18.">
<polygon fill="#bfbfbf" stroke="black" points="2601.5,-280.5 2601.5,-310.5 2804.5,-310.5 2804.5,-280.5 2601.5,-280.5"/>
<text text-anchor="start" x="2609.5" y="-298.5" font-family="Helvetica,sans-Serif" font-size="10.00">/home/runner/work/OMSim</text>
<text text-anchor="middle" x="2703" y="-287.5" font-family="Helvetica,sans-Serif" font-size="10.00">/OMSim/common/src/OMSimLOM18.cc</text>
</a>
</g>
</g>
<!-- Node2 -->
<g id="node2" class="node">
<title>Node2</title>
<g id="a_node2"><a xlink:href="_o_m_sim_l_o_m18_8hh.html" target="_top" xlink:title=" ">
<polygon fill="white" stroke="black" points="2046.5,-224.5 2046.5,-243.5 2147.5,-243.5 2147.5,-224.5 2046.5,-224.5"/>
<text text-anchor="middle" x="2097" y="-231.5" font-family="Helvetica,sans-Serif" font-size="10.00">OMSimLOM18.hh</text>
</a>
</g>
</g>
<!-- Node1&#45;&gt;Node2 -->
<g id="edge1" class="edge">
<title>Node1&#45;&gt;Node2</title>
<path fill="none" stroke="midnightblue" d="M2601.23,-284.51C2474.31,-272.05 2261.43,-251.14 2157.61,-240.95"/>
<polygon fill="midnightblue" stroke="midnightblue" points="2157.91,-237.46 2147.61,-239.97 2157.22,-244.43 2157.91,-237.46"/>
</g>
<!-- Node3 -->
<g id="node3" class="node">
<title>Node3</title>
<g id="a_node3"><a xlink:href="abc_detector_component_8hh.html" target="_top" xlink:title=" ">
<polygon fill="white" stroke="black" points="2136.5,-112.5 2136.5,-131.5 2283.5,-131.5 2283.5,-112.5 2136.5,-112.5"/>
<text text-anchor="middle" x="2210" y="-119.5" font-family="Helvetica,sans-Serif" font-size="10.00">abcDetectorComponent.hh</text>
</a>
</g>
</g>
<!-- Node1&#45;&gt;Node3 -->
<g id="edge33" class="edge">
<title>Node1&#45;&gt;Node3</title>
<path fill="none" stroke="midnightblue" d="M2613.39,-280.46C2586.75,-272.98 2558.86,-261.52 2537,-244 2506.72,-219.73 2525.89,-190.12 2494,-168 2462.38,-146.07 2365.85,-134.23 2294.05,-128.28"/>
<polygon fill="midnightblue" stroke="midnightblue" points="2293.9,-124.76 2283.65,-127.45 2293.34,-131.74 2293.9,-124.76"/>
</g>
<!-- Node4 -->
<g id="node4" class="node">
<title>Node4</title>
<g id="a_node4"><a xlink:title=" ">
<polygon fill="white" stroke="#bfbfbf" points="1721,-56.5 1721,-75.5 1837,-75.5 1837,-56.5 1721,-56.5"/>
<text text-anchor="middle" x="1779" y="-63.5" font-family="Helvetica,sans-Serif" font-size="10.00">G4LogicalVolume.hh</text>
</a>
</g>
</g>
<!-- Node1&#45;&gt;Node4 -->
<g id="edge44" class="edge">
<title>Node1&#45;&gt;Node4</title>
<path fill="none" stroke="midnightblue" d="M2601.48,-291.93C2415.45,-286.61 2026.91,-272.4 1895,-244 1826.25,-229.2 1798.86,-235.51 1747,-188 1720.57,-163.79 1704.1,-144.13 1720,-112 1726.6,-98.66 1739.26,-88.19 1751.17,-80.73"/>
<polygon fill="midnightblue" stroke="midnightblue" points="1753.12,-83.64 1760.02,-75.6 1749.61,-77.59 1753.12,-83.64"/>
</g>
<!-- Node5 -->
<g id="node5" class="node">
<title>Node5</title>
<g id="a_node5"><a xlink:title=" ">
<polygon fill="white" stroke="#bfbfbf" points="1977.5,-0.5 1977.5,-19.5 2096.5,-19.5 2096.5,-0.5 1977.5,-0.5"/>
<text text-anchor="middle" x="2037" y="-7.5" font-family="Helvetica,sans-Serif" font-size="10.00">G4SystemOfUnits.hh</text>
</a>
</g>
</g>
<!-- Node1&#45;&gt;Node5 -->
<g id="edge49" class="edge">
<title>Node1&#45;&gt;Node5</title>
<path fill="none" stroke="midnightblue" d="M2706.09,-280.4C2716.6,-231.67 2749.46,-72.49 2734,-56 2691.76,-10.94 2275.3,-9.1 2107.01,-10.23"/>
<polygon fill="midnightblue" stroke="midnightblue" points="2106.75,-6.73 2096.77,-10.3 2106.8,-13.73 2106.75,-6.73"/>
</g>
<!-- Node6 -->
<g id="node6" class="node">
<title>Node6</title>
<g id="a_node6"><a xlink:title=" ">
<polygon fill="white" stroke="#bfbfbf" points="2617.5,-56.5 2617.5,-75.5 2724.5,-75.5 2724.5,-56.5 2617.5,-56.5"/>
<text text-anchor="middle" x="2671" y="-63.5" font-family="Helvetica,sans-Serif" font-size="10.00">G4Transform3D.hh</text>
</a>
</g>
</g>
<!-- Node1&#45;&gt;Node6 -->
<g id="edge50" class="edge">
<title>Node1&#45;&gt;Node6</title>
<path fill="none" stroke="midnightblue" d="M2698.3,-280.07C2695.21,-270.05 2691.32,-256.34 2689,-244 2678.27,-186.96 2673.59,-118.28 2671.87,-85.79"/>
<polygon fill="midnightblue" stroke="midnightblue" points="2675.35,-85.36 2671.36,-75.55 2668.36,-85.71 2675.35,-85.36"/>
</g>
<!-- Node7 -->
<g id="node7" class="node">
<title>Node7</title>
<g id="a_node7"><a xlink:title=" ">
<polygon fill="white" stroke="#bfbfbf" points="2181,-56.5 2181,-75.5 2289,-75.5 2289,-56.5 2181,-56.5"/>
<text text-anchor="middle" x="2235" y="-63.5" font-family="Helvetica,sans-Serif" font-size="10.00">G4VisAttributes.hh</text>
</a>
</g>
</g>
<!-- Node1&#45;&gt;Node7 -->
<g id="edge54" class="edge">
<title>Node1&#45;&gt;Node7</title>
<path fill="none" stroke="midnightblue" d="M2678.69,-280.44C2661.96,-270.59 2639.36,-256.93 2620,-244 2572.39,-212.2 2566.56,-194.85 2516,-168 2435.87,-125.46 2333.99,-93.88 2277.53,-78.16"/>
<polygon fill="midnightblue" stroke="midnightblue" points="2278.44,-74.78 2267.87,-75.5 2276.58,-81.53 2278.44,-74.78"/>
</g>
<!-- Node14 -->
<g id="node10" class="node">
<title>Node14</title>
<g id="a_node10"><a xlink:title=" ">
<polygon fill="white" stroke="#bfbfbf" points="2307.5,-56.5 2307.5,-75.5 2432.5,-75.5 2432.5,-56.5 2307.5,-56.5"/>
<text text-anchor="middle" x="2370" y="-63.5" font-family="Helvetica,sans-Serif" font-size="10.00">G4SubtractionSolid.hh</text>
</a>
</g>
</g>
<!-- Node1&#45;&gt;Node14 -->
<g id="edge48" class="edge">
<title>Node1&#45;&gt;Node14</title>
<path fill="none" stroke="midnightblue" d="M2686.33,-280.32C2674.65,-270.3 2658.73,-256.49 2645,-244 2577.81,-182.89 2568.78,-155.41 2489,-112 2463.54,-98.15 2432.9,-86.67 2409.09,-78.77"/>
<polygon fill="midnightblue" stroke="midnightblue" points="2409.93,-75.37 2399.34,-75.61 2407.78,-82.03 2409.93,-75.37"/>
</g>
<!-- Node15 -->
<g id="node11" class="node">
<title>Node15</title>
<g id="a_node11"><a xlink:title=" ">
<polygon fill="white" stroke="#bfbfbf" points="2451,-56.5 2451,-75.5 2561,-75.5 2561,-56.5 2451,-56.5"/>
<text text-anchor="middle" x="2506" y="-63.5" font-family="Helvetica,sans-Serif" font-size="10.00">G4PVPlacement.hh</text>
</a>
</g>
</g>
<!-- Node1&#45;&gt;Node15 -->
<g id="edge47" class="edge">
<title>Node1&#45;&gt;Node15</title>
<path fill="none" stroke="midnightblue" d="M2692.62,-280.48C2674.9,-256.77 2637.4,-207.46 2603,-168 2575.76,-136.75 2541.77,-102.33 2522.11,-82.81"/>
<polygon fill="midnightblue" stroke="midnightblue" points="2524.43,-80.19 2514.86,-75.65 2519.51,-85.17 2524.43,-80.19"/>
</g>
<!-- Node19 -->
<g id="node15" class="node">
<title>Node19</title>
<g id="a_node15"><a xlink:title=" ">
<polygon fill="white" stroke="#bfbfbf" points="1744,-112.5 1744,-131.5 1842,-131.5 1842,-112.5 1744,-112.5"/>
<text text-anchor="middle" x="1793" y="-119.5" font-family="Helvetica,sans-Serif" font-size="10.00">G4UnionSolid.hh</text>
</a>
</g>
</g>
<!-- Node1&#45;&gt;Node19 -->
<g id="edge52" class="edge">
<title>Node1&#45;&gt;Node19</title>
<path fill="none" stroke="midnightblue" d="M2601.47,-291.44C2406.44,-285.02 1993.27,-268.71 1933,-244 1877.48,-221.24 1828.45,-167.28 1805.99,-139.76"/>
<polygon fill="midnightblue" stroke="midnightblue" points="1808.64,-137.46 1799.66,-131.83 1803.16,-141.83 1808.64,-137.46"/>
</g>
<!-- Node20 -->
<g id="node16" class="node">
<title>Node20</title>
<g id="a_node16"><a xlink:title=" ">
<polygon fill="white" stroke="#bfbfbf" points="1860.5,-112.5 1860.5,-131.5 1927.5,-131.5 1927.5,-112.5 1860.5,-112.5"/>
<text text-anchor="middle" x="1894" y="-119.5" font-family="Helvetica,sans-Serif" font-size="10.00">G4Tubs.hh</text>
</a>
</g>
</g>
<!-- Node1&#45;&gt;Node20 -->
<g id="edge51" class="edge">
<title>Node1&#45;&gt;Node20</title>
<path fill="none" stroke="midnightblue" d="M2601.2,-290.54C2441.96,-283.71 2141.37,-268.09 2037,-244 1971.3,-228.83 1934.72,-243.2 1896,-188 1886.69,-174.73 1887.19,-155.89 1889.43,-141.91"/>
<polygon fill="midnightblue" stroke="midnightblue" points="1892.9,-142.43 1891.45,-131.94 1886.04,-141.05 1892.9,-142.43"/>
</g>
<!-- Node23 -->
<g id="node18" class="node">
<title>Node23</title>
<g id="a_node18"><a xlink:title=" ">
<polygon fill="white" stroke="#bfbfbf" points="2163.5,-168.5 2163.5,-187.5 2290.5,-187.5 2290.5,-168.5 2163.5,-168.5"/>
<text text-anchor="middle" x="2227" y="-175.5" font-family="Helvetica,sans-Serif" font-size="10.00">G4IntersectionSolid.hh</text>
</a>
</g>
</g>
<!-- Node1&#45;&gt;Node23 -->
<g id="edge41" class="edge">
<title>Node1&#45;&gt;Node23</title>
<path fill="none" stroke="midnightblue" d="M2605.37,-280.5C2550.99,-271.81 2482.28,-259.38 2422,-244 2363.44,-229.06 2297.01,-205.44 2258.76,-191.16"/>
<polygon fill="midnightblue" stroke="midnightblue" points="2259.8,-187.81 2249.21,-187.57 2257.34,-194.36 2259.8,-187.81"/>
</g>
<!-- Node24 -->
<g id="node19" class="node">
<title>Node24</title>
<g id="a_node19"><a xlink:title=" ">
<polygon fill="white" stroke="#bfbfbf" points="2308.5,-168.5 2308.5,-187.5 2377.5,-187.5 2377.5,-168.5 2308.5,-168.5"/>
<text text-anchor="middle" x="2343" y="-175.5" font-family="Helvetica,sans-Serif" font-size="10.00">G4Cons.hh</text>
</a>
</g>
</g>
<!-- Node1&#45;&gt;Node24 -->
<g id="edge37" class="edge">
<title>Node1&#45;&gt;Node24</title>
<path fill="none" stroke="midnightblue" d="M2612.13,-280.47C2568.41,-272.3 2515.7,-260.33 2470,-244 2431.74,-230.33 2390.36,-207.49 2365.58,-192.84"/>
<polygon fill="midnightblue" stroke="midnightblue" points="2367.31,-189.8 2356.93,-187.67 2363.71,-195.81 2367.31,-189.8"/>
</g>
<!-- Node25 -->
<g id="node20" class="node">
<title>Node25</title>
<g id="a_node20"><a xlink:title=" ">
<polygon fill="white" stroke="#bfbfbf" points="2395.5,-168.5 2395.5,-187.5 2484.5,-187.5 2484.5,-168.5 2395.5,-168.5"/>
<text text-anchor="middle" x="2440" y="-175.5" font-family="Helvetica,sans-Serif" font-size="10.00">G4Polycone.hh</text>
</a>
</g>
</g>
<!-- Node1&#45;&gt;Node25 -->
<g id="edge46" class="edge">
<title>Node1&#45;&gt;Node25</title>
<path fill="none" stroke="midnightblue" d="M2601.4,-281.59C2567.17,-274.14 2529.86,-262.42 2499,-244 2478.84,-231.97 2461.58,-210.88 2451.03,-196"/>
<polygon fill="midnightblue" stroke="midnightblue" points="2453.88,-193.96 2445.36,-187.66 2448.09,-197.9 2453.88,-193.96"/>
</g>
<!-- Node26 -->
<g id="node21" class="node">
<title>Node26</title>
<g id="a_node21"><a xlink:title=" ">
<polygon fill="white" stroke="#bfbfbf" points="2731,-224.5 2731,-243.5 2785,-243.5 2785,-224.5 2731,-224.5"/>
<text text-anchor="middle" x="2758" y="-231.5" font-family="Helvetica,sans-Serif" font-size="10.00">dirent.h</text>
</a>
</g>
</g>
<!-- Node1&#45;&gt;Node26 -->
<g id="edge34" class="edge">
<title>Node1&#45;&gt;Node26</title>
<path fill="none" stroke="midnightblue" d="M2716.03,-280.4C2724.19,-271.58 2734.72,-260.18 2743.19,-251.02"/>
<polygon fill="midnightblue" stroke="midnightblue" points="2745.78,-253.38 2750,-243.66 2740.64,-248.63 2745.78,-253.38"/>
</g>
<!-- Node27 -->
<g id="node22" class="node">
<title>Node27</title>
<g id="a_node22"><a xlink:title=" ">
<polygon fill="white" stroke="#bfbfbf" points="2803.5,-224.5 2803.5,-243.5 2868.5,-243.5 2868.5,-224.5 2803.5,-224.5"/>
<text text-anchor="middle" x="2836" y="-231.5" font-family="Helvetica,sans-Serif" font-size="10.00">stdexcept</text>
</a>
</g>
</g>
<!-- Node1&#45;&gt;Node27 -->
<g id="edge35" class="edge">
<title>Node1&#45;&gt;Node27</title>
<path fill="none" stroke="midnightblue" d="M2734.52,-280.4C2756.64,-270.51 2785.97,-257.38 2807.41,-247.79"/>
<polygon fill="midnightblue" stroke="midnightblue" points="2808.95,-250.94 2816.65,-243.66 2806.09,-244.55 2808.95,-250.94"/>
</g>
<!-- Node28 -->
<g id="node23" class="node">
<title>Node28</title>
<g id="a_node23"><a xlink:title=" ">
<polygon fill="white" stroke="#bfbfbf" points="2886.5,-224.5 2886.5,-243.5 2935.5,-243.5 2935.5,-224.5 2886.5,-224.5"/>
<text text-anchor="middle" x="2911" y="-231.5" font-family="Helvetica,sans-Serif" font-size="10.00">cstdlib</text>
</a>
</g>
</g>
<!-- Node1&#45;&gt;Node28 -->
<g id="edge36" class="edge">
<title>Node1&#45;&gt;Node28</title>
<path fill="none" stroke="midnightblue" d="M2752.03,-280.47C2790.23,-269.55 2842.33,-254.64 2876.31,-244.92"/>
<polygon fill="midnightblue" stroke="midnightblue" points="2877.58,-248.2 2886.23,-242.08 2875.66,-241.47 2877.58,-248.2"/>
</g>
<!-- Node29 -->
<g id="node24" class="node">
<title>Node29</title>
<g id="a_node24"><a xlink:title=" ">
<polygon fill="white" stroke="#bfbfbf" points="2954,-224.5 2954,-243.5 3040,-243.5 3040,-224.5 2954,-224.5"/>
<text text-anchor="middle" x="2997" y="-231.5" font-family="Helvetica,sans-Serif" font-size="10.00">G4Ellipsoid.hh</text>
</a>
</g>
</g>
<!-- Node1&#45;&gt;Node29 -->
<g id="edge38" class="edge">
<title>Node1&#45;&gt;Node29</title>
<path fill="none" stroke="midnightblue" d="M2772.3,-280.47C2825.24,-269.76 2897.04,-255.23 2945.09,-245.51"/>
<polygon fill="midnightblue" stroke="midnightblue" points="2945.86,-248.92 2954.97,-243.51 2944.47,-242.06 2945.86,-248.92"/>
</g>
<!-- Node30 -->
<g id="node25" class="node">
<title>Node30</title>
<g id="a_node25"><a xlink:title=" ">
<polygon fill="white" stroke="#bfbfbf" points="3058,-224.5 3058,-243.5 3168,-243.5 3168,-224.5 3058,-224.5"/>
<text text-anchor="middle" x="3113" y="-231.5" font-family="Helvetica,sans-Serif" font-size="10.00">G4EllipticalTube.hh</text>
</a>
</g>
</g>
<!-- Node1&#45;&gt;Node30 -->
<g id="edge39" class="edge">
<title>Node1&#45;&gt;Node30</title>
<path fill="none" stroke="midnightblue" d="M2799.65,-280.47C2876.21,-269.36 2981.07,-254.15 3047.93,-244.44"/>
<polygon fill="midnightblue" stroke="midnightblue" points="3048.53,-247.89 3057.92,-242.99 3047.52,-240.97 3048.53,-247.89"/>
</g>
<!-- Node31 -->
<g id="node26" class="node">
<title>Node31</title>
<g id="a_node26"><a xlink:title=" ">
<polygon fill="white" stroke="#bfbfbf" points="3186.5,-224.5 3186.5,-243.5 3265.5,-243.5 3265.5,-224.5 3186.5,-224.5"/>
<text text-anchor="middle" x="3226" y="-231.5" font-family="Helvetica,sans-Serif" font-size="10.00">G4Sphere.hh</text>
</a>
</g>
</g>
<!-- Node1&#45;&gt;Node31 -->
<g id="edge40" class="edge">
<title>Node1&#45;&gt;Node31</title>
<path fill="none" stroke="midnightblue" d="M2804.53,-285.92C2898.35,-277.47 3041.82,-263.26 3176.38,-243.98"/>
<polygon fill="midnightblue" stroke="midnightblue" points="3177.06,-247.42 3186.46,-242.53 3176.06,-240.49 3177.06,-247.42"/>
</g>
<!-- Node32 -->
<g id="node27" class="node">
<title>Node32</title>
<g id="a_node27"><a xlink:title=" ">
<polygon fill="white" stroke="#bfbfbf" points="3283.5,-224.5 3283.5,-243.5 3432.5,-243.5 3432.5,-224.5 3283.5,-224.5"/>
<text text-anchor="middle" x="3358" y="-231.5" font-family="Helvetica,sans-Serif" font-size="10.00">G4LogicalBorderSurface.hh</text>
</a>
</g>
</g>
<!-- Node1&#45;&gt;Node32 -->
<g id="edge42" class="edge">
<title>Node1&#45;&gt;Node32</title>
<path fill="none" stroke="midnightblue" d="M2804.57,-286.15C2916.74,-276.78 3102.98,-260.82 3273.2,-244.16"/>
<polygon fill="midnightblue" stroke="midnightblue" points="3273.74,-247.63 3283.35,-243.17 3273.06,-240.66 3273.74,-247.63"/>
</g>
<!-- Node33 -->
<g id="node28" class="node">
<title>Node33</title>
<g id="a_node28"><a xlink:title=" ">
<polygon fill="white" stroke="#bfbfbf" points="3450.5,-224.5 3450.5,-243.5 3587.5,-243.5 3587.5,-224.5 3450.5,-224.5"/>
<text text-anchor="middle" x="3519" y="-231.5" font-family="Helvetica,sans-Serif" font-size="10.00">G4LogicalSkinSurface.hh</text>
</a>
</g>
</g>
<!-- Node1&#45;&gt;Node33 -->
<g id="edge43" class="edge">
<title>Node1&#45;&gt;Node33</title>
<path fill="none" stroke="midnightblue" d="M2804.73,-289.1C2945.32,-281.29 3207.16,-265.49 3440.15,-244.14"/>
<polygon fill="midnightblue" stroke="midnightblue" points="3440.53,-247.61 3450.17,-243.21 3439.89,-240.64 3440.53,-247.61"/>
</g>
<!-- Node34 -->
<g id="node29" class="node">
<title>Node34</title>
<g id="a_node29"><a xlink:title=" ">
<polygon fill="white" stroke="#bfbfbf" points="3606,-224.5 3606,-243.5 3668,-243.5 3668,-224.5 3606,-224.5"/>
<text text-anchor="middle" x="3637" y="-231.5" font-family="Helvetica,sans-Serif" font-size="10.00">G4Orb.hh</text>
</a>
</g>
</g>
<!-- Node1&#45;&gt;Node34 -->
<g id="edge45" class="edge">
<title>Node1&#45;&gt;Node34</title>
<path fill="none" stroke="midnightblue" d="M2804.75,-294.19C2969.35,-292.5 3304.16,-284.06 3595.73,-243.95"/>
<polygon fill="midnightblue" stroke="midnightblue" points="3596.22,-247.41 3605.65,-242.57 3595.26,-240.48 3596.22,-247.41"/>
</g>
<!-- Node35 -->
<g id="node30" class="node">
<title>Node35</title>
<g id="a_node30"><a xlink:title=" ">
<polygon fill="white" stroke="#bfbfbf" points="3686,-224.5 3686,-243.5 3782,-243.5 3782,-224.5 3686,-224.5"/>
<text text-anchor="middle" x="3734" y="-231.5" font-family="Helvetica,sans-Serif" font-size="10.00">G4UnitsTable.hh</text>
</a>
</g>
</g>
<!-- Node1&#45;&gt;Node35 -->
<g id="edge53" class="edge">
<title>Node1&#45;&gt;Node35</title>
<path fill="none" stroke="midnightblue" d="M2804.58,-292.74C2980.2,-288.91 3352.04,-277.42 3675.8,-244.01"/>
<polygon fill="midnightblue" stroke="midnightblue" points="3676.26,-247.48 3685.84,-242.97 3675.54,-240.52 3676.26,-247.48"/>
</g>
<!-- Node36 -->
<g id="node31" class="node">
<title>Node36</title>
<g id="a_node31"><a xlink:title=" ">
<polygon fill="white" stroke="#bfbfbf" points="3800.5,-224.5 3800.5,-243.5 3871.5,-243.5 3871.5,-224.5 3800.5,-224.5"/>
<text text-anchor="middle" x="3836" y="-231.5" font-family="Helvetica,sans-Serif" font-size="10.00">G4Torus.hh</text>
</a>
</g>
</g>
<!-- Node1&#45;&gt;Node36 -->
<g id="edge55" class="edge">
<title>Node1&#45;&gt;Node36</title>
<path fill="none" stroke="midnightblue" d="M2804.68,-294.89C2995.95,-294.5 3422.37,-288.31 3790.17,-243.89"/>
<polygon fill="midnightblue" stroke="midnightblue" points="3790.71,-247.35 3800.22,-242.66 3789.87,-240.4 3790.71,-247.35"/>
</g>
<!-- Node37 -->
<g id="node32" class="node">
<title>Node37</title>
<g id="a_node32"><a xlink:title=" ">
<polygon fill="white" stroke="#bfbfbf" points="3890,-224.5 3890,-243.5 4002,-243.5 4002,-224.5 3890,-224.5"/>
<text text-anchor="middle" x="3946" y="-231.5" font-family="Helvetica,sans-Serif" font-size="10.00">G4EllipticalCone.hh</text>
</a>
</g>
</g>
<!-- Node1&#45;&gt;Node37 -->
<g id="edge56" class="edge">
<title>Node1&#45;&gt;Node37</title>
<path fill="none" stroke="midnightblue" d="M2804.85,-293.38C3007.57,-290.44 3476.1,-280.09 3879.55,-244.04"/>
<polygon fill="midnightblue" stroke="midnightblue" points="3880.02,-247.51 3889.67,-243.13 3879.39,-240.54 3880.02,-247.51"/>
</g>
<!-- Node38 -->
<g id="node33" class="node">
<title>Node38</title>
<g id="a_node33"><a xlink:href="_c_a_d_mesh_8hh.html" target="_top" xlink:title=" ">
<polygon fill="white" stroke="black" points="948.5,-112.5 948.5,-131.5 1027.5,-131.5 1027.5,-112.5 948.5,-112.5"/>
<text text-anchor="middle" x="988" y="-119.5" font-family="Helvetica,sans-Serif" font-size="10.00">CADMesh.hh</text>
</a>
</g>
</g>
<!-- Node1&#45;&gt;Node38 -->
<g id="edge57" class="edge">
<title>Node1&#45;&gt;Node38</title>
<path fill="none" stroke="midnightblue" d="M2601.27,-294.48C2409.72,-293.4 1982.7,-285.98 1626,-244 1401.43,-217.57 1137.12,-158.28 1033.19,-133.84"/>
<polygon fill="midnightblue" stroke="midnightblue" points="1033.89,-130.41 1023.35,-131.52 1032.28,-137.23 1033.89,-130.41"/>
</g>
<!-- Node55 -->
<g id="node50" class="node">
<title>Node55</title>
<g id="a_node50"><a xlink:href="_o_m_sim_logger_8hh.html" target="_top" xlink:title=" ">
<polygon fill="white" stroke="red" points="4020.5,-224.5 4020.5,-243.5 4119.5,-243.5 4119.5,-224.5 4020.5,-224.5"/>
<text text-anchor="middle" x="4070" y="-231.5" font-family="Helvetica,sans-Serif" font-size="10.00">OMSimLogger.hh</text>
</a>
</g>
</g>
<!-- Node1&#45;&gt;Node55 -->
<g id="edge78" class="edge">
<title>Node1&#45;&gt;Node55</title>
<path fill="none" stroke="midnightblue" d="M2804.6,-294.47C3023.29,-293.56 3554.92,-286.8 4010.41,-243.92"/>
<polygon fill="midnightblue" stroke="midnightblue" points="4010.85,-247.4 4020.48,-242.97 4010.19,-240.43 4010.85,-247.4"/>
</g>
<!-- Node2&#45;&gt;Node3 -->
<g id="edge2" class="edge">
<title>Node2&#45;&gt;Node3</title>
<path fill="none" stroke="midnightblue" d="M2098.13,-224.39C2100.32,-210.87 2106.27,-184.52 2121,-168 2134.42,-152.95 2154.04,-142.28 2171.45,-135.12"/>
<polygon fill="midnightblue" stroke="midnightblue" points="2172.77,-138.37 2180.84,-131.5 2170.25,-131.84 2172.77,-138.37"/>
</g>
<!-- Node2&#45;&gt;Node4 -->
<g id="edge25" class="edge">
<title>Node2&#45;&gt;Node4</title>
<path fill="none" stroke="midnightblue" d="M2046.49,-229.47C1970.48,-223.53 1830.82,-209.97 1786,-188 1747.85,-169.3 1710.52,-150.73 1728,-112 1733.62,-99.56 1744.56,-89.17 1754.88,-81.53"/>
<polygon fill="midnightblue" stroke="midnightblue" points="1757.01,-84.31 1763.27,-75.76 1753.04,-78.54 1757.01,-84.31"/>
</g>
<!-- Node2&#45;&gt;Node5 -->
<g id="edge26" class="edge">
<title>Node2&#45;&gt;Node5</title>
<path fill="none" stroke="midnightblue" d="M2101.98,-224.12C2110.57,-209.74 2129.61,-181.58 2154,-168 2239.03,-120.66 2275,-153.15 2370,-132 2462.82,-111.33 2634.35,-126.01 2570,-56 2539.27,-22.57 2244.32,-13.95 2106.87,-11.75"/>
<polygon fill="midnightblue" stroke="midnightblue" points="2106.9,-8.25 2096.85,-11.6 2106.8,-15.25 2106.9,-8.25"/>
</g>
<!-- Node8 -->
<g id="node8" class="node">
<title>Node8</title>
<g id="a_node8"><a xlink:href="_o_m_sim_input_data_8hh.html" target="_top" xlink:title=" ">
<polygon fill="white" stroke="red" points="1855.5,-56.5 1855.5,-75.5 1970.5,-75.5 1970.5,-56.5 1855.5,-56.5"/>
<text text-anchor="middle" x="1913" y="-63.5" font-family="Helvetica,sans-Serif" font-size="10.00">OMSimInputData.hh</text>
</a>
</g>
</g>
<!-- Node2&#45;&gt;Node8 -->
<g id="edge29" class="edge">
<title>Node2&#45;&gt;Node8</title>
<path fill="none" stroke="midnightblue" d="M2046.37,-227.09C1954.92,-215.18 1768.52,-184.82 1735,-132 1730.24,-124.49 1729.54,-119.01 1735,-112 1742.69,-102.12 1808.04,-87.41 1857.34,-77.52"/>
<polygon fill="midnightblue" stroke="midnightblue" points="1858.15,-80.93 1867.28,-75.55 1856.79,-74.06 1858.15,-80.93"/>
</g>
<!-- Node18 -->
<g id="node14" class="node">
<title>Node18</title>
<g id="a_node14"><a xlink:href="_o_m_sim_p_m_t_construction_8hh.html" target="_top" xlink:title=" ">
<polygon fill="white" stroke="red" points="1920.5,-168.5 1920.5,-187.5 2069.5,-187.5 2069.5,-168.5 1920.5,-168.5"/>
<text text-anchor="middle" x="1995" y="-175.5" font-family="Helvetica,sans-Serif" font-size="10.00">OMSimPMTConstruction.hh</text>
</a>
</g>
</g>
<!-- Node2&#45;&gt;Node18 -->
<g id="edge14" class="edge">
<title>Node2&#45;&gt;Node18</title>
<path fill="none" stroke="midnightblue" d="M2080.61,-224.32C2064.33,-215.7 2039.13,-202.36 2020.28,-192.39"/>
<polygon fill="midnightblue" stroke="midnightblue" points="2021.82,-189.24 2011.35,-187.65 2018.55,-195.43 2021.82,-189.24"/>
</g>
<!-- Node2&#45;&gt;Node19 -->
<g id="edge27" class="edge">
<title>Node2&#45;&gt;Node19</title>
<path fill="none" stroke="midnightblue" d="M2046.4,-226.58C2004.86,-220.16 1945.08,-208.27 1896,-188 1864.48,-174.98 1831.79,-152.57 1811.92,-137.76"/>
<polygon fill="midnightblue" stroke="midnightblue" points="1813.82,-134.81 1803.74,-131.56 1809.59,-140.39 1813.82,-134.81"/>
</g>
<!-- Node2&#45;&gt;Node20 -->
<g id="edge31" class="edge">
<title>Node2&#45;&gt;Node20</title>
<path fill="none" stroke="midnightblue" d="M2046.15,-226.62C1997.88,-219.54 1929.97,-206.62 1911,-188 1898.78,-176.01 1894.99,-156.4 1893.97,-141.85"/>
<polygon fill="midnightblue" stroke="midnightblue" points="1897.46,-141.4 1893.65,-131.51 1890.46,-141.62 1897.46,-141.4"/>
</g>
<!-- Node2&#45;&gt;Node23 -->
<g id="edge28" class="edge">
<title>Node2&#45;&gt;Node23</title>
<path fill="none" stroke="midnightblue" d="M2117.6,-224.44C2138.99,-215.56 2172.68,-201.56 2197.02,-191.45"/>
<polygon fill="midnightblue" stroke="midnightblue" points="2198.61,-194.58 2206.5,-187.52 2195.92,-188.12 2198.61,-194.58"/>
</g>
<!-- Node2&#45;&gt;Node24 -->
<g id="edge30" class="edge">
<title>Node2&#45;&gt;Node24</title>
<path fill="none" stroke="midnightblue" d="M2135.98,-224.44C2180.16,-214.75 2252.03,-198.97 2298.4,-188.79"/>
<polygon fill="midnightblue" stroke="midnightblue" points="2299.16,-192.21 2308.18,-186.64 2297.66,-185.37 2299.16,-192.21"/>
</g>
<!-- Node2&#45;&gt;Node25 -->
<g id="edge32" class="edge">
<title>Node2&#45;&gt;Node25</title>
<path fill="none" stroke="midnightblue" d="M2147.67,-225.28C2203.3,-216.76 2295.56,-202.53 2385.15,-188.12"/>
<polygon fill="midnightblue" stroke="midnightblue" points="2385.9,-191.55 2395.22,-186.5 2384.79,-184.64 2385.9,-191.55"/>
</g>
<!-- Node3&#45;&gt;Node4 -->
<g id="edge3" class="edge">
<title>Node3&#45;&gt;Node4</title>
<path fill="none" stroke="midnightblue" d="M2139.17,-112.47C2068.02,-103.85 1954.93,-90 1847.18,-76.14"/>
<polygon fill="midnightblue" stroke="midnightblue" points="1847.47,-72.65 1837.1,-74.84 1846.57,-79.59 1847.47,-72.65"/>
</g>
<!-- Node3&#45;&gt;Node5 -->
<g id="edge4" class="edge">
<title>Node3&#45;&gt;Node5</title>
<path fill="none" stroke="midnightblue" d="M2136.43,-114.6C2108.01,-108.6 2077.27,-97.27 2056,-76 2043.93,-63.93 2039.44,-44.64 2037.81,-30.21"/>
<polygon fill="midnightblue" stroke="midnightblue" points="2041.28,-29.61 2037.03,-19.9 2034.3,-30.14 2041.28,-29.61"/>
</g>
<!-- Node3&#45;&gt;Node6 -->
<g id="edge5" class="edge">
<title>Node3&#45;&gt;Node6</title>
<path fill="none" stroke="midnightblue" d="M2282.79,-112.47C2372.15,-102.01 2522.26,-84.42 2607.26,-74.47"/>
<polygon fill="midnightblue" stroke="midnightblue" points="2607.77,-77.93 2617.29,-73.29 2606.96,-70.98 2607.77,-77.93"/>
</g>
<!-- Node3&#45;&gt;Node7 -->
<g id="edge6" class="edge">
<title>Node3&#45;&gt;Node7</title>
<path fill="none" stroke="midnightblue" d="M2214.13,-112.08C2217.51,-104.77 2222.42,-94.18 2226.62,-85.1"/>
<polygon fill="midnightblue" stroke="midnightblue" points="2229.92,-86.3 2230.95,-75.75 2223.57,-83.36 2229.92,-86.3"/>
</g>
<!-- Node3&#45;&gt;Node8 -->
<g id="edge7" class="edge">
<title>Node3&#45;&gt;Node8</title>
<path fill="none" stroke="midnightblue" d="M2162.94,-112.44C2110.59,-102.92 2026.01,-87.55 1969.96,-77.36"/>
<polygon fill="midnightblue" stroke="midnightblue" points="1970.31,-73.86 1959.84,-75.52 1969.05,-80.75 1970.31,-73.86"/>
</g>
<!-- Node3&#45;&gt;Node14 -->
<g id="edge10" class="edge">
<title>Node3&#45;&gt;Node14</title>
<path fill="none" stroke="midnightblue" d="M2235.35,-112.44C2262.27,-103.36 2305,-88.94 2335.09,-78.78"/>
<polygon fill="midnightblue" stroke="midnightblue" points="2336.41,-82.03 2344.77,-75.52 2334.17,-75.4 2336.41,-82.03"/>
</g>
<!-- Node3&#45;&gt;Node15 -->
<g id="edge11" class="edge">
<title>Node3&#45;&gt;Node15</title>
<path fill="none" stroke="midnightblue" d="M2256.9,-112.44C2309.08,-102.92 2393.37,-87.55 2449.23,-77.36"/>
<polygon fill="midnightblue" stroke="midnightblue" points="2450.11,-80.75 2459.32,-75.52 2448.85,-73.87 2450.11,-80.75"/>
</g>
<!-- Node16 -->
<g id="node12" class="node">
<title>Node16</title>
<g id="a_node12"><a xlink:title=" ">
<polygon fill="white" stroke="#bfbfbf" points="2065,-56.5 2065,-75.5 2163,-75.5 2163,-56.5 2065,-56.5"/>
<text text-anchor="middle" x="2114" y="-63.5" font-family="Helvetica,sans-Serif" font-size="10.00">G4MultiUnion.hh</text>
</a>
</g>
</g>
<!-- Node3&#45;&gt;Node16 -->
<g id="edge12" class="edge">
<title>Node3&#45;&gt;Node16</title>
<path fill="none" stroke="midnightblue" d="M2194.58,-112.32C2179.46,-103.82 2156.18,-90.73 2138.53,-80.8"/>
<polygon fill="midnightblue" stroke="midnightblue" points="2139.82,-77.51 2129.39,-75.65 2136.39,-83.61 2139.82,-77.51"/>
</g>
<!-- Node17 -->
<g id="node13" class="node">
<title>Node17</title>
<g id="a_node13"><a xlink:title=" ">
<polygon fill="white" stroke="#bfbfbf" points="1647,-56.5 1647,-75.5 1703,-75.5 1703,-56.5 1647,-56.5"/>
<text text-anchor="middle" x="1675" y="-63.5" font-family="Helvetica,sans-Serif" font-size="10.00">sstream</text>
</a>
</g>
</g>
<!-- Node3&#45;&gt;Node17 -->
<g id="edge13" class="edge">
<title>Node3&#45;&gt;Node17</title>
<path fill="none" stroke="midnightblue" d="M2136.16,-117.76C2040.64,-112.8 1869.02,-101.29 1713.42,-76"/>
<polygon fill="midnightblue" stroke="midnightblue" points="1713.63,-72.49 1703.19,-74.31 1712.49,-79.4 1713.63,-72.49"/>
</g>
<!-- Node8&#45;&gt;Node5 -->
<g id="edge9" class="edge">
<title>Node8&#45;&gt;Node5</title>
<path fill="none" stroke="midnightblue" d="M1932.65,-56.44C1952.96,-47.6 1984.9,-33.69 2008.1,-23.59"/>
<polygon fill="midnightblue" stroke="midnightblue" points="2009.67,-26.72 2017.44,-19.52 2006.88,-20.3 2009.67,-26.72"/>
</g>
<!-- Node11 -->
<g id="node9" class="node">
<title>Node11</title>
<g id="a_node9"><a xlink:title=" ">
<polygon fill="white" stroke="#bfbfbf" points="1408,-0.5 1408,-19.5 1494,-19.5 1494,-0.5 1408,-0.5"/>
<text text-anchor="middle" x="1451" y="-7.5" font-family="Helvetica,sans-Serif" font-size="10.00">G4Material.hh</text>
</a>
</g>
</g>
<!-- Node8&#45;&gt;Node11 -->
<g id="edge8" class="edge">
<title>Node8&#45;&gt;Node11</title>
<path fill="none" stroke="midnightblue" d="M1855.27,-57.17C1852.13,-56.77 1849.03,-56.38 1846,-56 1724,-40.86 1580.54,-25 1504.55,-16.76"/>
<polygon fill="midnightblue" stroke="midnightblue" points="1504.61,-13.24 1494.29,-15.64 1503.85,-20.2 1504.61,-13.24"/>
</g>
<!-- Node18&#45;&gt;Node3 -->
<g id="edge15" class="edge">
<title>Node18&#45;&gt;Node3</title>
<path fill="none" stroke="midnightblue" d="M2029.07,-168.44C2066.18,-159.12 2125.66,-144.18 2166.21,-134"/>
<polygon fill="midnightblue" stroke="midnightblue" points="2167.25,-137.35 2176.09,-131.52 2165.54,-130.56 2167.25,-137.35"/>
</g>
<!-- Node18&#45;&gt;Node4 -->
<g id="edge16" class="edge">
<title>Node18&#45;&gt;Node4</title>
<path fill="none" stroke="midnightblue" d="M1994.22,-168.39C1992.46,-154.4 1986.94,-126.79 1970,-112 1951.67,-96 1894.33,-83.85 1847.22,-76.23"/>
<polygon fill="midnightblue" stroke="midnightblue" points="1847.76,-72.77 1837.34,-74.67 1846.67,-79.68 1847.76,-72.77"/>
</g>
<!-- Node18&#45;&gt;Node5 -->
<g id="edge17" class="edge">
<title>Node18&#45;&gt;Node5</title>
<path fill="none" stroke="midnightblue" d="M2002.63,-168.41C2009.75,-159.84 2020,-145.97 2025,-132 2037.34,-97.49 2038.46,-54.15 2037.91,-29.82"/>
<polygon fill="midnightblue" stroke="midnightblue" points="2041.39,-29.39 2037.54,-19.52 2034.4,-29.64 2041.39,-29.39"/>
</g>
<!-- Node18&#45;&gt;Node7 -->
<g id="edge19" class="edge">
<title>Node18&#45;&gt;Node7</title>
<path fill="none" stroke="midnightblue" d="M2011.51,-168.45C2036.35,-155.69 2084.9,-131.11 2127,-112 2152.66,-100.35 2182.23,-88.11 2203.94,-79.34"/>
<polygon fill="midnightblue" stroke="midnightblue" points="2205.34,-82.55 2213.31,-75.57 2202.73,-76.05 2205.34,-82.55"/>
</g>
<!-- Node18&#45;&gt;Node8 -->
<g id="edge22" class="edge">
<title>Node18&#45;&gt;Node8</title>
<path fill="none" stroke="midnightblue" d="M2000.44,-168.28C2007.9,-155.09 2019.2,-129.7 2008,-112 1997.95,-96.13 1980.63,-85.74 1963.5,-79"/>
<polygon fill="midnightblue" stroke="midnightblue" points="1964.65,-75.69 1954.05,-75.62 1962.29,-82.28 1964.65,-75.69"/>
</g>
<!-- Node18&#45;&gt;Node14 -->
<g id="edge20" class="edge">
<title>Node18&#45;&gt;Node14</title>
<path fill="none" stroke="midnightblue" d="M2069.79,-170.3C2144.44,-162.78 2253.41,-149.35 2292,-132 2317.23,-120.66 2340.84,-98.79 2355.33,-83.57"/>
<polygon fill="midnightblue" stroke="midnightblue" points="2358.2,-85.63 2362.4,-75.91 2353.05,-80.89 2358.2,-85.63"/>
</g>
<!-- Node18&#45;&gt;Node15 -->
<g id="edge21" class="edge">
<title>Node18&#45;&gt;Node15</title>
<path fill="none" stroke="midnightblue" d="M2069.5,-171.08C2136.31,-164.76 2236.66,-152.72 2322,-132 2377.97,-118.41 2440.76,-94.2 2476.61,-79.47"/>
<polygon fill="midnightblue" stroke="midnightblue" points="2478.09,-82.65 2485.99,-75.59 2475.41,-76.18 2478.09,-82.65"/>
</g>
<!-- Node18&#45;&gt;Node19 -->
<g id="edge18" class="edge">
<title>Node18&#45;&gt;Node19</title>
<path fill="none" stroke="midnightblue" d="M1962.99,-168.44C1928.27,-159.16 1872.71,-144.31 1834.62,-134.13"/>
<polygon fill="midnightblue" stroke="midnightblue" points="1835.42,-130.72 1824.86,-131.52 1833.61,-137.48 1835.42,-130.72"/>
</g>
<!-- Node18&#45;&gt;Node20 -->
<g id="edge23" class="edge">
<title>Node18&#45;&gt;Node20</title>
<path fill="none" stroke="midnightblue" d="M1978.77,-168.32C1962.65,-159.7 1937.7,-146.36 1919.04,-136.39"/>
<polygon fill="midnightblue" stroke="midnightblue" points="1920.66,-133.28 1910.19,-131.65 1917.36,-139.46 1920.66,-133.28"/>
</g>
<!-- Node22 -->
<g id="node17" class="node">
<title>Node22</title>
<g id="a_node17"><a xlink:title=" ">
<polygon fill="white" stroke="#bfbfbf" points="1591,-56.5 1591,-75.5 1629,-75.5 1629,-56.5 1591,-56.5"/>
<text text-anchor="middle" x="1610" y="-63.5" font-family="Helvetica,sans-Serif" font-size="10.00">map</text>
</a>
</g>
</g>
<!-- Node18&#45;&gt;Node22 -->
<g id="edge24" class="edge">
<title>Node18&#45;&gt;Node22</title>
<path fill="none" stroke="midnightblue" d="M1990.11,-168.46C1981.34,-154.04 1961.45,-125.15 1936,-112 1820.38,-52.25 1770.76,-101.98 1639.18,-75.8"/>
<polygon fill="midnightblue" stroke="midnightblue" points="1639.65,-72.32 1629.15,-73.69 1638.21,-79.17 1639.65,-72.32"/>
</g>
<!-- Node38&#45;&gt;Node4 -->
<g id="edge68" class="edge">
<title>Node38&#45;&gt;Node4</title>
<path fill="none" stroke="midnightblue" d="M1027.71,-119.53C1135.65,-115.32 1443.66,-101.89 1710.65,-76.06"/>
<polygon fill="midnightblue" stroke="midnightblue" points="1711.31,-79.51 1720.92,-75.06 1710.63,-72.55 1711.31,-79.51"/>
</g>
<!-- Node38&#45;&gt;Node11 -->
<g id="edge69" class="edge">
<title>Node38&#45;&gt;Node11</title>
<path fill="none" stroke="midnightblue" d="M987.71,-112.21C987.77,-97.96 990.19,-69.98 1007,-56 1036.5,-31.47 1286.13,-17.96 1397.61,-13.1"/>
<polygon fill="midnightblue" stroke="midnightblue" points="1397.79,-16.6 1407.63,-12.67 1397.49,-9.6 1397.79,-16.6"/>
</g>
<!-- Node38&#45;&gt;Node17 -->
<g id="edge75" class="edge">
<title>Node38&#45;&gt;Node17</title>
<path fill="none" stroke="midnightblue" d="M1027.83,-120.59C1128.44,-119.04 1400.98,-111.75 1636.68,-75.94"/>
<polygon fill="midnightblue" stroke="midnightblue" points="1637.47,-79.36 1646.82,-74.38 1636.4,-72.44 1637.47,-79.36"/>
</g>
<!-- Node38&#45;&gt;Node22 -->
<g id="edge60" class="edge">
<title>Node38&#45;&gt;Node22</title>
<path fill="none" stroke="midnightblue" d="M1027.61,-121.06C1123.49,-120.53 1375.37,-115.19 1581,-76 1581.1,-75.98 1581.2,-75.96 1581.3,-75.94"/>
<polygon fill="midnightblue" stroke="midnightblue" points="1581.93,-79.39 1590.81,-73.62 1580.27,-72.59 1581.93,-79.39"/>
</g>
<!-- Node39 -->
<g id="node34" class="node">
<title>Node39</title>
<g id="a_node34"><a xlink:title=" ">
<polygon fill="white" stroke="#bfbfbf" points="1016,-56.5 1016,-75.5 1090,-75.5 1090,-56.5 1016,-56.5"/>
<text text-anchor="middle" x="1053" y="-63.5" font-family="Helvetica,sans-Serif" font-size="10.00">G4String.hh</text>
</a>
</g>
</g>
<!-- Node38&#45;&gt;Node39 -->
<g id="edge58" class="edge">
<title>Node38&#45;&gt;Node39</title>
<path fill="none" stroke="midnightblue" d="M998.44,-112.32C1008.15,-104.26 1022.82,-92.08 1034.5,-82.37"/>
<polygon fill="midnightblue" stroke="midnightblue" points="1036.91,-84.92 1042.37,-75.83 1032.44,-79.53 1036.91,-84.92"/>
</g>
<!-- Node40 -->
<g id="node35" class="node">
<title>Node40</title>
<g id="a_node35"><a xlink:title=" ">
<polygon fill="white" stroke="#bfbfbf" points="1108,-56.5 1108,-75.5 1172,-75.5 1172,-56.5 1108,-56.5"/>
<text text-anchor="middle" x="1140" y="-63.5" font-family="Helvetica,sans-Serif" font-size="10.00">algorithm</text>
</a>
</g>
</g>
<!-- Node38&#45;&gt;Node40 -->
<g id="edge59" class="edge">
<title>Node38&#45;&gt;Node40</title>
<path fill="none" stroke="midnightblue" d="M1012.08,-112.44C1037.54,-103.4 1077.89,-89.06 1106.46,-78.92"/>
<polygon fill="midnightblue" stroke="midnightblue" points="1107.78,-82.16 1116.03,-75.52 1105.43,-75.57 1107.78,-82.16"/>
</g>
<!-- Node41 -->
<g id="node36" class="node">
<title>Node41</title>
<g id="a_node36"><a xlink:title=" ">
<polygon fill="white" stroke="#bfbfbf" points="1190.5,-56.5 1190.5,-75.5 1293.5,-75.5 1293.5,-56.5 1190.5,-56.5"/>
<text text-anchor="middle" x="1242" y="-63.5" font-family="Helvetica,sans-Serif" font-size="10.00">G4ThreeVector.hh</text>
</a>
</g>
</g>
<!-- Node38&#45;&gt;Node41 -->
<g id="edge61" class="edge">
<title>Node38&#45;&gt;Node41</title>
<path fill="none" stroke="midnightblue" d="M1027.69,-112.56C1071.98,-103.15 1143.72,-87.89 1191.86,-77.66"/>
<polygon fill="midnightblue" stroke="midnightblue" points="1192.7,-81.06 1201.75,-75.56 1191.24,-74.21 1192.7,-81.06"/>
</g>
<!-- Node42 -->
<g id="node37" class="node">
<title>Node42</title>
<g id="a_node37"><a xlink:title=" ">
<polygon fill="white" stroke="#bfbfbf" points="1311.5,-56.5 1311.5,-75.5 1430.5,-75.5 1430.5,-56.5 1311.5,-56.5"/>
<text text-anchor="middle" x="1371" y="-63.5" font-family="Helvetica,sans-Serif" font-size="10.00">G4TriangularFacet.hh</text>
</a>
</g>
</g>
<!-- Node38&#45;&gt;Node42 -->
<g id="edge62" class="edge">
<title>Node38&#45;&gt;Node42</title>
<path fill="none" stroke="midnightblue" d="M1027.55,-115.42C1092.15,-106.32 1221.16,-88.13 1301.37,-76.82"/>
<polygon fill="midnightblue" stroke="midnightblue" points="1301.97,-80.27 1311.39,-75.4 1301,-73.34 1301.97,-80.27"/>
</g>
<!-- Node43 -->
<g id="node38" class="node">
<title>Node43</title>
<g id="a_node38"><a xlink:title=" ">
<polygon fill="white" stroke="#bfbfbf" points="1449,-56.5 1449,-75.5 1507,-75.5 1507,-56.5 1449,-56.5"/>
<text text-anchor="middle" x="1478" y="-63.5" font-family="Helvetica,sans-Serif" font-size="10.00">memory</text>
</a>
</g>
</g>
<!-- Node38&#45;&gt;Node43 -->
<g id="edge63" class="edge">
<title>Node38&#45;&gt;Node43</title>
<path fill="none" stroke="midnightblue" d="M1027.74,-118.74C1104.96,-113.98 1280.77,-101.36 1438.79,-75.81"/>
<polygon fill="midnightblue" stroke="midnightblue" points="1439.39,-79.26 1448.69,-74.18 1438.26,-72.35 1439.39,-79.26"/>
</g>
<!-- Node44 -->
<g id="node39" class="node">
<title>Node44</title>
<g id="a_node39"><a xlink:title=" ">
<polygon fill="white" stroke="#bfbfbf" points="1525.5,-56.5 1525.5,-75.5 1572.5,-75.5 1572.5,-56.5 1525.5,-56.5"/>
<text text-anchor="middle" x="1549" y="-63.5" font-family="Helvetica,sans-Serif" font-size="10.00">vector</text>
</a>
</g>
</g>
<!-- Node38&#45;&gt;Node44 -->
<g id="edge64" class="edge">
<title>Node38&#45;&gt;Node44</title>
<path fill="none" stroke="midnightblue" d="M1027.73,-120.07C1114.57,-117.51 1327.84,-108.36 1515.29,-75.78"/>
<polygon fill="midnightblue" stroke="midnightblue" points="1516.08,-79.19 1525.32,-74.01 1514.87,-72.3 1516.08,-79.19"/>
</g>
<!-- Node45 -->
<g id="node40" class="node">
<title>Node45</title>
<g id="a_node40"><a xlink:title=" ">
<polygon fill="white" stroke="#bfbfbf" points="0,-56.5 0,-75.5 60,-75.5 60,-56.5 0,-56.5"/>
<text text-anchor="middle" x="30" y="-63.5" font-family="Helvetica,sans-Serif" font-size="10.00">iostream</text>
</a>
</g>
</g>
<!-- Node38&#45;&gt;Node45 -->
<g id="edge65" class="edge">
<title>Node38&#45;&gt;Node45</title>
<path fill="none" stroke="midnightblue" d="M948.35,-121.57C821.57,-122.85 414.66,-122.87 70.06,-75.88"/>
<polygon fill="midnightblue" stroke="midnightblue" points="70.52,-72.41 60.14,-74.51 69.56,-79.35 70.52,-72.41"/>
</g>
<!-- Node46 -->
<g id="node41" class="node">
<title>Node46</title>
<g id="a_node41"><a xlink:title=" ">
<polygon fill="white" stroke="#bfbfbf" points="78,-56.5 78,-75.5 122,-75.5 122,-56.5 78,-56.5"/>
<text text-anchor="middle" x="100" y="-63.5" font-family="Helvetica,sans-Serif" font-size="10.00">string</text>
</a>
</g>
</g>
<!-- Node38&#45;&gt;Node46 -->
<g id="edge66" class="edge">
<title>Node38&#45;&gt;Node46</title>
<path fill="none" stroke="midnightblue" d="M948.3,-120.13C804.54,-116.78 310.71,-103.64 132.24,-75.75"/>
<polygon fill="midnightblue" stroke="midnightblue" points="132.64,-72.27 122.21,-74.11 131.51,-79.18 132.64,-72.27"/>
</g>
<!-- Node47 -->
<g id="node42" class="node">
<title>Node47</title>
<g id="a_node42"><a xlink:title=" ">
<polygon fill="white" stroke="#bfbfbf" points="140,-56.5 140,-75.5 270,-75.5 270,-56.5 140,-56.5"/>
<text text-anchor="middle" x="205" y="-63.5" font-family="Helvetica,sans-Serif" font-size="10.00">G4AssemblyVolume.hh</text>
</a>
</g>
</g>
<!-- Node38&#45;&gt;Node47 -->
<g id="edge67" class="edge">
<title>Node38&#45;&gt;Node47</title>
<path fill="none" stroke="midnightblue" d="M948.35,-119.29C841.99,-114.52 541.3,-99.91 280.39,-76.08"/>
<polygon fill="midnightblue" stroke="midnightblue" points="280.63,-72.59 270.35,-75.15 279.99,-79.56 280.63,-72.59"/>
</g>
<!-- Node48 -->
<g id="node43" class="node">
<title>Node48</title>
<g id="a_node43"><a xlink:title=" ">
<polygon fill="white" stroke="#bfbfbf" points="288,-56.5 288,-75.5 412,-75.5 412,-56.5 288,-56.5"/>
<text text-anchor="middle" x="350" y="-63.5" font-family="Helvetica,sans-Serif" font-size="10.00">G4TessellatedSolid.hh</text>
</a>
</g>
</g>
<!-- Node38&#45;&gt;Node48 -->
<g id="edge70" class="edge">
<title>Node38&#45;&gt;Node48</title>
<path fill="none" stroke="midnightblue" d="M948.42,-118.5C857.45,-112.62 626.29,-96.88 422.32,-76.09"/>
<polygon fill="midnightblue" stroke="midnightblue" points="422.62,-72.61 412.32,-75.07 421.91,-79.57 422.62,-72.61"/>
</g>
<!-- Node49 -->
<g id="node44" class="node">
<title>Node49</title>
<g id="a_node44"><a xlink:title=" ">
<polygon fill="white" stroke="#bfbfbf" points="430.5,-56.5 430.5,-75.5 489.5,-75.5 489.5,-56.5 430.5,-56.5"/>
<text text-anchor="middle" x="460" y="-63.5" font-family="Helvetica,sans-Serif" font-size="10.00">G4Tet.hh</text>
</a>
</g>
</g>
<!-- Node38&#45;&gt;Node49 -->
<g id="edge71" class="edge">
<title>Node38&#45;&gt;Node49</title>
<path fill="none" stroke="midnightblue" d="M948.48,-119.18C866.6,-115.01 672.41,-103.1 499.76,-75.9"/>
<polygon fill="midnightblue" stroke="midnightblue" points="500.16,-72.42 489.73,-74.3 499.05,-79.33 500.16,-72.42"/>
</g>
<!-- Node50 -->
<g id="node45" class="node">
<title>Node50</title>
<g id="a_node45"><a xlink:title=" ">
<polygon fill="white" stroke="#bfbfbf" points="508,-56.5 508,-75.5 612,-75.5 612,-56.5 508,-56.5"/>
<text text-anchor="middle" x="560" y="-63.5" font-family="Helvetica,sans-Serif" font-size="10.00">G4UIcommand.hh</text>
</a>
</g>
</g>
<!-- Node38&#45;&gt;Node50 -->
<g id="edge72" class="edge">
<title>Node38&#45;&gt;Node50</title>
<path fill="none" stroke="midnightblue" d="M948.31,-116.46C882.73,-108.88 747.34,-92.94 622.36,-76.16"/>
<polygon fill="midnightblue" stroke="midnightblue" points="622.61,-72.66 612.23,-74.79 621.67,-79.6 622.61,-72.66"/>
</g>
<!-- Node51 -->
<g id="node46" class="node">
<title>Node51</title>
<g id="a_node46"><a xlink:title=" ">
<polygon fill="white" stroke="#bfbfbf" points="630.5,-56.5 630.5,-75.5 697.5,-75.5 697.5,-56.5 630.5,-56.5"/>
<text text-anchor="middle" x="664" y="-63.5" font-family="Helvetica,sans-Serif" font-size="10.00">globals.hh</text>
</a>
</g>
</g>
<!-- Node38&#45;&gt;Node51 -->
<g id="edge73" class="edge">
<title>Node38&#45;&gt;Node51</title>
<path fill="none" stroke="midnightblue" d="M948.19,-115.32C895.4,-107.65 799.09,-93.13 707.85,-76.28"/>
<polygon fill="midnightblue" stroke="midnightblue" points="708.37,-72.81 697.9,-74.42 707.09,-79.69 708.37,-72.81"/>
</g>
<!-- Node52 -->
<g id="node47" class="node">
<title>Node52</title>
<g id="a_node47"><a xlink:title=" ">
<polygon fill="white" stroke="#bfbfbf" points="715.5,-56.5 715.5,-75.5 770.5,-75.5 770.5,-56.5 715.5,-56.5"/>
<text text-anchor="middle" x="743" y="-63.5" font-family="Helvetica,sans-Serif" font-size="10.00">fstream</text>
</a>
</g>
</g>
<!-- Node38&#45;&gt;Node52 -->
<g id="edge74" class="edge">
<title>Node38&#45;&gt;Node52</title>
<path fill="none" stroke="midnightblue" d="M948.24,-112.84C908.18,-104.54 844.36,-91.06 780.69,-76.34"/>
<polygon fill="midnightblue" stroke="midnightblue" points="781.42,-72.92 770.89,-74.07 779.84,-79.74 781.42,-72.92"/>
</g>
<!-- Node53 -->
<g id="node48" class="node">
<title>Node53</title>
<g id="a_node48"><a xlink:title=" ">
<polygon fill="white" stroke="#bfbfbf" points="788.5,-56.5 788.5,-75.5 855.5,-75.5 855.5,-56.5 788.5,-56.5"/>
<text text-anchor="middle" x="822" y="-63.5" font-family="Helvetica,sans-Serif" font-size="10.00">streambuf</text>
</a>
</g>
</g>
<!-- Node38&#45;&gt;Node53 -->
<g id="edge76" class="edge">
<title>Node38&#45;&gt;Node53</title>
<path fill="none" stroke="midnightblue" d="M961.7,-112.44C933.65,-103.32 889.06,-88.81 857.82,-78.65"/>
<polygon fill="midnightblue" stroke="midnightblue" points="858.77,-75.28 848.18,-75.52 856.61,-81.94 858.77,-75.28"/>
</g>
<!-- Node54 -->
<g id="node49" class="node">
<title>Node54</title>
<g id="a_node49"><a xlink:title=" ">
<polygon fill="white" stroke="#bfbfbf" points="874,-56.5 874,-75.5 960,-75.5 960,-56.5 874,-56.5"/>
<text text-anchor="middle" x="917" y="-63.5" font-family="Helvetica,sans-Serif" font-size="10.00">Randomize.hh</text>
</a>
</g>
</g>
<!-- Node38&#45;&gt;Node54 -->
<g id="edge77" class="edge">
<title>Node38&#45;&gt;Node54</title>
<path fill="none" stroke="midnightblue" d="M976.59,-112.32C965.89,-104.18 949.66,-91.84 936.84,-82.09"/>
<polygon fill="midnightblue" stroke="midnightblue" points="938.69,-79.1 928.61,-75.83 934.46,-84.67 938.69,-79.1"/>
</g>
</g>
</svg>
