<?xml version="1.0" encoding="UTF-8" standalone="no"?>
<!DOCTYPE svg PUBLIC "-//W3C//DTD SVG 1.1//EN"
 "http://www.w3.org/Graphics/SVG/1.1/DTD/svg11.dtd">
<!-- Generated by graphviz version 2.43.0 (0)
 -->
<!-- Title: OMSimPMTResponse.cc Pages: 1 -->
<svg width="1445pt" height="151pt"
 viewBox="0.00 0.00 1444.50 151.00" xmlns="http://www.w3.org/2000/svg" xmlns:xlink="http://www.w3.org/1999/xlink">
<g id="graph0" class="graph" transform="scale(1 1) rotate(0) translate(4 147)">
<title>OMSimPMTResponse.cc</title>
<polygon fill="white" stroke="transparent" points="-4,4 -4,-147 1440.5,-147 1440.5,4 -4,4"/>
<!-- Node1 -->
<g id="node1" class="node">
<title>Node1</title>
<g id="a_node1"><a xlink:title="PMT response simulator.">
<polygon fill="#bfbfbf" stroke="black" points="969.5,-123.5 969.5,-142.5 1103.5,-142.5 1103.5,-123.5 969.5,-123.5"/>
<text text-anchor="middle" x="1036.5" y="-130.5" font-family="Helvetica,sans-Serif" font-size="10.00">OMSimPMTResponse.cc</text>
</a>
</g>
</g>
<!-- Node2 -->
<g id="node2" class="node">
<title>Node2</title>
<g id="a_node2"><a xlink:href="_o_m_sim_p_m_t_response_8hh.html" target="_top" xlink:title=" ">
<polygon fill="white" stroke="black" points="921,-67.5 921,-86.5 1056,-86.5 1056,-67.5 921,-67.5"/>
<text text-anchor="middle" x="988.5" y="-74.5" font-family="Helvetica,sans-Serif" font-size="10.00">OMSimPMTResponse.hh</text>
</a>
</g>
</g>
<!-- Node1&#45;&gt;Node2 -->
<g id="edge1" class="edge">
<title>Node1&#45;&gt;Node2</title>
<path fill="none" stroke="midnightblue" d="M1028.57,-123.08C1021.65,-115.3 1011.43,-103.8 1003.05,-94.37"/>
<polygon fill="midnightblue" stroke="midnightblue" points="1005.54,-91.9 996.28,-86.75 1000.31,-96.55 1005.54,-91.9"/>
</g>
<!-- Node3 -->
<g id="node3" class="node">
<title>Node3</title>
<g id="a_node3"><a xlink:title=" ">
<polygon fill="white" stroke="#bfbfbf" points="653,-6 653,-25 772,-25 772,-6 653,-6"/>
<text text-anchor="middle" x="712.5" y="-13" font-family="Helvetica,sans-Serif" font-size="10.00">G4SystemOfUnits.hh</text>
</a>
</g>
</g>
<!-- Node1&#45;&gt;Node3 -->
<g id="edge12" class="edge">
<title>Node1&#45;&gt;Node3</title>
<path fill="none" stroke="midnightblue" d="M998.41,-123.45C964.42,-115.41 913.54,-102.33 870.5,-87 823.01,-70.08 769.88,-45.05 738.91,-29.81"/>
<polygon fill="midnightblue" stroke="midnightblue" points="740.19,-26.53 729.67,-25.23 737.08,-32.8 740.19,-26.53"/>
</g>
<!-- Node4 -->
<g id="node4" class="node">
<title>Node4</title>
<g id="a_node4"><a xlink:title=" ">
<polygon fill="white" stroke="#bfbfbf" points="790,-6 790,-25 863,-25 863,-6 790,-6"/>
<text text-anchor="middle" x="826.5" y="-13" font-family="Helvetica,sans-Serif" font-size="10.00">G4Types.hh</text>
</a>
</g>
</g>
<!-- Node1&#45;&gt;Node4 -->
<g id="edge13" class="edge">
<title>Node1&#45;&gt;Node4</title>
<path fill="none" stroke="midnightblue" d="M996.46,-123.5C968.52,-116.44 931.09,-104.66 901.5,-87 877.16,-72.47 854.19,-48.88 840.23,-33.03"/>
<polygon fill="midnightblue" stroke="midnightblue" points="842.63,-30.45 833.46,-25.14 837.31,-35 842.63,-30.45"/>
</g>
<!-- Node5 -->
<g id="node5" class="node">
<title>Node5</title>
<g id="a_node5"><a xlink:title=" ">
<polygon fill="white" stroke="#bfbfbf" points="881,-6 881,-25 946,-25 946,-6 881,-6"/>
<text text-anchor="middle" x="913.5" y="-13" font-family="Helvetica,sans-Serif" font-size="10.00">functional</text>
</a>
</g>
</g>
<!-- Node1&#45;&gt;Node5 -->
<g id="edge15" class="edge">
<title>Node1&#45;&gt;Node5</title>
<path fill="none" stroke="midnightblue" d="M969.25,-123.45C947.18,-117.08 924.9,-106.06 911.5,-87 900.96,-72.01 903.43,-50.45 907.3,-35.12"/>
<polygon fill="midnightblue" stroke="midnightblue" points="910.74,-35.83 910.2,-25.25 904.02,-33.86 910.74,-35.83"/>
</g>
<!-- Node7 -->
<g id="node7" class="node">
<title>Node7</title>
<g id="a_node7"><a xlink:title=" ">
<polygon fill="white" stroke="#bfbfbf" points="1021,-6 1021,-25 1082,-25 1082,-6 1021,-6"/>
<text text-anchor="middle" x="1051.5" y="-13" font-family="Helvetica,sans-Serif" font-size="10.00">TGraph.h</text>
</a>
</g>
</g>
<!-- Node1&#45;&gt;Node7 -->
<g id="edge17" class="edge">
<title>Node1&#45;&gt;Node7</title>
<path fill="none" stroke="midnightblue" d="M1043.91,-123.41C1050.78,-114.84 1060.51,-100.98 1064.5,-87 1069.46,-69.64 1064.63,-49.33 1059.51,-34.97"/>
<polygon fill="midnightblue" stroke="midnightblue" points="1062.62,-33.32 1055.69,-25.31 1056.11,-35.89 1062.62,-33.32"/>
</g>
<!-- Node8 -->
<g id="node8" class="node">
<title>Node8</title>
<g id="a_node8"><a xlink:title=" ">
<polygon fill="white" stroke="#bfbfbf" points="1100.5,-6 1100.5,-25 1174.5,-25 1174.5,-6 1100.5,-6"/>
<text text-anchor="middle" x="1137.5" y="-13" font-family="Helvetica,sans-Serif" font-size="10.00">TGraph2D.h</text>
</a>
</g>
</g>
<!-- Node1&#45;&gt;Node8 -->
<g id="edge16" class="edge">
<title>Node1&#45;&gt;Node8</title>
<path fill="none" stroke="midnightblue" d="M1045.52,-123.27C1054.6,-114.37 1068.88,-100.06 1080.5,-87 1096.27,-69.28 1113.23,-47.98 1124.51,-33.47"/>
<polygon fill="midnightblue" stroke="midnightblue" points="1127.4,-35.46 1130.74,-25.4 1121.86,-31.18 1127.4,-35.46"/>
</g>
<!-- Node9 -->
<g id="node9" class="node">
<title>Node9</title>
<g id="a_node9"><a xlink:title=" ">
<polygon fill="white" stroke="#bfbfbf" points="1193,-6 1193,-25 1246,-25 1246,-6 1193,-6"/>
<text text-anchor="middle" x="1219.5" y="-13" font-family="Helvetica,sans-Serif" font-size="10.00">TH2D.h</text>
</a>
</g>
</g>
<!-- Node1&#45;&gt;Node9 -->
<g id="edge25" class="edge">
<title>Node1&#45;&gt;Node9</title>
<path fill="none" stroke="midnightblue" d="M1050.25,-123.32C1081.52,-103.59 1158.18,-55.2 1196.67,-30.91"/>
<polygon fill="midnightblue" stroke="midnightblue" points="1199,-33.58 1205.59,-25.28 1195.26,-27.66 1199,-33.58"/>
</g>
<!-- Node10 -->
<g id="node10" class="node">
<title>Node10</title>
<g id="a_node10"><a xlink:href="_o_m_sim_logger_8hh.html" target="_top" xlink:title=" ">
<polygon fill="white" stroke="black" points="1233,-67.5 1233,-86.5 1332,-86.5 1332,-67.5 1233,-67.5"/>
<text text-anchor="middle" x="1282.5" y="-74.5" font-family="Helvetica,sans-Serif" font-size="10.00">OMSimLogger.hh</text>
</a>
</g>
</g>
<!-- Node1&#45;&gt;Node10 -->
<g id="edge9" class="edge">
<title>Node1&#45;&gt;Node10</title>
<path fill="none" stroke="midnightblue" d="M1075.48,-123.44C1118.39,-114.02 1187.45,-98.87 1233.87,-88.68"/>
<polygon fill="midnightblue" stroke="midnightblue" points="1234.69,-92.08 1243.7,-86.52 1233.19,-85.24 1234.69,-92.08"/>
</g>
<!-- Node13 -->
<g id="node13" class="node">
<title>Node13</title>
<g id="a_node13"><a xlink:title=" ">
<polygon fill="white" stroke="#bfbfbf" points="1350.5,-67.5 1350.5,-86.5 1436.5,-86.5 1436.5,-67.5 1350.5,-67.5"/>
<text text-anchor="middle" x="1393.5" y="-74.5" font-family="Helvetica,sans-Serif" font-size="10.00">Randomize.hh</text>
</a>
</g>
</g>
<!-- Node1&#45;&gt;Node13 -->
<g id="edge14" class="edge">
<title>Node1&#45;&gt;Node13</title>
<path fill="none" stroke="midnightblue" d="M1097.33,-123.48C1156.71,-115.06 1249.91,-101.57 1340.24,-87.17"/>
<polygon fill="midnightblue" stroke="midnightblue" points="1341.06,-90.58 1350.38,-85.55 1339.96,-83.67 1341.06,-90.58"/>
</g>
<!-- Node14 -->
<g id="node14" class="node">
<title>Node14</title>
<g id="a_node14"><a xlink:href="_o_m_sim_input_data_8hh.html" target="_top" xlink:title=" ">
<polygon fill="white" stroke="black" points="409,-67.5 409,-86.5 524,-86.5 524,-67.5 409,-67.5"/>
<text text-anchor="middle" x="466.5" y="-74.5" font-family="Helvetica,sans-Serif" font-size="10.00">OMSimInputData.hh</text>
</a>
</g>
</g>
<!-- Node1&#45;&gt;Node14 -->
<g id="edge18" class="edge">
<title>Node1&#45;&gt;Node14</title>
<path fill="none" stroke="midnightblue" d="M969.44,-125.65C860,-115.28 644.2,-94.83 534.29,-84.42"/>
<polygon fill="midnightblue" stroke="midnightblue" points="534.6,-80.94 524.31,-83.48 533.94,-87.9 534.6,-80.94"/>
</g>
<!-- Node2&#45;&gt;Node3 -->
<g id="edge2" class="edge">
<title>Node2&#45;&gt;Node3</title>
<path fill="none" stroke="midnightblue" d="M948.96,-67.48C899.67,-56.85 815.41,-38.68 761.91,-27.15"/>
<polygon fill="midnightblue" stroke="midnightblue" points="762.48,-23.7 751.97,-25.01 761.01,-30.54 762.48,-23.7"/>
</g>
<!-- Node2&#45;&gt;Node4 -->
<g id="edge3" class="edge">
<title>Node2&#45;&gt;Node4</title>
<path fill="none" stroke="midnightblue" d="M965.29,-67.48C937.5,-57.27 890.78,-40.11 859.31,-28.55"/>
<polygon fill="midnightblue" stroke="midnightblue" points="860.26,-25.17 849.67,-25.01 857.85,-31.74 860.26,-25.17"/>
</g>
<!-- Node2&#45;&gt;Node5 -->
<g id="edge4" class="edge">
<title>Node2&#45;&gt;Node5</title>
<path fill="none" stroke="midnightblue" d="M977.75,-67.48C965.95,-58.11 946.76,-42.88 932.42,-31.51"/>
<polygon fill="midnightblue" stroke="midnightblue" points="934.24,-28.48 924.23,-25.01 929.88,-33.97 934.24,-28.48"/>
</g>
<!-- Node6 -->
<g id="node6" class="node">
<title>Node6</title>
<g id="a_node6"><a xlink:title=" ">
<polygon fill="white" stroke="#bfbfbf" points="964.5,-6 964.5,-25 1002.5,-25 1002.5,-6 964.5,-6"/>
<text text-anchor="middle" x="983.5" y="-13" font-family="Helvetica,sans-Serif" font-size="10.00">map</text>
</a>
</g>
</g>
<!-- Node2&#45;&gt;Node6 -->
<g id="edge5" class="edge">
<title>Node2&#45;&gt;Node6</title>
<path fill="none" stroke="midnightblue" d="M987.78,-67.48C987.08,-59.08 985.98,-45.98 985.07,-35.16"/>
<polygon fill="midnightblue" stroke="midnightblue" points="988.54,-34.68 984.22,-25.01 981.56,-35.27 988.54,-34.68"/>
</g>
<!-- Node2&#45;&gt;Node7 -->
<g id="edge6" class="edge">
<title>Node2&#45;&gt;Node7</title>
<path fill="none" stroke="midnightblue" d="M997.53,-67.48C1007.26,-58.28 1022.96,-43.46 1034.92,-32.16"/>
<polygon fill="midnightblue" stroke="midnightblue" points="1037.62,-34.42 1042.49,-25.01 1032.82,-29.33 1037.62,-34.42"/>
</g>
<!-- Node2&#45;&gt;Node8 -->
<g id="edge7" class="edge">
<title>Node2&#45;&gt;Node8</title>
<path fill="none" stroke="midnightblue" d="M1009.85,-67.48C1035.19,-57.36 1077.64,-40.4 1106.57,-28.85"/>
<polygon fill="midnightblue" stroke="midnightblue" points="1108.2,-31.97 1116.19,-25.01 1105.61,-25.47 1108.2,-31.97"/>
</g>
<!-- Node2&#45;&gt;Node9 -->
<g id="edge8" class="edge">
<title>Node2&#45;&gt;Node9</title>
<path fill="none" stroke="midnightblue" d="M1034.75,-67.45C1074.6,-59.57 1133.46,-46.75 1183.5,-31 1185.78,-30.28 1188.11,-29.49 1190.45,-28.65"/>
<polygon fill="midnightblue" stroke="midnightblue" points="1191.8,-31.88 1199.9,-25.04 1189.31,-25.34 1191.8,-31.88"/>
</g>
<!-- Node11 -->
<g id="node11" class="node">
<title>Node11</title>
<g id="a_node11"><a xlink:title=" ">
<polygon fill="white" stroke="#bfbfbf" points="1264.5,-6 1264.5,-25 1314.5,-25 1314.5,-6 1264.5,-6"/>
<text text-anchor="middle" x="1289.5" y="-13" font-family="Helvetica,sans-Serif" font-size="10.00">stdio.h</text>
</a>
</g>
</g>
<!-- Node10&#45;&gt;Node11 -->
<g id="edge10" class="edge">
<title>Node10&#45;&gt;Node11</title>
<path fill="none" stroke="midnightblue" d="M1283.5,-67.48C1284.49,-59.08 1286.03,-45.98 1287.3,-35.16"/>
<polygon fill="midnightblue" stroke="midnightblue" points="1290.81,-35.35 1288.5,-25.01 1283.85,-34.53 1290.81,-35.35"/>
</g>
<!-- Node12 -->
<g id="node12" class="node">
<title>Node12</title>
<g id="a_node12"><a xlink:title=" ">
<polygon fill="white" stroke="#bfbfbf" points="1332.5,-6 1332.5,-25 1380.5,-25 1380.5,-6 1332.5,-6"/>
<text text-anchor="middle" x="1356.5" y="-13" font-family="Helvetica,sans-Serif" font-size="10.00">time.h</text>
</a>
</g>
</g>
<!-- Node10&#45;&gt;Node12 -->
<g id="edge11" class="edge">
<title>Node10&#45;&gt;Node12</title>
<path fill="none" stroke="midnightblue" d="M1293.1,-67.48C1304.75,-58.11 1323.69,-42.88 1337.83,-31.51"/>
<polygon fill="midnightblue" stroke="midnightblue" points="1340.32,-34 1345.92,-25.01 1335.93,-28.55 1340.32,-34"/>
</g>
<!-- Node14&#45;&gt;Node3 -->
<g id="edge24" class="edge">
<title>Node14&#45;&gt;Node3</title>
<path fill="none" stroke="midnightblue" d="M501.75,-67.48C545.4,-56.92 619.84,-38.91 667.56,-27.37"/>
<polygon fill="midnightblue" stroke="midnightblue" points="668.42,-30.76 677.32,-25.01 666.78,-23.96 668.42,-30.76"/>
</g>
<!-- Node15 -->
<g id="node15" class="node">
<title>Node15</title>
<g id="a_node15"><a xlink:title=" ">
<polygon fill="white" stroke="#bfbfbf" points="161,-0.5 161,-30.5 274,-30.5 274,-0.5 161,-0.5"/>
<text text-anchor="start" x="169" y="-18.5" font-family="Helvetica,sans-Serif" font-size="10.00">boost/property_tree</text>
<text text-anchor="middle" x="217.5" y="-7.5" font-family="Helvetica,sans-Serif" font-size="10.00">/ptree.hpp</text>
</a>
</g>
</g>
<!-- Node14&#45;&gt;Node15 -->
<g id="edge19" class="edge">
<title>Node14&#45;&gt;Node15</title>
<path fill="none" stroke="midnightblue" d="M430.82,-67.48C392.66,-58.36 331.26,-43.68 284.11,-32.42"/>
<polygon fill="midnightblue" stroke="midnightblue" points="284.81,-28.99 274.27,-30.07 283.19,-35.79 284.81,-28.99"/>
</g>
<!-- Node16 -->
<g id="node16" class="node">
<title>Node16</title>
<g id="a_node16"><a xlink:title=" ">
<polygon fill="white" stroke="#bfbfbf" points="292,-0.5 292,-30.5 405,-30.5 405,-0.5 292,-0.5"/>
<text text-anchor="start" x="300" y="-18.5" font-family="Helvetica,sans-Serif" font-size="10.00">boost/property_tree</text>
<text text-anchor="middle" x="348.5" y="-7.5" font-family="Helvetica,sans-Serif" font-size="10.00">/json_parser.hpp</text>
</a>
</g>
</g>
<!-- Node14&#45;&gt;Node16 -->
<g id="edge20" class="edge">
<title>Node14&#45;&gt;Node16</title>
<path fill="none" stroke="midnightblue" d="M449.59,-67.48C432.94,-59.08 406.95,-45.97 385.49,-35.15"/>
<polygon fill="midnightblue" stroke="midnightblue" points="386.82,-31.9 376.31,-30.52 383.66,-38.15 386.82,-31.9"/>
</g>
<!-- Node17 -->
<g id="node17" class="node">
<title>Node17</title>
<g id="a_node17"><a xlink:title=" ">
<polygon fill="white" stroke="#bfbfbf" points="423.5,-6 423.5,-25 509.5,-25 509.5,-6 423.5,-6"/>
<text text-anchor="middle" x="466.5" y="-13" font-family="Helvetica,sans-Serif" font-size="10.00">G4Material.hh</text>
</a>
</g>
</g>
<!-- Node14&#45;&gt;Node17 -->
<g id="edge21" class="edge">
<title>Node14&#45;&gt;Node17</title>
<path fill="none" stroke="midnightblue" d="M466.5,-67.48C466.5,-59.08 466.5,-45.98 466.5,-35.16"/>
<polygon fill="midnightblue" stroke="midnightblue" points="470,-35.01 466.5,-25.01 463,-35.01 470,-35.01"/>
</g>
<!-- Node18 -->
<g id="node18" class="node">
<title>Node18</title>
<g id="a_node18"><a xlink:title=" ">
<polygon fill="white" stroke="#bfbfbf" points="528,-6 528,-25 635,-25 635,-6 528,-6"/>
<text text-anchor="middle" x="581.5" y="-13" font-family="Helvetica,sans-Serif" font-size="10.00">G4NistManager.hh</text>
</a>
</g>
</g>
<!-- Node14&#45;&gt;Node18 -->
<g id="edge22" class="edge">
<title>Node14&#45;&gt;Node18</title>
<path fill="none" stroke="midnightblue" d="M482.98,-67.48C502.11,-57.58 533.87,-41.14 556.15,-29.62"/>
<polygon fill="midnightblue" stroke="midnightblue" points="557.78,-32.71 565.05,-25.01 554.56,-26.5 557.78,-32.71"/>
</g>
<!-- Node19 -->
<g id="node19" class="node">
<title>Node19</title>
<g id="a_node19"><a xlink:title=" ">
<polygon fill="white" stroke="#bfbfbf" points="0,-6 0,-25 143,-25 143,-6 0,-6"/>
<text text-anchor="middle" x="71.5" y="-13" font-family="Helvetica,sans-Serif" font-size="10.00">G4OpBoundaryProcess.hh</text>
</a>
</g>
</g>
<!-- Node14&#45;&gt;Node19 -->
<g id="edge23" class="edge">
<title>Node14&#45;&gt;Node19</title>
<path fill="none" stroke="midnightblue" d="M408.92,-68.43C345.69,-59.97 241.2,-45.53 151.5,-31 143.48,-29.7 135.01,-28.25 126.72,-26.79"/>
<polygon fill="midnightblue" stroke="midnightblue" points="127.18,-23.31 116.72,-25 125.95,-30.2 127.18,-23.31"/>
</g>
</g>
</svg>
