<?xml version="1.0" encoding="UTF-8" standalone="no"?>
<!DOCTYPE svg PUBLIC "-//W3C//DTD SVG 1.1//EN"
 "http://www.w3.org/Graphics/SVG/1.1/DTD/svg11.dtd">
<!-- Generated by graphviz version 2.43.0 (0)
 -->
<!-- Title: OMSimLOM18.cc Pages: 1 -->
<svg width="2788pt" height="375pt"
 viewBox="0.00 0.00 2787.50 375.00" xmlns="http://www.w3.org/2000/svg" xmlns:xlink="http://www.w3.org/1999/xlink">
<g id="graph0" class="graph" transform="scale(1 1) rotate(0) translate(4 371)">
<title>OMSimLOM18.cc</title>
<polygon fill="white" stroke="transparent" points="-4,4 -4,-371 2783.5,-371 2783.5,4 -4,4"/>
<!-- Node1 -->
<g id="node1" class="node">
<title>Node1</title>
<g id="a_node1"><a xlink:title="Construction of LOM18.">
<polygon fill="#bfbfbf" stroke="black" points="2204,-347.5 2204,-366.5 2303,-366.5 2303,-347.5 2204,-347.5"/>
<text text-anchor="middle" x="2253.5" y="-354.5" font-family="Helvetica,sans-Serif" font-size="10.00">OMSimLOM18.cc</text>
</a>
</g>
</g>
<!-- Node2 -->
<g id="node2" class="node">
<title>Node2</title>
<g id="a_node2"><a xlink:href="_o_m_sim_l_o_m18_8hh.html" target="_top" xlink:title=" ">
<polygon fill="white" stroke="black" points="629,-291.5 629,-310.5 730,-310.5 730,-291.5 629,-291.5"/>
<text text-anchor="middle" x="679.5" y="-298.5" font-family="Helvetica,sans-Serif" font-size="10.00">OMSimLOM18.hh</text>
</a>
</g>
</g>
<!-- Node1&#45;&gt;Node2 -->
<g id="edge1" class="edge">
<title>Node1&#45;&gt;Node2</title>
<path fill="none" stroke="midnightblue" d="M2203.79,-354.29C1971.6,-346.33 994.38,-312.8 740.16,-304.08"/>
<polygon fill="midnightblue" stroke="midnightblue" points="740.12,-300.58 730.01,-303.73 739.88,-307.57 740.12,-300.58"/>
</g>
<!-- Node18 -->
<g id="node18" class="node">
<title>Node18</title>
<g id="a_node18"><a xlink:href="_c_a_d_mesh_8hh.html" target="_top" xlink:title=" ">
<polygon fill="white" stroke="black" points="1672,-291.5 1672,-310.5 1751,-310.5 1751,-291.5 1672,-291.5"/>
<text text-anchor="middle" x="1711.5" y="-298.5" font-family="Helvetica,sans-Serif" font-size="10.00">CADMesh.hh</text>
</a>
</g>
</g>
<!-- Node1&#45;&gt;Node18 -->
<g id="edge19" class="edge">
<title>Node1&#45;&gt;Node18</title>
<path fill="none" stroke="midnightblue" d="M2203.96,-351.06C2100.88,-340.79 1864.34,-317.23 1761.15,-306.95"/>
<polygon fill="midnightblue" stroke="midnightblue" points="1761.3,-303.44 1751,-305.94 1760.61,-310.41 1761.3,-303.44"/>
</g>
<!-- Node38 -->
<g id="node38" class="node">
<title>Node38</title>
<g id="a_node38"><a xlink:href="_o_m_sim_logger_8hh.html" target="_top" xlink:title=" ">
<polygon fill="white" stroke="black" points="2204,-291.5 2204,-310.5 2303,-310.5 2303,-291.5 2204,-291.5"/>
<text text-anchor="middle" x="2253.5" y="-298.5" font-family="Helvetica,sans-Serif" font-size="10.00">OMSimLogger.hh</text>
</a>
</g>
</g>
<!-- Node1&#45;&gt;Node38 -->
<g id="edge40" class="edge">
<title>Node1&#45;&gt;Node38</title>
<path fill="none" stroke="midnightblue" d="M2253.5,-347.08C2253.5,-340.01 2253.5,-329.86 2253.5,-320.99"/>
<polygon fill="midnightblue" stroke="midnightblue" points="2257,-320.75 2253.5,-310.75 2250,-320.75 2257,-320.75"/>
</g>
<!-- Node41 -->
<g id="node41" class="node">
<title>Node41</title>
<g id="a_node41"><a xlink:title=" ">
<polygon fill="white" stroke="#bfbfbf" points="2321,-291.5 2321,-310.5 2390,-310.5 2390,-291.5 2321,-291.5"/>
<text text-anchor="middle" x="2355.5" y="-298.5" font-family="Helvetica,sans-Serif" font-size="10.00">G4Cons.hh</text>
</a>
</g>
</g>
<!-- Node1&#45;&gt;Node41 -->
<g id="edge43" class="edge">
<title>Node1&#45;&gt;Node41</title>
<path fill="none" stroke="midnightblue" d="M2269.89,-347.32C2286.17,-338.7 2311.37,-325.36 2330.22,-315.39"/>
<polygon fill="midnightblue" stroke="midnightblue" points="2331.95,-318.43 2339.15,-310.65 2328.68,-312.24 2331.95,-318.43"/>
</g>
<!-- Node42 -->
<g id="node42" class="node">
<title>Node42</title>
<g id="a_node42"><a xlink:title=" ">
<polygon fill="white" stroke="#bfbfbf" points="2408,-291.5 2408,-310.5 2535,-310.5 2535,-291.5 2408,-291.5"/>
<text text-anchor="middle" x="2471.5" y="-298.5" font-family="Helvetica,sans-Serif" font-size="10.00">G4IntersectionSolid.hh</text>
</a>
</g>
</g>
<!-- Node1&#45;&gt;Node42 -->
<g id="edge44" class="edge">
<title>Node1&#45;&gt;Node42</title>
<path fill="none" stroke="midnightblue" d="M2288.04,-347.44C2325.75,-338.1 2386.24,-323.12 2427.36,-312.93"/>
<polygon fill="midnightblue" stroke="midnightblue" points="2428.25,-316.32 2437.12,-310.52 2426.57,-309.52 2428.25,-316.32"/>
</g>
<!-- Node3 -->
<g id="node3" class="node">
<title>Node3</title>
<g id="a_node3"><a xlink:href="_o_m_sim_p_m_t_construction_8hh.html" target="_top" xlink:title="Construction of the PMTs.">
<polygon fill="white" stroke="black" points="532,-179.5 532,-198.5 681,-198.5 681,-179.5 532,-179.5"/>
<text text-anchor="middle" x="606.5" y="-186.5" font-family="Helvetica,sans-Serif" font-size="10.00">OMSimPMTConstruction.hh</text>
</a>
</g>
</g>
<!-- Node2&#45;&gt;Node3 -->
<g id="edge2" class="edge">
<title>Node2&#45;&gt;Node3</title>
<path fill="none" stroke="midnightblue" d="M665.04,-291.44C652.8,-283.47 635.67,-270.51 625.5,-255 616.34,-241.02 611.49,-222.52 608.99,-208.83"/>
<polygon fill="midnightblue" stroke="midnightblue" points="612.41,-208.01 607.4,-198.67 605.49,-209.09 612.41,-208.01"/>
</g>
<!-- Node15 -->
<g id="node15" class="node">
<title>Node15</title>
<g id="a_node15"><a xlink:href="_o_m_sim_optical_module_8hh.html" target="_top" xlink:title=" ">
<polygon fill="white" stroke="black" points="441,-235.5 441,-254.5 578,-254.5 578,-235.5 441,-235.5"/>
<text text-anchor="middle" x="509.5" y="-242.5" font-family="Helvetica,sans-Serif" font-size="10.00">OMSimOpticalModule.hh</text>
</a>
</g>
</g>
<!-- Node2&#45;&gt;Node15 -->
<g id="edge14" class="edge">
<title>Node2&#45;&gt;Node15</title>
<path fill="none" stroke="midnightblue" d="M652.56,-291.44C623.84,-282.32 578.17,-267.81 546.18,-257.65"/>
<polygon fill="midnightblue" stroke="midnightblue" points="546.9,-254.21 536.31,-254.52 544.78,-260.88 546.9,-254.21"/>
</g>
<!-- Node16 -->
<g id="node16" class="node">
<title>Node16</title>
<g id="a_node16"><a xlink:title=" ">
<polygon fill="white" stroke="#bfbfbf" points="741.5,-235.5 741.5,-254.5 857.5,-254.5 857.5,-235.5 741.5,-235.5"/>
<text text-anchor="middle" x="799.5" y="-242.5" font-family="Helvetica,sans-Serif" font-size="10.00">G4LogicalVolume.hh</text>
</a>
</g>
</g>
<!-- Node2&#45;&gt;Node16 -->
<g id="edge17" class="edge">
<title>Node2&#45;&gt;Node16</title>
<path fill="none" stroke="midnightblue" d="M698.51,-291.44C718.09,-282.64 748.81,-268.81 771.23,-258.72"/>
<polygon fill="midnightblue" stroke="midnightblue" points="772.89,-261.81 780.57,-254.52 770.02,-255.43 772.89,-261.81"/>
</g>
<!-- Node17 -->
<g id="node17" class="node">
<title>Node17</title>
<g id="a_node17"><a xlink:title=" ">
<polygon fill="white" stroke="#bfbfbf" points="635,-235.5 635,-254.5 724,-254.5 724,-235.5 635,-235.5"/>
<text text-anchor="middle" x="679.5" y="-242.5" font-family="Helvetica,sans-Serif" font-size="10.00">G4Polycone.hh</text>
</a>
</g>
</g>
<!-- Node2&#45;&gt;Node17 -->
<g id="edge18" class="edge">
<title>Node2&#45;&gt;Node17</title>
<path fill="none" stroke="midnightblue" d="M679.5,-291.08C679.5,-284.01 679.5,-273.86 679.5,-264.99"/>
<polygon fill="midnightblue" stroke="midnightblue" points="683,-264.75 679.5,-254.75 676,-264.75 683,-264.75"/>
</g>
<!-- Node4 -->
<g id="node4" class="node">
<title>Node4</title>
<g id="a_node4"><a xlink:href="abc_detector_component_8hh.html" target="_top" xlink:title="Provides helper base class abcDetectorComponent for constructing and managing detector components in ...">
<polygon fill="white" stroke="black" points="402,-123.5 402,-142.5 549,-142.5 549,-123.5 402,-123.5"/>
<text text-anchor="middle" x="475.5" y="-130.5" font-family="Helvetica,sans-Serif" font-size="10.00">abcDetectorComponent.hh</text>
</a>
</g>
</g>
<!-- Node3&#45;&gt;Node4 -->
<g id="edge3" class="edge">
<title>Node3&#45;&gt;Node4</title>
<path fill="none" stroke="midnightblue" d="M585.74,-179.44C564.18,-170.56 530.24,-156.56 505.71,-146.45"/>
<polygon fill="midnightblue" stroke="midnightblue" points="506.74,-143.09 496.16,-142.52 504.07,-149.56 506.74,-143.09"/>
</g>
<!-- Node13 -->
<g id="node13" class="node">
<title>Node13</title>
<g id="a_node13"><a xlink:title=" ">
<polygon fill="white" stroke="#bfbfbf" points="567.5,-123.5 567.5,-142.5 665.5,-142.5 665.5,-123.5 567.5,-123.5"/>
<text text-anchor="middle" x="616.5" y="-130.5" font-family="Helvetica,sans-Serif" font-size="10.00">G4UnionSolid.hh</text>
</a>
</g>
</g>
<!-- Node3&#45;&gt;Node13 -->
<g id="edge12" class="edge">
<title>Node3&#45;&gt;Node13</title>
<path fill="none" stroke="midnightblue" d="M608.15,-179.08C609.48,-171.93 611.38,-161.64 613.04,-152.69"/>
<polygon fill="midnightblue" stroke="midnightblue" points="616.5,-153.22 614.88,-142.75 609.62,-151.95 616.5,-153.22"/>
</g>
<!-- Node14 -->
<g id="node14" class="node">
<title>Node14</title>
<g id="a_node14"><a xlink:title=" ">
<polygon fill="white" stroke="#bfbfbf" points="684,-123.5 684,-142.5 751,-142.5 751,-123.5 684,-123.5"/>
<text text-anchor="middle" x="717.5" y="-130.5" font-family="Helvetica,sans-Serif" font-size="10.00">G4Tubs.hh</text>
</a>
</g>
</g>
<!-- Node3&#45;&gt;Node14 -->
<g id="edge13" class="edge">
<title>Node3&#45;&gt;Node14</title>
<path fill="none" stroke="midnightblue" d="M624.33,-179.32C642.22,-170.62 669.98,-157.12 690.55,-147.11"/>
<polygon fill="midnightblue" stroke="midnightblue" points="692.25,-150.18 699.71,-142.65 689.19,-143.88 692.25,-150.18"/>
</g>
<!-- Node5 -->
<g id="node5" class="node">
<title>Node5</title>
<g id="a_node5"><a xlink:href="_o_m_sim_input_data_8hh.html" target="_top" xlink:title="Input data from external files are read and saved to memory.">
<polygon fill="white" stroke="black" points="163,-67.5 163,-86.5 278,-86.5 278,-67.5 163,-67.5"/>
<text text-anchor="middle" x="220.5" y="-74.5" font-family="Helvetica,sans-Serif" font-size="10.00">OMSimInputData.hh</text>
</a>
</g>
</g>
<!-- Node4&#45;&gt;Node5 -->
<g id="edge4" class="edge">
<title>Node4&#45;&gt;Node5</title>
<path fill="none" stroke="midnightblue" d="M435.09,-123.44C390.52,-114 318.73,-98.8 270.61,-88.61"/>
<polygon fill="midnightblue" stroke="midnightblue" points="271.22,-85.16 260.72,-86.52 269.77,-92.01 271.22,-85.16"/>
</g>
<!-- Node9 -->
<g id="node9" class="node">
<title>Node9</title>
<g id="a_node9"><a xlink:title=" ">
<polygon fill="white" stroke="#bfbfbf" points="296,-67.5 296,-86.5 403,-86.5 403,-67.5 296,-67.5"/>
<text text-anchor="middle" x="349.5" y="-74.5" font-family="Helvetica,sans-Serif" font-size="10.00">G4Transform3D.hh</text>
</a>
</g>
</g>
<!-- Node4&#45;&gt;Node9 -->
<g id="edge8" class="edge">
<title>Node4&#45;&gt;Node9</title>
<path fill="none" stroke="midnightblue" d="M455.53,-123.44C434.89,-114.6 402.44,-100.69 378.87,-90.59"/>
<polygon fill="midnightblue" stroke="midnightblue" points="379.94,-87.24 369.37,-86.52 377.18,-93.67 379.94,-87.24"/>
</g>
<!-- Node10 -->
<g id="node10" class="node">
<title>Node10</title>
<g id="a_node10"><a xlink:title=" ">
<polygon fill="white" stroke="#bfbfbf" points="421.5,-67.5 421.5,-86.5 529.5,-86.5 529.5,-67.5 421.5,-67.5"/>
<text text-anchor="middle" x="475.5" y="-74.5" font-family="Helvetica,sans-Serif" font-size="10.00">G4VisAttributes.hh</text>
</a>
</g>
</g>
<!-- Node4&#45;&gt;Node10 -->
<g id="edge9" class="edge">
<title>Node4&#45;&gt;Node10</title>
<path fill="none" stroke="midnightblue" d="M475.5,-123.08C475.5,-116.01 475.5,-105.86 475.5,-96.99"/>
<polygon fill="midnightblue" stroke="midnightblue" points="479,-96.75 475.5,-86.75 472,-96.75 479,-96.75"/>
</g>
<!-- Node11 -->
<g id="node11" class="node">
<title>Node11</title>
<g id="a_node11"><a xlink:title=" ">
<polygon fill="white" stroke="#bfbfbf" points="548,-67.5 548,-86.5 673,-86.5 673,-67.5 548,-67.5"/>
<text text-anchor="middle" x="610.5" y="-74.5" font-family="Helvetica,sans-Serif" font-size="10.00">G4SubtractionSolid.hh</text>
</a>
</g>
</g>
<!-- Node4&#45;&gt;Node11 -->
<g id="edge10" class="edge">
<title>Node4&#45;&gt;Node11</title>
<path fill="none" stroke="midnightblue" d="M496.89,-123.44C519.21,-114.52 554.4,-100.44 579.71,-90.32"/>
<polygon fill="midnightblue" stroke="midnightblue" points="581.22,-93.48 589.21,-86.52 578.62,-86.98 581.22,-93.48"/>
</g>
<!-- Node12 -->
<g id="node12" class="node">
<title>Node12</title>
<g id="a_node12"><a xlink:title=" ">
<polygon fill="white" stroke="#bfbfbf" points="691.5,-67.5 691.5,-86.5 801.5,-86.5 801.5,-67.5 691.5,-67.5"/>
<text text-anchor="middle" x="746.5" y="-74.5" font-family="Helvetica,sans-Serif" font-size="10.00">G4PVPlacement.hh</text>
</a>
</g>
</g>
<!-- Node4&#45;&gt;Node12 -->
<g id="edge11" class="edge">
<title>Node4&#45;&gt;Node12</title>
<path fill="none" stroke="midnightblue" d="M518.44,-123.44C566.01,-113.96 642.74,-98.67 693.89,-88.48"/>
<polygon fill="midnightblue" stroke="midnightblue" points="694.64,-91.9 703.76,-86.52 693.27,-85.04 694.64,-91.9"/>
</g>
<!-- Node6 -->
<g id="node6" class="node">
<title>Node6</title>
<g id="a_node6"><a xlink:title=" ">
<polygon fill="white" stroke="#bfbfbf" points="0,-6 0,-25 143,-25 143,-6 0,-6"/>
<text text-anchor="middle" x="71.5" y="-13" font-family="Helvetica,sans-Serif" font-size="10.00">G4OpBoundaryProcess.hh</text>
</a>
</g>
</g>
<!-- Node5&#45;&gt;Node6 -->
<g id="edge5" class="edge">
<title>Node5&#45;&gt;Node6</title>
<path fill="none" stroke="midnightblue" d="M199.15,-67.48C173.81,-57.36 131.36,-40.4 102.43,-28.85"/>
<polygon fill="midnightblue" stroke="midnightblue" points="103.39,-25.47 92.81,-25.01 100.8,-31.97 103.39,-25.47"/>
</g>
<!-- Node7 -->
<g id="node7" class="node">
<title>Node7</title>
<g id="a_node7"><a xlink:title=" ">
<polygon fill="white" stroke="#bfbfbf" points="161,-6 161,-25 280,-25 280,-6 161,-6"/>
<text text-anchor="middle" x="220.5" y="-13" font-family="Helvetica,sans-Serif" font-size="10.00">G4SystemOfUnits.hh</text>
</a>
</g>
</g>
<!-- Node5&#45;&gt;Node7 -->
<g id="edge6" class="edge">
<title>Node5&#45;&gt;Node7</title>
<path fill="none" stroke="midnightblue" d="M220.5,-67.48C220.5,-59.08 220.5,-45.98 220.5,-35.16"/>
<polygon fill="midnightblue" stroke="midnightblue" points="224,-35.01 220.5,-25.01 217,-35.01 224,-35.01"/>
</g>
<!-- Node8 -->
<g id="node8" class="node">
<title>Node8</title>
<g id="a_node8"><a xlink:title=" ">
<polygon fill="white" stroke="#bfbfbf" points="298,-0.5 298,-30.5 411,-30.5 411,-0.5 298,-0.5"/>
<text text-anchor="start" x="306" y="-18.5" font-family="Helvetica,sans-Serif" font-size="10.00">boost/property_tree</text>
<text text-anchor="middle" x="354.5" y="-7.5" font-family="Helvetica,sans-Serif" font-size="10.00">/json_parser.hpp</text>
</a>
</g>
</g>
<!-- Node5&#45;&gt;Node8 -->
<g id="edge7" class="edge">
<title>Node5&#45;&gt;Node8</title>
<path fill="none" stroke="midnightblue" d="M239.7,-67.48C258.87,-58.96 288.92,-45.62 313.47,-34.72"/>
<polygon fill="midnightblue" stroke="midnightblue" points="315.2,-37.78 322.92,-30.52 312.36,-31.38 315.2,-37.78"/>
</g>
<!-- Node15&#45;&gt;Node3 -->
<g id="edge16" class="edge">
<title>Node15&#45;&gt;Node3</title>
<path fill="none" stroke="midnightblue" d="M525.08,-235.32C540.5,-226.74 564.31,-213.49 582.21,-203.52"/>
<polygon fill="midnightblue" stroke="midnightblue" points="583.92,-206.58 590.95,-198.65 580.51,-200.46 583.92,-206.58"/>
</g>
<!-- Node15&#45;&gt;Node4 -->
<g id="edge15" class="edge">
<title>Node15&#45;&gt;Node4</title>
<path fill="none" stroke="midnightblue" d="M506.83,-235.37C501.32,-217.54 488.57,-176.3 481.15,-152.27"/>
<polygon fill="midnightblue" stroke="midnightblue" points="484.45,-151.11 478.16,-142.59 477.76,-153.18 484.45,-151.11"/>
</g>
<!-- Node18&#45;&gt;Node16 -->
<g id="edge30" class="edge">
<title>Node18&#45;&gt;Node16</title>
<path fill="none" stroke="midnightblue" d="M1671.82,-299.02C1552.11,-295.82 1183.89,-284.22 867.85,-255.05"/>
<polygon fill="midnightblue" stroke="midnightblue" points="867.85,-251.53 857.57,-254.09 867.2,-258.5 867.85,-251.53"/>
</g>
<!-- Node19 -->
<g id="node19" class="node">
<title>Node19</title>
<g id="a_node19"><a xlink:title=" ">
<polygon fill="white" stroke="#bfbfbf" points="875.5,-235.5 875.5,-254.5 949.5,-254.5 949.5,-235.5 875.5,-235.5"/>
<text text-anchor="middle" x="912.5" y="-242.5" font-family="Helvetica,sans-Serif" font-size="10.00">G4String.hh</text>
</a>
</g>
</g>
<!-- Node18&#45;&gt;Node19 -->
<g id="edge20" class="edge">
<title>Node18&#45;&gt;Node19</title>
<path fill="none" stroke="midnightblue" d="M1671.73,-299.49C1560.67,-297.67 1237.72,-289.68 959.87,-255"/>
<polygon fill="midnightblue" stroke="midnightblue" points="959.95,-251.48 949.59,-253.7 959.07,-258.42 959.95,-251.48"/>
</g>
<!-- Node20 -->
<g id="node20" class="node">
<title>Node20</title>
<g id="a_node20"><a xlink:title=" ">
<polygon fill="white" stroke="#bfbfbf" points="967.5,-235.5 967.5,-254.5 1031.5,-254.5 1031.5,-235.5 967.5,-235.5"/>
<text text-anchor="middle" x="999.5" y="-242.5" font-family="Helvetica,sans-Serif" font-size="10.00">algorithm</text>
</a>
</g>
</g>
<!-- Node18&#45;&gt;Node20 -->
<g id="edge21" class="edge">
<title>Node18&#45;&gt;Node20</title>
<path fill="none" stroke="midnightblue" d="M1671.96,-299.4C1569.42,-297.42 1286.49,-289.16 1041.8,-254.97"/>
<polygon fill="midnightblue" stroke="midnightblue" points="1042.04,-251.47 1031.65,-253.53 1041.06,-258.4 1042.04,-251.47"/>
</g>
<!-- Node21 -->
<g id="node21" class="node">
<title>Node21</title>
<g id="a_node21"><a xlink:title=" ">
<polygon fill="white" stroke="#bfbfbf" points="1049.5,-235.5 1049.5,-254.5 1087.5,-254.5 1087.5,-235.5 1049.5,-235.5"/>
<text text-anchor="middle" x="1068.5" y="-242.5" font-family="Helvetica,sans-Serif" font-size="10.00">map</text>
</a>
</g>
</g>
<!-- Node18&#45;&gt;Node21 -->
<g id="edge22" class="edge">
<title>Node18&#45;&gt;Node21</title>
<path fill="none" stroke="midnightblue" d="M1671.86,-300.34C1574.92,-300.5 1318.28,-296.74 1097.45,-254.71"/>
<polygon fill="midnightblue" stroke="midnightblue" points="1098.11,-251.27 1087.62,-252.81 1096.78,-258.14 1098.11,-251.27"/>
</g>
<!-- Node22 -->
<g id="node22" class="node">
<title>Node22</title>
<g id="a_node22"><a xlink:title=" ">
<polygon fill="white" stroke="#bfbfbf" points="1106,-235.5 1106,-254.5 1209,-254.5 1209,-235.5 1106,-235.5"/>
<text text-anchor="middle" x="1157.5" y="-242.5" font-family="Helvetica,sans-Serif" font-size="10.00">G4ThreeVector.hh</text>
</a>
</g>
</g>
<!-- Node18&#45;&gt;Node22 -->
<g id="edge23" class="edge">
<title>Node18&#45;&gt;Node22</title>
<path fill="none" stroke="midnightblue" d="M1671.72,-297.16C1589.28,-291.12 1393.58,-275.88 1219.31,-255.16"/>
<polygon fill="midnightblue" stroke="midnightblue" points="1219.53,-251.66 1209.18,-253.95 1218.7,-258.61 1219.53,-251.66"/>
</g>
<!-- Node23 -->
<g id="node23" class="node">
<title>Node23</title>
<g id="a_node23"><a xlink:title=" ">
<polygon fill="white" stroke="#bfbfbf" points="1227,-235.5 1227,-254.5 1346,-254.5 1346,-235.5 1227,-235.5"/>
<text text-anchor="middle" x="1286.5" y="-242.5" font-family="Helvetica,sans-Serif" font-size="10.00">G4TriangularFacet.hh</text>
</a>
</g>
</g>
<!-- Node18&#45;&gt;Node23 -->
<g id="edge24" class="edge">
<title>Node18&#45;&gt;Node23</title>
<path fill="none" stroke="midnightblue" d="M1671.98,-295.06C1608.08,-287.05 1477.81,-270.69 1356.54,-255.13"/>
<polygon fill="midnightblue" stroke="midnightblue" points="1356.7,-251.62 1346.34,-253.82 1355.81,-258.56 1356.7,-251.62"/>
</g>
<!-- Node24 -->
<g id="node24" class="node">
<title>Node24</title>
<g id="a_node24"><a xlink:title=" ">
<polygon fill="white" stroke="#bfbfbf" points="1364.5,-235.5 1364.5,-254.5 1422.5,-254.5 1422.5,-235.5 1364.5,-235.5"/>
<text text-anchor="middle" x="1393.5" y="-242.5" font-family="Helvetica,sans-Serif" font-size="10.00">memory</text>
</a>
</g>
</g>
<!-- Node18&#45;&gt;Node24 -->
<g id="edge25" class="edge">
<title>Node18&#45;&gt;Node24</title>
<path fill="none" stroke="midnightblue" d="M1671.92,-294.57C1619.45,-287.17 1523.77,-272.96 1432.83,-255.15"/>
<polygon fill="midnightblue" stroke="midnightblue" points="1433.4,-251.7 1422.91,-253.19 1432.04,-258.56 1433.4,-251.7"/>
</g>
<!-- Node25 -->
<g id="node25" class="node">
<title>Node25</title>
<g id="a_node25"><a xlink:title=" ">
<polygon fill="white" stroke="#bfbfbf" points="1441,-235.5 1441,-254.5 1488,-254.5 1488,-235.5 1441,-235.5"/>
<text text-anchor="middle" x="1464.5" y="-242.5" font-family="Helvetica,sans-Serif" font-size="10.00">vector</text>
</a>
</g>
</g>
<!-- Node18&#45;&gt;Node25 -->
<g id="edge26" class="edge">
<title>Node18&#45;&gt;Node25</title>
<path fill="none" stroke="midnightblue" d="M1671.9,-292.4C1630.85,-284.36 1564.6,-270.94 1498.07,-255.02"/>
<polygon fill="midnightblue" stroke="midnightblue" points="1498.79,-251.6 1488.25,-252.66 1497.15,-258.4 1498.79,-251.6"/>
</g>
<!-- Node26 -->
<g id="node26" class="node">
<title>Node26</title>
<g id="a_node26"><a xlink:title=" ">
<polygon fill="white" stroke="#bfbfbf" points="1506.5,-235.5 1506.5,-254.5 1566.5,-254.5 1566.5,-235.5 1506.5,-235.5"/>
<text text-anchor="middle" x="1536.5" y="-242.5" font-family="Helvetica,sans-Serif" font-size="10.00">iostream</text>
</a>
</g>
</g>
<!-- Node18&#45;&gt;Node26 -->
<g id="edge27" class="edge">
<title>Node18&#45;&gt;Node26</title>
<path fill="none" stroke="midnightblue" d="M1683.77,-291.44C1654.07,-282.28 1606.78,-267.69 1573.83,-257.52"/>
<polygon fill="midnightblue" stroke="midnightblue" points="1574.69,-254.12 1564.1,-254.52 1572.62,-260.81 1574.69,-254.12"/>
</g>
<!-- Node27 -->
<g id="node27" class="node">
<title>Node27</title>
<g id="a_node27"><a xlink:title=" ">
<polygon fill="white" stroke="#bfbfbf" points="1584.5,-235.5 1584.5,-254.5 1628.5,-254.5 1628.5,-235.5 1584.5,-235.5"/>
<text text-anchor="middle" x="1606.5" y="-242.5" font-family="Helvetica,sans-Serif" font-size="10.00">string</text>
</a>
</g>
</g>
<!-- Node18&#45;&gt;Node27 -->
<g id="edge28" class="edge">
<title>Node18&#45;&gt;Node27</title>
<path fill="none" stroke="midnightblue" d="M1694.63,-291.32C1677.79,-282.66 1651.69,-269.24 1632.26,-259.25"/>
<polygon fill="midnightblue" stroke="midnightblue" points="1633.82,-256.12 1623.33,-254.65 1630.62,-262.34 1633.82,-256.12"/>
</g>
<!-- Node28 -->
<g id="node28" class="node">
<title>Node28</title>
<g id="a_node28"><a xlink:title=" ">
<polygon fill="white" stroke="#bfbfbf" points="1646.5,-235.5 1646.5,-254.5 1776.5,-254.5 1776.5,-235.5 1646.5,-235.5"/>
<text text-anchor="middle" x="1711.5" y="-242.5" font-family="Helvetica,sans-Serif" font-size="10.00">G4AssemblyVolume.hh</text>
</a>
</g>
</g>
<!-- Node18&#45;&gt;Node28 -->
<g id="edge29" class="edge">
<title>Node18&#45;&gt;Node28</title>
<path fill="none" stroke="midnightblue" d="M1711.5,-291.08C1711.5,-284.01 1711.5,-273.86 1711.5,-264.99"/>
<polygon fill="midnightblue" stroke="midnightblue" points="1715,-264.75 1711.5,-254.75 1708,-264.75 1715,-264.75"/>
</g>
<!-- Node29 -->
<g id="node29" class="node">
<title>Node29</title>
<g id="a_node29"><a xlink:title=" ">
<polygon fill="white" stroke="#bfbfbf" points="1794.5,-235.5 1794.5,-254.5 1880.5,-254.5 1880.5,-235.5 1794.5,-235.5"/>
<text text-anchor="middle" x="1837.5" y="-242.5" font-family="Helvetica,sans-Serif" font-size="10.00">G4Material.hh</text>
</a>
</g>
</g>
<!-- Node18&#45;&gt;Node29 -->
<g id="edge31" class="edge">
<title>Node18&#45;&gt;Node29</title>
<path fill="none" stroke="midnightblue" d="M1731.47,-291.44C1752.11,-282.6 1784.56,-268.69 1808.13,-258.59"/>
<polygon fill="midnightblue" stroke="midnightblue" points="1809.82,-261.67 1817.63,-254.52 1807.06,-255.24 1809.82,-261.67"/>
</g>
<!-- Node30 -->
<g id="node30" class="node">
<title>Node30</title>
<g id="a_node30"><a xlink:title=" ">
<polygon fill="white" stroke="#bfbfbf" points="1898.5,-235.5 1898.5,-254.5 2022.5,-254.5 2022.5,-235.5 1898.5,-235.5"/>
<text text-anchor="middle" x="1960.5" y="-242.5" font-family="Helvetica,sans-Serif" font-size="10.00">G4TessellatedSolid.hh</text>
</a>
</g>
</g>
<!-- Node18&#45;&gt;Node30 -->
<g id="edge32" class="edge">
<title>Node18&#45;&gt;Node30</title>
<path fill="none" stroke="midnightblue" d="M1750.95,-291.44C1794.39,-282.02 1864.29,-266.87 1911.28,-256.68"/>
<polygon fill="midnightblue" stroke="midnightblue" points="1912.2,-260.06 1921.23,-254.52 1910.72,-253.22 1912.2,-260.06"/>
</g>
<!-- Node31 -->
<g id="node31" class="node">
<title>Node31</title>
<g id="a_node31"><a xlink:title=" ">
<polygon fill="white" stroke="#bfbfbf" points="2041,-235.5 2041,-254.5 2100,-254.5 2100,-235.5 2041,-235.5"/>
<text text-anchor="middle" x="2070.5" y="-242.5" font-family="Helvetica,sans-Serif" font-size="10.00">G4Tet.hh</text>
</a>
</g>
</g>
<!-- Node18&#45;&gt;Node31 -->
<g id="edge33" class="edge">
<title>Node18&#45;&gt;Node31</title>
<path fill="none" stroke="midnightblue" d="M1751.09,-295.56C1809.88,-288.72 1923.93,-274.5 2030.76,-254.99"/>
<polygon fill="midnightblue" stroke="midnightblue" points="2031.55,-258.4 2040.75,-253.15 2030.28,-251.52 2031.55,-258.4"/>
</g>
<!-- Node32 -->
<g id="node32" class="node">
<title>Node32</title>
<g id="a_node32"><a xlink:title=" ">
<polygon fill="white" stroke="#bfbfbf" points="2118.5,-235.5 2118.5,-254.5 2222.5,-254.5 2222.5,-235.5 2118.5,-235.5"/>
<text text-anchor="middle" x="2170.5" y="-242.5" font-family="Helvetica,sans-Serif" font-size="10.00">G4UIcommand.hh</text>
</a>
</g>
</g>
<!-- Node18&#45;&gt;Node32 -->
<g id="edge34" class="edge">
<title>Node18&#45;&gt;Node32</title>
<path fill="none" stroke="midnightblue" d="M1751.28,-295.91C1822.83,-288.45 1977.97,-271.87 2108.5,-255 2108.6,-254.99 2108.7,-254.97 2108.8,-254.96"/>
<polygon fill="midnightblue" stroke="midnightblue" points="2108.97,-258.47 2118.42,-253.68 2108.05,-251.53 2108.97,-258.47"/>
</g>
<!-- Node33 -->
<g id="node33" class="node">
<title>Node33</title>
<g id="a_node33"><a xlink:title=" ">
<polygon fill="white" stroke="#bfbfbf" points="2241,-235.5 2241,-254.5 2308,-254.5 2308,-235.5 2241,-235.5"/>
<text text-anchor="middle" x="2274.5" y="-242.5" font-family="Helvetica,sans-Serif" font-size="10.00">globals.hh</text>
</a>
</g>
</g>
<!-- Node18&#45;&gt;Node33 -->
<g id="edge35" class="edge">
<title>Node18&#45;&gt;Node33</title>
<path fill="none" stroke="midnightblue" d="M1751.15,-298.19C1836.85,-293.94 2045.81,-281.7 2230.86,-254.91"/>
<polygon fill="midnightblue" stroke="midnightblue" points="2231.38,-258.37 2240.77,-253.46 2230.37,-251.45 2231.38,-258.37"/>
</g>
<!-- Node34 -->
<g id="node34" class="node">
<title>Node34</title>
<g id="a_node34"><a xlink:title=" ">
<polygon fill="white" stroke="#bfbfbf" points="2326,-235.5 2326,-254.5 2381,-254.5 2381,-235.5 2326,-235.5"/>
<text text-anchor="middle" x="2353.5" y="-242.5" font-family="Helvetica,sans-Serif" font-size="10.00">fstream</text>
</a>
</g>
</g>
<!-- Node18&#45;&gt;Node34 -->
<g id="edge36" class="edge">
<title>Node18&#45;&gt;Node34</title>
<path fill="none" stroke="midnightblue" d="M1751.12,-299.39C1846.79,-297.43 2098.04,-289.32 2315.68,-255.05"/>
<polygon fill="midnightblue" stroke="midnightblue" points="2316.37,-258.48 2325.69,-253.45 2315.26,-251.57 2316.37,-258.48"/>
</g>
<!-- Node35 -->
<g id="node35" class="node">
<title>Node35</title>
<g id="a_node35"><a xlink:title=" ">
<polygon fill="white" stroke="#bfbfbf" points="2399.5,-235.5 2399.5,-254.5 2455.5,-254.5 2455.5,-235.5 2399.5,-235.5"/>
<text text-anchor="middle" x="2427.5" y="-242.5" font-family="Helvetica,sans-Serif" font-size="10.00">sstream</text>
</a>
</g>
</g>
<!-- Node18&#45;&gt;Node35 -->
<g id="edge37" class="edge">
<title>Node18&#45;&gt;Node35</title>
<path fill="none" stroke="midnightblue" d="M1751.18,-299.75C1854.77,-298.6 2141.95,-292.16 2389.42,-254.9"/>
<polygon fill="midnightblue" stroke="midnightblue" points="2389.96,-258.35 2399.32,-253.39 2388.9,-251.43 2389.96,-258.35"/>
</g>
<!-- Node36 -->
<g id="node36" class="node">
<title>Node36</title>
<g id="a_node36"><a xlink:title=" ">
<polygon fill="white" stroke="#bfbfbf" points="2474,-235.5 2474,-254.5 2541,-254.5 2541,-235.5 2474,-235.5"/>
<text text-anchor="middle" x="2507.5" y="-242.5" font-family="Helvetica,sans-Serif" font-size="10.00">streambuf</text>
</a>
</g>
</g>
<!-- Node18&#45;&gt;Node36 -->
<g id="edge38" class="edge">
<title>Node18&#45;&gt;Node36</title>
<path fill="none" stroke="midnightblue" d="M1751.29,-299.67C1862.41,-298.32 2185.51,-291.43 2463.49,-254.91"/>
<polygon fill="midnightblue" stroke="midnightblue" points="2464.33,-258.33 2473.78,-253.55 2463.41,-251.39 2464.33,-258.33"/>
</g>
<!-- Node37 -->
<g id="node37" class="node">
<title>Node37</title>
<g id="a_node37"><a xlink:title=" ">
<polygon fill="white" stroke="#bfbfbf" points="2559.5,-235.5 2559.5,-254.5 2645.5,-254.5 2645.5,-235.5 2559.5,-235.5"/>
<text text-anchor="middle" x="2602.5" y="-242.5" font-family="Helvetica,sans-Serif" font-size="10.00">Randomize.hh</text>
</a>
</g>
</g>
<!-- Node18&#45;&gt;Node37 -->
<g id="edge39" class="edge">
<title>Node18&#45;&gt;Node37</title>
<path fill="none" stroke="midnightblue" d="M1751.38,-299.53C1870.84,-297.75 2236.33,-289.76 2549.25,-255"/>
<polygon fill="midnightblue" stroke="midnightblue" points="2549.88,-258.45 2559.43,-253.86 2549.1,-251.49 2549.88,-258.45"/>
</g>
<!-- Node39 -->
<g id="node39" class="node">
<title>Node39</title>
<g id="a_node39"><a xlink:title=" ">
<polygon fill="white" stroke="#bfbfbf" points="2663.5,-235.5 2663.5,-254.5 2713.5,-254.5 2713.5,-235.5 2663.5,-235.5"/>
<text text-anchor="middle" x="2688.5" y="-242.5" font-family="Helvetica,sans-Serif" font-size="10.00">stdio.h</text>
</a>
</g>
</g>
<!-- Node38&#45;&gt;Node39 -->
<g id="edge41" class="edge">
<title>Node38&#45;&gt;Node39</title>
<path fill="none" stroke="midnightblue" d="M2303.05,-292.27C2306.25,-291.82 2309.42,-291.4 2312.5,-291 2460.83,-271.89 2502.41,-282.17 2653.25,-254.97"/>
<polygon fill="midnightblue" stroke="midnightblue" points="2654.14,-258.36 2663.35,-253.12 2652.88,-251.48 2654.14,-258.36"/>
</g>
<!-- Node40 -->
<g id="node40" class="node">
<title>Node40</title>
<g id="a_node40"><a xlink:title=" ">
<polygon fill="white" stroke="#bfbfbf" points="2731.5,-235.5 2731.5,-254.5 2779.5,-254.5 2779.5,-235.5 2731.5,-235.5"/>
<text text-anchor="middle" x="2755.5" y="-242.5" font-family="Helvetica,sans-Serif" font-size="10.00">time.h</text>
</a>
</g>
</g>
<!-- Node38&#45;&gt;Node40 -->
<g id="edge42" class="edge">
<title>Node38&#45;&gt;Node40</title>
<path fill="none" stroke="midnightblue" d="M2303.04,-292.21C2306.24,-291.78 2309.41,-291.37 2312.5,-291 2490.84,-269.59 2540.64,-286.56 2721.35,-254.89"/>
<polygon fill="midnightblue" stroke="midnightblue" points="2722.23,-258.29 2731.46,-253.09 2721,-251.39 2722.23,-258.29"/>
</g>
</g>
</svg>
