<?xml version="1.0" encoding="UTF-8" standalone="no"?>
<!DOCTYPE svg PUBLIC "-//W3C//DTD SVG 1.1//EN"
 "http://www.w3.org/Graphics/SVG/1.1/DTD/svg11.dtd">
<!-- Generated by graphviz version 2.43.0 (0)
 -->
<!-- Title: OMSimPMTConstruction.hh Pages: 1 -->
<svg width="1237pt" height="252pt"
 viewBox="0.00 0.00 1237.11 252.00" xmlns="http://www.w3.org/2000/svg" xmlns:xlink="http://www.w3.org/1999/xlink">
<g id="graph0" class="graph" transform="scale(1 1) rotate(0) translate(4 248)">
<title>OMSimPMTConstruction.hh</title>
<polygon fill="white" stroke="transparent" points="-4,4 -4,-248 1233.11,-248 1233.11,4 -4,4"/>
<!-- Node1 -->
<g id="node1" class="node">
<title>Node1</title>
<g id="a_node1"><a xlink:title=" ">
<polygon fill="#bfbfbf" stroke="black" points="448.61,-224.5 448.61,-243.5 597.61,-243.5 597.61,-224.5 448.61,-224.5"/>
<text text-anchor="middle" x="523.11" y="-231.5" font-family="Helvetica,sans-Serif" font-size="10.00">OMSimPMTConstruction.hh</text>
</a>
</g>
</g>
<!-- Node2 -->
<g id="node2" class="node">
<title>Node2</title>
<g id="a_node2"><a xlink:href="_o_m_sim_d_e_g_g_8hh.html" target="_top" xlink:title=" ">
<polygon fill="white" stroke="black" points="361.61,-168.5 361.61,-187.5 456.61,-187.5 456.61,-168.5 361.61,-168.5"/>
<text text-anchor="middle" x="409.11" y="-175.5" font-family="Helvetica,sans-Serif" font-size="10.00">OMSimDEGG.hh</text>
</a>
</g>
</g>
<!-- Node1&#45;&gt;Node2 -->
<g id="edge1" class="edge">
<title>Node1&#45;&gt;Node2</title>
<path fill="none" stroke="midnightblue" d="M495.87,-220.1C474.57,-210.01 445.57,-196.27 427.09,-187.52"/>
<polygon fill="midnightblue" stroke="midnightblue" points="494.51,-223.33 505.04,-224.44 497.5,-217 494.51,-223.33"/>
</g>
<!-- Node5 -->
<g id="node5" class="node">
<title>Node5</title>
<g id="a_node5"><a xlink:href="_o_m_sim_l_o_m16_8hh.html" target="_top" xlink:title=" ">
<polygon fill="white" stroke="black" points="13.61,-168.5 13.61,-187.5 114.61,-187.5 114.61,-168.5 13.61,-168.5"/>
<text text-anchor="middle" x="64.11" y="-175.5" font-family="Helvetica,sans-Serif" font-size="10.00">OMSimLOM16.hh</text>
</a>
</g>
</g>
<!-- Node1&#45;&gt;Node5 -->
<g id="edge4" class="edge">
<title>Node1&#45;&gt;Node5</title>
<path fill="none" stroke="midnightblue" d="M440.52,-223.28C345.84,-212.15 193.63,-194.24 114.91,-184.98"/>
<polygon fill="midnightblue" stroke="midnightblue" points="440.29,-226.78 450.63,-224.47 441.11,-219.83 440.29,-226.78"/>
</g>
<!-- Node7 -->
<g id="node7" class="node">
<title>Node7</title>
<g id="a_node7"><a xlink:href="_o_m_sim_l_o_m18_8hh.html" target="_top" xlink:title=" ">
<polygon fill="white" stroke="black" points="169.61,-168.5 169.61,-187.5 270.61,-187.5 270.61,-168.5 169.61,-168.5"/>
<text text-anchor="middle" x="220.11" y="-175.5" font-family="Helvetica,sans-Serif" font-size="10.00">OMSimLOM18.hh</text>
</a>
</g>
</g>
<!-- Node1&#45;&gt;Node7 -->
<g id="edge7" class="edge">
<title>Node1&#45;&gt;Node7</title>
<path fill="none" stroke="midnightblue" d="M465.11,-222.66C407.85,-212.46 321.32,-197.04 267.89,-187.52"/>
<polygon fill="midnightblue" stroke="midnightblue" points="464.64,-226.13 475.1,-224.44 465.87,-219.24 464.64,-226.13"/>
</g>
<!-- Node9 -->
<g id="node9" class="node">
<title>Node9</title>
<g id="a_node9"><a xlink:href="_o_m_sim_m_d_o_m_8hh.html" target="_top" xlink:title=" ">
<polygon fill="white" stroke="black" points="590.11,-168.5 590.11,-187.5 690.11,-187.5 690.11,-168.5 590.11,-168.5"/>
<text text-anchor="middle" x="640.11" y="-175.5" font-family="Helvetica,sans-Serif" font-size="10.00">OMSimMDOM.hh</text>
</a>
</g>
</g>
<!-- Node1&#45;&gt;Node9 -->
<g id="edge10" class="edge">
<title>Node1&#45;&gt;Node9</title>
<path fill="none" stroke="midnightblue" d="M550.77,-220.23C572.66,-210.13 602.6,-196.31 621.66,-187.52"/>
<polygon fill="midnightblue" stroke="midnightblue" points="549.26,-217.08 541.65,-224.44 552.19,-223.43 549.26,-217.08"/>
</g>
<!-- Node17 -->
<g id="node17" class="node">
<title>Node17</title>
<g id="a_node17"><a xlink:href="_o_m_sim_p_d_o_m_8hh.html" target="_top" xlink:title=" ">
<polygon fill="white" stroke="black" points="474.61,-168.5 474.61,-187.5 571.61,-187.5 571.61,-168.5 474.61,-168.5"/>
<text text-anchor="middle" x="523.11" y="-175.5" font-family="Helvetica,sans-Serif" font-size="10.00">OMSimPDOM.hh</text>
</a>
</g>
</g>
<!-- Node1&#45;&gt;Node17 -->
<g id="edge19" class="edge">
<title>Node1&#45;&gt;Node17</title>
<path fill="none" stroke="midnightblue" d="M523.11,-213.8C523.11,-204.91 523.11,-194.78 523.11,-187.75"/>
<polygon fill="midnightblue" stroke="midnightblue" points="519.61,-214.08 523.11,-224.08 526.61,-214.08 519.61,-214.08"/>
</g>
<!-- Node19 -->
<g id="node19" class="node">
<title>Node19</title>
<g id="a_node19"><a xlink:href="abc_detector_component_8cc.html" target="_top" xlink:title="Contains the implementation of the abcDetectorComponent class.">
<polygon fill="white" stroke="black" points="708.11,-168.5 708.11,-187.5 854.11,-187.5 854.11,-168.5 708.11,-168.5"/>
<text text-anchor="middle" x="781.11" y="-175.5" font-family="Helvetica,sans-Serif" font-size="10.00">abcDetectorComponent.cc</text>
</a>
</g>
</g>
<!-- Node1&#45;&gt;Node19 -->
<g id="edge22" class="edge">
<title>Node1&#45;&gt;Node19</title>
<path fill="none" stroke="midnightblue" d="M574.01,-222.35C622.77,-212.14 695.39,-196.94 740.42,-187.52"/>
<polygon fill="midnightblue" stroke="midnightblue" points="573.06,-218.97 563.99,-224.44 574.49,-225.82 573.06,-218.97"/>
</g>
<!-- Node20 -->
<g id="node20" class="node">
<title>Node20</title>
<g id="a_node20"><a xlink:href="_o_m_sim_p_m_t_construction_8cc.html" target="_top" xlink:title="Construction of the PMTs.">
<polygon fill="white" stroke="black" points="872.61,-168.5 872.61,-187.5 1019.61,-187.5 1019.61,-168.5 872.61,-168.5"/>
<text text-anchor="middle" x="946.11" y="-175.5" font-family="Helvetica,sans-Serif" font-size="10.00">OMSimPMTConstruction.cc</text>
</a>
</g>
</g>
<!-- Node1&#45;&gt;Node20 -->
<g id="edge23" class="edge">
<title>Node1&#45;&gt;Node20</title>
<path fill="none" stroke="midnightblue" d="M600.13,-223.17C680,-212.97 803.57,-197.2 879.4,-187.52"/>
<polygon fill="midnightblue" stroke="midnightblue" points="599.61,-219.71 590.13,-224.44 600.5,-226.65 599.61,-219.71"/>
</g>
<!-- Node3 -->
<g id="node3" class="node">
<title>Node3</title>
<g id="a_node3"><a xlink:href="_o_m_sim_d_e_g_g_8cc.html" target="_top" xlink:title="Construction of the DEGG class.">
<polygon fill="white" stroke="black" points="288.11,-112.5 288.11,-131.5 382.11,-131.5 382.11,-112.5 288.11,-112.5"/>
<text text-anchor="middle" x="335.11" y="-119.5" font-family="Helvetica,sans-Serif" font-size="10.00">OMSimDEGG.cc</text>
</a>
</g>
</g>
<!-- Node2&#45;&gt;Node3 -->
<g id="edge2" class="edge">
<title>Node2&#45;&gt;Node3</title>
<path fill="none" stroke="midnightblue" d="M389.07,-162.38C375.7,-152.62 358.55,-140.11 347.21,-131.83"/>
<polygon fill="midnightblue" stroke="midnightblue" points="387.08,-165.26 397.22,-168.32 391.2,-159.6 387.08,-165.26"/>
</g>
<!-- Node4 -->
<g id="node4" class="node">
<title>Node4</title>
<g id="a_node4"><a xlink:href="_o_m_sim_detector_construction_8cc.html" target="_top" xlink:title=" ">
<polygon fill="white" stroke="black" points="325.61,-56.5 325.61,-75.5 494.61,-75.5 494.61,-56.5 325.61,-56.5"/>
<text text-anchor="middle" x="410.11" y="-63.5" font-family="Helvetica,sans-Serif" font-size="10.00">OMSimDetectorConstruction.cc</text>
</a>
</g>
</g>
<!-- Node2&#45;&gt;Node4 -->
<g id="edge3" class="edge">
<title>Node2&#45;&gt;Node4</title>
<path fill="none" stroke="midnightblue" d="M409.28,-158.35C409.5,-134.25 409.87,-93.31 410.03,-75.59"/>
<polygon fill="midnightblue" stroke="midnightblue" points="405.78,-158.34 409.19,-168.37 412.78,-158.4 405.78,-158.34"/>
</g>
<!-- Node5&#45;&gt;Node4 -->
<g id="edge6" class="edge">
<title>Node5&#45;&gt;Node4</title>
<path fill="none" stroke="midnightblue" d="M37.44,-163.44C15.06,-150.32 -10.88,-129.87 5.11,-112 26.07,-88.58 213.18,-75.99 325.6,-70.48"/>
<polygon fill="midnightblue" stroke="midnightblue" points="35.93,-166.6 46.37,-168.41 39.34,-160.49 35.93,-166.6"/>
</g>
<!-- Node6 -->
<g id="node6" class="node">
<title>Node6</title>
<g id="a_node6"><a xlink:href="_o_m_sim_l_o_m16_8cc.html" target="_top" xlink:title="Construction of LOM16.">
<polygon fill="white" stroke="black" points="14.61,-112.5 14.61,-131.5 113.61,-131.5 113.61,-112.5 14.61,-112.5"/>
<text text-anchor="middle" x="64.11" y="-119.5" font-family="Helvetica,sans-Serif" font-size="10.00">OMSimLOM16.cc</text>
</a>
</g>
</g>
<!-- Node5&#45;&gt;Node6 -->
<g id="edge5" class="edge">
<title>Node5&#45;&gt;Node6</title>
<path fill="none" stroke="midnightblue" d="M64.11,-157.8C64.11,-148.91 64.11,-138.78 64.11,-131.75"/>
<polygon fill="midnightblue" stroke="midnightblue" points="60.61,-158.08 64.11,-168.08 67.61,-158.08 60.61,-158.08"/>
</g>
<!-- Node7&#45;&gt;Node4 -->
<g id="edge9" class="edge">
<title>Node7&#45;&gt;Node4</title>
<path fill="none" stroke="midnightblue" d="M193.34,-163.46C171.25,-150.51 145.82,-130.3 161.11,-112 181.91,-87.1 261.65,-75.95 325.36,-70.97"/>
<polygon fill="midnightblue" stroke="midnightblue" points="191.73,-166.56 202.17,-168.37 195.14,-160.45 191.73,-166.56"/>
</g>
<!-- Node8 -->
<g id="node8" class="node">
<title>Node8</title>
<g id="a_node8"><a xlink:href="_o_m_sim_l_o_m18_8cc.html" target="_top" xlink:title="Construction of LOM18.">
<polygon fill="white" stroke="black" points="170.61,-112.5 170.61,-131.5 269.61,-131.5 269.61,-112.5 170.61,-112.5"/>
<text text-anchor="middle" x="220.11" y="-119.5" font-family="Helvetica,sans-Serif" font-size="10.00">OMSimLOM18.cc</text>
</a>
</g>
</g>
<!-- Node7&#45;&gt;Node8 -->
<g id="edge8" class="edge">
<title>Node7&#45;&gt;Node8</title>
<path fill="none" stroke="midnightblue" d="M220.11,-157.8C220.11,-148.91 220.11,-138.78 220.11,-131.75"/>
<polygon fill="midnightblue" stroke="midnightblue" points="216.61,-158.08 220.11,-168.08 223.61,-158.08 216.61,-158.08"/>
</g>
<!-- Node10 -->
<g id="node10" class="node">
<title>Node10</title>
<g id="a_node10"><a xlink:href="_o_m_sim_m_d_o_m_8cc.html" target="_top" xlink:title="Construction of mDOM.">
<polygon fill="white" stroke="black" points="590.11,-112.5 590.11,-131.5 688.11,-131.5 688.11,-112.5 590.11,-112.5"/>
<text text-anchor="middle" x="639.11" y="-119.5" font-family="Helvetica,sans-Serif" font-size="10.00">OMSimMDOM.cc</text>
</a>
</g>
</g>
<!-- Node9&#45;&gt;Node10 -->
<g id="edge11" class="edge">
<title>Node9&#45;&gt;Node10</title>
<path fill="none" stroke="midnightblue" d="M639.75,-157.8C639.59,-148.91 639.4,-138.78 639.27,-131.75"/>
<polygon fill="midnightblue" stroke="midnightblue" points="636.26,-158.15 639.94,-168.08 643.26,-158.02 636.26,-158.15"/>
</g>
<!-- Node11 -->
<g id="node11" class="node">
<title>Node11</title>
<g id="a_node11"><a xlink:href="_o_m_sim_m_d_o_m_flasher_8cc.html" target="_top" xlink:title=" ">
<polygon fill="white" stroke="black" points="706.11,-112.5 706.11,-131.5 840.11,-131.5 840.11,-112.5 706.11,-112.5"/>
<text text-anchor="middle" x="773.11" y="-119.5" font-family="Helvetica,sans-Serif" font-size="10.00">OMSimMDOMFlasher.cc</text>
</a>
</g>
</g>
<!-- Node9&#45;&gt;Node11 -->
<g id="edge12" class="edge">
<title>Node9&#45;&gt;Node11</title>
<path fill="none" stroke="midnightblue" d="M670.56,-164.64C695.51,-154.5 730.18,-140.43 752.13,-131.52"/>
<polygon fill="midnightblue" stroke="midnightblue" points="669.13,-161.44 661.18,-168.44 671.76,-167.92 669.13,-161.44"/>
</g>
<!-- Node12 -->
<g id="node12" class="node">
<title>Node12</title>
<g id="a_node12"><a xlink:href="_o_m_sim_m_d_o_m_harness_8cc.html" target="_top" xlink:title="Construction of mDOM harness.">
<polygon fill="white" stroke="black" points="858.11,-112.5 858.11,-131.5 996.11,-131.5 996.11,-112.5 858.11,-112.5"/>
<text text-anchor="middle" x="927.11" y="-119.5" font-family="Helvetica,sans-Serif" font-size="10.00">OMSimMDOMHarness.cc</text>
</a>
</g>
</g>
<!-- Node9&#45;&gt;Node12 -->
<g id="edge13" class="edge">
<title>Node9&#45;&gt;Node12</title>
<path fill="none" stroke="midnightblue" d="M695.72,-166.54C749.96,-156.33 831.45,-141 881.84,-131.52"/>
<polygon fill="midnightblue" stroke="midnightblue" points="694.76,-163.15 685.58,-168.44 696.06,-170.03 694.76,-163.15"/>
</g>
<!-- Node13 -->
<g id="node13" class="node">
<title>Node13</title>
<g id="a_node13"><a xlink:href="_o_m_sim_detector_construction_8hh.html" target="_top" xlink:title=" ">
<polygon fill="white" stroke="black" points="1014.11,-112.5 1014.11,-131.5 1184.11,-131.5 1184.11,-112.5 1014.11,-112.5"/>
<text text-anchor="middle" x="1099.11" y="-119.5" font-family="Helvetica,sans-Serif" font-size="10.00">OMSimDetectorConstruction.hh</text>
</a>
</g>
</g>
<!-- Node9&#45;&gt;Node13 -->
<g id="edge14" class="edge">
<title>Node9&#45;&gt;Node13</title>
<path fill="none" stroke="midnightblue" d="M700.31,-167.88C814.96,-152.82 935.97,-139.69 1014.71,-131.52"/>
<polygon fill="midnightblue" stroke="midnightblue" points="699.76,-164.43 690.3,-169.21 700.67,-171.37 699.76,-164.43"/>
</g>
<!-- Node13&#45;&gt;Node4 -->
<g id="edge18" class="edge">
<title>Node13&#45;&gt;Node4</title>
<path fill="none" stroke="midnightblue" d="M1003.99,-111.92C815.99,-95.9 608.31,-80.86 494.89,-72.88"/>
<polygon fill="midnightblue" stroke="midnightblue" points="1003.8,-115.42 1014.06,-112.78 1004.39,-108.44 1003.8,-115.42"/>
</g>
<!-- Node14 -->
<g id="node14" class="node">
<title>Node14</title>
<g id="a_node14"><a xlink:href="_o_m_sim_8hh.html" target="_top" xlink:title="Main simulation class for the Optical Module (OM) simulation.">
<polygon fill="white" stroke="black" points="1065.61,-56.5 1065.61,-75.5 1132.61,-75.5 1132.61,-56.5 1065.61,-56.5"/>
<text text-anchor="middle" x="1099.11" y="-63.5" font-family="Helvetica,sans-Serif" font-size="10.00">OMSim.hh</text>
</a>
</g>
</g>
<!-- Node13&#45;&gt;Node14 -->
<g id="edge15" class="edge">
<title>Node13&#45;&gt;Node14</title>
<path fill="none" stroke="midnightblue" d="M1099.11,-101.8C1099.11,-92.91 1099.11,-82.78 1099.11,-75.75"/>
<polygon fill="midnightblue" stroke="midnightblue" points="1095.61,-102.08 1099.11,-112.08 1102.61,-102.08 1095.61,-102.08"/>
</g>
<!-- Node15 -->
<g id="node15" class="node">
<title>Node15</title>
<g id="a_node15"><a xlink:href="_o_m_sim_8cc.html" target="_top" xlink:title=" ">
<polygon fill="white" stroke="black" points="1005.61,-0.5 1005.61,-19.5 1070.61,-19.5 1070.61,-0.5 1005.61,-0.5"/>
<text text-anchor="middle" x="1038.11" y="-7.5" font-family="Helvetica,sans-Serif" font-size="10.00">OMSim.cc</text>
</a>
</g>
</g>
<!-- Node14&#45;&gt;Node15 -->
<g id="edge16" class="edge">
<title>Node14&#45;&gt;Node15</title>
<path fill="none" stroke="midnightblue" d="M1081.64,-49.54C1070.76,-39.91 1057.16,-27.87 1048.09,-19.83"/>
<polygon fill="midnightblue" stroke="midnightblue" points="1079.5,-52.32 1089.31,-56.32 1084.14,-47.07 1079.5,-52.32"/>
</g>
<!-- Node16 -->
<g id="node16" class="node">
<title>Node16</title>
<g id="a_node16"><a xlink:href="_o_m_sim__effective__area_8cc.html" target="_top" xlink:title="Main for the calculation of effective areas.">
<polygon fill="white" stroke="black" points="1089.11,-0.5 1089.11,-19.5 1229.11,-19.5 1229.11,-0.5 1089.11,-0.5"/>
<text text-anchor="middle" x="1159.11" y="-7.5" font-family="Helvetica,sans-Serif" font-size="10.00">OMSim_effective_area.cc</text>
</a>
</g>
</g>
<!-- Node14&#45;&gt;Node16 -->
<g id="edge17" class="edge">
<title>Node14&#45;&gt;Node16</title>
<path fill="none" stroke="midnightblue" d="M1116.29,-49.54C1126.99,-39.91 1140.36,-27.87 1149.29,-19.83"/>
<polygon fill="midnightblue" stroke="midnightblue" points="1113.84,-47.03 1108.75,-56.32 1118.52,-52.24 1113.84,-47.03"/>
</g>
<!-- Node17&#45;&gt;Node4 -->
<g id="edge21" class="edge">
<title>Node17&#45;&gt;Node4</title>
<path fill="none" stroke="midnightblue" d="M502.88,-162.11C491.91,-153.71 478.34,-142.76 467.11,-132 447.6,-113.31 427.34,-88.77 417.04,-75.84"/>
<polygon fill="midnightblue" stroke="midnightblue" points="500.94,-165.03 511.03,-168.26 505.15,-159.44 500.94,-165.03"/>
</g>
<!-- Node18 -->
<g id="node18" class="node">
<title>Node18</title>
<g id="a_node18"><a xlink:href="_o_m_sim_p_d_o_m_8cc.html" target="_top" xlink:title="Implementation of the pDOM/Gen1 DOM class.">
<polygon fill="white" stroke="black" points="476.61,-112.5 476.61,-131.5 571.61,-131.5 571.61,-112.5 476.61,-112.5"/>
<text text-anchor="middle" x="524.11" y="-119.5" font-family="Helvetica,sans-Serif" font-size="10.00">OMSimPDOM.cc</text>
</a>
</g>
</g>
<!-- Node17&#45;&gt;Node18 -->
<g id="edge20" class="edge">
<title>Node17&#45;&gt;Node18</title>
<path fill="none" stroke="midnightblue" d="M523.46,-157.8C523.63,-148.91 523.82,-138.78 523.95,-131.75"/>
<polygon fill="midnightblue" stroke="midnightblue" points="519.96,-158.02 523.27,-168.08 526.96,-158.15 519.96,-158.02"/>
</g>
</g>
</svg>
