<?xml version="1.0" encoding="UTF-8" standalone="no"?>
<!DOCTYPE svg PUBLIC "-//W3C//DTD SVG 1.1//EN"
 "http://www.w3.org/Graphics/SVG/1.1/DTD/svg11.dtd">
<!-- Generated by graphviz version 2.43.0 (0)
 -->
<!-- Title: OMSimPrimaryGeneratorAction.hh Pages: 1 -->
<svg width="335pt" height="140pt"
 viewBox="0.00 0.00 335.00 140.00" xmlns="http://www.w3.org/2000/svg" xmlns:xlink="http://www.w3.org/1999/xlink">
<g id="graph0" class="graph" transform="scale(1 1) rotate(0) translate(4 136)">
<title>OMSimPrimaryGeneratorAction.hh</title>
<polygon fill="white" stroke="transparent" points="-4,4 -4,-136 331,-136 331,4 -4,4"/>
<!-- Node1 -->
<g id="node1" class="node">
<title>Node1</title>
<g id="a_node1"><a xlink:title=" ">
<polygon fill="#bfbfbf" stroke="black" points="71,-112.5 71,-131.5 256,-131.5 256,-112.5 71,-112.5"/>
<text text-anchor="middle" x="163.5" y="-119.5" font-family="Helvetica,sans-Serif" font-size="10.00">OMSimPrimaryGeneratorAction.hh</text>
</a>
</g>
</g>
<!-- Node2 -->
<g id="node2" class="node">
<title>Node2</title>
<g id="a_node2"><a xlink:href="_o_m_sim_8hh.html" target="_top" xlink:title="Main simulation class for the Optical Module (OM) simulation.">
<polygon fill="white" stroke="black" points="59,-56.5 59,-75.5 126,-75.5 126,-56.5 59,-56.5"/>
<text text-anchor="middle" x="92.5" y="-63.5" font-family="Helvetica,sans-Serif" font-size="10.00">OMSim.hh</text>
</a>
</g>
</g>
<!-- Node1&#45;&gt;Node2 -->
<g id="edge1" class="edge">
<title>Node1&#45;&gt;Node2</title>
<path fill="none" stroke="midnightblue" d="M143.91,-106.1C131.13,-96.38 114.89,-84.03 104.11,-75.83"/>
<polygon fill="midnightblue" stroke="midnightblue" points="142.01,-109.06 152.09,-112.32 146.25,-103.48 142.01,-109.06"/>
</g>
<!-- Node5 -->
<g id="node5" class="node">
<title>Node5</title>
<g id="a_node5"><a xlink:href="_o_m_sim_primary_generator_action_8cc.html" target="_top" xlink:title=" ">
<polygon fill="white" stroke="black" points="144,-56.5 144,-75.5 327,-75.5 327,-56.5 144,-56.5"/>
<text text-anchor="middle" x="235.5" y="-63.5" font-family="Helvetica,sans-Serif" font-size="10.00">OMSimPrimaryGeneratorAction.cc</text>
</a>
</g>
</g>
<!-- Node1&#45;&gt;Node5 -->
<g id="edge4" class="edge">
<title>Node1&#45;&gt;Node5</title>
<path fill="none" stroke="midnightblue" d="M183.37,-106.1C196.32,-96.38 212.8,-84.03 223.72,-75.83"/>
<polygon fill="midnightblue" stroke="midnightblue" points="180.97,-103.52 175.07,-112.32 185.17,-109.12 180.97,-103.52"/>
</g>
<!-- Node3 -->
<g id="node3" class="node">
<title>Node3</title>
<g id="a_node3"><a xlink:href="_o_m_sim_8cc.html" target="_top" xlink:title=" ">
<polygon fill="white" stroke="black" points="0,-0.5 0,-19.5 65,-19.5 65,-0.5 0,-0.5"/>
<text text-anchor="middle" x="32.5" y="-7.5" font-family="Helvetica,sans-Serif" font-size="10.00">OMSim.cc</text>
</a>
</g>
</g>
<!-- Node2&#45;&gt;Node3 -->
<g id="edge2" class="edge">
<title>Node2&#45;&gt;Node3</title>
<path fill="none" stroke="midnightblue" d="M75.32,-49.54C64.62,-39.91 51.24,-27.87 42.32,-19.83"/>
<polygon fill="midnightblue" stroke="midnightblue" points="73.09,-52.24 82.86,-56.32 77.77,-47.03 73.09,-52.24"/>
</g>
<!-- Node4 -->
<g id="node4" class="node">
<title>Node4</title>
<g id="a_node4"><a xlink:href="_o_m_sim__effective__area_8cc.html" target="_top" xlink:title="Main for the calculation of effective areas.">
<polygon fill="white" stroke="black" points="83.5,-0.5 83.5,-19.5 223.5,-19.5 223.5,-0.5 83.5,-0.5"/>
<text text-anchor="middle" x="153.5" y="-7.5" font-family="Helvetica,sans-Serif" font-size="10.00">OMSim_effective_area.cc</text>
</a>
</g>
</g>
<!-- Node2&#45;&gt;Node4 -->
<g id="edge3" class="edge">
<title>Node2&#45;&gt;Node4</title>
<path fill="none" stroke="midnightblue" d="M109.97,-49.54C120.84,-39.91 134.44,-27.87 143.52,-19.83"/>
<polygon fill="midnightblue" stroke="midnightblue" points="107.47,-47.07 102.3,-56.32 112.11,-52.32 107.47,-47.07"/>
</g>
</g>
</svg>
