<?xml version="1.0" encoding="UTF-8" standalone="no"?>
<!DOCTYPE svg PUBLIC "-//W3C//DTD SVG 1.1//EN"
 "http://www.w3.org/Graphics/SVG/1.1/DTD/svg11.dtd">
<!-- Generated by graphviz version 2.43.0 (0)
 -->
<!-- Title: OMSimPMTResponse.hh Pages: 1 -->
<svg width="1910pt" height="196pt"
 viewBox="0.00 0.00 1910.00 196.00" xmlns="http://www.w3.org/2000/svg" xmlns:xlink="http://www.w3.org/1999/xlink">
<g id="graph0" class="graph" transform="scale(1 1) rotate(0) translate(4 192)">
<title>OMSimPMTResponse.hh</title>
<polygon fill="white" stroke="transparent" points="-4,4 -4,-192 1906,-192 1906,4 -4,4"/>
<!-- Node1 -->
<g id="node1" class="node">
<title>Node1</title>
<g id="a_node1"><a xlink:title="Provides simulation for PMT response. This class is responsible for transforming hits on photocathode...">
<polygon fill="#bfbfbf" stroke="black" points="815.5,-168.5 815.5,-187.5 950.5,-187.5 950.5,-168.5 815.5,-168.5"/>
<text text-anchor="middle" x="883" y="-175.5" font-family="Helvetica,sans-Serif" font-size="10.00">OMSimPMTResponse.hh</text>
</a>
</g>
</g>
<!-- Node2 -->
<g id="node2" class="node">
<title>Node2</title>
<g id="a_node2"><a xlink:href="_o_m_sim_hit_manager_8hh.html" target="_top" xlink:title="Defines structures and classes related to optical module photon hit management.">
<polygon fill="white" stroke="black" points="821.5,-112.5 821.5,-131.5 944.5,-131.5 944.5,-112.5 821.5,-112.5"/>
<text text-anchor="middle" x="883" y="-119.5" font-family="Helvetica,sans-Serif" font-size="10.00">OMSimHitManager.hh</text>
</a>
</g>
</g>
<!-- Node1&#45;&gt;Node2 -->
<g id="edge1" class="edge">
<title>Node1&#45;&gt;Node2</title>
<path fill="none" stroke="midnightblue" d="M883,-157.8C883,-148.91 883,-138.78 883,-131.75"/>
<polygon fill="midnightblue" stroke="midnightblue" points="879.5,-158.08 883,-168.08 886.5,-158.08 879.5,-158.08"/>
</g>
<!-- Node5 -->
<g id="node5" class="node">
<title>Node5</title>
<g id="a_node5"><a xlink:href="_o_m_sim_effective_area_analyisis_8hh.html" target="_top" xlink:title=" ">
<polygon fill="white" stroke="black" points="0,-56.5 0,-75.5 176,-75.5 176,-56.5 0,-56.5"/>
<text text-anchor="middle" x="88" y="-63.5" font-family="Helvetica,sans-Serif" font-size="10.00">OMSimEffectiveAreaAnalyisis.hh</text>
</a>
</g>
</g>
<!-- Node1&#45;&gt;Node5 -->
<g id="edge23" class="edge">
<title>Node1&#45;&gt;Node5</title>
<path fill="none" stroke="midnightblue" d="M810.95,-167.03C656.25,-145.63 294.61,-95.59 149.68,-75.53"/>
<polygon fill="midnightblue" stroke="midnightblue" points="810.89,-170.56 821.28,-168.46 811.85,-163.62 810.89,-170.56"/>
</g>
<!-- Node20 -->
<g id="node20" class="node">
<title>Node20</title>
<g id="a_node20"><a xlink:href="_o_m_sim_p_m_t_response_8cc.html" target="_top" xlink:title=" ">
<polygon fill="white" stroke="black" points="963,-112.5 963,-131.5 1097,-131.5 1097,-112.5 963,-112.5"/>
<text text-anchor="middle" x="1030" y="-119.5" font-family="Helvetica,sans-Serif" font-size="10.00">OMSimPMTResponse.cc</text>
</a>
</g>
</g>
<!-- Node1&#45;&gt;Node20 -->
<g id="edge22" class="edge">
<title>Node1&#45;&gt;Node20</title>
<path fill="none" stroke="midnightblue" d="M915.92,-164.91C943.56,-154.75 982.34,-140.51 1006.82,-131.52"/>
<polygon fill="midnightblue" stroke="midnightblue" points="914.47,-161.71 906.29,-168.44 916.89,-168.28 914.47,-161.71"/>
</g>
<!-- Node3 -->
<g id="node3" class="node">
<title>Node3</title>
<g id="a_node3"><a xlink:href="_o_m_sim_hit_manager_8cc.html" target="_top" xlink:title=" ">
<polygon fill="white" stroke="black" points="194,-56.5 194,-75.5 316,-75.5 316,-56.5 194,-56.5"/>
<text text-anchor="middle" x="255" y="-63.5" font-family="Helvetica,sans-Serif" font-size="10.00">OMSimHitManager.cc</text>
</a>
</g>
</g>
<!-- Node2&#45;&gt;Node3 -->
<g id="edge2" class="edge">
<title>Node2&#45;&gt;Node3</title>
<path fill="none" stroke="midnightblue" d="M811.11,-116.3C704.74,-109.09 499.23,-94.22 325,-76 322.08,-75.69 319.08,-75.37 316.06,-75.02"/>
<polygon fill="midnightblue" stroke="midnightblue" points="811.18,-119.81 821.4,-116.99 811.66,-112.83 811.18,-119.81"/>
</g>
<!-- Node4 -->
<g id="node4" class="node">
<title>Node4</title>
<g id="a_node4"><a xlink:href="_o_m_sim_tracking_action_8cc.html" target="_top" xlink:title=" ">
<polygon fill="white" stroke="black" points="334.5,-56.5 334.5,-75.5 471.5,-75.5 471.5,-56.5 334.5,-56.5"/>
<text text-anchor="middle" x="403" y="-63.5" font-family="Helvetica,sans-Serif" font-size="10.00">OMSimTrackingAction.cc</text>
</a>
</g>
</g>
<!-- Node2&#45;&gt;Node4 -->
<g id="edge3" class="edge">
<title>Node2&#45;&gt;Node4</title>
<path fill="none" stroke="midnightblue" d="M811.2,-112.92C719.42,-102.6 561.66,-84.85 471.5,-74.71"/>
<polygon fill="midnightblue" stroke="midnightblue" points="810.9,-116.41 821.23,-114.05 811.69,-109.45 810.9,-116.41"/>
</g>
<!-- Node2&#45;&gt;Node5 -->
<g id="edge4" class="edge">
<title>Node2&#45;&gt;Node5</title>
<path fill="none" stroke="midnightblue" d="M811,-117.03C684.34,-109.89 413.43,-93.96 185,-76 182.05,-75.77 179.05,-75.53 176.02,-75.28"/>
<polygon fill="midnightblue" stroke="midnightblue" points="811.15,-120.54 821.33,-117.61 811.55,-113.55 811.15,-120.54"/>
</g>
<!-- Node7 -->
<g id="node7" class="node">
<title>Node7</title>
<g id="a_node7"><a xlink:href="_o_m_sim_effective_area_analyisis_8cc.html" target="_top" xlink:title=" ">
<polygon fill="white" stroke="black" points="294.5,-0.5 294.5,-19.5 469.5,-19.5 469.5,-0.5 294.5,-0.5"/>
<text text-anchor="middle" x="382" y="-7.5" font-family="Helvetica,sans-Serif" font-size="10.00">OMSimEffectiveAreaAnalyisis.cc</text>
</a>
</g>
</g>
<!-- Node2&#45;&gt;Node7 -->
<g id="edge8" class="edge">
<title>Node2&#45;&gt;Node7</title>
<path fill="none" stroke="midnightblue" d="M810.94,-119.74C736.13,-116.68 616.49,-106.85 518,-76 499.79,-70.29 497.12,-64.43 480,-56 453.13,-42.77 421.56,-28.5 401.67,-19.66"/>
<polygon fill="midnightblue" stroke="midnightblue" points="811.07,-123.25 821.19,-120.13 811.33,-116.25 811.07,-123.25"/>
</g>
<!-- Node8 -->
<g id="node8" class="node">
<title>Node8</title>
<g id="a_node8"><a xlink:href="effective__area_2src_2_o_m_sim_detector_construction_8cc.html" target="_top" xlink:title=" ">
<polygon fill="white" stroke="black" points="527.5,-56.5 527.5,-75.5 696.5,-75.5 696.5,-56.5 527.5,-56.5"/>
<text text-anchor="middle" x="612" y="-63.5" font-family="Helvetica,sans-Serif" font-size="10.00">OMSimDetectorConstruction.cc</text>
</a>
</g>
</g>
<!-- Node2&#45;&gt;Node8 -->
<g id="edge7" class="edge">
<title>Node2&#45;&gt;Node8</title>
<path fill="none" stroke="midnightblue" d="M830.17,-110.47C778.96,-100.27 702.23,-84.98 654.74,-75.52"/>
<polygon fill="midnightblue" stroke="midnightblue" points="829.57,-113.92 840.06,-112.44 830.94,-107.06 829.57,-113.92"/>
</g>
<!-- Node9 -->
<g id="node9" class="node">
<title>Node9</title>
<g id="a_node9"><a xlink:href="_o_m_sim__radioactive__decays_8cc.html" target="_top" xlink:title="Main of the radioactive decay study.">
<polygon fill="white" stroke="black" points="714.5,-56.5 714.5,-75.5 879.5,-75.5 879.5,-56.5 714.5,-56.5"/>
<text text-anchor="middle" x="797" y="-63.5" font-family="Helvetica,sans-Serif" font-size="10.00">OMSim_radioactive_decays.cc</text>
</a>
</g>
</g>
<!-- Node2&#45;&gt;Node9 -->
<g id="edge9" class="edge">
<title>Node2&#45;&gt;Node9</title>
<path fill="none" stroke="midnightblue" d="M860.55,-106.9C844.78,-97 824.19,-84.07 810.78,-75.65"/>
<polygon fill="midnightblue" stroke="midnightblue" points="858.85,-109.97 869.18,-112.32 862.57,-104.04 858.85,-109.97"/>
</g>
<!-- Node10 -->
<g id="node10" class="node">
<title>Node10</title>
<g id="a_node10"><a xlink:href="_o_m_sim_decays_analysis_8cc.html" target="_top" xlink:title=" ">
<polygon fill="white" stroke="black" points="897.5,-56.5 897.5,-75.5 1040.5,-75.5 1040.5,-56.5 897.5,-56.5"/>
<text text-anchor="middle" x="969" y="-63.5" font-family="Helvetica,sans-Serif" font-size="10.00">OMSimDecaysAnalysis.cc</text>
</a>
</g>
</g>
<!-- Node2&#45;&gt;Node10 -->
<g id="edge10" class="edge">
<title>Node2&#45;&gt;Node10</title>
<path fill="none" stroke="midnightblue" d="M905.45,-106.9C921.22,-97 941.81,-84.07 955.22,-75.65"/>
<polygon fill="midnightblue" stroke="midnightblue" points="903.43,-104.04 896.82,-112.32 907.15,-109.97 903.43,-104.04"/>
</g>
<!-- Node11 -->
<g id="node11" class="node">
<title>Node11</title>
<g id="a_node11"><a xlink:href="radioactive__decays_2src_2_o_m_sim_detector_construction_8cc.html" target="_top" xlink:title=" ">
<polygon fill="white" stroke="black" points="1058.5,-56.5 1058.5,-75.5 1227.5,-75.5 1227.5,-56.5 1058.5,-56.5"/>
<text text-anchor="middle" x="1143" y="-63.5" font-family="Helvetica,sans-Serif" font-size="10.00">OMSimDetectorConstruction.cc</text>
</a>
</g>
</g>
<!-- Node2&#45;&gt;Node11 -->
<g id="edge11" class="edge">
<title>Node2&#45;&gt;Node11</title>
<path fill="none" stroke="midnightblue" d="M933.99,-110.41C983.13,-100.2 1056.53,-84.96 1101.99,-75.52"/>
<polygon fill="midnightblue" stroke="midnightblue" points="933.28,-106.98 924.2,-112.44 934.7,-113.84 933.28,-106.98"/>
</g>
<!-- Node12 -->
<g id="node12" class="node">
<title>Node12</title>
<g id="a_node12"><a xlink:href="radioactive__decays_2src_2_o_m_sim_event_action_8cc.html" target="_top" xlink:title=" ">
<polygon fill="white" stroke="black" points="1245,-56.5 1245,-75.5 1369,-75.5 1369,-56.5 1245,-56.5"/>
<text text-anchor="middle" x="1307" y="-63.5" font-family="Helvetica,sans-Serif" font-size="10.00">OMSimEventAction.cc</text>
</a>
</g>
</g>
<!-- Node2&#45;&gt;Node12 -->
<g id="edge12" class="edge">
<title>Node2&#45;&gt;Node12</title>
<path fill="none" stroke="midnightblue" d="M954.62,-111.91C1041.82,-100.84 1184.02,-82.77 1237,-76 1239.55,-75.67 1242.16,-75.34 1244.79,-75"/>
<polygon fill="midnightblue" stroke="midnightblue" points="954,-108.46 944.53,-113.19 954.89,-115.4 954,-108.46"/>
</g>
<!-- Node13 -->
<g id="node13" class="node">
<title>Node13</title>
<g id="a_node13"><a xlink:href="_o_m_sim_s_n_analysis_8hh.html" target="_top" xlink:title=" ">
<polygon fill="white" stroke="black" points="1425,-56.5 1425,-75.5 1547,-75.5 1547,-56.5 1425,-56.5"/>
<text text-anchor="middle" x="1486" y="-63.5" font-family="Helvetica,sans-Serif" font-size="10.00">OMSimSNAnalysis.hh</text>
</a>
</g>
</g>
<!-- Node2&#45;&gt;Node13 -->
<g id="edge13" class="edge">
<title>Node2&#45;&gt;Node13</title>
<path fill="none" stroke="midnightblue" d="M954.68,-111.98C1158.38,-91.34 1211.52,-95.82 1411,-76 1415.44,-75.56 1420.02,-75.08 1424.63,-74.57"/>
<polygon fill="midnightblue" stroke="midnightblue" points="954.15,-108.52 944.55,-113.02 954.86,-115.48 954.15,-108.52"/>
</g>
<!-- Node14 -->
<g id="node14" class="node">
<title>Node14</title>
<g id="a_node14"><a xlink:href="_o_m_sim__supernova_8cc.html" target="_top" xlink:title="Main of the supernova study.">
<polygon fill="white" stroke="black" points="1112,-0.5 1112,-19.5 1234,-19.5 1234,-0.5 1112,-0.5"/>
<text text-anchor="middle" x="1173" y="-7.5" font-family="Helvetica,sans-Serif" font-size="10.00">OMSim_supernova.cc</text>
</a>
</g>
</g>
<!-- Node2&#45;&gt;Node14 -->
<g id="edge19" class="edge">
<title>Node2&#45;&gt;Node14</title>
<path fill="none" stroke="midnightblue" d="M954.82,-112.22C1033.96,-107.3 1347.57,-109.12 1378,-76 1384.01,-69.45 1383.57,-62.93 1378,-56 1368.57,-44.27 1285.89,-28.93 1228.46,-19.53"/>
<polygon fill="midnightblue" stroke="midnightblue" points="954.25,-108.76 944.56,-113.04 954.8,-115.74 954.25,-108.76"/>
</g>
<!-- Node17 -->
<g id="node17" class="node">
<title>Node17</title>
<g id="a_node17"><a xlink:href="_o_m_sim_s_n_analysis_8cc.html" target="_top" xlink:title="Analyze data and write output files.">
<polygon fill="white" stroke="black" points="1782,-0.5 1782,-19.5 1902,-19.5 1902,-0.5 1782,-0.5"/>
<text text-anchor="middle" x="1842" y="-7.5" font-family="Helvetica,sans-Serif" font-size="10.00">OMSimSNAnalysis.cc</text>
</a>
</g>
</g>
<!-- Node2&#45;&gt;Node17 -->
<g id="edge21" class="edge">
<title>Node2&#45;&gt;Node17</title>
<path fill="none" stroke="midnightblue" d="M954.91,-112.05C1103.24,-100.12 1429.94,-111.17 1556,-76 1574.38,-70.87 1575.96,-62.22 1594,-56 1628.18,-44.22 1721.57,-28.89 1783.49,-19.51"/>
<polygon fill="midnightblue" stroke="midnightblue" points="954.21,-108.59 944.55,-112.94 954.81,-115.57 954.21,-108.59"/>
</g>
<!-- Node19 -->
<g id="node19" class="node">
<title>Node19</title>
<g id="a_node19"><a xlink:href="supernova_2src_2_o_m_sim_detector_construction_8cc.html" target="_top" xlink:title=" ">
<polygon fill="white" stroke="black" points="1602.5,-56.5 1602.5,-75.5 1771.5,-75.5 1771.5,-56.5 1602.5,-56.5"/>
<text text-anchor="middle" x="1687" y="-63.5" font-family="Helvetica,sans-Serif" font-size="10.00">OMSimDetectorConstruction.cc</text>
</a>
</g>
</g>
<!-- Node2&#45;&gt;Node19 -->
<g id="edge20" class="edge">
<title>Node2&#45;&gt;Node19</title>
<path fill="none" stroke="midnightblue" d="M954.68,-112.01C1237.2,-86.46 1310.4,-96.68 1589,-76 1593.34,-75.68 1597.8,-75.33 1602.29,-74.97"/>
<polygon fill="midnightblue" stroke="midnightblue" points="954.19,-108.54 944.54,-112.93 954.82,-115.51 954.19,-108.54"/>
</g>
<!-- Node6 -->
<g id="node6" class="node">
<title>Node6</title>
<g id="a_node6"><a xlink:href="_o_m_sim__effective__area_8cc.html" target="_top" xlink:title="Main for the calculation of effective areas.">
<polygon fill="white" stroke="black" points="18,-0.5 18,-19.5 158,-19.5 158,-0.5 18,-0.5"/>
<text text-anchor="middle" x="88" y="-7.5" font-family="Helvetica,sans-Serif" font-size="10.00">OMSim_effective_area.cc</text>
</a>
</g>
</g>
<!-- Node5&#45;&gt;Node6 -->
<g id="edge5" class="edge">
<title>Node5&#45;&gt;Node6</title>
<path fill="none" stroke="midnightblue" d="M88,-45.8C88,-36.91 88,-26.78 88,-19.75"/>
<polygon fill="midnightblue" stroke="midnightblue" points="84.5,-46.08 88,-56.08 91.5,-46.08 84.5,-46.08"/>
</g>
<!-- Node5&#45;&gt;Node7 -->
<g id="edge6" class="edge">
<title>Node5&#45;&gt;Node7</title>
<path fill="none" stroke="midnightblue" d="M144.62,-54.6C200.18,-44.4 283.9,-29.02 335.63,-19.52"/>
<polygon fill="midnightblue" stroke="midnightblue" points="143.79,-51.19 134.59,-56.44 145.05,-58.08 143.79,-51.19"/>
</g>
<!-- Node13&#45;&gt;Node14 -->
<g id="edge14" class="edge">
<title>Node13&#45;&gt;Node14</title>
<path fill="none" stroke="midnightblue" d="M1426.46,-54.73C1367.31,-44.52 1277.67,-29.06 1222.36,-19.52"/>
<polygon fill="midnightblue" stroke="midnightblue" points="1425.95,-58.19 1436.4,-56.44 1427.14,-51.29 1425.95,-58.19"/>
</g>
<!-- Node15 -->
<g id="node15" class="node">
<title>Node15</title>
<g id="a_node15"><a xlink:href="supernova_2src_2_o_m_sim_event_action_8cc.html" target="_top" xlink:title=" ">
<polygon fill="white" stroke="black" points="1252,-0.5 1252,-19.5 1376,-19.5 1376,-0.5 1252,-0.5"/>
<text text-anchor="middle" x="1314" y="-7.5" font-family="Helvetica,sans-Serif" font-size="10.00">OMSimEventAction.cc</text>
</a>
</g>
</g>
<!-- Node13&#45;&gt;Node15 -->
<g id="edge15" class="edge">
<title>Node13&#45;&gt;Node15</title>
<path fill="none" stroke="midnightblue" d="M1449.17,-53.44C1416.74,-43.26 1370.26,-28.66 1341.13,-19.52"/>
<polygon fill="midnightblue" stroke="midnightblue" points="1448.16,-56.79 1458.75,-56.44 1450.25,-50.11 1448.16,-56.79"/>
</g>
<!-- Node16 -->
<g id="node16" class="node">
<title>Node16</title>
<g id="a_node16"><a xlink:href="supernova_2src_2_o_m_sim_primary_generator_action_8cc.html" target="_top" xlink:title=" ">
<polygon fill="white" stroke="black" points="1394.5,-0.5 1394.5,-19.5 1577.5,-19.5 1577.5,-0.5 1394.5,-0.5"/>
<text text-anchor="middle" x="1486" y="-7.5" font-family="Helvetica,sans-Serif" font-size="10.00">OMSimPrimaryGeneratorAction.cc</text>
</a>
</g>
</g>
<!-- Node13&#45;&gt;Node16 -->
<g id="edge16" class="edge">
<title>Node13&#45;&gt;Node16</title>
<path fill="none" stroke="midnightblue" d="M1486,-45.8C1486,-36.91 1486,-26.78 1486,-19.75"/>
<polygon fill="midnightblue" stroke="midnightblue" points="1482.5,-46.08 1486,-56.08 1489.5,-46.08 1482.5,-46.08"/>
</g>
<!-- Node13&#45;&gt;Node17 -->
<g id="edge17" class="edge">
<title>Node13&#45;&gt;Node17</title>
<path fill="none" stroke="midnightblue" d="M1552.48,-54.92C1619.73,-44.71 1722.56,-29.12 1785.85,-19.52"/>
<polygon fill="midnightblue" stroke="midnightblue" points="1551.77,-51.48 1542.41,-56.44 1552.82,-58.4 1551.77,-51.48"/>
</g>
<!-- Node18 -->
<g id="node18" class="node">
<title>Node18</title>
<g id="a_node18"><a xlink:href="_o_m_sim_s_n_particle_generators_8cc.html" target="_top" xlink:title=" ">
<polygon fill="white" stroke="black" points="1595.5,-0.5 1595.5,-19.5 1764.5,-19.5 1764.5,-0.5 1595.5,-0.5"/>
<text text-anchor="middle" x="1680" y="-7.5" font-family="Helvetica,sans-Serif" font-size="10.00">OMSimSNParticleGenerators.cc</text>
</a>
</g>
</g>
<!-- Node13&#45;&gt;Node18 -->
<g id="edge18" class="edge">
<title>Node13&#45;&gt;Node18</title>
<path fill="none" stroke="midnightblue" d="M1526.6,-53.7C1563.22,-43.51 1616.26,-28.74 1649.4,-19.52"/>
<polygon fill="midnightblue" stroke="midnightblue" points="1525.44,-50.39 1516.74,-56.44 1527.31,-57.13 1525.44,-50.39"/>
</g>
</g>
</svg>
