<?xml version="1.0" encoding="UTF-8" standalone="no"?>
<!DOCTYPE svg PUBLIC "-//W3C//DTD SVG 1.1//EN"
 "http://www.w3.org/Graphics/SVG/1.1/DTD/svg11.dtd">
<!-- Generated by graphviz version 2.43.0 (0)
 -->
<!-- Title: OMSimCommandArgsTable.hh Pages: 1 -->
<svg width="2314pt" height="196pt"
 viewBox="0.00 0.00 2313.50 196.00" xmlns="http://www.w3.org/2000/svg" xmlns:xlink="http://www.w3.org/1999/xlink">
<g id="graph0" class="graph" transform="scale(1 1) rotate(0) translate(4 192)">
<title>OMSimCommandArgsTable.hh</title>
<polygon fill="white" stroke="transparent" points="-4,4 -4,-192 2309.5,-192 2309.5,4 -4,4"/>
<!-- Node1 -->
<g id="node1" class="node">
<title>Node1</title>
<g id="a_node1"><a xlink:title="Definition of the OMSimCommandArgsTable singleton class, which controls user args.">
<polygon fill="#bfbfbf" stroke="black" points="999,-168.5 999,-187.5 1163,-187.5 1163,-168.5 999,-168.5"/>
<text text-anchor="middle" x="1081" y="-175.5" font-family="Helvetica,sans-Serif" font-size="10.00">OMSimCommandArgsTable.hh</text>
</a>
</g>
</g>
<!-- Node2 -->
<g id="node2" class="node">
<title>Node2</title>
<g id="a_node2"><a xlink:href="_o_m_sim_data_file_types_8hh.html" target="_top" xlink:title="Collection of classes and methods to handle material creation from user data in json files.">
<polygon fill="white" stroke="black" points="141.5,-112.5 141.5,-131.5 276.5,-131.5 276.5,-112.5 141.5,-112.5"/>
<text text-anchor="middle" x="209" y="-119.5" font-family="Helvetica,sans-Serif" font-size="10.00">OMSimDataFileTypes.hh</text>
</a>
</g>
</g>
<!-- Node1&#45;&gt;Node2 -->
<g id="edge1" class="edge">
<title>Node1&#45;&gt;Node2</title>
<path fill="none" stroke="midnightblue" d="M988.57,-172.45C844.11,-165.15 556.07,-149.8 312,-132 300.54,-131.16 288.38,-130.18 276.57,-129.18"/>
<polygon fill="midnightblue" stroke="midnightblue" points="988.56,-175.95 998.72,-172.96 988.91,-168.96 988.56,-175.95"/>
</g>
<!-- Node4 -->
<g id="node4" class="node">
<title>Node4</title>
<g id="a_node4"><a xlink:href="_o_m_sim_input_data_8cc.html" target="_top" xlink:title=" ">
<polygon fill="white" stroke="black" points="152.5,-56.5 152.5,-75.5 265.5,-75.5 265.5,-56.5 152.5,-56.5"/>
<text text-anchor="middle" x="209" y="-63.5" font-family="Helvetica,sans-Serif" font-size="10.00">OMSimInputData.cc</text>
</a>
</g>
</g>
<!-- Node1&#45;&gt;Node4 -->
<g id="edge14" class="edge">
<title>Node1&#45;&gt;Node4</title>
<path fill="none" stroke="midnightblue" d="M988.69,-175.32C821.12,-171.6 473.37,-160.62 356,-132 305.03,-119.57 249.65,-90.34 223.82,-75.69"/>
<polygon fill="midnightblue" stroke="midnightblue" points="988.66,-178.82 998.73,-175.54 988.81,-171.82 988.66,-178.82"/>
</g>
<!-- Node5 -->
<g id="node5" class="node">
<title>Node5</title>
<g id="a_node5"><a xlink:href="_o_m_sim_u_iinterface_8hh.html" target="_top" xlink:title="The OMSimUIinterface class provides a singleton interface to Geant4&#39;s UI manager.">
<polygon fill="white" stroke="black" points="364.5,-112.5 364.5,-131.5 485.5,-131.5 485.5,-112.5 364.5,-112.5"/>
<text text-anchor="middle" x="425" y="-119.5" font-family="Helvetica,sans-Serif" font-size="10.00">OMSimUIinterface.hh</text>
</a>
</g>
</g>
<!-- Node1&#45;&gt;Node5 -->
<g id="edge4" class="edge">
<title>Node1&#45;&gt;Node5</title>
<path fill="none" stroke="midnightblue" d="M988.65,-171.38C873.08,-164 669.15,-149.87 495,-132 491.95,-131.69 488.83,-131.35 485.68,-131"/>
<polygon fill="midnightblue" stroke="midnightblue" points="988.67,-174.88 998.87,-172.03 989.12,-167.9 988.67,-174.88"/>
</g>
<!-- Node14 -->
<g id="node14" class="node">
<title>Node14</title>
<g id="a_node14"><a xlink:href="_o_m_sim_hit_manager_8cc.html" target="_top" xlink:title=" ">
<polygon fill="white" stroke="black" points="504,-112.5 504,-131.5 626,-131.5 626,-112.5 504,-112.5"/>
<text text-anchor="middle" x="565" y="-119.5" font-family="Helvetica,sans-Serif" font-size="10.00">OMSimHitManager.cc</text>
</a>
</g>
</g>
<!-- Node1&#45;&gt;Node14 -->
<g id="edge13" class="edge">
<title>Node1&#45;&gt;Node14</title>
<path fill="none" stroke="midnightblue" d="M988.74,-168.36C898.69,-159.76 757.83,-145.88 636,-132 632.79,-131.63 629.5,-131.25 626.18,-130.85"/>
<polygon fill="midnightblue" stroke="midnightblue" points="988.63,-171.86 998.92,-169.33 989.29,-164.89 988.63,-171.86"/>
</g>
<!-- Node15 -->
<g id="node15" class="node">
<title>Node15</title>
<g id="a_node15"><a xlink:href="_o_m_sim_p_m_t_construction_8cc.html" target="_top" xlink:title=" ">
<polygon fill="white" stroke="black" points="644.5,-112.5 644.5,-131.5 791.5,-131.5 791.5,-112.5 644.5,-112.5"/>
<text text-anchor="middle" x="718" y="-119.5" font-family="Helvetica,sans-Serif" font-size="10.00">OMSimPMTConstruction.cc</text>
</a>
</g>
</g>
<!-- Node1&#45;&gt;Node15 -->
<g id="edge15" class="edge">
<title>Node1&#45;&gt;Node15</title>
<path fill="none" stroke="midnightblue" d="M1013.22,-166.92C944.64,-156.71 839.79,-141.12 775.25,-131.52"/>
<polygon fill="midnightblue" stroke="midnightblue" points="1013.08,-170.43 1023.48,-168.44 1014.11,-163.51 1013.08,-170.43"/>
</g>
<!-- Node16 -->
<g id="node16" class="node">
<title>Node16</title>
<g id="a_node16"><a xlink:href="_o_m_sim_m_d_o_m_8cc.html" target="_top" xlink:title=" ">
<polygon fill="white" stroke="black" points="810,-112.5 810,-131.5 908,-131.5 908,-112.5 810,-112.5"/>
<text text-anchor="middle" x="859" y="-119.5" font-family="Helvetica,sans-Serif" font-size="10.00">OMSimMDOM.cc</text>
</a>
</g>
</g>
<!-- Node1&#45;&gt;Node16 -->
<g id="edge16" class="edge">
<title>Node1&#45;&gt;Node16</title>
<path fill="none" stroke="midnightblue" d="M1035.88,-166.02C993.94,-155.82 932.35,-140.84 894.01,-131.52"/>
<polygon fill="midnightblue" stroke="midnightblue" points="1035.28,-169.48 1045.82,-168.44 1036.93,-162.68 1035.28,-169.48"/>
</g>
<!-- Node17 -->
<g id="node17" class="node">
<title>Node17</title>
<g id="a_node17"><a xlink:href="_o_m_sim_m_d_o_m_harness_8cc.html" target="_top" xlink:title=" ">
<polygon fill="white" stroke="black" points="926,-112.5 926,-131.5 1064,-131.5 1064,-112.5 926,-112.5"/>
<text text-anchor="middle" x="995" y="-119.5" font-family="Helvetica,sans-Serif" font-size="10.00">OMSimMDOMHarness.cc</text>
</a>
</g>
</g>
<!-- Node1&#45;&gt;Node17 -->
<g id="edge17" class="edge">
<title>Node1&#45;&gt;Node17</title>
<path fill="none" stroke="midnightblue" d="M1058.55,-162.9C1042.78,-153 1022.19,-140.07 1008.78,-131.65"/>
<polygon fill="midnightblue" stroke="midnightblue" points="1056.85,-165.97 1067.18,-168.32 1060.57,-160.04 1056.85,-165.97"/>
</g>
<!-- Node18 -->
<g id="node18" class="node">
<title>Node18</title>
<g id="a_node18"><a xlink:href="effective__area_2src_2_o_m_sim_detector_construction_8cc.html" target="_top" xlink:title=" ">
<polygon fill="white" stroke="black" points="1082.5,-112.5 1082.5,-131.5 1251.5,-131.5 1251.5,-112.5 1082.5,-112.5"/>
<text text-anchor="middle" x="1167" y="-119.5" font-family="Helvetica,sans-Serif" font-size="10.00">OMSimDetectorConstruction.cc</text>
</a>
</g>
</g>
<!-- Node1&#45;&gt;Node18 -->
<g id="edge18" class="edge">
<title>Node1&#45;&gt;Node18</title>
<path fill="none" stroke="midnightblue" d="M1103.45,-162.9C1119.22,-153 1139.81,-140.07 1153.22,-131.65"/>
<polygon fill="midnightblue" stroke="midnightblue" points="1101.43,-160.04 1094.82,-168.32 1105.15,-165.97 1101.43,-160.04"/>
</g>
<!-- Node19 -->
<g id="node19" class="node">
<title>Node19</title>
<g id="a_node19"><a xlink:href="_o_m_sim_effective_area_analyisis_8cc.html" target="_top" xlink:title=" ">
<polygon fill="white" stroke="black" points="1269.5,-112.5 1269.5,-131.5 1444.5,-131.5 1444.5,-112.5 1269.5,-112.5"/>
<text text-anchor="middle" x="1357" y="-119.5" font-family="Helvetica,sans-Serif" font-size="10.00">OMSimEffectiveAreaAnalyisis.cc</text>
</a>
</g>
</g>
<!-- Node1&#45;&gt;Node19 -->
<g id="edge19" class="edge">
<title>Node1&#45;&gt;Node19</title>
<path fill="none" stroke="midnightblue" d="M1134.8,-166.47C1186.96,-156.27 1265.11,-140.98 1313.47,-131.52"/>
<polygon fill="midnightblue" stroke="midnightblue" points="1133.87,-163.09 1124.73,-168.44 1135.22,-169.96 1133.87,-163.09"/>
</g>
<!-- Node20 -->
<g id="node20" class="node">
<title>Node20</title>
<g id="a_node20"><a xlink:href="_o_m_sim_decays_analysis_8cc.html" target="_top" xlink:title=" ">
<polygon fill="white" stroke="black" points="1462.5,-112.5 1462.5,-131.5 1605.5,-131.5 1605.5,-112.5 1462.5,-112.5"/>
<text text-anchor="middle" x="1534" y="-119.5" font-family="Helvetica,sans-Serif" font-size="10.00">OMSimDecaysAnalysis.cc</text>
</a>
</g>
</g>
<!-- Node1&#45;&gt;Node20 -->
<g id="edge20" class="edge">
<title>Node1&#45;&gt;Node20</title>
<path fill="none" stroke="midnightblue" d="M1162.97,-167.23C1248.48,-157.04 1381.19,-141.22 1462.56,-131.52"/>
<polygon fill="midnightblue" stroke="midnightblue" points="1162.29,-163.78 1152.78,-168.44 1163.12,-170.74 1162.29,-163.78"/>
</g>
<!-- Node21 -->
<g id="node21" class="node">
<title>Node21</title>
<g id="a_node21"><a xlink:href="radioactive__decays_2src_2_o_m_sim_detector_construction_8cc.html" target="_top" xlink:title=" ">
<polygon fill="white" stroke="black" points="1623.5,-112.5 1623.5,-131.5 1792.5,-131.5 1792.5,-112.5 1623.5,-112.5"/>
<text text-anchor="middle" x="1708" y="-119.5" font-family="Helvetica,sans-Serif" font-size="10.00">OMSimDetectorConstruction.cc</text>
</a>
</g>
</g>
<!-- Node1&#45;&gt;Node21 -->
<g id="edge21" class="edge">
<title>Node1&#45;&gt;Node21</title>
<path fill="none" stroke="midnightblue" d="M1173.43,-169.56C1279.93,-160.91 1460.16,-146.02 1615,-132 1617.75,-131.75 1620.54,-131.5 1623.36,-131.24"/>
<polygon fill="midnightblue" stroke="midnightblue" points="1173.04,-166.08 1163.36,-170.38 1173.61,-173.06 1173.04,-166.08"/>
</g>
<!-- Node22 -->
<g id="node22" class="node">
<title>Node22</title>
<g id="a_node22"><a xlink:href="radioactive__decays_2src_2_o_m_sim_event_action_8cc.html" target="_top" xlink:title=" ">
<polygon fill="white" stroke="black" points="1810,-112.5 1810,-131.5 1934,-131.5 1934,-112.5 1810,-112.5"/>
<text text-anchor="middle" x="1872" y="-119.5" font-family="Helvetica,sans-Serif" font-size="10.00">OMSimEventAction.cc</text>
</a>
</g>
</g>
<!-- Node1&#45;&gt;Node22 -->
<g id="edge22" class="edge">
<title>Node1&#45;&gt;Node22</title>
<path fill="none" stroke="midnightblue" d="M1173.1,-173.19C1310.33,-167.07 1576.51,-153.51 1802,-132 1804.56,-131.76 1807.17,-131.49 1809.81,-131.21"/>
<polygon fill="midnightblue" stroke="midnightblue" points="1172.88,-169.69 1163.04,-173.63 1173.19,-176.69 1172.88,-169.69"/>
</g>
<!-- Node23 -->
<g id="node23" class="node">
<title>Node23</title>
<g id="a_node23"><a xlink:href="_o_m_sim_g4_radioactive_decay_8cc.html" target="_top" xlink:title=" ">
<polygon fill="white" stroke="black" points="1952,-112.5 1952,-131.5 2118,-131.5 2118,-112.5 1952,-112.5"/>
<text text-anchor="middle" x="2035" y="-119.5" font-family="Helvetica,sans-Serif" font-size="10.00">OMSimG4RadioactiveDecay.cc</text>
</a>
</g>
</g>
<!-- Node1&#45;&gt;Node23 -->
<g id="edge23" class="edge">
<title>Node1&#45;&gt;Node23</title>
<path fill="none" stroke="midnightblue" d="M1173.23,-173.56C1331.04,-167.36 1662.98,-153 1943,-132 1945.88,-131.78 1948.81,-131.55 1951.77,-131.31"/>
<polygon fill="midnightblue" stroke="midnightblue" points="1172.94,-170.07 1163.09,-173.96 1173.22,-177.06 1172.94,-170.07"/>
</g>
<!-- Node24 -->
<g id="node24" class="node">
<title>Node24</title>
<g id="a_node24"><a xlink:href="supernova_2src_2_o_m_sim_detector_construction_8cc.html" target="_top" xlink:title=" ">
<polygon fill="white" stroke="black" points="2136.5,-112.5 2136.5,-131.5 2305.5,-131.5 2305.5,-112.5 2136.5,-112.5"/>
<text text-anchor="middle" x="2221" y="-119.5" font-family="Helvetica,sans-Serif" font-size="10.00">OMSimDetectorConstruction.cc</text>
</a>
</g>
</g>
<!-- Node1&#45;&gt;Node24 -->
<g id="edge24" class="edge">
<title>Node1&#45;&gt;Node24</title>
<path fill="none" stroke="midnightblue" d="M1173.21,-174.66C1355.56,-169.67 1775.07,-156.4 2127,-132 2130.11,-131.78 2133.27,-131.55 2136.47,-131.3"/>
<polygon fill="midnightblue" stroke="midnightblue" points="1173.03,-171.16 1163.13,-174.93 1173.22,-178.16 1173.03,-171.16"/>
</g>
<!-- Node3 -->
<g id="node3" class="node">
<title>Node3</title>
<g id="a_node3"><a xlink:href="_o_m_sim_data_file_types_8cc.html" target="_top" xlink:title=" ">
<polygon fill="white" stroke="black" points="0,-56.5 0,-75.5 134,-75.5 134,-56.5 0,-56.5"/>
<text text-anchor="middle" x="67" y="-63.5" font-family="Helvetica,sans-Serif" font-size="10.00">OMSimDataFileTypes.cc</text>
</a>
</g>
</g>
<!-- Node2&#45;&gt;Node3 -->
<g id="edge2" class="edge">
<title>Node2&#45;&gt;Node3</title>
<path fill="none" stroke="midnightblue" d="M176.84,-108.77C150.17,-98.63 112.93,-84.47 89.4,-75.52"/>
<polygon fill="midnightblue" stroke="midnightblue" points="175.91,-112.16 186.5,-112.44 178.4,-105.62 175.91,-112.16"/>
</g>
<!-- Node2&#45;&gt;Node4 -->
<g id="edge3" class="edge">
<title>Node2&#45;&gt;Node4</title>
<path fill="none" stroke="midnightblue" d="M209,-101.8C209,-92.91 209,-82.78 209,-75.75"/>
<polygon fill="midnightblue" stroke="midnightblue" points="205.5,-102.08 209,-112.08 212.5,-102.08 205.5,-102.08"/>
</g>
<!-- Node6 -->
<g id="node6" class="node">
<title>Node6</title>
<g id="a_node6"><a xlink:href="_o_m_sim_8hh.html" target="_top" xlink:title="Main simulation class for the Optical Module (OM) simulation. This file defines the OMSim class,...">
<polygon fill="white" stroke="black" points="283.5,-56.5 283.5,-75.5 350.5,-75.5 350.5,-56.5 283.5,-56.5"/>
<text text-anchor="middle" x="317" y="-63.5" font-family="Helvetica,sans-Serif" font-size="10.00">OMSim.hh</text>
</a>
</g>
</g>
<!-- Node5&#45;&gt;Node6 -->
<g id="edge5" class="edge">
<title>Node5&#45;&gt;Node6</title>
<path fill="none" stroke="midnightblue" d="M398.45,-107.73C378.45,-97.73 351.61,-84.31 334.31,-75.65"/>
<polygon fill="midnightblue" stroke="midnightblue" points="397.14,-110.98 407.65,-112.32 400.27,-104.72 397.14,-110.98"/>
</g>
<!-- Node11 -->
<g id="node11" class="node">
<title>Node11</title>
<g id="a_node11"><a xlink:href="_o_m_sim_m_d_o_m_flasher_8cc.html" target="_top" xlink:title=" ">
<polygon fill="white" stroke="black" points="369,-56.5 369,-75.5 503,-75.5 503,-56.5 369,-56.5"/>
<text text-anchor="middle" x="436" y="-63.5" font-family="Helvetica,sans-Serif" font-size="10.00">OMSimMDOMFlasher.cc</text>
</a>
</g>
</g>
<!-- Node5&#45;&gt;Node11 -->
<g id="edge10" class="edge">
<title>Node5&#45;&gt;Node11</title>
<path fill="none" stroke="midnightblue" d="M428.85,-102.1C430.68,-93.14 432.77,-82.86 434.22,-75.75"/>
<polygon fill="midnightblue" stroke="midnightblue" points="425.38,-101.59 426.82,-112.08 432.24,-102.98 425.38,-101.59"/>
</g>
<!-- Node12 -->
<g id="node12" class="node">
<title>Node12</title>
<g id="a_node12"><a xlink:href="_o_m_sim_angular_scan_8cc.html" target="_top" xlink:title=" ">
<polygon fill="white" stroke="black" points="521,-56.5 521,-75.5 647,-75.5 647,-56.5 521,-56.5"/>
<text text-anchor="middle" x="584" y="-63.5" font-family="Helvetica,sans-Serif" font-size="10.00">OMSimAngularScan.cc</text>
</a>
</g>
</g>
<!-- Node5&#45;&gt;Node12 -->
<g id="edge11" class="edge">
<title>Node5&#45;&gt;Node12</title>
<path fill="none" stroke="midnightblue" d="M459.83,-109.17C489.77,-99 532.22,-84.59 558.92,-75.52"/>
<polygon fill="midnightblue" stroke="midnightblue" points="458.54,-105.91 450.19,-112.44 460.79,-112.54 458.54,-105.91"/>
</g>
<!-- Node13 -->
<g id="node13" class="node">
<title>Node13</title>
<g id="a_node13"><a xlink:href="_o_m_sim_decays_g_p_s_8cc.html" target="_top" xlink:title=" ">
<polygon fill="white" stroke="black" points="665.5,-56.5 665.5,-75.5 786.5,-75.5 786.5,-56.5 665.5,-56.5"/>
<text text-anchor="middle" x="726" y="-63.5" font-family="Helvetica,sans-Serif" font-size="10.00">OMSimDecaysGPS.cc</text>
</a>
</g>
</g>
<!-- Node5&#45;&gt;Node13 -->
<g id="edge12" class="edge">
<title>Node5&#45;&gt;Node13</title>
<path fill="none" stroke="midnightblue" d="M482.61,-110.66C539.5,-100.46 625.45,-85.04 678.53,-75.52"/>
<polygon fill="midnightblue" stroke="midnightblue" points="481.92,-107.23 472.69,-112.44 483.16,-114.12 481.92,-107.23"/>
</g>
<!-- Node7 -->
<g id="node7" class="node">
<title>Node7</title>
<g id="a_node7"><a xlink:href="_o_m_sim_8cc.html" target="_top" xlink:title="Implementation of the OMSim class.">
<polygon fill="white" stroke="black" points="78.5,-0.5 78.5,-19.5 143.5,-19.5 143.5,-0.5 78.5,-0.5"/>
<text text-anchor="middle" x="111" y="-7.5" font-family="Helvetica,sans-Serif" font-size="10.00">OMSim.cc</text>
</a>
</g>
</g>
<!-- Node6&#45;&gt;Node7 -->
<g id="edge6" class="edge">
<title>Node6&#45;&gt;Node7</title>
<path fill="none" stroke="midnightblue" d="M274.38,-53.83C235.49,-43.63 178.84,-28.78 143.49,-19.52"/>
<polygon fill="midnightblue" stroke="midnightblue" points="273.8,-57.29 284.36,-56.44 275.57,-50.52 273.8,-57.29"/>
</g>
<!-- Node8 -->
<g id="node8" class="node">
<title>Node8</title>
<g id="a_node8"><a xlink:href="_o_m_sim__effective__area_8cc.html" target="_top" xlink:title="Main for the calculation of effective areas.">
<polygon fill="white" stroke="black" points="162,-0.5 162,-19.5 302,-19.5 302,-0.5 162,-0.5"/>
<text text-anchor="middle" x="232" y="-7.5" font-family="Helvetica,sans-Serif" font-size="10.00">OMSim_effective_area.cc</text>
</a>
</g>
</g>
<!-- Node6&#45;&gt;Node8 -->
<g id="edge7" class="edge">
<title>Node6&#45;&gt;Node8</title>
<path fill="none" stroke="midnightblue" d="M294.81,-50.9C279.22,-41 258.87,-28.07 245.62,-19.65"/>
<polygon fill="midnightblue" stroke="midnightblue" points="293.03,-53.92 303.34,-56.32 296.78,-48.01 293.03,-53.92"/>
</g>
<!-- Node9 -->
<g id="node9" class="node">
<title>Node9</title>
<g id="a_node9"><a xlink:href="_o_m_sim__radioactive__decays_8cc.html" target="_top" xlink:title=" ">
<polygon fill="white" stroke="black" points="320.5,-0.5 320.5,-19.5 485.5,-19.5 485.5,-0.5 320.5,-0.5"/>
<text text-anchor="middle" x="403" y="-7.5" font-family="Helvetica,sans-Serif" font-size="10.00">OMSim_radioactive_decays.cc</text>
</a>
</g>
</g>
<!-- Node6&#45;&gt;Node9 -->
<g id="edge8" class="edge">
<title>Node6&#45;&gt;Node9</title>
<path fill="none" stroke="midnightblue" d="M339.45,-50.9C355.22,-41 375.81,-28.07 389.22,-19.65"/>
<polygon fill="midnightblue" stroke="midnightblue" points="337.43,-48.04 330.82,-56.32 341.15,-53.97 337.43,-48.04"/>
</g>
<!-- Node10 -->
<g id="node10" class="node">
<title>Node10</title>
<g id="a_node10"><a xlink:href="_o_m_sim__supernova_8cc.html" target="_top" xlink:title=" ">
<polygon fill="white" stroke="black" points="504,-0.5 504,-19.5 626,-19.5 626,-0.5 504,-0.5"/>
<text text-anchor="middle" x="565" y="-7.5" font-family="Helvetica,sans-Serif" font-size="10.00">OMSim_supernova.cc</text>
</a>
</g>
</g>
<!-- Node6&#45;&gt;Node10 -->
<g id="edge9" class="edge">
<title>Node6&#45;&gt;Node10</title>
<path fill="none" stroke="midnightblue" d="M360.52,-55.52C407.19,-45.36 480.64,-29.37 525.64,-19.57"/>
<polygon fill="midnightblue" stroke="midnightblue" points="359.73,-52.11 350.7,-57.66 361.22,-58.95 359.73,-52.11"/>
</g>
</g>
</svg>
