<?xml version="1.0" encoding="UTF-8" standalone="no"?>
<!DOCTYPE svg PUBLIC "-//W3C//DTD SVG 1.1//EN"
 "http://www.w3.org/Graphics/SVG/1.1/DTD/svg11.dtd">
<!-- Generated by graphviz version 2.43.0 (0)
 -->
<!-- Title: OMSimMDOMHarness.cc Pages: 1 -->
<svg width="2641pt" height="319pt"
 viewBox="0.00 0.00 2641.45 319.00" xmlns="http://www.w3.org/2000/svg" xmlns:xlink="http://www.w3.org/1999/xlink">
<g id="graph0" class="graph" transform="scale(1 1) rotate(0) translate(4 315)">
<title>OMSimMDOMHarness.cc</title>
<polygon fill="white" stroke="transparent" points="-4,4 -4,-315 2637.45,-315 2637.45,4 -4,4"/>
<!-- Node1 -->
<g id="node1" class="node">
<title>Node1</title>
<g id="a_node1"><a xlink:title="Construction of mDOM harness.">
<polygon fill="#bfbfbf" stroke="black" points="1299,-291.5 1299,-310.5 1437,-310.5 1437,-291.5 1299,-291.5"/>
<text text-anchor="middle" x="1368" y="-298.5" font-family="Helvetica,sans-Serif" font-size="10.00">OMSimMDOMHarness.cc</text>
</a>
</g>
</g>
<!-- Node2 -->
<g id="node2" class="node">
<title>Node2</title>
<g id="a_node2"><a xlink:href="_o_m_sim_m_d_o_m_harness_8hh.html" target="_top" xlink:title=" ">
<polygon fill="white" stroke="black" points="365,-179.5 365,-198.5 505,-198.5 505,-179.5 365,-179.5"/>
<text text-anchor="middle" x="435" y="-186.5" font-family="Helvetica,sans-Serif" font-size="10.00">OMSimMDOMHarness.hh</text>
</a>
</g>
</g>
<!-- Node1&#45;&gt;Node2 -->
<g id="edge1" class="edge">
<title>Node1&#45;&gt;Node2</title>
<path fill="none" stroke="midnightblue" d="M1298.95,-298.7C1109.55,-294.81 591.16,-281.81 519,-255 491.33,-244.72 465.42,-221.88 449.88,-206.2"/>
<polygon fill="midnightblue" stroke="midnightblue" points="452.2,-203.56 442.75,-198.77 447.15,-208.41 452.2,-203.56"/>
</g>
<!-- Node3 -->
<g id="node3" class="node">
<title>Node3</title>
<g id="a_node3"><a xlink:href="abc_detector_component_8hh.html" target="_top" xlink:title=" ">
<polygon fill="white" stroke="black" points="991.5,-123.5 991.5,-142.5 1138.5,-142.5 1138.5,-123.5 991.5,-123.5"/>
<text text-anchor="middle" x="1065" y="-130.5" font-family="Helvetica,sans-Serif" font-size="10.00">abcDetectorComponent.hh</text>
</a>
</g>
</g>
<!-- Node1&#45;&gt;Node3 -->
<g id="edge54" class="edge">
<title>Node1&#45;&gt;Node3</title>
<path fill="none" stroke="midnightblue" d="M1298.89,-292.89C1195.67,-280.64 1009.23,-251.66 971,-199 953.46,-174.85 989,-156.63 1021.29,-145.72"/>
<polygon fill="midnightblue" stroke="midnightblue" points="1022.68,-148.95 1031.14,-142.57 1020.55,-142.28 1022.68,-148.95"/>
</g>
<!-- Node4 -->
<g id="node4" class="node">
<title>Node4</title>
<g id="a_node4"><a xlink:title=" ">
<polygon fill="white" stroke="#bfbfbf" points="641,-67.5 641,-86.5 757,-86.5 757,-67.5 641,-67.5"/>
<text text-anchor="middle" x="699" y="-74.5" font-family="Helvetica,sans-Serif" font-size="10.00">G4LogicalVolume.hh</text>
</a>
</g>
</g>
<!-- Node1&#45;&gt;Node4 -->
<g id="edge65" class="edge">
<title>Node1&#45;&gt;Node4</title>
<path fill="none" stroke="midnightblue" d="M1298.91,-295.62C1212.77,-289.35 1071,-276.2 1023,-255 939.92,-218.3 947.48,-165.1 867,-123 835.25,-106.39 796.84,-95.51 764.77,-88.62"/>
<polygon fill="midnightblue" stroke="midnightblue" points="765.09,-85.11 754.59,-86.52 763.68,-91.97 765.09,-85.11"/>
</g>
<!-- Node5 -->
<g id="node5" class="node">
<title>Node5</title>
<g id="a_node5"><a xlink:title=" ">
<polygon fill="white" stroke="#bfbfbf" points="427.5,-6 427.5,-25 546.5,-25 546.5,-6 427.5,-6"/>
<text text-anchor="middle" x="487" y="-13" font-family="Helvetica,sans-Serif" font-size="10.00">G4SystemOfUnits.hh</text>
</a>
</g>
</g>
<!-- Node1&#45;&gt;Node5 -->
<g id="edge70" class="edge">
<title>Node1&#45;&gt;Node5</title>
<path fill="none" stroke="midnightblue" d="M1298.82,-299.43C1084.88,-297.31 435.93,-288.25 228,-255 123.95,-238.36 0,-295.37 0,-190 0,-190 0,-190 0,-132 0,-47.31 282.34,-24.63 417.06,-18.62"/>
<polygon fill="midnightblue" stroke="midnightblue" points="417.44,-22.11 427.28,-18.19 417.14,-15.12 417.44,-22.11"/>
</g>
<!-- Node6 -->
<g id="node6" class="node">
<title>Node6</title>
<g id="a_node6"><a xlink:title=" ">
<polygon fill="white" stroke="#bfbfbf" points="515.5,-67.5 515.5,-86.5 622.5,-86.5 622.5,-67.5 515.5,-67.5"/>
<text text-anchor="middle" x="569" y="-74.5" font-family="Helvetica,sans-Serif" font-size="10.00">G4Transform3D.hh</text>
</a>
</g>
</g>
<!-- Node1&#45;&gt;Node6 -->
<g id="edge71" class="edge">
<title>Node1&#45;&gt;Node6</title>
<path fill="none" stroke="midnightblue" d="M1298.96,-300.62C1097.44,-301.87 512.61,-301.29 328,-255 216.55,-227.06 156.16,-240.26 95,-143 90.27,-135.48 89.02,-129.58 95,-123 122.08,-93.22 382.34,-82.71 505.28,-79.38"/>
<polygon fill="midnightblue" stroke="midnightblue" points="505.41,-82.88 515.31,-79.12 505.23,-75.88 505.41,-82.88"/>
</g>
<!-- Node7 -->
<g id="node7" class="node">
<title>Node7</title>
<g id="a_node7"><a xlink:title=" ">
<polygon fill="white" stroke="#bfbfbf" points="1523,-67.5 1523,-86.5 1631,-86.5 1631,-67.5 1523,-67.5"/>
<text text-anchor="middle" x="1577" y="-74.5" font-family="Helvetica,sans-Serif" font-size="10.00">G4VisAttributes.hh</text>
</a>
</g>
</g>
<!-- Node1&#45;&gt;Node7 -->
<g id="edge75" class="edge">
<title>Node1&#45;&gt;Node7</title>
<path fill="none" stroke="midnightblue" d="M1437.08,-300.13C1693.31,-300.29 2576.78,-297.74 2618,-255 2757.98,-109.89 1888.84,-83.47 1641.39,-78.91"/>
<polygon fill="midnightblue" stroke="midnightblue" points="1641.18,-75.4 1631.12,-78.72 1641.05,-82.4 1641.18,-75.4"/>
</g>
<!-- Node14 -->
<g id="node14" class="node">
<title>Node14</title>
<g id="a_node14"><a xlink:title=" ">
<polygon fill="white" stroke="#bfbfbf" points="1175.5,-67.5 1175.5,-86.5 1300.5,-86.5 1300.5,-67.5 1175.5,-67.5"/>
<text text-anchor="middle" x="1238" y="-74.5" font-family="Helvetica,sans-Serif" font-size="10.00">G4SubtractionSolid.hh</text>
</a>
</g>
</g>
<!-- Node1&#45;&gt;Node14 -->
<g id="edge69" class="edge">
<title>Node1&#45;&gt;Node14</title>
<path fill="none" stroke="midnightblue" d="M1298.66,-293.92C1266.94,-288.11 1230.58,-276.83 1204,-255 1176.18,-232.16 1156,-208.93 1176,-179 1199.25,-144.21 1239.75,-177.79 1263,-143 1273.03,-127.99 1262.86,-108.38 1252.64,-94.64"/>
<polygon fill="midnightblue" stroke="midnightblue" points="1255.13,-92.15 1246.12,-86.57 1249.68,-96.55 1255.13,-92.15"/>
</g>
<!-- Node15 -->
<g id="node15" class="node">
<title>Node15</title>
<g id="a_node15"><a xlink:title=" ">
<polygon fill="white" stroke="#bfbfbf" points="1395,-67.5 1395,-86.5 1505,-86.5 1505,-67.5 1395,-67.5"/>
<text text-anchor="middle" x="1450" y="-74.5" font-family="Helvetica,sans-Serif" font-size="10.00">G4PVPlacement.hh</text>
</a>
</g>
</g>
<!-- Node1&#45;&gt;Node15 -->
<g id="edge68" class="edge">
<title>Node1&#45;&gt;Node15</title>
<path fill="none" stroke="midnightblue" d="M1387.68,-291.5C1407.95,-282.66 1440.38,-268.29 1468,-255 1485.55,-246.56 1488.55,-241.26 1507,-235 1591.28,-206.39 1647,-267.36 1704,-199 1709.69,-192.17 1708.99,-186.36 1704,-179 1679.61,-143.05 1560.17,-106.86 1494.13,-89.16"/>
<polygon fill="midnightblue" stroke="midnightblue" points="1494.96,-85.76 1484.4,-86.58 1493.17,-92.53 1494.96,-85.76"/>
</g>
<!-- Node18 -->
<g id="node18" class="node">
<title>Node18</title>
<g id="a_node18"><a xlink:title=" ">
<polygon fill="white" stroke="#bfbfbf" points="413,-123.5 413,-142.5 511,-142.5 511,-123.5 413,-123.5"/>
<text text-anchor="middle" x="462" y="-130.5" font-family="Helvetica,sans-Serif" font-size="10.00">G4UnionSolid.hh</text>
</a>
</g>
</g>
<!-- Node1&#45;&gt;Node18 -->
<g id="edge73" class="edge">
<title>Node1&#45;&gt;Node18</title>
<path fill="none" stroke="midnightblue" d="M1298.89,-299.26C1144.31,-297.02 774.81,-288.25 655,-255 582.2,-234.8 510.57,-177.36 478.91,-149.52"/>
<polygon fill="midnightblue" stroke="midnightblue" points="480.86,-146.56 471.07,-142.5 476.19,-151.78 480.86,-146.56"/>
</g>
<!-- Node19 -->
<g id="node19" class="node">
<title>Node19</title>
<g id="a_node19"><a xlink:title=" ">
<polygon fill="white" stroke="#bfbfbf" points="104.5,-123.5 104.5,-142.5 231.5,-142.5 231.5,-123.5 104.5,-123.5"/>
<text text-anchor="middle" x="168" y="-130.5" font-family="Helvetica,sans-Serif" font-size="10.00">G4IntersectionSolid.hh</text>
</a>
</g>
</g>
<!-- Node1&#45;&gt;Node19 -->
<g id="edge62" class="edge">
<title>Node1&#45;&gt;Node19</title>
<path fill="none" stroke="midnightblue" d="M1298.66,-298.71C1088.63,-294.55 468.4,-280.23 381,-255 302.65,-232.38 222.17,-175.76 186.71,-148.76"/>
<polygon fill="midnightblue" stroke="midnightblue" points="188.75,-145.92 178.69,-142.58 184.47,-151.46 188.75,-145.92"/>
</g>
<!-- Node20 -->
<g id="node20" class="node">
<title>Node20</title>
<g id="a_node20"><a xlink:title=" ">
<polygon fill="white" stroke="#bfbfbf" points="249.5,-123.5 249.5,-142.5 318.5,-142.5 318.5,-123.5 249.5,-123.5"/>
<text text-anchor="middle" x="284" y="-130.5" font-family="Helvetica,sans-Serif" font-size="10.00">G4Cons.hh</text>
</a>
</g>
</g>
<!-- Node1&#45;&gt;Node20 -->
<g id="edge58" class="edge">
<title>Node1&#45;&gt;Node20</title>
<path fill="none" stroke="midnightblue" d="M1298.77,-299.11C1118.23,-296.38 636.28,-286.3 480,-255 407.77,-240.54 381.19,-245.43 324,-199 308.77,-186.64 297.78,-166.83 291.21,-152.33"/>
<polygon fill="midnightblue" stroke="midnightblue" points="294.34,-150.73 287.22,-142.89 287.89,-153.46 294.34,-150.73"/>
</g>
<!-- Node21 -->
<g id="node21" class="node">
<title>Node21</title>
<g id="a_node21"><a xlink:title=" ">
<polygon fill="white" stroke="#bfbfbf" points="791.5,-123.5 791.5,-142.5 858.5,-142.5 858.5,-123.5 791.5,-123.5"/>
<text text-anchor="middle" x="825" y="-130.5" font-family="Helvetica,sans-Serif" font-size="10.00">G4Tubs.hh</text>
</a>
</g>
</g>
<!-- Node1&#45;&gt;Node21 -->
<g id="edge72" class="edge">
<title>Node1&#45;&gt;Node21</title>
<path fill="none" stroke="midnightblue" d="M1298.63,-300.67C1185.12,-300.58 965.81,-295 901,-255 862.42,-231.19 840.2,-179.72 830.63,-152.21"/>
<polygon fill="midnightblue" stroke="midnightblue" points="833.93,-151.04 827.48,-142.64 827.28,-153.23 833.93,-151.04"/>
</g>
<!-- Node22 -->
<g id="node22" class="node">
<title>Node22</title>
<g id="a_node22"><a xlink:href="_o_m_sim_m_d_o_m_8hh.html" target="_top" xlink:title=" ">
<polygon fill="white" stroke="black" points="664,-235.5 664,-254.5 764,-254.5 764,-235.5 664,-235.5"/>
<text text-anchor="middle" x="714" y="-242.5" font-family="Helvetica,sans-Serif" font-size="10.00">OMSimMDOM.hh</text>
</a>
</g>
</g>
<!-- Node1&#45;&gt;Node22 -->
<g id="edge25" class="edge">
<title>Node1&#45;&gt;Node22</title>
<path fill="none" stroke="midnightblue" d="M1298.94,-294.3C1170.36,-283.68 896.3,-261.05 774.51,-251"/>
<polygon fill="midnightblue" stroke="midnightblue" points="774.51,-247.48 764.25,-250.15 773.93,-254.46 774.51,-247.48"/>
</g>
<!-- Node28 -->
<g id="node28" class="node">
<title>Node28</title>
<g id="a_node28"><a xlink:title=" ">
<polygon fill="white" stroke="#bfbfbf" points="1405,-235.5 1405,-254.5 1459,-254.5 1459,-235.5 1405,-235.5"/>
<text text-anchor="middle" x="1432" y="-242.5" font-family="Helvetica,sans-Serif" font-size="10.00">dirent.h</text>
</a>
</g>
</g>
<!-- Node1&#45;&gt;Node28 -->
<g id="edge55" class="edge">
<title>Node1&#45;&gt;Node28</title>
<path fill="none" stroke="midnightblue" d="M1378.28,-291.32C1387.84,-283.26 1402.28,-271.08 1413.78,-261.37"/>
<polygon fill="midnightblue" stroke="midnightblue" points="1416.14,-263.96 1421.53,-254.83 1411.63,-258.61 1416.14,-263.96"/>
</g>
<!-- Node29 -->
<g id="node29" class="node">
<title>Node29</title>
<g id="a_node29"><a xlink:title=" ">
<polygon fill="white" stroke="#bfbfbf" points="1185.5,-179.5 1185.5,-198.5 1250.5,-198.5 1250.5,-179.5 1185.5,-179.5"/>
<text text-anchor="middle" x="1218" y="-186.5" font-family="Helvetica,sans-Serif" font-size="10.00">stdexcept</text>
</a>
</g>
</g>
<!-- Node1&#45;&gt;Node29 -->
<g id="edge56" class="edge">
<title>Node1&#45;&gt;Node29</title>
<path fill="none" stroke="midnightblue" d="M1315.1,-291.46C1275.57,-283.87 1226.32,-271.44 1214,-255 1204.06,-241.74 1206.82,-222.34 1210.99,-208.19"/>
<polygon fill="midnightblue" stroke="midnightblue" points="1214.35,-209.18 1214.27,-198.58 1207.73,-206.92 1214.35,-209.18"/>
</g>
<!-- Node30 -->
<g id="node30" class="node">
<title>Node30</title>
<g id="a_node30"><a xlink:title=" ">
<polygon fill="white" stroke="#bfbfbf" points="1515.5,-235.5 1515.5,-254.5 1564.5,-254.5 1564.5,-235.5 1515.5,-235.5"/>
<text text-anchor="middle" x="1540" y="-242.5" font-family="Helvetica,sans-Serif" font-size="10.00">cstdlib</text>
</a>
</g>
</g>
<!-- Node1&#45;&gt;Node30 -->
<g id="edge57" class="edge">
<title>Node1&#45;&gt;Node30</title>
<path fill="none" stroke="midnightblue" d="M1395.25,-291.44C1425.08,-282.08 1472.98,-267.04 1505.43,-256.85"/>
<polygon fill="midnightblue" stroke="midnightblue" points="1506.89,-260.06 1515.38,-253.73 1504.79,-253.39 1506.89,-260.06"/>
</g>
<!-- Node31 -->
<g id="node31" class="node">
<title>Node31</title>
<g id="a_node31"><a xlink:title=" ">
<polygon fill="white" stroke="#bfbfbf" points="1583,-235.5 1583,-254.5 1669,-254.5 1669,-235.5 1583,-235.5"/>
<text text-anchor="middle" x="1626" y="-242.5" font-family="Helvetica,sans-Serif" font-size="10.00">G4Ellipsoid.hh</text>
</a>
</g>
</g>
<!-- Node1&#45;&gt;Node31 -->
<g id="edge59" class="edge">
<title>Node1&#45;&gt;Node31</title>
<path fill="none" stroke="midnightblue" d="M1408.88,-291.44C1453.98,-282 1526.61,-266.8 1575.3,-256.61"/>
<polygon fill="midnightblue" stroke="midnightblue" points="1576.24,-259.99 1585.31,-254.52 1574.81,-253.14 1576.24,-259.99"/>
</g>
<!-- Node32 -->
<g id="node32" class="node">
<title>Node32</title>
<g id="a_node32"><a xlink:title=" ">
<polygon fill="white" stroke="#bfbfbf" points="1687,-235.5 1687,-254.5 1797,-254.5 1797,-235.5 1687,-235.5"/>
<text text-anchor="middle" x="1742" y="-242.5" font-family="Helvetica,sans-Serif" font-size="10.00">G4EllipticalTube.hh</text>
</a>
</g>
</g>
<!-- Node1&#45;&gt;Node32 -->
<g id="edge60" class="edge">
<title>Node1&#45;&gt;Node32</title>
<path fill="none" stroke="midnightblue" d="M1427.26,-291.44C1495.29,-281.62 1606.51,-265.56 1676.9,-255.4"/>
<polygon fill="midnightblue" stroke="midnightblue" points="1677.58,-258.84 1686.97,-253.94 1676.58,-251.91 1677.58,-258.84"/>
</g>
<!-- Node33 -->
<g id="node33" class="node">
<title>Node33</title>
<g id="a_node33"><a xlink:title=" ">
<polygon fill="white" stroke="#bfbfbf" points="1815.5,-235.5 1815.5,-254.5 1894.5,-254.5 1894.5,-235.5 1815.5,-235.5"/>
<text text-anchor="middle" x="1855" y="-242.5" font-family="Helvetica,sans-Serif" font-size="10.00">G4Sphere.hh</text>
</a>
</g>
</g>
<!-- Node1&#45;&gt;Node33 -->
<g id="edge61" class="edge">
<title>Node1&#45;&gt;Node33</title>
<path fill="none" stroke="midnightblue" d="M1437.24,-294.59C1521.64,-287.62 1668.82,-274.23 1805.24,-254.99"/>
<polygon fill="midnightblue" stroke="midnightblue" points="1806.06,-258.41 1815.46,-253.54 1805.07,-251.48 1806.06,-258.41"/>
</g>
<!-- Node34 -->
<g id="node34" class="node">
<title>Node34</title>
<g id="a_node34"><a xlink:title=" ">
<polygon fill="white" stroke="#bfbfbf" points="1912.5,-235.5 1912.5,-254.5 2061.5,-254.5 2061.5,-235.5 1912.5,-235.5"/>
<text text-anchor="middle" x="1987" y="-242.5" font-family="Helvetica,sans-Serif" font-size="10.00">G4LogicalBorderSurface.hh</text>
</a>
</g>
</g>
<!-- Node1&#45;&gt;Node34 -->
<g id="edge63" class="edge">
<title>Node1&#45;&gt;Node34</title>
<path fill="none" stroke="midnightblue" d="M1437.01,-294.74C1537.17,-287 1728.97,-271.71 1902.28,-255.15"/>
<polygon fill="midnightblue" stroke="midnightblue" points="1902.73,-258.62 1912.35,-254.18 1902.06,-251.65 1902.73,-258.62"/>
</g>
<!-- Node35 -->
<g id="node35" class="node">
<title>Node35</title>
<g id="a_node35"><a xlink:title=" ">
<polygon fill="white" stroke="#bfbfbf" points="2079.5,-235.5 2079.5,-254.5 2216.5,-254.5 2216.5,-235.5 2079.5,-235.5"/>
<text text-anchor="middle" x="2148" y="-242.5" font-family="Helvetica,sans-Serif" font-size="10.00">G4LogicalSkinSurface.hh</text>
</a>
</g>
</g>
<!-- Node1&#45;&gt;Node35 -->
<g id="edge64" class="edge">
<title>Node1&#45;&gt;Node35</title>
<path fill="none" stroke="midnightblue" d="M1437.44,-296.76C1561.92,-290.7 1831.5,-276.36 2068.96,-255.14"/>
<polygon fill="midnightblue" stroke="midnightblue" points="2069.53,-258.61 2079.17,-254.23 2068.9,-251.64 2069.53,-258.61"/>
</g>
<!-- Node36 -->
<g id="node36" class="node">
<title>Node36</title>
<g id="a_node36"><a xlink:title=" ">
<polygon fill="white" stroke="#bfbfbf" points="2235,-235.5 2235,-254.5 2297,-254.5 2297,-235.5 2235,-235.5"/>
<text text-anchor="middle" x="2266" y="-242.5" font-family="Helvetica,sans-Serif" font-size="10.00">G4Orb.hh</text>
</a>
</g>
</g>
<!-- Node1&#45;&gt;Node36 -->
<g id="edge66" class="edge">
<title>Node1&#45;&gt;Node36</title>
<path fill="none" stroke="midnightblue" d="M1437.05,-300.32C1581.64,-300.14 1926.84,-295.23 2224.52,-254.97"/>
<polygon fill="midnightblue" stroke="midnightblue" points="2225.22,-258.4 2234.65,-253.58 2224.27,-251.47 2225.22,-258.4"/>
</g>
<!-- Node37 -->
<g id="node37" class="node">
<title>Node37</title>
<g id="a_node37"><a xlink:title=" ">
<polygon fill="white" stroke="#bfbfbf" points="2315.5,-235.5 2315.5,-254.5 2404.5,-254.5 2404.5,-235.5 2315.5,-235.5"/>
<text text-anchor="middle" x="2360" y="-242.5" font-family="Helvetica,sans-Serif" font-size="10.00">G4Polycone.hh</text>
</a>
</g>
</g>
<!-- Node1&#45;&gt;Node37 -->
<g id="edge67" class="edge">
<title>Node1&#45;&gt;Node37</title>
<path fill="none" stroke="midnightblue" d="M1437.06,-299.45C1591.02,-297.63 1974.22,-289.79 2305,-254.96"/>
<polygon fill="midnightblue" stroke="midnightblue" points="2305.69,-258.41 2315.27,-253.87 2304.95,-251.45 2305.69,-258.41"/>
</g>
<!-- Node38 -->
<g id="node38" class="node">
<title>Node38</title>
<g id="a_node38"><a xlink:title=" ">
<polygon fill="white" stroke="#bfbfbf" points="2423,-235.5 2423,-254.5 2519,-254.5 2519,-235.5 2423,-235.5"/>
<text text-anchor="middle" x="2471" y="-242.5" font-family="Helvetica,sans-Serif" font-size="10.00">G4UnitsTable.hh</text>
</a>
</g>
</g>
<!-- Node1&#45;&gt;Node38 -->
<g id="edge74" class="edge">
<title>Node1&#45;&gt;Node38</title>
<path fill="none" stroke="midnightblue" d="M1437.04,-299.74C1603.28,-298.52 2039.11,-291.86 2412.65,-255.01"/>
<polygon fill="midnightblue" stroke="midnightblue" points="2413.24,-258.47 2422.85,-254 2412.55,-251.5 2413.24,-258.47"/>
</g>
<!-- Node39 -->
<g id="node39" class="node">
<title>Node39</title>
<g id="a_node39"><a xlink:title=" ">
<polygon fill="white" stroke="#bfbfbf" points="2537.5,-235.5 2537.5,-254.5 2608.5,-254.5 2608.5,-235.5 2537.5,-235.5"/>
<text text-anchor="middle" x="2573" y="-242.5" font-family="Helvetica,sans-Serif" font-size="10.00">G4Torus.hh</text>
</a>
</g>
</g>
<!-- Node1&#45;&gt;Node39 -->
<g id="edge76" class="edge">
<title>Node1&#45;&gt;Node39</title>
<path fill="none" stroke="midnightblue" d="M1437.15,-298.76C1650.19,-294.71 2295.57,-280.71 2527.17,-254.85"/>
<polygon fill="midnightblue" stroke="midnightblue" points="2527.69,-258.31 2537.22,-253.69 2526.89,-251.36 2527.69,-258.31"/>
</g>
<!-- Node40 -->
<g id="node40" class="node">
<title>Node40</title>
<g id="a_node40"><a xlink:href="_o_m_sim_command_args_table_8hh.html" target="_top" xlink:title="Definition of the OMSimCommandArgsTable singleton class, which controls user args.">
<polygon fill="white" stroke="black" points="1223,-235.5 1223,-254.5 1387,-254.5 1387,-235.5 1223,-235.5"/>
<text text-anchor="middle" x="1305" y="-242.5" font-family="Helvetica,sans-Serif" font-size="10.00">OMSimCommandArgsTable.hh</text>
</a>
</g>
</g>
<!-- Node1&#45;&gt;Node40 -->
<g id="edge77" class="edge">
<title>Node1&#45;&gt;Node40</title>
<path fill="none" stroke="midnightblue" d="M1357.88,-291.32C1348.47,-283.26 1334.26,-271.08 1322.93,-261.37"/>
<polygon fill="midnightblue" stroke="midnightblue" points="1325.18,-258.68 1315.31,-254.83 1320.62,-264 1325.18,-258.68"/>
</g>
<!-- Node2&#45;&gt;Node3 -->
<g id="edge2" class="edge">
<title>Node2&#45;&gt;Node3</title>
<path fill="none" stroke="midnightblue" d="M505.13,-181.99C621.8,-171.99 855.31,-151.97 980.73,-141.22"/>
<polygon fill="midnightblue" stroke="midnightblue" points="981.38,-144.68 991.05,-140.34 980.79,-137.71 981.38,-144.68"/>
</g>
<!-- Node2&#45;&gt;Node4 -->
<g id="edge18" class="edge">
<title>Node2&#45;&gt;Node4</title>
<path fill="none" stroke="midnightblue" d="M425.01,-179.17C411.1,-165.83 389.17,-140.26 404,-123 407.7,-118.69 545.05,-99.13 631.01,-87.26"/>
<polygon fill="midnightblue" stroke="midnightblue" points="631.53,-90.72 640.96,-85.89 630.58,-83.79 631.53,-90.72"/>
</g>
<!-- Node2&#45;&gt;Node5 -->
<g id="edge19" class="edge">
<title>Node2&#45;&gt;Node5</title>
<path fill="none" stroke="midnightblue" d="M423.61,-179.29C409.42,-167.3 387.98,-144.73 396,-123 410.26,-84.36 445.48,-50.23 467.69,-31.56"/>
<polygon fill="midnightblue" stroke="midnightblue" points="469.96,-34.22 475.49,-25.18 465.53,-28.8 469.96,-34.22"/>
</g>
<!-- Node8 -->
<g id="node8" class="node">
<title>Node8</title>
<g id="a_node8"><a xlink:href="_o_m_sim_input_data_8hh.html" target="_top" xlink:title=" ">
<polygon fill="white" stroke="black" points="851.5,-67.5 851.5,-86.5 966.5,-86.5 966.5,-67.5 851.5,-67.5"/>
<text text-anchor="middle" x="909" y="-74.5" font-family="Helvetica,sans-Serif" font-size="10.00">OMSimInputData.hh</text>
</a>
</g>
</g>
<!-- Node2&#45;&gt;Node8 -->
<g id="edge22" class="edge">
<title>Node2&#45;&gt;Node8</title>
<path fill="none" stroke="midnightblue" d="M457.36,-179.45C493.84,-165.77 568.67,-138.91 634,-123 703.8,-106 785.16,-93.58 841.18,-86.14"/>
<polygon fill="midnightblue" stroke="midnightblue" points="841.88,-89.58 851.34,-84.82 840.97,-82.64 841.88,-89.58"/>
</g>
<!-- Node2&#45;&gt;Node18 -->
<g id="edge20" class="edge">
<title>Node2&#45;&gt;Node18</title>
<path fill="none" stroke="midnightblue" d="M439.46,-179.08C443.15,-171.69 448.52,-160.95 453.09,-151.81"/>
<polygon fill="midnightblue" stroke="midnightblue" points="456.28,-153.26 457.62,-142.75 450.02,-150.13 456.28,-153.26"/>
</g>
<!-- Node2&#45;&gt;Node19 -->
<g id="edge21" class="edge">
<title>Node2&#45;&gt;Node19</title>
<path fill="none" stroke="midnightblue" d="M392.69,-179.44C345.92,-169.98 270.54,-154.74 220.15,-144.55"/>
<polygon fill="midnightblue" stroke="midnightblue" points="220.6,-141.07 210.11,-142.52 219.22,-147.93 220.6,-141.07"/>
</g>
<!-- Node2&#45;&gt;Node20 -->
<g id="edge23" class="edge">
<title>Node2&#45;&gt;Node20</title>
<path fill="none" stroke="midnightblue" d="M411.07,-179.44C385.78,-170.4 345.7,-156.06 317.32,-145.92"/>
<polygon fill="midnightblue" stroke="midnightblue" points="318.41,-142.59 307.81,-142.52 316.05,-149.18 318.41,-142.59"/>
</g>
<!-- Node2&#45;&gt;Node21 -->
<g id="edge24" class="edge">
<title>Node2&#45;&gt;Node21</title>
<path fill="none" stroke="midnightblue" d="M496.8,-179.44C576.17,-168.45 711.93,-149.66 781.34,-140.05"/>
<polygon fill="midnightblue" stroke="midnightblue" points="782.06,-143.48 791.49,-138.64 781.1,-136.54 782.06,-143.48"/>
</g>
<!-- Node3&#45;&gt;Node4 -->
<g id="edge3" class="edge">
<title>Node3&#45;&gt;Node4</title>
<path fill="none" stroke="midnightblue" d="M1007.01,-123.44C941.69,-113.81 835.66,-98.16 766.63,-87.98"/>
<polygon fill="midnightblue" stroke="midnightblue" points="767.13,-84.51 756.72,-86.52 766.1,-91.44 767.13,-84.51"/>
</g>
<!-- Node3&#45;&gt;Node5 -->
<g id="edge4" class="edge">
<title>Node3&#45;&gt;Node5</title>
<path fill="none" stroke="midnightblue" d="M1002.46,-123.43C957.19,-116.26 894.91,-104.37 842,-87 821.97,-80.43 819.15,-73.19 799,-67 717.84,-42.08 620.82,-28.84 556.75,-22.26"/>
<polygon fill="midnightblue" stroke="midnightblue" points="557.06,-18.77 546.76,-21.26 556.36,-25.74 557.06,-18.77"/>
</g>
<!-- Node3&#45;&gt;Node6 -->
<g id="edge5" class="edge">
<title>Node3&#45;&gt;Node6</title>
<path fill="none" stroke="midnightblue" d="M991.35,-125.21C907.22,-117.27 765.16,-103.25 632.54,-87.02"/>
<polygon fill="midnightblue" stroke="midnightblue" points="632.95,-83.55 622.6,-85.8 632.1,-90.49 632.95,-83.55"/>
</g>
<!-- Node3&#45;&gt;Node7 -->
<g id="edge6" class="edge">
<title>Node3&#45;&gt;Node7</title>
<path fill="none" stroke="midnightblue" d="M1138.6,-125.58C1225.45,-117.79 1374.49,-103.74 1512.39,-87.15"/>
<polygon fill="midnightblue" stroke="midnightblue" points="1513.22,-90.58 1522.72,-85.9 1512.37,-83.63 1513.22,-90.58"/>
</g>
<!-- Node3&#45;&gt;Node8 -->
<g id="edge7" class="edge">
<title>Node3&#45;&gt;Node8</title>
<path fill="none" stroke="midnightblue" d="M1040.28,-123.44C1014.15,-114.4 972.74,-100.06 943.42,-89.92"/>
<polygon fill="midnightblue" stroke="midnightblue" points="944.2,-86.48 933.6,-86.52 941.91,-93.1 944.2,-86.48"/>
</g>
<!-- Node3&#45;&gt;Node14 -->
<g id="edge14" class="edge">
<title>Node3&#45;&gt;Node14</title>
<path fill="none" stroke="midnightblue" d="M1092.41,-123.44C1121.77,-114.28 1168.52,-99.69 1201.1,-89.52"/>
<polygon fill="midnightblue" stroke="midnightblue" points="1202.21,-92.84 1210.72,-86.52 1200.13,-86.16 1202.21,-92.84"/>
</g>
<!-- Node3&#45;&gt;Node15 -->
<g id="edge15" class="edge">
<title>Node3&#45;&gt;Node15</title>
<path fill="none" stroke="midnightblue" d="M1126,-123.44C1196.68,-113.53 1312.65,-97.26 1384.99,-87.12"/>
<polygon fill="midnightblue" stroke="midnightblue" points="1385.48,-90.58 1394.89,-85.73 1384.51,-83.65 1385.48,-90.58"/>
</g>
<!-- Node16 -->
<g id="node16" class="node">
<title>Node16</title>
<g id="a_node16"><a xlink:title=" ">
<polygon fill="white" stroke="#bfbfbf" points="985,-67.5 985,-86.5 1083,-86.5 1083,-67.5 985,-67.5"/>
<text text-anchor="middle" x="1034" y="-74.5" font-family="Helvetica,sans-Serif" font-size="10.00">G4MultiUnion.hh</text>
</a>
</g>
</g>
<!-- Node3&#45;&gt;Node16 -->
<g id="edge16" class="edge">
<title>Node3&#45;&gt;Node16</title>
<path fill="none" stroke="midnightblue" d="M1059.88,-123.08C1055.59,-115.61 1049.34,-104.72 1044.06,-95.52"/>
<polygon fill="midnightblue" stroke="midnightblue" points="1047.04,-93.68 1039.02,-86.75 1040.97,-97.17 1047.04,-93.68"/>
</g>
<!-- Node17 -->
<g id="node17" class="node">
<title>Node17</title>
<g id="a_node17"><a xlink:title=" ">
<polygon fill="white" stroke="#bfbfbf" points="1101,-67.5 1101,-86.5 1157,-86.5 1157,-67.5 1101,-67.5"/>
<text text-anchor="middle" x="1129" y="-74.5" font-family="Helvetica,sans-Serif" font-size="10.00">sstream</text>
</a>
</g>
</g>
<!-- Node3&#45;&gt;Node17 -->
<g id="edge17" class="edge">
<title>Node3&#45;&gt;Node17</title>
<path fill="none" stroke="midnightblue" d="M1075.28,-123.32C1084.84,-115.26 1099.28,-103.08 1110.78,-93.37"/>
<polygon fill="midnightblue" stroke="midnightblue" points="1113.14,-95.96 1118.53,-86.83 1108.63,-90.61 1113.14,-95.96"/>
</g>
<!-- Node8&#45;&gt;Node5 -->
<g id="edge13" class="edge">
<title>Node8&#45;&gt;Node5</title>
<path fill="none" stroke="midnightblue" d="M851.21,-67.85C774.5,-57.04 639.17,-37.96 556.83,-26.35"/>
<polygon fill="midnightblue" stroke="midnightblue" points="557.21,-22.86 546.81,-24.93 556.23,-29.8 557.21,-22.86"/>
</g>
<!-- Node9 -->
<g id="node9" class="node">
<title>Node9</title>
<g id="a_node9"><a xlink:title=" ">
<polygon fill="white" stroke="#bfbfbf" points="1141.5,-0.5 1141.5,-30.5 1254.5,-30.5 1254.5,-0.5 1141.5,-0.5"/>
<text text-anchor="start" x="1149.5" y="-18.5" font-family="Helvetica,sans-Serif" font-size="10.00">boost/property_tree</text>
<text text-anchor="middle" x="1198" y="-7.5" font-family="Helvetica,sans-Serif" font-size="10.00">/ptree.hpp</text>
</a>
</g>
</g>
<!-- Node8&#45;&gt;Node9 -->
<g id="edge8" class="edge">
<title>Node8&#45;&gt;Node9</title>
<path fill="none" stroke="midnightblue" d="M950.41,-67.48C997.67,-57.74 1075.63,-41.69 1131.45,-30.2"/>
<polygon fill="midnightblue" stroke="midnightblue" points="1132.17,-33.63 1141.26,-28.18 1130.76,-26.77 1132.17,-33.63"/>
</g>
<!-- Node10 -->
<g id="node10" class="node">
<title>Node10</title>
<g id="a_node10"><a xlink:title=" ">
<polygon fill="white" stroke="#bfbfbf" points="1291.5,-0.5 1291.5,-30.5 1404.5,-30.5 1404.5,-0.5 1291.5,-0.5"/>
<text text-anchor="start" x="1299.5" y="-18.5" font-family="Helvetica,sans-Serif" font-size="10.00">boost/property_tree</text>
<text text-anchor="middle" x="1348" y="-7.5" font-family="Helvetica,sans-Serif" font-size="10.00">/json_parser.hpp</text>
</a>
</g>
</g>
<!-- Node8&#45;&gt;Node10 -->
<g id="edge9" class="edge">
<title>Node8&#45;&gt;Node10</title>
<path fill="none" stroke="midnightblue" d="M966.74,-68.21C969.87,-67.8 972.97,-67.39 976,-67 1103.48,-50.44 1135.83,-49.81 1263,-31 1268.88,-30.13 1274.98,-29.18 1281.1,-28.2"/>
<polygon fill="midnightblue" stroke="midnightblue" points="1282.06,-31.59 1291.36,-26.52 1280.93,-24.68 1282.06,-31.59"/>
</g>
<!-- Node11 -->
<g id="node11" class="node">
<title>Node11</title>
<g id="a_node11"><a xlink:title=" ">
<polygon fill="white" stroke="#bfbfbf" points="999,-6 999,-25 1085,-25 1085,-6 999,-6"/>
<text text-anchor="middle" x="1042" y="-13" font-family="Helvetica,sans-Serif" font-size="10.00">G4Material.hh</text>
</a>
</g>
</g>
<!-- Node8&#45;&gt;Node11 -->
<g id="edge10" class="edge">
<title>Node8&#45;&gt;Node11</title>
<path fill="none" stroke="midnightblue" d="M928.06,-67.48C950.47,-57.45 987.91,-40.7 1013.71,-29.15"/>
<polygon fill="midnightblue" stroke="midnightblue" points="1015.28,-32.29 1022.98,-25.01 1012.42,-25.9 1015.28,-32.29"/>
</g>
<!-- Node12 -->
<g id="node12" class="node">
<title>Node12</title>
<g id="a_node12"><a xlink:title=" ">
<polygon fill="white" stroke="#bfbfbf" points="712.5,-6 712.5,-25 819.5,-25 819.5,-6 712.5,-6"/>
<text text-anchor="middle" x="766" y="-13" font-family="Helvetica,sans-Serif" font-size="10.00">G4NistManager.hh</text>
</a>
</g>
</g>
<!-- Node8&#45;&gt;Node12 -->
<g id="edge11" class="edge">
<title>Node8&#45;&gt;Node12</title>
<path fill="none" stroke="midnightblue" d="M888.51,-67.48C864.19,-57.36 823.45,-40.4 795.68,-28.85"/>
<polygon fill="midnightblue" stroke="midnightblue" points="797.03,-25.62 786.45,-25.01 794.34,-32.08 797.03,-25.62"/>
</g>
<!-- Node13 -->
<g id="node13" class="node">
<title>Node13</title>
<g id="a_node13"><a xlink:title=" ">
<polygon fill="white" stroke="#bfbfbf" points="837.5,-6 837.5,-25 980.5,-25 980.5,-6 837.5,-6"/>
<text text-anchor="middle" x="909" y="-13" font-family="Helvetica,sans-Serif" font-size="10.00">G4OpBoundaryProcess.hh</text>
</a>
</g>
</g>
<!-- Node8&#45;&gt;Node13 -->
<g id="edge12" class="edge">
<title>Node8&#45;&gt;Node13</title>
<path fill="none" stroke="midnightblue" d="M909,-67.48C909,-59.08 909,-45.98 909,-35.16"/>
<polygon fill="midnightblue" stroke="midnightblue" points="912.5,-35.01 909,-25.01 905.5,-35.01 912.5,-35.01"/>
</g>
<!-- Node22&#45;&gt;Node3 -->
<g id="edge26" class="edge">
<title>Node22&#45;&gt;Node3</title>
<path fill="none" stroke="midnightblue" d="M741.25,-235.46C803.58,-215.93 956.63,-167.96 1027.66,-145.7"/>
<polygon fill="midnightblue" stroke="midnightblue" points="1029.03,-148.94 1037.53,-142.61 1026.94,-142.26 1029.03,-148.94"/>
</g>
<!-- Node22&#45;&gt;Node4 -->
<g id="edge48" class="edge">
<title>Node22&#45;&gt;Node4</title>
<path fill="none" stroke="midnightblue" d="M721.62,-235.44C728.68,-226.9 738.73,-213.05 743,-199 752.83,-166.68 756.93,-154.21 744,-123 739.08,-111.12 729.33,-100.74 720.17,-92.96"/>
<polygon fill="midnightblue" stroke="midnightblue" points="722.08,-90.01 712.06,-86.56 717.75,-95.51 722.08,-90.01"/>
</g>
<!-- Node22&#45;&gt;Node5 -->
<g id="edge49" class="edge">
<title>Node22&#45;&gt;Node5</title>
<path fill="none" stroke="midnightblue" d="M663.86,-244.37C528.47,-244.13 161.21,-234.87 95,-143 54.99,-87.49 293.85,-44.28 417.01,-26"/>
<polygon fill="midnightblue" stroke="midnightblue" points="417.73,-29.44 427.11,-24.52 416.71,-22.51 417.73,-29.44"/>
</g>
<!-- Node22&#45;&gt;Node18 -->
<g id="edge50" class="edge">
<title>Node22&#45;&gt;Node18</title>
<path fill="none" stroke="midnightblue" d="M687.51,-235.43C662.15,-226.98 622.99,-213.3 590,-199 553.1,-183 511.85,-161.34 486.41,-147.52"/>
<polygon fill="midnightblue" stroke="midnightblue" points="487.92,-144.36 477.47,-142.63 484.56,-150.5 487.92,-144.36"/>
</g>
<!-- Node22&#45;&gt;Node19 -->
<g id="edge51" class="edge">
<title>Node22&#45;&gt;Node19</title>
<path fill="none" stroke="midnightblue" d="M663.93,-242.68C588.91,-239.72 443.38,-230.1 324,-199 276.09,-186.52 223.56,-162.25 193.32,-147.16"/>
<polygon fill="midnightblue" stroke="midnightblue" points="194.82,-144 184.32,-142.61 191.66,-150.24 194.82,-144"/>
</g>
<!-- Node22&#45;&gt;Node20 -->
<g id="edge52" class="edge">
<title>Node22&#45;&gt;Node20</title>
<path fill="none" stroke="midnightblue" d="M663.99,-241.41C578.85,-236.4 409.74,-223.63 356,-199 331.94,-187.97 310.29,-165.99 297.15,-150.66"/>
<polygon fill="midnightblue" stroke="midnightblue" points="299.51,-148.02 290.45,-142.53 294.11,-152.47 299.51,-148.02"/>
</g>
<!-- Node22&#45;&gt;Node21 -->
<g id="edge53" class="edge">
<title>Node22&#45;&gt;Node21</title>
<path fill="none" stroke="midnightblue" d="M728.49,-235.5C741.93,-227.2 762.06,-213.71 777,-199 791.78,-184.45 805.5,-165.02 814.46,-151.2"/>
<polygon fill="midnightblue" stroke="midnightblue" points="817.47,-152.99 819.85,-142.66 811.55,-149.25 817.47,-152.99"/>
</g>
<!-- Node23 -->
<g id="node23" class="node">
<title>Node23</title>
<g id="a_node23"><a xlink:href="_o_m_sim_m_d_o_m_flasher_8hh.html" target="_top" xlink:title=" ">
<polygon fill="white" stroke="black" points="599.5,-179.5 599.5,-198.5 734.5,-198.5 734.5,-179.5 599.5,-179.5"/>
<text text-anchor="middle" x="667" y="-186.5" font-family="Helvetica,sans-Serif" font-size="10.00">OMSimMDOMFlasher.hh</text>
</a>
</g>
</g>
<!-- Node22&#45;&gt;Node23 -->
<g id="edge27" class="edge">
<title>Node22&#45;&gt;Node23</title>
<path fill="none" stroke="midnightblue" d="M706.24,-235.08C699.46,-227.3 689.46,-215.8 681.24,-206.37"/>
<polygon fill="midnightblue" stroke="midnightblue" points="683.82,-204 674.62,-198.75 678.54,-208.59 683.82,-204"/>
</g>
<!-- Node25 -->
<g id="node25" class="node">
<title>Node25</title>
<g id="a_node25"><a xlink:href="_o_m_sim_p_m_t_construction_8hh.html" target="_top" xlink:title=" ">
<polygon fill="white" stroke="black" points="980.5,-179.5 980.5,-198.5 1129.5,-198.5 1129.5,-179.5 980.5,-179.5"/>
<text text-anchor="middle" x="1055" y="-186.5" font-family="Helvetica,sans-Serif" font-size="10.00">OMSimPMTConstruction.hh</text>
</a>
</g>
</g>
<!-- Node22&#45;&gt;Node25 -->
<g id="edge34" class="edge">
<title>Node22&#45;&gt;Node25</title>
<path fill="none" stroke="midnightblue" d="M764.32,-236.03C824.46,-226.51 925.19,-210.56 990.87,-200.16"/>
<polygon fill="midnightblue" stroke="midnightblue" points="991.77,-203.56 1001.1,-198.54 990.67,-196.64 991.77,-203.56"/>
</g>
<!-- Node23&#45;&gt;Node3 -->
<g id="edge28" class="edge">
<title>Node23&#45;&gt;Node3</title>
<path fill="none" stroke="midnightblue" d="M730.06,-179.44C801.24,-169.79 916.86,-154.1 991.92,-143.92"/>
<polygon fill="midnightblue" stroke="midnightblue" points="992.79,-147.33 1002.23,-142.52 991.85,-140.39 992.79,-147.33"/>
</g>
<!-- Node23&#45;&gt;Node4 -->
<g id="edge29" class="edge">
<title>Node23&#45;&gt;Node4</title>
<path fill="none" stroke="midnightblue" d="M656.76,-179.13C643.58,-166.58 623.54,-142.95 634,-123 641.28,-109.11 655.01,-98.65 667.98,-91.33"/>
<polygon fill="midnightblue" stroke="midnightblue" points="669.93,-94.27 677.19,-86.55 666.7,-88.05 669.93,-94.27"/>
</g>
<!-- Node23&#45;&gt;Node5 -->
<g id="edge30" class="edge">
<title>Node23&#45;&gt;Node5</title>
<path fill="none" stroke="midnightblue" d="M642.79,-179.44C607.29,-165.62 541.52,-135.01 506,-87 494.83,-71.89 490.22,-50.65 488.33,-35.43"/>
<polygon fill="midnightblue" stroke="midnightblue" points="491.78,-34.8 487.34,-25.18 484.81,-35.47 491.78,-34.8"/>
</g>
<!-- Node23&#45;&gt;Node18 -->
<g id="edge31" class="edge">
<title>Node23&#45;&gt;Node18</title>
<path fill="none" stroke="midnightblue" d="M634.52,-179.44C599.28,-170.16 542.9,-155.31 504.24,-145.13"/>
<polygon fill="midnightblue" stroke="midnightblue" points="504.89,-141.68 494.33,-142.52 503.11,-148.45 504.89,-141.68"/>
</g>
<!-- Node23&#45;&gt;Node21 -->
<g id="edge32" class="edge">
<title>Node23&#45;&gt;Node21</title>
<path fill="none" stroke="midnightblue" d="M692.04,-179.44C718.62,-170.36 760.81,-155.94 790.52,-145.78"/>
<polygon fill="midnightblue" stroke="midnightblue" points="791.75,-149.06 800.08,-142.52 789.49,-142.44 791.75,-149.06"/>
</g>
<!-- Node24 -->
<g id="node24" class="node">
<title>Node24</title>
<g id="a_node24"><a xlink:title=" ">
<polygon fill="white" stroke="#bfbfbf" points="643,-123.5 643,-142.5 735,-142.5 735,-123.5 643,-123.5"/>
<text text-anchor="middle" x="689" y="-130.5" font-family="Helvetica,sans-Serif" font-size="10.00">G4Navigator.hh</text>
</a>
</g>
</g>
<!-- Node23&#45;&gt;Node24 -->
<g id="edge33" class="edge">
<title>Node23&#45;&gt;Node24</title>
<path fill="none" stroke="midnightblue" d="M670.63,-179.08C673.61,-171.77 677.93,-161.18 681.62,-152.1"/>
<polygon fill="midnightblue" stroke="midnightblue" points="684.9,-153.33 685.43,-142.75 678.42,-150.69 684.9,-153.33"/>
</g>
<!-- Node25&#45;&gt;Node3 -->
<g id="edge37" class="edge">
<title>Node25&#45;&gt;Node3</title>
<path fill="none" stroke="midnightblue" d="M1056.65,-179.08C1057.98,-171.93 1059.88,-161.64 1061.54,-152.69"/>
<polygon fill="midnightblue" stroke="midnightblue" points="1065,-153.22 1063.38,-142.75 1058.12,-151.95 1065,-153.22"/>
</g>
<!-- Node25&#45;&gt;Node4 -->
<g id="edge38" class="edge">
<title>Node25&#45;&gt;Node4</title>
<path fill="none" stroke="midnightblue" d="M1034.77,-179.41C993.76,-161.99 904.4,-124.09 901,-123 854.15,-108.03 799.64,-96.2 759.06,-88.44"/>
<polygon fill="midnightblue" stroke="midnightblue" points="759.53,-84.96 749.06,-86.55 758.24,-91.84 759.53,-84.96"/>
</g>
<!-- Node25&#45;&gt;Node5 -->
<g id="edge39" class="edge">
<title>Node25&#45;&gt;Node5</title>
<path fill="none" stroke="midnightblue" d="M1042.33,-179.44C1021.57,-165.76 978.64,-138.89 939,-123 879.37,-99.1 858.22,-111.92 799,-87 783.19,-80.35 782.04,-73.07 766,-67 697.49,-41.06 614.35,-28.21 556.74,-22"/>
<polygon fill="midnightblue" stroke="midnightblue" points="556.96,-18.51 546.65,-20.95 556.24,-25.47 556.96,-18.51"/>
</g>
<!-- Node25&#45;&gt;Node7 -->
<g id="edge41" class="edge">
<title>Node25&#45;&gt;Node7</title>
<path fill="none" stroke="midnightblue" d="M1129.5,-182.16C1197.5,-175.84 1300.44,-163.76 1388,-143 1445.4,-129.39 1509.92,-105.19 1546.79,-90.47"/>
<polygon fill="midnightblue" stroke="midnightblue" points="1548.45,-93.57 1556.42,-86.58 1545.84,-87.08 1548.45,-93.57"/>
</g>
<!-- Node25&#45;&gt;Node8 -->
<g id="edge44" class="edge">
<title>Node25&#45;&gt;Node8</title>
<path fill="none" stroke="midnightblue" d="M1086.66,-179.49C1120.96,-168.74 1168.15,-148.52 1147,-123 1141.41,-116.25 1042.07,-99.19 973.52,-88.12"/>
<polygon fill="midnightblue" stroke="midnightblue" points="974.07,-84.67 963.64,-86.54 972.96,-91.58 974.07,-84.67"/>
</g>
<!-- Node25&#45;&gt;Node9 -->
<g id="edge35" class="edge">
<title>Node25&#45;&gt;Node9</title>
<path fill="none" stroke="midnightblue" d="M1129.57,-185.71C1195.18,-178.96 1284.04,-156.7 1309,-87 1318.48,-60.53 1293.14,-43.21 1264.3,-32.36"/>
<polygon fill="midnightblue" stroke="midnightblue" points="1265.44,-29.06 1254.85,-29.07 1263.14,-35.67 1265.44,-29.06"/>
</g>
<!-- Node25&#45;&gt;Node10 -->
<g id="edge36" class="edge">
<title>Node25&#45;&gt;Node10</title>
<path fill="none" stroke="midnightblue" d="M1129.66,-180.42C1188.69,-173.22 1265.3,-160.84 1291,-143 1325.01,-119.39 1339.05,-70.45 1344.6,-40.85"/>
<polygon fill="midnightblue" stroke="midnightblue" points="1348.07,-41.34 1346.28,-30.9 1341.16,-40.17 1348.07,-41.34"/>
</g>
<!-- Node25&#45;&gt;Node14 -->
<g id="edge42" class="edge">
<title>Node25&#45;&gt;Node14</title>
<path fill="none" stroke="midnightblue" d="M1129.64,-179.83C1176.41,-172.99 1230.49,-161.35 1245,-143 1255.42,-129.82 1251.45,-110.14 1246.24,-95.89"/>
<polygon fill="midnightblue" stroke="midnightblue" points="1249.48,-94.55 1242.42,-86.65 1243.01,-97.22 1249.48,-94.55"/>
</g>
<!-- Node25&#45;&gt;Node15 -->
<g id="edge43" class="edge">
<title>Node25&#45;&gt;Node15</title>
<path fill="none" stroke="midnightblue" d="M1129.54,-180.68C1204.69,-172.61 1315.11,-158.68 1355,-143 1384.89,-131.25 1414.69,-108.64 1432.73,-93.43"/>
<polygon fill="midnightblue" stroke="midnightblue" points="1435.32,-95.83 1440.6,-86.64 1430.74,-90.53 1435.32,-95.83"/>
</g>
<!-- Node25&#45;&gt;Node18 -->
<g id="edge40" class="edge">
<title>Node25&#45;&gt;Node18</title>
<path fill="none" stroke="midnightblue" d="M980.5,-181.22C861.31,-170.36 630.15,-149.31 521.35,-139.4"/>
<polygon fill="midnightblue" stroke="midnightblue" points="521.48,-135.9 511.21,-138.48 520.85,-142.87 521.48,-135.9"/>
</g>
<!-- Node25&#45;&gt;Node21 -->
<g id="edge45" class="edge">
<title>Node25&#45;&gt;Node21</title>
<path fill="none" stroke="midnightblue" d="M1018.56,-179.44C977.86,-169.89 912.04,-154.43 868.64,-144.24"/>
<polygon fill="midnightblue" stroke="midnightblue" points="869.19,-140.78 858.65,-141.9 867.59,-147.59 869.19,-140.78"/>
</g>
<!-- Node26 -->
<g id="node26" class="node">
<title>Node26</title>
<g id="a_node26"><a xlink:title=" ">
<polygon fill="white" stroke="#bfbfbf" points="1195.5,-123.5 1195.5,-142.5 1236.5,-142.5 1236.5,-123.5 1195.5,-123.5"/>
<text text-anchor="middle" x="1216" y="-130.5" font-family="Helvetica,sans-Serif" font-size="10.00">tuple</text>
</a>
</g>
</g>
<!-- Node25&#45;&gt;Node26 -->
<g id="edge46" class="edge">
<title>Node25&#45;&gt;Node26</title>
<path fill="none" stroke="midnightblue" d="M1080.51,-179.44C1109.03,-169.88 1155.19,-154.4 1185.57,-144.21"/>
<polygon fill="midnightblue" stroke="midnightblue" points="1186.85,-147.47 1195.22,-140.97 1184.62,-140.83 1186.85,-147.47"/>
</g>
<!-- Node27 -->
<g id="node27" class="node">
<title>Node27</title>
<g id="a_node27"><a xlink:title=" ">
<polygon fill="white" stroke="#bfbfbf" points="1483,-123.5 1483,-142.5 1521,-142.5 1521,-123.5 1483,-123.5"/>
<text text-anchor="middle" x="1502" y="-130.5" font-family="Helvetica,sans-Serif" font-size="10.00">map</text>
</a>
</g>
</g>
<!-- Node25&#45;&gt;Node27 -->
<g id="edge47" class="edge">
<title>Node25&#45;&gt;Node27</title>
<path fill="none" stroke="midnightblue" d="M1127.45,-179.48C1203.18,-170.54 1325.46,-156 1431,-143 1444.68,-141.31 1459.84,-139.4 1472.62,-137.77"/>
<polygon fill="midnightblue" stroke="midnightblue" points="1473.24,-141.22 1482.72,-136.48 1472.36,-134.28 1473.24,-141.22"/>
</g>
<!-- Node40&#45;&gt;Node27 -->
<g id="edge78" class="edge">
<title>Node40&#45;&gt;Node27</title>
<path fill="none" stroke="midnightblue" d="M1300.53,-235.32C1294.21,-221.7 1284.84,-195.22 1298,-179 1346.94,-118.69 1393.5,-161.23 1469,-143 1470.27,-142.69 1471.56,-142.37 1472.86,-142.05"/>
<polygon fill="midnightblue" stroke="midnightblue" points="1474.07,-145.35 1482.85,-139.43 1472.29,-138.58 1474.07,-145.35"/>
</g>
<!-- Node40&#45;&gt;Node29 -->
<g id="edge81" class="edge">
<title>Node40&#45;&gt;Node29</title>
<path fill="none" stroke="midnightblue" d="M1291.02,-235.32C1277.45,-226.9 1256.62,-213.97 1240.68,-204.07"/>
<polygon fill="midnightblue" stroke="midnightblue" points="1242.29,-200.95 1231.94,-198.65 1238.59,-206.9 1242.29,-200.95"/>
</g>
<!-- Node41 -->
<g id="node41" class="node">
<title>Node41</title>
<g id="a_node41"><a xlink:title=" ">
<polygon fill="white" stroke="#bfbfbf" points="1643.5,-179.5 1643.5,-198.5 1694.5,-198.5 1694.5,-179.5 1643.5,-179.5"/>
<text text-anchor="middle" x="1669" y="-186.5" font-family="Helvetica,sans-Serif" font-size="10.00">variant</text>
</a>
</g>
</g>
<!-- Node40&#45;&gt;Node41 -->
<g id="edge79" class="edge">
<title>Node40&#45;&gt;Node41</title>
<path fill="none" stroke="midnightblue" d="M1386.89,-235.47C1451.37,-228.13 1543.66,-216.28 1633.64,-198.86"/>
<polygon fill="midnightblue" stroke="midnightblue" points="1634.32,-202.29 1643.46,-196.93 1632.98,-195.42 1634.32,-202.29"/>
</g>
<!-- Node42 -->
<g id="node42" class="node">
<title>Node42</title>
<g id="a_node42"><a xlink:title=" ">
<polygon fill="white" stroke="#bfbfbf" points="1307,-179.5 1307,-198.5 1351,-198.5 1351,-179.5 1307,-179.5"/>
<text text-anchor="middle" x="1329" y="-186.5" font-family="Helvetica,sans-Serif" font-size="10.00">string</text>
</a>
</g>
</g>
<!-- Node40&#45;&gt;Node42 -->
<g id="edge80" class="edge">
<title>Node40&#45;&gt;Node42</title>
<path fill="none" stroke="midnightblue" d="M1308.96,-235.08C1312.21,-227.77 1316.92,-217.18 1320.95,-208.1"/>
<polygon fill="midnightblue" stroke="midnightblue" points="1324.25,-209.31 1325.11,-198.75 1317.85,-206.47 1324.25,-209.31"/>
</g>
<!-- Node43 -->
<g id="node43" class="node">
<title>Node43</title>
<g id="a_node43"><a xlink:title=" ">
<polygon fill="white" stroke="#bfbfbf" points="1369.5,-179.5 1369.5,-198.5 1436.5,-198.5 1436.5,-179.5 1369.5,-179.5"/>
<text text-anchor="middle" x="1403" y="-186.5" font-family="Helvetica,sans-Serif" font-size="10.00">globals.hh</text>
</a>
</g>
</g>
<!-- Node40&#45;&gt;Node43 -->
<g id="edge82" class="edge">
<title>Node40&#45;&gt;Node43</title>
<path fill="none" stroke="midnightblue" d="M1320.75,-235.32C1336.32,-226.74 1360.38,-213.49 1378.46,-203.52"/>
<polygon fill="midnightblue" stroke="midnightblue" points="1380.22,-206.55 1387.29,-198.65 1376.85,-200.42 1380.22,-206.55"/>
</g>
<!-- Node44 -->
<g id="node44" class="node">
<title>Node44</title>
<g id="a_node44"><a xlink:title=" ">
<polygon fill="white" stroke="#bfbfbf" points="1455,-179.5 1455,-198.5 1539,-198.5 1539,-179.5 1455,-179.5"/>
<text text-anchor="middle" x="1497" y="-186.5" font-family="Helvetica,sans-Serif" font-size="10.00">boost/any.hpp</text>
</a>
</g>
</g>
<!-- Node40&#45;&gt;Node44 -->
<g id="edge83" class="edge">
<title>Node40&#45;&gt;Node44</title>
<path fill="none" stroke="midnightblue" d="M1335.42,-235.44C1368.28,-226.2 1420.78,-211.44 1456.97,-201.26"/>
<polygon fill="midnightblue" stroke="midnightblue" points="1458.04,-204.59 1466.72,-198.52 1456.15,-197.85 1458.04,-204.59"/>
</g>
<!-- Node45 -->
<g id="node45" class="node">
<title>Node45</title>
<g id="a_node45"><a xlink:title=" ">
<polygon fill="white" stroke="#bfbfbf" points="1557,-179.5 1557,-198.5 1625,-198.5 1625,-179.5 1557,-179.5"/>
<text text-anchor="middle" x="1591" y="-186.5" font-family="Helvetica,sans-Serif" font-size="10.00">sys/time.h</text>
</a>
</g>
</g>
<!-- Node40&#45;&gt;Node45 -->
<g id="edge84" class="edge">
<title>Node40&#45;&gt;Node45</title>
<path fill="none" stroke="midnightblue" d="M1353.01,-235.45C1399.97,-227.01 1473.76,-213.54 1546.9,-199.18"/>
<polygon fill="midnightblue" stroke="midnightblue" points="1547.61,-202.61 1556.75,-197.24 1546.26,-195.74 1547.61,-202.61"/>
</g>
<!-- Node46 -->
<g id="node46" class="node">
<title>Node46</title>
<g id="a_node46"><a xlink:href="_o_m_sim_logger_8hh.html" target="_top" xlink:title=" ">
<polygon fill="white" stroke="black" points="1751.5,-179.5 1751.5,-198.5 1850.5,-198.5 1850.5,-179.5 1751.5,-179.5"/>
<text text-anchor="middle" x="1801" y="-186.5" font-family="Helvetica,sans-Serif" font-size="10.00">OMSimLogger.hh</text>
</a>
</g>
</g>
<!-- Node40&#45;&gt;Node46 -->
<g id="edge85" class="edge">
<title>Node40&#45;&gt;Node46</title>
<path fill="none" stroke="midnightblue" d="M1383.32,-235.47C1482.68,-224.66 1651.85,-206.24 1741.36,-196.49"/>
<polygon fill="midnightblue" stroke="midnightblue" points="1741.79,-199.97 1751.35,-195.41 1741.03,-193.01 1741.79,-199.97"/>
</g>
<!-- Node47 -->
<g id="node47" class="node">
<title>Node47</title>
<g id="a_node47"><a xlink:title=" ">
<polygon fill="white" stroke="#bfbfbf" points="1764,-123.5 1764,-142.5 1814,-142.5 1814,-123.5 1764,-123.5"/>
<text text-anchor="middle" x="1789" y="-130.5" font-family="Helvetica,sans-Serif" font-size="10.00">stdio.h</text>
</a>
</g>
</g>
<!-- Node46&#45;&gt;Node47 -->
<g id="edge86" class="edge">
<title>Node46&#45;&gt;Node47</title>
<path fill="none" stroke="midnightblue" d="M1799.02,-179.08C1797.43,-171.93 1795.14,-161.64 1793.15,-152.69"/>
<polygon fill="midnightblue" stroke="midnightblue" points="1796.53,-151.75 1790.94,-142.75 1789.7,-153.27 1796.53,-151.75"/>
</g>
<!-- Node48 -->
<g id="node48" class="node">
<title>Node48</title>
<g id="a_node48"><a xlink:title=" ">
<polygon fill="white" stroke="#bfbfbf" points="1832,-123.5 1832,-142.5 1880,-142.5 1880,-123.5 1832,-123.5"/>
<text text-anchor="middle" x="1856" y="-130.5" font-family="Helvetica,sans-Serif" font-size="10.00">time.h</text>
</a>
</g>
</g>
<!-- Node46&#45;&gt;Node48 -->
<g id="edge87" class="edge">
<title>Node46&#45;&gt;Node48</title>
<path fill="none" stroke="midnightblue" d="M1810.08,-179.08C1818.17,-171.14 1830.2,-159.34 1839.91,-149.8"/>
<polygon fill="midnightblue" stroke="midnightblue" points="1842.4,-152.25 1847.09,-142.75 1837.5,-147.26 1842.4,-152.25"/>
</g>
</g>
</svg>
