<?xml version="1.0" encoding="UTF-8" standalone="no"?>
<!DOCTYPE svg PUBLIC "-//W3C//DTD SVG 1.1//EN"
 "http://www.w3.org/Graphics/SVG/1.1/DTD/svg11.dtd">
<!-- Generated by graphviz version 2.43.0 (0)
 -->
<!-- Title: OMSimCommandArgsTable.hh Pages: 1 -->
<svg width="3897pt" height="196pt"
 viewBox="0.00 0.00 3897.00 196.00" xmlns="http://www.w3.org/2000/svg" xmlns:xlink="http://www.w3.org/1999/xlink">
<g id="graph0" class="graph" transform="scale(1 1) rotate(0) translate(4 192)">
<title>OMSimCommandArgsTable.hh</title>
<polygon fill="white" stroke="transparent" points="-4,4 -4,-192 3893,-192 3893,4 -4,4"/>
<!-- Node1 -->
<g id="node1" class="node">
<title>Node1</title>
<g id="a_node1"><a xlink:title="Definition of the OMSimCommandArgsTable singleton class, which controls user args.">
<polygon fill="#bfbfbf" stroke="black" points="1636,-168.5 1636,-187.5 1800,-187.5 1800,-168.5 1636,-168.5"/>
<text text-anchor="middle" x="1718" y="-175.5" font-family="Helvetica,sans-Serif" font-size="10.00">OMSimCommandArgsTable.hh</text>
</a>
</g>
</g>
<!-- Node2 -->
<g id="node2" class="node">
<title>Node2</title>
<g id="a_node2"><a xlink:href="_o_m_sim_data_file_types_8hh.html" target="_top" xlink:title="Collection of classes and methods to handle material creation from user data in json files.">
<polygon fill="white" stroke="black" points="141.5,-112.5 141.5,-131.5 276.5,-131.5 276.5,-112.5 141.5,-112.5"/>
<text text-anchor="middle" x="209" y="-119.5" font-family="Helvetica,sans-Serif" font-size="10.00">OMSimDataFileTypes.hh</text>
</a>
</g>
</g>
<!-- Node1&#45;&gt;Node2 -->
<g id="edge1" class="edge">
<title>Node1&#45;&gt;Node2</title>
<path fill="none" stroke="midnightblue" d="M1625.49,-176.4C1398.55,-174.42 796.22,-166.11 295,-132 289.01,-131.59 282.79,-131.09 276.56,-130.54"/>
<polygon fill="midnightblue" stroke="midnightblue" points="1625.66,-179.9 1635.69,-176.49 1625.72,-172.9 1625.66,-179.9"/>
</g>
<!-- Node4 -->
<g id="node4" class="node">
<title>Node4</title>
<g id="a_node4"><a xlink:href="_o_m_sim_input_data_8cc.html" target="_top" xlink:title=" ">
<polygon fill="white" stroke="black" points="152.5,-56.5 152.5,-75.5 265.5,-75.5 265.5,-56.5 152.5,-56.5"/>
<text text-anchor="middle" x="209" y="-63.5" font-family="Helvetica,sans-Serif" font-size="10.00">OMSimInputData.cc</text>
</a>
</g>
</g>
<!-- Node1&#45;&gt;Node4 -->
<g id="edge14" class="edge">
<title>Node1&#45;&gt;Node4</title>
<path fill="none" stroke="midnightblue" d="M1625.28,-176.03C1338.21,-172.74 475.9,-160.58 353,-132 302.51,-120.26 248.08,-90.43 223.05,-75.61"/>
<polygon fill="midnightblue" stroke="midnightblue" points="1625.62,-179.54 1635.66,-176.15 1625.7,-172.54 1625.62,-179.54"/>
</g>
<!-- Node5 -->
<g id="node5" class="node">
<title>Node5</title>
<g id="a_node5"><a xlink:href="_o_m_sim_u_iinterface_8hh.html" target="_top" xlink:title="The OMSimUIinterface class provides a singleton interface to Geant4&#39;s UI manager.">
<polygon fill="white" stroke="black" points="379.5,-112.5 379.5,-131.5 500.5,-131.5 500.5,-112.5 379.5,-112.5"/>
<text text-anchor="middle" x="440" y="-119.5" font-family="Helvetica,sans-Serif" font-size="10.00">OMSimUIinterface.hh</text>
</a>
</g>
</g>
<!-- Node1&#45;&gt;Node5 -->
<g id="edge4" class="edge">
<title>Node1&#45;&gt;Node5</title>
<path fill="none" stroke="midnightblue" d="M1625.53,-176.41C1423.03,-174.49 925.27,-166.36 510,-132 506.95,-131.75 503.82,-131.46 500.67,-131.14"/>
<polygon fill="midnightblue" stroke="midnightblue" points="1625.79,-179.91 1635.82,-176.5 1625.86,-172.91 1625.79,-179.91"/>
</g>
<!-- Node11 -->
<g id="node11" class="node">
<title>Node11</title>
<g id="a_node11"><a xlink:href="_o_m_sim_m_d_o_m_flasher_8cc.html" target="_top" xlink:title=" ">
<polygon fill="white" stroke="black" points="284,-56.5 284,-75.5 418,-75.5 418,-56.5 284,-56.5"/>
<text text-anchor="middle" x="351" y="-63.5" font-family="Helvetica,sans-Serif" font-size="10.00">OMSimMDOMFlasher.cc</text>
</a>
</g>
</g>
<!-- Node1&#45;&gt;Node11 -->
<g id="edge22" class="edge">
<title>Node1&#45;&gt;Node11</title>
<path fill="none" stroke="midnightblue" d="M1625.41,-176.87C1328.94,-176.05 419.51,-170.41 370,-132 352.72,-118.59 350.52,-90.36 350.61,-75.92"/>
<polygon fill="midnightblue" stroke="midnightblue" points="1625.69,-180.37 1635.7,-176.89 1625.71,-173.37 1625.69,-180.37"/>
</g>
<!-- Node14 -->
<g id="node14" class="node">
<title>Node14</title>
<g id="a_node14"><a xlink:href="_o_m_sim_hit_manager_8cc.html" target="_top" xlink:title=" ">
<polygon fill="white" stroke="black" points="519,-112.5 519,-131.5 641,-131.5 641,-112.5 519,-112.5"/>
<text text-anchor="middle" x="580" y="-119.5" font-family="Helvetica,sans-Serif" font-size="10.00">OMSimHitManager.cc</text>
</a>
</g>
</g>
<!-- Node1&#45;&gt;Node14 -->
<g id="edge13" class="edge">
<title>Node1&#45;&gt;Node14</title>
<path fill="none" stroke="midnightblue" d="M1625.53,-175.77C1440.16,-172.72 1010.01,-162.67 650,-132 647.07,-131.75 644.07,-131.47 641.05,-131.16"/>
<polygon fill="midnightblue" stroke="midnightblue" points="1625.72,-179.27 1635.78,-175.94 1625.84,-172.28 1625.72,-179.27"/>
</g>
<!-- Node15 -->
<g id="node15" class="node">
<title>Node15</title>
<g id="a_node15"><a xlink:href="_o_m_sim_p_m_t_response_8cc.html" target="_top" xlink:title=" ">
<polygon fill="white" stroke="black" points="659,-112.5 659,-131.5 793,-131.5 793,-112.5 659,-112.5"/>
<text text-anchor="middle" x="726" y="-119.5" font-family="Helvetica,sans-Serif" font-size="10.00">OMSimPMTResponse.cc</text>
</a>
</g>
</g>
<!-- Node1&#45;&gt;Node15 -->
<g id="edge15" class="edge">
<title>Node1&#45;&gt;Node15</title>
<path fill="none" stroke="midnightblue" d="M1625.74,-174.51C1460.54,-169.6 1103.41,-156.92 803,-132 799.78,-131.73 796.49,-131.44 793.17,-131.12"/>
<polygon fill="midnightblue" stroke="midnightblue" points="1625.76,-178.02 1635.86,-174.81 1625.97,-171.02 1625.76,-178.02"/>
</g>
<!-- Node16 -->
<g id="node16" class="node">
<title>Node16</title>
<g id="a_node16"><a xlink:href="_o_m_sim_tracking_action_8cc.html" target="_top" xlink:title=" ">
<polygon fill="white" stroke="black" points="811.5,-112.5 811.5,-131.5 948.5,-131.5 948.5,-112.5 811.5,-112.5"/>
<text text-anchor="middle" x="880" y="-119.5" font-family="Helvetica,sans-Serif" font-size="10.00">OMSimTrackingAction.cc</text>
</a>
</g>
</g>
<!-- Node1&#45;&gt;Node16 -->
<g id="edge16" class="edge">
<title>Node1&#45;&gt;Node16</title>
<path fill="none" stroke="midnightblue" d="M1625.73,-173.2C1482.6,-166.92 1198.46,-152.98 958,-132 955.01,-131.74 951.96,-131.46 948.88,-131.16"/>
<polygon fill="midnightblue" stroke="midnightblue" points="1625.65,-176.7 1635.79,-173.64 1625.95,-169.7 1625.65,-176.7"/>
</g>
<!-- Node17 -->
<g id="node17" class="node">
<title>Node17</title>
<g id="a_node17"><a xlink:href="_o_m_sim_d_e_g_g_8cc.html" target="_top" xlink:title=" ">
<polygon fill="white" stroke="black" points="967,-112.5 967,-131.5 1061,-131.5 1061,-112.5 967,-112.5"/>
<text text-anchor="middle" x="1014" y="-119.5" font-family="Helvetica,sans-Serif" font-size="10.00">OMSimDEGG.cc</text>
</a>
</g>
</g>
<!-- Node1&#45;&gt;Node17 -->
<g id="edge17" class="edge">
<title>Node1&#45;&gt;Node17</title>
<path fill="none" stroke="midnightblue" d="M1625.58,-173.2C1499.65,-167.43 1267.24,-154.65 1070,-132 1067.07,-131.66 1064.05,-131.28 1061.01,-130.87"/>
<polygon fill="midnightblue" stroke="midnightblue" points="1625.8,-176.72 1635.95,-173.67 1626.12,-169.72 1625.8,-176.72"/>
</g>
<!-- Node18 -->
<g id="node18" class="node">
<title>Node18</title>
<g id="a_node18"><a xlink:href="_o_m_sim_d_e_g_g_harness_8cc.html" target="_top" xlink:title=" ">
<polygon fill="white" stroke="black" points="1079,-112.5 1079,-131.5 1213,-131.5 1213,-112.5 1079,-112.5"/>
<text text-anchor="middle" x="1146" y="-119.5" font-family="Helvetica,sans-Serif" font-size="10.00">OMSimDEGGHarness.cc</text>
</a>
</g>
</g>
<!-- Node1&#45;&gt;Node18 -->
<g id="edge18" class="edge">
<title>Node1&#45;&gt;Node18</title>
<path fill="none" stroke="midnightblue" d="M1625.59,-169.31C1526.1,-160.87 1363.24,-146.57 1223,-132 1219.79,-131.67 1216.5,-131.32 1213.18,-130.96"/>
<polygon fill="midnightblue" stroke="midnightblue" points="1625.35,-172.81 1635.61,-170.16 1625.94,-165.83 1625.35,-172.81"/>
</g>
<!-- Node19 -->
<g id="node19" class="node">
<title>Node19</title>
<g id="a_node19"><a xlink:href="_o_m_sim_l_o_m16_8cc.html" target="_top" xlink:title=" ">
<polygon fill="white" stroke="black" points="1231.5,-112.5 1231.5,-131.5 1330.5,-131.5 1330.5,-112.5 1231.5,-112.5"/>
<text text-anchor="middle" x="1281" y="-119.5" font-family="Helvetica,sans-Serif" font-size="10.00">OMSimLOM16.cc</text>
</a>
</g>
</g>
<!-- Node1&#45;&gt;Node19 -->
<g id="edge19" class="edge">
<title>Node1&#45;&gt;Node19</title>
<path fill="none" stroke="midnightblue" d="M1629.98,-167.35C1553.31,-158.75 1439.18,-145.46 1340,-132 1336.92,-131.58 1333.75,-131.14 1330.56,-130.68"/>
<polygon fill="midnightblue" stroke="midnightblue" points="1629.75,-170.85 1640.08,-168.48 1630.53,-163.89 1629.75,-170.85"/>
</g>
<!-- Node20 -->
<g id="node20" class="node">
<title>Node20</title>
<g id="a_node20"><a xlink:href="_o_m_sim_l_o_m18_8cc.html" target="_top" xlink:title=" ">
<polygon fill="white" stroke="black" points="1348.5,-112.5 1348.5,-131.5 1447.5,-131.5 1447.5,-112.5 1348.5,-112.5"/>
<text text-anchor="middle" x="1398" y="-119.5" font-family="Helvetica,sans-Serif" font-size="10.00">OMSimLOM18.cc</text>
</a>
</g>
</g>
<!-- Node1&#45;&gt;Node20 -->
<g id="edge20" class="edge">
<title>Node1&#45;&gt;Node20</title>
<path fill="none" stroke="midnightblue" d="M1657.08,-166.72C1596.33,-156.47 1504.14,-140.91 1447.68,-131.38"/>
<polygon fill="midnightblue" stroke="midnightblue" points="1656.85,-170.23 1667.3,-168.44 1658.02,-163.33 1656.85,-170.23"/>
</g>
<!-- Node21 -->
<g id="node21" class="node">
<title>Node21</title>
<g id="a_node21"><a xlink:href="_o_m_sim_m_d_o_m_8cc.html" target="_top" xlink:title=" ">
<polygon fill="white" stroke="black" points="1466,-112.5 1466,-131.5 1564,-131.5 1564,-112.5 1466,-112.5"/>
<text text-anchor="middle" x="1515" y="-119.5" font-family="Helvetica,sans-Serif" font-size="10.00">OMSimMDOM.cc</text>
</a>
</g>
</g>
<!-- Node1&#45;&gt;Node21 -->
<g id="edge21" class="edge">
<title>Node1&#45;&gt;Node21</title>
<path fill="none" stroke="midnightblue" d="M1676.01,-165.83C1637.68,-155.63 1581.85,-140.78 1547.02,-131.52"/>
<polygon fill="midnightblue" stroke="midnightblue" points="1675.27,-169.26 1685.83,-168.44 1677.07,-162.49 1675.27,-169.26"/>
</g>
<!-- Node22 -->
<g id="node22" class="node">
<title>Node22</title>
<g id="a_node22"><a xlink:href="_o_m_sim_m_d_o_m_harness_8cc.html" target="_top" xlink:title=" ">
<polygon fill="white" stroke="black" points="1582,-112.5 1582,-131.5 1720,-131.5 1720,-112.5 1582,-112.5"/>
<text text-anchor="middle" x="1651" y="-119.5" font-family="Helvetica,sans-Serif" font-size="10.00">OMSimMDOMHarness.cc</text>
</a>
</g>
</g>
<!-- Node1&#45;&gt;Node22 -->
<g id="edge23" class="edge">
<title>Node1&#45;&gt;Node22</title>
<path fill="none" stroke="midnightblue" d="M1699.17,-161.82C1687.16,-152.15 1672.03,-139.95 1661.96,-131.83"/>
<polygon fill="midnightblue" stroke="midnightblue" points="1697.25,-164.77 1707.24,-168.32 1701.65,-159.32 1697.25,-164.77"/>
</g>
<!-- Node23 -->
<g id="node23" class="node">
<title>Node23</title>
<g id="a_node23"><a xlink:href="_o_m_sim_p_d_o_m_8cc.html" target="_top" xlink:title=" ">
<polygon fill="white" stroke="black" points="1738.5,-112.5 1738.5,-131.5 1833.5,-131.5 1833.5,-112.5 1738.5,-112.5"/>
<text text-anchor="middle" x="1786" y="-119.5" font-family="Helvetica,sans-Serif" font-size="10.00">OMSimPDOM.cc</text>
</a>
</g>
</g>
<!-- Node1&#45;&gt;Node23 -->
<g id="edge24" class="edge">
<title>Node1&#45;&gt;Node23</title>
<path fill="none" stroke="midnightblue" d="M1736.76,-162.1C1749,-152.38 1764.56,-140.03 1774.88,-131.83"/>
<polygon fill="midnightblue" stroke="midnightblue" points="1734.58,-159.36 1728.93,-168.32 1738.93,-164.85 1734.58,-159.36"/>
</g>
<!-- Node24 -->
<g id="node24" class="node">
<title>Node24</title>
<g id="a_node24"><a xlink:href="_o_m_sim_p_m_t_construction_8cc.html" target="_top" xlink:title=" ">
<polygon fill="white" stroke="black" points="1851.5,-112.5 1851.5,-131.5 1998.5,-131.5 1998.5,-112.5 1851.5,-112.5"/>
<text text-anchor="middle" x="1925" y="-119.5" font-family="Helvetica,sans-Serif" font-size="10.00">OMSimPMTConstruction.cc</text>
</a>
</g>
</g>
<!-- Node1&#45;&gt;Node24 -->
<g id="edge25" class="edge">
<title>Node1&#45;&gt;Node24</title>
<path fill="none" stroke="midnightblue" d="M1760.82,-165.83C1799.91,-155.63 1856.83,-140.78 1892.35,-131.52"/>
<polygon fill="midnightblue" stroke="midnightblue" points="1759.59,-162.53 1750.8,-168.44 1761.36,-169.31 1759.59,-162.53"/>
</g>
<!-- Node25 -->
<g id="node25" class="node">
<title>Node25</title>
<g id="a_node25"><a xlink:href="effective__area_2src_2_o_m_sim_detector_construction_8cc.html" target="_top" xlink:title=" ">
<polygon fill="white" stroke="black" points="2016.5,-112.5 2016.5,-131.5 2185.5,-131.5 2185.5,-112.5 2016.5,-112.5"/>
<text text-anchor="middle" x="2101" y="-119.5" font-family="Helvetica,sans-Serif" font-size="10.00">OMSimDetectorConstruction.cc</text>
</a>
</g>
</g>
<!-- Node1&#45;&gt;Node25 -->
<g id="edge26" class="edge">
<title>Node1&#45;&gt;Node25</title>
<path fill="none" stroke="midnightblue" d="M1788.63,-167.04C1860.96,-156.84 1972.22,-141.16 2040.6,-131.52"/>
<polygon fill="midnightblue" stroke="midnightblue" points="1788.1,-163.58 1778.69,-168.44 1789.08,-170.51 1788.1,-163.58"/>
</g>
<!-- Node26 -->
<g id="node26" class="node">
<title>Node26</title>
<g id="a_node26"><a xlink:href="_o_m_sim_effective_area_analyisis_8cc.html" target="_top" xlink:title=" ">
<polygon fill="white" stroke="black" points="2203.5,-112.5 2203.5,-131.5 2378.5,-131.5 2378.5,-112.5 2203.5,-112.5"/>
<text text-anchor="middle" x="2291" y="-119.5" font-family="Helvetica,sans-Serif" font-size="10.00">OMSimEffectiveAreaAnalyisis.cc</text>
</a>
</g>
</g>
<!-- Node1&#45;&gt;Node26 -->
<g id="edge27" class="edge">
<title>Node1&#45;&gt;Node26</title>
<path fill="none" stroke="midnightblue" d="M1810.36,-168.3C1918.75,-158.08 2097.14,-141.27 2203.42,-131.25"/>
<polygon fill="midnightblue" stroke="midnightblue" points="1809.72,-164.84 1800.1,-169.26 1810.38,-171.81 1809.72,-164.84"/>
</g>
<!-- Node27 -->
<g id="node27" class="node">
<title>Node27</title>
<g id="a_node27"><a xlink:href="_o_m_sim_decays_analysis_8cc.html" target="_top" xlink:title=" ">
<polygon fill="white" stroke="black" points="2396.5,-112.5 2396.5,-131.5 2539.5,-131.5 2539.5,-112.5 2396.5,-112.5"/>
<text text-anchor="middle" x="2468" y="-119.5" font-family="Helvetica,sans-Serif" font-size="10.00">OMSimDecaysAnalysis.cc</text>
</a>
</g>
</g>
<!-- Node1&#45;&gt;Node27 -->
<g id="edge28" class="edge">
<title>Node1&#45;&gt;Node27</title>
<path fill="none" stroke="midnightblue" d="M1810.34,-172.11C1939.65,-164.97 2181.96,-150.5 2388,-132 2390.78,-131.75 2393.62,-131.48 2396.49,-131.21"/>
<polygon fill="midnightblue" stroke="midnightblue" points="1809.88,-168.63 1800.09,-172.68 1810.27,-175.62 1809.88,-168.63"/>
</g>
<!-- Node28 -->
<g id="node28" class="node">
<title>Node28</title>
<g id="a_node28"><a xlink:href="radioactive__decays_2src_2_o_m_sim_detector_construction_8cc.html" target="_top" xlink:title=" ">
<polygon fill="white" stroke="black" points="2557.5,-112.5 2557.5,-131.5 2726.5,-131.5 2726.5,-112.5 2557.5,-112.5"/>
<text text-anchor="middle" x="2642" y="-119.5" font-family="Helvetica,sans-Serif" font-size="10.00">OMSimDetectorConstruction.cc</text>
</a>
</g>
</g>
<!-- Node1&#45;&gt;Node28 -->
<g id="edge29" class="edge">
<title>Node1&#45;&gt;Node28</title>
<path fill="none" stroke="midnightblue" d="M1810.37,-173.28C1963.85,-166.81 2281.06,-152.21 2549,-132 2551.75,-131.79 2554.54,-131.57 2557.37,-131.34"/>
<polygon fill="midnightblue" stroke="midnightblue" points="1809.89,-169.79 1800.05,-173.71 1810.19,-176.79 1809.89,-169.79"/>
</g>
<!-- Node29 -->
<g id="node29" class="node">
<title>Node29</title>
<g id="a_node29"><a xlink:href="radioactive__decays_2src_2_o_m_sim_event_action_8cc.html" target="_top" xlink:title=" ">
<polygon fill="white" stroke="black" points="2744,-112.5 2744,-131.5 2868,-131.5 2868,-112.5 2744,-112.5"/>
<text text-anchor="middle" x="2806" y="-119.5" font-family="Helvetica,sans-Serif" font-size="10.00">OMSimEventAction.cc</text>
</a>
</g>
</g>
<!-- Node1&#45;&gt;Node29 -->
<g id="edge30" class="edge">
<title>Node1&#45;&gt;Node29</title>
<path fill="none" stroke="midnightblue" d="M1810.46,-175.5C1989.44,-172.03 2395.61,-161.35 2736,-132 2738.56,-131.78 2741.18,-131.53 2743.82,-131.27"/>
<polygon fill="midnightblue" stroke="midnightblue" points="1810.22,-172.01 1800.29,-175.7 1810.36,-179 1810.22,-172.01"/>
</g>
<!-- Node30 -->
<g id="node30" class="node">
<title>Node30</title>
<g id="a_node30"><a xlink:href="_o_m_sim_g4_radioactive_decay_8cc.html" target="_top" xlink:title=" ">
<polygon fill="white" stroke="black" points="2886,-112.5 2886,-131.5 3052,-131.5 3052,-112.5 2886,-112.5"/>
<text text-anchor="middle" x="2969" y="-119.5" font-family="Helvetica,sans-Serif" font-size="10.00">OMSimG4RadioactiveDecay.cc</text>
</a>
</g>
</g>
<!-- Node1&#45;&gt;Node30 -->
<g id="edge31" class="edge">
<title>Node1&#45;&gt;Node30</title>
<path fill="none" stroke="midnightblue" d="M1810.58,-175.25C2007.18,-171.13 2480.78,-159.05 2877,-132 2879.88,-131.8 2882.81,-131.59 2885.77,-131.36"/>
<polygon fill="midnightblue" stroke="midnightblue" points="1810.22,-171.76 1800.3,-175.46 1810.37,-178.76 1810.22,-171.76"/>
</g>
<!-- Node31 -->
<g id="node31" class="node">
<title>Node31</title>
<g id="a_node31"><a xlink:href="supernova_2src_2_o_m_sim_detector_construction_8cc.html" target="_top" xlink:title=" ">
<polygon fill="white" stroke="black" points="3070.5,-112.5 3070.5,-131.5 3239.5,-131.5 3239.5,-112.5 3070.5,-112.5"/>
<text text-anchor="middle" x="3155" y="-119.5" font-family="Helvetica,sans-Serif" font-size="10.00">OMSimDetectorConstruction.cc</text>
</a>
</g>
</g>
<!-- Node1&#45;&gt;Node31 -->
<g id="edge32" class="edge">
<title>Node1&#45;&gt;Node31</title>
<path fill="none" stroke="midnightblue" d="M1810.34,-175.88C2028.25,-172.79 2591.49,-162.31 3061,-132 3064.11,-131.8 3067.27,-131.58 3070.47,-131.34"/>
<polygon fill="midnightblue" stroke="midnightblue" points="1810.18,-172.38 1800.23,-176.02 1810.27,-179.38 1810.18,-172.38"/>
</g>
<!-- Node32 -->
<g id="node32" class="node">
<title>Node32</title>
<g id="a_node32"><a xlink:href="supernova_2src_2_o_m_sim_primary_generator_action_8cc.html" target="_top" xlink:title=" ">
<polygon fill="white" stroke="black" points="3257.5,-112.5 3257.5,-131.5 3440.5,-131.5 3440.5,-112.5 3257.5,-112.5"/>
<text text-anchor="middle" x="3349" y="-119.5" font-family="Helvetica,sans-Serif" font-size="10.00">OMSimPrimaryGeneratorAction.cc</text>
</a>
</g>
</g>
<!-- Node1&#45;&gt;Node32 -->
<g id="edge33" class="edge">
<title>Node1&#45;&gt;Node32</title>
<path fill="none" stroke="midnightblue" d="M1810.24,-176.23C2048.51,-173.81 2704.05,-164.5 3249,-132 3251.78,-131.83 3254.61,-131.65 3257.46,-131.46"/>
<polygon fill="midnightblue" stroke="midnightblue" points="1810.19,-172.73 1800.23,-176.33 1810.26,-179.73 1810.19,-172.73"/>
</g>
<!-- Node33 -->
<g id="node33" class="node">
<title>Node33</title>
<g id="a_node33"><a xlink:href="_o_m_sim_s_n_analysis_8cc.html" target="_top" xlink:title="Analyze data and write output files.">
<polygon fill="white" stroke="black" points="3459,-112.5 3459,-131.5 3579,-131.5 3579,-112.5 3459,-112.5"/>
<text text-anchor="middle" x="3519" y="-119.5" font-family="Helvetica,sans-Serif" font-size="10.00">OMSimSNAnalysis.cc</text>
</a>
</g>
</g>
<!-- Node1&#45;&gt;Node33 -->
<g id="edge34" class="edge">
<title>Node1&#45;&gt;Node33</title>
<path fill="none" stroke="midnightblue" d="M1810.38,-175.87C2121.1,-171.85 3126.98,-157.19 3450,-132 3452.89,-131.77 3455.85,-131.51 3458.83,-131.22"/>
<polygon fill="midnightblue" stroke="midnightblue" points="1810.02,-172.37 1800.06,-176 1810.11,-179.37 1810.02,-172.37"/>
</g>
<!-- Node34 -->
<g id="node34" class="node">
<title>Node34</title>
<g id="a_node34"><a xlink:href="_o_m_sim_s_n_particle_generators_8cc.html" target="_top" xlink:title=" ">
<polygon fill="white" stroke="black" points="3597.5,-112.5 3597.5,-131.5 3766.5,-131.5 3766.5,-112.5 3597.5,-112.5"/>
<text text-anchor="middle" x="3682" y="-119.5" font-family="Helvetica,sans-Serif" font-size="10.00">OMSimSNParticleGenerators.cc</text>
</a>
</g>
</g>
<!-- Node1&#45;&gt;Node34 -->
<g id="edge35" class="edge">
<title>Node1&#45;&gt;Node34</title>
<path fill="none" stroke="midnightblue" d="M1810.34,-177.11C2082.69,-176.93 2906.29,-172.79 3588,-132 3591.11,-131.81 3594.27,-131.61 3597.47,-131.38"/>
<polygon fill="midnightblue" stroke="midnightblue" points="1810.11,-173.61 1800.11,-177.11 1810.11,-180.61 1810.11,-173.61"/>
</g>
<!-- Node35 -->
<g id="node35" class="node">
<title>Node35</title>
<g id="a_node35"><a xlink:href="_o_m_sim_s_n_tools_8cc.html" target="_top" xlink:title=" ">
<polygon fill="white" stroke="black" points="3785,-112.5 3785,-131.5 3889,-131.5 3889,-112.5 3785,-112.5"/>
<text text-anchor="middle" x="3837" y="-119.5" font-family="Helvetica,sans-Serif" font-size="10.00">OMSimSNTools.cc</text>
</a>
</g>
</g>
<!-- Node1&#45;&gt;Node35 -->
<g id="edge36" class="edge">
<title>Node1&#45;&gt;Node35</title>
<path fill="none" stroke="midnightblue" d="M1810.27,-176.51C2157.57,-174.44 3386.12,-164.9 3776,-132 3778.88,-131.76 3781.83,-131.47 3784.81,-131.14"/>
<polygon fill="midnightblue" stroke="midnightblue" points="1810.23,-173.01 1800.25,-176.57 1810.27,-180.01 1810.23,-173.01"/>
</g>
<!-- Node3 -->
<g id="node3" class="node">
<title>Node3</title>
<g id="a_node3"><a xlink:href="_o_m_sim_data_file_types_8cc.html" target="_top" xlink:title=" ">
<polygon fill="white" stroke="black" points="0,-56.5 0,-75.5 134,-75.5 134,-56.5 0,-56.5"/>
<text text-anchor="middle" x="67" y="-63.5" font-family="Helvetica,sans-Serif" font-size="10.00">OMSimDataFileTypes.cc</text>
</a>
</g>
</g>
<!-- Node2&#45;&gt;Node3 -->
<g id="edge2" class="edge">
<title>Node2&#45;&gt;Node3</title>
<path fill="none" stroke="midnightblue" d="M176.84,-108.77C150.17,-98.63 112.93,-84.47 89.4,-75.52"/>
<polygon fill="midnightblue" stroke="midnightblue" points="175.91,-112.16 186.5,-112.44 178.4,-105.62 175.91,-112.16"/>
</g>
<!-- Node2&#45;&gt;Node4 -->
<g id="edge3" class="edge">
<title>Node2&#45;&gt;Node4</title>
<path fill="none" stroke="midnightblue" d="M209,-101.8C209,-92.91 209,-82.78 209,-75.75"/>
<polygon fill="midnightblue" stroke="midnightblue" points="205.5,-102.08 209,-112.08 212.5,-102.08 205.5,-102.08"/>
</g>
<!-- Node6 -->
<g id="node6" class="node">
<title>Node6</title>
<g id="a_node6"><a xlink:href="_o_m_sim_8hh.html" target="_top" xlink:title="Main simulation class for the Optical Module (OM) simulation. This file defines the OMSim class,...">
<polygon fill="white" stroke="black" points="436.5,-56.5 436.5,-75.5 503.5,-75.5 503.5,-56.5 436.5,-56.5"/>
<text text-anchor="middle" x="470" y="-63.5" font-family="Helvetica,sans-Serif" font-size="10.00">OMSim.hh</text>
</a>
</g>
</g>
<!-- Node5&#45;&gt;Node6 -->
<g id="edge5" class="edge">
<title>Node5&#45;&gt;Node6</title>
<path fill="none" stroke="midnightblue" d="M449.85,-103.27C454.97,-94.05 461.02,-83.17 465.14,-75.75"/>
<polygon fill="midnightblue" stroke="midnightblue" points="446.75,-101.64 444.95,-112.08 452.87,-105.04 446.75,-101.64"/>
</g>
<!-- Node5&#45;&gt;Node11 -->
<g id="edge10" class="edge">
<title>Node5&#45;&gt;Node11</title>
<path fill="none" stroke="midnightblue" d="M416.76,-106.9C400.44,-97 379.13,-84.07 365.26,-75.65"/>
<polygon fill="midnightblue" stroke="midnightblue" points="415.34,-110.13 425.7,-112.32 418.97,-104.14 415.34,-110.13"/>
</g>
<!-- Node12 -->
<g id="node12" class="node">
<title>Node12</title>
<g id="a_node12"><a xlink:href="_o_m_sim_angular_scan_8cc.html" target="_top" xlink:title=" ">
<polygon fill="white" stroke="black" points="522,-56.5 522,-75.5 648,-75.5 648,-56.5 522,-56.5"/>
<text text-anchor="middle" x="585" y="-63.5" font-family="Helvetica,sans-Serif" font-size="10.00">OMSimAngularScan.cc</text>
</a>
</g>
</g>
<!-- Node5&#45;&gt;Node12 -->
<g id="edge11" class="edge">
<title>Node5&#45;&gt;Node12</title>
<path fill="none" stroke="midnightblue" d="M472.48,-108.91C499.74,-98.75 537.99,-84.51 562.13,-75.52"/>
<polygon fill="midnightblue" stroke="midnightblue" points="471.13,-105.67 462.98,-112.44 473.57,-112.23 471.13,-105.67"/>
</g>
<!-- Node13 -->
<g id="node13" class="node">
<title>Node13</title>
<g id="a_node13"><a xlink:href="_o_m_sim_decays_g_p_s_8cc.html" target="_top" xlink:title=" ">
<polygon fill="white" stroke="black" points="666.5,-56.5 666.5,-75.5 787.5,-75.5 787.5,-56.5 666.5,-56.5"/>
<text text-anchor="middle" x="727" y="-63.5" font-family="Helvetica,sans-Serif" font-size="10.00">OMSimDecaysGPS.cc</text>
</a>
</g>
</g>
<!-- Node5&#45;&gt;Node13 -->
<g id="edge12" class="edge">
<title>Node5&#45;&gt;Node13</title>
<path fill="none" stroke="midnightblue" d="M495.61,-110.54C549.85,-100.33 631.34,-85 681.74,-75.52"/>
<polygon fill="midnightblue" stroke="midnightblue" points="494.66,-107.15 485.48,-112.44 495.95,-114.03 494.66,-107.15"/>
</g>
<!-- Node7 -->
<g id="node7" class="node">
<title>Node7</title>
<g id="a_node7"><a xlink:href="_o_m_sim_8cc.html" target="_top" xlink:title="Implementation of the OMSim class.">
<polygon fill="white" stroke="black" points="231.5,-0.5 231.5,-19.5 296.5,-19.5 296.5,-0.5 231.5,-0.5"/>
<text text-anchor="middle" x="264" y="-7.5" font-family="Helvetica,sans-Serif" font-size="10.00">OMSim.cc</text>
</a>
</g>
</g>
<!-- Node6&#45;&gt;Node7 -->
<g id="edge6" class="edge">
<title>Node6&#45;&gt;Node7</title>
<path fill="none" stroke="midnightblue" d="M427.38,-53.83C388.49,-43.63 331.84,-28.78 296.49,-19.52"/>
<polygon fill="midnightblue" stroke="midnightblue" points="426.8,-57.29 437.36,-56.44 428.57,-50.52 426.8,-57.29"/>
</g>
<!-- Node8 -->
<g id="node8" class="node">
<title>Node8</title>
<g id="a_node8"><a xlink:href="_o_m_sim__effective__area_8cc.html" target="_top" xlink:title="Main for the calculation of effective areas.">
<polygon fill="white" stroke="black" points="315,-0.5 315,-19.5 455,-19.5 455,-0.5 315,-0.5"/>
<text text-anchor="middle" x="385" y="-7.5" font-family="Helvetica,sans-Serif" font-size="10.00">OMSim_effective_area.cc</text>
</a>
</g>
</g>
<!-- Node6&#45;&gt;Node8 -->
<g id="edge7" class="edge">
<title>Node6&#45;&gt;Node8</title>
<path fill="none" stroke="midnightblue" d="M447.81,-50.9C432.22,-41 411.87,-28.07 398.62,-19.65"/>
<polygon fill="midnightblue" stroke="midnightblue" points="446.03,-53.92 456.34,-56.32 449.78,-48.01 446.03,-53.92"/>
</g>
<!-- Node9 -->
<g id="node9" class="node">
<title>Node9</title>
<g id="a_node9"><a xlink:href="_o_m_sim__radioactive__decays_8cc.html" target="_top" xlink:title="Main of the radioactive decay study.">
<polygon fill="white" stroke="black" points="473.5,-0.5 473.5,-19.5 638.5,-19.5 638.5,-0.5 473.5,-0.5"/>
<text text-anchor="middle" x="556" y="-7.5" font-family="Helvetica,sans-Serif" font-size="10.00">OMSim_radioactive_decays.cc</text>
</a>
</g>
</g>
<!-- Node6&#45;&gt;Node9 -->
<g id="edge8" class="edge">
<title>Node6&#45;&gt;Node9</title>
<path fill="none" stroke="midnightblue" d="M492.45,-50.9C508.22,-41 528.81,-28.07 542.22,-19.65"/>
<polygon fill="midnightblue" stroke="midnightblue" points="490.43,-48.04 483.82,-56.32 494.15,-53.97 490.43,-48.04"/>
</g>
<!-- Node10 -->
<g id="node10" class="node">
<title>Node10</title>
<g id="a_node10"><a xlink:href="_o_m_sim__supernova_8cc.html" target="_top" xlink:title="Main of the supernova study.">
<polygon fill="white" stroke="black" points="657,-0.5 657,-19.5 779,-19.5 779,-0.5 657,-0.5"/>
<text text-anchor="middle" x="718" y="-7.5" font-family="Helvetica,sans-Serif" font-size="10.00">OMSim_supernova.cc</text>
</a>
</g>
</g>
<!-- Node6&#45;&gt;Node10 -->
<g id="edge9" class="edge">
<title>Node6&#45;&gt;Node10</title>
<path fill="none" stroke="midnightblue" d="M513.52,-55.52C560.19,-45.36 633.64,-29.37 678.64,-19.57"/>
<polygon fill="midnightblue" stroke="midnightblue" points="512.73,-52.11 503.7,-57.66 514.22,-58.95 512.73,-52.11"/>
</g>
</g>
</svg>
