<?xml version="1.0" encoding="UTF-8" standalone="no"?>
<!DOCTYPE svg PUBLIC "-//W3C//DTD SVG 1.1//EN"
 "http://www.w3.org/Graphics/SVG/1.1/DTD/svg11.dtd">
<!-- Generated by graphviz version 2.43.0 (0)
 -->
<!-- Title: OMSimEventAction.cc Pages: 1 -->
<svg width="573pt" height="196pt"
 viewBox="0.00 0.00 573.00 196.00" xmlns="http://www.w3.org/2000/svg" xmlns:xlink="http://www.w3.org/1999/xlink">
<g id="graph0" class="graph" transform="scale(1 1) rotate(0) translate(4 192)">
<title>OMSimEventAction.cc</title>
<polygon fill="white" stroke="transparent" points="-4,4 -4,-192 569,-192 569,4 -4,4"/>
<!-- Node1 -->
<g id="node1" class="node">
<title>Node1</title>
<g id="a_node1"><a xlink:title=" ">
<polygon fill="#bfbfbf" stroke="black" points="304,-168.5 304,-187.5 428,-187.5 428,-168.5 304,-168.5"/>
<text text-anchor="middle" x="366" y="-175.5" font-family="Helvetica,sans-Serif" font-size="10.00">OMSimEventAction.cc</text>
</a>
</g>
</g>
<!-- Node2 -->
<g id="node2" class="node">
<title>Node2</title>
<g id="a_node2"><a xlink:href="_o_m_sim_event_action_8hh.html" target="_top" xlink:title=" ">
<polygon fill="white" stroke="black" points="103.5,-112.5 103.5,-131.5 228.5,-131.5 228.5,-112.5 103.5,-112.5"/>
<text text-anchor="middle" x="166" y="-119.5" font-family="Helvetica,sans-Serif" font-size="10.00">OMSimEventAction.hh</text>
</a>
</g>
</g>
<!-- Node1&#45;&gt;Node2 -->
<g id="edge1" class="edge">
<title>Node1&#45;&gt;Node2</title>
<path fill="none" stroke="midnightblue" d="M334.31,-168.44C299.93,-159.16 244.92,-144.31 207.21,-134.13"/>
<polygon fill="midnightblue" stroke="midnightblue" points="208.11,-130.74 197.54,-131.52 206.28,-137.5 208.11,-130.74"/>
</g>
<!-- Node5 -->
<g id="node5" class="node">
<title>Node5</title>
<g id="a_node5"><a xlink:href="_o_m_sim_analysis_manager_8hh.html" target="_top" xlink:title=" ">
<polygon fill="white" stroke="black" points="291,-112.5 291,-131.5 441,-131.5 441,-112.5 291,-112.5"/>
<text text-anchor="middle" x="366" y="-119.5" font-family="Helvetica,sans-Serif" font-size="10.00">OMSimAnalysisManager.hh</text>
</a>
</g>
</g>
<!-- Node1&#45;&gt;Node5 -->
<g id="edge4" class="edge">
<title>Node1&#45;&gt;Node5</title>
<path fill="none" stroke="midnightblue" d="M366,-168.08C366,-161.01 366,-150.86 366,-141.99"/>
<polygon fill="midnightblue" stroke="midnightblue" points="369.5,-141.75 366,-131.75 362.5,-141.75 369.5,-141.75"/>
</g>
<!-- Node14 -->
<g id="node14" class="node">
<title>Node14</title>
<g id="a_node14"><a xlink:title=" ">
<polygon fill="white" stroke="#bfbfbf" points="459,-112.5 459,-131.5 565,-131.5 565,-112.5 459,-112.5"/>
<text text-anchor="middle" x="512" y="-119.5" font-family="Helvetica,sans-Serif" font-size="10.00">G4RunManager.hh</text>
</a>
</g>
</g>
<!-- Node1&#45;&gt;Node14 -->
<g id="edge13" class="edge">
<title>Node1&#45;&gt;Node14</title>
<path fill="none" stroke="midnightblue" d="M389.13,-168.44C413.48,-159.44 452.01,-145.19 479.42,-135.05"/>
<polygon fill="midnightblue" stroke="midnightblue" points="480.81,-138.27 488.97,-131.52 478.38,-131.7 480.81,-138.27"/>
</g>
<!-- Node3 -->
<g id="node3" class="node">
<title>Node3</title>
<g id="a_node3"><a xlink:title=" ">
<polygon fill="white" stroke="#bfbfbf" points="0,-56.5 0,-75.5 126,-75.5 126,-56.5 0,-56.5"/>
<text text-anchor="middle" x="63" y="-63.5" font-family="Helvetica,sans-Serif" font-size="10.00">G4UserEventAction.hh</text>
</a>
</g>
</g>
<!-- Node2&#45;&gt;Node3 -->
<g id="edge2" class="edge">
<title>Node2&#45;&gt;Node3</title>
<path fill="none" stroke="midnightblue" d="M149.45,-112.32C133.01,-103.7 107.57,-90.36 88.53,-80.39"/>
<polygon fill="midnightblue" stroke="midnightblue" points="89.99,-77.2 79.51,-75.65 86.74,-83.4 89.99,-77.2"/>
</g>
<!-- Node4 -->
<g id="node4" class="node">
<title>Node4</title>
<g id="a_node4"><a xlink:title=" ">
<polygon fill="white" stroke="#bfbfbf" points="144,-56.5 144,-75.5 188,-75.5 188,-56.5 144,-56.5"/>
<text text-anchor="middle" x="166" y="-63.5" font-family="Helvetica,sans-Serif" font-size="10.00">string</text>
</a>
</g>
</g>
<!-- Node2&#45;&gt;Node4 -->
<g id="edge3" class="edge">
<title>Node2&#45;&gt;Node4</title>
<path fill="none" stroke="midnightblue" d="M166,-112.08C166,-105.01 166,-94.86 166,-85.99"/>
<polygon fill="midnightblue" stroke="midnightblue" points="169.5,-85.75 166,-75.75 162.5,-85.75 169.5,-85.75"/>
</g>
<!-- Node6 -->
<g id="node6" class="node">
<title>Node6</title>
<g id="a_node6"><a xlink:href="_o_m_sim_p_m_t_response_8hh.html" target="_top" xlink:title=" ">
<polygon fill="white" stroke="black" points="206.5,-56.5 206.5,-75.5 341.5,-75.5 341.5,-56.5 206.5,-56.5"/>
<text text-anchor="middle" x="274" y="-63.5" font-family="Helvetica,sans-Serif" font-size="10.00">OMSimPMTResponse.hh</text>
</a>
</g>
</g>
<!-- Node5&#45;&gt;Node6 -->
<g id="edge5" class="edge">
<title>Node5&#45;&gt;Node6</title>
<path fill="none" stroke="midnightblue" d="M351.22,-112.32C336.73,-103.82 314.43,-90.73 297.51,-80.8"/>
<polygon fill="midnightblue" stroke="midnightblue" points="299.14,-77.7 288.74,-75.65 295.6,-83.74 299.14,-77.7"/>
</g>
<!-- Node12 -->
<g id="node12" class="node">
<title>Node12</title>
<g id="a_node12"><a xlink:title=" ">
<polygon fill="white" stroke="#bfbfbf" points="359.5,-56.5 359.5,-75.5 462.5,-75.5 462.5,-56.5 359.5,-56.5"/>
<text text-anchor="middle" x="411" y="-63.5" font-family="Helvetica,sans-Serif" font-size="10.00">G4ThreeVector.hh</text>
</a>
</g>
</g>
<!-- Node5&#45;&gt;Node12 -->
<g id="edge11" class="edge">
<title>Node5&#45;&gt;Node12</title>
<path fill="none" stroke="midnightblue" d="M373.43,-112.08C379.85,-104.38 389.31,-93.03 397.12,-83.65"/>
<polygon fill="midnightblue" stroke="midnightblue" points="399.99,-85.67 403.71,-75.75 394.62,-81.19 399.99,-85.67"/>
</g>
<!-- Node13 -->
<g id="node13" class="node">
<title>Node13</title>
<g id="a_node13"><a xlink:title=" ">
<polygon fill="white" stroke="#bfbfbf" points="480.5,-56.5 480.5,-75.5 535.5,-75.5 535.5,-56.5 480.5,-56.5"/>
<text text-anchor="middle" x="508" y="-63.5" font-family="Helvetica,sans-Serif" font-size="10.00">fstream</text>
</a>
</g>
</g>
<!-- Node5&#45;&gt;Node13 -->
<g id="edge12" class="edge">
<title>Node5&#45;&gt;Node13</title>
<path fill="none" stroke="midnightblue" d="M388.5,-112.44C412.08,-103.48 449.32,-89.31 475.96,-79.18"/>
<polygon fill="midnightblue" stroke="midnightblue" points="477.5,-82.34 485.6,-75.52 475.01,-75.8 477.5,-82.34"/>
</g>
<!-- Node7 -->
<g id="node7" class="node">
<title>Node7</title>
<g id="a_node7"><a xlink:title=" ">
<polygon fill="white" stroke="#bfbfbf" points="26.5,-0.5 26.5,-19.5 145.5,-19.5 145.5,-0.5 26.5,-0.5"/>
<text text-anchor="middle" x="86" y="-7.5" font-family="Helvetica,sans-Serif" font-size="10.00">G4SystemOfUnits.hh</text>
</a>
</g>
</g>
<!-- Node6&#45;&gt;Node7 -->
<g id="edge6" class="edge">
<title>Node6&#45;&gt;Node7</title>
<path fill="none" stroke="midnightblue" d="M244.21,-56.44C212.17,-47.24 161.07,-32.56 125.65,-22.39"/>
<polygon fill="midnightblue" stroke="midnightblue" points="126.23,-18.91 115.65,-19.52 124.29,-25.64 126.23,-18.91"/>
</g>
<!-- Node8 -->
<g id="node8" class="node">
<title>Node8</title>
<g id="a_node8"><a xlink:title=" ">
<polygon fill="white" stroke="#bfbfbf" points="163.5,-0.5 163.5,-19.5 236.5,-19.5 236.5,-0.5 163.5,-0.5"/>
<text text-anchor="middle" x="200" y="-7.5" font-family="Helvetica,sans-Serif" font-size="10.00">G4Types.hh</text>
</a>
</g>
</g>
<!-- Node6&#45;&gt;Node8 -->
<g id="edge7" class="edge">
<title>Node6&#45;&gt;Node8</title>
<path fill="none" stroke="midnightblue" d="M262.11,-56.32C250.85,-48.11 233.71,-35.6 220.29,-25.81"/>
<polygon fill="midnightblue" stroke="midnightblue" points="222.25,-22.9 212.11,-19.83 218.12,-28.56 222.25,-22.9"/>
</g>
<!-- Node9 -->
<g id="node9" class="node">
<title>Node9</title>
<g id="a_node9"><a xlink:title=" ">
<polygon fill="white" stroke="#bfbfbf" points="255,-0.5 255,-19.5 293,-19.5 293,-0.5 255,-0.5"/>
<text text-anchor="middle" x="274" y="-7.5" font-family="Helvetica,sans-Serif" font-size="10.00">map</text>
</a>
</g>
</g>
<!-- Node6&#45;&gt;Node9 -->
<g id="edge8" class="edge">
<title>Node6&#45;&gt;Node9</title>
<path fill="none" stroke="midnightblue" d="M274,-56.08C274,-49.01 274,-38.86 274,-29.99"/>
<polygon fill="midnightblue" stroke="midnightblue" points="277.5,-29.75 274,-19.75 270.5,-29.75 277.5,-29.75"/>
</g>
<!-- Node10 -->
<g id="node10" class="node">
<title>Node10</title>
<g id="a_node10"><a xlink:title=" ">
<polygon fill="white" stroke="#bfbfbf" points="311.5,-0.5 311.5,-19.5 372.5,-19.5 372.5,-0.5 311.5,-0.5"/>
<text text-anchor="middle" x="342" y="-7.5" font-family="Helvetica,sans-Serif" font-size="10.00">TGraph.h</text>
</a>
</g>
</g>
<!-- Node6&#45;&gt;Node10 -->
<g id="edge9" class="edge">
<title>Node6&#45;&gt;Node10</title>
<path fill="none" stroke="midnightblue" d="M284.93,-56.32C295.17,-48.18 310.72,-35.84 323,-26.09"/>
<polygon fill="midnightblue" stroke="midnightblue" points="325.22,-28.79 330.88,-19.83 320.87,-23.31 325.22,-28.79"/>
</g>
<!-- Node11 -->
<g id="node11" class="node">
<title>Node11</title>
<g id="a_node11"><a xlink:title=" ">
<polygon fill="white" stroke="#bfbfbf" points="390.5,-0.5 390.5,-19.5 443.5,-19.5 443.5,-0.5 390.5,-0.5"/>
<text text-anchor="middle" x="417" y="-7.5" font-family="Helvetica,sans-Serif" font-size="10.00">TH2D.h</text>
</a>
</g>
</g>
<!-- Node6&#45;&gt;Node11 -->
<g id="edge10" class="edge">
<title>Node6&#45;&gt;Node11</title>
<path fill="none" stroke="midnightblue" d="M296.66,-56.44C320.4,-47.48 357.91,-33.31 384.74,-23.18"/>
<polygon fill="midnightblue" stroke="midnightblue" points="386.33,-26.32 394.45,-19.52 383.86,-19.77 386.33,-26.32"/>
</g>
</g>
</svg>
