<?xml version="1.0" encoding="UTF-8" standalone="no"?>
<!DOCTYPE svg PUBLIC "-//W3C//DTD SVG 1.1//EN"
 "http://www.w3.org/Graphics/SVG/1.1/DTD/svg11.dtd">
<!-- Generated by graphviz version 2.43.0 (0)
 -->
<!-- Title: /home/runner/work/OMSim/OMSim/common/include/OMSimCommandArgsTable.hh Pages: 1 -->
<svg width="1972pt" height="206pt"
 viewBox="0.00 0.00 1971.50 206.00" xmlns="http://www.w3.org/2000/svg" xmlns:xlink="http://www.w3.org/1999/xlink">
<g id="graph0" class="graph" transform="scale(1 1) rotate(0) translate(4 202)">
<title>/home/runner/work/OMSim/OMSim/common/include/OMSimCommandArgsTable.hh</title>
<polygon fill="white" stroke="transparent" points="-4,4 -4,-202 1967.5,-202 1967.5,4 -4,4"/>
<!-- Node1 -->
<g id="node1" class="node">
<title>Node1</title>
<g id="a_node1"><a xlink:title=" ">
<polygon fill="#bfbfbf" stroke="black" points="810.5,-156.5 810.5,-197.5 977.5,-197.5 977.5,-156.5 810.5,-156.5"/>
<text text-anchor="start" x="818.5" y="-185.5" font-family="Helvetica,sans-Serif" font-size="10.00">/home/runner/work/OMSim</text>
<text text-anchor="start" x="818.5" y="-174.5" font-family="Helvetica,sans-Serif" font-size="10.00">/OMSim/common/include</text>
<text text-anchor="middle" x="894" y="-163.5" font-family="Helvetica,sans-Serif" font-size="10.00">/OMSimCommandArgsTable.hh</text>
</a>
</g>
</g>
<!-- Node2 -->
<g id="node2" class="node">
<title>Node2</title>
<g id="a_node2"><a xlink:href="_o_m_sim_u_iinterface_8hh.html" target="_top" xlink:title="The OMSimUIinterface class provides a singleton interface to Geant4&#39;s UI manager.">
<polygon fill="white" stroke="black" points="269.5,-78.5 269.5,-119.5 416.5,-119.5 416.5,-78.5 269.5,-78.5"/>
<text text-anchor="start" x="277.5" y="-107.5" font-family="Helvetica,sans-Serif" font-size="10.00">/home/runner/work/OMSim</text>
<text text-anchor="start" x="277.5" y="-96.5" font-family="Helvetica,sans-Serif" font-size="10.00">/OMSim/common/include</text>
<text text-anchor="middle" x="343" y="-85.5" font-family="Helvetica,sans-Serif" font-size="10.00">/OMSimUIinterface.hh</text>
</a>
</g>
</g>
<!-- Node1&#45;&gt;Node2 -->
<g id="edge1" class="edge">
<title>Node1&#45;&gt;Node2</title>
<path fill="none" stroke="midnightblue" d="M800.37,-167.53C706.55,-158.38 558.19,-142.09 431,-120 426.37,-119.2 421.62,-118.31 416.83,-117.36"/>
<polygon fill="midnightblue" stroke="midnightblue" points="800.11,-171.03 810.4,-168.51 800.78,-164.06 800.11,-171.03"/>
</g>
<!-- Node3 -->
<g id="node3" class="node">
<title>Node3</title>
<g id="a_node3"><a xlink:href="_o_m_sim_m_d_o_m_flasher_8cc.html" target="_top" xlink:title=" ">
<polygon fill="white" stroke="black" points="0,-6 0,-36 238,-36 238,-6 0,-6"/>
<text text-anchor="start" x="8" y="-24" font-family="Helvetica,sans-Serif" font-size="10.00">/home/runner/work/OMSim</text>
<text text-anchor="middle" x="119" y="-13" font-family="Helvetica,sans-Serif" font-size="10.00">/OMSim/common/src/OMSimMDOMFlasher.cc</text>
</a>
</g>
</g>
<!-- Node1&#45;&gt;Node3 -->
<g id="edge7" class="edge">
<title>Node1&#45;&gt;Node3</title>
<path fill="none" stroke="midnightblue" d="M800.09,-173.55C648.63,-168.63 357.63,-154.85 261,-120 208.87,-101.2 157.93,-58.39 133.68,-36.09"/>
<polygon fill="midnightblue" stroke="midnightblue" points="800.2,-177.06 810.3,-173.88 800.42,-170.06 800.2,-177.06"/>
</g>
<!-- Node5 -->
<g id="node5" class="node">
<title>Node5</title>
<g id="a_node5"><a xlink:href="_o_m_sim__effective__area_8cc.html" target="_top" xlink:title="Main for the calculation of effective areas.">
<polygon fill="white" stroke="black" points="447.5,-0.5 447.5,-41.5 594.5,-41.5 594.5,-0.5 447.5,-0.5"/>
<text text-anchor="start" x="455.5" y="-29.5" font-family="Helvetica,sans-Serif" font-size="10.00">/home/runner/work/OMSim</text>
<text text-anchor="start" x="455.5" y="-18.5" font-family="Helvetica,sans-Serif" font-size="10.00">/OMSim/OMSim_effective</text>
<text text-anchor="middle" x="521" y="-7.5" font-family="Helvetica,sans-Serif" font-size="10.00">_area.cc</text>
</a>
</g>
</g>
<!-- Node1&#45;&gt;Node5 -->
<g id="edge13" class="edge">
<title>Node1&#45;&gt;Node5</title>
<path fill="none" stroke="midnightblue" d="M800.14,-170.24C680.58,-161.92 486.76,-144.78 465,-120 443.8,-95.85 472.74,-62.42 496.29,-41.52"/>
<polygon fill="midnightblue" stroke="midnightblue" points="800.18,-173.75 810.39,-170.94 800.66,-166.76 800.18,-173.75"/>
</g>
<!-- Node6 -->
<g id="node6" class="node">
<title>Node6</title>
<g id="a_node6"><a xlink:href="_o_m_sim_input_data_8cc.html" target="_top" xlink:title="Input data from external files are read and saved to memory.">
<polygon fill="white" stroke="black" points="473.5,-78.5 473.5,-119.5 654.5,-119.5 654.5,-78.5 473.5,-78.5"/>
<text text-anchor="start" x="481.5" y="-107.5" font-family="Helvetica,sans-Serif" font-size="10.00">/home/runner/work/OMSim</text>
<text text-anchor="start" x="481.5" y="-96.5" font-family="Helvetica,sans-Serif" font-size="10.00">/OMSim/common/src/OMSimInput</text>
<text text-anchor="middle" x="564" y="-85.5" font-family="Helvetica,sans-Serif" font-size="10.00">Data.cc</text>
</a>
</g>
</g>
<!-- Node1&#45;&gt;Node6 -->
<g id="edge5" class="edge">
<title>Node1&#45;&gt;Node6</title>
<path fill="none" stroke="midnightblue" d="M800.28,-154.42C752.61,-143.44 695.1,-130.19 648.76,-119.52"/>
<polygon fill="midnightblue" stroke="midnightblue" points="799.77,-157.89 810.3,-156.72 801.34,-151.07 799.77,-157.89"/>
</g>
<!-- Node7 -->
<g id="node7" class="node">
<title>Node7</title>
<g id="a_node7"><a xlink:href="_o_m_sim_m_d_o_m_8cc.html" target="_top" xlink:title="Construction of mDOM.">
<polygon fill="white" stroke="black" points="672.5,-84 672.5,-114 875.5,-114 875.5,-84 672.5,-84"/>
<text text-anchor="start" x="680.5" y="-102" font-family="Helvetica,sans-Serif" font-size="10.00">/home/runner/work/OMSim</text>
<text text-anchor="middle" x="774" y="-91" font-family="Helvetica,sans-Serif" font-size="10.00">/OMSim/common/src/OMSimMDOM.cc</text>
</a>
</g>
</g>
<!-- Node1&#45;&gt;Node7 -->
<g id="edge6" class="edge">
<title>Node1&#45;&gt;Node7</title>
<path fill="none" stroke="midnightblue" d="M854.5,-150.99C835.23,-138.78 812.76,-124.55 796.46,-114.23"/>
<polygon fill="midnightblue" stroke="midnightblue" points="852.78,-154.03 863.1,-156.43 856.52,-148.12 852.78,-154.03"/>
</g>
<!-- Node8 -->
<g id="node8" class="node">
<title>Node8</title>
<g id="a_node8"><a xlink:href="_o_m_sim_m_d_o_m_harness_8cc.html" target="_top" xlink:title="Construction of mDOM harness.">
<polygon fill="white" stroke="black" points="893,-84 893,-114 1135,-114 1135,-84 893,-84"/>
<text text-anchor="start" x="901" y="-102" font-family="Helvetica,sans-Serif" font-size="10.00">/home/runner/work/OMSim</text>
<text text-anchor="middle" x="1014" y="-91" font-family="Helvetica,sans-Serif" font-size="10.00">/OMSim/common/src/OMSimMDOMHarness.cc</text>
</a>
</g>
</g>
<!-- Node1&#45;&gt;Node8 -->
<g id="edge8" class="edge">
<title>Node1&#45;&gt;Node8</title>
<path fill="none" stroke="midnightblue" d="M933.5,-150.99C952.77,-138.78 975.24,-124.55 991.54,-114.23"/>
<polygon fill="midnightblue" stroke="midnightblue" points="931.48,-148.12 924.9,-156.43 935.22,-154.03 931.48,-148.12"/>
</g>
<!-- Node9 -->
<g id="node9" class="node">
<title>Node9</title>
<g id="a_node9"><a xlink:href="_o_m_sim_p_m_t_construction_8cc.html" target="_top" xlink:title="Construction of the PMTs.">
<polygon fill="white" stroke="black" points="1153.5,-84 1153.5,-114 1404.5,-114 1404.5,-84 1153.5,-84"/>
<text text-anchor="start" x="1161.5" y="-102" font-family="Helvetica,sans-Serif" font-size="10.00">/home/runner/work/OMSim</text>
<text text-anchor="middle" x="1279" y="-91" font-family="Helvetica,sans-Serif" font-size="10.00">/OMSim/common/src/OMSimPMTConstruction.cc</text>
</a>
</g>
</g>
<!-- Node1&#45;&gt;Node9 -->
<g id="edge9" class="edge">
<title>Node1&#45;&gt;Node9</title>
<path fill="none" stroke="midnightblue" d="M987.39,-157.57C1055.29,-144.16 1145.82,-126.29 1207.9,-114.04"/>
<polygon fill="midnightblue" stroke="midnightblue" points="986.67,-154.14 977.54,-159.51 988.03,-161.01 986.67,-154.14"/>
</g>
<!-- Node10 -->
<g id="node10" class="node">
<title>Node10</title>
<g id="a_node10"><a xlink:href="_o_m_sim_analysis_manager_8cc.html" target="_top" xlink:title=" ">
<polygon fill="white" stroke="black" points="1422.5,-78.5 1422.5,-119.5 1591.5,-119.5 1591.5,-78.5 1422.5,-78.5"/>
<text text-anchor="start" x="1430.5" y="-107.5" font-family="Helvetica,sans-Serif" font-size="10.00">/home/runner/work/OMSim</text>
<text text-anchor="start" x="1430.5" y="-96.5" font-family="Helvetica,sans-Serif" font-size="10.00">/OMSim/effective_area</text>
<text text-anchor="middle" x="1507" y="-85.5" font-family="Helvetica,sans-Serif" font-size="10.00">/src/OMSimAnalysisManager.cc</text>
</a>
</g>
</g>
<!-- Node1&#45;&gt;Node10 -->
<g id="edge10" class="edge">
<title>Node1&#45;&gt;Node10</title>
<path fill="none" stroke="midnightblue" d="M987.86,-168.86C1092.3,-160.24 1265.86,-143.84 1414,-120 1416.77,-119.55 1419.59,-119.08 1422.42,-118.58"/>
<polygon fill="midnightblue" stroke="midnightblue" points="987.35,-165.4 977.67,-169.7 987.92,-172.37 987.35,-165.4"/>
</g>
<!-- Node11 -->
<g id="node11" class="node">
<title>Node11</title>
<g id="a_node11"><a xlink:href="_o_m_sim_detector_construction_8cc.html" target="_top" xlink:title="User defined detector.">
<polygon fill="white" stroke="black" points="1609.5,-78.5 1609.5,-119.5 1798.5,-119.5 1798.5,-78.5 1609.5,-78.5"/>
<text text-anchor="start" x="1617.5" y="-107.5" font-family="Helvetica,sans-Serif" font-size="10.00">/home/runner/work/OMSim</text>
<text text-anchor="start" x="1617.5" y="-96.5" font-family="Helvetica,sans-Serif" font-size="10.00">/OMSim/effective_area</text>
<text text-anchor="middle" x="1704" y="-85.5" font-family="Helvetica,sans-Serif" font-size="10.00">/src/OMSimDetectorConstruction.cc</text>
</a>
</g>
</g>
<!-- Node1&#45;&gt;Node11 -->
<g id="edge11" class="edge">
<title>Node1&#45;&gt;Node11</title>
<path fill="none" stroke="midnightblue" d="M987.95,-171.93C1123.73,-165.29 1382.52,-149.77 1601,-120 1603.8,-119.62 1606.63,-119.21 1609.49,-118.78"/>
<polygon fill="midnightblue" stroke="midnightblue" points="987.41,-168.46 977.59,-172.43 987.74,-175.45 987.41,-168.46"/>
</g>
<!-- Node12 -->
<g id="node12" class="node">
<title>Node12</title>
<g id="a_node12"><a xlink:href="_o_m_sim_run_action_8cc.html" target="_top" xlink:title=" ">
<polygon fill="white" stroke="black" points="1816.5,-78.5 1816.5,-119.5 1963.5,-119.5 1963.5,-78.5 1816.5,-78.5"/>
<text text-anchor="start" x="1824.5" y="-107.5" font-family="Helvetica,sans-Serif" font-size="10.00">/home/runner/work/OMSim</text>
<text text-anchor="start" x="1824.5" y="-96.5" font-family="Helvetica,sans-Serif" font-size="10.00">/OMSim/effective_area</text>
<text text-anchor="middle" x="1890" y="-85.5" font-family="Helvetica,sans-Serif" font-size="10.00">/src/OMSimRunAction.cc</text>
</a>
</g>
</g>
<!-- Node1&#45;&gt;Node12 -->
<g id="edge12" class="edge">
<title>Node1&#45;&gt;Node12</title>
<path fill="none" stroke="midnightblue" d="M987.89,-175.74C1154.15,-174.06 1510.85,-164.97 1808,-120 1810.75,-119.58 1813.55,-119.12 1816.37,-118.61"/>
<polygon fill="midnightblue" stroke="midnightblue" points="987.66,-172.24 977.7,-175.84 987.73,-179.24 987.66,-172.24"/>
</g>
<!-- Node2&#45;&gt;Node3 -->
<g id="edge2" class="edge">
<title>Node2&#45;&gt;Node3</title>
<path fill="none" stroke="midnightblue" d="M275.49,-75.1C238.1,-62.41 192.8,-47.04 160.58,-36.11"/>
<polygon fill="midnightblue" stroke="midnightblue" points="274.72,-78.53 285.31,-78.43 276.97,-71.9 274.72,-78.53"/>
</g>
<!-- Node4 -->
<g id="node4" class="node">
<title>Node4</title>
<g id="a_node4"><a xlink:href="_o_m_sim_simple_g_p_s_beams_8cc.html" target="_top" xlink:title="Defines the AngularScan class for simple GPS beam configurations.">
<polygon fill="white" stroke="black" points="256.5,-0.5 256.5,-41.5 429.5,-41.5 429.5,-0.5 256.5,-0.5"/>
<text text-anchor="start" x="264.5" y="-29.5" font-family="Helvetica,sans-Serif" font-size="10.00">/home/runner/work/OMSim</text>
<text text-anchor="start" x="264.5" y="-18.5" font-family="Helvetica,sans-Serif" font-size="10.00">/OMSim/effective_area</text>
<text text-anchor="middle" x="343" y="-7.5" font-family="Helvetica,sans-Serif" font-size="10.00">/src/OMSimSimpleGPSBeams.cc</text>
</a>
</g>
</g>
<!-- Node2&#45;&gt;Node4 -->
<g id="edge3" class="edge">
<title>Node2&#45;&gt;Node4</title>
<path fill="none" stroke="midnightblue" d="M343,-68.3C343,-59.3 343,-49.65 343,-41.51"/>
<polygon fill="midnightblue" stroke="midnightblue" points="339.5,-68.43 343,-78.43 346.5,-68.43 339.5,-68.43"/>
</g>
<!-- Node2&#45;&gt;Node5 -->
<g id="edge4" class="edge">
<title>Node2&#45;&gt;Node5</title>
<path fill="none" stroke="midnightblue" d="M398.11,-74.47C422.88,-63.89 451.77,-51.56 475.32,-41.51"/>
<polygon fill="midnightblue" stroke="midnightblue" points="396.66,-71.28 388.84,-78.43 399.41,-77.72 396.66,-71.28"/>
</g>
</g>
</svg>
