<?xml version="1.0" encoding="UTF-8" standalone="no"?>
<!DOCTYPE svg PUBLIC "-//W3C//DTD SVG 1.1//EN"
 "http://www.w3.org/Graphics/SVG/1.1/DTD/svg11.dtd">
<!-- Generated by graphviz version 2.43.0 (0)
 -->
<!-- Title: OMSim_radioactive_decays.cc Pages: 1 -->
<svg width="2129pt" height="308pt"
 viewBox="0.00 0.00 2128.50 308.00" xmlns="http://www.w3.org/2000/svg" xmlns:xlink="http://www.w3.org/1999/xlink">
<g id="graph0" class="graph" transform="scale(1 1) rotate(0) translate(4 304)">
<title>OMSim_radioactive_decays.cc</title>
<polygon fill="white" stroke="transparent" points="-4,4 -4,-304 2124.5,-304 2124.5,4 -4,4"/>
<!-- Node1 -->
<g id="node1" class="node">
<title>Node1</title>
<g id="a_node1"><a xlink:title=" ">
<polygon fill="#bfbfbf" stroke="black" points="1172.5,-280.5 1172.5,-299.5 1337.5,-299.5 1337.5,-280.5 1172.5,-280.5"/>
<text text-anchor="middle" x="1255" y="-287.5" font-family="Helvetica,sans-Serif" font-size="10.00">OMSim_radioactive_decays.cc</text>
</a>
</g>
</g>
<!-- Node2 -->
<g id="node2" class="node">
<title>Node2</title>
<g id="a_node2"><a xlink:href="_o_m_sim_8hh.html" target="_top" xlink:title="Main simulation class for the Optical Module (OM) simulation.">
<polygon fill="white" stroke="black" points="1163.5,-224.5 1163.5,-243.5 1230.5,-243.5 1230.5,-224.5 1163.5,-224.5"/>
<text text-anchor="middle" x="1197" y="-231.5" font-family="Helvetica,sans-Serif" font-size="10.00">OMSim.hh</text>
</a>
</g>
</g>
<!-- Node1&#45;&gt;Node2 -->
<g id="edge1" class="edge">
<title>Node1&#45;&gt;Node2</title>
<path fill="none" stroke="midnightblue" d="M1245.68,-280.32C1237.11,-272.34 1224.19,-260.31 1213.81,-250.65"/>
<polygon fill="midnightblue" stroke="midnightblue" points="1216.19,-248.09 1206.49,-243.83 1211.42,-253.21 1216.19,-248.09"/>
</g>
<!-- Node26 -->
<g id="node26" class="node">
<title>Node26</title>
<g id="a_node26"><a xlink:href="_o_m_sim_angular_scan_8hh.html" target="_top" xlink:title=" ">
<polygon fill="white" stroke="black" points="1636,-224.5 1636,-243.5 1764,-243.5 1764,-224.5 1636,-224.5"/>
<text text-anchor="middle" x="1700" y="-231.5" font-family="Helvetica,sans-Serif" font-size="10.00">OMSimAngularScan.hh</text>
</a>
</g>
</g>
<!-- Node1&#45;&gt;Node26 -->
<g id="edge25" class="edge">
<title>Node1&#45;&gt;Node26</title>
<path fill="none" stroke="midnightblue" d="M1325.51,-280.44C1407.5,-270.49 1542.23,-254.15 1625.77,-244.01"/>
<polygon fill="midnightblue" stroke="midnightblue" points="1626.45,-247.45 1635.95,-242.77 1625.6,-240.5 1626.45,-247.45"/>
</g>
<!-- Node3 -->
<g id="node3" class="node">
<title>Node3</title>
<g id="a_node3"><a xlink:title=" ">
<polygon fill="white" stroke="#bfbfbf" points="0,-168.5 0,-187.5 170,-187.5 170,-168.5 0,-168.5"/>
<text text-anchor="middle" x="85" y="-175.5" font-family="Helvetica,sans-Serif" font-size="10.00">OMSimDetectorConstruction.hh</text>
</a>
</g>
</g>
<!-- Node2&#45;&gt;Node3 -->
<g id="edge2" class="edge">
<title>Node2&#45;&gt;Node3</title>
<path fill="none" stroke="midnightblue" d="M1163.13,-232.13C1035.74,-228.74 573.05,-215.23 180.18,-188.04"/>
<polygon fill="midnightblue" stroke="midnightblue" points="180.26,-184.54 170.04,-187.34 179.77,-191.53 180.26,-184.54"/>
</g>
<!-- Node4 -->
<g id="node4" class="node">
<title>Node4</title>
<g id="a_node4"><a xlink:title=" ">
<polygon fill="white" stroke="#bfbfbf" points="188.5,-168.5 188.5,-187.5 309.5,-187.5 309.5,-168.5 188.5,-168.5"/>
<text text-anchor="middle" x="249" y="-175.5" font-family="Helvetica,sans-Serif" font-size="10.00">OMSimPhysicsList.hh</text>
</a>
</g>
</g>
<!-- Node2&#45;&gt;Node4 -->
<g id="edge3" class="edge">
<title>Node2&#45;&gt;Node4</title>
<path fill="none" stroke="midnightblue" d="M1163.4,-232.23C1047.69,-229.38 654.88,-218.04 319.94,-188.11"/>
<polygon fill="midnightblue" stroke="midnightblue" points="319.83,-184.58 309.55,-187.17 319.2,-191.55 319.83,-184.58"/>
</g>
<!-- Node5 -->
<g id="node5" class="node">
<title>Node5</title>
<g id="a_node5"><a xlink:href="_o_m_sim_primary_generator_action_8hh.html" target="_top" xlink:title=" ">
<polygon fill="white" stroke="black" points="327.5,-168.5 327.5,-187.5 512.5,-187.5 512.5,-168.5 327.5,-168.5"/>
<text text-anchor="middle" x="420" y="-175.5" font-family="Helvetica,sans-Serif" font-size="10.00">OMSimPrimaryGeneratorAction.hh</text>
</a>
</g>
</g>
<!-- Node2&#45;&gt;Node5 -->
<g id="edge4" class="edge">
<title>Node2&#45;&gt;Node5</title>
<path fill="none" stroke="midnightblue" d="M1163.22,-231.02C1065.69,-225.25 775.06,-207.64 522.82,-188.13"/>
<polygon fill="midnightblue" stroke="midnightblue" points="522.97,-184.63 512.73,-187.34 522.43,-191.61 522.97,-184.63"/>
</g>
<!-- Node7 -->
<g id="node7" class="node">
<title>Node7</title>
<g id="a_node7"><a xlink:title=" ">
<polygon fill="white" stroke="#bfbfbf" points="530,-168.5 530,-187.5 646,-187.5 646,-168.5 530,-168.5"/>
<text text-anchor="middle" x="588" y="-175.5" font-family="Helvetica,sans-Serif" font-size="10.00">OMSimRunAction.hh</text>
</a>
</g>
</g>
<!-- Node2&#45;&gt;Node7 -->
<g id="edge6" class="edge">
<title>Node2&#45;&gt;Node7</title>
<path fill="none" stroke="midnightblue" d="M1163.33,-230.8C1079.51,-225.2 854.6,-209.39 656.11,-188.07"/>
<polygon fill="midnightblue" stroke="midnightblue" points="656.4,-184.58 646.08,-186.99 655.65,-191.54 656.4,-184.58"/>
</g>
<!-- Node8 -->
<g id="node8" class="node">
<title>Node8</title>
<g id="a_node8"><a xlink:title=" ">
<polygon fill="white" stroke="#bfbfbf" points="664.5,-168.5 664.5,-187.5 789.5,-187.5 789.5,-168.5 664.5,-168.5"/>
<text text-anchor="middle" x="727" y="-175.5" font-family="Helvetica,sans-Serif" font-size="10.00">OMSimEventAction.hh</text>
</a>
</g>
</g>
<!-- Node2&#45;&gt;Node8 -->
<g id="edge7" class="edge">
<title>Node2&#45;&gt;Node8</title>
<path fill="none" stroke="midnightblue" d="M1163.44,-229.34C1096.52,-222.01 941.49,-204.9 799.99,-188.11"/>
<polygon fill="midnightblue" stroke="midnightblue" points="800.17,-184.6 789.82,-186.9 799.34,-191.55 800.17,-184.6"/>
</g>
<!-- Node9 -->
<g id="node9" class="node">
<title>Node9</title>
<g id="a_node9"><a xlink:title=" ">
<polygon fill="white" stroke="#bfbfbf" points="808,-168.5 808,-187.5 946,-187.5 946,-168.5 808,-168.5"/>
<text text-anchor="middle" x="877" y="-175.5" font-family="Helvetica,sans-Serif" font-size="10.00">OMSimTrackingAction.hh</text>
</a>
</g>
</g>
<!-- Node2&#45;&gt;Node9 -->
<g id="edge8" class="edge">
<title>Node2&#45;&gt;Node9</title>
<path fill="none" stroke="midnightblue" d="M1163.36,-227.32C1109.79,-218.28 1004.32,-200.49 937.42,-189.2"/>
<polygon fill="midnightblue" stroke="midnightblue" points="937.87,-185.72 927.43,-187.51 936.71,-192.63 937.87,-185.72"/>
</g>
<!-- Node10 -->
<g id="node10" class="node">
<title>Node10</title>
<g id="a_node10"><a xlink:title=" ">
<polygon fill="white" stroke="#bfbfbf" points="964,-168.5 964,-187.5 1104,-187.5 1104,-168.5 964,-168.5"/>
<text text-anchor="middle" x="1034" y="-175.5" font-family="Helvetica,sans-Serif" font-size="10.00">OMSimSteppingAction.hh</text>
</a>
</g>
</g>
<!-- Node2&#45;&gt;Node10 -->
<g id="edge9" class="edge">
<title>Node2&#45;&gt;Node10</title>
<path fill="none" stroke="midnightblue" d="M1171.17,-224.44C1143.75,-215.36 1100.22,-200.94 1069.57,-190.78"/>
<polygon fill="midnightblue" stroke="midnightblue" points="1070.3,-187.34 1059.71,-187.52 1068.1,-193.98 1070.3,-187.34"/>
</g>
<!-- Node11 -->
<g id="node11" class="node">
<title>Node11</title>
<g id="a_node11"><a xlink:title=" ">
<polygon fill="white" stroke="#bfbfbf" points="1122,-168.5 1122,-187.5 1272,-187.5 1272,-168.5 1122,-168.5"/>
<text text-anchor="middle" x="1197" y="-175.5" font-family="Helvetica,sans-Serif" font-size="10.00">OMSimAnalysisManager.hh</text>
</a>
</g>
</g>
<!-- Node2&#45;&gt;Node11 -->
<g id="edge10" class="edge">
<title>Node2&#45;&gt;Node11</title>
<path fill="none" stroke="midnightblue" d="M1197,-224.08C1197,-217.01 1197,-206.86 1197,-197.99"/>
<polygon fill="midnightblue" stroke="midnightblue" points="1200.5,-197.75 1197,-187.75 1193.5,-197.75 1200.5,-197.75"/>
</g>
<!-- Node12 -->
<g id="node12" class="node">
<title>Node12</title>
<g id="a_node12"><a xlink:href="_o_m_sim_u_iinterface_8hh.html" target="_top" xlink:title="The OMSimUIinterface class provides a singleton interface to Geant4&#39;s UI manager.">
<polygon fill="white" stroke="black" points="1289.5,-168.5 1289.5,-187.5 1410.5,-187.5 1410.5,-168.5 1289.5,-168.5"/>
<text text-anchor="middle" x="1350" y="-175.5" font-family="Helvetica,sans-Serif" font-size="10.00">OMSimUIinterface.hh</text>
</a>
</g>
</g>
<!-- Node2&#45;&gt;Node12 -->
<g id="edge11" class="edge">
<title>Node2&#45;&gt;Node12</title>
<path fill="none" stroke="midnightblue" d="M1221.24,-224.44C1246.87,-215.4 1287.49,-201.06 1316.24,-190.92"/>
<polygon fill="midnightblue" stroke="midnightblue" points="1317.61,-194.15 1325.87,-187.52 1315.28,-187.54 1317.61,-194.15"/>
</g>
<!-- Node21 -->
<g id="node21" class="node">
<title>Node21</title>
<g id="a_node21"><a xlink:title=" ">
<polygon fill="white" stroke="#bfbfbf" points="1429,-168.5 1429,-187.5 1535,-187.5 1535,-168.5 1429,-168.5"/>
<text text-anchor="middle" x="1482" y="-175.5" font-family="Helvetica,sans-Serif" font-size="10.00">G4RunManager.hh</text>
</a>
</g>
</g>
<!-- Node2&#45;&gt;Node21 -->
<g id="edge20" class="edge">
<title>Node2&#45;&gt;Node21</title>
<path fill="none" stroke="midnightblue" d="M1230.53,-226.65C1278.84,-217.49 1368.58,-200.49 1426.76,-189.47"/>
<polygon fill="midnightblue" stroke="midnightblue" points="1427.71,-192.85 1436.89,-187.55 1426.41,-185.97 1427.71,-192.85"/>
</g>
<!-- Node22 -->
<g id="node22" class="node">
<title>Node22</title>
<g id="a_node22"><a xlink:title=" ">
<polygon fill="white" stroke="#bfbfbf" points="1553.5,-168.5 1553.5,-187.5 1660.5,-187.5 1660.5,-168.5 1553.5,-168.5"/>
<text text-anchor="middle" x="1607" y="-175.5" font-family="Helvetica,sans-Serif" font-size="10.00">G4VisExecutive.hh</text>
</a>
</g>
</g>
<!-- Node2&#45;&gt;Node22 -->
<g id="edge21" class="edge">
<title>Node2&#45;&gt;Node22</title>
<path fill="none" stroke="midnightblue" d="M1230.52,-228.8C1290.77,-221.22 1421.62,-204.61 1543.16,-188.1"/>
<polygon fill="midnightblue" stroke="midnightblue" points="1543.95,-191.52 1553.39,-186.71 1543.01,-184.59 1543.95,-191.52"/>
</g>
<!-- Node23 -->
<g id="node23" class="node">
<title>Node23</title>
<g id="a_node23"><a xlink:title=" ">
<polygon fill="white" stroke="#bfbfbf" points="1678.5,-168.5 1678.5,-187.5 1781.5,-187.5 1781.5,-168.5 1678.5,-168.5"/>
<text text-anchor="middle" x="1730" y="-175.5" font-family="Helvetica,sans-Serif" font-size="10.00">G4UIExecutive.hh</text>
</a>
</g>
</g>
<!-- Node2&#45;&gt;Node23 -->
<g id="edge22" class="edge">
<title>Node2&#45;&gt;Node23</title>
<path fill="none" stroke="midnightblue" d="M1230.54,-230.4C1306.47,-224.38 1497.49,-208.53 1668.5,-188"/>
<polygon fill="midnightblue" stroke="midnightblue" points="1668.93,-191.47 1678.44,-186.8 1668.09,-184.52 1668.93,-191.47"/>
</g>
<!-- Node24 -->
<g id="node24" class="node">
<title>Node24</title>
<g id="a_node24"><a xlink:title=" ">
<polygon fill="white" stroke="#bfbfbf" points="1800,-168.5 1800,-187.5 1868,-187.5 1868,-168.5 1800,-168.5"/>
<text text-anchor="middle" x="1834" y="-175.5" font-family="Helvetica,sans-Serif" font-size="10.00">filesystem</text>
</a>
</g>
</g>
<!-- Node2&#45;&gt;Node24 -->
<g id="edge23" class="edge">
<title>Node2&#45;&gt;Node24</title>
<path fill="none" stroke="midnightblue" d="M1230.6,-231.93C1321.25,-228.74 1578.33,-217.56 1790,-188 1790.1,-187.99 1790.2,-187.97 1790.3,-187.96"/>
<polygon fill="midnightblue" stroke="midnightblue" points="1790.65,-191.45 1799.96,-186.4 1789.53,-184.54 1790.65,-191.45"/>
</g>
<!-- Node25 -->
<g id="node25" class="node">
<title>Node25</title>
<g id="a_node25"><a xlink:title=" ">
<polygon fill="white" stroke="#bfbfbf" points="1886,-168.5 1886,-187.5 2036,-187.5 2036,-168.5 1886,-168.5"/>
<text text-anchor="middle" x="1961" y="-175.5" font-family="Helvetica,sans-Serif" font-size="10.00">boost/program_options.hpp</text>
</a>
</g>
</g>
<!-- Node2&#45;&gt;Node25 -->
<g id="edge24" class="edge">
<title>Node2&#45;&gt;Node25</title>
<path fill="none" stroke="midnightblue" d="M1230.65,-231.26C1328.44,-226.1 1621.31,-209.9 1875.73,-188.08"/>
<polygon fill="midnightblue" stroke="midnightblue" points="1876.25,-191.54 1885.91,-187.2 1875.65,-184.57 1876.25,-191.54"/>
</g>
<!-- Node6 -->
<g id="node6" class="node">
<title>Node6</title>
<g id="a_node6"><a xlink:title=" ">
<polygon fill="white" stroke="#bfbfbf" points="324,-112.5 324,-131.5 516,-131.5 516,-112.5 324,-112.5"/>
<text text-anchor="middle" x="420" y="-119.5" font-family="Helvetica,sans-Serif" font-size="10.00">G4VUserPrimaryGeneratorAction.hh</text>
</a>
</g>
</g>
<!-- Node5&#45;&gt;Node6 -->
<g id="edge5" class="edge">
<title>Node5&#45;&gt;Node6</title>
<path fill="none" stroke="midnightblue" d="M420,-168.08C420,-161.01 420,-150.86 420,-141.99"/>
<polygon fill="midnightblue" stroke="midnightblue" points="423.5,-141.75 420,-131.75 416.5,-141.75 423.5,-141.75"/>
</g>
<!-- Node13 -->
<g id="node13" class="node">
<title>Node13</title>
<g id="a_node13"><a xlink:href="_o_m_sim_command_args_table_8hh.html" target="_top" xlink:title="Definition of the OMSimCommandArgsTable singleton class, which controls user args.">
<polygon fill="white" stroke="black" points="1193,-112.5 1193,-131.5 1357,-131.5 1357,-112.5 1193,-112.5"/>
<text text-anchor="middle" x="1275" y="-119.5" font-family="Helvetica,sans-Serif" font-size="10.00">OMSimCommandArgsTable.hh</text>
</a>
</g>
</g>
<!-- Node12&#45;&gt;Node13 -->
<g id="edge12" class="edge">
<title>Node12&#45;&gt;Node13</title>
<path fill="none" stroke="midnightblue" d="M1337.95,-168.32C1326.54,-160.11 1309.17,-147.6 1295.57,-137.81"/>
<polygon fill="midnightblue" stroke="midnightblue" points="1297.43,-134.84 1287.27,-131.83 1293.34,-140.52 1297.43,-134.84"/>
</g>
<!-- Node20 -->
<g id="node20" class="node">
<title>Node20</title>
<g id="a_node20"><a xlink:title=" ">
<polygon fill="white" stroke="#bfbfbf" points="1375,-112.5 1375,-131.5 1473,-131.5 1473,-112.5 1375,-112.5"/>
<text text-anchor="middle" x="1424" y="-119.5" font-family="Helvetica,sans-Serif" font-size="10.00">G4UImanager.hh</text>
</a>
</g>
</g>
<!-- Node12&#45;&gt;Node20 -->
<g id="edge19" class="edge">
<title>Node12&#45;&gt;Node20</title>
<path fill="none" stroke="midnightblue" d="M1361.89,-168.32C1373.15,-160.11 1390.29,-147.6 1403.71,-137.81"/>
<polygon fill="midnightblue" stroke="midnightblue" points="1405.88,-140.56 1411.89,-131.83 1401.75,-134.9 1405.88,-140.56"/>
</g>
<!-- Node14 -->
<g id="node14" class="node">
<title>Node14</title>
<g id="a_node14"><a xlink:href="_o_m_sim_logger_8hh.html" target="_top" xlink:title=" ">
<polygon fill="white" stroke="black" points="1086.5,-56.5 1086.5,-75.5 1185.5,-75.5 1185.5,-56.5 1086.5,-56.5"/>
<text text-anchor="middle" x="1136" y="-63.5" font-family="Helvetica,sans-Serif" font-size="10.00">OMSimLogger.hh</text>
</a>
</g>
</g>
<!-- Node13&#45;&gt;Node14 -->
<g id="edge13" class="edge">
<title>Node13&#45;&gt;Node14</title>
<path fill="none" stroke="midnightblue" d="M1252.98,-112.44C1229.9,-103.48 1193.44,-89.31 1167.36,-79.18"/>
<polygon fill="midnightblue" stroke="midnightblue" points="1168.51,-75.88 1157.92,-75.52 1165.98,-82.4 1168.51,-75.88"/>
</g>
<!-- Node17 -->
<g id="node17" class="node">
<title>Node17</title>
<g id="a_node17"><a xlink:title=" ">
<polygon fill="white" stroke="#bfbfbf" points="1203.5,-56.5 1203.5,-75.5 1258.5,-75.5 1258.5,-56.5 1203.5,-56.5"/>
<text text-anchor="middle" x="1231" y="-63.5" font-family="Helvetica,sans-Serif" font-size="10.00">fstream</text>
</a>
</g>
</g>
<!-- Node13&#45;&gt;Node17 -->
<g id="edge16" class="edge">
<title>Node13&#45;&gt;Node17</title>
<path fill="none" stroke="midnightblue" d="M1267.73,-112.08C1261.46,-104.38 1252.21,-93.03 1244.57,-83.65"/>
<polygon fill="midnightblue" stroke="midnightblue" points="1247.16,-81.29 1238.13,-75.75 1241.73,-85.71 1247.16,-81.29"/>
</g>
<!-- Node18 -->
<g id="node18" class="node">
<title>Node18</title>
<g id="a_node18"><a xlink:title=" ">
<polygon fill="white" stroke="#bfbfbf" points="1277,-56.5 1277,-75.5 1361,-75.5 1361,-56.5 1277,-56.5"/>
<text text-anchor="middle" x="1319" y="-63.5" font-family="Helvetica,sans-Serif" font-size="10.00">boost/any.hpp</text>
</a>
</g>
</g>
<!-- Node13&#45;&gt;Node18 -->
<g id="edge17" class="edge">
<title>Node13&#45;&gt;Node18</title>
<path fill="none" stroke="midnightblue" d="M1282.27,-112.08C1288.54,-104.38 1297.79,-93.03 1305.43,-83.65"/>
<polygon fill="midnightblue" stroke="midnightblue" points="1308.27,-85.71 1311.87,-75.75 1302.84,-81.29 1308.27,-85.71"/>
</g>
<!-- Node19 -->
<g id="node19" class="node">
<title>Node19</title>
<g id="a_node19"><a xlink:title=" ">
<polygon fill="white" stroke="#bfbfbf" points="1379,-56.5 1379,-75.5 1447,-75.5 1447,-56.5 1379,-56.5"/>
<text text-anchor="middle" x="1413" y="-63.5" font-family="Helvetica,sans-Serif" font-size="10.00">sys/time.h</text>
</a>
</g>
</g>
<!-- Node13&#45;&gt;Node19 -->
<g id="edge18" class="edge">
<title>Node13&#45;&gt;Node19</title>
<path fill="none" stroke="midnightblue" d="M1296.87,-112.44C1319.78,-103.48 1355.98,-89.31 1381.87,-79.18"/>
<polygon fill="midnightblue" stroke="midnightblue" points="1383.2,-82.42 1391.24,-75.52 1380.65,-75.9 1383.2,-82.42"/>
</g>
<!-- Node15 -->
<g id="node15" class="node">
<title>Node15</title>
<g id="a_node15"><a xlink:title=" ">
<polygon fill="white" stroke="#bfbfbf" points="1078,-0.5 1078,-19.5 1128,-19.5 1128,-0.5 1078,-0.5"/>
<text text-anchor="middle" x="1103" y="-7.5" font-family="Helvetica,sans-Serif" font-size="10.00">stdio.h</text>
</a>
</g>
</g>
<!-- Node14&#45;&gt;Node15 -->
<g id="edge14" class="edge">
<title>Node14&#45;&gt;Node15</title>
<path fill="none" stroke="midnightblue" d="M1130.55,-56.08C1125.99,-48.61 1119.33,-37.72 1113.71,-28.52"/>
<polygon fill="midnightblue" stroke="midnightblue" points="1116.55,-26.46 1108.35,-19.75 1110.58,-30.11 1116.55,-26.46"/>
</g>
<!-- Node16 -->
<g id="node16" class="node">
<title>Node16</title>
<g id="a_node16"><a xlink:title=" ">
<polygon fill="white" stroke="#bfbfbf" points="1146,-0.5 1146,-19.5 1194,-19.5 1194,-0.5 1146,-0.5"/>
<text text-anchor="middle" x="1170" y="-7.5" font-family="Helvetica,sans-Serif" font-size="10.00">time.h</text>
</a>
</g>
</g>
<!-- Node14&#45;&gt;Node16 -->
<g id="edge15" class="edge">
<title>Node14&#45;&gt;Node16</title>
<path fill="none" stroke="midnightblue" d="M1141.61,-56.08C1146.37,-48.53 1153.32,-37.49 1159.15,-28.23"/>
<polygon fill="midnightblue" stroke="midnightblue" points="1162.12,-30.08 1164.49,-19.75 1156.2,-26.35 1162.12,-30.08"/>
</g>
<!-- Node27 -->
<g id="node27" class="node">
<title>Node27</title>
<g id="a_node27"><a xlink:title=" ">
<polygon fill="white" stroke="#bfbfbf" points="2053.5,-168.5 2053.5,-187.5 2120.5,-187.5 2120.5,-168.5 2053.5,-168.5"/>
<text text-anchor="middle" x="2087" y="-175.5" font-family="Helvetica,sans-Serif" font-size="10.00">globals.hh</text>
</a>
</g>
</g>
<!-- Node26&#45;&gt;Node27 -->
<g id="edge26" class="edge">
<title>Node26&#45;&gt;Node27</title>
<path fill="none" stroke="midnightblue" d="M1764.14,-226.22C1831.42,-218.74 1940.44,-205.62 2043.2,-188.21"/>
<polygon fill="midnightblue" stroke="midnightblue" points="2043.85,-191.65 2053.12,-186.51 2042.67,-184.75 2043.85,-191.65"/>
</g>
</g>
</svg>
