<?xml version="1.0" encoding="UTF-8" standalone="no"?>
<!DOCTYPE svg PUBLIC "-//W3C//DTD SVG 1.1//EN"
 "http://www.w3.org/Graphics/SVG/1.1/DTD/svg11.dtd">
<!-- Generated by graphviz version 2.43.0 (0)
 -->
<!-- Title: OMSimMDOMFlasher.cc Pages: 1 -->
<svg width="1010pt" height="375pt"
 viewBox="0.00 0.00 1009.50 375.00" xmlns="http://www.w3.org/2000/svg" xmlns:xlink="http://www.w3.org/1999/xlink">
<g id="graph0" class="graph" transform="scale(1 1) rotate(0) translate(4 371)">
<title>OMSimMDOMFlasher.cc</title>
<polygon fill="white" stroke="transparent" points="-4,4 -4,-371 1005.5,-371 1005.5,4 -4,4"/>
<!-- Node1 -->
<g id="node1" class="node">
<title>Node1</title>
<g id="a_node1"><a xlink:title=" ">
<polygon fill="#bfbfbf" stroke="black" points="597.5,-347.5 597.5,-366.5 731.5,-366.5 731.5,-347.5 597.5,-347.5"/>
<text text-anchor="middle" x="664.5" y="-354.5" font-family="Helvetica,sans-Serif" font-size="10.00">OMSimMDOMFlasher.cc</text>
</a>
</g>
</g>
<!-- Node2 -->
<g id="node2" class="node">
<title>Node2</title>
<g id="a_node2"><a xlink:href="_o_m_sim_m_d_o_m_8hh.html" target="_top" xlink:title=" ">
<polygon fill="white" stroke="black" points="407.5,-291.5 407.5,-310.5 507.5,-310.5 507.5,-291.5 407.5,-291.5"/>
<text text-anchor="middle" x="457.5" y="-298.5" font-family="Helvetica,sans-Serif" font-size="10.00">OMSimMDOM.hh</text>
</a>
</g>
</g>
<!-- Node1&#45;&gt;Node2 -->
<g id="edge1" class="edge">
<title>Node1&#45;&gt;Node2</title>
<path fill="none" stroke="midnightblue" d="M631.7,-347.44C596.12,-338.16 539.19,-323.31 500.15,-313.13"/>
<polygon fill="midnightblue" stroke="midnightblue" points="500.71,-309.65 490.15,-310.52 498.94,-316.43 500.71,-309.65"/>
</g>
<!-- Node18 -->
<g id="node18" class="node">
<title>Node18</title>
<g id="a_node18"><a xlink:href="_o_m_sim_u_iinterface_8hh.html" target="_top" xlink:title="The OMSimUIinterface class provides a singleton interface to Geant4&#39;s UI manager.">
<polygon fill="white" stroke="black" points="548,-291.5 548,-310.5 669,-310.5 669,-291.5 548,-291.5"/>
<text text-anchor="middle" x="608.5" y="-298.5" font-family="Helvetica,sans-Serif" font-size="10.00">OMSimUIinterface.hh</text>
</a>
</g>
</g>
<!-- Node1&#45;&gt;Node18 -->
<g id="edge21" class="edge">
<title>Node1&#45;&gt;Node18</title>
<path fill="none" stroke="midnightblue" d="M655.5,-347.32C647.31,-339.42 634.99,-327.55 625.03,-317.94"/>
<polygon fill="midnightblue" stroke="midnightblue" points="627.29,-315.26 617.66,-310.83 622.43,-320.29 627.29,-315.26"/>
</g>
<!-- Node27 -->
<g id="node27" class="node">
<title>Node27</title>
<g id="a_node27"><a xlink:title=" ">
<polygon fill="white" stroke="#bfbfbf" points="687,-291.5 687,-310.5 756,-310.5 756,-291.5 687,-291.5"/>
<text text-anchor="middle" x="721.5" y="-298.5" font-family="Helvetica,sans-Serif" font-size="10.00">G4Cons.hh</text>
</a>
</g>
</g>
<!-- Node1&#45;&gt;Node27 -->
<g id="edge30" class="edge">
<title>Node1&#45;&gt;Node27</title>
<path fill="none" stroke="midnightblue" d="M673.66,-347.32C682,-339.42 694.53,-327.55 704.68,-317.94"/>
<polygon fill="midnightblue" stroke="midnightblue" points="707.32,-320.25 712.18,-310.83 702.51,-315.17 707.32,-320.25"/>
</g>
<!-- Node28 -->
<g id="node28" class="node">
<title>Node28</title>
<g id="a_node28"><a xlink:title=" ">
<polygon fill="white" stroke="#bfbfbf" points="774.5,-291.5 774.5,-310.5 860.5,-310.5 860.5,-291.5 774.5,-291.5"/>
<text text-anchor="middle" x="817.5" y="-298.5" font-family="Helvetica,sans-Serif" font-size="10.00">G4Ellipsoid.hh</text>
</a>
</g>
</g>
<!-- Node1&#45;&gt;Node28 -->
<g id="edge31" class="edge">
<title>Node1&#45;&gt;Node28</title>
<path fill="none" stroke="midnightblue" d="M688.74,-347.44C714.37,-338.4 754.99,-324.06 783.74,-313.92"/>
<polygon fill="midnightblue" stroke="midnightblue" points="785.11,-317.15 793.37,-310.52 782.78,-310.54 785.11,-317.15"/>
</g>
<!-- Node3 -->
<g id="node3" class="node">
<title>Node3</title>
<g id="a_node3"><a xlink:href="_o_m_sim_m_d_o_m_flasher_8hh.html" target="_top" xlink:title=" ">
<polygon fill="white" stroke="black" points="267,-179.5 267,-198.5 402,-198.5 402,-179.5 267,-179.5"/>
<text text-anchor="middle" x="334.5" y="-186.5" font-family="Helvetica,sans-Serif" font-size="10.00">OMSimMDOMFlasher.hh</text>
</a>
</g>
</g>
<!-- Node2&#45;&gt;Node3 -->
<g id="edge2" class="edge">
<title>Node2&#45;&gt;Node3</title>
<path fill="none" stroke="midnightblue" d="M420.4,-291.43C399.09,-284.76 373.31,-273.45 356.5,-255 344.85,-242.22 339.34,-223.02 336.75,-208.81"/>
<polygon fill="midnightblue" stroke="midnightblue" points="340.18,-208.06 335.24,-198.69 333.25,-209.09 340.18,-208.06"/>
</g>
<!-- Node15 -->
<g id="node15" class="node">
<title>Node15</title>
<g id="a_node15"><a xlink:href="_o_m_sim_p_m_t_construction_8hh.html" target="_top" xlink:title="Construction of the PMTs.">
<polygon fill="white" stroke="black" points="458,-179.5 458,-198.5 607,-198.5 607,-179.5 458,-179.5"/>
<text text-anchor="middle" x="532.5" y="-186.5" font-family="Helvetica,sans-Serif" font-size="10.00">OMSimPMTConstruction.hh</text>
</a>
</g>
</g>
<!-- Node2&#45;&gt;Node15 -->
<g id="edge14" class="edge">
<title>Node2&#45;&gt;Node15</title>
<path fill="none" stroke="midnightblue" d="M471.85,-291.36C484.02,-283.35 501.11,-270.37 511.5,-255 520.94,-241.03 526.37,-222.53 529.34,-208.83"/>
<polygon fill="midnightblue" stroke="midnightblue" points="532.84,-209.15 531.28,-198.67 525.96,-207.84 532.84,-209.15"/>
</g>
<!-- Node17 -->
<g id="node17" class="node">
<title>Node17</title>
<g id="a_node17"><a xlink:href="_o_m_sim_optical_module_8hh.html" target="_top" xlink:title=" ">
<polygon fill="white" stroke="black" points="366,-235.5 366,-254.5 503,-254.5 503,-235.5 366,-235.5"/>
<text text-anchor="middle" x="434.5" y="-242.5" font-family="Helvetica,sans-Serif" font-size="10.00">OMSimOpticalModule.hh</text>
</a>
</g>
</g>
<!-- Node2&#45;&gt;Node17 -->
<g id="edge18" class="edge">
<title>Node2&#45;&gt;Node17</title>
<path fill="none" stroke="midnightblue" d="M453.7,-291.08C450.59,-283.77 446.08,-273.18 442.21,-264.1"/>
<polygon fill="midnightblue" stroke="midnightblue" points="445.37,-262.58 438.23,-254.75 438.93,-265.32 445.37,-262.58"/>
</g>
<!-- Node4 -->
<g id="node4" class="node">
<title>Node4</title>
<g id="a_node4"><a xlink:href="abc_detector_component_8hh.html" target="_top" xlink:title="Provides helper base class abcDetectorComponent for constructing and managing detector components in ...">
<polygon fill="white" stroke="black" points="402,-123.5 402,-142.5 549,-142.5 549,-123.5 402,-123.5"/>
<text text-anchor="middle" x="475.5" y="-130.5" font-family="Helvetica,sans-Serif" font-size="10.00">abcDetectorComponent.hh</text>
</a>
</g>
</g>
<!-- Node3&#45;&gt;Node4 -->
<g id="edge3" class="edge">
<title>Node3&#45;&gt;Node4</title>
<path fill="none" stroke="midnightblue" d="M356.84,-179.44C380.25,-170.48 417.24,-156.31 443.69,-146.18"/>
<polygon fill="midnightblue" stroke="midnightblue" points="445.18,-149.36 453.26,-142.52 442.67,-142.82 445.18,-149.36"/>
</g>
<!-- Node13 -->
<g id="node13" class="node">
<title>Node13</title>
<g id="a_node13"><a xlink:title=" ">
<polygon fill="white" stroke="#bfbfbf" points="285.5,-123.5 285.5,-142.5 383.5,-142.5 383.5,-123.5 285.5,-123.5"/>
<text text-anchor="middle" x="334.5" y="-130.5" font-family="Helvetica,sans-Serif" font-size="10.00">G4UnionSolid.hh</text>
</a>
</g>
</g>
<!-- Node3&#45;&gt;Node13 -->
<g id="edge12" class="edge">
<title>Node3&#45;&gt;Node13</title>
<path fill="none" stroke="midnightblue" d="M334.5,-179.08C334.5,-172.01 334.5,-161.86 334.5,-152.99"/>
<polygon fill="midnightblue" stroke="midnightblue" points="338,-152.75 334.5,-142.75 331,-152.75 338,-152.75"/>
</g>
<!-- Node14 -->
<g id="node14" class="node">
<title>Node14</title>
<g id="a_node14"><a xlink:title=" ">
<polygon fill="white" stroke="#bfbfbf" points="175.5,-123.5 175.5,-142.5 267.5,-142.5 267.5,-123.5 175.5,-123.5"/>
<text text-anchor="middle" x="221.5" y="-130.5" font-family="Helvetica,sans-Serif" font-size="10.00">G4Navigator.hh</text>
</a>
</g>
</g>
<!-- Node3&#45;&gt;Node14 -->
<g id="edge13" class="edge">
<title>Node3&#45;&gt;Node14</title>
<path fill="none" stroke="midnightblue" d="M316.59,-179.44C298.25,-170.68 269.49,-156.94 248.41,-146.86"/>
<polygon fill="midnightblue" stroke="midnightblue" points="249.85,-143.67 239.32,-142.52 246.83,-149.99 249.85,-143.67"/>
</g>
<!-- Node5 -->
<g id="node5" class="node">
<title>Node5</title>
<g id="a_node5"><a xlink:href="_o_m_sim_input_data_8hh.html" target="_top" xlink:title="Input data from external files are read and saved to memory.">
<polygon fill="white" stroke="black" points="163,-67.5 163,-86.5 278,-86.5 278,-67.5 163,-67.5"/>
<text text-anchor="middle" x="220.5" y="-74.5" font-family="Helvetica,sans-Serif" font-size="10.00">OMSimInputData.hh</text>
</a>
</g>
</g>
<!-- Node4&#45;&gt;Node5 -->
<g id="edge4" class="edge">
<title>Node4&#45;&gt;Node5</title>
<path fill="none" stroke="midnightblue" d="M435.09,-123.44C390.52,-114 318.73,-98.8 270.61,-88.61"/>
<polygon fill="midnightblue" stroke="midnightblue" points="271.22,-85.16 260.72,-86.52 269.77,-92.01 271.22,-85.16"/>
</g>
<!-- Node9 -->
<g id="node9" class="node">
<title>Node9</title>
<g id="a_node9"><a xlink:title=" ">
<polygon fill="white" stroke="#bfbfbf" points="296,-67.5 296,-86.5 403,-86.5 403,-67.5 296,-67.5"/>
<text text-anchor="middle" x="349.5" y="-74.5" font-family="Helvetica,sans-Serif" font-size="10.00">G4Transform3D.hh</text>
</a>
</g>
</g>
<!-- Node4&#45;&gt;Node9 -->
<g id="edge8" class="edge">
<title>Node4&#45;&gt;Node9</title>
<path fill="none" stroke="midnightblue" d="M455.53,-123.44C434.89,-114.6 402.44,-100.69 378.87,-90.59"/>
<polygon fill="midnightblue" stroke="midnightblue" points="379.94,-87.24 369.37,-86.52 377.18,-93.67 379.94,-87.24"/>
</g>
<!-- Node10 -->
<g id="node10" class="node">
<title>Node10</title>
<g id="a_node10"><a xlink:title=" ">
<polygon fill="white" stroke="#bfbfbf" points="421.5,-67.5 421.5,-86.5 529.5,-86.5 529.5,-67.5 421.5,-67.5"/>
<text text-anchor="middle" x="475.5" y="-74.5" font-family="Helvetica,sans-Serif" font-size="10.00">G4VisAttributes.hh</text>
</a>
</g>
</g>
<!-- Node4&#45;&gt;Node10 -->
<g id="edge9" class="edge">
<title>Node4&#45;&gt;Node10</title>
<path fill="none" stroke="midnightblue" d="M475.5,-123.08C475.5,-116.01 475.5,-105.86 475.5,-96.99"/>
<polygon fill="midnightblue" stroke="midnightblue" points="479,-96.75 475.5,-86.75 472,-96.75 479,-96.75"/>
</g>
<!-- Node11 -->
<g id="node11" class="node">
<title>Node11</title>
<g id="a_node11"><a xlink:title=" ">
<polygon fill="white" stroke="#bfbfbf" points="548,-67.5 548,-86.5 673,-86.5 673,-67.5 548,-67.5"/>
<text text-anchor="middle" x="610.5" y="-74.5" font-family="Helvetica,sans-Serif" font-size="10.00">G4SubtractionSolid.hh</text>
</a>
</g>
</g>
<!-- Node4&#45;&gt;Node11 -->
<g id="edge10" class="edge">
<title>Node4&#45;&gt;Node11</title>
<path fill="none" stroke="midnightblue" d="M496.89,-123.44C519.21,-114.52 554.4,-100.44 579.71,-90.32"/>
<polygon fill="midnightblue" stroke="midnightblue" points="581.22,-93.48 589.21,-86.52 578.62,-86.98 581.22,-93.48"/>
</g>
<!-- Node12 -->
<g id="node12" class="node">
<title>Node12</title>
<g id="a_node12"><a xlink:title=" ">
<polygon fill="white" stroke="#bfbfbf" points="691.5,-67.5 691.5,-86.5 801.5,-86.5 801.5,-67.5 691.5,-67.5"/>
<text text-anchor="middle" x="746.5" y="-74.5" font-family="Helvetica,sans-Serif" font-size="10.00">G4PVPlacement.hh</text>
</a>
</g>
</g>
<!-- Node4&#45;&gt;Node12 -->
<g id="edge11" class="edge">
<title>Node4&#45;&gt;Node12</title>
<path fill="none" stroke="midnightblue" d="M518.44,-123.44C566.01,-113.96 642.74,-98.67 693.89,-88.48"/>
<polygon fill="midnightblue" stroke="midnightblue" points="694.64,-91.9 703.76,-86.52 693.27,-85.04 694.64,-91.9"/>
</g>
<!-- Node6 -->
<g id="node6" class="node">
<title>Node6</title>
<g id="a_node6"><a xlink:title=" ">
<polygon fill="white" stroke="#bfbfbf" points="0,-6 0,-25 143,-25 143,-6 0,-6"/>
<text text-anchor="middle" x="71.5" y="-13" font-family="Helvetica,sans-Serif" font-size="10.00">G4OpBoundaryProcess.hh</text>
</a>
</g>
</g>
<!-- Node5&#45;&gt;Node6 -->
<g id="edge5" class="edge">
<title>Node5&#45;&gt;Node6</title>
<path fill="none" stroke="midnightblue" d="M199.15,-67.48C173.81,-57.36 131.36,-40.4 102.43,-28.85"/>
<polygon fill="midnightblue" stroke="midnightblue" points="103.39,-25.47 92.81,-25.01 100.8,-31.97 103.39,-25.47"/>
</g>
<!-- Node7 -->
<g id="node7" class="node">
<title>Node7</title>
<g id="a_node7"><a xlink:title=" ">
<polygon fill="white" stroke="#bfbfbf" points="161,-6 161,-25 280,-25 280,-6 161,-6"/>
<text text-anchor="middle" x="220.5" y="-13" font-family="Helvetica,sans-Serif" font-size="10.00">G4SystemOfUnits.hh</text>
</a>
</g>
</g>
<!-- Node5&#45;&gt;Node7 -->
<g id="edge6" class="edge">
<title>Node5&#45;&gt;Node7</title>
<path fill="none" stroke="midnightblue" d="M220.5,-67.48C220.5,-59.08 220.5,-45.98 220.5,-35.16"/>
<polygon fill="midnightblue" stroke="midnightblue" points="224,-35.01 220.5,-25.01 217,-35.01 224,-35.01"/>
</g>
<!-- Node8 -->
<g id="node8" class="node">
<title>Node8</title>
<g id="a_node8"><a xlink:title=" ">
<polygon fill="white" stroke="#bfbfbf" points="298,-0.5 298,-30.5 411,-30.5 411,-0.5 298,-0.5"/>
<text text-anchor="start" x="306" y="-18.5" font-family="Helvetica,sans-Serif" font-size="10.00">boost/property_tree</text>
<text text-anchor="middle" x="354.5" y="-7.5" font-family="Helvetica,sans-Serif" font-size="10.00">/json_parser.hpp</text>
</a>
</g>
</g>
<!-- Node5&#45;&gt;Node8 -->
<g id="edge7" class="edge">
<title>Node5&#45;&gt;Node8</title>
<path fill="none" stroke="midnightblue" d="M239.7,-67.48C258.87,-58.96 288.92,-45.62 313.47,-34.72"/>
<polygon fill="midnightblue" stroke="midnightblue" points="315.2,-37.78 322.92,-30.52 312.36,-31.38 315.2,-37.78"/>
</g>
<!-- Node15&#45;&gt;Node4 -->
<g id="edge15" class="edge">
<title>Node15&#45;&gt;Node4</title>
<path fill="none" stroke="midnightblue" d="M523.34,-179.32C515,-171.42 502.47,-159.55 492.32,-149.94"/>
<polygon fill="midnightblue" stroke="midnightblue" points="494.49,-147.17 484.82,-142.83 489.68,-152.25 494.49,-147.17"/>
</g>
<!-- Node15&#45;&gt;Node13 -->
<g id="edge16" class="edge">
<title>Node15&#45;&gt;Node13</title>
<path fill="none" stroke="midnightblue" d="M501.13,-179.44C467.24,-170.2 413.1,-155.44 375.78,-145.26"/>
<polygon fill="midnightblue" stroke="midnightblue" points="376.3,-141.77 365.73,-142.52 374.45,-148.52 376.3,-141.77"/>
</g>
<!-- Node16 -->
<g id="node16" class="node">
<title>Node16</title>
<g id="a_node16"><a xlink:title=" ">
<polygon fill="white" stroke="#bfbfbf" points="567,-123.5 567,-142.5 634,-142.5 634,-123.5 567,-123.5"/>
<text text-anchor="middle" x="600.5" y="-130.5" font-family="Helvetica,sans-Serif" font-size="10.00">G4Tubs.hh</text>
</a>
</g>
</g>
<!-- Node15&#45;&gt;Node16 -->
<g id="edge17" class="edge">
<title>Node15&#45;&gt;Node16</title>
<path fill="none" stroke="midnightblue" d="M543.43,-179.32C553.67,-171.18 569.22,-158.84 581.5,-149.09"/>
<polygon fill="midnightblue" stroke="midnightblue" points="583.72,-151.79 589.38,-142.83 579.37,-146.31 583.72,-151.79"/>
</g>
<!-- Node17&#45;&gt;Node4 -->
<g id="edge19" class="edge">
<title>Node17&#45;&gt;Node4</title>
<path fill="none" stroke="midnightblue" d="M435.45,-235.32C437.05,-222.61 440.86,-198.32 448.5,-179 452.35,-169.26 458.19,-159.18 463.45,-151.05"/>
<polygon fill="midnightblue" stroke="midnightblue" points="466.52,-152.76 469.22,-142.52 460.72,-148.85 466.52,-152.76"/>
</g>
<!-- Node17&#45;&gt;Node15 -->
<g id="edge20" class="edge">
<title>Node17&#45;&gt;Node15</title>
<path fill="none" stroke="midnightblue" d="M450.25,-235.32C465.82,-226.74 489.88,-213.49 507.96,-203.52"/>
<polygon fill="midnightblue" stroke="midnightblue" points="509.72,-206.55 516.79,-198.65 506.35,-200.42 509.72,-206.55"/>
</g>
<!-- Node19 -->
<g id="node19" class="node">
<title>Node19</title>
<g id="a_node19"><a xlink:href="_o_m_sim_command_args_table_8hh.html" target="_top" xlink:title="Definition of the OMSimCommandArgsTable singleton class, which controls user args.">
<polygon fill="white" stroke="black" points="675.5,-235.5 675.5,-254.5 839.5,-254.5 839.5,-235.5 675.5,-235.5"/>
<text text-anchor="middle" x="757.5" y="-242.5" font-family="Helvetica,sans-Serif" font-size="10.00">OMSimCommandArgsTable.hh</text>
</a>
</g>
</g>
<!-- Node18&#45;&gt;Node19 -->
<g id="edge22" class="edge">
<title>Node18&#45;&gt;Node19</title>
<path fill="none" stroke="midnightblue" d="M632.11,-291.44C656.96,-282.44 696.27,-268.19 724.25,-258.05"/>
<polygon fill="midnightblue" stroke="midnightblue" points="725.79,-261.21 734,-254.52 723.41,-254.63 725.79,-261.21"/>
</g>
<!-- Node26 -->
<g id="node26" class="node">
<title>Node26</title>
<g id="a_node26"><a xlink:title=" ">
<polygon fill="white" stroke="#bfbfbf" points="559.5,-235.5 559.5,-254.5 657.5,-254.5 657.5,-235.5 559.5,-235.5"/>
<text text-anchor="middle" x="608.5" y="-242.5" font-family="Helvetica,sans-Serif" font-size="10.00">G4UImanager.hh</text>
</a>
</g>
</g>
<!-- Node18&#45;&gt;Node26 -->
<g id="edge29" class="edge">
<title>Node18&#45;&gt;Node26</title>
<path fill="none" stroke="midnightblue" d="M608.5,-291.08C608.5,-284.01 608.5,-273.86 608.5,-264.99"/>
<polygon fill="midnightblue" stroke="midnightblue" points="612,-264.75 608.5,-254.75 605,-264.75 612,-264.75"/>
</g>
<!-- Node20 -->
<g id="node20" class="node">
<title>Node20</title>
<g id="a_node20"><a xlink:href="_o_m_sim_logger_8hh.html" target="_top" xlink:title=" ">
<polygon fill="white" stroke="black" points="895,-179.5 895,-198.5 994,-198.5 994,-179.5 895,-179.5"/>
<text text-anchor="middle" x="944.5" y="-186.5" font-family="Helvetica,sans-Serif" font-size="10.00">OMSimLogger.hh</text>
</a>
</g>
</g>
<!-- Node19&#45;&gt;Node20 -->
<g id="edge23" class="edge">
<title>Node19&#45;&gt;Node20</title>
<path fill="none" stroke="midnightblue" d="M787.13,-235.44C819,-226.24 869.83,-211.56 905.06,-201.39"/>
<polygon fill="midnightblue" stroke="midnightblue" points="906.37,-204.65 915.01,-198.52 904.43,-197.93 906.37,-204.65"/>
</g>
<!-- Node23 -->
<g id="node23" class="node">
<title>Node23</title>
<g id="a_node23"><a xlink:title=" ">
<polygon fill="white" stroke="#bfbfbf" points="633,-179.5 633,-198.5 688,-198.5 688,-179.5 633,-179.5"/>
<text text-anchor="middle" x="660.5" y="-186.5" font-family="Helvetica,sans-Serif" font-size="10.00">fstream</text>
</a>
</g>
</g>
<!-- Node19&#45;&gt;Node23 -->
<g id="edge26" class="edge">
<title>Node19&#45;&gt;Node23</title>
<path fill="none" stroke="midnightblue" d="M741.92,-235.32C726.5,-226.74 702.69,-213.49 684.79,-203.52"/>
<polygon fill="midnightblue" stroke="midnightblue" points="686.49,-200.46 676.05,-198.65 683.08,-206.58 686.49,-200.46"/>
</g>
<!-- Node24 -->
<g id="node24" class="node">
<title>Node24</title>
<g id="a_node24"><a xlink:title=" ">
<polygon fill="white" stroke="#bfbfbf" points="706.5,-179.5 706.5,-198.5 790.5,-198.5 790.5,-179.5 706.5,-179.5"/>
<text text-anchor="middle" x="748.5" y="-186.5" font-family="Helvetica,sans-Serif" font-size="10.00">boost/any.hpp</text>
</a>
</g>
</g>
<!-- Node19&#45;&gt;Node24 -->
<g id="edge27" class="edge">
<title>Node19&#45;&gt;Node24</title>
<path fill="none" stroke="midnightblue" d="M756.01,-235.08C754.82,-227.93 753.11,-217.64 751.62,-208.69"/>
<polygon fill="midnightblue" stroke="midnightblue" points="755.05,-208.04 749.96,-198.75 748.15,-209.19 755.05,-208.04"/>
</g>
<!-- Node25 -->
<g id="node25" class="node">
<title>Node25</title>
<g id="a_node25"><a xlink:title=" ">
<polygon fill="white" stroke="#bfbfbf" points="808.5,-179.5 808.5,-198.5 876.5,-198.5 876.5,-179.5 808.5,-179.5"/>
<text text-anchor="middle" x="842.5" y="-186.5" font-family="Helvetica,sans-Serif" font-size="10.00">sys/time.h</text>
</a>
</g>
</g>
<!-- Node19&#45;&gt;Node25 -->
<g id="edge28" class="edge">
<title>Node19&#45;&gt;Node25</title>
<path fill="none" stroke="midnightblue" d="M771.16,-235.32C784.42,-226.9 804.77,-213.97 820.35,-204.07"/>
<polygon fill="midnightblue" stroke="midnightblue" points="822.31,-206.97 828.88,-198.65 818.56,-201.06 822.31,-206.97"/>
</g>
<!-- Node21 -->
<g id="node21" class="node">
<title>Node21</title>
<g id="a_node21"><a xlink:title=" ">
<polygon fill="white" stroke="#bfbfbf" points="885.5,-123.5 885.5,-142.5 935.5,-142.5 935.5,-123.5 885.5,-123.5"/>
<text text-anchor="middle" x="910.5" y="-130.5" font-family="Helvetica,sans-Serif" font-size="10.00">stdio.h</text>
</a>
</g>
</g>
<!-- Node20&#45;&gt;Node21 -->
<g id="edge24" class="edge">
<title>Node20&#45;&gt;Node21</title>
<path fill="none" stroke="midnightblue" d="M938.89,-179.08C934.13,-171.53 927.18,-160.49 921.35,-151.23"/>
<polygon fill="midnightblue" stroke="midnightblue" points="924.3,-149.35 916.01,-142.75 918.38,-153.08 924.3,-149.35"/>
</g>
<!-- Node22 -->
<g id="node22" class="node">
<title>Node22</title>
<g id="a_node22"><a xlink:title=" ">
<polygon fill="white" stroke="#bfbfbf" points="953.5,-123.5 953.5,-142.5 1001.5,-142.5 1001.5,-123.5 953.5,-123.5"/>
<text text-anchor="middle" x="977.5" y="-130.5" font-family="Helvetica,sans-Serif" font-size="10.00">time.h</text>
</a>
</g>
</g>
<!-- Node20&#45;&gt;Node22 -->
<g id="edge25" class="edge">
<title>Node20&#45;&gt;Node22</title>
<path fill="none" stroke="midnightblue" d="M949.95,-179.08C954.51,-171.61 961.17,-160.72 966.79,-151.52"/>
<polygon fill="midnightblue" stroke="midnightblue" points="969.92,-153.11 972.15,-142.75 963.95,-149.46 969.92,-153.11"/>
</g>
</g>
</svg>
