<?xml version="1.0" encoding="UTF-8" standalone="no"?>
<!DOCTYPE svg PUBLIC "-//W3C//DTD SVG 1.1//EN"
 "http://www.w3.org/Graphics/SVG/1.1/DTD/svg11.dtd">
<!-- Generated by graphviz version 2.43.0 (0)
 -->
<!-- Title: OMSimCommandArgsTable.hh Pages: 1 -->
<svg width="2983pt" height="196pt"
 viewBox="0.00 0.00 2983.00 196.00" xmlns="http://www.w3.org/2000/svg" xmlns:xlink="http://www.w3.org/1999/xlink">
<g id="graph0" class="graph" transform="scale(1 1) rotate(0) translate(4 192)">
<title>OMSimCommandArgsTable.hh</title>
<polygon fill="white" stroke="transparent" points="-4,4 -4,-192 2979,-192 2979,4 -4,4"/>
<!-- Node1 -->
<g id="node1" class="node">
<title>Node1</title>
<g id="a_node1"><a xlink:title="Definition of the OMSimCommandArgsTable singleton class, which controls user args.">
<polygon fill="#bfbfbf" stroke="black" points="1393,-168.5 1393,-187.5 1557,-187.5 1557,-168.5 1393,-168.5"/>
<text text-anchor="middle" x="1475" y="-175.5" font-family="Helvetica,sans-Serif" font-size="10.00">OMSimCommandArgsTable.hh</text>
</a>
</g>
</g>
<!-- Node2 -->
<g id="node2" class="node">
<title>Node2</title>
<g id="a_node2"><a xlink:href="_o_m_sim_data_file_types_8hh.html" target="_top" xlink:title="Collection of classes and methods to handle material creation from user data in json files.">
<polygon fill="white" stroke="black" points="141.5,-112.5 141.5,-131.5 276.5,-131.5 276.5,-112.5 141.5,-112.5"/>
<text text-anchor="middle" x="209" y="-119.5" font-family="Helvetica,sans-Serif" font-size="10.00">OMSimDataFileTypes.hh</text>
</a>
</g>
</g>
<!-- Node1&#45;&gt;Node2 -->
<g id="edge1" class="edge">
<title>Node1&#45;&gt;Node2</title>
<path fill="none" stroke="midnightblue" d="M1382.78,-174.95C1185.95,-170.24 710.16,-157.08 312,-132 300.53,-131.28 288.36,-130.35 276.56,-129.37"/>
<polygon fill="midnightblue" stroke="midnightblue" points="1382.72,-178.45 1392.8,-175.19 1382.88,-171.45 1382.72,-178.45"/>
</g>
<!-- Node4 -->
<g id="node4" class="node">
<title>Node4</title>
<g id="a_node4"><a xlink:href="_o_m_sim_input_data_8cc.html" target="_top" xlink:title=" ">
<polygon fill="white" stroke="black" points="152.5,-56.5 152.5,-75.5 265.5,-75.5 265.5,-56.5 152.5,-56.5"/>
<text text-anchor="middle" x="209" y="-63.5" font-family="Helvetica,sans-Serif" font-size="10.00">OMSimInputData.cc</text>
</a>
</g>
</g>
<!-- Node1&#45;&gt;Node4 -->
<g id="edge14" class="edge">
<title>Node1&#45;&gt;Node4</title>
<path fill="none" stroke="midnightblue" d="M1382.83,-177.72C1151.35,-178.83 550.19,-177.11 356,-132 304.63,-120.07 248.99,-90.32 223.38,-75.57"/>
<polygon fill="midnightblue" stroke="midnightblue" points="1382.93,-181.22 1392.91,-177.67 1382.89,-174.22 1382.93,-181.22"/>
</g>
<!-- Node5 -->
<g id="node5" class="node">
<title>Node5</title>
<g id="a_node5"><a xlink:href="_o_m_sim_u_iinterface_8hh.html" target="_top" xlink:title="The OMSimUIinterface class provides a singleton interface to Geant4&#39;s UI manager.">
<polygon fill="white" stroke="black" points="364.5,-112.5 364.5,-131.5 485.5,-131.5 485.5,-112.5 364.5,-112.5"/>
<text text-anchor="middle" x="425" y="-119.5" font-family="Helvetica,sans-Serif" font-size="10.00">OMSimUIinterface.hh</text>
</a>
</g>
</g>
<!-- Node1&#45;&gt;Node5 -->
<g id="edge4" class="edge">
<title>Node1&#45;&gt;Node5</title>
<path fill="none" stroke="midnightblue" d="M1382.76,-175.28C1208.84,-171.49 820.65,-160.36 495,-132 491.95,-131.73 488.83,-131.43 485.67,-131.11"/>
<polygon fill="midnightblue" stroke="midnightblue" points="1382.82,-178.79 1392.9,-175.5 1382.97,-171.79 1382.82,-178.79"/>
</g>
<!-- Node14 -->
<g id="node14" class="node">
<title>Node14</title>
<g id="a_node14"><a xlink:href="_o_m_sim_hit_manager_8cc.html" target="_top" xlink:title=" ">
<polygon fill="white" stroke="black" points="504,-112.5 504,-131.5 626,-131.5 626,-112.5 504,-112.5"/>
<text text-anchor="middle" x="565" y="-119.5" font-family="Helvetica,sans-Serif" font-size="10.00">OMSimHitManager.cc</text>
</a>
</g>
</g>
<!-- Node1&#45;&gt;Node14 -->
<g id="edge13" class="edge">
<title>Node1&#45;&gt;Node14</title>
<path fill="none" stroke="midnightblue" d="M1382.58,-174.23C1227.86,-169.11 906.72,-156.39 636,-132 632.78,-131.71 629.49,-131.39 626.16,-131.04"/>
<polygon fill="midnightblue" stroke="midnightblue" points="1382.87,-177.75 1392.98,-174.58 1383.1,-170.75 1382.87,-177.75"/>
</g>
<!-- Node15 -->
<g id="node15" class="node">
<title>Node15</title>
<g id="a_node15"><a xlink:href="_o_m_sim_p_m_t_construction_8cc.html" target="_top" xlink:title=" ">
<polygon fill="white" stroke="black" points="644.5,-112.5 644.5,-131.5 791.5,-131.5 791.5,-112.5 644.5,-112.5"/>
<text text-anchor="middle" x="718" y="-119.5" font-family="Helvetica,sans-Serif" font-size="10.00">OMSimPMTConstruction.cc</text>
</a>
</g>
</g>
<!-- Node1&#45;&gt;Node15 -->
<g id="edge15" class="edge">
<title>Node1&#45;&gt;Node15</title>
<path fill="none" stroke="midnightblue" d="M1382.65,-172.05C1252.72,-164.8 1008.59,-150.18 801,-132 797.97,-131.73 794.87,-131.45 791.75,-131.16"/>
<polygon fill="midnightblue" stroke="midnightblue" points="1382.77,-175.56 1392.95,-172.62 1383.16,-168.57 1382.77,-175.56"/>
</g>
<!-- Node16 -->
<g id="node16" class="node">
<title>Node16</title>
<g id="a_node16"><a xlink:href="_o_m_sim_p_m_t_response_8cc.html" target="_top" xlink:title=" ">
<polygon fill="white" stroke="black" points="810,-112.5 810,-131.5 944,-131.5 944,-112.5 810,-112.5"/>
<text text-anchor="middle" x="877" y="-119.5" font-family="Helvetica,sans-Serif" font-size="10.00">OMSimPMTResponse.cc</text>
</a>
</g>
</g>
<!-- Node1&#45;&gt;Node16 -->
<g id="edge16" class="edge">
<title>Node1&#45;&gt;Node16</title>
<path fill="none" stroke="midnightblue" d="M1382.64,-169.87C1278.43,-161.63 1103.91,-147.23 954,-132 950.79,-131.67 947.5,-131.33 944.18,-130.97"/>
<polygon fill="midnightblue" stroke="midnightblue" points="1382.57,-173.37 1392.81,-170.67 1383.12,-166.4 1382.57,-173.37"/>
</g>
<!-- Node17 -->
<g id="node17" class="node">
<title>Node17</title>
<g id="a_node17"><a xlink:href="_o_m_sim_tracking_action_8cc.html" target="_top" xlink:title=" ">
<polygon fill="white" stroke="black" points="962.5,-112.5 962.5,-131.5 1099.5,-131.5 1099.5,-112.5 962.5,-112.5"/>
<text text-anchor="middle" x="1031" y="-119.5" font-family="Helvetica,sans-Serif" font-size="10.00">OMSimTrackingAction.cc</text>
</a>
</g>
</g>
<!-- Node1&#45;&gt;Node17 -->
<g id="edge17" class="edge">
<title>Node1&#45;&gt;Node17</title>
<path fill="none" stroke="midnightblue" d="M1394.6,-167.22C1310.28,-156.97 1179.16,-141.02 1099.57,-131.34"/>
<polygon fill="midnightblue" stroke="midnightblue" points="1394.3,-170.71 1404.65,-168.44 1395.14,-163.76 1394.3,-170.71"/>
</g>
<!-- Node18 -->
<g id="node18" class="node">
<title>Node18</title>
<g id="a_node18"><a xlink:href="_o_m_sim_m_d_o_m_8cc.html" target="_top" xlink:title=" ">
<polygon fill="white" stroke="black" points="1118,-112.5 1118,-131.5 1216,-131.5 1216,-112.5 1118,-112.5"/>
<text text-anchor="middle" x="1167" y="-119.5" font-family="Helvetica,sans-Serif" font-size="10.00">OMSimMDOM.cc</text>
</a>
</g>
</g>
<!-- Node1&#45;&gt;Node18 -->
<g id="edge18" class="edge">
<title>Node1&#45;&gt;Node18</title>
<path fill="none" stroke="midnightblue" d="M1416.05,-166.66C1357.84,-156.46 1269.89,-141.04 1215.58,-131.52"/>
<polygon fill="midnightblue" stroke="midnightblue" points="1415.74,-170.16 1426.2,-168.44 1416.95,-163.27 1415.74,-170.16"/>
</g>
<!-- Node19 -->
<g id="node19" class="node">
<title>Node19</title>
<g id="a_node19"><a xlink:href="_o_m_sim_m_d_o_m_harness_8cc.html" target="_top" xlink:title=" ">
<polygon fill="white" stroke="black" points="1234,-112.5 1234,-131.5 1372,-131.5 1372,-112.5 1234,-112.5"/>
<text text-anchor="middle" x="1303" y="-119.5" font-family="Helvetica,sans-Serif" font-size="10.00">OMSimMDOMHarness.cc</text>
</a>
</g>
</g>
<!-- Node1&#45;&gt;Node19 -->
<g id="edge19" class="edge">
<title>Node1&#45;&gt;Node19</title>
<path fill="none" stroke="midnightblue" d="M1438.17,-165.44C1405.74,-155.26 1359.26,-140.66 1330.13,-131.52"/>
<polygon fill="midnightblue" stroke="midnightblue" points="1437.16,-168.79 1447.75,-168.44 1439.25,-162.11 1437.16,-168.79"/>
</g>
<!-- Node20 -->
<g id="node20" class="node">
<title>Node20</title>
<g id="a_node20"><a xlink:href="effective__area_2src_2_o_m_sim_detector_construction_8cc.html" target="_top" xlink:title=" ">
<polygon fill="white" stroke="black" points="1390.5,-112.5 1390.5,-131.5 1559.5,-131.5 1559.5,-112.5 1390.5,-112.5"/>
<text text-anchor="middle" x="1475" y="-119.5" font-family="Helvetica,sans-Serif" font-size="10.00">OMSimDetectorConstruction.cc</text>
</a>
</g>
</g>
<!-- Node1&#45;&gt;Node20 -->
<g id="edge20" class="edge">
<title>Node1&#45;&gt;Node20</title>
<path fill="none" stroke="midnightblue" d="M1475,-157.8C1475,-148.91 1475,-138.78 1475,-131.75"/>
<polygon fill="midnightblue" stroke="midnightblue" points="1471.5,-158.08 1475,-168.08 1478.5,-158.08 1471.5,-158.08"/>
</g>
<!-- Node21 -->
<g id="node21" class="node">
<title>Node21</title>
<g id="a_node21"><a xlink:href="_o_m_sim_effective_area_analyisis_8cc.html" target="_top" xlink:title=" ">
<polygon fill="white" stroke="black" points="1577.5,-112.5 1577.5,-131.5 1752.5,-131.5 1752.5,-112.5 1577.5,-112.5"/>
<text text-anchor="middle" x="1665" y="-119.5" font-family="Helvetica,sans-Serif" font-size="10.00">OMSimEffectiveAreaAnalyisis.cc</text>
</a>
</g>
</g>
<!-- Node1&#45;&gt;Node21 -->
<g id="edge21" class="edge">
<title>Node1&#45;&gt;Node21</title>
<path fill="none" stroke="midnightblue" d="M1514.76,-165.7C1550.62,-155.51 1602.57,-140.74 1635.03,-131.52"/>
<polygon fill="midnightblue" stroke="midnightblue" points="1513.77,-162.34 1505.11,-168.44 1515.68,-169.08 1513.77,-162.34"/>
</g>
<!-- Node22 -->
<g id="node22" class="node">
<title>Node22</title>
<g id="a_node22"><a xlink:href="_o_m_sim_decays_analysis_8cc.html" target="_top" xlink:title=" ">
<polygon fill="white" stroke="black" points="1770.5,-112.5 1770.5,-131.5 1913.5,-131.5 1913.5,-112.5 1770.5,-112.5"/>
<text text-anchor="middle" x="1842" y="-119.5" font-family="Helvetica,sans-Serif" font-size="10.00">OMSimDecaysAnalysis.cc</text>
</a>
</g>
</g>
<!-- Node1&#45;&gt;Node22 -->
<g id="edge22" class="edge">
<title>Node1&#45;&gt;Node22</title>
<path fill="none" stroke="midnightblue" d="M1543.1,-166.98C1612.43,-156.78 1718.73,-141.14 1784.12,-131.52"/>
<polygon fill="midnightblue" stroke="midnightblue" points="1542.54,-163.53 1533.15,-168.44 1543.56,-170.45 1542.54,-163.53"/>
</g>
<!-- Node23 -->
<g id="node23" class="node">
<title>Node23</title>
<g id="a_node23"><a xlink:href="radioactive__decays_2src_2_o_m_sim_detector_construction_8cc.html" target="_top" xlink:title=" ">
<polygon fill="white" stroke="black" points="1931.5,-112.5 1931.5,-131.5 2100.5,-131.5 2100.5,-112.5 1931.5,-112.5"/>
<text text-anchor="middle" x="2016" y="-119.5" font-family="Helvetica,sans-Serif" font-size="10.00">OMSimDetectorConstruction.cc</text>
</a>
</g>
</g>
<!-- Node1&#45;&gt;Node23 -->
<g id="edge23" class="edge">
<title>Node1&#45;&gt;Node23</title>
<path fill="none" stroke="midnightblue" d="M1567.15,-167.8C1669.19,-157.62 1832.32,-141.33 1931.27,-131.46"/>
<polygon fill="midnightblue" stroke="midnightblue" points="1566.77,-164.32 1557.17,-168.8 1567.46,-171.29 1566.77,-164.32"/>
</g>
<!-- Node24 -->
<g id="node24" class="node">
<title>Node24</title>
<g id="a_node24"><a xlink:href="radioactive__decays_2src_2_o_m_sim_event_action_8cc.html" target="_top" xlink:title=" ">
<polygon fill="white" stroke="black" points="2118,-112.5 2118,-131.5 2242,-131.5 2242,-112.5 2118,-112.5"/>
<text text-anchor="middle" x="2180" y="-119.5" font-family="Helvetica,sans-Serif" font-size="10.00">OMSimEventAction.cc</text>
</a>
</g>
</g>
<!-- Node1&#45;&gt;Node24 -->
<g id="edge24" class="edge">
<title>Node1&#45;&gt;Node24</title>
<path fill="none" stroke="midnightblue" d="M1567.26,-172.12C1690.96,-165.2 1917.32,-151.2 2110,-132 2112.56,-131.74 2115.17,-131.47 2117.81,-131.18"/>
<polygon fill="midnightblue" stroke="midnightblue" points="1566.86,-168.64 1557.07,-172.69 1567.25,-175.62 1566.86,-168.64"/>
</g>
<!-- Node25 -->
<g id="node25" class="node">
<title>Node25</title>
<g id="a_node25"><a xlink:href="_o_m_sim_g4_radioactive_decay_8cc.html" target="_top" xlink:title=" ">
<polygon fill="white" stroke="black" points="2260,-112.5 2260,-131.5 2426,-131.5 2426,-112.5 2260,-112.5"/>
<text text-anchor="middle" x="2343" y="-119.5" font-family="Helvetica,sans-Serif" font-size="10.00">OMSimG4RadioactiveDecay.cc</text>
</a>
</g>
</g>
<!-- Node1&#45;&gt;Node25 -->
<g id="edge25" class="edge">
<title>Node1&#45;&gt;Node25</title>
<path fill="none" stroke="midnightblue" d="M1567.42,-172.83C1712.93,-165.99 2004.32,-151.21 2251,-132 2253.88,-131.78 2256.81,-131.54 2259.77,-131.29"/>
<polygon fill="midnightblue" stroke="midnightblue" points="1567.02,-169.34 1557.19,-173.3 1567.35,-176.33 1567.02,-169.34"/>
</g>
<!-- Node26 -->
<g id="node26" class="node">
<title>Node26</title>
<g id="a_node26"><a xlink:href="supernova_2src_2_o_m_sim_detector_construction_8cc.html" target="_top" xlink:title=" ">
<polygon fill="white" stroke="black" points="2444.5,-112.5 2444.5,-131.5 2613.5,-131.5 2613.5,-112.5 2444.5,-112.5"/>
<text text-anchor="middle" x="2529" y="-119.5" font-family="Helvetica,sans-Serif" font-size="10.00">OMSimDetectorConstruction.cc</text>
</a>
</g>
</g>
<!-- Node1&#45;&gt;Node26 -->
<g id="edge26" class="edge">
<title>Node1&#45;&gt;Node26</title>
<path fill="none" stroke="midnightblue" d="M1567.5,-174.16C1738.81,-168.57 2116.96,-154.67 2435,-132 2438.11,-131.78 2441.27,-131.54 2444.47,-131.29"/>
<polygon fill="midnightblue" stroke="midnightblue" points="1567.15,-170.67 1557.27,-174.49 1567.37,-177.67 1567.15,-170.67"/>
</g>
<!-- Node27 -->
<g id="node27" class="node">
<title>Node27</title>
<g id="a_node27"><a xlink:href="_o_m_sim_i_b_d_8cc.html" target="_top" xlink:title=" ">
<polygon fill="white" stroke="black" points="2631.5,-112.5 2631.5,-131.5 2714.5,-131.5 2714.5,-112.5 2631.5,-112.5"/>
<text text-anchor="middle" x="2673" y="-119.5" font-family="Helvetica,sans-Serif" font-size="10.00">OMSimIBD.cc</text>
</a>
</g>
</g>
<!-- Node1&#45;&gt;Node27 -->
<g id="edge27" class="edge">
<title>Node1&#45;&gt;Node27</title>
<path fill="none" stroke="midnightblue" d="M1567.29,-177.72C1762.66,-178.29 2232.19,-174.62 2623,-132 2625.72,-131.7 2628.51,-131.35 2631.32,-130.95"/>
<polygon fill="midnightblue" stroke="midnightblue" points="1567.08,-174.22 1557.07,-177.68 1567.05,-181.22 1567.08,-174.22"/>
</g>
<!-- Node28 -->
<g id="node28" class="node">
<title>Node28</title>
<g id="a_node28"><a xlink:href="_o_m_sim_s_n_analysis_8cc.html" target="_top" xlink:title="Analyze data and write output files.">
<polygon fill="white" stroke="black" points="2733,-112.5 2733,-131.5 2853,-131.5 2853,-112.5 2733,-112.5"/>
<text text-anchor="middle" x="2793" y="-119.5" font-family="Helvetica,sans-Serif" font-size="10.00">OMSimSNAnalysis.cc</text>
</a>
</g>
</g>
<!-- Node1&#45;&gt;Node28 -->
<g id="edge28" class="edge">
<title>Node1&#45;&gt;Node28</title>
<path fill="none" stroke="midnightblue" d="M1567.6,-176.63C1775.02,-175.14 2292.59,-167.83 2724,-132 2726.89,-131.76 2729.84,-131.49 2732.82,-131.19"/>
<polygon fill="midnightblue" stroke="midnightblue" points="1567.34,-173.13 1557.36,-176.7 1567.39,-180.13 1567.34,-173.13"/>
</g>
<!-- Node29 -->
<g id="node29" class="node">
<title>Node29</title>
<g id="a_node29"><a xlink:href="_o_m_sim_s_n_tools_8cc.html" target="_top" xlink:title=" ">
<polygon fill="white" stroke="black" points="2871,-112.5 2871,-131.5 2975,-131.5 2975,-112.5 2871,-112.5"/>
<text text-anchor="middle" x="2923" y="-119.5" font-family="Helvetica,sans-Serif" font-size="10.00">OMSimSNTools.cc</text>
</a>
</g>
</g>
<!-- Node1&#45;&gt;Node29 -->
<g id="edge29" class="edge">
<title>Node1&#45;&gt;Node29</title>
<path fill="none" stroke="midnightblue" d="M1567.29,-177.63C1790.26,-178.38 2375.75,-175.62 2862,-132 2864.88,-131.74 2867.83,-131.44 2870.8,-131.1"/>
<polygon fill="midnightblue" stroke="midnightblue" points="1567.29,-174.13 1557.27,-177.6 1567.26,-181.13 1567.29,-174.13"/>
</g>
<!-- Node3 -->
<g id="node3" class="node">
<title>Node3</title>
<g id="a_node3"><a xlink:href="_o_m_sim_data_file_types_8cc.html" target="_top" xlink:title=" ">
<polygon fill="white" stroke="black" points="0,-56.5 0,-75.5 134,-75.5 134,-56.5 0,-56.5"/>
<text text-anchor="middle" x="67" y="-63.5" font-family="Helvetica,sans-Serif" font-size="10.00">OMSimDataFileTypes.cc</text>
</a>
</g>
</g>
<!-- Node2&#45;&gt;Node3 -->
<g id="edge2" class="edge">
<title>Node2&#45;&gt;Node3</title>
<path fill="none" stroke="midnightblue" d="M176.84,-108.77C150.17,-98.63 112.93,-84.47 89.4,-75.52"/>
<polygon fill="midnightblue" stroke="midnightblue" points="175.91,-112.16 186.5,-112.44 178.4,-105.62 175.91,-112.16"/>
</g>
<!-- Node2&#45;&gt;Node4 -->
<g id="edge3" class="edge">
<title>Node2&#45;&gt;Node4</title>
<path fill="none" stroke="midnightblue" d="M209,-101.8C209,-92.91 209,-82.78 209,-75.75"/>
<polygon fill="midnightblue" stroke="midnightblue" points="205.5,-102.08 209,-112.08 212.5,-102.08 205.5,-102.08"/>
</g>
<!-- Node6 -->
<g id="node6" class="node">
<title>Node6</title>
<g id="a_node6"><a xlink:href="_o_m_sim_8hh.html" target="_top" xlink:title="Main simulation class for the Optical Module (OM) simulation. This file defines the OMSim class,...">
<polygon fill="white" stroke="black" points="283.5,-56.5 283.5,-75.5 350.5,-75.5 350.5,-56.5 283.5,-56.5"/>
<text text-anchor="middle" x="317" y="-63.5" font-family="Helvetica,sans-Serif" font-size="10.00">OMSim.hh</text>
</a>
</g>
</g>
<!-- Node5&#45;&gt;Node6 -->
<g id="edge5" class="edge">
<title>Node5&#45;&gt;Node6</title>
<path fill="none" stroke="midnightblue" d="M398.45,-107.73C378.45,-97.73 351.61,-84.31 334.31,-75.65"/>
<polygon fill="midnightblue" stroke="midnightblue" points="397.14,-110.98 407.65,-112.32 400.27,-104.72 397.14,-110.98"/>
</g>
<!-- Node11 -->
<g id="node11" class="node">
<title>Node11</title>
<g id="a_node11"><a xlink:href="_o_m_sim_m_d_o_m_flasher_8cc.html" target="_top" xlink:title=" ">
<polygon fill="white" stroke="black" points="369,-56.5 369,-75.5 503,-75.5 503,-56.5 369,-56.5"/>
<text text-anchor="middle" x="436" y="-63.5" font-family="Helvetica,sans-Serif" font-size="10.00">OMSimMDOMFlasher.cc</text>
</a>
</g>
</g>
<!-- Node5&#45;&gt;Node11 -->
<g id="edge10" class="edge">
<title>Node5&#45;&gt;Node11</title>
<path fill="none" stroke="midnightblue" d="M428.85,-102.1C430.68,-93.14 432.77,-82.86 434.22,-75.75"/>
<polygon fill="midnightblue" stroke="midnightblue" points="425.38,-101.59 426.82,-112.08 432.24,-102.98 425.38,-101.59"/>
</g>
<!-- Node12 -->
<g id="node12" class="node">
<title>Node12</title>
<g id="a_node12"><a xlink:href="_o_m_sim_angular_scan_8cc.html" target="_top" xlink:title=" ">
<polygon fill="white" stroke="black" points="521,-56.5 521,-75.5 647,-75.5 647,-56.5 521,-56.5"/>
<text text-anchor="middle" x="584" y="-63.5" font-family="Helvetica,sans-Serif" font-size="10.00">OMSimAngularScan.cc</text>
</a>
</g>
</g>
<!-- Node5&#45;&gt;Node12 -->
<g id="edge11" class="edge">
<title>Node5&#45;&gt;Node12</title>
<path fill="none" stroke="midnightblue" d="M459.83,-109.17C489.77,-99 532.22,-84.59 558.92,-75.52"/>
<polygon fill="midnightblue" stroke="midnightblue" points="458.54,-105.91 450.19,-112.44 460.79,-112.54 458.54,-105.91"/>
</g>
<!-- Node13 -->
<g id="node13" class="node">
<title>Node13</title>
<g id="a_node13"><a xlink:href="_o_m_sim_decays_g_p_s_8cc.html" target="_top" xlink:title=" ">
<polygon fill="white" stroke="black" points="665.5,-56.5 665.5,-75.5 786.5,-75.5 786.5,-56.5 665.5,-56.5"/>
<text text-anchor="middle" x="726" y="-63.5" font-family="Helvetica,sans-Serif" font-size="10.00">OMSimDecaysGPS.cc</text>
</a>
</g>
</g>
<!-- Node5&#45;&gt;Node13 -->
<g id="edge12" class="edge">
<title>Node5&#45;&gt;Node13</title>
<path fill="none" stroke="midnightblue" d="M482.61,-110.66C539.5,-100.46 625.45,-85.04 678.53,-75.52"/>
<polygon fill="midnightblue" stroke="midnightblue" points="481.92,-107.23 472.69,-112.44 483.16,-114.12 481.92,-107.23"/>
</g>
<!-- Node7 -->
<g id="node7" class="node">
<title>Node7</title>
<g id="a_node7"><a xlink:href="_o_m_sim_8cc.html" target="_top" xlink:title="Implementation of the OMSim class.">
<polygon fill="white" stroke="black" points="78.5,-0.5 78.5,-19.5 143.5,-19.5 143.5,-0.5 78.5,-0.5"/>
<text text-anchor="middle" x="111" y="-7.5" font-family="Helvetica,sans-Serif" font-size="10.00">OMSim.cc</text>
</a>
</g>
</g>
<!-- Node6&#45;&gt;Node7 -->
<g id="edge6" class="edge">
<title>Node6&#45;&gt;Node7</title>
<path fill="none" stroke="midnightblue" d="M274.38,-53.83C235.49,-43.63 178.84,-28.78 143.49,-19.52"/>
<polygon fill="midnightblue" stroke="midnightblue" points="273.8,-57.29 284.36,-56.44 275.57,-50.52 273.8,-57.29"/>
</g>
<!-- Node8 -->
<g id="node8" class="node">
<title>Node8</title>
<g id="a_node8"><a xlink:href="_o_m_sim__effective__area_8cc.html" target="_top" xlink:title="Main for the calculation of effective areas.">
<polygon fill="white" stroke="black" points="162,-0.5 162,-19.5 302,-19.5 302,-0.5 162,-0.5"/>
<text text-anchor="middle" x="232" y="-7.5" font-family="Helvetica,sans-Serif" font-size="10.00">OMSim_effective_area.cc</text>
</a>
</g>
</g>
<!-- Node6&#45;&gt;Node8 -->
<g id="edge7" class="edge">
<title>Node6&#45;&gt;Node8</title>
<path fill="none" stroke="midnightblue" d="M294.81,-50.9C279.22,-41 258.87,-28.07 245.62,-19.65"/>
<polygon fill="midnightblue" stroke="midnightblue" points="293.03,-53.92 303.34,-56.32 296.78,-48.01 293.03,-53.92"/>
</g>
<!-- Node9 -->
<g id="node9" class="node">
<title>Node9</title>
<g id="a_node9"><a xlink:href="_o_m_sim__radioactive__decays_8cc.html" target="_top" xlink:title=" ">
<polygon fill="white" stroke="black" points="320.5,-0.5 320.5,-19.5 485.5,-19.5 485.5,-0.5 320.5,-0.5"/>
<text text-anchor="middle" x="403" y="-7.5" font-family="Helvetica,sans-Serif" font-size="10.00">OMSim_radioactive_decays.cc</text>
</a>
</g>
</g>
<!-- Node6&#45;&gt;Node9 -->
<g id="edge8" class="edge">
<title>Node6&#45;&gt;Node9</title>
<path fill="none" stroke="midnightblue" d="M339.45,-50.9C355.22,-41 375.81,-28.07 389.22,-19.65"/>
<polygon fill="midnightblue" stroke="midnightblue" points="337.43,-48.04 330.82,-56.32 341.15,-53.97 337.43,-48.04"/>
</g>
<!-- Node10 -->
<g id="node10" class="node">
<title>Node10</title>
<g id="a_node10"><a xlink:href="_o_m_sim__supernova_8cc.html" target="_top" xlink:title=" ">
<polygon fill="white" stroke="black" points="504,-0.5 504,-19.5 626,-19.5 626,-0.5 504,-0.5"/>
<text text-anchor="middle" x="565" y="-7.5" font-family="Helvetica,sans-Serif" font-size="10.00">OMSim_supernova.cc</text>
</a>
</g>
</g>
<!-- Node6&#45;&gt;Node10 -->
<g id="edge9" class="edge">
<title>Node6&#45;&gt;Node10</title>
<path fill="none" stroke="midnightblue" d="M360.52,-55.52C407.19,-45.36 480.64,-29.37 525.64,-19.57"/>
<polygon fill="midnightblue" stroke="midnightblue" points="359.73,-52.11 350.7,-57.66 361.22,-58.95 359.73,-52.11"/>
</g>
</g>
</svg>
