<?xml version="1.0" encoding="UTF-8" standalone="no"?>
<!DOCTYPE svg PUBLIC "-//W3C//DTD SVG 1.1//EN"
 "http://www.w3.org/Graphics/SVG/1.1/DTD/svg11.dtd">
<!-- Generated by graphviz version 2.43.0 (0)
 -->
<!-- Title: OMSimPMTConstruction.hh Pages: 1 -->
<svg width="1309pt" height="207pt"
 viewBox="0.00 0.00 1308.50 207.00" xmlns="http://www.w3.org/2000/svg" xmlns:xlink="http://www.w3.org/1999/xlink">
<g id="graph0" class="graph" transform="scale(1 1) rotate(0) translate(4 203)">
<title>OMSimPMTConstruction.hh</title>
<polygon fill="white" stroke="transparent" points="-4,4 -4,-203 1304.5,-203 1304.5,4 -4,4"/>
<!-- Node1 -->
<g id="node1" class="node">
<title>Node1</title>
<g id="a_node1"><a xlink:title=" ">
<polygon fill="#bfbfbf" stroke="black" points="823,-179.5 823,-198.5 972,-198.5 972,-179.5 823,-179.5"/>
<text text-anchor="middle" x="897.5" y="-186.5" font-family="Helvetica,sans-Serif" font-size="10.00">OMSimPMTConstruction.hh</text>
</a>
</g>
</g>
<!-- Node2 -->
<g id="node2" class="node">
<title>Node2</title>
<g id="a_node2"><a xlink:title=" ">
<polygon fill="white" stroke="#bfbfbf" points="0,-0.5 0,-30.5 113,-30.5 113,-0.5 0,-0.5"/>
<text text-anchor="start" x="8" y="-18.5" font-family="Helvetica,sans-Serif" font-size="10.00">boost/property_tree</text>
<text text-anchor="middle" x="56.5" y="-7.5" font-family="Helvetica,sans-Serif" font-size="10.00">/ptree.hpp</text>
</a>
</g>
</g>
<!-- Node1&#45;&gt;Node2 -->
<g id="edge1" class="edge">
<title>Node1&#45;&gt;Node2</title>
<path fill="none" stroke="midnightblue" d="M822.85,-186.95C669.83,-184.17 325.51,-174.52 212.5,-143 160.42,-128.48 144.95,-122.88 104.5,-87 89.51,-73.7 76.95,-54.76 68.45,-39.85"/>
<polygon fill="midnightblue" stroke="midnightblue" points="71.33,-37.83 63.46,-30.75 65.19,-41.2 71.33,-37.83"/>
</g>
<!-- Node3 -->
<g id="node3" class="node">
<title>Node3</title>
<g id="a_node3"><a xlink:title=" ">
<polygon fill="white" stroke="#bfbfbf" points="131,-0.5 131,-30.5 244,-30.5 244,-0.5 131,-0.5"/>
<text text-anchor="start" x="139" y="-18.5" font-family="Helvetica,sans-Serif" font-size="10.00">boost/property_tree</text>
<text text-anchor="middle" x="187.5" y="-7.5" font-family="Helvetica,sans-Serif" font-size="10.00">/json_parser.hpp</text>
</a>
</g>
</g>
<!-- Node1&#45;&gt;Node3 -->
<g id="edge2" class="edge">
<title>Node1&#45;&gt;Node3</title>
<path fill="none" stroke="midnightblue" d="M822.85,-184.13C635.63,-173.65 157.88,-141.73 113.5,-87 97.97,-67.85 121.1,-48.72 145.49,-35.23"/>
<polygon fill="midnightblue" stroke="midnightblue" points="147.23,-38.27 154.47,-30.53 143.98,-32.07 147.23,-38.27"/>
</g>
<!-- Node4 -->
<g id="node4" class="node">
<title>Node4</title>
<g id="a_node4"><a xlink:href="abc_detector_component_8hh.html" target="_top" xlink:title=" ">
<polygon fill="white" stroke="black" points="652,-123.5 652,-142.5 799,-142.5 799,-123.5 652,-123.5"/>
<text text-anchor="middle" x="725.5" y="-130.5" font-family="Helvetica,sans-Serif" font-size="10.00">abcDetectorComponent.hh</text>
</a>
</g>
</g>
<!-- Node1&#45;&gt;Node4 -->
<g id="edge3" class="edge">
<title>Node1&#45;&gt;Node4</title>
<path fill="none" stroke="midnightblue" d="M870.25,-179.44C841.06,-170.28 794.58,-155.69 762.19,-145.52"/>
<polygon fill="midnightblue" stroke="midnightblue" points="763.22,-142.17 752.63,-142.52 761.12,-148.85 763.22,-142.17"/>
</g>
<!-- Node5 -->
<g id="node5" class="node">
<title>Node5</title>
<g id="a_node5"><a xlink:title=" ">
<polygon fill="white" stroke="#bfbfbf" points="122.5,-67.5 122.5,-86.5 238.5,-86.5 238.5,-67.5 122.5,-67.5"/>
<text text-anchor="middle" x="180.5" y="-74.5" font-family="Helvetica,sans-Serif" font-size="10.00">G4LogicalVolume.hh</text>
</a>
</g>
</g>
<!-- Node1&#45;&gt;Node5 -->
<g id="edge19" class="edge">
<title>Node1&#45;&gt;Node5</title>
<path fill="none" stroke="midnightblue" d="M822.79,-182.3C739.28,-175.37 600.19,-162.18 481.5,-143 389.39,-128.12 282.98,-103.32 224.57,-89.04"/>
<polygon fill="midnightblue" stroke="midnightblue" points="225.13,-85.57 214.59,-86.58 223.46,-92.37 225.13,-85.57"/>
</g>
<!-- Node6 -->
<g id="node6" class="node">
<title>Node6</title>
<g id="a_node6"><a xlink:title=" ">
<polygon fill="white" stroke="#bfbfbf" points="782,-6 782,-25 901,-25 901,-6 782,-6"/>
<text text-anchor="middle" x="841.5" y="-13" font-family="Helvetica,sans-Serif" font-size="10.00">G4SystemOfUnits.hh</text>
</a>
</g>
</g>
<!-- Node1&#45;&gt;Node6 -->
<g id="edge20" class="edge">
<title>Node1&#45;&gt;Node6</title>
<path fill="none" stroke="midnightblue" d="M909.07,-179.33C930.33,-163.53 975.03,-130.93 992.5,-123 1053.53,-95.32 1175.65,-118.28 1132.5,-67 1104.78,-34.05 988.17,-22.6 911.24,-18.62"/>
<polygon fill="midnightblue" stroke="midnightblue" points="911.29,-15.12 901.13,-18.13 910.95,-22.11 911.29,-15.12"/>
</g>
<!-- Node8 -->
<g id="node8" class="node">
<title>Node8</title>
<g id="a_node8"><a xlink:title=" ">
<polygon fill="white" stroke="#bfbfbf" points="256.5,-67.5 256.5,-86.5 364.5,-86.5 364.5,-67.5 256.5,-67.5"/>
<text text-anchor="middle" x="310.5" y="-74.5" font-family="Helvetica,sans-Serif" font-size="10.00">G4VisAttributes.hh</text>
</a>
</g>
</g>
<!-- Node1&#45;&gt;Node8 -->
<g id="edge22" class="edge">
<title>Node1&#45;&gt;Node8</title>
<path fill="none" stroke="midnightblue" d="M822.68,-179.98C756.36,-172.32 657.05,-159.51 571.5,-143 492.36,-127.73 401.28,-103.5 350.35,-89.34"/>
<polygon fill="midnightblue" stroke="midnightblue" points="350.98,-85.88 340.41,-86.56 349.1,-92.62 350.98,-85.88"/>
</g>
<!-- Node9 -->
<g id="node9" class="node">
<title>Node9</title>
<g id="a_node9"><a xlink:href="_o_m_sim_input_data_8hh.html" target="_top" xlink:title=" ">
<polygon fill="white" stroke="black" points="383,-67.5 383,-86.5 498,-86.5 498,-67.5 383,-67.5"/>
<text text-anchor="middle" x="440.5" y="-74.5" font-family="Helvetica,sans-Serif" font-size="10.00">OMSimInputData.hh</text>
</a>
</g>
</g>
<!-- Node1&#45;&gt;Node9 -->
<g id="edge25" class="edge">
<title>Node1&#45;&gt;Node9</title>
<path fill="none" stroke="midnightblue" d="M835.43,-179.47C783.49,-171.76 707.62,-159.14 642.5,-143 581.81,-127.96 512.8,-104.29 473.18,-90.05"/>
<polygon fill="midnightblue" stroke="midnightblue" points="474.13,-86.66 463.53,-86.55 471.74,-93.25 474.13,-86.66"/>
</g>
<!-- Node13 -->
<g id="node13" class="node">
<title>Node13</title>
<g id="a_node13"><a xlink:title=" ">
<polygon fill="white" stroke="#bfbfbf" points="870,-67.5 870,-86.5 995,-86.5 995,-67.5 870,-67.5"/>
<text text-anchor="middle" x="932.5" y="-74.5" font-family="Helvetica,sans-Serif" font-size="10.00">G4SubtractionSolid.hh</text>
</a>
</g>
</g>
<!-- Node1&#45;&gt;Node13 -->
<g id="edge23" class="edge">
<title>Node1&#45;&gt;Node13</title>
<path fill="none" stroke="midnightblue" d="M900.25,-179.37C905.92,-161.54 919.04,-120.3 926.69,-96.27"/>
<polygon fill="midnightblue" stroke="midnightblue" points="930.07,-97.18 929.77,-86.59 923.4,-95.06 930.07,-97.18"/>
</g>
<!-- Node14 -->
<g id="node14" class="node">
<title>Node14</title>
<g id="a_node14"><a xlink:title=" ">
<polygon fill="white" stroke="#bfbfbf" points="1013.5,-67.5 1013.5,-86.5 1123.5,-86.5 1123.5,-67.5 1013.5,-67.5"/>
<text text-anchor="middle" x="1068.5" y="-74.5" font-family="Helvetica,sans-Serif" font-size="10.00">G4PVPlacement.hh</text>
</a>
</g>
</g>
<!-- Node1&#45;&gt;Node14 -->
<g id="edge24" class="edge">
<title>Node1&#45;&gt;Node14</title>
<path fill="none" stroke="midnightblue" d="M903.84,-179.31C914.15,-165.7 935.82,-139.21 959.5,-123 980.74,-108.46 1007.41,-97.35 1029.06,-89.8"/>
<polygon fill="midnightblue" stroke="midnightblue" points="1030.25,-93.09 1038.61,-86.59 1028.02,-86.46 1030.25,-93.09"/>
</g>
<!-- Node17 -->
<g id="node17" class="node">
<title>Node17</title>
<g id="a_node17"><a xlink:title=" ">
<polygon fill="white" stroke="#bfbfbf" points="1001.5,-123.5 1001.5,-142.5 1099.5,-142.5 1099.5,-123.5 1001.5,-123.5"/>
<text text-anchor="middle" x="1050.5" y="-130.5" font-family="Helvetica,sans-Serif" font-size="10.00">G4UnionSolid.hh</text>
</a>
</g>
</g>
<!-- Node1&#45;&gt;Node17 -->
<g id="edge21" class="edge">
<title>Node1&#45;&gt;Node17</title>
<path fill="none" stroke="midnightblue" d="M921.74,-179.44C947.37,-170.4 987.99,-156.06 1016.74,-145.92"/>
<polygon fill="midnightblue" stroke="midnightblue" points="1018.11,-149.15 1026.37,-142.52 1015.78,-142.54 1018.11,-149.15"/>
</g>
<!-- Node18 -->
<g id="node18" class="node">
<title>Node18</title>
<g id="a_node18"><a xlink:title=" ">
<polygon fill="white" stroke="#bfbfbf" points="1118,-123.5 1118,-142.5 1185,-142.5 1185,-123.5 1118,-123.5"/>
<text text-anchor="middle" x="1151.5" y="-130.5" font-family="Helvetica,sans-Serif" font-size="10.00">G4Tubs.hh</text>
</a>
</g>
</g>
<!-- Node1&#45;&gt;Node18 -->
<g id="edge26" class="edge">
<title>Node1&#45;&gt;Node18</title>
<path fill="none" stroke="midnightblue" d="M937.75,-179.44C984.14,-169.58 1060.12,-153.43 1107.89,-143.27"/>
<polygon fill="midnightblue" stroke="midnightblue" points="1108.88,-146.64 1117.93,-141.14 1107.42,-139.79 1108.88,-146.64"/>
</g>
<!-- Node19 -->
<g id="node19" class="node">
<title>Node19</title>
<g id="a_node19"><a xlink:title=" ">
<polygon fill="white" stroke="#bfbfbf" points="1203,-123.5 1203,-142.5 1244,-142.5 1244,-123.5 1203,-123.5"/>
<text text-anchor="middle" x="1223.5" y="-130.5" font-family="Helvetica,sans-Serif" font-size="10.00">tuple</text>
</a>
</g>
</g>
<!-- Node1&#45;&gt;Node19 -->
<g id="edge27" class="edge">
<title>Node1&#45;&gt;Node19</title>
<path fill="none" stroke="midnightblue" d="M972.23,-179.84C1030.17,-172.79 1112.56,-161.18 1192.46,-143.21"/>
<polygon fill="midnightblue" stroke="midnightblue" points="1193.73,-146.51 1202.69,-140.87 1192.16,-139.69 1193.73,-146.51"/>
</g>
<!-- Node20 -->
<g id="node20" class="node">
<title>Node20</title>
<g id="a_node20"><a xlink:title=" ">
<polygon fill="white" stroke="#bfbfbf" points="1262.5,-123.5 1262.5,-142.5 1300.5,-142.5 1300.5,-123.5 1262.5,-123.5"/>
<text text-anchor="middle" x="1281.5" y="-130.5" font-family="Helvetica,sans-Serif" font-size="10.00">map</text>
</a>
</g>
</g>
<!-- Node1&#45;&gt;Node20 -->
<g id="edge28" class="edge">
<title>Node1&#45;&gt;Node20</title>
<path fill="none" stroke="midnightblue" d="M972.17,-182.61C1042.41,-176.62 1150.54,-165.04 1252.5,-142.85"/>
<polygon fill="midnightblue" stroke="midnightblue" points="1253.34,-146.25 1262.35,-140.67 1251.83,-139.42 1253.34,-146.25"/>
</g>
<!-- Node4&#45;&gt;Node5 -->
<g id="edge4" class="edge">
<title>Node4&#45;&gt;Node5</title>
<path fill="none" stroke="midnightblue" d="M651.71,-125.97C559.84,-118.25 397.84,-103.97 248.84,-87.11"/>
<polygon fill="midnightblue" stroke="midnightblue" points="248.92,-83.6 238.59,-85.95 248.13,-90.55 248.92,-83.6"/>
</g>
<!-- Node4&#45;&gt;Node6 -->
<g id="edge5" class="edge">
<title>Node4&#45;&gt;Node6</title>
<path fill="none" stroke="midnightblue" d="M761.57,-123.44C782.18,-116.78 806.96,-105.46 822.5,-87 834.72,-72.49 839.15,-50.85 840.71,-35.37"/>
<polygon fill="midnightblue" stroke="midnightblue" points="844.21,-35.61 841.42,-25.39 837.22,-35.11 844.21,-35.61"/>
</g>
<!-- Node7 -->
<g id="node7" class="node">
<title>Node7</title>
<g id="a_node7"><a xlink:title=" ">
<polygon fill="white" stroke="#bfbfbf" points="516,-67.5 516,-86.5 623,-86.5 623,-67.5 516,-67.5"/>
<text text-anchor="middle" x="569.5" y="-74.5" font-family="Helvetica,sans-Serif" font-size="10.00">G4Transform3D.hh</text>
</a>
</g>
</g>
<!-- Node4&#45;&gt;Node7 -->
<g id="edge6" class="edge">
<title>Node4&#45;&gt;Node7</title>
<path fill="none" stroke="midnightblue" d="M700.78,-123.44C674.65,-114.4 633.24,-100.06 603.92,-89.92"/>
<polygon fill="midnightblue" stroke="midnightblue" points="604.7,-86.48 594.1,-86.52 602.41,-93.1 604.7,-86.48"/>
</g>
<!-- Node4&#45;&gt;Node8 -->
<g id="edge7" class="edge">
<title>Node4&#45;&gt;Node8</title>
<path fill="none" stroke="midnightblue" d="M656.33,-123.46C587.54,-114.9 478.7,-101.17 374.82,-87.16"/>
<polygon fill="midnightblue" stroke="midnightblue" points="375.17,-83.68 364.79,-85.81 374.23,-90.62 375.17,-83.68"/>
</g>
<!-- Node4&#45;&gt;Node9 -->
<g id="edge8" class="edge">
<title>Node4&#45;&gt;Node9</title>
<path fill="none" stroke="midnightblue" d="M680.34,-123.44C630.21,-113.94 549.28,-98.61 495.49,-88.42"/>
<polygon fill="midnightblue" stroke="midnightblue" points="495.92,-84.94 485.45,-86.52 494.62,-91.82 495.92,-84.94"/>
</g>
<!-- Node4&#45;&gt;Node13 -->
<g id="edge15" class="edge">
<title>Node4&#45;&gt;Node13</title>
<path fill="none" stroke="midnightblue" d="M758.3,-123.44C793.88,-114.16 850.81,-99.31 889.85,-89.13"/>
<polygon fill="midnightblue" stroke="midnightblue" points="891.06,-92.43 899.85,-86.52 889.29,-85.65 891.06,-92.43"/>
</g>
<!-- Node4&#45;&gt;Node14 -->
<g id="edge16" class="edge">
<title>Node4&#45;&gt;Node14</title>
<path fill="none" stroke="midnightblue" d="M779.85,-123.44C840.81,-113.85 939.61,-98.29 1004.32,-88.1"/>
<polygon fill="midnightblue" stroke="midnightblue" points="1005.07,-91.53 1014.4,-86.52 1003.98,-84.61 1005.07,-91.53"/>
</g>
<!-- Node15 -->
<g id="node15" class="node">
<title>Node15</title>
<g id="a_node15"><a xlink:title=" ">
<polygon fill="white" stroke="#bfbfbf" points="641.5,-67.5 641.5,-86.5 739.5,-86.5 739.5,-67.5 641.5,-67.5"/>
<text text-anchor="middle" x="690.5" y="-74.5" font-family="Helvetica,sans-Serif" font-size="10.00">G4MultiUnion.hh</text>
</a>
</g>
</g>
<!-- Node4&#45;&gt;Node15 -->
<g id="edge17" class="edge">
<title>Node4&#45;&gt;Node15</title>
<path fill="none" stroke="midnightblue" d="M719.72,-123.08C714.83,-115.53 707.67,-104.49 701.67,-95.23"/>
<polygon fill="midnightblue" stroke="midnightblue" points="704.55,-93.24 696.17,-86.75 698.67,-97.05 704.55,-93.24"/>
</g>
<!-- Node16 -->
<g id="node16" class="node">
<title>Node16</title>
<g id="a_node16"><a xlink:title=" ">
<polygon fill="white" stroke="#bfbfbf" points="757.5,-67.5 757.5,-86.5 813.5,-86.5 813.5,-67.5 757.5,-67.5"/>
<text text-anchor="middle" x="785.5" y="-74.5" font-family="Helvetica,sans-Serif" font-size="10.00">sstream</text>
</a>
</g>
</g>
<!-- Node4&#45;&gt;Node16 -->
<g id="edge18" class="edge">
<title>Node4&#45;&gt;Node16</title>
<path fill="none" stroke="midnightblue" d="M735.14,-123.32C744.01,-115.34 757.37,-103.31 768.11,-93.65"/>
<polygon fill="midnightblue" stroke="midnightblue" points="770.59,-96.13 775.68,-86.83 765.91,-90.92 770.59,-96.13"/>
</g>
<!-- Node9&#45;&gt;Node2 -->
<g id="edge9" class="edge">
<title>Node9&#45;&gt;Node2</title>
<path fill="none" stroke="midnightblue" d="M382.92,-68.13C304.67,-57.4 169.86,-38.78 123.08,-31.12"/>
<polygon fill="midnightblue" stroke="midnightblue" points="123.61,-27.66 113.17,-29.42 122.43,-34.56 123.61,-27.66"/>
</g>
<!-- Node9&#45;&gt;Node3 -->
<g id="edge10" class="edge">
<title>Node9&#45;&gt;Node3</title>
<path fill="none" stroke="midnightblue" d="M404.25,-67.48C365.22,-58.3 302.26,-43.49 254.23,-32.19"/>
<polygon fill="midnightblue" stroke="midnightblue" points="254.76,-28.72 244.22,-29.84 253.16,-35.54 254.76,-28.72"/>
</g>
<!-- Node9&#45;&gt;Node6 -->
<g id="edge14" class="edge">
<title>Node9&#45;&gt;Node6</title>
<path fill="none" stroke="midnightblue" d="M497.95,-67.48C570.91,-56.65 696.59,-38 774.02,-26.51"/>
<polygon fill="midnightblue" stroke="midnightblue" points="774.78,-29.94 784.15,-25.01 773.75,-23.01 774.78,-29.94"/>
</g>
<!-- Node10 -->
<g id="node10" class="node">
<title>Node10</title>
<g id="a_node10"><a xlink:title=" ">
<polygon fill="white" stroke="#bfbfbf" points="548.5,-6 548.5,-25 634.5,-25 634.5,-6 548.5,-6"/>
<text text-anchor="middle" x="591.5" y="-13" font-family="Helvetica,sans-Serif" font-size="10.00">G4Material.hh</text>
</a>
</g>
</g>
<!-- Node9&#45;&gt;Node10 -->
<g id="edge11" class="edge">
<title>Node9&#45;&gt;Node10</title>
<path fill="none" stroke="midnightblue" d="M462.13,-67.48C487.92,-57.31 531.21,-40.26 560.54,-28.7"/>
<polygon fill="midnightblue" stroke="midnightblue" points="561.88,-31.93 569.91,-25.01 559.32,-25.42 561.88,-31.93"/>
</g>
<!-- Node11 -->
<g id="node11" class="node">
<title>Node11</title>
<g id="a_node11"><a xlink:title=" ">
<polygon fill="white" stroke="#bfbfbf" points="262,-6 262,-25 369,-25 369,-6 262,-6"/>
<text text-anchor="middle" x="315.5" y="-13" font-family="Helvetica,sans-Serif" font-size="10.00">G4NistManager.hh</text>
</a>
</g>
</g>
<!-- Node9&#45;&gt;Node11 -->
<g id="edge12" class="edge">
<title>Node9&#45;&gt;Node11</title>
<path fill="none" stroke="midnightblue" d="M422.59,-67.48C401.61,-57.49 366.65,-40.85 342.41,-29.31"/>
<polygon fill="midnightblue" stroke="midnightblue" points="343.91,-26.15 333.38,-25.01 340.9,-32.47 343.91,-26.15"/>
</g>
<!-- Node12 -->
<g id="node12" class="node">
<title>Node12</title>
<g id="a_node12"><a xlink:title=" ">
<polygon fill="white" stroke="#bfbfbf" points="387,-6 387,-25 530,-25 530,-6 387,-6"/>
<text text-anchor="middle" x="458.5" y="-13" font-family="Helvetica,sans-Serif" font-size="10.00">G4OpBoundaryProcess.hh</text>
</a>
</g>
</g>
<!-- Node9&#45;&gt;Node12 -->
<g id="edge13" class="edge">
<title>Node9&#45;&gt;Node12</title>
<path fill="none" stroke="midnightblue" d="M443.08,-67.48C445.65,-58.99 449.67,-45.7 452.96,-34.82"/>
<polygon fill="midnightblue" stroke="midnightblue" points="456.38,-35.59 455.93,-25.01 449.68,-33.57 456.38,-35.59"/>
</g>
</g>
</svg>
