<?xml version="1.0" encoding="UTF-8" standalone="no"?>
<!DOCTYPE svg PUBLIC "-//W3C//DTD SVG 1.1//EN"
 "http://www.w3.org/Graphics/SVG/1.1/DTD/svg11.dtd">
<!-- Generated by graphviz version 2.43.0 (0)
 -->
<!-- Title: OMSimInputData.hh Pages: 1 -->
<svg width="2038pt" height="364pt"
 viewBox="0.00 0.00 2038.03 364.00" xmlns="http://www.w3.org/2000/svg" xmlns:xlink="http://www.w3.org/1999/xlink">
<g id="graph0" class="graph" transform="scale(1 1) rotate(0) translate(4 360)">
<title>OMSimInputData.hh</title>
<polygon fill="white" stroke="transparent" points="-4,4 -4,-360 2034.03,-360 2034.03,4 -4,4"/>
<!-- Node1 -->
<g id="node1" class="node">
<title>Node1</title>
<g id="a_node1"><a xlink:title=" ">
<polygon fill="#bfbfbf" stroke="black" points="1037.53,-336.5 1037.53,-355.5 1152.53,-355.5 1152.53,-336.5 1037.53,-336.5"/>
<text text-anchor="middle" x="1095.03" y="-343.5" font-family="Helvetica,sans-Serif" font-size="10.00">OMSimInputData.hh</text>
</a>
</g>
</g>
<!-- Node2 -->
<g id="node2" class="node">
<title>Node2</title>
<g id="a_node2"><a xlink:href="abc_detector_component_8hh.html" target="_top" xlink:title=" ">
<polygon fill="white" stroke="black" points="885.53,-280.5 885.53,-299.5 1032.53,-299.5 1032.53,-280.5 885.53,-280.5"/>
<text text-anchor="middle" x="959.03" y="-287.5" font-family="Helvetica,sans-Serif" font-size="10.00">abcDetectorComponent.hh</text>
</a>
</g>
</g>
<!-- Node1&#45;&gt;Node2 -->
<g id="edge1" class="edge">
<title>Node1&#45;&gt;Node2</title>
<path fill="none" stroke="midnightblue" d="M1063.9,-332.64C1038.38,-322.5 1002.92,-308.43 980.48,-299.52"/>
<polygon fill="midnightblue" stroke="midnightblue" points="1062.9,-336.01 1073.48,-336.44 1065.48,-329.5 1062.9,-336.01"/>
</g>
<!-- Node3 -->
<g id="node3" class="node">
<title>Node3</title>
<g id="a_node3"><a xlink:href="_o_m_sim_d_e_g_g_8hh.html" target="_top" xlink:title=" ">
<polygon fill="white" stroke="black" points="157.53,-168.5 157.53,-187.5 252.53,-187.5 252.53,-168.5 157.53,-168.5"/>
<text text-anchor="middle" x="205.03" y="-175.5" font-family="Helvetica,sans-Serif" font-size="10.00">OMSimDEGG.hh</text>
</a>
</g>
</g>
<!-- Node1&#45;&gt;Node3 -->
<g id="edge57" class="edge">
<title>Node1&#45;&gt;Node3</title>
<path fill="none" stroke="midnightblue" d="M1027.17,-345.9C918.95,-345.94 701.21,-340.35 522.03,-300 403.07,-273.21 269.23,-210.63 222.35,-187.66"/>
<polygon fill="midnightblue" stroke="midnightblue" points="1027.3,-349.4 1037.29,-345.87 1027.29,-342.4 1027.3,-349.4"/>
</g>
<!-- Node6 -->
<g id="node6" class="node">
<title>Node6</title>
<g id="a_node6"><a xlink:href="_o_m_sim_detector_construction_8cc.html" target="_top" xlink:title="User defined detector.">
<polygon fill="white" stroke="black" points="874.53,-56.5 874.53,-75.5 1043.53,-75.5 1043.53,-56.5 874.53,-56.5"/>
<text text-anchor="middle" x="959.03" y="-63.5" font-family="Helvetica,sans-Serif" font-size="10.00">OMSimDetectorConstruction.cc</text>
</a>
</g>
</g>
<!-- Node1&#45;&gt;Node6 -->
<g id="edge67" class="edge">
<title>Node1&#45;&gt;Node6</title>
<path fill="none" stroke="midnightblue" d="M1162.96,-338.14C1309.57,-322.65 1645.11,-283.24 1678.03,-244 1699.6,-218.29 1796.38,-237.93 1677.03,-112 1655.54,-89.32 1228.87,-74.6 1043.64,-69.25"/>
<polygon fill="midnightblue" stroke="midnightblue" points="1162.32,-334.69 1152.74,-339.21 1163.05,-341.65 1162.32,-334.69"/>
</g>
<!-- Node7 -->
<g id="node7" class="node">
<title>Node7</title>
<g id="a_node7"><a xlink:href="_o_m_sim_d_e_g_g_harness_8hh.html" target="_top" xlink:title=" ">
<polygon fill="white" stroke="black" points="13.53,-224.5 13.53,-243.5 148.53,-243.5 148.53,-224.5 13.53,-224.5"/>
<text text-anchor="middle" x="81.03" y="-231.5" font-family="Helvetica,sans-Serif" font-size="10.00">OMSimDEGGHarness.hh</text>
</a>
</g>
</g>
<!-- Node1&#45;&gt;Node7 -->
<g id="edge58" class="edge">
<title>Node1&#45;&gt;Node7</title>
<path fill="none" stroke="midnightblue" d="M1027.25,-345.45C846.49,-346.05 356.17,-343.5 201.03,-300 157.91,-287.91 113.06,-258.24 92.53,-243.54"/>
<polygon fill="midnightblue" stroke="midnightblue" points="1027.44,-348.95 1037.42,-345.42 1027.41,-341.95 1027.44,-348.95"/>
</g>
<!-- Node8 -->
<g id="node8" class="node">
<title>Node8</title>
<g id="a_node8"><a xlink:href="_o_m_sim_l_o_m16_8hh.html" target="_top" xlink:title=" ">
<polygon fill="white" stroke="black" points="1025.53,-168.5 1025.53,-187.5 1126.53,-187.5 1126.53,-168.5 1025.53,-168.5"/>
<text text-anchor="middle" x="1076.03" y="-175.5" font-family="Helvetica,sans-Serif" font-size="10.00">OMSimLOM16.hh</text>
</a>
</g>
</g>
<!-- Node1&#45;&gt;Node8 -->
<g id="edge59" class="edge">
<title>Node1&#45;&gt;Node8</title>
<path fill="none" stroke="midnightblue" d="M1092.85,-325.93C1088.73,-289.92 1079.95,-213.23 1077.01,-187.57"/>
<polygon fill="midnightblue" stroke="midnightblue" points="1089.4,-326.54 1094.01,-336.08 1096.35,-325.74 1089.4,-326.54"/>
</g>
<!-- Node10 -->
<g id="node10" class="node">
<title>Node10</title>
<g id="a_node10"><a xlink:href="_o_m_sim_l_o_m18_8hh.html" target="_top" xlink:title=" ">
<polygon fill="white" stroke="black" points="309.53,-168.5 309.53,-187.5 410.53,-187.5 410.53,-168.5 309.53,-168.5"/>
<text text-anchor="middle" x="360.03" y="-175.5" font-family="Helvetica,sans-Serif" font-size="10.00">OMSimLOM18.hh</text>
</a>
</g>
</g>
<!-- Node1&#45;&gt;Node10 -->
<g id="edge60" class="edge">
<title>Node1&#45;&gt;Node10</title>
<path fill="none" stroke="midnightblue" d="M1027.37,-340.91C877.1,-330.89 520.55,-301.6 416.03,-244 391.77,-230.63 373.2,-202.37 364.86,-187.92"/>
<polygon fill="midnightblue" stroke="midnightblue" points="1027.19,-344.41 1037.4,-341.57 1027.65,-337.42 1027.19,-344.41"/>
</g>
<!-- Node16 -->
<g id="node16" class="node">
<title>Node16</title>
<g id="a_node16"><a xlink:href="_o_m_sim_detector_construction_8hh.html" target="_top" xlink:title=" ">
<polygon fill="white" stroke="black" points="270.03,-112.5 270.03,-131.5 440.03,-131.5 440.03,-112.5 270.03,-112.5"/>
<text text-anchor="middle" x="355.03" y="-119.5" font-family="Helvetica,sans-Serif" font-size="10.00">OMSimDetectorConstruction.hh</text>
</a>
</g>
</g>
<!-- Node1&#45;&gt;Node16 -->
<g id="edge66" class="edge">
<title>Node1&#45;&gt;Node16</title>
<path fill="none" stroke="midnightblue" d="M1027.22,-344.59C839.68,-343 316.89,-335.43 149.03,-300 81.44,-285.73 43.1,-300.97 4.03,-244 -31.51,-192.17 190.75,-149.09 298.69,-131.51"/>
<polygon fill="midnightblue" stroke="midnightblue" points="1027.46,-348.09 1037.49,-344.67 1027.52,-341.09 1027.46,-348.09"/>
</g>
<!-- Node21 -->
<g id="node21" class="node">
<title>Node21</title>
<g id="a_node21"><a xlink:href="_o_m_sim_m_d_o_m_harness_8hh.html" target="_top" xlink:title=" ">
<polygon fill="white" stroke="black" points="1529.03,-224.5 1529.03,-243.5 1669.03,-243.5 1669.03,-224.5 1529.03,-224.5"/>
<text text-anchor="middle" x="1599.03" y="-231.5" font-family="Helvetica,sans-Serif" font-size="10.00">OMSimMDOMHarness.hh</text>
</a>
</g>
</g>
<!-- Node1&#45;&gt;Node21 -->
<g id="edge61" class="edge">
<title>Node1&#45;&gt;Node21</title>
<path fill="none" stroke="midnightblue" d="M1143.99,-334.31C1243.81,-312.53 1469.06,-263.37 1559.93,-243.53"/>
<polygon fill="midnightblue" stroke="midnightblue" points="1143.18,-330.91 1134.16,-336.46 1144.68,-337.75 1143.18,-330.91"/>
</g>
<!-- Node24 -->
<g id="node24" class="node">
<title>Node24</title>
<g id="a_node24"><a xlink:href="_o_m_sim_p_m_t_construction_8hh.html" target="_top" xlink:title=" ">
<polygon fill="white" stroke="black" points="635.53,-224.5 635.53,-243.5 784.53,-243.5 784.53,-224.5 635.53,-224.5"/>
<text text-anchor="middle" x="710.03" y="-231.5" font-family="Helvetica,sans-Serif" font-size="10.00">OMSimPMTConstruction.hh</text>
</a>
</g>
</g>
<!-- Node1&#45;&gt;Node24 -->
<g id="edge62" class="edge">
<title>Node1&#45;&gt;Node24</title>
<path fill="none" stroke="midnightblue" d="M1031.16,-334.73C987.33,-326.97 928.09,-315.09 877.03,-300 822.13,-283.77 759.88,-257.29 729.2,-243.68"/>
<polygon fill="midnightblue" stroke="midnightblue" points="1030.65,-338.19 1041.11,-336.46 1031.86,-331.3 1030.65,-338.19"/>
</g>
<!-- Node27 -->
<g id="node27" class="node">
<title>Node27</title>
<g id="a_node27"><a xlink:href="_o_m_sim_data_file_types_8cc.html" target="_top" xlink:title="Collection of classes and methods to handle material creation from user data in json files.">
<polygon fill="white" stroke="black" points="1612.03,-280.5 1612.03,-299.5 1746.03,-299.5 1746.03,-280.5 1612.03,-280.5"/>
<text text-anchor="middle" x="1679.03" y="-287.5" font-family="Helvetica,sans-Serif" font-size="10.00">OMSimDataFileTypes.cc</text>
</a>
</g>
</g>
<!-- Node1&#45;&gt;Node27 -->
<g id="edge63" class="edge">
<title>Node1&#45;&gt;Node27</title>
<path fill="none" stroke="midnightblue" d="M1163,-339.38C1259.7,-331.29 1442.53,-315.59 1598.03,-300 1602.54,-299.55 1607.18,-299.07 1611.86,-298.58"/>
<polygon fill="midnightblue" stroke="midnightblue" points="1162.45,-335.92 1152.78,-340.24 1163.04,-342.89 1162.45,-335.92"/>
</g>
<!-- Node28 -->
<g id="node28" class="node">
<title>Node28</title>
<g id="a_node28"><a xlink:href="_o_m_sim_input_data_8cc.html" target="_top" xlink:title="Input data from external files are read and saved to memory.">
<polygon fill="white" stroke="black" points="1764.53,-280.5 1764.53,-299.5 1877.53,-299.5 1877.53,-280.5 1764.53,-280.5"/>
<text text-anchor="middle" x="1821.03" y="-287.5" font-family="Helvetica,sans-Serif" font-size="10.00">OMSimInputData.cc</text>
</a>
</g>
</g>
<!-- Node1&#45;&gt;Node28 -->
<g id="edge64" class="edge">
<title>Node1&#45;&gt;Node28</title>
<path fill="none" stroke="midnightblue" d="M1163.1,-341.88C1282.94,-336.04 1539.38,-322.03 1755.03,-300 1758.02,-299.69 1761.09,-299.36 1764.18,-299"/>
<polygon fill="midnightblue" stroke="midnightblue" points="1162.79,-338.39 1152.97,-342.37 1163.13,-345.38 1162.79,-338.39"/>
</g>
<!-- Node29 -->
<g id="node29" class="node">
<title>Node29</title>
<g id="a_node29"><a xlink:href="_o_m_sim_p_m_t_response_8cc.html" target="_top" xlink:title="PMT response simulator.">
<polygon fill="white" stroke="black" points="1896.03,-280.5 1896.03,-299.5 2030.03,-299.5 2030.03,-280.5 1896.03,-280.5"/>
<text text-anchor="middle" x="1963.03" y="-287.5" font-family="Helvetica,sans-Serif" font-size="10.00">OMSimPMTResponse.cc</text>
</a>
</g>
</g>
<!-- Node1&#45;&gt;Node29 -->
<g id="edge65" class="edge">
<title>Node1&#45;&gt;Node29</title>
<path fill="none" stroke="midnightblue" d="M1163.1,-342.54C1300.26,-337.26 1619.61,-323.41 1887.03,-300 1889.94,-299.75 1892.92,-299.47 1895.92,-299.17"/>
<polygon fill="midnightblue" stroke="midnightblue" points="1162.62,-339.05 1152.76,-342.93 1162.88,-346.05 1162.62,-339.05"/>
</g>
<!-- Node2&#45;&gt;Node3 -->
<g id="edge2" class="edge">
<title>Node2&#45;&gt;Node3</title>
<path fill="none" stroke="midnightblue" d="M875.3,-287.92C725.37,-285.2 417.22,-275.81 315.03,-244 275.21,-231.61 234.55,-202.36 215.76,-187.7"/>
<polygon fill="midnightblue" stroke="midnightblue" points="875.32,-291.42 885.38,-288.1 875.44,-284.42 875.32,-291.42"/>
</g>
<!-- Node4 -->
<g id="node4" class="node">
<title>Node4</title>
<g id="a_node4"><a xlink:href="_o_m_sim_d_e_g_g_8cc.html" target="_top" xlink:title="Construction of the DEGG class.">
<polygon fill="white" stroke="black" points="6.03,-112.5 6.03,-131.5 100.03,-131.5 100.03,-112.5 6.03,-112.5"/>
<text text-anchor="middle" x="53.03" y="-119.5" font-family="Helvetica,sans-Serif" font-size="10.00">OMSimDEGG.cc</text>
</a>
</g>
</g>
<!-- Node2&#45;&gt;Node4 -->
<g id="edge49" class="edge">
<title>Node2&#45;&gt;Node4</title>
<path fill="none" stroke="midnightblue" d="M875.3,-287.46C717.04,-283.9 379.75,-273.07 267.03,-244 181.07,-221.83 93.52,-155.81 63.71,-131.83"/>
<polygon fill="midnightblue" stroke="midnightblue" points="875.39,-290.96 885.47,-287.68 875.55,-283.96 875.39,-290.96"/>
</g>
<!-- Node5 -->
<g id="node5" class="node">
<title>Node5</title>
<g id="a_node5"><a xlink:href="_o_m_sim_d_e_g_g_harness_8cc.html" target="_top" xlink:title=" ">
<polygon fill="white" stroke="black" points="118.03,-112.5 118.03,-131.5 252.03,-131.5 252.03,-112.5 118.03,-112.5"/>
<text text-anchor="middle" x="185.03" y="-119.5" font-family="Helvetica,sans-Serif" font-size="10.00">OMSimDEGGHarness.cc</text>
</a>
</g>
</g>
<!-- Node2&#45;&gt;Node5 -->
<g id="edge50" class="edge">
<title>Node2&#45;&gt;Node5</title>
<path fill="none" stroke="midnightblue" d="M875.07,-285.79C744.79,-280.18 500.17,-266.94 416.03,-244 369.84,-231.4 242.3,-157.03 199.36,-131.56"/>
<polygon fill="midnightblue" stroke="midnightblue" points="875.26,-289.3 885.4,-286.23 875.56,-282.31 875.26,-289.3"/>
</g>
<!-- Node2&#45;&gt;Node7 -->
<g id="edge6" class="edge">
<title>Node2&#45;&gt;Node7</title>
<path fill="none" stroke="midnightblue" d="M875.24,-285.72C730.05,-279.71 422.34,-265.55 163.03,-244 158.32,-243.61 153.46,-243.17 148.57,-242.7"/>
<polygon fill="midnightblue" stroke="midnightblue" points="875.28,-289.23 885.41,-286.14 875.57,-282.23 875.28,-289.23"/>
</g>
<!-- Node2&#45;&gt;Node8 -->
<g id="edge9" class="edge">
<title>Node2&#45;&gt;Node8</title>
<path fill="none" stroke="midnightblue" d="M975.51,-273.51C1000.51,-250.01 1047.2,-206.11 1066.89,-187.59"/>
<polygon fill="midnightblue" stroke="midnightblue" points="973.1,-270.97 968.21,-280.37 977.9,-276.07 973.1,-270.97"/>
</g>
<!-- Node9 -->
<g id="node9" class="node">
<title>Node9</title>
<g id="a_node9"><a xlink:href="_o_m_sim_l_o_m16_8cc.html" target="_top" xlink:title="Construction of LOM16.">
<polygon fill="white" stroke="black" points="1036.53,-112.5 1036.53,-131.5 1135.53,-131.5 1135.53,-112.5 1036.53,-112.5"/>
<text text-anchor="middle" x="1086.03" y="-119.5" font-family="Helvetica,sans-Serif" font-size="10.00">OMSimLOM16.cc</text>
</a>
</g>
</g>
<!-- Node2&#45;&gt;Node9 -->
<g id="edge51" class="edge">
<title>Node2&#45;&gt;Node9</title>
<path fill="none" stroke="midnightblue" d="M1003.76,-277.47C1046.26,-263.86 1107.76,-236.68 1136.03,-188 1148.69,-166.21 1119.94,-143.48 1100.99,-131.52"/>
<polygon fill="midnightblue" stroke="midnightblue" points="1002.73,-274.12 994.2,-280.4 1004.78,-280.81 1002.73,-274.12"/>
</g>
<!-- Node2&#45;&gt;Node10 -->
<g id="edge12" class="edge">
<title>Node2&#45;&gt;Node10</title>
<path fill="none" stroke="midnightblue" d="M874.81,-286.12C753.76,-281.17 537.03,-269.08 463.03,-244 425.38,-231.24 387.48,-202.17 370,-187.62"/>
<polygon fill="midnightblue" stroke="midnightblue" points="875.01,-289.63 885.14,-286.53 875.29,-282.64 875.01,-289.63"/>
</g>
<!-- Node11 -->
<g id="node11" class="node">
<title>Node11</title>
<g id="a_node11"><a xlink:href="_o_m_sim_l_o_m18_8cc.html" target="_top" xlink:title="Construction of LOM18.">
<polygon fill="white" stroke="black" points="534.53,-112.5 534.53,-131.5 633.53,-131.5 633.53,-112.5 534.53,-112.5"/>
<text text-anchor="middle" x="584.03" y="-119.5" font-family="Helvetica,sans-Serif" font-size="10.00">OMSimLOM18.cc</text>
</a>
</g>
</g>
<!-- Node2&#45;&gt;Node11 -->
<g id="edge52" class="edge">
<title>Node2&#45;&gt;Node11</title>
<path fill="none" stroke="midnightblue" d="M875.14,-288.89C806.23,-286.18 707.26,-276.21 627.03,-244 587.76,-228.24 569.23,-225.71 550.03,-188 539.75,-167.8 560.2,-144.27 573.62,-131.8"/>
<polygon fill="midnightblue" stroke="midnightblue" points="875.4,-292.4 885.51,-289.25 875.64,-285.4 875.4,-292.4"/>
</g>
<!-- Node12 -->
<g id="node12" class="node">
<title>Node12</title>
<g id="a_node12"><a xlink:href="_o_m_sim_m_d_o_m_8hh.html" target="_top" xlink:title=" ">
<polygon fill="white" stroke="black" points="1183.03,-168.5 1183.03,-187.5 1283.03,-187.5 1283.03,-168.5 1183.03,-168.5"/>
<text text-anchor="middle" x="1233.03" y="-175.5" font-family="Helvetica,sans-Serif" font-size="10.00">OMSimMDOM.hh</text>
</a>
</g>
</g>
<!-- Node2&#45;&gt;Node12 -->
<g id="edge15" class="edge">
<title>Node2&#45;&gt;Node12</title>
<path fill="none" stroke="midnightblue" d="M1042.69,-282.33C1082.84,-276.39 1130.47,-265.18 1169.03,-244 1194.85,-229.82 1216.94,-201.93 1227.09,-187.74"/>
<polygon fill="midnightblue" stroke="midnightblue" points="1042.08,-278.88 1032.66,-283.73 1043.04,-285.81 1042.08,-278.88"/>
</g>
<!-- Node13 -->
<g id="node13" class="node">
<title>Node13</title>
<g id="a_node13"><a xlink:href="_o_m_sim_m_d_o_m_8cc.html" target="_top" xlink:title="Construction of mDOM.">
<polygon fill="white" stroke="black" points="1414.03,-112.5 1414.03,-131.5 1512.03,-131.5 1512.03,-112.5 1414.03,-112.5"/>
<text text-anchor="middle" x="1463.03" y="-119.5" font-family="Helvetica,sans-Serif" font-size="10.00">OMSimMDOM.cc</text>
</a>
</g>
</g>
<!-- Node2&#45;&gt;Node13 -->
<g id="edge53" class="edge">
<title>Node2&#45;&gt;Node13</title>
<path fill="none" stroke="midnightblue" d="M1042.79,-286.74C1173.84,-282.4 1415.45,-270.83 1444.03,-244 1475.97,-214.02 1468.81,-153.94 1464.8,-131.61"/>
<polygon fill="midnightblue" stroke="midnightblue" points="1042.66,-283.24 1032.77,-287.07 1042.88,-290.24 1042.66,-283.24"/>
</g>
<!-- Node14 -->
<g id="node14" class="node">
<title>Node14</title>
<g id="a_node14"><a xlink:href="_o_m_sim_m_d_o_m_flasher_8cc.html" target="_top" xlink:title=" ">
<polygon fill="white" stroke="black" points="1224.03,-112.5 1224.03,-131.5 1358.03,-131.5 1358.03,-112.5 1224.03,-112.5"/>
<text text-anchor="middle" x="1291.03" y="-119.5" font-family="Helvetica,sans-Serif" font-size="10.00">OMSimMDOMFlasher.cc</text>
</a>
</g>
</g>
<!-- Node2&#45;&gt;Node14 -->
<g id="edge54" class="edge">
<title>Node2&#45;&gt;Node14</title>
<path fill="none" stroke="midnightblue" d="M1042.71,-280C1088.68,-273.34 1146.13,-262.18 1195.03,-244 1241.69,-226.65 1267.14,-231.11 1292.03,-188 1302.3,-170.21 1297.46,-144.86 1293.81,-131.69"/>
<polygon fill="midnightblue" stroke="midnightblue" points="1042.2,-276.53 1032.78,-281.39 1043.17,-283.46 1042.2,-276.53"/>
</g>
<!-- Node15 -->
<g id="node15" class="node">
<title>Node15</title>
<g id="a_node15"><a xlink:href="_o_m_sim_m_d_o_m_harness_8cc.html" target="_top" xlink:title="Construction of mDOM harness.">
<polygon fill="white" stroke="black" points="1530.03,-112.5 1530.03,-131.5 1668.03,-131.5 1668.03,-112.5 1530.03,-112.5"/>
<text text-anchor="middle" x="1599.03" y="-119.5" font-family="Helvetica,sans-Serif" font-size="10.00">OMSimMDOMHarness.cc</text>
</a>
</g>
</g>
<!-- Node2&#45;&gt;Node15 -->
<g id="edge55" class="edge">
<title>Node2&#45;&gt;Node15</title>
<path fill="none" stroke="midnightblue" d="M1043.04,-287.89C1166.6,-285.18 1390.61,-275.9 1464.03,-244 1523.79,-218.04 1575.17,-154.95 1592.66,-131.75"/>
<polygon fill="midnightblue" stroke="midnightblue" points="1042.79,-284.39 1032.86,-288.1 1042.94,-291.39 1042.79,-284.39"/>
</g>
<!-- Node20 -->
<g id="node20" class="node">
<title>Node20</title>
<g id="a_node20"><a xlink:href="_o_m_sim_m_d_o_m_flasher_8hh.html" target="_top" xlink:title=" ">
<polygon fill="white" stroke="black" points="1299.53,-224.5 1299.53,-243.5 1434.53,-243.5 1434.53,-224.5 1299.53,-224.5"/>
<text text-anchor="middle" x="1367.03" y="-231.5" font-family="Helvetica,sans-Serif" font-size="10.00">OMSimMDOMFlasher.hh</text>
</a>
</g>
</g>
<!-- Node2&#45;&gt;Node20 -->
<g id="edge26" class="edge">
<title>Node2&#45;&gt;Node20</title>
<path fill="none" stroke="midnightblue" d="M1033.8,-279.1C1110.84,-268.91 1229.7,-253.18 1302.69,-243.52"/>
<polygon fill="midnightblue" stroke="midnightblue" points="1033.14,-275.66 1023.68,-280.44 1034.05,-282.6 1033.14,-275.66"/>
</g>
<!-- Node2&#45;&gt;Node21 -->
<g id="edge31" class="edge">
<title>Node2&#45;&gt;Node21</title>
<path fill="none" stroke="midnightblue" d="M1043.1,-282.88C1152.04,-274.79 1347.84,-259.72 1515.03,-244 1519.56,-243.57 1524.22,-243.12 1528.92,-242.65"/>
<polygon fill="midnightblue" stroke="midnightblue" points="1042.55,-279.41 1032.83,-283.64 1043.07,-286.39 1042.55,-279.41"/>
</g>
<!-- Node22 -->
<g id="node22" class="node">
<title>Node22</title>
<g id="a_node22"><a xlink:href="_o_m_sim_p_d_o_m_8hh.html" target="_top" xlink:title=" ">
<polygon fill="white" stroke="black" points="910.53,-168.5 910.53,-187.5 1007.53,-187.5 1007.53,-168.5 910.53,-168.5"/>
<text text-anchor="middle" x="959.03" y="-175.5" font-family="Helvetica,sans-Serif" font-size="10.00">OMSimPDOM.hh</text>
</a>
</g>
</g>
<!-- Node2&#45;&gt;Node22 -->
<g id="edge34" class="edge">
<title>Node2&#45;&gt;Node22</title>
<path fill="none" stroke="midnightblue" d="M959.03,-270.35C959.03,-246.25 959.03,-205.31 959.03,-187.59"/>
<polygon fill="midnightblue" stroke="midnightblue" points="955.53,-270.37 959.03,-280.37 962.53,-270.37 955.53,-270.37"/>
</g>
<!-- Node2&#45;&gt;Node24 -->
<g id="edge37" class="edge">
<title>Node2&#45;&gt;Node24</title>
<path fill="none" stroke="midnightblue" d="M909.61,-278.28C862.55,-268.08 792.66,-252.92 749.3,-243.52"/>
<polygon fill="midnightblue" stroke="midnightblue" points="909.06,-281.74 919.58,-280.44 910.55,-274.9 909.06,-281.74"/>
</g>
<!-- Node25 -->
<g id="node25" class="node">
<title>Node25</title>
<g id="a_node25"><a xlink:href="abc_detector_component_8cc.html" target="_top" xlink:title="Contains the implementation of the abcDetectorComponent class.">
<polygon fill="white" stroke="black" points="581.03,-168.5 581.03,-187.5 727.03,-187.5 727.03,-168.5 581.03,-168.5"/>
<text text-anchor="middle" x="654.03" y="-175.5" font-family="Helvetica,sans-Serif" font-size="10.00">abcDetectorComponent.cc</text>
</a>
</g>
</g>
<!-- Node2&#45;&gt;Node25 -->
<g id="edge48" class="edge">
<title>Node2&#45;&gt;Node25</title>
<path fill="none" stroke="midnightblue" d="M929.13,-276.55C896.25,-263.02 841.72,-241.04 794.03,-224 755.69,-210.3 710.78,-196.2 682.37,-187.52"/>
<polygon fill="midnightblue" stroke="midnightblue" points="928.04,-279.88 938.61,-280.47 930.71,-273.41 928.04,-279.88"/>
</g>
<!-- Node26 -->
<g id="node26" class="node">
<title>Node26</title>
<g id="a_node26"><a xlink:href="_o_m_sim_p_m_t_construction_8cc.html" target="_top" xlink:title="Construction of the PMTs.">
<polygon fill="white" stroke="black" points="745.53,-168.5 745.53,-187.5 892.53,-187.5 892.53,-168.5 745.53,-168.5"/>
<text text-anchor="middle" x="819.03" y="-175.5" font-family="Helvetica,sans-Serif" font-size="10.00">OMSimPMTConstruction.cc</text>
</a>
</g>
</g>
<!-- Node2&#45;&gt;Node26 -->
<g id="edge56" class="edge">
<title>Node2&#45;&gt;Node26</title>
<path fill="none" stroke="midnightblue" d="M940.09,-274.12C910.37,-250.77 853.74,-206.27 829.97,-187.59"/>
<polygon fill="midnightblue" stroke="midnightblue" points="938.02,-276.94 948.05,-280.37 942.35,-271.44 938.02,-276.94"/>
</g>
<!-- Node3&#45;&gt;Node4 -->
<g id="edge3" class="edge">
<title>Node3&#45;&gt;Node4</title>
<path fill="none" stroke="midnightblue" d="M171.36,-165.04C142.76,-154.88 102.42,-140.55 77,-131.52"/>
<polygon fill="midnightblue" stroke="midnightblue" points="170.35,-168.39 180.95,-168.44 172.7,-161.8 170.35,-168.39"/>
</g>
<!-- Node3&#45;&gt;Node5 -->
<g id="edge4" class="edge">
<title>Node3&#45;&gt;Node5</title>
<path fill="none" stroke="midnightblue" d="M198.25,-158.69C194.88,-149.59 190.96,-139.01 188.27,-131.75"/>
<polygon fill="midnightblue" stroke="midnightblue" points="194.97,-159.92 201.73,-168.08 201.54,-157.49 194.97,-159.92"/>
</g>
<!-- Node3&#45;&gt;Node6 -->
<g id="edge5" class="edge">
<title>Node3&#45;&gt;Node6</title>
<path fill="none" stroke="midnightblue" d="M262.8,-172.29C313.27,-166.79 387.83,-155.29 449.03,-132 465.06,-125.9 465.75,-117.39 482.03,-112 552.61,-88.65 757.19,-75.97 874.22,-70.44"/>
<polygon fill="midnightblue" stroke="midnightblue" points="262.3,-168.82 252.72,-173.34 263.03,-175.78 262.3,-168.82"/>
</g>
<!-- Node7&#45;&gt;Node4 -->
<g id="edge7" class="edge">
<title>Node7&#45;&gt;Node4</title>
<path fill="none" stroke="midnightblue" d="M76.37,-214.67C70.25,-190.62 59.75,-149.39 55.22,-131.59"/>
<polygon fill="midnightblue" stroke="midnightblue" points="72.98,-215.54 78.84,-224.37 79.76,-213.81 72.98,-215.54"/>
</g>
<!-- Node7&#45;&gt;Node5 -->
<g id="edge8" class="edge">
<title>Node7&#45;&gt;Node5</title>
<path fill="none" stroke="midnightblue" d="M96.26,-216.9C118.62,-193.25 159.55,-149.95 176.91,-131.59"/>
<polygon fill="midnightblue" stroke="midnightblue" points="93.52,-214.7 89.19,-224.37 98.61,-219.51 93.52,-214.7"/>
</g>
<!-- Node8&#45;&gt;Node6 -->
<g id="edge11" class="edge">
<title>Node8&#45;&gt;Node6</title>
<path fill="none" stroke="midnightblue" d="M1059.43,-161.45C1050.18,-152.79 1038.46,-141.8 1028.03,-132 1006.69,-111.94 981.67,-88.35 968.4,-75.84"/>
<polygon fill="midnightblue" stroke="midnightblue" points="1057.13,-164.1 1066.82,-168.38 1061.92,-158.99 1057.13,-164.1"/>
</g>
<!-- Node8&#45;&gt;Node9 -->
<g id="edge10" class="edge">
<title>Node8&#45;&gt;Node9</title>
<path fill="none" stroke="midnightblue" d="M1079.53,-158.1C1081.19,-149.14 1083.1,-138.86 1084.41,-131.75"/>
<polygon fill="midnightblue" stroke="midnightblue" points="1076.06,-157.61 1077.68,-168.08 1082.95,-158.89 1076.06,-157.61"/>
</g>
<!-- Node10&#45;&gt;Node6 -->
<g id="edge14" class="edge">
<title>Node10&#45;&gt;Node6</title>
<path fill="none" stroke="midnightblue" d="M394.61,-165.01C419.18,-156.3 452.85,-143.99 482.03,-132 501.9,-123.83 505.3,-117.63 526.03,-112 644.01,-79.97 785.76,-70.45 874.15,-67.78"/>
<polygon fill="midnightblue" stroke="midnightblue" points="393.27,-161.77 385.01,-168.39 395.6,-168.37 393.27,-161.77"/>
</g>
<!-- Node10&#45;&gt;Node11 -->
<g id="edge13" class="edge">
<title>Node10&#45;&gt;Node11</title>
<path fill="none" stroke="midnightblue" d="M405.3,-166.09C447.61,-155.89 509.94,-140.86 548.7,-131.52"/>
<polygon fill="midnightblue" stroke="midnightblue" points="404.43,-162.7 395.53,-168.44 406.07,-169.5 404.43,-162.7"/>
</g>
<!-- Node12&#45;&gt;Node6 -->
<g id="edge25" class="edge">
<title>Node12&#45;&gt;Node6</title>
<path fill="none" stroke="midnightblue" d="M1216.3,-161.41C1199.51,-146.59 1172.29,-124.73 1145.03,-112 1105.6,-93.59 1057.81,-82.24 1020.56,-75.54"/>
<polygon fill="midnightblue" stroke="midnightblue" points="1214.3,-164.32 1224.07,-168.43 1219,-159.13 1214.3,-164.32"/>
</g>
<!-- Node12&#45;&gt;Node13 -->
<g id="edge16" class="edge">
<title>Node12&#45;&gt;Node13</title>
<path fill="none" stroke="midnightblue" d="M1279.23,-166.15C1322.69,-155.95 1386.87,-140.88 1426.76,-131.52"/>
<polygon fill="midnightblue" stroke="midnightblue" points="1278.41,-162.75 1269.48,-168.44 1280.01,-169.57 1278.41,-162.75"/>
</g>
<!-- Node12&#45;&gt;Node14 -->
<g id="edge17" class="edge">
<title>Node12&#45;&gt;Node14</title>
<path fill="none" stroke="midnightblue" d="M1249.95,-161.25C1260.24,-151.67 1273,-139.79 1281.54,-131.83"/>
<polygon fill="midnightblue" stroke="midnightblue" points="1247.28,-158.95 1242.35,-168.32 1252.05,-164.07 1247.28,-158.95"/>
</g>
<!-- Node12&#45;&gt;Node15 -->
<g id="edge18" class="edge">
<title>Node12&#45;&gt;Node15</title>
<path fill="none" stroke="midnightblue" d="M1293.4,-168.09C1362.17,-157.95 1473.76,-141.48 1541.39,-131.51"/>
<polygon fill="midnightblue" stroke="midnightblue" points="1292.54,-164.68 1283.16,-169.6 1293.56,-171.61 1292.54,-164.68"/>
</g>
<!-- Node12&#45;&gt;Node16 -->
<g id="edge19" class="edge">
<title>Node12&#45;&gt;Node16</title>
<path fill="none" stroke="midnightblue" d="M1172.68,-171.07C1160.55,-169.97 1147.89,-168.89 1136.03,-168 1002.88,-157.99 613.54,-136.81 440.09,-127.52"/>
<polygon fill="midnightblue" stroke="midnightblue" points="1172.44,-174.56 1182.72,-171.99 1173.08,-167.59 1172.44,-174.56"/>
</g>
<!-- Node16&#45;&gt;Node6 -->
<g id="edge23" class="edge">
<title>Node16&#45;&gt;Node6</title>
<path fill="none" stroke="midnightblue" d="M450.16,-112.35C451.46,-112.23 452.75,-112.12 454.03,-112 601.75,-98.7 773.79,-83.42 874.14,-74.52"/>
<polygon fill="midnightblue" stroke="midnightblue" points="449.73,-108.87 440.09,-113.26 450.36,-115.84 449.73,-108.87"/>
</g>
<!-- Node17 -->
<g id="node17" class="node">
<title>Node17</title>
<g id="a_node17"><a xlink:href="_o_m_sim_8h.html" target="_top" xlink:title=" ">
<polygon fill="white" stroke="black" points="294.53,-56.5 294.53,-75.5 355.53,-75.5 355.53,-56.5 294.53,-56.5"/>
<text text-anchor="middle" x="325.03" y="-63.5" font-family="Helvetica,sans-Serif" font-size="10.00">OMSim.h</text>
</a>
</g>
</g>
<!-- Node16&#45;&gt;Node17 -->
<g id="edge20" class="edge">
<title>Node16&#45;&gt;Node17</title>
<path fill="none" stroke="midnightblue" d="M345.18,-103.27C340.06,-94.05 334.02,-83.17 329.89,-75.75"/>
<polygon fill="midnightblue" stroke="midnightblue" points="342.16,-105.04 350.08,-112.08 348.28,-101.64 342.16,-105.04"/>
</g>
<!-- Node19 -->
<g id="node19" class="node">
<title>Node19</title>
<g id="a_node19"><a xlink:href="_o_m_sim__effective__area_8cc.html" target="_top" xlink:title="Main for the calculation of effective areas.">
<polygon fill="white" stroke="black" points="314.03,-0.5 314.03,-19.5 454.03,-19.5 454.03,-0.5 314.03,-0.5"/>
<text text-anchor="middle" x="384.03" y="-7.5" font-family="Helvetica,sans-Serif" font-size="10.00">OMSim_effective_area.cc</text>
</a>
</g>
</g>
<!-- Node16&#45;&gt;Node19 -->
<g id="edge24" class="edge">
<title>Node16&#45;&gt;Node19</title>
<path fill="none" stroke="midnightblue" d="M359.86,-102.67C366.2,-78.62 377.08,-37.39 381.77,-19.59"/>
<polygon fill="midnightblue" stroke="midnightblue" points="356.47,-101.81 357.31,-112.37 363.24,-103.59 356.47,-101.81"/>
</g>
<!-- Node18 -->
<g id="node18" class="node">
<title>Node18</title>
<g id="a_node18"><a xlink:href="_o_m_sim_8cc.html" target="_top" xlink:title=" ">
<polygon fill="white" stroke="black" points="230.53,-0.5 230.53,-19.5 295.53,-19.5 295.53,-0.5 230.53,-0.5"/>
<text text-anchor="middle" x="263.03" y="-7.5" font-family="Helvetica,sans-Serif" font-size="10.00">OMSim.cc</text>
</a>
</g>
</g>
<!-- Node17&#45;&gt;Node18 -->
<g id="edge21" class="edge">
<title>Node17&#45;&gt;Node18</title>
<path fill="none" stroke="midnightblue" d="M307.28,-49.54C296.22,-39.91 282.4,-27.87 273.17,-19.83"/>
<polygon fill="midnightblue" stroke="midnightblue" points="305.23,-52.4 315.07,-56.32 309.83,-47.12 305.23,-52.4"/>
</g>
<!-- Node17&#45;&gt;Node19 -->
<g id="edge22" class="edge">
<title>Node17&#45;&gt;Node19</title>
<path fill="none" stroke="midnightblue" d="M341.93,-49.54C352.45,-39.91 365.6,-27.87 374.38,-19.83"/>
<polygon fill="midnightblue" stroke="midnightblue" points="339.53,-46.99 334.51,-56.32 344.25,-52.15 339.53,-46.99"/>
</g>
<!-- Node20&#45;&gt;Node6 -->
<g id="edge30" class="edge">
<title>Node20&#45;&gt;Node6</title>
<path fill="none" stroke="midnightblue" d="M1373.79,-214.51C1382.08,-188.21 1392.17,-140.07 1367.03,-112 1345.87,-88.38 1156.89,-75.85 1043.69,-70.41"/>
<polygon fill="midnightblue" stroke="midnightblue" points="1370.36,-213.73 1370.45,-224.33 1376.99,-215.98 1370.36,-213.73"/>
</g>
<!-- Node20&#45;&gt;Node12 -->
<g id="edge27" class="edge">
<title>Node20&#45;&gt;Node12</title>
<path fill="none" stroke="midnightblue" d="M1336.36,-220.64C1311.21,-210.5 1276.28,-196.43 1254.17,-187.52"/>
<polygon fill="midnightblue" stroke="midnightblue" points="1335.22,-223.95 1345.8,-224.44 1337.83,-217.46 1335.22,-223.95"/>
</g>
<!-- Node20&#45;&gt;Node13 -->
<g id="edge28" class="edge">
<title>Node20&#45;&gt;Node13</title>
<path fill="none" stroke="midnightblue" d="M1381.36,-216.59C1402.05,-192.87 1439.58,-149.87 1455.53,-131.59"/>
<polygon fill="midnightblue" stroke="midnightblue" points="1378.5,-214.53 1374.57,-224.37 1383.78,-219.14 1378.5,-214.53"/>
</g>
<!-- Node20&#45;&gt;Node14 -->
<g id="edge29" class="edge">
<title>Node20&#45;&gt;Node14</title>
<path fill="none" stroke="midnightblue" d="M1356.46,-215.9C1348.16,-202.66 1336.19,-183.95 1325.03,-168 1316.05,-155.16 1305.02,-140.79 1298,-131.82"/>
<polygon fill="midnightblue" stroke="midnightblue" points="1353.53,-217.82 1361.79,-224.45 1359.48,-214.12 1353.53,-217.82"/>
</g>
<!-- Node21&#45;&gt;Node13 -->
<g id="edge32" class="edge">
<title>Node21&#45;&gt;Node13</title>
<path fill="none" stroke="midnightblue" d="M1580.26,-217.82C1551.29,-194.39 1496.65,-150.19 1473.65,-131.59"/>
<polygon fill="midnightblue" stroke="midnightblue" points="1578.38,-220.8 1588.36,-224.37 1582.79,-215.36 1578.38,-220.8"/>
</g>
<!-- Node21&#45;&gt;Node15 -->
<g id="edge33" class="edge">
<title>Node21&#45;&gt;Node15</title>
<path fill="none" stroke="midnightblue" d="M1599.03,-214.35C1599.03,-190.25 1599.03,-149.31 1599.03,-131.59"/>
<polygon fill="midnightblue" stroke="midnightblue" points="1595.53,-214.37 1599.03,-224.37 1602.53,-214.37 1595.53,-214.37"/>
</g>
<!-- Node22&#45;&gt;Node6 -->
<g id="edge36" class="edge">
<title>Node22&#45;&gt;Node6</title>
<path fill="none" stroke="midnightblue" d="M959.03,-158.35C959.03,-134.25 959.03,-93.31 959.03,-75.59"/>
<polygon fill="midnightblue" stroke="midnightblue" points="955.53,-158.37 959.03,-168.37 962.53,-158.37 955.53,-158.37"/>
</g>
<!-- Node23 -->
<g id="node23" class="node">
<title>Node23</title>
<g id="a_node23"><a xlink:href="_o_m_sim_p_d_o_m_8cc.html" target="_top" xlink:title="Implementation of the pDOM/Gen1 DOM class.">
<polygon fill="white" stroke="black" points="763.53,-112.5 763.53,-131.5 858.53,-131.5 858.53,-112.5 763.53,-112.5"/>
<text text-anchor="middle" x="811.03" y="-119.5" font-family="Helvetica,sans-Serif" font-size="10.00">OMSimPDOM.cc</text>
</a>
</g>
</g>
<!-- Node22&#45;&gt;Node23 -->
<g id="edge35" class="edge">
<title>Node22&#45;&gt;Node23</title>
<path fill="none" stroke="midnightblue" d="M925.89,-164.91C898.06,-154.75 859.01,-140.51 834.37,-131.52"/>
<polygon fill="midnightblue" stroke="midnightblue" points="924.99,-168.3 935.58,-168.44 927.39,-161.73 924.99,-168.3"/>
</g>
<!-- Node24&#45;&gt;Node3 -->
<g id="edge38" class="edge">
<title>Node24&#45;&gt;Node3</title>
<path fill="none" stroke="midnightblue" d="M625.4,-223.95C518.42,-212.51 337.94,-193.21 252.54,-184.08"/>
<polygon fill="midnightblue" stroke="midnightblue" points="625.2,-227.45 635.52,-225.03 625.95,-220.49 625.2,-227.45"/>
</g>
<!-- Node24&#45;&gt;Node6 -->
<g id="edge47" class="edge">
<title>Node24&#45;&gt;Node6</title>
<path fill="none" stroke="midnightblue" d="M625.44,-223.41C580.29,-214.65 538.27,-198.26 561.03,-168 582.38,-139.62 811.6,-94.23 912.18,-75.51"/>
<polygon fill="midnightblue" stroke="midnightblue" points="624.94,-226.87 635.4,-225.21 626.18,-219.98 624.94,-226.87"/>
</g>
<!-- Node24&#45;&gt;Node8 -->
<g id="edge39" class="edge">
<title>Node24&#45;&gt;Node8</title>
<path fill="none" stroke="midnightblue" d="M778.99,-223.01C841.22,-213.97 935.28,-200.23 1017.03,-188 1019.8,-187.59 1022.64,-187.16 1025.5,-186.73"/>
<polygon fill="midnightblue" stroke="midnightblue" points="778.29,-219.57 768.9,-224.48 779.3,-226.5 778.29,-219.57"/>
</g>
<!-- Node24&#45;&gt;Node10 -->
<g id="edge40" class="edge">
<title>Node24&#45;&gt;Node10</title>
<path fill="none" stroke="midnightblue" d="M644.44,-222.88C576.67,-212.42 472.36,-196.33 410.69,-186.82"/>
<polygon fill="midnightblue" stroke="midnightblue" points="644.16,-226.38 654.57,-224.44 645.22,-219.46 644.16,-226.38"/>
</g>
<!-- Node24&#45;&gt;Node12 -->
<g id="edge41" class="edge">
<title>Node24&#45;&gt;Node12</title>
<path fill="none" stroke="midnightblue" d="M794.76,-224.25C904.79,-212.89 1093.35,-193.42 1182.94,-184.17"/>
<polygon fill="midnightblue" stroke="midnightblue" points="794.28,-220.78 784.69,-225.29 794.99,-227.75 794.28,-220.78"/>
</g>
<!-- Node24&#45;&gt;Node16 -->
<g id="edge46" class="edge">
<title>Node24&#45;&gt;Node16</title>
<path fill="none" stroke="midnightblue" d="M645.48,-222.67C603.7,-215.11 548.46,-203.48 501.03,-188 452.24,-172.07 397.72,-145.22 371.23,-131.55"/>
<polygon fill="midnightblue" stroke="midnightblue" points="645.07,-226.15 655.52,-224.45 646.29,-219.25 645.07,-226.15"/>
</g>
<!-- Node24&#45;&gt;Node22 -->
<g id="edge42" class="edge">
<title>Node24&#45;&gt;Node22</title>
<path fill="none" stroke="midnightblue" d="M759.46,-222.28C806.51,-212.08 876.4,-196.92 919.76,-187.52"/>
<polygon fill="midnightblue" stroke="midnightblue" points="758.52,-218.9 749.49,-224.44 760,-225.74 758.52,-218.9"/>
</g>
<!-- Node24&#45;&gt;Node23 -->
<g id="edge44" class="edge">
<title>Node24&#45;&gt;Node23</title>
<path fill="none" stroke="midnightblue" d="M635.17,-222.43C591.23,-213.06 548.54,-196.33 572.03,-168 595.85,-139.28 700.71,-128.77 763.35,-125.01"/>
<polygon fill="midnightblue" stroke="midnightblue" points="634.64,-225.9 645.13,-224.43 636.02,-219.03 634.64,-225.9"/>
</g>
<!-- Node24&#45;&gt;Node25 -->
<g id="edge43" class="edge">
<title>Node24&#45;&gt;Node25</title>
<path fill="none" stroke="midnightblue" d="M693.7,-217.25C683.77,-207.67 671.44,-195.79 663.19,-187.83"/>
<polygon fill="midnightblue" stroke="midnightblue" points="691.41,-219.9 701.03,-224.32 696.27,-214.86 691.41,-219.9"/>
</g>
<!-- Node24&#45;&gt;Node26 -->
<g id="edge45" class="edge">
<title>Node24&#45;&gt;Node26</title>
<path fill="none" stroke="midnightblue" d="M736.55,-219.86C756.76,-209.85 784.02,-196.35 801.56,-187.65"/>
<polygon fill="midnightblue" stroke="midnightblue" points="734.95,-216.75 727.54,-224.32 738.06,-223.02 734.95,-216.75"/>
</g>
</g>
</svg>
