<?xml version="1.0" encoding="UTF-8" standalone="no"?>
<!DOCTYPE svg PUBLIC "-//W3C//DTD SVG 1.1//EN"
 "http://www.w3.org/Graphics/SVG/1.1/DTD/svg11.dtd">
<!-- Generated by graphviz version 2.43.0 (0)
 -->
<!-- Title: /home/runner/work/OMSim/OMSim/common/include/OMSimDataFileTypes.hh Pages: 1 -->
<svg width="404pt" height="128pt"
 viewBox="0.00 0.00 404.00 128.00" xmlns="http://www.w3.org/2000/svg" xmlns:xlink="http://www.w3.org/1999/xlink">
<g id="graph0" class="graph" transform="scale(1 1) rotate(0) translate(4 124)">
<title>/home/runner/work/OMSim/OMSim/common/include/OMSimDataFileTypes.hh</title>
<polygon fill="white" stroke="transparent" points="-4,4 -4,-124 400,-124 400,4 -4,4"/>
<!-- Node1 -->
<g id="node1" class="node">
<title>Node1</title>
<g id="a_node1"><a xlink:title=" ">
<polygon fill="#bfbfbf" stroke="black" points="128,-78.5 128,-119.5 275,-119.5 275,-78.5 128,-78.5"/>
<text text-anchor="start" x="136" y="-107.5" font-family="Helvetica,sans-Serif" font-size="10.00">/home/runner/work/OMSim</text>
<text text-anchor="start" x="136" y="-96.5" font-family="Helvetica,sans-Serif" font-size="10.00">/OMSim/common/include</text>
<text text-anchor="middle" x="201.5" y="-85.5" font-family="Helvetica,sans-Serif" font-size="10.00">/OMSimDataFileTypes.hh</text>
</a>
</g>
</g>
<!-- Node2 -->
<g id="node2" class="node">
<title>Node2</title>
<g id="a_node2"><a xlink:href="_o_m_sim_data_file_types_8cc.html" target="_top" xlink:title="Collection of classes and methods to handle material creation from user data in json files.">
<polygon fill="white" stroke="black" points="0,-0.5 0,-41.5 197,-41.5 197,-0.5 0,-0.5"/>
<text text-anchor="start" x="8" y="-29.5" font-family="Helvetica,sans-Serif" font-size="10.00">/home/runner/work/OMSim</text>
<text text-anchor="start" x="8" y="-18.5" font-family="Helvetica,sans-Serif" font-size="10.00">/OMSim/common/src/OMSimDataFile</text>
<text text-anchor="middle" x="98.5" y="-7.5" font-family="Helvetica,sans-Serif" font-size="10.00">Types.cc</text>
</a>
</g>
</g>
<!-- Node1&#45;&gt;Node2 -->
<g id="edge1" class="edge">
<title>Node1&#45;&gt;Node2</title>
<path fill="none" stroke="midnightblue" d="M166.74,-72.35C153.08,-62.27 137.66,-50.89 124.94,-41.51"/>
<polygon fill="midnightblue" stroke="midnightblue" points="164.85,-75.31 174.97,-78.43 169.01,-69.67 164.85,-75.31"/>
</g>
<!-- Node3 -->
<g id="node3" class="node">
<title>Node3</title>
<g id="a_node3"><a xlink:href="_o_m_sim_input_data_8cc.html" target="_top" xlink:title="Input data from external files are read and saved to memory.">
<polygon fill="white" stroke="black" points="215,-0.5 215,-41.5 396,-41.5 396,-0.5 215,-0.5"/>
<text text-anchor="start" x="223" y="-29.5" font-family="Helvetica,sans-Serif" font-size="10.00">/home/runner/work/OMSim</text>
<text text-anchor="start" x="223" y="-18.5" font-family="Helvetica,sans-Serif" font-size="10.00">/OMSim/common/src/OMSimInput</text>
<text text-anchor="middle" x="305.5" y="-7.5" font-family="Helvetica,sans-Serif" font-size="10.00">Data.cc</text>
</a>
</g>
</g>
<!-- Node1&#45;&gt;Node3 -->
<g id="edge2" class="edge">
<title>Node1&#45;&gt;Node3</title>
<path fill="none" stroke="midnightblue" d="M236.6,-72.35C250.39,-62.27 265.96,-50.89 278.81,-41.51"/>
<polygon fill="midnightblue" stroke="midnightblue" points="234.29,-69.7 228.28,-78.43 238.42,-75.35 234.29,-69.7"/>
</g>
</g>
</svg>
