<?xml version="1.0" encoding="UTF-8" standalone="no"?>
<!DOCTYPE svg PUBLIC "-//W3C//DTD SVG 1.1//EN"
 "http://www.w3.org/Graphics/SVG/1.1/DTD/svg11.dtd">
<!-- Generated by graphviz version 2.43.0 (0)
 -->
<!-- Title: OMSimMDOMFlasher.hh Pages: 1 -->
<svg width="726pt" height="252pt"
 viewBox="0.00 0.00 725.50 252.00" xmlns="http://www.w3.org/2000/svg" xmlns:xlink="http://www.w3.org/1999/xlink">
<g id="graph0" class="graph" transform="scale(1 1) rotate(0) translate(4 248)">
<title>OMSimMDOMFlasher.hh</title>
<polygon fill="white" stroke="transparent" points="-4,4 -4,-248 721.5,-248 721.5,4 -4,4"/>
<!-- Node1 -->
<g id="node1" class="node">
<title>Node1</title>
<g id="a_node1"><a xlink:title=" ">
<polygon fill="#bfbfbf" stroke="black" points="430.5,-224.5 430.5,-243.5 565.5,-243.5 565.5,-224.5 430.5,-224.5"/>
<text text-anchor="middle" x="498" y="-231.5" font-family="Helvetica,sans-Serif" font-size="10.00">OMSimMDOMFlasher.hh</text>
</a>
</g>
</g>
<!-- Node2 -->
<g id="node2" class="node">
<title>Node2</title>
<g id="a_node2"><a xlink:href="_o_m_sim_m_d_o_m_8hh.html" target="_top" xlink:title=" ">
<polygon fill="white" stroke="black" points="373,-168.5 373,-187.5 473,-187.5 473,-168.5 373,-168.5"/>
<text text-anchor="middle" x="423" y="-175.5" font-family="Helvetica,sans-Serif" font-size="10.00">OMSimMDOM.hh</text>
</a>
</g>
</g>
<!-- Node1&#45;&gt;Node2 -->
<g id="edge1" class="edge">
<title>Node1&#45;&gt;Node2</title>
<path fill="none" stroke="midnightblue" d="M477.69,-218.38C464.14,-208.62 446.76,-196.11 435.27,-187.83"/>
<polygon fill="midnightblue" stroke="midnightblue" points="475.79,-221.32 485.95,-224.32 479.88,-215.64 475.79,-221.32"/>
</g>
<!-- Node10 -->
<g id="node10" class="node">
<title>Node10</title>
<g id="a_node10"><a xlink:href="_o_m_sim_detector_construction_8cc.html" target="_top" xlink:title="User defined detector.">
<polygon fill="white" stroke="black" points="548.5,-56.5 548.5,-75.5 717.5,-75.5 717.5,-56.5 548.5,-56.5"/>
<text text-anchor="middle" x="633" y="-63.5" font-family="Helvetica,sans-Serif" font-size="10.00">OMSimDetectorConstruction.cc</text>
</a>
</g>
</g>
<!-- Node1&#45;&gt;Node10 -->
<g id="edge11" class="edge">
<title>Node1&#45;&gt;Node10</title>
<path fill="none" stroke="midnightblue" d="M524.75,-219.61C554.35,-203.27 600.89,-172.7 624,-132 634.24,-113.97 634.47,-88.72 633.74,-75.63"/>
<polygon fill="midnightblue" stroke="midnightblue" points="522.95,-216.6 515.79,-224.41 526.26,-222.77 522.95,-216.6"/>
</g>
<!-- Node3 -->
<g id="node3" class="node">
<title>Node3</title>
<g id="a_node3"><a xlink:href="_o_m_sim_m_d_o_m_8cc.html" target="_top" xlink:title="Construction of mDOM.">
<polygon fill="white" stroke="black" points="0,-112.5 0,-131.5 98,-131.5 98,-112.5 0,-112.5"/>
<text text-anchor="middle" x="49" y="-119.5" font-family="Helvetica,sans-Serif" font-size="10.00">OMSimMDOM.cc</text>
</a>
</g>
</g>
<!-- Node2&#45;&gt;Node3 -->
<g id="edge2" class="edge">
<title>Node2&#45;&gt;Node3</title>
<path fill="none" stroke="midnightblue" d="M362.65,-168.63C299.03,-159.76 195.91,-145.23 107,-132 104.08,-131.57 101.07,-131.11 98.04,-130.65"/>
<polygon fill="midnightblue" stroke="midnightblue" points="362.51,-172.15 372.89,-170.06 363.47,-165.21 362.51,-172.15"/>
</g>
<!-- Node4 -->
<g id="node4" class="node">
<title>Node4</title>
<g id="a_node4"><a xlink:href="_o_m_sim_m_d_o_m_flasher_8cc.html" target="_top" xlink:title=" ">
<polygon fill="white" stroke="black" points="116,-112.5 116,-131.5 250,-131.5 250,-112.5 116,-112.5"/>
<text text-anchor="middle" x="183" y="-119.5" font-family="Helvetica,sans-Serif" font-size="10.00">OMSimMDOMFlasher.cc</text>
</a>
</g>
</g>
<!-- Node2&#45;&gt;Node4 -->
<g id="edge3" class="edge">
<title>Node2&#45;&gt;Node4</title>
<path fill="none" stroke="midnightblue" d="M375.08,-166.22C329.73,-156.01 262.56,-140.9 220.85,-131.52"/>
<polygon fill="midnightblue" stroke="midnightblue" points="374.45,-169.66 384.97,-168.44 375.98,-162.83 374.45,-169.66"/>
</g>
<!-- Node5 -->
<g id="node5" class="node">
<title>Node5</title>
<g id="a_node5"><a xlink:href="_o_m_sim_m_d_o_m_harness_8cc.html" target="_top" xlink:title="Construction of mDOM harness.">
<polygon fill="white" stroke="black" points="268,-112.5 268,-131.5 406,-131.5 406,-112.5 268,-112.5"/>
<text text-anchor="middle" x="337" y="-119.5" font-family="Helvetica,sans-Serif" font-size="10.00">OMSimMDOMHarness.cc</text>
</a>
</g>
</g>
<!-- Node2&#45;&gt;Node5 -->
<g id="edge4" class="edge">
<title>Node2&#45;&gt;Node5</title>
<path fill="none" stroke="midnightblue" d="M400.55,-162.9C384.78,-153 364.19,-140.07 350.78,-131.65"/>
<polygon fill="midnightblue" stroke="midnightblue" points="398.85,-165.97 409.18,-168.32 402.57,-160.04 398.85,-165.97"/>
</g>
<!-- Node6 -->
<g id="node6" class="node">
<title>Node6</title>
<g id="a_node6"><a xlink:href="_o_m_sim_detector_construction_8hh.html" target="_top" xlink:title=" ">
<polygon fill="white" stroke="black" points="424,-112.5 424,-131.5 594,-131.5 594,-112.5 424,-112.5"/>
<text text-anchor="middle" x="509" y="-119.5" font-family="Helvetica,sans-Serif" font-size="10.00">OMSimDetectorConstruction.hh</text>
</a>
</g>
</g>
<!-- Node2&#45;&gt;Node6 -->
<g id="edge5" class="edge">
<title>Node2&#45;&gt;Node6</title>
<path fill="none" stroke="midnightblue" d="M445.45,-162.9C461.22,-153 481.81,-140.07 495.22,-131.65"/>
<polygon fill="midnightblue" stroke="midnightblue" points="443.43,-160.04 436.82,-168.32 447.15,-165.97 443.43,-160.04"/>
</g>
<!-- Node2&#45;&gt;Node10 -->
<g id="edge10" class="edge">
<title>Node2&#45;&gt;Node10</title>
<path fill="none" stroke="midnightblue" d="M483.23,-174.93C521.33,-170.72 569.52,-159.72 603,-132 620.8,-117.25 628.57,-89.62 631.49,-75.61"/>
<polygon fill="midnightblue" stroke="midnightblue" points="482.89,-171.44 473.27,-175.9 483.57,-178.41 482.89,-171.44"/>
</g>
<!-- Node7 -->
<g id="node7" class="node">
<title>Node7</title>
<g id="a_node7"><a xlink:href="_o_m_sim_8hh.html" target="_top" xlink:title="Main simulation class for the Optical Module (OM) simulation.">
<polygon fill="white" stroke="black" points="463.5,-56.5 463.5,-75.5 530.5,-75.5 530.5,-56.5 463.5,-56.5"/>
<text text-anchor="middle" x="497" y="-63.5" font-family="Helvetica,sans-Serif" font-size="10.00">OMSim.hh</text>
</a>
</g>
</g>
<!-- Node6&#45;&gt;Node7 -->
<g id="edge6" class="edge">
<title>Node6&#45;&gt;Node7</title>
<path fill="none" stroke="midnightblue" d="M504.8,-102.1C502.81,-93.14 500.52,-82.86 498.94,-75.75"/>
<polygon fill="midnightblue" stroke="midnightblue" points="501.43,-103.08 507.02,-112.08 508.27,-101.56 501.43,-103.08"/>
</g>
<!-- Node6&#45;&gt;Node10 -->
<g id="edge9" class="edge">
<title>Node6&#45;&gt;Node10</title>
<path fill="none" stroke="midnightblue" d="M538.01,-108.37C561.23,-98.26 593.16,-84.35 613.44,-75.52"/>
<polygon fill="midnightblue" stroke="midnightblue" points="536.42,-105.24 528.65,-112.44 539.21,-111.66 536.42,-105.24"/>
</g>
<!-- Node8 -->
<g id="node8" class="node">
<title>Node8</title>
<g id="a_node8"><a xlink:href="_o_m_sim_8cc.html" target="_top" xlink:title=" ">
<polygon fill="white" stroke="black" points="404.5,-0.5 404.5,-19.5 469.5,-19.5 469.5,-0.5 404.5,-0.5"/>
<text text-anchor="middle" x="437" y="-7.5" font-family="Helvetica,sans-Serif" font-size="10.00">OMSim.cc</text>
</a>
</g>
</g>
<!-- Node7&#45;&gt;Node8 -->
<g id="edge7" class="edge">
<title>Node7&#45;&gt;Node8</title>
<path fill="none" stroke="midnightblue" d="M479.82,-49.54C469.12,-39.91 455.74,-27.87 446.82,-19.83"/>
<polygon fill="midnightblue" stroke="midnightblue" points="477.59,-52.24 487.36,-56.32 482.27,-47.03 477.59,-52.24"/>
</g>
<!-- Node9 -->
<g id="node9" class="node">
<title>Node9</title>
<g id="a_node9"><a xlink:href="_o_m_sim__effective__area_8cc.html" target="_top" xlink:title="Main for the calculation of effective areas.">
<polygon fill="white" stroke="black" points="488,-0.5 488,-19.5 628,-19.5 628,-0.5 488,-0.5"/>
<text text-anchor="middle" x="558" y="-7.5" font-family="Helvetica,sans-Serif" font-size="10.00">OMSim_effective_area.cc</text>
</a>
</g>
</g>
<!-- Node7&#45;&gt;Node9 -->
<g id="edge8" class="edge">
<title>Node7&#45;&gt;Node9</title>
<path fill="none" stroke="midnightblue" d="M514.47,-49.54C525.34,-39.91 538.94,-27.87 548.02,-19.83"/>
<polygon fill="midnightblue" stroke="midnightblue" points="511.97,-47.07 506.8,-56.32 516.61,-52.32 511.97,-47.07"/>
</g>
</g>
</svg>
