<?xml version="1.0" encoding="UTF-8" standalone="no"?>
<!DOCTYPE svg PUBLIC "-//W3C//DTD SVG 1.1//EN"
 "http://www.w3.org/Graphics/SVG/1.1/DTD/svg11.dtd">
<!-- Generated by graphviz version 2.43.0 (0)
 -->
<!-- Title: OMSimHitManager.hh Pages: 1 -->
<svg width="1423pt" height="140pt"
 viewBox="0.00 0.00 1422.50 140.00" xmlns="http://www.w3.org/2000/svg" xmlns:xlink="http://www.w3.org/1999/xlink">
<g id="graph0" class="graph" transform="scale(1 1) rotate(0) translate(4 136)">
<title>OMSimHitManager.hh</title>
<polygon fill="white" stroke="transparent" points="-4,4 -4,-136 1418.5,-136 1418.5,4 -4,4"/>
<!-- Node1 -->
<g id="node1" class="node">
<title>Node1</title>
<g id="a_node1"><a xlink:title="Defines structures and classes related to optical module photon hit management.">
<polygon fill="#bfbfbf" stroke="black" points="550.5,-112.5 550.5,-131.5 673.5,-131.5 673.5,-112.5 550.5,-112.5"/>
<text text-anchor="middle" x="612" y="-119.5" font-family="Helvetica,sans-Serif" font-size="10.00">OMSimHitManager.hh</text>
</a>
</g>
</g>
<!-- Node2 -->
<g id="node2" class="node">
<title>Node2</title>
<g id="a_node2"><a xlink:href="_o_m_sim_hit_manager_8cc.html" target="_top" xlink:title=" ">
<polygon fill="white" stroke="black" points="0,-56.5 0,-75.5 122,-75.5 122,-56.5 0,-56.5"/>
<text text-anchor="middle" x="61" y="-63.5" font-family="Helvetica,sans-Serif" font-size="10.00">OMSimHitManager.cc</text>
</a>
</g>
</g>
<!-- Node1&#45;&gt;Node2 -->
<g id="edge1" class="edge">
<title>Node1&#45;&gt;Node2</title>
<path fill="none" stroke="midnightblue" d="M540.46,-115.08C446.43,-107.13 276.17,-92.12 131,-76 128.08,-75.68 125.09,-75.33 122.07,-74.98"/>
<polygon fill="midnightblue" stroke="midnightblue" points="540.17,-118.57 550.43,-115.93 540.76,-111.6 540.17,-118.57"/>
</g>
<!-- Node3 -->
<g id="node3" class="node">
<title>Node3</title>
<g id="a_node3"><a xlink:href="_o_m_sim_tracking_action_8cc.html" target="_top" xlink:title=" ">
<polygon fill="white" stroke="black" points="140.5,-56.5 140.5,-75.5 277.5,-75.5 277.5,-56.5 140.5,-56.5"/>
<text text-anchor="middle" x="209" y="-63.5" font-family="Helvetica,sans-Serif" font-size="10.00">OMSimTrackingAction.cc</text>
</a>
</g>
</g>
<!-- Node1&#45;&gt;Node3 -->
<g id="edge2" class="edge">
<title>Node1&#45;&gt;Node3</title>
<path fill="none" stroke="midnightblue" d="M540.39,-111.4C464.39,-101.22 345.45,-85.28 272.64,-75.53"/>
<polygon fill="midnightblue" stroke="midnightblue" points="539.98,-114.88 550.35,-112.74 540.91,-107.94 539.98,-114.88"/>
</g>
<!-- Node4 -->
<g id="node4" class="node">
<title>Node4</title>
<g id="a_node4"><a xlink:href="_o_m_sim_effective_area_analyisis_8hh.html" target="_top" xlink:title=" ">
<polygon fill="white" stroke="black" points="296,-56.5 296,-75.5 472,-75.5 472,-56.5 296,-56.5"/>
<text text-anchor="middle" x="384" y="-63.5" font-family="Helvetica,sans-Serif" font-size="10.00">OMSimEffectiveAreaAnalyisis.hh</text>
</a>
</g>
</g>
<!-- Node1&#45;&gt;Node4 -->
<g id="edge3" class="edge">
<title>Node1&#45;&gt;Node4</title>
<path fill="none" stroke="midnightblue" d="M565.93,-110.09C522.85,-99.89 459.41,-84.86 419.96,-75.52"/>
<polygon fill="midnightblue" stroke="midnightblue" points="565.34,-113.54 575.87,-112.44 566.95,-106.73 565.34,-113.54"/>
</g>
<!-- Node6 -->
<g id="node6" class="node">
<title>Node6</title>
<g id="a_node6"><a xlink:href="_o_m_sim_effective_area_analyisis_8cc.html" target="_top" xlink:title=" ">
<polygon fill="white" stroke="black" points="412.5,-0.5 412.5,-19.5 587.5,-19.5 587.5,-0.5 412.5,-0.5"/>
<text text-anchor="middle" x="500" y="-7.5" font-family="Helvetica,sans-Serif" font-size="10.00">OMSimEffectiveAreaAnalyisis.cc</text>
</a>
</g>
</g>
<!-- Node1&#45;&gt;Node6 -->
<g id="edge7" class="edge">
<title>Node1&#45;&gt;Node6</title>
<path fill="none" stroke="midnightblue" d="M569.25,-108.9C551.48,-101.91 532,-91.37 519,-76 505.03,-59.49 501.32,-33.13 500.35,-19.61"/>
<polygon fill="midnightblue" stroke="midnightblue" points="568.3,-112.28 578.9,-112.43 570.71,-105.71 568.3,-112.28"/>
</g>
<!-- Node7 -->
<g id="node7" class="node">
<title>Node7</title>
<g id="a_node7"><a xlink:href="effective__area_2src_2_o_m_sim_detector_construction_8cc.html" target="_top" xlink:title=" ">
<polygon fill="white" stroke="black" points="527.5,-56.5 527.5,-75.5 696.5,-75.5 696.5,-56.5 527.5,-56.5"/>
<text text-anchor="middle" x="612" y="-63.5" font-family="Helvetica,sans-Serif" font-size="10.00">OMSimDetectorConstruction.cc</text>
</a>
</g>
</g>
<!-- Node1&#45;&gt;Node7 -->
<g id="edge6" class="edge">
<title>Node1&#45;&gt;Node7</title>
<path fill="none" stroke="midnightblue" d="M612,-101.8C612,-92.91 612,-82.78 612,-75.75"/>
<polygon fill="midnightblue" stroke="midnightblue" points="608.5,-102.08 612,-112.08 615.5,-102.08 608.5,-102.08"/>
</g>
<!-- Node8 -->
<g id="node8" class="node">
<title>Node8</title>
<g id="a_node8"><a xlink:href="_o_m_sim__radioactive__decays_8cc.html" target="_top" xlink:title=" ">
<polygon fill="white" stroke="black" points="714.5,-56.5 714.5,-75.5 879.5,-75.5 879.5,-56.5 714.5,-56.5"/>
<text text-anchor="middle" x="797" y="-63.5" font-family="Helvetica,sans-Serif" font-size="10.00">OMSim_radioactive_decays.cc</text>
</a>
</g>
</g>
<!-- Node1&#45;&gt;Node8 -->
<g id="edge8" class="edge">
<title>Node1&#45;&gt;Node8</title>
<path fill="none" stroke="midnightblue" d="M651.17,-109.57C686.07,-99.38 736.35,-84.7 767.82,-75.52"/>
<polygon fill="midnightblue" stroke="midnightblue" points="649.93,-106.28 641.31,-112.44 651.89,-113 649.93,-106.28"/>
</g>
<!-- Node9 -->
<g id="node9" class="node">
<title>Node9</title>
<g id="a_node9"><a xlink:href="_o_m_sim_decays_analysis_8cc.html" target="_top" xlink:title=" ">
<polygon fill="white" stroke="black" points="897.5,-56.5 897.5,-75.5 1040.5,-75.5 1040.5,-56.5 897.5,-56.5"/>
<text text-anchor="middle" x="969" y="-63.5" font-family="Helvetica,sans-Serif" font-size="10.00">OMSimDecaysAnalysis.cc</text>
</a>
</g>
</g>
<!-- Node1&#45;&gt;Node9 -->
<g id="edge9" class="edge">
<title>Node1&#45;&gt;Node9</title>
<path fill="none" stroke="midnightblue" d="M678.66,-110.92C746.11,-100.71 849.22,-85.12 912.7,-75.52"/>
<polygon fill="midnightblue" stroke="midnightblue" points="677.93,-107.49 668.57,-112.44 678.98,-114.41 677.93,-107.49"/>
</g>
<!-- Node10 -->
<g id="node10" class="node">
<title>Node10</title>
<g id="a_node10"><a xlink:href="radioactive__decays_2src_2_o_m_sim_detector_construction_8cc.html" target="_top" xlink:title=" ">
<polygon fill="white" stroke="black" points="1058.5,-56.5 1058.5,-75.5 1227.5,-75.5 1227.5,-56.5 1058.5,-56.5"/>
<text text-anchor="middle" x="1143" y="-63.5" font-family="Helvetica,sans-Serif" font-size="10.00">OMSimDetectorConstruction.cc</text>
</a>
</g>
</g>
<!-- Node1&#45;&gt;Node10 -->
<g id="edge10" class="edge">
<title>Node1&#45;&gt;Node10</title>
<path fill="none" stroke="midnightblue" d="M683.76,-113.7C781.36,-103.78 955.61,-86.06 1059.13,-75.53"/>
<polygon fill="midnightblue" stroke="midnightblue" points="683.29,-110.23 673.69,-114.73 683.99,-117.2 683.29,-110.23"/>
</g>
<!-- Node11 -->
<g id="node11" class="node">
<title>Node11</title>
<g id="a_node11"><a xlink:href="supernova_2src_2_o_m_sim_detector_construction_8cc.html" target="_top" xlink:title=" ">
<polygon fill="white" stroke="black" points="1245.5,-56.5 1245.5,-75.5 1414.5,-75.5 1414.5,-56.5 1245.5,-56.5"/>
<text text-anchor="middle" x="1330" y="-63.5" font-family="Helvetica,sans-Serif" font-size="10.00">OMSimDetectorConstruction.cc</text>
</a>
</g>
</g>
<!-- Node1&#45;&gt;Node11 -->
<g id="edge11" class="edge">
<title>Node1&#45;&gt;Node11</title>
<path fill="none" stroke="midnightblue" d="M683.89,-116.4C800.19,-108.83 1036.81,-92.89 1237,-76 1239.75,-75.77 1242.54,-75.53 1245.36,-75.28"/>
<polygon fill="midnightblue" stroke="midnightblue" points="683.45,-112.92 673.69,-117.06 683.9,-119.91 683.45,-112.92"/>
</g>
<!-- Node5 -->
<g id="node5" class="node">
<title>Node5</title>
<g id="a_node5"><a xlink:href="_o_m_sim__effective__area_8cc.html" target="_top" xlink:title="Main for the calculation of effective areas.">
<polygon fill="white" stroke="black" points="254,-0.5 254,-19.5 394,-19.5 394,-0.5 254,-0.5"/>
<text text-anchor="middle" x="324" y="-7.5" font-family="Helvetica,sans-Serif" font-size="10.00">OMSim_effective_area.cc</text>
</a>
</g>
</g>
<!-- Node4&#45;&gt;Node5 -->
<g id="edge4" class="edge">
<title>Node4&#45;&gt;Node5</title>
<path fill="none" stroke="midnightblue" d="M366.82,-49.54C356.12,-39.91 342.74,-27.87 333.82,-19.83"/>
<polygon fill="midnightblue" stroke="midnightblue" points="364.59,-52.24 374.36,-56.32 369.27,-47.03 364.59,-52.24"/>
</g>
<!-- Node4&#45;&gt;Node6 -->
<g id="edge5" class="edge">
<title>Node4&#45;&gt;Node6</title>
<path fill="none" stroke="midnightblue" d="M411.72,-52.1C433.39,-42.01 462.9,-28.27 481.71,-19.52"/>
<polygon fill="midnightblue" stroke="midnightblue" points="409.97,-49.05 402.38,-56.44 412.92,-55.4 409.97,-49.05"/>
</g>
</g>
</svg>
