<?xml version="1.0" encoding="UTF-8" standalone="no"?>
<!DOCTYPE svg PUBLIC "-//W3C//DTD SVG 1.1//EN"
 "http://www.w3.org/Graphics/SVG/1.1/DTD/svg11.dtd">
<!-- Generated by graphviz version 2.43.0 (0)
 -->
<!-- Title: OMSim_effective_area.cc Pages: 1 -->
<svg width="2477pt" height="308pt"
 viewBox="0.00 0.00 2476.50 308.00" xmlns="http://www.w3.org/2000/svg" xmlns:xlink="http://www.w3.org/1999/xlink">
<g id="graph0" class="graph" transform="scale(1 1) rotate(0) translate(4 304)">
<title>OMSim_effective_area.cc</title>
<polygon fill="white" stroke="transparent" points="-4,4 -4,-304 2472.5,-304 2472.5,4 -4,4"/>
<!-- Node1 -->
<g id="node1" class="node">
<title>Node1</title>
<g id="a_node1"><a xlink:title="Main for the calculation of effective areas.">
<polygon fill="#bfbfbf" stroke="black" points="1832,-280.5 1832,-299.5 1972,-299.5 1972,-280.5 1832,-280.5"/>
<text text-anchor="middle" x="1902" y="-287.5" font-family="Helvetica,sans-Serif" font-size="10.00">OMSim_effective_area.cc</text>
</a>
</g>
</g>
<!-- Node2 -->
<g id="node2" class="node">
<title>Node2</title>
<g id="a_node2"><a xlink:href="_o_m_sim_8hh.html" target="_top" xlink:title="Main simulation class for the Optical Module (OM) simulation.">
<polygon fill="white" stroke="black" points="1087.5,-224.5 1087.5,-243.5 1154.5,-243.5 1154.5,-224.5 1087.5,-224.5"/>
<text text-anchor="middle" x="1121" y="-231.5" font-family="Helvetica,sans-Serif" font-size="10.00">OMSim.hh</text>
</a>
</g>
</g>
<!-- Node1&#45;&gt;Node2 -->
<g id="edge1" class="edge">
<title>Node1&#45;&gt;Node2</title>
<path fill="none" stroke="midnightblue" d="M1831.66,-284.14C1673.56,-273.21 1293.89,-246.95 1164.81,-238.03"/>
<polygon fill="midnightblue" stroke="midnightblue" points="1164.75,-234.52 1154.53,-237.32 1164.27,-241.5 1164.75,-234.52"/>
</g>
<!-- Node29 -->
<g id="node29" class="node">
<title>Node29</title>
<g id="a_node29"><a xlink:href="_o_m_sim_angular_scan_8hh.html" target="_top" xlink:title="Defines the AngularScan class for configuring and running GPS beam with angular scans.">
<polygon fill="white" stroke="black" points="1838,-224.5 1838,-243.5 1966,-243.5 1966,-224.5 1838,-224.5"/>
<text text-anchor="middle" x="1902" y="-231.5" font-family="Helvetica,sans-Serif" font-size="10.00">OMSimAngularScan.hh</text>
</a>
</g>
</g>
<!-- Node1&#45;&gt;Node29 -->
<g id="edge28" class="edge">
<title>Node1&#45;&gt;Node29</title>
<path fill="none" stroke="midnightblue" d="M1902,-280.08C1902,-273.01 1902,-262.86 1902,-253.99"/>
<polygon fill="midnightblue" stroke="midnightblue" points="1905.5,-253.75 1902,-243.75 1898.5,-253.75 1905.5,-253.75"/>
</g>
<!-- Node31 -->
<g id="node31" class="node">
<title>Node31</title>
<g id="a_node31"><a xlink:href="_o_m_sim_effective_area_analyisis_8hh.html" target="_top" xlink:title=" ">
<polygon fill="white" stroke="black" points="1984,-224.5 1984,-243.5 2160,-243.5 2160,-224.5 1984,-224.5"/>
<text text-anchor="middle" x="2072" y="-231.5" font-family="Helvetica,sans-Serif" font-size="10.00">OMSimEffectiveAreaAnalyisis.hh</text>
</a>
</g>
</g>
<!-- Node1&#45;&gt;Node31 -->
<g id="edge30" class="edge">
<title>Node1&#45;&gt;Node31</title>
<path fill="none" stroke="midnightblue" d="M1928.94,-280.44C1957.66,-271.32 2003.33,-256.81 2035.32,-246.65"/>
<polygon fill="midnightblue" stroke="midnightblue" points="2036.72,-249.88 2045.19,-243.52 2034.6,-243.21 2036.72,-249.88"/>
</g>
<!-- Node3 -->
<g id="node3" class="node">
<title>Node3</title>
<g id="a_node3"><a xlink:title=" ">
<polygon fill="white" stroke="#bfbfbf" points="168,-168.5 168,-187.5 338,-187.5 338,-168.5 168,-168.5"/>
<text text-anchor="middle" x="253" y="-175.5" font-family="Helvetica,sans-Serif" font-size="10.00">OMSimDetectorConstruction.hh</text>
</a>
</g>
</g>
<!-- Node2&#45;&gt;Node3 -->
<g id="edge2" class="edge">
<title>Node2&#45;&gt;Node3</title>
<path fill="none" stroke="midnightblue" d="M1087.4,-231.5C980.93,-226.64 641.28,-210.4 348.44,-188.08"/>
<polygon fill="midnightblue" stroke="midnightblue" points="348.28,-184.56 338.04,-187.29 347.75,-191.54 348.28,-184.56"/>
</g>
<!-- Node4 -->
<g id="node4" class="node">
<title>Node4</title>
<g id="a_node4"><a xlink:title=" ">
<polygon fill="white" stroke="#bfbfbf" points="356.5,-168.5 356.5,-187.5 477.5,-187.5 477.5,-168.5 356.5,-168.5"/>
<text text-anchor="middle" x="417" y="-175.5" font-family="Helvetica,sans-Serif" font-size="10.00">OMSimPhysicsList.hh</text>
</a>
</g>
</g>
<!-- Node2&#45;&gt;Node4 -->
<g id="edge3" class="edge">
<title>Node2&#45;&gt;Node4</title>
<path fill="none" stroke="midnightblue" d="M1087.21,-231.31C993.64,-226.48 723.09,-211.49 487.68,-188.12"/>
<polygon fill="midnightblue" stroke="midnightblue" points="487.86,-184.62 477.56,-187.1 487.16,-191.58 487.86,-184.62"/>
</g>
<!-- Node5 -->
<g id="node5" class="node">
<title>Node5</title>
<g id="a_node5"><a xlink:href="_o_m_sim_primary_generator_action_8hh.html" target="_top" xlink:title=" ">
<polygon fill="white" stroke="black" points="495.5,-168.5 495.5,-187.5 680.5,-187.5 680.5,-168.5 495.5,-168.5"/>
<text text-anchor="middle" x="588" y="-175.5" font-family="Helvetica,sans-Serif" font-size="10.00">OMSimPrimaryGeneratorAction.hh</text>
</a>
</g>
</g>
<!-- Node2&#45;&gt;Node5 -->
<g id="edge4" class="edge">
<title>Node2&#45;&gt;Node5</title>
<path fill="none" stroke="midnightblue" d="M1087.25,-229.58C1007.13,-221.46 803.09,-200.79 682.1,-188.53"/>
<polygon fill="midnightblue" stroke="midnightblue" points="682.4,-185.05 672.1,-187.52 681.69,-192.01 682.4,-185.05"/>
</g>
<!-- Node7 -->
<g id="node7" class="node">
<title>Node7</title>
<g id="a_node7"><a xlink:title=" ">
<polygon fill="white" stroke="#bfbfbf" points="698,-168.5 698,-187.5 814,-187.5 814,-168.5 698,-168.5"/>
<text text-anchor="middle" x="756" y="-175.5" font-family="Helvetica,sans-Serif" font-size="10.00">OMSimRunAction.hh</text>
</a>
</g>
</g>
<!-- Node2&#45;&gt;Node7 -->
<g id="edge6" class="edge">
<title>Node2&#45;&gt;Node7</title>
<path fill="none" stroke="midnightblue" d="M1087.32,-228.02C1027.61,-219.18 902.15,-200.62 823.9,-189.05"/>
<polygon fill="midnightblue" stroke="midnightblue" points="824.06,-185.53 813.66,-187.53 823.04,-192.46 824.06,-185.53"/>
</g>
<!-- Node8 -->
<g id="node8" class="node">
<title>Node8</title>
<g id="a_node8"><a xlink:href="common_2framework_2include_2_o_m_sim_event_action_8hh.html" target="_top" xlink:title=" ">
<polygon fill="white" stroke="black" points="1743.5,-168.5 1743.5,-187.5 1868.5,-187.5 1868.5,-168.5 1743.5,-168.5"/>
<text text-anchor="middle" x="1806" y="-175.5" font-family="Helvetica,sans-Serif" font-size="10.00">OMSimEventAction.hh</text>
</a>
</g>
</g>
<!-- Node2&#45;&gt;Node8 -->
<g id="edge7" class="edge">
<title>Node2&#45;&gt;Node8</title>
<path fill="none" stroke="midnightblue" d="M1154.61,-231.14C1245.78,-225.96 1505.63,-210.34 1733.07,-188.04"/>
<polygon fill="midnightblue" stroke="midnightblue" points="1733.58,-191.51 1743.19,-187.04 1732.9,-184.54 1733.58,-191.51"/>
</g>
<!-- Node12 -->
<g id="node12" class="node">
<title>Node12</title>
<g id="a_node12"><a xlink:href="_o_m_sim_tracking_action_8hh.html" target="_top" xlink:title=" ">
<polygon fill="white" stroke="black" points="1130,-168.5 1130,-187.5 1268,-187.5 1268,-168.5 1130,-168.5"/>
<text text-anchor="middle" x="1199" y="-175.5" font-family="Helvetica,sans-Serif" font-size="10.00">OMSimTrackingAction.hh</text>
</a>
</g>
</g>
<!-- Node2&#45;&gt;Node12 -->
<g id="edge11" class="edge">
<title>Node2&#45;&gt;Node12</title>
<path fill="none" stroke="midnightblue" d="M1133.53,-224.32C1145.59,-215.98 1164.03,-203.21 1178.27,-193.35"/>
<polygon fill="midnightblue" stroke="midnightblue" points="1180.27,-196.22 1186.5,-187.65 1176.28,-190.47 1180.27,-196.22"/>
</g>
<!-- Node14 -->
<g id="node14" class="node">
<title>Node14</title>
<g id="a_node14"><a xlink:title=" ">
<polygon fill="white" stroke="#bfbfbf" points="972,-168.5 972,-187.5 1112,-187.5 1112,-168.5 972,-168.5"/>
<text text-anchor="middle" x="1042" y="-175.5" font-family="Helvetica,sans-Serif" font-size="10.00">OMSimSteppingAction.hh</text>
</a>
</g>
</g>
<!-- Node2&#45;&gt;Node14 -->
<g id="edge13" class="edge">
<title>Node2&#45;&gt;Node14</title>
<path fill="none" stroke="midnightblue" d="M1108.31,-224.32C1096.1,-215.98 1077.42,-203.21 1063,-193.35"/>
<polygon fill="midnightblue" stroke="midnightblue" points="1064.89,-190.41 1054.66,-187.65 1060.94,-196.19 1064.89,-190.41"/>
</g>
<!-- Node15 -->
<g id="node15" class="node">
<title>Node15</title>
<g id="a_node15"><a xlink:href="_o_m_sim_u_iinterface_8hh.html" target="_top" xlink:title="The OMSimUIinterface class provides a singleton interface to Geant4&#39;s UI manager.">
<polygon fill="white" stroke="black" points="832.5,-168.5 832.5,-187.5 953.5,-187.5 953.5,-168.5 832.5,-168.5"/>
<text text-anchor="middle" x="893" y="-175.5" font-family="Helvetica,sans-Serif" font-size="10.00">OMSimUIinterface.hh</text>
</a>
</g>
</g>
<!-- Node2&#45;&gt;Node15 -->
<g id="edge14" class="edge">
<title>Node2&#45;&gt;Node15</title>
<path fill="none" stroke="midnightblue" d="M1087.36,-225.03C1048.06,-215.72 982.83,-200.27 938.9,-189.87"/>
<polygon fill="midnightblue" stroke="midnightblue" points="939.58,-186.43 929.04,-187.54 937.96,-193.25 939.58,-186.43"/>
</g>
<!-- Node24 -->
<g id="node24" class="node">
<title>Node24</title>
<g id="a_node24"><a xlink:title=" ">
<polygon fill="white" stroke="#bfbfbf" points="1286,-168.5 1286,-187.5 1392,-187.5 1392,-168.5 1286,-168.5"/>
<text text-anchor="middle" x="1339" y="-175.5" font-family="Helvetica,sans-Serif" font-size="10.00">G4RunManager.hh</text>
</a>
</g>
</g>
<!-- Node2&#45;&gt;Node24 -->
<g id="edge23" class="edge">
<title>Node2&#45;&gt;Node24</title>
<path fill="none" stroke="midnightblue" d="M1154.58,-224.68C1192.21,-215.36 1253.35,-200.22 1294.82,-189.94"/>
<polygon fill="midnightblue" stroke="midnightblue" points="1295.79,-193.31 1304.66,-187.51 1294.11,-186.51 1295.79,-193.31"/>
</g>
<!-- Node25 -->
<g id="node25" class="node">
<title>Node25</title>
<g id="a_node25"><a xlink:title=" ">
<polygon fill="white" stroke="#bfbfbf" points="1410.5,-168.5 1410.5,-187.5 1517.5,-187.5 1517.5,-168.5 1410.5,-168.5"/>
<text text-anchor="middle" x="1464" y="-175.5" font-family="Helvetica,sans-Serif" font-size="10.00">G4VisExecutive.hh</text>
</a>
</g>
</g>
<!-- Node2&#45;&gt;Node25 -->
<g id="edge24" class="edge">
<title>Node2&#45;&gt;Node25</title>
<path fill="none" stroke="midnightblue" d="M1154.51,-227.72C1211.34,-218.78 1327.52,-200.49 1400.25,-189.04"/>
<polygon fill="midnightblue" stroke="midnightblue" points="1400.88,-192.48 1410.21,-187.47 1399.79,-185.57 1400.88,-192.48"/>
</g>
<!-- Node26 -->
<g id="node26" class="node">
<title>Node26</title>
<g id="a_node26"><a xlink:title=" ">
<polygon fill="white" stroke="#bfbfbf" points="1535.5,-168.5 1535.5,-187.5 1638.5,-187.5 1638.5,-168.5 1535.5,-168.5"/>
<text text-anchor="middle" x="1587" y="-175.5" font-family="Helvetica,sans-Serif" font-size="10.00">G4UIExecutive.hh</text>
</a>
</g>
</g>
<!-- Node2&#45;&gt;Node26 -->
<g id="edge25" class="edge">
<title>Node2&#45;&gt;Node26</title>
<path fill="none" stroke="midnightblue" d="M1154.65,-229.67C1222.58,-222.87 1381.15,-206.53 1525.51,-188.02"/>
<polygon fill="midnightblue" stroke="midnightblue" points="1525.96,-191.49 1535.43,-186.74 1525.07,-184.55 1525.96,-191.49"/>
</g>
<!-- Node27 -->
<g id="node27" class="node">
<title>Node27</title>
<g id="a_node27"><a xlink:title=" ">
<polygon fill="white" stroke="#bfbfbf" points="1657,-168.5 1657,-187.5 1725,-187.5 1725,-168.5 1657,-168.5"/>
<text text-anchor="middle" x="1691" y="-175.5" font-family="Helvetica,sans-Serif" font-size="10.00">filesystem</text>
</a>
</g>
</g>
<!-- Node2&#45;&gt;Node27 -->
<g id="edge26" class="edge">
<title>Node2&#45;&gt;Node27</title>
<path fill="none" stroke="midnightblue" d="M1154.69,-231.48C1238.36,-227.41 1462.18,-214.72 1647,-188 1647.1,-187.99 1647.2,-187.97 1647.3,-187.96"/>
<polygon fill="midnightblue" stroke="midnightblue" points="1647.66,-191.44 1656.96,-186.37 1646.52,-184.54 1647.66,-191.44"/>
</g>
<!-- Node28 -->
<g id="node28" class="node">
<title>Node28</title>
<g id="a_node28"><a xlink:title=" ">
<polygon fill="white" stroke="#bfbfbf" points="0,-168.5 0,-187.5 150,-187.5 150,-168.5 0,-168.5"/>
<text text-anchor="middle" x="75" y="-175.5" font-family="Helvetica,sans-Serif" font-size="10.00">boost/program_options.hpp</text>
</a>
</g>
</g>
<!-- Node2&#45;&gt;Node28 -->
<g id="edge27" class="edge">
<title>Node2&#45;&gt;Node28</title>
<path fill="none" stroke="midnightblue" d="M1087.3,-232.16C964.6,-228.93 529.95,-216.15 160.18,-188.04"/>
<polygon fill="midnightblue" stroke="midnightblue" points="160.32,-184.54 150.09,-187.27 159.79,-191.52 160.32,-184.54"/>
</g>
<!-- Node6 -->
<g id="node6" class="node">
<title>Node6</title>
<g id="a_node6"><a xlink:title=" ">
<polygon fill="white" stroke="#bfbfbf" points="492,-112.5 492,-131.5 684,-131.5 684,-112.5 492,-112.5"/>
<text text-anchor="middle" x="588" y="-119.5" font-family="Helvetica,sans-Serif" font-size="10.00">G4VUserPrimaryGeneratorAction.hh</text>
</a>
</g>
</g>
<!-- Node5&#45;&gt;Node6 -->
<g id="edge5" class="edge">
<title>Node5&#45;&gt;Node6</title>
<path fill="none" stroke="midnightblue" d="M588,-168.08C588,-161.01 588,-150.86 588,-141.99"/>
<polygon fill="midnightblue" stroke="midnightblue" points="591.5,-141.75 588,-131.75 584.5,-141.75 591.5,-141.75"/>
</g>
<!-- Node9 -->
<g id="node9" class="node">
<title>Node9</title>
<g id="a_node9"><a xlink:title=" ">
<polygon fill="white" stroke="#bfbfbf" points="1755,-112.5 1755,-131.5 1881,-131.5 1881,-112.5 1755,-112.5"/>
<text text-anchor="middle" x="1818" y="-119.5" font-family="Helvetica,sans-Serif" font-size="10.00">G4UserEventAction.hh</text>
</a>
</g>
</g>
<!-- Node8&#45;&gt;Node9 -->
<g id="edge8" class="edge">
<title>Node8&#45;&gt;Node9</title>
<path fill="none" stroke="midnightblue" d="M1807.98,-168.08C1809.57,-160.93 1811.86,-150.64 1813.85,-141.69"/>
<polygon fill="midnightblue" stroke="midnightblue" points="1817.3,-142.27 1816.06,-131.75 1810.47,-140.75 1817.3,-142.27"/>
</g>
<!-- Node10 -->
<g id="node10" class="node">
<title>Node10</title>
<g id="a_node10"><a xlink:title=" ">
<polygon fill="white" stroke="#bfbfbf" points="1693,-112.5 1693,-131.5 1737,-131.5 1737,-112.5 1693,-112.5"/>
<text text-anchor="middle" x="1715" y="-119.5" font-family="Helvetica,sans-Serif" font-size="10.00">string</text>
</a>
</g>
</g>
<!-- Node8&#45;&gt;Node10 -->
<g id="edge9" class="edge">
<title>Node8&#45;&gt;Node10</title>
<path fill="none" stroke="midnightblue" d="M1791.38,-168.32C1777.05,-159.82 1754.99,-146.73 1738.25,-136.8"/>
<polygon fill="midnightblue" stroke="midnightblue" points="1739.97,-133.75 1729.58,-131.65 1736.4,-139.77 1739.97,-133.75"/>
</g>
<!-- Node11 -->
<g id="node11" class="node">
<title>Node11</title>
<g id="a_node11"><a xlink:title=" ">
<polygon fill="white" stroke="#bfbfbf" points="2043.5,-56.5 2043.5,-75.5 2116.5,-75.5 2116.5,-56.5 2043.5,-56.5"/>
<text text-anchor="middle" x="2080" y="-63.5" font-family="Helvetica,sans-Serif" font-size="10.00">G4Types.hh</text>
</a>
</g>
</g>
<!-- Node8&#45;&gt;Node11 -->
<g id="edge10" class="edge">
<title>Node8&#45;&gt;Node11</title>
<path fill="none" stroke="midnightblue" d="M1827.5,-168.37C1875.82,-148.97 1993.14,-101.87 2049.19,-79.37"/>
<polygon fill="midnightblue" stroke="midnightblue" points="2050.62,-82.57 2058.6,-75.59 2048.02,-76.07 2050.62,-82.57"/>
</g>
<!-- Node13 -->
<g id="node13" class="node">
<title>Node13</title>
<g id="a_node13"><a xlink:title=" ">
<polygon fill="white" stroke="#bfbfbf" points="1136.5,-112.5 1136.5,-131.5 1275.5,-131.5 1275.5,-112.5 1136.5,-112.5"/>
<text text-anchor="middle" x="1206" y="-119.5" font-family="Helvetica,sans-Serif" font-size="10.00">G4UserTrackingAction.hh</text>
</a>
</g>
</g>
<!-- Node12&#45;&gt;Node13 -->
<g id="edge12" class="edge">
<title>Node12&#45;&gt;Node13</title>
<path fill="none" stroke="midnightblue" d="M1200.16,-168.08C1201.08,-160.93 1202.42,-150.64 1203.58,-141.69"/>
<polygon fill="midnightblue" stroke="midnightblue" points="1207.05,-142.12 1204.87,-131.75 1200.11,-141.22 1207.05,-142.12"/>
</g>
<!-- Node16 -->
<g id="node16" class="node">
<title>Node16</title>
<g id="a_node16"><a xlink:href="_o_m_sim_command_args_table_8hh.html" target="_top" xlink:title="Definition of the OMSimCommandArgsTable singleton class, which controls user args.">
<polygon fill="white" stroke="black" points="954,-112.5 954,-131.5 1118,-131.5 1118,-112.5 954,-112.5"/>
<text text-anchor="middle" x="1036" y="-119.5" font-family="Helvetica,sans-Serif" font-size="10.00">OMSimCommandArgsTable.hh</text>
</a>
</g>
</g>
<!-- Node15&#45;&gt;Node16 -->
<g id="edge15" class="edge">
<title>Node15&#45;&gt;Node16</title>
<path fill="none" stroke="midnightblue" d="M915.66,-168.44C939.4,-159.48 976.91,-145.31 1003.74,-135.18"/>
<polygon fill="midnightblue" stroke="midnightblue" points="1005.33,-138.32 1013.45,-131.52 1002.86,-131.77 1005.33,-138.32"/>
</g>
<!-- Node23 -->
<g id="node23" class="node">
<title>Node23</title>
<g id="a_node23"><a xlink:title=" ">
<polygon fill="white" stroke="#bfbfbf" points="838,-112.5 838,-131.5 936,-131.5 936,-112.5 838,-112.5"/>
<text text-anchor="middle" x="887" y="-119.5" font-family="Helvetica,sans-Serif" font-size="10.00">G4UImanager.hh</text>
</a>
</g>
</g>
<!-- Node15&#45;&gt;Node23 -->
<g id="edge22" class="edge">
<title>Node15&#45;&gt;Node23</title>
<path fill="none" stroke="midnightblue" d="M892.01,-168.08C891.21,-160.93 890.07,-150.64 889.08,-141.69"/>
<polygon fill="midnightblue" stroke="midnightblue" points="892.56,-141.3 887.97,-131.75 885.6,-142.08 892.56,-141.3"/>
</g>
<!-- Node17 -->
<g id="node17" class="node">
<title>Node17</title>
<g id="a_node17"><a xlink:href="_o_m_sim_logger_8hh.html" target="_top" xlink:title=" ">
<polygon fill="white" stroke="black" points="986.5,-56.5 986.5,-75.5 1085.5,-75.5 1085.5,-56.5 986.5,-56.5"/>
<text text-anchor="middle" x="1036" y="-63.5" font-family="Helvetica,sans-Serif" font-size="10.00">OMSimLogger.hh</text>
</a>
</g>
</g>
<!-- Node16&#45;&gt;Node17 -->
<g id="edge16" class="edge">
<title>Node16&#45;&gt;Node17</title>
<path fill="none" stroke="midnightblue" d="M1036,-112.08C1036,-105.01 1036,-94.86 1036,-85.99"/>
<polygon fill="midnightblue" stroke="midnightblue" points="1039.5,-85.75 1036,-75.75 1032.5,-85.75 1039.5,-85.75"/>
</g>
<!-- Node20 -->
<g id="node20" class="node">
<title>Node20</title>
<g id="a_node20"><a xlink:title=" ">
<polygon fill="white" stroke="#bfbfbf" points="1954.5,-56.5 1954.5,-75.5 2009.5,-75.5 2009.5,-56.5 1954.5,-56.5"/>
<text text-anchor="middle" x="1982" y="-63.5" font-family="Helvetica,sans-Serif" font-size="10.00">fstream</text>
</a>
</g>
</g>
<!-- Node16&#45;&gt;Node20 -->
<g id="edge19" class="edge">
<title>Node16&#45;&gt;Node20</title>
<path fill="none" stroke="midnightblue" d="M1118.33,-112.69C1121.25,-112.45 1124.15,-112.22 1127,-112 1442.45,-88.11 1824.33,-72.84 1944.17,-68.37"/>
<polygon fill="midnightblue" stroke="midnightblue" points="1944.43,-71.86 1954.29,-67.99 1944.17,-64.87 1944.43,-71.86"/>
</g>
<!-- Node21 -->
<g id="node21" class="node">
<title>Node21</title>
<g id="a_node21"><a xlink:title=" ">
<polygon fill="white" stroke="#bfbfbf" points="1104,-56.5 1104,-75.5 1188,-75.5 1188,-56.5 1104,-56.5"/>
<text text-anchor="middle" x="1146" y="-63.5" font-family="Helvetica,sans-Serif" font-size="10.00">boost/any.hpp</text>
</a>
</g>
</g>
<!-- Node16&#45;&gt;Node21 -->
<g id="edge20" class="edge">
<title>Node16&#45;&gt;Node21</title>
<path fill="none" stroke="midnightblue" d="M1053.67,-112.32C1071.39,-103.62 1098.9,-90.12 1119.29,-80.11"/>
<polygon fill="midnightblue" stroke="midnightblue" points="1120.94,-83.2 1128.37,-75.65 1117.85,-76.92 1120.94,-83.2"/>
</g>
<!-- Node22 -->
<g id="node22" class="node">
<title>Node22</title>
<g id="a_node22"><a xlink:title=" ">
<polygon fill="white" stroke="#bfbfbf" points="900,-56.5 900,-75.5 968,-75.5 968,-56.5 900,-56.5"/>
<text text-anchor="middle" x="934" y="-63.5" font-family="Helvetica,sans-Serif" font-size="10.00">sys/time.h</text>
</a>
</g>
</g>
<!-- Node16&#45;&gt;Node22 -->
<g id="edge21" class="edge">
<title>Node16&#45;&gt;Node22</title>
<path fill="none" stroke="midnightblue" d="M1019.61,-112.32C1003.33,-103.7 978.13,-90.36 959.28,-80.39"/>
<polygon fill="midnightblue" stroke="midnightblue" points="960.82,-77.24 950.35,-75.65 957.55,-83.43 960.82,-77.24"/>
</g>
<!-- Node18 -->
<g id="node18" class="node">
<title>Node18</title>
<g id="a_node18"><a xlink:title=" ">
<polygon fill="white" stroke="#bfbfbf" points="977,-0.5 977,-19.5 1027,-19.5 1027,-0.5 977,-0.5"/>
<text text-anchor="middle" x="1002" y="-7.5" font-family="Helvetica,sans-Serif" font-size="10.00">stdio.h</text>
</a>
</g>
</g>
<!-- Node17&#45;&gt;Node18 -->
<g id="edge17" class="edge">
<title>Node17&#45;&gt;Node18</title>
<path fill="none" stroke="midnightblue" d="M1030.39,-56.08C1025.63,-48.53 1018.68,-37.49 1012.85,-28.23"/>
<polygon fill="midnightblue" stroke="midnightblue" points="1015.8,-26.35 1007.51,-19.75 1009.88,-30.08 1015.8,-26.35"/>
</g>
<!-- Node19 -->
<g id="node19" class="node">
<title>Node19</title>
<g id="a_node19"><a xlink:title=" ">
<polygon fill="white" stroke="#bfbfbf" points="1045,-0.5 1045,-19.5 1093,-19.5 1093,-0.5 1045,-0.5"/>
<text text-anchor="middle" x="1069" y="-7.5" font-family="Helvetica,sans-Serif" font-size="10.00">time.h</text>
</a>
</g>
</g>
<!-- Node17&#45;&gt;Node19 -->
<g id="edge18" class="edge">
<title>Node17&#45;&gt;Node19</title>
<path fill="none" stroke="midnightblue" d="M1041.45,-56.08C1046.01,-48.61 1052.67,-37.72 1058.29,-28.52"/>
<polygon fill="midnightblue" stroke="midnightblue" points="1061.42,-30.11 1063.65,-19.75 1055.45,-26.46 1061.42,-30.11"/>
</g>
<!-- Node30 -->
<g id="node30" class="node">
<title>Node30</title>
<g id="a_node30"><a xlink:title=" ">
<polygon fill="white" stroke="#bfbfbf" points="1886.5,-168.5 1886.5,-187.5 1953.5,-187.5 1953.5,-168.5 1886.5,-168.5"/>
<text text-anchor="middle" x="1920" y="-175.5" font-family="Helvetica,sans-Serif" font-size="10.00">globals.hh</text>
</a>
</g>
</g>
<!-- Node29&#45;&gt;Node30 -->
<g id="edge29" class="edge">
<title>Node29&#45;&gt;Node30</title>
<path fill="none" stroke="midnightblue" d="M1904.97,-224.08C1907.38,-216.85 1910.86,-206.41 1913.87,-197.4"/>
<polygon fill="midnightblue" stroke="midnightblue" points="1917.24,-198.34 1917.08,-187.75 1910.6,-196.13 1917.24,-198.34"/>
</g>
<!-- Node31&#45;&gt;Node20 -->
<g id="edge42" class="edge">
<title>Node31&#45;&gt;Node20</title>
<path fill="none" stroke="midnightblue" d="M2064.48,-224.43C2050.18,-207.75 2018.94,-169.27 2001,-132 1993.83,-117.1 1988.8,-98.96 1985.73,-85.63"/>
<polygon fill="midnightblue" stroke="midnightblue" points="1989.13,-84.78 1983.6,-75.74 1982.28,-86.26 1989.13,-84.78"/>
</g>
<!-- Node32 -->
<g id="node32" class="node">
<title>Node32</title>
<g id="a_node32"><a xlink:href="_o_m_sim_p_m_t_response_8hh.html" target="_top" xlink:title="PMT response simulator.">
<polygon fill="white" stroke="black" points="2170.5,-112.5 2170.5,-131.5 2305.5,-131.5 2305.5,-112.5 2170.5,-112.5"/>
<text text-anchor="middle" x="2238" y="-119.5" font-family="Helvetica,sans-Serif" font-size="10.00">OMSimPMTResponse.hh</text>
</a>
</g>
</g>
<!-- Node31&#45;&gt;Node32 -->
<g id="edge31" class="edge">
<title>Node31&#45;&gt;Node32</title>
<path fill="none" stroke="midnightblue" d="M2139.97,-224.43C2165.89,-218.1 2193.98,-207.1 2214,-188 2226.76,-175.82 2232.78,-156.27 2235.59,-141.79"/>
<polygon fill="midnightblue" stroke="midnightblue" points="2239.05,-142.33 2237.17,-131.91 2232.13,-141.23 2239.05,-142.33"/>
</g>
<!-- Node37 -->
<g id="node37" class="node">
<title>Node37</title>
<g id="a_node37"><a xlink:href="_o_m_sim_hit_manager_8hh.html" target="_top" xlink:title="Defines structures and classes related to optical module photon hit management.">
<polygon fill="white" stroke="black" points="2082.5,-168.5 2082.5,-187.5 2205.5,-187.5 2205.5,-168.5 2082.5,-168.5"/>
<text text-anchor="middle" x="2144" y="-175.5" font-family="Helvetica,sans-Serif" font-size="10.00">OMSimHitManager.hh</text>
</a>
</g>
</g>
<!-- Node31&#45;&gt;Node37 -->
<g id="edge37" class="edge">
<title>Node31&#45;&gt;Node37</title>
<path fill="none" stroke="midnightblue" d="M2083.57,-224.32C2094.42,-216.18 2110.88,-203.84 2123.88,-194.09"/>
<polygon fill="midnightblue" stroke="midnightblue" points="2126.32,-196.63 2132.22,-187.83 2122.12,-191.03 2126.32,-196.63"/>
</g>
<!-- Node38 -->
<g id="node38" class="node">
<title>Node38</title>
<g id="a_node38"><a xlink:title=" ">
<polygon fill="white" stroke="#bfbfbf" points="2010.5,-112.5 2010.5,-131.5 2113.5,-131.5 2113.5,-112.5 2010.5,-112.5"/>
<text text-anchor="middle" x="2062" y="-119.5" font-family="Helvetica,sans-Serif" font-size="10.00">G4ThreeVector.hh</text>
</a>
</g>
</g>
<!-- Node31&#45;&gt;Node38 -->
<g id="edge41" class="edge">
<title>Node31&#45;&gt;Node38</title>
<path fill="none" stroke="midnightblue" d="M2071.22,-224.37C2069.6,-206.62 2065.88,-165.67 2063.69,-141.6"/>
<polygon fill="midnightblue" stroke="midnightblue" points="2067.17,-141.23 2062.78,-131.59 2060.2,-141.87 2067.17,-141.23"/>
</g>
<!-- Node32&#45;&gt;Node11 -->
<g id="edge33" class="edge">
<title>Node32&#45;&gt;Node11</title>
<path fill="none" stroke="midnightblue" d="M2212.96,-112.44C2186.38,-103.36 2144.19,-88.94 2114.48,-78.78"/>
<polygon fill="midnightblue" stroke="midnightblue" points="2115.51,-75.44 2104.92,-75.52 2113.25,-82.06 2115.51,-75.44"/>
</g>
<!-- Node33 -->
<g id="node33" class="node">
<title>Node33</title>
<g id="a_node33"><a xlink:title=" ">
<polygon fill="white" stroke="#bfbfbf" points="2349.5,-56.5 2349.5,-75.5 2468.5,-75.5 2468.5,-56.5 2349.5,-56.5"/>
<text text-anchor="middle" x="2409" y="-63.5" font-family="Helvetica,sans-Serif" font-size="10.00">G4SystemOfUnits.hh</text>
</a>
</g>
</g>
<!-- Node32&#45;&gt;Node33 -->
<g id="edge32" class="edge">
<title>Node32&#45;&gt;Node33</title>
<path fill="none" stroke="midnightblue" d="M2265.1,-112.44C2293.99,-103.32 2339.92,-88.81 2372.11,-78.65"/>
<polygon fill="midnightblue" stroke="midnightblue" points="2373.55,-81.87 2382.03,-75.52 2371.44,-75.19 2373.55,-81.87"/>
</g>
<!-- Node34 -->
<g id="node34" class="node">
<title>Node34</title>
<g id="a_node34"><a xlink:title=" ">
<polygon fill="white" stroke="#bfbfbf" points="2143,-56.5 2143,-75.5 2181,-75.5 2181,-56.5 2143,-56.5"/>
<text text-anchor="middle" x="2162" y="-63.5" font-family="Helvetica,sans-Serif" font-size="10.00">map</text>
</a>
</g>
</g>
<!-- Node32&#45;&gt;Node34 -->
<g id="edge34" class="edge">
<title>Node32&#45;&gt;Node34</title>
<path fill="none" stroke="midnightblue" d="M2225.79,-112.32C2214.22,-104.11 2196.62,-91.6 2182.84,-81.81"/>
<polygon fill="midnightblue" stroke="midnightblue" points="2184.61,-78.77 2174.43,-75.83 2180.56,-84.48 2184.61,-78.77"/>
</g>
<!-- Node35 -->
<g id="node35" class="node">
<title>Node35</title>
<g id="a_node35"><a xlink:title=" ">
<polygon fill="white" stroke="#bfbfbf" points="2199.5,-56.5 2199.5,-75.5 2260.5,-75.5 2260.5,-56.5 2199.5,-56.5"/>
<text text-anchor="middle" x="2230" y="-63.5" font-family="Helvetica,sans-Serif" font-size="10.00">TGraph.h</text>
</a>
</g>
</g>
<!-- Node32&#45;&gt;Node35 -->
<g id="edge35" class="edge">
<title>Node32&#45;&gt;Node35</title>
<path fill="none" stroke="midnightblue" d="M2236.68,-112.08C2235.62,-104.93 2234.09,-94.64 2232.77,-85.69"/>
<polygon fill="midnightblue" stroke="midnightblue" points="2236.22,-85.13 2231.3,-75.75 2229.3,-86.16 2236.22,-85.13"/>
</g>
<!-- Node36 -->
<g id="node36" class="node">
<title>Node36</title>
<g id="a_node36"><a xlink:title=" ">
<polygon fill="white" stroke="#bfbfbf" points="2278.5,-56.5 2278.5,-75.5 2331.5,-75.5 2331.5,-56.5 2278.5,-56.5"/>
<text text-anchor="middle" x="2305" y="-63.5" font-family="Helvetica,sans-Serif" font-size="10.00">TH2D.h</text>
</a>
</g>
</g>
<!-- Node32&#45;&gt;Node36 -->
<g id="edge36" class="edge">
<title>Node32&#45;&gt;Node36</title>
<path fill="none" stroke="midnightblue" d="M2248.76,-112.32C2258.77,-104.26 2273.89,-92.08 2285.93,-82.37"/>
<polygon fill="midnightblue" stroke="midnightblue" points="2288.45,-84.83 2294.04,-75.83 2284.06,-79.38 2288.45,-84.83"/>
</g>
<!-- Node37&#45;&gt;Node20 -->
<g id="edge40" class="edge">
<title>Node37&#45;&gt;Node20</title>
<path fill="none" stroke="midnightblue" d="M2143.46,-168.12C2142.15,-154.23 2137.62,-127.38 2122,-112 2107.37,-97.59 2055.84,-83.52 2019.56,-75.05"/>
<polygon fill="midnightblue" stroke="midnightblue" points="2020.31,-71.63 2009.78,-72.82 2018.75,-78.46 2020.31,-71.63"/>
</g>
<!-- Node37&#45;&gt;Node32 -->
<g id="edge38" class="edge">
<title>Node37&#45;&gt;Node32</title>
<path fill="none" stroke="midnightblue" d="M2159.1,-168.32C2173.9,-159.82 2196.69,-146.73 2213.98,-136.8"/>
<polygon fill="midnightblue" stroke="midnightblue" points="2216.01,-139.67 2222.93,-131.65 2212.52,-133.6 2216.01,-139.67"/>
</g>
<!-- Node37&#45;&gt;Node38 -->
<g id="edge39" class="edge">
<title>Node37&#45;&gt;Node38</title>
<path fill="none" stroke="midnightblue" d="M2130.83,-168.32C2118.15,-159.98 2098.77,-147.21 2083.79,-137.35"/>
<polygon fill="midnightblue" stroke="midnightblue" points="2085.42,-134.23 2075.14,-131.65 2081.57,-140.08 2085.42,-134.23"/>
</g>
</g>
</svg>
