<?xml version="1.0" encoding="UTF-8" standalone="no"?>
<!DOCTYPE svg PUBLIC "-//W3C//DTD SVG 1.1//EN"
 "http://www.w3.org/Graphics/SVG/1.1/DTD/svg11.dtd">
<!-- Generated by graphviz version 2.43.0 (0)
 -->
<!-- Title: OMSimPrimaryGeneratorMessenger.hh Pages: 1 -->
<svg width="466pt" height="140pt"
 viewBox="0.00 0.00 466.00 140.00" xmlns="http://www.w3.org/2000/svg" xmlns:xlink="http://www.w3.org/1999/xlink">
<g id="graph0" class="graph" transform="scale(1 1) rotate(0) translate(4 136)">
<title>OMSimPrimaryGeneratorMessenger.hh</title>
<polygon fill="white" stroke="transparent" points="-4,4 -4,-136 462,-136 462,4 -4,4"/>
<!-- Node1 -->
<g id="node1" class="node">
<title>Node1</title>
<g id="a_node1"><a xlink:title=" ">
<polygon fill="#bfbfbf" stroke="black" points="46.5,-112.5 46.5,-131.5 252.5,-131.5 252.5,-112.5 46.5,-112.5"/>
<text text-anchor="middle" x="149.5" y="-119.5" font-family="Helvetica,sans-Serif" font-size="10.00">OMSimPrimaryGeneratorMessenger.hh</text>
</a>
</g>
</g>
<!-- Node2 -->
<g id="node2" class="node">
<title>Node2</title>
<g id="a_node2"><a xlink:href="supernova_2include_2_o_m_sim_primary_generator_action_8hh.html" target="_top" xlink:title=" ">
<polygon fill="white" stroke="black" points="0,-0.5 0,-19.5 185,-19.5 185,-0.5 0,-0.5"/>
<text text-anchor="middle" x="92.5" y="-7.5" font-family="Helvetica,sans-Serif" font-size="10.00">OMSimPrimaryGeneratorAction.hh</text>
</a>
</g>
</g>
<!-- Node1&#45;&gt;Node2 -->
<g id="edge1" class="edge">
<title>Node1&#45;&gt;Node2</title>
<path fill="none" stroke="midnightblue" d="M99.94,-109.04C82.85,-102.29 65.51,-91.89 55.5,-76 43.04,-56.22 66.4,-32.12 81.36,-19.56"/>
<polygon fill="midnightblue" stroke="midnightblue" points="98.76,-112.34 109.35,-112.43 101.13,-105.75 98.76,-112.34"/>
</g>
<!-- Node3 -->
<g id="node3" class="node">
<title>Node3</title>
<g id="a_node3"><a xlink:href="_o_m_sim_s_n_particle_generators_8hh.html" target="_top" xlink:title="This file contains the classes in charge of particle generation.">
<polygon fill="white" stroke="black" points="64.5,-56.5 64.5,-75.5 234.5,-75.5 234.5,-56.5 64.5,-56.5"/>
<text text-anchor="middle" x="149.5" y="-63.5" font-family="Helvetica,sans-Serif" font-size="10.00">OMSimSNParticleGenerators.hh</text>
</a>
</g>
</g>
<!-- Node1&#45;&gt;Node3 -->
<g id="edge2" class="edge">
<title>Node1&#45;&gt;Node3</title>
<path fill="none" stroke="midnightblue" d="M149.5,-101.8C149.5,-92.91 149.5,-82.78 149.5,-75.75"/>
<polygon fill="midnightblue" stroke="midnightblue" points="146,-102.08 149.5,-112.08 153,-102.08 146,-102.08"/>
</g>
<!-- Node4 -->
<g id="node4" class="node">
<title>Node4</title>
<g id="a_node4"><a xlink:href="_o_m_sim_primary_generator_messenger_8cc.html" target="_top" xlink:title="Primary generator messenger to choose the corresponding primary generator.">
<polygon fill="white" stroke="black" points="253,-56.5 253,-75.5 458,-75.5 458,-56.5 253,-56.5"/>
<text text-anchor="middle" x="355.5" y="-63.5" font-family="Helvetica,sans-Serif" font-size="10.00">OMSimPrimaryGeneratorMessenger.cc</text>
</a>
</g>
</g>
<!-- Node1&#45;&gt;Node4 -->
<g id="edge4" class="edge">
<title>Node1&#45;&gt;Node4</title>
<path fill="none" stroke="midnightblue" d="M192.12,-109.83C231.01,-99.63 287.66,-84.78 323.01,-75.52"/>
<polygon fill="midnightblue" stroke="midnightblue" points="190.93,-106.52 182.14,-112.44 192.7,-113.29 190.93,-106.52"/>
</g>
<!-- Node3&#45;&gt;Node2 -->
<g id="edge3" class="edge">
<title>Node3&#45;&gt;Node2</title>
<path fill="none" stroke="midnightblue" d="M132.88,-49.25C122.77,-39.67 110.22,-27.79 101.82,-19.83"/>
<polygon fill="midnightblue" stroke="midnightblue" points="130.68,-51.99 140.34,-56.32 135.49,-46.91 130.68,-51.99"/>
</g>
</g>
</svg>
