<?xml version="1.0" encoding="UTF-8" standalone="no"?>
<!DOCTYPE svg PUBLIC "-//W3C//DTD SVG 1.1//EN"
 "http://www.w3.org/Graphics/SVG/1.1/DTD/svg11.dtd">
<!-- Generated by graphviz version 2.43.0 (0)
 -->
<!-- Title: OMSimMDOM.cc Pages: 1 -->
<svg width="1299pt" height="375pt"
 viewBox="0.00 0.00 1299.00 375.00" xmlns="http://www.w3.org/2000/svg" xmlns:xlink="http://www.w3.org/1999/xlink">
<g id="graph0" class="graph" transform="scale(1 1) rotate(0) translate(4 371)">
<title>OMSimMDOM.cc</title>
<polygon fill="white" stroke="transparent" points="-4,4 -4,-371 1295,-371 1295,4 -4,4"/>
<!-- Node1 -->
<g id="node1" class="node">
<title>Node1</title>
<g id="a_node1"><a xlink:title=" ">
<polygon fill="#bfbfbf" stroke="black" points="793.5,-347.5 793.5,-366.5 891.5,-366.5 891.5,-347.5 793.5,-347.5"/>
<text text-anchor="middle" x="842.5" y="-354.5" font-family="Helvetica,sans-Serif" font-size="10.00">OMSimMDOM.cc</text>
</a>
</g>
</g>
<!-- Node2 -->
<g id="node2" class="node">
<title>Node2</title>
<g id="a_node2"><a xlink:href="_o_m_sim_m_d_o_m_8hh.html" target="_top" xlink:title="Construction of mDOM.">
<polygon fill="white" stroke="black" points="235.5,-291.5 235.5,-310.5 335.5,-310.5 335.5,-291.5 235.5,-291.5"/>
<text text-anchor="middle" x="285.5" y="-298.5" font-family="Helvetica,sans-Serif" font-size="10.00">OMSimMDOM.hh</text>
</a>
</g>
</g>
<!-- Node1&#45;&gt;Node2 -->
<g id="edge1" class="edge">
<title>Node1&#45;&gt;Node2</title>
<path fill="none" stroke="midnightblue" d="M793.07,-351.21C690.83,-341.3 456.43,-318.57 345.63,-307.83"/>
<polygon fill="midnightblue" stroke="midnightblue" points="345.91,-304.34 335.62,-306.86 345.24,-311.31 345.91,-304.34"/>
</g>
<!-- Node18 -->
<g id="node18" class="node">
<title>Node18</title>
<g id="a_node18"><a xlink:href="_o_m_sim_m_d_o_m_harness_8hh.html" target="_top" xlink:title="Construction of mDOM harness.">
<polygon fill="white" stroke="black" points="546.5,-291.5 546.5,-310.5 686.5,-310.5 686.5,-291.5 546.5,-291.5"/>
<text text-anchor="middle" x="616.5" y="-298.5" font-family="Helvetica,sans-Serif" font-size="10.00">OMSimMDOMHarness.hh</text>
</a>
</g>
</g>
<!-- Node1&#45;&gt;Node18 -->
<g id="edge21" class="edge">
<title>Node1&#45;&gt;Node18</title>
<path fill="none" stroke="midnightblue" d="M806.69,-347.44C767.51,-338.08 704.62,-323.06 661.98,-312.87"/>
<polygon fill="midnightblue" stroke="midnightblue" points="662.68,-309.44 652.14,-310.52 661.06,-316.24 662.68,-309.44"/>
</g>
<!-- Node21 -->
<g id="node21" class="node">
<title>Node21</title>
<g id="a_node21"><a xlink:href="_o_m_sim_command_args_table_8hh.html" target="_top" xlink:title="Definition of the OMSimCommandArgsTable singleton class, which controls user args.">
<polygon fill="white" stroke="black" points="760.5,-291.5 760.5,-310.5 924.5,-310.5 924.5,-291.5 760.5,-291.5"/>
<text text-anchor="middle" x="842.5" y="-298.5" font-family="Helvetica,sans-Serif" font-size="10.00">OMSimCommandArgsTable.hh</text>
</a>
</g>
</g>
<!-- Node1&#45;&gt;Node21 -->
<g id="edge25" class="edge">
<title>Node1&#45;&gt;Node21</title>
<path fill="none" stroke="midnightblue" d="M842.5,-347.08C842.5,-340.01 842.5,-329.86 842.5,-320.99"/>
<polygon fill="midnightblue" stroke="midnightblue" points="846,-320.75 842.5,-310.75 839,-320.75 846,-320.75"/>
</g>
<!-- Node22 -->
<g id="node22" class="node">
<title>Node22</title>
<g id="a_node22"><a xlink:href="_o_m_sim_logger_8hh.html" target="_top" xlink:title=" ">
<polygon fill="white" stroke="black" points="691,-235.5 691,-254.5 790,-254.5 790,-235.5 691,-235.5"/>
<text text-anchor="middle" x="740.5" y="-242.5" font-family="Helvetica,sans-Serif" font-size="10.00">OMSimLogger.hh</text>
</a>
</g>
</g>
<!-- Node1&#45;&gt;Node22 -->
<g id="edge32" class="edge">
<title>Node1&#45;&gt;Node22</title>
<path fill="none" stroke="midnightblue" d="M808.01,-347.39C788.43,-340.7 765.18,-329.38 751.5,-311 741.68,-297.8 739.42,-278.93 739.33,-264.92"/>
<polygon fill="midnightblue" stroke="midnightblue" points="742.84,-264.62 739.64,-254.52 735.84,-264.41 742.84,-264.62"/>
</g>
<!-- Node28 -->
<g id="node28" class="node">
<title>Node28</title>
<g id="a_node28"><a xlink:title=" ">
<polygon fill="white" stroke="#bfbfbf" points="942.5,-291.5 942.5,-310.5 1028.5,-310.5 1028.5,-291.5 942.5,-291.5"/>
<text text-anchor="middle" x="985.5" y="-298.5" font-family="Helvetica,sans-Serif" font-size="10.00">G4Ellipsoid.hh</text>
</a>
</g>
</g>
<!-- Node1&#45;&gt;Node28 -->
<g id="edge33" class="edge">
<title>Node1&#45;&gt;Node28</title>
<path fill="none" stroke="midnightblue" d="M865.16,-347.44C888.9,-338.48 926.41,-324.31 953.24,-314.18"/>
<polygon fill="midnightblue" stroke="midnightblue" points="954.83,-317.32 962.95,-310.52 952.36,-310.77 954.83,-317.32"/>
</g>
<!-- Node29 -->
<g id="node29" class="node">
<title>Node29</title>
<g id="a_node29"><a xlink:title=" ">
<polygon fill="white" stroke="#bfbfbf" points="1047,-291.5 1047,-310.5 1184,-310.5 1184,-291.5 1047,-291.5"/>
<text text-anchor="middle" x="1115.5" y="-298.5" font-family="Helvetica,sans-Serif" font-size="10.00">G4LogicalSkinSurface.hh</text>
</a>
</g>
</g>
<!-- Node1&#45;&gt;Node29 -->
<g id="edge34" class="edge">
<title>Node1&#45;&gt;Node29</title>
<path fill="none" stroke="midnightblue" d="M885.76,-347.44C933.68,-337.96 1010.98,-322.67 1062.5,-312.48"/>
<polygon fill="midnightblue" stroke="midnightblue" points="1063.31,-315.89 1072.44,-310.52 1061.96,-309.02 1063.31,-315.89"/>
</g>
<!-- Node30 -->
<g id="node30" class="node">
<title>Node30</title>
<g id="a_node30"><a xlink:title=" ">
<polygon fill="white" stroke="#bfbfbf" points="1202,-291.5 1202,-310.5 1291,-310.5 1291,-291.5 1202,-291.5"/>
<text text-anchor="middle" x="1246.5" y="-298.5" font-family="Helvetica,sans-Serif" font-size="10.00">G4Polycone.hh</text>
</a>
</g>
</g>
<!-- Node1&#45;&gt;Node30 -->
<g id="edge35" class="edge">
<title>Node1&#45;&gt;Node30</title>
<path fill="none" stroke="midnightblue" d="M891.71,-350.33C957.69,-342.59 1078.74,-327.89 1191.78,-311.21"/>
<polygon fill="midnightblue" stroke="midnightblue" points="1192.61,-314.62 1201.99,-309.69 1191.58,-307.7 1192.61,-314.62"/>
</g>
<!-- Node3 -->
<g id="node3" class="node">
<title>Node3</title>
<g id="a_node3"><a xlink:href="_o_m_sim_m_d_o_m_flasher_8hh.html" target="_top" xlink:title="Defines the mDOMFlasher class for simulating the 10 flashers in an mDOM optical module.">
<polygon fill="white" stroke="black" points="291,-179.5 291,-198.5 426,-198.5 426,-179.5 291,-179.5"/>
<text text-anchor="middle" x="358.5" y="-186.5" font-family="Helvetica,sans-Serif" font-size="10.00">OMSimMDOMFlasher.hh</text>
</a>
</g>
</g>
<!-- Node2&#45;&gt;Node3 -->
<g id="edge2" class="edge">
<title>Node2&#45;&gt;Node3</title>
<path fill="none" stroke="midnightblue" d="M275.9,-291.16C263.06,-278.25 243.25,-253.72 255.5,-235 266,-218.95 283.63,-208.59 301.35,-201.92"/>
<polygon fill="midnightblue" stroke="midnightblue" points="302.83,-205.11 311.17,-198.58 300.57,-198.49 302.83,-205.11"/>
</g>
<!-- Node15 -->
<g id="node15" class="node">
<title>Node15</title>
<g id="a_node15"><a xlink:href="_o_m_sim_p_m_t_construction_8hh.html" target="_top" xlink:title="Construction of the PMTs.">
<polygon fill="white" stroke="black" points="124,-179.5 124,-198.5 273,-198.5 273,-179.5 124,-179.5"/>
<text text-anchor="middle" x="198.5" y="-186.5" font-family="Helvetica,sans-Serif" font-size="10.00">OMSimPMTConstruction.hh</text>
</a>
</g>
</g>
<!-- Node2&#45;&gt;Node15 -->
<g id="edge14" class="edge">
<title>Node2&#45;&gt;Node15</title>
<path fill="none" stroke="midnightblue" d="M278.32,-291.44C270.81,-282.44 258.7,-267.82 248.5,-255 235.68,-238.89 221.39,-220.23 211.38,-207.05"/>
<polygon fill="midnightblue" stroke="midnightblue" points="214.03,-204.76 205.2,-198.9 208.45,-208.99 214.03,-204.76"/>
</g>
<!-- Node17 -->
<g id="node17" class="node">
<title>Node17</title>
<g id="a_node17"><a xlink:href="_o_m_sim_optical_module_8hh.html" target="_top" xlink:title=" ">
<polygon fill="white" stroke="black" points="265,-235.5 265,-254.5 402,-254.5 402,-235.5 265,-235.5"/>
<text text-anchor="middle" x="333.5" y="-242.5" font-family="Helvetica,sans-Serif" font-size="10.00">OMSimOpticalModule.hh</text>
</a>
</g>
</g>
<!-- Node2&#45;&gt;Node17 -->
<g id="edge18" class="edge">
<title>Node2&#45;&gt;Node17</title>
<path fill="none" stroke="midnightblue" d="M293.43,-291.08C300.35,-283.3 310.57,-271.8 318.95,-262.37"/>
<polygon fill="midnightblue" stroke="midnightblue" points="321.69,-264.55 325.72,-254.75 316.46,-259.9 321.69,-264.55"/>
</g>
<!-- Node4 -->
<g id="node4" class="node">
<title>Node4</title>
<g id="a_node4"><a xlink:href="abc_detector_component_8hh.html" target="_top" xlink:title="Provides helper base class abcDetectorComponent for constructing and managing detector components in ...">
<polygon fill="white" stroke="black" points="402,-123.5 402,-142.5 549,-142.5 549,-123.5 402,-123.5"/>
<text text-anchor="middle" x="475.5" y="-130.5" font-family="Helvetica,sans-Serif" font-size="10.00">abcDetectorComponent.hh</text>
</a>
</g>
</g>
<!-- Node3&#45;&gt;Node4 -->
<g id="edge3" class="edge">
<title>Node3&#45;&gt;Node4</title>
<path fill="none" stroke="midnightblue" d="M377.04,-179.44C396.12,-170.64 426.07,-156.81 447.94,-146.72"/>
<polygon fill="midnightblue" stroke="midnightblue" points="449.43,-149.88 457.05,-142.52 446.5,-143.53 449.43,-149.88"/>
</g>
<!-- Node13 -->
<g id="node13" class="node">
<title>Node13</title>
<g id="a_node13"><a xlink:title=" ">
<polygon fill="white" stroke="#bfbfbf" points="175.5,-123.5 175.5,-142.5 273.5,-142.5 273.5,-123.5 175.5,-123.5"/>
<text text-anchor="middle" x="224.5" y="-130.5" font-family="Helvetica,sans-Serif" font-size="10.00">G4UnionSolid.hh</text>
</a>
</g>
</g>
<!-- Node3&#45;&gt;Node13 -->
<g id="edge12" class="edge">
<title>Node3&#45;&gt;Node13</title>
<path fill="none" stroke="midnightblue" d="M337.27,-179.44C315.12,-170.52 280.18,-156.44 255.06,-146.32"/>
<polygon fill="midnightblue" stroke="midnightblue" points="256.22,-143.01 245.63,-142.52 253.6,-149.5 256.22,-143.01"/>
</g>
<!-- Node14 -->
<g id="node14" class="node">
<title>Node14</title>
<g id="a_node14"><a xlink:title=" ">
<polygon fill="white" stroke="#bfbfbf" points="291.5,-123.5 291.5,-142.5 383.5,-142.5 383.5,-123.5 291.5,-123.5"/>
<text text-anchor="middle" x="337.5" y="-130.5" font-family="Helvetica,sans-Serif" font-size="10.00">G4Navigator.hh</text>
</a>
</g>
</g>
<!-- Node3&#45;&gt;Node14 -->
<g id="edge13" class="edge">
<title>Node3&#45;&gt;Node14</title>
<path fill="none" stroke="midnightblue" d="M355.03,-179.08C352.19,-171.77 348.07,-161.18 344.54,-152.1"/>
<polygon fill="midnightblue" stroke="midnightblue" points="347.79,-150.8 340.9,-142.75 341.27,-153.34 347.79,-150.8"/>
</g>
<!-- Node5 -->
<g id="node5" class="node">
<title>Node5</title>
<g id="a_node5"><a xlink:href="_o_m_sim_input_data_8hh.html" target="_top" xlink:title="Definition of ParameterTable and InputDataManager.">
<polygon fill="white" stroke="black" points="163,-67.5 163,-86.5 278,-86.5 278,-67.5 163,-67.5"/>
<text text-anchor="middle" x="220.5" y="-74.5" font-family="Helvetica,sans-Serif" font-size="10.00">OMSimInputData.hh</text>
</a>
</g>
</g>
<!-- Node4&#45;&gt;Node5 -->
<g id="edge4" class="edge">
<title>Node4&#45;&gt;Node5</title>
<path fill="none" stroke="midnightblue" d="M435.09,-123.44C390.52,-114 318.73,-98.8 270.61,-88.61"/>
<polygon fill="midnightblue" stroke="midnightblue" points="271.22,-85.16 260.72,-86.52 269.77,-92.01 271.22,-85.16"/>
</g>
<!-- Node9 -->
<g id="node9" class="node">
<title>Node9</title>
<g id="a_node9"><a xlink:title=" ">
<polygon fill="white" stroke="#bfbfbf" points="296,-67.5 296,-86.5 403,-86.5 403,-67.5 296,-67.5"/>
<text text-anchor="middle" x="349.5" y="-74.5" font-family="Helvetica,sans-Serif" font-size="10.00">G4Transform3D.hh</text>
</a>
</g>
</g>
<!-- Node4&#45;&gt;Node9 -->
<g id="edge8" class="edge">
<title>Node4&#45;&gt;Node9</title>
<path fill="none" stroke="midnightblue" d="M455.53,-123.44C434.89,-114.6 402.44,-100.69 378.87,-90.59"/>
<polygon fill="midnightblue" stroke="midnightblue" points="379.94,-87.24 369.37,-86.52 377.18,-93.67 379.94,-87.24"/>
</g>
<!-- Node10 -->
<g id="node10" class="node">
<title>Node10</title>
<g id="a_node10"><a xlink:title=" ">
<polygon fill="white" stroke="#bfbfbf" points="421.5,-67.5 421.5,-86.5 529.5,-86.5 529.5,-67.5 421.5,-67.5"/>
<text text-anchor="middle" x="475.5" y="-74.5" font-family="Helvetica,sans-Serif" font-size="10.00">G4VisAttributes.hh</text>
</a>
</g>
</g>
<!-- Node4&#45;&gt;Node10 -->
<g id="edge9" class="edge">
<title>Node4&#45;&gt;Node10</title>
<path fill="none" stroke="midnightblue" d="M475.5,-123.08C475.5,-116.01 475.5,-105.86 475.5,-96.99"/>
<polygon fill="midnightblue" stroke="midnightblue" points="479,-96.75 475.5,-86.75 472,-96.75 479,-96.75"/>
</g>
<!-- Node11 -->
<g id="node11" class="node">
<title>Node11</title>
<g id="a_node11"><a xlink:title=" ">
<polygon fill="white" stroke="#bfbfbf" points="548,-67.5 548,-86.5 673,-86.5 673,-67.5 548,-67.5"/>
<text text-anchor="middle" x="610.5" y="-74.5" font-family="Helvetica,sans-Serif" font-size="10.00">G4SubtractionSolid.hh</text>
</a>
</g>
</g>
<!-- Node4&#45;&gt;Node11 -->
<g id="edge10" class="edge">
<title>Node4&#45;&gt;Node11</title>
<path fill="none" stroke="midnightblue" d="M496.89,-123.44C519.21,-114.52 554.4,-100.44 579.71,-90.32"/>
<polygon fill="midnightblue" stroke="midnightblue" points="581.22,-93.48 589.21,-86.52 578.62,-86.98 581.22,-93.48"/>
</g>
<!-- Node12 -->
<g id="node12" class="node">
<title>Node12</title>
<g id="a_node12"><a xlink:title=" ">
<polygon fill="white" stroke="#bfbfbf" points="691.5,-67.5 691.5,-86.5 801.5,-86.5 801.5,-67.5 691.5,-67.5"/>
<text text-anchor="middle" x="746.5" y="-74.5" font-family="Helvetica,sans-Serif" font-size="10.00">G4PVPlacement.hh</text>
</a>
</g>
</g>
<!-- Node4&#45;&gt;Node12 -->
<g id="edge11" class="edge">
<title>Node4&#45;&gt;Node12</title>
<path fill="none" stroke="midnightblue" d="M518.44,-123.44C566.01,-113.96 642.74,-98.67 693.89,-88.48"/>
<polygon fill="midnightblue" stroke="midnightblue" points="694.64,-91.9 703.76,-86.52 693.27,-85.04 694.64,-91.9"/>
</g>
<!-- Node6 -->
<g id="node6" class="node">
<title>Node6</title>
<g id="a_node6"><a xlink:title=" ">
<polygon fill="white" stroke="#bfbfbf" points="0,-6 0,-25 143,-25 143,-6 0,-6"/>
<text text-anchor="middle" x="71.5" y="-13" font-family="Helvetica,sans-Serif" font-size="10.00">G4OpBoundaryProcess.hh</text>
</a>
</g>
</g>
<!-- Node5&#45;&gt;Node6 -->
<g id="edge5" class="edge">
<title>Node5&#45;&gt;Node6</title>
<path fill="none" stroke="midnightblue" d="M199.15,-67.48C173.81,-57.36 131.36,-40.4 102.43,-28.85"/>
<polygon fill="midnightblue" stroke="midnightblue" points="103.39,-25.47 92.81,-25.01 100.8,-31.97 103.39,-25.47"/>
</g>
<!-- Node7 -->
<g id="node7" class="node">
<title>Node7</title>
<g id="a_node7"><a xlink:title=" ">
<polygon fill="white" stroke="#bfbfbf" points="161,-6 161,-25 280,-25 280,-6 161,-6"/>
<text text-anchor="middle" x="220.5" y="-13" font-family="Helvetica,sans-Serif" font-size="10.00">G4SystemOfUnits.hh</text>
</a>
</g>
</g>
<!-- Node5&#45;&gt;Node7 -->
<g id="edge6" class="edge">
<title>Node5&#45;&gt;Node7</title>
<path fill="none" stroke="midnightblue" d="M220.5,-67.48C220.5,-59.08 220.5,-45.98 220.5,-35.16"/>
<polygon fill="midnightblue" stroke="midnightblue" points="224,-35.01 220.5,-25.01 217,-35.01 224,-35.01"/>
</g>
<!-- Node8 -->
<g id="node8" class="node">
<title>Node8</title>
<g id="a_node8"><a xlink:title=" ">
<polygon fill="white" stroke="#bfbfbf" points="298,-0.5 298,-30.5 411,-30.5 411,-0.5 298,-0.5"/>
<text text-anchor="start" x="306" y="-18.5" font-family="Helvetica,sans-Serif" font-size="10.00">boost/property_tree</text>
<text text-anchor="middle" x="354.5" y="-7.5" font-family="Helvetica,sans-Serif" font-size="10.00">/json_parser.hpp</text>
</a>
</g>
</g>
<!-- Node5&#45;&gt;Node8 -->
<g id="edge7" class="edge">
<title>Node5&#45;&gt;Node8</title>
<path fill="none" stroke="midnightblue" d="M239.7,-67.48C258.87,-58.96 288.92,-45.62 313.47,-34.72"/>
<polygon fill="midnightblue" stroke="midnightblue" points="315.2,-37.78 322.92,-30.52 312.36,-31.38 315.2,-37.78"/>
</g>
<!-- Node15&#45;&gt;Node4 -->
<g id="edge15" class="edge">
<title>Node15&#45;&gt;Node4</title>
<path fill="none" stroke="midnightblue" d="M242.39,-179.44C291.02,-169.96 369.45,-154.67 421.72,-144.48"/>
<polygon fill="midnightblue" stroke="midnightblue" points="422.67,-147.87 431.81,-142.52 421.33,-140.99 422.67,-147.87"/>
</g>
<!-- Node15&#45;&gt;Node13 -->
<g id="edge16" class="edge">
<title>Node15&#45;&gt;Node13</title>
<path fill="none" stroke="midnightblue" d="M202.79,-179.08C206.35,-171.69 211.52,-160.95 215.92,-151.81"/>
<polygon fill="midnightblue" stroke="midnightblue" points="219.1,-153.28 220.29,-142.75 212.79,-150.24 219.1,-153.28"/>
</g>
<!-- Node16 -->
<g id="node16" class="node">
<title>Node16</title>
<g id="a_node16"><a xlink:title=" ">
<polygon fill="white" stroke="#bfbfbf" points="90,-123.5 90,-142.5 157,-142.5 157,-123.5 90,-123.5"/>
<text text-anchor="middle" x="123.5" y="-130.5" font-family="Helvetica,sans-Serif" font-size="10.00">G4Tubs.hh</text>
</a>
</g>
</g>
<!-- Node15&#45;&gt;Node16 -->
<g id="edge17" class="edge">
<title>Node15&#45;&gt;Node16</title>
<path fill="none" stroke="midnightblue" d="M186.45,-179.32C175.04,-171.11 157.67,-158.6 144.07,-148.81"/>
<polygon fill="midnightblue" stroke="midnightblue" points="145.93,-145.84 135.77,-142.83 141.84,-151.52 145.93,-145.84"/>
</g>
<!-- Node17&#45;&gt;Node4 -->
<g id="edge19" class="edge">
<title>Node17&#45;&gt;Node4</title>
<path fill="none" stroke="midnightblue" d="M364.4,-235.49C385.88,-228.4 414.18,-216.59 434.5,-199 449.43,-186.07 460.81,-166.35 467.75,-152.03"/>
<polygon fill="midnightblue" stroke="midnightblue" points="471.02,-153.27 472,-142.72 464.66,-150.36 471.02,-153.27"/>
</g>
<!-- Node17&#45;&gt;Node15 -->
<g id="edge20" class="edge">
<title>Node17&#45;&gt;Node15</title>
<path fill="none" stroke="midnightblue" d="M312.11,-235.44C289.79,-226.52 254.6,-212.44 229.29,-202.32"/>
<polygon fill="midnightblue" stroke="midnightblue" points="230.38,-198.98 219.79,-198.52 227.78,-205.48 230.38,-198.98"/>
</g>
<!-- Node18&#45;&gt;Node4 -->
<g id="edge22" class="edge">
<title>Node18&#45;&gt;Node4</title>
<path fill="none" stroke="midnightblue" d="M624.86,-291.25C636.03,-278.45 653.25,-254.06 642.5,-235 615.67,-187.42 556.41,-159.71 516.2,-145.72"/>
<polygon fill="midnightblue" stroke="midnightblue" points="517.26,-142.38 506.67,-142.53 515.04,-149.02 517.26,-142.38"/>
</g>
<!-- Node19 -->
<g id="node19" class="node">
<title>Node19</title>
<g id="a_node19"><a xlink:title=" ">
<polygon fill="white" stroke="#bfbfbf" points="420,-235.5 420,-254.5 547,-254.5 547,-235.5 420,-235.5"/>
<text text-anchor="middle" x="483.5" y="-242.5" font-family="Helvetica,sans-Serif" font-size="10.00">G4IntersectionSolid.hh</text>
</a>
</g>
</g>
<!-- Node18&#45;&gt;Node19 -->
<g id="edge23" class="edge">
<title>Node18&#45;&gt;Node19</title>
<path fill="none" stroke="midnightblue" d="M595.43,-291.44C573.44,-282.52 538.77,-268.44 513.84,-258.32"/>
<polygon fill="midnightblue" stroke="midnightblue" points="515.06,-255.04 504.48,-254.52 512.42,-261.52 515.06,-255.04"/>
</g>
<!-- Node20 -->
<g id="node20" class="node">
<title>Node20</title>
<g id="a_node20"><a xlink:title=" ">
<polygon fill="white" stroke="#bfbfbf" points="565,-235.5 565,-254.5 634,-254.5 634,-235.5 565,-235.5"/>
<text text-anchor="middle" x="599.5" y="-242.5" font-family="Helvetica,sans-Serif" font-size="10.00">G4Cons.hh</text>
</a>
</g>
</g>
<!-- Node18&#45;&gt;Node20 -->
<g id="edge24" class="edge">
<title>Node18&#45;&gt;Node20</title>
<path fill="none" stroke="midnightblue" d="M613.69,-291.08C611.42,-283.85 608.13,-273.41 605.29,-264.4"/>
<polygon fill="midnightblue" stroke="midnightblue" points="608.6,-263.24 602.25,-254.75 601.92,-265.34 608.6,-263.24"/>
</g>
<!-- Node21&#45;&gt;Node22 -->
<g id="edge26" class="edge">
<title>Node21&#45;&gt;Node22</title>
<path fill="none" stroke="midnightblue" d="M826.11,-291.32C809.83,-282.7 784.63,-269.36 765.78,-259.39"/>
<polygon fill="midnightblue" stroke="midnightblue" points="767.32,-256.24 756.85,-254.65 764.05,-262.43 767.32,-256.24"/>
</g>
<!-- Node25 -->
<g id="node25" class="node">
<title>Node25</title>
<g id="a_node25"><a xlink:title=" ">
<polygon fill="white" stroke="#bfbfbf" points="895,-235.5 895,-254.5 950,-254.5 950,-235.5 895,-235.5"/>
<text text-anchor="middle" x="922.5" y="-242.5" font-family="Helvetica,sans-Serif" font-size="10.00">fstream</text>
</a>
</g>
</g>
<!-- Node21&#45;&gt;Node25 -->
<g id="edge29" class="edge">
<title>Node21&#45;&gt;Node25</title>
<path fill="none" stroke="midnightblue" d="M855.35,-291.32C867.72,-282.98 886.63,-270.21 901.24,-260.35"/>
<polygon fill="midnightblue" stroke="midnightblue" points="903.35,-263.15 909.68,-254.65 899.43,-257.35 903.35,-263.15"/>
</g>
<!-- Node26 -->
<g id="node26" class="node">
<title>Node26</title>
<g id="a_node26"><a xlink:title=" ">
<polygon fill="white" stroke="#bfbfbf" points="968.5,-235.5 968.5,-254.5 1052.5,-254.5 1052.5,-235.5 968.5,-235.5"/>
<text text-anchor="middle" x="1010.5" y="-242.5" font-family="Helvetica,sans-Serif" font-size="10.00">boost/any.hpp</text>
</a>
</g>
</g>
<!-- Node21&#45;&gt;Node26 -->
<g id="edge30" class="edge">
<title>Node21&#45;&gt;Node26</title>
<path fill="none" stroke="midnightblue" d="M869.12,-291.44C897.51,-282.32 942.64,-267.81 974.25,-257.65"/>
<polygon fill="midnightblue" stroke="midnightblue" points="975.56,-260.91 984,-254.52 973.41,-254.24 975.56,-260.91"/>
</g>
<!-- Node27 -->
<g id="node27" class="node">
<title>Node27</title>
<g id="a_node27"><a xlink:title=" ">
<polygon fill="white" stroke="#bfbfbf" points="808.5,-235.5 808.5,-254.5 876.5,-254.5 876.5,-235.5 808.5,-235.5"/>
<text text-anchor="middle" x="842.5" y="-242.5" font-family="Helvetica,sans-Serif" font-size="10.00">sys/time.h</text>
</a>
</g>
</g>
<!-- Node21&#45;&gt;Node27 -->
<g id="edge31" class="edge">
<title>Node21&#45;&gt;Node27</title>
<path fill="none" stroke="midnightblue" d="M842.5,-291.08C842.5,-284.01 842.5,-273.86 842.5,-264.99"/>
<polygon fill="midnightblue" stroke="midnightblue" points="846,-264.75 842.5,-254.75 839,-264.75 846,-264.75"/>
</g>
<!-- Node23 -->
<g id="node23" class="node">
<title>Node23</title>
<g id="a_node23"><a xlink:title=" ">
<polygon fill="white" stroke="#bfbfbf" points="702.5,-179.5 702.5,-198.5 752.5,-198.5 752.5,-179.5 702.5,-179.5"/>
<text text-anchor="middle" x="727.5" y="-186.5" font-family="Helvetica,sans-Serif" font-size="10.00">stdio.h</text>
</a>
</g>
</g>
<!-- Node22&#45;&gt;Node23 -->
<g id="edge27" class="edge">
<title>Node22&#45;&gt;Node23</title>
<path fill="none" stroke="midnightblue" d="M738.35,-235.08C736.63,-227.93 734.15,-217.64 732,-208.69"/>
<polygon fill="midnightblue" stroke="midnightblue" points="735.35,-207.65 729.61,-198.75 728.54,-209.29 735.35,-207.65"/>
</g>
<!-- Node24 -->
<g id="node24" class="node">
<title>Node24</title>
<g id="a_node24"><a xlink:title=" ">
<polygon fill="white" stroke="#bfbfbf" points="770.5,-179.5 770.5,-198.5 818.5,-198.5 818.5,-179.5 770.5,-179.5"/>
<text text-anchor="middle" x="794.5" y="-186.5" font-family="Helvetica,sans-Serif" font-size="10.00">time.h</text>
</a>
</g>
</g>
<!-- Node22&#45;&gt;Node24 -->
<g id="edge28" class="edge">
<title>Node22&#45;&gt;Node24</title>
<path fill="none" stroke="midnightblue" d="M749.42,-235.08C757.28,-227.22 768.93,-215.57 778.42,-206.08"/>
<polygon fill="midnightblue" stroke="midnightblue" points="781.15,-208.3 785.75,-198.75 776.2,-203.35 781.15,-208.3"/>
</g>
</g>
</svg>
