<?xml version="1.0" encoding="UTF-8" standalone="no"?>
<!DOCTYPE svg PUBLIC "-//W3C//DTD SVG 1.1//EN"
 "http://www.w3.org/Graphics/SVG/1.1/DTD/svg11.dtd">
<!-- Generated by graphviz version 2.43.0 (0)
 -->
<!-- Title: OMSimLogger.hh Pages: 1 -->
<svg width="1851pt" height="252pt"
 viewBox="0.00 0.00 1850.50 252.00" xmlns="http://www.w3.org/2000/svg" xmlns:xlink="http://www.w3.org/1999/xlink">
<g id="graph0" class="graph" transform="scale(1 1) rotate(0) translate(4 248)">
<title>OMSimLogger.hh</title>
<polygon fill="white" stroke="transparent" points="-4,4 -4,-248 1846.5,-248 1846.5,4 -4,4"/>
<!-- Node1 -->
<g id="node1" class="node">
<title>Node1</title>
<g id="a_node1"><a xlink:title=" ">
<polygon fill="#bfbfbf" stroke="black" points="1337,-224.5 1337,-243.5 1436,-243.5 1436,-224.5 1337,-224.5"/>
<text text-anchor="middle" x="1386.5" y="-231.5" font-family="Helvetica,sans-Serif" font-size="10.00">OMSimLogger.hh</text>
</a>
</g>
</g>
<!-- Node2 -->
<g id="node2" class="node">
<title>Node2</title>
<g id="a_node2"><a xlink:href="_o_m_sim_command_args_table_8hh.html" target="_top" xlink:title="Definition of the OMSimCommandArgsTable singleton class, which controls user args.">
<polygon fill="white" stroke="black" points="897.5,-168.5 897.5,-187.5 1061.5,-187.5 1061.5,-168.5 897.5,-168.5"/>
<text text-anchor="middle" x="979.5" y="-175.5" font-family="Helvetica,sans-Serif" font-size="10.00">OMSimCommandArgsTable.hh</text>
</a>
</g>
</g>
<!-- Node1&#45;&gt;Node2 -->
<g id="edge1" class="edge">
<title>Node1&#45;&gt;Node2</title>
<path fill="none" stroke="midnightblue" d="M1326.29,-225.01C1250.67,-214.98 1121.45,-197.83 1043.91,-187.55"/>
<polygon fill="midnightblue" stroke="midnightblue" points="1326.22,-228.53 1336.59,-226.38 1327.14,-221.59 1326.22,-228.53"/>
</g>
<!-- Node20 -->
<g id="node20" class="node">
<title>Node20</title>
<g id="a_node20"><a xlink:href="abc_detector_component_8cc.html" target="_top" xlink:title="Contains the implementation of the abcDetectorComponent class.">
<polygon fill="white" stroke="black" points="1079.5,-168.5 1079.5,-187.5 1225.5,-187.5 1225.5,-168.5 1079.5,-168.5"/>
<text text-anchor="middle" x="1152.5" y="-175.5" font-family="Helvetica,sans-Serif" font-size="10.00">abcDetectorComponent.cc</text>
</a>
</g>
</g>
<!-- Node1&#45;&gt;Node20 -->
<g id="edge19" class="edge">
<title>Node1&#45;&gt;Node20</title>
<path fill="none" stroke="midnightblue" d="M1339.5,-222.15C1295.28,-211.95 1229.98,-196.88 1189.4,-187.52"/>
<polygon fill="midnightblue" stroke="midnightblue" points="1338.89,-225.61 1349.42,-224.44 1340.47,-218.78 1338.89,-225.61"/>
</g>
<!-- Node21 -->
<g id="node21" class="node">
<title>Node21</title>
<g id="a_node21"><a xlink:href="_o_m_sim_data_file_types_8cc.html" target="_top" xlink:title="Collection of classes and methods to handle material creation from user data in json files.">
<polygon fill="white" stroke="black" points="1243.5,-168.5 1243.5,-187.5 1377.5,-187.5 1377.5,-168.5 1243.5,-168.5"/>
<text text-anchor="middle" x="1310.5" y="-175.5" font-family="Helvetica,sans-Serif" font-size="10.00">OMSimDataFileTypes.cc</text>
</a>
</g>
</g>
<!-- Node1&#45;&gt;Node21 -->
<g id="edge20" class="edge">
<title>Node1&#45;&gt;Node21</title>
<path fill="none" stroke="midnightblue" d="M1365.92,-218.38C1352.19,-208.62 1334.57,-196.11 1322.93,-187.83"/>
<polygon fill="midnightblue" stroke="midnightblue" points="1364.11,-221.38 1374.29,-224.32 1368.16,-215.68 1364.11,-221.38"/>
</g>
<!-- Node22 -->
<g id="node22" class="node">
<title>Node22</title>
<g id="a_node22"><a xlink:href="_o_m_sim_p_m_t_response_8cc.html" target="_top" xlink:title="PMT response simulator.">
<polygon fill="white" stroke="black" points="1395.5,-168.5 1395.5,-187.5 1529.5,-187.5 1529.5,-168.5 1395.5,-168.5"/>
<text text-anchor="middle" x="1462.5" y="-175.5" font-family="Helvetica,sans-Serif" font-size="10.00">OMSimPMTResponse.cc</text>
</a>
</g>
</g>
<!-- Node1&#45;&gt;Node22 -->
<g id="edge21" class="edge">
<title>Node1&#45;&gt;Node22</title>
<path fill="none" stroke="midnightblue" d="M1407.08,-218.38C1420.81,-208.62 1438.43,-196.11 1450.07,-187.83"/>
<polygon fill="midnightblue" stroke="midnightblue" points="1404.84,-215.68 1398.71,-224.32 1408.89,-221.38 1404.84,-215.68"/>
</g>
<!-- Node23 -->
<g id="node23" class="node">
<title>Node23</title>
<g id="a_node23"><a xlink:href="_o_m_sim_l_o_m16_8cc.html" target="_top" xlink:title="Construction of LOM16.">
<polygon fill="white" stroke="black" points="1548,-168.5 1548,-187.5 1647,-187.5 1647,-168.5 1548,-168.5"/>
<text text-anchor="middle" x="1597.5" y="-175.5" font-family="Helvetica,sans-Serif" font-size="10.00">OMSimLOM16.cc</text>
</a>
</g>
</g>
<!-- Node1&#45;&gt;Node23 -->
<g id="edge22" class="edge">
<title>Node1&#45;&gt;Node23</title>
<path fill="none" stroke="midnightblue" d="M1429.64,-221.96C1469.49,-211.76 1527.86,-196.82 1564.22,-187.52"/>
<polygon fill="midnightblue" stroke="midnightblue" points="1428.75,-218.57 1419.93,-224.44 1430.49,-225.35 1428.75,-218.57"/>
</g>
<!-- Node24 -->
<g id="node24" class="node">
<title>Node24</title>
<g id="a_node24"><a xlink:href="_o_m_sim_l_o_m18_8cc.html" target="_top" xlink:title="Construction of LOM18.">
<polygon fill="white" stroke="black" points="1665,-168.5 1665,-187.5 1764,-187.5 1764,-168.5 1665,-168.5"/>
<text text-anchor="middle" x="1714.5" y="-175.5" font-family="Helvetica,sans-Serif" font-size="10.00">OMSimLOM18.cc</text>
</a>
</g>
</g>
<!-- Node1&#45;&gt;Node24 -->
<g id="edge23" class="edge">
<title>Node1&#45;&gt;Node24</title>
<path fill="none" stroke="midnightblue" d="M1446.44,-223.13C1509.08,-212.82 1606.22,-196.83 1664.75,-187.19"/>
<polygon fill="midnightblue" stroke="midnightblue" points="1445.61,-219.72 1436.32,-224.8 1446.75,-226.63 1445.61,-219.72"/>
</g>
<!-- Node3 -->
<g id="node3" class="node">
<title>Node3</title>
<g id="a_node3"><a xlink:href="_o_m_sim_u_iinterface_8hh.html" target="_top" xlink:title="The OMSimUIinterface class provides a singleton interface to Geant4&#39;s UI manager.">
<polygon fill="white" stroke="black" points="286,-112.5 286,-131.5 407,-131.5 407,-112.5 286,-112.5"/>
<text text-anchor="middle" x="346.5" y="-119.5" font-family="Helvetica,sans-Serif" font-size="10.00">OMSimUIinterface.hh</text>
</a>
</g>
</g>
<!-- Node2&#45;&gt;Node3 -->
<g id="edge2" class="edge">
<title>Node2&#45;&gt;Node3</title>
<path fill="none" stroke="midnightblue" d="M887.12,-170.99C775.49,-163.4 582.01,-149.24 416.5,-132 413.45,-131.68 410.33,-131.34 407.19,-130.98"/>
<polygon fill="midnightblue" stroke="midnightblue" points="887.12,-174.49 897.34,-171.68 887.6,-167.51 887.12,-174.49"/>
</g>
<!-- Node11 -->
<g id="node11" class="node">
<title>Node11</title>
<g id="a_node11"><a xlink:href="_o_m_sim_hit_manager_8cc.html" target="_top" xlink:title=" ">
<polygon fill="white" stroke="black" points="425.5,-112.5 425.5,-131.5 547.5,-131.5 547.5,-112.5 425.5,-112.5"/>
<text text-anchor="middle" x="486.5" y="-119.5" font-family="Helvetica,sans-Serif" font-size="10.00">OMSimHitManager.cc</text>
</a>
</g>
</g>
<!-- Node2&#45;&gt;Node11 -->
<g id="edge10" class="edge">
<title>Node2&#45;&gt;Node11</title>
<path fill="none" stroke="midnightblue" d="M887.16,-167.69C801.63,-158.93 670.9,-145.23 557.5,-132 554.29,-131.63 551,-131.23 547.68,-130.83"/>
<polygon fill="midnightblue" stroke="midnightblue" points="887.06,-171.19 897.36,-168.73 887.77,-164.23 887.06,-171.19"/>
</g>
<!-- Node12 -->
<g id="node12" class="node">
<title>Node12</title>
<g id="a_node12"><a xlink:href="_o_m_sim_input_data_8cc.html" target="_top" xlink:title="Input data from external files are read and saved to memory.">
<polygon fill="white" stroke="black" points="566,-112.5 566,-131.5 679,-131.5 679,-112.5 566,-112.5"/>
<text text-anchor="middle" x="622.5" y="-119.5" font-family="Helvetica,sans-Serif" font-size="10.00">OMSimInputData.cc</text>
</a>
</g>
</g>
<!-- Node2&#45;&gt;Node12 -->
<g id="edge11" class="edge">
<title>Node2&#45;&gt;Node12</title>
<path fill="none" stroke="midnightblue" d="M912.84,-166.92C845.39,-156.71 742.28,-141.12 678.8,-131.52"/>
<polygon fill="midnightblue" stroke="midnightblue" points="912.52,-170.41 922.93,-168.44 913.57,-163.49 912.52,-170.41"/>
</g>
<!-- Node13 -->
<g id="node13" class="node">
<title>Node13</title>
<g id="a_node13"><a xlink:href="_o_m_sim_p_m_t_construction_8cc.html" target="_top" xlink:title="Construction of the PMTs.">
<polygon fill="white" stroke="black" points="697,-112.5 697,-131.5 844,-131.5 844,-112.5 697,-112.5"/>
<text text-anchor="middle" x="770.5" y="-119.5" font-family="Helvetica,sans-Serif" font-size="10.00">OMSimPMTConstruction.cc</text>
</a>
</g>
</g>
<!-- Node2&#45;&gt;Node13 -->
<g id="edge12" class="edge">
<title>Node2&#45;&gt;Node13</title>
<path fill="none" stroke="midnightblue" d="M936.52,-165.89C897.05,-155.7 839.4,-140.8 803.46,-131.52"/>
<polygon fill="midnightblue" stroke="midnightblue" points="935.83,-169.33 946.38,-168.44 937.58,-162.55 935.83,-169.33"/>
</g>
<!-- Node14 -->
<g id="node14" class="node">
<title>Node14</title>
<g id="a_node14"><a xlink:href="_o_m_sim_m_d_o_m_8cc.html" target="_top" xlink:title="Construction of mDOM.">
<polygon fill="white" stroke="black" points="862.5,-112.5 862.5,-131.5 960.5,-131.5 960.5,-112.5 862.5,-112.5"/>
<text text-anchor="middle" x="911.5" y="-119.5" font-family="Helvetica,sans-Serif" font-size="10.00">OMSimMDOM.cc</text>
</a>
</g>
</g>
<!-- Node2&#45;&gt;Node14 -->
<g id="edge13" class="edge">
<title>Node2&#45;&gt;Node14</title>
<path fill="none" stroke="midnightblue" d="M960.74,-162.1C948.5,-152.38 932.94,-140.03 922.62,-131.83"/>
<polygon fill="midnightblue" stroke="midnightblue" points="958.57,-164.85 968.57,-168.32 962.92,-159.36 958.57,-164.85"/>
</g>
<!-- Node15 -->
<g id="node15" class="node">
<title>Node15</title>
<g id="a_node15"><a xlink:href="_o_m_sim_m_d_o_m_harness_8cc.html" target="_top" xlink:title="Construction of mDOM harness.">
<polygon fill="white" stroke="black" points="978.5,-112.5 978.5,-131.5 1116.5,-131.5 1116.5,-112.5 978.5,-112.5"/>
<text text-anchor="middle" x="1047.5" y="-119.5" font-family="Helvetica,sans-Serif" font-size="10.00">OMSimMDOMHarness.cc</text>
</a>
</g>
</g>
<!-- Node2&#45;&gt;Node15 -->
<g id="edge14" class="edge">
<title>Node2&#45;&gt;Node15</title>
<path fill="none" stroke="midnightblue" d="M998.26,-162.1C1010.5,-152.38 1026.06,-140.03 1036.38,-131.83"/>
<polygon fill="midnightblue" stroke="midnightblue" points="996.08,-159.36 990.43,-168.32 1000.43,-164.85 996.08,-159.36"/>
</g>
<!-- Node16 -->
<g id="node16" class="node">
<title>Node16</title>
<g id="a_node16"><a xlink:href="effective__area_2src_2_o_m_sim_detector_construction_8cc.html" target="_top" xlink:title=" ">
<polygon fill="white" stroke="black" points="1135,-112.5 1135,-131.5 1304,-131.5 1304,-112.5 1135,-112.5"/>
<text text-anchor="middle" x="1219.5" y="-119.5" font-family="Helvetica,sans-Serif" font-size="10.00">OMSimDetectorConstruction.cc</text>
</a>
</g>
</g>
<!-- Node2&#45;&gt;Node16 -->
<g id="edge15" class="edge">
<title>Node2&#45;&gt;Node16</title>
<path fill="none" stroke="midnightblue" d="M1027.42,-166.22C1072.77,-156.01 1139.94,-140.9 1181.65,-131.52"/>
<polygon fill="midnightblue" stroke="midnightblue" points="1026.52,-162.83 1017.53,-168.44 1028.05,-169.66 1026.52,-162.83"/>
</g>
<!-- Node17 -->
<g id="node17" class="node">
<title>Node17</title>
<g id="a_node17"><a xlink:href="_o_m_sim_analysis_manager_8cc.html" target="_top" xlink:title=" ">
<polygon fill="white" stroke="black" points="1322,-112.5 1322,-131.5 1471,-131.5 1471,-112.5 1322,-112.5"/>
<text text-anchor="middle" x="1396.5" y="-119.5" font-family="Helvetica,sans-Serif" font-size="10.00">OMSimAnalysisManager.cc</text>
</a>
</g>
</g>
<!-- Node2&#45;&gt;Node17 -->
<g id="edge16" class="edge">
<title>Node2&#45;&gt;Node17</title>
<path fill="none" stroke="midnightblue" d="M1055.91,-167.1C1134.66,-156.91 1256.14,-141.18 1330.73,-131.52"/>
<polygon fill="midnightblue" stroke="midnightblue" points="1055.04,-163.69 1045.57,-168.44 1055.94,-170.63 1055.04,-163.69"/>
</g>
<!-- Node18 -->
<g id="node18" class="node">
<title>Node18</title>
<g id="a_node18"><a xlink:href="radioactive__decays_2src_2_o_m_sim_detector_construction_8cc.html" target="_top" xlink:title=" ">
<polygon fill="white" stroke="black" points="1489,-112.5 1489,-131.5 1658,-131.5 1658,-112.5 1489,-112.5"/>
<text text-anchor="middle" x="1573.5" y="-119.5" font-family="Helvetica,sans-Serif" font-size="10.00">OMSimDetectorConstruction.cc</text>
</a>
</g>
</g>
<!-- Node2&#45;&gt;Node18 -->
<g id="edge17" class="edge">
<title>Node2&#45;&gt;Node18</title>
<path fill="none" stroke="midnightblue" d="M1072.04,-167.87C1254.33,-150.91 1301.64,-148.51 1480.5,-132 1483.25,-131.75 1486.04,-131.49 1488.86,-131.22"/>
<polygon fill="midnightblue" stroke="midnightblue" points="1071.47,-164.4 1061.84,-168.82 1072.12,-171.37 1071.47,-164.4"/>
</g>
<!-- Node19 -->
<g id="node19" class="node">
<title>Node19</title>
<g id="a_node19"><a xlink:href="_o_m_sim_g4_radioactive_decay_8cc.html" target="_top" xlink:title=" ">
<polygon fill="white" stroke="black" points="1676.5,-112.5 1676.5,-131.5 1842.5,-131.5 1842.5,-112.5 1676.5,-112.5"/>
<text text-anchor="middle" x="1759.5" y="-119.5" font-family="Helvetica,sans-Serif" font-size="10.00">OMSimG4RadioactiveDecay.cc</text>
</a>
</g>
</g>
<!-- Node2&#45;&gt;Node19 -->
<g id="edge18" class="edge">
<title>Node2&#45;&gt;Node19</title>
<path fill="none" stroke="midnightblue" d="M1072.15,-167.9C1337.21,-147.06 1405.88,-152.68 1667.5,-132 1670.38,-131.77 1673.31,-131.53 1676.27,-131.28"/>
<polygon fill="midnightblue" stroke="midnightblue" points="1071.52,-164.44 1061.83,-168.71 1072.07,-171.42 1071.52,-164.44"/>
</g>
<!-- Node4 -->
<g id="node4" class="node">
<title>Node4</title>
<g id="a_node4"><a xlink:href="_o_m_sim_8hh.html" target="_top" xlink:title="Main simulation class for the Optical Module (OM) simulation.">
<polygon fill="white" stroke="black" points="120,-56.5 120,-75.5 187,-75.5 187,-56.5 120,-56.5"/>
<text text-anchor="middle" x="153.5" y="-63.5" font-family="Helvetica,sans-Serif" font-size="10.00">OMSim.hh</text>
</a>
</g>
</g>
<!-- Node3&#45;&gt;Node4 -->
<g id="edge3" class="edge">
<title>Node3&#45;&gt;Node4</title>
<path fill="none" stroke="midnightblue" d="M306.11,-109.7C269.68,-99.51 216.91,-84.74 183.94,-75.52"/>
<polygon fill="midnightblue" stroke="midnightblue" points="305.35,-113.12 315.92,-112.44 307.23,-106.38 305.35,-113.12"/>
</g>
<!-- Node8 -->
<g id="node8" class="node">
<title>Node8</title>
<g id="a_node8"><a xlink:href="_o_m_sim_m_d_o_m_flasher_8cc.html" target="_top" xlink:title=" ">
<polygon fill="white" stroke="black" points="205.5,-56.5 205.5,-75.5 339.5,-75.5 339.5,-56.5 205.5,-56.5"/>
<text text-anchor="middle" x="272.5" y="-63.5" font-family="Helvetica,sans-Serif" font-size="10.00">OMSimMDOMFlasher.cc</text>
</a>
</g>
</g>
<!-- Node3&#45;&gt;Node8 -->
<g id="edge7" class="edge">
<title>Node3&#45;&gt;Node8</title>
<path fill="none" stroke="midnightblue" d="M326.47,-106.38C313.09,-96.62 295.94,-84.11 284.61,-75.83"/>
<polygon fill="midnightblue" stroke="midnightblue" points="324.47,-109.26 334.61,-112.32 328.6,-103.6 324.47,-109.26"/>
</g>
<!-- Node9 -->
<g id="node9" class="node">
<title>Node9</title>
<g id="a_node9"><a xlink:href="_o_m_sim_angular_scan_8cc.html" target="_top" xlink:title=" ">
<polygon fill="white" stroke="black" points="357.5,-56.5 357.5,-75.5 483.5,-75.5 483.5,-56.5 357.5,-56.5"/>
<text text-anchor="middle" x="420.5" y="-63.5" font-family="Helvetica,sans-Serif" font-size="10.00">OMSimAngularScan.cc</text>
</a>
</g>
</g>
<!-- Node3&#45;&gt;Node9 -->
<g id="edge8" class="edge">
<title>Node3&#45;&gt;Node9</title>
<path fill="none" stroke="midnightblue" d="M366.53,-106.38C379.91,-96.62 397.06,-84.11 408.39,-75.83"/>
<polygon fill="midnightblue" stroke="midnightblue" points="364.4,-103.6 358.39,-112.32 368.53,-109.26 364.4,-103.6"/>
</g>
<!-- Node10 -->
<g id="node10" class="node">
<title>Node10</title>
<g id="a_node10"><a xlink:href="_o_m_sim_decays_g_p_s_8cc.html" target="_top" xlink:title=" ">
<polygon fill="white" stroke="black" points="502,-56.5 502,-75.5 623,-75.5 623,-56.5 502,-56.5"/>
<text text-anchor="middle" x="562.5" y="-63.5" font-family="Helvetica,sans-Serif" font-size="10.00">OMSimDecaysGPS.cc</text>
</a>
</g>
</g>
<!-- Node3&#45;&gt;Node10 -->
<g id="edge9" class="edge">
<title>Node3&#45;&gt;Node10</title>
<path fill="none" stroke="midnightblue" d="M390.66,-109.96C431.46,-99.76 491.21,-84.82 528.43,-75.52"/>
<polygon fill="midnightblue" stroke="midnightblue" points="389.58,-106.62 380.73,-112.44 391.28,-113.41 389.58,-106.62"/>
</g>
<!-- Node5 -->
<g id="node5" class="node">
<title>Node5</title>
<g id="a_node5"><a xlink:href="_o_m_sim_8cc.html" target="_top" xlink:title=" ">
<polygon fill="white" stroke="black" points="0,-0.5 0,-19.5 65,-19.5 65,-0.5 0,-0.5"/>
<text text-anchor="middle" x="32.5" y="-7.5" font-family="Helvetica,sans-Serif" font-size="10.00">OMSim.cc</text>
</a>
</g>
</g>
<!-- Node4&#45;&gt;Node5 -->
<g id="edge4" class="edge">
<title>Node4&#45;&gt;Node5</title>
<path fill="none" stroke="midnightblue" d="M125.19,-52.37C102.53,-42.26 71.37,-28.35 51.58,-19.52"/>
<polygon fill="midnightblue" stroke="midnightblue" points="123.77,-55.56 134.33,-56.44 126.62,-49.17 123.77,-55.56"/>
</g>
<!-- Node6 -->
<g id="node6" class="node">
<title>Node6</title>
<g id="a_node6"><a xlink:href="_o_m_sim__effective__area_8cc.html" target="_top" xlink:title="Main for the calculation of effective areas.">
<polygon fill="white" stroke="black" points="83.5,-0.5 83.5,-19.5 223.5,-19.5 223.5,-0.5 83.5,-0.5"/>
<text text-anchor="middle" x="153.5" y="-7.5" font-family="Helvetica,sans-Serif" font-size="10.00">OMSim_effective_area.cc</text>
</a>
</g>
</g>
<!-- Node4&#45;&gt;Node6 -->
<g id="edge5" class="edge">
<title>Node4&#45;&gt;Node6</title>
<path fill="none" stroke="midnightblue" d="M153.5,-45.8C153.5,-36.91 153.5,-26.78 153.5,-19.75"/>
<polygon fill="midnightblue" stroke="midnightblue" points="150,-46.08 153.5,-56.08 157,-46.08 150,-46.08"/>
</g>
<!-- Node7 -->
<g id="node7" class="node">
<title>Node7</title>
<g id="a_node7"><a xlink:href="_o_m_sim__radioactive__decays_8cc.html" target="_top" xlink:title=" ">
<polygon fill="white" stroke="black" points="242,-0.5 242,-19.5 407,-19.5 407,-0.5 242,-0.5"/>
<text text-anchor="middle" x="324.5" y="-7.5" font-family="Helvetica,sans-Serif" font-size="10.00">OMSim_radioactive_decays.cc</text>
</a>
</g>
</g>
<!-- Node4&#45;&gt;Node7 -->
<g id="edge6" class="edge">
<title>Node4&#45;&gt;Node7</title>
<path fill="none" stroke="midnightblue" d="M190.54,-53.3C222.76,-43.13 268.69,-28.62 297.53,-19.52"/>
<polygon fill="midnightblue" stroke="midnightblue" points="189.08,-50.09 180.6,-56.44 191.19,-56.77 189.08,-50.09"/>
</g>
</g>
</svg>
