<?xml version="1.0" encoding="UTF-8" standalone="no"?>
<!DOCTYPE svg PUBLIC "-//W3C//DTD SVG 1.1//EN"
 "http://www.w3.org/Graphics/SVG/1.1/DTD/svg11.dtd">
<!-- Generated by graphviz version 2.43.0 (0)
 -->
<!-- Title: abcDetectorComponent.hh Pages: 1 -->
<svg width="1665pt" height="252pt"
 viewBox="0.00 0.00 1665.02 252.00" xmlns="http://www.w3.org/2000/svg" xmlns:xlink="http://www.w3.org/1999/xlink">
<g id="graph0" class="graph" transform="scale(1 1) rotate(0) translate(4 248)">
<title>abcDetectorComponent.hh</title>
<polygon fill="white" stroke="transparent" points="-4,4 -4,-248 1661.02,-248 1661.02,4 -4,4"/>
<!-- Node1 -->
<g id="node1" class="node">
<title>Node1</title>
<g id="a_node1"><a xlink:title=" ">
<polygon fill="#bfbfbf" stroke="black" points="662.5,-224.5 662.5,-243.5 809.5,-243.5 809.5,-224.5 662.5,-224.5"/>
<text text-anchor="middle" x="736" y="-231.5" font-family="Helvetica,sans-Serif" font-size="10.00">abcDetectorComponent.hh</text>
</a>
</g>
</g>
<!-- Node2 -->
<g id="node2" class="node">
<title>Node2</title>
<g id="a_node2"><a xlink:href="_o_m_sim_d_e_g_g_8hh.html" target="_top" xlink:title=" ">
<polygon fill="white" stroke="black" points="207.5,-112.5 207.5,-131.5 302.5,-131.5 302.5,-112.5 207.5,-112.5"/>
<text text-anchor="middle" x="255" y="-119.5" font-family="Helvetica,sans-Serif" font-size="10.00">OMSimDEGG.hh</text>
</a>
</g>
</g>
<!-- Node1&#45;&gt;Node2 -->
<g id="edge1" class="edge">
<title>Node1&#45;&gt;Node2</title>
<path fill="none" stroke="midnightblue" d="M652.07,-230.77C547.06,-226.81 374.08,-216.14 317,-188 290.7,-175.04 269.59,-146.06 260.23,-131.58"/>
<polygon fill="midnightblue" stroke="midnightblue" points="652.2,-234.27 662.32,-231.14 652.46,-227.28 652.2,-234.27"/>
</g>
<!-- Node3 -->
<g id="node3" class="node">
<title>Node3</title>
<g id="a_node3"><a xlink:href="_o_m_sim_d_e_g_g_8cc.html" target="_top" xlink:title="Construction of the DEGG class.">
<polygon fill="white" stroke="black" points="0,-56.5 0,-75.5 94,-75.5 94,-56.5 0,-56.5"/>
<text text-anchor="middle" x="47" y="-63.5" font-family="Helvetica,sans-Serif" font-size="10.00">OMSimDEGG.cc</text>
</a>
</g>
</g>
<!-- Node1&#45;&gt;Node3 -->
<g id="edge45" class="edge">
<title>Node1&#45;&gt;Node3</title>
<path fill="none" stroke="midnightblue" d="M652.26,-230.52C509.23,-225.66 223.9,-213.12 127,-188 69.64,-173.13 37.91,-181.93 6,-132 -6.86,-111.88 18.31,-88.12 34.61,-75.64"/>
<polygon fill="midnightblue" stroke="midnightblue" points="652.2,-234.02 662.31,-230.86 652.43,-227.02 652.2,-234.02"/>
</g>
<!-- Node4 -->
<g id="node4" class="node">
<title>Node4</title>
<g id="a_node4"><a xlink:href="_o_m_sim_d_e_g_g_harness_8cc.html" target="_top" xlink:title=" ">
<polygon fill="white" stroke="black" points="112,-56.5 112,-75.5 246,-75.5 246,-56.5 112,-56.5"/>
<text text-anchor="middle" x="179" y="-63.5" font-family="Helvetica,sans-Serif" font-size="10.00">OMSimDEGGHarness.cc</text>
</a>
</g>
</g>
<!-- Node1&#45;&gt;Node4 -->
<g id="edge46" class="edge">
<title>Node1&#45;&gt;Node4</title>
<path fill="none" stroke="midnightblue" d="M652.09,-229.11C541.49,-223.21 353.3,-210.25 288,-188 243.41,-172.81 226.48,-169.52 198,-132 185.06,-114.96 180.92,-89.29 179.6,-75.88"/>
<polygon fill="midnightblue" stroke="midnightblue" points="652.05,-232.61 662.22,-229.64 652.42,-225.62 652.05,-232.61"/>
</g>
<!-- Node6 -->
<g id="node6" class="node">
<title>Node6</title>
<g id="a_node6"><a xlink:href="_o_m_sim_d_e_g_g_harness_8hh.html" target="_top" xlink:title=" ">
<polygon fill="white" stroke="black" points="15.5,-112.5 15.5,-131.5 150.5,-131.5 150.5,-112.5 15.5,-112.5"/>
<text text-anchor="middle" x="83" y="-119.5" font-family="Helvetica,sans-Serif" font-size="10.00">OMSimDEGGHarness.hh</text>
</a>
</g>
</g>
<!-- Node1&#45;&gt;Node6 -->
<g id="edge5" class="edge">
<title>Node1&#45;&gt;Node6</title>
<path fill="none" stroke="midnightblue" d="M652.39,-232.36C515.83,-230.33 251.45,-221.98 165,-188 133.21,-175.51 103.89,-146.31 90.56,-131.68"/>
<polygon fill="midnightblue" stroke="midnightblue" points="652.35,-235.86 662.4,-232.5 652.45,-228.86 652.35,-235.86"/>
</g>
<!-- Node7 -->
<g id="node7" class="node">
<title>Node7</title>
<g id="a_node7"><a xlink:href="_o_m_sim_l_o_m16_8hh.html" target="_top" xlink:title=" ">
<polygon fill="white" stroke="black" points="517.5,-112.5 517.5,-131.5 618.5,-131.5 618.5,-112.5 517.5,-112.5"/>
<text text-anchor="middle" x="568" y="-119.5" font-family="Helvetica,sans-Serif" font-size="10.00">OMSimLOM16.hh</text>
</a>
</g>
</g>
<!-- Node1&#45;&gt;Node7 -->
<g id="edge8" class="edge">
<title>Node1&#45;&gt;Node7</title>
<path fill="none" stroke="midnightblue" d="M714.18,-218.71C678.78,-195.53 609.89,-150.43 581.12,-131.59"/>
<polygon fill="midnightblue" stroke="midnightblue" points="712.53,-221.82 722.82,-224.37 716.37,-215.96 712.53,-221.82"/>
</g>
<!-- Node8 -->
<g id="node8" class="node">
<title>Node8</title>
<g id="a_node8"><a xlink:href="_o_m_sim_l_o_m16_8cc.html" target="_top" xlink:title="Construction of LOM16.">
<polygon fill="white" stroke="black" points="480.5,-56.5 480.5,-75.5 579.5,-75.5 579.5,-56.5 480.5,-56.5"/>
<text text-anchor="middle" x="530" y="-63.5" font-family="Helvetica,sans-Serif" font-size="10.00">OMSimLOM16.cc</text>
</a>
</g>
</g>
<!-- Node1&#45;&gt;Node8 -->
<g id="edge47" class="edge">
<title>Node1&#45;&gt;Node8</title>
<path fill="none" stroke="midnightblue" d="M664.24,-222.31C611.1,-210.23 542.22,-184.83 508,-132 496.21,-113.8 512.3,-88.63 522.59,-75.59"/>
<polygon fill="midnightblue" stroke="midnightblue" points="663.8,-225.8 674.31,-224.49 665.27,-218.95 663.8,-225.8"/>
</g>
<!-- Node9 -->
<g id="node9" class="node">
<title>Node9</title>
<g id="a_node9"><a xlink:href="_o_m_sim_l_o_m18_8hh.html" target="_top" xlink:title=" ">
<polygon fill="white" stroke="black" points="359.5,-112.5 359.5,-131.5 460.5,-131.5 460.5,-112.5 359.5,-112.5"/>
<text text-anchor="middle" x="410" y="-119.5" font-family="Helvetica,sans-Serif" font-size="10.00">OMSimLOM18.hh</text>
</a>
</g>
</g>
<!-- Node1&#45;&gt;Node9 -->
<g id="edge11" class="edge">
<title>Node1&#45;&gt;Node9</title>
<path fill="none" stroke="midnightblue" d="M652.35,-231.43C599,-227.4 529.85,-216.42 475,-188 448.64,-174.34 426.27,-146.22 416.01,-131.86"/>
<polygon fill="midnightblue" stroke="midnightblue" points="652.24,-234.93 662.46,-232.12 652.72,-227.94 652.24,-234.93"/>
</g>
<!-- Node10 -->
<g id="node10" class="node">
<title>Node10</title>
<g id="a_node10"><a xlink:href="_o_m_sim_l_o_m18_8cc.html" target="_top" xlink:title="Construction of LOM18.">
<polygon fill="white" stroke="black" points="315.5,-56.5 315.5,-75.5 414.5,-75.5 414.5,-56.5 315.5,-56.5"/>
<text text-anchor="middle" x="365" y="-63.5" font-family="Helvetica,sans-Serif" font-size="10.00">OMSimLOM18.cc</text>
</a>
</g>
</g>
<!-- Node1&#45;&gt;Node10 -->
<g id="edge48" class="edge">
<title>Node1&#45;&gt;Node10</title>
<path fill="none" stroke="midnightblue" d="M652.3,-228.47C593,-223.26 512.35,-212.06 445,-188 398.84,-171.52 374.31,-174.56 350,-132 339.54,-113.7 351.54,-88.57 359.34,-75.57"/>
<polygon fill="midnightblue" stroke="midnightblue" points="652.11,-231.97 662.37,-229.32 652.7,-224.99 652.11,-231.97"/>
</g>
<!-- Node11 -->
<g id="node11" class="node">
<title>Node11</title>
<g id="a_node11"><a xlink:href="_o_m_sim_m_d_o_m_8hh.html" target="_top" xlink:title=" ">
<polygon fill="white" stroke="black" points="1310,-112.5 1310,-131.5 1410,-131.5 1410,-112.5 1310,-112.5"/>
<text text-anchor="middle" x="1360" y="-119.5" font-family="Helvetica,sans-Serif" font-size="10.00">OMSimMDOM.hh</text>
</a>
</g>
</g>
<!-- Node1&#45;&gt;Node11 -->
<g id="edge14" class="edge">
<title>Node1&#45;&gt;Node11</title>
<path fill="none" stroke="midnightblue" d="M819.74,-233.25C983.26,-232.86 1332.34,-227.36 1369,-188 1383.29,-172.66 1372.39,-145.79 1365.13,-131.89"/>
<polygon fill="midnightblue" stroke="midnightblue" points="819.71,-229.75 809.72,-233.27 819.72,-236.75 819.71,-229.75"/>
</g>
<!-- Node12 -->
<g id="node12" class="node">
<title>Node12</title>
<g id="a_node12"><a xlink:href="_o_m_sim_m_d_o_m_8cc.html" target="_top" xlink:title="Construction of mDOM.">
<polygon fill="white" stroke="black" points="1397,-56.5 1397,-75.5 1495,-75.5 1495,-56.5 1397,-56.5"/>
<text text-anchor="middle" x="1446" y="-63.5" font-family="Helvetica,sans-Serif" font-size="10.00">OMSimMDOM.cc</text>
</a>
</g>
</g>
<!-- Node1&#45;&gt;Node12 -->
<g id="edge49" class="edge">
<title>Node1&#45;&gt;Node12</title>
<path fill="none" stroke="midnightblue" d="M819.6,-230.59C983.62,-225.39 1336.03,-211.59 1386,-188 1416.99,-173.37 1424.63,-163.11 1439,-132 1447.56,-113.45 1447.55,-88.85 1446.78,-75.88"/>
<polygon fill="midnightblue" stroke="midnightblue" points="819.44,-227.1 809.55,-230.91 819.66,-234.09 819.44,-227.1"/>
</g>
<!-- Node13 -->
<g id="node13" class="node">
<title>Node13</title>
<g id="a_node13"><a xlink:href="_o_m_sim_m_d_o_m_flasher_8cc.html" target="_top" xlink:title=" ">
<polygon fill="white" stroke="black" points="1207,-56.5 1207,-75.5 1341,-75.5 1341,-56.5 1207,-56.5"/>
<text text-anchor="middle" x="1274" y="-63.5" font-family="Helvetica,sans-Serif" font-size="10.00">OMSimMDOMFlasher.cc</text>
</a>
</g>
</g>
<!-- Node1&#45;&gt;Node13 -->
<g id="edge50" class="edge">
<title>Node1&#45;&gt;Node13</title>
<path fill="none" stroke="midnightblue" d="M819.7,-225.02C912.92,-213.73 1066.34,-187.87 1187,-132 1218.82,-117.27 1250.33,-89.63 1265.18,-75.62"/>
<polygon fill="midnightblue" stroke="midnightblue" points="819.28,-221.55 809.76,-226.2 820.1,-228.5 819.28,-221.55"/>
</g>
<!-- Node14 -->
<g id="node14" class="node">
<title>Node14</title>
<g id="a_node14"><a xlink:href="_o_m_sim_m_d_o_m_harness_8cc.html" target="_top" xlink:title="Construction of mDOM harness.">
<polygon fill="white" stroke="black" points="1513,-56.5 1513,-75.5 1651,-75.5 1651,-56.5 1513,-56.5"/>
<text text-anchor="middle" x="1582" y="-63.5" font-family="Helvetica,sans-Serif" font-size="10.00">OMSimMDOMHarness.cc</text>
</a>
</g>
</g>
<!-- Node1&#45;&gt;Node14 -->
<g id="edge51" class="edge">
<title>Node1&#45;&gt;Node14</title>
<path fill="none" stroke="midnightblue" d="M819.83,-231.82C994.01,-228.78 1389.76,-218.62 1521,-188 1583.06,-173.52 1617.82,-185.14 1653,-132 1668.87,-108.03 1631.36,-86.93 1605.04,-75.66"/>
<polygon fill="midnightblue" stroke="midnightblue" points="819.63,-228.32 809.69,-231.99 819.75,-235.32 819.63,-228.32"/>
</g>
<!-- Node17 -->
<g id="node17" class="node">
<title>Node17</title>
<g id="a_node17"><a xlink:href="_o_m_sim_m_d_o_m_flasher_8hh.html" target="_top" xlink:title=" ">
<polygon fill="white" stroke="black" points="1224.5,-168.5 1224.5,-187.5 1359.5,-187.5 1359.5,-168.5 1224.5,-168.5"/>
<text text-anchor="middle" x="1292" y="-175.5" font-family="Helvetica,sans-Serif" font-size="10.00">OMSimMDOMFlasher.hh</text>
</a>
</g>
</g>
<!-- Node1&#45;&gt;Node17 -->
<g id="edge22" class="edge">
<title>Node1&#45;&gt;Node17</title>
<path fill="none" stroke="midnightblue" d="M819.61,-225.44C914.34,-216.78 1073.33,-201.99 1210,-188 1214.7,-187.52 1219.55,-187.01 1224.44,-186.49"/>
<polygon fill="midnightblue" stroke="midnightblue" points="819.16,-221.96 809.52,-226.36 819.8,-228.93 819.16,-221.96"/>
</g>
<!-- Node18 -->
<g id="node18" class="node">
<title>Node18</title>
<g id="a_node18"><a xlink:href="_o_m_sim_m_d_o_m_harness_8hh.html" target="_top" xlink:title=" ">
<polygon fill="white" stroke="black" points="1504,-112.5 1504,-131.5 1644,-131.5 1644,-112.5 1504,-112.5"/>
<text text-anchor="middle" x="1574" y="-119.5" font-family="Helvetica,sans-Serif" font-size="10.00">OMSimMDOMHarness.hh</text>
</a>
</g>
</g>
<!-- Node1&#45;&gt;Node18 -->
<g id="edge27" class="edge">
<title>Node1&#45;&gt;Node18</title>
<path fill="none" stroke="midnightblue" d="M819.73,-230.79C1003.07,-225.54 1428.62,-211.04 1490,-188 1522.46,-175.82 1552.54,-146.47 1566.24,-131.74"/>
<polygon fill="midnightblue" stroke="midnightblue" points="819.49,-227.29 809.59,-231.08 819.69,-234.29 819.49,-227.29"/>
</g>
<!-- Node19 -->
<g id="node19" class="node">
<title>Node19</title>
<g id="a_node19"><a xlink:href="_o_m_sim_p_d_o_m_8hh.html" target="_top" xlink:title=" ">
<polygon fill="white" stroke="black" points="636.5,-112.5 636.5,-131.5 733.5,-131.5 733.5,-112.5 636.5,-112.5"/>
<text text-anchor="middle" x="685" y="-119.5" font-family="Helvetica,sans-Serif" font-size="10.00">OMSimPDOM.hh</text>
</a>
</g>
</g>
<!-- Node1&#45;&gt;Node19 -->
<g id="edge30" class="edge">
<title>Node1&#45;&gt;Node19</title>
<path fill="none" stroke="midnightblue" d="M721.59,-216.42C715.14,-208.31 707.9,-198.11 703,-188 693.8,-169.03 688.64,-144.6 686.39,-131.77"/>
<polygon fill="midnightblue" stroke="midnightblue" points="719.06,-218.85 728.13,-224.32 724.45,-214.39 719.06,-218.85"/>
</g>
<!-- Node21 -->
<g id="node21" class="node">
<title>Node21</title>
<g id="a_node21"><a xlink:href="_o_m_sim_p_m_t_construction_8hh.html" target="_top" xlink:title=" ">
<polygon fill="white" stroke="black" points="712.5,-168.5 712.5,-187.5 861.5,-187.5 861.5,-168.5 712.5,-168.5"/>
<text text-anchor="middle" x="787" y="-175.5" font-family="Helvetica,sans-Serif" font-size="10.00">OMSimPMTConstruction.hh</text>
</a>
</g>
</g>
<!-- Node1&#45;&gt;Node21 -->
<g id="edge33" class="edge">
<title>Node1&#45;&gt;Node21</title>
<path fill="none" stroke="midnightblue" d="M751.38,-216.72C760.37,-207.2 771.36,-195.56 778.74,-187.75"/>
<polygon fill="midnightblue" stroke="midnightblue" points="748.74,-214.41 744.42,-224.08 753.83,-219.22 748.74,-214.41"/>
</g>
<!-- Node22 -->
<g id="node22" class="node">
<title>Node22</title>
<g id="a_node22"><a xlink:href="abc_detector_component_8cc.html" target="_top" xlink:title="Contains the implementation of the abcDetectorComponent class.">
<polygon fill="white" stroke="black" points="866,-112.5 866,-131.5 1012,-131.5 1012,-112.5 866,-112.5"/>
<text text-anchor="middle" x="939" y="-119.5" font-family="Helvetica,sans-Serif" font-size="10.00">abcDetectorComponent.cc</text>
</a>
</g>
</g>
<!-- Node1&#45;&gt;Node22 -->
<g id="edge44" class="edge">
<title>Node1&#45;&gt;Node22</title>
<path fill="none" stroke="midnightblue" d="M785.51,-221.87C811.8,-214.63 843.96,-203.6 870,-188 895.98,-172.44 920.26,-145.67 931.86,-131.84"/>
<polygon fill="midnightblue" stroke="midnightblue" points="784.52,-218.51 775.75,-224.46 786.31,-225.28 784.52,-218.51"/>
</g>
<!-- Node23 -->
<g id="node23" class="node">
<title>Node23</title>
<g id="a_node23"><a xlink:href="_o_m_sim_p_m_t_construction_8cc.html" target="_top" xlink:title="Construction of the PMTs.">
<polygon fill="white" stroke="black" points="1030.5,-112.5 1030.5,-131.5 1177.5,-131.5 1177.5,-112.5 1030.5,-112.5"/>
<text text-anchor="middle" x="1104" y="-119.5" font-family="Helvetica,sans-Serif" font-size="10.00">OMSimPMTConstruction.cc</text>
</a>
</g>
</g>
<!-- Node1&#45;&gt;Node23 -->
<g id="edge52" class="edge">
<title>Node1&#45;&gt;Node23</title>
<path fill="none" stroke="midnightblue" d="M777.62,-221.76C810.18,-212.87 856.58,-199.99 897,-188 962.18,-168.66 1038.35,-144.28 1077.61,-131.58"/>
<polygon fill="midnightblue" stroke="midnightblue" points="776.28,-218.49 767.55,-224.5 778.12,-225.25 776.28,-218.49"/>
</g>
<!-- Node2&#45;&gt;Node3 -->
<g id="edge2" class="edge">
<title>Node2&#45;&gt;Node3</title>
<path fill="none" stroke="midnightblue" d="M212.22,-109.89C172.94,-99.7 115.57,-84.8 79.8,-75.52"/>
<polygon fill="midnightblue" stroke="midnightblue" points="211.48,-113.32 222.04,-112.44 213.24,-106.54 211.48,-113.32"/>
</g>
<!-- Node2&#45;&gt;Node4 -->
<g id="edge3" class="edge">
<title>Node2&#45;&gt;Node4</title>
<path fill="none" stroke="midnightblue" d="M234.42,-106.38C220.69,-96.62 203.07,-84.11 191.43,-75.83"/>
<polygon fill="midnightblue" stroke="midnightblue" points="232.61,-109.38 242.79,-112.32 236.66,-103.68 232.61,-109.38"/>
</g>
<!-- Node5 -->
<g id="node5" class="node">
<title>Node5</title>
<g id="a_node5"><a xlink:href="_o_m_sim_detector_construction_8cc.html" target="_top" xlink:title="User defined detector.">
<polygon fill="white" stroke="black" points="639.5,-0.5 639.5,-19.5 808.5,-19.5 808.5,-0.5 639.5,-0.5"/>
<text text-anchor="middle" x="724" y="-7.5" font-family="Helvetica,sans-Serif" font-size="10.00">OMSimDetectorConstruction.cc</text>
</a>
</g>
</g>
<!-- Node2&#45;&gt;Node5 -->
<g id="edge4" class="edge">
<title>Node2&#45;&gt;Node5</title>
<path fill="none" stroke="midnightblue" d="M263.6,-103.43C272.11,-88.12 286.66,-66.73 306,-56 361.45,-25.25 534.18,-15.51 639.45,-12.43"/>
<polygon fill="midnightblue" stroke="midnightblue" points="260.42,-101.96 258.89,-112.45 266.63,-105.2 260.42,-101.96"/>
</g>
<!-- Node6&#45;&gt;Node3 -->
<g id="edge6" class="edge">
<title>Node6&#45;&gt;Node3</title>
<path fill="none" stroke="midnightblue" d="M71.38,-103.57C65.18,-94.27 57.83,-83.25 52.83,-75.75"/>
<polygon fill="midnightblue" stroke="midnightblue" points="68.6,-105.7 77.06,-112.08 74.42,-101.82 68.6,-105.7"/>
</g>
<!-- Node6&#45;&gt;Node4 -->
<g id="edge7" class="edge">
<title>Node6&#45;&gt;Node4</title>
<path fill="none" stroke="midnightblue" d="M107.57,-107.18C125.24,-97.24 148.51,-84.15 163.61,-75.65"/>
<polygon fill="midnightblue" stroke="midnightblue" points="105.42,-104.37 98.42,-112.32 108.86,-110.47 105.42,-104.37"/>
</g>
<!-- Node7&#45;&gt;Node5 -->
<g id="edge10" class="edge">
<title>Node7&#45;&gt;Node5</title>
<path fill="none" stroke="midnightblue" d="M588.52,-106.49C607.15,-93.3 635.41,-73.33 660,-56 677.99,-43.32 698.84,-28.67 711.72,-19.62"/>
<polygon fill="midnightblue" stroke="midnightblue" points="586.34,-103.74 580.2,-112.37 590.38,-109.45 586.34,-103.74"/>
</g>
<!-- Node7&#45;&gt;Node8 -->
<g id="edge9" class="edge">
<title>Node7&#45;&gt;Node8</title>
<path fill="none" stroke="midnightblue" d="M555.94,-103.86C549.36,-94.5 541.49,-83.33 536.16,-75.75"/>
<polygon fill="midnightblue" stroke="midnightblue" points="553.11,-105.92 561.73,-112.08 558.83,-101.89 553.11,-105.92"/>
</g>
<!-- Node9&#45;&gt;Node5 -->
<g id="edge13" class="edge">
<title>Node9&#45;&gt;Node5</title>
<path fill="none" stroke="midnightblue" d="M421.35,-103.68C432.22,-88.58 450.04,-67.36 471,-56 522.58,-28.05 587.93,-16.94 639.29,-12.75"/>
<polygon fill="midnightblue" stroke="midnightblue" points="418.3,-101.93 415.51,-112.15 424.07,-105.91 418.3,-101.93"/>
</g>
<!-- Node9&#45;&gt;Node10 -->
<g id="edge12" class="edge">
<title>Node9&#45;&gt;Node10</title>
<path fill="none" stroke="midnightblue" d="M395.95,-104.14C388.11,-94.74 378.67,-83.4 372.29,-75.75"/>
<polygon fill="midnightblue" stroke="midnightblue" points="393.48,-106.64 402.57,-112.08 398.86,-102.16 393.48,-106.64"/>
</g>
<!-- Node11&#45;&gt;Node5 -->
<g id="edge21" class="edge">
<title>Node11&#45;&gt;Node5</title>
<path fill="none" stroke="midnightblue" d="M1362.79,-102.24C1363.83,-87.45 1362.44,-67.47 1350,-56 1330.41,-37.94 975.21,-21.2 808.76,-14.31"/>
<polygon fill="midnightblue" stroke="midnightblue" points="1359.3,-101.98 1361.67,-112.31 1366.25,-102.76 1359.3,-101.98"/>
</g>
<!-- Node11&#45;&gt;Node12 -->
<g id="edge15" class="edge">
<title>Node11&#45;&gt;Node12</title>
<path fill="none" stroke="midnightblue" d="M1382.45,-106.9C1398.22,-97 1418.81,-84.07 1432.22,-75.65"/>
<polygon fill="midnightblue" stroke="midnightblue" points="1380.43,-104.04 1373.82,-112.32 1384.15,-109.97 1380.43,-104.04"/>
</g>
<!-- Node11&#45;&gt;Node13 -->
<g id="edge16" class="edge">
<title>Node11&#45;&gt;Node13</title>
<path fill="none" stroke="midnightblue" d="M1337.55,-106.9C1321.78,-97 1301.19,-84.07 1287.78,-75.65"/>
<polygon fill="midnightblue" stroke="midnightblue" points="1335.85,-109.97 1346.18,-112.32 1339.57,-104.04 1335.85,-109.97"/>
</g>
<!-- Node11&#45;&gt;Node14 -->
<g id="edge17" class="edge">
<title>Node11&#45;&gt;Node14</title>
<path fill="none" stroke="midnightblue" d="M1405.12,-110.02C1447.06,-99.82 1508.65,-84.84 1546.99,-75.52"/>
<polygon fill="midnightblue" stroke="midnightblue" points="1404.07,-106.68 1395.18,-112.44 1405.72,-113.48 1404.07,-106.68"/>
</g>
<!-- Node15 -->
<g id="node15" class="node">
<title>Node15</title>
<g id="a_node15"><a xlink:href="_o_m_sim_detector_construction_8hh.html" target="_top" xlink:title=" ">
<polygon fill="white" stroke="black" points="1019,-56.5 1019,-75.5 1189,-75.5 1189,-56.5 1019,-56.5"/>
<text text-anchor="middle" x="1104" y="-63.5" font-family="Helvetica,sans-Serif" font-size="10.00">OMSimDetectorConstruction.hh</text>
</a>
</g>
</g>
<!-- Node11&#45;&gt;Node15 -->
<g id="edge18" class="edge">
<title>Node11&#45;&gt;Node15</title>
<path fill="none" stroke="midnightblue" d="M1309.49,-110.35C1261.11,-100.14 1189.05,-84.94 1144.37,-75.52"/>
<polygon fill="midnightblue" stroke="midnightblue" points="1308.93,-113.8 1319.44,-112.44 1310.37,-106.95 1308.93,-113.8"/>
</g>
<!-- Node15&#45;&gt;Node5 -->
<g id="edge19" class="edge">
<title>Node15&#45;&gt;Node5</title>
<path fill="none" stroke="midnightblue" d="M1033.48,-54.98C961.7,-44.78 851.63,-29.14 783.93,-19.52"/>
<polygon fill="midnightblue" stroke="midnightblue" points="1033.39,-58.5 1043.79,-56.44 1034.38,-51.57 1033.39,-58.5"/>
</g>
<!-- Node16 -->
<g id="node16" class="node">
<title>Node16</title>
<g id="a_node16"><a xlink:href="_o_m_sim__effective__area_8cc.html" target="_top" xlink:title="Main for the calculation of effective areas.">
<polygon fill="white" stroke="black" points="1034,-0.5 1034,-19.5 1174,-19.5 1174,-0.5 1034,-0.5"/>
<text text-anchor="middle" x="1104" y="-7.5" font-family="Helvetica,sans-Serif" font-size="10.00">OMSim_effective_area.cc</text>
</a>
</g>
</g>
<!-- Node15&#45;&gt;Node16 -->
<g id="edge20" class="edge">
<title>Node15&#45;&gt;Node16</title>
<path fill="none" stroke="midnightblue" d="M1104,-45.8C1104,-36.91 1104,-26.78 1104,-19.75"/>
<polygon fill="midnightblue" stroke="midnightblue" points="1100.5,-46.08 1104,-56.08 1107.5,-46.08 1100.5,-46.08"/>
</g>
<!-- Node17&#45;&gt;Node5 -->
<g id="edge26" class="edge">
<title>Node17&#45;&gt;Node5</title>
<path fill="none" stroke="midnightblue" d="M1272.99,-162.33C1252.77,-147.44 1219.29,-124.8 1187,-112 1112.37,-82.41 1088.48,-92.9 1010,-76 920.15,-56.66 814.82,-32.28 760.51,-19.58"/>
<polygon fill="midnightblue" stroke="midnightblue" points="1270.96,-165.18 1281.06,-168.37 1275.16,-159.58 1270.96,-165.18"/>
</g>
<!-- Node17&#45;&gt;Node11 -->
<g id="edge23" class="edge">
<title>Node17&#45;&gt;Node11</title>
<path fill="none" stroke="midnightblue" d="M1310.76,-162.1C1323,-152.38 1338.56,-140.03 1348.88,-131.83"/>
<polygon fill="midnightblue" stroke="midnightblue" points="1308.58,-159.36 1302.93,-168.32 1312.93,-164.85 1308.58,-159.36"/>
</g>
<!-- Node17&#45;&gt;Node12 -->
<g id="edge24" class="edge">
<title>Node17&#45;&gt;Node12</title>
<path fill="none" stroke="midnightblue" d="M1355.27,-165.72C1377.64,-159.06 1401.55,-148.54 1419,-132 1435.32,-116.53 1442.13,-89.72 1444.67,-75.86"/>
<polygon fill="midnightblue" stroke="midnightblue" points="1354.17,-162.39 1345.47,-168.43 1356.04,-169.13 1354.17,-162.39"/>
</g>
<!-- Node17&#45;&gt;Node13 -->
<g id="edge25" class="edge">
<title>Node17&#45;&gt;Node13</title>
<path fill="none" stroke="midnightblue" d="M1288.95,-158.35C1285.01,-134.25 1278.3,-93.31 1275.41,-75.59"/>
<polygon fill="midnightblue" stroke="midnightblue" points="1285.52,-159.06 1290.59,-168.37 1292.43,-157.93 1285.52,-159.06"/>
</g>
<!-- Node18&#45;&gt;Node12 -->
<g id="edge28" class="edge">
<title>Node18&#45;&gt;Node12</title>
<path fill="none" stroke="midnightblue" d="M1544.38,-108.5C1520.38,-98.38 1487.22,-84.39 1466.19,-75.52"/>
<polygon fill="midnightblue" stroke="midnightblue" points="1543.14,-111.78 1553.72,-112.44 1545.86,-105.33 1543.14,-111.78"/>
</g>
<!-- Node18&#45;&gt;Node14 -->
<g id="edge29" class="edge">
<title>Node18&#45;&gt;Node14</title>
<path fill="none" stroke="midnightblue" d="M1576.8,-102.1C1578.13,-93.14 1579.65,-82.86 1580.7,-75.75"/>
<polygon fill="midnightblue" stroke="midnightblue" points="1573.32,-101.68 1575.32,-112.08 1580.25,-102.7 1573.32,-101.68"/>
</g>
<!-- Node19&#45;&gt;Node5 -->
<g id="edge32" class="edge">
<title>Node19&#45;&gt;Node5</title>
<path fill="none" stroke="midnightblue" d="M673.58,-103.51C666.34,-90.06 659.6,-71.26 667,-56 675.03,-39.43 692.44,-27.13 705.92,-19.61"/>
<polygon fill="midnightblue" stroke="midnightblue" points="670.64,-105.41 678.75,-112.23 676.66,-101.84 670.64,-105.41"/>
</g>
<!-- Node20 -->
<g id="node20" class="node">
<title>Node20</title>
<g id="a_node20"><a xlink:href="_o_m_sim_p_d_o_m_8cc.html" target="_top" xlink:title="Implementation of the pDOM/Gen1 DOM class.">
<polygon fill="white" stroke="black" points="676.5,-56.5 676.5,-75.5 771.5,-75.5 771.5,-56.5 676.5,-56.5"/>
<text text-anchor="middle" x="724" y="-63.5" font-family="Helvetica,sans-Serif" font-size="10.00">OMSimPDOM.cc</text>
</a>
</g>
</g>
<!-- Node19&#45;&gt;Node20 -->
<g id="edge31" class="edge">
<title>Node19&#45;&gt;Node20</title>
<path fill="none" stroke="midnightblue" d="M697.38,-103.86C704.14,-94.5 712.21,-83.33 717.68,-75.75"/>
<polygon fill="midnightblue" stroke="midnightblue" points="694.46,-101.93 691.44,-112.08 700.13,-106.03 694.46,-101.93"/>
</g>
<!-- Node21&#45;&gt;Node2 -->
<g id="edge34" class="edge">
<title>Node21&#45;&gt;Node2</title>
<path fill="none" stroke="midnightblue" d="M702.46,-168.42C589.4,-156.94 392.76,-136.98 302.62,-127.83"/>
<polygon fill="midnightblue" stroke="midnightblue" points="702.17,-171.91 712.47,-169.43 702.87,-164.94 702.17,-171.91"/>
</g>
<!-- Node21&#45;&gt;Node5 -->
<g id="edge43" class="edge">
<title>Node21&#45;&gt;Node5</title>
<path fill="none" stroke="midnightblue" d="M790.34,-158.6C793.91,-133.79 796.97,-88.93 780,-56 771.54,-39.59 754.15,-27.12 740.98,-19.51"/>
<polygon fill="midnightblue" stroke="midnightblue" points="786.89,-158.04 788.74,-168.47 793.8,-159.16 786.89,-158.04"/>
</g>
<!-- Node21&#45;&gt;Node7 -->
<g id="edge35" class="edge">
<title>Node21&#45;&gt;Node7</title>
<path fill="none" stroke="midnightblue" d="M742.49,-166.02C701.12,-155.82 640.36,-140.84 602.54,-131.52"/>
<polygon fill="midnightblue" stroke="midnightblue" points="741.75,-169.45 752.3,-168.44 743.43,-162.65 741.75,-169.45"/>
</g>
<!-- Node21&#45;&gt;Node9 -->
<g id="edge36" class="edge">
<title>Node21&#45;&gt;Node9</title>
<path fill="none" stroke="midnightblue" d="M717.05,-166.98C642.65,-156.32 526.78,-139.73 460.7,-130.26"/>
<polygon fill="midnightblue" stroke="midnightblue" points="716.87,-170.49 727.26,-168.44 717.86,-163.56 716.87,-170.49"/>
</g>
<!-- Node21&#45;&gt;Node11 -->
<g id="edge37" class="edge">
<title>Node21&#45;&gt;Node11</title>
<path fill="none" stroke="midnightblue" d="M871.59,-169.03C992.68,-157.62 1211.63,-136.98 1309.89,-127.72"/>
<polygon fill="midnightblue" stroke="midnightblue" points="871.24,-165.55 861.62,-169.97 871.9,-172.51 871.24,-165.55"/>
</g>
<!-- Node21&#45;&gt;Node15 -->
<g id="edge42" class="edge">
<title>Node21&#45;&gt;Node15</title>
<path fill="none" stroke="midnightblue" d="M800.24,-160.15C813.07,-145.05 833.94,-123.55 857,-112 907.18,-86.87 969.36,-75.64 1018.78,-70.68"/>
<polygon fill="midnightblue" stroke="midnightblue" points="797.29,-158.22 793.65,-168.18 802.7,-162.66 797.29,-158.22"/>
</g>
<!-- Node21&#45;&gt;Node19 -->
<g id="edge38" class="edge">
<title>Node21&#45;&gt;Node19</title>
<path fill="none" stroke="midnightblue" d="M761.67,-163.59C742.81,-153.61 717.62,-140.27 701.35,-131.65"/>
<polygon fill="midnightblue" stroke="midnightblue" points="760.14,-166.74 770.61,-168.32 763.41,-160.55 760.14,-166.74"/>
</g>
<!-- Node21&#45;&gt;Node20 -->
<g id="edge40" class="edge">
<title>Node21&#45;&gt;Node20</title>
<path fill="none" stroke="midnightblue" d="M777.06,-159.64C763.37,-135.74 739.25,-93.63 728.92,-75.59"/>
<polygon fill="midnightblue" stroke="midnightblue" points="774.05,-161.43 782.06,-168.37 780.12,-157.95 774.05,-161.43"/>
</g>
<!-- Node21&#45;&gt;Node22 -->
<g id="edge39" class="edge">
<title>Node21&#45;&gt;Node22</title>
<path fill="none" stroke="midnightblue" d="M820.67,-165.04C849.27,-154.88 889.61,-140.55 915.03,-131.52"/>
<polygon fill="midnightblue" stroke="midnightblue" points="819.34,-161.8 811.08,-168.44 821.68,-168.39 819.34,-161.8"/>
</g>
<!-- Node21&#45;&gt;Node23 -->
<g id="edge41" class="edge">
<title>Node21&#45;&gt;Node23</title>
<path fill="none" stroke="midnightblue" d="M847.3,-166.73C907.21,-156.52 997.99,-141.06 1054.01,-131.52"/>
<polygon fill="midnightblue" stroke="midnightblue" points="846.5,-163.31 837.23,-168.44 847.68,-170.21 846.5,-163.31"/>
</g>
</g>
</svg>
