<?xml version="1.0" encoding="UTF-8" standalone="no"?>
<!DOCTYPE svg PUBLIC "-//W3C//DTD SVG 1.1//EN"
 "http://www.w3.org/Graphics/SVG/1.1/DTD/svg11.dtd">
<!-- Generated by graphviz version 2.43.0 (0)
 -->
<!-- Title: abcDetectorComponent.hh Pages: 1 -->
<svg width="1664pt" height="308pt"
 viewBox="0.00 0.00 1664.02 308.00" xmlns="http://www.w3.org/2000/svg" xmlns:xlink="http://www.w3.org/1999/xlink">
<g id="graph0" class="graph" transform="scale(1 1) rotate(0) translate(4 304)">
<title>abcDetectorComponent.hh</title>
<polygon fill="white" stroke="transparent" points="-4,4 -4,-304 1660.02,-304 1660.02,4 -4,4"/>
<!-- Node1 -->
<g id="node1" class="node">
<title>Node1</title>
<g id="a_node1"><a xlink:title=" ">
<polygon fill="#bfbfbf" stroke="black" points="661.5,-280.5 661.5,-299.5 808.5,-299.5 808.5,-280.5 661.5,-280.5"/>
<text text-anchor="middle" x="735" y="-287.5" font-family="Helvetica,sans-Serif" font-size="10.00">abcDetectorComponent.hh</text>
</a>
</g>
</g>
<!-- Node2 -->
<g id="node2" class="node">
<title>Node2</title>
<g id="a_node2"><a xlink:href="_o_m_sim_d_e_g_g_8hh.html" target="_top" xlink:title=" ">
<polygon fill="white" stroke="black" points="206.5,-168.5 206.5,-187.5 301.5,-187.5 301.5,-168.5 206.5,-168.5"/>
<text text-anchor="middle" x="254" y="-175.5" font-family="Helvetica,sans-Serif" font-size="10.00">OMSimDEGG.hh</text>
</a>
</g>
</g>
<!-- Node1&#45;&gt;Node2 -->
<g id="edge1" class="edge">
<title>Node1&#45;&gt;Node2</title>
<path fill="none" stroke="midnightblue" d="M651.07,-286.77C546.06,-282.81 373.08,-272.14 316,-244 289.7,-231.04 268.59,-202.06 259.23,-187.58"/>
<polygon fill="midnightblue" stroke="midnightblue" points="651.2,-290.27 661.32,-287.14 651.46,-283.28 651.2,-290.27"/>
</g>
<!-- Node3 -->
<g id="node3" class="node">
<title>Node3</title>
<g id="a_node3"><a xlink:href="_o_m_sim_d_e_g_g_8cc.html" target="_top" xlink:title="Construction of the DEGG class.">
<polygon fill="white" stroke="black" points="0,-112.5 0,-131.5 94,-131.5 94,-112.5 0,-112.5"/>
<text text-anchor="middle" x="47" y="-119.5" font-family="Helvetica,sans-Serif" font-size="10.00">OMSimDEGG.cc</text>
</a>
</g>
</g>
<!-- Node1&#45;&gt;Node3 -->
<g id="edge48" class="edge">
<title>Node1&#45;&gt;Node3</title>
<path fill="none" stroke="midnightblue" d="M651.26,-286.52C508.23,-281.66 222.9,-269.12 126,-244 68.64,-229.13 36.91,-237.93 5,-188 -7.95,-167.74 17.74,-144.03 34.37,-131.6"/>
<polygon fill="midnightblue" stroke="midnightblue" points="651.2,-290.02 661.31,-286.86 651.43,-283.02 651.2,-290.02"/>
</g>
<!-- Node4 -->
<g id="node4" class="node">
<title>Node4</title>
<g id="a_node4"><a xlink:href="_o_m_sim_d_e_g_g_harness_8cc.html" target="_top" xlink:title=" ">
<polygon fill="white" stroke="black" points="112,-112.5 112,-131.5 246,-131.5 246,-112.5 112,-112.5"/>
<text text-anchor="middle" x="179" y="-119.5" font-family="Helvetica,sans-Serif" font-size="10.00">OMSimDEGGHarness.cc</text>
</a>
</g>
</g>
<!-- Node1&#45;&gt;Node4 -->
<g id="edge49" class="edge">
<title>Node1&#45;&gt;Node4</title>
<path fill="none" stroke="midnightblue" d="M651.09,-285.11C540.49,-279.21 352.3,-266.25 287,-244 242.41,-228.81 225.22,-225.73 197,-188 184.24,-170.93 180.52,-145.28 179.44,-131.88"/>
<polygon fill="midnightblue" stroke="midnightblue" points="651.05,-288.61 661.22,-285.64 651.42,-281.62 651.05,-288.61"/>
</g>
<!-- Node6 -->
<g id="node6" class="node">
<title>Node6</title>
<g id="a_node6"><a xlink:href="_o_m_sim_d_e_g_g_harness_8hh.html" target="_top" xlink:title=" ">
<polygon fill="white" stroke="black" points="14.5,-168.5 14.5,-187.5 149.5,-187.5 149.5,-168.5 14.5,-168.5"/>
<text text-anchor="middle" x="82" y="-175.5" font-family="Helvetica,sans-Serif" font-size="10.00">OMSimDEGGHarness.hh</text>
</a>
</g>
</g>
<!-- Node1&#45;&gt;Node6 -->
<g id="edge5" class="edge">
<title>Node1&#45;&gt;Node6</title>
<path fill="none" stroke="midnightblue" d="M651.39,-288.36C514.83,-286.33 250.45,-277.98 164,-244 132.21,-231.51 102.89,-202.31 89.56,-187.68"/>
<polygon fill="midnightblue" stroke="midnightblue" points="651.35,-291.86 661.4,-288.5 651.45,-284.86 651.35,-291.86"/>
</g>
<!-- Node7 -->
<g id="node7" class="node">
<title>Node7</title>
<g id="a_node7"><a xlink:href="_o_m_sim_l_o_m16_8hh.html" target="_top" xlink:title=" ">
<polygon fill="white" stroke="black" points="516.5,-168.5 516.5,-187.5 617.5,-187.5 617.5,-168.5 516.5,-168.5"/>
<text text-anchor="middle" x="567" y="-175.5" font-family="Helvetica,sans-Serif" font-size="10.00">OMSimLOM16.hh</text>
</a>
</g>
</g>
<!-- Node1&#45;&gt;Node7 -->
<g id="edge8" class="edge">
<title>Node1&#45;&gt;Node7</title>
<path fill="none" stroke="midnightblue" d="M713.18,-274.71C677.78,-251.53 608.89,-206.43 580.12,-187.59"/>
<polygon fill="midnightblue" stroke="midnightblue" points="711.53,-277.82 721.82,-280.37 715.37,-271.96 711.53,-277.82"/>
</g>
<!-- Node8 -->
<g id="node8" class="node">
<title>Node8</title>
<g id="a_node8"><a xlink:href="_o_m_sim_l_o_m16_8cc.html" target="_top" xlink:title="Construction of LOM16.">
<polygon fill="white" stroke="black" points="480.5,-112.5 480.5,-131.5 579.5,-131.5 579.5,-112.5 480.5,-112.5"/>
<text text-anchor="middle" x="530" y="-119.5" font-family="Helvetica,sans-Serif" font-size="10.00">OMSimLOM16.cc</text>
</a>
</g>
</g>
<!-- Node1&#45;&gt;Node8 -->
<g id="edge50" class="edge">
<title>Node1&#45;&gt;Node8</title>
<path fill="none" stroke="midnightblue" d="M663.24,-278.31C610.1,-266.23 541.22,-240.83 507,-188 495.16,-169.71 511.78,-144.58 522.38,-131.57"/>
<polygon fill="midnightblue" stroke="midnightblue" points="662.8,-281.8 673.31,-280.49 664.27,-274.95 662.8,-281.8"/>
</g>
<!-- Node9 -->
<g id="node9" class="node">
<title>Node9</title>
<g id="a_node9"><a xlink:href="_o_m_sim_l_o_m18_8hh.html" target="_top" xlink:title=" ">
<polygon fill="white" stroke="black" points="358.5,-168.5 358.5,-187.5 459.5,-187.5 459.5,-168.5 358.5,-168.5"/>
<text text-anchor="middle" x="409" y="-175.5" font-family="Helvetica,sans-Serif" font-size="10.00">OMSimLOM18.hh</text>
</a>
</g>
</g>
<!-- Node1&#45;&gt;Node9 -->
<g id="edge11" class="edge">
<title>Node1&#45;&gt;Node9</title>
<path fill="none" stroke="midnightblue" d="M651.35,-287.43C598,-283.4 528.85,-272.42 474,-244 447.64,-230.34 425.27,-202.22 415.01,-187.86"/>
<polygon fill="midnightblue" stroke="midnightblue" points="651.24,-290.93 661.46,-288.12 651.72,-283.94 651.24,-290.93"/>
</g>
<!-- Node10 -->
<g id="node10" class="node">
<title>Node10</title>
<g id="a_node10"><a xlink:href="_o_m_sim_l_o_m18_8cc.html" target="_top" xlink:title="Construction of LOM18.">
<polygon fill="white" stroke="black" points="320.5,-112.5 320.5,-131.5 419.5,-131.5 419.5,-112.5 320.5,-112.5"/>
<text text-anchor="middle" x="370" y="-119.5" font-family="Helvetica,sans-Serif" font-size="10.00">OMSimLOM18.cc</text>
</a>
</g>
</g>
<!-- Node1&#45;&gt;Node10 -->
<g id="edge51" class="edge">
<title>Node1&#45;&gt;Node10</title>
<path fill="none" stroke="midnightblue" d="M651.3,-284.47C592,-279.26 511.35,-268.06 444,-244 397.84,-227.52 373.31,-230.56 349,-188 338.41,-169.47 353.09,-144.86 362.75,-131.88"/>
<polygon fill="midnightblue" stroke="midnightblue" points="651.11,-287.97 661.37,-285.32 651.7,-280.99 651.11,-287.97"/>
</g>
<!-- Node11 -->
<g id="node11" class="node">
<title>Node11</title>
<g id="a_node11"><a xlink:href="_o_m_sim_m_d_o_m_8hh.html" target="_top" xlink:title=" ">
<polygon fill="white" stroke="black" points="1309,-168.5 1309,-187.5 1409,-187.5 1409,-168.5 1309,-168.5"/>
<text text-anchor="middle" x="1359" y="-175.5" font-family="Helvetica,sans-Serif" font-size="10.00">OMSimMDOM.hh</text>
</a>
</g>
</g>
<!-- Node1&#45;&gt;Node11 -->
<g id="edge14" class="edge">
<title>Node1&#45;&gt;Node11</title>
<path fill="none" stroke="midnightblue" d="M818.74,-289.25C982.26,-288.86 1331.34,-283.36 1368,-244 1382.29,-228.66 1371.39,-201.79 1364.13,-187.89"/>
<polygon fill="midnightblue" stroke="midnightblue" points="818.71,-285.75 808.72,-289.27 818.72,-292.75 818.71,-285.75"/>
</g>
<!-- Node12 -->
<g id="node12" class="node">
<title>Node12</title>
<g id="a_node12"><a xlink:href="_o_m_sim_m_d_o_m_8cc.html" target="_top" xlink:title="Construction of mDOM.">
<polygon fill="white" stroke="black" points="1396,-112.5 1396,-131.5 1494,-131.5 1494,-112.5 1396,-112.5"/>
<text text-anchor="middle" x="1445" y="-119.5" font-family="Helvetica,sans-Serif" font-size="10.00">OMSimMDOM.cc</text>
</a>
</g>
</g>
<!-- Node1&#45;&gt;Node12 -->
<g id="edge52" class="edge">
<title>Node1&#45;&gt;Node12</title>
<path fill="none" stroke="midnightblue" d="M818.6,-286.59C982.62,-281.39 1335.03,-267.59 1385,-244 1415.99,-229.37 1423.63,-219.11 1438,-188 1446.56,-169.45 1446.55,-144.85 1445.78,-131.88"/>
<polygon fill="midnightblue" stroke="midnightblue" points="818.44,-283.1 808.55,-286.91 818.66,-290.09 818.44,-283.1"/>
</g>
<!-- Node13 -->
<g id="node13" class="node">
<title>Node13</title>
<g id="a_node13"><a xlink:href="_o_m_sim_m_d_o_m_flasher_8cc.html" target="_top" xlink:title=" ">
<polygon fill="white" stroke="black" points="1206,-112.5 1206,-131.5 1340,-131.5 1340,-112.5 1206,-112.5"/>
<text text-anchor="middle" x="1273" y="-119.5" font-family="Helvetica,sans-Serif" font-size="10.00">OMSimMDOMFlasher.cc</text>
</a>
</g>
</g>
<!-- Node1&#45;&gt;Node13 -->
<g id="edge53" class="edge">
<title>Node1&#45;&gt;Node13</title>
<path fill="none" stroke="midnightblue" d="M818.7,-281.02C911.92,-269.73 1065.34,-243.87 1186,-188 1217.82,-173.27 1249.33,-145.63 1264.18,-131.62"/>
<polygon fill="midnightblue" stroke="midnightblue" points="818.28,-277.55 808.76,-282.2 819.1,-284.5 818.28,-277.55"/>
</g>
<!-- Node14 -->
<g id="node14" class="node">
<title>Node14</title>
<g id="a_node14"><a xlink:href="_o_m_sim_m_d_o_m_harness_8cc.html" target="_top" xlink:title="Construction of mDOM harness.">
<polygon fill="white" stroke="black" points="1512,-112.5 1512,-131.5 1650,-131.5 1650,-112.5 1512,-112.5"/>
<text text-anchor="middle" x="1581" y="-119.5" font-family="Helvetica,sans-Serif" font-size="10.00">OMSimMDOMHarness.cc</text>
</a>
</g>
</g>
<!-- Node1&#45;&gt;Node14 -->
<g id="edge54" class="edge">
<title>Node1&#45;&gt;Node14</title>
<path fill="none" stroke="midnightblue" d="M818.83,-287.82C993.01,-284.78 1388.76,-274.62 1520,-244 1582.06,-229.52 1616.82,-241.14 1652,-188 1667.87,-164.03 1630.36,-142.93 1604.04,-131.66"/>
<polygon fill="midnightblue" stroke="midnightblue" points="818.63,-284.32 808.69,-287.99 818.75,-291.32 818.63,-284.32"/>
</g>
<!-- Node19 -->
<g id="node19" class="node">
<title>Node19</title>
<g id="a_node19"><a xlink:href="_o_m_sim_m_d_o_m_flasher_8hh.html" target="_top" xlink:title=" ">
<polygon fill="white" stroke="black" points="1223.5,-224.5 1223.5,-243.5 1358.5,-243.5 1358.5,-224.5 1223.5,-224.5"/>
<text text-anchor="middle" x="1291" y="-231.5" font-family="Helvetica,sans-Serif" font-size="10.00">OMSimMDOMFlasher.hh</text>
</a>
</g>
</g>
<!-- Node1&#45;&gt;Node19 -->
<g id="edge25" class="edge">
<title>Node1&#45;&gt;Node19</title>
<path fill="none" stroke="midnightblue" d="M818.61,-281.44C913.34,-272.78 1072.33,-257.99 1209,-244 1213.7,-243.52 1218.55,-243.01 1223.44,-242.49"/>
<polygon fill="midnightblue" stroke="midnightblue" points="818.16,-277.96 808.52,-282.36 818.8,-284.93 818.16,-277.96"/>
</g>
<!-- Node20 -->
<g id="node20" class="node">
<title>Node20</title>
<g id="a_node20"><a xlink:href="_o_m_sim_m_d_o_m_harness_8hh.html" target="_top" xlink:title=" ">
<polygon fill="white" stroke="black" points="1503,-168.5 1503,-187.5 1643,-187.5 1643,-168.5 1503,-168.5"/>
<text text-anchor="middle" x="1573" y="-175.5" font-family="Helvetica,sans-Serif" font-size="10.00">OMSimMDOMHarness.hh</text>
</a>
</g>
</g>
<!-- Node1&#45;&gt;Node20 -->
<g id="edge30" class="edge">
<title>Node1&#45;&gt;Node20</title>
<path fill="none" stroke="midnightblue" d="M818.73,-286.79C1002.07,-281.54 1427.62,-267.04 1489,-244 1521.46,-231.82 1551.54,-202.47 1565.24,-187.74"/>
<polygon fill="midnightblue" stroke="midnightblue" points="818.49,-283.29 808.59,-287.08 818.69,-290.29 818.49,-283.29"/>
</g>
<!-- Node21 -->
<g id="node21" class="node">
<title>Node21</title>
<g id="a_node21"><a xlink:href="_o_m_sim_p_d_o_m_8hh.html" target="_top" xlink:title=" ">
<polygon fill="white" stroke="black" points="635.5,-168.5 635.5,-187.5 732.5,-187.5 732.5,-168.5 635.5,-168.5"/>
<text text-anchor="middle" x="684" y="-175.5" font-family="Helvetica,sans-Serif" font-size="10.00">OMSimPDOM.hh</text>
</a>
</g>
</g>
<!-- Node1&#45;&gt;Node21 -->
<g id="edge33" class="edge">
<title>Node1&#45;&gt;Node21</title>
<path fill="none" stroke="midnightblue" d="M720.59,-272.42C714.14,-264.31 706.9,-254.11 702,-244 692.8,-225.03 687.64,-200.6 685.39,-187.77"/>
<polygon fill="midnightblue" stroke="midnightblue" points="718.06,-274.85 727.13,-280.32 723.45,-270.39 718.06,-274.85"/>
</g>
<!-- Node23 -->
<g id="node23" class="node">
<title>Node23</title>
<g id="a_node23"><a xlink:href="_o_m_sim_p_m_t_construction_8hh.html" target="_top" xlink:title=" ">
<polygon fill="white" stroke="black" points="711.5,-224.5 711.5,-243.5 860.5,-243.5 860.5,-224.5 711.5,-224.5"/>
<text text-anchor="middle" x="786" y="-231.5" font-family="Helvetica,sans-Serif" font-size="10.00">OMSimPMTConstruction.hh</text>
</a>
</g>
</g>
<!-- Node1&#45;&gt;Node23 -->
<g id="edge36" class="edge">
<title>Node1&#45;&gt;Node23</title>
<path fill="none" stroke="midnightblue" d="M750.38,-272.72C759.37,-263.2 770.36,-251.56 777.74,-243.75"/>
<polygon fill="midnightblue" stroke="midnightblue" points="747.74,-270.41 743.42,-280.08 752.83,-275.22 747.74,-270.41"/>
</g>
<!-- Node24 -->
<g id="node24" class="node">
<title>Node24</title>
<g id="a_node24"><a xlink:href="abc_detector_component_8cc.html" target="_top" xlink:title="Contains the implementation of the abcDetectorComponent class.">
<polygon fill="white" stroke="black" points="865,-168.5 865,-187.5 1011,-187.5 1011,-168.5 865,-168.5"/>
<text text-anchor="middle" x="938" y="-175.5" font-family="Helvetica,sans-Serif" font-size="10.00">abcDetectorComponent.cc</text>
</a>
</g>
</g>
<!-- Node1&#45;&gt;Node24 -->
<g id="edge47" class="edge">
<title>Node1&#45;&gt;Node24</title>
<path fill="none" stroke="midnightblue" d="M784.51,-277.87C810.8,-270.63 842.96,-259.6 869,-244 894.98,-228.44 919.26,-201.67 930.86,-187.84"/>
<polygon fill="midnightblue" stroke="midnightblue" points="783.52,-274.51 774.75,-280.46 785.31,-281.28 783.52,-274.51"/>
</g>
<!-- Node25 -->
<g id="node25" class="node">
<title>Node25</title>
<g id="a_node25"><a xlink:href="_o_m_sim_p_m_t_construction_8cc.html" target="_top" xlink:title="Construction of the PMTs.">
<polygon fill="white" stroke="black" points="1029.5,-168.5 1029.5,-187.5 1176.5,-187.5 1176.5,-168.5 1029.5,-168.5"/>
<text text-anchor="middle" x="1103" y="-175.5" font-family="Helvetica,sans-Serif" font-size="10.00">OMSimPMTConstruction.cc</text>
</a>
</g>
</g>
<!-- Node1&#45;&gt;Node25 -->
<g id="edge55" class="edge">
<title>Node1&#45;&gt;Node25</title>
<path fill="none" stroke="midnightblue" d="M776.62,-277.76C809.18,-268.87 855.58,-255.99 896,-244 961.18,-224.66 1037.35,-200.28 1076.61,-187.58"/>
<polygon fill="midnightblue" stroke="midnightblue" points="775.28,-274.49 766.55,-280.5 777.12,-281.25 775.28,-274.49"/>
</g>
<!-- Node2&#45;&gt;Node3 -->
<g id="edge2" class="edge">
<title>Node2&#45;&gt;Node3</title>
<path fill="none" stroke="midnightblue" d="M211.18,-165.83C172.09,-155.63 115.17,-140.78 79.65,-131.52"/>
<polygon fill="midnightblue" stroke="midnightblue" points="210.64,-169.31 221.2,-168.44 212.41,-162.53 210.64,-169.31"/>
</g>
<!-- Node2&#45;&gt;Node4 -->
<g id="edge3" class="edge">
<title>Node2&#45;&gt;Node4</title>
<path fill="none" stroke="midnightblue" d="M233.69,-162.38C220.14,-152.62 202.76,-140.11 191.27,-131.83"/>
<polygon fill="midnightblue" stroke="midnightblue" points="231.79,-165.32 241.95,-168.32 235.88,-159.64 231.79,-165.32"/>
</g>
<!-- Node5 -->
<g id="node5" class="node">
<title>Node5</title>
<g id="a_node5"><a xlink:href="_o_m_sim_detector_construction_8cc.html" target="_top" xlink:title="User defined detector.">
<polygon fill="white" stroke="black" points="638.5,-56.5 638.5,-75.5 807.5,-75.5 807.5,-56.5 638.5,-56.5"/>
<text text-anchor="middle" x="723" y="-63.5" font-family="Helvetica,sans-Serif" font-size="10.00">OMSimDetectorConstruction.cc</text>
</a>
</g>
</g>
<!-- Node2&#45;&gt;Node5 -->
<g id="edge4" class="edge">
<title>Node2&#45;&gt;Node5</title>
<path fill="none" stroke="midnightblue" d="M263.85,-159.85C273.67,-144.49 290.27,-122.79 311,-112 366.13,-83.31 534.47,-72.85 638.12,-69.08"/>
<polygon fill="midnightblue" stroke="midnightblue" points="260.83,-158.07 258.63,-168.44 266.82,-161.71 260.83,-158.07"/>
</g>
<!-- Node6&#45;&gt;Node3 -->
<g id="edge6" class="edge">
<title>Node6&#45;&gt;Node3</title>
<path fill="none" stroke="midnightblue" d="M70.7,-159.57C64.68,-150.27 57.53,-139.25 52.67,-131.75"/>
<polygon fill="midnightblue" stroke="midnightblue" points="67.84,-161.6 76.22,-168.08 73.72,-157.79 67.84,-161.6"/>
</g>
<!-- Node6&#45;&gt;Node4 -->
<g id="edge7" class="edge">
<title>Node6&#45;&gt;Node4</title>
<path fill="none" stroke="midnightblue" d="M106.34,-163.45C124.24,-153.48 148.05,-140.23 163.45,-131.65"/>
<polygon fill="midnightblue" stroke="midnightblue" points="104.62,-160.4 97.58,-168.32 108.02,-166.52 104.62,-160.4"/>
</g>
<!-- Node7&#45;&gt;Node5 -->
<g id="edge10" class="edge">
<title>Node7&#45;&gt;Node5</title>
<path fill="none" stroke="midnightblue" d="M587.52,-162.49C606.15,-149.3 634.41,-129.33 659,-112 676.99,-99.32 697.84,-84.67 710.72,-75.62"/>
<polygon fill="midnightblue" stroke="midnightblue" points="585.34,-159.74 579.2,-168.37 589.38,-165.45 585.34,-159.74"/>
</g>
<!-- Node7&#45;&gt;Node8 -->
<g id="edge9" class="edge">
<title>Node7&#45;&gt;Node8</title>
<path fill="none" stroke="midnightblue" d="M555.05,-159.57C548.69,-150.27 541.13,-139.25 536,-131.75"/>
<polygon fill="midnightblue" stroke="midnightblue" points="552.35,-161.81 560.89,-168.08 558.13,-157.86 552.35,-161.81"/>
</g>
<!-- Node9&#45;&gt;Node5 -->
<g id="edge13" class="edge">
<title>Node9&#45;&gt;Node5</title>
<path fill="none" stroke="midnightblue" d="M420.6,-159.69C431.7,-144.59 449.84,-123.37 471,-112 522.39,-84.4 587.32,-73.27 638.41,-68.98"/>
<polygon fill="midnightblue" stroke="midnightblue" points="417.53,-157.96 414.64,-168.16 423.26,-161.99 417.53,-157.96"/>
</g>
<!-- Node9&#45;&gt;Node10 -->
<g id="edge12" class="edge">
<title>Node9&#45;&gt;Node10</title>
<path fill="none" stroke="midnightblue" d="M396.62,-159.86C389.86,-150.5 381.79,-139.33 376.32,-131.75"/>
<polygon fill="midnightblue" stroke="midnightblue" points="393.87,-162.03 402.56,-168.08 399.54,-157.93 393.87,-162.03"/>
</g>
<!-- Node11&#45;&gt;Node5 -->
<g id="edge24" class="edge">
<title>Node11&#45;&gt;Node5</title>
<path fill="none" stroke="midnightblue" d="M1361.79,-158.24C1362.83,-143.45 1361.44,-123.47 1349,-112 1329.41,-93.94 974.21,-77.2 807.76,-70.31"/>
<polygon fill="midnightblue" stroke="midnightblue" points="1358.3,-157.98 1360.67,-168.31 1365.25,-158.76 1358.3,-157.98"/>
</g>
<!-- Node11&#45;&gt;Node12 -->
<g id="edge15" class="edge">
<title>Node11&#45;&gt;Node12</title>
<path fill="none" stroke="midnightblue" d="M1381.45,-162.9C1397.22,-153 1417.81,-140.07 1431.22,-131.65"/>
<polygon fill="midnightblue" stroke="midnightblue" points="1379.43,-160.04 1372.82,-168.32 1383.15,-165.97 1379.43,-160.04"/>
</g>
<!-- Node11&#45;&gt;Node13 -->
<g id="edge16" class="edge">
<title>Node11&#45;&gt;Node13</title>
<path fill="none" stroke="midnightblue" d="M1336.55,-162.9C1320.78,-153 1300.19,-140.07 1286.78,-131.65"/>
<polygon fill="midnightblue" stroke="midnightblue" points="1334.85,-165.97 1345.18,-168.32 1338.57,-160.04 1334.85,-165.97"/>
</g>
<!-- Node11&#45;&gt;Node14 -->
<g id="edge17" class="edge">
<title>Node11&#45;&gt;Node14</title>
<path fill="none" stroke="midnightblue" d="M1404.12,-166.02C1446.06,-155.82 1507.65,-140.84 1545.99,-131.52"/>
<polygon fill="midnightblue" stroke="midnightblue" points="1403.07,-162.68 1394.18,-168.44 1404.72,-169.48 1403.07,-162.68"/>
</g>
<!-- Node15 -->
<g id="node15" class="node">
<title>Node15</title>
<g id="a_node15"><a xlink:href="_o_m_sim_detector_construction_8hh.html" target="_top" xlink:title=" ">
<polygon fill="white" stroke="black" points="1018,-112.5 1018,-131.5 1188,-131.5 1188,-112.5 1018,-112.5"/>
<text text-anchor="middle" x="1103" y="-119.5" font-family="Helvetica,sans-Serif" font-size="10.00">OMSimDetectorConstruction.hh</text>
</a>
</g>
</g>
<!-- Node11&#45;&gt;Node15 -->
<g id="edge18" class="edge">
<title>Node11&#45;&gt;Node15</title>
<path fill="none" stroke="midnightblue" d="M1308.49,-166.35C1260.11,-156.14 1188.05,-140.94 1143.37,-131.52"/>
<polygon fill="midnightblue" stroke="midnightblue" points="1307.93,-169.8 1318.44,-168.44 1309.37,-162.95 1307.93,-169.8"/>
</g>
<!-- Node15&#45;&gt;Node5 -->
<g id="edge22" class="edge">
<title>Node15&#45;&gt;Node5</title>
<path fill="none" stroke="midnightblue" d="M1032.48,-110.98C960.7,-100.78 850.63,-85.14 782.93,-75.52"/>
<polygon fill="midnightblue" stroke="midnightblue" points="1032.39,-114.5 1042.79,-112.44 1033.38,-107.57 1032.39,-114.5"/>
</g>
<!-- Node16 -->
<g id="node16" class="node">
<title>Node16</title>
<g id="a_node16"><a xlink:href="_o_m_sim_8h.html" target="_top" xlink:title=" ">
<polygon fill="white" stroke="black" points="1042.5,-56.5 1042.5,-75.5 1103.5,-75.5 1103.5,-56.5 1042.5,-56.5"/>
<text text-anchor="middle" x="1073" y="-63.5" font-family="Helvetica,sans-Serif" font-size="10.00">OMSim.h</text>
</a>
</g>
</g>
<!-- Node15&#45;&gt;Node16 -->
<g id="edge19" class="edge">
<title>Node15&#45;&gt;Node16</title>
<path fill="none" stroke="midnightblue" d="M1093.15,-103.27C1088.03,-94.05 1081.98,-83.17 1077.86,-75.75"/>
<polygon fill="midnightblue" stroke="midnightblue" points="1090.13,-105.04 1098.05,-112.08 1096.25,-101.64 1090.13,-105.04"/>
</g>
<!-- Node18 -->
<g id="node18" class="node">
<title>Node18</title>
<g id="a_node18"><a xlink:href="_o_m_sim__effective__area_8cc.html" target="_top" xlink:title="Main for the calculation of effective areas.">
<polygon fill="white" stroke="black" points="1062,-0.5 1062,-19.5 1202,-19.5 1202,-0.5 1062,-0.5"/>
<text text-anchor="middle" x="1132" y="-7.5" font-family="Helvetica,sans-Serif" font-size="10.00">OMSim_effective_area.cc</text>
</a>
</g>
</g>
<!-- Node15&#45;&gt;Node18 -->
<g id="edge23" class="edge">
<title>Node15&#45;&gt;Node18</title>
<path fill="none" stroke="midnightblue" d="M1107.83,-102.67C1114.17,-78.62 1125.04,-37.39 1129.73,-19.59"/>
<polygon fill="midnightblue" stroke="midnightblue" points="1104.44,-101.81 1105.28,-112.37 1111.21,-103.59 1104.44,-101.81"/>
</g>
<!-- Node17 -->
<g id="node17" class="node">
<title>Node17</title>
<g id="a_node17"><a xlink:href="_o_m_sim_8cc.html" target="_top" xlink:title=" ">
<polygon fill="white" stroke="black" points="978.5,-0.5 978.5,-19.5 1043.5,-19.5 1043.5,-0.5 978.5,-0.5"/>
<text text-anchor="middle" x="1011" y="-7.5" font-family="Helvetica,sans-Serif" font-size="10.00">OMSim.cc</text>
</a>
</g>
</g>
<!-- Node16&#45;&gt;Node17 -->
<g id="edge20" class="edge">
<title>Node16&#45;&gt;Node17</title>
<path fill="none" stroke="midnightblue" d="M1055.25,-49.54C1044.19,-39.91 1030.37,-27.87 1021.14,-19.83"/>
<polygon fill="midnightblue" stroke="midnightblue" points="1053.2,-52.4 1063.04,-56.32 1057.8,-47.12 1053.2,-52.4"/>
</g>
<!-- Node16&#45;&gt;Node18 -->
<g id="edge21" class="edge">
<title>Node16&#45;&gt;Node18</title>
<path fill="none" stroke="midnightblue" d="M1089.89,-49.54C1100.41,-39.91 1113.57,-27.87 1122.35,-19.83"/>
<polygon fill="midnightblue" stroke="midnightblue" points="1087.49,-46.99 1082.48,-56.32 1092.22,-52.15 1087.49,-46.99"/>
</g>
<!-- Node19&#45;&gt;Node5 -->
<g id="edge29" class="edge">
<title>Node19&#45;&gt;Node5</title>
<path fill="none" stroke="midnightblue" d="M1271.99,-218.33C1251.77,-203.44 1218.29,-180.8 1186,-168 1111.37,-138.41 1087.48,-148.9 1009,-132 919.15,-112.66 813.82,-88.28 759.51,-75.58"/>
<polygon fill="midnightblue" stroke="midnightblue" points="1269.96,-221.18 1280.06,-224.37 1274.16,-215.58 1269.96,-221.18"/>
</g>
<!-- Node19&#45;&gt;Node11 -->
<g id="edge26" class="edge">
<title>Node19&#45;&gt;Node11</title>
<path fill="none" stroke="midnightblue" d="M1309.76,-218.1C1322,-208.38 1337.56,-196.03 1347.88,-187.83"/>
<polygon fill="midnightblue" stroke="midnightblue" points="1307.58,-215.36 1301.93,-224.32 1311.93,-220.85 1307.58,-215.36"/>
</g>
<!-- Node19&#45;&gt;Node12 -->
<g id="edge27" class="edge">
<title>Node19&#45;&gt;Node12</title>
<path fill="none" stroke="midnightblue" d="M1354.27,-221.72C1376.64,-215.06 1400.55,-204.54 1418,-188 1434.32,-172.53 1441.13,-145.72 1443.67,-131.86"/>
<polygon fill="midnightblue" stroke="midnightblue" points="1353.17,-218.39 1344.47,-224.43 1355.04,-225.13 1353.17,-218.39"/>
</g>
<!-- Node19&#45;&gt;Node13 -->
<g id="edge28" class="edge">
<title>Node19&#45;&gt;Node13</title>
<path fill="none" stroke="midnightblue" d="M1287.95,-214.35C1284.01,-190.25 1277.3,-149.31 1274.41,-131.59"/>
<polygon fill="midnightblue" stroke="midnightblue" points="1284.52,-215.06 1289.59,-224.37 1291.43,-213.93 1284.52,-215.06"/>
</g>
<!-- Node20&#45;&gt;Node12 -->
<g id="edge31" class="edge">
<title>Node20&#45;&gt;Node12</title>
<path fill="none" stroke="midnightblue" d="M1543.38,-164.5C1519.38,-154.38 1486.22,-140.39 1465.19,-131.52"/>
<polygon fill="midnightblue" stroke="midnightblue" points="1542.14,-167.78 1552.72,-168.44 1544.86,-161.33 1542.14,-167.78"/>
</g>
<!-- Node20&#45;&gt;Node14 -->
<g id="edge32" class="edge">
<title>Node20&#45;&gt;Node14</title>
<path fill="none" stroke="midnightblue" d="M1575.8,-158.1C1577.13,-149.14 1578.65,-138.86 1579.7,-131.75"/>
<polygon fill="midnightblue" stroke="midnightblue" points="1572.32,-157.68 1574.32,-168.08 1579.25,-158.7 1572.32,-157.68"/>
</g>
<!-- Node21&#45;&gt;Node5 -->
<g id="edge35" class="edge">
<title>Node21&#45;&gt;Node5</title>
<path fill="none" stroke="midnightblue" d="M672.58,-159.51C665.34,-146.06 658.6,-127.26 666,-112 674.03,-95.43 691.44,-83.13 704.92,-75.61"/>
<polygon fill="midnightblue" stroke="midnightblue" points="669.64,-161.41 677.75,-168.23 675.66,-157.84 669.64,-161.41"/>
</g>
<!-- Node22 -->
<g id="node22" class="node">
<title>Node22</title>
<g id="a_node22"><a xlink:href="_o_m_sim_p_d_o_m_8cc.html" target="_top" xlink:title="Implementation of the pDOM/Gen1 DOM class.">
<polygon fill="white" stroke="black" points="675.5,-112.5 675.5,-131.5 770.5,-131.5 770.5,-112.5 675.5,-112.5"/>
<text text-anchor="middle" x="723" y="-119.5" font-family="Helvetica,sans-Serif" font-size="10.00">OMSimPDOM.cc</text>
</a>
</g>
</g>
<!-- Node21&#45;&gt;Node22 -->
<g id="edge34" class="edge">
<title>Node21&#45;&gt;Node22</title>
<path fill="none" stroke="midnightblue" d="M696.38,-159.86C703.14,-150.5 711.21,-139.33 716.68,-131.75"/>
<polygon fill="midnightblue" stroke="midnightblue" points="693.46,-157.93 690.44,-168.08 699.13,-162.03 693.46,-157.93"/>
</g>
<!-- Node23&#45;&gt;Node2 -->
<g id="edge37" class="edge">
<title>Node23&#45;&gt;Node2</title>
<path fill="none" stroke="midnightblue" d="M701.46,-224.42C588.4,-212.94 391.76,-192.98 301.62,-183.83"/>
<polygon fill="midnightblue" stroke="midnightblue" points="701.17,-227.91 711.47,-225.43 701.87,-220.94 701.17,-227.91"/>
</g>
<!-- Node23&#45;&gt;Node5 -->
<g id="edge46" class="edge">
<title>Node23&#45;&gt;Node5</title>
<path fill="none" stroke="midnightblue" d="M789.34,-214.6C792.91,-189.79 795.97,-144.93 779,-112 770.54,-95.59 753.15,-83.12 739.98,-75.51"/>
<polygon fill="midnightblue" stroke="midnightblue" points="785.89,-214.04 787.74,-224.47 792.8,-215.16 785.89,-214.04"/>
</g>
<!-- Node23&#45;&gt;Node7 -->
<g id="edge38" class="edge">
<title>Node23&#45;&gt;Node7</title>
<path fill="none" stroke="midnightblue" d="M741.49,-222.02C700.12,-211.82 639.36,-196.84 601.54,-187.52"/>
<polygon fill="midnightblue" stroke="midnightblue" points="740.75,-225.45 751.3,-224.44 742.43,-218.65 740.75,-225.45"/>
</g>
<!-- Node23&#45;&gt;Node9 -->
<g id="edge39" class="edge">
<title>Node23&#45;&gt;Node9</title>
<path fill="none" stroke="midnightblue" d="M716.05,-222.98C641.65,-212.32 525.78,-195.73 459.7,-186.26"/>
<polygon fill="midnightblue" stroke="midnightblue" points="715.87,-226.49 726.26,-224.44 716.86,-219.56 715.87,-226.49"/>
</g>
<!-- Node23&#45;&gt;Node11 -->
<g id="edge40" class="edge">
<title>Node23&#45;&gt;Node11</title>
<path fill="none" stroke="midnightblue" d="M870.59,-225.03C991.68,-213.62 1210.63,-192.98 1308.89,-183.72"/>
<polygon fill="midnightblue" stroke="midnightblue" points="870.24,-221.55 860.62,-225.97 870.9,-228.51 870.24,-221.55"/>
</g>
<!-- Node23&#45;&gt;Node15 -->
<g id="edge45" class="edge">
<title>Node23&#45;&gt;Node15</title>
<path fill="none" stroke="midnightblue" d="M799.24,-216.15C812.07,-201.05 832.94,-179.55 856,-168 906.18,-142.87 968.36,-131.64 1017.78,-126.68"/>
<polygon fill="midnightblue" stroke="midnightblue" points="796.29,-214.22 792.65,-224.18 801.7,-218.66 796.29,-214.22"/>
</g>
<!-- Node23&#45;&gt;Node21 -->
<g id="edge41" class="edge">
<title>Node23&#45;&gt;Node21</title>
<path fill="none" stroke="midnightblue" d="M760.67,-219.59C741.81,-209.61 716.62,-196.27 700.35,-187.65"/>
<polygon fill="midnightblue" stroke="midnightblue" points="759.14,-222.74 769.61,-224.32 762.41,-216.55 759.14,-222.74"/>
</g>
<!-- Node23&#45;&gt;Node22 -->
<g id="edge43" class="edge">
<title>Node23&#45;&gt;Node22</title>
<path fill="none" stroke="midnightblue" d="M776.06,-215.64C762.37,-191.74 738.25,-149.63 727.92,-131.59"/>
<polygon fill="midnightblue" stroke="midnightblue" points="773.05,-217.43 781.06,-224.37 779.12,-213.95 773.05,-217.43"/>
</g>
<!-- Node23&#45;&gt;Node24 -->
<g id="edge42" class="edge">
<title>Node23&#45;&gt;Node24</title>
<path fill="none" stroke="midnightblue" d="M819.67,-221.04C848.27,-210.88 888.61,-196.55 914.03,-187.52"/>
<polygon fill="midnightblue" stroke="midnightblue" points="818.34,-217.8 810.08,-224.44 820.68,-224.39 818.34,-217.8"/>
</g>
<!-- Node23&#45;&gt;Node25 -->
<g id="edge44" class="edge">
<title>Node23&#45;&gt;Node25</title>
<path fill="none" stroke="midnightblue" d="M846.3,-222.73C906.21,-212.52 996.99,-197.06 1053.01,-187.52"/>
<polygon fill="midnightblue" stroke="midnightblue" points="845.5,-219.31 836.23,-224.44 846.68,-226.21 845.5,-219.31"/>
</g>
</g>
</svg>
