<?xml version="1.0" encoding="UTF-8" standalone="no"?>
<!DOCTYPE svg PUBLIC "-//W3C//DTD SVG 1.1//EN"
 "http://www.w3.org/Graphics/SVG/1.1/DTD/svg11.dtd">
<!-- Generated by graphviz version 2.43.0 (0)
 -->
<!-- Title: abcDetectorComponent.hh Pages: 1 -->
<svg width="1009pt" height="151pt"
 viewBox="0.00 0.00 1009.00 151.00" xmlns="http://www.w3.org/2000/svg" xmlns:xlink="http://www.w3.org/1999/xlink">
<g id="graph0" class="graph" transform="scale(1 1) rotate(0) translate(4 147)">
<title>abcDetectorComponent.hh</title>
<polygon fill="white" stroke="transparent" points="-4,4 -4,-147 1005,-147 1005,4 -4,4"/>
<!-- Node1 -->
<g id="node1" class="node">
<title>Node1</title>
<g id="a_node1"><a xlink:title=" ">
<polygon fill="#bfbfbf" stroke="black" points="408.5,-123.5 408.5,-142.5 555.5,-142.5 555.5,-123.5 408.5,-123.5"/>
<text text-anchor="middle" x="482" y="-130.5" font-family="Helvetica,sans-Serif" font-size="10.00">abcDetectorComponent.hh</text>
</a>
</g>
</g>
<!-- Node2 -->
<g id="node2" class="node">
<title>Node2</title>
<g id="a_node2"><a xlink:title=" ">
<polygon fill="white" stroke="#bfbfbf" points="0,-67.5 0,-86.5 116,-86.5 116,-67.5 0,-67.5"/>
<text text-anchor="middle" x="58" y="-74.5" font-family="Helvetica,sans-Serif" font-size="10.00">G4LogicalVolume.hh</text>
</a>
</g>
</g>
<!-- Node1&#45;&gt;Node2 -->
<g id="edge1" class="edge">
<title>Node1&#45;&gt;Node2</title>
<path fill="none" stroke="midnightblue" d="M414.82,-123.44C335.93,-113.4 205.8,-96.82 126.39,-86.71"/>
<polygon fill="midnightblue" stroke="midnightblue" points="126.37,-83.18 116.01,-85.39 125.49,-90.12 126.37,-83.18"/>
</g>
<!-- Node3 -->
<g id="node3" class="node">
<title>Node3</title>
<g id="a_node3"><a xlink:title=" ">
<polygon fill="white" stroke="#bfbfbf" points="84.5,-6 84.5,-25 203.5,-25 203.5,-6 84.5,-6"/>
<text text-anchor="middle" x="144" y="-13" font-family="Helvetica,sans-Serif" font-size="10.00">G4SystemOfUnits.hh</text>
</a>
</g>
</g>
<!-- Node1&#45;&gt;Node3 -->
<g id="edge2" class="edge">
<title>Node1&#45;&gt;Node3</title>
<path fill="none" stroke="midnightblue" d="M408.42,-130.77C325.71,-127.86 198.36,-118.25 163,-87 148.63,-74.3 144.61,-51.99 143.72,-35.86"/>
<polygon fill="midnightblue" stroke="midnightblue" points="147.22,-35.37 143.53,-25.44 140.22,-35.5 147.22,-35.37"/>
</g>
<!-- Node4 -->
<g id="node4" class="node">
<title>Node4</title>
<g id="a_node4"><a xlink:title=" ">
<polygon fill="white" stroke="#bfbfbf" points="172.5,-67.5 172.5,-86.5 279.5,-86.5 279.5,-67.5 172.5,-67.5"/>
<text text-anchor="middle" x="226" y="-74.5" font-family="Helvetica,sans-Serif" font-size="10.00">G4Transform3D.hh</text>
</a>
</g>
</g>
<!-- Node1&#45;&gt;Node4 -->
<g id="edge3" class="edge">
<title>Node1&#45;&gt;Node4</title>
<path fill="none" stroke="midnightblue" d="M441.44,-123.44C396.68,-114 324.62,-98.8 276.3,-88.61"/>
<polygon fill="midnightblue" stroke="midnightblue" points="276.88,-85.16 266.37,-86.52 275.44,-92.01 276.88,-85.16"/>
</g>
<!-- Node5 -->
<g id="node5" class="node">
<title>Node5</title>
<g id="a_node5"><a xlink:title=" ">
<polygon fill="white" stroke="#bfbfbf" points="298,-67.5 298,-86.5 406,-86.5 406,-67.5 298,-67.5"/>
<text text-anchor="middle" x="352" y="-74.5" font-family="Helvetica,sans-Serif" font-size="10.00">G4VisAttributes.hh</text>
</a>
</g>
</g>
<!-- Node1&#45;&gt;Node5 -->
<g id="edge4" class="edge">
<title>Node1&#45;&gt;Node5</title>
<path fill="none" stroke="midnightblue" d="M461.4,-123.44C440.01,-114.56 406.32,-100.56 381.98,-90.45"/>
<polygon fill="midnightblue" stroke="midnightblue" points="383.08,-87.12 372.5,-86.52 380.39,-93.58 383.08,-87.12"/>
</g>
<!-- Node6 -->
<g id="node6" class="node">
<title>Node6</title>
<g id="a_node6"><a xlink:href="_o_m_sim_input_data_8hh.html" target="_top" xlink:title=" ">
<polygon fill="white" stroke="black" points="424.5,-67.5 424.5,-86.5 539.5,-86.5 539.5,-67.5 424.5,-67.5"/>
<text text-anchor="middle" x="482" y="-74.5" font-family="Helvetica,sans-Serif" font-size="10.00">OMSimInputData.hh</text>
</a>
</g>
</g>
<!-- Node1&#45;&gt;Node6 -->
<g id="edge5" class="edge">
<title>Node1&#45;&gt;Node6</title>
<path fill="none" stroke="midnightblue" d="M482,-123.08C482,-116.01 482,-105.86 482,-96.99"/>
<polygon fill="midnightblue" stroke="midnightblue" points="485.5,-96.75 482,-86.75 478.5,-96.75 485.5,-96.75"/>
</g>
<!-- Node12 -->
<g id="node12" class="node">
<title>Node12</title>
<g id="a_node12"><a xlink:title=" ">
<polygon fill="white" stroke="#bfbfbf" points="557.5,-67.5 557.5,-86.5 682.5,-86.5 682.5,-67.5 557.5,-67.5"/>
<text text-anchor="middle" x="620" y="-74.5" font-family="Helvetica,sans-Serif" font-size="10.00">G4SubtractionSolid.hh</text>
</a>
</g>
</g>
<!-- Node1&#45;&gt;Node12 -->
<g id="edge12" class="edge">
<title>Node1&#45;&gt;Node12</title>
<path fill="none" stroke="midnightblue" d="M503.87,-123.44C526.78,-114.48 562.98,-100.31 588.87,-90.18"/>
<polygon fill="midnightblue" stroke="midnightblue" points="590.2,-93.42 598.24,-86.52 587.65,-86.9 590.2,-93.42"/>
</g>
<!-- Node13 -->
<g id="node13" class="node">
<title>Node13</title>
<g id="a_node13"><a xlink:title=" ">
<polygon fill="white" stroke="#bfbfbf" points="701,-67.5 701,-86.5 811,-86.5 811,-67.5 701,-67.5"/>
<text text-anchor="middle" x="756" y="-74.5" font-family="Helvetica,sans-Serif" font-size="10.00">G4PVPlacement.hh</text>
</a>
</g>
</g>
<!-- Node1&#45;&gt;Node13 -->
<g id="edge13" class="edge">
<title>Node1&#45;&gt;Node13</title>
<path fill="none" stroke="midnightblue" d="M525.42,-123.44C573.52,-113.96 651.09,-98.67 702.81,-88.48"/>
<polygon fill="midnightblue" stroke="midnightblue" points="703.65,-91.88 712.79,-86.52 702.3,-85.02 703.65,-91.88"/>
</g>
<!-- Node14 -->
<g id="node14" class="node">
<title>Node14</title>
<g id="a_node14"><a xlink:title=" ">
<polygon fill="white" stroke="#bfbfbf" points="829,-67.5 829,-86.5 927,-86.5 927,-67.5 829,-67.5"/>
<text text-anchor="middle" x="878" y="-74.5" font-family="Helvetica,sans-Serif" font-size="10.00">G4MultiUnion.hh</text>
</a>
</g>
</g>
<!-- Node1&#45;&gt;Node14 -->
<g id="edge14" class="edge">
<title>Node1&#45;&gt;Node14</title>
<path fill="none" stroke="midnightblue" d="M549.4,-123.46C615.46,-114.99 719.29,-101.42 819.02,-87.12"/>
<polygon fill="midnightblue" stroke="midnightblue" points="819.56,-90.57 828.96,-85.69 818.57,-83.65 819.56,-90.57"/>
</g>
<!-- Node15 -->
<g id="node15" class="node">
<title>Node15</title>
<g id="a_node15"><a xlink:title=" ">
<polygon fill="white" stroke="#bfbfbf" points="945,-67.5 945,-86.5 1001,-86.5 1001,-67.5 945,-67.5"/>
<text text-anchor="middle" x="973" y="-74.5" font-family="Helvetica,sans-Serif" font-size="10.00">sstream</text>
</a>
</g>
</g>
<!-- Node1&#45;&gt;Node15 -->
<g id="edge15" class="edge">
<title>Node1&#45;&gt;Node15</title>
<path fill="none" stroke="midnightblue" d="M555.55,-127.88C643.58,-122.24 795.54,-110.25 934.8,-86.98"/>
<polygon fill="midnightblue" stroke="midnightblue" points="935.53,-90.41 944.8,-85.29 934.36,-83.51 935.53,-90.41"/>
</g>
<!-- Node6&#45;&gt;Node3 -->
<g id="edge11" class="edge">
<title>Node6&#45;&gt;Node3</title>
<path fill="none" stroke="midnightblue" d="M426.28,-67.46C371.6,-58.91 285.88,-45.03 212,-31 205.7,-29.8 199.08,-28.48 192.55,-27.13"/>
<polygon fill="midnightblue" stroke="midnightblue" points="192.92,-23.63 182.42,-25.01 191.49,-30.48 192.92,-23.63"/>
</g>
<!-- Node7 -->
<g id="node7" class="node">
<title>Node7</title>
<g id="a_node7"><a xlink:title=" ">
<polygon fill="white" stroke="#bfbfbf" points="221.5,-0.5 221.5,-30.5 334.5,-30.5 334.5,-0.5 221.5,-0.5"/>
<text text-anchor="start" x="229.5" y="-18.5" font-family="Helvetica,sans-Serif" font-size="10.00">boost/property_tree</text>
<text text-anchor="middle" x="278" y="-7.5" font-family="Helvetica,sans-Serif" font-size="10.00">/ptree.hpp</text>
</a>
</g>
</g>
<!-- Node6&#45;&gt;Node7 -->
<g id="edge6" class="edge">
<title>Node6&#45;&gt;Node7</title>
<path fill="none" stroke="midnightblue" d="M452.77,-67.48C422.43,-58.63 374.17,-44.55 336.04,-33.43"/>
<polygon fill="midnightblue" stroke="midnightblue" points="336.66,-29.96 326.08,-30.52 334.7,-36.68 336.66,-29.96"/>
</g>
<!-- Node8 -->
<g id="node8" class="node">
<title>Node8</title>
<g id="a_node8"><a xlink:title=" ">
<polygon fill="white" stroke="#bfbfbf" points="352.5,-0.5 352.5,-30.5 465.5,-30.5 465.5,-0.5 352.5,-0.5"/>
<text text-anchor="start" x="360.5" y="-18.5" font-family="Helvetica,sans-Serif" font-size="10.00">boost/property_tree</text>
<text text-anchor="middle" x="409" y="-7.5" font-family="Helvetica,sans-Serif" font-size="10.00">/json_parser.hpp</text>
</a>
</g>
</g>
<!-- Node6&#45;&gt;Node8 -->
<g id="edge7" class="edge">
<title>Node6&#45;&gt;Node8</title>
<path fill="none" stroke="midnightblue" d="M471.54,-67.48C461.84,-59.57 447.01,-47.48 434.23,-37.07"/>
<polygon fill="midnightblue" stroke="midnightblue" points="436.17,-34.13 426.2,-30.52 431.74,-39.55 436.17,-34.13"/>
</g>
<!-- Node9 -->
<g id="node9" class="node">
<title>Node9</title>
<g id="a_node9"><a xlink:title=" ">
<polygon fill="white" stroke="#bfbfbf" points="484,-6 484,-25 570,-25 570,-6 484,-6"/>
<text text-anchor="middle" x="527" y="-13" font-family="Helvetica,sans-Serif" font-size="10.00">G4Material.hh</text>
</a>
</g>
</g>
<!-- Node6&#45;&gt;Node9 -->
<g id="edge8" class="edge">
<title>Node6&#45;&gt;Node9</title>
<path fill="none" stroke="midnightblue" d="M488.45,-67.48C495.2,-58.55 505.97,-44.31 514.41,-33.14"/>
<polygon fill="midnightblue" stroke="midnightblue" points="517.32,-35.1 520.56,-25.01 511.74,-30.87 517.32,-35.1"/>
</g>
<!-- Node10 -->
<g id="node10" class="node">
<title>Node10</title>
<g id="a_node10"><a xlink:title=" ">
<polygon fill="white" stroke="#bfbfbf" points="588.5,-6 588.5,-25 695.5,-25 695.5,-6 588.5,-6"/>
<text text-anchor="middle" x="642" y="-13" font-family="Helvetica,sans-Serif" font-size="10.00">G4NistManager.hh</text>
</a>
</g>
</g>
<!-- Node6&#45;&gt;Node10 -->
<g id="edge9" class="edge">
<title>Node6&#45;&gt;Node10</title>
<path fill="none" stroke="midnightblue" d="M504.92,-67.48C532.37,-57.27 578.52,-40.11 609.6,-28.55"/>
<polygon fill="midnightblue" stroke="midnightblue" points="610.97,-31.78 619.12,-25.01 608.53,-25.21 610.97,-31.78"/>
</g>
<!-- Node11 -->
<g id="node11" class="node">
<title>Node11</title>
<g id="a_node11"><a xlink:title=" ">
<polygon fill="white" stroke="#bfbfbf" points="713.5,-6 713.5,-25 856.5,-25 856.5,-6 713.5,-6"/>
<text text-anchor="middle" x="785" y="-13" font-family="Helvetica,sans-Serif" font-size="10.00">G4OpBoundaryProcess.hh</text>
</a>
</g>
</g>
<!-- Node6&#45;&gt;Node11 -->
<g id="edge10" class="edge">
<title>Node6&#45;&gt;Node11</title>
<path fill="none" stroke="midnightblue" d="M525.41,-67.48C579.86,-56.78 673.18,-38.46 731.85,-26.94"/>
<polygon fill="midnightblue" stroke="midnightblue" points="732.53,-30.37 741.67,-25.01 731.18,-23.5 732.53,-30.37"/>
</g>
</g>
</svg>
