<?xml version="1.0" encoding="UTF-8" standalone="no"?>
<!DOCTYPE svg PUBLIC "-//W3C//DTD SVG 1.1//EN"
 "http://www.w3.org/Graphics/SVG/1.1/DTD/svg11.dtd">
<!-- Generated by graphviz version 2.43.0 (0)
 -->
<!-- Title: /home/runner/work/OMSim/OMSim/common/include/abcDetectorComponent.hh Pages: 1 -->
<svg width="2409pt" height="362pt"
 viewBox="0.00 0.00 2409.00 362.00" xmlns="http://www.w3.org/2000/svg" xmlns:xlink="http://www.w3.org/1999/xlink">
<g id="graph0" class="graph" transform="scale(1 1) rotate(0) translate(4 358)">
<title>/home/runner/work/OMSim/OMSim/common/include/abcDetectorComponent.hh</title>
<polygon fill="white" stroke="transparent" points="-4,4 -4,-358 2405,-358 2405,4 -4,4"/>
<!-- Node1 -->
<g id="node1" class="node">
<title>Node1</title>
<g id="a_node1"><a xlink:title=" ">
<polygon fill="#bfbfbf" stroke="black" points="1032,-312.5 1032,-353.5 1182,-353.5 1182,-312.5 1032,-312.5"/>
<text text-anchor="start" x="1040" y="-341.5" font-family="Helvetica,sans-Serif" font-size="10.00">/home/runner/work/OMSim</text>
<text text-anchor="start" x="1040" y="-330.5" font-family="Helvetica,sans-Serif" font-size="10.00">/OMSim/common/include</text>
<text text-anchor="middle" x="1107" y="-319.5" font-family="Helvetica,sans-Serif" font-size="10.00">/abcDetectorComponent.hh</text>
</a>
</g>
</g>
<!-- Node2 -->
<g id="node2" class="node">
<title>Node2</title>
<g id="a_node2"><a xlink:href="_o_m_sim_d_e_g_g_8hh.html" target="_top" xlink:title=" ">
<polygon fill="white" stroke="black" points="408.5,-156.5 408.5,-197.5 555.5,-197.5 555.5,-156.5 408.5,-156.5"/>
<text text-anchor="start" x="416.5" y="-185.5" font-family="Helvetica,sans-Serif" font-size="10.00">/home/runner/work/OMSim</text>
<text text-anchor="start" x="416.5" y="-174.5" font-family="Helvetica,sans-Serif" font-size="10.00">/OMSim/common/include</text>
<text text-anchor="middle" x="482" y="-163.5" font-family="Helvetica,sans-Serif" font-size="10.00">/OMSimDEGG.hh</text>
</a>
</g>
</g>
<!-- Node1&#45;&gt;Node2 -->
<g id="edge1" class="edge">
<title>Node1&#45;&gt;Node2</title>
<path fill="none" stroke="midnightblue" d="M1021.86,-330.5C890.84,-326.97 646.86,-315.19 570,-276 535.37,-258.34 507.93,-220.92 493.4,-197.77"/>
<polygon fill="midnightblue" stroke="midnightblue" points="1021.78,-334 1031.87,-330.76 1021.96,-327 1021.78,-334"/>
</g>
<!-- Node3 -->
<g id="node3" class="node">
<title>Node3</title>
<g id="a_node3"><a xlink:href="_o_m_sim_d_e_g_g_8cc.html" target="_top" xlink:title="Construction of the DEGG class.">
<polygon fill="white" stroke="black" points="0,-84 0,-114 198,-114 198,-84 0,-84"/>
<text text-anchor="start" x="8" y="-102" font-family="Helvetica,sans-Serif" font-size="10.00">/home/runner/work/OMSim</text>
<text text-anchor="middle" x="99" y="-91" font-family="Helvetica,sans-Serif" font-size="10.00">/OMSim/common/src/OMSimDEGG.cc</text>
</a>
</g>
</g>
<!-- Node1&#45;&gt;Node3 -->
<g id="edge45" class="edge">
<title>Node1&#45;&gt;Node3</title>
<path fill="none" stroke="midnightblue" d="M1021.91,-331.44C844.8,-329.38 442.25,-319.87 313,-276 219.39,-244.22 138.17,-150.05 109.77,-114.13"/>
<polygon fill="midnightblue" stroke="midnightblue" points="1021.93,-334.94 1031.97,-331.55 1022.01,-327.94 1021.93,-334.94"/>
</g>
<!-- Node4 -->
<g id="node4" class="node">
<title>Node4</title>
<g id="a_node4"><a xlink:href="_o_m_sim_d_e_g_g_harness_8cc.html" target="_top" xlink:title=" ">
<polygon fill="white" stroke="black" points="216,-84 216,-114 454,-114 454,-84 216,-84"/>
<text text-anchor="start" x="224" y="-102" font-family="Helvetica,sans-Serif" font-size="10.00">/home/runner/work/OMSim</text>
<text text-anchor="middle" x="335" y="-91" font-family="Helvetica,sans-Serif" font-size="10.00">/OMSim/common/src/OMSimDEGGHarness.cc</text>
</a>
</g>
</g>
<!-- Node1&#45;&gt;Node4 -->
<g id="edge46" class="edge">
<title>Node1&#45;&gt;Node4</title>
<path fill="none" stroke="midnightblue" d="M1021.45,-328.97C880.92,-323.15 607.75,-308.04 517,-276 457.72,-255.07 443.33,-242.58 399,-198 373.35,-172.21 352.28,-134.57 341.93,-114.26"/>
<polygon fill="midnightblue" stroke="midnightblue" points="1021.61,-332.48 1031.74,-329.39 1021.89,-325.49 1021.61,-332.48"/>
</g>
<!-- Node6 -->
<g id="node6" class="node">
<title>Node6</title>
<g id="a_node6"><a xlink:href="_o_m_sim_d_e_g_g_harness_8hh.html" target="_top" xlink:title=" ">
<polygon fill="white" stroke="black" points="204.5,-156.5 204.5,-197.5 351.5,-197.5 351.5,-156.5 204.5,-156.5"/>
<text text-anchor="start" x="212.5" y="-185.5" font-family="Helvetica,sans-Serif" font-size="10.00">/home/runner/work/OMSim</text>
<text text-anchor="start" x="212.5" y="-174.5" font-family="Helvetica,sans-Serif" font-size="10.00">/OMSim/common/include</text>
<text text-anchor="middle" x="278" y="-163.5" font-family="Helvetica,sans-Serif" font-size="10.00">/OMSimDEGGHarness.hh</text>
</a>
</g>
</g>
<!-- Node1&#45;&gt;Node6 -->
<g id="edge5" class="edge">
<title>Node1&#45;&gt;Node6</title>
<path fill="none" stroke="midnightblue" d="M1021.68,-329.12C839.35,-322.46 423.59,-304.34 366,-276 330.92,-258.74 303.44,-220.81 289.06,-197.53"/>
<polygon fill="midnightblue" stroke="midnightblue" points="1021.65,-332.62 1031.77,-329.49 1021.9,-325.63 1021.65,-332.62"/>
</g>
<!-- Node7 -->
<g id="node7" class="node">
<title>Node7</title>
<g id="a_node7"><a xlink:href="_o_m_sim_l_o_m16_8hh.html" target="_top" xlink:title=" ">
<polygon fill="white" stroke="black" points="816.5,-156.5 816.5,-197.5 963.5,-197.5 963.5,-156.5 816.5,-156.5"/>
<text text-anchor="start" x="824.5" y="-185.5" font-family="Helvetica,sans-Serif" font-size="10.00">/home/runner/work/OMSim</text>
<text text-anchor="start" x="824.5" y="-174.5" font-family="Helvetica,sans-Serif" font-size="10.00">/OMSim/common/include</text>
<text text-anchor="middle" x="890" y="-163.5" font-family="Helvetica,sans-Serif" font-size="10.00">/OMSimLOM16.hh</text>
</a>
</g>
</g>
<!-- Node1&#45;&gt;Node7 -->
<g id="edge8" class="edge">
<title>Node1&#45;&gt;Node7</title>
<path fill="none" stroke="midnightblue" d="M1071.3,-306.66C1028.21,-276.08 956.69,-225.33 917.6,-197.59"/>
<polygon fill="midnightblue" stroke="midnightblue" points="1069.34,-309.56 1079.52,-312.5 1073.39,-303.85 1069.34,-309.56"/>
</g>
<!-- Node8 -->
<g id="node8" class="node">
<title>Node8</title>
<g id="a_node8"><a xlink:href="_o_m_sim_l_o_m16_8cc.html" target="_top" xlink:title="Construction of LOM16.">
<polygon fill="white" stroke="black" points="770.5,-84 770.5,-114 973.5,-114 973.5,-84 770.5,-84"/>
<text text-anchor="start" x="778.5" y="-102" font-family="Helvetica,sans-Serif" font-size="10.00">/home/runner/work/OMSim</text>
<text text-anchor="middle" x="872" y="-91" font-family="Helvetica,sans-Serif" font-size="10.00">/OMSim/common/src/OMSimLOM16.cc</text>
</a>
</g>
</g>
<!-- Node1&#45;&gt;Node8 -->
<g id="edge47" class="edge">
<title>Node1&#45;&gt;Node8</title>
<path fill="none" stroke="midnightblue" d="M1022.01,-320.07C950.67,-305.04 853.23,-271.58 807,-198 797.07,-182.19 799.22,-172.97 807,-156 815.19,-138.13 832.22,-123.8 846.79,-114.11"/>
<polygon fill="midnightblue" stroke="midnightblue" points="1021.39,-323.52 1031.89,-322.07 1022.78,-316.66 1021.39,-323.52"/>
</g>
<!-- Node9 -->
<g id="node9" class="node">
<title>Node9</title>
<g id="a_node9"><a xlink:href="_o_m_sim_l_o_m18_8hh.html" target="_top" xlink:title=" ">
<polygon fill="white" stroke="black" points="612.5,-156.5 612.5,-197.5 759.5,-197.5 759.5,-156.5 612.5,-156.5"/>
<text text-anchor="start" x="620.5" y="-185.5" font-family="Helvetica,sans-Serif" font-size="10.00">/home/runner/work/OMSim</text>
<text text-anchor="start" x="620.5" y="-174.5" font-family="Helvetica,sans-Serif" font-size="10.00">/OMSim/common/include</text>
<text text-anchor="middle" x="686" y="-163.5" font-family="Helvetica,sans-Serif" font-size="10.00">/OMSimLOM18.hh</text>
</a>
</g>
</g>
<!-- Node1&#45;&gt;Node9 -->
<g id="edge11" class="edge">
<title>Node1&#45;&gt;Node9</title>
<path fill="none" stroke="midnightblue" d="M1021.61,-324.1C937.42,-315.17 815.52,-298.84 774,-276 740.14,-257.38 712.63,-220.63 697.85,-197.81"/>
<polygon fill="midnightblue" stroke="midnightblue" points="1021.37,-327.59 1031.68,-325.15 1022.1,-320.63 1021.37,-327.59"/>
</g>
<!-- Node10 -->
<g id="node10" class="node">
<title>Node10</title>
<g id="a_node10"><a xlink:href="_o_m_sim_l_o_m18_8cc.html" target="_top" xlink:title="Construction of LOM18.">
<polygon fill="white" stroke="black" points="510.5,-84 510.5,-114 713.5,-114 713.5,-84 510.5,-84"/>
<text text-anchor="start" x="518.5" y="-102" font-family="Helvetica,sans-Serif" font-size="10.00">/home/runner/work/OMSim</text>
<text text-anchor="middle" x="612" y="-91" font-family="Helvetica,sans-Serif" font-size="10.00">/OMSim/common/src/OMSimLOM18.cc</text>
</a>
</g>
</g>
<!-- Node1&#45;&gt;Node10 -->
<g id="edge48" class="edge">
<title>Node1&#45;&gt;Node10</title>
<path fill="none" stroke="midnightblue" d="M1021.87,-330.14C942.06,-325.98 820.57,-313.37 722,-276 662.87,-253.59 633.06,-253.64 603,-198 588.55,-171.24 598.54,-134.32 605.98,-114.3"/>
<polygon fill="midnightblue" stroke="midnightblue" points="1021.72,-333.64 1031.88,-330.63 1022.06,-326.65 1021.72,-333.64"/>
</g>
<!-- Node11 -->
<g id="node11" class="node">
<title>Node11</title>
<g id="a_node11"><a xlink:href="_o_m_sim_m_d_o_m_8hh.html" target="_top" xlink:title=" ">
<polygon fill="white" stroke="black" points="1843.5,-156.5 1843.5,-197.5 1990.5,-197.5 1990.5,-156.5 1843.5,-156.5"/>
<text text-anchor="start" x="1851.5" y="-185.5" font-family="Helvetica,sans-Serif" font-size="10.00">/home/runner/work/OMSim</text>
<text text-anchor="start" x="1851.5" y="-174.5" font-family="Helvetica,sans-Serif" font-size="10.00">/OMSim/common/include</text>
<text text-anchor="middle" x="1917" y="-163.5" font-family="Helvetica,sans-Serif" font-size="10.00">/OMSimMDOM.hh</text>
</a>
</g>
</g>
<!-- Node1&#45;&gt;Node11 -->
<g id="edge14" class="edge">
<title>Node1&#45;&gt;Node11</title>
<path fill="none" stroke="midnightblue" d="M1192.26,-332.27C1388.91,-332.04 1861.22,-326.2 1911,-276 1931.16,-255.67 1927.45,-219.82 1922.51,-197.57"/>
<polygon fill="midnightblue" stroke="midnightblue" points="1192.26,-328.77 1182.26,-332.28 1192.26,-335.77 1192.26,-328.77"/>
</g>
<!-- Node12 -->
<g id="node12" class="node">
<title>Node12</title>
<g id="a_node12"><a xlink:href="_o_m_sim_m_d_o_m_8cc.html" target="_top" xlink:title="Construction of mDOM.">
<polygon fill="white" stroke="black" points="1938.5,-84 1938.5,-114 2141.5,-114 2141.5,-84 1938.5,-84"/>
<text text-anchor="start" x="1946.5" y="-102" font-family="Helvetica,sans-Serif" font-size="10.00">/home/runner/work/OMSim</text>
<text text-anchor="middle" x="2040" y="-91" font-family="Helvetica,sans-Serif" font-size="10.00">/OMSim/common/src/OMSimMDOM.cc</text>
</a>
</g>
</g>
<!-- Node1&#45;&gt;Node12 -->
<g id="edge49" class="edge">
<title>Node1&#45;&gt;Node12</title>
<path fill="none" stroke="midnightblue" d="M1192.11,-332.74C1374.93,-333.29 1799.31,-328.63 1932,-276 1982.78,-255.86 2000.44,-245.74 2027,-198 2041.85,-171.3 2042.33,-134.35 2041.25,-114.31"/>
<polygon fill="midnightblue" stroke="midnightblue" points="1192.02,-329.24 1182,-332.71 1191.99,-336.24 1192.02,-329.24"/>
</g>
<!-- Node13 -->
<g id="node13" class="node">
<title>Node13</title>
<g id="a_node13"><a xlink:href="_o_m_sim_m_d_o_m_flasher_8cc.html" target="_top" xlink:title=" ">
<polygon fill="white" stroke="black" points="1644,-84 1644,-114 1882,-114 1882,-84 1644,-84"/>
<text text-anchor="start" x="1652" y="-102" font-family="Helvetica,sans-Serif" font-size="10.00">/home/runner/work/OMSim</text>
<text text-anchor="middle" x="1763" y="-91" font-family="Helvetica,sans-Serif" font-size="10.00">/OMSim/common/src/OMSimMDOMFlasher.cc</text>
</a>
</g>
</g>
<!-- Node1&#45;&gt;Node13 -->
<g id="edge50" class="edge">
<title>Node1&#45;&gt;Node13</title>
<path fill="none" stroke="midnightblue" d="M1192.24,-322.95C1341.02,-305.63 1639.93,-263.58 1720,-198 1746.3,-176.46 1756.97,-135.63 1760.92,-114.11"/>
<polygon fill="midnightblue" stroke="midnightblue" points="1191.76,-319.48 1182.22,-324.11 1192.56,-326.44 1191.76,-319.48"/>
</g>
<!-- Node14 -->
<g id="node14" class="node">
<title>Node14</title>
<g id="a_node14"><a xlink:href="_o_m_sim_m_d_o_m_harness_8cc.html" target="_top" xlink:title="Construction of mDOM harness.">
<polygon fill="white" stroke="black" points="2159,-84 2159,-114 2401,-114 2401,-84 2159,-84"/>
<text text-anchor="start" x="2167" y="-102" font-family="Helvetica,sans-Serif" font-size="10.00">/home/runner/work/OMSim</text>
<text text-anchor="middle" x="2280" y="-91" font-family="Helvetica,sans-Serif" font-size="10.00">/OMSim/common/src/OMSimMDOMHarness.cc</text>
</a>
</g>
</g>
<!-- Node1&#45;&gt;Node14 -->
<g id="edge51" class="edge">
<title>Node1&#45;&gt;Node14</title>
<path fill="none" stroke="midnightblue" d="M1192.31,-332.36C1402.14,-332.43 1938.63,-327.42 2109,-276 2174.6,-256.2 2197.58,-250.18 2242,-198 2263.29,-172.99 2273.43,-134.7 2277.57,-114.17"/>
<polygon fill="midnightblue" stroke="midnightblue" points="1192.27,-328.86 1182.27,-332.36 1192.26,-335.86 1192.27,-328.86"/>
</g>
<!-- Node17 -->
<g id="node17" class="node">
<title>Node17</title>
<g id="a_node17"><a xlink:href="_o_m_sim_m_d_o_m_flasher_8hh.html" target="_top" xlink:title=" ">
<polygon fill="white" stroke="black" points="1754.5,-234.5 1754.5,-275.5 1901.5,-275.5 1901.5,-234.5 1754.5,-234.5"/>
<text text-anchor="start" x="1762.5" y="-263.5" font-family="Helvetica,sans-Serif" font-size="10.00">/home/runner/work/OMSim</text>
<text text-anchor="start" x="1762.5" y="-252.5" font-family="Helvetica,sans-Serif" font-size="10.00">/OMSim/common/include</text>
<text text-anchor="middle" x="1828" y="-241.5" font-family="Helvetica,sans-Serif" font-size="10.00">/OMSimMDOMFlasher.hh</text>
</a>
</g>
</g>
<!-- Node1&#45;&gt;Node17 -->
<g id="edge22" class="edge">
<title>Node1&#45;&gt;Node17</title>
<path fill="none" stroke="midnightblue" d="M1192.46,-328.11C1314.5,-321.73 1545.48,-306.57 1740,-276 1744.64,-275.27 1749.41,-274.44 1754.2,-273.53"/>
<polygon fill="midnightblue" stroke="midnightblue" points="1192.24,-324.62 1182.43,-328.63 1192.6,-331.61 1192.24,-324.62"/>
</g>
<!-- Node18 -->
<g id="node18" class="node">
<title>Node18</title>
<g id="a_node18"><a xlink:href="_o_m_sim_m_d_o_m_harness_8hh.html" target="_top" xlink:title=" ">
<polygon fill="white" stroke="black" points="2085.5,-156.5 2085.5,-197.5 2232.5,-197.5 2232.5,-156.5 2085.5,-156.5"/>
<text text-anchor="start" x="2093.5" y="-185.5" font-family="Helvetica,sans-Serif" font-size="10.00">/home/runner/work/OMSim</text>
<text text-anchor="start" x="2093.5" y="-174.5" font-family="Helvetica,sans-Serif" font-size="10.00">/OMSim/common/include</text>
<text text-anchor="middle" x="2159" y="-163.5" font-family="Helvetica,sans-Serif" font-size="10.00">/OMSimMDOMHarness.hh</text>
</a>
</g>
</g>
<!-- Node1&#45;&gt;Node18 -->
<g id="edge27" class="edge">
<title>Node1&#45;&gt;Node18</title>
<path fill="none" stroke="midnightblue" d="M1192.53,-330.74C1413.75,-326.95 1993.03,-313.53 2071,-276 2106.23,-259.04 2133.66,-221.01 2147.99,-197.63"/>
<polygon fill="midnightblue" stroke="midnightblue" points="1192.21,-327.24 1182.27,-330.91 1192.33,-334.24 1192.21,-327.24"/>
</g>
<!-- Node19 -->
<g id="node19" class="node">
<title>Node19</title>
<g id="a_node19"><a xlink:href="_o_m_sim_p_d_o_m_8hh.html" target="_top" xlink:title=" ">
<polygon fill="white" stroke="black" points="981.5,-156.5 981.5,-197.5 1128.5,-197.5 1128.5,-156.5 981.5,-156.5"/>
<text text-anchor="start" x="989.5" y="-185.5" font-family="Helvetica,sans-Serif" font-size="10.00">/home/runner/work/OMSim</text>
<text text-anchor="start" x="989.5" y="-174.5" font-family="Helvetica,sans-Serif" font-size="10.00">/OMSim/common/include</text>
<text text-anchor="middle" x="1055" y="-163.5" font-family="Helvetica,sans-Serif" font-size="10.00">/OMSimPDOM.hh</text>
</a>
</g>
</g>
<!-- Node1&#45;&gt;Node19 -->
<g id="edge30" class="edge">
<title>Node1&#45;&gt;Node19</title>
<path fill="none" stroke="midnightblue" d="M1087.87,-303.82C1082.72,-295.2 1077.59,-285.48 1074,-276 1064.12,-249.91 1059.15,-217.87 1056.83,-197.69"/>
<polygon fill="midnightblue" stroke="midnightblue" points="1084.93,-305.72 1093.18,-312.36 1090.87,-302.02 1084.93,-305.72"/>
</g>
<!-- Node21 -->
<g id="node21" class="node">
<title>Node21</title>
<g id="a_node21"><a xlink:href="_o_m_sim_p_m_t_construction_8hh.html" target="_top" xlink:title=" ">
<polygon fill="white" stroke="black" points="1083,-234.5 1083,-275.5 1235,-275.5 1235,-234.5 1083,-234.5"/>
<text text-anchor="start" x="1091" y="-263.5" font-family="Helvetica,sans-Serif" font-size="10.00">/home/runner/work/OMSim</text>
<text text-anchor="start" x="1091" y="-252.5" font-family="Helvetica,sans-Serif" font-size="10.00">/OMSim/common/include</text>
<text text-anchor="middle" x="1159" y="-241.5" font-family="Helvetica,sans-Serif" font-size="10.00">/OMSimPMTConstruction.hh</text>
</a>
</g>
</g>
<!-- Node1&#45;&gt;Node21 -->
<g id="edge33" class="edge">
<title>Node1&#45;&gt;Node21</title>
<path fill="none" stroke="midnightblue" d="M1126.13,-304.05C1132.61,-294.57 1139.72,-284.18 1145.65,-275.51"/>
<polygon fill="midnightblue" stroke="midnightblue" points="1123.15,-302.2 1120.39,-312.43 1128.93,-306.15 1123.15,-302.2"/>
</g>
<!-- Node22 -->
<g id="node22" class="node">
<title>Node22</title>
<g id="a_node22"><a xlink:href="abc_detector_component_8cc.html" target="_top" xlink:title="Contains the implementation of the abcDetectorComponent class.">
<polygon fill="white" stroke="black" points="1261,-156.5 1261,-197.5 1441,-197.5 1441,-156.5 1261,-156.5"/>
<text text-anchor="start" x="1269" y="-185.5" font-family="Helvetica,sans-Serif" font-size="10.00">/home/runner/work/OMSim</text>
<text text-anchor="start" x="1269" y="-174.5" font-family="Helvetica,sans-Serif" font-size="10.00">/OMSim/common/src/abcDetector</text>
<text text-anchor="middle" x="1351" y="-163.5" font-family="Helvetica,sans-Serif" font-size="10.00">Component.cc</text>
</a>
</g>
</g>
<!-- Node1&#45;&gt;Node22 -->
<g id="edge44" class="edge">
<title>Node1&#45;&gt;Node22</title>
<path fill="none" stroke="midnightblue" d="M1177.29,-308.78C1199.45,-300.03 1223.49,-289 1244,-276 1279.32,-253.62 1313.83,-219.06 1333.72,-197.52"/>
<polygon fill="midnightblue" stroke="midnightblue" points="1175.99,-305.52 1167.92,-312.38 1178.51,-312.06 1175.99,-305.52"/>
</g>
<!-- Node23 -->
<g id="node23" class="node">
<title>Node23</title>
<g id="a_node23"><a xlink:href="_o_m_sim_p_m_t_construction_8cc.html" target="_top" xlink:title="Construction of the PMTs.">
<polygon fill="white" stroke="black" points="1459.5,-162 1459.5,-192 1710.5,-192 1710.5,-162 1459.5,-162"/>
<text text-anchor="start" x="1467.5" y="-180" font-family="Helvetica,sans-Serif" font-size="10.00">/home/runner/work/OMSim</text>
<text text-anchor="middle" x="1585" y="-169" font-family="Helvetica,sans-Serif" font-size="10.00">/OMSim/common/src/OMSimPMTConstruction.cc</text>
</a>
</g>
</g>
<!-- Node1&#45;&gt;Node23 -->
<g id="edge52" class="edge">
<title>Node1&#45;&gt;Node23</title>
<path fill="none" stroke="midnightblue" d="M1179.48,-309.39C1211.8,-299.26 1250.33,-287.12 1285,-276 1376.83,-246.56 1484.19,-211.28 1542.32,-192.1"/>
<polygon fill="midnightblue" stroke="midnightblue" points="1178.16,-306.14 1169.66,-312.47 1180.25,-312.82 1178.16,-306.14"/>
</g>
<!-- Node2&#45;&gt;Node3 -->
<g id="edge2" class="edge">
<title>Node2&#45;&gt;Node3</title>
<path fill="none" stroke="midnightblue" d="M398.27,-159.38C329.88,-145.81 234.3,-126.85 169.71,-114.03"/>
<polygon fill="midnightblue" stroke="midnightblue" points="397.66,-162.83 408.15,-161.35 399.03,-155.97 397.66,-162.83"/>
</g>
<!-- Node2&#45;&gt;Node4 -->
<g id="edge3" class="edge">
<title>Node2&#45;&gt;Node4</title>
<path fill="none" stroke="midnightblue" d="M435.21,-151.81C411.26,-139.43 382.93,-124.78 362.51,-114.23"/>
<polygon fill="midnightblue" stroke="midnightblue" points="433.65,-154.94 444.14,-156.43 436.87,-148.73 433.65,-154.94"/>
</g>
<!-- Node5 -->
<g id="node5" class="node">
<title>Node5</title>
<g id="a_node5"><a xlink:href="_o_m_sim_detector_construction_8cc.html" target="_top" xlink:title="User defined detector.">
<polygon fill="white" stroke="black" points="1073.5,-0.5 1073.5,-41.5 1262.5,-41.5 1262.5,-0.5 1073.5,-0.5"/>
<text text-anchor="start" x="1081.5" y="-29.5" font-family="Helvetica,sans-Serif" font-size="10.00">/home/runner/work/OMSim</text>
<text text-anchor="start" x="1081.5" y="-18.5" font-family="Helvetica,sans-Serif" font-size="10.00">/OMSim/effective_area</text>
<text text-anchor="middle" x="1168" y="-7.5" font-family="Helvetica,sans-Serif" font-size="10.00">/src/OMSimDetectorConstruction.cc</text>
</a>
</g>
</g>
<!-- Node2&#45;&gt;Node5 -->
<g id="edge4" class="edge">
<title>Node2&#45;&gt;Node5</title>
<path fill="none" stroke="midnightblue" d="M479.07,-145.89C478.72,-123.75 482.38,-94.71 501,-78 542.64,-40.62 899.25,-27.79 1073.26,-23.72"/>
<polygon fill="midnightblue" stroke="midnightblue" points="475.58,-146.28 479.51,-156.12 482.57,-145.97 475.58,-146.28"/>
</g>
<!-- Node6&#45;&gt;Node3 -->
<g id="edge6" class="edge">
<title>Node6&#45;&gt;Node3</title>
<path fill="none" stroke="midnightblue" d="M222.52,-152.45C192.94,-139.89 157.53,-124.85 132.22,-114.11"/>
<polygon fill="midnightblue" stroke="midnightblue" points="221.33,-155.74 231.9,-156.43 224.07,-149.3 221.33,-155.74"/>
</g>
<!-- Node6&#45;&gt;Node4 -->
<g id="edge7" class="edge">
<title>Node6&#45;&gt;Node4</title>
<path fill="none" stroke="midnightblue" d="M298.76,-148.32C307.44,-136.75 317.15,-123.8 324.33,-114.23"/>
<polygon fill="midnightblue" stroke="midnightblue" points="295.88,-146.33 292.68,-156.43 301.48,-150.53 295.88,-146.33"/>
</g>
<!-- Node7&#45;&gt;Node5 -->
<g id="edge10" class="edge">
<title>Node7&#45;&gt;Node5</title>
<path fill="none" stroke="midnightblue" d="M932.02,-151.01C947.8,-141.47 965.83,-130.39 982,-120 1010,-102.01 1014.95,-94.24 1044,-78 1068.23,-64.46 1096.34,-51.55 1119.66,-41.54"/>
<polygon fill="midnightblue" stroke="midnightblue" points="929.79,-148.27 923.03,-156.43 933.4,-154.27 929.79,-148.27"/>
</g>
<!-- Node7&#45;&gt;Node8 -->
<g id="edge9" class="edge">
<title>Node7&#45;&gt;Node8</title>
<path fill="none" stroke="midnightblue" d="M883.04,-146.62C880.41,-135.5 877.53,-123.34 875.37,-114.23"/>
<polygon fill="midnightblue" stroke="midnightblue" points="879.65,-147.5 885.36,-156.43 886.47,-145.89 879.65,-147.5"/>
</g>
<!-- Node9&#45;&gt;Node5 -->
<g id="edge13" class="edge">
<title>Node9&#45;&gt;Node5</title>
<path fill="none" stroke="midnightblue" d="M704.02,-147.82C721.13,-122 746.34,-86.53 761,-78 812.47,-48.04 969.99,-33.34 1073.29,-26.74"/>
<polygon fill="midnightblue" stroke="midnightblue" points="700.89,-146.2 698.34,-156.49 706.75,-150.04 700.89,-146.2"/>
</g>
<!-- Node9&#45;&gt;Node10 -->
<g id="edge12" class="edge">
<title>Node9&#45;&gt;Node10</title>
<path fill="none" stroke="midnightblue" d="M659.7,-148.99C648.27,-137.25 635.36,-123.99 625.85,-114.23"/>
<polygon fill="midnightblue" stroke="midnightblue" points="657.46,-151.71 666.94,-156.43 662.47,-146.82 657.46,-151.71"/>
</g>
<!-- Node11&#45;&gt;Node5 -->
<g id="edge21" class="edge">
<title>Node11&#45;&gt;Node5</title>
<path fill="none" stroke="midnightblue" d="M1917.66,-146.33C1916.42,-123.97 1910.73,-94.43 1891,-78 1888.01,-75.51 1458.23,-43.45 1262.8,-28.99"/>
<polygon fill="midnightblue" stroke="midnightblue" points="1914.16,-146.44 1917.95,-156.33 1921.16,-146.24 1914.16,-146.44"/>
</g>
<!-- Node11&#45;&gt;Node12 -->
<g id="edge15" class="edge">
<title>Node11&#45;&gt;Node12</title>
<path fill="none" stroke="midnightblue" d="M1957.22,-151.15C1977.03,-138.91 2000.2,-124.59 2016.98,-114.23"/>
<polygon fill="midnightblue" stroke="midnightblue" points="1955.34,-148.19 1948.68,-156.43 1959.02,-154.15 1955.34,-148.19"/>
</g>
<!-- Node11&#45;&gt;Node13 -->
<g id="edge16" class="edge">
<title>Node11&#45;&gt;Node13</title>
<path fill="none" stroke="midnightblue" d="M1868.31,-151.97C1843.15,-139.55 1813.31,-124.83 1791.83,-114.23"/>
<polygon fill="midnightblue" stroke="midnightblue" points="1866.82,-155.14 1877.34,-156.43 1869.92,-148.86 1866.82,-155.14"/>
</g>
<!-- Node11&#45;&gt;Node14 -->
<g id="edge17" class="edge">
<title>Node11&#45;&gt;Node14</title>
<path fill="none" stroke="midnightblue" d="M2001.03,-158.41C2065.45,-144.92 2153.17,-126.55 2212.94,-114.04"/>
<polygon fill="midnightblue" stroke="midnightblue" points="1999.97,-155.05 1990.9,-160.53 2001.4,-161.91 1999.97,-155.05"/>
</g>
<!-- Node15 -->
<g id="node15" class="node">
<title>Node15</title>
<g id="a_node15"><a xlink:href="_o_m_sim_detector_construction_8hh.html" target="_top" xlink:title=" ">
<polygon fill="white" stroke="black" points="1414,-78.5 1414,-119.5 1626,-119.5 1626,-78.5 1414,-78.5"/>
<text text-anchor="start" x="1422" y="-107.5" font-family="Helvetica,sans-Serif" font-size="10.00">/home/runner/work/OMSim</text>
<text text-anchor="start" x="1422" y="-96.5" font-family="Helvetica,sans-Serif" font-size="10.00">/OMSim/effective_area</text>
<text text-anchor="middle" x="1520" y="-85.5" font-family="Helvetica,sans-Serif" font-size="10.00">/include/OMSimDetectorConstruction.hh</text>
</a>
</g>
</g>
<!-- Node11&#45;&gt;Node15 -->
<g id="edge18" class="edge">
<title>Node11&#45;&gt;Node15</title>
<path fill="none" stroke="midnightblue" d="M1833.19,-159.96C1771.63,-148.17 1687.65,-132.09 1622.16,-119.56"/>
<polygon fill="midnightblue" stroke="midnightblue" points="1832.78,-163.44 1843.26,-161.88 1834.09,-156.57 1832.78,-163.44"/>
</g>
<!-- Node15&#45;&gt;Node5 -->
<g id="edge19" class="edge">
<title>Node15&#45;&gt;Node5</title>
<path fill="none" stroke="midnightblue" d="M1419.35,-76.27C1368.6,-65.31 1307.56,-52.13 1258.34,-41.51"/>
<polygon fill="midnightblue" stroke="midnightblue" points="1418.84,-79.74 1429.35,-78.43 1420.32,-72.9 1418.84,-79.74"/>
</g>
<!-- Node16 -->
<g id="node16" class="node">
<title>Node16</title>
<g id="a_node16"><a xlink:href="_o_m_sim__effective__area_8cc.html" target="_top" xlink:title="Main for the calculation of effective areas.">
<polygon fill="white" stroke="black" points="1446.5,-0.5 1446.5,-41.5 1593.5,-41.5 1593.5,-0.5 1446.5,-0.5"/>
<text text-anchor="start" x="1454.5" y="-29.5" font-family="Helvetica,sans-Serif" font-size="10.00">/home/runner/work/OMSim</text>
<text text-anchor="start" x="1454.5" y="-18.5" font-family="Helvetica,sans-Serif" font-size="10.00">/OMSim/OMSim_effective</text>
<text text-anchor="middle" x="1520" y="-7.5" font-family="Helvetica,sans-Serif" font-size="10.00">_area.cc</text>
</a>
</g>
</g>
<!-- Node15&#45;&gt;Node16 -->
<g id="edge20" class="edge">
<title>Node15&#45;&gt;Node16</title>
<path fill="none" stroke="midnightblue" d="M1520,-68.3C1520,-59.3 1520,-49.65 1520,-41.51"/>
<polygon fill="midnightblue" stroke="midnightblue" points="1516.5,-68.43 1520,-78.43 1523.5,-68.43 1516.5,-68.43"/>
</g>
<!-- Node17&#45;&gt;Node5 -->
<g id="edge26" class="edge">
<title>Node17&#45;&gt;Node5</title>
<path fill="none" stroke="midnightblue" d="M1806.39,-226.51C1786.59,-203.48 1755.07,-171.89 1720,-156 1591.64,-97.86 1541.43,-155.26 1405,-120 1385.63,-114.99 1276.62,-68.7 1213.4,-41.57"/>
<polygon fill="midnightblue" stroke="midnightblue" points="1803.79,-228.85 1812.9,-234.26 1809.15,-224.35 1803.79,-228.85"/>
</g>
<!-- Node17&#45;&gt;Node11 -->
<g id="edge23" class="edge">
<title>Node17&#45;&gt;Node11</title>
<path fill="none" stroke="midnightblue" d="M1858.71,-227.78C1870.34,-217.84 1883.37,-206.72 1894.16,-197.51"/>
<polygon fill="midnightblue" stroke="midnightblue" points="1856.25,-225.27 1850.92,-234.43 1860.8,-230.6 1856.25,-225.27"/>
</g>
<!-- Node17&#45;&gt;Node12 -->
<g id="edge24" class="edge">
<title>Node17&#45;&gt;Node12</title>
<path fill="none" stroke="midnightblue" d="M1911.62,-242C1942.5,-233.94 1975.82,-220.48 2000,-198 2024.49,-175.23 2034.38,-135.3 2038.05,-114.12"/>
<polygon fill="midnightblue" stroke="midnightblue" points="1910.57,-238.65 1901.69,-244.43 1912.24,-245.45 1910.57,-238.65"/>
</g>
<!-- Node17&#45;&gt;Node13 -->
<g id="edge25" class="edge">
<title>Node17&#45;&gt;Node13</title>
<path fill="none" stroke="midnightblue" d="M1817.8,-224.63C1810.77,-205 1800.93,-178.7 1791,-156 1784.64,-141.46 1776.43,-125.29 1770.54,-114.08"/>
<polygon fill="midnightblue" stroke="midnightblue" points="1814.57,-225.98 1821.21,-234.24 1821.17,-223.64 1814.57,-225.98"/>
</g>
<!-- Node18&#45;&gt;Node12 -->
<g id="edge28" class="edge">
<title>Node18&#45;&gt;Node12</title>
<path fill="none" stroke="midnightblue" d="M2119.83,-150.99C2100.72,-138.78 2078.44,-124.55 2062.27,-114.23"/>
<polygon fill="midnightblue" stroke="midnightblue" points="2118.04,-154 2128.35,-156.43 2121.81,-148.1 2118.04,-154"/>
</g>
<!-- Node18&#45;&gt;Node14 -->
<g id="edge29" class="edge">
<title>Node18&#45;&gt;Node14</title>
<path fill="none" stroke="midnightblue" d="M2198.83,-150.99C2218.25,-138.78 2240.92,-124.55 2257.35,-114.23"/>
<polygon fill="midnightblue" stroke="midnightblue" points="2196.77,-148.15 2190.16,-156.43 2200.49,-154.07 2196.77,-148.15"/>
</g>
<!-- Node19&#45;&gt;Node5 -->
<g id="edge32" class="edge">
<title>Node19&#45;&gt;Node5</title>
<path fill="none" stroke="midnightblue" d="M1048.79,-146.09C1046.17,-125.38 1046.2,-98.04 1059,-78 1069.37,-61.77 1086.02,-50.02 1103.23,-41.61"/>
<polygon fill="midnightblue" stroke="midnightblue" points="1045.38,-146.89 1050.35,-156.24 1052.3,-145.83 1045.38,-146.89"/>
</g>
<!-- Node20 -->
<g id="node20" class="node">
<title>Node20</title>
<g id="a_node20"><a xlink:href="_o_m_sim_p_d_o_m_8cc.html" target="_top" xlink:title="Implementation of the pDOM/Gen1 DOM class.">
<polygon fill="white" stroke="black" points="1068,-84 1068,-114 1268,-114 1268,-84 1068,-84"/>
<text text-anchor="start" x="1076" y="-102" font-family="Helvetica,sans-Serif" font-size="10.00">/home/runner/work/OMSim</text>
<text text-anchor="middle" x="1168" y="-91" font-family="Helvetica,sans-Serif" font-size="10.00">/OMSim/common/src/OMSimPDOM.cc</text>
</a>
</g>
</g>
<!-- Node19&#45;&gt;Node20 -->
<g id="edge31" class="edge">
<title>Node19&#45;&gt;Node20</title>
<path fill="none" stroke="midnightblue" d="M1092.68,-150.66C1110.72,-138.53 1131.64,-124.45 1146.85,-114.23"/>
<polygon fill="midnightblue" stroke="midnightblue" points="1090.44,-147.94 1084.1,-156.43 1094.35,-153.75 1090.44,-147.94"/>
</g>
<!-- Node21&#45;&gt;Node2 -->
<g id="edge34" class="edge">
<title>Node21&#45;&gt;Node2</title>
<path fill="none" stroke="midnightblue" d="M1072.83,-247.03C963.37,-237.78 768.77,-220.03 603,-198 587.7,-195.97 571.36,-193.48 555.8,-190.96"/>
<polygon fill="midnightblue" stroke="midnightblue" points="1072.57,-250.52 1082.83,-247.87 1073.16,-243.54 1072.57,-250.52"/>
</g>
<!-- Node21&#45;&gt;Node5 -->
<g id="edge43" class="edge">
<title>Node21&#45;&gt;Node5</title>
<path fill="none" stroke="midnightblue" d="M1168.52,-224.7C1176.58,-203.54 1189.91,-175.38 1209,-156 1233,-131.64 1259.36,-149.3 1277,-120 1286.63,-104.01 1286.73,-93.93 1277,-78 1267.08,-61.75 1250.77,-50.02 1233.76,-41.63"/>
<polygon fill="midnightblue" stroke="midnightblue" points="1165.2,-223.57 1165.08,-234.17 1171.78,-225.96 1165.2,-223.57"/>
</g>
<!-- Node21&#45;&gt;Node7 -->
<g id="edge35" class="edge">
<title>Node21&#45;&gt;Node7</title>
<path fill="none" stroke="midnightblue" d="M1079.65,-231.58C1041.36,-220.76 995.87,-207.91 959.04,-197.51"/>
<polygon fill="midnightblue" stroke="midnightblue" points="1079.15,-235.08 1089.73,-234.43 1081.05,-228.34 1079.15,-235.08"/>
</g>
<!-- Node21&#45;&gt;Node9 -->
<g id="edge36" class="edge">
<title>Node21&#45;&gt;Node9</title>
<path fill="none" stroke="midnightblue" d="M1072.49,-240.39C1001.22,-229.13 897.53,-212.68 807,-198 791.66,-195.51 775.23,-192.82 759.57,-190.23"/>
<polygon fill="midnightblue" stroke="midnightblue" points="1072.34,-243.91 1082.76,-242.01 1073.43,-236.99 1072.34,-243.91"/>
</g>
<!-- Node21&#45;&gt;Node11 -->
<g id="edge37" class="edge">
<title>Node21&#45;&gt;Node11</title>
<path fill="none" stroke="midnightblue" d="M1245.29,-245.43C1355.44,-234.48 1551.9,-214.92 1720,-198 1760.7,-193.9 1806.13,-189.29 1843.1,-185.53"/>
<polygon fill="midnightblue" stroke="midnightblue" points="1244.83,-241.96 1235.23,-246.43 1245.52,-248.93 1244.83,-241.96"/>
</g>
<!-- Node21&#45;&gt;Node15 -->
<g id="edge42" class="edge">
<title>Node21&#45;&gt;Node15</title>
<path fill="none" stroke="midnightblue" d="M1183.64,-226.4C1208.27,-199.07 1243.66,-160.65 1252,-156 1301.19,-128.56 1362.27,-114.53 1413.68,-107.37"/>
<polygon fill="midnightblue" stroke="midnightblue" points="1180.77,-224.35 1176.69,-234.12 1185.98,-229.03 1180.77,-224.35"/>
</g>
<!-- Node21&#45;&gt;Node19 -->
<g id="edge38" class="edge">
<title>Node21&#45;&gt;Node19</title>
<path fill="none" stroke="midnightblue" d="M1123.9,-228.35C1110.11,-218.27 1094.54,-206.89 1081.69,-197.51"/>
<polygon fill="midnightblue" stroke="midnightblue" points="1122.08,-231.35 1132.22,-234.43 1126.21,-225.7 1122.08,-231.35"/>
</g>
<!-- Node21&#45;&gt;Node20 -->
<g id="edge40" class="edge">
<title>Node21&#45;&gt;Node20</title>
<path fill="none" stroke="midnightblue" d="M1160.72,-224.51C1162.65,-191.49 1165.7,-139.34 1167.16,-114.32"/>
<polygon fill="midnightblue" stroke="midnightblue" points="1157.23,-224.31 1160.14,-234.5 1164.22,-224.72 1157.23,-224.31"/>
</g>
<!-- Node21&#45;&gt;Node22 -->
<g id="edge39" class="edge">
<title>Node21&#45;&gt;Node22</title>
<path fill="none" stroke="midnightblue" d="M1218.09,-230.61C1244.89,-220 1276.22,-207.6 1301.72,-197.51"/>
<polygon fill="midnightblue" stroke="midnightblue" points="1216.45,-227.49 1208.44,-234.43 1219.03,-234 1216.45,-227.49"/>
</g>
<!-- Node21&#45;&gt;Node23 -->
<g id="edge41" class="edge">
<title>Node21&#45;&gt;Node23</title>
<path fill="none" stroke="midnightblue" d="M1245.24,-238.62C1321.63,-224.99 1432.21,-205.26 1506.25,-192.05"/>
<polygon fill="midnightblue" stroke="midnightblue" points="1244.39,-235.21 1235.16,-240.41 1245.62,-242.1 1244.39,-235.21"/>
</g>
</g>
</svg>
