<?xml version="1.0" encoding="UTF-8" standalone="no"?>
<!DOCTYPE svg PUBLIC "-//W3C//DTD SVG 1.1//EN"
 "http://www.w3.org/Graphics/SVG/1.1/DTD/svg11.dtd">
<!-- Generated by graphviz version 2.43.0 (0)
 -->
<!-- Title: abcDetectorComponent.hh Pages: 1 -->
<svg width="1549pt" height="308pt"
 viewBox="0.00 0.00 1549.00 308.00" xmlns="http://www.w3.org/2000/svg" xmlns:xlink="http://www.w3.org/1999/xlink">
<g id="graph0" class="graph" transform="scale(1 1) rotate(0) translate(4 304)">
<title>abcDetectorComponent.hh</title>
<polygon fill="white" stroke="transparent" points="-4,4 -4,-304 1545,-304 1545,4 -4,4"/>
<!-- Node1 -->
<g id="node1" class="node">
<title>Node1</title>
<g id="a_node1"><a xlink:title=" ">
<polygon fill="#bfbfbf" stroke="black" points="634.5,-280.5 634.5,-299.5 781.5,-299.5 781.5,-280.5 634.5,-280.5"/>
<text text-anchor="middle" x="708" y="-287.5" font-family="Helvetica,sans-Serif" font-size="10.00">abcDetectorComponent.hh</text>
</a>
</g>
</g>
<!-- Node2 -->
<g id="node2" class="node">
<title>Node2</title>
<g id="a_node2"><a xlink:href="_o_m_sim_d_e_g_g_harness_8hh.html" target="_top" xlink:title=" ">
<polygon fill="white" stroke="black" points="211.5,-224.5 211.5,-243.5 346.5,-243.5 346.5,-224.5 211.5,-224.5"/>
<text text-anchor="middle" x="279" y="-231.5" font-family="Helvetica,sans-Serif" font-size="10.00">OMSimDEGGHarness.hh</text>
</a>
</g>
</g>
<!-- Node1&#45;&gt;Node2 -->
<g id="edge1" class="edge">
<title>Node1&#45;&gt;Node2</title>
<path fill="none" stroke="midnightblue" d="M629.88,-279.17C548.89,-268.97 423.56,-253.2 346.66,-243.52"/>
<polygon fill="midnightblue" stroke="midnightblue" points="629.66,-282.67 640.02,-280.44 630.54,-275.72 629.66,-282.67"/>
</g>
<!-- Node4 -->
<g id="node4" class="node">
<title>Node4</title>
<g id="a_node4"><a xlink:href="_o_m_sim_m_d_o_m_flasher_8hh.html" target="_top" xlink:title=" ">
<polygon fill="white" stroke="black" points="592.5,-224.5 592.5,-243.5 727.5,-243.5 727.5,-224.5 592.5,-224.5"/>
<text text-anchor="middle" x="660" y="-231.5" font-family="Helvetica,sans-Serif" font-size="10.00">OMSimMDOMFlasher.hh</text>
</a>
</g>
</g>
<!-- Node1&#45;&gt;Node4 -->
<g id="edge3" class="edge">
<title>Node1&#45;&gt;Node4</title>
<path fill="none" stroke="midnightblue" d="M693.27,-272.43C684.86,-262.97 674.65,-251.48 667.78,-243.75"/>
<polygon fill="midnightblue" stroke="midnightblue" points="690.81,-274.93 700.07,-280.08 696.05,-270.28 690.81,-274.93"/>
</g>
<!-- Node14 -->
<g id="node14" class="node">
<title>Node14</title>
<g id="a_node14"><a xlink:href="_o_m_sim_m_d_o_m_harness_8hh.html" target="_top" xlink:title=" ">
<polygon fill="white" stroke="black" points="208,-168.5 208,-187.5 348,-187.5 348,-168.5 208,-168.5"/>
<text text-anchor="middle" x="278" y="-175.5" font-family="Helvetica,sans-Serif" font-size="10.00">OMSimMDOMHarness.hh</text>
</a>
</g>
</g>
<!-- Node1&#45;&gt;Node14 -->
<g id="edge15" class="edge">
<title>Node1&#45;&gt;Node14</title>
<path fill="none" stroke="midnightblue" d="M664.67,-277.92C578.74,-255.93 388.42,-207.25 311.36,-187.53"/>
<polygon fill="midnightblue" stroke="midnightblue" points="664.06,-281.37 674.62,-280.46 665.8,-274.59 664.06,-281.37"/>
</g>
<!-- Node15 -->
<g id="node15" class="node">
<title>Node15</title>
<g id="a_node15"><a xlink:href="_o_m_sim_p_d_o_m_8hh.html" target="_top" xlink:title=" ">
<polygon fill="white" stroke="black" points="720.5,-168.5 720.5,-187.5 817.5,-187.5 817.5,-168.5 720.5,-168.5"/>
<text text-anchor="middle" x="769" y="-175.5" font-family="Helvetica,sans-Serif" font-size="10.00">OMSimPDOM.hh</text>
</a>
</g>
</g>
<!-- Node1&#45;&gt;Node15 -->
<g id="edge18" class="edge">
<title>Node1&#45;&gt;Node15</title>
<path fill="none" stroke="midnightblue" d="M719.23,-271.74C724.49,-263.45 730.75,-253.32 736,-244 747.18,-224.15 758.96,-200.08 764.96,-187.54"/>
<polygon fill="midnightblue" stroke="midnightblue" points="716.27,-269.87 713.81,-280.17 722.16,-273.65 716.27,-269.87"/>
</g>
<!-- Node17 -->
<g id="node17" class="node">
<title>Node17</title>
<g id="a_node17"><a xlink:href="_o_m_sim_p_m_t_construction_8hh.html" target="_top" xlink:title=" ">
<polygon fill="white" stroke="black" points="821.5,-224.5 821.5,-243.5 970.5,-243.5 970.5,-224.5 821.5,-224.5"/>
<text text-anchor="middle" x="896" y="-231.5" font-family="Helvetica,sans-Serif" font-size="10.00">OMSimPMTConstruction.hh</text>
</a>
</g>
</g>
<!-- Node1&#45;&gt;Node17 -->
<g id="edge21" class="edge">
<title>Node1&#45;&gt;Node17</title>
<path fill="none" stroke="midnightblue" d="M747.8,-277.57C783.27,-267.38 834.37,-252.7 866.35,-243.52"/>
<polygon fill="midnightblue" stroke="midnightblue" points="746.43,-274.32 737.79,-280.44 748.37,-281.05 746.43,-274.32"/>
</g>
<!-- Node24 -->
<g id="node24" class="node">
<title>Node24</title>
<g id="a_node24"><a xlink:href="abc_detector_component_8cc.html" target="_top" xlink:title="Contains the implementation of the abcDetectorComponent class.">
<polygon fill="white" stroke="black" points="1395,-168.5 1395,-187.5 1541,-187.5 1541,-168.5 1395,-168.5"/>
<text text-anchor="middle" x="1468" y="-175.5" font-family="Helvetica,sans-Serif" font-size="10.00">abcDetectorComponent.cc</text>
</a>
</g>
</g>
<!-- Node1&#45;&gt;Node24 -->
<g id="edge37" class="edge">
<title>Node1&#45;&gt;Node24</title>
<path fill="none" stroke="midnightblue" d="M777.32,-278.97C925.46,-257.53 1270.62,-207.57 1409.03,-187.53"/>
<polygon fill="midnightblue" stroke="midnightblue" points="776.4,-275.56 767,-280.46 777.4,-282.49 776.4,-275.56"/>
</g>
<!-- Node3 -->
<g id="node3" class="node">
<title>Node3</title>
<g id="a_node3"><a xlink:href="_o_m_sim_d_e_g_g_harness_8cc.html" target="_top" xlink:title=" ">
<polygon fill="white" stroke="black" points="56,-168.5 56,-187.5 190,-187.5 190,-168.5 56,-168.5"/>
<text text-anchor="middle" x="123" y="-175.5" font-family="Helvetica,sans-Serif" font-size="10.00">OMSimDEGGHarness.cc</text>
</a>
</g>
</g>
<!-- Node2&#45;&gt;Node3 -->
<g id="edge2" class="edge">
<title>Node2&#45;&gt;Node3</title>
<path fill="none" stroke="midnightblue" d="M244.83,-221.17C215.46,-211 173.8,-196.59 147.6,-187.52"/>
<polygon fill="midnightblue" stroke="midnightblue" points="243.69,-224.48 254.28,-224.44 245.98,-217.86 243.69,-224.48"/>
</g>
<!-- Node5 -->
<g id="node5" class="node">
<title>Node5</title>
<g id="a_node5"><a xlink:href="_o_m_sim_m_d_o_m_8hh.html" target="_top" xlink:title=" ">
<polygon fill="white" stroke="black" points="459,-168.5 459,-187.5 559,-187.5 559,-168.5 459,-168.5"/>
<text text-anchor="middle" x="509" y="-175.5" font-family="Helvetica,sans-Serif" font-size="10.00">OMSimMDOM.hh</text>
</a>
</g>
</g>
<!-- Node4&#45;&gt;Node5 -->
<g id="edge4" class="edge">
<title>Node4&#45;&gt;Node5</title>
<path fill="none" stroke="midnightblue" d="M626.55,-221.04C598.14,-210.88 558.06,-196.55 532.81,-187.52"/>
<polygon fill="midnightblue" stroke="midnightblue" points="625.48,-224.37 636.07,-224.44 627.84,-217.78 625.48,-224.37"/>
</g>
<!-- Node13 -->
<g id="node13" class="node">
<title>Node13</title>
<g id="a_node13"><a xlink:href="_o_m_sim_detector_construction_8cc.html" target="_top" xlink:title="User defined detector.">
<polygon fill="white" stroke="black" points="689.5,-56.5 689.5,-75.5 858.5,-75.5 858.5,-56.5 689.5,-56.5"/>
<text text-anchor="middle" x="774" y="-63.5" font-family="Helvetica,sans-Serif" font-size="10.00">OMSimDetectorConstruction.cc</text>
</a>
</g>
</g>
<!-- Node4&#45;&gt;Node13 -->
<g id="edge14" class="edge">
<title>Node4&#45;&gt;Node13</title>
<path fill="none" stroke="midnightblue" d="M664.39,-214.47C671.09,-189.2 685.82,-143.48 711,-112 723.68,-96.15 743.32,-83.34 757.3,-75.5"/>
<polygon fill="midnightblue" stroke="midnightblue" points="660.98,-213.68 661.94,-224.24 667.77,-215.39 660.98,-213.68"/>
</g>
<!-- Node6 -->
<g id="node6" class="node">
<title>Node6</title>
<g id="a_node6"><a xlink:href="_o_m_sim_m_d_o_m_8cc.html" target="_top" xlink:title="Construction of mDOM.">
<polygon fill="white" stroke="black" points="0,-112.5 0,-131.5 98,-131.5 98,-112.5 0,-112.5"/>
<text text-anchor="middle" x="49" y="-119.5" font-family="Helvetica,sans-Serif" font-size="10.00">OMSimMDOM.cc</text>
</a>
</g>
</g>
<!-- Node5&#45;&gt;Node6 -->
<g id="edge5" class="edge">
<title>Node5&#45;&gt;Node6</title>
<path fill="none" stroke="midnightblue" d="M448.56,-171.04C369.82,-163.1 227.91,-148.14 107,-132 104.07,-131.61 101.06,-131.19 98.03,-130.76"/>
<polygon fill="midnightblue" stroke="midnightblue" points="448.48,-174.55 458.78,-172.07 449.18,-167.59 448.48,-174.55"/>
</g>
<!-- Node7 -->
<g id="node7" class="node">
<title>Node7</title>
<g id="a_node7"><a xlink:href="_o_m_sim_m_d_o_m_flasher_8cc.html" target="_top" xlink:title=" ">
<polygon fill="white" stroke="black" points="272,-112.5 272,-131.5 406,-131.5 406,-112.5 272,-112.5"/>
<text text-anchor="middle" x="339" y="-119.5" font-family="Helvetica,sans-Serif" font-size="10.00">OMSimMDOMFlasher.cc</text>
</a>
</g>
</g>
<!-- Node5&#45;&gt;Node7 -->
<g id="edge6" class="edge">
<title>Node5&#45;&gt;Node7</title>
<path fill="none" stroke="midnightblue" d="M472.18,-165.3C440.15,-155.13 394.48,-140.62 365.81,-131.52"/>
<polygon fill="midnightblue" stroke="midnightblue" points="471.47,-168.75 482.06,-168.44 473.59,-162.08 471.47,-168.75"/>
</g>
<!-- Node8 -->
<g id="node8" class="node">
<title>Node8</title>
<g id="a_node8"><a xlink:href="_o_m_sim_m_d_o_m_harness_8cc.html" target="_top" xlink:title="Construction of mDOM harness.">
<polygon fill="white" stroke="black" points="116,-112.5 116,-131.5 254,-131.5 254,-112.5 116,-112.5"/>
<text text-anchor="middle" x="185" y="-119.5" font-family="Helvetica,sans-Serif" font-size="10.00">OMSimMDOMHarness.cc</text>
</a>
</g>
</g>
<!-- Node5&#45;&gt;Node8 -->
<g id="edge7" class="edge">
<title>Node5&#45;&gt;Node8</title>
<path fill="none" stroke="midnightblue" d="M448.83,-166.97C387.66,-156.78 293.91,-141.15 236.19,-131.53"/>
<polygon fill="midnightblue" stroke="midnightblue" points="448.29,-170.43 458.73,-168.62 449.44,-163.53 448.29,-170.43"/>
</g>
<!-- Node9 -->
<g id="node9" class="node">
<title>Node9</title>
<g id="a_node9"><a xlink:href="_o_m_sim_detector_construction_8hh.html" target="_top" xlink:title=" ">
<polygon fill="white" stroke="black" points="424,-112.5 424,-131.5 594,-131.5 594,-112.5 424,-112.5"/>
<text text-anchor="middle" x="509" y="-119.5" font-family="Helvetica,sans-Serif" font-size="10.00">OMSimDetectorConstruction.hh</text>
</a>
</g>
</g>
<!-- Node5&#45;&gt;Node9 -->
<g id="edge8" class="edge">
<title>Node5&#45;&gt;Node9</title>
<path fill="none" stroke="midnightblue" d="M509,-157.8C509,-148.91 509,-138.78 509,-131.75"/>
<polygon fill="midnightblue" stroke="midnightblue" points="505.5,-158.08 509,-168.08 512.5,-158.08 505.5,-158.08"/>
</g>
<!-- Node5&#45;&gt;Node13 -->
<g id="edge13" class="edge">
<title>Node5&#45;&gt;Node13</title>
<path fill="none" stroke="midnightblue" d="M535.87,-164.16C574.18,-145.87 640.49,-114.27 646,-112 680.42,-97.83 721.11,-84.01 747.22,-75.51"/>
<polygon fill="midnightblue" stroke="midnightblue" points="534.31,-161.03 526.79,-168.5 537.33,-167.35 534.31,-161.03"/>
</g>
<!-- Node10 -->
<g id="node10" class="node">
<title>Node10</title>
<g id="a_node10"><a xlink:href="_o_m_sim_8hh.html" target="_top" xlink:title="Main simulation class for the Optical Module (OM) simulation.">
<polygon fill="white" stroke="black" points="475.5,-56.5 475.5,-75.5 542.5,-75.5 542.5,-56.5 475.5,-56.5"/>
<text text-anchor="middle" x="509" y="-63.5" font-family="Helvetica,sans-Serif" font-size="10.00">OMSim.hh</text>
</a>
</g>
</g>
<!-- Node9&#45;&gt;Node10 -->
<g id="edge9" class="edge">
<title>Node9&#45;&gt;Node10</title>
<path fill="none" stroke="midnightblue" d="M509,-101.8C509,-92.91 509,-82.78 509,-75.75"/>
<polygon fill="midnightblue" stroke="midnightblue" points="505.5,-102.08 509,-112.08 512.5,-102.08 505.5,-102.08"/>
</g>
<!-- Node9&#45;&gt;Node13 -->
<g id="edge12" class="edge">
<title>Node9&#45;&gt;Node13</title>
<path fill="none" stroke="midnightblue" d="M560.97,-110.41C611.05,-100.2 685.86,-84.96 732.21,-75.52"/>
<polygon fill="midnightblue" stroke="midnightblue" points="560.09,-107.02 550.99,-112.44 561.49,-113.88 560.09,-107.02"/>
</g>
<!-- Node11 -->
<g id="node11" class="node">
<title>Node11</title>
<g id="a_node11"><a xlink:href="_o_m_sim_8cc.html" target="_top" xlink:title=" ">
<polygon fill="white" stroke="black" points="416.5,-0.5 416.5,-19.5 481.5,-19.5 481.5,-0.5 416.5,-0.5"/>
<text text-anchor="middle" x="449" y="-7.5" font-family="Helvetica,sans-Serif" font-size="10.00">OMSim.cc</text>
</a>
</g>
</g>
<!-- Node10&#45;&gt;Node11 -->
<g id="edge10" class="edge">
<title>Node10&#45;&gt;Node11</title>
<path fill="none" stroke="midnightblue" d="M491.82,-49.54C481.12,-39.91 467.74,-27.87 458.82,-19.83"/>
<polygon fill="midnightblue" stroke="midnightblue" points="489.59,-52.24 499.36,-56.32 494.27,-47.03 489.59,-52.24"/>
</g>
<!-- Node12 -->
<g id="node12" class="node">
<title>Node12</title>
<g id="a_node12"><a xlink:href="_o_m_sim__effective__area_8cc.html" target="_top" xlink:title="Main for the calculation of effective areas.">
<polygon fill="white" stroke="black" points="500,-0.5 500,-19.5 640,-19.5 640,-0.5 500,-0.5"/>
<text text-anchor="middle" x="570" y="-7.5" font-family="Helvetica,sans-Serif" font-size="10.00">OMSim_effective_area.cc</text>
</a>
</g>
</g>
<!-- Node10&#45;&gt;Node12 -->
<g id="edge11" class="edge">
<title>Node10&#45;&gt;Node12</title>
<path fill="none" stroke="midnightblue" d="M526.47,-49.54C537.34,-39.91 550.94,-27.87 560.02,-19.83"/>
<polygon fill="midnightblue" stroke="midnightblue" points="523.97,-47.07 518.8,-56.32 528.61,-52.32 523.97,-47.07"/>
</g>
<!-- Node14&#45;&gt;Node6 -->
<g id="edge16" class="edge">
<title>Node14&#45;&gt;Node6</title>
<path fill="none" stroke="midnightblue" d="M231.73,-166.09C188.46,-155.89 124.74,-140.86 85.12,-131.52"/>
<polygon fill="midnightblue" stroke="midnightblue" points="231.18,-169.55 241.71,-168.44 232.78,-162.74 231.18,-169.55"/>
</g>
<!-- Node14&#45;&gt;Node8 -->
<g id="edge17" class="edge">
<title>Node14&#45;&gt;Node8</title>
<path fill="none" stroke="midnightblue" d="M254.19,-163.18C237.08,-153.24 214.53,-140.15 199.9,-131.65"/>
<polygon fill="midnightblue" stroke="midnightblue" points="252.65,-166.33 263.06,-168.32 256.17,-160.28 252.65,-166.33"/>
</g>
<!-- Node15&#45;&gt;Node13 -->
<g id="edge20" class="edge">
<title>Node15&#45;&gt;Node13</title>
<path fill="none" stroke="midnightblue" d="M744.91,-162.93C727.13,-150.57 707.52,-131.56 717,-112 725.03,-95.43 742.44,-83.13 755.92,-75.61"/>
<polygon fill="midnightblue" stroke="midnightblue" points="743.07,-165.91 753.36,-168.43 746.9,-160.04 743.07,-165.91"/>
</g>
<!-- Node16 -->
<g id="node16" class="node">
<title>Node16</title>
<g id="a_node16"><a xlink:href="_o_m_sim_p_d_o_m_8cc.html" target="_top" xlink:title="Implementation of the pDOM/Gen1 DOM class.">
<polygon fill="white" stroke="black" points="726.5,-112.5 726.5,-131.5 821.5,-131.5 821.5,-112.5 726.5,-112.5"/>
<text text-anchor="middle" x="774" y="-119.5" font-family="Helvetica,sans-Serif" font-size="10.00">OMSimPDOM.cc</text>
</a>
</g>
</g>
<!-- Node15&#45;&gt;Node16 -->
<g id="edge19" class="edge">
<title>Node15&#45;&gt;Node16</title>
<path fill="none" stroke="midnightblue" d="M770.75,-158.1C771.58,-149.14 772.53,-138.86 773.19,-131.75"/>
<polygon fill="midnightblue" stroke="midnightblue" points="767.26,-157.8 769.83,-168.08 774.23,-158.45 767.26,-157.8"/>
</g>
<!-- Node17&#45;&gt;Node5 -->
<g id="edge31" class="edge">
<title>Node17&#45;&gt;Node5</title>
<path fill="none" stroke="midnightblue" d="M824.58,-223.03C747.54,-212.28 626.88,-195.45 559.25,-186.01"/>
<polygon fill="midnightblue" stroke="midnightblue" points="824.29,-226.53 834.68,-224.44 825.26,-219.6 824.29,-226.53"/>
</g>
<!-- Node17&#45;&gt;Node9 -->
<g id="edge35" class="edge">
<title>Node17&#45;&gt;Node9</title>
<path fill="none" stroke="midnightblue" d="M847.39,-222.19C809.93,-213.62 756.94,-200.96 711,-188 646.47,-169.8 571.6,-144.62 533.7,-131.59"/>
<polygon fill="midnightblue" stroke="midnightblue" points="846.99,-225.69 857.52,-224.5 848.55,-218.87 846.99,-225.69"/>
</g>
<!-- Node17&#45;&gt;Node13 -->
<g id="edge36" class="edge">
<title>Node17&#45;&gt;Node13</title>
<path fill="none" stroke="midnightblue" d="M885.27,-215.73C880.2,-207.42 874.15,-197.27 869,-188 850.56,-154.82 853.99,-141.43 830,-112 817.86,-97.11 800.06,-83.85 787.81,-75.65"/>
<polygon fill="midnightblue" stroke="midnightblue" points="882.43,-217.79 890.65,-224.47 888.39,-214.12 882.43,-217.79"/>
</g>
<!-- Node17&#45;&gt;Node15 -->
<g id="edge32" class="edge">
<title>Node17&#45;&gt;Node15</title>
<path fill="none" stroke="midnightblue" d="M866.61,-220.5C842.8,-210.38 809.89,-196.39 789.03,-187.52"/>
<polygon fill="midnightblue" stroke="midnightblue" points="865.3,-223.75 875.88,-224.44 868.04,-217.31 865.3,-223.75"/>
</g>
<!-- Node18 -->
<g id="node18" class="node">
<title>Node18</title>
<g id="a_node18"><a xlink:href="_o_m_sim_d_e_g_g_8hh.html" target="_top" xlink:title=" ">
<polygon fill="white" stroke="black" points="878.5,-168.5 878.5,-187.5 973.5,-187.5 973.5,-168.5 878.5,-168.5"/>
<text text-anchor="middle" x="926" y="-175.5" font-family="Helvetica,sans-Serif" font-size="10.00">OMSimDEGG.hh</text>
</a>
</g>
</g>
<!-- Node17&#45;&gt;Node18 -->
<g id="edge22" class="edge">
<title>Node17&#45;&gt;Node18</title>
<path fill="none" stroke="midnightblue" d="M905.85,-215.27C910.97,-206.05 917.02,-195.17 921.14,-187.75"/>
<polygon fill="midnightblue" stroke="midnightblue" points="902.75,-213.64 900.95,-224.08 908.87,-217.04 902.75,-213.64"/>
</g>
<!-- Node20 -->
<g id="node20" class="node">
<title>Node20</title>
<g id="a_node20"><a xlink:href="_o_m_sim_l_o_m16_8hh.html" target="_top" xlink:title=" ">
<polygon fill="white" stroke="black" points="991.5,-168.5 991.5,-187.5 1092.5,-187.5 1092.5,-168.5 991.5,-168.5"/>
<text text-anchor="middle" x="1042" y="-175.5" font-family="Helvetica,sans-Serif" font-size="10.00">OMSimLOM16.hh</text>
</a>
</g>
</g>
<!-- Node17&#45;&gt;Node20 -->
<g id="edge25" class="edge">
<title>Node17&#45;&gt;Node20</title>
<path fill="none" stroke="midnightblue" d="M928.7,-220.91C956.15,-210.75 994.67,-196.51 1018.97,-187.52"/>
<polygon fill="midnightblue" stroke="midnightblue" points="927.3,-217.69 919.13,-224.44 929.73,-224.26 927.3,-217.69"/>
</g>
<!-- Node22 -->
<g id="node22" class="node">
<title>Node22</title>
<g id="a_node22"><a xlink:href="_o_m_sim_l_o_m18_8hh.html" target="_top" xlink:title=" ">
<polygon fill="white" stroke="black" points="1110.5,-168.5 1110.5,-187.5 1211.5,-187.5 1211.5,-168.5 1110.5,-168.5"/>
<text text-anchor="middle" x="1161" y="-175.5" font-family="Helvetica,sans-Serif" font-size="10.00">OMSimLOM18.hh</text>
</a>
</g>
</g>
<!-- Node17&#45;&gt;Node22 -->
<g id="edge28" class="edge">
<title>Node17&#45;&gt;Node22</title>
<path fill="none" stroke="midnightblue" d="M947.97,-222.41C998.05,-212.2 1072.86,-196.96 1119.21,-187.52"/>
<polygon fill="midnightblue" stroke="midnightblue" points="947.09,-219.02 937.99,-224.44 948.49,-225.88 947.09,-219.02"/>
</g>
<!-- Node17&#45;&gt;Node24 -->
<g id="edge33" class="edge">
<title>Node17&#45;&gt;Node24</title>
<path fill="none" stroke="midnightblue" d="M980.87,-225.67C1078.61,-217.11 1243.98,-202.31 1386,-188 1388.85,-187.71 1391.75,-187.42 1394.69,-187.11"/>
<polygon fill="midnightblue" stroke="midnightblue" points="980.41,-222.19 970.75,-226.55 981.02,-229.17 980.41,-222.19"/>
</g>
<!-- Node25 -->
<g id="node25" class="node">
<title>Node25</title>
<g id="a_node25"><a xlink:href="_o_m_sim_p_m_t_construction_8cc.html" target="_top" xlink:title="Construction of the PMTs.">
<polygon fill="white" stroke="black" points="1229.5,-168.5 1229.5,-187.5 1376.5,-187.5 1376.5,-168.5 1229.5,-168.5"/>
<text text-anchor="middle" x="1303" y="-175.5" font-family="Helvetica,sans-Serif" font-size="10.00">OMSimPMTConstruction.cc</text>
</a>
</g>
</g>
<!-- Node17&#45;&gt;Node25 -->
<g id="edge34" class="edge">
<title>Node17&#45;&gt;Node25</title>
<path fill="none" stroke="midnightblue" d="M970.58,-223.1C1047.44,-212.91 1166,-197.18 1238.81,-187.52"/>
<polygon fill="midnightblue" stroke="midnightblue" points="969.94,-219.66 960.49,-224.44 970.86,-226.6 969.94,-219.66"/>
</g>
<!-- Node18&#45;&gt;Node13 -->
<g id="edge24" class="edge">
<title>Node18&#45;&gt;Node13</title>
<path fill="none" stroke="midnightblue" d="M912.76,-160.15C901.04,-146.02 882.9,-125.97 864,-112 842.78,-96.32 815.28,-83.49 796.29,-75.59"/>
<polygon fill="midnightblue" stroke="midnightblue" points="910.16,-162.5 919.18,-168.07 915.6,-158.1 910.16,-162.5"/>
</g>
<!-- Node19 -->
<g id="node19" class="node">
<title>Node19</title>
<g id="a_node19"><a xlink:href="_o_m_sim_d_e_g_g_8cc.html" target="_top" xlink:title="Construction of the DEGG class.">
<polygon fill="white" stroke="black" points="916,-112.5 916,-131.5 1010,-131.5 1010,-112.5 916,-112.5"/>
<text text-anchor="middle" x="963" y="-119.5" font-family="Helvetica,sans-Serif" font-size="10.00">OMSimDEGG.cc</text>
</a>
</g>
</g>
<!-- Node18&#45;&gt;Node19 -->
<g id="edge23" class="edge">
<title>Node18&#45;&gt;Node19</title>
<path fill="none" stroke="midnightblue" d="M937.95,-159.57C944.31,-150.27 951.87,-139.25 957,-131.75"/>
<polygon fill="midnightblue" stroke="midnightblue" points="934.87,-157.86 932.11,-168.08 940.65,-161.81 934.87,-157.86"/>
</g>
<!-- Node20&#45;&gt;Node13 -->
<g id="edge27" class="edge">
<title>Node20&#45;&gt;Node13</title>
<path fill="none" stroke="midnightblue" d="M1040.38,-158.26C1038.08,-143.48 1032.5,-123.51 1019,-112 995.14,-91.65 919.71,-79.92 858.78,-73.57"/>
<polygon fill="midnightblue" stroke="midnightblue" points="1036.92,-158.8 1041.58,-168.32 1043.87,-157.97 1036.92,-158.8"/>
</g>
<!-- Node21 -->
<g id="node21" class="node">
<title>Node21</title>
<g id="a_node21"><a xlink:href="_o_m_sim_l_o_m16_8cc.html" target="_top" xlink:title="Construction of LOM16.">
<polygon fill="white" stroke="black" points="1066.5,-112.5 1066.5,-131.5 1165.5,-131.5 1165.5,-112.5 1066.5,-112.5"/>
<text text-anchor="middle" x="1116" y="-119.5" font-family="Helvetica,sans-Serif" font-size="10.00">OMSimLOM16.cc</text>
</a>
</g>
</g>
<!-- Node20&#45;&gt;Node21 -->
<g id="edge26" class="edge">
<title>Node20&#45;&gt;Node21</title>
<path fill="none" stroke="midnightblue" d="M1062.03,-162.38C1075.41,-152.62 1092.56,-140.11 1103.89,-131.83"/>
<polygon fill="midnightblue" stroke="midnightblue" points="1059.9,-159.6 1053.89,-168.32 1064.03,-165.26 1059.9,-159.6"/>
</g>
<!-- Node22&#45;&gt;Node13 -->
<g id="edge30" class="edge">
<title>Node22&#45;&gt;Node13</title>
<path fill="none" stroke="midnightblue" d="M1171.83,-159.27C1179.11,-144.84 1185.47,-124.83 1174,-112 1153.39,-88.94 970.06,-76.26 858.88,-70.62"/>
<polygon fill="midnightblue" stroke="midnightblue" points="1168.66,-157.77 1166.86,-168.21 1174.78,-161.18 1168.66,-157.77"/>
</g>
<!-- Node23 -->
<g id="node23" class="node">
<title>Node23</title>
<g id="a_node23"><a xlink:href="_o_m_sim_l_o_m18_8cc.html" target="_top" xlink:title="Construction of LOM18.">
<polygon fill="white" stroke="black" points="1222.5,-112.5 1222.5,-131.5 1321.5,-131.5 1321.5,-112.5 1222.5,-112.5"/>
<text text-anchor="middle" x="1272" y="-119.5" font-family="Helvetica,sans-Serif" font-size="10.00">OMSimLOM18.cc</text>
</a>
</g>
</g>
<!-- Node22&#45;&gt;Node23 -->
<g id="edge29" class="edge">
<title>Node22&#45;&gt;Node23</title>
<path fill="none" stroke="midnightblue" d="M1188.01,-163.86C1208.59,-153.85 1236.34,-140.35 1254.21,-131.65"/>
<polygon fill="midnightblue" stroke="midnightblue" points="1186.3,-160.8 1178.83,-168.32 1189.36,-167.1 1186.3,-160.8"/>
</g>
</g>
</svg>
