<?xml version="1.0" encoding="UTF-8" standalone="no"?>
<!DOCTYPE svg PUBLIC "-//W3C//DTD SVG 1.1//EN"
 "http://www.w3.org/Graphics/SVG/1.1/DTD/svg11.dtd">
<!-- Generated by graphviz version 2.43.0 (0)
 -->
<!-- Title: abcDetectorComponent.cc Pages: 1 -->
<svg width="848pt" height="263pt"
 viewBox="0.00 0.00 847.50 263.00" xmlns="http://www.w3.org/2000/svg" xmlns:xlink="http://www.w3.org/1999/xlink">
<g id="graph0" class="graph" transform="scale(1 1) rotate(0) translate(4 259)">
<title>abcDetectorComponent.cc</title>
<polygon fill="white" stroke="transparent" points="-4,4 -4,-259 843.5,-259 843.5,4 -4,4"/>
<!-- Node1 -->
<g id="node1" class="node">
<title>Node1</title>
<g id="a_node1"><a xlink:title="Contains the implementation of the abcDetectorComponent class.">
<polygon fill="#bfbfbf" stroke="black" points="333.5,-235.5 333.5,-254.5 479.5,-254.5 479.5,-235.5 333.5,-235.5"/>
<text text-anchor="middle" x="406.5" y="-242.5" font-family="Helvetica,sans-Serif" font-size="10.00">abcDetectorComponent.cc</text>
</a>
</g>
</g>
<!-- Node2 -->
<g id="node2" class="node">
<title>Node2</title>
<g id="a_node2"><a xlink:href="abc_detector_component_8hh.html" target="_top" xlink:title=" ">
<polygon fill="white" stroke="black" points="231,-123.5 231,-142.5 378,-142.5 378,-123.5 231,-123.5"/>
<text text-anchor="middle" x="304.5" y="-130.5" font-family="Helvetica,sans-Serif" font-size="10.00">abcDetectorComponent.hh</text>
</a>
</g>
</g>
<!-- Node1&#45;&gt;Node2 -->
<g id="edge1" class="edge">
<title>Node1&#45;&gt;Node2</title>
<path fill="none" stroke="midnightblue" d="M398.5,-235.37C381.44,-216.97 341.29,-173.67 319.38,-150.05"/>
<polygon fill="midnightblue" stroke="midnightblue" points="321.83,-147.54 312.47,-142.59 316.7,-152.3 321.83,-147.54"/>
</g>
<!-- Node6 -->
<g id="node6" class="node">
<title>Node6</title>
<g id="a_node6"><a xlink:title=" ">
<polygon fill="white" stroke="#bfbfbf" points="0,-6 0,-25 119,-25 119,-6 0,-6"/>
<text text-anchor="middle" x="59.5" y="-13" font-family="Helvetica,sans-Serif" font-size="10.00">G4SystemOfUnits.hh</text>
</a>
</g>
</g>
<!-- Node1&#45;&gt;Node6 -->
<g id="edge19" class="edge">
<title>Node1&#45;&gt;Node6</title>
<path fill="none" stroke="midnightblue" d="M333.48,-235.9C247.74,-222.01 109.4,-184.89 47.5,-87 37.47,-71.14 43.47,-49.44 50.06,-34.32"/>
<polygon fill="midnightblue" stroke="midnightblue" points="53.34,-35.58 54.53,-25.05 47.03,-32.54 53.34,-35.58"/>
</g>
<!-- Node7 -->
<g id="node7" class="node">
<title>Node7</title>
<g id="a_node7"><a xlink:title=" ">
<polygon fill="white" stroke="#bfbfbf" points="57,-67.5 57,-86.5 164,-86.5 164,-67.5 57,-67.5"/>
<text text-anchor="middle" x="110.5" y="-74.5" font-family="Helvetica,sans-Serif" font-size="10.00">G4Transform3D.hh</text>
</a>
</g>
</g>
<!-- Node1&#45;&gt;Node7 -->
<g id="edge20" class="edge">
<title>Node1&#45;&gt;Node7</title>
<path fill="none" stroke="midnightblue" d="M390.08,-235.25C357.67,-217.93 283.29,-177.95 221.5,-143 190.89,-125.68 155.93,-105.07 133.56,-91.77"/>
<polygon fill="midnightblue" stroke="midnightblue" points="135.17,-88.66 124.79,-86.55 131.59,-94.68 135.17,-88.66"/>
</g>
<!-- Node10 -->
<g id="node10" class="node">
<title>Node10</title>
<g id="a_node10"><a xlink:title=" ">
<polygon fill="white" stroke="#bfbfbf" points="585.5,-67.5 585.5,-86.5 695.5,-86.5 695.5,-67.5 585.5,-67.5"/>
<text text-anchor="middle" x="640.5" y="-74.5" font-family="Helvetica,sans-Serif" font-size="10.00">G4PVPlacement.hh</text>
</a>
</g>
</g>
<!-- Node1&#45;&gt;Node10 -->
<g id="edge18" class="edge">
<title>Node1&#45;&gt;Node10</title>
<path fill="none" stroke="midnightblue" d="M404.89,-235.27C401.35,-213.18 395.47,-154.59 425.5,-123 435.92,-112.04 515.92,-97.39 575.31,-87.83"/>
<polygon fill="midnightblue" stroke="midnightblue" points="576.07,-91.25 585.39,-86.22 574.97,-84.34 576.07,-91.25"/>
</g>
<!-- Node11 -->
<g id="node11" class="node">
<title>Node11</title>
<g id="a_node11"><a xlink:href="_o_m_sim_p_m_t_construction_8hh.html" target="_top" xlink:title=" ">
<polygon fill="white" stroke="black" points="434,-179.5 434,-198.5 583,-198.5 583,-179.5 434,-179.5"/>
<text text-anchor="middle" x="508.5" y="-186.5" font-family="Helvetica,sans-Serif" font-size="10.00">OMSimPMTConstruction.hh</text>
</a>
</g>
</g>
<!-- Node1&#45;&gt;Node11 -->
<g id="edge10" class="edge">
<title>Node1&#45;&gt;Node11</title>
<path fill="none" stroke="midnightblue" d="M422.89,-235.32C439.17,-226.7 464.37,-213.36 483.22,-203.39"/>
<polygon fill="midnightblue" stroke="midnightblue" points="484.95,-206.43 492.15,-198.65 481.68,-200.24 484.95,-206.43"/>
</g>
<!-- Node14 -->
<g id="node14" class="node">
<title>Node14</title>
<g id="a_node14"><a xlink:href="_o_m_sim_logger_8hh.html" target="_top" xlink:title=" ">
<polygon fill="white" stroke="black" points="606,-179.5 606,-198.5 705,-198.5 705,-179.5 606,-179.5"/>
<text text-anchor="middle" x="655.5" y="-186.5" font-family="Helvetica,sans-Serif" font-size="10.00">OMSimLogger.hh</text>
</a>
</g>
</g>
<!-- Node1&#45;&gt;Node14 -->
<g id="edge14" class="edge">
<title>Node1&#45;&gt;Node14</title>
<path fill="none" stroke="midnightblue" d="M445.95,-235.44C489.39,-226.02 559.29,-210.87 606.28,-200.68"/>
<polygon fill="midnightblue" stroke="midnightblue" points="607.2,-204.06 616.23,-198.52 605.72,-197.22 607.2,-204.06"/>
</g>
<!-- Node17 -->
<g id="node17" class="node">
<title>Node17</title>
<g id="a_node17"><a xlink:title=" ">
<polygon fill="white" stroke="#bfbfbf" points="723.5,-179.5 723.5,-198.5 839.5,-198.5 839.5,-179.5 723.5,-179.5"/>
<text text-anchor="middle" x="781.5" y="-186.5" font-family="Helvetica,sans-Serif" font-size="10.00">G4LogicalVolume.hh</text>
</a>
</g>
</g>
<!-- Node1&#45;&gt;Node17 -->
<g id="edge17" class="edge">
<title>Node1&#45;&gt;Node17</title>
<path fill="none" stroke="midnightblue" d="M465.92,-235.44C533.14,-225.76 642.44,-210.03 713.14,-199.84"/>
<polygon fill="midnightblue" stroke="midnightblue" points="713.88,-203.27 723.28,-198.38 712.89,-196.34 713.88,-203.27"/>
</g>
<!-- Node3 -->
<g id="node3" class="node">
<title>Node3</title>
<g id="a_node3"><a xlink:href="_o_m_sim_input_data_8hh.html" target="_top" xlink:title=" ">
<polygon fill="white" stroke="black" points="182,-67.5 182,-86.5 297,-86.5 297,-67.5 182,-67.5"/>
<text text-anchor="middle" x="239.5" y="-74.5" font-family="Helvetica,sans-Serif" font-size="10.00">OMSimInputData.hh</text>
</a>
</g>
</g>
<!-- Node2&#45;&gt;Node3 -->
<g id="edge2" class="edge">
<title>Node2&#45;&gt;Node3</title>
<path fill="none" stroke="midnightblue" d="M294.06,-123.32C284.35,-115.26 269.68,-103.08 258,-93.37"/>
<polygon fill="midnightblue" stroke="midnightblue" points="260.06,-90.53 250.13,-86.83 255.59,-95.92 260.06,-90.53"/>
</g>
<!-- Node2&#45;&gt;Node7 -->
<g id="edge6" class="edge">
<title>Node2&#45;&gt;Node7</title>
<path fill="none" stroke="midnightblue" d="M273.76,-123.44C240.56,-114.2 187.51,-99.44 150.94,-89.26"/>
<polygon fill="midnightblue" stroke="midnightblue" points="151.67,-85.83 141.1,-86.52 149.79,-92.57 151.67,-85.83"/>
</g>
<!-- Node8 -->
<g id="node8" class="node">
<title>Node8</title>
<g id="a_node8"><a xlink:title=" ">
<polygon fill="white" stroke="#bfbfbf" points="315.5,-67.5 315.5,-86.5 423.5,-86.5 423.5,-67.5 315.5,-67.5"/>
<text text-anchor="middle" x="369.5" y="-74.5" font-family="Helvetica,sans-Serif" font-size="10.00">G4VisAttributes.hh</text>
</a>
</g>
</g>
<!-- Node2&#45;&gt;Node8 -->
<g id="edge7" class="edge">
<title>Node2&#45;&gt;Node8</title>
<path fill="none" stroke="midnightblue" d="M314.94,-123.32C324.65,-115.26 339.32,-103.08 351,-93.37"/>
<polygon fill="midnightblue" stroke="midnightblue" points="353.41,-95.92 358.87,-86.83 348.94,-90.53 353.41,-95.92"/>
</g>
<!-- Node9 -->
<g id="node9" class="node">
<title>Node9</title>
<g id="a_node9"><a xlink:title=" ">
<polygon fill="white" stroke="#bfbfbf" points="442,-67.5 442,-86.5 567,-86.5 567,-67.5 442,-67.5"/>
<text text-anchor="middle" x="504.5" y="-74.5" font-family="Helvetica,sans-Serif" font-size="10.00">G4SubtractionSolid.hh</text>
</a>
</g>
</g>
<!-- Node2&#45;&gt;Node9 -->
<g id="edge8" class="edge">
<title>Node2&#45;&gt;Node9</title>
<path fill="none" stroke="midnightblue" d="M336.19,-123.44C370.57,-114.16 425.58,-99.31 463.29,-89.13"/>
<polygon fill="midnightblue" stroke="midnightblue" points="464.22,-92.5 472.96,-86.52 462.39,-85.74 464.22,-92.5"/>
</g>
<!-- Node2&#45;&gt;Node10 -->
<g id="edge9" class="edge">
<title>Node2&#45;&gt;Node10</title>
<path fill="none" stroke="midnightblue" d="M357.74,-123.44C417.46,-113.85 514.24,-98.29 577.63,-88.1"/>
<polygon fill="midnightblue" stroke="midnightblue" points="578.19,-91.56 587.51,-86.52 577.08,-84.65 578.19,-91.56"/>
</g>
<!-- Node4 -->
<g id="node4" class="node">
<title>Node4</title>
<g id="a_node4"><a xlink:title=" ">
<polygon fill="white" stroke="#bfbfbf" points="313,-0.5 313,-30.5 426,-30.5 426,-0.5 313,-0.5"/>
<text text-anchor="start" x="321" y="-18.5" font-family="Helvetica,sans-Serif" font-size="10.00">boost/property_tree</text>
<text text-anchor="middle" x="369.5" y="-7.5" font-family="Helvetica,sans-Serif" font-size="10.00">/json_parser.hpp</text>
</a>
</g>
</g>
<!-- Node3&#45;&gt;Node4 -->
<g id="edge3" class="edge">
<title>Node3&#45;&gt;Node4</title>
<path fill="none" stroke="midnightblue" d="M258.13,-67.48C276.72,-58.96 305.88,-45.62 329.7,-34.72"/>
<polygon fill="midnightblue" stroke="midnightblue" points="331.23,-37.87 338.86,-30.52 328.31,-31.5 331.23,-37.87"/>
</g>
<!-- Node5 -->
<g id="node5" class="node">
<title>Node5</title>
<g id="a_node5"><a xlink:title=" ">
<polygon fill="white" stroke="#bfbfbf" points="152,-6 152,-25 295,-25 295,-6 152,-6"/>
<text text-anchor="middle" x="223.5" y="-13" font-family="Helvetica,sans-Serif" font-size="10.00">G4OpBoundaryProcess.hh</text>
</a>
</g>
</g>
<!-- Node3&#45;&gt;Node5 -->
<g id="edge4" class="edge">
<title>Node3&#45;&gt;Node5</title>
<path fill="none" stroke="midnightblue" d="M237.21,-67.48C234.93,-58.99 231.35,-45.7 228.43,-34.82"/>
<polygon fill="midnightblue" stroke="midnightblue" points="231.76,-33.76 225.79,-25.01 225.01,-35.57 231.76,-33.76"/>
</g>
<!-- Node3&#45;&gt;Node6 -->
<g id="edge5" class="edge">
<title>Node3&#45;&gt;Node6</title>
<path fill="none" stroke="midnightblue" d="M213.71,-67.48C182.57,-57.18 130.02,-39.81 95.05,-28.25"/>
<polygon fill="midnightblue" stroke="midnightblue" points="95.84,-24.82 85.24,-25.01 93.64,-31.47 95.84,-24.82"/>
</g>
<!-- Node11&#45;&gt;Node2 -->
<g id="edge11" class="edge">
<title>Node11&#45;&gt;Node2</title>
<path fill="none" stroke="midnightblue" d="M476.18,-179.44C441.11,-170.16 385,-155.31 346.54,-145.13"/>
<polygon fill="midnightblue" stroke="midnightblue" points="347.24,-141.69 336.67,-142.52 345.44,-148.46 347.24,-141.69"/>
</g>
<!-- Node12 -->
<g id="node12" class="node">
<title>Node12</title>
<g id="a_node12"><a xlink:title=" ">
<polygon fill="white" stroke="#bfbfbf" points="434.5,-123.5 434.5,-142.5 532.5,-142.5 532.5,-123.5 434.5,-123.5"/>
<text text-anchor="middle" x="483.5" y="-130.5" font-family="Helvetica,sans-Serif" font-size="10.00">G4UnionSolid.hh</text>
</a>
</g>
</g>
<!-- Node11&#45;&gt;Node12 -->
<g id="edge12" class="edge">
<title>Node11&#45;&gt;Node12</title>
<path fill="none" stroke="midnightblue" d="M504.37,-179.08C500.99,-171.77 496.08,-161.18 491.88,-152.1"/>
<polygon fill="midnightblue" stroke="midnightblue" points="494.93,-150.36 487.55,-142.75 488.58,-153.3 494.93,-150.36"/>
</g>
<!-- Node13 -->
<g id="node13" class="node">
<title>Node13</title>
<g id="a_node13"><a xlink:title=" ">
<polygon fill="white" stroke="#bfbfbf" points="551,-123.5 551,-142.5 618,-142.5 618,-123.5 551,-123.5"/>
<text text-anchor="middle" x="584.5" y="-130.5" font-family="Helvetica,sans-Serif" font-size="10.00">G4Tubs.hh</text>
</a>
</g>
</g>
<!-- Node11&#45;&gt;Node13 -->
<g id="edge13" class="edge">
<title>Node11&#45;&gt;Node13</title>
<path fill="none" stroke="midnightblue" d="M520.71,-179.32C532.28,-171.11 549.88,-158.6 563.66,-148.81"/>
<polygon fill="midnightblue" stroke="midnightblue" points="565.94,-151.48 572.07,-142.83 561.89,-145.77 565.94,-151.48"/>
</g>
<!-- Node15 -->
<g id="node15" class="node">
<title>Node15</title>
<g id="a_node15"><a xlink:title=" ">
<polygon fill="white" stroke="#bfbfbf" points="636.5,-123.5 636.5,-142.5 686.5,-142.5 686.5,-123.5 636.5,-123.5"/>
<text text-anchor="middle" x="661.5" y="-130.5" font-family="Helvetica,sans-Serif" font-size="10.00">stdio.h</text>
</a>
</g>
</g>
<!-- Node14&#45;&gt;Node15 -->
<g id="edge15" class="edge">
<title>Node14&#45;&gt;Node15</title>
<path fill="none" stroke="midnightblue" d="M656.49,-179.08C657.29,-171.93 658.43,-161.64 659.42,-152.69"/>
<polygon fill="midnightblue" stroke="midnightblue" points="662.9,-153.08 660.53,-142.75 655.94,-152.3 662.9,-153.08"/>
</g>
<!-- Node16 -->
<g id="node16" class="node">
<title>Node16</title>
<g id="a_node16"><a xlink:title=" ">
<polygon fill="white" stroke="#bfbfbf" points="704.5,-123.5 704.5,-142.5 752.5,-142.5 752.5,-123.5 704.5,-123.5"/>
<text text-anchor="middle" x="728.5" y="-130.5" font-family="Helvetica,sans-Serif" font-size="10.00">time.h</text>
</a>
</g>
</g>
<!-- Node14&#45;&gt;Node16 -->
<g id="edge16" class="edge">
<title>Node14&#45;&gt;Node16</title>
<path fill="none" stroke="midnightblue" d="M667.23,-179.32C678.34,-171.11 695.24,-158.6 708.48,-148.81"/>
<polygon fill="midnightblue" stroke="midnightblue" points="710.6,-151.59 716.56,-142.83 706.44,-145.97 710.6,-151.59"/>
</g>
</g>
</svg>
