<?xml version="1.0" encoding="UTF-8" standalone="no"?>
<!DOCTYPE svg PUBLIC "-//W3C//DTD SVG 1.1//EN"
 "http://www.w3.org/Graphics/SVG/1.1/DTD/svg11.dtd">
<!-- Generated by graphviz version 2.43.0 (0)
 -->
<!-- Title: abcDetectorComponent.cc Pages: 1 -->
<svg width="841pt" height="263pt"
 viewBox="0.00 0.00 840.50 263.00" xmlns="http://www.w3.org/2000/svg" xmlns:xlink="http://www.w3.org/1999/xlink">
<g id="graph0" class="graph" transform="scale(1 1) rotate(0) translate(4 259)">
<title>abcDetectorComponent.cc</title>
<polygon fill="white" stroke="transparent" points="-4,4 -4,-259 836.5,-259 836.5,4 -4,4"/>
<!-- Node1 -->
<g id="node1" class="node">
<title>Node1</title>
<g id="a_node1"><a xlink:title=" ">
<polygon fill="#bfbfbf" stroke="black" points="326.5,-235.5 326.5,-254.5 472.5,-254.5 472.5,-235.5 326.5,-235.5"/>
<text text-anchor="middle" x="399.5" y="-242.5" font-family="Helvetica,sans-Serif" font-size="10.00">abcDetectorComponent.cc</text>
</a>
</g>
</g>
<!-- Node2 -->
<g id="node2" class="node">
<title>Node2</title>
<g id="a_node2"><a xlink:href="abc_detector_component_8hh.html" target="_top" xlink:title="Provides helper base class abcDetectorComponent for constructing and managing detector components in ...">
<polygon fill="white" stroke="black" points="224,-123.5 224,-142.5 371,-142.5 371,-123.5 224,-123.5"/>
<text text-anchor="middle" x="297.5" y="-130.5" font-family="Helvetica,sans-Serif" font-size="10.00">abcDetectorComponent.hh</text>
</a>
</g>
</g>
<!-- Node1&#45;&gt;Node2 -->
<g id="edge1" class="edge">
<title>Node1&#45;&gt;Node2</title>
<path fill="none" stroke="midnightblue" d="M391.5,-235.37C374.44,-216.97 334.29,-173.67 312.38,-150.05"/>
<polygon fill="midnightblue" stroke="midnightblue" points="314.83,-147.54 305.47,-142.59 309.7,-152.3 314.83,-147.54"/>
</g>
<!-- Node5 -->
<g id="node5" class="node">
<title>Node5</title>
<g id="a_node5"><a xlink:title=" ">
<polygon fill="white" stroke="#bfbfbf" points="0,-6 0,-25 119,-25 119,-6 0,-6"/>
<text text-anchor="middle" x="59.5" y="-13" font-family="Helvetica,sans-Serif" font-size="10.00">G4SystemOfUnits.hh</text>
</a>
</g>
</g>
<!-- Node1&#45;&gt;Node5 -->
<g id="edge19" class="edge">
<title>Node1&#45;&gt;Node5</title>
<path fill="none" stroke="midnightblue" d="M326.48,-235.9C240.74,-222.01 102.4,-184.89 40.5,-87 30.27,-70.83 38.71,-49.22 47.36,-34.21"/>
<polygon fill="midnightblue" stroke="midnightblue" points="50.53,-35.75 52.88,-25.41 44.6,-32.02 50.53,-35.75"/>
</g>
<!-- Node7 -->
<g id="node7" class="node">
<title>Node7</title>
<g id="a_node7"><a xlink:title=" ">
<polygon fill="white" stroke="#bfbfbf" points="50,-67.5 50,-86.5 157,-86.5 157,-67.5 50,-67.5"/>
<text text-anchor="middle" x="103.5" y="-74.5" font-family="Helvetica,sans-Serif" font-size="10.00">G4Transform3D.hh</text>
</a>
</g>
</g>
<!-- Node1&#45;&gt;Node7 -->
<g id="edge20" class="edge">
<title>Node1&#45;&gt;Node7</title>
<path fill="none" stroke="midnightblue" d="M383.08,-235.25C350.67,-217.93 276.29,-177.95 214.5,-143 183.89,-125.68 148.93,-105.07 126.56,-91.77"/>
<polygon fill="midnightblue" stroke="midnightblue" points="128.17,-88.66 117.79,-86.55 124.59,-94.68 128.17,-88.66"/>
</g>
<!-- Node10 -->
<g id="node10" class="node">
<title>Node10</title>
<g id="a_node10"><a xlink:title=" ">
<polygon fill="white" stroke="#bfbfbf" points="578.5,-67.5 578.5,-86.5 688.5,-86.5 688.5,-67.5 578.5,-67.5"/>
<text text-anchor="middle" x="633.5" y="-74.5" font-family="Helvetica,sans-Serif" font-size="10.00">G4PVPlacement.hh</text>
</a>
</g>
</g>
<!-- Node1&#45;&gt;Node10 -->
<g id="edge18" class="edge">
<title>Node1&#45;&gt;Node10</title>
<path fill="none" stroke="midnightblue" d="M397.89,-235.27C394.35,-213.18 388.47,-154.59 418.5,-123 428.92,-112.04 508.92,-97.39 568.31,-87.83"/>
<polygon fill="midnightblue" stroke="midnightblue" points="569.07,-91.25 578.39,-86.22 567.97,-84.34 569.07,-91.25"/>
</g>
<!-- Node11 -->
<g id="node11" class="node">
<title>Node11</title>
<g id="a_node11"><a xlink:href="_o_m_sim_p_m_t_construction_8hh.html" target="_top" xlink:title="Construction of the PMTs.">
<polygon fill="white" stroke="black" points="427,-179.5 427,-198.5 576,-198.5 576,-179.5 427,-179.5"/>
<text text-anchor="middle" x="501.5" y="-186.5" font-family="Helvetica,sans-Serif" font-size="10.00">OMSimPMTConstruction.hh</text>
</a>
</g>
</g>
<!-- Node1&#45;&gt;Node11 -->
<g id="edge10" class="edge">
<title>Node1&#45;&gt;Node11</title>
<path fill="none" stroke="midnightblue" d="M415.89,-235.32C432.17,-226.7 457.37,-213.36 476.22,-203.39"/>
<polygon fill="midnightblue" stroke="midnightblue" points="477.95,-206.43 485.15,-198.65 474.68,-200.24 477.95,-206.43"/>
</g>
<!-- Node14 -->
<g id="node14" class="node">
<title>Node14</title>
<g id="a_node14"><a xlink:href="_o_m_sim_logger_8hh.html" target="_top" xlink:title=" ">
<polygon fill="white" stroke="black" points="599,-179.5 599,-198.5 698,-198.5 698,-179.5 599,-179.5"/>
<text text-anchor="middle" x="648.5" y="-186.5" font-family="Helvetica,sans-Serif" font-size="10.00">OMSimLogger.hh</text>
</a>
</g>
</g>
<!-- Node1&#45;&gt;Node14 -->
<g id="edge14" class="edge">
<title>Node1&#45;&gt;Node14</title>
<path fill="none" stroke="midnightblue" d="M438.95,-235.44C482.39,-226.02 552.29,-210.87 599.28,-200.68"/>
<polygon fill="midnightblue" stroke="midnightblue" points="600.2,-204.06 609.23,-198.52 598.72,-197.22 600.2,-204.06"/>
</g>
<!-- Node17 -->
<g id="node17" class="node">
<title>Node17</title>
<g id="a_node17"><a xlink:title=" ">
<polygon fill="white" stroke="#bfbfbf" points="716.5,-179.5 716.5,-198.5 832.5,-198.5 832.5,-179.5 716.5,-179.5"/>
<text text-anchor="middle" x="774.5" y="-186.5" font-family="Helvetica,sans-Serif" font-size="10.00">G4LogicalVolume.hh</text>
</a>
</g>
</g>
<!-- Node1&#45;&gt;Node17 -->
<g id="edge17" class="edge">
<title>Node1&#45;&gt;Node17</title>
<path fill="none" stroke="midnightblue" d="M458.92,-235.44C526.14,-225.76 635.44,-210.03 706.14,-199.84"/>
<polygon fill="midnightblue" stroke="midnightblue" points="706.88,-203.27 716.28,-198.38 705.89,-196.34 706.88,-203.27"/>
</g>
<!-- Node3 -->
<g id="node3" class="node">
<title>Node3</title>
<g id="a_node3"><a xlink:href="_o_m_sim_input_data_8hh.html" target="_top" xlink:title="Definition of ParameterTable and InputDataManager.">
<polygon fill="white" stroke="black" points="175,-67.5 175,-86.5 290,-86.5 290,-67.5 175,-67.5"/>
<text text-anchor="middle" x="232.5" y="-74.5" font-family="Helvetica,sans-Serif" font-size="10.00">OMSimInputData.hh</text>
</a>
</g>
</g>
<!-- Node2&#45;&gt;Node3 -->
<g id="edge2" class="edge">
<title>Node2&#45;&gt;Node3</title>
<path fill="none" stroke="midnightblue" d="M287.06,-123.32C277.35,-115.26 262.68,-103.08 251,-93.37"/>
<polygon fill="midnightblue" stroke="midnightblue" points="253.06,-90.53 243.13,-86.83 248.59,-95.92 253.06,-90.53"/>
</g>
<!-- Node2&#45;&gt;Node7 -->
<g id="edge6" class="edge">
<title>Node2&#45;&gt;Node7</title>
<path fill="none" stroke="midnightblue" d="M266.76,-123.44C233.56,-114.2 180.51,-99.44 143.94,-89.26"/>
<polygon fill="midnightblue" stroke="midnightblue" points="144.67,-85.83 134.1,-86.52 142.79,-92.57 144.67,-85.83"/>
</g>
<!-- Node8 -->
<g id="node8" class="node">
<title>Node8</title>
<g id="a_node8"><a xlink:title=" ">
<polygon fill="white" stroke="#bfbfbf" points="308.5,-67.5 308.5,-86.5 416.5,-86.5 416.5,-67.5 308.5,-67.5"/>
<text text-anchor="middle" x="362.5" y="-74.5" font-family="Helvetica,sans-Serif" font-size="10.00">G4VisAttributes.hh</text>
</a>
</g>
</g>
<!-- Node2&#45;&gt;Node8 -->
<g id="edge7" class="edge">
<title>Node2&#45;&gt;Node8</title>
<path fill="none" stroke="midnightblue" d="M307.94,-123.32C317.65,-115.26 332.32,-103.08 344,-93.37"/>
<polygon fill="midnightblue" stroke="midnightblue" points="346.41,-95.92 351.87,-86.83 341.94,-90.53 346.41,-95.92"/>
</g>
<!-- Node9 -->
<g id="node9" class="node">
<title>Node9</title>
<g id="a_node9"><a xlink:title=" ">
<polygon fill="white" stroke="#bfbfbf" points="435,-67.5 435,-86.5 560,-86.5 560,-67.5 435,-67.5"/>
<text text-anchor="middle" x="497.5" y="-74.5" font-family="Helvetica,sans-Serif" font-size="10.00">G4SubtractionSolid.hh</text>
</a>
</g>
</g>
<!-- Node2&#45;&gt;Node9 -->
<g id="edge8" class="edge">
<title>Node2&#45;&gt;Node9</title>
<path fill="none" stroke="midnightblue" d="M329.19,-123.44C363.57,-114.16 418.58,-99.31 456.29,-89.13"/>
<polygon fill="midnightblue" stroke="midnightblue" points="457.22,-92.5 465.96,-86.52 455.39,-85.74 457.22,-92.5"/>
</g>
<!-- Node2&#45;&gt;Node10 -->
<g id="edge9" class="edge">
<title>Node2&#45;&gt;Node10</title>
<path fill="none" stroke="midnightblue" d="M350.74,-123.44C410.46,-113.85 507.24,-98.29 570.63,-88.1"/>
<polygon fill="midnightblue" stroke="midnightblue" points="571.19,-91.56 580.51,-86.52 570.08,-84.65 571.19,-91.56"/>
</g>
<!-- Node4 -->
<g id="node4" class="node">
<title>Node4</title>
<g id="a_node4"><a xlink:title=" ">
<polygon fill="white" stroke="#bfbfbf" points="287,-6 287,-25 430,-25 430,-6 287,-6"/>
<text text-anchor="middle" x="358.5" y="-13" font-family="Helvetica,sans-Serif" font-size="10.00">G4OpBoundaryProcess.hh</text>
</a>
</g>
</g>
<!-- Node3&#45;&gt;Node4 -->
<g id="edge3" class="edge">
<title>Node3&#45;&gt;Node4</title>
<path fill="none" stroke="midnightblue" d="M250.55,-67.48C271.7,-57.49 306.94,-40.85 331.38,-29.31"/>
<polygon fill="midnightblue" stroke="midnightblue" points="332.93,-32.44 340.48,-25.01 329.94,-26.11 332.93,-32.44"/>
</g>
<!-- Node3&#45;&gt;Node5 -->
<g id="edge4" class="edge">
<title>Node3&#45;&gt;Node5</title>
<path fill="none" stroke="midnightblue" d="M207.71,-67.48C177.91,-57.22 127.71,-39.96 94.1,-28.4"/>
<polygon fill="midnightblue" stroke="midnightblue" points="94.84,-24.95 84.24,-25.01 92.56,-31.57 94.84,-24.95"/>
</g>
<!-- Node6 -->
<g id="node6" class="node">
<title>Node6</title>
<g id="a_node6"><a xlink:title=" ">
<polygon fill="white" stroke="#bfbfbf" points="156,-0.5 156,-30.5 269,-30.5 269,-0.5 156,-0.5"/>
<text text-anchor="start" x="164" y="-18.5" font-family="Helvetica,sans-Serif" font-size="10.00">boost/property_tree</text>
<text text-anchor="middle" x="212.5" y="-7.5" font-family="Helvetica,sans-Serif" font-size="10.00">/json_parser.hpp</text>
</a>
</g>
</g>
<!-- Node3&#45;&gt;Node6 -->
<g id="edge5" class="edge">
<title>Node3&#45;&gt;Node6</title>
<path fill="none" stroke="midnightblue" d="M229.63,-67.48C227.23,-60.32 223.68,-49.75 220.43,-40.08"/>
<polygon fill="midnightblue" stroke="midnightblue" points="223.72,-38.89 217.21,-30.52 217.08,-41.12 223.72,-38.89"/>
</g>
<!-- Node11&#45;&gt;Node2 -->
<g id="edge11" class="edge">
<title>Node11&#45;&gt;Node2</title>
<path fill="none" stroke="midnightblue" d="M469.18,-179.44C434.11,-170.16 378,-155.31 339.54,-145.13"/>
<polygon fill="midnightblue" stroke="midnightblue" points="340.24,-141.69 329.67,-142.52 338.44,-148.46 340.24,-141.69"/>
</g>
<!-- Node12 -->
<g id="node12" class="node">
<title>Node12</title>
<g id="a_node12"><a xlink:title=" ">
<polygon fill="white" stroke="#bfbfbf" points="427.5,-123.5 427.5,-142.5 525.5,-142.5 525.5,-123.5 427.5,-123.5"/>
<text text-anchor="middle" x="476.5" y="-130.5" font-family="Helvetica,sans-Serif" font-size="10.00">G4UnionSolid.hh</text>
</a>
</g>
</g>
<!-- Node11&#45;&gt;Node12 -->
<g id="edge12" class="edge">
<title>Node11&#45;&gt;Node12</title>
<path fill="none" stroke="midnightblue" d="M497.37,-179.08C493.99,-171.77 489.08,-161.18 484.88,-152.1"/>
<polygon fill="midnightblue" stroke="midnightblue" points="487.93,-150.36 480.55,-142.75 481.58,-153.3 487.93,-150.36"/>
</g>
<!-- Node13 -->
<g id="node13" class="node">
<title>Node13</title>
<g id="a_node13"><a xlink:title=" ">
<polygon fill="white" stroke="#bfbfbf" points="544,-123.5 544,-142.5 611,-142.5 611,-123.5 544,-123.5"/>
<text text-anchor="middle" x="577.5" y="-130.5" font-family="Helvetica,sans-Serif" font-size="10.00">G4Tubs.hh</text>
</a>
</g>
</g>
<!-- Node11&#45;&gt;Node13 -->
<g id="edge13" class="edge">
<title>Node11&#45;&gt;Node13</title>
<path fill="none" stroke="midnightblue" d="M513.71,-179.32C525.28,-171.11 542.88,-158.6 556.66,-148.81"/>
<polygon fill="midnightblue" stroke="midnightblue" points="558.94,-151.48 565.07,-142.83 554.89,-145.77 558.94,-151.48"/>
</g>
<!-- Node15 -->
<g id="node15" class="node">
<title>Node15</title>
<g id="a_node15"><a xlink:title=" ">
<polygon fill="white" stroke="#bfbfbf" points="629.5,-123.5 629.5,-142.5 679.5,-142.5 679.5,-123.5 629.5,-123.5"/>
<text text-anchor="middle" x="654.5" y="-130.5" font-family="Helvetica,sans-Serif" font-size="10.00">stdio.h</text>
</a>
</g>
</g>
<!-- Node14&#45;&gt;Node15 -->
<g id="edge15" class="edge">
<title>Node14&#45;&gt;Node15</title>
<path fill="none" stroke="midnightblue" d="M649.49,-179.08C650.29,-171.93 651.43,-161.64 652.42,-152.69"/>
<polygon fill="midnightblue" stroke="midnightblue" points="655.9,-153.08 653.53,-142.75 648.94,-152.3 655.9,-153.08"/>
</g>
<!-- Node16 -->
<g id="node16" class="node">
<title>Node16</title>
<g id="a_node16"><a xlink:title=" ">
<polygon fill="white" stroke="#bfbfbf" points="697.5,-123.5 697.5,-142.5 745.5,-142.5 745.5,-123.5 697.5,-123.5"/>
<text text-anchor="middle" x="721.5" y="-130.5" font-family="Helvetica,sans-Serif" font-size="10.00">time.h</text>
</a>
</g>
</g>
<!-- Node14&#45;&gt;Node16 -->
<g id="edge16" class="edge">
<title>Node14&#45;&gt;Node16</title>
<path fill="none" stroke="midnightblue" d="M660.23,-179.32C671.34,-171.11 688.24,-158.6 701.48,-148.81"/>
<polygon fill="midnightblue" stroke="midnightblue" points="703.6,-151.59 709.56,-142.83 699.44,-145.97 703.6,-151.59"/>
</g>
</g>
</svg>
