<?xml version="1.0" encoding="UTF-8" standalone="no"?>
<!DOCTYPE svg PUBLIC "-//W3C//DTD SVG 1.1//EN"
 "http://www.w3.org/Graphics/SVG/1.1/DTD/svg11.dtd">
<!-- Generated by graphviz version 2.43.0 (0)
 -->
<!-- Title: /home/runner/work/OMSim/OMSim/common/include/argtable2.h Pages: 1 -->
<svg width="214pt" height="106pt"
 viewBox="0.00 0.00 214.00 106.00" xmlns="http://www.w3.org/2000/svg" xmlns:xlink="http://www.w3.org/1999/xlink">
<g id="graph0" class="graph" transform="scale(1 1) rotate(0) translate(4 102)">
<title>/home/runner/work/OMSim/OMSim/common/include/argtable2.h</title>
<polygon fill="white" stroke="transparent" points="-4,4 -4,-102 210,-102 210,4 -4,4"/>
<!-- Node1 -->
<g id="node1" class="node">
<title>Node1</title>
<g id="a_node1"><a xlink:title=" ">
<polygon fill="#bfbfbf" stroke="black" points="18.5,-56.5 18.5,-97.5 165.5,-97.5 165.5,-56.5 18.5,-56.5"/>
<text text-anchor="start" x="26.5" y="-85.5" font-family="Helvetica,sans-Serif" font-size="10.00">/home/runner/work/OMSim</text>
<text text-anchor="start" x="26.5" y="-74.5" font-family="Helvetica,sans-Serif" font-size="10.00">/OMSim/common/include</text>
<text text-anchor="middle" x="92" y="-63.5" font-family="Helvetica,sans-Serif" font-size="10.00">/argtable2.h</text>
</a>
</g>
</g>
<!-- Node2 -->
<g id="node2" class="node">
<title>Node2</title>
<g id="a_node2"><a xlink:title=" ">
<polygon fill="white" stroke="#bfbfbf" points="0,-0.5 0,-19.5 50,-19.5 50,-0.5 0,-0.5"/>
<text text-anchor="middle" x="25" y="-7.5" font-family="Helvetica,sans-Serif" font-size="10.00">stdio.h</text>
</a>
</g>
</g>
<!-- Node1&#45;&gt;Node2 -->
<g id="edge1" class="edge">
<title>Node1&#45;&gt;Node2</title>
<path fill="none" stroke="midnightblue" d="M71.9,-56.5C62.12,-47.01 50.52,-35.76 41.3,-26.81"/>
<polygon fill="midnightblue" stroke="midnightblue" points="43.53,-24.1 33.92,-19.65 38.66,-29.13 43.53,-24.1"/>
</g>
<!-- Node3 -->
<g id="node3" class="node">
<title>Node3</title>
<g id="a_node3"><a xlink:title=" ">
<polygon fill="white" stroke="#bfbfbf" points="68,-0.5 68,-19.5 116,-19.5 116,-0.5 68,-0.5"/>
<text text-anchor="middle" x="92" y="-7.5" font-family="Helvetica,sans-Serif" font-size="10.00">time.h</text>
</a>
</g>
</g>
<!-- Node1&#45;&gt;Node3 -->
<g id="edge2" class="edge">
<title>Node1&#45;&gt;Node3</title>
<path fill="none" stroke="midnightblue" d="M92,-56.5C92,-48.07 92,-38.24 92,-29.87"/>
<polygon fill="midnightblue" stroke="midnightblue" points="95.5,-29.65 92,-19.65 88.5,-29.65 95.5,-29.65"/>
</g>
<!-- Node4 -->
<g id="node4" class="node">
<title>Node4</title>
<g id="a_node4"><a xlink:title=" ">
<polygon fill="white" stroke="#bfbfbf" points="134,-0.5 134,-19.5 206,-19.5 206,-0.5 134,-0.5"/>
<text text-anchor="middle" x="170" y="-7.5" font-family="Helvetica,sans-Serif" font-size="10.00">sys/types.h</text>
</a>
</g>
</g>
<!-- Node1&#45;&gt;Node4 -->
<g id="edge3" class="edge">
<title>Node1&#45;&gt;Node4</title>
<path fill="none" stroke="midnightblue" d="M115.4,-56.5C127.02,-46.82 140.84,-35.3 151.67,-26.27"/>
<polygon fill="midnightblue" stroke="midnightblue" points="154.18,-28.74 159.62,-19.65 149.69,-23.37 154.18,-28.74"/>
</g>
</g>
</svg>
