<?xml version="1.0" encoding="UTF-8" standalone="no"?>
<!DOCTYPE svg PUBLIC "-//W3C//DTD SVG 1.1//EN"
 "http://www.w3.org/Graphics/SVG/1.1/DTD/svg11.dtd">
<!-- Generated by graphviz version 2.43.0 (0)
 -->
<!-- Title: abcDataFile Pages: 1 -->
<svg width="555pt" height="140pt"
 viewBox="0.00 0.00 554.50 140.00" xmlns="http://www.w3.org/2000/svg" xmlns:xlink="http://www.w3.org/1999/xlink">
<g id="graph0" class="graph" transform="scale(1 1) rotate(0) translate(4 136)">
<title>abcDataFile</title>
<polygon fill="white" stroke="transparent" points="-4,4 -4,-136 550.5,-136 550.5,4 -4,4"/>
<!-- Node1 -->
<g id="node1" class="node">
<title>Node1</title>
<g id="a_node1"><a xlink:title="This is an abstract base class that provides an interface for handling data files in the simulation.">
<polygon fill="#bfbfbf" stroke="black" points="79,-112.5 79,-131.5 153,-131.5 153,-112.5 79,-112.5"/>
<text text-anchor="middle" x="116" y="-119.5" font-family="Helvetica,sans-Serif" font-size="10.00">abcDataFile</text>
</a>
</g>
</g>
<!-- Node2 -->
<g id="node2" class="node">
<title>Node2</title>
<g id="a_node2"><a xlink:href="class_reflective_surface.html" target="_top" xlink:title="This class is responsible for defining new reflective surfaces using data parsed from a JSON file.">
<polygon fill="white" stroke="black" points="0,-56.5 0,-75.5 102,-75.5 102,-56.5 0,-56.5"/>
<text text-anchor="middle" x="51" y="-63.5" font-family="Helvetica,sans-Serif" font-size="10.00">ReflectiveSurface</text>
</a>
</g>
</g>
<!-- Node1&#45;&gt;Node2 -->
<g id="edge1" class="edge">
<title>Node1&#45;&gt;Node2</title>
<path fill="none" stroke="midnightblue" d="M92.33,-106.38C79.44,-96.62 64.68,-84.11 56.48,-75.83"/>
<polygon fill="midnightblue" stroke="midnightblue" points="90.31,-109.24 100.44,-112.32 94.44,-103.59 90.31,-109.24"/>
</g>
<!-- Node1&#45;&gt;Node2 -->
<g id="edge2" class="edge">
<title>Node1&#45;&gt;Node2</title>
<path fill="none" stroke="midnightblue" d="M102.97,-105C92.41,-95.43 77.85,-83.64 66.66,-75.75"/>
<polygon fill="midnightblue" stroke="midnightblue" points="100.77,-107.74 110.43,-112.08 105.59,-102.66 100.77,-107.74"/>
</g>
<!-- Node3 -->
<g id="node3" class="node">
<title>Node3</title>
<g id="a_node3"><a xlink:href="class_scintillation_properties.html" target="_top" xlink:title="This class is responsible for parsing scintillation properties to already defined materials.">
<polygon fill="white" stroke="black" points="120,-56.5 120,-75.5 244,-75.5 244,-56.5 120,-56.5"/>
<text text-anchor="middle" x="182" y="-63.5" font-family="Helvetica,sans-Serif" font-size="10.00">ScintillationProperties</text>
</a>
</g>
</g>
<!-- Node1&#45;&gt;Node3 -->
<g id="edge3" class="edge">
<title>Node1&#45;&gt;Node3</title>
<path fill="none" stroke="midnightblue" d="M134.55,-105.82C146.38,-96.15 161.29,-83.95 171.2,-75.83"/>
<polygon fill="midnightblue" stroke="midnightblue" points="132.13,-103.28 126.6,-112.32 136.56,-108.7 132.13,-103.28"/>
</g>
<!-- Node4 -->
<g id="node4" class="node">
<title>Node4</title>
<g id="a_node4"><a xlink:href="classabc_material_data.html" target="_top" xlink:title="Abstract base class for material data extraction from a json file.">
<polygon fill="white" stroke="black" points="262,-56.5 262,-75.5 360,-75.5 360,-56.5 262,-56.5"/>
<text text-anchor="middle" x="311" y="-63.5" font-family="Helvetica,sans-Serif" font-size="10.00">abcMaterialData</text>
</a>
</g>
</g>
<!-- Node1&#45;&gt;Node4 -->
<g id="edge4" class="edge">
<title>Node1&#45;&gt;Node4</title>
<path fill="none" stroke="midnightblue" d="M156.81,-109.7C193.61,-99.51 246.93,-84.74 280.25,-75.52"/>
<polygon fill="midnightblue" stroke="midnightblue" points="155.6,-106.4 146.9,-112.44 157.47,-113.15 155.6,-106.4"/>
</g>
<!-- Node5 -->
<g id="node5" class="node">
<title>Node5</title>
<g id="a_node5"><a xlink:href="class_ice_cube_ice.html" target="_top" xlink:title="This class is responsible for the creation and property extraction of IceCube&#39;s ice.">
<polygon fill="white" stroke="black" points="133,-0.5 133,-19.5 203,-19.5 203,-0.5 133,-0.5"/>
<text text-anchor="middle" x="168" y="-7.5" font-family="Helvetica,sans-Serif" font-size="10.00">IceCubeIce</text>
</a>
</g>
</g>
<!-- Node4&#45;&gt;Node5 -->
<g id="edge5" class="edge">
<title>Node4&#45;&gt;Node5</title>
<path fill="none" stroke="midnightblue" d="M273.61,-53.04C245.14,-42.88 207.39,-28.55 185.47,-19.52"/>
<polygon fill="midnightblue" stroke="midnightblue" points="272.66,-56.41 283.25,-56.44 274.99,-49.81 272.66,-56.41"/>
</g>
<!-- Node4&#45;&gt;Node5 -->
<g id="edge6" class="edge">
<title>Node4&#45;&gt;Node5</title>
<path fill="none" stroke="midnightblue" d="M284.04,-52.64C258.7,-42.5 221.19,-28.43 195.63,-19.52"/>
<polygon fill="midnightblue" stroke="midnightblue" points="282.85,-55.93 293.43,-56.44 285.48,-49.44 282.85,-55.93"/>
</g>
<!-- Node6 -->
<g id="node6" class="node">
<title>Node6</title>
<g id="a_node6"><a xlink:href="class_no_optics.html" target="_top" xlink:title="This class is responsible for handling materials without defined optical properties.">
<polygon fill="white" stroke="black" points="221.5,-0.5 221.5,-19.5 282.5,-19.5 282.5,-0.5 221.5,-0.5"/>
<text text-anchor="middle" x="252" y="-7.5" font-family="Helvetica,sans-Serif" font-size="10.00">NoOptics</text>
</a>
</g>
</g>
<!-- Node4&#45;&gt;Node6 -->
<g id="edge7" class="edge">
<title>Node4&#45;&gt;Node6</title>
<path fill="none" stroke="midnightblue" d="M288.28,-49.82C276.64,-40.15 263.64,-27.95 256.5,-19.83"/>
<polygon fill="midnightblue" stroke="midnightblue" points="286.41,-52.81 296.41,-56.32 290.78,-47.34 286.41,-52.81"/>
</g>
<!-- Node4&#45;&gt;Node6 -->
<g id="edge8" class="edge">
<title>Node4&#45;&gt;Node6</title>
<path fill="none" stroke="midnightblue" d="M299.46,-48.72C289.99,-39.2 276.9,-27.56 266.69,-19.75"/>
<polygon fill="midnightblue" stroke="midnightblue" points="297.01,-51.22 306.42,-56.08 302.1,-46.41 297.01,-51.22"/>
</g>
<!-- Node7 -->
<g id="node7" class="node">
<title>Node7</title>
<g id="a_node7"><a xlink:href="class_refraction_and_absorption.html" target="_top" xlink:title="This class is responsible for handling materials with both a defined refractive index and absorption ...">
<polygon fill="white" stroke="black" points="301,-0.5 301,-19.5 439,-19.5 439,-0.5 301,-0.5"/>
<text text-anchor="middle" x="370" y="-7.5" font-family="Helvetica,sans-Serif" font-size="10.00">RefractionAndAbsorption</text>
</a>
</g>
</g>
<!-- Node4&#45;&gt;Node7 -->
<g id="edge9" class="edge">
<title>Node4&#45;&gt;Node7</title>
<path fill="none" stroke="midnightblue" d="M322.54,-48.72C332.01,-39.2 345.1,-27.56 355.31,-19.75"/>
<polygon fill="midnightblue" stroke="midnightblue" points="319.9,-46.41 315.58,-56.08 324.99,-51.22 319.9,-46.41"/>
</g>
<!-- Node4&#45;&gt;Node7 -->
<g id="edge10" class="edge">
<title>Node4&#45;&gt;Node7</title>
<path fill="none" stroke="midnightblue" d="M333.72,-49.82C345.36,-40.15 358.36,-27.95 365.5,-19.83"/>
<polygon fill="midnightblue" stroke="midnightblue" points="331.22,-47.34 325.59,-56.32 335.59,-52.81 331.22,-47.34"/>
</g>
<!-- Node8 -->
<g id="node8" class="node">
<title>Node8</title>
<g id="a_node8"><a xlink:href="class_refraction_only.html" target="_top" xlink:title="This class is responsible for handling materials with only defined refractive index.">
<polygon fill="white" stroke="black" points="457.5,-0.5 457.5,-19.5 546.5,-19.5 546.5,-0.5 457.5,-0.5"/>
<text text-anchor="middle" x="502" y="-7.5" font-family="Helvetica,sans-Serif" font-size="10.00">RefractionOnly</text>
</a>
</g>
</g>
<!-- Node4&#45;&gt;Node8 -->
<g id="edge11" class="edge">
<title>Node4&#45;&gt;Node8</title>
<path fill="none" stroke="midnightblue" d="M345.8,-53.57C380.18,-43.38 432.28,-28.7 466.8,-19.52"/>
<polygon fill="midnightblue" stroke="midnightblue" points="344.76,-50.23 336.18,-56.44 346.76,-56.94 344.76,-50.23"/>
</g>
<!-- Node4&#45;&gt;Node8 -->
<g id="edge12" class="edge">
<title>Node4&#45;&gt;Node8</title>
<path fill="none" stroke="midnightblue" d="M356.1,-53.83C393.87,-43.63 446.22,-28.78 476.96,-19.52"/>
<polygon fill="midnightblue" stroke="midnightblue" points="355.11,-50.47 346.35,-56.44 356.92,-57.23 355.11,-50.47"/>
</g>
</g>
</svg>
