<?xml version="1.0" encoding="UTF-8" standalone="no"?>
<!DOCTYPE svg PUBLIC "-//W3C//DTD SVG 1.1//EN"
 "http://www.w3.org/Graphics/SVG/1.1/DTD/svg11.dtd">
<!-- Generated by graphviz version 2.43.0 (0)
 -->
<!-- Title: OMSimPrimaryGeneratorAction Pages: 1 -->
<svg width="404pt" height="229pt"
 viewBox="0.00 0.00 403.50 229.00" xmlns="http://www.w3.org/2000/svg" xmlns:xlink="http://www.w3.org/1999/xlink">
<g id="graph0" class="graph" transform="scale(1 1) rotate(0) translate(4 225)">
<title>OMSimPrimaryGeneratorAction</title>
<polygon fill="white" stroke="transparent" points="-4,4 -4,-225 399.5,-225 399.5,4 -4,4"/>
<!-- Node1 -->
<g id="node1" class="node">
<title>Node1</title>
<g id="a_node1"><a xlink:title=" ">
<polygon fill="#bfbfbf" stroke="black" points="113.5,-67.5 113.5,-86.5 283.5,-86.5 283.5,-67.5 113.5,-67.5"/>
<text text-anchor="middle" x="198.5" y="-74.5" font-family="Helvetica,sans-Serif" font-size="10.00">OMSimPrimaryGeneratorAction</text>
</a>
</g>
</g>
<!-- Node5 -->
<g id="node5" class="node">
<title>Node5</title>
<g id="a_node5"><a xlink:href="classmdom_primary_generator_messenger.html" target="_top" xlink:title=" ">
<polygon fill="white" stroke="black" points="47.5,-0.5 47.5,-19.5 235.5,-19.5 235.5,-0.5 47.5,-0.5"/>
<text text-anchor="middle" x="141.5" y="-7.5" font-family="Helvetica,sans-Serif" font-size="10.00">mdomPrimaryGeneratorMessenger</text>
</a>
</g>
</g>
<!-- Node1&#45;&gt;Node5 -->
<g id="edge8" class="edge">
<title>Node1&#45;&gt;Node5</title>
<path fill="none" stroke="#9a32cd" stroke-dasharray="5,2" d="M153.33,-62.84C147.46,-59.27 142.21,-54.74 138.5,-49 132.82,-40.22 135.3,-27.8 138.02,-19.58"/>
<polygon fill="#9a32cd" stroke="#9a32cd" points="151.77,-65.97 162.26,-67.42 154.96,-59.74 151.77,-65.97"/>
<text text-anchor="middle" x="155.5" y="-41" font-family="Helvetica,sans-Serif" font-size="10.00"> Action</text>
</g>
<!-- Node2 -->
<g id="node2" class="node">
<title>Node2</title>
<g id="a_node2"><a xlink:title=" ">
<polygon fill="white" stroke="#bfbfbf" points="110,-201.5 110,-220.5 287,-220.5 287,-201.5 110,-201.5"/>
<text text-anchor="middle" x="198.5" y="-208.5" font-family="Helvetica,sans-Serif" font-size="10.00">G4VUserPrimaryGeneratorAction</text>
</a>
</g>
</g>
<!-- Node2&#45;&gt;Node1 -->
<g id="edge1" class="edge">
<title>Node2&#45;&gt;Node1</title>
<path fill="none" stroke="midnightblue" d="M193.62,-191.28C190.74,-162.25 191.19,-107.54 194.97,-86.52"/>
<polygon fill="midnightblue" stroke="midnightblue" points="190.17,-191.88 194.94,-201.34 197.11,-190.97 190.17,-191.88"/>
</g>
<!-- Node2&#45;&gt;Node1 -->
<g id="edge2" class="edge">
<title>Node2&#45;&gt;Node1</title>
<path fill="none" stroke="midnightblue" d="M203.38,-191.28C206.26,-162.25 205.81,-107.54 202.03,-86.52"/>
<polygon fill="midnightblue" stroke="midnightblue" points="199.89,-190.97 202.06,-201.34 206.83,-191.88 199.89,-190.97"/>
</g>
<!-- Node3 -->
<g id="node3" class="node">
<title>Node3</title>
<g id="a_node3"><a xlink:href="class_o_m_sim_i_b_d.html" target="_top" xlink:title="Class in charge of generating positrons from IBD of supernova antineutrino interactions.">
<polygon fill="white" stroke="black" points="236,-134.5 236,-153.5 305,-153.5 305,-134.5 236,-134.5"/>
<text text-anchor="middle" x="270.5" y="-141.5" font-family="Helvetica,sans-Serif" font-size="10.00">OMSimIBD</text>
</a>
</g>
</g>
<!-- Node2&#45;&gt;Node3 -->
<g id="edge4" class="edge">
<title>Node2&#45;&gt;Node3</title>
<path fill="none" stroke="midnightblue" d="M215.83,-194.36C229.98,-181.58 249.46,-163.99 260.94,-153.63"/>
<polygon fill="midnightblue" stroke="midnightblue" points="213.29,-191.93 208.21,-201.23 217.98,-197.13 213.29,-191.93"/>
</g>
<!-- Node3&#45;&gt;Node1 -->
<g id="edge3" class="edge">
<title>Node3&#45;&gt;Node1</title>
<path fill="none" stroke="#9a32cd" stroke-dasharray="5,2" d="M253.17,-127.36C239.02,-114.58 219.54,-96.99 208.06,-86.63"/>
<polygon fill="#9a32cd" stroke="#9a32cd" points="251.02,-130.13 260.79,-134.23 255.71,-124.93 251.02,-130.13"/>
<text text-anchor="middle" x="261.5" y="-108" font-family="Helvetica,sans-Serif" font-size="10.00"> fAction0</text>
</g>
<!-- Node4 -->
<g id="node4" class="node">
<title>Node4</title>
<g id="a_node4"><a xlink:href="class_o_m_sim_s_n_tools.html" target="_top" xlink:title="Provides utility methods for generating ENES and IBD interactions.">
<polygon fill="white" stroke="black" points="305.5,-201.5 305.5,-220.5 395.5,-220.5 395.5,-201.5 305.5,-201.5"/>
<text text-anchor="middle" x="350.5" y="-208.5" font-family="Helvetica,sans-Serif" font-size="10.00">OMSimSNTools</text>
</a>
</g>
</g>
<!-- Node4&#45;&gt;Node3 -->
<g id="edge5" class="edge">
<title>Node4&#45;&gt;Node3</title>
<path fill="none" stroke="#9a32cd" stroke-dasharray="5,2" d="M331.69,-194.71C315.92,-181.91 293.99,-164.09 281.12,-153.63"/>
<polygon fill="#9a32cd" stroke="#9a32cd" points="329.74,-197.64 339.71,-201.23 334.16,-192.21 329.74,-197.64"/>
<text text-anchor="middle" x="348" y="-175" font-family="Helvetica,sans-Serif" font-size="10.00"> mSNToolBox</text>
</g>
<!-- Node5&#45;&gt;Node1 -->
<g id="edge6" class="edge">
<title>Node5&#45;&gt;Node1</title>
<path fill="none" stroke="#9a32cd" stroke-dasharray="5,2" d="M163.33,-25.73C167.98,-29.42 172.64,-33.6 176.5,-38 184.33,-46.95 190.79,-59.1 194.64,-67.23"/>
<polygon fill="#9a32cd" stroke="#9a32cd" points="165.27,-22.81 155.16,-19.66 161.1,-28.43 165.27,-22.81"/>
<text text-anchor="middle" x="224.5" y="-41" font-family="Helvetica,sans-Serif" font-size="10.00"> fGunMessenger</text>
</g>
<!-- Node6 -->
<g id="node6" class="node">
<title>Node6</title>
<g id="a_node6"><a xlink:title=" ">
<polygon fill="white" stroke="#bfbfbf" points="0,-67.5 0,-86.5 95,-86.5 95,-67.5 0,-67.5"/>
<text text-anchor="middle" x="47.5" y="-74.5" font-family="Helvetica,sans-Serif" font-size="10.00">G4UImessenger</text>
</a>
</g>
</g>
<!-- Node6&#45;&gt;Node5 -->
<g id="edge7" class="edge">
<title>Node6&#45;&gt;Node5</title>
<path fill="none" stroke="midnightblue" d="M68.59,-61.42C87.17,-48.57 113.62,-30.28 129.02,-19.63"/>
<polygon fill="midnightblue" stroke="midnightblue" points="66.41,-58.67 60.18,-67.23 70.39,-64.43 66.41,-58.67"/>
</g>
</g>
</svg>
