<?xml version="1.0" encoding="UTF-8" standalone="no"?>
<!DOCTYPE svg PUBLIC "-//W3C//DTD SVG 1.1//EN"
 "http://www.w3.org/Graphics/SVG/1.1/DTD/svg11.dtd">
<!-- Generated by graphviz version 2.43.0 (0)
 -->
<!-- Title: mdomPrimaryGeneratorMessenger Pages: 1 -->
<svg width="514pt" height="162pt"
 viewBox="0.00 0.00 513.50 162.00" xmlns="http://www.w3.org/2000/svg" xmlns:xlink="http://www.w3.org/1999/xlink">
<g id="graph0" class="graph" transform="scale(1 1) rotate(0) translate(4 158)">
<title>mdomPrimaryGeneratorMessenger</title>
<polygon fill="white" stroke="transparent" points="-4,4 -4,-158 509.5,-158 509.5,4 -4,4"/>
<!-- Node1 -->
<g id="node1" class="node">
<title>Node1</title>
<g id="a_node1"><a xlink:title=" ">
<polygon fill="#bfbfbf" stroke="black" points="0,-67.5 0,-86.5 188,-86.5 188,-67.5 0,-67.5"/>
<text text-anchor="middle" x="94" y="-74.5" font-family="Helvetica,sans-Serif" font-size="10.00">mdomPrimaryGeneratorMessenger</text>
</a>
</g>
</g>
<!-- Node3 -->
<g id="node3" class="node">
<title>Node3</title>
<g id="a_node3"><a xlink:href="class_o_m_sim_primary_generator_action.html" target="_top" xlink:title=" ">
<polygon fill="white" stroke="black" points="247,-0.5 247,-19.5 417,-19.5 417,-0.5 247,-0.5"/>
<text text-anchor="middle" x="332" y="-7.5" font-family="Helvetica,sans-Serif" font-size="10.00">OMSimPrimaryGeneratorAction</text>
</a>
</g>
</g>
<!-- Node1&#45;&gt;Node3 -->
<g id="edge9" class="edge">
<title>Node1&#45;&gt;Node3</title>
<path fill="none" stroke="#9a32cd" stroke-dasharray="5,2" d="M120.95,-63.28C139.25,-55.07 164.16,-44.72 187,-38 214.15,-30.02 244.87,-23.9 271.03,-19.52"/>
<polygon fill="#9a32cd" stroke="#9a32cd" points="119.43,-60.12 111.79,-67.46 122.34,-66.49 119.43,-60.12"/>
<text text-anchor="middle" x="227" y="-41" font-family="Helvetica,sans-Serif" font-size="10.00"> fGunMessenger</text>
</g>
<!-- Node2 -->
<g id="node2" class="node">
<title>Node2</title>
<g id="a_node2"><a xlink:title=" ">
<polygon fill="white" stroke="#bfbfbf" points="46.5,-134.5 46.5,-153.5 141.5,-153.5 141.5,-134.5 46.5,-134.5"/>
<text text-anchor="middle" x="94" y="-141.5" font-family="Helvetica,sans-Serif" font-size="10.00">G4UImessenger</text>
</a>
</g>
</g>
<!-- Node2&#45;&gt;Node1 -->
<g id="edge1" class="edge">
<title>Node2&#45;&gt;Node1</title>
<path fill="none" stroke="midnightblue" d="M94,-124.04C94,-111.67 94,-96.12 94,-86.63"/>
<polygon fill="midnightblue" stroke="midnightblue" points="90.5,-124.23 94,-134.23 97.5,-124.23 90.5,-124.23"/>
</g>
<!-- Node3&#45;&gt;Node1 -->
<g id="edge2" class="edge">
<title>Node3&#45;&gt;Node1</title>
<path fill="none" stroke="#9a32cd" stroke-dasharray="5,2" d="M236.8,-11.25C182.59,-13.44 121.67,-20.04 102,-38 93.94,-45.37 92.87,-58.63 93.18,-67.37"/>
<polygon fill="#9a32cd" stroke="#9a32cd" points="236.96,-14.74 246.83,-10.89 236.71,-7.75 236.96,-14.74"/>
<text text-anchor="middle" x="119" y="-41" font-family="Helvetica,sans-Serif" font-size="10.00"> Action</text>
</g>
<!-- Node4 -->
<g id="node4" class="node">
<title>Node4</title>
<g id="a_node4"><a xlink:title=" ">
<polygon fill="white" stroke="#bfbfbf" points="328.5,-134.5 328.5,-153.5 505.5,-153.5 505.5,-134.5 328.5,-134.5"/>
<text text-anchor="middle" x="417" y="-141.5" font-family="Helvetica,sans-Serif" font-size="10.00">G4VUserPrimaryGeneratorAction</text>
</a>
</g>
</g>
<!-- Node4&#45;&gt;Node3 -->
<g id="edge3" class="edge">
<title>Node4&#45;&gt;Node3</title>
<path fill="none" stroke="midnightblue" d="M402.26,-125.29C392.89,-102.75 383.56,-63.67 362,-38 355.36,-30.09 345.78,-24.05 338.27,-19.71"/>
<polygon fill="midnightblue" stroke="midnightblue" points="399.14,-126.87 406.62,-134.37 405.45,-123.84 399.14,-126.87"/>
</g>
<!-- Node4&#45;&gt;Node3 -->
<g id="edge4" class="edge">
<title>Node4&#45;&gt;Node3</title>
<path fill="none" stroke="midnightblue" d="M414.51,-124.37C410.63,-101.7 401.27,-63.32 380,-38 373.36,-30.09 363.78,-24.05 354.92,-19.71"/>
<polygon fill="midnightblue" stroke="midnightblue" points="411.07,-125.02 416.03,-134.37 417.99,-123.96 411.07,-125.02"/>
</g>
<!-- Node4&#45;&gt;Node3 -->
<g id="edge5" class="edge">
<title>Node4&#45;&gt;Node3</title>
<path fill="none" stroke="midnightblue" d="M427.13,-124.37C428.63,-101.7 419.27,-63.32 398,-38 391.3,-30.02 381.6,-23.94 371.28,-19.59"/>
<polygon fill="midnightblue" stroke="midnightblue" points="423.66,-123.93 425.45,-134.37 430.56,-125.09 423.66,-123.93"/>
</g>
<!-- Node5 -->
<g id="node5" class="node">
<title>Node5</title>
<g id="a_node5"><a xlink:href="class_o_m_sim_i_b_d.html" target="_top" xlink:title="Class in charge of generating positrons from IBD of supernova antineutrino interactions.">
<polygon fill="white" stroke="black" points="206.5,-67.5 206.5,-86.5 275.5,-86.5 275.5,-67.5 206.5,-67.5"/>
<text text-anchor="middle" x="241" y="-74.5" font-family="Helvetica,sans-Serif" font-size="10.00">OMSimIBD</text>
</a>
</g>
</g>
<!-- Node4&#45;&gt;Node5 -->
<g id="edge7" class="edge">
<title>Node4&#45;&gt;Node5</title>
<path fill="none" stroke="midnightblue" d="M391.16,-129.78C375.23,-121.94 354.24,-112.17 335,-105 315.59,-97.76 293.33,-91.29 275.35,-86.5"/>
<polygon fill="midnightblue" stroke="midnightblue" points="389.85,-133.03 400.36,-134.36 392.98,-126.77 389.85,-133.03"/>
</g>
<!-- Node7 -->
<g id="node7" class="node">
<title>Node7</title>
<g id="a_node7"><a xlink:href="class_o_m_sim_e_n_e_s.html" target="_top" xlink:title="Class in charge of generating electrons from Electron&#45;electron_Neutrino Elastic Scattering (ENES) nu_...">
<polygon fill="white" stroke="black" points="293.5,-67.5 293.5,-86.5 370.5,-86.5 370.5,-67.5 293.5,-67.5"/>
<text text-anchor="middle" x="332" y="-74.5" font-family="Helvetica,sans-Serif" font-size="10.00">OMSimENES</text>
</a>
</g>
</g>
<!-- Node4&#45;&gt;Node7 -->
<g id="edge11" class="edge">
<title>Node4&#45;&gt;Node7</title>
<path fill="none" stroke="midnightblue" d="M397.47,-128.07C380.7,-115.24 357.09,-97.19 343.28,-86.63"/>
<polygon fill="midnightblue" stroke="midnightblue" points="395.47,-130.94 405.54,-134.23 399.72,-125.38 395.47,-130.94"/>
</g>
<!-- Node5&#45;&gt;Node3 -->
<g id="edge6" class="edge">
<title>Node5&#45;&gt;Node3</title>
<path fill="none" stroke="#9a32cd" stroke-dasharray="5,2" d="M257.36,-60.08C265.11,-52.92 274.7,-44.61 284,-38 293.66,-31.13 305.23,-24.58 314.58,-19.65"/>
<polygon fill="#9a32cd" stroke="#9a32cd" points="254.62,-57.84 249.76,-67.26 259.43,-62.93 254.62,-57.84"/>
<text text-anchor="middle" x="306" y="-41" font-family="Helvetica,sans-Serif" font-size="10.00"> fAction0</text>
</g>
<!-- Node6 -->
<g id="node6" class="node">
<title>Node6</title>
<g id="a_node6"><a xlink:href="class_o_m_sim_s_n_tools.html" target="_top" xlink:title="Provides utility methods for generating ENES and IBD interactions.">
<polygon fill="white" stroke="black" points="190,-134.5 190,-153.5 280,-153.5 280,-134.5 190,-134.5"/>
<text text-anchor="middle" x="235" y="-141.5" font-family="Helvetica,sans-Serif" font-size="10.00">OMSimSNTools</text>
</a>
</g>
</g>
<!-- Node6&#45;&gt;Node5 -->
<g id="edge8" class="edge">
<title>Node6&#45;&gt;Node5</title>
<path fill="none" stroke="#9a32cd" stroke-dasharray="5,2" d="M196.46,-130.29C184.15,-124.01 175.26,-115.5 182,-105 187.6,-96.28 196.79,-90.34 206.28,-86.31"/>
<polygon fill="#9a32cd" stroke="#9a32cd" points="195.3,-133.6 205.86,-134.46 198.14,-127.2 195.3,-133.6"/>
<text text-anchor="middle" x="214.5" y="-108" font-family="Helvetica,sans-Serif" font-size="10.00"> mSNToolBox</text>
</g>
<!-- Node6&#45;&gt;Node7 -->
<g id="edge12" class="edge">
<title>Node6&#45;&gt;Node7</title>
<path fill="none" stroke="#9a32cd" stroke-dasharray="5,2" d="M256.5,-128.59C275.69,-115.74 303.15,-97.33 319.13,-86.63"/>
<polygon fill="#9a32cd" stroke="#9a32cd" points="254.44,-125.76 248.08,-134.23 258.34,-131.57 254.44,-125.76"/>
<text text-anchor="middle" x="322.5" y="-108" font-family="Helvetica,sans-Serif" font-size="10.00"> mSNToolBox</text>
</g>
<!-- Node7&#45;&gt;Node3 -->
<g id="edge10" class="edge">
<title>Node7&#45;&gt;Node3</title>
<path fill="none" stroke="#9a32cd" stroke-dasharray="5,2" d="M332,-57.04C332,-44.67 332,-29.12 332,-19.63"/>
<polygon fill="#9a32cd" stroke="#9a32cd" points="328.5,-57.23 332,-67.23 335.5,-57.23 328.5,-57.23"/>
<text text-anchor="middle" x="354" y="-41" font-family="Helvetica,sans-Serif" font-size="10.00"> fAction1</text>
</g>
</g>
</svg>
