<?xml version="1.0" encoding="UTF-8" standalone="no"?>
<!DOCTYPE svg PUBLIC "-//W3C//DTD SVG 1.1//EN"
 "http://www.w3.org/Graphics/SVG/1.1/DTD/svg11.dtd">
<!-- Generated by graphviz version 2.43.0 (0)
 -->
<!-- Title: mDOMHarness Pages: 1 -->
<svg width="366pt" height="342pt"
 viewBox="0.00 0.00 365.67 342.00" xmlns="http://www.w3.org/2000/svg" xmlns:xlink="http://www.w3.org/1999/xlink">
<g id="graph0" class="graph" transform="scale(1 1) rotate(0) translate(4 338)">
<title>mDOMHarness</title>
<polygon fill="white" stroke="transparent" points="-4,4 -4,-338 361.67,-338 361.67,4 -4,4"/>
<!-- Node1 -->
<g id="node1" class="node">
<title>Node1</title>
<g id="a_node1"><a xlink:title=" ">
<polygon fill="#bfbfbf" stroke="black" points="11.67,-133.5 11.67,-152.5 101.67,-152.5 101.67,-133.5 11.67,-133.5"/>
<text text-anchor="middle" x="56.67" y="-140.5" font-family="Helvetica,sans-Serif" font-size="10.00">mDOMHarness</text>
</a>
</g>
</g>
<!-- Node5 -->
<g id="node5" class="node">
<title>Node5</title>
<g id="a_node5"><a xlink:href="classm_d_o_m.html" target="_top" xlink:title=" ">
<polygon fill="white" stroke="black" points="75.67,-0.5 75.67,-19.5 125.67,-19.5 125.67,-0.5 75.67,-0.5"/>
<text text-anchor="middle" x="100.67" y="-7.5" font-family="Helvetica,sans-Serif" font-size="10.00">mDOM</text>
</a>
</g>
</g>
<!-- Node1&#45;&gt;Node5 -->
<g id="edge10" class="edge">
<title>Node1&#45;&gt;Node5</title>
<path fill="none" stroke="#9a32cd" stroke-dasharray="5,2" d="M54.79,-123.26C53.74,-105.54 54.06,-78.52 62.67,-57 68.67,-42 81.47,-28.2 90.55,-19.71"/>
<polygon fill="#9a32cd" stroke="#9a32cd" points="51.32,-123.73 55.61,-133.42 58.3,-123.17 51.32,-123.73"/>
<text text-anchor="middle" x="89.17" y="-64.5" font-family="Helvetica,sans-Serif" font-size="10.00"> mHarness</text>
</g>
<!-- Node2 -->
<g id="node2" class="node">
<title>Node2</title>
<g id="a_node2"><a xlink:href="classabc_detector_component.html" target="_top" xlink:title="Abstract base class used for constructing detector components.">
<polygon fill="white" stroke="black" points="122.67,-190.5 122.67,-209.5 254.67,-209.5 254.67,-190.5 122.67,-190.5"/>
<text text-anchor="middle" x="188.67" y="-197.5" font-family="Helvetica,sans-Serif" font-size="10.00">abcDetectorComponent</text>
</a>
</g>
</g>
<!-- Node2&#45;&gt;Node1 -->
<g id="edge1" class="edge">
<title>Node2&#45;&gt;Node1</title>
<path fill="none" stroke="midnightblue" d="M158.7,-186.51C133.78,-176.13 98.99,-161.63 77.15,-152.53"/>
<polygon fill="midnightblue" stroke="midnightblue" points="157.47,-189.79 168.05,-190.41 160.16,-183.33 157.47,-189.79"/>
</g>
<!-- Node6 -->
<g id="node6" class="node">
<title>Node6</title>
<g id="a_node6"><a xlink:href="class_optical_module.html" target="_top" xlink:title="Base class for OMs works as interface.">
<polygon fill="white" stroke="black" points="219.17,-57.5 219.17,-76.5 306.17,-76.5 306.17,-57.5 219.17,-57.5"/>
<text text-anchor="middle" x="262.67" y="-64.5" font-family="Helvetica,sans-Serif" font-size="10.00">OpticalModule</text>
</a>
</g>
</g>
<!-- Node2&#45;&gt;Node6 -->
<g id="edge6" class="edge">
<title>Node2&#45;&gt;Node6</title>
<path fill="none" stroke="midnightblue" d="M194.5,-180.5C199.12,-166.94 206.2,-148.3 214.67,-133 226.63,-111.4 244.83,-88.78 255.04,-76.75"/>
<polygon fill="midnightblue" stroke="midnightblue" points="191.14,-179.54 191.35,-190.13 197.79,-181.72 191.14,-179.54"/>
</g>
<!-- Node7 -->
<g id="node7" class="node">
<title>Node7</title>
<g id="a_node7"><a xlink:href="class_o_m_sim_p_m_t_construction.html" target="_top" xlink:title=" ">
<polygon fill="white" stroke="black" points="223.67,-133.5 223.67,-152.5 357.67,-152.5 357.67,-133.5 223.67,-133.5"/>
<text text-anchor="middle" x="290.67" y="-140.5" font-family="Helvetica,sans-Serif" font-size="10.00">OMSimPMTConstruction</text>
</a>
</g>
</g>
<!-- Node2&#45;&gt;Node7 -->
<g id="edge8" class="edge">
<title>Node2&#45;&gt;Node7</title>
<path fill="none" stroke="midnightblue" d="M213.64,-185.54C232.74,-175.24 258.5,-161.35 274.85,-152.53"/>
<polygon fill="midnightblue" stroke="midnightblue" points="211.75,-182.58 204.61,-190.41 215.07,-188.74 211.75,-182.58"/>
</g>
<!-- Node8 -->
<g id="node8" class="node">
<title>Node8</title>
<g id="a_node8"><a xlink:href="classm_d_o_m_flasher.html" target="_top" xlink:title="The mDOMFlasher class represents the 10 flashers in an mDOM optical module.">
<polygon fill="white" stroke="black" points="94.67,-95.5 94.67,-114.5 180.67,-114.5 180.67,-95.5 94.67,-95.5"/>
<text text-anchor="middle" x="137.67" y="-102.5" font-family="Helvetica,sans-Serif" font-size="10.00">mDOMFlasher</text>
</a>
</g>
</g>
<!-- Node2&#45;&gt;Node8 -->
<g id="edge12" class="edge">
<title>Node2&#45;&gt;Node8</title>
<path fill="none" stroke="midnightblue" d="M179.05,-181.45C168.1,-161.49 150.67,-129.7 142.37,-114.56"/>
<polygon fill="midnightblue" stroke="midnightblue" points="176.09,-183.33 183.96,-190.42 182.22,-179.97 176.09,-183.33"/>
</g>
<!-- Node3 -->
<g id="node3" class="node">
<title>Node3</title>
<g id="a_node3"><a xlink:href="class_input_data_manager.html" target="_top" xlink:title=" ">
<polygon fill="white" stroke="black" points="186.17,-257.5 186.17,-276.5 293.17,-276.5 293.17,-257.5 186.17,-257.5"/>
<text text-anchor="middle" x="239.67" y="-264.5" font-family="Helvetica,sans-Serif" font-size="10.00">InputDataManager</text>
</a>
</g>
</g>
<!-- Node3&#45;&gt;Node2 -->
<g id="edge2" class="edge">
<title>Node3&#45;&gt;Node2</title>
<path fill="none" stroke="#9a32cd" stroke-dasharray="5,2" d="M226.54,-249.27C216.6,-236.6 203.34,-219.7 195.44,-209.63"/>
<polygon fill="#9a32cd" stroke="#9a32cd" points="223.87,-251.53 232.79,-257.23 229.37,-247.21 223.87,-251.53"/>
<text text-anchor="middle" x="235.17" y="-231" font-family="Helvetica,sans-Serif" font-size="10.00"> mData</text>
</g>
<!-- Node3&#45;&gt;Node7 -->
<g id="edge9" class="edge">
<title>Node3&#45;&gt;Node7</title>
<path fill="none" stroke="#9a32cd" stroke-dasharray="5,2" d="M251.96,-248.96C254.02,-245.74 256.02,-242.33 257.67,-239 272.74,-208.67 283.92,-169.75 288.45,-152.68"/>
<polygon fill="#9a32cd" stroke="#9a32cd" points="248.99,-247.11 246.26,-257.34 254.78,-251.04 248.99,-247.11"/>
<text text-anchor="middle" x="295.17" y="-197.5" font-family="Helvetica,sans-Serif" font-size="10.00"> mData</text>
</g>
<!-- Node4 -->
<g id="node4" class="node">
<title>Node4</title>
<g id="a_node4"><a xlink:href="class_parameter_table.html" target="_top" xlink:title="A utility class for managing JSON&#45;based data tables.">
<polygon fill="white" stroke="black" points="193.67,-314.5 193.67,-333.5 285.67,-333.5 285.67,-314.5 193.67,-314.5"/>
<text text-anchor="middle" x="239.67" y="-321.5" font-family="Helvetica,sans-Serif" font-size="10.00">ParameterTable</text>
</a>
</g>
</g>
<!-- Node4&#45;&gt;Node3 -->
<g id="edge3" class="edge">
<title>Node4&#45;&gt;Node3</title>
<path fill="none" stroke="midnightblue" d="M239.67,-304.12C239.67,-294.82 239.67,-284.06 239.67,-276.71"/>
<polygon fill="midnightblue" stroke="midnightblue" points="236.17,-304.41 239.67,-314.41 243.17,-304.41 236.17,-304.41"/>
</g>
<!-- Node5&#45;&gt;Node1 -->
<g id="edge4" class="edge">
<title>Node5&#45;&gt;Node1</title>
<path fill="none" stroke="#9a32cd" stroke-dasharray="5,2" d="M65.65,-17.82C43.97,-24.05 17.84,-35.69 4.67,-57 -12.52,-84.81 24.02,-117.89 44.32,-133.3"/>
<polygon fill="#9a32cd" stroke="#9a32cd" points="66.75,-21.15 75.55,-15.24 64.99,-14.37 66.75,-21.15"/>
<text text-anchor="middle" x="19.67" y="-64.5" font-family="Helvetica,sans-Serif" font-size="10.00"> mOM</text>
</g>
<!-- Node6&#45;&gt;Node5 -->
<g id="edge5" class="edge">
<title>Node6&#45;&gt;Node5</title>
<path fill="none" stroke="midnightblue" d="M227.5,-54.06C196.82,-43.64 153.08,-28.79 125.81,-19.53"/>
<polygon fill="midnightblue" stroke="midnightblue" points="226.76,-57.51 237.36,-57.41 229.01,-50.88 226.76,-57.51"/>
</g>
<!-- Node7&#45;&gt;Node6 -->
<g id="edge7" class="edge">
<title>Node7&#45;&gt;Node6</title>
<path fill="none" stroke="#9a32cd" stroke-dasharray="5,2" d="M283.67,-123.51C278.02,-108.57 270.32,-88.22 265.99,-76.77"/>
<polygon fill="#9a32cd" stroke="#9a32cd" points="280.54,-125.11 287.35,-133.22 287.08,-122.63 280.54,-125.11"/>
<text text-anchor="middle" x="318.17" y="-102.5" font-family="Helvetica,sans-Serif" font-size="10.00"> mPMTManager</text>
</g>
<!-- Node8&#45;&gt;Node5 -->
<g id="edge11" class="edge">
<title>Node8&#45;&gt;Node5</title>
<path fill="none" stroke="#9a32cd" stroke-dasharray="5,2" d="M130.47,-85.9C122.52,-65.91 110.05,-34.56 104.08,-19.56"/>
<polygon fill="#9a32cd" stroke="#9a32cd" points="127.31,-87.42 134.26,-95.42 133.81,-84.83 127.31,-87.42"/>
<text text-anchor="middle" x="155.17" y="-64.5" font-family="Helvetica,sans-Serif" font-size="10.00"> mFlashers</text>
</g>
</g>
</svg>
