<?xml version="1.0" encoding="UTF-8" standalone="no"?>
<!DOCTYPE svg PUBLIC "-//W3C//DTD SVG 1.1//EN"
 "http://www.w3.org/Graphics/SVG/1.1/DTD/svg11.dtd">
<!-- Generated by graphviz version 2.43.0 (0)
 -->
<!-- Title: mdomPrimaryGeneratorMessenger Pages: 1 -->
<svg width="419pt" height="162pt"
 viewBox="0.00 0.00 418.50 162.00" xmlns="http://www.w3.org/2000/svg" xmlns:xlink="http://www.w3.org/1999/xlink">
<g id="graph0" class="graph" transform="scale(1 1) rotate(0) translate(4 158)">
<title>mdomPrimaryGeneratorMessenger</title>
<polygon fill="white" stroke="transparent" points="-4,4 -4,-158 414.5,-158 414.5,4 -4,4"/>
<!-- Node1 -->
<g id="node1" class="node">
<title>Node1</title>
<g id="a_node1"><a xlink:title=" ">
<polygon fill="#bfbfbf" stroke="black" points="222.5,-67.5 222.5,-86.5 410.5,-86.5 410.5,-67.5 222.5,-67.5"/>
<text text-anchor="middle" x="316.5" y="-74.5" font-family="Helvetica,sans-Serif" font-size="10.00">mdomPrimaryGeneratorMessenger</text>
</a>
</g>
</g>
<!-- Node3 -->
<g id="node3" class="node">
<title>Node3</title>
<g id="a_node3"><a xlink:href="class_o_m_sim_primary_generator_action.html" target="_top" xlink:title=" ">
<polygon fill="white" stroke="black" points="28.5,-0.5 28.5,-19.5 198.5,-19.5 198.5,-0.5 28.5,-0.5"/>
<text text-anchor="middle" x="113.5" y="-7.5" font-family="Helvetica,sans-Serif" font-size="10.00">OMSimPrimaryGeneratorAction</text>
</a>
</g>
</g>
<!-- Node1&#45;&gt;Node3 -->
<g id="edge9" class="edge">
<title>Node1&#45;&gt;Node3</title>
<path fill="none" stroke="#9a32cd" stroke-dasharray="5,2" d="M262.11,-65.12C244.98,-60.95 226.19,-55.57 209.5,-49 200.06,-45.28 198.75,-42.16 189.5,-38 173.79,-30.94 155.63,-24.44 141,-19.58"/>
<polygon fill="#9a32cd" stroke="#9a32cd" points="261.44,-68.56 271.97,-67.44 263.04,-61.75 261.44,-68.56"/>
<text text-anchor="middle" x="249.5" y="-41" font-family="Helvetica,sans-Serif" font-size="10.00"> fGunMessenger</text>
</g>
<!-- Node2 -->
<g id="node2" class="node">
<title>Node2</title>
<g id="a_node2"><a xlink:title=" ">
<polygon fill="white" stroke="#bfbfbf" points="304,-134.5 304,-153.5 399,-153.5 399,-134.5 304,-134.5"/>
<text text-anchor="middle" x="351.5" y="-141.5" font-family="Helvetica,sans-Serif" font-size="10.00">G4UImessenger</text>
</a>
</g>
</g>
<!-- Node2&#45;&gt;Node1 -->
<g id="edge1" class="edge">
<title>Node2&#45;&gt;Node1</title>
<path fill="none" stroke="midnightblue" d="M341.9,-125.16C335.15,-112.63 326.41,-96.41 321.15,-86.63"/>
<polygon fill="midnightblue" stroke="midnightblue" points="338.96,-127.09 346.78,-134.23 345.12,-123.77 338.96,-127.09"/>
</g>
<!-- Node3&#45;&gt;Node1 -->
<g id="edge2" class="edge">
<title>Node3&#45;&gt;Node1</title>
<path fill="none" stroke="#9a32cd" stroke-dasharray="5,2" d="M208.55,-17.96C243.97,-22.06 279.08,-28.39 293.5,-38 303.9,-44.93 310.35,-58.3 313.68,-67.19"/>
<polygon fill="#9a32cd" stroke="#9a32cd" points="208.89,-14.48 198.57,-16.86 208.12,-21.44 208.89,-14.48"/>
<text text-anchor="middle" x="321.5" y="-41" font-family="Helvetica,sans-Serif" font-size="10.00"> Action</text>
</g>
<!-- Node4 -->
<g id="node4" class="node">
<title>Node4</title>
<g id="a_node4"><a xlink:title=" ">
<polygon fill="white" stroke="#bfbfbf" points="0,-134.5 0,-153.5 177,-153.5 177,-134.5 0,-134.5"/>
<text text-anchor="middle" x="88.5" y="-141.5" font-family="Helvetica,sans-Serif" font-size="10.00">G4VUserPrimaryGeneratorAction</text>
</a>
</g>
</g>
<!-- Node4&#45;&gt;Node3 -->
<g id="edge3" class="edge">
<title>Node4&#45;&gt;Node3</title>
<path fill="none" stroke="midnightblue" d="M82.28,-124.28C82.02,-95.25 93.28,-40.54 104.82,-19.52"/>
<polygon fill="midnightblue" stroke="midnightblue" points="78.8,-124.62 83.02,-134.34 85.78,-124.11 78.8,-124.62"/>
</g>
<!-- Node4&#45;&gt;Node3 -->
<g id="edge4" class="edge">
<title>Node4&#45;&gt;Node3</title>
<path fill="none" stroke="midnightblue" d="M92.05,-124.28C97.54,-95.25 107.91,-40.54 111.89,-19.52"/>
<polygon fill="midnightblue" stroke="midnightblue" points="88.56,-123.86 90.14,-134.34 95.44,-125.17 88.56,-123.86"/>
</g>
<!-- Node4&#45;&gt;Node3 -->
<g id="edge5" class="edge">
<title>Node4&#45;&gt;Node3</title>
<path fill="none" stroke="midnightblue" d="M101.51,-125.04C112.9,-96.22 122.56,-40.72 118.96,-19.52"/>
<polygon fill="midnightblue" stroke="midnightblue" points="98.23,-123.79 97.26,-134.34 104.6,-126.7 98.23,-123.79"/>
</g>
<!-- Node5 -->
<g id="node5" class="node">
<title>Node5</title>
<g id="a_node5"><a xlink:href="class_o_m_sim_i_b_d.html" target="_top" xlink:title="Class in charge of generating positrons from IBD of supernova antineutrino interactions.">
<polygon fill="white" stroke="black" points="135,-67.5 135,-86.5 204,-86.5 204,-67.5 135,-67.5"/>
<text text-anchor="middle" x="169.5" y="-74.5" font-family="Helvetica,sans-Serif" font-size="10.00">OMSimIBD</text>
</a>
</g>
</g>
<!-- Node4&#45;&gt;Node5 -->
<g id="edge7" class="edge">
<title>Node4&#45;&gt;Node5</title>
<path fill="none" stroke="midnightblue" d="M107.55,-127.71C123.51,-114.91 145.71,-97.09 158.75,-86.63"/>
<polygon fill="midnightblue" stroke="midnightblue" points="105.03,-125.25 99.42,-134.23 109.41,-130.7 105.03,-125.25"/>
</g>
<!-- Node5&#45;&gt;Node3 -->
<g id="edge6" class="edge">
<title>Node5&#45;&gt;Node3</title>
<path fill="none" stroke="#9a32cd" stroke-dasharray="5,2" d="M154.71,-59.5C151.65,-56.04 148.45,-52.41 145.5,-49 136.81,-38.96 126.99,-27.24 120.55,-19.51"/>
<polygon fill="#9a32cd" stroke="#9a32cd" points="152.17,-61.92 161.44,-67.05 157.4,-57.26 152.17,-61.92"/>
<text text-anchor="middle" x="167.5" y="-41" font-family="Helvetica,sans-Serif" font-size="10.00"> fAction0</text>
</g>
<!-- Node6 -->
<g id="node6" class="node">
<title>Node6</title>
<g id="a_node6"><a xlink:href="class_o_m_sim_s_n_tools.html" target="_top" xlink:title="Provides utility methods for generating ENES and IBD interactions.">
<polygon fill="white" stroke="black" points="195.5,-134.5 195.5,-153.5 285.5,-153.5 285.5,-134.5 195.5,-134.5"/>
<text text-anchor="middle" x="240.5" y="-141.5" font-family="Helvetica,sans-Serif" font-size="10.00">OMSimSNTools</text>
</a>
</g>
</g>
<!-- Node6&#45;&gt;Node5 -->
<g id="edge8" class="edge">
<title>Node6&#45;&gt;Node5</title>
<path fill="none" stroke="#9a32cd" stroke-dasharray="5,2" d="M223.41,-127.36C209.45,-114.58 190.24,-96.99 178.92,-86.63"/>
<polygon fill="#9a32cd" stroke="#9a32cd" points="221.19,-130.06 230.92,-134.23 225.91,-124.9 221.19,-130.06"/>
<text text-anchor="middle" x="242" y="-108" font-family="Helvetica,sans-Serif" font-size="10.00"> mSNToolBox</text>
</g>
</g>
</svg>
