<?xml version="1.0" encoding="UTF-8" standalone="no"?>
<!DOCTYPE svg PUBLIC "-//W3C//DTD SVG 1.1//EN"
 "http://www.w3.org/Graphics/SVG/1.1/DTD/svg11.dtd">
<!-- Generated by graphviz version 2.43.0 (0)
 -->
<!-- Title: mdomPrimaryGeneratorMessenger Pages: 1 -->
<svg width="373pt" height="152pt"
 viewBox="0.00 0.00 372.50 152.00" xmlns="http://www.w3.org/2000/svg" xmlns:xlink="http://www.w3.org/1999/xlink">
<g id="graph0" class="graph" transform="scale(1 1) rotate(0) translate(4 148)">
<title>mdomPrimaryGeneratorMessenger</title>
<polygon fill="white" stroke="transparent" points="-4,4 -4,-148 368.5,-148 368.5,4 -4,4"/>
<!-- Node1 -->
<g id="node1" class="node">
<title>Node1</title>
<g id="a_node1"><a xlink:title=" ">
<polygon fill="#bfbfbf" stroke="black" points="176.5,-67.5 176.5,-86.5 364.5,-86.5 364.5,-67.5 176.5,-67.5"/>
<text text-anchor="middle" x="270.5" y="-74.5" font-family="Helvetica,sans-Serif" font-size="10.00">mdomPrimaryGeneratorMessenger</text>
</a>
</g>
</g>
<!-- Node3 -->
<g id="node3" class="node">
<title>Node3</title>
<g id="a_node3"><a xlink:href="classmdom_primary_generator_action.html" target="_top" xlink:title=" ">
<polygon fill="white" stroke="black" points="57.5,-0.5 57.5,-19.5 223.5,-19.5 223.5,-0.5 57.5,-0.5"/>
<text text-anchor="middle" x="140.5" y="-7.5" font-family="Helvetica,sans-Serif" font-size="10.00">mdomPrimaryGeneratorAction</text>
</a>
</g>
</g>
<!-- Node1&#45;&gt;Node3 -->
<g id="edge6" class="edge">
<title>Node1&#45;&gt;Node3</title>
<path fill="none" stroke="#9a32cd" stroke-dasharray="5,2" d="M206.13,-64.69C194.04,-60.87 181.93,-55.78 171.5,-49 159.94,-41.48 150.59,-28.26 145.29,-19.57"/>
<polygon fill="#9a32cd" stroke="#9a32cd" points="205.21,-68.07 215.79,-67.48 207.16,-61.34 205.21,-68.07"/>
<text text-anchor="middle" x="211.5" y="-41" font-family="Helvetica,sans-Serif" font-size="10.00"> fGunMessenger</text>
</g>
<!-- Node2 -->
<g id="node2" class="node">
<title>Node2</title>
<g id="a_node2"><a xlink:title=" ">
<polygon fill="white" stroke="#bfbfbf" points="223,-124.5 223,-143.5 318,-143.5 318,-124.5 223,-124.5"/>
<text text-anchor="middle" x="270.5" y="-131.5" font-family="Helvetica,sans-Serif" font-size="10.00">G4UImessenger</text>
</a>
</g>
</g>
<!-- Node2&#45;&gt;Node1 -->
<g id="edge1" class="edge">
<title>Node2&#45;&gt;Node1</title>
<path fill="none" stroke="midnightblue" d="M270.5,-114.12C270.5,-104.82 270.5,-94.06 270.5,-86.71"/>
<polygon fill="midnightblue" stroke="midnightblue" points="267,-114.41 270.5,-124.41 274,-114.41 267,-114.41"/>
</g>
<!-- Node3&#45;&gt;Node1 -->
<g id="edge2" class="edge">
<title>Node3&#45;&gt;Node1</title>
<path fill="none" stroke="#9a32cd" stroke-dasharray="5,2" d="M231.06,-23.15C239.94,-26.93 248.3,-31.78 255.5,-38 264.19,-45.51 267.89,-58.73 269.43,-67.43"/>
<polygon fill="#9a32cd" stroke="#9a32cd" points="232.25,-19.86 221.66,-19.59 229.78,-26.41 232.25,-19.86"/>
<text text-anchor="middle" x="280.5" y="-41" font-family="Helvetica,sans-Serif" font-size="10.00"> Action</text>
</g>
<!-- Node4 -->
<g id="node4" class="node">
<title>Node4</title>
<g id="a_node4"><a xlink:title=" ">
<polygon fill="white" stroke="#bfbfbf" points="0,-124.5 0,-143.5 177,-143.5 177,-124.5 0,-124.5"/>
<text text-anchor="middle" x="88.5" y="-131.5" font-family="Helvetica,sans-Serif" font-size="10.00">G4VUserPrimaryGeneratorAction</text>
</a>
</g>
</g>
<!-- Node4&#45;&gt;Node3 -->
<g id="edge3" class="edge">
<title>Node4&#45;&gt;Node3</title>
<path fill="none" stroke="midnightblue" d="M77.32,-115.37C70.21,-101.79 63.53,-82.73 70.5,-67 80.4,-44.66 104.49,-28.66 121.63,-19.63"/>
<polygon fill="midnightblue" stroke="midnightblue" points="74.37,-117.25 82.39,-124.17 80.43,-113.76 74.37,-117.25"/>
</g>
<!-- Node5 -->
<g id="node5" class="node">
<title>Node5</title>
<g id="a_node5"><a xlink:href="class_o_m_sim_i_b_d.html" target="_top" xlink:title="Class in charge of generating positrons from IBD of supernova antineutrino interactions.">
<polygon fill="white" stroke="black" points="80,-67.5 80,-86.5 149,-86.5 149,-67.5 80,-67.5"/>
<text text-anchor="middle" x="114.5" y="-74.5" font-family="Helvetica,sans-Serif" font-size="10.00">OMSimIBD</text>
</a>
</g>
</g>
<!-- Node4&#45;&gt;Node5 -->
<g id="edge5" class="edge">
<title>Node4&#45;&gt;Node5</title>
<path fill="none" stroke="midnightblue" d="M96.85,-115.33C101.37,-105.77 106.76,-94.38 110.38,-86.71"/>
<polygon fill="midnightblue" stroke="midnightblue" points="93.67,-113.87 92.56,-124.41 100,-116.86 93.67,-113.87"/>
</g>
<!-- Node5&#45;&gt;Node3 -->
<g id="edge4" class="edge">
<title>Node5&#45;&gt;Node3</title>
<path fill="none" stroke="#9a32cd" stroke-dasharray="5,2" d="M107.39,-57.6C105.99,-51.17 105.69,-44.05 108.5,-38 112.05,-30.35 118.96,-24.09 125.44,-19.53"/>
<polygon fill="#9a32cd" stroke="#9a32cd" points="104.15,-58.95 110.46,-67.46 110.83,-56.87 104.15,-58.95"/>
<text text-anchor="middle" x="130.5" y="-41" font-family="Helvetica,sans-Serif" font-size="10.00"> fAction0</text>
</g>
</g>
</svg>
