<?xml version="1.0" encoding="UTF-8" standalone="no"?>
<!DOCTYPE svg PUBLIC "-//W3C//DTD SVG 1.1//EN"
 "http://www.w3.org/Graphics/SVG/1.1/DTD/svg11.dtd">
<!-- Generated by graphviz version 2.43.0 (0)
 -->
<!-- Title: mdomPrimaryGeneratorMessenger Pages: 1 -->
<svg width="410pt" height="152pt"
 viewBox="0.00 0.00 409.50 152.00" xmlns="http://www.w3.org/2000/svg" xmlns:xlink="http://www.w3.org/1999/xlink">
<g id="graph0" class="graph" transform="scale(1 1) rotate(0) translate(4 148)">
<title>mdomPrimaryGeneratorMessenger</title>
<polygon fill="white" stroke="transparent" points="-4,4 -4,-148 405.5,-148 405.5,4 -4,4"/>
<!-- Node1 -->
<g id="node1" class="node">
<title>Node1</title>
<g id="a_node1"><a xlink:title=" ">
<polygon fill="#bfbfbf" stroke="black" points="213.5,-67.5 213.5,-86.5 401.5,-86.5 401.5,-67.5 213.5,-67.5"/>
<text text-anchor="middle" x="307.5" y="-74.5" font-family="Helvetica,sans-Serif" font-size="10.00">mdomPrimaryGeneratorMessenger</text>
</a>
</g>
</g>
<!-- Node3 -->
<g id="node3" class="node">
<title>Node3</title>
<g id="a_node3"><a xlink:href="class_o_m_sim_primary_generator_action.html" target="_top" xlink:title=" ">
<polygon fill="white" stroke="black" points="52.5,-0.5 52.5,-19.5 222.5,-19.5 222.5,-0.5 52.5,-0.5"/>
<text text-anchor="middle" x="137.5" y="-7.5" font-family="Helvetica,sans-Serif" font-size="10.00">OMSimPrimaryGeneratorAction</text>
</a>
</g>
</g>
<!-- Node1&#45;&gt;Node3 -->
<g id="edge7" class="edge">
<title>Node1&#45;&gt;Node3</title>
<path fill="none" stroke="#9a32cd" stroke-dasharray="5,2" d="M252.11,-65.06C235.51,-60.95 217.48,-55.62 201.5,-49 200.19,-48.46 170.43,-30.7 151.96,-19.65"/>
<polygon fill="#9a32cd" stroke="#9a32cd" points="251.69,-68.56 262.23,-67.47 253.31,-61.75 251.69,-68.56"/>
<text text-anchor="middle" x="241.5" y="-41" font-family="Helvetica,sans-Serif" font-size="10.00"> fGunMessenger</text>
</g>
<!-- Node2 -->
<g id="node2" class="node">
<title>Node2</title>
<g id="a_node2"><a xlink:title=" ">
<polygon fill="white" stroke="#bfbfbf" points="260,-124.5 260,-143.5 355,-143.5 355,-124.5 260,-124.5"/>
<text text-anchor="middle" x="307.5" y="-131.5" font-family="Helvetica,sans-Serif" font-size="10.00">G4UImessenger</text>
</a>
</g>
</g>
<!-- Node2&#45;&gt;Node1 -->
<g id="edge1" class="edge">
<title>Node2&#45;&gt;Node1</title>
<path fill="none" stroke="midnightblue" d="M307.5,-114.12C307.5,-104.82 307.5,-94.06 307.5,-86.71"/>
<polygon fill="midnightblue" stroke="midnightblue" points="304,-114.41 307.5,-124.41 311,-114.41 304,-114.41"/>
</g>
<!-- Node3&#45;&gt;Node1 -->
<g id="edge2" class="edge">
<title>Node3&#45;&gt;Node1</title>
<path fill="none" stroke="#9a32cd" stroke-dasharray="5,2" d="M227.52,-21.15C252.4,-25.31 275.36,-30.87 285.5,-38 295.6,-45.11 301.73,-58.44 304.86,-67.27"/>
<polygon fill="#9a32cd" stroke="#9a32cd" points="227.96,-17.67 217.54,-19.56 226.86,-24.59 227.96,-17.67"/>
<text text-anchor="middle" x="312.5" y="-41" font-family="Helvetica,sans-Serif" font-size="10.00"> Action</text>
</g>
<!-- Node4 -->
<g id="node4" class="node">
<title>Node4</title>
<g id="a_node4"><a xlink:title=" ">
<polygon fill="white" stroke="#bfbfbf" points="0,-124.5 0,-143.5 177,-143.5 177,-124.5 0,-124.5"/>
<text text-anchor="middle" x="88.5" y="-131.5" font-family="Helvetica,sans-Serif" font-size="10.00">G4VUserPrimaryGeneratorAction</text>
</a>
</g>
</g>
<!-- Node4&#45;&gt;Node3 -->
<g id="edge3" class="edge">
<title>Node4&#45;&gt;Node3</title>
<path fill="none" stroke="midnightblue" d="M90.91,-114.55C98.93,-87.83 118.82,-39.4 130.32,-19.69"/>
<polygon fill="midnightblue" stroke="midnightblue" points="87.52,-113.66 88.32,-124.23 94.29,-115.47 87.52,-113.66"/>
</g>
<!-- Node4&#45;&gt;Node3 -->
<g id="edge4" class="edge">
<title>Node4&#45;&gt;Node3</title>
<path fill="none" stroke="midnightblue" d="M100.56,-115.26C114.01,-88.69 133.33,-39.58 137.7,-19.69"/>
<polygon fill="midnightblue" stroke="midnightblue" points="97.38,-113.76 95.73,-124.23 103.55,-117.08 97.38,-113.76"/>
</g>
<!-- Node5 -->
<g id="node5" class="node">
<title>Node5</title>
<g id="a_node5"><a xlink:href="class_o_m_sim_i_b_d.html" target="_top" xlink:title="Class in charge of generating positrons from IBD of supernova antineutrino interactions.">
<polygon fill="white" stroke="black" points="126,-67.5 126,-86.5 195,-86.5 195,-67.5 126,-67.5"/>
<text text-anchor="middle" x="160.5" y="-74.5" font-family="Helvetica,sans-Serif" font-size="10.00">OMSimIBD</text>
</a>
</g>
</g>
<!-- Node4&#45;&gt;Node5 -->
<g id="edge6" class="edge">
<title>Node4&#45;&gt;Node5</title>
<path fill="none" stroke="midnightblue" d="M107.76,-118.29C120.95,-108.21 138,-95.19 149.09,-86.71"/>
<polygon fill="midnightblue" stroke="midnightblue" points="105.57,-115.55 99.75,-124.41 109.82,-121.12 105.57,-115.55"/>
</g>
<!-- Node5&#45;&gt;Node3 -->
<g id="edge5" class="edge">
<title>Node5&#45;&gt;Node3</title>
<path fill="none" stroke="#9a32cd" stroke-dasharray="5,2" d="M144.41,-59.62C142.01,-56.34 139.88,-52.73 138.5,-49 134.97,-39.47 135.32,-27.65 136.17,-19.75"/>
<polygon fill="#9a32cd" stroke="#9a32cd" points="141.93,-62.11 151.06,-67.47 147.27,-57.58 141.93,-62.11"/>
<text text-anchor="middle" x="160.5" y="-41" font-family="Helvetica,sans-Serif" font-size="10.00"> fAction0</text>
</g>
</g>
</svg>
