<?xml version="1.0" encoding="UTF-8" standalone="no"?>
<!DOCTYPE svg PUBLIC "-//W3C//DTD SVG 1.1//EN"
 "http://www.w3.org/Graphics/SVG/1.1/DTD/svg11.dtd">
<!-- Generated by graphviz version 2.43.0 (0)
 -->
<!-- Title: OMSimPrimaryGeneratorAction Pages: 1 -->
<svg width="404pt" height="229pt"
 viewBox="0.00 0.00 403.50 229.00" xmlns="http://www.w3.org/2000/svg" xmlns:xlink="http://www.w3.org/1999/xlink">
<g id="graph0" class="graph" transform="scale(1 1) rotate(0) translate(4 225)">
<title>OMSimPrimaryGeneratorAction</title>
<polygon fill="white" stroke="transparent" points="-4,4 -4,-225 399.5,-225 399.5,4 -4,4"/>
<!-- Node1 -->
<g id="node1" class="node">
<title>Node1</title>
<g id="a_node1"><a xlink:title=" ">
<polygon fill="#bfbfbf" stroke="black" points="113.5,-67.5 113.5,-86.5 283.5,-86.5 283.5,-67.5 113.5,-67.5"/>
<text text-anchor="middle" x="198.5" y="-74.5" font-family="Helvetica,sans-Serif" font-size="10.00">OMSimPrimaryGeneratorAction</text>
</a>
</g>
</g>
<!-- Node5 -->
<g id="node5" class="node">
<title>Node5</title>
<g id="a_node5"><a xlink:href="classmdom_primary_generator_messenger.html" target="_top" xlink:title=" ">
<polygon fill="white" stroke="black" points="47.5,-0.5 47.5,-19.5 235.5,-19.5 235.5,-0.5 47.5,-0.5"/>
<text text-anchor="middle" x="141.5" y="-7.5" font-family="Helvetica,sans-Serif" font-size="10.00">mdomPrimaryGeneratorMessenger</text>
</a>
</g>
</g>
<!-- Node1&#45;&gt;Node5 -->
<g id="edge9" class="edge">
<title>Node1&#45;&gt;Node5</title>
<path fill="none" stroke="#9a32cd" stroke-dasharray="5,2" d="M153.33,-62.84C147.46,-59.27 142.21,-54.74 138.5,-49 132.82,-40.22 135.3,-27.8 138.02,-19.58"/>
<polygon fill="#9a32cd" stroke="#9a32cd" points="151.77,-65.97 162.26,-67.42 154.96,-59.74 151.77,-65.97"/>
<text text-anchor="middle" x="155.5" y="-41" font-family="Helvetica,sans-Serif" font-size="10.00"> Action</text>
</g>
<!-- Node2 -->
<g id="node2" class="node">
<title>Node2</title>
<g id="a_node2"><a xlink:title=" ">
<polygon fill="white" stroke="#bfbfbf" points="110,-201.5 110,-220.5 287,-220.5 287,-201.5 110,-201.5"/>
<text text-anchor="middle" x="198.5" y="-208.5" font-family="Helvetica,sans-Serif" font-size="10.00">G4VUserPrimaryGeneratorAction</text>
</a>
</g>
</g>
<!-- Node2&#45;&gt;Node1 -->
<g id="edge1" class="edge">
<title>Node2&#45;&gt;Node1</title>
<path fill="none" stroke="midnightblue" d="M188.81,-191.66C182.97,-162.73 183.84,-107.63 191.43,-86.52"/>
<polygon fill="midnightblue" stroke="midnightblue" points="185.43,-192.57 191.38,-201.34 192.2,-190.78 185.43,-192.57"/>
</g>
<!-- Node2&#45;&gt;Node1 -->
<g id="edge2" class="edge">
<title>Node2&#45;&gt;Node1</title>
<path fill="none" stroke="midnightblue" d="M198.5,-191.28C198.5,-162.25 198.5,-107.54 198.5,-86.52"/>
<polygon fill="midnightblue" stroke="midnightblue" points="195,-191.34 198.5,-201.34 202,-191.34 195,-191.34"/>
</g>
<!-- Node2&#45;&gt;Node1 -->
<g id="edge3" class="edge">
<title>Node2&#45;&gt;Node1</title>
<path fill="none" stroke="midnightblue" d="M208.19,-191.66C214.03,-162.73 213.16,-107.63 205.57,-86.52"/>
<polygon fill="midnightblue" stroke="midnightblue" points="204.8,-190.78 205.62,-201.34 211.57,-192.57 204.8,-190.78"/>
</g>
<!-- Node3 -->
<g id="node3" class="node">
<title>Node3</title>
<g id="a_node3"><a xlink:href="class_o_m_sim_i_b_d.html" target="_top" xlink:title="Class in charge of generating positrons from IBD of supernova antineutrino interactions.">
<polygon fill="white" stroke="black" points="245,-134.5 245,-153.5 314,-153.5 314,-134.5 245,-134.5"/>
<text text-anchor="middle" x="279.5" y="-141.5" font-family="Helvetica,sans-Serif" font-size="10.00">OMSimIBD</text>
</a>
</g>
</g>
<!-- Node2&#45;&gt;Node3 -->
<g id="edge5" class="edge">
<title>Node2&#45;&gt;Node3</title>
<path fill="none" stroke="midnightblue" d="M217.55,-194.71C233.51,-181.91 255.71,-164.09 268.75,-153.63"/>
<polygon fill="midnightblue" stroke="midnightblue" points="215.03,-192.25 209.42,-201.23 219.41,-197.7 215.03,-192.25"/>
</g>
<!-- Node3&#45;&gt;Node1 -->
<g id="edge4" class="edge">
<title>Node3&#45;&gt;Node1</title>
<path fill="none" stroke="#9a32cd" stroke-dasharray="5,2" d="M260.45,-127.71C244.49,-114.91 222.29,-97.09 209.25,-86.63"/>
<polygon fill="#9a32cd" stroke="#9a32cd" points="258.59,-130.7 268.58,-134.23 262.97,-125.25 258.59,-130.7"/>
<text text-anchor="middle" x="266.5" y="-108" font-family="Helvetica,sans-Serif" font-size="10.00"> fAction0</text>
</g>
<!-- Node4 -->
<g id="node4" class="node">
<title>Node4</title>
<g id="a_node4"><a xlink:href="class_o_m_sim_s_n_tools.html" target="_top" xlink:title="Provides utility methods for generating ENES and IBD interactions.">
<polygon fill="white" stroke="black" points="305.5,-201.5 305.5,-220.5 395.5,-220.5 395.5,-201.5 305.5,-201.5"/>
<text text-anchor="middle" x="350.5" y="-208.5" font-family="Helvetica,sans-Serif" font-size="10.00">OMSimSNTools</text>
</a>
</g>
</g>
<!-- Node4&#45;&gt;Node3 -->
<g id="edge6" class="edge">
<title>Node4&#45;&gt;Node3</title>
<path fill="none" stroke="#9a32cd" stroke-dasharray="5,2" d="M333.41,-194.36C319.45,-181.58 300.24,-163.99 288.92,-153.63"/>
<polygon fill="#9a32cd" stroke="#9a32cd" points="331.19,-197.06 340.92,-201.23 335.91,-191.9 331.19,-197.06"/>
<text text-anchor="middle" x="352" y="-175" font-family="Helvetica,sans-Serif" font-size="10.00"> mSNToolBox</text>
</g>
<!-- Node5&#45;&gt;Node1 -->
<g id="edge7" class="edge">
<title>Node5&#45;&gt;Node1</title>
<path fill="none" stroke="#9a32cd" stroke-dasharray="5,2" d="M163.33,-25.73C167.98,-29.42 172.64,-33.6 176.5,-38 184.33,-46.95 190.79,-59.1 194.64,-67.23"/>
<polygon fill="#9a32cd" stroke="#9a32cd" points="165.27,-22.81 155.16,-19.66 161.1,-28.43 165.27,-22.81"/>
<text text-anchor="middle" x="224.5" y="-41" font-family="Helvetica,sans-Serif" font-size="10.00"> fGunMessenger</text>
</g>
<!-- Node6 -->
<g id="node6" class="node">
<title>Node6</title>
<g id="a_node6"><a xlink:title=" ">
<polygon fill="white" stroke="#bfbfbf" points="0,-67.5 0,-86.5 95,-86.5 95,-67.5 0,-67.5"/>
<text text-anchor="middle" x="47.5" y="-74.5" font-family="Helvetica,sans-Serif" font-size="10.00">G4UImessenger</text>
</a>
</g>
</g>
<!-- Node6&#45;&gt;Node5 -->
<g id="edge8" class="edge">
<title>Node6&#45;&gt;Node5</title>
<path fill="none" stroke="midnightblue" d="M68.59,-61.42C87.17,-48.57 113.62,-30.28 129.02,-19.63"/>
<polygon fill="midnightblue" stroke="midnightblue" points="66.41,-58.67 60.18,-67.23 70.39,-64.43 66.41,-58.67"/>
</g>
</g>
</svg>
