<?xml version="1.0" encoding="UTF-8" standalone="no"?>
<!DOCTYPE svg PUBLIC "-//W3C//DTD SVG 1.1//EN"
 "http://www.w3.org/Graphics/SVG/1.1/DTD/svg11.dtd">
<!-- Generated by graphviz version 2.43.0 (0)
 -->
<!-- Title: OMSimDetectorConstruction Pages: 1 -->
<svg width="445pt" height="343pt"
 viewBox="0.00 0.00 444.50 343.00" xmlns="http://www.w3.org/2000/svg" xmlns:xlink="http://www.w3.org/1999/xlink">
<g id="graph0" class="graph" transform="scale(1 1) rotate(0) translate(4 339)">
<title>OMSimDetectorConstruction</title>
<polygon fill="white" stroke="transparent" points="-4,4 -4,-339 440.5,-339 440.5,4 -4,4"/>
<!-- Node1 -->
<g id="node1" class="node">
<title>Node1</title>
<g id="a_node1"><a xlink:title="Class for detector construction in the effective area simulation.">
<polygon fill="#bfbfbf" stroke="black" points="4,-0.5 4,-19.5 159,-19.5 159,-0.5 4,-0.5"/>
<text text-anchor="middle" x="81.5" y="-7.5" font-family="Helvetica,sans-Serif" font-size="10.00">OMSimDetectorConstruction</text>
</a>
</g>
</g>
<!-- Node2 -->
<g id="node2" class="node">
<title>Node2</title>
<g id="a_node2"><a xlink:title=" ">
<polygon fill="white" stroke="#bfbfbf" points="0,-67.5 0,-86.5 163,-86.5 163,-67.5 0,-67.5"/>
<text text-anchor="middle" x="81.5" y="-74.5" font-family="Helvetica,sans-Serif" font-size="10.00">G4VUserDetectorConstruction</text>
</a>
</g>
</g>
<!-- Node2&#45;&gt;Node1 -->
<g id="edge1" class="edge">
<title>Node2&#45;&gt;Node1</title>
<path fill="none" stroke="midnightblue" d="M69.17,-57.41C66.95,-44.99 67.89,-29.22 71.98,-19.63"/>
<polygon fill="midnightblue" stroke="midnightblue" points="65.85,-58.55 71.92,-67.23 72.59,-56.66 65.85,-58.55"/>
</g>
<!-- Node2&#45;&gt;Node1 -->
<g id="edge2" class="edge">
<title>Node2&#45;&gt;Node1</title>
<path fill="none" stroke="midnightblue" d="M81.5,-57.04C81.5,-44.67 81.5,-29.12 81.5,-19.63"/>
<polygon fill="midnightblue" stroke="midnightblue" points="78,-57.23 81.5,-67.23 85,-57.23 78,-57.23"/>
</g>
<!-- Node2&#45;&gt;Node1 -->
<g id="edge3" class="edge">
<title>Node2&#45;&gt;Node1</title>
<path fill="none" stroke="midnightblue" d="M93.83,-57.41C96.05,-44.99 95.11,-29.22 91.02,-19.63"/>
<polygon fill="midnightblue" stroke="midnightblue" points="90.41,-56.66 91.08,-67.23 97.15,-58.55 90.41,-56.66"/>
</g>
<!-- Node3 -->
<g id="node3" class="node">
<title>Node3</title>
<g id="a_node3"><a xlink:href="class_optical_module.html" target="_top" xlink:title="Base class for OMs works as interface.">
<polygon fill="white" stroke="black" points="231,-67.5 231,-86.5 318,-86.5 318,-67.5 231,-67.5"/>
<text text-anchor="middle" x="274.5" y="-74.5" font-family="Helvetica,sans-Serif" font-size="10.00">OpticalModule</text>
</a>
</g>
</g>
<!-- Node3&#45;&gt;Node1 -->
<g id="edge4" class="edge">
<title>Node3&#45;&gt;Node1</title>
<path fill="none" stroke="#9a32cd" stroke-dasharray="5,2" d="M252.52,-61.75C239.34,-53.76 221.99,-44.18 205.5,-38 183.74,-29.84 158.85,-23.82 137.11,-19.56"/>
<polygon fill="#9a32cd" stroke="#9a32cd" points="250.97,-64.91 261.31,-67.22 254.67,-58.96 250.97,-64.91"/>
<text text-anchor="middle" x="271.5" y="-41" font-family="Helvetica,sans-Serif" font-size="10.00"> mOpticalModule</text>
</g>
<!-- Node4 -->
<g id="node4" class="node">
<title>Node4</title>
<g id="a_node4"><a xlink:href="classabc_detector_component.html" target="_top" xlink:title="Abstract base class used for constructing detector components.">
<polygon fill="white" stroke="black" points="219.5,-191.5 219.5,-210.5 351.5,-210.5 351.5,-191.5 219.5,-191.5"/>
<text text-anchor="middle" x="285.5" y="-198.5" font-family="Helvetica,sans-Serif" font-size="10.00">abcDetectorComponent</text>
</a>
</g>
</g>
<!-- Node4&#45;&gt;Node3 -->
<g id="edge5" class="edge">
<title>Node4&#45;&gt;Node3</title>
<path fill="none" stroke="midnightblue" d="M283.8,-181.19C281.39,-154.4 277.05,-106.31 275.28,-86.69"/>
<polygon fill="midnightblue" stroke="midnightblue" points="280.32,-181.58 284.71,-191.23 287.3,-180.95 280.32,-181.58"/>
</g>
<!-- Node7 -->
<g id="node7" class="node">
<title>Node7</title>
<g id="a_node7"><a xlink:href="class_o_m_sim_p_m_t_construction.html" target="_top" xlink:title=" ">
<polygon fill="white" stroke="black" points="302.5,-134.5 302.5,-153.5 436.5,-153.5 436.5,-134.5 302.5,-134.5"/>
<text text-anchor="middle" x="369.5" y="-141.5" font-family="Helvetica,sans-Serif" font-size="10.00">OMSimPMTConstruction</text>
</a>
</g>
</g>
<!-- Node4&#45;&gt;Node7 -->
<g id="edge9" class="edge">
<title>Node4&#45;&gt;Node7</title>
<path fill="none" stroke="midnightblue" d="M307.15,-185.82C322.76,-175.61 343.31,-162.15 356.47,-153.53"/>
<polygon fill="midnightblue" stroke="midnightblue" points="305.07,-183 298.62,-191.41 308.91,-188.86 305.07,-183"/>
</g>
<!-- Node5 -->
<g id="node5" class="node">
<title>Node5</title>
<g id="a_node5"><a xlink:href="class_input_data_manager.html" target="_top" xlink:title=" ">
<polygon fill="white" stroke="black" points="232,-258.5 232,-277.5 339,-277.5 339,-258.5 232,-258.5"/>
<text text-anchor="middle" x="285.5" y="-265.5" font-family="Helvetica,sans-Serif" font-size="10.00">InputDataManager</text>
</a>
</g>
</g>
<!-- Node5&#45;&gt;Node1 -->
<g id="edge11" class="edge">
<title>Node5&#45;&gt;Node1</title>
<path fill="none" stroke="#9a32cd" stroke-dasharray="5,2" d="M241.91,-254.94C217.33,-245.2 191.5,-228.62 191.5,-202 191.5,-202 191.5,-202 191.5,-76 191.5,-44.61 157.89,-28.06 127.83,-19.54"/>
<polygon fill="#9a32cd" stroke="#9a32cd" points="240.97,-258.32 251.56,-258.47 243.37,-251.75 240.97,-258.32"/>
<text text-anchor="middle" x="210" y="-141.5" font-family="Helvetica,sans-Serif" font-size="10.00"> mData</text>
</g>
<!-- Node5&#45;&gt;Node4 -->
<g id="edge6" class="edge">
<title>Node5&#45;&gt;Node4</title>
<path fill="none" stroke="#9a32cd" stroke-dasharray="5,2" d="M285.5,-248.04C285.5,-235.67 285.5,-220.12 285.5,-210.63"/>
<polygon fill="#9a32cd" stroke="#9a32cd" points="282,-248.23 285.5,-258.23 289,-248.23 282,-248.23"/>
<text text-anchor="middle" x="304" y="-232" font-family="Helvetica,sans-Serif" font-size="10.00"> mData</text>
</g>
<!-- Node5&#45;&gt;Node7 -->
<g id="edge10" class="edge">
<title>Node5&#45;&gt;Node7</title>
<path fill="none" stroke="#9a32cd" stroke-dasharray="5,2" d="M313.83,-253.66C330.46,-244.23 350.18,-229.89 360.5,-211 370.59,-192.53 370.88,-166.96 370.21,-153.73"/>
<polygon fill="#9a32cd" stroke="#9a32cd" points="312.15,-250.59 304.99,-258.4 315.45,-256.76 312.15,-250.59"/>
<text text-anchor="middle" x="386" y="-198.5" font-family="Helvetica,sans-Serif" font-size="10.00"> mData</text>
</g>
<!-- Node6 -->
<g id="node6" class="node">
<title>Node6</title>
<g id="a_node6"><a xlink:href="class_parameter_table.html" target="_top" xlink:title=" ">
<polygon fill="white" stroke="black" points="239.5,-315.5 239.5,-334.5 331.5,-334.5 331.5,-315.5 239.5,-315.5"/>
<text text-anchor="middle" x="285.5" y="-322.5" font-family="Helvetica,sans-Serif" font-size="10.00">ParameterTable</text>
</a>
</g>
</g>
<!-- Node6&#45;&gt;Node5 -->
<g id="edge7" class="edge">
<title>Node6&#45;&gt;Node5</title>
<path fill="none" stroke="midnightblue" d="M285.5,-305.12C285.5,-295.82 285.5,-285.06 285.5,-277.71"/>
<polygon fill="midnightblue" stroke="midnightblue" points="282,-305.41 285.5,-315.41 289,-305.41 282,-305.41"/>
</g>
<!-- Node7&#45;&gt;Node3 -->
<g id="edge8" class="edge">
<title>Node7&#45;&gt;Node3</title>
<path fill="none" stroke="#9a32cd" stroke-dasharray="5,2" d="M348.19,-128.42C329.41,-115.57 302.68,-97.28 287.11,-86.63"/>
<polygon fill="#9a32cd" stroke="#9a32cd" points="346.46,-131.48 356.69,-134.23 350.41,-125.7 346.46,-131.48"/>
<text text-anchor="middle" x="366" y="-108" font-family="Helvetica,sans-Serif" font-size="10.00"> mPMTManager</text>
</g>
</g>
</svg>
