<?xml version="1.0" encoding="UTF-8" standalone="no"?>
<!DOCTYPE svg PUBLIC "-//W3C//DTD SVG 1.1//EN"
 "http://www.w3.org/Graphics/SVG/1.1/DTD/svg11.dtd">
<!-- Generated by graphviz version 2.43.0 (0)
 -->
<!-- Title: DEGG Pages: 1 -->
<svg width="240pt" height="400pt"
 viewBox="0.00 0.00 240.00 400.00" xmlns="http://www.w3.org/2000/svg" xmlns:xlink="http://www.w3.org/1999/xlink">
<g id="graph0" class="graph" transform="scale(1 1) rotate(0) translate(4 396)">
<title>DEGG</title>
<polygon fill="white" stroke="transparent" points="-4,4 -4,-396 236,-396 236,4 -4,4"/>
<!-- Node1 -->
<g id="node1" class="node">
<title>Node1</title>
<g id="a_node1"><a xlink:title="Construction of the DEGG detector geometry.">
<polygon fill="#bfbfbf" stroke="black" points="99.5,-67.5 99.5,-86.5 144.5,-86.5 144.5,-67.5 99.5,-67.5"/>
<text text-anchor="middle" x="122" y="-74.5" font-family="Helvetica,sans-Serif" font-size="10.00">DEGG</text>
</a>
</g>
</g>
<!-- Node7 -->
<g id="node7" class="node">
<title>Node7</title>
<g id="a_node7"><a xlink:href="class_d_egg_harness.html" target="_top" xlink:title=" ">
<polygon fill="white" stroke="black" points="24,-0.5 24,-19.5 106,-19.5 106,-0.5 24,-0.5"/>
<text text-anchor="middle" x="65" y="-7.5" font-family="Helvetica,sans-Serif" font-size="10.00">DEggHarness</text>
</a>
</g>
</g>
<!-- Node1&#45;&gt;Node7 -->
<g id="edge10" class="edge">
<title>Node1&#45;&gt;Node7</title>
<path fill="none" stroke="#9a32cd" stroke-dasharray="5,2" d="M124.14,-57.22C124,-50.66 122.74,-43.55 119,-38 113.32,-29.57 104.19,-23.65 95.04,-19.55"/>
<polygon fill="#9a32cd" stroke="#9a32cd" points="120.64,-57.19 123.59,-67.37 127.63,-57.58 120.64,-57.19"/>
<text text-anchor="middle" x="138" y="-41" font-family="Helvetica,sans-Serif" font-size="10.00"> mOM</text>
</g>
<!-- Node2 -->
<g id="node2" class="node">
<title>Node2</title>
<g id="a_node2"><a xlink:href="class_optical_module.html" target="_top" xlink:title="Base class for OMs works as interface.">
<polygon fill="white" stroke="black" points="78.5,-124.5 78.5,-143.5 165.5,-143.5 165.5,-124.5 78.5,-124.5"/>
<text text-anchor="middle" x="122" y="-131.5" font-family="Helvetica,sans-Serif" font-size="10.00">OpticalModule</text>
</a>
</g>
</g>
<!-- Node2&#45;&gt;Node1 -->
<g id="edge1" class="edge">
<title>Node2&#45;&gt;Node1</title>
<path fill="none" stroke="midnightblue" d="M122,-114.12C122,-104.82 122,-94.06 122,-86.71"/>
<polygon fill="midnightblue" stroke="midnightblue" points="118.5,-114.41 122,-124.41 125.5,-114.41 118.5,-114.41"/>
</g>
<!-- Node3 -->
<g id="node3" class="node">
<title>Node3</title>
<g id="a_node3"><a xlink:href="classabc_detector_component.html" target="_top" xlink:title="Abstract base class used for constructing detector components.">
<polygon fill="white" stroke="black" points="0,-248.5 0,-267.5 132,-267.5 132,-248.5 0,-248.5"/>
<text text-anchor="middle" x="66" y="-255.5" font-family="Helvetica,sans-Serif" font-size="10.00">abcDetectorComponent</text>
</a>
</g>
</g>
<!-- Node3&#45;&gt;Node2 -->
<g id="edge2" class="edge">
<title>Node3&#45;&gt;Node2</title>
<path fill="none" stroke="midnightblue" d="M71.43,-238.3C75.59,-224.87 81.83,-206.48 89,-191 97.07,-173.59 108.97,-154.61 116.06,-143.82"/>
<polygon fill="midnightblue" stroke="midnightblue" points="67.97,-237.66 68.45,-248.24 74.68,-239.67 67.97,-237.66"/>
</g>
<!-- Node6 -->
<g id="node6" class="node">
<title>Node6</title>
<g id="a_node6"><a xlink:href="class_o_m_sim_p_m_t_construction.html" target="_top" xlink:title=" ">
<polygon fill="white" stroke="black" points="98,-191.5 98,-210.5 232,-210.5 232,-191.5 98,-191.5"/>
<text text-anchor="middle" x="165" y="-198.5" font-family="Helvetica,sans-Serif" font-size="10.00">OMSimPMTConstruction</text>
</a>
</g>
</g>
<!-- Node3&#45;&gt;Node6 -->
<g id="edge6" class="edge">
<title>Node3&#45;&gt;Node6</title>
<path fill="none" stroke="midnightblue" d="M90.24,-243.54C108.77,-233.24 133.77,-219.35 149.64,-210.53"/>
<polygon fill="midnightblue" stroke="midnightblue" points="88.51,-240.49 81.47,-248.41 91.91,-246.61 88.51,-240.49"/>
</g>
<!-- Node3&#45;&gt;Node7 -->
<g id="edge9" class="edge">
<title>Node3&#45;&gt;Node7</title>
<path fill="none" stroke="midnightblue" d="M49.34,-240.68C40.73,-230.48 32,-216.56 32,-202 32,-202 32,-202 32,-76 32,-53.73 47.6,-31.36 57.35,-19.55"/>
<polygon fill="midnightblue" stroke="midnightblue" points="47,-243.31 56.35,-248.3 52.15,-238.57 47,-243.31"/>
</g>
<!-- Node4 -->
<g id="node4" class="node">
<title>Node4</title>
<g id="a_node4"><a xlink:href="class_input_data_manager.html" target="_top" xlink:title=" ">
<polygon fill="white" stroke="black" points="63.5,-315.5 63.5,-334.5 170.5,-334.5 170.5,-315.5 63.5,-315.5"/>
<text text-anchor="middle" x="117" y="-322.5" font-family="Helvetica,sans-Serif" font-size="10.00">InputDataManager</text>
</a>
</g>
</g>
<!-- Node4&#45;&gt;Node3 -->
<g id="edge3" class="edge">
<title>Node4&#45;&gt;Node3</title>
<path fill="none" stroke="#9a32cd" stroke-dasharray="5,2" d="M103.87,-307.27C93.93,-294.6 80.67,-277.7 72.77,-267.63"/>
<polygon fill="#9a32cd" stroke="#9a32cd" points="101.2,-309.53 110.12,-315.23 106.7,-305.21 101.2,-309.53"/>
<text text-anchor="middle" x="113.5" y="-289" font-family="Helvetica,sans-Serif" font-size="10.00"> mData</text>
</g>
<!-- Node4&#45;&gt;Node6 -->
<g id="edge7" class="edge">
<title>Node4&#45;&gt;Node6</title>
<path fill="none" stroke="#9a32cd" stroke-dasharray="5,2" d="M130.12,-307.07C132.27,-303.84 134.34,-300.4 136,-297 150.69,-266.95 159.77,-227.89 163.31,-210.73"/>
<polygon fill="#9a32cd" stroke="#9a32cd" points="127.09,-305.28 124.08,-315.44 132.77,-309.38 127.09,-305.28"/>
<text text-anchor="middle" x="171.5" y="-255.5" font-family="Helvetica,sans-Serif" font-size="10.00"> mData</text>
</g>
<!-- Node5 -->
<g id="node5" class="node">
<title>Node5</title>
<g id="a_node5"><a xlink:href="class_parameter_table.html" target="_top" xlink:title="A utility class for managing JSON&#45;based data tables.">
<polygon fill="white" stroke="black" points="71,-372.5 71,-391.5 163,-391.5 163,-372.5 71,-372.5"/>
<text text-anchor="middle" x="117" y="-379.5" font-family="Helvetica,sans-Serif" font-size="10.00">ParameterTable</text>
</a>
</g>
</g>
<!-- Node5&#45;&gt;Node4 -->
<g id="edge4" class="edge">
<title>Node5&#45;&gt;Node4</title>
<path fill="none" stroke="midnightblue" d="M117,-362.12C117,-352.82 117,-342.06 117,-334.71"/>
<polygon fill="midnightblue" stroke="midnightblue" points="113.5,-362.41 117,-372.41 120.5,-362.41 113.5,-362.41"/>
</g>
<!-- Node6&#45;&gt;Node2 -->
<g id="edge5" class="edge">
<title>Node6&#45;&gt;Node2</title>
<path fill="none" stroke="#9a32cd" stroke-dasharray="5,2" d="M153.45,-182.53C145.12,-169.95 134.24,-153.51 127.71,-143.63"/>
<polygon fill="#9a32cd" stroke="#9a32cd" points="150.76,-184.82 159.2,-191.23 156.6,-180.96 150.76,-184.82"/>
<text text-anchor="middle" x="184.5" y="-165" font-family="Helvetica,sans-Serif" font-size="10.00"> mPMTManager</text>
</g>
<!-- Node7&#45;&gt;Node1 -->
<g id="edge8" class="edge">
<title>Node7&#45;&gt;Node1</title>
<path fill="none" stroke="#9a32cd" stroke-dasharray="5,2" d="M61.68,-29.72C61.46,-36.28 62.37,-43.39 66,-49 73.44,-60.51 87.28,-67.25 99.34,-71.11"/>
<polygon fill="#9a32cd" stroke="#9a32cd" points="65.18,-29.93 62.84,-19.59 58.22,-29.13 65.18,-29.93"/>
<text text-anchor="middle" x="92.5" y="-41" font-family="Helvetica,sans-Serif" font-size="10.00"> mHarness</text>
</g>
</g>
</svg>
