<?xml version="1.0" encoding="UTF-8" standalone="no"?>
<!DOCTYPE svg PUBLIC "-//W3C//DTD SVG 1.1//EN"
 "http://www.w3.org/Graphics/SVG/1.1/DTD/svg11.dtd">
<!-- Generated by graphviz version 2.43.0 (0)
 -->
<!-- Title: mdomPrimaryGeneratorMessenger Pages: 1 -->
<svg width="421pt" height="162pt"
 viewBox="0.00 0.00 420.50 162.00" xmlns="http://www.w3.org/2000/svg" xmlns:xlink="http://www.w3.org/1999/xlink">
<g id="graph0" class="graph" transform="scale(1 1) rotate(0) translate(4 158)">
<title>mdomPrimaryGeneratorMessenger</title>
<polygon fill="white" stroke="transparent" points="-4,4 -4,-158 416.5,-158 416.5,4 -4,4"/>
<!-- Node1 -->
<g id="node1" class="node">
<title>Node1</title>
<g id="a_node1"><a xlink:title=" ">
<polygon fill="#bfbfbf" stroke="black" points="224.5,-67.5 224.5,-86.5 412.5,-86.5 412.5,-67.5 224.5,-67.5"/>
<text text-anchor="middle" x="318.5" y="-74.5" font-family="Helvetica,sans-Serif" font-size="10.00">mdomPrimaryGeneratorMessenger</text>
</a>
</g>
</g>
<!-- Node3 -->
<g id="node3" class="node">
<title>Node3</title>
<g id="a_node3"><a xlink:href="class_o_m_sim_primary_generator_action.html" target="_top" xlink:title=" ">
<polygon fill="white" stroke="black" points="63.5,-0.5 63.5,-19.5 233.5,-19.5 233.5,-0.5 63.5,-0.5"/>
<text text-anchor="middle" x="148.5" y="-7.5" font-family="Helvetica,sans-Serif" font-size="10.00">OMSimPrimaryGeneratorAction</text>
</a>
</g>
</g>
<!-- Node1&#45;&gt;Node3 -->
<g id="edge8" class="edge">
<title>Node1&#45;&gt;Node3</title>
<path fill="none" stroke="#9a32cd" stroke-dasharray="5,2" d="M263.11,-65.06C246.51,-60.95 228.48,-55.62 212.5,-49 211.19,-48.46 181.43,-30.7 162.96,-19.65"/>
<polygon fill="#9a32cd" stroke="#9a32cd" points="262.69,-68.56 273.23,-67.47 264.31,-61.75 262.69,-68.56"/>
<text text-anchor="middle" x="252.5" y="-41" font-family="Helvetica,sans-Serif" font-size="10.00"> fGunMessenger</text>
</g>
<!-- Node2 -->
<g id="node2" class="node">
<title>Node2</title>
<g id="a_node2"><a xlink:title=" ">
<polygon fill="white" stroke="#bfbfbf" points="304,-134.5 304,-153.5 399,-153.5 399,-134.5 304,-134.5"/>
<text text-anchor="middle" x="351.5" y="-141.5" font-family="Helvetica,sans-Serif" font-size="10.00">G4UImessenger</text>
</a>
</g>
</g>
<!-- Node2&#45;&gt;Node1 -->
<g id="edge1" class="edge">
<title>Node2&#45;&gt;Node1</title>
<path fill="none" stroke="midnightblue" d="M342.44,-125.16C336.08,-112.63 327.85,-96.41 322.88,-86.63"/>
<polygon fill="midnightblue" stroke="midnightblue" points="339.4,-126.9 347.05,-134.23 345.64,-123.73 339.4,-126.9"/>
</g>
<!-- Node3&#45;&gt;Node1 -->
<g id="edge2" class="edge">
<title>Node3&#45;&gt;Node1</title>
<path fill="none" stroke="#9a32cd" stroke-dasharray="5,2" d="M238.52,-21.15C263.4,-25.31 286.36,-30.87 296.5,-38 306.6,-45.11 312.73,-58.44 315.86,-67.27"/>
<polygon fill="#9a32cd" stroke="#9a32cd" points="238.96,-17.67 228.54,-19.56 237.86,-24.59 238.96,-17.67"/>
<text text-anchor="middle" x="323.5" y="-41" font-family="Helvetica,sans-Serif" font-size="10.00"> Action</text>
</g>
<!-- Node4 -->
<g id="node4" class="node">
<title>Node4</title>
<g id="a_node4"><a xlink:title=" ">
<polygon fill="white" stroke="#bfbfbf" points="0,-134.5 0,-153.5 177,-153.5 177,-134.5 0,-134.5"/>
<text text-anchor="middle" x="88.5" y="-141.5" font-family="Helvetica,sans-Serif" font-size="10.00">G4VUserPrimaryGeneratorAction</text>
</a>
</g>
</g>
<!-- Node4&#45;&gt;Node3 -->
<g id="edge3" class="edge">
<title>Node4&#45;&gt;Node3</title>
<path fill="none" stroke="midnightblue" d="M87.18,-124.43C90.54,-108.83 98.61,-86.08 107.5,-67 115.54,-49.75 127.01,-30.71 136.45,-19.87"/>
<polygon fill="midnightblue" stroke="midnightblue" points="83.71,-123.96 85.61,-134.38 90.62,-125.04 83.71,-123.96"/>
</g>
<!-- Node4&#45;&gt;Node3 -->
<g id="edge4" class="edge">
<title>Node4&#45;&gt;Node3</title>
<path fill="none" stroke="midnightblue" d="M101.17,-125.33C108.23,-109.71 116.44,-86.45 125.5,-67 133.54,-49.75 145.01,-30.71 149.18,-19.87"/>
<polygon fill="midnightblue" stroke="midnightblue" points="98,-123.86 96.71,-134.38 104.27,-126.96 98,-123.86"/>
</g>
<!-- Node5 -->
<g id="node5" class="node">
<title>Node5</title>
<g id="a_node5"><a xlink:href="class_o_m_sim_i_b_d.html" target="_top" xlink:title="Class in charge of generating positrons from IBD of supernova antineutrino interactions.">
<polygon fill="white" stroke="black" points="126,-67.5 126,-86.5 195,-86.5 195,-67.5 126,-67.5"/>
<text text-anchor="middle" x="160.5" y="-74.5" font-family="Helvetica,sans-Serif" font-size="10.00">OMSimIBD</text>
</a>
</g>
</g>
<!-- Node4&#45;&gt;Node5 -->
<g id="edge6" class="edge">
<title>Node4&#45;&gt;Node5</title>
<path fill="none" stroke="midnightblue" d="M105.83,-127.36C119.98,-114.58 139.46,-96.99 150.94,-86.63"/>
<polygon fill="midnightblue" stroke="midnightblue" points="103.29,-124.93 98.21,-134.23 107.98,-130.13 103.29,-124.93"/>
</g>
<!-- Node5&#45;&gt;Node3 -->
<g id="edge5" class="edge">
<title>Node5&#45;&gt;Node3</title>
<path fill="none" stroke="#9a32cd" stroke-dasharray="5,2" d="M152.13,-57.98C151.06,-55.03 150.12,-51.97 149.5,-49 147.42,-39.05 147.48,-27.32 147.86,-19.55"/>
<polygon fill="#9a32cd" stroke="#9a32cd" points="148.91,-59.38 156,-67.26 155.37,-56.68 148.91,-59.38"/>
<text text-anchor="middle" x="171.5" y="-41" font-family="Helvetica,sans-Serif" font-size="10.00"> fAction0</text>
</g>
<!-- Node6 -->
<g id="node6" class="node">
<title>Node6</title>
<g id="a_node6"><a xlink:href="class_o_m_sim_s_n_tools.html" target="_top" xlink:title="Provides utility methods for generating ENES and IBD interactions.">
<polygon fill="white" stroke="black" points="195.5,-134.5 195.5,-153.5 285.5,-153.5 285.5,-134.5 195.5,-134.5"/>
<text text-anchor="middle" x="240.5" y="-141.5" font-family="Helvetica,sans-Serif" font-size="10.00">OMSimSNTools</text>
</a>
</g>
</g>
<!-- Node6&#45;&gt;Node5 -->
<g id="edge7" class="edge">
<title>Node6&#45;&gt;Node5</title>
<path fill="none" stroke="#9a32cd" stroke-dasharray="5,2" d="M221.69,-127.71C205.92,-114.91 183.99,-97.09 171.12,-86.63"/>
<polygon fill="#9a32cd" stroke="#9a32cd" points="219.74,-130.64 229.71,-134.23 224.16,-125.21 219.74,-130.64"/>
<text text-anchor="middle" x="238" y="-108" font-family="Helvetica,sans-Serif" font-size="10.00"> mSNToolBox</text>
</g>
</g>
</svg>
