<?xml version="1.0" encoding="UTF-8" standalone="no"?>
<!DOCTYPE svg PUBLIC "-//W3C//DTD SVG 1.1//EN"
 "http://www.w3.org/Graphics/SVG/1.1/DTD/svg11.dtd">
<!-- Generated by graphviz version 2.43.0 (0)
 -->
<!-- Title: OMSimDetectorConstruction Pages: 1 -->
<svg width="281pt" height="276pt"
 viewBox="0.00 0.00 280.50 276.00" xmlns="http://www.w3.org/2000/svg" xmlns:xlink="http://www.w3.org/1999/xlink">
<g id="graph0" class="graph" transform="scale(1 1) rotate(0) translate(4 272)">
<title>OMSimDetectorConstruction</title>
<polygon fill="white" stroke="transparent" points="-4,4 -4,-272 276.5,-272 276.5,4 -4,4"/>
<!-- Node1 -->
<g id="node1" class="node">
<title>Node1</title>
<g id="a_node1"><a xlink:title=" ">
<polygon fill="#bfbfbf" stroke="black" points="20,-0.5 20,-19.5 175,-19.5 175,-0.5 20,-0.5"/>
<text text-anchor="middle" x="97.5" y="-7.5" font-family="Helvetica,sans-Serif" font-size="10.00">OMSimDetectorConstruction</text>
</a>
</g>
</g>
<!-- Node2 -->
<g id="node2" class="node">
<title>Node2</title>
<g id="a_node2"><a xlink:title=" ">
<polygon fill="white" stroke="#bfbfbf" points="0,-67.5 0,-86.5 163,-86.5 163,-67.5 0,-67.5"/>
<text text-anchor="middle" x="81.5" y="-74.5" font-family="Helvetica,sans-Serif" font-size="10.00">G4VUserDetectorConstruction</text>
</a>
</g>
</g>
<!-- Node2&#45;&gt;Node1 -->
<g id="edge1" class="edge">
<title>Node2&#45;&gt;Node1</title>
<path fill="none" stroke="midnightblue" d="M86.07,-57.41C89.13,-44.99 93.02,-29.22 95.38,-19.63"/>
<polygon fill="midnightblue" stroke="midnightblue" points="82.65,-56.69 83.66,-67.23 89.45,-58.36 82.65,-56.69"/>
</g>
<!-- Node3 -->
<g id="node3" class="node">
<title>Node3</title>
<g id="a_node3"><a xlink:href="classm_d_o_m.html" target="_top" xlink:title=" ">
<polygon fill="white" stroke="black" points="181.5,-67.5 181.5,-86.5 231.5,-86.5 231.5,-67.5 181.5,-67.5"/>
<text text-anchor="middle" x="206.5" y="-74.5" font-family="Helvetica,sans-Serif" font-size="10.00">mDOM</text>
</a>
</g>
</g>
<!-- Node3&#45;&gt;Node1 -->
<g id="edge2" class="edge">
<title>Node3&#45;&gt;Node1</title>
<path fill="none" stroke="#9a32cd" stroke-dasharray="5,2" d="M182.93,-61.94C161.34,-49.07 130.08,-30.43 111.97,-19.63"/>
<polygon fill="#9a32cd" stroke="#9a32cd" points="181.42,-65.12 191.8,-67.23 185,-59.11 181.42,-65.12"/>
<text text-anchor="middle" x="181.5" y="-41" font-family="Helvetica,sans-Serif" font-size="10.00"> mMDOM</text>
</g>
<!-- Node4 -->
<g id="node4" class="node">
<title>Node4</title>
<g id="a_node4"><a xlink:href="classabc_detector_component.html" target="_top" xlink:title="Abstract base class used for constructing detector components.">
<polygon fill="white" stroke="black" points="140.5,-124.5 140.5,-143.5 272.5,-143.5 272.5,-124.5 140.5,-124.5"/>
<text text-anchor="middle" x="206.5" y="-131.5" font-family="Helvetica,sans-Serif" font-size="10.00">abcDetectorComponent</text>
</a>
</g>
</g>
<!-- Node4&#45;&gt;Node3 -->
<g id="edge3" class="edge">
<title>Node4&#45;&gt;Node3</title>
<path fill="none" stroke="midnightblue" d="M206.5,-114.12C206.5,-104.82 206.5,-94.06 206.5,-86.71"/>
<polygon fill="midnightblue" stroke="midnightblue" points="203,-114.41 206.5,-124.41 210,-114.41 203,-114.41"/>
</g>
<!-- Node5 -->
<g id="node5" class="node">
<title>Node5</title>
<g id="a_node5"><a xlink:href="class_input_data_manager.html" target="_top" xlink:title=" ">
<polygon fill="white" stroke="black" points="153,-191.5 153,-210.5 260,-210.5 260,-191.5 153,-191.5"/>
<text text-anchor="middle" x="206.5" y="-198.5" font-family="Helvetica,sans-Serif" font-size="10.00">InputDataManager</text>
</a>
</g>
</g>
<!-- Node5&#45;&gt;Node4 -->
<g id="edge4" class="edge">
<title>Node5&#45;&gt;Node4</title>
<path fill="none" stroke="#9a32cd" stroke-dasharray="5,2" d="M206.5,-181.04C206.5,-168.67 206.5,-153.12 206.5,-143.63"/>
<polygon fill="#9a32cd" stroke="#9a32cd" points="203,-181.23 206.5,-191.23 210,-181.23 203,-181.23"/>
<text text-anchor="middle" x="225" y="-165" font-family="Helvetica,sans-Serif" font-size="10.00"> mData</text>
</g>
<!-- Node6 -->
<g id="node6" class="node">
<title>Node6</title>
<g id="a_node6"><a xlink:href="class_parameter_table.html" target="_top" xlink:title=" ">
<polygon fill="white" stroke="black" points="160.5,-248.5 160.5,-267.5 252.5,-267.5 252.5,-248.5 160.5,-248.5"/>
<text text-anchor="middle" x="206.5" y="-255.5" font-family="Helvetica,sans-Serif" font-size="10.00">ParameterTable</text>
</a>
</g>
</g>
<!-- Node6&#45;&gt;Node5 -->
<g id="edge5" class="edge">
<title>Node6&#45;&gt;Node5</title>
<path fill="none" stroke="midnightblue" d="M206.5,-238.12C206.5,-228.82 206.5,-218.06 206.5,-210.71"/>
<polygon fill="midnightblue" stroke="midnightblue" points="203,-238.41 206.5,-248.41 210,-238.41 203,-238.41"/>
</g>
</g>
</svg>
