<?xml version="1.0" encoding="UTF-8" standalone="no"?>
<!DOCTYPE svg PUBLIC "-//W3C//DTD SVG 1.1//EN"
 "http://www.w3.org/Graphics/SVG/1.1/DTD/svg11.dtd">
<!-- Generated by graphviz version 2.43.0 (0)
 -->
<!-- Title: OMSimPrimaryGeneratorAction Pages: 1 -->
<svg width="313pt" height="219pt"
 viewBox="0.00 0.00 313.00 219.00" xmlns="http://www.w3.org/2000/svg" xmlns:xlink="http://www.w3.org/1999/xlink">
<g id="graph0" class="graph" transform="scale(1 1) rotate(0) translate(4 215)">
<title>OMSimPrimaryGeneratorAction</title>
<polygon fill="white" stroke="transparent" points="-4,4 -4,-215 309,-215 309,4 -4,4"/>
<!-- Node1 -->
<g id="node1" class="node">
<title>Node1</title>
<g id="a_node1"><a xlink:title=" ">
<polygon fill="#bfbfbf" stroke="black" points="113.5,-67.5 113.5,-86.5 283.5,-86.5 283.5,-67.5 113.5,-67.5"/>
<text text-anchor="middle" x="198.5" y="-74.5" font-family="Helvetica,sans-Serif" font-size="10.00">OMSimPrimaryGeneratorAction</text>
</a>
</g>
</g>
<!-- Node4 -->
<g id="node4" class="node">
<title>Node4</title>
<g id="a_node4"><a xlink:href="classmdom_primary_generator_messenger.html" target="_top" xlink:title=" ">
<polygon fill="white" stroke="black" points="47.5,-0.5 47.5,-19.5 235.5,-19.5 235.5,-0.5 47.5,-0.5"/>
<text text-anchor="middle" x="141.5" y="-7.5" font-family="Helvetica,sans-Serif" font-size="10.00">mdomPrimaryGeneratorMessenger</text>
</a>
</g>
</g>
<!-- Node1&#45;&gt;Node4 -->
<g id="edge7" class="edge">
<title>Node1&#45;&gt;Node4</title>
<path fill="none" stroke="#9a32cd" stroke-dasharray="5,2" d="M153.33,-62.84C147.46,-59.27 142.21,-54.74 138.5,-49 132.82,-40.22 135.3,-27.8 138.02,-19.58"/>
<polygon fill="#9a32cd" stroke="#9a32cd" points="151.77,-65.97 162.26,-67.42 154.96,-59.74 151.77,-65.97"/>
<text text-anchor="middle" x="155.5" y="-41" font-family="Helvetica,sans-Serif" font-size="10.00"> Action</text>
</g>
<!-- Node2 -->
<g id="node2" class="node">
<title>Node2</title>
<g id="a_node2"><a xlink:title=" ">
<polygon fill="white" stroke="#bfbfbf" points="110,-191.5 110,-210.5 287,-210.5 287,-191.5 110,-191.5"/>
<text text-anchor="middle" x="198.5" y="-198.5" font-family="Helvetica,sans-Serif" font-size="10.00">G4VUserPrimaryGeneratorAction</text>
</a>
</g>
</g>
<!-- Node2&#45;&gt;Node1 -->
<g id="edge1" class="edge">
<title>Node2&#45;&gt;Node1</title>
<path fill="none" stroke="midnightblue" d="M193.46,-181.19C190.79,-154.4 191.24,-106.31 194.81,-86.69"/>
<polygon fill="midnightblue" stroke="midnightblue" points="190.01,-181.77 194.8,-191.23 196.95,-180.85 190.01,-181.77"/>
</g>
<!-- Node2&#45;&gt;Node1 -->
<g id="edge2" class="edge">
<title>Node2&#45;&gt;Node1</title>
<path fill="none" stroke="midnightblue" d="M203.54,-181.19C206.21,-154.4 205.76,-106.31 202.19,-86.69"/>
<polygon fill="midnightblue" stroke="midnightblue" points="200.05,-180.85 202.2,-191.23 206.99,-181.77 200.05,-180.85"/>
</g>
<!-- Node3 -->
<g id="node3" class="node">
<title>Node3</title>
<g id="a_node3"><a xlink:href="class_o_m_sim_i_b_d.html" target="_top" xlink:title="Class in charge of generating positrons from IBD of supernova antineutrino interactions.">
<polygon fill="white" stroke="black" points="236,-134.5 236,-153.5 305,-153.5 305,-134.5 236,-134.5"/>
<text text-anchor="middle" x="270.5" y="-141.5" font-family="Helvetica,sans-Serif" font-size="10.00">OMSimIBD</text>
</a>
</g>
</g>
<!-- Node2&#45;&gt;Node3 -->
<g id="edge4" class="edge">
<title>Node2&#45;&gt;Node3</title>
<path fill="none" stroke="midnightblue" d="M217.76,-185.29C230.95,-175.21 248,-162.19 259.09,-153.71"/>
<polygon fill="midnightblue" stroke="midnightblue" points="215.57,-182.55 209.75,-191.41 219.82,-188.12 215.57,-182.55"/>
</g>
<!-- Node3&#45;&gt;Node1 -->
<g id="edge3" class="edge">
<title>Node3&#45;&gt;Node1</title>
<path fill="none" stroke="#9a32cd" stroke-dasharray="5,2" d="M253.17,-127.36C239.02,-114.58 219.54,-96.99 208.06,-86.63"/>
<polygon fill="#9a32cd" stroke="#9a32cd" points="251.02,-130.13 260.79,-134.23 255.71,-124.93 251.02,-130.13"/>
<text text-anchor="middle" x="260.5" y="-108" font-family="Helvetica,sans-Serif" font-size="10.00"> fAction0</text>
</g>
<!-- Node4&#45;&gt;Node1 -->
<g id="edge5" class="edge">
<title>Node4&#45;&gt;Node1</title>
<path fill="none" stroke="#9a32cd" stroke-dasharray="5,2" d="M163.33,-25.73C167.98,-29.42 172.64,-33.6 176.5,-38 184.33,-46.95 190.79,-59.1 194.64,-67.23"/>
<polygon fill="#9a32cd" stroke="#9a32cd" points="165.27,-22.81 155.16,-19.66 161.1,-28.43 165.27,-22.81"/>
<text text-anchor="middle" x="224.5" y="-41" font-family="Helvetica,sans-Serif" font-size="10.00"> fGunMessenger</text>
</g>
<!-- Node5 -->
<g id="node5" class="node">
<title>Node5</title>
<g id="a_node5"><a xlink:title=" ">
<polygon fill="white" stroke="#bfbfbf" points="0,-67.5 0,-86.5 95,-86.5 95,-67.5 0,-67.5"/>
<text text-anchor="middle" x="47.5" y="-74.5" font-family="Helvetica,sans-Serif" font-size="10.00">G4UImessenger</text>
</a>
</g>
</g>
<!-- Node5&#45;&gt;Node4 -->
<g id="edge6" class="edge">
<title>Node5&#45;&gt;Node4</title>
<path fill="none" stroke="midnightblue" d="M68.59,-61.42C87.17,-48.57 113.62,-30.28 129.02,-19.63"/>
<polygon fill="midnightblue" stroke="midnightblue" points="66.41,-58.67 60.18,-67.23 70.39,-64.43 66.41,-58.67"/>
</g>
</g>
</svg>
