<?xml version="1.0" encoding="UTF-8" standalone="no"?>
<!DOCTYPE svg PUBLIC "-//W3C//DTD SVG 1.1//EN"
 "http://www.w3.org/Graphics/SVG/1.1/DTD/svg11.dtd">
<!-- Generated by graphviz version 2.43.0 (0)
 -->
<!-- Title: supernova Pages: 1 -->
<svg width="120pt" height="188pt"
 viewBox="0.00 0.00 120.00 188.00" xmlns="http://www.w3.org/2000/svg" xmlns:xlink="http://www.w3.org/1999/xlink">
<g id="graph0" class="graph" transform="scale(1 1) rotate(0) translate(4 184)">
<title>supernova</title>
<polygon fill="white" stroke="transparent" points="-4,4 -4,-184 116,-184 116,4 -4,4"/>
<!-- dir_d93c684152b9dbfa36b614b4419d35b9 -->
<g id="node1" class="node">
<title>dir_d93c684152b9dbfa36b614b4419d35b9</title>
<g id="a_node1"><a xlink:href="dir_d93c684152b9dbfa36b614b4419d35b9.html" target="_top" xlink:title="supernova">
<polygon fill="#eeeeff" stroke="black" points="112,-180 44,-180 44,-144 112,-144 112,-180"/>
<text text-anchor="middle" x="78" y="-159.5" font-family="Helvetica,sans-Serif" font-size="10.00">supernova</text>
</a>
</g>
</g>
<!-- dir_0508a806709bbb036eb481438c5edd07 -->
<g id="node2" class="node">
<title>dir_0508a806709bbb036eb481438c5edd07</title>
<g id="a_node2"><a xlink:href="dir_0508a806709bbb036eb481438c5edd07.html" target="_top" xlink:title="effective_area">
<polygon fill="white" stroke="red" points="86,-108 0,-108 0,-72 86,-72 86,-108"/>
<text text-anchor="middle" x="43" y="-87.5" font-family="Helvetica,sans-Serif" font-size="10.00">effective_area</text>
</a>
</g>
</g>
<!-- dir_d93c684152b9dbfa36b614b4419d35b9&#45;&gt;dir_0508a806709bbb036eb481438c5edd07 -->
<g id="edge1" class="edge">
<title>dir_d93c684152b9dbfa36b614b4419d35b9&#45;&gt;dir_0508a806709bbb036eb481438c5edd07</title>
<path fill="none" stroke="black" d="M69.35,-143.7C65.36,-135.73 60.55,-126.1 56.13,-117.26"/>
<polygon fill="black" stroke="black" points="59.15,-115.48 51.55,-108.1 52.89,-118.61 59.15,-115.48"/>
<g id="a_edge1&#45;headlabel"><a xlink:href="dir_000007_000006.html" target="_top" xlink:title="2">
<text text-anchor="middle" x="63.3" y="-114.93" font-family="Helvetica,sans-Serif" font-size="10.00">2</text>
</a>
</g>
</g>
<!-- dir_bdd9a5d540de89e9fe90efdfc6973a4f -->
<g id="node3" class="node">
<title>dir_bdd9a5d540de89e9fe90efdfc6973a4f</title>
<g id="a_node3"><a xlink:href="dir_bdd9a5d540de89e9fe90efdfc6973a4f.html" target="_top" xlink:title="common">
<polygon fill="white" stroke="red" points="72.5,-36 13.5,-36 13.5,0 72.5,0 72.5,-36"/>
<text text-anchor="middle" x="43" y="-15.5" font-family="Helvetica,sans-Serif" font-size="10.00">common</text>
</a>
</g>
</g>
<!-- dir_d93c684152b9dbfa36b614b4419d35b9&#45;&gt;dir_bdd9a5d540de89e9fe90efdfc6973a4f -->
<g id="edge2" class="edge">
<title>dir_d93c684152b9dbfa36b614b4419d35b9&#45;&gt;dir_bdd9a5d540de89e9fe90efdfc6973a4f</title>
<path fill="none" stroke="black" d="M86.94,-143.69C95.16,-125.33 104.7,-95.74 95,-72 90.51,-61.02 82.53,-51.08 74.15,-42.86"/>
<polygon fill="black" stroke="black" points="76.49,-40.26 66.75,-36.09 71.76,-45.42 76.49,-40.26"/>
<g id="a_edge2&#45;headlabel"><a xlink:href="dir_000007_000000.html" target="_top" xlink:title="1">
<text text-anchor="middle" x="81.06" y="-38.09" font-family="Helvetica,sans-Serif" font-size="10.00">1</text>
</a>
</g>
</g>
<!-- dir_0508a806709bbb036eb481438c5edd07&#45;&gt;dir_bdd9a5d540de89e9fe90efdfc6973a4f -->
<g id="edge4" class="edge">
<title>dir_0508a806709bbb036eb481438c5edd07&#45;&gt;dir_bdd9a5d540de89e9fe90efdfc6973a4f</title>
<path fill="none" stroke="black" d="M37.08,-71.7C36.29,-63.98 36.06,-54.71 36.4,-46.11"/>
<polygon fill="black" stroke="black" points="39.9,-46.32 37.1,-36.1 32.92,-45.84 39.9,-46.32"/>
<g id="a_edge4&#45;headlabel"><a xlink:href="dir_000006_000000.html" target="_top" xlink:title="13">
<text text-anchor="middle" x="42.48" y="-47.61" font-family="Helvetica,sans-Serif" font-size="10.00">13</text>
</a>
</g>
</g>
<!-- dir_bdd9a5d540de89e9fe90efdfc6973a4f&#45;&gt;dir_0508a806709bbb036eb481438c5edd07 -->
<g id="edge3" class="edge">
<title>dir_bdd9a5d540de89e9fe90efdfc6973a4f&#45;&gt;dir_0508a806709bbb036eb481438c5edd07</title>
<path fill="none" stroke="black" d="M48.9,-36.1C49.7,-43.79 49.94,-53.05 49.6,-61.67"/>
<polygon fill="black" stroke="black" points="46.11,-61.48 48.92,-71.7 53.09,-61.96 46.11,-61.48"/>
<g id="a_edge3&#45;headlabel"><a xlink:href="dir_000000_000006.html" target="_top" xlink:title="1">
<text text-anchor="middle" x="43.52" y="-55.2" font-family="Helvetica,sans-Serif" font-size="10.00">1</text>
</a>
</g>
</g>
</g>
</svg>
