<?xml version="1.0" encoding="UTF-8" standalone="no"?>
<!DOCTYPE svg PUBLIC "-//W3C//DTD SVG 1.1//EN"
 "http://www.w3.org/Graphics/SVG/1.1/DTD/svg11.dtd">
<!-- Generated by graphviz version 2.43.0 (0)
 -->
<!-- Title: optical_modules Pages: 1 -->
<svg width="225pt" height="247pt"
 viewBox="0.00 0.00 225.00 247.00" xmlns="http://www.w3.org/2000/svg" xmlns:xlink="http://www.w3.org/1999/xlink">
<g id="graph0" class="graph" transform="scale(1 1) rotate(0) translate(4 243)">
<title>optical_modules</title>
<polygon fill="white" stroke="transparent" points="-4,4 -4,-243 221,-243 221,4 -4,4"/>
<g id="clust1" class="cluster">
<title>clusterdir_bdd9a5d540de89e9fe90efdfc6973a4f</title>
<g id="a_clust1"><a xlink:href="dir_bdd9a5d540de89e9fe90efdfc6973a4f.html" target="_top" xlink:title="common">
<polygon fill="#ddddee" stroke="black" points="8,-8 8,-231 209,-231 209,-8 8,-8"/>
<text text-anchor="middle" x="108.5" y="-219" font-family="Helvetica,sans-Serif" font-size="10.00">common</text>
</a>
</g>
</g>
<g id="clust2" class="cluster">
<title>clusterdir_cb570a242dbc0052c0f504f8f76c32b4</title>
<g id="a_clust2"><a xlink:href="dir_cb570a242dbc0052c0f504f8f76c32b4.html" target="_top">
<polygon fill="#eeeeff" stroke="black" points="16,-80 16,-204 201,-204 201,-80 16,-80"/>
</a>
</g>
</g>
<!-- dir_864f292c5cbb4a74180810cb2e80dd5b -->
<g id="node1" class="node">
<title>dir_864f292c5cbb4a74180810cb2e80dd5b</title>
<g id="a_node1"><a xlink:href="dir_864f292c5cbb4a74180810cb2e80dd5b.html" target="_top" xlink:title="framework">
<polygon fill="white" stroke="red" points="109,-52 39,-52 39,-16 109,-16 109,-52"/>
<text text-anchor="middle" x="74" y="-31.5" font-family="Helvetica,sans-Serif" font-size="10.00">framework</text>
</a>
</g>
</g>
<!-- dir_cb570a242dbc0052c0f504f8f76c32b4 -->
<g id="node2" class="node">
<title>dir_cb570a242dbc0052c0f504f8f76c32b4</title>
<text text-anchor="middle" x="145" y="-175.5" font-family="Helvetica,sans-Serif" font-size="10.00">optical_modules</text>
</g>
<!-- dir_8b9196544f899077021e98e42ad8aa98 -->
<g id="node3" class="node">
<title>dir_8b9196544f899077021e98e42ad8aa98</title>
<g id="a_node3"><a xlink:href="dir_8b9196544f899077021e98e42ad8aa98.html" target="_top" xlink:title="include">
<polygon fill="white" stroke="black" points="78,-124 24,-124 24,-88 78,-88 78,-124"/>
<text text-anchor="middle" x="51" y="-103.5" font-family="Helvetica,sans-Serif" font-size="10.00">include</text>
</a>
</g>
</g>
<!-- dir_8b9196544f899077021e98e42ad8aa98&#45;&gt;dir_864f292c5cbb4a74180810cb2e80dd5b -->
<g id="edge1" class="edge">
<title>dir_8b9196544f899077021e98e42ad8aa98&#45;&gt;dir_864f292c5cbb4a74180810cb2e80dd5b</title>
<path fill="none" stroke="black" d="M56.69,-87.7C59.25,-79.9 62.33,-70.51 65.18,-61.83"/>
<polygon fill="black" stroke="black" points="68.58,-62.7 68.38,-52.1 61.93,-60.51 68.58,-62.7"/>
<g id="a_edge1&#45;headlabel"><a xlink:href="dir_000013_000001.html" target="_top" xlink:title="10">
<text text-anchor="middle" x="70.16" y="-64.5" font-family="Helvetica,sans-Serif" font-size="10.00">10</text>
</a>
</g>
</g>
<!-- dir_55900704eaef4284595bcb315f6dde1d -->
<g id="node4" class="node">
<title>dir_55900704eaef4284595bcb315f6dde1d</title>
<g id="a_node4"><a xlink:href="dir_55900704eaef4284595bcb315f6dde1d.html" target="_top" xlink:title="src">
<polygon fill="white" stroke="black" points="78,-196 24,-196 24,-160 78,-160 78,-196"/>
<text text-anchor="middle" x="51" y="-175.5" font-family="Helvetica,sans-Serif" font-size="10.00">src</text>
</a>
</g>
</g>
<!-- dir_55900704eaef4284595bcb315f6dde1d&#45;&gt;dir_864f292c5cbb4a74180810cb2e80dd5b -->
<g id="edge2" class="edge">
<title>dir_55900704eaef4284595bcb315f6dde1d&#45;&gt;dir_864f292c5cbb4a74180810cb2e80dd5b</title>
<path fill="none" stroke="black" d="M66.61,-159.77C74.37,-150.03 82.95,-137.18 87,-124 93.28,-103.57 89.13,-79.54 83.9,-61.6"/>
<polygon fill="black" stroke="black" points="87.24,-60.53 80.86,-52.07 80.57,-62.66 87.24,-60.53"/>
<g id="a_edge2&#45;headlabel"><a xlink:href="dir_000012_000001.html" target="_top" xlink:title="12">
<text text-anchor="middle" x="91.03" y="-60.59" font-family="Helvetica,sans-Serif" font-size="10.00">12</text>
</a>
</g>
</g>
<!-- dir_55900704eaef4284595bcb315f6dde1d&#45;&gt;dir_8b9196544f899077021e98e42ad8aa98 -->
<g id="edge3" class="edge">
<title>dir_55900704eaef4284595bcb315f6dde1d&#45;&gt;dir_8b9196544f899077021e98e42ad8aa98</title>
<path fill="none" stroke="black" d="M51,-159.7C51,-151.98 51,-142.71 51,-134.11"/>
<polygon fill="black" stroke="black" points="54.5,-134.1 51,-124.1 47.5,-134.1 54.5,-134.1"/>
<g id="a_edge3&#45;headlabel"><a xlink:href="dir_000012_000013.html" target="_top" xlink:title="10">
<text text-anchor="middle" x="57.34" y="-135.2" font-family="Helvetica,sans-Serif" font-size="10.00">10</text>
</a>
</g>
</g>
</g>
</svg>
