<?xml version="1.0" encoding="UTF-8" standalone="no"?>
<!DOCTYPE svg PUBLIC "-//W3C//DTD SVG 1.1//EN"
 "http://www.w3.org/Graphics/SVG/1.1/DTD/svg11.dtd">
<!-- Generated by graphviz version 2.43.0 (0)
 -->
<!-- Title: supernova Pages: 1 -->
<svg width="282pt" height="204pt"
 viewBox="0.00 0.00 282.44 204.00" xmlns="http://www.w3.org/2000/svg" xmlns:xlink="http://www.w3.org/1999/xlink">
<g id="graph0" class="graph" transform="scale(1 1) rotate(0) translate(4 200)">
<title>supernova</title>
<polygon fill="white" stroke="transparent" points="-4,4 -4,-200 278.44,-200 278.44,4 -4,4"/>
<g id="clust1" class="cluster">
<title>clusterdir_d93c684152b9dbfa36b614b4419d35b9</title>
<g id="a_clust1"><a xlink:href="dir_d93c684152b9dbfa36b614b4419d35b9.html" target="_top">
<polygon fill="#eeeeff" stroke="black" points="8,-64 8,-188 164,-188 164,-64 8,-64"/>
</a>
</g>
</g>
<!-- dir_d93c684152b9dbfa36b614b4419d35b9 -->
<g id="node1" class="node">
<title>dir_d93c684152b9dbfa36b614b4419d35b9</title>
<text text-anchor="middle" x="122" y="-159.5" font-family="Helvetica,sans-Serif" font-size="10.00">supernova</text>
</g>
<!-- dir_0508a806709bbb036eb481438c5edd07 -->
<g id="node4" class="node">
<title>dir_0508a806709bbb036eb481438c5edd07</title>
<g id="a_node4"><a xlink:href="dir_0508a806709bbb036eb481438c5edd07.html" target="_top" xlink:title="effective_area">
<polygon fill="white" stroke="red" points="258,-108 172,-108 172,-72 258,-72 258,-108"/>
<text text-anchor="middle" x="215" y="-87.5" font-family="Helvetica,sans-Serif" font-size="10.00">effective_area</text>
</a>
</g>
</g>
<!-- dir_d93c684152b9dbfa36b614b4419d35b9&#45;&gt;dir_0508a806709bbb036eb481438c5edd07 -->
<g id="edge2" class="edge">
<title>dir_d93c684152b9dbfa36b614b4419d35b9&#45;&gt;dir_0508a806709bbb036eb481438c5edd07</title>
<path fill="none" stroke="black" d="M144.99,-143.7C156.81,-134.8 171.39,-123.82 184.18,-114.2"/>
<polygon fill="black" stroke="black" points="186.39,-116.91 192.28,-108.1 182.18,-111.32 186.39,-116.91"/>
<g id="a_edge2&#45;headlabel"><a xlink:href="dir_000006_000009.html" target="_top" xlink:title="2">
<text text-anchor="middle" x="185.23" y="-118.84" font-family="Helvetica,sans-Serif" font-size="10.00">2</text>
</a>
</g>
</g>
<!-- dir_bdd9a5d540de89e9fe90efdfc6973a4f -->
<g id="node5" class="node">
<title>dir_bdd9a5d540de89e9fe90efdfc6973a4f</title>
<g id="a_node5"><a xlink:href="dir_bdd9a5d540de89e9fe90efdfc6973a4f.html" target="_top" xlink:title="common">
<polygon fill="white" stroke="red" points="244.5,-36 185.5,-36 185.5,0 244.5,0 244.5,-36"/>
<text text-anchor="middle" x="215" y="-15.5" font-family="Helvetica,sans-Serif" font-size="10.00">common</text>
</a>
</g>
</g>
<!-- dir_d93c684152b9dbfa36b614b4419d35b9&#45;&gt;dir_bdd9a5d540de89e9fe90efdfc6973a4f -->
<g id="edge3" class="edge">
<title>dir_d93c684152b9dbfa36b614b4419d35b9&#45;&gt;dir_bdd9a5d540de89e9fe90efdfc6973a4f</title>
<path fill="none" stroke="black" d="M156.23,-159.2C190.66,-155.36 242.12,-143.58 267,-108 278.21,-91.97 275.13,-81.79 267,-64 263.33,-55.96 257.43,-48.81 250.9,-42.7"/>
<polygon fill="black" stroke="black" points="252.93,-39.83 243.04,-36.02 248.4,-45.17 252.93,-39.83"/>
<g id="a_edge3&#45;headlabel"><a xlink:href="dir_000006_000000.html" target="_top" xlink:title="1">
<text text-anchor="middle" x="257.51" y="-37.5" font-family="Helvetica,sans-Serif" font-size="10.00">1</text>
</a>
</g>
</g>
<!-- dir_92a6dce2fc7a56e8eeab455633cad61b -->
<g id="node2" class="node">
<title>dir_92a6dce2fc7a56e8eeab455633cad61b</title>
<g id="a_node2"><a xlink:href="dir_92a6dce2fc7a56e8eeab455633cad61b.html" target="_top" xlink:title="include">
<polygon fill="white" stroke="black" points="70,-108 16,-108 16,-72 70,-72 70,-108"/>
<text text-anchor="middle" x="43" y="-87.5" font-family="Helvetica,sans-Serif" font-size="10.00">include</text>
</a>
</g>
</g>
<!-- dir_3eb80fb40bb9918af86e7507fbd94fb7 -->
<g id="node3" class="node">
<title>dir_3eb80fb40bb9918af86e7507fbd94fb7</title>
<g id="a_node3"><a xlink:href="dir_3eb80fb40bb9918af86e7507fbd94fb7.html" target="_top" xlink:title="src">
<polygon fill="white" stroke="black" points="70,-180 16,-180 16,-144 70,-144 70,-180"/>
<text text-anchor="middle" x="43" y="-159.5" font-family="Helvetica,sans-Serif" font-size="10.00">src</text>
</a>
</g>
</g>
<!-- dir_3eb80fb40bb9918af86e7507fbd94fb7&#45;&gt;dir_92a6dce2fc7a56e8eeab455633cad61b -->
<g id="edge1" class="edge">
<title>dir_3eb80fb40bb9918af86e7507fbd94fb7&#45;&gt;dir_92a6dce2fc7a56e8eeab455633cad61b</title>
<path fill="none" stroke="black" d="M43,-143.7C43,-135.98 43,-126.71 43,-118.11"/>
<polygon fill="black" stroke="black" points="46.5,-118.1 43,-108.1 39.5,-118.1 46.5,-118.1"/>
<g id="a_edge1&#45;headlabel"><a xlink:href="dir_000007_000008.html" target="_top" xlink:title="2">
<text text-anchor="middle" x="49.34" y="-119.2" font-family="Helvetica,sans-Serif" font-size="10.00">2</text>
</a>
</g>
</g>
<!-- dir_0508a806709bbb036eb481438c5edd07&#45;&gt;dir_bdd9a5d540de89e9fe90efdfc6973a4f -->
<g id="edge5" class="edge">
<title>dir_0508a806709bbb036eb481438c5edd07&#45;&gt;dir_bdd9a5d540de89e9fe90efdfc6973a4f</title>
<path fill="none" stroke="black" d="M209.08,-71.7C208.29,-63.98 208.06,-54.71 208.4,-46.11"/>
<polygon fill="black" stroke="black" points="211.9,-46.32 209.1,-36.1 204.92,-45.84 211.9,-46.32"/>
<g id="a_edge5&#45;headlabel"><a xlink:href="dir_000009_000000.html" target="_top" xlink:title="13">
<text text-anchor="middle" x="214.48" y="-47.61" font-family="Helvetica,sans-Serif" font-size="10.00">13</text>
</a>
</g>
</g>
<!-- dir_bdd9a5d540de89e9fe90efdfc6973a4f&#45;&gt;dir_0508a806709bbb036eb481438c5edd07 -->
<g id="edge4" class="edge">
<title>dir_bdd9a5d540de89e9fe90efdfc6973a4f&#45;&gt;dir_0508a806709bbb036eb481438c5edd07</title>
<path fill="none" stroke="black" d="M220.9,-36.1C221.7,-43.79 221.94,-53.05 221.6,-61.67"/>
<polygon fill="black" stroke="black" points="218.11,-61.48 220.92,-71.7 225.09,-61.96 218.11,-61.48"/>
<g id="a_edge4&#45;headlabel"><a xlink:href="dir_000000_000009.html" target="_top" xlink:title="1">
<text text-anchor="middle" x="215.52" y="-55.2" font-family="Helvetica,sans-Serif" font-size="10.00">1</text>
</a>
</g>
</g>
</g>
</svg>
