<?xml version="1.0" encoding="UTF-8" standalone="no"?>
<!DOCTYPE svg PUBLIC "-//W3C//DTD SVG 1.1//EN"
 "http://www.w3.org/Graphics/SVG/1.1/DTD/svg11.dtd">
<!-- Generated by graphviz version 2.43.0 (0)
 -->
<!-- Title: radioactive_decays Pages: 1 -->
<svg width="309pt" height="204pt"
 viewBox="0.00 0.00 309.00 204.00" xmlns="http://www.w3.org/2000/svg" xmlns:xlink="http://www.w3.org/1999/xlink">
<g id="graph0" class="graph" transform="scale(1 1) rotate(0) translate(4 200)">
<title>radioactive_decays</title>
<polygon fill="white" stroke="transparent" points="-4,4 -4,-200 305,-200 305,4 -4,4"/>
<g id="clust1" class="cluster">
<title>clusterdir_c36bb099819ad84805be167dee96fbce</title>
<g id="a_clust1"><a xlink:href="dir_c36bb099819ad84805be167dee96fbce.html" target="_top">
<polygon fill="#eeeeff" stroke="black" points="8,-64 8,-188 207,-188 207,-64 8,-64"/>
</a>
</g>
</g>
<!-- dir_c36bb099819ad84805be167dee96fbce -->
<g id="node1" class="node">
<title>dir_c36bb099819ad84805be167dee96fbce</title>
<text text-anchor="middle" x="144" y="-159.5" font-family="Helvetica,sans-Serif" font-size="10.00">radioactive_decays</text>
</g>
<!-- dir_0508a806709bbb036eb481438c5edd07 -->
<g id="node4" class="node">
<title>dir_0508a806709bbb036eb481438c5edd07</title>
<g id="a_node4"><a xlink:href="dir_0508a806709bbb036eb481438c5edd07.html" target="_top" xlink:title="effective_area">
<polygon fill="white" stroke="red" points="301,-108 215,-108 215,-72 301,-72 301,-108"/>
<text text-anchor="middle" x="258" y="-87.5" font-family="Helvetica,sans-Serif" font-size="10.00">effective_area</text>
</a>
</g>
</g>
<!-- dir_c36bb099819ad84805be167dee96fbce&#45;&gt;dir_0508a806709bbb036eb481438c5edd07 -->
<g id="edge4" class="edge">
<title>dir_c36bb099819ad84805be167dee96fbce&#45;&gt;dir_0508a806709bbb036eb481438c5edd07</title>
<path fill="none" stroke="black" d="M171.89,-143.88C186.79,-134.72 205.33,-123.34 221.38,-113.48"/>
<polygon fill="black" stroke="black" points="223.31,-116.41 230.01,-108.19 219.65,-110.44 223.31,-116.41"/>
<g id="a_edge4&#45;headlabel"><a xlink:href="dir_000005_000004.html" target="_top" xlink:title="1">
<text text-anchor="middle" x="221.74" y="-118.21" font-family="Helvetica,sans-Serif" font-size="10.00">1</text>
</a>
</g>
</g>
<!-- dir_cc4f7c071413eda74783f4f9188a2332 -->
<g id="node2" class="node">
<title>dir_cc4f7c071413eda74783f4f9188a2332</title>
<g id="a_node2"><a xlink:href="dir_cc4f7c071413eda74783f4f9188a2332.html" target="_top" xlink:title="include">
<polygon fill="white" stroke="black" points="70,-108 16,-108 16,-72 70,-72 70,-108"/>
<text text-anchor="middle" x="43" y="-87.5" font-family="Helvetica,sans-Serif" font-size="10.00">include</text>
</a>
</g>
</g>
<!-- dir_bdd9a5d540de89e9fe90efdfc6973a4f -->
<g id="node5" class="node">
<title>dir_bdd9a5d540de89e9fe90efdfc6973a4f</title>
<g id="a_node5"><a xlink:href="dir_bdd9a5d540de89e9fe90efdfc6973a4f.html" target="_top" xlink:title="common">
<polygon fill="white" stroke="red" points="127.5,-36 68.5,-36 68.5,0 127.5,0 127.5,-36"/>
<text text-anchor="middle" x="98" y="-15.5" font-family="Helvetica,sans-Serif" font-size="10.00">common</text>
</a>
</g>
</g>
<!-- dir_cc4f7c071413eda74783f4f9188a2332&#45;&gt;dir_bdd9a5d540de89e9fe90efdfc6973a4f -->
<g id="edge3" class="edge">
<title>dir_cc4f7c071413eda74783f4f9188a2332&#45;&gt;dir_bdd9a5d540de89e9fe90efdfc6973a4f</title>
<path fill="none" stroke="black" d="M56.6,-71.7C63.12,-63.39 71.07,-53.28 78.25,-44.14"/>
<polygon fill="black" stroke="black" points="81.13,-46.13 84.56,-36.1 75.63,-41.81 81.13,-46.13"/>
<g id="a_edge3&#45;headlabel"><a xlink:href="dir_000009_000000.html" target="_top" xlink:title="3">
<text text-anchor="middle" x="81.15" y="-48.21" font-family="Helvetica,sans-Serif" font-size="10.00">3</text>
</a>
</g>
</g>
<!-- dir_fa719980a1b7d4d52b7831b795f5e2fd -->
<g id="node3" class="node">
<title>dir_fa719980a1b7d4d52b7831b795f5e2fd</title>
<g id="a_node3"><a xlink:href="dir_fa719980a1b7d4d52b7831b795f5e2fd.html" target="_top" xlink:title="src">
<polygon fill="white" stroke="black" points="70,-180 16,-180 16,-144 70,-144 70,-180"/>
<text text-anchor="middle" x="43" y="-159.5" font-family="Helvetica,sans-Serif" font-size="10.00">src</text>
</a>
</g>
</g>
<!-- dir_fa719980a1b7d4d52b7831b795f5e2fd&#45;&gt;dir_cc4f7c071413eda74783f4f9188a2332 -->
<g id="edge2" class="edge">
<title>dir_fa719980a1b7d4d52b7831b795f5e2fd&#45;&gt;dir_cc4f7c071413eda74783f4f9188a2332</title>
<path fill="none" stroke="black" d="M43,-143.7C43,-135.98 43,-126.71 43,-118.11"/>
<polygon fill="black" stroke="black" points="46.5,-118.1 43,-108.1 39.5,-118.1 46.5,-118.1"/>
<g id="a_edge2&#45;headlabel"><a xlink:href="dir_000007_000009.html" target="_top" xlink:title="1">
<text text-anchor="middle" x="49.34" y="-119.2" font-family="Helvetica,sans-Serif" font-size="10.00">1</text>
</a>
</g>
</g>
<!-- dir_fa719980a1b7d4d52b7831b795f5e2fd&#45;&gt;dir_bdd9a5d540de89e9fe90efdfc6973a4f -->
<g id="edge1" class="edge">
<title>dir_fa719980a1b7d4d52b7831b795f5e2fd&#45;&gt;dir_bdd9a5d540de89e9fe90efdfc6973a4f</title>
<path fill="none" stroke="black" d="M57.16,-143.85C64.69,-133.93 73.5,-120.89 79,-108 87.41,-88.29 92.24,-64.49 94.93,-46.46"/>
<polygon fill="black" stroke="black" points="98.43,-46.71 96.3,-36.33 91.49,-45.76 98.43,-46.71"/>
<g id="a_edge1&#45;headlabel"><a xlink:href="dir_000007_000000.html" target="_top" xlink:title="7">
<text text-anchor="middle" x="100.76" y="-48.15" font-family="Helvetica,sans-Serif" font-size="10.00">7</text>
</a>
</g>
</g>
<!-- dir_0508a806709bbb036eb481438c5edd07&#45;&gt;dir_bdd9a5d540de89e9fe90efdfc6973a4f -->
<g id="edge5" class="edge">
<title>dir_0508a806709bbb036eb481438c5edd07&#45;&gt;dir_bdd9a5d540de89e9fe90efdfc6973a4f</title>
<path fill="none" stroke="black" d="M227.15,-71.97C221.81,-69.21 216.28,-66.45 211,-64 186.91,-52.84 159.22,-41.78 137.28,-33.42"/>
<polygon fill="black" stroke="black" points="138.23,-30.04 127.64,-29.78 135.76,-36.59 138.23,-30.04"/>
<g id="a_edge5&#45;headlabel"><a xlink:href="dir_000004_000000.html" target="_top" xlink:title="10">
<text text-anchor="middle" x="142.6" y="-26.16" font-family="Helvetica,sans-Serif" font-size="10.00">10</text>
</a>
</g>
</g>
</g>
</svg>
