<?xml version="1.0" encoding="UTF-8" standalone="no"?>
<!DOCTYPE svg PUBLIC "-//W3C//DTD SVG 1.1//EN"
 "http://www.w3.org/Graphics/SVG/1.1/DTD/svg11.dtd">
<!-- Generated by graphviz version 2.43.0 (0)
 -->
<!-- Title: src Pages: 1 -->
<svg width="126pt" height="223pt"
 viewBox="0.00 0.00 126.00 223.00" xmlns="http://www.w3.org/2000/svg" xmlns:xlink="http://www.w3.org/1999/xlink">
<g id="graph0" class="graph" transform="scale(1 1) rotate(0) translate(4 219)">
<title>src</title>
<polygon fill="white" stroke="transparent" points="-4,4 -4,-219 122,-219 122,4 -4,4"/>
<g id="clust1" class="cluster">
<title>clusterdir_cb570a242dbc0052c0f504f8f76c32b4</title>
<g id="a_clust1"><a xlink:href="dir_cb570a242dbc0052c0f504f8f76c32b4.html" target="_top" xlink:title="optical_modules">
<polygon fill="#ddddee" stroke="black" points="8,-64 8,-207 105,-207 105,-64 8,-64"/>
<text text-anchor="middle" x="56.5" y="-195" font-family="Helvetica,sans-Serif" font-size="10.00">optical_modules</text>
</a>
</g>
</g>
<!-- dir_8b9196544f899077021e98e42ad8aa98 -->
<g id="node1" class="node">
<title>dir_8b9196544f899077021e98e42ad8aa98</title>
<g id="a_node1"><a xlink:href="dir_8b9196544f899077021e98e42ad8aa98.html" target="_top" xlink:title="include">
<polygon fill="none" stroke="black" points="83,-108 29,-108 29,-72 83,-72 83,-108"/>
<text text-anchor="middle" x="56" y="-87.5" font-family="Helvetica,sans-Serif" font-size="10.00">include</text>
</a>
</g>
</g>
<!-- dir_864f292c5cbb4a74180810cb2e80dd5b -->
<g id="node3" class="node">
<title>dir_864f292c5cbb4a74180810cb2e80dd5b</title>
<g id="a_node3"><a xlink:href="dir_864f292c5cbb4a74180810cb2e80dd5b.html" target="_top" xlink:title="framework">
<polygon fill="white" stroke="red" points="118,-36 48,-36 48,0 118,0 118,-36"/>
<text text-anchor="middle" x="83" y="-15.5" font-family="Helvetica,sans-Serif" font-size="10.00">framework</text>
</a>
</g>
</g>
<!-- dir_8b9196544f899077021e98e42ad8aa98&#45;&gt;dir_864f292c5cbb4a74180810cb2e80dd5b -->
<g id="edge1" class="edge">
<title>dir_8b9196544f899077021e98e42ad8aa98&#45;&gt;dir_864f292c5cbb4a74180810cb2e80dd5b</title>
<path fill="none" stroke="black" d="M62.67,-71.7C65.71,-63.81 69.38,-54.3 72.76,-45.55"/>
<polygon fill="black" stroke="black" points="76.07,-46.69 76.4,-36.1 69.54,-44.17 76.07,-46.69"/>
<g id="a_edge1&#45;headlabel"><a xlink:href="dir_000015_000001.html" target="_top" xlink:title="10">
<text text-anchor="middle" x="77.42" y="-48.57" font-family="Helvetica,sans-Serif" font-size="10.00">10</text>
</a>
</g>
</g>
<!-- dir_55900704eaef4284595bcb315f6dde1d -->
<g id="node2" class="node">
<title>dir_55900704eaef4284595bcb315f6dde1d</title>
<g id="a_node2"><a xlink:href="dir_55900704eaef4284595bcb315f6dde1d.html" target="_top" xlink:title="src">
<polygon fill="#eeeeff" stroke="black" points="90,-180 36,-180 36,-144 90,-144 90,-180"/>
<text text-anchor="middle" x="63" y="-159.5" font-family="Helvetica,sans-Serif" font-size="10.00">src</text>
</a>
</g>
</g>
<!-- dir_55900704eaef4284595bcb315f6dde1d&#45;&gt;dir_8b9196544f899077021e98e42ad8aa98 -->
<g id="edge3" class="edge">
<title>dir_55900704eaef4284595bcb315f6dde1d&#45;&gt;dir_8b9196544f899077021e98e42ad8aa98</title>
<path fill="none" stroke="black" d="M61.27,-143.7C60.5,-135.98 59.57,-126.71 58.71,-118.11"/>
<polygon fill="black" stroke="black" points="62.19,-117.71 57.71,-108.1 55.22,-118.4 62.19,-117.71"/>
<g id="a_edge3&#45;headlabel"><a xlink:href="dir_000014_000015.html" target="_top" xlink:title="10">
<text text-anchor="middle" x="65.37" y="-118.5" font-family="Helvetica,sans-Serif" font-size="10.00">10</text>
</a>
</g>
</g>
<!-- dir_55900704eaef4284595bcb315f6dde1d&#45;&gt;dir_864f292c5cbb4a74180810cb2e80dd5b -->
<g id="edge2" class="edge">
<title>dir_55900704eaef4284595bcb315f6dde1d&#45;&gt;dir_864f292c5cbb4a74180810cb2e80dd5b</title>
<path fill="none" stroke="black" d="M75.31,-143.78C81.65,-133.84 88.73,-120.8 92,-108 97.21,-87.62 94.39,-63.9 90.58,-46.07"/>
<polygon fill="black" stroke="black" points="93.98,-45.25 88.27,-36.33 87.17,-46.86 93.98,-45.25"/>
<g id="a_edge2&#45;headlabel"><a xlink:href="dir_000014_000001.html" target="_top" xlink:title="12">
<text text-anchor="middle" x="97.57" y="-45.6" font-family="Helvetica,sans-Serif" font-size="10.00">12</text>
</a>
</g>
</g>
</g>
</svg>
