<?xml version="1.0" encoding="UTF-8" standalone="no"?>
<!DOCTYPE svg PUBLIC "-//W3C//DTD SVG 1.1//EN"
 "http://www.w3.org/Graphics/SVG/1.1/DTD/svg11.dtd">
<!-- Generated by graphviz version 2.43.0 (0)
 -->
<!-- Title: common Pages: 1 -->
<svg width="172pt" height="204pt"
 viewBox="0.00 0.00 172.00 204.00" xmlns="http://www.w3.org/2000/svg" xmlns:xlink="http://www.w3.org/1999/xlink">
<g id="graph0" class="graph" transform="scale(1 1) rotate(0) translate(4 200)">
<title>common</title>
<polygon fill="white" stroke="transparent" points="-4,4 -4,-200 168,-200 168,4 -4,4"/>
<g id="clust1" class="cluster">
<title>clusterdir_bdd9a5d540de89e9fe90efdfc6973a4f</title>
<g id="a_clust1"><a xlink:href="dir_bdd9a5d540de89e9fe90efdfc6973a4f.html" target="_top">
<polygon fill="#eeeeff" stroke="black" points="8,-64 8,-188 156,-188 156,-64 8,-64"/>
</a>
</g>
</g>
<!-- dir_bdd9a5d540de89e9fe90efdfc6973a4f -->
<g id="node1" class="node">
<title>dir_bdd9a5d540de89e9fe90efdfc6973a4f</title>
<text text-anchor="middle" x="118" y="-159.5" font-family="Helvetica,sans-Serif" font-size="10.00">common</text>
</g>
<!-- dir_11fbc4217d50ab21044e5ad6614aede5 -->
<g id="node2" class="node">
<title>dir_11fbc4217d50ab21044e5ad6614aede5</title>
<g id="a_node2"><a xlink:href="dir_11fbc4217d50ab21044e5ad6614aede5.html" target="_top" xlink:title="include">
<polygon fill="white" stroke="black" points="70,-108 16,-108 16,-72 70,-72 70,-108"/>
<text text-anchor="middle" x="43" y="-87.5" font-family="Helvetica,sans-Serif" font-size="10.00">include</text>
</a>
</g>
</g>
<!-- dir_0508a806709bbb036eb481438c5edd07 -->
<g id="node4" class="node">
<title>dir_0508a806709bbb036eb481438c5edd07</title>
<g id="a_node4"><a xlink:href="dir_0508a806709bbb036eb481438c5edd07.html" target="_top" xlink:title="effective_area">
<polygon fill="white" stroke="red" points="86,-36 0,-36 0,0 86,0 86,-36"/>
<text text-anchor="middle" x="43" y="-15.5" font-family="Helvetica,sans-Serif" font-size="10.00">effective_area</text>
</a>
</g>
</g>
<!-- dir_11fbc4217d50ab21044e5ad6614aede5&#45;&gt;dir_0508a806709bbb036eb481438c5edd07 -->
<g id="edge2" class="edge">
<title>dir_11fbc4217d50ab21044e5ad6614aede5&#45;&gt;dir_0508a806709bbb036eb481438c5edd07</title>
<path fill="none" stroke="black" d="M37.08,-71.7C36.29,-63.98 36.06,-54.71 36.4,-46.11"/>
<polygon fill="black" stroke="black" points="39.9,-46.32 37.1,-36.1 32.92,-45.84 39.9,-46.32"/>
<g id="a_edge2&#45;headlabel"><a xlink:href="dir_000002_000003.html" target="_top" xlink:title="7">
<text text-anchor="middle" x="42.48" y="-47.61" font-family="Helvetica,sans-Serif" font-size="10.00">7</text>
</a>
</g>
</g>
<!-- dir_4e4d22e38ca4e2e8207825ee2d00bc54 -->
<g id="node3" class="node">
<title>dir_4e4d22e38ca4e2e8207825ee2d00bc54</title>
<g id="a_node3"><a xlink:href="dir_4e4d22e38ca4e2e8207825ee2d00bc54.html" target="_top" xlink:title="src">
<polygon fill="white" stroke="black" points="70,-180 16,-180 16,-144 70,-144 70,-180"/>
<text text-anchor="middle" x="43" y="-159.5" font-family="Helvetica,sans-Serif" font-size="10.00">src</text>
</a>
</g>
</g>
<!-- dir_4e4d22e38ca4e2e8207825ee2d00bc54&#45;&gt;dir_11fbc4217d50ab21044e5ad6614aede5 -->
<g id="edge1" class="edge">
<title>dir_4e4d22e38ca4e2e8207825ee2d00bc54&#45;&gt;dir_11fbc4217d50ab21044e5ad6614aede5</title>
<path fill="none" stroke="black" d="M43,-143.7C43,-135.98 43,-126.71 43,-118.11"/>
<polygon fill="black" stroke="black" points="46.5,-118.1 43,-108.1 39.5,-118.1 46.5,-118.1"/>
<g id="a_edge1&#45;headlabel"><a xlink:href="dir_000001_000002.html" target="_top" xlink:title="55">
<text text-anchor="middle" x="49.34" y="-119.2" font-family="Helvetica,sans-Serif" font-size="10.00">55</text>
</a>
</g>
</g>
<!-- dir_0508a806709bbb036eb481438c5edd07&#45;&gt;dir_11fbc4217d50ab21044e5ad6614aede5 -->
<g id="edge3" class="edge">
<title>dir_0508a806709bbb036eb481438c5edd07&#45;&gt;dir_11fbc4217d50ab21044e5ad6614aede5</title>
<path fill="none" stroke="black" d="M48.9,-36.1C49.7,-43.79 49.94,-53.05 49.6,-61.67"/>
<polygon fill="black" stroke="black" points="46.11,-61.48 48.92,-71.7 53.09,-61.96 46.11,-61.48"/>
<g id="a_edge3&#45;headlabel"><a xlink:href="dir_000003_000002.html" target="_top" xlink:title="18">
<text text-anchor="middle" x="43.52" y="-55.2" font-family="Helvetica,sans-Serif" font-size="10.00">18</text>
</a>
</g>
</g>
</g>
</svg>
