<?xml version="1.0" encoding="UTF-8" standalone="no"?>
<!DOCTYPE svg PUBLIC "-//W3C//DTD SVG 1.1//EN"
 "http://www.w3.org/Graphics/SVG/1.1/DTD/svg11.dtd">
<!-- Generated by graphviz version 2.43.0 (0)
 -->
<!-- Title: common Pages: 1 -->
<svg width="215pt" height="204pt"
 viewBox="0.00 0.00 215.15 204.00" xmlns="http://www.w3.org/2000/svg" xmlns:xlink="http://www.w3.org/1999/xlink">
<g id="graph0" class="graph" transform="scale(1 1) rotate(0) translate(4 200)">
<title>common</title>
<polygon fill="white" stroke="transparent" points="-4,4 -4,-200 211.15,-200 211.15,4 -4,4"/>
<g id="clust1" class="cluster">
<title>clusterdir_bdd9a5d540de89e9fe90efdfc6973a4f</title>
<g id="a_clust1"><a xlink:href="dir_bdd9a5d540de89e9fe90efdfc6973a4f.html" target="_top">
<polygon fill="#eeeeff" stroke="black" points="8.15,-8 8.15,-132 198.15,-132 198.15,-8 8.15,-8"/>
</a>
</g>
</g>
<!-- dir_bdd9a5d540de89e9fe90efdfc6973a4f -->
<g id="node1" class="node">
<title>dir_bdd9a5d540de89e9fe90efdfc6973a4f</title>
<text text-anchor="middle" x="160.15" y="-103.5" font-family="Helvetica,sans-Serif" font-size="10.00">common</text>
</g>
<!-- dir_864f292c5cbb4a74180810cb2e80dd5b -->
<g id="node2" class="node">
<title>dir_864f292c5cbb4a74180810cb2e80dd5b</title>
<g id="a_node2"><a xlink:href="dir_864f292c5cbb4a74180810cb2e80dd5b.html" target="_top" xlink:title="framework">
<polygon fill="white" stroke="red" points="99.15,-52 29.15,-52 29.15,-16 99.15,-16 99.15,-52"/>
<text text-anchor="middle" x="64.15" y="-31.5" font-family="Helvetica,sans-Serif" font-size="10.00">framework</text>
</a>
</g>
</g>
<!-- dir_0508a806709bbb036eb481438c5edd07 -->
<g id="node4" class="node">
<title>dir_0508a806709bbb036eb481438c5edd07</title>
<g id="a_node4"><a xlink:href="dir_0508a806709bbb036eb481438c5edd07.html" target="_top" xlink:title="effective_area">
<polygon fill="white" stroke="red" points="155.15,-196 69.15,-196 69.15,-160 155.15,-160 155.15,-196"/>
<text text-anchor="middle" x="112.15" y="-175.5" font-family="Helvetica,sans-Serif" font-size="10.00">effective_area</text>
</a>
</g>
</g>
<!-- dir_864f292c5cbb4a74180810cb2e80dd5b&#45;&gt;dir_0508a806709bbb036eb481438c5edd07 -->
<g id="edge1" class="edge">
<title>dir_864f292c5cbb4a74180810cb2e80dd5b&#45;&gt;dir_0508a806709bbb036eb481438c5edd07</title>
<path fill="none" stroke="black" d="M37.57,-52.09C25.91,-61.19 13.47,-73.51 7.15,-88 -0.66,-105.93 -3.61,-115.67 7.15,-132 18.97,-149.93 39.58,-160.74 59.42,-167.25"/>
<polygon fill="black" stroke="black" points="58.48,-170.62 69.06,-170.11 60.47,-163.91 58.48,-170.62"/>
<g id="a_edge1&#45;headlabel"><a xlink:href="dir_000001_000006.html" target="_top" xlink:title="1">
<text text-anchor="middle" x="54.23" y="-169.82" font-family="Helvetica,sans-Serif" font-size="10.00">1</text>
</a>
</g>
</g>
<!-- dir_cb570a242dbc0052c0f504f8f76c32b4 -->
<g id="node3" class="node">
<title>dir_cb570a242dbc0052c0f504f8f76c32b4</title>
<g id="a_node3"><a xlink:href="dir_cb570a242dbc0052c0f504f8f76c32b4.html" target="_top" xlink:title="optical_modules">
<polygon fill="white" stroke="red" points="112.65,-124 15.65,-124 15.65,-88 112.65,-88 112.65,-124"/>
<text text-anchor="middle" x="64.15" y="-103.5" font-family="Helvetica,sans-Serif" font-size="10.00">optical_modules</text>
</a>
</g>
</g>
<!-- dir_cb570a242dbc0052c0f504f8f76c32b4&#45;&gt;dir_864f292c5cbb4a74180810cb2e80dd5b -->
<g id="edge2" class="edge">
<title>dir_cb570a242dbc0052c0f504f8f76c32b4&#45;&gt;dir_864f292c5cbb4a74180810cb2e80dd5b</title>
<path fill="none" stroke="black" d="M64.15,-87.7C64.15,-79.98 64.15,-70.71 64.15,-62.11"/>
<polygon fill="black" stroke="black" points="67.65,-62.1 64.15,-52.1 60.65,-62.1 67.65,-62.1"/>
<g id="a_edge2&#45;headlabel"><a xlink:href="dir_000010_000001.html" target="_top" xlink:title="19">
<text text-anchor="middle" x="70.49" y="-63.2" font-family="Helvetica,sans-Serif" font-size="10.00">19</text>
</a>
</g>
</g>
<!-- dir_0508a806709bbb036eb481438c5edd07&#45;&gt;dir_bdd9a5d540de89e9fe90efdfc6973a4f -->
<g id="edge4" class="edge">
<title>dir_0508a806709bbb036eb481438c5edd07&#45;&gt;dir_bdd9a5d540de89e9fe90efdfc6973a4f</title>
<path fill="none" stroke="black" d="M124.02,-159.7C129.65,-151.47 136.5,-141.48 142.72,-132.42"/>
<polygon fill="black" stroke="black" points="145.65,-134.33 148.42,-124.1 139.88,-130.37 145.65,-134.33"/>
<g id="a_edge4&#45;headlabel"><a xlink:href="dir_000006_000000.html" target="_top" xlink:title="12">
<text text-anchor="middle" x="145.96" y="-136.4" font-family="Helvetica,sans-Serif" font-size="10.00">12</text>
</a>
</g>
</g>
<!-- dir_0508a806709bbb036eb481438c5edd07&#45;&gt;dir_864f292c5cbb4a74180810cb2e80dd5b -->
<g id="edge3" class="edge">
<title>dir_0508a806709bbb036eb481438c5edd07&#45;&gt;dir_864f292c5cbb4a74180810cb2e80dd5b</title>
<path fill="none" stroke="black" d="M155.28,-165.38C172,-158.53 189.43,-147.98 199.15,-132 209.32,-115.3 210.17,-104.16 199.15,-88 179.21,-58.75 140.45,-45.64 109.56,-39.77"/>
<polygon fill="black" stroke="black" points="109.87,-36.27 99.42,-38.04 108.69,-43.17 109.87,-36.27"/>
<g id="a_edge3&#45;headlabel"><a xlink:href="dir_000006_000001.html" target="_top" xlink:title="7">
<text text-anchor="middle" x="113.89" y="-31.57" font-family="Helvetica,sans-Serif" font-size="10.00">7</text>
</a>
</g>
</g>
<!-- dir_0508a806709bbb036eb481438c5edd07&#45;&gt;dir_cb570a242dbc0052c0f504f8f76c32b4 -->
<g id="edge5" class="edge">
<title>dir_0508a806709bbb036eb481438c5edd07&#45;&gt;dir_cb570a242dbc0052c0f504f8f76c32b4</title>
<path fill="none" stroke="black" d="M100.29,-159.7C94.65,-151.47 87.8,-141.48 81.58,-132.42"/>
<polygon fill="black" stroke="black" points="84.42,-130.37 75.88,-124.1 78.65,-134.33 84.42,-130.37"/>
<g id="a_edge5&#45;headlabel"><a xlink:href="dir_000006_000010.html" target="_top" xlink:title="5">
<text text-anchor="middle" x="88.8" y="-129.23" font-family="Helvetica,sans-Serif" font-size="10.00">5</text>
</a>
</g>
</g>
</g>
</svg>
