<?xml version="1.0" encoding="UTF-8" standalone="no"?>
<!DOCTYPE svg PUBLIC "-//W3C//DTD SVG 1.1//EN"
 "http://www.w3.org/Graphics/SVG/1.1/DTD/svg11.dtd">
<!-- Generated by graphviz version 2.43.0 (0)
 -->
<!-- Title: src Pages: 1 -->
<svg width="182pt" height="167pt"
 viewBox="0.00 0.00 182.00 167.00" xmlns="http://www.w3.org/2000/svg" xmlns:xlink="http://www.w3.org/1999/xlink">
<g id="graph0" class="graph" transform="scale(1 1) rotate(0) translate(4 163)">
<title>src</title>
<polygon fill="white" stroke="transparent" points="-4,4 -4,-163 178,-163 178,4 -4,4"/>
<g id="clust1" class="cluster">
<title>clusterdir_864f292c5cbb4a74180810cb2e80dd5b</title>
<g id="a_clust1"><a xlink:href="dir_864f292c5cbb4a74180810cb2e80dd5b.html" target="_top" xlink:title="framework">
<polygon fill="#ddddee" stroke="black" points="8,-8 8,-151 78,-151 78,-8 8,-8"/>
<text text-anchor="middle" x="43" y="-139" font-family="Helvetica,sans-Serif" font-size="10.00">framework</text>
</a>
</g>
</g>
<!-- dir_1bc21981797ed08ef994409d474646cd -->
<g id="node1" class="node">
<title>dir_1bc21981797ed08ef994409d474646cd</title>
<g id="a_node1"><a xlink:href="dir_1bc21981797ed08ef994409d474646cd.html" target="_top" xlink:title="include">
<polygon fill="none" stroke="black" points="70,-52 16,-52 16,-16 70,-16 70,-52"/>
<text text-anchor="middle" x="43" y="-31.5" font-family="Helvetica,sans-Serif" font-size="10.00">include</text>
</a>
</g>
</g>
<!-- dir_5c9994549f1b04962ce70143cf697342 -->
<g id="node2" class="node">
<title>dir_5c9994549f1b04962ce70143cf697342</title>
<g id="a_node2"><a xlink:href="dir_5c9994549f1b04962ce70143cf697342.html" target="_top" xlink:title="src">
<polygon fill="#eeeeff" stroke="black" points="70,-124 16,-124 16,-88 70,-88 70,-124"/>
<text text-anchor="middle" x="43" y="-103.5" font-family="Helvetica,sans-Serif" font-size="10.00">src</text>
</a>
</g>
</g>
<!-- dir_5c9994549f1b04962ce70143cf697342&#45;&gt;dir_1bc21981797ed08ef994409d474646cd -->
<g id="edge2" class="edge">
<title>dir_5c9994549f1b04962ce70143cf697342&#45;&gt;dir_1bc21981797ed08ef994409d474646cd</title>
<path fill="none" stroke="black" d="M43,-87.7C43,-79.98 43,-70.71 43,-62.11"/>
<polygon fill="black" stroke="black" points="46.5,-62.1 43,-52.1 39.5,-62.1 46.5,-62.1"/>
<g id="a_edge2&#45;headlabel"><a xlink:href="dir_000002_000003.html" target="_top" xlink:title="21">
<text text-anchor="middle" x="49.34" y="-63.2" font-family="Helvetica,sans-Serif" font-size="10.00">21</text>
</a>
</g>
</g>
<!-- dir_0508a806709bbb036eb481438c5edd07 -->
<g id="node3" class="node">
<title>dir_0508a806709bbb036eb481438c5edd07</title>
<g id="a_node3"><a xlink:href="dir_0508a806709bbb036eb481438c5edd07.html" target="_top" xlink:title="effective_area">
<polygon fill="white" stroke="red" points="174,-52 88,-52 88,-16 174,-16 174,-52"/>
<text text-anchor="middle" x="131" y="-31.5" font-family="Helvetica,sans-Serif" font-size="10.00">effective_area</text>
</a>
</g>
</g>
<!-- dir_5c9994549f1b04962ce70143cf697342&#45;&gt;dir_0508a806709bbb036eb481438c5edd07 -->
<g id="edge1" class="edge">
<title>dir_5c9994549f1b04962ce70143cf697342&#45;&gt;dir_0508a806709bbb036eb481438c5edd07</title>
<path fill="none" stroke="black" d="M64.75,-87.7C75.84,-78.88 89.47,-68.03 101.49,-58.47"/>
<polygon fill="black" stroke="black" points="103.85,-61.07 109.5,-52.1 99.49,-55.59 103.85,-61.07"/>
<g id="a_edge1&#45;headlabel"><a xlink:href="dir_000002_000006.html" target="_top" xlink:title="1">
<text text-anchor="middle" x="102.8" y="-63.03" font-family="Helvetica,sans-Serif" font-size="10.00">1</text>
</a>
</g>
</g>
<!-- dir_0508a806709bbb036eb481438c5edd07&#45;&gt;dir_1bc21981797ed08ef994409d474646cd -->
<g id="edge3" class="edge">
<title>dir_0508a806709bbb036eb481438c5edd07&#45;&gt;dir_1bc21981797ed08ef994409d474646cd</title>
<path fill="none" stroke="black" d="M87.74,-34C85.27,-34 82.8,-34 80.32,-34"/>
<polygon fill="black" stroke="black" points="80.16,-30.5 70.16,-34 80.16,-37.5 80.16,-30.5"/>
<g id="a_edge3&#45;headlabel"><a xlink:href="dir_000006_000003.html" target="_top" xlink:title="7">
<text text-anchor="middle" x="83.75" y="-25.16" font-family="Helvetica,sans-Serif" font-size="10.00">7</text>
</a>
</g>
</g>
</g>
</svg>
