<?xml version="1.0" encoding="UTF-8" standalone="no"?>
<!DOCTYPE svg PUBLIC "-//W3C//DTD SVG 1.1//EN"
 "http://www.w3.org/Graphics/SVG/1.1/DTD/svg11.dtd">
<!-- Generated by graphviz version 2.43.0 (0)
 -->
<!-- Title: Effective area Pages: 1 -->
<svg width="379pt" height="83pt"
 viewBox="0.00 0.00 379.00 83.00" xmlns="http://www.w3.org/2000/svg" xmlns:xlink="http://www.w3.org/1999/xlink">
<g id="graph0" class="graph" transform="scale(1 1) rotate(0) translate(4 79)">
<title>Effective area</title>
<polygon fill="white" stroke="transparent" points="-4,4 -4,-79 375,-79 375,4 -4,4"/>
<!-- Node3 -->
<g id="node1" class="node">
<title>Node3</title>
<g id="a_node1"><a xlink:href="group__sngroup.html" target="_top" xlink:title="Comprehensive analysis and simulations focusing on the detection of CCSN neutrinos with segmented sen...">
<polygon fill="white" stroke="black" points="368.5,-75 261.5,-75 261.5,-56 368.5,-56 368.5,-75"/>
<text text-anchor="middle" x="315" y="-63" font-family="Helvetica,sans-Serif" font-size="10.00">Supernova Studies</text>
</a>
</g>
</g>
<!-- Node2 -->
<g id="node2" class="node">
<title>Node2</title>
<g id="a_node2"><a xlink:href="group__radioactive.html" target="_top" xlink:title="Simulations for understanding the background produced by radioactive decays in borosilicate glass of ...">
<polygon fill="white" stroke="black" points="371,-19 259,-19 259,0 371,0 371,-19"/>
<text text-anchor="middle" x="315" y="-7" font-family="Helvetica,sans-Serif" font-size="10.00">Radioactive decays</text>
</a>
</g>
</g>
<!-- Node1 -->
<g id="node3" class="node">
<title>Node1</title>
<g id="a_node3"><a xlink:title="All specific to the effective area studies of the optical modules.">
<polygon fill="#bfbfbf" stroke="black" points="84,-47 0,-47 0,-28 84,-28 84,-47"/>
<text text-anchor="middle" x="42" y="-35" font-family="Helvetica,sans-Serif" font-size="10.00">Effective area</text>
</a>
</g>
</g>
<!-- Node1&#45;&gt;Node3 -->
<g id="edge2" class="edge">
<title>Node1&#45;&gt;Node3</title>
<path fill="none" stroke="orange" stroke-dasharray="5,2" d="M84.16,-41.75C131.54,-46.65 209.48,-54.7 261.27,-60.05"/>
<text text-anchor="middle" x="171.5" y="-59.5" font-family="Helvetica,sans-Serif" font-size="10.00">OMSimDetectorConstruction</text>
</g>
<!-- Node1&#45;&gt;Node2 -->
<g id="edge1" class="edge">
<title>Node1&#45;&gt;Node2</title>
<path fill="none" stroke="orange" stroke-dasharray="5,2" d="M58.88,-27.98C70.4,-21.65 86.6,-13.89 102,-10.5 154.3,1.03 215.63,-0.23 258.83,-3.46"/>
<text text-anchor="middle" x="171.5" y="-35.5" font-family="Helvetica,sans-Serif" font-size="10.00">OMSimDetectorConstruction</text>
<text text-anchor="middle" x="171.5" y="-24.5" font-family="Helvetica,sans-Serif" font-size="10.00">OMSimEventAction</text>
<text text-anchor="middle" x="171.5" y="-13.5" font-family="Helvetica,sans-Serif" font-size="10.00">EventInfoManager</text>
</g>
</g>
</svg>
