<?xml version="1.0" encoding="UTF-8" standalone="no"?>
<!DOCTYPE svg PUBLIC "-//W3C//DTD SVG 1.1//EN"
 "http://www.w3.org/Graphics/SVG/1.1/DTD/svg11.dtd">
<!-- Generated by graphviz version 2.43.0 (0)
 -->
<!-- Title: Graphical Class Hierarchy Pages: 1 -->
<svg width="391pt" height="66pt"
 viewBox="0.00 0.00 391.00 66.00" xmlns="http://www.w3.org/2000/svg" xmlns:xlink="http://www.w3.org/1999/xlink">
<g id="graph0" class="graph" transform="scale(1 1) rotate(0) translate(4 62)">
<title>Graphical Class Hierarchy</title>
<polygon fill="white" stroke="transparent" points="-4,4 -4,-62 387,-62 387,4 -4,4"/>
<!-- Node41 -->
<g id="node1" class="node">
<title>Node41</title>
<g id="a_node1"><a xlink:title=" ">
<polygon fill="white" stroke="#bfbfbf" points="0,-19.5 0,-38.5 177,-38.5 177,-19.5 0,-19.5"/>
<text text-anchor="middle" x="88.5" y="-26.5" font-family="Helvetica,sans-Serif" font-size="10.00">G4VUserPrimaryGeneratorAction</text>
</a>
</g>
</g>
<!-- Node0 -->
<g id="node2" class="node">
<title>Node0</title>
<g id="a_node2"><a xlink:href="class_o_m_sim_primary_generator_action.html" target="_top" xlink:title=" ">
<polygon fill="white" stroke="black" points="213,-38.5 213,-57.5 383,-57.5 383,-38.5 213,-38.5"/>
<text text-anchor="middle" x="298" y="-45.5" font-family="Helvetica,sans-Serif" font-size="10.00">OMSimPrimaryGeneratorAction</text>
</a>
</g>
</g>
<!-- Node41&#45;&gt;Node0 -->
<g id="edge1" class="edge">
<title>Node41&#45;&gt;Node0</title>
<path fill="none" stroke="midnightblue" d="M187.24,-37.95C195.82,-38.74 204.46,-39.53 212.92,-40.3"/>
<polygon fill="midnightblue" stroke="midnightblue" points="187.48,-34.46 177.2,-37.03 186.84,-41.43 187.48,-34.46"/>
</g>
<!-- Node43 -->
<g id="node3" class="node">
<title>Node43</title>
<g id="a_node3"><a xlink:href="classmdom_primary_generator_action.html" target="_top" xlink:title=" ">
<polygon fill="white" stroke="black" points="215,-0.5 215,-19.5 381,-19.5 381,-0.5 215,-0.5"/>
<text text-anchor="middle" x="298" y="-7.5" font-family="Helvetica,sans-Serif" font-size="10.00">mdomPrimaryGeneratorAction</text>
</a>
</g>
</g>
<!-- Node41&#45;&gt;Node43 -->
<g id="edge2" class="edge">
<title>Node41&#45;&gt;Node43</title>
<path fill="none" stroke="midnightblue" d="M187.21,-20.05C196.48,-19.2 205.8,-18.35 214.9,-17.52"/>
<polygon fill="midnightblue" stroke="midnightblue" points="186.84,-16.57 177.2,-20.97 187.48,-23.54 186.84,-16.57"/>
</g>
</g>
</svg>
