<?xml version="1.0" encoding="UTF-8" standalone="no"?>
<!DOCTYPE svg PUBLIC "-//W3C//DTD SVG 1.1//EN"
 "http://www.w3.org/Graphics/SVG/1.1/DTD/svg11.dtd">
<!-- Generated by graphviz version 2.43.0 (0)
 -->
<!-- Title: Graphical Class Hierarchy Pages: 1 -->
<svg width="310pt" height="332pt"
 viewBox="0.00 0.00 310.00 332.00" xmlns="http://www.w3.org/2000/svg" xmlns:xlink="http://www.w3.org/1999/xlink">
<g id="graph0" class="graph" transform="scale(1 1) rotate(0) translate(4 328)">
<title>Graphical Class Hierarchy</title>
<polygon fill="white" stroke="transparent" points="-4,4 -4,-328 306,-328 306,4 -4,4"/>
<!-- Node0 -->
<g id="node1" class="node">
<title>Node0</title>
<g id="a_node1"><a xlink:href="classabc_detector_component.html" target="_top" xlink:title="Abstract base class used for constructing detector components.">
<polygon fill="white" stroke="black" points="0,-152.5 0,-171.5 132,-171.5 132,-152.5 0,-152.5"/>
<text text-anchor="middle" x="66" y="-159.5" font-family="Helvetica,sans-Serif" font-size="10.00">abcDetectorComponent</text>
</a>
</g>
</g>
<!-- Node1 -->
<g id="node2" class="node">
<title>Node1</title>
<g id="a_node2"><a xlink:href="class_d_e_g_g.html" target="_top" xlink:title="Construction of the DEGG detector geometry.">
<polygon fill="white" stroke="black" points="212.5,-304.5 212.5,-323.5 257.5,-323.5 257.5,-304.5 212.5,-304.5"/>
<text text-anchor="middle" x="235" y="-311.5" font-family="Helvetica,sans-Serif" font-size="10.00">DEGG</text>
</a>
</g>
</g>
<!-- Node0&#45;&gt;Node1 -->
<g id="edge1" class="edge">
<title>Node0&#45;&gt;Node1</title>
<path fill="none" stroke="midnightblue" d="M76.18,-180.78C91.29,-209.7 124.14,-264.94 168,-295 181.18,-304.03 198.65,-308.81 212.3,-311.32"/>
<polygon fill="midnightblue" stroke="midnightblue" points="79.24,-179.06 71.59,-171.73 73,-182.23 79.24,-179.06"/>
</g>
<!-- Node2 -->
<g id="node3" class="node">
<title>Node2</title>
<g id="a_node3"><a xlink:href="class_d_egg_harness.html" target="_top" xlink:title=" ">
<polygon fill="white" stroke="black" points="194,-266.5 194,-285.5 276,-285.5 276,-266.5 194,-266.5"/>
<text text-anchor="middle" x="235" y="-273.5" font-family="Helvetica,sans-Serif" font-size="10.00">DEggHarness</text>
</a>
</g>
</g>
<!-- Node0&#45;&gt;Node2 -->
<g id="edge2" class="edge">
<title>Node0&#45;&gt;Node2</title>
<path fill="none" stroke="midnightblue" d="M81.06,-179.58C99.03,-200.93 132.15,-236.59 168,-257 175.88,-261.48 184.89,-264.98 193.68,-267.68"/>
<polygon fill="midnightblue" stroke="midnightblue" points="83.58,-177.15 74.52,-171.66 78.18,-181.6 83.58,-177.15"/>
</g>
<!-- Node3 -->
<g id="node4" class="node">
<title>Node3</title>
<g id="a_node4"><a xlink:href="class_l_o_m16.html" target="_top" xlink:title=" ">
<polygon fill="white" stroke="black" points="210,-228.5 210,-247.5 260,-247.5 260,-228.5 210,-228.5"/>
<text text-anchor="middle" x="235" y="-235.5" font-family="Helvetica,sans-Serif" font-size="10.00">LOM16</text>
</a>
</g>
</g>
<!-- Node0&#45;&gt;Node3 -->
<g id="edge3" class="edge">
<title>Node0&#45;&gt;Node3</title>
<path fill="none" stroke="midnightblue" d="M90.2,-177.16C110.18,-189.71 140.11,-207.3 168,-219 181.42,-224.63 197.03,-229.2 209.71,-232.46"/>
<polygon fill="midnightblue" stroke="midnightblue" points="91.82,-174.05 81.5,-171.63 88.06,-179.95 91.82,-174.05"/>
</g>
<!-- Node4 -->
<g id="node5" class="node">
<title>Node4</title>
<g id="a_node5"><a xlink:href="class_l_o_m18.html" target="_top" xlink:title=" ">
<polygon fill="white" stroke="black" points="210,-190.5 210,-209.5 260,-209.5 260,-190.5 210,-190.5"/>
<text text-anchor="middle" x="235" y="-197.5" font-family="Helvetica,sans-Serif" font-size="10.00">LOM18</text>
</a>
</g>
</g>
<!-- Node0&#45;&gt;Node4 -->
<g id="edge4" class="edge">
<title>Node0&#45;&gt;Node4</title>
<path fill="none" stroke="midnightblue" d="M119.16,-173.87C149.52,-180.78 186.35,-189.16 209.97,-194.53"/>
<polygon fill="midnightblue" stroke="midnightblue" points="119.67,-170.4 109.14,-171.59 118.12,-177.22 119.67,-170.4"/>
</g>
<!-- Node5 -->
<g id="node6" class="node">
<title>Node5</title>
<g id="a_node6"><a xlink:href="class_o_m_sim_p_m_t_construction.html" target="_top" xlink:title=" ">
<polygon fill="white" stroke="black" points="168,-152.5 168,-171.5 302,-171.5 302,-152.5 168,-152.5"/>
<text text-anchor="middle" x="235" y="-159.5" font-family="Helvetica,sans-Serif" font-size="10.00">OMSimPMTConstruction</text>
</a>
</g>
</g>
<!-- Node0&#45;&gt;Node5 -->
<g id="edge5" class="edge">
<title>Node0&#45;&gt;Node5</title>
<path fill="none" stroke="midnightblue" d="M142.31,-162C150.8,-162 159.4,-162 167.76,-162"/>
<polygon fill="midnightblue" stroke="midnightblue" points="142.04,-158.5 132.04,-162 142.04,-165.5 142.04,-158.5"/>
</g>
<!-- Node6 -->
<g id="node7" class="node">
<title>Node6</title>
<g id="a_node7"><a xlink:href="classm_d_o_m.html" target="_top" xlink:title=" ">
<polygon fill="white" stroke="black" points="210,-114.5 210,-133.5 260,-133.5 260,-114.5 210,-114.5"/>
<text text-anchor="middle" x="235" y="-121.5" font-family="Helvetica,sans-Serif" font-size="10.00">mDOM</text>
</a>
</g>
</g>
<!-- Node0&#45;&gt;Node6 -->
<g id="edge6" class="edge">
<title>Node0&#45;&gt;Node6</title>
<path fill="none" stroke="midnightblue" d="M119.16,-150.13C149.52,-143.22 186.35,-134.84 209.97,-129.47"/>
<polygon fill="midnightblue" stroke="midnightblue" points="118.12,-146.78 109.14,-152.41 119.67,-153.6 118.12,-146.78"/>
</g>
<!-- Node7 -->
<g id="node8" class="node">
<title>Node7</title>
<g id="a_node8"><a xlink:href="classm_d_o_m_flasher.html" target="_top" xlink:title="The mDOMFlasher class represents the 10 flashers in an mDOM optical module.">
<polygon fill="white" stroke="black" points="192,-76.5 192,-95.5 278,-95.5 278,-76.5 192,-76.5"/>
<text text-anchor="middle" x="235" y="-83.5" font-family="Helvetica,sans-Serif" font-size="10.00">mDOMFlasher</text>
</a>
</g>
</g>
<!-- Node0&#45;&gt;Node7 -->
<g id="edge7" class="edge">
<title>Node0&#45;&gt;Node7</title>
<path fill="none" stroke="midnightblue" d="M90.2,-146.84C110.18,-134.29 140.11,-116.7 168,-105 176.58,-101.4 186.05,-98.23 195.09,-95.57"/>
<polygon fill="midnightblue" stroke="midnightblue" points="88.06,-144.05 81.5,-152.37 91.82,-149.95 88.06,-144.05"/>
</g>
<!-- Node8 -->
<g id="node9" class="node">
<title>Node8</title>
<g id="a_node9"><a xlink:href="classm_d_o_m_harness.html" target="_top" xlink:title=" ">
<polygon fill="white" stroke="black" points="190,-38.5 190,-57.5 280,-57.5 280,-38.5 190,-38.5"/>
<text text-anchor="middle" x="235" y="-45.5" font-family="Helvetica,sans-Serif" font-size="10.00">mDOMHarness</text>
</a>
</g>
</g>
<!-- Node0&#45;&gt;Node8 -->
<g id="edge8" class="edge">
<title>Node0&#45;&gt;Node8</title>
<path fill="none" stroke="midnightblue" d="M81.06,-144.42C99.03,-123.07 132.15,-87.41 168,-67 174.74,-63.17 182.31,-60.05 189.85,-57.54"/>
<polygon fill="midnightblue" stroke="midnightblue" points="78.18,-142.4 74.52,-152.34 83.58,-146.85 78.18,-142.4"/>
</g>
<!-- Node9 -->
<g id="node10" class="node">
<title>Node9</title>
<g id="a_node10"><a xlink:href="classp_d_o_m.html" target="_top" xlink:title="pDOM class represents the construction of pDOM/Gen1 DOM.">
<polygon fill="white" stroke="black" points="211.5,-0.5 211.5,-19.5 258.5,-19.5 258.5,-0.5 211.5,-0.5"/>
<text text-anchor="middle" x="235" y="-7.5" font-family="Helvetica,sans-Serif" font-size="10.00">pDOM</text>
</a>
</g>
</g>
<!-- Node0&#45;&gt;Node9 -->
<g id="edge9" class="edge">
<title>Node0&#45;&gt;Node9</title>
<path fill="none" stroke="midnightblue" d="M76.18,-143.22C91.29,-114.3 124.14,-59.06 168,-29 180.88,-20.17 197.87,-15.4 211.38,-12.85"/>
<polygon fill="midnightblue" stroke="midnightblue" points="73,-141.77 71.59,-152.27 79.24,-144.94 73,-141.77"/>
</g>
</g>
</svg>
