<?xml version="1.0" encoding="UTF-8" standalone="no"?>
<!DOCTYPE svg PUBLIC "-//W3C//DTD SVG 1.1//EN"
 "http://www.w3.org/Graphics/SVG/1.1/DTD/svg11.dtd">
<!-- Generated by graphviz version 2.43.0 (0)
 -->
<!-- Title: Graphical Class Hierarchy Pages: 1 -->
<svg width="416pt" height="161pt"
 viewBox="0.00 0.00 416.00 161.00" xmlns="http://www.w3.org/2000/svg" xmlns:xlink="http://www.w3.org/1999/xlink">
<g id="graph0" class="graph" transform="scale(1 1) rotate(0) translate(4 157)">
<title>Graphical Class Hierarchy</title>
<polygon fill="white" stroke="transparent" points="-4,4 -4,-157 412,-157 412,4 -4,4"/>
<!-- Node0 -->
<g id="node1" class="node">
<title>Node0</title>
<g id="a_node1"><a xlink:href="classabc_data_file.html" target="_top" xlink:title="This is an abstract base class that provides an interface for handling data files in the simulation.">
<polygon fill="white" stroke="black" points="0,-95.5 0,-114.5 74,-114.5 74,-95.5 0,-95.5"/>
<text text-anchor="middle" x="37" y="-102.5" font-family="Helvetica,sans-Serif" font-size="10.00">abcDataFile</text>
</a>
</g>
</g>
<!-- Node1 -->
<g id="node2" class="node">
<title>Node1</title>
<g id="a_node2"><a xlink:href="class_reflective_surface.html" target="_top" xlink:title="This class is responsible for defining new reflective surfaces using data parsed from a JSON file.">
<polygon fill="white" stroke="black" points="121,-133.5 121,-152.5 223,-152.5 223,-133.5 121,-133.5"/>
<text text-anchor="middle" x="172" y="-140.5" font-family="Helvetica,sans-Serif" font-size="10.00">ReflectiveSurface</text>
</a>
</g>
</g>
<!-- Node0&#45;&gt;Node1 -->
<g id="edge1" class="edge">
<title>Node0&#45;&gt;Node1</title>
<path fill="none" stroke="midnightblue" d="M81.37,-117.39C99.58,-122.59 120.44,-128.55 137.45,-133.41"/>
<polygon fill="midnightblue" stroke="midnightblue" points="82.14,-113.97 71.56,-114.59 80.22,-120.7 82.14,-113.97"/>
</g>
<!-- Node2 -->
<g id="node3" class="node">
<title>Node2</title>
<g id="a_node3"><a xlink:href="class_scintillation_properties.html" target="_top" xlink:title="This class is responsible for parsing scintillation properties to already defined materials.">
<polygon fill="white" stroke="black" points="110,-95.5 110,-114.5 234,-114.5 234,-95.5 110,-95.5"/>
<text text-anchor="middle" x="172" y="-102.5" font-family="Helvetica,sans-Serif" font-size="10.00">ScintillationProperties</text>
</a>
</g>
</g>
<!-- Node0&#45;&gt;Node2 -->
<g id="edge2" class="edge">
<title>Node0&#45;&gt;Node2</title>
<path fill="none" stroke="midnightblue" d="M84.46,-105C92.68,-105 101.34,-105 109.89,-105"/>
<polygon fill="midnightblue" stroke="midnightblue" points="84.34,-101.5 74.34,-105 84.34,-108.5 84.34,-101.5"/>
</g>
<!-- Node3 -->
<g id="node4" class="node">
<title>Node3</title>
<g id="a_node4"><a xlink:href="classabc_material_data.html" target="_top" xlink:title="Abstract base class for material data extraction from a json file.">
<polygon fill="white" stroke="black" points="123,-57.5 123,-76.5 221,-76.5 221,-57.5 123,-57.5"/>
<text text-anchor="middle" x="172" y="-64.5" font-family="Helvetica,sans-Serif" font-size="10.00">abcMaterialData</text>
</a>
</g>
</g>
<!-- Node0&#45;&gt;Node3 -->
<g id="edge3" class="edge">
<title>Node0&#45;&gt;Node3</title>
<path fill="none" stroke="midnightblue" d="M81.37,-92.61C99.58,-87.41 120.44,-81.45 137.45,-76.59"/>
<polygon fill="midnightblue" stroke="midnightblue" points="80.22,-89.3 71.56,-95.41 82.14,-96.03 80.22,-89.3"/>
</g>
<!-- Node4 -->
<g id="node5" class="node">
<title>Node4</title>
<g id="a_node5"><a xlink:href="class_ice_cube_ice.html" target="_top" xlink:title="This class is responsible for the creation and property extraction of IceCube&#39;s ice.">
<polygon fill="white" stroke="black" points="304,-114.5 304,-133.5 374,-133.5 374,-114.5 304,-114.5"/>
<text text-anchor="middle" x="339" y="-121.5" font-family="Helvetica,sans-Serif" font-size="10.00">IceCubeIce</text>
</a>
</g>
</g>
<!-- Node3&#45;&gt;Node4 -->
<g id="edge4" class="edge">
<title>Node3&#45;&gt;Node4</title>
<path fill="none" stroke="midnightblue" d="M217.15,-79.69C222.88,-81.65 228.62,-83.76 234,-86 250.71,-92.94 253.19,-98.31 270,-105 280.82,-109.31 292.97,-113.04 303.98,-116.02"/>
<polygon fill="midnightblue" stroke="midnightblue" points="218.19,-76.35 207.59,-76.56 216.01,-83 218.19,-76.35"/>
</g>
<!-- Node5 -->
<g id="node6" class="node">
<title>Node5</title>
<g id="a_node6"><a xlink:href="class_no_optics.html" target="_top" xlink:title="This class is responsible for handling materials without defined optical properties.">
<polygon fill="white" stroke="black" points="308.5,-76.5 308.5,-95.5 369.5,-95.5 369.5,-76.5 308.5,-76.5"/>
<text text-anchor="middle" x="339" y="-83.5" font-family="Helvetica,sans-Serif" font-size="10.00">NoOptics</text>
</a>
</g>
</g>
<!-- Node3&#45;&gt;Node5 -->
<g id="edge5" class="edge">
<title>Node3&#45;&gt;Node5</title>
<path fill="none" stroke="midnightblue" d="M231.31,-73.71C257.3,-76.71 286.81,-80.11 308.2,-82.57"/>
<polygon fill="midnightblue" stroke="midnightblue" points="231.5,-70.21 221.17,-72.55 230.7,-77.17 231.5,-70.21"/>
</g>
<!-- Node6 -->
<g id="node7" class="node">
<title>Node6</title>
<g id="a_node7"><a xlink:href="class_refraction_and_absorption.html" target="_top" xlink:title="This class is responsible for handling materials with both a defined refractive index and absorption ...">
<polygon fill="white" stroke="black" points="270,-38.5 270,-57.5 408,-57.5 408,-38.5 270,-38.5"/>
<text text-anchor="middle" x="339" y="-45.5" font-family="Helvetica,sans-Serif" font-size="10.00">RefractionAndAbsorption</text>
</a>
</g>
</g>
<!-- Node3&#45;&gt;Node6 -->
<g id="edge6" class="edge">
<title>Node3&#45;&gt;Node6</title>
<path fill="none" stroke="midnightblue" d="M231.4,-60.28C243.84,-58.84 257.08,-57.32 269.85,-55.85"/>
<polygon fill="midnightblue" stroke="midnightblue" points="230.7,-56.83 221.17,-61.45 231.5,-63.79 230.7,-56.83"/>
</g>
<!-- Node7 -->
<g id="node8" class="node">
<title>Node7</title>
<g id="a_node8"><a xlink:href="class_refraction_only.html" target="_top" xlink:title="This class is responsible for handling materials with only defined refractive index.">
<polygon fill="white" stroke="black" points="294.5,-0.5 294.5,-19.5 383.5,-19.5 383.5,-0.5 294.5,-0.5"/>
<text text-anchor="middle" x="339" y="-7.5" font-family="Helvetica,sans-Serif" font-size="10.00">RefractionOnly</text>
</a>
</g>
</g>
<!-- Node3&#45;&gt;Node7 -->
<g id="edge7" class="edge">
<title>Node3&#45;&gt;Node7</title>
<path fill="none" stroke="midnightblue" d="M204.78,-53.62C223.57,-45.93 247.95,-36.38 270,-29 280,-25.65 290.95,-22.41 301.09,-19.58"/>
<polygon fill="midnightblue" stroke="midnightblue" points="203.41,-50.39 195.5,-57.44 206.08,-56.86 203.41,-50.39"/>
</g>
</g>
</svg>
