<?xml version="1.0" encoding="UTF-8" standalone="no"?>
<!DOCTYPE svg PUBLIC "-//W3C//DTD SVG 1.1//EN"
 "http://www.w3.org/Graphics/SVG/1.1/DTD/svg11.dtd">
<!-- Generated by graphviz version 2.43.0 (0)
 -->
<!-- Title: Graphical Class Hierarchy Pages: 1 -->
<svg width="394pt" height="142pt"
 viewBox="0.00 0.00 394.00 142.00" xmlns="http://www.w3.org/2000/svg" xmlns:xlink="http://www.w3.org/1999/xlink">
<g id="graph0" class="graph" transform="scale(1 1) rotate(0) translate(4 138)">
<title>Graphical Class Hierarchy</title>
<polygon fill="white" stroke="transparent" points="-4,4 -4,-138 390,-138 390,4 -4,4"/>
<!-- Node0 -->
<g id="node1" class="node">
<title>Node0</title>
<g id="a_node1"><a xlink:href="classabc_data_file.html" target="_top" xlink:title="This is an abstract base class that provides an interface for handling data files in the simulation.">
<polygon fill="white" stroke="black" points="0,-76.5 0,-95.5 74,-95.5 74,-76.5 0,-76.5"/>
<text text-anchor="middle" x="37" y="-83.5" font-family="Helvetica,sans-Serif" font-size="10.00">abcDataFile</text>
</a>
</g>
</g>
<!-- Node1 -->
<g id="node2" class="node">
<title>Node1</title>
<g id="a_node2"><a xlink:href="class_reflective_surface.html" target="_top" xlink:title="This class is responsible for defining new reflective surfaces using data parsed from a JSON file.">
<polygon fill="white" stroke="black" points="110,-95.5 110,-114.5 212,-114.5 212,-95.5 110,-95.5"/>
<text text-anchor="middle" x="161" y="-102.5" font-family="Helvetica,sans-Serif" font-size="10.00">ReflectiveSurface</text>
</a>
</g>
</g>
<!-- Node0&#45;&gt;Node1 -->
<g id="edge1" class="edge">
<title>Node0&#45;&gt;Node1</title>
<path fill="none" stroke="midnightblue" d="M84.18,-93.19C92.5,-94.49 101.21,-95.84 109.64,-97.16"/>
<polygon fill="midnightblue" stroke="midnightblue" points="84.69,-89.73 74.27,-91.65 83.62,-96.65 84.69,-89.73"/>
</g>
<!-- Node2 -->
<g id="node3" class="node">
<title>Node2</title>
<g id="a_node3"><a xlink:href="classabc_material_data.html" target="_top" xlink:title="Abstract base class for material data extraction from a json file.">
<polygon fill="white" stroke="black" points="112,-57.5 112,-76.5 210,-76.5 210,-57.5 112,-57.5"/>
<text text-anchor="middle" x="161" y="-64.5" font-family="Helvetica,sans-Serif" font-size="10.00">abcMaterialData</text>
</a>
</g>
</g>
<!-- Node0&#45;&gt;Node2 -->
<g id="edge2" class="edge">
<title>Node0&#45;&gt;Node2</title>
<path fill="none" stroke="midnightblue" d="M84.24,-78.8C93.28,-77.39 102.79,-75.91 111.89,-74.49"/>
<polygon fill="midnightblue" stroke="midnightblue" points="83.62,-75.35 74.27,-80.35 84.69,-82.27 83.62,-75.35"/>
</g>
<!-- Node3 -->
<g id="node4" class="node">
<title>Node3</title>
<g id="a_node4"><a xlink:href="class_ice_cube_ice.html" target="_top" xlink:title="This class is responsible for the creation and property extraction of IceCube&#39;s ice.">
<polygon fill="white" stroke="black" points="282,-114.5 282,-133.5 352,-133.5 352,-114.5 282,-114.5"/>
<text text-anchor="middle" x="317" y="-121.5" font-family="Helvetica,sans-Serif" font-size="10.00">IceCubeIce</text>
</a>
</g>
</g>
<!-- Node2&#45;&gt;Node3 -->
<g id="edge3" class="edge">
<title>Node2&#45;&gt;Node3</title>
<path fill="none" stroke="midnightblue" d="M198.36,-80.22C202.99,-82.07 207.63,-84.02 212,-86 228.49,-93.45 231.19,-98.31 248,-105 258.82,-109.31 270.97,-113.04 281.98,-116.02"/>
<polygon fill="midnightblue" stroke="midnightblue" points="199.56,-76.93 188.98,-76.56 197.02,-83.45 199.56,-76.93"/>
</g>
<!-- Node4 -->
<g id="node5" class="node">
<title>Node4</title>
<g id="a_node5"><a xlink:href="class_no_optics.html" target="_top" xlink:title="This class is responsible for handling materials without defined optical properties.">
<polygon fill="white" stroke="black" points="286.5,-76.5 286.5,-95.5 347.5,-95.5 347.5,-76.5 286.5,-76.5"/>
<text text-anchor="middle" x="317" y="-83.5" font-family="Helvetica,sans-Serif" font-size="10.00">NoOptics</text>
</a>
</g>
</g>
<!-- Node2&#45;&gt;Node4 -->
<g id="edge4" class="edge">
<title>Node2&#45;&gt;Node4</title>
<path fill="none" stroke="midnightblue" d="M220.43,-74.21C242.88,-76.98 267.57,-80.03 286.23,-82.33"/>
<polygon fill="midnightblue" stroke="midnightblue" points="220.66,-70.71 210.3,-72.96 219.8,-77.66 220.66,-70.71"/>
</g>
<!-- Node5 -->
<g id="node6" class="node">
<title>Node5</title>
<g id="a_node6"><a xlink:href="class_refraction_and_absorption.html" target="_top" xlink:title="This class is responsible for handling materials with both a defined refractive index and absorption ...">
<polygon fill="white" stroke="black" points="248,-38.5 248,-57.5 386,-57.5 386,-38.5 248,-38.5"/>
<text text-anchor="middle" x="317" y="-45.5" font-family="Helvetica,sans-Serif" font-size="10.00">RefractionAndAbsorption</text>
</a>
</g>
</g>
<!-- Node2&#45;&gt;Node5 -->
<g id="edge5" class="edge">
<title>Node2&#45;&gt;Node5</title>
<path fill="none" stroke="midnightblue" d="M220.28,-59.81C229.28,-58.7 238.65,-57.54 247.84,-56.41"/>
<polygon fill="midnightblue" stroke="midnightblue" points="219.8,-56.34 210.3,-61.04 220.66,-63.29 219.8,-56.34"/>
</g>
<!-- Node6 -->
<g id="node7" class="node">
<title>Node6</title>
<g id="a_node7"><a xlink:href="class_refraction_only.html" target="_top" xlink:title="This class is responsible for handling materials with only defined refractive index.">
<polygon fill="white" stroke="black" points="272.5,-0.5 272.5,-19.5 361.5,-19.5 361.5,-0.5 272.5,-0.5"/>
<text text-anchor="middle" x="317" y="-7.5" font-family="Helvetica,sans-Serif" font-size="10.00">RefractionOnly</text>
</a>
</g>
</g>
<!-- Node2&#45;&gt;Node6 -->
<g id="edge6" class="edge">
<title>Node2&#45;&gt;Node6</title>
<path fill="none" stroke="midnightblue" d="M190.61,-53.12C207.15,-45.41 228.48,-36 248,-29 257.58,-25.57 268.09,-22.36 277.93,-19.6"/>
<polygon fill="midnightblue" stroke="midnightblue" points="189.03,-49.99 181.48,-57.43 192.02,-56.32 189.03,-49.99"/>
</g>
</g>
</svg>
