<?xml version="1.0" encoding="UTF-8" standalone="no"?>
<!DOCTYPE svg PUBLIC "-//W3C//DTD SVG 1.1//EN"
 "http://www.w3.org/Graphics/SVG/1.1/DTD/svg11.dtd">
<!-- Generated by graphviz version 2.43.0 (0)
 -->
<!-- Title: mdomPrimaryGeneratorAction.cc Pages: 1 -->
<svg width="2185pt" height="140pt"
 viewBox="0.00 0.00 2185.00 140.00" xmlns="http://www.w3.org/2000/svg" xmlns:xlink="http://www.w3.org/1999/xlink">
<g id="graph0" class="graph" transform="scale(1 1) rotate(0) translate(4 136)">
<title>mdomPrimaryGeneratorAction.cc</title>
<polygon fill="white" stroke="transparent" points="-4,4 -4,-136 2181,-136 2181,4 -4,4"/>
<!-- Node1 -->
<g id="node1" class="node">
<title>Node1</title>
<g id="a_node1"><a xlink:title="Main primary generator. Chooses between generators 0 (gps), 1 (SN enes), 2 (SN ibd),...">
<polygon fill="#bfbfbf" stroke="black" points="1266.5,-112.5 1266.5,-131.5 1445.5,-131.5 1445.5,-112.5 1266.5,-112.5"/>
<text text-anchor="middle" x="1356" y="-119.5" font-family="Helvetica,sans-Serif" font-size="10.00">mdomPrimaryGeneratorAction.cc</text>
</a>
</g>
</g>
<!-- Node2 -->
<g id="node2" class="node">
<title>Node2</title>
<g id="a_node2"><a xlink:href="mdom_primary_generator_action_8hh.html" target="_top" xlink:title=" ">
<polygon fill="white" stroke="black" points="79.5,-56.5 79.5,-75.5 260.5,-75.5 260.5,-56.5 79.5,-56.5"/>
<text text-anchor="middle" x="170" y="-63.5" font-family="Helvetica,sans-Serif" font-size="10.00">mdomPrimaryGeneratorAction.hh</text>
</a>
</g>
</g>
<!-- Node1&#45;&gt;Node2 -->
<g id="edge1" class="edge">
<title>Node1&#45;&gt;Node2</title>
<path fill="none" stroke="midnightblue" d="M1266.17,-118.75C1081.79,-113.8 647.03,-100.49 270.73,-76.01"/>
<polygon fill="midnightblue" stroke="midnightblue" points="270.94,-72.52 260.74,-75.36 270.49,-79.5 270.94,-72.52"/>
</g>
<!-- Node5 -->
<g id="node5" class="node">
<title>Node5</title>
<g id="a_node5"><a xlink:title=" ">
<polygon fill="white" stroke="#bfbfbf" points="278.5,-56.5 278.5,-75.5 465.5,-75.5 465.5,-56.5 278.5,-56.5"/>
<text text-anchor="middle" x="372" y="-63.5" font-family="Helvetica,sans-Serif" font-size="10.00">mdomPrimaryGeneratorAction0.hh</text>
</a>
</g>
</g>
<!-- Node1&#45;&gt;Node5 -->
<g id="edge4" class="edge">
<title>Node1&#45;&gt;Node5</title>
<path fill="none" stroke="midnightblue" d="M1266.2,-117.49C1108.59,-111.08 771.63,-96.33 475.8,-76.03"/>
<polygon fill="midnightblue" stroke="midnightblue" points="475.95,-72.53 465.74,-75.34 475.47,-79.52 475.95,-72.53"/>
</g>
<!-- Node6 -->
<g id="node6" class="node">
<title>Node6</title>
<g id="a_node6"><a xlink:title=" ">
<polygon fill="white" stroke="#bfbfbf" points="483.5,-56.5 483.5,-75.5 670.5,-75.5 670.5,-56.5 483.5,-56.5"/>
<text text-anchor="middle" x="577" y="-63.5" font-family="Helvetica,sans-Serif" font-size="10.00">mdomPrimaryGeneratorAction1.hh</text>
</a>
</g>
</g>
<!-- Node1&#45;&gt;Node6 -->
<g id="edge5" class="edge">
<title>Node1&#45;&gt;Node6</title>
<path fill="none" stroke="midnightblue" d="M1266.29,-115.62C1138.74,-107.84 897.37,-92.63 680.71,-76.04"/>
<polygon fill="midnightblue" stroke="midnightblue" points="680.98,-72.55 670.74,-75.27 680.44,-79.53 680.98,-72.55"/>
</g>
<!-- Node7 -->
<g id="node7" class="node">
<title>Node7</title>
<g id="a_node7"><a xlink:title=" ">
<polygon fill="white" stroke="#bfbfbf" points="688.5,-56.5 688.5,-75.5 875.5,-75.5 875.5,-56.5 688.5,-56.5"/>
<text text-anchor="middle" x="782" y="-63.5" font-family="Helvetica,sans-Serif" font-size="10.00">mdomPrimaryGeneratorAction2.hh</text>
</a>
</g>
</g>
<!-- Node1&#45;&gt;Node7 -->
<g id="edge6" class="edge">
<title>Node1&#45;&gt;Node7</title>
<path fill="none" stroke="midnightblue" d="M1266.31,-112.56C1162.2,-102.77 990.95,-86.66 882.45,-76.45"/>
<polygon fill="midnightblue" stroke="midnightblue" points="882.76,-72.96 872.48,-75.51 882.11,-79.93 882.76,-72.96"/>
</g>
<!-- Node8 -->
<g id="node8" class="node">
<title>Node8</title>
<g id="a_node8"><a xlink:title=" ">
<polygon fill="white" stroke="#bfbfbf" points="893.5,-56.5 893.5,-75.5 1080.5,-75.5 1080.5,-56.5 893.5,-56.5"/>
<text text-anchor="middle" x="987" y="-63.5" font-family="Helvetica,sans-Serif" font-size="10.00">mdomPrimaryGeneratorAction3.hh</text>
</a>
</g>
</g>
<!-- Node1&#45;&gt;Node8 -->
<g id="edge7" class="edge">
<title>Node1&#45;&gt;Node8</title>
<path fill="none" stroke="midnightblue" d="M1297.53,-112.44C1231.68,-102.81 1124.78,-87.16 1055.18,-76.98"/>
<polygon fill="midnightblue" stroke="midnightblue" points="1055.6,-73.5 1045.2,-75.52 1054.58,-80.43 1055.6,-73.5"/>
</g>
<!-- Node9 -->
<g id="node9" class="node">
<title>Node9</title>
<g id="a_node9"><a xlink:title=" ">
<polygon fill="white" stroke="#bfbfbf" points="1098.5,-56.5 1098.5,-75.5 1301.5,-75.5 1301.5,-56.5 1098.5,-56.5"/>
<text text-anchor="middle" x="1200" y="-63.5" font-family="Helvetica,sans-Serif" font-size="10.00">mdomPrimaryGeneratorMessenger.hh</text>
</a>
</g>
</g>
<!-- Node1&#45;&gt;Node9 -->
<g id="edge8" class="edge">
<title>Node1&#45;&gt;Node9</title>
<path fill="none" stroke="midnightblue" d="M1331.28,-112.44C1305.15,-103.4 1263.74,-89.06 1234.42,-78.92"/>
<polygon fill="midnightblue" stroke="midnightblue" points="1235.2,-75.48 1224.6,-75.52 1232.91,-82.1 1235.2,-75.48"/>
</g>
<!-- Node10 -->
<g id="node10" class="node">
<title>Node10</title>
<g id="a_node10"><a xlink:title=" ">
<polygon fill="white" stroke="#bfbfbf" points="1319.5,-56.5 1319.5,-75.5 1392.5,-75.5 1392.5,-56.5 1319.5,-56.5"/>
<text text-anchor="middle" x="1356" y="-63.5" font-family="Helvetica,sans-Serif" font-size="10.00">G4Event.hh</text>
</a>
</g>
</g>
<!-- Node1&#45;&gt;Node10 -->
<g id="edge9" class="edge">
<title>Node1&#45;&gt;Node10</title>
<path fill="none" stroke="midnightblue" d="M1356,-112.08C1356,-105.01 1356,-94.86 1356,-85.99"/>
<polygon fill="midnightblue" stroke="midnightblue" points="1359.5,-85.75 1356,-75.75 1352.5,-85.75 1359.5,-85.75"/>
</g>
<!-- Node11 -->
<g id="node11" class="node">
<title>Node11</title>
<g id="a_node11"><a xlink:title=" ">
<polygon fill="white" stroke="#bfbfbf" points="1410.5,-56.5 1410.5,-75.5 1511.5,-75.5 1511.5,-56.5 1410.5,-56.5"/>
<text text-anchor="middle" x="1461" y="-63.5" font-family="Helvetica,sans-Serif" font-size="10.00">G4ParticleGun.hh</text>
</a>
</g>
</g>
<!-- Node1&#45;&gt;Node11 -->
<g id="edge10" class="edge">
<title>Node1&#45;&gt;Node11</title>
<path fill="none" stroke="midnightblue" d="M1372.87,-112.32C1389.71,-103.66 1415.81,-90.24 1435.24,-80.25"/>
<polygon fill="midnightblue" stroke="midnightblue" points="1436.88,-83.34 1444.17,-75.65 1433.68,-77.12 1436.88,-83.34"/>
</g>
<!-- Node12 -->
<g id="node12" class="node">
<title>Node12</title>
<g id="a_node12"><a xlink:title=" ">
<polygon fill="white" stroke="#bfbfbf" points="1529.5,-56.5 1529.5,-75.5 1636.5,-75.5 1636.5,-56.5 1529.5,-56.5"/>
<text text-anchor="middle" x="1583" y="-63.5" font-family="Helvetica,sans-Serif" font-size="10.00">G4ParticleTable.hh</text>
</a>
</g>
</g>
<!-- Node1&#45;&gt;Node12 -->
<g id="edge11" class="edge">
<title>Node1&#45;&gt;Node12</title>
<path fill="none" stroke="midnightblue" d="M1391.97,-112.44C1431.32,-103.08 1494.49,-88.06 1537.31,-77.87"/>
<polygon fill="midnightblue" stroke="midnightblue" points="1538.28,-81.24 1547.2,-75.52 1536.66,-74.43 1538.28,-81.24"/>
</g>
<!-- Node13 -->
<g id="node13" class="node">
<title>Node13</title>
<g id="a_node13"><a xlink:title=" ">
<polygon fill="white" stroke="#bfbfbf" points="1655,-56.5 1655,-75.5 1783,-75.5 1783,-56.5 1655,-56.5"/>
<text text-anchor="middle" x="1719" y="-63.5" font-family="Helvetica,sans-Serif" font-size="10.00">G4ParticleDefinition.hh</text>
</a>
</g>
</g>
<!-- Node1&#45;&gt;Node13 -->
<g id="edge12" class="edge">
<title>Node1&#45;&gt;Node13</title>
<path fill="none" stroke="midnightblue" d="M1413.52,-112.44C1478.17,-102.83 1583.03,-87.23 1651.5,-77.04"/>
<polygon fill="midnightblue" stroke="midnightblue" points="1652.37,-80.45 1661.75,-75.52 1651.34,-73.53 1652.37,-80.45"/>
</g>
<!-- Node14 -->
<g id="node14" class="node">
<title>Node14</title>
<g id="a_node14"><a xlink:title=" ">
<polygon fill="white" stroke="#bfbfbf" points="1801,-56.5 1801,-75.5 1935,-75.5 1935,-56.5 1801,-56.5"/>
<text text-anchor="middle" x="1868" y="-63.5" font-family="Helvetica,sans-Serif" font-size="10.00">G4PhysicalConstants.hh</text>
</a>
</g>
</g>
<!-- Node1&#45;&gt;Node14 -->
<g id="edge13" class="edge">
<title>Node1&#45;&gt;Node14</title>
<path fill="none" stroke="midnightblue" d="M1442.49,-112.46C1528.17,-103.91 1663.43,-90.18 1790.56,-76.15"/>
<polygon fill="midnightblue" stroke="midnightblue" points="1791.32,-79.58 1800.87,-75.01 1790.55,-72.63 1791.32,-79.58"/>
</g>
<!-- Node15 -->
<g id="node15" class="node">
<title>Node15</title>
<g id="a_node15"><a xlink:title=" ">
<polygon fill="white" stroke="#bfbfbf" points="1953.5,-56.5 1953.5,-75.5 2072.5,-75.5 2072.5,-56.5 1953.5,-56.5"/>
<text text-anchor="middle" x="2013" y="-63.5" font-family="Helvetica,sans-Serif" font-size="10.00">G4SystemOfUnits.hh</text>
</a>
</g>
</g>
<!-- Node1&#45;&gt;Node15 -->
<g id="edge14" class="edge">
<title>Node1&#45;&gt;Node15</title>
<path fill="none" stroke="midnightblue" d="M1445.79,-115.62C1559.14,-108.5 1760.38,-94.73 1943.12,-76.04"/>
<polygon fill="midnightblue" stroke="midnightblue" points="1943.59,-79.51 1953.18,-75 1942.88,-72.54 1943.59,-79.51"/>
</g>
<!-- Node16 -->
<g id="node16" class="node">
<title>Node16</title>
<g id="a_node16"><a xlink:title=" ">
<polygon fill="white" stroke="#bfbfbf" points="2091,-56.5 2091,-75.5 2177,-75.5 2177,-56.5 2091,-56.5"/>
<text text-anchor="middle" x="2134" y="-63.5" font-family="Helvetica,sans-Serif" font-size="10.00">Randomize.hh</text>
</a>
</g>
</g>
<!-- Node1&#45;&gt;Node16 -->
<g id="edge15" class="edge">
<title>Node1&#45;&gt;Node16</title>
<path fill="none" stroke="midnightblue" d="M1445.7,-118.6C1581.14,-114.27 1846.09,-103.07 2080.83,-76.01"/>
<polygon fill="midnightblue" stroke="midnightblue" points="2081.39,-79.46 2090.92,-74.83 2080.58,-72.51 2081.39,-79.46"/>
</g>
<!-- Node3 -->
<g id="node3" class="node">
<title>Node3</title>
<g id="a_node3"><a xlink:title=" ">
<polygon fill="white" stroke="#bfbfbf" points="0,-0.5 0,-19.5 192,-19.5 192,-0.5 0,-0.5"/>
<text text-anchor="middle" x="96" y="-7.5" font-family="Helvetica,sans-Serif" font-size="10.00">G4VUserPrimaryGeneratorAction.hh</text>
</a>
</g>
</g>
<!-- Node2&#45;&gt;Node3 -->
<g id="edge2" class="edge">
<title>Node2&#45;&gt;Node3</title>
<path fill="none" stroke="midnightblue" d="M158.11,-56.32C146.85,-48.11 129.71,-35.6 116.29,-25.81"/>
<polygon fill="midnightblue" stroke="midnightblue" points="118.25,-22.9 108.11,-19.83 114.12,-28.56 118.25,-22.9"/>
</g>
<!-- Node4 -->
<g id="node4" class="node">
<title>Node4</title>
<g id="a_node4"><a xlink:title=" ">
<polygon fill="white" stroke="#bfbfbf" points="210.5,-0.5 210.5,-19.5 277.5,-19.5 277.5,-0.5 210.5,-0.5"/>
<text text-anchor="middle" x="244" y="-7.5" font-family="Helvetica,sans-Serif" font-size="10.00">globals.hh</text>
</a>
</g>
</g>
<!-- Node2&#45;&gt;Node4 -->
<g id="edge3" class="edge">
<title>Node2&#45;&gt;Node4</title>
<path fill="none" stroke="midnightblue" d="M181.89,-56.32C193.15,-48.11 210.29,-35.6 223.71,-25.81"/>
<polygon fill="midnightblue" stroke="midnightblue" points="225.88,-28.56 231.89,-19.83 221.75,-22.9 225.88,-28.56"/>
</g>
</g>
</svg>
