<?xml version="1.0" encoding="UTF-8" standalone="no"?>
<!DOCTYPE svg PUBLIC "-//W3C//DTD SVG 1.1//EN"
 "http://www.w3.org/Graphics/SVG/1.1/DTD/svg11.dtd">
<!-- Generated by graphviz version 2.43.0 (0)
 -->
<!-- Title: mdomPrimaryGeneratorMessenger.cc Pages: 1 -->
<svg width="700pt" height="140pt"
 viewBox="0.00 0.00 699.50 140.00" xmlns="http://www.w3.org/2000/svg" xmlns:xlink="http://www.w3.org/1999/xlink">
<g id="graph0" class="graph" transform="scale(1 1) rotate(0) translate(4 136)">
<title>mdomPrimaryGeneratorMessenger.cc</title>
<polygon fill="white" stroke="transparent" points="-4,4 -4,-136 695.5,-136 695.5,4 -4,4"/>
<!-- Node1 -->
<g id="node1" class="node">
<title>Node1</title>
<g id="a_node1"><a xlink:title="Primary generator messenger to choose the corresponding primary generator.">
<polygon fill="#bfbfbf" stroke="black" points="298,-112.5 298,-131.5 499,-131.5 499,-112.5 298,-112.5"/>
<text text-anchor="middle" x="398.5" y="-119.5" font-family="Helvetica,sans-Serif" font-size="10.00">mdomPrimaryGeneratorMessenger.cc</text>
</a>
</g>
</g>
<!-- Node2 -->
<g id="node2" class="node">
<title>Node2</title>
<g id="a_node2"><a xlink:href="mdom_primary_generator_messenger_8hh.html" target="_top" xlink:title=" ">
<polygon fill="white" stroke="black" points="6,-56.5 6,-75.5 209,-75.5 209,-56.5 6,-56.5"/>
<text text-anchor="middle" x="107.5" y="-63.5" font-family="Helvetica,sans-Serif" font-size="10.00">mdomPrimaryGeneratorMessenger.hh</text>
</a>
</g>
</g>
<!-- Node1&#45;&gt;Node2 -->
<g id="edge1" class="edge">
<title>Node1&#45;&gt;Node2</title>
<path fill="none" stroke="midnightblue" d="M352.39,-112.44C301.09,-102.92 218.23,-87.55 163.31,-77.36"/>
<polygon fill="midnightblue" stroke="midnightblue" points="163.86,-73.9 153.39,-75.52 162.59,-80.78 163.86,-73.9"/>
</g>
<!-- Node5 -->
<g id="node5" class="node">
<title>Node5</title>
<g id="a_node5"><a xlink:title=" ">
<polygon fill="white" stroke="#bfbfbf" points="227,-56.5 227,-75.5 412,-75.5 412,-56.5 227,-56.5"/>
<text text-anchor="middle" x="319.5" y="-63.5" font-family="Helvetica,sans-Serif" font-size="10.00">OMSimPrimaryGeneratorAction.hh</text>
</a>
</g>
</g>
<!-- Node1&#45;&gt;Node5 -->
<g id="edge4" class="edge">
<title>Node1&#45;&gt;Node5</title>
<path fill="none" stroke="midnightblue" d="M385.81,-112.32C373.6,-103.98 354.92,-91.21 340.5,-81.35"/>
<polygon fill="midnightblue" stroke="midnightblue" points="342.39,-78.41 332.16,-75.65 338.44,-84.19 342.39,-78.41"/>
</g>
<!-- Node6 -->
<g id="node6" class="node">
<title>Node6</title>
<g id="a_node6"><a xlink:title=" ">
<polygon fill="white" stroke="#bfbfbf" points="429.5,-56.5 429.5,-75.5 527.5,-75.5 527.5,-56.5 429.5,-56.5"/>
<text text-anchor="middle" x="478.5" y="-63.5" font-family="Helvetica,sans-Serif" font-size="10.00">G4UIdirectory.hh</text>
</a>
</g>
</g>
<!-- Node1&#45;&gt;Node6 -->
<g id="edge5" class="edge">
<title>Node1&#45;&gt;Node6</title>
<path fill="none" stroke="midnightblue" d="M411.35,-112.32C423.72,-103.98 442.63,-91.21 457.24,-81.35"/>
<polygon fill="midnightblue" stroke="midnightblue" points="459.35,-84.15 465.68,-75.65 455.43,-78.35 459.35,-84.15"/>
</g>
<!-- Node7 -->
<g id="node7" class="node">
<title>Node7</title>
<g id="a_node7"><a xlink:title=" ">
<polygon fill="white" stroke="#bfbfbf" points="545.5,-56.5 545.5,-75.5 691.5,-75.5 691.5,-56.5 545.5,-56.5"/>
<text text-anchor="middle" x="618.5" y="-63.5" font-family="Helvetica,sans-Serif" font-size="10.00">G4UIcmdWithAnInteger.hh</text>
</a>
</g>
</g>
<!-- Node1&#45;&gt;Node7 -->
<g id="edge6" class="edge">
<title>Node1&#45;&gt;Node7</title>
<path fill="none" stroke="midnightblue" d="M433.36,-112.44C471.42,-103.1 532.46,-88.12 573.96,-77.93"/>
<polygon fill="midnightblue" stroke="midnightblue" points="574.93,-81.3 583.8,-75.52 573.26,-74.5 574.93,-81.3"/>
</g>
<!-- Node3 -->
<g id="node3" class="node">
<title>Node3</title>
<g id="a_node3"><a xlink:title=" ">
<polygon fill="white" stroke="#bfbfbf" points="0,-0.5 0,-19.5 109,-19.5 109,-0.5 0,-0.5"/>
<text text-anchor="middle" x="54.5" y="-7.5" font-family="Helvetica,sans-Serif" font-size="10.00">G4UImessenger.hh</text>
</a>
</g>
</g>
<!-- Node2&#45;&gt;Node3 -->
<g id="edge2" class="edge">
<title>Node2&#45;&gt;Node3</title>
<path fill="none" stroke="midnightblue" d="M98.75,-56.08C91.03,-48.22 79.6,-36.57 70.28,-27.08"/>
<polygon fill="midnightblue" stroke="midnightblue" points="72.59,-24.44 63.09,-19.75 67.6,-29.34 72.59,-24.44"/>
</g>
<!-- Node4 -->
<g id="node4" class="node">
<title>Node4</title>
<g id="a_node4"><a xlink:title=" ">
<polygon fill="white" stroke="#bfbfbf" points="127,-0.5 127,-19.5 194,-19.5 194,-0.5 127,-0.5"/>
<text text-anchor="middle" x="160.5" y="-7.5" font-family="Helvetica,sans-Serif" font-size="10.00">globals.hh</text>
</a>
</g>
</g>
<!-- Node2&#45;&gt;Node4 -->
<g id="edge3" class="edge">
<title>Node2&#45;&gt;Node4</title>
<path fill="none" stroke="midnightblue" d="M116.25,-56.08C123.97,-48.22 135.4,-36.57 144.72,-27.08"/>
<polygon fill="midnightblue" stroke="midnightblue" points="147.4,-29.34 151.91,-19.75 142.41,-24.44 147.4,-29.34"/>
</g>
</g>
</svg>
