<?xml version="1.0" encoding="UTF-8" standalone="no"?>
<!DOCTYPE svg PUBLIC "-//W3C//DTD SVG 1.1//EN"
 "http://www.w3.org/Graphics/SVG/1.1/DTD/svg11.dtd">
<!-- Generated by graphviz version 2.43.0 (0)
 -->
<!-- Title: mdomPrimaryGeneratorAction.hh Pages: 1 -->
<svg width="648pt" height="84pt"
 viewBox="0.00 0.00 647.50 84.00" xmlns="http://www.w3.org/2000/svg" xmlns:xlink="http://www.w3.org/1999/xlink">
<g id="graph0" class="graph" transform="scale(1 1) rotate(0) translate(4 80)">
<title>mdomPrimaryGeneratorAction.hh</title>
<polygon fill="white" stroke="transparent" points="-4,4 -4,-80 643.5,-80 643.5,4 -4,4"/>
<!-- Node1 -->
<g id="node1" class="node">
<title>Node1</title>
<g id="a_node1"><a xlink:title=" ">
<polygon fill="#bfbfbf" stroke="black" points="243.5,-56.5 243.5,-75.5 424.5,-75.5 424.5,-56.5 243.5,-56.5"/>
<text text-anchor="middle" x="334" y="-63.5" font-family="Helvetica,sans-Serif" font-size="10.00">mdomPrimaryGeneratorAction.hh</text>
</a>
</g>
</g>
<!-- Node2 -->
<g id="node2" class="node">
<title>Node2</title>
<g id="a_node2"><a xlink:href="_o_m_sim__supernova_8cc.html" target="_top" xlink:title=" ">
<polygon fill="white" stroke="black" points="0,-0.5 0,-19.5 122,-19.5 122,-0.5 0,-0.5"/>
<text text-anchor="middle" x="61" y="-7.5" font-family="Helvetica,sans-Serif" font-size="10.00">OMSim_supernova.cc</text>
</a>
</g>
</g>
<!-- Node1&#45;&gt;Node2 -->
<g id="edge1" class="edge">
<title>Node1&#45;&gt;Node2</title>
<path fill="none" stroke="midnightblue" d="M280.78,-54.47C229.19,-44.27 151.9,-28.98 104.06,-19.52"/>
<polygon fill="midnightblue" stroke="midnightblue" points="280.25,-57.94 290.74,-56.44 281.61,-51.07 280.25,-57.94"/>
</g>
<!-- Node3 -->
<g id="node3" class="node">
<title>Node3</title>
<g id="a_node3"><a xlink:href="mdom_primary_generator_action_8cc.html" target="_top" xlink:title="Main primary generator. Chooses between generators 0 (gps), 1 (SN enes), 2 (SN ibd),...">
<polygon fill="white" stroke="black" points="140.5,-0.5 140.5,-19.5 319.5,-19.5 319.5,-0.5 140.5,-0.5"/>
<text text-anchor="middle" x="230" y="-7.5" font-family="Helvetica,sans-Serif" font-size="10.00">mdomPrimaryGeneratorAction.cc</text>
</a>
</g>
</g>
<!-- Node1&#45;&gt;Node3 -->
<g id="edge2" class="edge">
<title>Node1&#45;&gt;Node3</title>
<path fill="none" stroke="midnightblue" d="M308.17,-51.59C288.94,-41.61 263.26,-28.27 246.67,-19.65"/>
<polygon fill="midnightblue" stroke="midnightblue" points="306.8,-54.82 317.29,-56.32 310.03,-48.61 306.8,-54.82"/>
</g>
<!-- Node4 -->
<g id="node4" class="node">
<title>Node4</title>
<g id="a_node4"><a xlink:href="mdom_primary_generator_messenger_8cc.html" target="_top" xlink:title="Primary generator messenger to choose the corresponding primary generator.">
<polygon fill="white" stroke="black" points="337.5,-0.5 337.5,-19.5 538.5,-19.5 538.5,-0.5 337.5,-0.5"/>
<text text-anchor="middle" x="438" y="-7.5" font-family="Helvetica,sans-Serif" font-size="10.00">mdomPrimaryGeneratorMessenger.cc</text>
</a>
</g>
</g>
<!-- Node1&#45;&gt;Node4 -->
<g id="edge3" class="edge">
<title>Node1&#45;&gt;Node4</title>
<path fill="none" stroke="midnightblue" d="M359.83,-51.59C379.06,-41.61 404.74,-28.27 421.33,-19.65"/>
<polygon fill="midnightblue" stroke="midnightblue" points="357.97,-48.61 350.71,-56.32 361.2,-54.82 357.97,-48.61"/>
</g>
<!-- Node5 -->
<g id="node5" class="node">
<title>Node5</title>
<g id="a_node5"><a xlink:href="_o_m_sim_i_b_d_8cc.html" target="_top" xlink:title=" ">
<polygon fill="white" stroke="black" points="556.5,-0.5 556.5,-19.5 639.5,-19.5 639.5,-0.5 556.5,-0.5"/>
<text text-anchor="middle" x="598" y="-7.5" font-family="Helvetica,sans-Serif" font-size="10.00">OMSimIBD.cc</text>
</a>
</g>
</g>
<!-- Node1&#45;&gt;Node5 -->
<g id="edge4" class="edge">
<title>Node1&#45;&gt;Node5</title>
<path fill="none" stroke="midnightblue" d="M385.78,-54.41C435.67,-44.2 510.2,-28.96 556.36,-19.52"/>
<polygon fill="midnightblue" stroke="midnightblue" points="384.93,-51.01 375.83,-56.44 386.33,-57.87 384.93,-51.01"/>
</g>
</g>
</svg>
