<?xml version="1.0" encoding="UTF-8" standalone="no"?>
<!DOCTYPE svg PUBLIC "-//W3C//DTD SVG 1.1//EN"
 "http://www.w3.org/Graphics/SVG/1.1/DTD/svg11.dtd">
<!-- Generated by graphviz version 2.43.0 (0)
 -->
<!-- Title: mdomPrimaryGeneratorAction.cc Pages: 1 -->
<svg width="1389pt" height="140pt"
 viewBox="0.00 0.00 1388.50 140.00" xmlns="http://www.w3.org/2000/svg" xmlns:xlink="http://www.w3.org/1999/xlink">
<g id="graph0" class="graph" transform="scale(1 1) rotate(0) translate(4 136)">
<title>mdomPrimaryGeneratorAction.cc</title>
<polygon fill="white" stroke="transparent" points="-4,4 -4,-136 1384.5,-136 1384.5,4 -4,4"/>
<!-- Node1 -->
<g id="node1" class="node">
<title>Node1</title>
<g id="a_node1"><a xlink:title="Main primary generator. Chooses between generators 0 (gps), 1 (SN enes), 2 (SN ibd),...">
<polygon fill="#bfbfbf" stroke="black" points="636,-112.5 636,-131.5 815,-131.5 815,-112.5 636,-112.5"/>
<text text-anchor="middle" x="725.5" y="-119.5" font-family="Helvetica,sans-Serif" font-size="10.00">mdomPrimaryGeneratorAction.cc</text>
</a>
</g>
</g>
<!-- Node2 -->
<g id="node2" class="node">
<title>Node2</title>
<g id="a_node2"><a xlink:href="mdom_primary_generator_action_8hh.html" target="_top" xlink:title=" ">
<polygon fill="white" stroke="black" points="221,-56.5 221,-75.5 402,-75.5 402,-56.5 221,-56.5"/>
<text text-anchor="middle" x="311.5" y="-63.5" font-family="Helvetica,sans-Serif" font-size="10.00">mdomPrimaryGeneratorAction.hh</text>
</a>
</g>
</g>
<!-- Node1&#45;&gt;Node2 -->
<g id="edge1" class="edge">
<title>Node1&#45;&gt;Node2</title>
<path fill="none" stroke="midnightblue" d="M659.9,-112.44C585.71,-102.77 465.1,-87.04 387.04,-76.85"/>
<polygon fill="midnightblue" stroke="midnightblue" points="387.16,-73.34 376.79,-75.52 386.26,-80.28 387.16,-73.34"/>
</g>
<!-- Node5 -->
<g id="node5" class="node">
<title>Node5</title>
<g id="a_node5"><a xlink:href="_o_m_sim_i_b_d_8hh.html" target="_top" xlink:title="This file contains the class in charge of generating positrons from IBD of supernova antineutrino int...">
<polygon fill="white" stroke="black" points="420.5,-56.5 420.5,-75.5 504.5,-75.5 504.5,-56.5 420.5,-56.5"/>
<text text-anchor="middle" x="462.5" y="-63.5" font-family="Helvetica,sans-Serif" font-size="10.00">OMSimIBD.hh</text>
</a>
</g>
</g>
<!-- Node1&#45;&gt;Node5 -->
<g id="edge4" class="edge">
<title>Node1&#45;&gt;Node5</title>
<path fill="none" stroke="midnightblue" d="M683.83,-112.44C637.75,-102.98 563.5,-87.74 513.87,-77.55"/>
<polygon fill="midnightblue" stroke="midnightblue" points="514.48,-74.1 503.98,-75.52 513.07,-80.96 514.48,-74.1"/>
</g>
<!-- Node8 -->
<g id="node8" class="node">
<title>Node8</title>
<g id="a_node8"><a xlink:href="mdom_primary_generator_messenger_8hh.html" target="_top" xlink:title=" ">
<polygon fill="white" stroke="black" points="0,-56.5 0,-75.5 203,-75.5 203,-56.5 0,-56.5"/>
<text text-anchor="middle" x="101.5" y="-63.5" font-family="Helvetica,sans-Serif" font-size="10.00">mdomPrimaryGeneratorMessenger.hh</text>
</a>
</g>
</g>
<!-- Node1&#45;&gt;Node8 -->
<g id="edge9" class="edge">
<title>Node1&#45;&gt;Node8</title>
<path fill="none" stroke="midnightblue" d="M635.76,-113.23C523.25,-103.5 330.52,-86.82 209.89,-76.38"/>
<polygon fill="midnightblue" stroke="midnightblue" points="210.15,-72.89 199.89,-75.51 209.55,-79.86 210.15,-72.89"/>
</g>
<!-- Node10 -->
<g id="node10" class="node">
<title>Node10</title>
<g id="a_node10"><a xlink:title=" ">
<polygon fill="white" stroke="#bfbfbf" points="523,-56.5 523,-75.5 596,-75.5 596,-56.5 523,-56.5"/>
<text text-anchor="middle" x="559.5" y="-63.5" font-family="Helvetica,sans-Serif" font-size="10.00">G4Event.hh</text>
</a>
</g>
</g>
<!-- Node1&#45;&gt;Node10 -->
<g id="edge12" class="edge">
<title>Node1&#45;&gt;Node10</title>
<path fill="none" stroke="midnightblue" d="M699.2,-112.44C671.15,-103.32 626.56,-88.81 595.32,-78.65"/>
<polygon fill="midnightblue" stroke="midnightblue" points="596.27,-75.28 585.68,-75.52 594.11,-81.94 596.27,-75.28"/>
</g>
<!-- Node11 -->
<g id="node11" class="node">
<title>Node11</title>
<g id="a_node11"><a xlink:title=" ">
<polygon fill="white" stroke="#bfbfbf" points="614,-56.5 614,-75.5 715,-75.5 715,-56.5 614,-56.5"/>
<text text-anchor="middle" x="664.5" y="-63.5" font-family="Helvetica,sans-Serif" font-size="10.00">G4ParticleGun.hh</text>
</a>
</g>
</g>
<!-- Node1&#45;&gt;Node11 -->
<g id="edge13" class="edge">
<title>Node1&#45;&gt;Node11</title>
<path fill="none" stroke="midnightblue" d="M715.7,-112.32C706.68,-104.34 693.09,-92.31 682.18,-82.65"/>
<polygon fill="midnightblue" stroke="midnightblue" points="684.29,-79.84 674.48,-75.83 679.65,-85.08 684.29,-79.84"/>
</g>
<!-- Node12 -->
<g id="node12" class="node">
<title>Node12</title>
<g id="a_node12"><a xlink:title=" ">
<polygon fill="white" stroke="#bfbfbf" points="733,-56.5 733,-75.5 840,-75.5 840,-56.5 733,-56.5"/>
<text text-anchor="middle" x="786.5" y="-63.5" font-family="Helvetica,sans-Serif" font-size="10.00">G4ParticleTable.hh</text>
</a>
</g>
</g>
<!-- Node1&#45;&gt;Node12 -->
<g id="edge14" class="edge">
<title>Node1&#45;&gt;Node12</title>
<path fill="none" stroke="midnightblue" d="M735.3,-112.32C744.32,-104.34 757.91,-92.31 768.82,-82.65"/>
<polygon fill="midnightblue" stroke="midnightblue" points="771.35,-85.08 776.52,-75.83 766.71,-79.84 771.35,-85.08"/>
</g>
<!-- Node13 -->
<g id="node13" class="node">
<title>Node13</title>
<g id="a_node13"><a xlink:title=" ">
<polygon fill="white" stroke="#bfbfbf" points="858.5,-56.5 858.5,-75.5 986.5,-75.5 986.5,-56.5 858.5,-56.5"/>
<text text-anchor="middle" x="922.5" y="-63.5" font-family="Helvetica,sans-Serif" font-size="10.00">G4ParticleDefinition.hh</text>
</a>
</g>
</g>
<!-- Node1&#45;&gt;Node13 -->
<g id="edge15" class="edge">
<title>Node1&#45;&gt;Node13</title>
<path fill="none" stroke="midnightblue" d="M756.72,-112.44C790.43,-103.2 844.3,-88.44 881.43,-78.26"/>
<polygon fill="midnightblue" stroke="midnightblue" points="882.71,-81.54 891.43,-75.52 880.86,-74.78 882.71,-81.54"/>
</g>
<!-- Node14 -->
<g id="node14" class="node">
<title>Node14</title>
<g id="a_node14"><a xlink:title=" ">
<polygon fill="white" stroke="#bfbfbf" points="1004.5,-56.5 1004.5,-75.5 1138.5,-75.5 1138.5,-56.5 1004.5,-56.5"/>
<text text-anchor="middle" x="1071.5" y="-63.5" font-family="Helvetica,sans-Serif" font-size="10.00">G4PhysicalConstants.hh</text>
</a>
</g>
</g>
<!-- Node1&#45;&gt;Node14 -->
<g id="edge16" class="edge">
<title>Node1&#45;&gt;Node14</title>
<path fill="none" stroke="midnightblue" d="M780.32,-112.44C841.82,-102.85 941.48,-87.29 1006.76,-77.1"/>
<polygon fill="midnightblue" stroke="midnightblue" points="1007.59,-80.52 1016.93,-75.52 1006.51,-73.6 1007.59,-80.52"/>
</g>
<!-- Node15 -->
<g id="node15" class="node">
<title>Node15</title>
<g id="a_node15"><a xlink:title=" ">
<polygon fill="white" stroke="#bfbfbf" points="1157,-56.5 1157,-75.5 1276,-75.5 1276,-56.5 1157,-56.5"/>
<text text-anchor="middle" x="1216.5" y="-63.5" font-family="Helvetica,sans-Serif" font-size="10.00">G4SystemOfUnits.hh</text>
</a>
</g>
</g>
<!-- Node1&#45;&gt;Node15 -->
<g id="edge17" class="edge">
<title>Node1&#45;&gt;Node15</title>
<path fill="none" stroke="midnightblue" d="M810.84,-112.49C893.88,-104.08 1023.9,-90.55 1146.71,-76.07"/>
<polygon fill="midnightblue" stroke="midnightblue" points="1147.15,-79.54 1156.67,-74.89 1146.33,-72.59 1147.15,-79.54"/>
</g>
<!-- Node16 -->
<g id="node16" class="node">
<title>Node16</title>
<g id="a_node16"><a xlink:title=" ">
<polygon fill="white" stroke="#bfbfbf" points="1294.5,-56.5 1294.5,-75.5 1380.5,-75.5 1380.5,-56.5 1294.5,-56.5"/>
<text text-anchor="middle" x="1337.5" y="-63.5" font-family="Helvetica,sans-Serif" font-size="10.00">Randomize.hh</text>
</a>
</g>
</g>
<!-- Node1&#45;&gt;Node16 -->
<g id="edge18" class="edge">
<title>Node1&#45;&gt;Node16</title>
<path fill="none" stroke="midnightblue" d="M815.47,-116.3C924.21,-110.06 1112.92,-97.39 1284.45,-76.02"/>
<polygon fill="midnightblue" stroke="midnightblue" points="1284.93,-79.49 1294.42,-74.77 1284.06,-72.54 1284.93,-79.49"/>
</g>
<!-- Node3 -->
<g id="node3" class="node">
<title>Node3</title>
<g id="a_node3"><a xlink:title=" ">
<polygon fill="white" stroke="#bfbfbf" points="237.5,-0.5 237.5,-19.5 429.5,-19.5 429.5,-0.5 237.5,-0.5"/>
<text text-anchor="middle" x="333.5" y="-7.5" font-family="Helvetica,sans-Serif" font-size="10.00">G4VUserPrimaryGeneratorAction.hh</text>
</a>
</g>
</g>
<!-- Node2&#45;&gt;Node3 -->
<g id="edge2" class="edge">
<title>Node2&#45;&gt;Node3</title>
<path fill="none" stroke="midnightblue" d="M315.13,-56.08C318.11,-48.77 322.43,-38.18 326.12,-29.1"/>
<polygon fill="midnightblue" stroke="midnightblue" points="329.4,-30.33 329.93,-19.75 322.92,-27.69 329.4,-30.33"/>
</g>
<!-- Node4 -->
<g id="node4" class="node">
<title>Node4</title>
<g id="a_node4"><a xlink:title=" ">
<polygon fill="white" stroke="#bfbfbf" points="152,-0.5 152,-19.5 219,-19.5 219,-0.5 152,-0.5"/>
<text text-anchor="middle" x="185.5" y="-7.5" font-family="Helvetica,sans-Serif" font-size="10.00">globals.hh</text>
</a>
</g>
</g>
<!-- Node2&#45;&gt;Node4 -->
<g id="edge3" class="edge">
<title>Node2&#45;&gt;Node4</title>
<path fill="none" stroke="midnightblue" d="M291.53,-56.44C270.89,-47.6 238.44,-33.69 214.87,-23.59"/>
<polygon fill="midnightblue" stroke="midnightblue" points="215.94,-20.24 205.37,-19.52 213.18,-26.67 215.94,-20.24"/>
</g>
<!-- Node5&#45;&gt;Node3 -->
<g id="edge5" class="edge">
<title>Node5&#45;&gt;Node3</title>
<path fill="none" stroke="midnightblue" d="M442.06,-56.44C420.83,-47.56 387.4,-33.56 363.25,-23.45"/>
<polygon fill="midnightblue" stroke="midnightblue" points="364.42,-20.15 353.84,-19.52 361.72,-26.61 364.42,-20.15"/>
</g>
<!-- Node5&#45;&gt;Node4 -->
<g id="edge6" class="edge">
<title>Node5&#45;&gt;Node4</title>
<path fill="none" stroke="midnightblue" d="M420.19,-57.08C375.3,-48.63 302.06,-34.7 229.11,-20.1"/>
<polygon fill="midnightblue" stroke="midnightblue" points="229.78,-16.66 219.29,-18.13 228.41,-23.53 229.78,-16.66"/>
</g>
<!-- Node6 -->
<g id="node6" class="node">
<title>Node6</title>
<g id="a_node6"><a xlink:title=" ">
<polygon fill="white" stroke="#bfbfbf" points="569,-0.5 569,-19.5 616,-19.5 616,-0.5 569,-0.5"/>
<text text-anchor="middle" x="592.5" y="-7.5" font-family="Helvetica,sans-Serif" font-size="10.00">vector</text>
</a>
</g>
</g>
<!-- Node5&#45;&gt;Node6 -->
<g id="edge7" class="edge">
<title>Node5&#45;&gt;Node6</title>
<path fill="none" stroke="midnightblue" d="M483.1,-56.44C504.49,-47.56 538.18,-33.56 562.52,-23.45"/>
<polygon fill="midnightblue" stroke="midnightblue" points="564.11,-26.58 572,-19.52 561.42,-20.12 564.11,-26.58"/>
</g>
<!-- Node7 -->
<g id="node7" class="node">
<title>Node7</title>
<g id="a_node7"><a xlink:title=" ">
<polygon fill="white" stroke="#bfbfbf" points="448,-0.5 448,-19.5 551,-19.5 551,-0.5 448,-0.5"/>
<text text-anchor="middle" x="499.5" y="-7.5" font-family="Helvetica,sans-Serif" font-size="10.00">G4ThreeVector.hh</text>
</a>
</g>
</g>
<!-- Node5&#45;&gt;Node7 -->
<g id="edge8" class="edge">
<title>Node5&#45;&gt;Node7</title>
<path fill="none" stroke="midnightblue" d="M468.61,-56.08C473.78,-48.53 481.35,-37.49 487.69,-28.23"/>
<polygon fill="midnightblue" stroke="midnightblue" points="490.74,-29.98 493.5,-19.75 484.96,-26.02 490.74,-29.98"/>
</g>
<!-- Node8&#45;&gt;Node4 -->
<g id="edge11" class="edge">
<title>Node8&#45;&gt;Node4</title>
<path fill="none" stroke="midnightblue" d="M115,-56.32C128.1,-47.9 148.21,-34.97 163.61,-25.07"/>
<polygon fill="midnightblue" stroke="midnightblue" points="165.52,-28.01 172.04,-19.65 161.73,-22.12 165.52,-28.01"/>
</g>
<!-- Node9 -->
<g id="node9" class="node">
<title>Node9</title>
<g id="a_node9"><a xlink:title=" ">
<polygon fill="white" stroke="#bfbfbf" points="25,-0.5 25,-19.5 134,-19.5 134,-0.5 25,-0.5"/>
<text text-anchor="middle" x="79.5" y="-7.5" font-family="Helvetica,sans-Serif" font-size="10.00">G4UImessenger.hh</text>
</a>
</g>
</g>
<!-- Node8&#45;&gt;Node9 -->
<g id="edge10" class="edge">
<title>Node8&#45;&gt;Node9</title>
<path fill="none" stroke="midnightblue" d="M97.87,-56.08C94.89,-48.77 90.57,-38.18 86.88,-29.1"/>
<polygon fill="midnightblue" stroke="midnightblue" points="90.08,-27.69 83.07,-19.75 83.6,-30.33 90.08,-27.69"/>
</g>
</g>
</svg>
