<?xml version="1.0" encoding="UTF-8" standalone="no"?>
<!DOCTYPE svg PUBLIC "-//W3C//DTD SVG 1.1//EN"
 "http://www.w3.org/Graphics/SVG/1.1/DTD/svg11.dtd">
<!-- Generated by graphviz version 2.43.0 (0)
 -->
<!-- Title: mdomPrimaryGeneratorMessenger.hh Pages: 1 -->
<svg width="406pt" height="84pt"
 viewBox="0.00 0.00 406.00 84.00" xmlns="http://www.w3.org/2000/svg" xmlns:xlink="http://www.w3.org/1999/xlink">
<g id="graph0" class="graph" transform="scale(1 1) rotate(0) translate(4 80)">
<title>mdomPrimaryGeneratorMessenger.hh</title>
<polygon fill="white" stroke="transparent" points="-4,4 -4,-80 402,-80 402,4 -4,4"/>
<!-- Node1 -->
<g id="node1" class="node">
<title>Node1</title>
<g id="a_node1"><a xlink:title=" ">
<polygon fill="#bfbfbf" stroke="black" points="92,-56.5 92,-75.5 295,-75.5 295,-56.5 92,-56.5"/>
<text text-anchor="middle" x="193.5" y="-63.5" font-family="Helvetica,sans-Serif" font-size="10.00">mdomPrimaryGeneratorMessenger.hh</text>
</a>
</g>
</g>
<!-- Node2 -->
<g id="node2" class="node">
<title>Node2</title>
<g id="a_node2"><a xlink:href="mdom_primary_generator_action_8cc.html" target="_top" xlink:title="Main primary generator. Chooses between generators 0 (gps), 1 (SN enes), 2 (SN ibd),...">
<polygon fill="white" stroke="black" points="0,-0.5 0,-19.5 179,-19.5 179,-0.5 0,-0.5"/>
<text text-anchor="middle" x="89.5" y="-7.5" font-family="Helvetica,sans-Serif" font-size="10.00">mdomPrimaryGeneratorAction.cc</text>
</a>
</g>
</g>
<!-- Node1&#45;&gt;Node2 -->
<g id="edge1" class="edge">
<title>Node1&#45;&gt;Node2</title>
<path fill="none" stroke="midnightblue" d="M167.67,-51.59C148.44,-41.61 122.76,-28.27 106.17,-19.65"/>
<polygon fill="midnightblue" stroke="midnightblue" points="166.3,-54.82 176.79,-56.32 169.53,-48.61 166.3,-54.82"/>
</g>
<!-- Node3 -->
<g id="node3" class="node">
<title>Node3</title>
<g id="a_node3"><a xlink:href="mdom_primary_generator_messenger_8cc.html" target="_top" xlink:title="Primary generator messenger to choose the corresponding primary generator.">
<polygon fill="white" stroke="black" points="197,-0.5 197,-19.5 398,-19.5 398,-0.5 197,-0.5"/>
<text text-anchor="middle" x="297.5" y="-7.5" font-family="Helvetica,sans-Serif" font-size="10.00">mdomPrimaryGeneratorMessenger.cc</text>
</a>
</g>
</g>
<!-- Node1&#45;&gt;Node3 -->
<g id="edge2" class="edge">
<title>Node1&#45;&gt;Node3</title>
<path fill="none" stroke="midnightblue" d="M219.33,-51.59C238.56,-41.61 264.24,-28.27 280.83,-19.65"/>
<polygon fill="midnightblue" stroke="midnightblue" points="217.47,-48.61 210.21,-56.32 220.7,-54.82 217.47,-48.61"/>
</g>
</g>
</svg>
