<?xml version="1.0" encoding="UTF-8" standalone="no"?>
<!DOCTYPE svg PUBLIC "-//W3C//DTD SVG 1.1//EN"
 "http://www.w3.org/Graphics/SVG/1.1/DTD/svg11.dtd">
<!-- Generated by graphviz version 2.43.0 (0)
 -->
<!-- Title: mdomPrimaryGeneratorMessenger.hh Pages: 1 -->
<svg width="410pt" height="84pt"
 viewBox="0.00 0.00 410.00 84.00" xmlns="http://www.w3.org/2000/svg" xmlns:xlink="http://www.w3.org/1999/xlink">
<g id="graph0" class="graph" transform="scale(1 1) rotate(0) translate(4 80)">
<title>mdomPrimaryGeneratorMessenger.hh</title>
<polygon fill="white" stroke="transparent" points="-4,4 -4,-80 406,-80 406,4 -4,4"/>
<!-- Node1 -->
<g id="node1" class="node">
<title>Node1</title>
<g id="a_node1"><a xlink:title=" ">
<polygon fill="#bfbfbf" stroke="black" points="104,-56.5 104,-75.5 307,-75.5 307,-56.5 104,-56.5"/>
<text text-anchor="middle" x="205.5" y="-63.5" font-family="Helvetica,sans-Serif" font-size="10.00">mdomPrimaryGeneratorMessenger.hh</text>
</a>
</g>
</g>
<!-- Node2 -->
<g id="node2" class="node">
<title>Node2</title>
<g id="a_node2"><a xlink:href="mdom_primary_generator_messenger_8cc.html" target="_top" xlink:title="Primary generator messenger to choose the corresponding primary generator.">
<polygon fill="white" stroke="black" points="0,-0.5 0,-19.5 201,-19.5 201,-0.5 0,-0.5"/>
<text text-anchor="middle" x="100.5" y="-7.5" font-family="Helvetica,sans-Serif" font-size="10.00">mdomPrimaryGeneratorMessenger.cc</text>
</a>
</g>
</g>
<!-- Node1&#45;&gt;Node2 -->
<g id="edge1" class="edge">
<title>Node1&#45;&gt;Node2</title>
<path fill="none" stroke="midnightblue" d="M179.69,-51.73C160.25,-41.73 134.15,-28.31 117.33,-19.65"/>
<polygon fill="midnightblue" stroke="midnightblue" points="178.14,-54.86 188.63,-56.32 181.34,-48.64 178.14,-54.86"/>
</g>
<!-- Node3 -->
<g id="node3" class="node">
<title>Node3</title>
<g id="a_node3"><a xlink:href="supernova_2src_2_o_m_sim_primary_generator_action_8cc.html" target="_top" xlink:title="Main primary generator. Chooses between generators 0 (gps), 1 (SN enes), 2 (SN ibd),...">
<polygon fill="white" stroke="black" points="219,-0.5 219,-19.5 402,-19.5 402,-0.5 219,-0.5"/>
<text text-anchor="middle" x="310.5" y="-7.5" font-family="Helvetica,sans-Serif" font-size="10.00">OMSimPrimaryGeneratorAction.cc</text>
</a>
</g>
</g>
<!-- Node1&#45;&gt;Node3 -->
<g id="edge2" class="edge">
<title>Node1&#45;&gt;Node3</title>
<path fill="none" stroke="midnightblue" d="M231.31,-51.73C250.75,-41.73 276.85,-28.31 293.67,-19.65"/>
<polygon fill="midnightblue" stroke="midnightblue" points="229.66,-48.64 222.37,-56.32 232.86,-54.86 229.66,-48.64"/>
</g>
</g>
</svg>
