<?xml version="1.0" encoding="UTF-8" standalone="no"?>
<!DOCTYPE svg PUBLIC "-//W3C//DTD SVG 1.1//EN"
 "http://www.w3.org/Graphics/SVG/1.1/DTD/svg11.dtd">
<!-- Generated by graphviz version 2.43.0 (0)
 -->
<!-- Title: mdomAnalysisManager.hh Pages: 1 -->
<svg width="395pt" height="84pt"
 viewBox="0.00 0.00 394.50 84.00" xmlns="http://www.w3.org/2000/svg" xmlns:xlink="http://www.w3.org/1999/xlink">
<g id="graph0" class="graph" transform="scale(1 1) rotate(0) translate(4 80)">
<title>mdomAnalysisManager.hh</title>
<polygon fill="white" stroke="transparent" points="-4,4 -4,-80 390.5,-80 390.5,4 -4,4"/>
<!-- Node1 -->
<g id="node1" class="node">
<title>Node1</title>
<g id="a_node1"><a xlink:title=" ">
<polygon fill="#bfbfbf" stroke="black" points="140,-56.5 140,-75.5 286,-75.5 286,-56.5 140,-56.5"/>
<text text-anchor="middle" x="213" y="-63.5" font-family="Helvetica,sans-Serif" font-size="10.00">mdomAnalysisManager.hh</text>
</a>
</g>
</g>
<!-- Node2 -->
<g id="node2" class="node">
<title>Node2</title>
<g id="a_node2"><a xlink:href="_o_m_sim__supernova_8cc.html" target="_top" xlink:title=" ">
<polygon fill="white" stroke="black" points="0,-0.5 0,-19.5 122,-19.5 122,-0.5 0,-0.5"/>
<text text-anchor="middle" x="61" y="-7.5" font-family="Helvetica,sans-Serif" font-size="10.00">OMSim_supernova.cc</text>
</a>
</g>
</g>
<!-- Node1&#45;&gt;Node2 -->
<g id="edge1" class="edge">
<title>Node1&#45;&gt;Node2</title>
<path fill="none" stroke="midnightblue" d="M179.33,-53.04C150.73,-42.88 110.39,-28.55 84.97,-19.52"/>
<polygon fill="midnightblue" stroke="midnightblue" points="178.32,-56.39 188.92,-56.44 180.66,-49.8 178.32,-56.39"/>
</g>
<!-- Node3 -->
<g id="node3" class="node">
<title>Node3</title>
<g id="a_node3"><a xlink:href="mdom_analysis_manager_8cc.html" target="_top" xlink:title="Analyze data and write output files.">
<polygon fill="white" stroke="black" points="140.5,-0.5 140.5,-19.5 285.5,-19.5 285.5,-0.5 140.5,-0.5"/>
<text text-anchor="middle" x="213" y="-7.5" font-family="Helvetica,sans-Serif" font-size="10.00">mdomAnalysisManager.cc</text>
</a>
</g>
</g>
<!-- Node1&#45;&gt;Node3 -->
<g id="edge2" class="edge">
<title>Node1&#45;&gt;Node3</title>
<path fill="none" stroke="midnightblue" d="M213,-45.8C213,-36.91 213,-26.78 213,-19.75"/>
<polygon fill="midnightblue" stroke="midnightblue" points="209.5,-46.08 213,-56.08 216.5,-46.08 209.5,-46.08"/>
</g>
<!-- Node4 -->
<g id="node4" class="node">
<title>Node4</title>
<g id="a_node4"><a xlink:href="_o_m_sim_i_b_d_8cc.html" target="_top" xlink:title=" ">
<polygon fill="white" stroke="black" points="303.5,-0.5 303.5,-19.5 386.5,-19.5 386.5,-0.5 303.5,-0.5"/>
<text text-anchor="middle" x="345" y="-7.5" font-family="Helvetica,sans-Serif" font-size="10.00">OMSimIBD.cc</text>
</a>
</g>
</g>
<!-- Node1&#45;&gt;Node4 -->
<g id="edge3" class="edge">
<title>Node1&#45;&gt;Node4</title>
<path fill="none" stroke="midnightblue" d="M243.22,-52.64C267.99,-42.5 302.4,-28.43 324.18,-19.52"/>
<polygon fill="midnightblue" stroke="midnightblue" points="241.85,-49.42 233.92,-56.44 244.5,-55.9 241.85,-49.42"/>
</g>
</g>
</svg>
