<?xml version="1.0" encoding="UTF-8" standalone="no"?>
<!DOCTYPE svg PUBLIC "-//W3C//DTD SVG 1.1//EN"
 "http://www.w3.org/Graphics/SVG/1.1/DTD/svg11.dtd">
<!-- Generated by graphviz version 2.43.0 (0)
 -->
<!-- Title: OMSimDetectorConstruction.cc Pages: 1 -->
<svg width="1414pt" height="375pt"
 viewBox="0.00 0.00 1414.00 375.00" xmlns="http://www.w3.org/2000/svg" xmlns:xlink="http://www.w3.org/1999/xlink">
<g id="graph0" class="graph" transform="scale(1 1) rotate(0) translate(4 371)">
<title>OMSimDetectorConstruction.cc</title>
<polygon fill="white" stroke="transparent" points="-4,4 -4,-371 1410,-371 1410,4 -4,4"/>
<!-- Node1 -->
<g id="node1" class="node">
<title>Node1</title>
<g id="a_node1"><a xlink:title=" ">
<polygon fill="#bfbfbf" stroke="black" points="385.5,-347.5 385.5,-366.5 554.5,-366.5 554.5,-347.5 385.5,-347.5"/>
<text text-anchor="middle" x="470" y="-354.5" font-family="Helvetica,sans-Serif" font-size="10.00">OMSimDetectorConstruction.cc</text>
</a>
</g>
</g>
<!-- Node2 -->
<g id="node2" class="node">
<title>Node2</title>
<g id="a_node2"><a xlink:title=" ">
<polygon fill="white" stroke="#bfbfbf" points="0,-291.5 0,-310.5 170,-310.5 170,-291.5 0,-291.5"/>
<text text-anchor="middle" x="85" y="-298.5" font-family="Helvetica,sans-Serif" font-size="10.00">OMSimDetectorConstruction.hh</text>
</a>
</g>
</g>
<!-- Node1&#45;&gt;Node2 -->
<g id="edge1" class="edge">
<title>Node1&#45;&gt;Node2</title>
<path fill="none" stroke="midnightblue" d="M409,-347.44C340.14,-337.79 228.3,-322.1 155.7,-311.92"/>
<polygon fill="midnightblue" stroke="midnightblue" points="156.11,-308.44 145.72,-310.52 155.14,-315.37 156.11,-308.44"/>
</g>
<!-- Node3 -->
<g id="node3" class="node">
<title>Node3</title>
<g id="a_node3"><a xlink:href="_o_m_sim_p_d_o_m_8hh.html" target="_top" xlink:title=" ">
<polygon fill="white" stroke="black" points="307.5,-291.5 307.5,-310.5 404.5,-310.5 404.5,-291.5 307.5,-291.5"/>
<text text-anchor="middle" x="356" y="-298.5" font-family="Helvetica,sans-Serif" font-size="10.00">OMSimPDOM.hh</text>
</a>
</g>
</g>
<!-- Node1&#45;&gt;Node3 -->
<g id="edge2" class="edge">
<title>Node1&#45;&gt;Node3</title>
<path fill="none" stroke="midnightblue" d="M451.94,-347.44C433.43,-338.68 404.42,-324.94 383.14,-314.86"/>
<polygon fill="midnightblue" stroke="midnightblue" points="384.51,-311.63 373.98,-310.52 381.52,-317.96 384.51,-311.63"/>
</g>
<!-- Node17 -->
<g id="node17" class="node">
<title>Node17</title>
<g id="a_node17"><a xlink:href="_o_m_sim_l_o_m16_8hh.html" target="_top" xlink:title=" ">
<polygon fill="white" stroke="black" points="188.5,-291.5 188.5,-310.5 289.5,-310.5 289.5,-291.5 188.5,-291.5"/>
<text text-anchor="middle" x="239" y="-298.5" font-family="Helvetica,sans-Serif" font-size="10.00">OMSimLOM16.hh</text>
</a>
</g>
</g>
<!-- Node1&#45;&gt;Node17 -->
<g id="edge18" class="edge">
<title>Node1&#45;&gt;Node17</title>
<path fill="none" stroke="midnightblue" d="M433.4,-347.44C393.27,-338.06 328.8,-322.99 285.22,-312.8"/>
<polygon fill="midnightblue" stroke="midnightblue" points="285.97,-309.38 275.43,-310.52 284.37,-316.2 285.97,-309.38"/>
</g>
<!-- Node18 -->
<g id="node18" class="node">
<title>Node18</title>
<g id="a_node18"><a xlink:href="_o_m_sim_l_o_m18_8hh.html" target="_top" xlink:title=" ">
<polygon fill="white" stroke="black" points="535.5,-291.5 535.5,-310.5 636.5,-310.5 636.5,-291.5 535.5,-291.5"/>
<text text-anchor="middle" x="586" y="-298.5" font-family="Helvetica,sans-Serif" font-size="10.00">OMSimLOM18.hh</text>
</a>
</g>
</g>
<!-- Node1&#45;&gt;Node18 -->
<g id="edge21" class="edge">
<title>Node1&#45;&gt;Node18</title>
<path fill="none" stroke="midnightblue" d="M488.38,-347.44C507.22,-338.68 536.73,-324.94 558.38,-314.86"/>
<polygon fill="midnightblue" stroke="midnightblue" points="560.12,-317.91 567.71,-310.52 557.16,-311.56 560.12,-317.91"/>
</g>
<!-- Node21 -->
<g id="node21" class="node">
<title>Node21</title>
<g id="a_node21"><a xlink:href="_o_m_sim_d_e_g_g_8hh.html" target="_top" xlink:title=" ">
<polygon fill="white" stroke="black" points="422.5,-291.5 422.5,-310.5 517.5,-310.5 517.5,-291.5 422.5,-291.5"/>
<text text-anchor="middle" x="470" y="-298.5" font-family="Helvetica,sans-Serif" font-size="10.00">OMSimDEGG.hh</text>
</a>
</g>
</g>
<!-- Node1&#45;&gt;Node21 -->
<g id="edge26" class="edge">
<title>Node1&#45;&gt;Node21</title>
<path fill="none" stroke="midnightblue" d="M470,-347.08C470,-340.01 470,-329.86 470,-320.99"/>
<polygon fill="midnightblue" stroke="midnightblue" points="473.5,-320.75 470,-310.75 466.5,-320.75 473.5,-320.75"/>
</g>
<!-- Node22 -->
<g id="node22" class="node">
<title>Node22</title>
<g id="a_node22"><a xlink:href="_o_m_sim_command_args_table_8hh.html" target="_top" xlink:title="Definition of the OMSimCommandArgsTable singleton class, which controls user args.">
<polygon fill="white" stroke="black" points="1070,-291.5 1070,-310.5 1234,-310.5 1234,-291.5 1070,-291.5"/>
<text text-anchor="middle" x="1152" y="-298.5" font-family="Helvetica,sans-Serif" font-size="10.00">OMSimCommandArgsTable.hh</text>
</a>
</g>
</g>
<!-- Node1&#45;&gt;Node22 -->
<g id="edge29" class="edge">
<title>Node1&#45;&gt;Node22</title>
<path fill="none" stroke="midnightblue" d="M554.65,-349.3C683.21,-339.12 926.71,-319.84 1059.67,-309.31"/>
<polygon fill="midnightblue" stroke="midnightblue" points="1060.14,-312.78 1069.84,-308.51 1059.59,-305.81 1060.14,-312.78"/>
</g>
<!-- Node29 -->
<g id="node29" class="node">
<title>Node29</title>
<g id="a_node29"><a xlink:href="_o_m_sim_hit_manager_8hh.html" target="_top" xlink:title=" ">
<polygon fill="white" stroke="black" points="844.5,-291.5 844.5,-310.5 967.5,-310.5 967.5,-291.5 844.5,-291.5"/>
<text text-anchor="middle" x="906" y="-298.5" font-family="Helvetica,sans-Serif" font-size="10.00">OMSimHitManager.hh</text>
</a>
</g>
</g>
<!-- Node1&#45;&gt;Node29 -->
<g id="edge36" class="edge">
<title>Node1&#45;&gt;Node29</title>
<path fill="none" stroke="midnightblue" d="M539.09,-347.44C619.76,-337.45 752.56,-321 834.33,-310.88"/>
<polygon fill="midnightblue" stroke="midnightblue" points="834.79,-314.35 844.29,-309.64 833.93,-307.4 834.79,-314.35"/>
</g>
<!-- Node4 -->
<g id="node4" class="node">
<title>Node4</title>
<g id="a_node4"><a xlink:href="_o_m_sim_p_m_t_construction_8hh.html" target="_top" xlink:title=" ">
<polygon fill="white" stroke="black" points="387.5,-179.5 387.5,-198.5 536.5,-198.5 536.5,-179.5 387.5,-179.5"/>
<text text-anchor="middle" x="462" y="-186.5" font-family="Helvetica,sans-Serif" font-size="10.00">OMSimPMTConstruction.hh</text>
</a>
</g>
</g>
<!-- Node3&#45;&gt;Node4 -->
<g id="edge3" class="edge">
<title>Node3&#45;&gt;Node4</title>
<path fill="none" stroke="midnightblue" d="M334.35,-291.43C308.08,-279.78 269.35,-257.76 287,-235 299.52,-218.85 344.61,-207.49 385.88,-200.22"/>
<polygon fill="midnightblue" stroke="midnightblue" points="386.71,-203.63 395.99,-198.5 385.54,-196.73 386.71,-203.63"/>
</g>
<!-- Node16 -->
<g id="node16" class="node">
<title>Node16</title>
<g id="a_node16"><a xlink:href="_o_m_sim_optical_module_8hh.html" target="_top" xlink:title=" ">
<polygon fill="white" stroke="black" points="296.5,-235.5 296.5,-254.5 433.5,-254.5 433.5,-235.5 296.5,-235.5"/>
<text text-anchor="middle" x="365" y="-242.5" font-family="Helvetica,sans-Serif" font-size="10.00">OMSimOpticalModule.hh</text>
</a>
</g>
</g>
<!-- Node3&#45;&gt;Node16 -->
<g id="edge15" class="edge">
<title>Node3&#45;&gt;Node16</title>
<path fill="none" stroke="midnightblue" d="M357.49,-291.08C358.68,-283.93 360.39,-273.64 361.88,-264.69"/>
<polygon fill="midnightblue" stroke="midnightblue" points="365.35,-265.19 363.54,-254.75 358.45,-264.04 365.35,-265.19"/>
</g>
<!-- Node5 -->
<g id="node5" class="node">
<title>Node5</title>
<g id="a_node5"><a xlink:href="abc_detector_component_8hh.html" target="_top" xlink:title=" ">
<polygon fill="white" stroke="black" points="286.5,-123.5 286.5,-142.5 433.5,-142.5 433.5,-123.5 286.5,-123.5"/>
<text text-anchor="middle" x="360" y="-130.5" font-family="Helvetica,sans-Serif" font-size="10.00">abcDetectorComponent.hh</text>
</a>
</g>
</g>
<!-- Node4&#45;&gt;Node5 -->
<g id="edge4" class="edge">
<title>Node4&#45;&gt;Node5</title>
<path fill="none" stroke="midnightblue" d="M445.61,-179.32C429.33,-170.7 404.13,-157.36 385.28,-147.39"/>
<polygon fill="midnightblue" stroke="midnightblue" points="386.82,-144.24 376.35,-142.65 383.55,-150.43 386.82,-144.24"/>
</g>
<!-- Node14 -->
<g id="node14" class="node">
<title>Node14</title>
<g id="a_node14"><a xlink:title=" ">
<polygon fill="white" stroke="#bfbfbf" points="452,-123.5 452,-142.5 550,-142.5 550,-123.5 452,-123.5"/>
<text text-anchor="middle" x="501" y="-130.5" font-family="Helvetica,sans-Serif" font-size="10.00">G4UnionSolid.hh</text>
</a>
</g>
</g>
<!-- Node4&#45;&gt;Node14 -->
<g id="edge13" class="edge">
<title>Node4&#45;&gt;Node14</title>
<path fill="none" stroke="midnightblue" d="M468.44,-179.08C473.95,-171.46 482.03,-160.26 488.76,-150.94"/>
<polygon fill="midnightblue" stroke="midnightblue" points="491.66,-152.91 494.68,-142.75 485.99,-148.81 491.66,-152.91"/>
</g>
<!-- Node15 -->
<g id="node15" class="node">
<title>Node15</title>
<g id="a_node15"><a xlink:title=" ">
<polygon fill="white" stroke="#bfbfbf" points="568.5,-123.5 568.5,-142.5 635.5,-142.5 635.5,-123.5 568.5,-123.5"/>
<text text-anchor="middle" x="602" y="-130.5" font-family="Helvetica,sans-Serif" font-size="10.00">G4Tubs.hh</text>
</a>
</g>
</g>
<!-- Node4&#45;&gt;Node15 -->
<g id="edge14" class="edge">
<title>Node4&#45;&gt;Node15</title>
<path fill="none" stroke="midnightblue" d="M484.18,-179.44C507.43,-170.48 544.15,-156.31 570.42,-146.18"/>
<polygon fill="midnightblue" stroke="midnightblue" points="571.85,-149.38 579.92,-142.52 569.33,-142.85 571.85,-149.38"/>
</g>
<!-- Node6 -->
<g id="node6" class="node">
<title>Node6</title>
<g id="a_node6"><a xlink:href="_o_m_sim_input_data_8hh.html" target="_top" xlink:title=" ">
<polygon fill="white" stroke="black" points="602.5,-67.5 602.5,-86.5 717.5,-86.5 717.5,-67.5 602.5,-67.5"/>
<text text-anchor="middle" x="660" y="-74.5" font-family="Helvetica,sans-Serif" font-size="10.00">OMSimInputData.hh</text>
</a>
</g>
</g>
<!-- Node5&#45;&gt;Node6 -->
<g id="edge5" class="edge">
<title>Node5&#45;&gt;Node6</title>
<path fill="none" stroke="midnightblue" d="M407.54,-123.44C460.53,-113.9 546.2,-98.48 602.82,-88.29"/>
<polygon fill="midnightblue" stroke="midnightblue" points="603.46,-91.73 612.69,-86.52 602.22,-84.84 603.46,-91.73"/>
</g>
<!-- Node10 -->
<g id="node10" class="node">
<title>Node10</title>
<g id="a_node10"><a xlink:title=" ">
<polygon fill="white" stroke="#bfbfbf" points="47.5,-67.5 47.5,-86.5 154.5,-86.5 154.5,-67.5 47.5,-67.5"/>
<text text-anchor="middle" x="101" y="-74.5" font-family="Helvetica,sans-Serif" font-size="10.00">G4Transform3D.hh</text>
</a>
</g>
</g>
<!-- Node5&#45;&gt;Node10 -->
<g id="edge9" class="edge">
<title>Node5&#45;&gt;Node10</title>
<path fill="none" stroke="midnightblue" d="M318.96,-123.44C273.68,-114 200.77,-98.8 151.89,-88.61"/>
<polygon fill="midnightblue" stroke="midnightblue" points="152.35,-85.13 141.85,-86.52 150.92,-91.98 152.35,-85.13"/>
</g>
<!-- Node11 -->
<g id="node11" class="node">
<title>Node11</title>
<g id="a_node11"><a xlink:title=" ">
<polygon fill="white" stroke="#bfbfbf" points="173,-67.5 173,-86.5 281,-86.5 281,-67.5 173,-67.5"/>
<text text-anchor="middle" x="227" y="-74.5" font-family="Helvetica,sans-Serif" font-size="10.00">G4VisAttributes.hh</text>
</a>
</g>
</g>
<!-- Node5&#45;&gt;Node11 -->
<g id="edge10" class="edge">
<title>Node5&#45;&gt;Node11</title>
<path fill="none" stroke="midnightblue" d="M338.93,-123.44C316.94,-114.52 282.27,-100.44 257.34,-90.32"/>
<polygon fill="midnightblue" stroke="midnightblue" points="258.56,-87.04 247.98,-86.52 255.92,-93.52 258.56,-87.04"/>
</g>
<!-- Node12 -->
<g id="node12" class="node">
<title>Node12</title>
<g id="a_node12"><a xlink:title=" ">
<polygon fill="white" stroke="#bfbfbf" points="299.5,-67.5 299.5,-86.5 424.5,-86.5 424.5,-67.5 299.5,-67.5"/>
<text text-anchor="middle" x="362" y="-74.5" font-family="Helvetica,sans-Serif" font-size="10.00">G4SubtractionSolid.hh</text>
</a>
</g>
</g>
<!-- Node5&#45;&gt;Node12 -->
<g id="edge11" class="edge">
<title>Node5&#45;&gt;Node12</title>
<path fill="none" stroke="midnightblue" d="M360.33,-123.08C360.59,-116.01 360.97,-105.86 361.3,-96.99"/>
<polygon fill="midnightblue" stroke="midnightblue" points="364.8,-96.87 361.68,-86.75 357.81,-96.61 364.8,-96.87"/>
</g>
<!-- Node13 -->
<g id="node13" class="node">
<title>Node13</title>
<g id="a_node13"><a xlink:title=" ">
<polygon fill="white" stroke="#bfbfbf" points="443,-67.5 443,-86.5 553,-86.5 553,-67.5 443,-67.5"/>
<text text-anchor="middle" x="498" y="-74.5" font-family="Helvetica,sans-Serif" font-size="10.00">G4PVPlacement.hh</text>
</a>
</g>
</g>
<!-- Node5&#45;&gt;Node13 -->
<g id="edge12" class="edge">
<title>Node5&#45;&gt;Node13</title>
<path fill="none" stroke="midnightblue" d="M381.87,-123.44C404.78,-114.48 440.98,-100.31 466.87,-90.18"/>
<polygon fill="midnightblue" stroke="midnightblue" points="468.2,-93.42 476.24,-86.52 465.65,-86.9 468.2,-93.42"/>
</g>
<!-- Node7 -->
<g id="node7" class="node">
<title>Node7</title>
<g id="a_node7"><a xlink:title=" ">
<polygon fill="white" stroke="#bfbfbf" points="465.5,-0.5 465.5,-30.5 578.5,-30.5 578.5,-0.5 465.5,-0.5"/>
<text text-anchor="start" x="473.5" y="-18.5" font-family="Helvetica,sans-Serif" font-size="10.00">boost/property_tree</text>
<text text-anchor="middle" x="522" y="-7.5" font-family="Helvetica,sans-Serif" font-size="10.00">/json_parser.hpp</text>
</a>
</g>
</g>
<!-- Node6&#45;&gt;Node7 -->
<g id="edge6" class="edge">
<title>Node6&#45;&gt;Node7</title>
<path fill="none" stroke="midnightblue" d="M640.23,-67.48C620.4,-58.93 589.26,-45.5 563.92,-34.57"/>
<polygon fill="midnightblue" stroke="midnightblue" points="565.09,-31.27 554.52,-30.52 562.32,-37.7 565.09,-31.27"/>
</g>
<!-- Node8 -->
<g id="node8" class="node">
<title>Node8</title>
<g id="a_node8"><a xlink:title=" ">
<polygon fill="white" stroke="#bfbfbf" points="596.5,-6 596.5,-25 739.5,-25 739.5,-6 596.5,-6"/>
<text text-anchor="middle" x="668" y="-13" font-family="Helvetica,sans-Serif" font-size="10.00">G4OpBoundaryProcess.hh</text>
</a>
</g>
</g>
<!-- Node6&#45;&gt;Node8 -->
<g id="edge7" class="edge">
<title>Node6&#45;&gt;Node8</title>
<path fill="none" stroke="midnightblue" d="M661.15,-67.48C662.27,-59.08 664.04,-45.98 665.49,-35.16"/>
<polygon fill="midnightblue" stroke="midnightblue" points="668.99,-35.39 666.86,-25.01 662.05,-34.45 668.99,-35.39"/>
</g>
<!-- Node9 -->
<g id="node9" class="node">
<title>Node9</title>
<g id="a_node9"><a xlink:title=" ">
<polygon fill="white" stroke="#bfbfbf" points="772.5,-6 772.5,-25 891.5,-25 891.5,-6 772.5,-6"/>
<text text-anchor="middle" x="832" y="-13" font-family="Helvetica,sans-Serif" font-size="10.00">G4SystemOfUnits.hh</text>
</a>
</g>
</g>
<!-- Node6&#45;&gt;Node9 -->
<g id="edge8" class="edge">
<title>Node6&#45;&gt;Node9</title>
<path fill="none" stroke="midnightblue" d="M684.64,-67.48C714.28,-57.22 764.18,-39.96 797.6,-28.4"/>
<polygon fill="midnightblue" stroke="midnightblue" points="799.1,-31.59 807.4,-25.01 796.81,-24.97 799.1,-31.59"/>
</g>
<!-- Node16&#45;&gt;Node4 -->
<g id="edge17" class="edge">
<title>Node16&#45;&gt;Node4</title>
<path fill="none" stroke="midnightblue" d="M380.58,-235.32C396,-226.74 419.81,-213.49 437.71,-203.52"/>
<polygon fill="midnightblue" stroke="midnightblue" points="439.42,-206.58 446.45,-198.65 436.01,-200.46 439.42,-206.58"/>
</g>
<!-- Node16&#45;&gt;Node5 -->
<g id="edge16" class="edge">
<title>Node16&#45;&gt;Node5</title>
<path fill="none" stroke="midnightblue" d="M364.61,-235.37C363.8,-217.62 361.94,-176.67 360.85,-152.6"/>
<polygon fill="midnightblue" stroke="midnightblue" points="364.34,-152.42 360.39,-142.59 357.35,-152.74 364.34,-152.42"/>
</g>
<!-- Node17&#45;&gt;Node4 -->
<g id="edge19" class="edge">
<title>Node17&#45;&gt;Node4</title>
<path fill="none" stroke="midnightblue" d="M241.87,-291.34C246.99,-277.25 259.09,-249.52 279,-235 307.39,-214.3 344.16,-203.04 377.29,-196.96"/>
<polygon fill="midnightblue" stroke="midnightblue" points="378.17,-200.36 387.44,-195.23 377,-193.46 378.17,-200.36"/>
</g>
<!-- Node17&#45;&gt;Node16 -->
<g id="edge20" class="edge">
<title>Node17&#45;&gt;Node16</title>
<path fill="none" stroke="midnightblue" d="M258.97,-291.44C279.61,-282.6 312.06,-268.69 335.63,-258.59"/>
<polygon fill="midnightblue" stroke="midnightblue" points="337.32,-261.67 345.13,-254.52 334.56,-255.24 337.32,-261.67"/>
</g>
<!-- Node18&#45;&gt;Node4 -->
<g id="edge22" class="edge">
<title>Node18&#45;&gt;Node4</title>
<path fill="none" stroke="midnightblue" d="M636.69,-293.72C686.38,-285.52 750.9,-268.12 723,-235 700.67,-208.49 614.12,-197.6 546.74,-193.12"/>
<polygon fill="midnightblue" stroke="midnightblue" points="546.72,-189.61 536.52,-192.48 546.28,-196.6 546.72,-189.61"/>
</g>
<!-- Node18&#45;&gt;Node16 -->
<g id="edge23" class="edge">
<title>Node18&#45;&gt;Node16</title>
<path fill="none" stroke="midnightblue" d="M550.98,-291.44C512.75,-282.1 451.43,-267.12 409.74,-256.93"/>
<polygon fill="midnightblue" stroke="midnightblue" points="410.4,-253.49 399.85,-254.52 408.74,-260.29 410.4,-253.49"/>
</g>
<!-- Node19 -->
<g id="node19" class="node">
<title>Node19</title>
<g id="a_node19"><a xlink:title=" ">
<polygon fill="white" stroke="#bfbfbf" points="490,-235.5 490,-254.5 606,-254.5 606,-235.5 490,-235.5"/>
<text text-anchor="middle" x="548" y="-242.5" font-family="Helvetica,sans-Serif" font-size="10.00">G4LogicalVolume.hh</text>
</a>
</g>
</g>
<!-- Node18&#45;&gt;Node19 -->
<g id="edge24" class="edge">
<title>Node18&#45;&gt;Node19</title>
<path fill="none" stroke="midnightblue" d="M579.73,-291.08C574.36,-283.46 566.48,-272.26 559.92,-262.94"/>
<polygon fill="midnightblue" stroke="midnightblue" points="562.78,-260.91 554.16,-254.75 557.05,-264.94 562.78,-260.91"/>
</g>
<!-- Node20 -->
<g id="node20" class="node">
<title>Node20</title>
<g id="a_node20"><a xlink:title=" ">
<polygon fill="white" stroke="#bfbfbf" points="624.5,-235.5 624.5,-254.5 713.5,-254.5 713.5,-235.5 624.5,-235.5"/>
<text text-anchor="middle" x="669" y="-242.5" font-family="Helvetica,sans-Serif" font-size="10.00">G4Polycone.hh</text>
</a>
</g>
</g>
<!-- Node18&#45;&gt;Node20 -->
<g id="edge25" class="edge">
<title>Node18&#45;&gt;Node20</title>
<path fill="none" stroke="midnightblue" d="M599.34,-291.32C612.16,-282.98 631.78,-270.21 646.94,-260.35"/>
<polygon fill="midnightblue" stroke="midnightblue" points="649.22,-263.04 655.7,-254.65 645.41,-257.17 649.22,-263.04"/>
</g>
<!-- Node21&#45;&gt;Node4 -->
<g id="edge27" class="edge">
<title>Node21&#45;&gt;Node4</title>
<path fill="none" stroke="midnightblue" d="M469.37,-291.37C468.08,-273.62 465.1,-232.67 463.35,-208.6"/>
<polygon fill="midnightblue" stroke="midnightblue" points="466.84,-208.31 462.62,-198.59 459.86,-208.82 466.84,-208.31"/>
</g>
<!-- Node21&#45;&gt;Node16 -->
<g id="edge28" class="edge">
<title>Node21&#45;&gt;Node16</title>
<path fill="none" stroke="midnightblue" d="M453.13,-291.32C436.29,-282.66 410.19,-269.24 390.76,-259.25"/>
<polygon fill="midnightblue" stroke="midnightblue" points="392.32,-256.12 381.83,-254.65 389.12,-262.34 392.32,-256.12"/>
</g>
<!-- Node23 -->
<g id="node23" class="node">
<title>Node23</title>
<g id="a_node23"><a xlink:href="_o_m_sim_logger_8hh.html" target="_top" xlink:title=" ">
<polygon fill="white" stroke="black" points="1204.5,-235.5 1204.5,-254.5 1303.5,-254.5 1303.5,-235.5 1204.5,-235.5"/>
<text text-anchor="middle" x="1254" y="-242.5" font-family="Helvetica,sans-Serif" font-size="10.00">OMSimLogger.hh</text>
</a>
</g>
</g>
<!-- Node22&#45;&gt;Node23 -->
<g id="edge30" class="edge">
<title>Node22&#45;&gt;Node23</title>
<path fill="none" stroke="midnightblue" d="M1168.39,-291.32C1184.67,-282.7 1209.87,-269.36 1228.72,-259.39"/>
<polygon fill="midnightblue" stroke="midnightblue" points="1230.45,-262.43 1237.65,-254.65 1227.18,-256.24 1230.45,-262.43"/>
</g>
<!-- Node26 -->
<g id="node26" class="node">
<title>Node26</title>
<g id="a_node26"><a xlink:title=" ">
<polygon fill="white" stroke="#bfbfbf" points="1044.5,-235.5 1044.5,-254.5 1099.5,-254.5 1099.5,-235.5 1044.5,-235.5"/>
<text text-anchor="middle" x="1072" y="-242.5" font-family="Helvetica,sans-Serif" font-size="10.00">fstream</text>
</a>
</g>
</g>
<!-- Node22&#45;&gt;Node26 -->
<g id="edge33" class="edge">
<title>Node22&#45;&gt;Node26</title>
<path fill="none" stroke="midnightblue" d="M1139.15,-291.32C1126.78,-282.98 1107.87,-270.21 1093.26,-260.35"/>
<polygon fill="midnightblue" stroke="midnightblue" points="1095.07,-257.35 1084.82,-254.65 1091.15,-263.15 1095.07,-257.35"/>
</g>
<!-- Node27 -->
<g id="node27" class="node">
<title>Node27</title>
<g id="a_node27"><a xlink:title=" ">
<polygon fill="white" stroke="#bfbfbf" points="1322,-235.5 1322,-254.5 1406,-254.5 1406,-235.5 1322,-235.5"/>
<text text-anchor="middle" x="1364" y="-242.5" font-family="Helvetica,sans-Serif" font-size="10.00">boost/any.hpp</text>
</a>
</g>
</g>
<!-- Node22&#45;&gt;Node27 -->
<g id="edge34" class="edge">
<title>Node22&#45;&gt;Node27</title>
<path fill="none" stroke="midnightblue" d="M1185.59,-291.44C1222.19,-282.12 1280.84,-267.18 1320.83,-257"/>
<polygon fill="midnightblue" stroke="midnightblue" points="1321.74,-260.38 1330.57,-254.52 1320.01,-253.59 1321.74,-260.38"/>
</g>
<!-- Node28 -->
<g id="node28" class="node">
<title>Node28</title>
<g id="a_node28"><a xlink:title=" ">
<polygon fill="white" stroke="#bfbfbf" points="1118,-235.5 1118,-254.5 1186,-254.5 1186,-235.5 1118,-235.5"/>
<text text-anchor="middle" x="1152" y="-242.5" font-family="Helvetica,sans-Serif" font-size="10.00">sys/time.h</text>
</a>
</g>
</g>
<!-- Node22&#45;&gt;Node28 -->
<g id="edge35" class="edge">
<title>Node22&#45;&gt;Node28</title>
<path fill="none" stroke="midnightblue" d="M1152,-291.08C1152,-284.01 1152,-273.86 1152,-264.99"/>
<polygon fill="midnightblue" stroke="midnightblue" points="1155.5,-264.75 1152,-254.75 1148.5,-264.75 1155.5,-264.75"/>
</g>
<!-- Node24 -->
<g id="node24" class="node">
<title>Node24</title>
<g id="a_node24"><a xlink:title=" ">
<polygon fill="white" stroke="#bfbfbf" points="1195,-179.5 1195,-198.5 1245,-198.5 1245,-179.5 1195,-179.5"/>
<text text-anchor="middle" x="1220" y="-186.5" font-family="Helvetica,sans-Serif" font-size="10.00">stdio.h</text>
</a>
</g>
</g>
<!-- Node23&#45;&gt;Node24 -->
<g id="edge31" class="edge">
<title>Node23&#45;&gt;Node24</title>
<path fill="none" stroke="midnightblue" d="M1248.39,-235.08C1243.63,-227.53 1236.68,-216.49 1230.85,-207.23"/>
<polygon fill="midnightblue" stroke="midnightblue" points="1233.8,-205.35 1225.51,-198.75 1227.88,-209.08 1233.8,-205.35"/>
</g>
<!-- Node25 -->
<g id="node25" class="node">
<title>Node25</title>
<g id="a_node25"><a xlink:title=" ">
<polygon fill="white" stroke="#bfbfbf" points="1263,-179.5 1263,-198.5 1311,-198.5 1311,-179.5 1263,-179.5"/>
<text text-anchor="middle" x="1287" y="-186.5" font-family="Helvetica,sans-Serif" font-size="10.00">time.h</text>
</a>
</g>
</g>
<!-- Node23&#45;&gt;Node25 -->
<g id="edge32" class="edge">
<title>Node23&#45;&gt;Node25</title>
<path fill="none" stroke="midnightblue" d="M1259.45,-235.08C1264.01,-227.61 1270.67,-216.72 1276.29,-207.52"/>
<polygon fill="midnightblue" stroke="midnightblue" points="1279.42,-209.11 1281.65,-198.75 1273.45,-205.46 1279.42,-209.11"/>
</g>
<!-- Node29&#45;&gt;Node26 -->
<g id="edge44" class="edge">
<title>Node29&#45;&gt;Node26</title>
<path fill="none" stroke="midnightblue" d="M932.3,-291.44C960.35,-282.32 1004.94,-267.81 1036.18,-257.65"/>
<polygon fill="midnightblue" stroke="midnightblue" points="1037.39,-260.94 1045.82,-254.52 1035.23,-254.28 1037.39,-260.94"/>
</g>
<!-- Node30 -->
<g id="node30" class="node">
<title>Node30</title>
<g id="a_node30"><a xlink:href="_o_m_sim_p_m_t_response_8hh.html" target="_top" xlink:title=" ">
<polygon fill="white" stroke="black" points="770.5,-235.5 770.5,-254.5 905.5,-254.5 905.5,-235.5 770.5,-235.5"/>
<text text-anchor="middle" x="838" y="-242.5" font-family="Helvetica,sans-Serif" font-size="10.00">OMSimPMTResponse.hh</text>
</a>
</g>
</g>
<!-- Node29&#45;&gt;Node30 -->
<g id="edge37" class="edge">
<title>Node29&#45;&gt;Node30</title>
<path fill="none" stroke="midnightblue" d="M895.07,-291.32C884.83,-283.18 869.28,-270.84 857,-261.09"/>
<polygon fill="midnightblue" stroke="midnightblue" points="859.13,-258.31 849.12,-254.83 854.78,-263.79 859.13,-258.31"/>
</g>
<!-- Node35 -->
<g id="node35" class="node">
<title>Node35</title>
<g id="a_node35"><a xlink:title=" ">
<polygon fill="white" stroke="#bfbfbf" points="923.5,-235.5 923.5,-254.5 1026.5,-254.5 1026.5,-235.5 923.5,-235.5"/>
<text text-anchor="middle" x="975" y="-242.5" font-family="Helvetica,sans-Serif" font-size="10.00">G4ThreeVector.hh</text>
</a>
</g>
</g>
<!-- Node29&#45;&gt;Node35 -->
<g id="edge43" class="edge">
<title>Node29&#45;&gt;Node35</title>
<path fill="none" stroke="midnightblue" d="M917.09,-291.32C927.49,-283.18 943.26,-270.84 955.72,-261.09"/>
<polygon fill="midnightblue" stroke="midnightblue" points="957.99,-263.75 963.71,-254.83 953.68,-258.24 957.99,-263.75"/>
</g>
<!-- Node30&#45;&gt;Node9 -->
<g id="edge38" class="edge">
<title>Node30&#45;&gt;Node9</title>
<path fill="none" stroke="midnightblue" d="M837.77,-235.36C836.9,-202.14 833.73,-82.16 832.5,-35.37"/>
<polygon fill="midnightblue" stroke="midnightblue" points="835.99,-35.05 832.23,-25.15 828.99,-35.24 835.99,-35.05"/>
</g>
<!-- Node31 -->
<g id="node31" class="node">
<title>Node31</title>
<g id="a_node31"><a xlink:title=" ">
<polygon fill="white" stroke="#bfbfbf" points="864.5,-179.5 864.5,-198.5 937.5,-198.5 937.5,-179.5 864.5,-179.5"/>
<text text-anchor="middle" x="901" y="-186.5" font-family="Helvetica,sans-Serif" font-size="10.00">G4Types.hh</text>
</a>
</g>
</g>
<!-- Node30&#45;&gt;Node31 -->
<g id="edge39" class="edge">
<title>Node30&#45;&gt;Node31</title>
<path fill="none" stroke="midnightblue" d="M848.12,-235.32C857.53,-227.26 871.74,-215.08 883.07,-205.37"/>
<polygon fill="midnightblue" stroke="midnightblue" points="885.38,-208 890.69,-198.83 880.82,-202.68 885.38,-208"/>
</g>
<!-- Node32 -->
<g id="node32" class="node">
<title>Node32</title>
<g id="a_node32"><a xlink:title=" ">
<polygon fill="white" stroke="#bfbfbf" points="956,-179.5 956,-198.5 994,-198.5 994,-179.5 956,-179.5"/>
<text text-anchor="middle" x="975" y="-186.5" font-family="Helvetica,sans-Serif" font-size="10.00">map</text>
</a>
</g>
</g>
<!-- Node30&#45;&gt;Node32 -->
<g id="edge40" class="edge">
<title>Node30&#45;&gt;Node32</title>
<path fill="none" stroke="midnightblue" d="M859.71,-235.44C883.02,-226.25 920.18,-211.61 945.99,-201.43"/>
<polygon fill="midnightblue" stroke="midnightblue" points="947.59,-204.57 955.61,-197.64 945.02,-198.05 947.59,-204.57"/>
</g>
<!-- Node33 -->
<g id="node33" class="node">
<title>Node33</title>
<g id="a_node33"><a xlink:title=" ">
<polygon fill="white" stroke="#bfbfbf" points="675.5,-179.5 675.5,-198.5 736.5,-198.5 736.5,-179.5 675.5,-179.5"/>
<text text-anchor="middle" x="706" y="-186.5" font-family="Helvetica,sans-Serif" font-size="10.00">TGraph.h</text>
</a>
</g>
</g>
<!-- Node30&#45;&gt;Node33 -->
<g id="edge41" class="edge">
<title>Node30&#45;&gt;Node33</title>
<path fill="none" stroke="midnightblue" d="M817.08,-235.44C795.26,-226.52 760.85,-212.44 736.11,-202.32"/>
<polygon fill="midnightblue" stroke="midnightblue" points="737.4,-199.06 726.82,-198.52 734.75,-205.54 737.4,-199.06"/>
</g>
<!-- Node34 -->
<g id="node34" class="node">
<title>Node34</title>
<g id="a_node34"><a xlink:title=" ">
<polygon fill="white" stroke="#bfbfbf" points="754.5,-179.5 754.5,-198.5 807.5,-198.5 807.5,-179.5 754.5,-179.5"/>
<text text-anchor="middle" x="781" y="-186.5" font-family="Helvetica,sans-Serif" font-size="10.00">TH2D.h</text>
</a>
</g>
</g>
<!-- Node30&#45;&gt;Node34 -->
<g id="edge42" class="edge">
<title>Node30&#45;&gt;Node34</title>
<path fill="none" stroke="midnightblue" d="M828.84,-235.32C820.5,-227.42 807.97,-215.55 797.82,-205.94"/>
<polygon fill="midnightblue" stroke="midnightblue" points="799.99,-203.17 790.32,-198.83 795.18,-208.25 799.99,-203.17"/>
</g>
</g>
</svg>
