<?xml version="1.0" encoding="UTF-8" standalone="no"?>
<!DOCTYPE svg PUBLIC "-//W3C//DTD SVG 1.1//EN"
 "http://www.w3.org/Graphics/SVG/1.1/DTD/svg11.dtd">
<!-- Generated by graphviz version 2.43.0 (0)
 -->
<!-- Title: OMSimEventAction.cc Pages: 1 -->
<svg width="426pt" height="84pt"
 viewBox="0.00 0.00 425.50 84.00" xmlns="http://www.w3.org/2000/svg" xmlns:xlink="http://www.w3.org/1999/xlink">
<g id="graph0" class="graph" transform="scale(1 1) rotate(0) translate(4 80)">
<title>OMSimEventAction.cc</title>
<polygon fill="white" stroke="transparent" points="-4,4 -4,-80 421.5,-80 421.5,4 -4,4"/>
<!-- Node1 -->
<g id="node1" class="node">
<title>Node1</title>
<g id="a_node1"><a xlink:title=" ">
<polygon fill="#bfbfbf" stroke="black" points="156.5,-56.5 156.5,-75.5 280.5,-75.5 280.5,-56.5 156.5,-56.5"/>
<text text-anchor="middle" x="218.5" y="-63.5" font-family="Helvetica,sans-Serif" font-size="10.00">OMSimEventAction.cc</text>
</a>
</g>
</g>
<!-- Node2 -->
<g id="node2" class="node">
<title>Node2</title>
<g id="a_node2"><a xlink:title=" ">
<polygon fill="white" stroke="#bfbfbf" points="0,-0.5 0,-19.5 125,-19.5 125,-0.5 0,-0.5"/>
<text text-anchor="middle" x="62.5" y="-7.5" font-family="Helvetica,sans-Serif" font-size="10.00">OMSimEventAction.hh</text>
</a>
</g>
</g>
<!-- Node1&#45;&gt;Node2 -->
<g id="edge1" class="edge">
<title>Node1&#45;&gt;Node2</title>
<path fill="none" stroke="midnightblue" d="M193.78,-56.44C167.65,-47.4 126.24,-33.06 96.92,-22.92"/>
<polygon fill="midnightblue" stroke="midnightblue" points="97.7,-19.48 87.1,-19.52 95.41,-26.1 97.7,-19.48"/>
</g>
<!-- Node3 -->
<g id="node3" class="node">
<title>Node3</title>
<g id="a_node3"><a xlink:title=" ">
<polygon fill="white" stroke="#bfbfbf" points="143.5,-0.5 143.5,-19.5 293.5,-19.5 293.5,-0.5 143.5,-0.5"/>
<text text-anchor="middle" x="218.5" y="-7.5" font-family="Helvetica,sans-Serif" font-size="10.00">OMSimAnalysisManager.hh</text>
</a>
</g>
</g>
<!-- Node1&#45;&gt;Node3 -->
<g id="edge2" class="edge">
<title>Node1&#45;&gt;Node3</title>
<path fill="none" stroke="midnightblue" d="M218.5,-56.08C218.5,-49.01 218.5,-38.86 218.5,-29.99"/>
<polygon fill="midnightblue" stroke="midnightblue" points="222,-29.75 218.5,-19.75 215,-29.75 222,-29.75"/>
</g>
<!-- Node4 -->
<g id="node4" class="node">
<title>Node4</title>
<g id="a_node4"><a xlink:title=" ">
<polygon fill="white" stroke="#bfbfbf" points="311.5,-0.5 311.5,-19.5 417.5,-19.5 417.5,-0.5 311.5,-0.5"/>
<text text-anchor="middle" x="364.5" y="-7.5" font-family="Helvetica,sans-Serif" font-size="10.00">G4RunManager.hh</text>
</a>
</g>
</g>
<!-- Node1&#45;&gt;Node4 -->
<g id="edge3" class="edge">
<title>Node1&#45;&gt;Node4</title>
<path fill="none" stroke="midnightblue" d="M241.63,-56.44C265.98,-47.44 304.51,-33.19 331.92,-23.05"/>
<polygon fill="midnightblue" stroke="midnightblue" points="333.31,-26.27 341.47,-19.52 330.88,-19.7 333.31,-26.27"/>
</g>
</g>
</svg>
