<?xml version="1.0" encoding="UTF-8" standalone="no"?>
<!DOCTYPE svg PUBLIC "-//W3C//DTD SVG 1.1//EN"
 "http://www.w3.org/Graphics/SVG/1.1/DTD/svg11.dtd">
<!-- Generated by graphviz version 2.43.0 (0)
 -->
<!-- Title: OMSimSteppingAction.cc Pages: 1 -->
<svg width="371pt" height="84pt"
 viewBox="0.00 0.00 370.50 84.00" xmlns="http://www.w3.org/2000/svg" xmlns:xlink="http://www.w3.org/1999/xlink">
<g id="graph0" class="graph" transform="scale(1 1) rotate(0) translate(4 80)">
<title>OMSimSteppingAction.cc</title>
<polygon fill="white" stroke="transparent" points="-4,4 -4,-80 366.5,-80 366.5,4 -4,4"/>
<!-- Node1 -->
<g id="node1" class="node">
<title>Node1</title>
<g id="a_node1"><a xlink:title=" ">
<polygon fill="#bfbfbf" stroke="black" points="122.5,-56.5 122.5,-75.5 261.5,-75.5 261.5,-56.5 122.5,-56.5"/>
<text text-anchor="middle" x="192" y="-63.5" font-family="Helvetica,sans-Serif" font-size="10.00">OMSimSteppingAction.cc</text>
</a>
</g>
</g>
<!-- Node2 -->
<g id="node2" class="node">
<title>Node2</title>
<g id="a_node2"><a xlink:title=" ">
<polygon fill="white" stroke="#bfbfbf" points="0,-0.5 0,-19.5 140,-19.5 140,-0.5 0,-0.5"/>
<text text-anchor="middle" x="70" y="-7.5" font-family="Helvetica,sans-Serif" font-size="10.00">OMSimSteppingAction.hh</text>
</a>
</g>
</g>
<!-- Node1&#45;&gt;Node2 -->
<g id="edge1" class="edge">
<title>Node1&#45;&gt;Node2</title>
<path fill="none" stroke="midnightblue" d="M172.67,-56.44C152.68,-47.6 121.26,-33.69 98.44,-23.59"/>
<polygon fill="midnightblue" stroke="midnightblue" points="99.8,-20.36 89.24,-19.52 96.97,-26.76 99.8,-20.36"/>
</g>
<!-- Node3 -->
<g id="node3" class="node">
<title>Node3</title>
<g id="a_node3"><a xlink:title=" ">
<polygon fill="white" stroke="#bfbfbf" points="158.5,-0.5 158.5,-19.5 225.5,-19.5 225.5,-0.5 158.5,-0.5"/>
<text text-anchor="middle" x="192" y="-7.5" font-family="Helvetica,sans-Serif" font-size="10.00">G4Step.hh</text>
</a>
</g>
</g>
<!-- Node1&#45;&gt;Node3 -->
<g id="edge2" class="edge">
<title>Node1&#45;&gt;Node3</title>
<path fill="none" stroke="midnightblue" d="M192,-56.08C192,-49.01 192,-38.86 192,-29.99"/>
<polygon fill="midnightblue" stroke="midnightblue" points="195.5,-29.75 192,-19.75 188.5,-29.75 195.5,-29.75"/>
</g>
<!-- Node4 -->
<g id="node4" class="node">
<title>Node4</title>
<g id="a_node4"><a xlink:title=" ">
<polygon fill="white" stroke="#bfbfbf" points="243.5,-0.5 243.5,-19.5 362.5,-19.5 362.5,-0.5 243.5,-0.5"/>
<text text-anchor="middle" x="303" y="-7.5" font-family="Helvetica,sans-Serif" font-size="10.00">G4SystemOfUnits.hh</text>
</a>
</g>
</g>
<!-- Node1&#45;&gt;Node4 -->
<g id="edge3" class="edge">
<title>Node1&#45;&gt;Node4</title>
<path fill="none" stroke="midnightblue" d="M209.83,-56.32C227.72,-47.62 255.48,-34.12 276.05,-24.11"/>
<polygon fill="midnightblue" stroke="midnightblue" points="277.75,-27.18 285.21,-19.65 274.69,-20.88 277.75,-27.18"/>
</g>
</g>
</svg>
