<?xml version="1.0" encoding="UTF-8" standalone="no"?>
<!DOCTYPE svg PUBLIC "-//W3C//DTD SVG 1.1//EN"
 "http://www.w3.org/Graphics/SVG/1.1/DTD/svg11.dtd">
<!-- Generated by graphviz version 2.43.0 (0)
 -->
<!-- Title: OMSimSteppingAction.cc Pages: 1 -->
<svg width="981pt" height="196pt"
 viewBox="0.00 0.00 980.50 196.00" xmlns="http://www.w3.org/2000/svg" xmlns:xlink="http://www.w3.org/1999/xlink">
<g id="graph0" class="graph" transform="scale(1 1) rotate(0) translate(4 192)">
<title>OMSimSteppingAction.cc</title>
<polygon fill="white" stroke="transparent" points="-4,4 -4,-192 976.5,-192 976.5,4 -4,4"/>
<!-- Node1 -->
<g id="node1" class="node">
<title>Node1</title>
<g id="a_node1"><a xlink:title=" ">
<polygon fill="#bfbfbf" stroke="black" points="442.5,-168.5 442.5,-187.5 581.5,-187.5 581.5,-168.5 442.5,-168.5"/>
<text text-anchor="middle" x="512" y="-175.5" font-family="Helvetica,sans-Serif" font-size="10.00">OMSimSteppingAction.cc</text>
</a>
</g>
</g>
<!-- Node2 -->
<g id="node2" class="node">
<title>Node2</title>
<g id="a_node2"><a xlink:title=" ">
<polygon fill="white" stroke="#bfbfbf" points="0,-112.5 0,-131.5 140,-131.5 140,-112.5 0,-112.5"/>
<text text-anchor="middle" x="70" y="-119.5" font-family="Helvetica,sans-Serif" font-size="10.00">OMSimSteppingAction.hh</text>
</a>
</g>
</g>
<!-- Node1&#45;&gt;Node2 -->
<g id="edge1" class="edge">
<title>Node1&#45;&gt;Node2</title>
<path fill="none" stroke="midnightblue" d="M442.45,-168.5C363.02,-158.8 233.3,-142.95 149.82,-132.75"/>
<polygon fill="midnightblue" stroke="midnightblue" points="150.22,-129.28 139.87,-131.54 149.37,-136.22 150.22,-129.28"/>
</g>
<!-- Node3 -->
<g id="node3" class="node">
<title>Node3</title>
<g id="a_node3"><a xlink:title=" ">
<polygon fill="white" stroke="#bfbfbf" points="158.5,-112.5 158.5,-131.5 247.5,-131.5 247.5,-112.5 158.5,-112.5"/>
<text text-anchor="middle" x="203" y="-119.5" font-family="Helvetica,sans-Serif" font-size="10.00">G4VProcess.hh</text>
</a>
</g>
</g>
<!-- Node1&#45;&gt;Node3 -->
<g id="edge2" class="edge">
<title>Node1&#45;&gt;Node3</title>
<path fill="none" stroke="midnightblue" d="M463.04,-168.44C407.17,-158.68 316.04,-142.75 257.83,-132.58"/>
<polygon fill="midnightblue" stroke="midnightblue" points="258.17,-129.09 247.72,-130.82 256.97,-135.98 258.17,-129.09"/>
</g>
<!-- Node4 -->
<g id="node4" class="node">
<title>Node4</title>
<g id="a_node4"><a xlink:title=" ">
<polygon fill="white" stroke="#bfbfbf" points="265,-112.5 265,-131.5 371,-131.5 371,-112.5 265,-112.5"/>
<text text-anchor="middle" x="318" y="-119.5" font-family="Helvetica,sans-Serif" font-size="10.00">G4RunManager.hh</text>
</a>
</g>
</g>
<!-- Node1&#45;&gt;Node4 -->
<g id="edge3" class="edge">
<title>Node1&#45;&gt;Node4</title>
<path fill="none" stroke="midnightblue" d="M481.26,-168.44C448.06,-159.2 395.01,-144.44 358.44,-134.26"/>
<polygon fill="midnightblue" stroke="midnightblue" points="359.17,-130.83 348.6,-131.52 357.29,-137.57 359.17,-130.83"/>
</g>
<!-- Node5 -->
<g id="node5" class="node">
<title>Node5</title>
<g id="a_node5"><a xlink:title=" ">
<polygon fill="white" stroke="#bfbfbf" points="389,-112.5 389,-131.5 519,-131.5 519,-112.5 389,-112.5"/>
<text text-anchor="middle" x="454" y="-119.5" font-family="Helvetica,sans-Serif" font-size="10.00">G4SteppingManager.hh</text>
</a>
</g>
</g>
<!-- Node1&#45;&gt;Node5 -->
<g id="edge4" class="edge">
<title>Node1&#45;&gt;Node5</title>
<path fill="none" stroke="midnightblue" d="M502.68,-168.32C494.11,-160.34 481.19,-148.31 470.81,-138.65"/>
<polygon fill="midnightblue" stroke="midnightblue" points="473.19,-136.09 463.49,-131.83 468.42,-141.21 473.19,-136.09"/>
</g>
<!-- Node6 -->
<g id="node6" class="node">
<title>Node6</title>
<g id="a_node6"><a xlink:title=" ">
<polygon fill="white" stroke="#bfbfbf" points="537.5,-112.5 537.5,-131.5 604.5,-131.5 604.5,-112.5 537.5,-112.5"/>
<text text-anchor="middle" x="571" y="-119.5" font-family="Helvetica,sans-Serif" font-size="10.00">G4Step.hh</text>
</a>
</g>
</g>
<!-- Node1&#45;&gt;Node6 -->
<g id="edge5" class="edge">
<title>Node1&#45;&gt;Node6</title>
<path fill="none" stroke="midnightblue" d="M521.48,-168.32C530.2,-160.34 543.34,-148.31 553.9,-138.65"/>
<polygon fill="midnightblue" stroke="midnightblue" points="556.33,-141.17 561.35,-131.83 551.61,-136 556.33,-141.17"/>
</g>
<!-- Node7 -->
<g id="node7" class="node">
<title>Node7</title>
<g id="a_node7"><a xlink:title=" ">
<polygon fill="white" stroke="#bfbfbf" points="547.5,-56.5 547.5,-75.5 650.5,-75.5 650.5,-56.5 547.5,-56.5"/>
<text text-anchor="middle" x="599" y="-63.5" font-family="Helvetica,sans-Serif" font-size="10.00">G4ThreeVector.hh</text>
</a>
</g>
</g>
<!-- Node1&#45;&gt;Node7 -->
<g id="edge6" class="edge">
<title>Node1&#45;&gt;Node7</title>
<path fill="none" stroke="midnightblue" d="M557.65,-168.43C578.24,-162.04 600.67,-151 613,-132 622.21,-117.82 616.3,-98.59 609.55,-84.73"/>
<polygon fill="midnightblue" stroke="midnightblue" points="612.53,-82.88 604.7,-75.74 606.37,-86.2 612.53,-82.88"/>
</g>
<!-- Node8 -->
<g id="node8" class="node">
<title>Node8</title>
<g id="a_node8"><a xlink:href="_o_m_sim_analysis_manager_8hh.html" target="_top" xlink:title=" ">
<polygon fill="white" stroke="black" points="661,-112.5 661,-131.5 811,-131.5 811,-112.5 661,-112.5"/>
<text text-anchor="middle" x="736" y="-119.5" font-family="Helvetica,sans-Serif" font-size="10.00">OMSimAnalysisManager.hh</text>
</a>
</g>
</g>
<!-- Node1&#45;&gt;Node8 -->
<g id="edge7" class="edge">
<title>Node1&#45;&gt;Node8</title>
<path fill="none" stroke="midnightblue" d="M547.49,-168.44C586.32,-159.08 648.66,-144.06 690.92,-133.87"/>
<polygon fill="midnightblue" stroke="midnightblue" points="691.77,-137.26 700.67,-131.52 690.13,-130.46 691.77,-137.26"/>
</g>
<!-- Node10 -->
<g id="node10" class="node">
<title>Node10</title>
<g id="a_node10"><a xlink:title=" ">
<polygon fill="white" stroke="#bfbfbf" points="853.5,-0.5 853.5,-19.5 972.5,-19.5 972.5,-0.5 853.5,-0.5"/>
<text text-anchor="middle" x="913" y="-7.5" font-family="Helvetica,sans-Serif" font-size="10.00">G4SystemOfUnits.hh</text>
</a>
</g>
</g>
<!-- Node1&#45;&gt;Node10 -->
<g id="edge16" class="edge">
<title>Node1&#45;&gt;Node10</title>
<path fill="none" stroke="midnightblue" d="M581.52,-171.38C658.96,-164.34 778.7,-150.85 820,-132 854.69,-116.17 862.44,-106.74 885,-76 895.44,-61.78 902.98,-43.05 907.59,-29.36"/>
<polygon fill="midnightblue" stroke="midnightblue" points="910.98,-30.22 910.65,-19.63 904.31,-28.12 910.98,-30.22"/>
</g>
<!-- Node8&#45;&gt;Node7 -->
<g id="edge14" class="edge">
<title>Node8&#45;&gt;Node7</title>
<path fill="none" stroke="midnightblue" d="M714.29,-112.44C691.65,-103.52 655.93,-89.44 630.25,-79.32"/>
<polygon fill="midnightblue" stroke="midnightblue" points="631.19,-75.93 620.61,-75.52 628.63,-82.44 631.19,-75.93"/>
</g>
<!-- Node9 -->
<g id="node9" class="node">
<title>Node9</title>
<g id="a_node9"><a xlink:href="_o_m_sim_p_m_t_response_8hh.html" target="_top" xlink:title=" ">
<polygon fill="white" stroke="black" points="668.5,-56.5 668.5,-75.5 803.5,-75.5 803.5,-56.5 668.5,-56.5"/>
<text text-anchor="middle" x="736" y="-63.5" font-family="Helvetica,sans-Serif" font-size="10.00">OMSimPMTResponse.hh</text>
</a>
</g>
</g>
<!-- Node8&#45;&gt;Node9 -->
<g id="edge8" class="edge">
<title>Node8&#45;&gt;Node9</title>
<path fill="none" stroke="midnightblue" d="M736,-112.08C736,-105.01 736,-94.86 736,-85.99"/>
<polygon fill="midnightblue" stroke="midnightblue" points="739.5,-85.75 736,-75.75 732.5,-85.75 739.5,-85.75"/>
</g>
<!-- Node15 -->
<g id="node15" class="node">
<title>Node15</title>
<g id="a_node15"><a xlink:title=" ">
<polygon fill="white" stroke="#bfbfbf" points="821.5,-56.5 821.5,-75.5 876.5,-75.5 876.5,-56.5 821.5,-56.5"/>
<text text-anchor="middle" x="849" y="-63.5" font-family="Helvetica,sans-Serif" font-size="10.00">fstream</text>
</a>
</g>
</g>
<!-- Node8&#45;&gt;Node15 -->
<g id="edge15" class="edge">
<title>Node8&#45;&gt;Node15</title>
<path fill="none" stroke="midnightblue" d="M753.91,-112.44C772.25,-103.68 801.01,-89.94 822.09,-79.86"/>
<polygon fill="midnightblue" stroke="midnightblue" points="823.67,-82.99 831.18,-75.52 820.65,-76.67 823.67,-82.99"/>
</g>
<!-- Node9&#45;&gt;Node10 -->
<g id="edge9" class="edge">
<title>Node9&#45;&gt;Node10</title>
<path fill="none" stroke="midnightblue" d="M764.05,-56.44C794.08,-47.28 841.91,-32.69 875.24,-22.52"/>
<polygon fill="midnightblue" stroke="midnightblue" points="876.54,-25.78 885.09,-19.52 874.5,-19.09 876.54,-25.78"/>
</g>
<!-- Node11 -->
<g id="node11" class="node">
<title>Node11</title>
<g id="a_node11"><a xlink:title=" ">
<polygon fill="white" stroke="#bfbfbf" points="555.5,-0.5 555.5,-19.5 628.5,-19.5 628.5,-0.5 555.5,-0.5"/>
<text text-anchor="middle" x="592" y="-7.5" font-family="Helvetica,sans-Serif" font-size="10.00">G4Types.hh</text>
</a>
</g>
</g>
<!-- Node9&#45;&gt;Node11 -->
<g id="edge10" class="edge">
<title>Node9&#45;&gt;Node11</title>
<path fill="none" stroke="midnightblue" d="M713.18,-56.44C689.17,-47.44 651.17,-33.19 624.13,-23.05"/>
<polygon fill="midnightblue" stroke="midnightblue" points="625.3,-19.75 614.71,-19.52 622.84,-26.3 625.3,-19.75"/>
</g>
<!-- Node12 -->
<g id="node12" class="node">
<title>Node12</title>
<g id="a_node12"><a xlink:title=" ">
<polygon fill="white" stroke="#bfbfbf" points="647,-0.5 647,-19.5 685,-19.5 685,-0.5 647,-0.5"/>
<text text-anchor="middle" x="666" y="-7.5" font-family="Helvetica,sans-Serif" font-size="10.00">map</text>
</a>
</g>
</g>
<!-- Node9&#45;&gt;Node12 -->
<g id="edge11" class="edge">
<title>Node9&#45;&gt;Node12</title>
<path fill="none" stroke="midnightblue" d="M724.75,-56.32C714.2,-48.18 698.2,-35.84 685.56,-26.09"/>
<polygon fill="midnightblue" stroke="midnightblue" points="687.51,-23.17 677.45,-19.83 683.23,-28.71 687.51,-23.17"/>
</g>
<!-- Node13 -->
<g id="node13" class="node">
<title>Node13</title>
<g id="a_node13"><a xlink:title=" ">
<polygon fill="white" stroke="#bfbfbf" points="703.5,-0.5 703.5,-19.5 764.5,-19.5 764.5,-0.5 703.5,-0.5"/>
<text text-anchor="middle" x="734" y="-7.5" font-family="Helvetica,sans-Serif" font-size="10.00">TGraph.h</text>
</a>
</g>
</g>
<!-- Node9&#45;&gt;Node13 -->
<g id="edge12" class="edge">
<title>Node9&#45;&gt;Node13</title>
<path fill="none" stroke="midnightblue" d="M735.67,-56.08C735.41,-49.01 735.03,-38.86 734.7,-29.99"/>
<polygon fill="midnightblue" stroke="midnightblue" points="738.19,-29.61 734.32,-19.75 731.2,-29.87 738.19,-29.61"/>
</g>
<!-- Node14 -->
<g id="node14" class="node">
<title>Node14</title>
<g id="a_node14"><a xlink:title=" ">
<polygon fill="white" stroke="#bfbfbf" points="782.5,-0.5 782.5,-19.5 835.5,-19.5 835.5,-0.5 782.5,-0.5"/>
<text text-anchor="middle" x="809" y="-7.5" font-family="Helvetica,sans-Serif" font-size="10.00">TH2D.h</text>
</a>
</g>
</g>
<!-- Node9&#45;&gt;Node14 -->
<g id="edge13" class="edge">
<title>Node9&#45;&gt;Node14</title>
<path fill="none" stroke="midnightblue" d="M747.73,-56.32C758.84,-48.11 775.74,-35.6 788.98,-25.81"/>
<polygon fill="midnightblue" stroke="midnightblue" points="791.1,-28.59 797.06,-19.83 786.94,-22.97 791.1,-28.59"/>
</g>
</g>
</svg>
