<?xml version="1.0" encoding="UTF-8" standalone="no"?>
<!DOCTYPE svg PUBLIC "-//W3C//DTD SVG 1.1//EN"
 "http://www.w3.org/Graphics/SVG/1.1/DTD/svg11.dtd">
<!-- Generated by graphviz version 2.43.0 (0)
 -->
<!-- Title: OMSimPrimaryGeneratorAction.cc Pages: 1 -->
<svg width="1424pt" height="196pt"
 viewBox="0.00 0.00 1423.53 196.00" xmlns="http://www.w3.org/2000/svg" xmlns:xlink="http://www.w3.org/1999/xlink">
<g id="graph0" class="graph" transform="scale(1 1) rotate(0) translate(4 192)">
<title>OMSimPrimaryGeneratorAction.cc</title>
<polygon fill="white" stroke="transparent" points="-4,4 -4,-192 1419.53,-192 1419.53,4 -4,4"/>
<!-- Node1 -->
<g id="node1" class="node">
<title>Node1</title>
<g id="a_node1"><a xlink:title="Main primary generator. Chooses between generators 0 (gps), 1 (SN enes), 2 (SN ibd),...">
<polygon fill="#bfbfbf" stroke="black" points="669.03,-168.5 669.03,-187.5 852.03,-187.5 852.03,-168.5 669.03,-168.5"/>
<text text-anchor="middle" x="760.53" y="-175.5" font-family="Helvetica,sans-Serif" font-size="10.00">OMSimPrimaryGeneratorAction.cc</text>
</a>
</g>
</g>
<!-- Node2 -->
<g id="node2" class="node">
<title>Node2</title>
<g id="a_node2"><a xlink:title=" ">
<polygon fill="white" stroke="#bfbfbf" points="33.03,-112.5 33.03,-131.5 218.03,-131.5 218.03,-112.5 33.03,-112.5"/>
<text text-anchor="middle" x="125.53" y="-119.5" font-family="Helvetica,sans-Serif" font-size="10.00">OMSimPrimaryGeneratorAction.hh</text>
</a>
</g>
</g>
<!-- Node1&#45;&gt;Node2 -->
<g id="edge1" class="edge">
<title>Node1&#45;&gt;Node2</title>
<path fill="none" stroke="midnightblue" d="M668.86,-169.41C564.66,-160.75 389.16,-146.08 228.35,-132.15"/>
<polygon fill="midnightblue" stroke="midnightblue" points="228.53,-128.66 218.27,-131.28 227.93,-135.63 228.53,-128.66"/>
</g>
<!-- Node3 -->
<g id="node3" class="node">
<title>Node3</title>
<g id="a_node3"><a xlink:href="_o_m_sim_i_b_d_8hh.html" target="_top" xlink:title="This file contains the class in charge of generating positrons from IBD of supernova antineutrino int...">
<polygon fill="white" stroke="black" points="235.53,-112.5 235.53,-131.5 319.53,-131.5 319.53,-112.5 235.53,-112.5"/>
<text text-anchor="middle" x="277.53" y="-119.5" font-family="Helvetica,sans-Serif" font-size="10.00">OMSimIBD.hh</text>
</a>
</g>
</g>
<!-- Node1&#45;&gt;Node3 -->
<g id="edge2" class="edge">
<title>Node1&#45;&gt;Node3</title>
<path fill="none" stroke="midnightblue" d="M668.86,-169.35C583.57,-161.8 452.71,-149.1 329.76,-132.09"/>
<polygon fill="midnightblue" stroke="midnightblue" points="330.18,-128.61 319.79,-130.7 329.21,-135.54 330.18,-128.61"/>
</g>
<!-- Node9 -->
<g id="node9" class="node">
<title>Node9</title>
<g id="a_node9"><a xlink:href="mdom_primary_generator_messenger_8hh.html" target="_top" xlink:title=" ">
<polygon fill="white" stroke="black" points="337.03,-112.5 337.03,-131.5 540.03,-131.5 540.03,-112.5 337.03,-112.5"/>
<text text-anchor="middle" x="438.53" y="-119.5" font-family="Helvetica,sans-Serif" font-size="10.00">mdomPrimaryGeneratorMessenger.hh</text>
</a>
</g>
</g>
<!-- Node1&#45;&gt;Node9 -->
<g id="edge11" class="edge">
<title>Node1&#45;&gt;Node9</title>
<path fill="none" stroke="midnightblue" d="M709.51,-168.44C652.51,-158.89 560.29,-143.42 499.53,-133.23"/>
<polygon fill="midnightblue" stroke="midnightblue" points="499.75,-129.72 489.31,-131.52 498.6,-136.62 499.75,-129.72"/>
</g>
<!-- Node11 -->
<g id="node11" class="node">
<title>Node11</title>
<g id="a_node11"><a xlink:title=" ">
<polygon fill="white" stroke="#bfbfbf" points="558.03,-112.5 558.03,-131.5 631.03,-131.5 631.03,-112.5 558.03,-112.5"/>
<text text-anchor="middle" x="594.53" y="-119.5" font-family="Helvetica,sans-Serif" font-size="10.00">G4Event.hh</text>
</a>
</g>
</g>
<!-- Node1&#45;&gt;Node11 -->
<g id="edge14" class="edge">
<title>Node1&#45;&gt;Node11</title>
<path fill="none" stroke="midnightblue" d="M734.23,-168.44C706.18,-159.32 661.58,-144.81 630.34,-134.65"/>
<polygon fill="midnightblue" stroke="midnightblue" points="631.3,-131.28 620.71,-131.52 629.14,-137.94 631.3,-131.28"/>
</g>
<!-- Node12 -->
<g id="node12" class="node">
<title>Node12</title>
<g id="a_node12"><a xlink:title=" ">
<polygon fill="white" stroke="#bfbfbf" points="649.03,-112.5 649.03,-131.5 750.03,-131.5 750.03,-112.5 649.03,-112.5"/>
<text text-anchor="middle" x="699.53" y="-119.5" font-family="Helvetica,sans-Serif" font-size="10.00">G4ParticleGun.hh</text>
</a>
</g>
</g>
<!-- Node1&#45;&gt;Node12 -->
<g id="edge15" class="edge">
<title>Node1&#45;&gt;Node12</title>
<path fill="none" stroke="midnightblue" d="M750.73,-168.32C741.71,-160.34 728.12,-148.31 717.21,-138.65"/>
<polygon fill="midnightblue" stroke="midnightblue" points="719.32,-135.84 709.51,-131.83 714.68,-141.08 719.32,-135.84"/>
</g>
<!-- Node13 -->
<g id="node13" class="node">
<title>Node13</title>
<g id="a_node13"><a xlink:title=" ">
<polygon fill="white" stroke="#bfbfbf" points="768.03,-112.5 768.03,-131.5 875.03,-131.5 875.03,-112.5 768.03,-112.5"/>
<text text-anchor="middle" x="821.53" y="-119.5" font-family="Helvetica,sans-Serif" font-size="10.00">G4ParticleTable.hh</text>
</a>
</g>
</g>
<!-- Node1&#45;&gt;Node13 -->
<g id="edge16" class="edge">
<title>Node1&#45;&gt;Node13</title>
<path fill="none" stroke="midnightblue" d="M770.33,-168.32C779.35,-160.34 792.94,-148.31 803.85,-138.65"/>
<polygon fill="midnightblue" stroke="midnightblue" points="806.38,-141.08 811.55,-131.83 801.74,-135.84 806.38,-141.08"/>
</g>
<!-- Node14 -->
<g id="node14" class="node">
<title>Node14</title>
<g id="a_node14"><a xlink:title=" ">
<polygon fill="white" stroke="#bfbfbf" points="893.53,-112.5 893.53,-131.5 1021.53,-131.5 1021.53,-112.5 893.53,-112.5"/>
<text text-anchor="middle" x="957.53" y="-119.5" font-family="Helvetica,sans-Serif" font-size="10.00">G4ParticleDefinition.hh</text>
</a>
</g>
</g>
<!-- Node1&#45;&gt;Node14 -->
<g id="edge17" class="edge">
<title>Node1&#45;&gt;Node14</title>
<path fill="none" stroke="midnightblue" d="M791.74,-168.44C825.46,-159.2 879.33,-144.44 916.46,-134.26"/>
<polygon fill="midnightblue" stroke="midnightblue" points="917.74,-137.54 926.46,-131.52 915.89,-130.78 917.74,-137.54"/>
</g>
<!-- Node15 -->
<g id="node15" class="node">
<title>Node15</title>
<g id="a_node15"><a xlink:title=" ">
<polygon fill="white" stroke="#bfbfbf" points="1039.53,-112.5 1039.53,-131.5 1173.53,-131.5 1173.53,-112.5 1039.53,-112.5"/>
<text text-anchor="middle" x="1106.53" y="-119.5" font-family="Helvetica,sans-Serif" font-size="10.00">G4PhysicalConstants.hh</text>
</a>
</g>
</g>
<!-- Node1&#45;&gt;Node15 -->
<g id="edge18" class="edge">
<title>Node1&#45;&gt;Node15</title>
<path fill="none" stroke="midnightblue" d="M815.35,-168.44C876.85,-158.85 976.51,-143.29 1041.79,-133.1"/>
<polygon fill="midnightblue" stroke="midnightblue" points="1042.62,-136.52 1051.96,-131.52 1041.54,-129.6 1042.62,-136.52"/>
</g>
<!-- Node16 -->
<g id="node16" class="node">
<title>Node16</title>
<g id="a_node16"><a xlink:title=" ">
<polygon fill="white" stroke="#bfbfbf" points="1192.03,-112.5 1192.03,-131.5 1311.03,-131.5 1311.03,-112.5 1192.03,-112.5"/>
<text text-anchor="middle" x="1251.53" y="-119.5" font-family="Helvetica,sans-Serif" font-size="10.00">G4SystemOfUnits.hh</text>
</a>
</g>
</g>
<!-- Node1&#45;&gt;Node16 -->
<g id="edge19" class="edge">
<title>Node1&#45;&gt;Node16</title>
<path fill="none" stroke="midnightblue" d="M845.87,-168.49C928.91,-160.08 1058.93,-146.55 1181.74,-132.07"/>
<polygon fill="midnightblue" stroke="midnightblue" points="1182.18,-135.54 1191.7,-130.89 1181.36,-128.59 1182.18,-135.54"/>
</g>
<!-- Node17 -->
<g id="node17" class="node">
<title>Node17</title>
<g id="a_node17"><a xlink:title=" ">
<polygon fill="white" stroke="#bfbfbf" points="1329.53,-112.5 1329.53,-131.5 1415.53,-131.5 1415.53,-112.5 1329.53,-112.5"/>
<text text-anchor="middle" x="1372.53" y="-119.5" font-family="Helvetica,sans-Serif" font-size="10.00">Randomize.hh</text>
</a>
</g>
</g>
<!-- Node1&#45;&gt;Node17 -->
<g id="edge20" class="edge">
<title>Node1&#45;&gt;Node17</title>
<path fill="none" stroke="midnightblue" d="M852.46,-172.19C961.45,-165.91 1148.78,-153.28 1319.28,-132.05"/>
<polygon fill="midnightblue" stroke="midnightblue" points="1319.96,-135.49 1329.44,-130.77 1319.09,-128.54 1319.96,-135.49"/>
</g>
<!-- Node4 -->
<g id="node4" class="node">
<title>Node4</title>
<g id="a_node4"><a xlink:title=" ">
<polygon fill="white" stroke="#bfbfbf" points="14.53,-56.5 14.53,-75.5 206.53,-75.5 206.53,-56.5 14.53,-56.5"/>
<text text-anchor="middle" x="110.53" y="-63.5" font-family="Helvetica,sans-Serif" font-size="10.00">G4VUserPrimaryGeneratorAction.hh</text>
</a>
</g>
</g>
<!-- Node3&#45;&gt;Node4 -->
<g id="edge3" class="edge">
<title>Node3&#45;&gt;Node4</title>
<path fill="none" stroke="midnightblue" d="M251.07,-112.44C222.85,-103.32 177.99,-88.81 146.56,-78.65"/>
<polygon fill="midnightblue" stroke="midnightblue" points="147.46,-75.26 136.87,-75.52 145.3,-81.92 147.46,-75.26"/>
</g>
<!-- Node5 -->
<g id="node5" class="node">
<title>Node5</title>
<g id="a_node5"><a xlink:title=" ">
<polygon fill="white" stroke="#bfbfbf" points="363.03,-0.5 363.03,-19.5 430.03,-19.5 430.03,-0.5 363.03,-0.5"/>
<text text-anchor="middle" x="396.53" y="-7.5" font-family="Helvetica,sans-Serif" font-size="10.00">globals.hh</text>
</a>
</g>
</g>
<!-- Node3&#45;&gt;Node5 -->
<g id="edge4" class="edge">
<title>Node3&#45;&gt;Node5</title>
<path fill="none" stroke="midnightblue" d="M297.57,-112.5C314.19,-104.74 337.74,-92.05 354.53,-76 368.75,-62.4 380.45,-43.09 387.85,-29.05"/>
<polygon fill="midnightblue" stroke="midnightblue" points="391.08,-30.42 392.46,-19.92 384.83,-27.27 391.08,-30.42"/>
</g>
<!-- Node6 -->
<g id="node6" class="node">
<title>Node6</title>
<g id="a_node6"><a xlink:title=" ">
<polygon fill="white" stroke="#bfbfbf" points="70.03,-0.5 70.03,-19.5 117.03,-19.5 117.03,-0.5 70.03,-0.5"/>
<text text-anchor="middle" x="93.53" y="-7.5" font-family="Helvetica,sans-Serif" font-size="10.00">vector</text>
</a>
</g>
</g>
<!-- Node3&#45;&gt;Node6 -->
<g id="edge5" class="edge">
<title>Node3&#45;&gt;Node6</title>
<path fill="none" stroke="midnightblue" d="M235.51,-113.54C232.47,-113.01 229.45,-112.5 226.53,-112 177.47,-103.68 37.76,-113.91 5.53,-76 -14.71,-52.2 27.39,-32.15 60.07,-20.86"/>
<polygon fill="midnightblue" stroke="midnightblue" points="61.43,-24.09 69.83,-17.64 59.24,-17.44 61.43,-24.09"/>
</g>
<!-- Node7 -->
<g id="node7" class="node">
<title>Node7</title>
<g id="a_node7"><a xlink:title=" ">
<polygon fill="white" stroke="#bfbfbf" points="234.03,-0.5 234.03,-19.5 337.03,-19.5 337.03,-0.5 234.03,-0.5"/>
<text text-anchor="middle" x="285.53" y="-7.5" font-family="Helvetica,sans-Serif" font-size="10.00">G4ThreeVector.hh</text>
</a>
</g>
</g>
<!-- Node3&#45;&gt;Node7 -->
<g id="edge6" class="edge">
<title>Node3&#45;&gt;Node7</title>
<path fill="none" stroke="midnightblue" d="M297.44,-112.41C311.75,-105.04 329.99,-92.92 338.53,-76 348.4,-56.45 328.38,-37.44 310.19,-25.08"/>
<polygon fill="midnightblue" stroke="midnightblue" points="311.85,-21.99 301.54,-19.57 308.09,-27.9 311.85,-21.99"/>
</g>
<!-- Node8 -->
<g id="node8" class="node">
<title>Node8</title>
<g id="a_node8"><a xlink:href="_o_m_sim_s_n_tools_8hh.html" target="_top" xlink:title="Provides the definition for the OMSimSNTools class, centralizing utility methods for Supernova (SN) n...">
<polygon fill="white" stroke="black" points="225.03,-56.5 225.03,-75.5 330.03,-75.5 330.03,-56.5 225.03,-56.5"/>
<text text-anchor="middle" x="277.53" y="-63.5" font-family="Helvetica,sans-Serif" font-size="10.00">OMSimSNTools.hh</text>
</a>
</g>
</g>
<!-- Node3&#45;&gt;Node8 -->
<g id="edge7" class="edge">
<title>Node3&#45;&gt;Node8</title>
<path fill="none" stroke="midnightblue" d="M277.53,-112.08C277.53,-105.01 277.53,-94.86 277.53,-85.99"/>
<polygon fill="midnightblue" stroke="midnightblue" points="281.03,-85.75 277.53,-75.75 274.03,-85.75 281.03,-85.75"/>
</g>
<!-- Node8&#45;&gt;Node5 -->
<g id="edge8" class="edge">
<title>Node8&#45;&gt;Node5</title>
<path fill="none" stroke="midnightblue" d="M296.38,-56.44C315.8,-47.64 346.26,-33.81 368.49,-23.72"/>
<polygon fill="midnightblue" stroke="midnightblue" points="370.1,-26.84 377.76,-19.52 367.21,-20.46 370.1,-26.84"/>
</g>
<!-- Node8&#45;&gt;Node6 -->
<g id="edge9" class="edge">
<title>Node8&#45;&gt;Node6</title>
<path fill="none" stroke="midnightblue" d="M248.37,-56.44C215.36,-46.75 161.65,-30.99 126.96,-20.81"/>
<polygon fill="midnightblue" stroke="midnightblue" points="127.86,-17.43 117.28,-17.97 125.89,-24.15 127.86,-17.43"/>
</g>
<!-- Node8&#45;&gt;Node7 -->
<g id="edge10" class="edge">
<title>Node8&#45;&gt;Node7</title>
<path fill="none" stroke="midnightblue" d="M278.85,-56.08C279.91,-48.93 281.43,-38.64 282.76,-29.69"/>
<polygon fill="midnightblue" stroke="midnightblue" points="286.23,-30.16 284.23,-19.75 279.3,-29.13 286.23,-30.16"/>
</g>
<!-- Node9&#45;&gt;Node5 -->
<g id="edge13" class="edge">
<title>Node9&#45;&gt;Node5</title>
<path fill="none" stroke="midnightblue" d="M435.23,-112.37C428.39,-94.46 412.54,-52.92 403.38,-28.95"/>
<polygon fill="midnightblue" stroke="midnightblue" points="406.65,-27.69 399.81,-19.59 400.11,-30.18 406.65,-27.69"/>
</g>
<!-- Node10 -->
<g id="node10" class="node">
<title>Node10</title>
<g id="a_node10"><a xlink:title=" ">
<polygon fill="white" stroke="#bfbfbf" points="463.03,-56.5 463.03,-75.5 572.03,-75.5 572.03,-56.5 463.03,-56.5"/>
<text text-anchor="middle" x="517.53" y="-63.5" font-family="Helvetica,sans-Serif" font-size="10.00">G4UImessenger.hh</text>
</a>
</g>
</g>
<!-- Node9&#45;&gt;Node10 -->
<g id="edge12" class="edge">
<title>Node9&#45;&gt;Node10</title>
<path fill="none" stroke="midnightblue" d="M451.22,-112.32C463.43,-103.98 482.11,-91.21 496.53,-81.35"/>
<polygon fill="midnightblue" stroke="midnightblue" points="498.59,-84.19 504.87,-75.65 494.64,-78.41 498.59,-84.19"/>
</g>
</g>
</svg>
