<?xml version="1.0" encoding="UTF-8" standalone="no"?>
<!DOCTYPE svg PUBLIC "-//W3C//DTD SVG 1.1//EN"
 "http://www.w3.org/Graphics/SVG/1.1/DTD/svg11.dtd">
<!-- Generated by graphviz version 2.43.0 (0)
 -->
<!-- Title: OMSimPrimaryGeneratorAction.cc Pages: 1 -->
<svg width="1444pt" height="140pt"
 viewBox="0.00 0.00 1444.00 140.00" xmlns="http://www.w3.org/2000/svg" xmlns:xlink="http://www.w3.org/1999/xlink">
<g id="graph0" class="graph" transform="scale(1 1) rotate(0) translate(4 136)">
<title>OMSimPrimaryGeneratorAction.cc</title>
<polygon fill="white" stroke="transparent" points="-4,4 -4,-136 1440,-136 1440,4 -4,4"/>
<!-- Node1 -->
<g id="node1" class="node">
<title>Node1</title>
<g id="a_node1"><a xlink:title="Main primary generator. Chooses between generators 0 (gps), 1 (SN enes), 2 (SN ibd),...">
<polygon fill="#bfbfbf" stroke="black" points="689.5,-112.5 689.5,-131.5 872.5,-131.5 872.5,-112.5 689.5,-112.5"/>
<text text-anchor="middle" x="781" y="-119.5" font-family="Helvetica,sans-Serif" font-size="10.00">OMSimPrimaryGeneratorAction.cc</text>
</a>
</g>
</g>
<!-- Node2 -->
<g id="node2" class="node">
<title>Node2</title>
<g id="a_node2"><a xlink:title=" ">
<polygon fill="white" stroke="#bfbfbf" points="53.5,-56.5 53.5,-75.5 238.5,-75.5 238.5,-56.5 53.5,-56.5"/>
<text text-anchor="middle" x="146" y="-63.5" font-family="Helvetica,sans-Serif" font-size="10.00">OMSimPrimaryGeneratorAction.hh</text>
</a>
</g>
</g>
<!-- Node1&#45;&gt;Node2 -->
<g id="edge1" class="edge">
<title>Node1&#45;&gt;Node2</title>
<path fill="none" stroke="midnightblue" d="M689.33,-113.41C585.13,-104.75 409.63,-90.08 248.82,-76.15"/>
<polygon fill="midnightblue" stroke="midnightblue" points="249,-72.66 238.74,-75.28 248.4,-79.63 249,-72.66"/>
</g>
<!-- Node3 -->
<g id="node3" class="node">
<title>Node3</title>
<g id="a_node3"><a xlink:href="_o_m_sim_i_b_d_8hh.html" target="_top" xlink:title="This file contains the class in charge of generating positrons from IBD of supernova antineutrino int...">
<polygon fill="white" stroke="black" points="256,-56.5 256,-75.5 340,-75.5 340,-56.5 256,-56.5"/>
<text text-anchor="middle" x="298" y="-63.5" font-family="Helvetica,sans-Serif" font-size="10.00">OMSimIBD.hh</text>
</a>
</g>
</g>
<!-- Node1&#45;&gt;Node3 -->
<g id="edge2" class="edge">
<title>Node1&#45;&gt;Node3</title>
<path fill="none" stroke="midnightblue" d="M689.33,-113.35C604.04,-105.8 473.18,-93.1 350.23,-76.09"/>
<polygon fill="midnightblue" stroke="midnightblue" points="350.65,-72.61 340.26,-74.7 349.68,-79.54 350.65,-72.61"/>
</g>
<!-- Node8 -->
<g id="node8" class="node">
<title>Node8</title>
<g id="a_node8"><a xlink:href="mdom_primary_generator_messenger_8hh.html" target="_top" xlink:title=" ">
<polygon fill="white" stroke="black" points="357.5,-56.5 357.5,-75.5 560.5,-75.5 560.5,-56.5 357.5,-56.5"/>
<text text-anchor="middle" x="459" y="-63.5" font-family="Helvetica,sans-Serif" font-size="10.00">mdomPrimaryGeneratorMessenger.hh</text>
</a>
</g>
</g>
<!-- Node1&#45;&gt;Node8 -->
<g id="edge7" class="edge">
<title>Node1&#45;&gt;Node8</title>
<path fill="none" stroke="midnightblue" d="M729.98,-112.44C672.98,-102.89 580.76,-87.42 520,-77.23"/>
<polygon fill="midnightblue" stroke="midnightblue" points="520.22,-73.72 509.78,-75.52 519.07,-80.62 520.22,-73.72"/>
</g>
<!-- Node10 -->
<g id="node10" class="node">
<title>Node10</title>
<g id="a_node10"><a xlink:title=" ">
<polygon fill="white" stroke="#bfbfbf" points="578.5,-56.5 578.5,-75.5 651.5,-75.5 651.5,-56.5 578.5,-56.5"/>
<text text-anchor="middle" x="615" y="-63.5" font-family="Helvetica,sans-Serif" font-size="10.00">G4Event.hh</text>
</a>
</g>
</g>
<!-- Node1&#45;&gt;Node10 -->
<g id="edge10" class="edge">
<title>Node1&#45;&gt;Node10</title>
<path fill="none" stroke="midnightblue" d="M754.7,-112.44C726.65,-103.32 682.06,-88.81 650.82,-78.65"/>
<polygon fill="midnightblue" stroke="midnightblue" points="651.77,-75.28 641.18,-75.52 649.61,-81.94 651.77,-75.28"/>
</g>
<!-- Node11 -->
<g id="node11" class="node">
<title>Node11</title>
<g id="a_node11"><a xlink:title=" ">
<polygon fill="white" stroke="#bfbfbf" points="669.5,-56.5 669.5,-75.5 770.5,-75.5 770.5,-56.5 669.5,-56.5"/>
<text text-anchor="middle" x="720" y="-63.5" font-family="Helvetica,sans-Serif" font-size="10.00">G4ParticleGun.hh</text>
</a>
</g>
</g>
<!-- Node1&#45;&gt;Node11 -->
<g id="edge11" class="edge">
<title>Node1&#45;&gt;Node11</title>
<path fill="none" stroke="midnightblue" d="M771.2,-112.32C762.18,-104.34 748.59,-92.31 737.68,-82.65"/>
<polygon fill="midnightblue" stroke="midnightblue" points="739.79,-79.84 729.98,-75.83 735.15,-85.08 739.79,-79.84"/>
</g>
<!-- Node12 -->
<g id="node12" class="node">
<title>Node12</title>
<g id="a_node12"><a xlink:title=" ">
<polygon fill="white" stroke="#bfbfbf" points="788.5,-56.5 788.5,-75.5 895.5,-75.5 895.5,-56.5 788.5,-56.5"/>
<text text-anchor="middle" x="842" y="-63.5" font-family="Helvetica,sans-Serif" font-size="10.00">G4ParticleTable.hh</text>
</a>
</g>
</g>
<!-- Node1&#45;&gt;Node12 -->
<g id="edge12" class="edge">
<title>Node1&#45;&gt;Node12</title>
<path fill="none" stroke="midnightblue" d="M790.8,-112.32C799.82,-104.34 813.41,-92.31 824.32,-82.65"/>
<polygon fill="midnightblue" stroke="midnightblue" points="826.85,-85.08 832.02,-75.83 822.21,-79.84 826.85,-85.08"/>
</g>
<!-- Node13 -->
<g id="node13" class="node">
<title>Node13</title>
<g id="a_node13"><a xlink:title=" ">
<polygon fill="white" stroke="#bfbfbf" points="914,-56.5 914,-75.5 1042,-75.5 1042,-56.5 914,-56.5"/>
<text text-anchor="middle" x="978" y="-63.5" font-family="Helvetica,sans-Serif" font-size="10.00">G4ParticleDefinition.hh</text>
</a>
</g>
</g>
<!-- Node1&#45;&gt;Node13 -->
<g id="edge13" class="edge">
<title>Node1&#45;&gt;Node13</title>
<path fill="none" stroke="midnightblue" d="M812.22,-112.44C845.93,-103.2 899.8,-88.44 936.93,-78.26"/>
<polygon fill="midnightblue" stroke="midnightblue" points="938.21,-81.54 946.93,-75.52 936.36,-74.78 938.21,-81.54"/>
</g>
<!-- Node14 -->
<g id="node14" class="node">
<title>Node14</title>
<g id="a_node14"><a xlink:title=" ">
<polygon fill="white" stroke="#bfbfbf" points="1060,-56.5 1060,-75.5 1194,-75.5 1194,-56.5 1060,-56.5"/>
<text text-anchor="middle" x="1127" y="-63.5" font-family="Helvetica,sans-Serif" font-size="10.00">G4PhysicalConstants.hh</text>
</a>
</g>
</g>
<!-- Node1&#45;&gt;Node14 -->
<g id="edge14" class="edge">
<title>Node1&#45;&gt;Node14</title>
<path fill="none" stroke="midnightblue" d="M835.82,-112.44C897.32,-102.85 996.98,-87.29 1062.26,-77.1"/>
<polygon fill="midnightblue" stroke="midnightblue" points="1063.09,-80.52 1072.43,-75.52 1062.01,-73.6 1063.09,-80.52"/>
</g>
<!-- Node15 -->
<g id="node15" class="node">
<title>Node15</title>
<g id="a_node15"><a xlink:title=" ">
<polygon fill="white" stroke="#bfbfbf" points="1212.5,-56.5 1212.5,-75.5 1331.5,-75.5 1331.5,-56.5 1212.5,-56.5"/>
<text text-anchor="middle" x="1272" y="-63.5" font-family="Helvetica,sans-Serif" font-size="10.00">G4SystemOfUnits.hh</text>
</a>
</g>
</g>
<!-- Node1&#45;&gt;Node15 -->
<g id="edge15" class="edge">
<title>Node1&#45;&gt;Node15</title>
<path fill="none" stroke="midnightblue" d="M866.34,-112.49C949.38,-104.08 1079.4,-90.55 1202.21,-76.07"/>
<polygon fill="midnightblue" stroke="midnightblue" points="1202.65,-79.54 1212.17,-74.89 1201.83,-72.59 1202.65,-79.54"/>
</g>
<!-- Node16 -->
<g id="node16" class="node">
<title>Node16</title>
<g id="a_node16"><a xlink:title=" ">
<polygon fill="white" stroke="#bfbfbf" points="1350,-56.5 1350,-75.5 1436,-75.5 1436,-56.5 1350,-56.5"/>
<text text-anchor="middle" x="1393" y="-63.5" font-family="Helvetica,sans-Serif" font-size="10.00">Randomize.hh</text>
</a>
</g>
</g>
<!-- Node1&#45;&gt;Node16 -->
<g id="edge16" class="edge">
<title>Node1&#45;&gt;Node16</title>
<path fill="none" stroke="midnightblue" d="M872.93,-116.19C981.92,-109.91 1169.25,-97.28 1339.75,-76.05"/>
<polygon fill="midnightblue" stroke="midnightblue" points="1340.43,-79.49 1349.92,-74.77 1339.56,-72.54 1340.43,-79.49"/>
</g>
<!-- Node4 -->
<g id="node4" class="node">
<title>Node4</title>
<g id="a_node4"><a xlink:title=" ">
<polygon fill="white" stroke="#bfbfbf" points="0,-0.5 0,-19.5 192,-19.5 192,-0.5 0,-0.5"/>
<text text-anchor="middle" x="96" y="-7.5" font-family="Helvetica,sans-Serif" font-size="10.00">G4VUserPrimaryGeneratorAction.hh</text>
</a>
</g>
</g>
<!-- Node3&#45;&gt;Node4 -->
<g id="edge3" class="edge">
<title>Node3&#45;&gt;Node4</title>
<path fill="none" stroke="midnightblue" d="M265.99,-56.44C231.27,-47.16 175.71,-32.31 137.62,-22.13"/>
<polygon fill="midnightblue" stroke="midnightblue" points="138.42,-18.72 127.86,-19.52 136.61,-25.48 138.42,-18.72"/>
</g>
<!-- Node5 -->
<g id="node5" class="node">
<title>Node5</title>
<g id="a_node5"><a xlink:title=" ">
<polygon fill="white" stroke="#bfbfbf" points="396.5,-0.5 396.5,-19.5 463.5,-19.5 463.5,-0.5 396.5,-0.5"/>
<text text-anchor="middle" x="430" y="-7.5" font-family="Helvetica,sans-Serif" font-size="10.00">globals.hh</text>
</a>
</g>
</g>
<!-- Node3&#45;&gt;Node5 -->
<g id="edge4" class="edge">
<title>Node3&#45;&gt;Node5</title>
<path fill="none" stroke="midnightblue" d="M318.92,-56.44C340.74,-47.52 375.15,-33.44 399.89,-23.32"/>
<polygon fill="midnightblue" stroke="midnightblue" points="401.25,-26.54 409.18,-19.52 398.6,-20.06 401.25,-26.54"/>
</g>
<!-- Node6 -->
<g id="node6" class="node">
<title>Node6</title>
<g id="a_node6"><a xlink:title=" ">
<polygon fill="white" stroke="#bfbfbf" points="210.5,-0.5 210.5,-19.5 257.5,-19.5 257.5,-0.5 210.5,-0.5"/>
<text text-anchor="middle" x="234" y="-7.5" font-family="Helvetica,sans-Serif" font-size="10.00">vector</text>
</a>
</g>
</g>
<!-- Node3&#45;&gt;Node6 -->
<g id="edge5" class="edge">
<title>Node3&#45;&gt;Node6</title>
<path fill="none" stroke="midnightblue" d="M287.72,-56.32C278.16,-48.26 263.72,-36.08 252.22,-26.37"/>
<polygon fill="midnightblue" stroke="midnightblue" points="254.37,-23.61 244.47,-19.83 249.86,-28.96 254.37,-23.61"/>
</g>
<!-- Node7 -->
<g id="node7" class="node">
<title>Node7</title>
<g id="a_node7"><a xlink:title=" ">
<polygon fill="white" stroke="#bfbfbf" points="275.5,-0.5 275.5,-19.5 378.5,-19.5 378.5,-0.5 275.5,-0.5"/>
<text text-anchor="middle" x="327" y="-7.5" font-family="Helvetica,sans-Serif" font-size="10.00">G4ThreeVector.hh</text>
</a>
</g>
</g>
<!-- Node3&#45;&gt;Node7 -->
<g id="edge6" class="edge">
<title>Node3&#45;&gt;Node7</title>
<path fill="none" stroke="midnightblue" d="M302.79,-56.08C306.76,-48.69 312.53,-37.95 317.43,-28.81"/>
<polygon fill="midnightblue" stroke="midnightblue" points="320.65,-30.22 322.3,-19.75 314.49,-26.91 320.65,-30.22"/>
</g>
<!-- Node8&#45;&gt;Node5 -->
<g id="edge9" class="edge">
<title>Node8&#45;&gt;Node5</title>
<path fill="none" stroke="midnightblue" d="M454.21,-56.08C450.24,-48.69 444.47,-37.95 439.57,-28.81"/>
<polygon fill="midnightblue" stroke="midnightblue" points="442.51,-26.91 434.7,-19.75 436.35,-30.22 442.51,-26.91"/>
</g>
<!-- Node9 -->
<g id="node9" class="node">
<title>Node9</title>
<g id="a_node9"><a xlink:title=" ">
<polygon fill="white" stroke="#bfbfbf" points="481.5,-0.5 481.5,-19.5 590.5,-19.5 590.5,-0.5 481.5,-0.5"/>
<text text-anchor="middle" x="536" y="-7.5" font-family="Helvetica,sans-Serif" font-size="10.00">G4UImessenger.hh</text>
</a>
</g>
</g>
<!-- Node8&#45;&gt;Node9 -->
<g id="edge8" class="edge">
<title>Node8&#45;&gt;Node9</title>
<path fill="none" stroke="midnightblue" d="M471.37,-56.32C483.16,-48.06 501.13,-35.45 515.14,-25.63"/>
<polygon fill="midnightblue" stroke="midnightblue" points="517.48,-28.26 523.66,-19.65 513.46,-22.53 517.48,-28.26"/>
</g>
</g>
</svg>
