<?xml version="1.0" encoding="UTF-8" standalone="no"?>
<!DOCTYPE svg PUBLIC "-//W3C//DTD SVG 1.1//EN"
 "http://www.w3.org/Graphics/SVG/1.1/DTD/svg11.dtd">
<!-- Generated by graphviz version 2.43.0 (0)
 -->
<!-- Title: OMSimPrimaryGeneratorAction.cc Pages: 1 -->
<svg width="1120pt" height="263pt"
 viewBox="0.00 0.00 1119.61 263.00" xmlns="http://www.w3.org/2000/svg" xmlns:xlink="http://www.w3.org/1999/xlink">
<g id="graph0" class="graph" transform="scale(1 1) rotate(0) translate(4 259)">
<title>OMSimPrimaryGeneratorAction.cc</title>
<polygon fill="white" stroke="transparent" points="-4,4 -4,-259 1115.61,-259 1115.61,4 -4,4"/>
<!-- Node1 -->
<g id="node1" class="node">
<title>Node1</title>
<g id="a_node1"><a xlink:title=" ">
<polygon fill="#bfbfbf" stroke="black" points="490.61,-235.5 490.61,-254.5 673.61,-254.5 673.61,-235.5 490.61,-235.5"/>
<text text-anchor="middle" x="582.11" y="-242.5" font-family="Helvetica,sans-Serif" font-size="10.00">OMSimPrimaryGeneratorAction.cc</text>
</a>
</g>
</g>
<!-- Node2 -->
<g id="node2" class="node">
<title>Node2</title>
<g id="a_node2"><a xlink:title=" ">
<polygon fill="white" stroke="#bfbfbf" points="37.61,-179.5 37.61,-198.5 222.61,-198.5 222.61,-179.5 37.61,-179.5"/>
<text text-anchor="middle" x="130.11" y="-186.5" font-family="Helvetica,sans-Serif" font-size="10.00">OMSimPrimaryGeneratorAction.hh</text>
</a>
</g>
</g>
<!-- Node1&#45;&gt;Node2 -->
<g id="edge1" class="edge">
<title>Node1&#45;&gt;Node2</title>
<path fill="none" stroke="midnightblue" d="M510.49,-235.44C429.16,-225.73 296.74,-209.91 211.55,-199.73"/>
<polygon fill="midnightblue" stroke="midnightblue" points="211.74,-196.23 201.4,-198.52 210.91,-203.18 211.74,-196.23"/>
</g>
<!-- Node3 -->
<g id="node3" class="node">
<title>Node3</title>
<g id="a_node3"><a xlink:href="_o_m_sim_s_n_analysis_8hh.html" target="_top" xlink:title=" ">
<polygon fill="white" stroke="black" points="241.11,-179.5 241.11,-198.5 363.11,-198.5 363.11,-179.5 241.11,-179.5"/>
<text text-anchor="middle" x="302.11" y="-186.5" font-family="Helvetica,sans-Serif" font-size="10.00">OMSimSNAnalysis.hh</text>
</a>
</g>
</g>
<!-- Node1&#45;&gt;Node3 -->
<g id="edge2" class="edge">
<title>Node1&#45;&gt;Node3</title>
<path fill="none" stroke="midnightblue" d="M537.75,-235.44C488.49,-225.94 408.98,-210.61 356.14,-200.42"/>
<polygon fill="midnightblue" stroke="midnightblue" points="356.75,-196.97 346.27,-198.52 355.43,-203.85 356.75,-196.97"/>
</g>
<!-- Node16 -->
<g id="node16" class="node">
<title>Node16</title>
<g id="a_node16"><a xlink:href="_o_m_sim_command_args_table_8hh.html" target="_top" xlink:title="Definition of the OMSimCommandArgsTable singleton class, which controls user args.">
<polygon fill="white" stroke="black" points="425.11,-179.5 425.11,-198.5 589.11,-198.5 589.11,-179.5 425.11,-179.5"/>
<text text-anchor="middle" x="507.11" y="-186.5" font-family="Helvetica,sans-Serif" font-size="10.00">OMSimCommandArgsTable.hh</text>
</a>
</g>
</g>
<!-- Node1&#45;&gt;Node16 -->
<g id="edge18" class="edge">
<title>Node1&#45;&gt;Node16</title>
<path fill="none" stroke="midnightblue" d="M570.06,-235.32C558.65,-227.11 541.28,-214.6 527.68,-204.81"/>
<polygon fill="midnightblue" stroke="midnightblue" points="529.54,-201.84 519.38,-198.83 525.45,-207.52 529.54,-201.84"/>
</g>
<!-- Node22 -->
<g id="node22" class="node">
<title>Node22</title>
<g id="a_node22"><a xlink:title=" ">
<polygon fill="white" stroke="#bfbfbf" points="607.61,-179.5 607.61,-198.5 708.61,-198.5 708.61,-179.5 607.61,-179.5"/>
<text text-anchor="middle" x="658.11" y="-186.5" font-family="Helvetica,sans-Serif" font-size="10.00">G4ParticleGun.hh</text>
</a>
</g>
</g>
<!-- Node1&#45;&gt;Node22 -->
<g id="edge25" class="edge">
<title>Node1&#45;&gt;Node22</title>
<path fill="none" stroke="midnightblue" d="M594.32,-235.32C605.89,-227.11 623.49,-214.6 637.27,-204.81"/>
<polygon fill="midnightblue" stroke="midnightblue" points="639.55,-207.48 645.68,-198.83 635.5,-201.77 639.55,-207.48"/>
</g>
<!-- Node23 -->
<g id="node23" class="node">
<title>Node23</title>
<g id="a_node23"><a xlink:title=" ">
<polygon fill="white" stroke="#bfbfbf" points="726.61,-179.5 726.61,-198.5 833.61,-198.5 833.61,-179.5 726.61,-179.5"/>
<text text-anchor="middle" x="780.11" y="-186.5" font-family="Helvetica,sans-Serif" font-size="10.00">G4ParticleTable.hh</text>
</a>
</g>
</g>
<!-- Node1&#45;&gt;Node23 -->
<g id="edge26" class="edge">
<title>Node1&#45;&gt;Node23</title>
<path fill="none" stroke="midnightblue" d="M613.49,-235.44C647.38,-226.2 701.52,-211.44 738.84,-201.26"/>
<polygon fill="midnightblue" stroke="midnightblue" points="740.16,-204.52 748.89,-198.52 738.32,-197.77 740.16,-204.52"/>
</g>
<!-- Node24 -->
<g id="node24" class="node">
<title>Node24</title>
<g id="a_node24"><a xlink:href="_o_m_sim_input_data_8hh.html" target="_top" xlink:title="Definition of ParameterTable and InputDataManager.">
<polygon fill="white" stroke="black" points="851.61,-179.5 851.61,-198.5 966.61,-198.5 966.61,-179.5 851.61,-179.5"/>
<text text-anchor="middle" x="909.11" y="-186.5" font-family="Helvetica,sans-Serif" font-size="10.00">OMSimInputData.hh</text>
</a>
</g>
</g>
<!-- Node1&#45;&gt;Node24 -->
<g id="edge27" class="edge">
<title>Node1&#45;&gt;Node24</title>
<path fill="none" stroke="midnightblue" d="M633.93,-235.44C691.93,-225.87 785.85,-210.36 847.55,-200.17"/>
<polygon fill="midnightblue" stroke="midnightblue" points="848.24,-203.6 857.54,-198.52 847.1,-196.69 848.24,-203.6"/>
</g>
<!-- Node4 -->
<g id="node4" class="node">
<title>Node4</title>
<g id="a_node4"><a xlink:title=" ">
<polygon fill="white" stroke="#bfbfbf" points="17.61,-0.5 17.61,-19.5 90.61,-19.5 90.61,-0.5 17.61,-0.5"/>
<text text-anchor="middle" x="54.11" y="-7.5" font-family="Helvetica,sans-Serif" font-size="10.00">G4Types.hh</text>
</a>
</g>
</g>
<!-- Node3&#45;&gt;Node4 -->
<g id="edge3" class="edge">
<title>Node3&#45;&gt;Node4</title>
<path fill="none" stroke="midnightblue" d="M241.04,-179.56C156.81,-167.78 14.85,-147.36 11.11,-143 -18.05,-108.99 17.81,-54.77 39.64,-27.63"/>
<polygon fill="midnightblue" stroke="midnightblue" points="42.43,-29.75 46.13,-19.83 37.05,-25.27 42.43,-29.75"/>
</g>
<!-- Node5 -->
<g id="node5" class="node">
<title>Node5</title>
<g id="a_node5"><a xlink:title=" ">
<polygon fill="white" stroke="#bfbfbf" points="20.11,-118 20.11,-137 94.11,-137 94.11,-118 20.11,-118"/>
<text text-anchor="middle" x="57.11" y="-125" font-family="Helvetica,sans-Serif" font-size="10.00">G4String.hh</text>
</a>
</g>
</g>
<!-- Node3&#45;&gt;Node5 -->
<g id="edge4" class="edge">
<title>Node3&#45;&gt;Node5</title>
<path fill="none" stroke="midnightblue" d="M262.59,-179.43C223.29,-170.77 161.34,-156.73 108.11,-143 104.21,-141.99 100.16,-140.91 96.11,-139.8"/>
<polygon fill="midnightblue" stroke="midnightblue" points="96.75,-136.34 86.17,-137.03 94.87,-143.09 96.75,-136.34"/>
</g>
<!-- Node6 -->
<g id="node6" class="node">
<title>Node6</title>
<g id="a_node6"><a xlink:title=" ">
<polygon fill="white" stroke="#bfbfbf" points="46.61,-56.5 46.61,-75.5 149.61,-75.5 149.61,-56.5 46.61,-56.5"/>
<text text-anchor="middle" x="98.11" y="-63.5" font-family="Helvetica,sans-Serif" font-size="10.00">G4ThreeVector.hh</text>
</a>
</g>
</g>
<!-- Node3&#45;&gt;Node6 -->
<g id="edge5" class="edge">
<title>Node3&#45;&gt;Node6</title>
<path fill="none" stroke="midnightblue" d="M257.33,-179.48C216.26,-170.96 159.17,-157.13 141.11,-143 122.13,-128.14 110.14,-102.42 103.78,-85.07"/>
<polygon fill="midnightblue" stroke="midnightblue" points="107.06,-83.85 100.53,-75.51 100.44,-86.11 107.06,-83.85"/>
</g>
<!-- Node7 -->
<g id="node7" class="node">
<title>Node7</title>
<g id="a_node7"><a xlink:href="_o_m_sim_hit_manager_8hh.html" target="_top" xlink:title="Defines structures and classes related to optical module photon hit management.">
<polygon fill="white" stroke="black" points="150.61,-118 150.61,-137 273.61,-137 273.61,-118 150.61,-118"/>
<text text-anchor="middle" x="212.11" y="-125" font-family="Helvetica,sans-Serif" font-size="10.00">OMSimHitManager.hh</text>
</a>
</g>
</g>
<!-- Node3&#45;&gt;Node7 -->
<g id="edge6" class="edge">
<title>Node3&#45;&gt;Node7</title>
<path fill="none" stroke="midnightblue" d="M289.22,-179.48C274.65,-169.84 250.71,-154.02 233.37,-142.55"/>
<polygon fill="midnightblue" stroke="midnightblue" points="235.26,-139.6 224.98,-137.01 231.39,-145.44 235.26,-139.6"/>
</g>
<!-- Node13 -->
<g id="node13" class="node">
<title>Node13</title>
<g id="a_node13"><a xlink:title=" ">
<polygon fill="white" stroke="#bfbfbf" points="320.61,-56.5 320.61,-75.5 375.61,-75.5 375.61,-56.5 320.61,-56.5"/>
<text text-anchor="middle" x="348.11" y="-63.5" font-family="Helvetica,sans-Serif" font-size="10.00">fstream</text>
</a>
</g>
</g>
<!-- Node3&#45;&gt;Node13 -->
<g id="edge16" class="edge">
<title>Node3&#45;&gt;Node13</title>
<path fill="none" stroke="midnightblue" d="M303.43,-179.3C305.79,-164.9 311.43,-135.37 321.11,-112 325.12,-102.32 330.98,-92.26 336.21,-84.11"/>
<polygon fill="midnightblue" stroke="midnightblue" points="339.28,-85.82 341.92,-75.56 333.46,-81.93 339.28,-85.82"/>
</g>
<!-- Node14 -->
<g id="node14" class="node">
<title>Node14</title>
<g id="a_node14"><a xlink:title=" ">
<polygon fill="white" stroke="#bfbfbf" points="330.61,-118 330.61,-137 377.61,-137 377.61,-118 330.61,-118"/>
<text text-anchor="middle" x="354.11" y="-125" font-family="Helvetica,sans-Serif" font-size="10.00">vector</text>
</a>
</g>
</g>
<!-- Node3&#45;&gt;Node14 -->
<g id="edge15" class="edge">
<title>Node3&#45;&gt;Node14</title>
<path fill="none" stroke="midnightblue" d="M309.56,-179.48C317.44,-170.46 330.06,-156.02 339.86,-144.81"/>
<polygon fill="midnightblue" stroke="midnightblue" points="342.73,-146.84 346.68,-137.01 337.46,-142.24 342.73,-146.84"/>
</g>
<!-- Node15 -->
<g id="node15" class="node">
<title>Node15</title>
<g id="a_node15"><a xlink:title=" ">
<polygon fill="white" stroke="#bfbfbf" points="395.61,-118 395.61,-137 436.61,-137 436.61,-118 395.61,-118"/>
<text text-anchor="middle" x="416.11" y="-125" font-family="Helvetica,sans-Serif" font-size="10.00">tuple</text>
</a>
</g>
</g>
<!-- Node3&#45;&gt;Node15 -->
<g id="edge17" class="edge">
<title>Node3&#45;&gt;Node15</title>
<path fill="none" stroke="midnightblue" d="M318.45,-179.48C337.32,-169.62 368.62,-153.29 390.69,-141.77"/>
<polygon fill="midnightblue" stroke="midnightblue" points="392.56,-144.74 399.81,-137.01 389.32,-138.53 392.56,-144.74"/>
</g>
<!-- Node7&#45;&gt;Node6 -->
<g id="edge13" class="edge">
<title>Node7&#45;&gt;Node6</title>
<path fill="none" stroke="midnightblue" d="M195.78,-117.98C176.9,-108.12 145.61,-91.79 123.54,-80.27"/>
<polygon fill="midnightblue" stroke="midnightblue" points="124.9,-77.03 114.42,-75.51 121.66,-83.24 124.9,-77.03"/>
</g>
<!-- Node8 -->
<g id="node8" class="node">
<title>Node8</title>
<g id="a_node8"><a xlink:href="_o_m_sim_p_m_t_response_8hh.html" target="_top" xlink:title="Provides simulation for PMT response. This class is responsible for transforming hits on photocathode...">
<polygon fill="white" stroke="black" points="167.61,-56.5 167.61,-75.5 302.61,-75.5 302.61,-56.5 167.61,-56.5"/>
<text text-anchor="middle" x="235.11" y="-63.5" font-family="Helvetica,sans-Serif" font-size="10.00">OMSimPMTResponse.hh</text>
</a>
</g>
</g>
<!-- Node7&#45;&gt;Node8 -->
<g id="edge7" class="edge">
<title>Node7&#45;&gt;Node8</title>
<path fill="none" stroke="midnightblue" d="M215.41,-117.98C218.72,-109.4 223.93,-95.93 228.16,-84.98"/>
<polygon fill="midnightblue" stroke="midnightblue" points="231.48,-86.1 231.82,-75.51 224.95,-83.57 231.48,-86.1"/>
</g>
<!-- Node7&#45;&gt;Node13 -->
<g id="edge14" class="edge">
<title>Node7&#45;&gt;Node13</title>
<path fill="none" stroke="midnightblue" d="M231.6,-117.98C254.52,-107.95 292.8,-91.2 319.19,-79.65"/>
<polygon fill="midnightblue" stroke="midnightblue" points="320.9,-82.72 328.66,-75.51 318.1,-76.31 320.9,-82.72"/>
</g>
<!-- Node8&#45;&gt;Node4 -->
<g id="edge9" class="edge">
<title>Node8&#45;&gt;Node4</title>
<path fill="none" stroke="midnightblue" d="M206.43,-56.44C175.59,-47.24 126.38,-32.56 92.28,-22.39"/>
<polygon fill="midnightblue" stroke="midnightblue" points="93.24,-19.02 82.66,-19.52 91.24,-25.73 93.24,-19.02"/>
</g>
<!-- Node9 -->
<g id="node9" class="node">
<title>Node9</title>
<g id="a_node9"><a xlink:title=" ">
<polygon fill="white" stroke="#bfbfbf" points="563.61,-0.5 563.61,-19.5 682.61,-19.5 682.61,-0.5 563.61,-0.5"/>
<text text-anchor="middle" x="623.11" y="-7.5" font-family="Helvetica,sans-Serif" font-size="10.00">G4SystemOfUnits.hh</text>
</a>
</g>
</g>
<!-- Node8&#45;&gt;Node9 -->
<g id="edge8" class="edge">
<title>Node8&#45;&gt;Node9</title>
<path fill="none" stroke="midnightblue" d="M296.59,-56.44C366.49,-46.72 480.35,-30.87 553.47,-20.69"/>
<polygon fill="midnightblue" stroke="midnightblue" points="554.09,-24.14 563.51,-19.29 553.13,-17.21 554.09,-24.14"/>
</g>
<!-- Node10 -->
<g id="node10" class="node">
<title>Node10</title>
<g id="a_node10"><a xlink:title=" ">
<polygon fill="white" stroke="#bfbfbf" points="148.11,-0.5 148.11,-19.5 186.11,-19.5 186.11,-0.5 148.11,-0.5"/>
<text text-anchor="middle" x="167.11" y="-7.5" font-family="Helvetica,sans-Serif" font-size="10.00">map</text>
</a>
</g>
</g>
<!-- Node8&#45;&gt;Node10 -->
<g id="edge10" class="edge">
<title>Node8&#45;&gt;Node10</title>
<path fill="none" stroke="midnightblue" d="M224.19,-56.32C213.94,-48.18 198.39,-35.84 186.11,-26.09"/>
<polygon fill="midnightblue" stroke="midnightblue" points="188.24,-23.31 178.24,-19.83 183.89,-28.79 188.24,-23.31"/>
</g>
<!-- Node11 -->
<g id="node11" class="node">
<title>Node11</title>
<g id="a_node11"><a xlink:title=" ">
<polygon fill="white" stroke="#bfbfbf" points="204.61,-0.5 204.61,-19.5 265.61,-19.5 265.61,-0.5 204.61,-0.5"/>
<text text-anchor="middle" x="235.11" y="-7.5" font-family="Helvetica,sans-Serif" font-size="10.00">TGraph.h</text>
</a>
</g>
</g>
<!-- Node8&#45;&gt;Node11 -->
<g id="edge11" class="edge">
<title>Node8&#45;&gt;Node11</title>
<path fill="none" stroke="midnightblue" d="M235.11,-56.08C235.11,-49.01 235.11,-38.86 235.11,-29.99"/>
<polygon fill="midnightblue" stroke="midnightblue" points="238.61,-29.75 235.11,-19.75 231.61,-29.75 238.61,-29.75"/>
</g>
<!-- Node12 -->
<g id="node12" class="node">
<title>Node12</title>
<g id="a_node12"><a xlink:title=" ">
<polygon fill="white" stroke="#bfbfbf" points="283.61,-0.5 283.61,-19.5 336.61,-19.5 336.61,-0.5 283.61,-0.5"/>
<text text-anchor="middle" x="310.11" y="-7.5" font-family="Helvetica,sans-Serif" font-size="10.00">TH2D.h</text>
</a>
</g>
</g>
<!-- Node8&#45;&gt;Node12 -->
<g id="edge12" class="edge">
<title>Node8&#45;&gt;Node12</title>
<path fill="none" stroke="midnightblue" d="M247.16,-56.32C258.58,-48.11 275.94,-35.6 289.55,-25.81"/>
<polygon fill="midnightblue" stroke="midnightblue" points="291.77,-28.52 297.84,-19.83 287.68,-22.84 291.77,-28.52"/>
</g>
<!-- Node16&#45;&gt;Node13 -->
<g id="edge22" class="edge">
<title>Node16&#45;&gt;Node13</title>
<path fill="none" stroke="midnightblue" d="M501.97,-179.41C492.44,-164.1 470.66,-131.85 445.11,-112 426.8,-97.78 403.27,-86.72 383.97,-79.13"/>
<polygon fill="midnightblue" stroke="midnightblue" points="385.18,-75.84 374.59,-75.58 382.71,-82.39 385.18,-75.84"/>
</g>
<!-- Node17 -->
<g id="node17" class="node">
<title>Node17</title>
<g id="a_node17"><a xlink:href="_o_m_sim_logger_8hh.html" target="_top" xlink:title=" ">
<polygon fill="white" stroke="black" points="493.61,-118 493.61,-137 592.61,-137 592.61,-118 493.61,-118"/>
<text text-anchor="middle" x="543.11" y="-125" font-family="Helvetica,sans-Serif" font-size="10.00">OMSimLogger.hh</text>
</a>
</g>
</g>
<!-- Node16&#45;&gt;Node17 -->
<g id="edge19" class="edge">
<title>Node16&#45;&gt;Node17</title>
<path fill="none" stroke="midnightblue" d="M512.27,-179.48C517.56,-170.73 525.95,-156.87 532.64,-145.81"/>
<polygon fill="midnightblue" stroke="midnightblue" points="535.78,-147.38 537.96,-137.01 529.79,-143.75 535.78,-147.38"/>
</g>
<!-- Node20 -->
<g id="node20" class="node">
<title>Node20</title>
<g id="a_node20"><a xlink:title=" ">
<polygon fill="white" stroke="#bfbfbf" points="611.11,-118 611.11,-137 695.11,-137 695.11,-118 611.11,-118"/>
<text text-anchor="middle" x="653.11" y="-125" font-family="Helvetica,sans-Serif" font-size="10.00">boost/any.hpp</text>
</a>
</g>
</g>
<!-- Node16&#45;&gt;Node20 -->
<g id="edge23" class="edge">
<title>Node16&#45;&gt;Node20</title>
<path fill="none" stroke="midnightblue" d="M528.03,-179.48C552.86,-169.36 594.46,-152.4 622.81,-140.85"/>
<polygon fill="midnightblue" stroke="midnightblue" points="624.29,-144.02 632.23,-137.01 621.65,-137.54 624.29,-144.02"/>
</g>
<!-- Node21 -->
<g id="node21" class="node">
<title>Node21</title>
<g id="a_node21"><a xlink:title=" ">
<polygon fill="white" stroke="#bfbfbf" points="713.11,-118 713.11,-137 781.11,-137 781.11,-118 713.11,-118"/>
<text text-anchor="middle" x="747.11" y="-125" font-family="Helvetica,sans-Serif" font-size="10.00">sys/time.h</text>
</a>
</g>
</g>
<!-- Node16&#45;&gt;Node21 -->
<g id="edge24" class="edge">
<title>Node16&#45;&gt;Node21</title>
<path fill="none" stroke="midnightblue" d="M550.08,-179.49C590.2,-171.23 651.61,-157.81 704.11,-143 707.12,-142.15 710.24,-141.22 713.35,-140.24"/>
<polygon fill="midnightblue" stroke="midnightblue" points="714.71,-143.48 723.14,-137.06 712.55,-136.82 714.71,-143.48"/>
</g>
<!-- Node18 -->
<g id="node18" class="node">
<title>Node18</title>
<g id="a_node18"><a xlink:title=" ">
<polygon fill="white" stroke="#bfbfbf" points="484.11,-56.5 484.11,-75.5 534.11,-75.5 534.11,-56.5 484.11,-56.5"/>
<text text-anchor="middle" x="509.11" y="-63.5" font-family="Helvetica,sans-Serif" font-size="10.00">stdio.h</text>
</a>
</g>
</g>
<!-- Node17&#45;&gt;Node18 -->
<g id="edge20" class="edge">
<title>Node17&#45;&gt;Node18</title>
<path fill="none" stroke="midnightblue" d="M538.24,-117.98C533.24,-109.23 525.32,-95.37 519,-84.31"/>
<polygon fill="midnightblue" stroke="midnightblue" points="521.98,-82.46 513.97,-75.51 515.9,-85.93 521.98,-82.46"/>
</g>
<!-- Node19 -->
<g id="node19" class="node">
<title>Node19</title>
<g id="a_node19"><a xlink:title=" ">
<polygon fill="white" stroke="#bfbfbf" points="552.11,-56.5 552.11,-75.5 600.11,-75.5 600.11,-56.5 552.11,-56.5"/>
<text text-anchor="middle" x="576.11" y="-63.5" font-family="Helvetica,sans-Serif" font-size="10.00">time.h</text>
</a>
</g>
</g>
<!-- Node17&#45;&gt;Node19 -->
<g id="edge21" class="edge">
<title>Node17&#45;&gt;Node19</title>
<path fill="none" stroke="midnightblue" d="M547.84,-117.98C552.69,-109.23 560.38,-95.37 566.51,-84.31"/>
<polygon fill="midnightblue" stroke="midnightblue" points="569.6,-85.95 571.39,-75.51 563.48,-82.56 569.6,-85.95"/>
</g>
<!-- Node24&#45;&gt;Node9 -->
<g id="edge29" class="edge">
<title>Node24&#45;&gt;Node9</title>
<path fill="none" stroke="midnightblue" d="M892.1,-179.44C875.58,-170.9 850.01,-157.05 829.11,-143 810.74,-130.64 808.29,-124.64 790.11,-112 741.25,-78.01 680.82,-43.11 647.69,-24.56"/>
<polygon fill="midnightblue" stroke="midnightblue" points="649.16,-21.37 638.72,-19.56 645.75,-27.48 649.16,-21.37"/>
</g>
<!-- Node25 -->
<g id="node25" class="node">
<title>Node25</title>
<g id="a_node25"><a xlink:title=" ">
<polygon fill="white" stroke="#bfbfbf" points="837.61,-118 837.61,-137 980.61,-137 980.61,-118 837.61,-118"/>
<text text-anchor="middle" x="909.11" y="-125" font-family="Helvetica,sans-Serif" font-size="10.00">G4OpBoundaryProcess.hh</text>
</a>
</g>
</g>
<!-- Node24&#45;&gt;Node25 -->
<g id="edge28" class="edge">
<title>Node24&#45;&gt;Node25</title>
<path fill="none" stroke="midnightblue" d="M909.11,-179.48C909.11,-171.08 909.11,-157.98 909.11,-147.16"/>
<polygon fill="midnightblue" stroke="midnightblue" points="912.61,-147.01 909.11,-137.01 905.61,-147.01 912.61,-147.01"/>
</g>
<!-- Node26 -->
<g id="node26" class="node">
<title>Node26</title>
<g id="a_node26"><a xlink:title=" ">
<polygon fill="white" stroke="#bfbfbf" points="998.61,-112.5 998.61,-142.5 1111.61,-142.5 1111.61,-112.5 998.61,-112.5"/>
<text text-anchor="start" x="1006.61" y="-130.5" font-family="Helvetica,sans-Serif" font-size="10.00">boost/property_tree</text>
<text text-anchor="middle" x="1055.11" y="-119.5" font-family="Helvetica,sans-Serif" font-size="10.00">/json_parser.hpp</text>
</a>
</g>
</g>
<!-- Node24&#45;&gt;Node26 -->
<g id="edge30" class="edge">
<title>Node24&#45;&gt;Node26</title>
<path fill="none" stroke="midnightblue" d="M930.03,-179.48C951.1,-170.89 984.24,-157.38 1011.12,-146.43"/>
<polygon fill="midnightblue" stroke="midnightblue" points="1012.76,-149.54 1020.7,-142.52 1010.12,-143.06 1012.76,-149.54"/>
</g>
</g>
</svg>
