<?xml version="1.0" encoding="UTF-8" standalone="no"?>
<!DOCTYPE svg PUBLIC "-//W3C//DTD SVG 1.1//EN"
 "http://www.w3.org/Graphics/SVG/1.1/DTD/svg11.dtd">
<!-- Generated by graphviz version 2.43.0 (0)
 -->
<!-- Title: OMSimPrimaryGeneratorAction.cc Pages: 1 -->
<svg width="1562pt" height="196pt"
 viewBox="0.00 0.00 1561.50 196.00" xmlns="http://www.w3.org/2000/svg" xmlns:xlink="http://www.w3.org/1999/xlink">
<g id="graph0" class="graph" transform="scale(1 1) rotate(0) translate(4 192)">
<title>OMSimPrimaryGeneratorAction.cc</title>
<polygon fill="white" stroke="transparent" points="-4,4 -4,-192 1557.5,-192 1557.5,4 -4,4"/>
<!-- Node1 -->
<g id="node1" class="node">
<title>Node1</title>
<g id="a_node1"><a xlink:title="Main primary generator. Chooses between generators 0 (IBD), 1 (ENES), 2 (SN ibd)">
<polygon fill="#bfbfbf" stroke="black" points="746,-168.5 746,-187.5 929,-187.5 929,-168.5 746,-168.5"/>
<text text-anchor="middle" x="837.5" y="-175.5" font-family="Helvetica,sans-Serif" font-size="10.00">OMSimPrimaryGeneratorAction.cc</text>
</a>
</g>
</g>
<!-- Node2 -->
<g id="node2" class="node">
<title>Node2</title>
<g id="a_node2"><a xlink:title=" ">
<polygon fill="white" stroke="#bfbfbf" points="0,-112.5 0,-131.5 185,-131.5 185,-112.5 0,-112.5"/>
<text text-anchor="middle" x="92.5" y="-119.5" font-family="Helvetica,sans-Serif" font-size="10.00">OMSimPrimaryGeneratorAction.hh</text>
</a>
</g>
</g>
<!-- Node1&#45;&gt;Node2 -->
<g id="edge1" class="edge">
<title>Node1&#45;&gt;Node2</title>
<path fill="none" stroke="midnightblue" d="M745.74,-171.14C622.86,-163.17 397.77,-148.14 195.46,-132.14"/>
<polygon fill="midnightblue" stroke="midnightblue" points="195.48,-128.63 185.23,-131.33 194.92,-135.61 195.48,-128.63"/>
</g>
<!-- Node3 -->
<g id="node3" class="node">
<title>Node3</title>
<g id="a_node3"><a xlink:href="_o_m_sim_i_b_d_8hh.html" target="_top" xlink:title="This file contains the class in charge of generating positrons from IBD of supernova antineutrino int...">
<polygon fill="white" stroke="black" points="202.5,-112.5 202.5,-131.5 286.5,-131.5 286.5,-112.5 202.5,-112.5"/>
<text text-anchor="middle" x="244.5" y="-119.5" font-family="Helvetica,sans-Serif" font-size="10.00">OMSimIBD.hh</text>
</a>
</g>
</g>
<!-- Node1&#45;&gt;Node3 -->
<g id="edge2" class="edge">
<title>Node1&#45;&gt;Node3</title>
<path fill="none" stroke="midnightblue" d="M745.82,-168.65C619.91,-157.19 397.63,-136.94 296.83,-127.76"/>
<polygon fill="midnightblue" stroke="midnightblue" points="296.87,-124.25 286.59,-126.83 296.23,-131.23 296.87,-124.25"/>
</g>
<!-- Node9 -->
<g id="node9" class="node">
<title>Node9</title>
<g id="a_node9"><a xlink:href="_o_m_sim_e_n_e_s_8hh.html" target="_top" xlink:title="This file contains the class in charge of generating electrons from Electron&#45;electron_Neutrino Elasti...">
<polygon fill="white" stroke="black" points="361.5,-112.5 361.5,-131.5 453.5,-131.5 453.5,-112.5 361.5,-112.5"/>
<text text-anchor="middle" x="407.5" y="-119.5" font-family="Helvetica,sans-Serif" font-size="10.00">OMSimENES.hh</text>
</a>
</g>
</g>
<!-- Node1&#45;&gt;Node9 -->
<g id="edge11" class="edge">
<title>Node1&#45;&gt;Node9</title>
<path fill="none" stroke="midnightblue" d="M758.36,-168.5C684.68,-160.35 571.53,-147.27 463.77,-132.13"/>
<polygon fill="midnightblue" stroke="midnightblue" points="464.08,-128.64 453.69,-130.71 463.1,-135.57 464.08,-128.64"/>
</g>
<!-- Node10 -->
<g id="node10" class="node">
<title>Node10</title>
<g id="a_node10"><a xlink:href="_o_m_sim_primary_generator_messenger_8hh.html" target="_top" xlink:title=" ">
<polygon fill="white" stroke="black" points="471.5,-112.5 471.5,-131.5 677.5,-131.5 677.5,-112.5 471.5,-112.5"/>
<text text-anchor="middle" x="574.5" y="-119.5" font-family="Helvetica,sans-Serif" font-size="10.00">OMSimPrimaryGeneratorMessenger.hh</text>
</a>
</g>
</g>
<!-- Node1&#45;&gt;Node10 -->
<g id="edge16" class="edge">
<title>Node1&#45;&gt;Node10</title>
<path fill="none" stroke="midnightblue" d="M795.83,-168.44C749.75,-158.98 675.5,-143.74 625.87,-133.55"/>
<polygon fill="midnightblue" stroke="midnightblue" points="626.48,-130.1 615.98,-131.52 625.07,-136.96 626.48,-130.1"/>
</g>
<!-- Node12 -->
<g id="node12" class="node">
<title>Node12</title>
<g id="a_node12"><a xlink:title=" ">
<polygon fill="white" stroke="#bfbfbf" points="696,-112.5 696,-131.5 769,-131.5 769,-112.5 696,-112.5"/>
<text text-anchor="middle" x="732.5" y="-119.5" font-family="Helvetica,sans-Serif" font-size="10.00">G4Event.hh</text>
</a>
</g>
</g>
<!-- Node1&#45;&gt;Node12 -->
<g id="edge19" class="edge">
<title>Node1&#45;&gt;Node12</title>
<path fill="none" stroke="midnightblue" d="M820.63,-168.32C803.79,-159.66 777.69,-146.24 758.26,-136.25"/>
<polygon fill="midnightblue" stroke="midnightblue" points="759.82,-133.12 749.33,-131.65 756.62,-139.34 759.82,-133.12"/>
</g>
<!-- Node13 -->
<g id="node13" class="node">
<title>Node13</title>
<g id="a_node13"><a xlink:title=" ">
<polygon fill="white" stroke="#bfbfbf" points="787,-112.5 787,-131.5 888,-131.5 888,-112.5 787,-112.5"/>
<text text-anchor="middle" x="837.5" y="-119.5" font-family="Helvetica,sans-Serif" font-size="10.00">G4ParticleGun.hh</text>
</a>
</g>
</g>
<!-- Node1&#45;&gt;Node13 -->
<g id="edge20" class="edge">
<title>Node1&#45;&gt;Node13</title>
<path fill="none" stroke="midnightblue" d="M837.5,-168.08C837.5,-161.01 837.5,-150.86 837.5,-141.99"/>
<polygon fill="midnightblue" stroke="midnightblue" points="841,-141.75 837.5,-131.75 834,-141.75 841,-141.75"/>
</g>
<!-- Node14 -->
<g id="node14" class="node">
<title>Node14</title>
<g id="a_node14"><a xlink:title=" ">
<polygon fill="white" stroke="#bfbfbf" points="906,-112.5 906,-131.5 1013,-131.5 1013,-112.5 906,-112.5"/>
<text text-anchor="middle" x="959.5" y="-119.5" font-family="Helvetica,sans-Serif" font-size="10.00">G4ParticleTable.hh</text>
</a>
</g>
</g>
<!-- Node1&#45;&gt;Node14 -->
<g id="edge21" class="edge">
<title>Node1&#45;&gt;Node14</title>
<path fill="none" stroke="midnightblue" d="M856.83,-168.44C876.82,-159.6 908.24,-145.69 931.06,-135.59"/>
<polygon fill="midnightblue" stroke="midnightblue" points="932.53,-138.76 940.26,-131.52 929.7,-132.36 932.53,-138.76"/>
</g>
<!-- Node15 -->
<g id="node15" class="node">
<title>Node15</title>
<g id="a_node15"><a xlink:title=" ">
<polygon fill="white" stroke="#bfbfbf" points="1031.5,-112.5 1031.5,-131.5 1159.5,-131.5 1159.5,-112.5 1031.5,-112.5"/>
<text text-anchor="middle" x="1095.5" y="-119.5" font-family="Helvetica,sans-Serif" font-size="10.00">G4ParticleDefinition.hh</text>
</a>
</g>
</g>
<!-- Node1&#45;&gt;Node15 -->
<g id="edge22" class="edge">
<title>Node1&#45;&gt;Node15</title>
<path fill="none" stroke="midnightblue" d="M878.38,-168.44C923.48,-159 996.11,-143.8 1044.8,-133.61"/>
<polygon fill="midnightblue" stroke="midnightblue" points="1045.74,-136.99 1054.81,-131.52 1044.31,-130.14 1045.74,-136.99"/>
</g>
<!-- Node16 -->
<g id="node16" class="node">
<title>Node16</title>
<g id="a_node16"><a xlink:title=" ">
<polygon fill="white" stroke="#bfbfbf" points="1177.5,-112.5 1177.5,-131.5 1311.5,-131.5 1311.5,-112.5 1177.5,-112.5"/>
<text text-anchor="middle" x="1244.5" y="-119.5" font-family="Helvetica,sans-Serif" font-size="10.00">G4PhysicalConstants.hh</text>
</a>
</g>
</g>
<!-- Node1&#45;&gt;Node16 -->
<g id="edge23" class="edge">
<title>Node1&#45;&gt;Node16</title>
<path fill="none" stroke="midnightblue" d="M901.99,-168.44C974.93,-158.77 1093.49,-143.04 1170.24,-132.85"/>
<polygon fill="midnightblue" stroke="midnightblue" points="1170.86,-136.3 1180.31,-131.52 1169.94,-129.36 1170.86,-136.3"/>
</g>
<!-- Node17 -->
<g id="node17" class="node">
<title>Node17</title>
<g id="a_node17"><a xlink:title=" ">
<polygon fill="white" stroke="#bfbfbf" points="1330,-112.5 1330,-131.5 1449,-131.5 1449,-112.5 1330,-112.5"/>
<text text-anchor="middle" x="1389.5" y="-119.5" font-family="Helvetica,sans-Serif" font-size="10.00">G4SystemOfUnits.hh</text>
</a>
</g>
</g>
<!-- Node1&#45;&gt;Node17 -->
<g id="edge24" class="edge">
<title>Node1&#45;&gt;Node17</title>
<path fill="none" stroke="midnightblue" d="M929.3,-169.46C1024.26,-161.43 1177.12,-147.86 1319.45,-132.08"/>
<polygon fill="midnightblue" stroke="midnightblue" points="1320.13,-135.53 1329.68,-130.94 1319.35,-128.57 1320.13,-135.53"/>
</g>
<!-- Node18 -->
<g id="node18" class="node">
<title>Node18</title>
<g id="a_node18"><a xlink:title=" ">
<polygon fill="white" stroke="#bfbfbf" points="1467.5,-112.5 1467.5,-131.5 1553.5,-131.5 1553.5,-112.5 1467.5,-112.5"/>
<text text-anchor="middle" x="1510.5" y="-119.5" font-family="Helvetica,sans-Serif" font-size="10.00">Randomize.hh</text>
</a>
</g>
</g>
<!-- Node1&#45;&gt;Node18 -->
<g id="edge25" class="edge">
<title>Node1&#45;&gt;Node18</title>
<path fill="none" stroke="midnightblue" d="M929.06,-173.21C1048.36,-167.62 1263.62,-155.37 1457.33,-132.02"/>
<polygon fill="midnightblue" stroke="midnightblue" points="1457.91,-135.48 1467.42,-130.79 1457.07,-128.53 1457.91,-135.48"/>
</g>
<!-- Node4 -->
<g id="node4" class="node">
<title>Node4</title>
<g id="a_node4"><a xlink:title=" ">
<polygon fill="white" stroke="#bfbfbf" points="272.5,-56.5 272.5,-75.5 464.5,-75.5 464.5,-56.5 272.5,-56.5"/>
<text text-anchor="middle" x="368.5" y="-63.5" font-family="Helvetica,sans-Serif" font-size="10.00">G4VUserPrimaryGeneratorAction.hh</text>
</a>
</g>
</g>
<!-- Node3&#45;&gt;Node4 -->
<g id="edge3" class="edge">
<title>Node3&#45;&gt;Node4</title>
<path fill="none" stroke="midnightblue" d="M264.15,-112.44C284.46,-103.6 316.4,-89.69 339.6,-79.59"/>
<polygon fill="midnightblue" stroke="midnightblue" points="341.17,-82.72 348.94,-75.52 338.38,-76.3 341.17,-82.72"/>
</g>
<!-- Node5 -->
<g id="node5" class="node">
<title>Node5</title>
<g id="a_node5"><a xlink:title=" ">
<polygon fill="white" stroke="#bfbfbf" points="354,-0.5 354,-19.5 421,-19.5 421,-0.5 354,-0.5"/>
<text text-anchor="middle" x="387.5" y="-7.5" font-family="Helvetica,sans-Serif" font-size="10.00">globals.hh</text>
</a>
</g>
</g>
<!-- Node3&#45;&gt;Node5 -->
<g id="edge4" class="edge">
<title>Node3&#45;&gt;Node5</title>
<path fill="none" stroke="midnightblue" d="M244.65,-112.21C245.36,-98.45 248.7,-71.78 263.5,-56 284.48,-33.64 317.44,-22.36 344.1,-16.68"/>
<polygon fill="midnightblue" stroke="midnightblue" points="344.82,-20.11 353.97,-14.77 343.49,-13.24 344.82,-20.11"/>
</g>
<!-- Node6 -->
<g id="node6" class="node">
<title>Node6</title>
<g id="a_node6"><a xlink:title=" ">
<polygon fill="white" stroke="#bfbfbf" points="140,-0.5 140,-19.5 187,-19.5 187,-0.5 140,-0.5"/>
<text text-anchor="middle" x="163.5" y="-7.5" font-family="Helvetica,sans-Serif" font-size="10.00">vector</text>
</a>
</g>
</g>
<!-- Node3&#45;&gt;Node6 -->
<g id="edge5" class="edge">
<title>Node3&#45;&gt;Node6</title>
<path fill="none" stroke="midnightblue" d="M202.31,-113.41C164.63,-105.67 113.59,-92.47 101.5,-76 87.23,-56.55 112.84,-36.87 135.35,-24.34"/>
<polygon fill="midnightblue" stroke="midnightblue" points="137.15,-27.35 144.36,-19.59 133.89,-21.16 137.15,-27.35"/>
</g>
<!-- Node7 -->
<g id="node7" class="node">
<title>Node7</title>
<g id="a_node7"><a xlink:title=" ">
<polygon fill="white" stroke="#bfbfbf" points="6,-0.5 6,-19.5 109,-19.5 109,-0.5 6,-0.5"/>
<text text-anchor="middle" x="57.5" y="-7.5" font-family="Helvetica,sans-Serif" font-size="10.00">G4ThreeVector.hh</text>
</a>
</g>
</g>
<!-- Node3&#45;&gt;Node7 -->
<g id="edge6" class="edge">
<title>Node3&#45;&gt;Node7</title>
<path fill="none" stroke="midnightblue" d="M203.55,-112.47C164.93,-103.78 110.5,-89.67 93.5,-76 78.45,-63.9 68.7,-43.73 63.19,-29.06"/>
<polygon fill="midnightblue" stroke="midnightblue" points="66.47,-27.86 59.91,-19.55 59.86,-30.14 66.47,-27.86"/>
</g>
<!-- Node8 -->
<g id="node8" class="node">
<title>Node8</title>
<g id="a_node8"><a xlink:href="_o_m_sim_s_n_tools_8hh.html" target="_top" xlink:title="Provides the definition for the OMSimSNTools class, centralizing utility methods for Supernova (SN) n...">
<polygon fill="white" stroke="black" points="111,-56.5 111,-75.5 216,-75.5 216,-56.5 111,-56.5"/>
<text text-anchor="middle" x="163.5" y="-63.5" font-family="Helvetica,sans-Serif" font-size="10.00">OMSimSNTools.hh</text>
</a>
</g>
</g>
<!-- Node3&#45;&gt;Node8 -->
<g id="edge7" class="edge">
<title>Node3&#45;&gt;Node8</title>
<path fill="none" stroke="midnightblue" d="M231.49,-112.32C218.97,-103.98 199.82,-91.21 185.03,-81.35"/>
<polygon fill="midnightblue" stroke="midnightblue" points="186.74,-78.29 176.48,-75.65 182.86,-84.11 186.74,-78.29"/>
</g>
<!-- Node8&#45;&gt;Node5 -->
<g id="edge8" class="edge">
<title>Node8&#45;&gt;Node5</title>
<path fill="none" stroke="midnightblue" d="M198.99,-56.44C238.28,-46.97 301.63,-31.7 343.9,-21.51"/>
<polygon fill="midnightblue" stroke="midnightblue" points="344.74,-24.91 353.64,-19.16 343.1,-18.1 344.74,-24.91"/>
</g>
<!-- Node8&#45;&gt;Node6 -->
<g id="edge9" class="edge">
<title>Node8&#45;&gt;Node6</title>
<path fill="none" stroke="midnightblue" d="M163.5,-56.08C163.5,-49.01 163.5,-38.86 163.5,-29.99"/>
<polygon fill="midnightblue" stroke="midnightblue" points="167,-29.75 163.5,-19.75 160,-29.75 167,-29.75"/>
</g>
<!-- Node8&#45;&gt;Node7 -->
<g id="edge10" class="edge">
<title>Node8&#45;&gt;Node7</title>
<path fill="none" stroke="midnightblue" d="M146.47,-56.32C129.47,-47.66 103.12,-34.24 83.51,-24.25"/>
<polygon fill="midnightblue" stroke="midnightblue" points="84.99,-21.08 74.49,-19.65 81.81,-27.31 84.99,-21.08"/>
</g>
<!-- Node9&#45;&gt;Node4 -->
<g id="edge12" class="edge">
<title>Node9&#45;&gt;Node4</title>
<path fill="none" stroke="midnightblue" d="M401.06,-112.08C395.55,-104.46 387.47,-93.26 380.74,-83.94"/>
<polygon fill="midnightblue" stroke="midnightblue" points="383.51,-81.81 374.82,-75.75 377.84,-85.91 383.51,-81.81"/>
</g>
<!-- Node9&#45;&gt;Node5 -->
<g id="edge13" class="edge">
<title>Node9&#45;&gt;Node5</title>
<path fill="none" stroke="midnightblue" d="M444.75,-112.41C480.21,-102.38 525.55,-83.57 506.5,-56 489.58,-31.51 457.49,-20.33 430.89,-15.24"/>
<polygon fill="midnightblue" stroke="midnightblue" points="431.46,-11.78 421.01,-13.57 430.29,-18.69 431.46,-11.78"/>
</g>
<!-- Node9&#45;&gt;Node6 -->
<g id="edge14" class="edge">
<title>Node9&#45;&gt;Node6</title>
<path fill="none" stroke="midnightblue" d="M427.8,-112.4C453.45,-100.36 492.13,-77.53 473.5,-56 455.57,-35.28 273.77,-19.3 197.21,-13.43"/>
<polygon fill="midnightblue" stroke="midnightblue" points="197.36,-9.93 187.13,-12.67 196.84,-16.91 197.36,-9.93"/>
</g>
<!-- Node9&#45;&gt;Node8 -->
<g id="edge15" class="edge">
<title>Node9&#45;&gt;Node8</title>
<path fill="none" stroke="midnightblue" d="M368.84,-112.44C326.36,-103.04 258.07,-87.93 212.03,-77.74"/>
<polygon fill="midnightblue" stroke="midnightblue" points="212.5,-74.26 201.98,-75.52 210.99,-81.09 212.5,-74.26"/>
</g>
<!-- Node10&#45;&gt;Node5 -->
<g id="edge18" class="edge">
<title>Node10&#45;&gt;Node5</title>
<path fill="none" stroke="midnightblue" d="M612.21,-112.43C650.25,-102.07 700.34,-82.65 677.5,-56 646.34,-19.63 504.54,-12.41 431.41,-11.14"/>
<polygon fill="midnightblue" stroke="midnightblue" points="431.19,-7.64 421.14,-10.99 431.09,-14.64 431.19,-7.64"/>
</g>
<!-- Node11 -->
<g id="node11" class="node">
<title>Node11</title>
<g id="a_node11"><a xlink:title=" ">
<polygon fill="white" stroke="#bfbfbf" points="559,-56.5 559,-75.5 668,-75.5 668,-56.5 559,-56.5"/>
<text text-anchor="middle" x="613.5" y="-63.5" font-family="Helvetica,sans-Serif" font-size="10.00">G4UImessenger.hh</text>
</a>
</g>
</g>
<!-- Node10&#45;&gt;Node11 -->
<g id="edge17" class="edge">
<title>Node10&#45;&gt;Node11</title>
<path fill="none" stroke="midnightblue" d="M580.94,-112.08C586.45,-104.46 594.53,-93.26 601.26,-83.94"/>
<polygon fill="midnightblue" stroke="midnightblue" points="604.16,-85.91 607.18,-75.75 598.49,-81.81 604.16,-85.91"/>
</g>
</g>
</svg>
